<?xml version="1.0" encoding="utf-8"?>
<!-- Generator: Adobe Illustrator 16.0.0, SVG Export Plug-In . SVG Version: 6.00 Build 0)  -->
<!DOCTYPE svg PUBLIC "-//W3C//DTD SVG 1.1//EN" "http://www.w3.org/Graphics/SVG/1.1/DTD/svg11.dtd">
<svg version="1.1" xmlns="http://www.w3.org/2000/svg" xmlns:xlink="http://www.w3.org/1999/xlink" x="0px" y="0px" width="150px"
	 height="150px" viewBox="0 0 150 150" enable-background="new 0 0 150 150" xml:space="preserve">
<g id="black" display="none">
	<g display="inline">
		<path fill="#0A1C2B" d="M178.061,36.957h22.499v74.997c0,23.399-10.799,33.449-34.499,32.099v-21.599c8.25,0.45,12-2.55,12-10.5
			V36.957z M175.811,16.857c0-7.35,6.15-13.5,13.5-13.5s13.5,6.15,13.5,13.5s-6.15,13.5-13.5,13.5S175.811,24.207,175.811,16.857z"
			/>
		<path fill="#0A1C2B" d="M288.007,36.957v74.997h-22.499v-7.05c-4.05,5.55-11.55,9.15-21.449,9.15
			c-15.149,0-28.049-10.8-28.049-31.049V36.957h22.499v42.749c0,9.299,5.85,13.649,13.049,13.649c8.25,0,13.95-4.8,13.95-15.45
			V36.957H288.007z"/>
		<path fill="#0A1C2B" d="M376.505,65.905v46.048h-22.499V69.206c0-9.3-5.85-13.649-13.049-13.649c-8.25,0-13.95,4.8-13.95,15.449
			v40.948h-22.499V36.957h22.499v7.05c4.05-5.55,11.55-9.149,21.449-9.149C363.606,34.857,376.505,45.656,376.505,65.905z"/>
		<path fill="#0A1C2B" d="M389.707,16.857c0-7.35,6.15-13.5,13.5-13.5c7.35,0,13.5,6.15,13.5,13.5s-6.149,13.5-13.5,13.5
			C395.857,30.357,389.707,24.207,389.707,16.857z M391.957,36.957h22.499v74.997h-22.499V36.957z"/>
		<path fill="#0A1C2B" d="M503.703,36.957l-27.749,74.997h-25.499l-27.749-74.997h24.899l15.6,47.548l15.599-47.548H503.703z"/>
		<path fill="#0A1C2B" d="M505.207,74.455c0-22.349,17.699-39.598,39.748-39.598s39.748,17.249,39.748,39.598
			s-17.699,39.599-39.748,39.599S505.207,96.804,505.207,74.455z M562.205,74.455c0-10.649-7.5-17.699-17.25-17.699
			s-17.249,7.05-17.249,17.699s7.499,17.699,17.249,17.699S562.205,85.104,562.205,74.455z"/>
	</g>
</g>
<g id="white" display="none">
	<g display="inline">
		<path fill="#FFFFFF" d="M178.061,36.957h22.499v74.997c0,23.399-10.799,33.449-34.499,32.099v-21.599c8.25,0.45,12-2.55,12-10.5
			V36.957z M175.811,16.857c0-7.35,6.15-13.5,13.5-13.5s13.5,6.15,13.5,13.5s-6.15,13.5-13.5,13.5S175.811,24.207,175.811,16.857z"
			/>
		<path fill="#FFFFFF" d="M288.007,36.957v74.997h-22.499v-7.05c-4.05,5.55-11.55,9.15-21.449,9.15
			c-15.149,0-28.049-10.8-28.049-31.049V36.957h22.499v42.749c0,9.299,5.85,13.649,13.049,13.649c8.25,0,13.95-4.8,13.95-15.45
			V36.957H288.007z"/>
		<path fill="#FFFFFF" d="M376.505,65.905v46.048h-22.499V69.206c0-9.3-5.85-13.649-13.049-13.649c-8.25,0-13.95,4.8-13.95,15.449
			v40.948h-22.499V36.957h22.499v7.05c4.05-5.55,11.55-9.149,21.449-9.149C363.606,34.857,376.505,45.656,376.505,65.905z"/>
		<path fill="#FFFFFF" d="M389.707,16.857c0-7.35,6.15-13.5,13.5-13.5c7.35,0,13.5,6.15,13.5,13.5s-6.149,13.5-13.5,13.5
			C395.857,30.357,389.707,24.207,389.707,16.857z M391.957,36.957h22.499v74.997h-22.499V36.957z"/>
		<path fill="#FFFFFF" d="M503.703,36.957l-27.749,74.997h-25.499l-27.749-74.997h24.899l15.6,47.548l15.599-47.548H503.703z"/>
		<path fill="#FFFFFF" d="M505.207,74.455c0-22.349,17.699-39.598,39.748-39.598s39.748,17.249,39.748,39.598
			s-17.699,39.599-39.748,39.599S505.207,96.804,505.207,74.455z M562.205,74.455c0-10.649-7.5-17.699-17.25-17.699
			s-17.249,7.05-17.249,17.699s7.499,17.699,17.249,17.699S562.205,85.104,562.205,74.455z"/>
	</g>
</g>
<g id="Logo">
	<g>
		<path fill="#6ACDF5" d="M131.911,53.475c0.015,13.852,0.015,28.09,0,40.226v6.125c-0.212,2.965-1.99,5.49-4.495,6.766l-1.378,0.55
			l-99.594,37.111c-5.101,2.055-10.65-1.705-10.65-7.206v-25.11c0-6.653,4.051-12.636,10.22-15.105l100.611-41.779
			c2.831-1.132,5.309-3.592,5.29-6.638v5.057h-0.003V53.475z"/>
		<path fill="#436DB5" d="M131.911,47.828c0,1.795-0.003,3.682,0,5.647c0.011,13.858,0.015,28.09,0,40.226L25.917,53.208
			c-6.134-2.495-10.128-8.452-10.128-15.064V11.466c0-5.516,5.581-9.276,10.686-7.192l99.939,35.676
			c0.131,0.044,0.254,0.098,0.38,0.153c2.006,0.845,3.612,2.448,4.455,4.456c0.091,0.204,0.175,0.416,0.241,0.638
			c0.067,0.216,0.133,0.438,0.185,0.655c0.024,0.113,0.047,0.223,0.08,0.332c0.04,0.233,0.077,0.459,0.103,0.691L131.911,47.828z"/>
		<path fill="#3857A7" d="M131.918,47.828v0.72c-0.048,3.002-2.502,5.393-5.294,6.507L80.683,74.128l-22.855-8.733l64.279-13.185
			c0,0,7.55-0.568,9.4-6.985c0.073,0.204,0.132,0.416,0.174,0.624c0.026,0.112,0.056,0.229,0.078,0.339
			c0.044,0.229,0.081,0.455,0.105,0.688L131.918,47.828z"/>
		<path fill="#4D77BB" d="M126.625,55.056c2.805-1.122,5.273-3.534,5.294-6.558v4.978c0.007,13.852,0.007,28.09,0,40.226
			L80.683,74.128L126.625,55.056z"/>
	</g>
	<g>
	</g>
	<g>
	</g>
	<g>
	</g>
	<g>
	</g>
	<g>
	</g>
	<g>
	</g>
</g>
</svg>
