<svg id="Layer_1" data-name="Layer 1" xmlns="http://www.w3.org/2000/svg" viewBox="0 0 364.83 22.27"><defs><style>.cls-1{fill:#1d1d1b;}</style></defs><title>emaar-square-logo</title><path class="cls-1" d="M47.81,20.05h2.66l2.19-4.77h8.72l2.06,4.77h2.71l-9-20ZM53.67,13,57.1,5.47,60.38,13Zm18,7.07h2.66l2.19-4.77h8.72l2.06,4.77H90L81,0ZM77.54,13,81,5.47,84.25,13ZM29.92,15.55,40.4,0V20.05H37.89V8l-8,12L22.06,8.31,22,8.17V20.05H19.41V0L29.88,15.49ZM0,0H11.77V2.46H2.66V8.54H9.71V11h-7V17.6h9.11v2.45H0ZM107.56,10.87a5.83,5.83,0,0,0,1.94-4.6,6.07,6.07,0,0,0-1.82-4.5,5.37,5.37,0,0,0-2.4-1.39A16.84,16.84,0,0,0,101.16,0H97.81V20.05h2.64V12.57h1.81a11.81,11.81,0,0,0,1.49-.09h0L109,20.05h3.16l-6-8.27A6.23,6.23,0,0,0,107.56,10.87Zm-2.67-1.19a6.79,6.79,0,0,1-2.93.53h-1.51V2.34h1.37a10,10,0,0,1,1.83.15,4.23,4.23,0,0,1,2.2,1,3.87,3.87,0,0,1,1,2.74,4.76,4.76,0,0,1-.11,1A3.44,3.44,0,0,1,104.89,9.68Zm234.05,8h7.9v2.34H336.4V0h2.54Zm25.89,0v2.34H354.39V0h2.54V17.71Zm-54.52,2.34H313l2.18-4.76h8.71l2.06,4.76h2.7l-9-20ZM316.16,13l3.43-7.5,3.27,7.5Zm-23.39,2.56L303.24,0V20.05h-2.51V8l-8,12L284.9,8.31l-.1-.14V20.05h-2.55V0l10.47,15.49Zm-91.58,4.67h2.66L206,15.45h8.72l2.06,4.77h2.71l-9-20Zm5.86-7.07,3.44-7.51,3.27,7.51Zm43.54-13h11.77V2.62h-9.11V8.71h7v2.43h-7v6.63h9.11v2.45H250.59ZM170.41,10.23a9.83,9.83,0,0,0-3-7.2,9.82,9.82,0,0,0-7.18-3A10,10,0,0,0,153,3a9.6,9.6,0,0,0-3,7.1,9.62,9.62,0,0,0,3.32,7.61,10.12,10.12,0,0,0,6.81,2.63,10.24,10.24,0,0,0,4.61-1l3,3,1.66-1.67L166.7,18c.23-.19.47-.4.69-.62A9.63,9.63,0,0,0,170.41,10.23Zm-7.53,7.29a8.11,8.11,0,0,1-2.78.48,7.42,7.42,0,0,1-5.3-2.21,7.5,7.5,0,0,1-2.32-5.65,7.5,7.5,0,0,1,2.23-5.5,7.76,7.76,0,0,1,10.93,0,7.63,7.63,0,0,1,2.21,5.55,7.68,7.68,0,0,1-2.24,5.56,7.88,7.88,0,0,1-.62.55l-2.57-2.57-1.66,1.67ZM141,10.86a5.24,5.24,0,0,1,1.08,3.35,5.94,5.94,0,0,1-1.78,4.42,6.12,6.12,0,0,1-4.45,1.76,6,6,0,0,1-4.17-1.49,6.41,6.41,0,0,1-1-1.33l-.19-.35v0a5.83,5.83,0,0,1-.72-2.36h2.66a4.25,4.25,0,0,0,.65,1.8,3.71,3.71,0,0,0,5.48.38,3.54,3.54,0,0,0,1-2.58,3.87,3.87,0,0,0-.17-1.16,3.11,3.11,0,0,0-.56-1,4.26,4.26,0,0,0-.94-.82,9.36,9.36,0,0,0-1.35-.7L134.53,10c-2.68-1.13-4-2.73-4-4.88a4.65,4.65,0,0,1,1.65-3.61,5.69,5.69,0,0,1,1.9-1.11,6.11,6.11,0,0,1,3.2-.24,5.09,5.09,0,0,1,.85.23l.08,0,.13,0a6.21,6.21,0,0,1,.81.42l.16.09,0,0a4.49,4.49,0,0,1,2.24,3.48h-2.5a2.23,2.23,0,0,0-.62-1.18,3.13,3.13,0,0,0-1.36-.74,3.32,3.32,0,0,0-3.05.62,2.49,2.49,0,0,0-.92,2c0,1.09.79,2,2.34,2.6l2,.83A8.35,8.35,0,0,1,141,10.86Zm48.28,9,0,0h0ZM191.37.17H194V12.55c0,3.61-1.81,6.28-4.69,7.24a9.2,9.2,0,0,1-4.32.3,7.11,7.11,0,0,1-2.71-1,6.51,6.51,0,0,1-1.73-1.62,7.14,7.14,0,0,1-1.1-2.23,9.4,9.4,0,0,1-.38-2.69V.17h2.61V11.93c0,.19,0,.38,0,.57.22,3.11,1.35,4.55,3.08,5a7.06,7.06,0,0,0,1.76.23,6.71,6.71,0,0,0,1.84-.25c1.7-.51,2.8-2,3-5.08,0-.23,0-.46,0-.71ZM237.59,11a5.82,5.82,0,0,0,1.94-4.6,6,6,0,0,0-1.82-4.5,5.37,5.37,0,0,0-2.4-1.39A16.81,16.81,0,0,0,231.2.17h-3.36v20h2.64V12.74h1.81a12,12,0,0,0,1.5-.09h0l5.29,7.57h3.16l-6-8.27A6.23,6.23,0,0,0,237.59,11Zm-2.67-1.19a6.78,6.78,0,0,1-2.92.53h-1.52V2.51h1.37a10,10,0,0,1,1.83.15,4.12,4.12,0,0,1,2.2,1,3.83,3.83,0,0,1,1,2.74,4.77,4.77,0,0,1-.1,1A3.45,3.45,0,0,1,234.92,9.85Z"/></svg>