<?xml version="1.0" encoding="utf-8"?>
<!-- Generator: Adobe Illustrator 22.0.1, SVG Export Plug-In . SVG Version: 6.00 Build 0)  -->
<svg version="1.1" id="Layer_1" xmlns="http://www.w3.org/2000/svg" xmlns:xlink="http://www.w3.org/1999/xlink" x="0px" y="0px"
	 viewBox="0 0 624.9 169.3" style="enable-background:new 0 0 624.9 169.3;" xml:space="preserve">
<style type="text/css">
	.st0{fill:#F58220;}
	.st1{fill:#0058A9;}
	.st2{fill:#FFFFFF;}
</style>
<g>
	<path class="st0" d="M0,169.3h560.7c0,0,64.2,0,64.2-57.2V0H63C63,0,0-2.2,0,56.1V169.3z"/>
	<path class="st1" d="M387.5,84.7c0-25.8,22.9-46.7,51.1-46.7c28.2,0,51.1,20.9,51.1,46.7c0,25.8-22.9,46.7-51.1,46.7
		C410.4,131.4,387.5,110.5,387.5,84.7"/>
	<path class="st1" d="M486.8,84.7c0-25.8,22.9-46.7,51.1-46.7c28.2,0,51.1,20.9,51.1,46.7c0,25.8-22.9,46.7-51.1,46.7
		C509.7,131.4,486.8,110.5,486.8,84.7"/>
	<path class="st2" d="M404.7,92.4v3.1c0,11.6,6.9,12.9,17.6,13.5c3.8,0.2,7.6,0.2,11.4,0.2c7.3,0,14.5-0.2,21.8-0.5
		c12.9-0.9,18.9-3.2,18.9-15.8c0-13.2-7.6-15.5-20.6-15.5c-3.8,0-7.5-0.1-11.2-0.1l-11.4-0.2c-3.9-0.2-9.7,0.4-9.7-4.6
		c0-3.1,3.2-3.7,6.2-3.8c4.4-0.2,8.6-0.4,13-0.4c2.7,0,5.4,0,8.2,0.1c3.8,0.2,6.3,1,6.5,4.8h16.7c-0.1-3.2,0-6.7-1.8-9.7
		c-4-6-11.7-6.1-18.6-6.2l-11.9-0.2c-6.5,0-19.1,0.1-25.1,1.5c-8.9,2.1-10.4,7.3-10.4,14.8c0,9.6,3.4,14.1,14.3,14.8
		c9.3,0.5,18.7,0.5,28,0.5h2.8c3.7,0,7.9,0.4,7.9,4.5c0,4.4-3.8,4.3-7.5,4.4c-3.9,0.2-7.6,0.3-11.4,0.3c-2.7,0-5.4-0.1-8-0.1
		c-3.9-0.2-8.7-0.1-8.7-4.7c0-0.3,0-0.5-0.1-0.8H404.7z"/>
</g>
<path class="st2" d="M550.7,88.9h-24l12-20.2L550.7,88.9z M557,99.5l5.3,9.3H581l-30.5-51h-23l-31.2,51h18.9l5.5-9.3H557z"/>
<polygon class="st2" points="27.6,71.2 50.8,71.2 50.8,108.2 67.3,108.2 67.3,71.2 90.5,71.2 90.5,59 27.6,59 "/>
<polygon class="st2" points="92.5,108.2 152.4,108.2 152.4,96.3 109,96.3 109,88.5 149.2,88.5 149.2,78.3 109,78.3 109,70.4 
	151.5,70.4 151.5,59 92.5,59 "/>
<polygon class="st2" points="157.2,108.2 173.7,108.2 173.7,89.3 181,89.3 204.8,108.2 228.2,108.2 195.6,83 224.7,59 202.3,59 
	181.4,77 173.7,77 173.7,59 157.2,59 "/>
<polygon class="st2" points="229.1,108.2 245.6,108.2 245.6,72.4 245.8,72.4 276.8,108.2 302.4,108.2 302.4,59 285.9,59 285.9,94.7 
	285.7,94.7 254.7,59 229.1,59 "/>
<g>
	<path class="st2" d="M324.1,80.9c0-6.1,1.6-9.8,10.3-9.8h19.3c8.7,0,10.3,3.7,10.3,9.8v5.3c0,7.1-1.6,9.8-9.5,9.8h-21.1
		c-7.8,0-9.4-2.7-9.4-9.8V80.9z M307.2,90.9c0,14.4,8.9,17.8,23.7,17.8h26.5c14.9,0,23.7-3.4,23.7-17.8V76.2
		c0-14.4-8.9-17.8-23.7-17.8h-26.5c-14.9,0-23.7,3.4-23.7,17.8V90.9z"/>
</g>
</svg>
