<svg width="131" height="48" viewBox="0 0 131 48" fill="none" xmlns="http://www.w3.org/2000/svg">
<path d="M38.2236 47.3316L35.6341 43.4298V47.3316H34.3569V40.9727H35.4964L38.0886 44.8663V40.9727H39.3658V47.3316H38.2236Z" fill="#66666B"/>
<path d="M43.5537 47.3316V40.9727H47.8605V42.0797H44.8309V43.5702H47.4123V44.68H44.8309V46.2245H47.8605V47.3316H43.5537Z" fill="#66666B"/>
<path d="M54.2735 42.0785V47.3304H52.9963V42.0785H51.2871V40.9688H55.9827V42.0785H54.2735Z" fill="#66666B"/>
<path d="M65.2606 47.3316H64.1941L62.9898 43.473L61.7882 47.3316H60.7216L58.9746 40.9727H60.3085L61.3211 44.9824L62.5145 40.9727H63.4677L64.6639 44.9824L65.6819 40.9727H67.0157L65.2606 47.3316Z" fill="#66666B"/>
<path d="M73.4177 42.3654C73.3141 42.2551 73.1884 42.1678 73.0488 42.1092C72.9093 42.0506 72.759 42.022 72.6077 42.0252C72.4538 42.0209 72.3007 42.049 72.1584 42.1076C72.0161 42.1662 71.8876 42.254 71.7814 42.3654C71.533 42.6355 71.4682 42.9271 71.4682 44.1503C71.4682 45.3734 71.533 45.6705 71.7814 45.9378C71.8877 46.0488 72.0163 46.1363 72.1586 46.1944C72.301 46.2526 72.454 46.2801 72.6077 46.2753C72.7588 46.2789 72.909 46.2506 73.0485 46.1925C73.188 46.1344 73.3138 46.0476 73.4177 45.9378C73.6661 45.6678 73.739 45.3734 73.739 44.1503C73.739 42.9271 73.6661 42.6328 73.4177 42.3654ZM74.3628 46.6857C73.8841 47.1353 73.2522 47.3855 72.5955 47.3855C71.9388 47.3855 71.3069 47.1353 70.8282 46.6857C70.1667 46.0431 70.1856 45.2492 70.1856 44.1503C70.1856 43.0513 70.1667 42.2601 70.8282 41.6148C71.3078 41.167 71.9394 40.918 72.5955 40.918C73.2516 40.918 73.8832 41.167 74.3628 41.6148C75.027 42.2574 75.0162 43.0513 75.0162 44.1503C75.0162 45.2492 75.0162 46.0404 74.3628 46.6857Z" fill="#66666B"/>
<path d="M81.4641 42.0785H80.2625V43.758H81.4641C81.5824 43.7715 81.7022 43.7598 81.8156 43.7237C81.929 43.6876 82.0336 43.628 82.1224 43.5487C82.2112 43.4694 82.2822 43.3723 82.3309 43.2637C82.3795 43.155 82.4047 43.0373 82.4047 42.9183C82.4047 42.7992 82.3795 42.6815 82.3309 42.5729C82.2822 42.4643 82.2112 42.3671 82.1224 42.2878C82.0336 42.2086 81.929 42.1489 81.8156 42.1129C81.7022 42.0768 81.5824 42.0651 81.4641 42.0785ZM82.4578 47.3304L81.1806 44.7949H80.2625V47.3304H78.9854V40.9688H81.5478C82.8817 40.9688 83.6702 41.8517 83.6702 42.9156C83.6777 43.2852 83.5656 43.6474 83.3505 43.9481C83.1354 44.2488 82.8289 44.472 82.4767 44.5843L83.9348 47.3277L82.4578 47.3304Z" fill="#66666B"/>
<path d="M91.4603 47.3316L89.7781 44.437L88.9329 45.4198V47.3316H87.6558V40.9727H88.9329V43.7403L91.2389 40.9727H92.7915L90.6233 43.5L92.9481 47.3316H91.4603Z" fill="#66666B"/>
<path d="M98.2297 47.3847C97.2388 47.3847 96.4854 47.1795 95.8428 46.545L96.669 45.7349C96.8838 45.9245 97.1339 46.0697 97.405 46.1624C97.6761 46.2551 97.9628 46.2933 98.2486 46.2749C99.002 46.2749 99.407 46.0049 99.407 45.4892C99.4131 45.3898 99.3979 45.2902 99.3625 45.1971C99.3271 45.104 99.2724 45.0195 99.2018 44.9492C99.0374 44.8162 98.8351 44.7387 98.624 44.7277L97.8355 44.6224C97.3666 44.5787 96.923 44.3899 96.5664 44.0824C96.4063 43.9183 96.282 43.7226 96.2016 43.5078C96.1212 43.293 96.0863 43.0639 96.0993 42.8349C96.0993 41.6981 96.9606 40.9043 98.3782 40.9043C99.2774 40.9043 99.9308 41.1176 100.492 41.6441L99.6824 42.4218C99.3079 42.1033 98.8225 41.9461 98.3323 41.9844C97.6519 41.9844 97.3225 42.3516 97.3225 42.7944C97.3208 42.8799 97.3372 42.9648 97.3707 43.0434C97.4043 43.1221 97.4541 43.1927 97.5169 43.2508C97.69 43.3907 97.9002 43.4771 98.1217 43.4992L98.8913 43.6045C99.3494 43.6346 99.7866 43.8074 100.141 44.0986C100.317 44.2747 100.453 44.4862 100.54 44.7191C100.627 44.9519 100.663 45.2007 100.646 45.4487C100.646 46.68 99.5906 47.3793 98.2162 47.3793" fill="#66666B"/>
<path d="M73.769 13.7171V6.31055H73.6421C72.4918 6.85058 68.0176 8.55439 67.7692 13.8359V19.9896C67.7773 23.8131 64.8611 26.9291 61.2969 26.9291C57.7326 26.9291 54.8165 23.8158 54.8165 19.9896V17.0356C54.749 10.6983 48.814 9.22134 48.814 9.22134V20.0517C48.8518 27.0722 54.433 32.7426 61.2942 32.7426C68.1553 32.7426 73.7393 27.0479 73.7771 20.0517L73.769 13.7171Z" fill="#F48220"/>
<path d="M41.6609 7.41215C38.2951 7.40339 35.0518 8.67465 32.5884 10.9683C30.9952 9.88822 28.5381 9.76941 28.5381 9.76941V32.756H34.5379V20.1786C34.5379 16.3551 37.7268 13.2526 41.6609 13.2526C43.3714 13.248 45.0276 13.853 46.3322 14.9591V8.26001C44.8382 7.70089 43.2562 7.41375 41.6609 7.41215Z" fill="#F48220"/>
<path d="M13.0365 27.089C9.04829 27.089 5.81348 23.946 5.81348 20.0686C5.81348 16.1911 9.05369 13.0481 13.0365 13.0481C17.0192 13.0481 20.254 16.1884 20.254 20.0659C20.254 23.9433 17.0138 27.0863 13.0337 27.0863L13.0365 27.089ZM13.0337 7.41016C5.83508 7.41016 0 13.0805 0 20.0821C0 27.0836 5.83508 32.7513 13.0337 32.7513C15.882 32.7581 18.6559 31.842 20.9399 30.1402C22.29 32.3328 26.0702 32.7513 26.0702 32.7513V20.0848C26.0702 13.0859 20.2324 7.41285 13.0365 7.41285" fill="#F48220"/>
<path d="M116.966 27.0883C112.978 27.0883 109.743 23.9453 109.743 20.0678C109.743 16.1904 112.984 13.0474 116.966 13.0474C120.949 13.0474 124.187 16.1904 124.187 20.0678C124.187 23.9453 120.946 27.0883 116.966 27.0883ZM116.966 7.41211C109.768 7.41211 103.933 13.0825 103.933 20.084C103.933 27.0856 109.768 32.7533 116.966 32.7533C119.814 32.7605 122.587 31.8443 124.87 30.1422C126.22 32.3347 130 32.7533 130 32.7533V20.084C130 13.0852 124.165 7.41211 116.969 7.41211" fill="#F48220"/>
<path d="M89.4109 27.0882C85.4228 27.0882 82.1907 23.9452 82.1907 20.0677C82.1907 16.1903 85.4309 13.0473 89.4109 13.0473C93.391 13.0473 96.6339 16.1903 96.6339 20.0677C96.6339 23.9452 93.3937 27.0882 89.4109 27.0882ZM89.4109 7.41198C86.8689 7.40785 84.3793 8.13523 82.2393 9.50732V7.52809C81.9909 2.24384 77.649 0.550836 76.5041 0H76.3799V32.8314C76.3799 32.8314 80.2762 32.4237 81.7343 30.2987C83.974 31.8987 86.6585 32.757 89.4109 32.7531C96.6123 32.7531 102.445 27.0828 102.445 20.0839C102.445 13.0851 96.6123 7.41198 89.4109 7.41198Z" fill="#F48220"/>
</svg>
