<?xml version="1.0" encoding="UTF-8"?> <svg xmlns="http://www.w3.org/2000/svg" xmlns:xlink="http://www.w3.org/1999/xlink" id="gradient" viewBox="0 0 1400 360"><defs><style>.cls-1{fill:url(#linear-gradient);}.cls-2{fill:url(#linear-gradient-2);}.cls-3{fill:url(#linear-gradient-3);}.cls-4{fill:url(#linear-gradient-4);}.cls-5{fill:url(#linear-gradient-5);}.cls-6{fill:url(#linear-gradient-6);}.cls-7{fill:#1b1108;}.cls-8{fill:#311f0f;}.cls-9{fill:#462d16;}.cls-10{fill:#5c3b1d;}.cls-11{fill:#714823;}.cls-12{fill:#86552a;}.cls-13{fill:#9c6331;}.cls-14{fill:#a06632;}</style><linearGradient id="linear-gradient" x1="746.38" y1="280.56" x2="746.38" y2="111.16" gradientUnits="userSpaceOnUse"><stop offset="0" stop-color="#7b0000"></stop><stop offset="1" stop-color="#d60000"></stop></linearGradient><linearGradient id="linear-gradient-2" x1="908.84" y1="284.08" x2="908.84" y2="154.69" gradientUnits="userSpaceOnUse"><stop offset="0" stop-color="#c66500"></stop><stop offset="1" stop-color="#ff9d00"></stop></linearGradient><linearGradient id="linear-gradient-3" x1="1023.7" y1="280.56" x2="1023.7" y2="154.69" gradientUnits="userSpaceOnUse"><stop offset="0" stop-color="#cd8c00"></stop><stop offset="1" stop-color="#ffd300"></stop></linearGradient><linearGradient id="linear-gradient-4" x1="1114.05" y1="284.08" x2="1114.05" y2="154.69" gradientUnits="userSpaceOnUse"><stop offset="0" stop-color="#2d6f00"></stop><stop offset="1" stop-color="#67b346"></stop></linearGradient><linearGradient id="linear-gradient-5" x1="1242.96" y1="280.56" x2="1242.96" y2="111.16" gradientUnits="userSpaceOnUse"><stop offset="0" stop-color="#0048a1"></stop><stop offset="1" stop-color="#2d90ff"></stop></linearGradient><linearGradient id="linear-gradient-6" x1="1314.75" y1="280.56" x2="1314.75" y2="111.16" gradientUnits="userSpaceOnUse"><stop offset="0" stop-color="#950e90"></stop><stop offset="1" stop-color="#e352bd"></stop></linearGradient></defs><polygon class="cls-1" points="741.2 280.56 679.56 128.33 679.56 280.56 666.62 280.56 666.62 111.16 686.15 111.16 748.5 266.45 807.31 111.16 826.15 111.16 826.15 280.56 813.44 280.56 813.44 129.5 755.32 280.56 741.2 280.56"></polygon><path class="cls-2" d="M962.25,247.14c-5.88,22.37-24.7,36.94-50.83,36.94-33.17,0-58.11-22.81-58.11-64.7s24.22-64.69,55.76-64.69c31.3,0,55.3,21.18,55.3,67.76H866.25c1.18,34.8,20.94,50.82,45.41,50.82,18.36,0,32.47-9.91,37.18-26.13Zm-95.76-35.29h84.69c-1.63-31.3-19.28-46.8-42.11-46.8C886.72,165.05,868.84,181.25,866.49,211.85Z"></path><path class="cls-3" d="M994.06,280.56V158.22h10.36l1.88,23.53c6.59-18.59,19-27.06,34.35-27.06a43.68,43.68,0,0,1,12.7,1.89v12.47a47.61,47.61,0,0,0-13.41-2.13c-17.88,0-33.18,17.42-33.18,46.81v66.83Z"></path><path class="cls-4" d="M1069.35,190c1.87-20.92,20.47-35.28,47.53-35.28,27.3,0,45.4,15.29,45.4,40.24v85.63h-10.35l-1.87-20.22c-7.54,12.68-21.42,23.74-43.29,23.74-23.77,0-41-12.92-41-34.57,0-20.94,12.7-33.65,47-39.3l36.71-6.11V193.51c0-17.64-12.47-28.46-33.4-28.46-19.53,0-32,10.09-33.66,24.92ZM1149.58,237V214.21l-32.94,5.64C1087.45,224.79,1079,234,1079,248.58c0,16.45,12.71,24.69,31.08,24.69C1129.59,273.27,1149.58,258.45,1149.58,237Z"></path><polygon class="cls-5" points="1194.85 280.56 1194.85 111.16 1207.55 111.16 1207.55 208.08 1266.14 158.22 1283.32 158.22 1220.48 211.63 1291.07 280.56 1273.91 280.56 1207.55 215.86 1207.55 280.56 1194.85 280.56"></polygon><path class="cls-6" d="M1307.1,128.55V111.16h15.3v17.39Zm1.17,152V158.22H1321V280.56Z"></path><path d="M98.81,116.54a9.89,9.89,0,0,0-19.78,0v20.73a9.89,9.89,0,0,0,19.78,0Z"></path><path class="cls-7" d="M153.19,89.3a9.9,9.9,0,0,0-19.8,0v48a9.9,9.9,0,0,0,19.8,0Z"></path><path class="cls-8" d="M207.56,52.05a9.89,9.89,0,0,0-19.78,0V157a9.89,9.89,0,1,0,19.78,0Z"></path><path class="cls-9" d="M262,89.3a9.89,9.89,0,0,0-19.77,0v48a9.89,9.89,0,0,0,19.77,0Z"></path><path class="cls-10" d="M316.28,116.54a9.87,9.87,0,1,0-19.74,0v20.73a9.87,9.87,0,1,0,19.74,0Z"></path><path class="cls-11" d="M370.7,89.3a9.87,9.87,0,0,0-19.73,0v48a9.87,9.87,0,1,0,19.73,0Z"></path><path class="cls-12" d="M425.1,52.05a9.88,9.88,0,0,0-19.75,0V157a9.88,9.88,0,1,0,19.75,0Z"></path><path class="cls-13" d="M479.53,89.3a10,10,0,0,0-19.9,0v48a10,10,0,0,0,19.9,0Z"></path><path class="cls-14" d="M533.82,116.54a9.88,9.88,0,0,0-19.76,0v20.73a9.88,9.88,0,1,0,19.76,0Z"></path><path class="cls-7" d="M180.24,202.89A60.21,60.21,0,0,0,162,200.06c-24.25,0-42.05,17.3-42.05,40.89,0,25.5,19.63,40.95,42.05,40.95a63.67,63.67,0,0,0,18.22-2.81V257.86A34.93,34.93,0,0,1,163.49,262c-13.33,0-21.86-9.32-21.86-21.09,0-12.1,8.93-21.08,21.86-21.08a34.74,34.74,0,0,1,16.75,4.21Z"></path><rect class="cls-8" x="207.63" y="201.45" width="19.98" height="79.03"></rect><path class="cls-10" d="M303.2,202.55A84.43,84.43,0,0,0,283.79,200c-18.41,0-29.46,9.91-29.46,24.71,0,13.07,9.24,19.6,20.33,23.11,1.28.4,3.07,1,4.27,1.38,5,1.56,8.92,3.85,8.92,7.85,0,4.51-4.59,7.41-14.49,7.41-8.71,0-17.06-2.52-18.82-2.95v18.19a121.27,121.27,0,0,0,21.52,2.16c15.25,0,32.72-6.69,32.72-26.53,0-9.61-5.91-18.5-18.84-22.61L284.41,231c-3.27-1.07-9.11-2.73-9.11-7.53,0-3.82,4.34-6.48,12.33-6.48,6.9,0,15.3,2.31,15.57,2.38Z"></path><path class="cls-12" d="M388.4,202.89a60.74,60.74,0,0,0-18.18-2.83c-24.32,0-42.14,17.3-42.14,40.89,0,25.5,19.67,40.95,42.14,40.95a64,64,0,0,0,18.18-2.81V257.86A35.23,35.23,0,0,1,371.62,262c-13.3,0-21.85-9.32-21.85-21.09,0-12.1,9-21.08,21.85-21.08a35.19,35.19,0,0,1,16.78,4.21Z"></path><path class="cls-14" d="M451.1,220.17A20.79,20.79,0,1,1,430.51,241a20.43,20.43,0,0,1,20.59-20.78M492.85,241c0-22.56-17.45-40.89-41.75-40.89S409.4,218.39,409.4,241s17.41,40.95,41.7,40.95,41.75-18.33,41.75-40.95"></path></svg> 