<svg width="141" height="28" viewBox="0 0 141 28" fill="none" xmlns="http://www.w3.org/2000/svg">
<path d="M16.7072 17.9141H14.4644V26.8006H16.7072V17.9141Z" fill="#909194"/>
<path d="M34.7893 20.4596C34.2111 20.143 33.5617 19.979 32.9024 19.983C31.4558 19.983 30.4478 20.9938 30.4478 22.3549C30.4412 22.6753 30.5008 22.9937 30.6229 23.29C30.745 23.5863 30.9269 23.8542 31.1574 24.0769C31.3878 24.2997 31.6617 24.4725 31.962 24.5844C32.2623 24.6964 32.5824 24.7452 32.9024 24.7278C33.5611 24.7311 34.21 24.5686 34.7893 24.2552V26.6414C34.1267 26.8449 33.4381 26.9516 32.745 26.9581C30.2231 26.9581 28.0127 25.2187 28.0127 22.3537C28.0127 19.6987 30.0131 17.7539 32.745 17.7539C33.4387 17.7549 34.1281 17.8621 34.7893 18.0719V20.4596Z" fill="#909194"/>
<path d="M11.3839 20.4593C10.8057 20.1427 10.1563 19.9786 9.49703 19.9827C8.046 19.9827 7.03925 20.9935 7.03925 22.3546C7.03253 22.6753 7.09217 22.994 7.21442 23.2906C7.33668 23.5871 7.51892 23.8552 7.7497 24.078C7.98049 24.3008 8.25483 24.4735 8.55552 24.5853C8.8562 24.6971 9.17675 24.7455 9.49703 24.7275C10.1556 24.7299 10.8043 24.5674 11.3839 24.2549V26.6411C10.7193 26.8453 10.0286 26.9521 9.33338 26.9581C6.81338 26.9581 4.60449 25.2187 4.60449 22.3537C4.60449 19.6987 6.60743 17.7539 9.33338 17.7539C10.0286 17.7556 10.7196 17.8628 11.3827 18.0719L11.3839 20.4593Z" fill="#909194"/>
<path d="M46.5423 22.3556C46.5612 23.288 46.302 24.205 45.7977 24.9895C45.2934 25.7741 44.5668 26.3906 43.7107 26.7606C42.8546 27.1305 41.9076 27.2371 40.9907 27.0668C40.0737 26.8964 39.2283 26.4568 38.5622 25.804C37.8961 25.1513 37.4395 24.3149 37.2506 23.4016C37.0617 22.4882 37.1492 21.5393 37.5017 20.6759C37.8543 19.8125 38.456 19.0736 39.2302 18.5535C40.0044 18.0335 40.9159 17.7558 41.8486 17.7558C42.4618 17.7381 43.0724 17.8442 43.6437 18.0679C44.215 18.2916 44.7353 18.6283 45.1735 19.0577C45.6117 19.4871 45.9588 20.0005 46.1939 20.5672C46.4291 21.1338 46.5476 21.7421 46.5423 22.3556V22.3556ZM41.8486 20.0182C41.3852 20.0139 40.9311 20.1474 40.5437 20.4017C40.1564 20.6559 39.8533 21.0196 39.673 21.4464C39.4927 21.8733 39.4434 22.3441 39.5311 22.7991C39.6189 23.254 39.8399 23.6727 40.1661 24.0018C40.4922 24.3309 40.9088 24.5557 41.363 24.6476C41.8171 24.7396 42.2884 24.6945 42.7168 24.5181C43.1453 24.3417 43.5117 24.0419 43.7695 23.6569C44.0273 23.2719 44.1649 22.819 44.1648 22.3556C44.17 22.0489 44.1138 21.7443 43.9995 21.4597C43.8852 21.1751 43.7151 20.9163 43.4992 20.6984C43.2833 20.4806 43.0259 20.3082 42.7423 20.1914C42.4587 20.0746 42.1547 20.0157 41.848 20.0182H41.8486Z" fill="#909194"/>
<path d="M25.2141 19.9329C24.6423 19.7764 24.0544 19.6858 23.462 19.6629C22.5597 19.6629 22.0716 19.9631 22.0716 20.3903C22.0716 20.9322 22.7312 21.1198 23.0983 21.239L23.7205 21.435C25.1771 21.8976 25.841 22.8944 25.841 23.9758C25.841 26.2093 23.8779 26.9594 22.1584 26.9594C21.3456 26.9526 20.5352 26.8709 19.7373 26.7155V24.6718C20.4275 24.8704 21.14 24.9809 21.8579 25.0006C22.971 25.0006 23.4865 24.6768 23.4865 24.1718C23.4865 23.7195 23.042 23.4619 22.4838 23.2861C22.35 23.241 22.1441 23.1778 22.006 23.1305C20.7547 22.7373 19.7134 22.0043 19.7134 20.5334C19.7134 18.8708 20.96 17.7539 23.0276 17.7539C23.7651 17.764 24.499 17.859 25.2148 18.037L25.2141 19.9329Z" fill="#909194"/>
<path d="M2.22631 8.3612C2.22631 8.06598 2.10903 7.78284 1.90028 7.57408C1.69152 7.36533 1.40838 7.24805 1.11316 7.24805C0.817928 7.24805 0.534793 7.36533 0.326036 7.57408C0.117278 7.78284 0 8.06598 0 8.3612V10.6945C0 10.9898 0.117278 11.2729 0.326036 11.4817C0.534793 11.6904 0.817928 11.8077 1.11316 11.8077C1.40838 11.8077 1.69152 11.6904 1.90028 11.4817C2.10903 11.2729 2.22631 10.9898 2.22631 10.6945V8.3612Z" fill="#909194"/>
<path d="M8.34168 5.29902C8.34168 5.00371 8.22437 4.72049 8.01555 4.51167C7.80674 4.30286 7.52352 4.18555 7.22821 4.18555C6.9329 4.18555 6.64969 4.30286 6.44087 4.51167C6.23206 4.72049 6.11475 5.00371 6.11475 5.29902V10.6943C6.11475 10.9896 6.23206 11.2728 6.44087 11.4816C6.64969 11.6905 6.9329 11.8078 7.22821 11.8078C7.52352 11.8078 7.80674 11.6905 8.01555 11.4816C8.22437 11.2728 8.34168 10.9896 8.34168 10.6943V5.29902Z" fill="#909194"/>
<path d="M14.4594 1.11037C14.4545 0.817837 14.3348 0.538933 14.1262 0.333784C13.9176 0.128634 13.6368 0.0136719 13.3442 0.0136719C13.0516 0.0136719 12.7707 0.128634 12.5621 0.333784C12.3535 0.538933 12.2339 0.817837 12.229 1.11037V12.913C12.2339 13.2055 12.3535 13.4844 12.5621 13.6896C12.7707 13.8947 13.0516 14.0097 13.3442 14.0097C13.6368 14.0097 13.9176 13.8947 14.1262 13.6896C14.3348 13.4844 14.4545 13.2055 14.4594 12.913V1.11037Z" fill="#909194"/>
<path d="M20.5721 5.29824C20.5721 5.00313 20.4548 4.72012 20.2462 4.51145C20.0375 4.30278 19.7545 4.18555 19.4594 4.18555C19.1643 4.18555 18.8812 4.30278 18.6726 4.51145C18.4639 4.72012 18.3467 5.00313 18.3467 5.29824V10.6935C18.3467 10.9886 18.4639 11.2716 18.6726 11.4803C18.8812 11.689 19.1643 11.8062 19.4594 11.8062C19.7545 11.8062 20.0375 11.689 20.2462 11.4803C20.4548 11.2716 20.5721 10.9886 20.5721 10.6935V5.29824Z" fill="#909194"/>
<path d="M26.6848 8.3602C26.6848 8.06576 26.5678 7.78337 26.3596 7.57517C26.1514 7.36696 25.869 7.25 25.5746 7.25C25.2801 7.25 24.9977 7.36696 24.7895 7.57517C24.5813 7.78337 24.4644 8.06576 24.4644 8.3602V10.6935C24.4644 10.988 24.5813 11.2704 24.7895 11.4786C24.9977 11.6868 25.2801 11.8037 25.5746 11.8037C25.869 11.8037 26.1514 11.6868 26.3596 11.4786C26.5678 11.2704 26.6848 10.988 26.6848 10.6935V8.3602Z" fill="#909194"/>
<path d="M32.8032 5.29786C32.8032 5.00337 32.6862 4.72095 32.478 4.51272C32.2698 4.30448 31.9874 4.1875 31.6929 4.1875C31.3984 4.1875 31.116 4.30448 30.9077 4.51272C30.6995 4.72095 30.5825 5.00337 30.5825 5.29786V10.6931C30.5825 10.9876 30.6995 11.2701 30.9077 11.4783C31.116 11.6865 31.3984 11.8035 31.6929 11.8035C31.9874 11.8035 32.2698 11.6865 32.478 11.4783C32.6862 11.2701 32.8032 10.9876 32.8032 10.6931V5.29786Z" fill="#909194"/>
<path d="M38.9198 1.11004C38.9198 0.81564 38.8028 0.533299 38.5947 0.325125C38.3865 0.116951 38.1042 0 37.8097 0C37.5153 0 37.233 0.116951 37.0248 0.325125C36.8167 0.533299 36.6997 0.81564 36.6997 1.11004V12.9127C36.6997 13.2071 36.8167 13.4894 37.0248 13.6976C37.233 13.9058 37.5153 14.0227 37.8097 14.0227C38.1042 14.0227 38.3865 13.9058 38.5947 13.6976C38.8028 13.4894 38.9198 13.2071 38.9198 12.9127V1.11004Z" fill="#909194"/>
<path d="M45.0375 5.29831C45.0375 5.00267 44.9201 4.71913 44.711 4.51009C44.502 4.30104 44.2185 4.18359 43.9228 4.18359C43.6272 4.18359 43.3436 4.30104 43.1346 4.51009C42.9255 4.71913 42.8081 5.00267 42.8081 5.29831V10.6936C42.8081 10.9892 42.9255 11.2728 43.1346 11.4818C43.3436 11.6909 43.6272 11.8083 43.9228 11.8083C44.2185 11.8083 44.502 11.6909 44.711 11.4818C44.9201 11.2728 45.0375 10.9892 45.0375 10.6936V5.29831Z" fill="#909194"/>
<path d="M51.1466 8.36067C51.1466 8.0661 51.0296 7.7836 50.8213 7.57531C50.613 7.36702 50.3305 7.25 50.036 7.25C49.7414 7.25 49.4589 7.36702 49.2506 7.57531C49.0423 7.7836 48.9253 8.0661 48.9253 8.36067V10.694C48.9253 10.9886 49.0423 11.2711 49.2506 11.4794C49.4589 11.6877 49.7414 11.8047 50.036 11.8047C50.3305 11.8047 50.613 11.6877 50.8213 11.4794C51.0296 11.2711 51.1466 10.9886 51.1466 10.694V8.36067Z" fill="#909194"/>
<path d="M66.1681 7.72656H68.4445L75.4545 25.2284L82.0401 7.72656H84.2147V26.8229H82.7649V9.99176H82.7139L76.2394 26.8229H74.729L67.8979 9.99176H67.8475V26.8229H66.1675L66.1681 7.72656Z" fill="#7AC043"/>
<path d="M99.5362 23.1505C99.1588 24.6146 97.8521 26.0258 96.9042 26.4847C95.9268 26.9515 94.8553 27.1877 93.7722 27.175C92.8607 27.1883 91.957 27.0043 91.1231 26.6359C90.3421 26.2831 89.6458 25.7671 89.081 25.1226C88.4954 24.4475 88.0495 23.6629 87.7693 22.8142C87.4563 21.862 87.3023 20.8647 87.3136 19.8624C87.3041 18.8835 87.463 17.9102 87.7833 16.9852C88.0745 16.1433 88.5243 15.3649 89.1084 14.6923C89.6687 14.0507 90.3543 13.5306 91.1231 13.1638C91.9256 12.7879 92.8027 12.5983 93.6889 12.6094C94.5365 12.5867 95.3783 12.757 96.1505 13.1073C96.9227 13.4576 97.6052 13.9789 98.1465 14.6316C98.6445 15.256 99.032 15.961 99.2923 16.7161C99.8887 18.3267 99.7701 20.3427 99.7701 20.3427H88.7101C88.7224 20.8984 88.7908 21.4515 88.9142 21.9935C89.0279 22.5969 89.2523 23.1741 89.576 23.6959C89.9588 24.3018 90.4612 24.8233 91.0525 25.2284C91.8898 25.7068 92.835 25.9645 93.7993 25.9773C94.6642 25.9931 95.5161 25.7647 96.2571 25.3183C97.2906 24.6821 97.6549 23.8589 98.0789 23.0988L99.5362 23.1505ZM98.3113 18.9968C98.3113 18.3292 97.9953 13.8738 93.6584 13.8529C92.7645 13.8486 91.7562 14.0688 91.1633 14.4994C90.6008 14.8983 90.122 15.4034 89.7536 15.9862C89.4321 16.4931 89.1836 17.0428 89.0153 17.6189C88.896 18.0696 88.8231 18.5313 88.7976 18.9968H98.3113Z" fill="#7AC043"/>
<path d="M103.144 14.8997C103.134 14.523 103.123 14.1714 103.105 13.8441C103.087 13.5169 103.079 13.2645 103.079 13.086H104.373C104.39 13.6015 104.555 15.3571 104.59 15.4943C104.995 14.6813 105.482 13.8242 106.143 13.3433C106.649 12.9429 107.257 12.6914 107.898 12.617C108.539 12.5425 109.188 12.648 109.772 12.9217L109.82 14.1945C109.627 14.1186 109.421 14.0784 109.213 14.0756C108.526 14.0756 106.994 13.7521 105.598 15.5565C105.265 15.9874 105.121 16.272 104.854 17.4415C104.704 18.0598 104.625 18.6931 104.617 19.3293V26.8218H103.031C103.031 26.8218 103.248 18.6888 103.144 14.8997Z" fill="#7AC043"/>
<path d="M122.086 21.129C122.086 21.7946 122.091 22.3914 122.1 22.9195C122.109 23.4483 122.09 26.4316 122.146 26.823H120.92C120.802 26.0926 120.745 25.3538 120.75 24.6141L120.648 24.6219C120.209 25.4281 119.556 26.0982 118.763 26.5591C118.047 26.9701 117.142 27.1111 116.051 27.1758C114.451 27.2691 113.141 26.7402 112.714 26.4191C112.278 26.0857 111.922 25.6596 111.671 25.1716C111.386 24.5977 111.247 23.9626 111.266 23.3223C111.218 22.4379 111.484 21.5649 112.018 20.8577C112.601 20.2279 113.331 19.7524 114.143 19.4736C115.574 18.9624 120.714 18.2814 120.714 18.2814C120.714 18.2814 121.361 13.8207 117.003 13.8207C115.519 13.8207 113.461 14.3315 113.223 16.579L111.623 16.6129C112.032 12.7993 116.238 12.5949 117.071 12.5949C118.397 12.5673 119.686 13.0278 120.695 13.8888C121.621 14.6616 122.085 16.0924 122.085 17.8138L122.086 21.129ZM114.689 20.6639C114.111 20.8972 112.748 21.5148 112.709 23.2962C112.697 23.6983 112.796 24.0958 112.995 24.4451C113.176 24.7726 113.429 25.0552 113.733 25.2721C114.04 25.4898 114.38 25.6558 114.74 25.7636C115.106 25.8743 115.486 25.9306 115.868 25.9307C116.683 25.9594 117.494 25.8132 118.247 25.502C118.824 25.2498 119.333 24.867 119.737 24.3839C120.106 23.9274 120.368 23.3936 120.504 22.8221C120.644 22.2455 120.715 21.6543 120.716 21.0609V19.4384C120.716 19.4384 116.421 19.9648 114.689 20.6642V20.6639Z" fill="#7AC043"/>
<path d="M125.755 7.72656H127.114V18.7234L133.791 13.0372L135.707 13.0463L128.718 19.0641L136.583 26.8232H134.642L127.113 19.6623V26.8232H125.755L125.755 7.72656Z" fill="#7AC043"/>
<path d="M138.455 13.0723H140V26.8234H138.455V13.0723Z" fill="#7AC043"/>
<path d="M138.455 7.72461H140V9.6955H138.455V7.72461Z" fill="#7AC043"/>
</svg>
