<svg width="121" height="46" viewBox="0 0 121 46" fill="none" xmlns="http://www.w3.org/2000/svg">
<path d="M13.1687 45.1977C12.491 45.0308 11.8894 44.5389 11.5402 43.8662L11.3466 43.4933L11.3052 38.6867L11.2638 33.88L6.41872 33.8386L1.57362 33.7972L1.19158 33.5724C0.777843 33.329 0.378677 32.9159 0.146488 32.4908C0.0118044 32.2442 0 31.882 0 27.9961V23.7695H10.6841H21.3681V34.5016V45.2336L17.3927 45.2463C15.2062 45.2532 13.3054 45.2314 13.1687 45.1977Z" fill="#4ACCD5"/>
<path d="M24.8469 33.4965C24.8231 33.4341 24.8132 31.2946 24.825 28.7421L24.8465 24.1012L27.207 24.0499C29.6442 23.997 29.9082 23.9639 31.0446 23.5689C33.9174 22.5703 35.8405 19.4705 35.6253 16.1852C35.4037 12.8006 33.4093 10.3812 30.2532 9.66821C29.4564 9.48821 27.7824 9.48474 26.988 9.66144C24.13 10.2972 21.9945 12.3655 21.2774 15.1924C21.173 15.6043 21.1314 16.2723 21.1009 18.0308C21.0651 20.0924 21.0468 20.3309 20.9246 20.3342C20.1666 20.3549 11.6765 20.3154 11.6522 20.2911C11.5798 20.2186 11.6459 15.2652 11.728 14.6123C12.4173 9.13092 15.9133 4.25549 20.933 1.77491C23.4264 0.542734 25.7234 0.00918162 28.5735 0.000115408C31.3666 -0.00876948 33.7215 0.495119 36.0275 1.59511C40.6848 3.81663 43.7945 7.87319 44.8044 13.0442C45.9706 19.0154 44.1772 24.8656 39.9381 28.919C37.4761 31.2732 34.5712 32.7339 31.119 33.3535C30.3125 33.4983 29.6999 33.535 27.5188 33.569C25.3421 33.603 24.8829 33.5905 24.8469 33.4965V33.4965Z" fill="#4ACCD5"/>
<path d="M60.7919 38.6512C60.7008 38.6139 60.5517 38.5005 60.4606 38.3992C60.2976 38.218 60.2949 38.0983 60.2949 31.064V23.9131L60.7182 23.4277C61.6122 22.4026 63.1899 21.4522 64.6431 21.0636C65.2213 20.9089 65.5616 20.8752 66.548 20.875C67.9585 20.8747 68.446 20.9815 69.571 21.5374C72.3297 22.9006 73.7071 26.1042 72.8903 29.2574C72.2812 31.609 70.3303 33.3604 67.835 33.7958C67.3931 33.8729 66.6059 33.923 65.8361 33.923C64.6652 33.923 64.5594 33.9104 64.4804 33.7627C64.4332 33.6745 64.3946 33.1686 64.3946 32.6384C64.3946 32.1083 64.4332 31.6024 64.4804 31.5142C64.5592 31.3668 64.6647 31.3539 65.7905 31.3539C67.4711 31.3539 68.1446 31.1465 68.9686 30.3753C70.4829 28.958 70.58 26.2769 69.1724 24.7464C68.3572 23.86 67.225 23.486 65.8636 23.6533C65.0726 23.7506 64.0559 24.2437 63.579 24.7614L63.2351 25.1347V31.8327C63.2351 36.9318 63.2114 38.5544 63.1357 38.6301C63.0211 38.7449 61.0635 38.7625 60.7919 38.6512Z" fill="black"/>
<path d="M53.8933 33.795C53.2156 33.6477 52.5956 33.3541 52.1597 32.9742C51.6966 32.5704 51.2523 31.6607 51.1448 30.8965C51.0559 30.2634 51.0255 18.9421 51.1122 18.716C51.1774 18.546 53.7709 17.2376 53.9253 17.2969C54.0153 17.3315 54.043 17.7177 54.0607 19.1875L54.083 21.0346L55.8418 21.057C57.9138 21.0833 57.704 20.9145 57.6683 22.5263L57.6444 23.6037L55.8637 23.6493C54.8843 23.6743 54.0718 23.7023 54.058 23.7114C54.0442 23.7205 54.0442 25.229 54.058 27.0636C54.0818 30.2362 54.0912 30.4134 54.2506 30.6893C54.3498 30.8611 54.568 31.0554 54.7858 31.1658C55.1316 31.3412 55.2544 31.3523 56.8586 31.3523C58.0744 31.3523 58.5922 31.3808 58.6631 31.4517C58.7303 31.519 58.7625 31.9029 58.7625 32.6368C58.7625 33.3707 58.7303 33.7547 58.6631 33.8219C58.5165 33.9686 54.5904 33.9464 53.8933 33.795Z" fill="black"/>
<path d="M82.9531 33.7072L82.6982 33.4927V25.1063V16.7198L84.0334 16.034C84.7677 15.6568 85.4199 15.3679 85.4828 15.392C85.5789 15.429 85.597 16.8909 85.597 24.6285C85.597 32.9346 85.5844 33.826 85.466 33.8715C85.394 33.8991 84.8564 33.9218 84.2714 33.9218C83.2481 33.9218 83.1983 33.9137 82.9531 33.7072Z" fill="black"/>
<path d="M88.7695 33.8374C88.3118 33.6529 88.3269 33.891 88.35 27.2428L88.3712 21.1172H89.7792H91.1872L91.2084 27.4518C91.2252 32.4646 91.2076 33.8001 91.1256 33.8524C90.9848 33.9418 88.9972 33.9292 88.7695 33.8374Z" fill="black"/>
<path d="M94.3853 33.8053C93.9627 33.5709 93.9682 33.6397 93.965 28.5093C93.9626 24.5192 93.9818 23.682 94.0801 23.4955C94.2353 23.2014 95.1423 22.3281 95.6385 21.9952C96.2512 21.584 97.3349 21.0945 98.0618 20.9005C98.9288 20.6691 100.522 20.6483 101.375 20.8572C103.552 21.3908 105.247 23.0749 105.805 25.258C105.96 25.865 105.971 26.1747 105.971 29.8645C105.971 33.3952 105.957 33.8257 105.84 33.8706C105.585 33.9688 103.277 33.9263 103.172 33.8215C103.098 33.7471 103.073 32.7884 103.073 30.018C103.073 26.5631 103.062 26.2784 102.909 25.7839C102.485 24.4108 101.455 23.5871 100.054 23.4999C98.9615 23.432 98.0471 23.7438 97.2647 24.4512L96.9437 24.7413V29.1708C96.9437 32.0657 96.914 33.6559 96.858 33.7606C96.7797 33.9069 96.6767 33.9207 95.6778 33.918C94.929 33.916 94.5207 33.8804 94.3853 33.8053Z" fill="black"/>
<path d="M108.978 33.8382C108.515 33.6514 108.536 34.094 108.559 25.0477L108.58 16.7257L109.963 16.0234C110.723 15.6371 111.375 15.3511 111.412 15.388C111.449 15.4248 111.498 17.9225 111.52 20.9384L111.562 26.4219L113.824 23.7492L116.086 21.0766H117.737C119.11 21.0766 119.388 21.0965 119.388 21.1944C119.388 21.2593 118.25 22.606 116.858 24.1871C115.466 25.7683 114.339 27.109 114.353 27.1665C114.366 27.224 115.641 28.6981 117.184 30.4422C118.728 32.1864 119.995 33.6735 120 33.7469C120.009 33.8649 119.815 33.883 118.33 33.9029L116.651 33.9253L116.467 33.7239C116.365 33.6132 115.239 32.2535 113.964 30.7025C112.688 29.1514 111.617 27.8801 111.582 27.8773C111.548 27.8744 111.52 29.1612 111.52 30.7367C111.52 32.5528 111.489 33.6599 111.435 33.7616C111.356 33.9081 111.255 33.9214 110.254 33.9166C109.652 33.9137 109.078 33.8784 108.978 33.8382Z" fill="black"/>
<path d="M76.3832 28.8035C76.174 28.5684 75.0703 26.1892 75.1156 26.071C75.1488 25.9845 75.6689 25.9671 77.7061 25.9847L80.255 26.0066L80.2778 27.4092C80.2951 28.4759 80.2752 28.828 80.1949 28.879C80.1369 28.9159 79.2845 28.9466 78.3008 28.9473C76.7008 28.9484 76.4986 28.9333 76.3832 28.8035Z" fill="black"/>
<path d="M88.2723 18.1344C87.99 17.9365 87.8069 17.3467 87.8487 16.7693C87.8935 16.1489 88.1936 15.6821 88.7814 15.3185C89.1339 15.1004 89.2624 15.0683 89.7727 15.0704C90.423 15.0731 90.8494 15.2442 91.2449 15.6612C91.8554 16.3048 91.8957 17.4678 91.3299 18.1135C91.2185 18.2407 91.0337 18.2586 89.8262 18.2586C88.7371 18.2586 88.4124 18.2326 88.2723 18.1344Z" fill="black"/>
</svg>
