<?xml version="1.0" encoding="iso-8859-1"?>
<!-- Generator: Adobe Illustrator 16.0.0, SVG Export Plug-In . SVG Version: 6.00 Build 0)  -->
<!DOCTYPE svg PUBLIC "-//W3C//DTD SVG 1.1//EN" "http://www.w3.org/Graphics/SVG/1.1/DTD/svg11.dtd">
<svg version="1.1" id="Capa_1" xmlns="http://www.w3.org/2000/svg" xmlns:xlink="http://www.w3.org/1999/xlink" x="0px" y="0px"
	 width="45.896px" height="45.896px" viewBox="0 0 45.896 45.896" style="enable-background:new 0 0 45.896 45.896;"
	 xml:space="preserve">
<g>
	<g>
		<path d="M12.397,22.598c2.992-6.911,9.871-11.746,17.882-11.746c3.896,0,7.523,1.144,10.567,3.114
			c0.005-0.117,0.008-0.233,0.008-0.351c0-4.796-3.888-8.68-8.681-8.68c-1.732,0-3.344,0.513-4.698,1.388
			C25.967,2.615,22.333,0,18.085,0c-4.712,0-8.662,3.218-9.803,7.572c-0.228-0.02-0.461-0.035-0.698-0.035
			c-4.161,0-7.531,3.373-7.531,7.534c0,4.159,3.37,7.53,7.531,7.53C8.267,22.602,10.064,22.6,12.397,22.598z"/>
		<path d="M4.138,33.455c-0.862,0-1.548,0.699-1.548,1.561v4.166c0,0.862,0.686,1.562,1.548,1.562c0.861,0,1.547-0.699,1.547-1.562
			v-4.166C5.685,34.154,4.999,33.455,4.138,33.455z"/>
		<path d="M4.138,23.044c-0.862,0-1.548,0.699-1.548,1.562v4.164c0,0.863,0.686,1.562,1.548,1.562c0.861,0,1.547-0.699,1.547-1.562
			v-4.164C5.685,23.742,4.999,23.044,4.138,23.044z"/>
		<path d="M12.989,39.195H8.824c-0.862,0-1.563,0.686-1.563,1.547c0,0.862,0.7,1.547,1.563,1.547h4.165
			c0.861,0,1.562-0.685,1.562-1.547C14.551,39.881,13.85,39.195,12.989,39.195z"/>
		<path d="M30.279,14.765c-8.583,0-15.565,6.982-15.565,15.565s6.983,15.566,15.565,15.566c8.584,0,15.564-6.983,15.564-15.566
			S38.863,14.765,30.279,14.765z M17.935,31.924h4.185c0.188,3.713,1.052,7.045,2.38,9.452
			C20.981,39.522,18.451,36.023,17.935,31.924z M22.119,28.751h-4.185c0.516-4.101,3.045-7.6,6.564-9.454
			C23.171,21.704,22.307,25.038,22.119,28.751z M28.738,41.766c-1.701-1.473-3.209-5.2-3.487-9.842h3.487V41.766z M28.738,28.751
			h-3.487c0.278-4.719,1.786-8.383,3.487-9.854V28.751z M31.832,41.766v-9.842h3.476C35.029,36.565,33.535,40.293,31.832,41.766z
			 M31.832,28.751v-9.854c1.703,1.471,3.195,5.135,3.476,9.854H31.832z M42.621,28.751h-4.185c-0.188-3.713-1.052-7.048-2.381-9.455
			C39.576,21.15,42.107,24.651,42.621,28.751z M36.057,41.377c1.329-2.406,2.193-5.74,2.381-9.453h4.186
			C42.105,36.023,39.576,39.523,36.057,41.377z"/>
	</g>
</g>
<g>
</g>
<g>
</g>
<g>
</g>
<g>
</g>
<g>
</g>
<g>
</g>
<g>
</g>
<g>
</g>
<g>
</g>
<g>
</g>
<g>
</g>
<g>
</g>
<g>
</g>
<g>
</g>
<g>
</g>
</svg>
