<svg width="229" height="158" viewBox="0 0 229 158" fill="none" xmlns="http://www.w3.org/2000/svg">
<path d="M7.75192 2.61323C6.98603 0.541106 4.68536 -0.517807 2.61323 0.248084C0.541106 1.01397 -0.517807 3.31464 0.248084 5.38677L7.75192 2.61323ZM225.067 147.855C227.196 147.266 228.444 145.062 227.855 142.933L218.251 108.238C217.662 106.108 215.458 104.86 213.329 105.45C211.2 106.039 209.952 108.243 210.541 110.372L219.078 141.212L188.238 149.749C186.108 150.338 184.86 152.542 185.45 154.671C186.039 156.8 188.243 158.048 190.372 157.459L225.067 147.855ZM0.248084 5.38677C16.3204 48.8705 42.3215 71.0081 70.0669 80.2953C97.6076 89.5141 126.319 85.8935 147.788 78.9738L145.333 71.3595C124.89 77.9486 98.0188 81.2154 72.6062 72.7091C47.3984 64.2712 23.0754 44.071 7.75192 2.61323L0.248084 5.38677ZM147.788 78.9738C153.205 77.2277 157.346 75.2882 160.128 73.0826C162.917 70.872 165.012 67.7891 164.383 64.0261C163.817 60.6361 161.22 58.1612 158.622 56.4378C155.88 54.6188 152.288 53.0698 148.242 51.7853C132.162 46.681 105.611 44.7524 84.3407 50.296L86.3583 58.0374C106.046 52.9061 131.056 54.7232 145.821 59.4103C149.486 60.5737 152.31 61.8505 154.2 63.1043C156.234 64.4535 156.485 65.2985 156.492 65.3444C156.493 65.3447 156.492 65.3392 156.492 65.3298C156.492 65.3204 156.493 65.3138 156.493 65.3124C156.494 65.306 156.488 65.3525 156.433 65.4587C156.313 65.6906 155.98 66.1622 155.159 66.8134C153.479 68.1452 150.394 69.7284 145.333 71.3595L147.788 78.9738ZM84.3407 50.296C63.0272 55.8509 50.1625 69.6188 51.754 84.7771C53.3352 99.8374 68.8452 112.399 95.7922 116.455L96.9829 108.545C71.1907 104.662 60.7028 93.3949 59.7103 83.9418C58.7281 74.5868 66.714 63.1573 86.3583 58.0374L84.3407 50.296ZM95.7922 116.455C149.021 124.468 183.721 125.782 222.029 147.48L225.971 140.52C186.009 117.884 149.233 116.409 96.9829 108.545L95.7922 116.455Z" fill="#034AD8"/>
</svg>
