<svg width="228" height="148" viewBox="0 0 228 148" fill="none" xmlns="http://www.w3.org/2000/svg">
<path d="M220.567 1.94655C221.701 0.0507259 224.158 -0.566776 226.053 0.567315C227.949 1.70141 228.567 4.15764 227.433 6.05345L220.567 1.94655ZM118.881 146.828C117.319 148.391 114.786 148.391 113.224 146.828L87.7685 121.373C86.2064 119.81 86.2064 117.278 87.7685 115.716C89.3306 114.154 91.8632 114.154 93.4253 115.716L116.053 138.343L138.68 115.716C140.242 114.154 142.775 114.154 144.337 115.716C145.899 117.278 145.899 119.81 144.337 121.373L118.881 146.828ZM227.433 6.05345C201.529 49.3564 172.282 70.6725 140.546 79.9765C109.062 89.2071 75.5597 86.4594 41.6058 82.6416L42.4997 74.6917C76.5458 78.5199 108.544 81.0222 138.296 72.2996C167.797 63.6505 195.524 43.8102 220.567 1.94655L227.433 6.05345ZM41.6058 82.6416C24.4881 80.7169 13.0003 77.4273 6.59364 73.2261C3.37566 71.1159 0.859665 68.3895 0.177841 64.9483C-0.537109 61.3399 0.982819 58.1458 3.25523 55.7141C7.58679 51.0791 15.9897 47.6237 26.2351 45.6117C36.7109 43.5545 49.8607 42.86 64.46 44.3541L63.6455 52.3125C49.7447 50.89 37.3946 51.5731 27.7766 53.4618C17.9283 55.3958 11.6437 58.4547 9.10023 61.1764C7.93515 62.4231 7.9707 63.118 8.02528 63.3935C8.11299 63.8361 8.62044 64.9885 10.9806 66.5362C15.7302 69.6507 25.6174 72.7935 42.4997 74.6917L41.6058 82.6416ZM64.46 44.3541C79.1113 45.8535 90.1986 49.4149 98.4765 55.0535C106.832 60.7447 112.023 68.3471 115.199 77.3339C118.338 86.2171 119.514 96.4657 119.94 107.57C120.366 118.644 120.053 131.025 120.053 144H112.053C112.053 130.725 112.364 118.752 111.946 107.878C111.529 97.0343 110.392 87.7412 107.656 79.9994C104.957 72.3612 100.711 66.2553 93.9727 61.6653C87.1569 57.0226 77.4942 53.7298 63.6455 52.3125L64.46 44.3541Z" fill="#034AD8"/>
</svg>
