<svg width="188" height="182" viewBox="0 0 188 182" fill="none" xmlns="http://www.w3.org/2000/svg">
<path d="M133.628 1.91663C132.201 0.230016 129.677 0.019362 127.991 1.44612C126.304 2.87288 126.093 5.39676 127.52 7.08337L133.628 1.91663ZM100.592 31.9101L100.234 27.9261L100.592 31.9101ZM0.887048 151.988C-0.500224 153.707 -0.231114 156.226 1.48812 157.613L29.5047 180.22C31.2239 181.607 33.7422 181.338 35.1295 179.619C36.5168 177.9 36.2477 175.381 34.5284 173.994L9.62483 153.899L29.7199 128.995C31.1071 127.276 30.838 124.758 29.1188 123.37C27.3995 121.983 24.8812 122.252 23.494 123.972L0.887048 151.988ZM127.52 7.08337C137.556 18.9473 140.5 28.9506 139.453 37.1345C138.401 45.3609 133.194 52.7318 124.848 59.0323C108.036 71.7227 80.1155 78.7734 57.0559 78.7734V86.7734C81.2453 86.7734 111.049 79.4716 129.668 65.4174C139.036 58.3456 145.97 49.2461 147.389 38.1492C148.813 27.0098 144.558 14.8369 133.628 1.91663L127.52 7.08337ZM57.0559 78.7734C45.7355 78.7734 37.3824 76.2347 32.5511 72.7965C30.162 71.0964 28.7752 69.2842 28.1382 67.5828C27.5244 65.9434 27.4982 64.1334 28.3071 62.0976C30.017 57.7944 35.6092 52.2727 47.6129 47.2344C59.4479 42.267 76.857 38.0574 100.95 35.894L100.234 27.9261C75.6392 30.1345 57.3564 34.4687 44.5168 39.8578C31.8459 45.1761 23.7809 51.8238 20.8725 59.1435C19.3723 62.9191 19.2967 66.7839 20.6461 70.3879C21.9721 73.9298 24.5609 76.9293 27.9126 79.3146C34.5627 84.0471 44.7517 86.7734 57.0559 86.7734V78.7734ZM100.95 35.894C130.658 33.2265 152.74 38.0334 165.86 46.4789C172.38 50.6759 176.562 55.6814 178.569 61.0144C180.561 66.3056 180.545 72.2667 178.067 78.7017C173.034 91.772 157.789 106.773 129.139 120.067C100.635 133.294 59.4337 144.554 3.57498 150.523L4.42502 158.477C60.8621 152.446 102.977 141.027 132.507 127.324C161.891 113.689 179.398 97.5089 185.533 81.5764C188.639 73.51 188.811 65.5141 186.057 58.1963C183.318 50.9203 177.821 44.6647 170.19 39.7522C155.007 29.9785 130.902 25.1724 100.234 27.9261L100.95 35.894Z" fill="#034AD8"/>
</svg>
