<?xml version="1.0" encoding="utf-8"?>
<!-- Generator: Adobe Illustrator 16.0.0, SVG Export Plug-In . SVG Version: 6.00 Build 0)  -->
<!DOCTYPE svg PUBLIC "-//W3C//DTD SVG 1.1//EN" "http://www.w3.org/Graphics/SVG/1.1/DTD/svg11.dtd">
<svg version="1.1" id="Layer_1" xmlns="http://www.w3.org/2000/svg" xmlns:xlink="http://www.w3.org/1999/xlink" x="0px" y="0px"
	 width="601px" height="121px" viewBox="0 0 601 121" enable-background="new 0 0 601 121" xml:space="preserve">
<g>
	<path fill="#0A1C2B" d="M208.741,82.73c0,18.729-15.255,30.964-34.136,30.964h-44.408V7.961h41.387
		c18.428,0,33.381,11.933,33.381,30.209c0,8.761-3.474,15.709-9.214,20.693C203.606,63.849,208.741,72.005,208.741,82.73z
		 M154.365,30.619v18.73h17.219c5.438,0,9.214-3.927,9.214-9.365c0-5.438-3.625-9.365-9.214-9.365H154.365z M184.574,80.917
		c0-5.891-3.927-10.12-9.969-10.12h-20.24v20.24h20.24C180.646,91.037,184.574,86.808,184.574,80.917z"/>
	<path fill="#0A1C2B" d="M293.023,38.171v75.523h-22.657v-7.099c-4.078,5.589-11.631,9.214-21.6,9.214
		c-15.256,0-28.246-10.875-28.246-31.267V38.171h22.657v43.048c0,9.365,5.891,13.745,13.141,13.745
		c8.308,0,14.047-4.833,14.047-15.558V38.171H293.023z"/>
	<path fill="#0A1C2B" d="M302.839,7.961h25.376l18.277,74.013l20.391-74.013h19.636l20.391,74.013l18.277-74.013h25.376
		l-29.152,105.733h-27.49l-17.219-62.382l-17.22,62.382h-27.49L302.839,7.961z"/>
	<path fill="#0A1C2B" d="M455.093,17.931c0-7.401,6.193-13.594,13.594-13.594s13.594,6.193,13.594,13.594
		s-6.192,13.594-13.594,13.594S455.093,25.332,455.093,17.931z M457.358,38.171h22.657v75.523h-22.657V38.171z"/>
	<path fill="#0A1C2B" d="M521.552,31.223v20.392h39.272v23.261h-39.272v38.819h-24.168V7.961h64.195v23.261H521.552z"/>
	<path fill="#0A1C2B" d="M572.906,17.931c0-7.401,6.192-13.594,13.594-13.594s13.595,6.193,13.595,13.594
		s-6.193,13.594-13.595,13.594S572.906,25.332,572.906,17.931z M575.171,38.171h22.657v75.523h-22.657V38.171z"/>
</g>
<g>
</g>
<g>
	<title>icon-mist-wifi-assurance</title>
	<path fill="#010101" d="M2.748,44.329c-0.574-0.002-1.039-0.467-1.04-1.04V1.315h41.971c0.575,0,1.04,0.466,1.04,1.04
		s-0.465,1.04-1.04,1.04H3.783v39.896C3.781,43.862,3.319,44.325,2.748,44.329z"/>
	<path fill="#010101" d="M43.678,120.051H1.708V78.081c0.001-0.575,0.467-1.04,1.041-1.039s1.039,0.465,1.039,1.039v39.896h39.896
		c0.574,0,1.04,0.465,1.04,1.04c0,0.574-0.466,1.04-1.04,1.04L43.678,120.051z"/>
	<path fill="#010101" d="M119.404,44.329c-0.574-0.002-1.039-0.467-1.04-1.04V3.393H78.468c-0.574,0-1.04-0.466-1.04-1.04
		s0.466-1.04,1.04-1.04l0,0h41.976v41.976C120.443,43.862,119.978,44.327,119.404,44.329z"/>
	<path fill="#010101" d="M120.444,120.051H78.473c-0.575,0-1.04-0.466-1.04-1.04s0.465-1.04,1.04-1.04h39.896V78.076
		c0-0.574,0.465-1.04,1.04-1.04c0.574,0,1.04,0.466,1.04,1.04L120.444,120.051z"/>
	<rect x="9.233" y="8.183" fill="#E6E7E8" width="105" height="105"/>
	<path fill="#00A651" d="M61.091,74.652c-8.12,0-14.702,6.584-14.702,14.703c0,8.121,6.583,14.703,14.702,14.703
		c8.12,0,14.703-6.583,14.703-14.703C75.79,81.237,69.21,74.656,61.091,74.652z M59.013,96.283l-6.937-6.928l2.775-2.774
		l4.161,4.165l8.31-8.325l2.774,2.775L59.013,96.283z"/>
	<path fill="#0A1C2B" d="M89.341,69.617c2.949-2.948,2.95-7.728,0.002-10.678c-0.001,0-0.001-0.001-0.002-0.001
		c-15.538-15.502-40.69-15.502-56.228,0c-2.95,2.949-2.95,7.73,0,10.679c2.949,2.95,7.73,2.95,10.679,0
		c9.637-9.609,25.233-9.609,34.87,0c2.945,2.95,7.724,2.953,10.673,0.006C89.337,69.622,89.339,69.62,89.341,69.617z"/>
	<path fill="#0A1C2B" d="M24.076,50.139c20.477-20.518,53.708-20.552,74.226-0.076c0.025,0.025,0.051,0.05,0.076,0.076
		c2.952,2.949,7.735,2.947,10.684-0.005c2.949-2.952,2.947-7.735-0.005-10.684c-26.396-26.419-69.21-26.438-95.63-0.043
		c-0.014,0.014-0.029,0.029-0.043,0.043c-2.895,3.008-2.802,7.794,0.208,10.689c2.926,2.815,7.554,2.815,10.481,0H24.076z"/>
</g>
<g>
	<path fill="#FFFFFF" d="M829.742,82.73c0,18.729-15.255,30.964-34.136,30.964h-44.408V7.961h41.387
		c18.428,0,33.381,11.933,33.381,30.209c0,8.761-3.474,15.709-9.213,20.693C824.606,63.849,829.742,72.005,829.742,82.73z
		 M775.366,30.619v18.73h17.219c5.438,0,9.214-3.927,9.214-9.365c0-5.438-3.625-9.365-9.214-9.365H775.366z M805.575,80.917
		c0-5.891-3.928-10.12-9.969-10.12h-20.24v20.24h20.24C801.647,91.037,805.575,86.808,805.575,80.917z"/>
	<path fill="#FFFFFF" d="M914.024,38.171v75.523h-22.658v-7.099c-4.078,5.589-11.631,9.214-21.6,9.214
		c-15.256,0-28.246-10.875-28.246-31.267V38.171h22.658v43.048c0,9.365,5.891,13.745,13.141,13.745
		c8.308,0,14.047-4.833,14.047-15.558V38.171H914.024z"/>
	<path fill="#FFFFFF" d="M923.839,7.961h25.376l18.277,74.013l20.391-74.013h19.637l20.391,74.013l18.277-74.013h25.375
		l-29.152,105.733h-27.49l-17.219-62.382l-17.22,62.382h-27.49L923.839,7.961z"/>
	<path fill="#FFFFFF" d="M1076.093,17.931c0-7.401,6.192-13.594,13.595-13.594c7.4,0,13.594,6.193,13.594,13.594
		s-6.193,13.594-13.594,13.594C1082.286,31.525,1076.093,25.332,1076.093,17.931z M1078.359,38.171h22.657v75.523h-22.657V38.171z"
		/>
	<path fill="#FFFFFF" d="M1142.553,31.223v20.392h39.271v23.261h-39.271v38.819h-24.168V7.961h64.195v23.261H1142.553z"/>
	<path fill="#FFFFFF" d="M1193.907,17.931c0-7.401,6.191-13.594,13.594-13.594c7.4,0,13.594,6.193,13.594,13.594
		s-6.193,13.594-13.594,13.594C1200.098,31.525,1193.907,25.332,1193.907,17.931z M1196.172,38.171h22.656v75.523h-22.656V38.171z"
		/>
</g>
<g>
	<title>icon-mist-wifi-assurance</title>
	<path fill="#FFFFFF" d="M623.749,44.329c-0.574-0.002-1.039-0.467-1.041-1.04V1.315h41.971c0.576,0,1.041,0.466,1.041,1.04
		s-0.465,1.04-1.041,1.04h-39.895v39.896C624.782,43.862,624.319,44.325,623.749,44.329z"/>
	<path fill="#FFFFFF" d="M664.678,120.051h-41.971V78.081c0.002-0.575,0.467-1.04,1.041-1.039s1.039,0.465,1.039,1.039v39.896
		h39.896c0.574,0,1.039,0.465,1.039,1.04c0,0.574-0.465,1.04-1.039,1.04L664.678,120.051z"/>
	<path fill="#FFFFFF" d="M740.405,44.329c-0.574-0.002-1.039-0.467-1.041-1.04V3.393h-39.895c-0.574,0-1.041-0.466-1.041-1.04
		s0.467-1.04,1.041-1.04l0,0h41.975v41.976C741.444,43.862,740.979,44.327,740.405,44.329z"/>
	<path fill="#FFFFFF" d="M741.444,120.051h-41.971c-0.574,0-1.039-0.466-1.039-1.04s0.465-1.04,1.039-1.04h39.896V78.076
		c0-0.574,0.465-1.04,1.039-1.04s1.041,0.466,1.041,1.04L741.444,120.051z"/>
	<rect x="630.234" y="8.183" fill="#E6E7E8" width="105" height="105"/>
	<path fill="#00A651" d="M682.091,74.652c-8.12,0-14.702,6.584-14.702,14.703c0,8.121,6.582,14.703,14.702,14.703
		s14.703-6.583,14.703-14.703C696.791,81.237,690.21,74.656,682.091,74.652z M680.013,96.283l-6.937-6.928l2.775-2.774l4.161,4.165
		l8.31-8.325l2.773,2.775L680.013,96.283z"/>
	<path fill="#0A1C2B" d="M710.341,69.617c2.948-2.948,2.95-7.728,0.003-10.678c-0.002,0-0.002-0.001-0.003-0.001
		c-15.538-15.502-40.69-15.502-56.228,0c-2.951,2.949-2.951,7.73,0,10.679c2.949,2.95,7.73,2.95,10.679,0
		c9.638-9.609,25.233-9.609,34.87,0c2.945,2.95,7.723,2.953,10.672,0.006C710.337,69.622,710.34,69.62,710.341,69.617z"/>
	<path fill="#0A1C2B" d="M645.077,50.139c20.477-20.518,53.708-20.552,74.226-0.076c0.025,0.025,0.051,0.05,0.076,0.076
		c2.952,2.949,7.735,2.947,10.685-0.005s2.946-7.735-0.006-10.684c-26.395-26.419-69.21-26.438-95.629-0.043
		c-0.015,0.014-0.029,0.029-0.043,0.043c-2.895,3.008-2.803,7.794,0.207,10.689c2.926,2.815,7.555,2.815,10.481,0H645.077z"/>
</g>
<g>
</g>
<g>
</g>
<g>
</g>
<g>
</g>
<g>
</g>
<g>
</g>
</svg>
