<?xml version="1.0" encoding="UTF-8"?> <!-- Generator: Adobe Illustrator 23.1.0, SVG Export Plug-In . SVG Version: 6.00 Build 0) --> <svg xmlns="http://www.w3.org/2000/svg" xmlns:xlink="http://www.w3.org/1999/xlink" id="Ñëîé_13" x="0px" y="0px" viewBox="0 0 4373.4 2756.5" style="enable-background:new 0 0 4373.4 2756.5;" xml:space="preserve"> <style type="text/css"> .st0{fill:#3B639F;} .st1{fill:#00BDC7;} .st2{fill:#FFFFFF;} .st3{fill:#E5A76A;} .st4{fill:#233C67;} .st5{fill:#F7C589;} .st6{fill:#EFB87B;} .st7{fill:#4AD6AE;} .st8{fill:#EA942D;} .st9{clip-path:url(#SVGID_2_);} .st10{fill:#F2B879;} .st11{fill:#F7CFA4;} .st12{fill:#ECF5F7;} .st13{fill:#EDC094;} .st14{fill:#EFA55B;} .st15{fill:#195FB2;} .st16{fill:#AD6728;} .st17{fill:#A35814;} .st18{fill:#19C6D8;} .st19{opacity:0.53;fill:#F2AC6D;} </style> <g> <path class="st0" d="M226.8,2422.1c-27.8-0.9-55.6-1.7-83.3-2.6l167-776.7L516,1705C419.6,1944,323.2,2183.1,226.8,2422.1z"></path> <path class="st0" d="M226.8,2421.2c-21.3-0.6-21.3-0.3-42.7-0.9c68.9-256.1,149.7-512.6,218.6-768.7l114.6,48.3 C420.5,1940.4,323.6,2180.8,226.8,2421.2z"></path> <path class="st0" d="M1639.9,2418.6c27.8-0.9,55.6-1.7,83.3-2.6l-167-776.7l-205.6,62.1C1447,1940.5,1543.4,2179.5,1639.9,2418.6z"></path> <path class="st0" d="M1639.9,2417.7c21.3-0.6,21.3-0.3,42.7-0.9c-68.9-256.1-149.7-512.6-218.6-768.7l-114.6,48.3 C1446.1,1936.8,1543,2177.3,1639.9,2417.7z"></path> <g> <path class="st1" d="M1875.8,1124c0,141-31.6,274.6-88.2,394.1c-148.1,313.2-467.3,529.9-837.2,529.9 C439.3,2048,25,1634.3,25,1124c0-252,101-480.3,264.8-647C457.7,306,691.6,200,950.4,200C1461.5,200,1875.8,613.7,1875.8,1124z"></path> <g> <path class="st2" d="M951.2,402.3c-199,0-379.6,80.5-510.6,210.7c-132,131.1-213.9,312.5-213.9,512.7 c0,398.9,325,723.4,724.5,723.4c292.2,0,544.6-173.7,659.1-423c42-91.5,65.4-193.3,65.4-300.4 C1675.7,726.8,1350.7,402.3,951.2,402.3z M951.2,1653.4c-291.4,0-528.5-236.7-528.5-527.7c0-158.9,70.7-301.6,182.3-398.4 C697.8,646.8,818.9,598,951.2,598c291.4,0,528.5,236.7,528.5,527.7c0,65.4-12,128.2-33.9,186 C1370.3,1511.2,1177,1653.4,951.2,1653.4z"></path> </g> <path class="st2" d="M1283.2,1123.6c0,20.8-1.9,41.1-5.6,60.8c-28.6,153.1-163.1,268.9-324.6,268.9 c-182.4,0-330.2-147.6-330.2-329.7c0-125.6,70.3-234.8,173.8-290.5c46.6-25,99.8-39.3,156.4-39.3 C1135.3,793.9,1283.2,941.5,1283.2,1123.6z"></path> <ellipse class="st1" cx="951.2" cy="1124" rx="157.2" ry="157"></ellipse> <ellipse class="st0" cx="951.6" cy="1123.8" rx="94.5" ry="94.4"></ellipse> </g> </g> <g> <g> <path class="st3" d="M2460.5,1562.2c-8.1,6.1-14.1,13.3-14.4,21.5c-0.5,17.2,24.8,23.4,78.9,58.5c36.1,23.4,50.1,25.4,70.9,34.2 c12.5,5.3,26.9-0.2,32.7-12.5l0.2-0.5c1.8-3.8,4.3-10.4,2.6-17.6c-5.6-23.5-50-25.5-104.4-47.7 C2510.5,1591.4,2487.1,1580.4,2460.5,1562.2z"></path> <path class="st3" d="M2349,1434.5c1,3.9,3.8,6.2,5.9,7.9c3.3,2.6,5.1,2.7,9,4.7c10.5,5.2,12.3,12.2,19,11.8c1.3-0.1,3-0.4,5-1.4 l5.3-10.1c1.7,0.5,2.3,0.4,2.5,0.1c1.4-1.9-10.2-15.9-26.4-22.1c-4.7-1.8-14.5-5.5-18.8-1.1 C2348.1,1427.1,2348.3,1431.7,2349,1434.5z"></path> <path class="st3" d="M2473.5,1601.7c7.3-4.2,7.8-15,7.9-16.1c0.4-12.3-8.8-20.5-19.8-32.9c-4.9-5.5-19.5-22.3-30.4-41.3 c-4.2-7.4-18.9-34.3-27.3-54.3c-1.1-2.7-4-9.6-11-13.9c-4.5-2.7-9-3.4-12.1-3.5l-0.2,0.1c-4.1,2.3-5.6,7.5-3.4,11.6 c4.7,8.9,10.3,20.5,16.2,34.2c10.3,24.2,13.9,38.1,18.7,50.7c6.3,16.5,17.4,38.1,38.8,61.8 C2453.8,1601.4,2465.6,1606.3,2473.5,1601.7z"></path> </g> <g> <g> <path class="st0" d="M2725.1,1701.2c-4,13.8-14.9,26.4-29.1,28.9c-4.8,0.8-9.7,0.6-14.5,1.1c-1,0.1-2,0.3-3,0.4 c-11.7,2.3-21,11.6-32.4,15.1c-13.4,4.1-27.9-0.1-40.5-6.3c-10.8-5.3-21.2-12.6-26.6-23.3c-14.6-29.1,14.4-66.2,0.4-95.6 c-6.5-13.6-13.8-10.6-22.2-28.2c-2.3-4.8-11.3-24.8-6.4-49.7c0.6-3,1.2-6.1,2.1-9.1c1.3-4.4,3.1-8.8,6.5-13.3 c11.1-14.9,29-17.9,39-19.6c9.3-1.6,22.3-3.8,36.1,2.2c17.8,7.7,25.8,24.2,29.5,31.9c14.3,29.5,0.6,43.8,15.4,64.1 c7.5,10.3,19.8,15.9,28.4,25.3c8.5,9.2,12.9,21.3,15.9,33.4C2727.3,1672.5,2729.1,1687.4,2725.1,1701.2z"></path> <path class="st0" d="M2689.3,1688.3c-2.5,5.5-6.8,10.2-8.7,15.9c-3,8.6-0.3,17.8,0.9,27c-1,0.1-2,0.3-3,0.4 c-11.7,2.3-21,11.6-32.4,15.1c-13.4,4.1-27.9-0.1-40.5-6.3c-10.8-5.3-21.2-12.6-26.6-23.3c-14.6-29.1,14.4-66.2,0.4-95.6 c-6.5-13.6-13.8-10.6-22.2-28.2c-2.3-4.8-11.3-24.8-6.4-49.7c0.6-3,1.2-6.1,2.1-9.1c2.3-1.7,4.9-3.2,7.7-4.3 c11.3-4.7,25.2-2.3,34.4,5.8c16.6,14.8,14.3,41.5,25.4,60.7c6.8,11.8,18.3,20.2,29.7,27.7c11.4,7.5,23.3,14.8,31.8,25.5 C2690.4,1660.8,2694.9,1675.9,2689.3,1688.3z"></path> <g> <polygon class="st4" points="2984.5,2366.2 2990,2359.5 2969.4,2341.6 2964,2348.2 "></polygon> <path class="st4" d="M2933.7,2425.4c2.3,1.4,5.1,1.5,7.1,0.3c1.7-1,3.6-2.3,5.5-4c15.5-13.9,10.6-34,21.3-56.2 c1.4-2.8,3.3-6.2,5.9-9.9c5.2-7.3,2.1-18.3-6.5-23.2l-5.5-3.1c-2.5-1.4-5.5-1.3-7.6,0.3c-6.9,5.2-10.4,10.8-12.2,15 c-9.4,21.2,5.9,42.6-4.7,61.6c-1.6,2.9-3.6,5.2-5.6,7.2C2928,2416.6,2929.1,2422.6,2933.7,2425.4L2933.7,2425.4z"></path> <path class="st5" d="M2950.4,2346.7c4.8-9.5,10.6-15.2,8.5-18.1c-1.1-1.6-4-1.4-4.6-1.3c-18.4,0.9-91-70.6-91-70.6 c-30.6-30.1-58.3-47.4-64.2-51c-57.1-35.3-93.5-27.8-100-25.3c-11.2,4.4-15.2,12.3-15.2,12.3c-0.2,0.5-0.8,1.7-1.2,3 c-5,14.9,4.9,30.8,20.4,33.3c7.8,1.3,17.2,3.2,27.6,5.9c35,9.1,59.8,21.7,90.2,37.4c20.6,10.7,38.2,19.6,60.7,34.8 c20.9,14.1,49.3,35.7,49.3,35.7s2.3,11.1,6.6,23.2c1.3,3.7,2.1,5.9,3.3,5.9C2943.6,2371.9,2943.3,2360.6,2950.4,2346.7z"></path> </g> <g> <polygon class="st4" points="2614.9,2486.5 2623.5,2486.5 2624.4,2459.2 2615.8,2459.2 "></polygon> <path class="st4" d="M2536.9,2484.6c0.4,2.7,2,4.9,4.3,5.7c1.8,0.7,4.1,1.3,6.6,1.7c20.6,3.2,33.1-13.3,57-19.1 c3.1-0.7,6.9-1.4,11.4-1.7c8.9-0.6,15.5-10,13.8-19.7l-1.1-6.2c-0.5-2.9-2.4-5.1-5-5.7c-8.4-2.1-14.9-1.2-19.4,0 c-22.3,6.2-29.2,31.5-50.6,35.4c-3.3,0.6-6.3,0.6-9.1,0.2C2540.1,2474.6,2536.1,2479.3,2536.9,2484.6L2536.9,2484.6z"></path> <path class="st6" d="M2608.3,2447.7c10.4-2.2,18.5-1.4,19.4-4.9c0.5-1.9-1.4-3.9-1.9-4.4c-12.3-13.7-2.9-115.2-2.9-115.2 c4-42.7-0.2-75.2-1.1-82c-8.8-66.5-37.6-90-43.7-93.4c-10.5-5.9-19.1-4-19.1-4c-0.5,0.1-1.8,0.5-3.1,1 c-14.7,5.6-20.7,23.2-12.9,36.9c3.9,6.9,8.4,15.3,12.9,25.1c15.1,32.9,21,60,28.1,93.5c4.8,22.7,9,42,11.5,69 c2.3,25,3.6,60.8,3.6,60.8s-7.2,8.8-13.8,19.8c-2,3.4-3.2,5.4-2.5,6.3C2584.6,2458.3,2593.1,2451,2608.3,2447.7z"></path> </g> <path class="st4" d="M2604.7,1827.9c15,3,39.6,9.8,64.9,27.3c0,0,19,13.1,33.5,30.3c38.9,46.2,25.4,115.2,35.7,174.1 c6.9,39.4,27.9,94,92.9,154.1c-26,14.6-64.6,32-113.7,40.6c-84.2,14.8-152.8-4.5-186.9-16.7c-0.4-16.3-0.6-43.9,2.4-77.8 c7.9-90.1,26.6-97.8,35-185.9c2.9-30.1,3.5-58.7,16.9-99.4C2592.1,1854.1,2599.5,1838.2,2604.7,1827.9z"></path> <path class="st7" d="M2665,1807.3c-5-15.8-1.2-39,7.3-85.1c3.5-18.9,9.8-46.4-5.3-65.2c-0.8-1-1.4-1.6-2-2.3 c-17.1-18-44.3-21.2-52.7-22.2c-11.7-1.4-19.4,0.5-22.1,1.3c-5.4,1.5-12.4,3.6-17.6,9.1c-6.7,7.3-5.3,15.3-7.1,43.3 c-1.3,20.3-3.1,22.8-3.2,26.1c0,0.4,0.1,1,0.1,1.7c2,24.9,21.1,52.3,21.1,52.3c8.7,13.2,6.7,42.5-39.6,113 c5,5.5,13,12.4,21.8,11.4c10.9-1.2,16-13.7,23.5-11.9c6.1,1.5,4.4,10,12,15.2c9.7,6.6,26.5,2.2,36.6-5.2 c8.7-6.3,8.1-11.5,15.4-13.8c9.2-2.8,14.7,3.9,23.8,4c7.6,0,18.1-4.6,30.8-25.2C2679.2,1837.5,2669,1820,2665,1807.3z"></path> <path class="st8" d="M2552.6,1794.6c0.5-1.3,0.7-1.7,0.7-1.7L2552.6,1794.6z"></path> <g> <defs> <path id="SVGID_1_" d="M2665.3,1814.3c-6.9-17.2-2.2-42.2,7-92.2c3.5-18.8,9.8-46.4-5.3-65.2c-0.8-1-1.4-1.7-2-2.3 c-17.1-18-44.3-21.2-52.7-22.2c-11.7-1.4-19.4,0.5-22.1,1.3c-5.4,1.5-12.4,3.6-17.6,9.1c-6.7,7.3-5.3,15.3-7.1,43.3 c-1.3,20.3-3.1,22.8-3.2,26.1c0,0,0,0.8,0.1,1.7c2.2,18.5,10.6,35.6,10.6,35.6c2.4,4.9,4.5,8.7,6.2,11.7 c5.1,8.6,7.3,11.9,8.5,14.2c5.1,9.6-0.5,22.3-11.8,47.2c-8,17.5-15.8,30.7-20.9,39c-4.4,7.3-8.3,13.3-11.1,17.6 c9.7,10.4,16.9,12,21.8,11.4c10.9-1.2,16.5-14.1,23.5-11.9c4.3,1.3,3.1,6.4,8.1,10.7c10.5,9.2,32,0.8,33.6,0.2 c15.9-6.4,18.3-16.4,29.7-16.1c7.9,0.2,9.5,5,16.4,5.5c7.1,0.5,17.4-3.9,30.8-25.2C2680.4,1841,2669.8,1825.8,2665.3,1814.3z"></path> </defs> <clipPath id="SVGID_2_"> <use xlink:href="#SVGID_1_" style="overflow:visible;"></use> </clipPath> <g class="st9"> <path class="st2" d="M2646.4,1630.6c-0.4,1.9,0.9,3.8,2.9,4.2c1.9,0.4,3.8-0.9,4.2-2.9c0.4-1.9-0.9-3.8-2.9-4.2 C2648.6,1627.4,2646.8,1628.7,2646.4,1630.6z"></path> <path class="st2" d="M2631.3,1638.1c-0.4,1.9,0.9,3.8,2.9,4.2c1.9,0.4,3.8-0.9,4.2-2.9c0.4-1.9-0.9-3.8-2.9-4.2 C2633.6,1634.9,2631.7,1636.2,2631.3,1638.1z"></path> <path class="st2" d="M2616.3,1645.6c-0.4,1.9,0.9,3.8,2.9,4.2c1.9,0.4,3.8-0.9,4.2-2.9c0.4-1.9-0.9-3.8-2.9-4.2 C2618.5,1642.4,2616.6,1643.7,2616.3,1645.6z"></path> <path class="st2" d="M2601.2,1653.1c-0.4,1.9,0.9,3.8,2.9,4.2c1.9,0.4,3.8-0.9,4.2-2.9c0.4-1.9-0.9-3.8-2.9-4.2 C2603.4,1649.9,2601.6,1651.2,2601.2,1653.1z"></path> <path class="st2" d="M2586.1,1660.6c-0.4,1.9,0.9,3.8,2.9,4.2c1.9,0.4,3.8-0.9,4.2-2.9s-0.9-3.8-2.9-4.2 C2588.3,1657.4,2586.5,1658.7,2586.1,1660.6z"></path> <path class="st2" d="M2571.1,1668.1c-0.4,1.9,0.9,3.8,2.9,4.2c1.9,0.4,3.8-0.9,4.2-2.9c0.4-1.9-0.9-3.8-2.9-4.2 C2573.3,1664.9,2571.4,1666.2,2571.1,1668.1z"></path> <path class="st2" d="M2556,1675.6c-0.4,1.9,0.9,3.8,2.9,4.2c1.9,0.4,3.8-0.9,4.2-2.9c0.4-1.9-0.9-3.8-2.9-4.2 S2556.3,1673.7,2556,1675.6z"></path> <path class="st2" d="M2540.9,1683.1c-0.4,1.9,0.9,3.8,2.9,4.2c1.9,0.4,3.8-0.9,4.2-2.9c0.4-1.9-0.9-3.8-2.9-4.2 C2543.1,1679.9,2541.3,1681.1,2540.9,1683.1z"></path> </g> <g class="st9"> <path class="st2" d="M2585.5,1647.6c-0.4,1.9,0.9,3.8,2.9,4.2c1.9,0.4,3.8-0.9,4.2-2.9c0.4-1.9-0.9-3.8-2.9-4.2 C2587.7,1644.3,2585.9,1645.6,2585.5,1647.6z"></path> <path class="st2" d="M2570.5,1655.1c-0.4,1.9,0.9,3.8,2.9,4.2c1.9,0.4,3.8-0.9,4.2-2.9c0.4-1.9-0.9-3.8-2.9-4.2 C2572.7,1651.8,2570.8,1653.1,2570.5,1655.1z"></path> <path class="st2" d="M2555.4,1662.6c-0.4,1.9,0.9,3.8,2.9,4.2c1.9,0.4,3.8-0.9,4.2-2.9c0.4-1.9-0.9-3.8-2.9-4.2 C2557.6,1659.3,2555.7,1660.6,2555.4,1662.6z"></path> <path class="st2" d="M2540.3,1670.1c-0.4,1.9,0.9,3.8,2.9,4.2c1.9,0.4,3.8-0.9,4.2-2.9c0.4-1.9-0.9-3.8-2.9-4.2 C2542.5,1666.8,2540.7,1668.1,2540.3,1670.1z"></path> <path class="st2" d="M2525.3,1677.5c-0.4,1.9,0.9,3.8,2.9,4.2c1.9,0.4,3.8-0.9,4.2-2.9c0.4-1.9-0.9-3.8-2.9-4.2 C2527.5,1674.3,2525.6,1675.6,2525.3,1677.5z"></path> <path class="st2" d="M2510.2,1685c-0.4,1.9,0.9,3.8,2.9,4.2c1.9,0.4,3.8-0.9,4.2-2.9c0.4-1.9-0.9-3.8-2.9-4.2 C2512.4,1681.8,2510.5,1683.1,2510.2,1685z"></path> <path class="st2" d="M2495.1,1692.5c-0.4,1.9,0.9,3.8,2.9,4.2s3.8-0.9,4.2-2.9c0.4-1.9-0.9-3.8-2.9-4.2 C2497.3,1689.3,2495.5,1690.6,2495.1,1692.5z"></path> <path class="st2" d="M2480,1700c-0.4,1.9,0.9,3.8,2.9,4.2c1.9,0.4,3.8-0.9,4.2-2.9s-0.9-3.8-2.9-4.2 C2482.3,1696.8,2480.4,1698.1,2480,1700z"></path> </g> <g class="st9"> <path class="st2" d="M2647.4,1645.3c-0.4,1.9,0.9,3.8,2.9,4.2c1.9,0.4,3.8-0.9,4.2-2.9c0.4-1.9-0.9-3.8-2.9-4.2 C2649.6,1642.1,2647.7,1643.4,2647.4,1645.3z"></path> <path class="st2" d="M2632.3,1652.8c-0.4,1.9,0.9,3.8,2.9,4.2c1.9,0.4,3.8-0.9,4.2-2.9s-0.9-3.8-2.9-4.2 S2632.7,1650.9,2632.3,1652.8z"></path> <path class="st2" d="M2617.2,1660.3c-0.4,1.9,0.9,3.8,2.9,4.2c1.9,0.4,3.8-0.9,4.2-2.9c0.4-1.9-0.9-3.8-2.9-4.2 C2619.4,1657.1,2617.6,1658.4,2617.2,1660.3z"></path> <path class="st2" d="M2602.2,1667.8c-0.4,1.9,0.9,3.8,2.9,4.2c1.9,0.4,3.8-0.9,4.2-2.9c0.4-1.9-0.9-3.8-2.9-4.2 C2604.4,1664.6,2602.5,1665.9,2602.2,1667.8z"></path> <path class="st2" d="M2587.1,1675.3c-0.4,1.9,0.9,3.8,2.9,4.2c1.9,0.4,3.8-0.9,4.2-2.9c0.4-1.9-0.9-3.8-2.9-4.2 C2589.3,1672.1,2587.4,1673.4,2587.1,1675.3z"></path> <path class="st2" d="M2572,1682.8c-0.4,1.9,0.9,3.8,2.9,4.2c1.9,0.4,3.8-0.9,4.2-2.9c0.4-1.9-0.9-3.8-2.9-4.2 C2574.2,1679.6,2572.4,1680.9,2572,1682.8z"></path> <path class="st2" d="M2557,1690.3c-0.4,1.9,0.9,3.8,2.9,4.2c1.9,0.4,3.8-0.9,4.2-2.9c0.4-1.9-0.9-3.8-2.9-4.2 C2559.2,1687.1,2557.3,1688.4,2557,1690.3z"></path> <path class="st2" d="M2541.9,1697.8c-0.4,1.9,0.9,3.8,2.9,4.2c1.9,0.4,3.8-0.9,4.2-2.9c0.4-1.9-0.9-3.8-2.9-4.2 C2544.1,1694.6,2542.2,1695.9,2541.9,1697.8z"></path> </g> <g class="st9"> <path class="st2" d="M2661.2,1655.5c-0.4,1.9,0.9,3.8,2.9,4.2c1.9,0.4,3.8-0.9,4.2-2.9c0.4-1.9-0.9-3.8-2.9-4.2 C2663.4,1652.2,2661.5,1653.5,2661.2,1655.5z"></path> <path class="st2" d="M2646.1,1663c-0.4,1.9,0.9,3.8,2.9,4.2c1.9,0.4,3.8-0.9,4.2-2.9c0.4-1.9-0.9-3.8-2.9-4.2 C2648.3,1659.7,2646.5,1661,2646.1,1663z"></path> <path class="st2" d="M2631,1670.5c-0.4,1.9,0.9,3.8,2.9,4.2c1.9,0.4,3.8-0.9,4.2-2.9c0.4-1.9-0.9-3.8-2.9-4.2 C2633.2,1667.2,2631.4,1668.5,2631,1670.5z"></path> <path class="st2" d="M2616,1678c-0.4,1.9,0.9,3.8,2.9,4.2c1.9,0.4,3.8-0.9,4.2-2.9c0.4-1.9-0.9-3.8-2.9-4.2 C2618.2,1674.7,2616.3,1676,2616,1678z"></path> <path class="st2" d="M2600.9,1685.5c-0.4,1.9,0.9,3.8,2.9,4.2c1.9,0.4,3.8-0.9,4.2-2.9c0.4-1.9-0.9-3.8-2.9-4.2 C2603.1,1682.2,2601.2,1683.5,2600.9,1685.5z"></path> <path class="st2" d="M2585.8,1693c-0.4,1.9,0.9,3.8,2.9,4.2c1.9,0.4,3.8-0.9,4.2-2.9c0.4-1.9-0.9-3.8-2.9-4.2 C2588,1689.7,2586.2,1691,2585.8,1693z"></path> <path class="st2" d="M2570.7,1700.5c-0.4,1.9,0.9,3.8,2.9,4.2c1.9,0.4,3.8-0.9,4.2-2.9c0.4-1.9-0.9-3.8-2.9-4.2 C2573,1697.2,2571.1,1698.5,2570.7,1700.5z"></path> <path class="st2" d="M2555.7,1707.9c-0.4,1.9,0.9,3.8,2.9,4.2c1.9,0.4,3.8-0.9,4.2-2.9c0.4-1.9-0.9-3.8-2.9-4.2 C2557.9,1704.7,2556,1706,2555.7,1707.9z"></path> </g> <g class="st9"> <path class="st2" d="M2628.8,1687.4c-0.4,1.9,0.9,3.8,2.9,4.2c1.9,0.4,3.8-0.9,4.2-2.9c0.4-1.9-0.9-3.8-2.9-4.2 C2631.1,1684.2,2629.2,1685.5,2628.8,1687.4z"></path> <path class="st2" d="M2613.8,1694.9c-0.4,1.9,0.9,3.8,2.9,4.2c1.9,0.4,3.8-0.9,4.2-2.9c0.4-1.9-0.9-3.8-2.9-4.2 C2616,1691.7,2614.1,1693,2613.8,1694.9z"></path> <path class="st2" d="M2598.7,1702.4c-0.4,1.9,0.9,3.8,2.9,4.2c1.9,0.4,3.8-0.9,4.2-2.9c0.4-1.9-0.9-3.8-2.9-4.2 C2600.9,1699.2,2599,1700.5,2598.7,1702.4z"></path> <path class="st2" d="M2583.6,1709.9c-0.4,1.9,0.9,3.8,2.9,4.2c1.9,0.4,3.8-0.9,4.2-2.9c0.4-1.9-0.9-3.8-2.9-4.2 C2585.8,1706.7,2584,1708,2583.6,1709.9z"></path> <path class="st2" d="M2568.6,1717.4c-0.4,1.9,0.9,3.8,2.9,4.2c1.9,0.4,3.8-0.9,4.2-2.9c0.4-1.9-0.9-3.8-2.9-4.2 C2570.8,1714.2,2568.9,1715.5,2568.6,1717.4z"></path> <path class="st2" d="M2553.5,1724.9c-0.4,1.9,0.9,3.8,2.9,4.2c1.9,0.4,3.8-0.9,4.2-2.9c0.4-1.9-0.9-3.8-2.9-4.2 C2555.7,1721.7,2553.8,1723,2553.5,1724.9z"></path> <path class="st2" d="M2538.4,1732.4c-0.4,1.9,0.9,3.8,2.9,4.2c1.9,0.4,3.8-0.9,4.2-2.9c0.4-1.9-0.9-3.8-2.9-4.2 S2538.8,1730.4,2538.4,1732.4z"></path> <path class="st2" d="M2523.3,1739.9c-0.4,1.9,0.9,3.8,2.9,4.2c1.9,0.4,3.8-0.9,4.2-2.9c0.4-1.9-0.9-3.8-2.9-4.2 C2525.6,1736.7,2523.7,1737.9,2523.3,1739.9z"></path> </g> <g class="st9"> <path class="st2" d="M2642.1,1696.7c-0.4,1.9,0.9,3.8,2.9,4.2c1.9,0.4,3.8-0.9,4.2-2.9c0.4-1.9-0.9-3.8-2.9-4.2 C2644.3,1693.5,2642.4,1694.8,2642.1,1696.7z"></path> <path class="st2" d="M2627,1704.2c-0.4,1.9,0.9,3.8,2.9,4.2c1.9,0.4,3.8-0.9,4.2-2.9c0.4-1.9-0.9-3.8-2.9-4.2 C2629.2,1701,2627.3,1702.3,2627,1704.2z"></path> <path class="st2" d="M2611.9,1711.7c-0.4,1.9,0.9,3.8,2.9,4.2c1.9,0.4,3.8-0.9,4.2-2.9c0.4-1.9-0.9-3.8-2.9-4.2 C2614.1,1708.5,2612.3,1709.8,2611.9,1711.7z"></path> <path class="st2" d="M2596.8,1719.2c-0.4,1.9,0.9,3.8,2.9,4.2c1.9,0.4,3.8-0.9,4.2-2.9c0.4-1.9-0.9-3.8-2.9-4.2 C2599.1,1716,2597.2,1717.3,2596.8,1719.2z"></path> <path class="st2" d="M2581.8,1726.7c-0.4,1.9,0.9,3.8,2.9,4.2c1.9,0.4,3.8-0.9,4.2-2.9c0.4-1.9-0.9-3.8-2.9-4.2 C2584,1723.5,2582.1,1724.8,2581.8,1726.7z"></path> <path class="st2" d="M2566.7,1734.2c-0.4,1.9,0.9,3.8,2.9,4.2c1.9,0.4,3.8-0.9,4.2-2.9c0.4-1.9-0.9-3.8-2.9-4.2 C2568.9,1731,2567.1,1732.3,2566.7,1734.2z"></path> <path class="st2" d="M2551.6,1741.7c-0.4,1.9,0.9,3.8,2.9,4.2c1.9,0.4,3.8-0.9,4.2-2.9c0.4-1.9-0.9-3.8-2.9-4.2 C2553.8,1738.5,2552,1739.8,2551.6,1741.7z"></path> <path class="st2" d="M2536.6,1749.2c-0.4,1.9,0.9,3.8,2.9,4.2c1.9,0.4,3.8-0.9,4.2-2.9c0.4-1.9-0.9-3.8-2.9-4.2 C2538.8,1746,2536.9,1747.2,2536.6,1749.2z"></path> </g> <g class="st9"> <path class="st2" d="M2656.5,1705.5c-0.4,1.9,0.9,3.8,2.9,4.2c1.9,0.4,3.8-0.9,4.2-2.9c0.4-1.9-0.9-3.8-2.9-4.2 C2658.7,1702.3,2656.8,1703.6,2656.5,1705.5z"></path> <path class="st2" d="M2641.4,1713c-0.4,1.9,0.9,3.8,2.9,4.2c1.9,0.4,3.8-0.9,4.2-2.9c0.4-1.9-0.9-3.8-2.9-4.2 C2643.6,1709.8,2641.7,1711.1,2641.4,1713z"></path> <path class="st2" d="M2626.3,1720.5c-0.4,1.9,0.9,3.8,2.9,4.2c1.9,0.4,3.8-0.9,4.2-2.9c0.4-1.9-0.9-3.8-2.9-4.2 C2628.5,1717.3,2626.7,1718.6,2626.3,1720.5z"></path> <path class="st2" d="M2611.2,1728c-0.4,1.9,0.9,3.8,2.9,4.2c1.9,0.4,3.8-0.9,4.2-2.9c0.4-1.9-0.9-3.8-2.9-4.2 C2613.5,1724.8,2611.6,1726.1,2611.2,1728z"></path> <path class="st2" d="M2596.2,1735.5c-0.4,1.9,0.9,3.8,2.9,4.2c1.9,0.4,3.8-0.9,4.2-2.9c0.4-1.9-0.9-3.8-2.9-4.2 C2598.4,1732.3,2596.5,1733.6,2596.2,1735.5z"></path> <path class="st2" d="M2581.1,1743c-0.4,1.9,0.9,3.8,2.9,4.2c1.9,0.4,3.8-0.9,4.2-2.9c0.4-1.9-0.9-3.8-2.9-4.2 C2583.3,1739.8,2581.5,1741,2581.1,1743z"></path> <path class="st2" d="M2566,1750.5c-0.4,1.9,0.9,3.8,2.9,4.2c1.9,0.4,3.8-0.9,4.2-2.9c0.4-1.9-0.9-3.8-2.9-4.2 C2568.2,1747.3,2566.4,1748.5,2566,1750.5z"></path> <path class="st2" d="M2551,1758c-0.4,1.9,0.9,3.8,2.9,4.2c1.9,0.4,3.8-0.9,4.2-2.9c0.4-1.9-0.9-3.8-2.9-4.2 C2553.2,1754.8,2551.3,1756,2551,1758z"></path> </g> <g class="st9"> <path class="st2" d="M2655.3,1721.7c-0.4,1.9,0.9,3.8,2.9,4.2s3.8-0.9,4.2-2.9c0.4-1.9-0.9-3.8-2.9-4.2 C2657.6,1718.4,2655.7,1719.7,2655.3,1721.7z"></path> <path class="st2" d="M2640.3,1729.2c-0.4,1.9,0.9,3.8,2.9,4.2c1.9,0.4,3.8-0.9,4.2-2.9s-0.9-3.8-2.9-4.2 C2642.5,1725.9,2640.6,1727.2,2640.3,1729.2z"></path> <path class="st2" d="M2625.2,1736.7c-0.4,1.9,0.9,3.8,2.9,4.2c1.9,0.4,3.8-0.9,4.2-2.9c0.4-1.9-0.9-3.8-2.9-4.2 C2627.4,1733.4,2625.5,1734.7,2625.2,1736.7z"></path> <path class="st2" d="M2610.1,1744.2c-0.4,1.9,0.9,3.8,2.9,4.2c1.9,0.4,3.8-0.9,4.2-2.9c0.4-1.9-0.9-3.8-2.9-4.2 C2612.3,1740.9,2610.5,1742.2,2610.1,1744.2z"></path> <path class="st2" d="M2595.1,1751.7c-0.4,1.9,0.9,3.8,2.9,4.2c1.9,0.4,3.8-0.9,4.2-2.9c0.4-1.9-0.9-3.8-2.9-4.2 C2597.3,1748.4,2595.4,1749.7,2595.1,1751.7z"></path> <path class="st2" d="M2580,1759.1c-0.4,1.9,0.9,3.8,2.9,4.2c1.9,0.4,3.8-0.9,4.2-2.9c0.4-1.9-0.9-3.8-2.9-4.2 C2582.2,1755.9,2580.3,1757.2,2580,1759.1z"></path> <path class="st2" d="M2564.9,1766.6c-0.4,1.9,0.9,3.8,2.9,4.2c1.9,0.4,3.8-0.9,4.2-2.9c0.4-1.9-0.9-3.8-2.9-4.2 C2567.1,1763.4,2565.3,1764.7,2564.9,1766.6z"></path> <path class="st2" d="M2549.8,1774.1c-0.4,1.9,0.9,3.8,2.9,4.2c1.9,0.4,3.8-0.9,4.2-2.9c0.4-1.9-0.9-3.8-2.9-4.2 C2552.1,1770.9,2550.2,1772.2,2549.8,1774.1z"></path> </g> <g class="st9"> <path class="st2" d="M2668.5,1733.1c-0.4,1.9,0.9,3.8,2.9,4.2c1.9,0.4,3.8-0.9,4.2-2.9s-0.9-3.8-2.9-4.2 C2670.7,1729.9,2668.9,1731.2,2668.5,1733.1z"></path> <path class="st2" d="M2653.5,1740.6c-0.4,1.9,0.9,3.8,2.9,4.2c1.9,0.4,3.8-0.9,4.2-2.9c0.4-1.9-0.9-3.8-2.9-4.2 C2655.7,1737.4,2653.8,1738.7,2653.5,1740.6z"></path> <path class="st2" d="M2638.4,1748.1c-0.4,1.9,0.9,3.8,2.9,4.2s3.8-0.9,4.2-2.9c0.4-1.9-0.9-3.8-2.9-4.2 C2640.6,1744.9,2638.7,1746.2,2638.4,1748.1z"></path> <path class="st2" d="M2623.3,1755.6c-0.4,1.9,0.9,3.8,2.9,4.2c1.9,0.4,3.8-0.9,4.2-2.9c0.4-1.9-0.9-3.8-2.9-4.2 C2625.5,1752.4,2623.7,1753.7,2623.3,1755.6z"></path> <path class="st2" d="M2608.2,1763.1c-0.4,1.9,0.9,3.8,2.9,4.2c1.9,0.4,3.8-0.9,4.2-2.9c0.4-1.9-0.9-3.8-2.9-4.2 C2610.5,1759.9,2608.6,1761.2,2608.2,1763.1z"></path> <path class="st2" d="M2593.2,1770.6c-0.4,1.9,0.9,3.8,2.9,4.2c1.9,0.4,3.8-0.9,4.2-2.9c0.4-1.9-0.9-3.8-2.9-4.2 C2595.4,1767.4,2593.5,1768.7,2593.2,1770.6z"></path> <path class="st2" d="M2578.1,1778.1c-0.4,1.9,0.9,3.8,2.9,4.2c1.9,0.4,3.8-0.9,4.2-2.9c0.4-1.9-0.9-3.8-2.9-4.2 C2580.3,1774.9,2578.5,1776.2,2578.1,1778.1z"></path> <path class="st2" d="M2563,1785.6c-0.4,1.9,0.9,3.8,2.9,4.2s3.8-0.9,4.2-2.9s-0.9-3.8-2.9-4.2 C2565.2,1782.4,2563.4,1783.7,2563,1785.6z"></path> </g> <g class="st9"> <path class="st2" d="M2681.6,1741c-0.4,1.9,0.9,3.8,2.9,4.2c1.9,0.4,3.8-0.9,4.2-2.9s-0.9-3.8-2.9-4.2 C2683.9,1737.7,2682,1739,2681.6,1741z"></path> <path class="st2" d="M2666.6,1748.5c-0.4,1.9,0.9,3.8,2.9,4.2c1.9,0.4,3.8-0.9,4.2-2.9c0.4-1.9-0.9-3.8-2.9-4.2 C2668.8,1745.2,2666.9,1746.5,2666.6,1748.5z"></path> <path class="st2" d="M2651.5,1756c-0.4,1.9,0.9,3.8,2.9,4.2c1.9,0.4,3.8-0.9,4.2-2.9s-0.9-3.8-2.9-4.2 C2653.7,1752.7,2651.9,1754,2651.5,1756z"></path> <path class="st2" d="M2636.4,1763.5c-0.4,1.9,0.9,3.8,2.9,4.2c1.9,0.4,3.8-0.9,4.2-2.9c0.4-1.9-0.9-3.8-2.9-4.2 C2638.6,1760.2,2636.8,1761.5,2636.4,1763.5z"></path> <path class="st2" d="M2621.4,1771c-0.4,1.9,0.9,3.8,2.9,4.2s3.8-0.9,4.2-2.9c0.4-1.9-0.9-3.8-2.9-4.2 C2623.6,1767.7,2621.7,1769,2621.4,1771z"></path> <path class="st2" d="M2606.3,1778.5c-0.4,1.9,0.9,3.8,2.9,4.2c1.9,0.4,3.8-0.9,4.2-2.9c0.4-1.9-0.9-3.8-2.9-4.2 C2608.5,1775.2,2606.6,1776.5,2606.3,1778.5z"></path> <path class="st2" d="M2591.2,1786c-0.4,1.9,0.9,3.8,2.9,4.2c1.9,0.4,3.8-0.9,4.2-2.9c0.4-1.9-0.9-3.8-2.9-4.2 C2593.4,1782.7,2591.6,1784,2591.2,1786z"></path> <path class="st2" d="M2576.1,1793.5c-0.4,1.9,0.9,3.8,2.9,4.2c1.9,0.4,3.8-0.9,4.2-2.9s-0.9-3.8-2.9-4.2 S2576.5,1791.5,2576.1,1793.5z"></path> </g> <g class="st9"> <path class="st2" d="M2680,1756c-0.4,1.9,0.9,3.8,2.9,4.2c1.9,0.4,3.8-0.9,4.2-2.9c0.4-1.9-0.9-3.8-2.9-4.2 C2682.2,1752.7,2680.4,1754,2680,1756z"></path> <path class="st2" d="M2664.9,1763.5c-0.4,1.9,0.9,3.8,2.9,4.2c1.9,0.4,3.8-0.9,4.2-2.9c0.4-1.9-0.9-3.8-2.9-4.2 C2667.2,1760.2,2665.3,1761.5,2664.9,1763.5z"></path> <path class="st2" d="M2649.9,1770.9c-0.4,1.9,0.9,3.8,2.9,4.2c1.9,0.4,3.8-0.9,4.2-2.9c0.4-1.9-0.9-3.8-2.9-4.2 C2652.1,1767.7,2650.2,1769,2649.9,1770.9z"></path> <path class="st2" d="M2634.8,1778.4c-0.4,1.9,0.9,3.8,2.9,4.2c1.9,0.4,3.8-0.9,4.2-2.9c0.4-1.9-0.9-3.8-2.9-4.2 C2637,1775.2,2635.2,1776.5,2634.8,1778.4z"></path> <path class="st2" d="M2619.7,1785.9c-0.4,1.9,0.9,3.8,2.9,4.2c1.9,0.4,3.8-0.9,4.2-2.9c0.4-1.9-0.9-3.8-2.9-4.2 C2621.9,1782.7,2620.1,1784,2619.7,1785.9z"></path> <path class="st2" d="M2604.7,1793.4c-0.4,1.9,0.9,3.8,2.9,4.2c1.9,0.4,3.8-0.9,4.2-2.9s-0.9-3.8-2.9-4.2 S2605,1791.5,2604.7,1793.4z"></path> <path class="st2" d="M2589.6,1800.9c-0.4,1.9,0.9,3.8,2.9,4.2c1.9,0.4,3.8-0.9,4.2-2.9c0.4-1.9-0.9-3.8-2.9-4.2 C2591.8,1797.7,2589.9,1799,2589.6,1800.9z"></path> <path class="st2" d="M2574.5,1808.4c-0.4,1.9,0.9,3.8,2.9,4.2c1.9,0.4,3.8-0.9,4.2-2.9c0.4-1.9-0.9-3.8-2.9-4.2 S2574.9,1806.5,2574.5,1808.4z"></path> </g> <g class="st9"> <path class="st2" d="M2691.7,1765.7c-0.4,1.9,0.9,3.8,2.9,4.2c1.9,0.4,3.8-0.9,4.2-2.9s-0.9-3.8-2.9-4.2 S2692.1,1763.8,2691.7,1765.7z"></path> <path class="st2" d="M2676.6,1773.2c-0.4,1.9,0.9,3.8,2.9,4.2c1.9,0.4,3.8-0.9,4.2-2.9c0.4-1.9-0.9-3.8-2.9-4.2 C2678.8,1770,2677,1771.3,2676.6,1773.2z"></path> <path class="st2" d="M2661.6,1780.7c-0.4,1.9,0.9,3.8,2.9,4.2s3.8-0.9,4.2-2.9c0.4-1.9-0.9-3.8-2.9-4.2 C2663.8,1777.5,2661.9,1778.8,2661.6,1780.7z"></path> <path class="st2" d="M2646.5,1788.2c-0.4,1.9,0.9,3.8,2.9,4.2c1.9,0.4,3.8-0.9,4.2-2.9c0.4-1.9-0.9-3.8-2.9-4.2 C2648.7,1785,2646.8,1786.3,2646.5,1788.2z"></path> <path class="st2" d="M2631.4,1795.7c-0.4,1.9,0.9,3.8,2.9,4.2c1.9,0.4,3.8-0.9,4.2-2.9c0.4-1.9-0.9-3.8-2.9-4.2 C2633.6,1792.5,2631.8,1793.8,2631.4,1795.7z"></path> <path class="st2" d="M2616.3,1803.2c-0.4,1.9,0.9,3.8,2.9,4.2c1.9,0.4,3.8-0.9,4.2-2.9c0.4-1.9-0.9-3.8-2.9-4.2 S2616.7,1801.2,2616.3,1803.2z"></path> <path class="st2" d="M2601.3,1810.7c-0.4,1.9,0.9,3.8,2.9,4.2s3.8-0.9,4.2-2.9c0.4-1.9-0.9-3.8-2.9-4.2 C2603.5,1807.5,2601.6,1808.7,2601.3,1810.7z"></path> <path class="st2" d="M2586.2,1818.2c-0.4,1.9,0.9,3.8,2.9,4.2s3.8-0.9,4.2-2.9c0.4-1.9-0.9-3.8-2.9-4.2 C2588.4,1815,2586.6,1816.2,2586.2,1818.2z"></path> </g> <g class="st9"> <path class="st2" d="M2690,1782.9c-0.4,1.9,0.9,3.8,2.9,4.2c1.9,0.4,3.8-0.9,4.2-2.9s-0.9-3.8-2.9-4.2 C2692.3,1779.6,2690.4,1780.9,2690,1782.9z"></path> <path class="st2" d="M2675,1790.4c-0.4,1.9,0.9,3.8,2.9,4.2c1.9,0.4,3.8-0.9,4.2-2.9c0.4-1.9-0.9-3.8-2.9-4.2 C2677.2,1787.1,2675.3,1788.4,2675,1790.4z"></path> <path class="st2" d="M2659.9,1797.9c-0.4,1.9,0.9,3.8,2.9,4.2c1.9,0.4,3.8-0.9,4.2-2.9c0.4-1.9-0.9-3.8-2.9-4.2 C2662.1,1794.6,2660.3,1795.9,2659.9,1797.9z"></path> <path class="st2" d="M2644.8,1805.3c-0.4,1.9,0.9,3.8,2.9,4.2c1.9,0.4,3.8-0.9,4.2-2.9c0.4-1.9-0.9-3.8-2.9-4.2 C2647,1802.1,2645.2,1803.4,2644.8,1805.3z"></path> <path class="st2" d="M2629.8,1812.8c-0.4,1.9,0.9,3.8,2.9,4.2c1.9,0.4,3.8-0.9,4.2-2.9c0.4-1.9-0.9-3.8-2.9-4.2 C2632,1809.6,2630.1,1810.9,2629.8,1812.8z"></path> <path class="st2" d="M2614.7,1820.3c-0.4,1.9,0.9,3.8,2.9,4.2c1.9,0.4,3.8-0.9,4.2-2.9c0.4-1.9-0.9-3.8-2.9-4.2 C2616.9,1817.1,2615,1818.4,2614.7,1820.3z"></path> <path class="st2" d="M2599.6,1827.8c-0.4,1.9,0.9,3.8,2.9,4.2s3.8-0.9,4.2-2.9c0.4-1.9-0.9-3.8-2.9-4.2 C2601.8,1824.6,2600,1825.9,2599.6,1827.8z"></path> <path class="st2" d="M2584.5,1835.3c-0.4,1.9,0.9,3.8,2.9,4.2c1.9,0.4,3.8-0.9,4.2-2.9c0.4-1.9-0.9-3.8-2.9-4.2 C2586.8,1832.1,2584.9,1833.4,2584.5,1835.3z"></path> </g> <g class="st9"> <path class="st2" d="M2672.7,1808.1c-0.4,1.9,0.9,3.8,2.9,4.2c1.9,0.4,3.8-0.9,4.2-2.9c0.4-1.9-0.9-3.8-2.9-4.2 C2675,1804.8,2673.1,1806.1,2672.7,1808.1z"></path> <path class="st2" d="M2657.7,1815.6c-0.4,1.9,0.9,3.8,2.9,4.2c1.9,0.4,3.8-0.9,4.2-2.9c0.4-1.9-0.9-3.8-2.9-4.2 C2659.9,1812.3,2658,1813.6,2657.7,1815.6z"></path> <path class="st2" d="M2642.6,1823.1c-0.4,1.9,0.9,3.8,2.9,4.2c1.9,0.4,3.8-0.9,4.2-2.9s-0.9-3.8-2.9-4.2 C2644.8,1819.8,2643,1821.1,2642.6,1823.1z"></path> <path class="st2" d="M2627.5,1830.6c-0.4,1.9,0.9,3.8,2.9,4.2c1.9,0.4,3.8-0.9,4.2-2.9c0.4-1.9-0.9-3.8-2.9-4.2 S2627.9,1828.6,2627.5,1830.6z"></path> <path class="st2" d="M2612.5,1838.1c-0.4,1.9,0.9,3.8,2.9,4.2c1.9,0.4,3.8-0.9,4.2-2.9s-0.9-3.8-2.9-4.2 C2614.7,1834.8,2612.8,1836.1,2612.5,1838.1z"></path> <path class="st2" d="M2597.4,1845.6c-0.4,1.9,0.9,3.8,2.9,4.2c1.9,0.4,3.8-0.9,4.2-2.9c0.4-1.9-0.9-3.8-2.9-4.2 C2599.6,1842.3,2597.7,1843.6,2597.4,1845.6z"></path> <path class="st2" d="M2582.3,1853.1c-0.4,1.9,0.9,3.8,2.9,4.2c1.9,0.4,3.8-0.9,4.2-2.9s-0.9-3.8-2.9-4.2 C2584.5,1849.8,2582.7,1851.1,2582.3,1853.1z"></path> <path class="st2" d="M2567.2,1860.5c-0.4,1.9,0.9,3.8,2.9,4.2c1.9,0.4,3.8-0.9,4.2-2.9s-0.9-3.8-2.9-4.2 C2569.5,1857.3,2567.6,1858.6,2567.2,1860.5z"></path> </g> <g class="st9"> <path class="st2" d="M2569.2,1877.6c-0.4,1.9,0.9,3.8,2.9,4.2s3.8-0.9,4.2-2.9c0.4-1.9-0.9-3.8-2.9-4.2 C2571.4,1874.4,2569.5,1875.7,2569.2,1877.6z"></path> <path class="st2" d="M2554.1,1885.1c-0.4,1.9,0.9,3.8,2.9,4.2c1.9,0.4,3.8-0.9,4.2-2.9s-0.9-3.8-2.9-4.2 C2556.3,1881.9,2554.5,1883.2,2554.1,1885.1z"></path> <path class="st2" d="M2539,1892.6c-0.4,1.9,0.9,3.8,2.9,4.2c1.9,0.4,3.8-0.9,4.2-2.9c0.4-1.9-0.9-3.8-2.9-4.2 C2541.3,1889.4,2539.4,1890.7,2539,1892.6z"></path> <path class="st2" d="M2524,1900.1c-0.4,1.9,0.9,3.8,2.9,4.2c1.9,0.4,3.8-0.9,4.2-2.9s-0.9-3.8-2.9-4.2 S2524.3,1898.2,2524,1900.1z"></path> <path class="st2" d="M2508.9,1907.6c-0.4,1.9,0.9,3.8,2.9,4.2c1.9,0.4,3.8-0.9,4.2-2.9c0.4-1.9-0.9-3.8-2.9-4.2 C2511.1,1904.4,2509.3,1905.6,2508.9,1907.6z"></path> <path class="st2" d="M2493.8,1915.1c-0.4,1.9,0.9,3.8,2.9,4.2c1.9,0.4,3.8-0.9,4.2-2.9c0.4-1.9-0.9-3.8-2.9-4.2 C2496.1,1911.9,2494.2,1913.1,2493.8,1915.1z"></path> <path class="st2" d="M2478.8,1922.6c-0.4,1.9,0.9,3.8,2.9,4.2c1.9,0.4,3.8-0.9,4.2-2.9s-0.9-3.8-2.9-4.2 C2481,1919.4,2479.1,1920.6,2478.8,1922.6z"></path> <path class="st2" d="M2463.7,1930.1c-0.4,1.9,0.9,3.8,2.9,4.2c1.9,0.4,3.8-0.9,4.2-2.9c0.4-1.9-0.9-3.8-2.9-4.2 C2465.9,1926.8,2464,1928.1,2463.7,1930.1z"></path> </g> <g class="st9"> <path class="st2" d="M2583.5,1887c-0.4,1.9,0.9,3.8,2.9,4.2c1.9,0.4,3.8-0.9,4.2-2.9s-0.9-3.8-2.9-4.2 C2585.7,1883.8,2583.8,1885.1,2583.5,1887z"></path> <path class="st2" d="M2568.4,1894.5c-0.4,1.9,0.9,3.8,2.9,4.2c1.9,0.4,3.8-0.9,4.2-2.9c0.4-1.9-0.9-3.8-2.9-4.2 C2570.6,1891.3,2568.8,1892.6,2568.4,1894.5z"></path> <path class="st2" d="M2553.4,1902c-0.4,1.9,0.9,3.8,2.9,4.2c1.9,0.4,3.8-0.9,4.2-2.9c0.4-1.9-0.9-3.8-2.9-4.2 S2553.7,1900.1,2553.4,1902z"></path> <path class="st2" d="M2538.3,1909.5c-0.4,1.9,0.9,3.8,2.9,4.2c1.9,0.4,3.8-0.9,4.2-2.9c0.4-1.9-0.9-3.8-2.9-4.2 C2540.5,1906.3,2538.6,1907.6,2538.3,1909.5z"></path> <path class="st2" d="M2523.2,1917c-0.4,1.9,0.9,3.8,2.9,4.2s3.8-0.9,4.2-2.9c0.4-1.9-0.9-3.8-2.9-4.2 C2525.4,1913.8,2523.6,1915.1,2523.2,1917z"></path> <path class="st2" d="M2508.1,1924.5c-0.4,1.9,0.9,3.8,2.9,4.2c1.9,0.4,3.8-0.9,4.2-2.9s-0.9-3.8-2.9-4.2 S2508.5,1922.6,2508.1,1924.5z"></path> <path class="st2" d="M2493.1,1932c-0.4,1.9,0.9,3.8,2.9,4.2c1.9,0.4,3.8-0.9,4.2-2.9c0.4-1.9-0.9-3.8-2.9-4.2 C2495.3,1928.8,2493.4,1930.1,2493.1,1932z"></path> <path class="st2" d="M2478,1939.5c-0.4,1.9,0.9,3.8,2.9,4.2c1.9,0.4,3.8-0.9,4.2-2.9c0.4-1.9-0.9-3.8-2.9-4.2 C2480.2,1936.3,2478.4,1937.6,2478,1939.5z"></path> </g> <g class="st9"> <path class="st2" d="M2555.6,1865.7c-0.4,1.9,0.9,3.8,2.9,4.2c1.9,0.4,3.8-0.9,4.2-2.9s-0.9-3.8-2.9-4.2 C2557.8,1862.4,2555.9,1863.7,2555.6,1865.7z"></path> <path class="st2" d="M2540.5,1873.2c-0.4,1.9,0.9,3.8,2.9,4.2c1.9,0.4,3.8-0.9,4.2-2.9s-0.9-3.8-2.9-4.2 C2542.7,1869.9,2540.8,1871.2,2540.5,1873.2z"></path> <path class="st2" d="M2525.4,1880.7c-0.4,1.9,0.9,3.8,2.9,4.2s3.8-0.9,4.2-2.9c0.4-1.9-0.9-3.8-2.9-4.2 C2527.6,1877.4,2525.8,1878.7,2525.4,1880.7z"></path> <path class="st2" d="M2510.3,1888.2c-0.4,1.9,0.9,3.8,2.9,4.2c1.9,0.4,3.8-0.9,4.2-2.9c0.4-1.9-0.9-3.8-2.9-4.2 C2512.6,1884.9,2510.7,1886.2,2510.3,1888.2z"></path> <path class="st2" d="M2495.3,1895.7c-0.4,1.9,0.9,3.8,2.9,4.2c1.9,0.4,3.8-0.9,4.2-2.9c0.4-1.9-0.9-3.8-2.9-4.2 C2497.5,1892.4,2495.6,1893.7,2495.3,1895.7z"></path> <path class="st2" d="M2480.2,1903.2c-0.4,1.9,0.9,3.8,2.9,4.2c1.9,0.4,3.8-0.9,4.2-2.9s-0.9-3.8-2.9-4.2 C2482.4,1899.9,2480.6,1901.2,2480.2,1903.2z"></path> <path class="st2" d="M2465.1,1910.7c-0.4,1.9,0.9,3.8,2.9,4.2c1.9,0.4,3.8-0.9,4.2-2.9s-0.9-3.8-2.9-4.2 C2467.3,1907.4,2465.5,1908.7,2465.1,1910.7z"></path> <path class="st2" d="M2450.1,1918.2c-0.4,1.9,0.9,3.8,2.9,4.2s3.8-0.9,4.2-2.9c0.4-1.9-0.9-3.8-2.9-4.2 C2452.3,1914.9,2450.4,1916.2,2450.1,1918.2z"></path> </g> <g class="st9"> <path class="st2" d="M2568.5,1842.4c-0.4,1.9,0.9,3.8,2.9,4.2c1.9,0.4,3.8-0.9,4.2-2.9c0.4-1.9-0.9-3.8-2.9-4.2 C2570.7,1839.2,2568.8,1840.5,2568.5,1842.4z"></path> <path class="st2" d="M2553.4,1849.9c-0.4,1.9,0.9,3.8,2.9,4.2c1.9,0.4,3.8-0.9,4.2-2.9c0.4-1.9-0.9-3.8-2.9-4.2 C2555.6,1846.7,2553.7,1848,2553.4,1849.9z"></path> <path class="st2" d="M2538.3,1857.4c-0.4,1.9,0.9,3.8,2.9,4.2c1.9,0.4,3.8-0.9,4.2-2.9c0.4-1.9-0.9-3.8-2.9-4.2 C2540.5,1854.2,2538.7,1855.5,2538.3,1857.4z"></path> <path class="st2" d="M2523.2,1864.9c-0.4,1.9,0.9,3.8,2.9,4.2c1.9,0.4,3.8-0.9,4.2-2.9c0.4-1.9-0.9-3.8-2.9-4.2 C2525.5,1861.7,2523.6,1863,2523.2,1864.9z"></path> <path class="st2" d="M2508.2,1872.4c-0.4,1.9,0.9,3.8,2.9,4.2c1.9,0.4,3.8-0.9,4.2-2.9c0.4-1.9-0.9-3.8-2.9-4.2 C2510.4,1869.2,2508.5,1870.5,2508.2,1872.4z"></path> <path class="st2" d="M2493.1,1879.9c-0.4,1.9,0.9,3.8,2.9,4.2c1.9,0.4,3.8-0.9,4.2-2.9c0.4-1.9-0.9-3.8-2.9-4.2 C2495.3,1876.7,2493.5,1878,2493.1,1879.9z"></path> <path class="st2" d="M2478,1887.4c-0.4,1.9,0.9,3.8,2.9,4.2c1.9,0.4,3.8-0.9,4.2-2.9c0.4-1.9-0.9-3.8-2.9-4.2 S2478.4,1885.5,2478,1887.4z"></path> <path class="st2" d="M2463,1894.9c-0.4,1.9,0.9,3.8,2.9,4.2s3.8-0.9,4.2-2.9c0.4-1.9-0.9-3.8-2.9-4.2 C2465.2,1891.7,2463.3,1892.9,2463,1894.9z"></path> </g> <g class="st9"> <path class="st2" d="M2687.7,1818.1c-0.4,1.9,0.9,3.8,2.9,4.2c1.9,0.4,3.8-0.9,4.2-2.9c0.4-1.9-0.9-3.8-2.9-4.2 C2689.9,1814.8,2688,1816.1,2687.7,1818.1z"></path> <path class="st2" d="M2672.6,1825.5c-0.4,1.9,0.9,3.8,2.9,4.2c1.9,0.4,3.8-0.9,4.2-2.9c0.4-1.9-0.9-3.8-2.9-4.2 C2674.8,1822.3,2672.9,1823.6,2672.6,1825.5z"></path> <path class="st2" d="M2657.5,1833c-0.4,1.9,0.9,3.8,2.9,4.2c1.9,0.4,3.8-0.9,4.2-2.9c0.4-1.9-0.9-3.8-2.9-4.2 C2659.7,1829.8,2657.9,1831.1,2657.5,1833z"></path> <path class="st2" d="M2642.4,1840.5c-0.4,1.9,0.9,3.8,2.9,4.2c1.9,0.4,3.8-0.9,4.2-2.9c0.4-1.9-0.9-3.8-2.9-4.2 C2644.7,1837.3,2642.8,1838.6,2642.4,1840.5z"></path> <path class="st2" d="M2627.4,1848c-0.4,1.9,0.9,3.8,2.9,4.2c1.9,0.4,3.8-0.9,4.2-2.9c0.4-1.9-0.9-3.8-2.9-4.2 C2629.6,1844.8,2627.7,1846.1,2627.4,1848z"></path> <path class="st2" d="M2612.3,1855.5c-0.4,1.9,0.9,3.8,2.9,4.2c1.9,0.4,3.8-0.9,4.2-2.9c0.4-1.9-0.9-3.8-2.9-4.2 C2614.5,1852.3,2612.7,1853.6,2612.3,1855.5z"></path> <path class="st2" d="M2597.2,1863c-0.4,1.9,0.9,3.8,2.9,4.2s3.8-0.9,4.2-2.9c0.4-1.9-0.9-3.8-2.9-4.2 C2599.4,1859.8,2597.6,1861.1,2597.2,1863z"></path> <path class="st2" d="M2582.2,1870.5c-0.4,1.9,0.9,3.8,2.9,4.2c1.9,0.4,3.8-0.9,4.2-2.9c0.4-1.9-0.9-3.8-2.9-4.2 C2584.4,1867.3,2582.5,1868.6,2582.2,1870.5z"></path> </g> <g class="st9"> <path class="st2" d="M2702.8,1827c-0.4,1.9,0.9,3.8,2.9,4.2c1.9,0.4,3.8-0.9,4.2-2.9c0.4-1.9-0.9-3.8-2.9-4.2 C2705,1823.7,2703.1,1825,2702.8,1827z"></path> <path class="st2" d="M2687.7,1834.5c-0.4,1.9,0.9,3.8,2.9,4.2c1.9,0.4,3.8-0.9,4.2-2.9c0.4-1.9-0.9-3.8-2.9-4.2 C2689.9,1831.2,2688,1832.5,2687.7,1834.5z"></path> <path class="st2" d="M2672.6,1842c-0.4,1.9,0.9,3.8,2.9,4.2c1.9,0.4,3.8-0.9,4.2-2.9s-0.9-3.8-2.9-4.2 C2674.8,1838.7,2673,1840,2672.6,1842z"></path> <path class="st2" d="M2657.5,1849.5c-0.4,1.9,0.9,3.8,2.9,4.2c1.9,0.4,3.8-0.9,4.2-2.9c0.4-1.9-0.9-3.8-2.9-4.2 C2659.8,1846.2,2657.9,1847.5,2657.5,1849.5z"></path> <path class="st2" d="M2642.5,1857c-0.4,1.9,0.9,3.8,2.9,4.2c1.9,0.4,3.8-0.9,4.2-2.9c0.4-1.9-0.9-3.8-2.9-4.2 C2644.7,1853.7,2642.8,1855,2642.5,1857z"></path> <path class="st2" d="M2627.4,1864.5c-0.4,1.9,0.9,3.8,2.9,4.2c1.9,0.4,3.8-0.9,4.2-2.9c0.4-1.9-0.9-3.8-2.9-4.2 C2629.6,1861.2,2627.8,1862.5,2627.4,1864.5z"></path> <path class="st2" d="M2612.3,1872c-0.4,1.9,0.9,3.8,2.9,4.2c1.9,0.4,3.8-0.9,4.2-2.9c0.4-1.9-0.9-3.8-2.9-4.2 C2614.5,1868.7,2612.7,1870,2612.3,1872z"></path> <path class="st2" d="M2597.3,1879.4c-0.4,1.9,0.9,3.8,2.9,4.2c1.9,0.4,3.8-0.9,4.2-2.9c0.4-1.9-0.9-3.8-2.9-4.2 C2599.5,1876.2,2597.6,1877.5,2597.3,1879.4z"></path> </g> <g class="st9"> <path class="st2" d="M2698.9,1844.1c-0.4,1.9,0.9,3.8,2.9,4.2s3.8-0.9,4.2-2.9c0.4-1.9-0.9-3.8-2.9-4.2 C2701.1,1840.9,2699.3,1842.1,2698.9,1844.1z"></path> <path class="st2" d="M2683.9,1851.6c-0.4,1.9,0.9,3.8,2.9,4.2c1.9,0.4,3.8-0.9,4.2-2.9c0.4-1.9-0.9-3.8-2.9-4.2 C2686.1,1848.4,2684.2,1849.6,2683.9,1851.6z"></path> <path class="st2" d="M2668.8,1859.1c-0.4,1.9,0.9,3.8,2.9,4.2c1.9,0.4,3.8-0.9,4.2-2.9c0.4-1.9-0.9-3.8-2.9-4.2 C2671,1855.8,2669.1,1857.1,2668.8,1859.1z"></path> <path class="st2" d="M2653.7,1866.6c-0.4,1.9,0.9,3.8,2.9,4.2c1.9,0.4,3.8-0.9,4.2-2.9c0.4-1.9-0.9-3.8-2.9-4.2 S2654.1,1864.6,2653.7,1866.6z"></path> <path class="st2" d="M2638.6,1874.1c-0.4,1.9,0.9,3.8,2.9,4.2c1.9,0.4,3.8-0.9,4.2-2.9c0.4-1.9-0.9-3.8-2.9-4.2 C2640.9,1870.8,2639,1872.1,2638.6,1874.1z"></path> <path class="st2" d="M2623.6,1881.6c-0.4,1.9,0.9,3.8,2.9,4.2c1.9,0.4,3.8-0.9,4.2-2.9c0.4-1.9-0.9-3.8-2.9-4.2 C2625.8,1878.3,2623.9,1879.6,2623.6,1881.6z"></path> <path class="st2" d="M2608.5,1889.1c-0.4,1.9,0.9,3.8,2.9,4.2c1.9,0.4,3.8-0.9,4.2-2.9c0.4-1.9-0.9-3.8-2.9-4.2 S2608.9,1887.1,2608.5,1889.1z"></path> <path class="st2" d="M2593.4,1896.6c-0.4,1.9,0.9,3.8,2.9,4.2c1.9,0.4,3.8-0.9,4.2-2.9c0.4-1.9-0.9-3.8-2.9-4.2 C2595.6,1893.3,2593.8,1894.6,2593.4,1896.6z"></path> </g> <g class="st9"> <path class="st2" d="M2708,1854.1c-0.4,1.9,0.9,3.8,2.9,4.2c1.9,0.4,3.8-0.9,4.2-2.9c0.4-1.9-0.9-3.8-2.9-4.2 C2710.2,1850.9,2708.4,1852.2,2708,1854.1z"></path> <path class="st2" d="M2692.9,1861.6c-0.4,1.9,0.9,3.8,2.9,4.2c1.9,0.4,3.8-0.9,4.2-2.9c0.4-1.9-0.9-3.8-2.9-4.2 C2695.2,1858.4,2693.3,1859.7,2692.9,1861.6z"></path> <path class="st2" d="M2677.9,1869.1c-0.4,1.9,0.9,3.8,2.9,4.2c1.9,0.4,3.8-0.9,4.2-2.9c0.4-1.9-0.9-3.8-2.9-4.2 C2680.1,1865.9,2678.2,1867.2,2677.9,1869.1z"></path> <path class="st2" d="M2662.8,1876.6c-0.4,1.9,0.9,3.8,2.9,4.2c1.9,0.4,3.8-0.9,4.2-2.9c0.4-1.9-0.9-3.8-2.9-4.2 C2665,1873.4,2663.2,1874.6,2662.8,1876.6z"></path> <path class="st2" d="M2647.7,1884.1c-0.4,1.9,0.9,3.8,2.9,4.2c1.9,0.4,3.8-0.9,4.2-2.9c0.4-1.9-0.9-3.8-2.9-4.2 C2649.9,1880.9,2648.1,1882.1,2647.7,1884.1z"></path> <path class="st2" d="M2632.7,1891.6c-0.4,1.9,0.9,3.8,2.9,4.2c1.9,0.4,3.8-0.9,4.2-2.9c0.4-1.9-0.9-3.8-2.9-4.2 C2634.9,1888.3,2633,1889.6,2632.7,1891.6z"></path> <path class="st2" d="M2617.6,1899.1c-0.4,1.9,0.9,3.8,2.9,4.2c1.9,0.4,3.8-0.9,4.2-2.9c0.4-1.9-0.9-3.8-2.9-4.2 C2619.8,1895.8,2617.9,1897.1,2617.6,1899.1z"></path> <path class="st2" d="M2602.5,1906.6c-0.4,1.9,0.9,3.8,2.9,4.2c1.9,0.4,3.8-0.9,4.2-2.9c0.4-1.9-0.9-3.8-2.9-4.2 C2604.7,1903.3,2602.9,1904.6,2602.5,1906.6z"></path> </g> </g> <g> <path class="st10" d="M2582.8,1624.8c0.4,7.8,0,14.9-0.7,21.2c3.5,2.5,9.6,5.9,17.1,5.8c15.3-0.1,22.4-13.4,24.2-17.1 c-4.8-4.5-10.8-11-15.8-20c-4.3-7.7-6.8-15.2-8.3-22c-2-9.3-2.1-17.2-1.9-22.2c-8.8,2.4-17.6,4.9-26.4,7.3 c4.4,9.6,9.4,23.3,11.2,40.1C2582.5,1620.1,2582.7,1622.4,2582.8,1624.8z"></path> <path class="st3" d="M2571,1577.8c4.4,9.6,9.4,23.3,11.2,40.1c7.5-5.4,14-15.2,17-25.3c-2-9.3-2.1-17.2-1.9-22.2 C2588.6,1572.9,2579.8,1575.3,2571,1577.8z"></path> <path class="st5" d="M2560.1,1544.7c-4.5,4.6-5.9,10.5-8.9,22.2c-2.5,9.9-3.7,14.9-2.7,21.3c1.1,7.3,5.7,20.4,15.4,23.6 c13.3,4.4,31.3-11.8,37.2-28.7c5.3-15.2,3.7-39-11.1-45.6C2580.1,1533.1,2567.1,1537.5,2560.1,1544.7z"></path> </g> <path class="st0" d="M2583.2,1563.3c3.8,5.2,9.4,8.9,14.3,13c4.9,4.2,9.6,9.4,10.4,15.9c0.2,1.5,0.2,3.2,1.1,4.5 c2.4,3,7.2,0.2,9.4-2.9c7.8-11.4,8-26.6,3.8-39.8c-4.4-13.7-14.2-26.7-28.2-30.2C2568.7,1517.4,2574,1550.6,2583.2,1563.3z"></path> </g> </g> <g> <path class="st5" d="M2514.9,1568c-8.5,6.3-14.7,13.8-15,22.3c-0.6,17.9,25.8,24.5,82,61.1c37.6,24.5,52.1,26.6,73.7,35.8 c13,5.5,28-0.1,34.1-12.9l0.3-0.5c1.9-4,4.5-10.9,2.7-18.3c-5.8-24.5-52.1-26.8-108.6-50C2567,1598.5,2542.6,1587,2514.9,1568z"></path> <path class="st5" d="M2505.5,1380.9c-3.9,1.8-4.5,7.3-4.6,8.3c-0.3,3.1,0.5,5,5.2,14.7c2.7,5.5,6.1,10.7,8.5,16.3 c0.8,1.9,2,4.8,5,6.8c2.2,1.4,4.3,1.6,5.2,1.7c4.3,0.4,9.9-1.4,12-4.9c1.4-2.4,1.7-5.4-10.3-25.9c-6.2-10.6-8.5-14.1-13.2-16.2 C2511.7,1380.9,2508.4,1379.5,2505.5,1380.9z"></path> <path class="st5" d="M2515.7,1602.6c8.8,0.5,15.4-8.6,16.1-9.5c7.4-10.5,4.1-22.9,1.6-39.9c-1.1-7.6-4.2-30.6-2.8-53.4 c0.6-8.8,3.2-40.7,7.4-62.9c0.6-3,2.1-10.7-1.6-18.4c-2.3-4.9-5.9-8.1-8.5-10l-0.2,0c-4.9-0.3-9.1,3.3-9.6,8.2 c-1.1,10.4-2.8,23.8-5.6,39c-4.9,26.9-9.7,41.1-12.8,54.8c-4,18-6.7,43.1-1.7,75.9C2498.7,1591.1,2506.2,1602.1,2515.7,1602.6z"></path> </g> </g> <g> <g> <path class="st4" d="M2155.9,1886.5c24.7,50.3,28.7,89.3,39.2,142.4c4.7,23.5,11.6,54.8,21.9,92.1c6.1,22.1-18.3,40.1-37.5,27.7 c0,0,0,0-0.1,0c0,0-0.1-0.1-0.1-0.1c-16.4-10.8-29.1-26.2-36.7-44.3c-31.5-75-63-150-94.5-224.9c-2.9-7-1.8-14.9,2.8-20.8 c11-13.9,33.2-36.1,58.1-29.2C2113.5,1830.5,2131.3,1836.3,2155.9,1886.5z"></path> <path class="st4" d="M2388,2329.1l-18.1,19.9c-25.8-34.2-57.1-71.5-94.5-109.8c-34-34.7-67.4-64.3-98.4-89.2 c-7.4-6-12.9-14.1-15.4-23.3c-2-7.7-1.7-15.2,1.7-21.1c4.5-7.8,15.7-9.2,26.3-16.6c3.9-2.7,10.3-5.5,20.7-4.8 c23.7,21.3,49,46.8,74.1,77.1C2334.1,2221.5,2366.6,2280.9,2388,2329.1z"></path> <polygon class="st4" points="2402.5,2341.2 2366.1,2369.6 2364.4,2338 2385,2321.9 "></polygon> <path class="st4" d="M2415.7,2355.2c-1.9,2.3-5,5.6-9.3,9c-7.8,6-10.1,4.7-16.8,9.3c-10.7,7.3-12.2,15.6-22.8,22.8 c-3.5,2.4-7.2,4.2-7.2,4.2c-1.4,0.8-3.2,1.7-5.3,2.3c-1.4,0.4-2.7,0.7-4,0.9c-3.5,0.5-6.6-3-5.6-6.4c0.4-1.3,0.8-2.6,1.3-4 c3.2-8.3,8-13.9,11.4-17.3c0.6-5.6,2.4-12.9,8.1-17.5c3.8-3.1,7.4-3.4,11.6-4.8c6-2,13.9-6.6,21.5-18.1c7.3-0.8,14.3,2.9,16.9,8.6 C2417.9,2349.3,2416.2,2354.1,2415.7,2355.2z"></path> </g> <g> <path class="st4" d="M2119.2,1981.8c-37.2,34.1-80,62.6-102.7,85.5c0,0-7.2,7.3-17.6,16.3c-11.8,10.2-17.8,15.4-24.4,18.2 c-2.3,1-23.8,10-35.9,0.7c-11.1-8.5-9-28.1-8.1-36c6.2-57.5,153.2-205.1,183.5-235.2c3.2-1.7,29.7-15.6,51.1-3.5 c26.3,15,21.9,56.3,21.4,61.6C2182.8,1923.6,2159.6,1944.8,2119.2,1981.8z"></path> <path class="st4" d="M1964.6,2364.1l-26.8,2.3c4.2-42.6,6.5-91.3,4.9-144.8c-1.5-48.6-6-92.9-11.8-132.3c-1.4-9.4,0-19.1,4.5-27.5 c3.8-7.1,9.1-12.3,15.6-14.4c8.5-2.7,17.8,3.9,30.6,5.6c4.7,0.6,11.2,2.9,18.5,10.5c3,31.7,4.3,67.6,2.2,106.9 C1998,2248.5,1981.6,2314.2,1964.6,2364.1z"></path> <polygon class="st4" points="1967.1,2383.7 1921.1,2379.9 1941.2,2355.5 1967.4,2357.6 "></polygon> <path class="st4" d="M1967.3,2403c-3,0.4-7.5,0.8-12.9,0.3c-9.8-0.8-10.6-3.4-18.7-4.5c-12.8-1.9-19.6,3.2-32.3,1.3 c-4.1-0.6-8.2-1.8-8.2-1.8c-1.6-0.4-3.5-0.9-5.5-1.9c-1.3-0.6-2.5-1.3-3.5-2c-2.9-2-2.8-6.7,0.2-8.5c1.1-0.7,2.4-1.4,3.7-2 c7.9-4,15.3-4.8,20.1-5c4.2-3.7,10.5-7.8,17.9-7.4c4.9,0.3,7.8,2.5,11.8,4.3c5.8,2.6,14.7,4.5,28.1,1.2c6,4.4,8.5,11.8,6.6,17.8 C1972.9,2400,1968.4,2402.4,1967.3,2403z"></path> </g> <g> <path class="st11" d="M1848.2,1493.5c-2.5-0.9-5.9-1.9-9.6-0.6c-2.2,0.8-3.6,2.1-4.5,3.1l-5.3,5.9c-6.7,4.3-9.7,9-11.2,12.7 c-6.6,16.6,6.9,41.7,35,64.3c4.6,3.7,9.5,7.3,14.8,10.8c10,6.5,20,12.9,30,19.4l39.3-43.7c-9.7-4.3-23-14.4-38.4-27.1 c-6.5-5.3-10.5-8.7-12.5-10.5c-10.1-9-17.8-17.3-23.1-23.5C1860.3,1501.4,1855.6,1496,1848.2,1493.5z"></path> <path class="st11" d="M1821,1296.4c-1.3,5.1,3.5,8.9,9.7,19.1c4.1,6.8,6.6,12.8,8.1,16.6c8.6,3.4,17.3,6.8,25.9,10.1 c0.5-3.1,1-7.5,0.5-12.7c-0.8-9.6-4.1-16.4-6.1-20.4c-2.8-5.5-7-13.5-15.9-18.3c-3-1.7-6.7-3.6-11.4-2.8 C1827.4,1288.7,1822.1,1291.8,1821,1296.4z"></path> <path class="st11" d="M1839.1,1330.5c-9.9,20.7-23.7,55.3-28.4,99.8c-1.2,11-12.2,113.5,24.8,128.3c18.4,7.4,47.8-7.4,50-22.2 c1-7-7-10-14.9-23.7c-7.4-13-8.9-24.6-10.5-37c-5.4-42.7,4.2-114.5,5.1-139c0.1-1.7,0.2-5.6-2.4-8.1 C1858.2,1323.8,1847.2,1327.1,1839.1,1330.5z"></path> <path class="st7" d="M2018.4,1647.3c-9.4,6.1-19.1,6-29.5,5.7c-19.2-0.5-35.5-8-67.9-22.9c0,0-12.4-3.7-30.2-19.2 c-8.7-7.6-11-12.2-11.9-14c-4.3-9.4-1.4-17.3-0.2-20.7c0.9-2.5,5-12.9,18.2-19.3c12.3-6,25.6-5.2,33-4.7 c31.5,2.3,107,27.1,107,63.7C2036.8,1628,2028.5,1640.7,2018.4,1647.3z"></path> </g> <path class="st7" d="M2192.4,1843.1c-14.9,9.5-43.2,24.6-81.8,29.6c-35.9,4.7-65-1.4-81.6-6.1c2.2-56.2-9.2-88.9-20.7-108.8 c-3-5.1-9.1-14.8-17.3-30.7c-5.6-10.9-18.4-35.5-24.8-56.7c-4.9-16.3-22.4-74.1,7.7-107.7c21-23.5,57.8-26.9,69.4-28 c10.6-1,19.6-0.5,25.8,0.2c6.4-0.2,34.7,1.4,55.1,26.3c7.8,9.6,15,19.1,21.6,30.5c2.7,4.6,7.5,13.5,12.6,26.2 c13.3,32.9,22,87.1,23,141.2c0.2,9.9,0.2,25.2,3.3,46.3C2186.8,1822,2190.2,1835.2,2192.4,1843.1z"></path> <g> <path class="st11" d="M2266.1,1687.1c2.6,0.6,6.1,1.3,9.6-0.5c2.1-1,3.4-2.5,4.1-3.6l4.6-6.4c6.2-5,8.7-10,9.7-13.9 c4.7-17.2-11.5-40.7-41.9-60.1c-4.9-3.1-10.3-6.2-15.9-9.1c-10.6-5.3-21.3-10.6-31.9-16l-34.2,47.8c10.1,3.2,24.4,11.7,41.2,22.7 c7,4.6,11.4,7.5,13.6,9c11,7.8,19.6,15.3,25.6,20.8C2253.2,1680.5,2258.5,1685.5,2266.1,1687.1z"></path> <path class="st11" d="M2311.6,1872.1c-1.5-17-15.8-28.7-20.1-32c-8.1-0.2-16.2-0.3-24.4-0.5c-0.2,3.2-0.1,7.6,0.9,12.7 c1.3,6.8,3.7,11.1,8.4,19.6c6.6,12,10.6,15.6,12.7,17.4c5.2,4.3,8.4,4.6,10.2,4.5c4.4-0.3,7.4-3.4,8.2-4.2 C2312.7,1884.1,2312,1875.9,2311.6,1872.1z"></path> <path class="st11" d="M2293.3,1848.1c7.5-21.7,17.4-57.6,17.2-102.3c-0.1-11.1-0.5-114.1-38.9-124.8 c-19.2-5.3-46.7,12.6-47.2,27.6c-0.2,7,8,9.1,17.4,21.9c8.8,12.1,11.6,23.5,14.5,35.6c10.1,41.9,8.6,114.2,10.3,138.7 c0.1,1.7,0.5,5.6,3.2,7.8C2275.1,1856.9,2285.6,1852.3,2293.3,1848.1z"></path> <path class="st7" d="M2079.9,1553.2c8.7-7.1,18.3-8.1,28.7-9c19.2-1.6,36.1,4,70.1,15.2c0,0,12.7,2.3,32.1,15.8 c9.5,6.6,12.3,10.9,13.4,12.6c5.3,8.9,3.3,17,2.5,20.6c-0.6,2.6-3.6,13.3-15.9,21.2c-11.6,7.4-24.9,8-32.3,8.3 c-31.5,1.2-109.3-15-113.4-51.4C2063.7,1574.4,2070.6,1560.8,2079.9,1553.2z"></path> </g> <g> <polygon class="st12" points="2009.1,1751.3 2040.2,1750.7 2024.5,1579 2019,1579.1 "></polygon> <polygon class="st12" points="2024.4,1766.6 2025.4,1766.6 2040.2,1750.7 2009.1,1751.3 "></polygon> <path class="st12" d="M2018.5,1584.9l6-0.1c3.6-0.1,6.5-3,6.4-6.7l-0.1-7.1c-0.1-3.6-3-6.5-6.7-6.4l-6,0.1c-3.6,0.1-6.5,3-6.4,6.7 l0.1,7.1C2011.9,1582.1,2014.9,1584.9,2018.5,1584.9z"></path> </g> <path class="st13" d="M2056.2,1537.7c-24.4,24-69.7,23.9-71.6,20.2c0.7-0.8,1.5-24.5,1.3-43.5c-0.1-10.5-0.5-19.6-1.3-22.6 c13.9-12.4,27.9-24.9,41.8-37.3c-0.9,8.3-1.7,24.5,3.9,42.6c2.2,7.2,5.5,14.7,10.2,22.1C2045.5,1526.9,2051.1,1533,2056.2,1537.7z"></path> <path class="st14" d="M2030.4,1497c-1.9,3.3-4.4,6.5-7.7,9.4c-8.1,7.2-17,9.1-21.5,9.7c-0.7,0.1-1.5,0.1-2.2,0.1 c-2.3-0.1-7.8,0.1-13-1.9c-0.1-10.5-0.5-19.6-1.3-22.6c13.9-12.4,27.9-24.9,41.8-37.3C2025.6,1462.7,2024.8,1479,2030.4,1497z"></path> <path class="st0" d="M2010.6,1439.3l-18.6,0.3c-5.8,0.3-17.5,0.1-28.7-6.1c-2.1-1.2-5.1-2.9-7.9-5.7c-9-9.1-13.8-28.1-1.2-40.8 c8.6-8.7,23-12.1,36.5-8.7c2.8,0.2,21.2,1.9,32.8,16c14.7,17.9,4.8,38.7,4.3,39.7v0C2028.1,1444.7,2019.5,1439.1,2010.6,1439.3z"></path> <path class="st11" d="M1986.7,1497.7l-3.5,0.1c-2,0.5-6.5,1.2-10.7-1.1c-3.6-2-5.5-5.5-7.1-10.4c-4.1-12-3.6-22.9-3.4-26.4 c1.5-28.4,2.4-43.1,8-44.3c2.4-0.5,3.4,1.8,9.4,3c5.1,1,9.5,0.4,12.5-0.3l0.6-0.4c5.3-3.3,11.5-4.8,17.6-4.1 c7.8,0.9,12.7,11.7,13.2,26c0,0.9,0.1,1.8,0.3,2.6l2.6,12.3c0.2,1.1,0.4,2.1,0.3,3.2C2026.1,1479.6,2008.5,1497.3,1986.7,1497.7z"></path> <path class="st11" d="M2031.4,1441.2c0.1,5.3-2.6,9.7-6,9.8s-6.3-4.2-6.3-9.5c-0.1-5.3,2.6-9.7,6-9.8 C2028.5,1431.6,2031.3,1435.8,2031.4,1441.2z"></path> <path class="st2" d="M1979.8,1559.4c6.9,3.2,19.3,7.9,35.1,7.3c29.3-1.1,48.2-19.5,52.9-24.3c-8.1-9-16.3-17.9-24.4-26.9 c-5.3,3.9-15.9,10.5-31,13.2c-14.4,2.5-26.1,0.1-32.3-1.6C1979.9,1537.8,1979.8,1548.6,1979.8,1559.4z"></path> </g> <g> <g> <path class="st4" d="M2358.7,1421.6c13.8,6.8,135.7,65.9,226.3,50.4c23.1-4,37.1-11.5,44.1-23.7c11.3-19.6,0.6-44.5-3.1-52.8 c-19-43.7-67.7-58-78.8-61c7.6,1.5,34.4,5.6,60-10.1c20.6-12.6,43.7-39.9,37.9-69.3c-3.9-19.9-19.8-35.8-38.1-44.5 c-18.3-8.6-39-10.8-59.2-11.5c-99.8-3.2-205.7,27.2-335.1,108.1C2207.5,1346.7,2287,1386.1,2358.7,1421.6z"></path> <path class="st0" d="M2215.6,1408.9c13.8,6.8,135.7,65.9,226.3,50.4c23.1-4,37.1-11.5,44.1-23.7c11.3-19.6,0.6-44.5-3.1-52.8 c-19-43.7-67.7-58-78.8-61c7.6,1.5,34.4,5.6,60-10.1c20.6-12.6,43.7-39.9,37.9-69.3c-3.9-19.9-19.8-35.8-38.1-44.5 c-18.3-8.6-39-10.8-59.2-11.5c-99.8-3.2-205.7,27.2-335.1,108.1C2064.3,1334.1,2143.8,1373.4,2215.6,1408.9z"></path> <path class="st4" d="M2073.2,1387.1c13.8,6.8,135.7,65.9,226.3,50.4c23.1-4,37.1-11.5,44.1-23.7c11.3-19.6,0.6-44.5-3.1-52.8 c-19-43.7-67.7-58-78.8-61c7.6,1.5,34.4,5.6,60-10.1c20.6-12.6,43.7-39.9,37.9-69.3c-3.9-19.9-19.8-35.8-38.1-44.5 c-18.3-8.6-39-10.8-59.2-11.5c-99.8-3.2-205.7,27.2-335.1,108.1C1922,1312.3,2001.4,1351.6,2073.2,1387.1z"></path> <rect x="1116.2" y="1226.1" transform="matrix(0.9961 8.823273e-02 -8.823273e-02 0.9961 116.5136 -137.1346)" class="st4" width="986.5" height="46.5"></rect> <rect x="1112.9" y="1245.5" transform="matrix(0.9961 8.823269e-02 -8.823269e-02 0.9961 118.2439 -137.5703)" class="st4" width="1004.8" height="46.5"></rect> <g> <path class="st4" d="M1193,1321.9c-12.4-36.4-24.9-72.9-37.3-109.3L991.3,1192L1193,1321.9z"></path> <path class="st4" d="M1218.8,1116c-21,32.2-42.1,64.5-63.1,96.7L991.3,1192L1218.8,1116z"></path> </g> </g> </g> <g> <path class="st13" d="M3865.9,1940c-0.2,2.7-0.5,6.4,1.8,9.7c1.3,2,3,3.1,4.2,3.7l7.1,3.8c5.9,5.6,11.3,7.4,15.4,8 c18.1,2.4,39.6-17.1,55.2-50.4c2.5-5.4,4.9-11.2,7.1-17.3c4-11.5,7.9-23,11.9-34.4l-52.9-28.3c-1.9,10.7-8.6,26.3-17.5,44.7 c-3.7,7.7-6,12.6-7.3,15c-6.5,12.2-12.8,21.9-17.7,28.7C3870.8,1926.1,3866.5,1932.1,3865.9,1940z"></path> <path class="st13" d="M3677.5,2010.3c4.2-0.5,6.6-2.6,11.9-6.8c4.2-3.4,10.5-8.2,18.5-14c1.2-9.4,2.5-18.8,3.7-28.2 c-3.2,0.2-7.7,0.9-12.7,2.6c-3.1,1.1-7.7,2.9-18.8,11.1c-19.2,14.1-19.9,19-20,20.8c-0.2,4.1,1.8,7.3,2.6,8.5 C3666.3,2009.3,3672.7,2010.9,3677.5,2010.3z"></path> <path class="st13" d="M3706.5,1988.9c23,4.7,60.6,9.9,105.9,3.8c11.2-1.5,115.5-15.7,121.2-56c2.8-20.1-19-45.6-34.3-44.1 c-7.2,0.7-8.2,9.4-19.9,20.5c-11,10.5-22.2,14.9-34.1,19.4c-41,15.8-114.5,23.9-139.1,28.9c-1.7,0.4-5.6,1.2-7.5,4.3 C3695.2,1971.7,3701.2,1981.8,3706.5,1988.9z"></path> <path class="st14" d="M3901.5,1872.5c6.3,17.3,28,34.4,50.7,37.3c2.5-5.4,4.9-11.2,7.1-17.3c4-11.5,7.9-23,11.9-34.4l-52.9-28.3 C3916.5,1840.5,3910.4,1854.1,3901.5,1872.5z"></path> <path class="st15" d="M3976.7,1733.7c8.4,7.9,10.6,17.4,12.9,27.8c4.2,19.2,0.8,37.1-6,73c0,0-0.6,13.2-11.7,34.6 c-5.4,10.5-9.4,13.9-11,15.2c-8.3,6.5-16.8,5.7-20.5,5.3c-2.7-0.3-14-1.8-23.6-13.3c-9-10.7-11.4-24.1-12.7-31.6 c-5.4-31.8,0.7-112.7,37-121.6C3953.1,1720.1,3967.7,1725.3,3976.7,1733.7z"></path> </g> <g> <g> <path class="st4" d="M4101.8,2068.4c-12.1,55.9-33.5,89.7-58.8,138.9c-11.2,21.8-25.5,51.2-40.8,87.6c-9.1,21.6-40,20.6-47.6-1.6 c0,0,0,0,0-0.1c0-0.1,0-0.1-0.1-0.2c-6.3-19-6.7-39.4-1.4-58.7c22.3-80,44.5-160,66.8-240c2.1-7.4,8-13.1,15.5-14.9 c17.6-4.1,49.4-7.9,65,13.3C4103.2,1996.6,4113.9,2012.5,4101.8,2068.4z"></path> <path class="st4" d="M4006.8,2561.9l-27.1,4.4c1-43.7-0.4-93.4-6.2-147.8c-5.3-49.3-13.3-94.1-22.3-133.7 c-2.2-9.5-1.5-19.5,2.4-28.4c3.3-7.5,8.3-13.2,14.8-15.8c8.5-3.4,18.4,2.6,31.6,3.4c4.8,0.3,11.7,2.1,19.6,9.2 c5.5,32.1,9.6,68.5,10.5,108.7C4031.9,2441.6,4020.3,2509.7,4006.8,2561.9z"></path> <polygon class="st4" points="4010.8,2580.8 3963.7,2580.5 3982.3,2554.1 4009.1,2554.2 "></polygon> <path class="st4" d="M4012.5,2600.4c-3,0.6-7.6,1.4-13.1,1.3c-10-0.1-11-2.6-19.4-3.2c-13.2-0.9-19.7,4.8-32.7,3.9 c-4.3-0.3-8.4-1.2-8.4-1.2c-1.7-0.2-3.6-0.7-5.7-1.5c-1.4-0.5-2.6-1.1-3.7-1.8c-3.1-1.8-3.4-6.6-0.4-8.7c1.1-0.8,2.3-1.6,3.6-2.4 c7.8-4.6,15.2-6.1,20.1-6.6c4-4.1,10.1-8.8,17.6-8.9c5-0.1,8.1,2,12.3,3.5c6.1,2.2,15.3,3.5,28.7-0.9c6.4,4,9.6,11.3,8.1,17.6 C4018,2597,4013.6,2599.7,4012.5,2600.4z"></path> </g> <g> <path class="st4" d="M4133,2039.9c26.3,59.9,23.4,78.2,34.1,147c3.8,24.2,9.5,56.3,18.5,94.7c5.2,22.4-19.5,39.7-38.8,27.2 c-0.2-0.1-0.5-0.3-0.7-0.4c-19.3-12.9-22.2-11.6-25.1-18.1l-101.9-273.1c2.6-5.3,9-16.3,21.7-23.9c23.7-14,49.1-3.9,52.2-2.6 C4110.5,1997.9,4121.3,2013.1,4133,2039.9z"></path> <path class="st4" d="M4318.4,2509l-21,17.8c-21.7-38-48.5-79.9-81.5-123.4c-29.9-39.6-59.9-73.8-88-103.1 c-6.7-7-11.3-15.9-12.5-25.6c-1-8.1,0.3-15.6,4.5-21.2c5.5-7.3,17.1-7.3,28.8-13.4c4.3-2.2,11.1-4.2,21.6-2.2 c21.3,24.6,43.6,53.7,65,87.7C4277.8,2393,4303,2457.4,4318.4,2509z"></path> <polygon class="st4" points="4332,2523.8 4291.5,2547.9 4293.8,2515.6 4316.8,2501.9 "></polygon> <path class="st4" d="M4343.6,2539.7c-2.3,2.1-5.8,5.1-10.6,7.9c-8.6,5.1-10.8,3.5-18.2,7.2c-11.8,6-14.4,14.3-26.1,20.2 c-3.8,1.9-7.9,3.3-7.9,3.3c-1.5,0.6-3.5,1.3-5.7,1.7c-1.4,0.2-2.8,0.4-4.1,0.4c-3.6,0-6.3-3.9-4.8-7.2c0.5-1.3,1.2-2.6,1.9-3.9 c4.3-8,9.9-13.1,13.8-16c1.3-5.6,4.1-12.7,10.5-16.7c4.3-2.6,8-2.5,12.4-3.3c6.3-1.3,14.9-4.9,24.1-15.6c7.6,0.1,14.1,4.8,16,11 C4346.5,2534,4344.2,2538.6,4343.6,2539.7z"></path> </g> <path class="st7" d="M4145.9,2034.8c-17.4,7.6-48,18.2-87.2,17.2c-26.1-0.6-47.6-6.3-62.5-11.5c-10.8-63.8-16.1-102.2-17.4-122.1 c-0.3-4.9-1.1-20-6.9-39c-3.4-11-7-18.6-8-20.9c-8.8-19.4-27.6-88.7,9.6-129.3c14.2-15.5,42.2-35.3,69.5-28.7 c55,13.2,67.7,123.2,68.4,129.4c5.2,48.9-7.6,81.3,8.3,121.3c2.1,5.2,8.9,21.4,16.1,44.8C4140.8,2012.5,4144,2026.1,4145.9,2034.8z "></path> <g> <polygon class="st15" points="3987,1932.4 4018.7,1933.5 4011.6,1757.6 4006,1757.4 "></polygon> <polygon class="st15" points="4001.8,1948.8 4002.8,1948.8 4018.7,1933.5 3987,1932.4 "></polygon> <path class="st15" d="M4005.1,1763.2l6.4,0.2c3.6,0.1,6.6-2.7,6.8-6.3l0.3-7.5c0.1-3.6-2.7-6.6-6.3-6.8l-6.4-0.2 c-3.6-0.1-6.6,2.7-6.8,6.3l-0.3,7.5C3998.6,1760.1,4001.5,1763.1,4005.1,1763.2z"></path> </g> <path class="st2" d="M3978.9,1745.9c6.6-3.3,14.9-8.1,23.4-15.5c11.2-9.6,18.4-19.8,22.8-27.2c-8-8-16-16-24-24.1 c-11.1,10.6-22.1,21.2-33.2,31.8C3971.6,1722.7,3975.3,1734.3,3978.9,1745.9z"></path> <path class="st13" d="M4060.9,1714.1c-22.2,27-68.3,31.5-70.7,27.9c0.7-0.9-1-25-3.2-44.3c-1.2-10.7-2.5-19.8-3.7-22.8 c12.9-14.1,25.7-28.2,38.6-42.3c0,8.5,0.9,25.1,8.4,42.9c3,7.1,7.1,14.4,12.7,21.4C4048.9,1704.3,4055.2,1709.9,4060.9,1714.1z"></path> <path class="st0" d="M3986.2,1682.9c-0.8-0.1-1.5-0.3-2.2-0.5c-3.6-1.1-14.9-3.8-18.6-13.5c-4.8-12.6,7.3-19.2,8.7-23.9 c4.5-14.9,2.3-23.1,6.2-38.2c0-0.1,0.1-0.2,0.1-0.3c3.6-14,18-22.4,32.1-18.7l15.7,4.1c0.9,0.2,1.8,0.6,2.7,1 c2,1.1,4.4,2.7,6.4,5.2c7,8.7,3.8,20.3,3,22.7c-0.1,0.3-0.2,0.5-0.2,0.8l-7.5,28.7c-0.6,2.6-5.1,20.6-22.5,29 C4000.2,1684.1,3990.8,1683.5,3986.2,1682.9z"></path> <path class="st0" d="M4025.6,1609.8l-16.2-4.2c-18.7-4.9-30-24.1-25.1-42.8l0.3-1.3c1.3-5,6.4-8,11.4-6.7l24.8,6.4 c16.7,4.3,31.6,31.9,20.9,49v0C4039.7,1617.9,4033.3,1611.8,4025.6,1609.8z"></path> <path class="st11" d="M3988.5,1653.7l-2.8-0.7c-7.7-2-13.6-5.3-11.6-13c0.7-2.7,3.2-18.6,3.1-21.6c-0.1-3.3,3.7-36.4,16.1-33.2 c1.2,0.3-0.2,4,2.3,5.6c3.2,2.1,10.5,2.5,14.4,1.4l0.6-0.2c4.9-1.4,10.1-1.3,14.8,0.6c5.9,2.5,7.4,12,4.7,23.4 c-0.2,0.7-0.3,1.4-0.3,2.1l-0.7,10.3c-0.1,0.9-0.2,1.8-0.4,2.6C4023.6,1648.1,4005.8,1658.2,3988.5,1653.7z"></path> <path class="st11" d="M4034.8,1624.4c-1,3.7-3.6,6.1-6,5.5c-2.3-0.6-3.5-4.1-2.5-7.7c1-3.7,3.6-6.1,6-5.5 C4034.6,1617.3,4035.7,1620.7,4034.8,1624.4z"></path> <path class="st2" d="M4020.4,1747.7c6.6-3.3,14.9-8.1,23.4-15.5c11.2-9.6,18.4-19.8,22.8-27.2c-8-8-16-16-24-24.1 c-11.1,10.6-22.1,21.2-33.2,31.8C4013.1,1724.4,4016.7,1736,4020.4,1747.7z"></path> </g> <g> <g> <path class="st4" d="M1114.6,2054.8c-1.6,55.1,13.4,85.4,22.7,141.6c8.1,49.2,10.8,86.5,31.5,95.1c9.9,4.1,30.5,4.4,30.5,4.3 c0,0,0-0.1,0-0.1c0,0,0.1-0.1,0.1-0.1c10.1-16.1,15.2-34.9,14.6-53.9c-2.4-78.9-4.7-157.8-7.1-236.6c-0.2-7.3-4.4-13.9-10.9-17.3 c-15.3-7.8-43.8-18.5-63-2.5C1129.6,1988.3,1116.1,2000.6,1114.6,2054.8z"></path> <path class="st4" d="M1140.2,2537.8l25.3,6.4c2.6-41.5,8-88.4,17.9-139.4c9-46.3,20.3-88,32-124.8c2.8-8.8,3-18.3,0-27.1 c-2.5-7.3-6.7-13.2-12.7-16.2c-7.8-3.9-17.7,0.9-30.2,0.6c-4.6-0.1-11.2,1.1-19.4,7.1c-7.9,29.9-14.7,64.1-18.8,102 C1126.4,2421.8,1131.8,2487.3,1140.2,2537.8z"></path> <polygon class="st4" points="1134.8,2556.1 1179.5,2559.7 1164,2533.2 1138.6,2531.1 "></polygon> <path class="st4" d="M1131.5,2574.5c2.8,0.8,7.1,1.9,12.3,2.3c9.5,0.7,10.7-1.6,18.6-1.4c12.6,0.2,18.2,6.2,30.7,6.3 c4.1,0.1,8.1-0.5,8.1-0.5c1.6-0.1,3.5-0.4,5.6-1c1.3-0.4,2.6-0.9,3.7-1.4c3.1-1.5,3.7-5.9,1.1-8.2c-1-0.9-2.1-1.7-3.2-2.5 c-7-5-13.9-7-18.5-7.9c-3.5-4.2-8.8-9.2-15.9-9.8c-4.8-0.5-7.8,1.2-11.9,2.3c-5.9,1.6-14.8,2.1-27.1-3.2c-6.4,3.2-10,9.9-9.1,16 C1126.6,2570.9,1130.6,2573.8,1131.5,2574.5z"></path> </g> <g> <path class="st4" d="M1076,2006.8c-21.3,24.1-41,105.6-61.4,163.8c-14.9,42.4-32.8,80.4-18.3,98.5c6.7,8.4,24.6,18.5,24.7,18.5 c0,0,0.1,0,0.1,0c0,0,0.1-0.1,0.1-0.1c16.6-9.2,30.1-23.2,38.8-40.1c36-70.2,71.9-140.5,107.9-210.7c3.3-6.5,2.9-14.3-1.2-20.4 c-9.6-14.2-29.5-37.3-54-32.5c-0.5,0.1-0.8,0.2-1.2,0.3C1111.4,1984,1092.3,1988.4,1076,2006.8z"></path> <path class="st4" d="M769.8,2371.2l8.9,24.6c35.9-21.1,77.7-42.9,125.5-63.3c43.4-18.5,84.3-32.6,121.3-43.4 c8.9-2.6,16.8-7.8,22.4-15.2c4.7-6.2,7.2-13,6.3-19.6c-1.1-8.6-10.7-14.1-17.4-24.7c-2.5-3.9-7.2-8.7-16.8-12 c-29.2,10.2-61.3,23.7-95.1,41.6C858,2294.7,806.8,2335.9,769.8,2371.2z"></path> <polygon class="st4" points="751.5,2376.9 773.5,2416 786.9,2388.3 774.4,2366.1 "></polygon> <path class="st4" d="M734.4,2384.6c0.9,2.8,2.4,6.9,5,11.5c4.7,8.3,7.3,8,11.6,14.6c6.9,10.5,5.1,18.5,12,29 c2.2,3.4,4.9,6.5,4.9,6.5c1,1.3,2.2,2.7,3.9,4.1c1.1,0.9,2.2,1.6,3.2,2.3c3,1.8,7-0.2,7.4-3.7c0.2-1.3,0.3-2.7,0.3-4.1 c0.3-8.6-2-15.4-3.8-19.7c1.5-5.2,2.6-12.4-0.8-18.7c-2.3-4.2-5.4-5.8-8.6-8.6c-4.6-4-10-11.1-12.5-24.2 c-6.3-3.5-13.8-2.7-18.4,1.5C734.7,2378.5,734.4,2383.4,734.4,2384.6z"></path> </g> <g> <path class="st16" d="M1457.3,1914c0.4,3.5,0,4.7-0.5,5.5c-2.3,3.8-9,3.5-13.6,3.3c-4.4-0.2-9.4-0.4-14.9-3.5 c-7.3-4.1-14.4-12.7-14-22.8c0.1-1.9,0.1-9.5,5.3-12.9c0.7-0.5,2.9-1.8,7.3-1.6c11.3,0.4,21.1,9.5,26,17.7 C1453.1,1900.2,1456.5,1906,1457.3,1914z"></path> <path class="st16" d="M1298.5,1842.4c1.8,0.5,6.5,2.1,6.8,4.8c0.2,2-2.2,3.8-3,4.5c-14.9,13.3-15.9,22.1-28.7,26.2 c-15.5,5-30.3-3-35-5.5c-6.9-3.7-11-7.9-16.6-13.7c-3.6-3.7-18.6-19.7-30.4-48.2c-3-7.3-6.8-17.7-9.8-30.8 c11.8-12.4,23.6-24.8,35.3-37.2c2-0.1,4.8,0.1,7.7,1.5c7.8,3.8,10,13.6,11.5,19.4c3.1,11.8,10.4,26.3,25.1,55.2 c4.7,9.2,7.7,14.2,13.6,18.2C1283.4,1842.4,1292.9,1842.7,1298.5,1842.4z"></path> <path class="st16" d="M1434.2,1912.5c-18.7-2-47-5-82.1-9c-20.3-2.3-22.8-2.7-26.2-3.2c-37.1-6-80.3-13-93.5-40.7 c-7.6-16-5-38.5,5.7-44.9c9.9-5.9,22.9,4.2,43.4,14.3c54.5,26.7,142.1,42.8,155.6,57.5c2.5,2.7,3.4,5.8,3.4,5.8 C1438.4,1899.1,1436.3,1905.8,1434.2,1912.5z"></path> <path class="st7" d="M1145.2,1712.1c-11.7,32,17.3,69.1,24.1,77.7c1.8,2.4,9.8,12.2,22.6,20.4c8.5,5.4,13,6.2,14.9,6.5 c9.4,1.3,16.3-3,19.3-4.9c2.2-1.4,11.2-7.3,15.2-19.8c3.7-11.7,0.9-22.6-0.7-28.6c-9.4-34.6-48.6-81.7-75.8-73.5 C1151.9,1693.8,1146.6,1708.2,1145.2,1712.1z"></path> </g> <path class="st7" d="M1058.2,2030.5c16.7,3.9,47.4,8.6,84.5,0.8c34.3-7.3,59.1-22.1,72.8-31.9c-6.9-25-15.6-63.3-19.1-110.6 c-7.4-102.3,14.8-180.5-18.3-198.9c-14.2-7.9-42.2-6.7-43.8-6.7c-4.1,0.2-18.1,1.1-35.2,7.4c-27.2,10.1-44.7,27.4-50.4,33.9 c-35.8,40.9,1,108.9,8.4,258.3C1057.9,2003,1058.1,2019.5,1058.2,2030.5z"></path> <g> <polygon class="st0" points="1156.5,1897.6 1126.3,1899.7 1127.3,1732.4 1132.6,1732 "></polygon> <polygon class="st0" points="1142.9,1913.7 1141.9,1913.7 1126.3,1899.7 1156.5,1897.6 "></polygon> <path class="st0" d="M1131.3,1737.7l-1.3,0.1c-4.8,0.3-8.9-3.3-9.2-8l-0.2-2.3c-0.3-4.8,3.3-8.9,8-9.2l1.3-0.1 c4.8-0.3,8.9,3.3,9.2,8l0.2,2.3C1139.6,1733.2,1136,1737.3,1131.3,1737.7z"></path> </g> <path class="st2" d="M1156.2,1724.3c-6.8-1.9-15.4-5-24.6-10.3c-12.1-7-20.6-15.2-26.1-21.4c6.1-8.9,12.1-17.8,18.2-26.7 c12.2,8,24.4,15.9,36.6,23.9C1158.9,1701.3,1157.5,1712.8,1156.2,1724.3z"></path> <path class="st16" d="M1140.3,1702.6c-2.1,2.5-14.7,16.9-35.8,17.8c-16.3,0.7-27.8-7-31.3-9.5c0.7-2.9,1.6-6.9,2.5-11.8 c0.5-2.9,2.3-12.4,3.4-25.6c0.8-9.4,1.4-21.5,1-35.9c3.3,1,12,3.2,22.2,0c13.3-4.2,19.7-14.5,21.1-17.1 c-2.1,18.3-0.1,32.6,1.8,41.5c2.3,10.6,5.7,19.6,7.2,23.3C1135.1,1692.4,1138,1698.2,1140.3,1702.6z"></path> <path class="st17" d="M1081.5,1650.1c1.1,2.1,8.4,15.6,24.2,19c9.6,2.1,17.6-0.6,20.8-1.9c-0.8-2.7-1.5-5.6-2.2-8.7 c-1-5-1.5-9.6-1.8-13.7c-5.5-1.3-12.3-3.4-19.7-7c-10-4.9-17.4-10.7-22.5-15.3c0.2,5.2,0.4,10.3,0.6,15.5 C1081.2,1642,1081.3,1646,1081.5,1650.1z"></path> <path class="st0" d="M1080.2,1598.5l15.6-3c13.3,4.2,26.8-1,32.2-11.1c5.4-10,0.7-20.7,0-22.2c1.5-4.5,0.2-9.4-3.3-12.5 c-3.6-3.2-8.9-3.9-13.3-1.7l-23.9,4.7c-16.1,3.1-31.8,28.4-22.7,45.3h0c3.5,10.2,9.5,26.3,12.9,25.7 C1080.8,1623.1,1080.7,1609.5,1080.2,1598.5z"></path> <path class="st16" d="M1128.2,1639.5c2.4-11.2,3.1-12.8,3.1-15.7c0.1-4.6-0.9-6.4-2.4-12.7c-4.1-17.7-0.9-25.5-5.6-28.1 c-2.7-1.5-4.7,0.7-11,1.9c-15.3,3-23.1-6-30-2.8c-4.1,2-8.3,8.6-6.8,30.8c-1,1.4-2.3,3.5-3.3,6.2c-3.8,10.7,1.1,23.5,11.3,30.5 c13.6,9.3,36.1,7.9,42.2,0C1126.3,1648.8,1126.9,1645.6,1128.2,1639.5z"></path> <path class="st16" d="M1067.8,1615.1c0.7,3.5,3.1,6,5.3,5.6c2.3-0.4,3.5-3.7,2.8-7.2c-0.7-3.5-3.1-6-5.3-5.6 C1068.4,1608.4,1067.1,1611.6,1067.8,1615.1z"></path> <path class="st2" d="M1121.1,1723.6c-0.7,0.7-17.1,14.9-37,8.5c-14.3-4.6-20.6-16.8-21.8-19.2c2.3-10.5,4.7-21,7-31.5 c14.3,2.9,28.6,5.8,42.8,8.6C1115.1,1701.2,1118.1,1712.4,1121.1,1723.6z"></path> </g> <g> <path class="st18" d="M1214.8,2002.2L1214.8,2002.2c5.5-1.7,8.5-7.6,6.8-13l-18.5-58.7c-1.7-5.5-7.6-8.5-13-6.8l0,0 c-5.5,1.7-8.5,7.6-6.8,13l18.5,58.7C1203.4,2000.9,1209.3,2004,1214.8,2002.2z"></path> <path class="st1" d="M1157.6,1966.4c851.8,54.7,1703.7,109.3,2555.5,164l4.1-64.7c-835.9-51.6-1671.8-103.2-2507.7-154.8 C1192.2,1929.4,1174.9,1947.9,1157.6,1966.4z"></path> <path class="st4" d="M3547.8,2120c88.9,8.4,177.8,16.7,266.7,25.1c29.8,0.8,54.6-22.8,55.3-52.6l0.9-35.1 c-84.6-2.2-169.2-4.4-253.8-6.6c-10.3-0.3-20.2,4.5-26.4,12.7C3576.3,2082.3,3562,2101.2,3547.8,2120z"></path> <ellipse transform="matrix(0.7071 -0.7071 0.7071 0.7071 -222.1371 3282.8879)" class="st4" cx="3851.7" cy="1909.6" rx="237.1" ry="237.1"></ellipse> <g> <path class="st1" d="M3561.2,1902.8l36.4-95.2c12-31.4,31.7-61.8,58.6-90.3l0.2-0.2c20.1-20.8,45.1-38.4,76.3-54l99.9-49.9 L3561.2,1902.8z"></path> </g> <path class="st1" d="M3658.6,2001.5c4.1,8.5,8.7,16.7,13.8,24.4c58.2,89.1,174.9,123.3,273.4,75.8 c107-51.6,151.8-180.2,100.2-287.2c-16.9-35.1-42.2-63.5-72.2-84c-61.5-42-143.1-50.8-214.9-16.2 C3651.8,1766,3606.9,1894.5,3658.6,2001.5z"></path> <path class="st1" d="M3702.3,2062.2c76,74.5,197.4,82.7,283.3,15.1c93.3-73.5,109.4-208.7,36-302L3702.3,2062.2z"></path> <path class="st4" d="M3681.6,1990.6c8.3,17.2,18.9,32.6,31.2,45.9c54.7,59.2,143.6,78.6,220,41.7c93.6-45.2,132.8-157.6,87.6-251.2 c-12.1-25-28.9-46.1-48.9-62.7c-54.9-45.8-133.7-58-202.3-24.9C3675.7,1784.6,3636.4,1897,3681.6,1990.6z"></path> <path class="st4" d="M3712.8,2036.5c54.7,59.2,143.6,78.6,220,41.7c93.6-45.2,132.8-157.6,87.6-251.2c-12.1-25-28.9-46.1-48.9-62.7 L3712.8,2036.5z"></path> <path class="st1" d="M3708.4,1978.7c4.8,10,10.5,19.2,17,27.7c44.6,58.2,125.3,79.1,194,45.9c78.6-37.9,111.5-132.4,73.6-211 c-10.4-21.6-25.2-39.8-42.7-54c-46.1-37.3-111.3-47.1-168.3-19.6C3703.4,1805.6,3670.4,1900.1,3708.4,1978.7z"></path> <path class="st4" d="M3561.2,2109.4c55.5,0.9,111.1,1.8,166.6,2.7c10.7,6.2,23.6,12.7,38.6,18.3c23.2,8.7,44.3,12.9,61.2,14.8 c-89-2.3-178-4.6-267-6.8c-7.3-0.2-13.3-6.1-13.5-13.4c0-0.5,0-0.9,0-1.4C3546.9,2115.8,3553.3,2109.3,3561.2,2109.4z"></path> <g> <g> <g> <path class="st4" d="M3543.3,2101.4c9.5-14.8,19-29.5,28.6-44.3c-7.4-0.4-14.8-0.8-22.2-1.2c-9.5,15.2-19.1,30.4-28.6,45.6 C3528.4,2101.5,3535.9,2101.4,3543.3,2101.4z"></path> <path class="st4" d="M3471.6,2097c9.5-14.8,19-29.5,28.6-44.3c-7.4-0.4-14.8-0.8-22.2-1.2c-9.5,15.2-19.1,30.4-28.6,45.6 C3456.8,2097,3464.2,2097,3471.6,2097z"></path> <path class="st4" d="M3400,2092.5c9.5-14.8,19-29.5,28.6-44.3c-7.4-0.4-14.8-0.8-22.2-1.2c-9.5,15.2-19.1,30.4-28.6,45.6 C3385.1,2092.6,3392.5,2092.6,3400,2092.5z"></path> <path class="st4" d="M3328.3,2088.1c9.5-14.8,19-29.5,28.6-44.3c-7.4-0.4-14.8-0.8-22.2-1.2c-9.5,15.2-19.1,30.4-28.6,45.6 C3313.4,2088.2,3320.9,2088.1,3328.3,2088.1z"></path> <path class="st4" d="M3256.6,2083.7c9.5-14.8,19-29.5,28.6-44.3c-7.4-0.4-14.8-0.8-22.2-1.2c-9.5,15.2-19.1,30.4-28.6,45.6 C3241.8,2083.7,3249.2,2083.7,3256.6,2083.7z"></path> <path class="st4" d="M3185,2079.2c9.5-14.8,19-29.5,28.6-44.3c-7.4-0.4-14.8-0.8-22.2-1.2c-9.5,15.2-19.1,30.4-28.6,45.6 C3170.1,2079.3,3177.5,2079.3,3185,2079.2z"></path> <path class="st4" d="M3113.3,2074.8c9.5-14.8,19-29.5,28.6-44.3c-7.4-0.4-14.8-0.8-22.2-1.2c-9.5,15.2-19.1,30.4-28.6,45.6 C3098.5,2074.9,3105.9,2074.8,3113.3,2074.8z"></path> <path class="st4" d="M3041.6,2070.4c9.5-14.8,19-29.5,28.6-44.3c-7.4-0.4-14.8-0.8-22.2-1.2c-9.5,15.2-19.1,30.4-28.6,45.6 C3026.8,2070.4,3034.2,2070.4,3041.6,2070.4z"></path> <path class="st4" d="M2970,2065.9c9.5-14.8,19-29.5,28.6-44.3c-7.4-0.4-14.8-0.8-22.2-1.2c-9.5,15.2-19.1,30.4-28.6,45.6 C2955.1,2066,2962.6,2066,2970,2065.9z"></path> <path class="st4" d="M2898.3,2061.5c9.5-14.8,19-29.5,28.6-44.3c-7.4-0.4-14.8-0.8-22.2-1.2c-9.5,15.2-19.1,30.4-28.6,45.6 C2883.5,2061.6,2890.9,2061.5,2898.3,2061.5z"></path> <path class="st4" d="M2826.6,2057c9.5-14.8,19-29.5,28.6-44.3c-7.4-0.4-14.8-0.8-22.2-1.2c-9.5,15.2-19.1,30.4-28.6,45.6 C2811.8,2057.1,2819.2,2057.1,2826.6,2057z"></path> <path class="st4" d="M2755,2052.6c9.5-14.8,19-29.5,28.6-44.3c-7.4-0.4-14.8-0.8-22.2-1.2c-9.5,15.2-19.1,30.4-28.6,45.6 C2740.1,2052.7,2747.6,2052.7,2755,2052.6z"></path> </g> </g> </g> <g> <g> <g> <path class="st4" d="M2687.3,2049.4c9.5-14.8,19-29.5,28.6-44.3c-7.4-0.4-14.8-0.8-22.2-1.2c-9.5,15.2-19.1,30.4-28.6,45.6 C2672.4,2049.5,2679.9,2049.5,2687.3,2049.4z"></path> <path class="st4" d="M2615.6,2045c9.5-14.8,19-29.5,28.6-44.3c-7.4-0.4-14.8-0.8-22.2-1.2c-9.5,15.2-19.1,30.4-28.6,45.6 C2600.8,2045.1,2608.2,2045,2615.6,2045z"></path> <path class="st4" d="M2544,2040.5c9.5-14.8,19-29.5,28.6-44.3c-7.4-0.4-14.8-0.8-22.2-1.2c-9.5,15.2-19.1,30.4-28.6,45.6 C2529.1,2040.6,2536.5,2040.6,2544,2040.5z"></path> <path class="st4" d="M2472.3,2036.1c9.5-14.8,19-29.5,28.6-44.3c-7.4-0.4-14.8-0.8-22.2-1.2c-9.5,15.2-19.1,30.4-28.6,45.6 C2457.4,2036.2,2464.9,2036.1,2472.3,2036.1z"></path> <path class="st4" d="M2400.6,2031.7c9.5-14.8,19-29.5,28.6-44.3c-7.4-0.4-14.8-0.8-22.2-1.2c-9.5,15.2-19.1,30.4-28.6,45.6 C2385.8,2031.8,2393.2,2031.7,2400.6,2031.7z"></path> <path class="st4" d="M2329,2027.2c9.5-14.8,19-29.5,28.6-44.3c-7.4-0.4-14.8-0.8-22.2-1.2c-9.5,15.2-19.1,30.4-28.6,45.6 C2314.1,2027.3,2321.5,2027.3,2329,2027.2z"></path> <path class="st4" d="M2257.3,2022.8c9.5-14.8,19-29.5,28.6-44.3c-7.4-0.4-14.8-0.8-22.2-1.2c-9.5,15.2-19.1,30.4-28.6,45.6 C2242.5,2022.9,2249.9,2022.8,2257.3,2022.8z"></path> <path class="st4" d="M2185.6,2018.4c9.5-14.8,19-29.5,28.6-44.3c-7.4-0.4-14.8-0.8-22.2-1.2c-9.5,15.2-19.1,30.4-28.6,45.6 C2170.8,2018.4,2178.2,2018.4,2185.6,2018.4z"></path> <path class="st4" d="M2114,2013.9c9.5-14.8,19-29.5,28.6-44.3c-7.4-0.4-14.8-0.8-22.2-1.2c-9.5,15.2-19.1,30.4-28.6,45.6 C2099.1,2014,2106.6,2014,2114,2013.9z"></path> <path class="st4" d="M2042.3,2009.5c9.5-14.8,19-29.5,28.6-44.3c-7.4-0.4-14.8-0.8-22.2-1.2c-9.5,15.2-19.1,30.4-28.6,45.6 C2027.5,2009.6,2034.9,2009.5,2042.3,2009.5z"></path> <path class="st4" d="M1970.6,2005.1c9.5-14.8,19-29.5,28.6-44.3c-7.4-0.4-14.8-0.8-22.2-1.2c-9.5,15.2-19.1,30.4-28.6,45.6 C1955.8,2005.1,1963.2,2005.1,1970.6,2005.1z"></path> <path class="st4" d="M1899,2000.6c9.5-14.8,19-29.5,28.6-44.3c-7.4-0.4-14.8-0.8-22.2-1.2c-9.5,15.2-19.1,30.4-28.6,45.6 C1884.1,2000.7,1891.6,2000.7,1899,2000.6z"></path> </g> </g> </g> <g> <path class="st4" d="M1831.3,1994.8c9.5-14.8,19-29.5,28.6-44.3c-7.4-0.4-14.8-0.8-22.2-1.2c-9.5,15.2-19.1,30.4-28.6,45.6 C1816.4,1994.9,1823.9,1994.9,1831.3,1994.8z"></path> <path class="st4" d="M1759.6,1990.4c9.5-14.8,19-29.5,28.6-44.3c-7.4-0.4-14.8-0.8-22.2-1.2c-9.5,15.2-19.1,30.4-28.6,45.6 C1744.8,1990.5,1752.2,1990.4,1759.6,1990.4z"></path> <path class="st4" d="M1688,1986c9.5-14.8,19-29.5,28.6-44.3c-7.4-0.4-14.8-0.8-22.2-1.2c-9.5,15.2-19.1,30.4-28.6,45.6 C1673.1,1986,1680.5,1986,1688,1986z"></path> <path class="st4" d="M1616.3,1981.5c9.5-14.8,19-29.5,28.6-44.3c-7.4-0.4-14.8-0.8-22.2-1.2c-9.5,15.2-19.1,30.4-28.6,45.6 C1601.4,1981.6,1608.9,1981.6,1616.3,1981.5z"></path> <path class="st4" d="M1544.6,1977.1c9.5-14.8,19-29.5,28.6-44.3c-7.4-0.4-14.8-0.8-22.2-1.2c-9.5,15.2-19.1,30.4-28.6,45.6 C1529.8,1977.2,1537.2,1977.1,1544.6,1977.1z"></path> <path class="st4" d="M1473,1972.7c9.5-14.8,19-29.5,28.6-44.3c-7.4-0.4-14.8-0.8-22.2-1.2c-9.5,15.2-19.1,30.4-28.6,45.6 C1458.1,1972.7,1465.5,1972.7,1473,1972.7z"></path> <path class="st4" d="M1401.3,1968.2c9.5-14.8,19-29.5,28.6-44.3c-7.4-0.4-14.8-0.8-22.2-1.2c-9.5,15.2-19.1,30.4-28.6,45.6 C1386.5,1968.3,1393.9,1968.3,1401.3,1968.2z"></path> <path class="st4" d="M1329.6,1963.8c9.5-14.8,19-29.5,28.6-44.3c-7.4-0.4-14.8-0.8-22.2-1.2c-9.5,15.2-19.1,30.4-28.6,45.6 C1314.8,1963.9,1322.2,1963.8,1329.6,1963.8z"></path> <path class="st4" d="M1258,1959.4c9.5-14.8,19-29.5,28.6-44.3c-7.4-0.4-14.8-0.8-22.2-1.2c-9.5,15.2-19.1,30.4-28.6,45.6 C1243.1,1959.4,1250.6,1959.4,1258,1959.4z"></path> <path class="st18" d="M1181.8,1966.4c9.5-14.8,23.6-41,33.1-55.8c-7.4-0.4-14.8-0.8-22.2-1.2c-9.5,15.2-24.7,41.7-34.3,56.9 C1165.8,1966.3,1174.4,1966.4,1181.8,1966.4z"></path> </g> </g> <g> <path class="st11" d="M3940,1953.7c-0.5,2.7-1.2,6.3,0.7,9.8c1.1,2.1,2.7,3.4,3.7,4.2l6.6,4.6c5.3,6.2,10.4,8.7,14.4,9.7 c17.7,4.5,41.3-12.5,60.5-43.9c3.1-5.1,6.1-10.6,9-16.4c5.2-11,10.5-21.9,15.7-32.9l-49.4-34.1c-3.1,10.4-11.5,25.1-22.4,42.5 c-4.5,7.3-7.4,11.8-9,14.1c-7.8,11.4-15.2,20.3-20.8,26.5C3946.5,1940.4,3941.6,1945.9,3940,1953.7z"></path> <path class="st11" d="M3740.5,1923.4c3.4,2.1,7.4,1.3,10.4,0.6c9.2-2,17.8-4,26-6.1c5.2-7.9,10.4-15.8,15.6-23.8 c-3-1-7.3-2.2-12.6-3.2c-11.1-2.1-16.8-3.2-23.9-1.3c-11.9,3.3-18.2,12.6-19.5,15c-0.1,0.3-0.3,0.5-0.3,0.5c-0.7,1.5-2,5.1-1.1,9.4 C3735.5,1915.9,3736.5,1920.9,3740.5,1923.4z"></path> <path class="st11" d="M3776,1916.8c22.8,13.2,55.8,30.4,97.5,45.9c51.3,19,96.1,35.6,115.1,16.7c12.6-12.6,12.6-39.6,2.5-47.6 c-5.5-4.3-11.7-1.3-28.2-1.1c-11.5,0.1-21-1.7-40.1-5.4c-33.1-6.3-115.2-28.5-134.9-33.4c-1.7-0.4-5.6-1.4-8.6,0.6 C3773.3,1896.3,3774.3,1908,3776,1916.8z"></path> <path class="st19" d="M3983,1890.7c4.3,17.9,23.9,37.3,46.2,42.8c3.1-5.1,6.1-10.6,9-16.4c5.2-11,10.5-21.9,15.7-32.9l-49.4-34.1 C4001.5,1860.5,3993.9,1873.4,3983,1890.7z"></path> <path class="st7" d="M4073.3,1761.1c7.4,8.7,8.6,18.5,9.7,29.1c2,19.5-3.4,37-14.2,71.8c0,0-2.1,13-15.5,33.1 c-6.6,9.8-10.9,12.8-12.6,13.9c-9,5.6-17.3,3.7-20.9,2.9c-2.7-0.6-13.7-3.4-21.9-15.8c-7.7-11.7-8.7-25.3-9.1-32.8 c-1.8-32.2,13.3-111.9,50.4-116.7C4051.4,1745,4065.4,1751.8,4073.3,1761.1z"></path> </g> <g> <path class="st16" d="M1018.4,1922.5c-1.4,2.2-3.2,5.1-6.9,6.4c-2.1,0.7-4.1,0.6-5.3,0.5l-7.6-1.1c-7.7,0.9-12.8-0.7-16.3-2.6 c-15.2-8.4-20.6-35.5-13.6-69.7c1.1-5.6,2.6-11.3,4.4-17.2c3.5-11,6.9-22,10.4-33.1l56.4,8.4c-4.6,9.2-8.3,24.9-12,44 c-1.5,8-2.5,13-2.9,15.6c-2,13-2.6,24-2.7,31.9C1022.5,1909,1022.4,1916,1018.4,1922.5z"></path> <path class="st16" d="M1206.9,2001.5c-4.3,0.5-7.9-1.7-12.1-4.8c-4.5-3.4-10.6-8.5-17.1-16c-0.3-9-0.6-18-0.8-27 c3,0.5,7.2,1.5,11.8,3.6c8.5,3.8,13.7,9.1,16.7,12.3c6.2,6.5,12.2,12.7,11.6,20.5c-0.1,1.3-0.5,5.7-3.9,8.8 C1210.6,2000.9,1207.8,2001.4,1206.9,2001.5z"></path> <path class="st16" d="M1179.1,1980.2c-22.2,2.3-58.2,3.7-100.5-6.4c-10.5-2.5-107.7-25.8-109.3-64.4c-0.8-19.3,22.3-41.3,36.6-38.5 c6.7,1.3,6.9,9.6,16.9,21.3c9.4,11,19.6,16.1,30.4,21.6c37.3,18.8,106,33.4,128.8,40.5c1.6,0.5,5.2,1.7,6.7,4.8 C1191.4,1964.9,1184.8,1973.9,1179.1,1980.2z"></path> <path class="st7" d="M1042.6,1724.7c-33.8,4-53.8,46.7-58.4,56.5c-1.3,2.7-6.5,14.2-8,29.4c-1,10,0.3,14.4,0.9,16.2 c3.1,9,10.1,13.2,13.1,15c2.2,1.3,11.6,6.7,24.5,4.6c12.1-2,20.6-9.4,25.2-13.6c26.6-24.1,51-80.2,31.3-100.8 C1062,1722.4,1046.7,1724.2,1042.6,1724.7z"></path> </g> </svg> 