<?xml version="1.0" encoding="UTF-8"?> <!-- Generator: Adobe Illustrator 23.1.0, SVG Export Plug-In . SVG Version: 6.00 Build 0) --> <svg xmlns="http://www.w3.org/2000/svg" xmlns:xlink="http://www.w3.org/1999/xlink" id="Слой_1" x="0px" y="0px" viewBox="0 0 2293.4 1797.8" style="enable-background:new 0 0 2293.4 1797.8;" xml:space="preserve"> <style type="text/css"> .st0{fill:#E0E0E0;} .st1{fill:#D9D9D9;} .st2{fill:#B8B8B8;} .st3{opacity:0.43;} .st4{fill:url(#SVGID_1_);} .st5{opacity:0.22;} .st6{fill:url(#SVGID_2_);} .st7{fill:#4AD6AE;} .st8{fill:#CAF5FF;} .st9{fill:#00BDC7;} .st10{fill:#41B792;} .st11{fill:#FFFFFF;} .st12{fill:#C5C6CF;} .st13{fill:#E2E3ED;} .st14{fill:#EEA987;} .st15{fill:#233C67;} .st16{fill:#EEA886;} .st17{fill:#3B639F;} .st18{fill:#A77860;} .st19{fill:#EFAA88;} .st20{fill:url(#SVGID_3_);} .st21{fill:#DB9C7C;} .st22{fill:#EAD8CF;} .st23{fill:#DA9B5B;} .st24{fill:#424773;} .st25{fill:#323657;} .st26{fill:#81807E;} .st27{fill:#DECBC4;} .st28{fill:#E55353;} .st29{fill:#353A3D;} </style> <g> <g> <g> <rect x="848.8" y="828" class="st0" width="5.5" height="580.7"></rect> </g> <g> <rect x="1242.3" y="828" class="st0" width="5.5" height="580.7"></rect> </g> <g> <rect x="1635.9" y="828" class="st0" width="5.5" height="580.7"></rect> </g> <rect x="458.1" y="756.5" class="st1" width="94.3" height="15.1"></rect> <rect x="458.1" y="784.5" class="st1" width="133.7" height="15.1"></rect> <rect x="847.3" y="756.5" class="st1" width="110.7" height="15.1"></rect> <rect x="847.3" y="784.5" class="st1" width="70.8" height="15.1"></rect> <rect x="1247.9" y="756.5" class="st1" width="68.6" height="15.1"></rect> <rect x="1247.9" y="784.5" class="st1" width="79.9" height="15.1"></rect> <rect x="1641.4" y="756.5" class="st1" width="99.9" height="15.1"></rect> <rect x="1641.4" y="784.5" class="st1" width="79.9" height="15.1"></rect> <rect x="851.6" y="1443.1" class="st2" width="62.6" height="20.2"></rect> <rect x="1247.9" y="1443.1" class="st2" width="62.6" height="20.2"></rect> <rect x="1641.4" y="1443.1" class="st2" width="62.6" height="20.2"></rect> <rect x="2034.9" y="1443.1" class="st2" width="62.6" height="20.2"></rect> <g class="st3"> <linearGradient id="SVGID_1_" gradientUnits="userSpaceOnUse" x1="458.0539" y1="1107.374" x2="2032.1433" y2="1107.374"> <stop offset="0" style="stop-color:#FFC05C"></stop> <stop offset="1" style="stop-color:#FF3857"></stop> </linearGradient> <path class="st4" d="M1895.8,1236.2c-122.7,0-229.4-53.1-340.7-108.4c-137.3-68.3-279.3-138.9-468.5-119.6 c-120.8,12.3-196.6,61.5-263.5,105c-60.6,39.3-117.8,73.9-195.4,76.8c-125.4,4.8-168.8-48.7-169.6-52v-34.3l0,0l0,0 c0.2,0.6,27.5,60.6,169.4,59.9c69.9-0.4,121.5-33.8,181.2-72.6c69.4-45,148.1-96.1,275.2-109.1 c196.8-20.1,342.3,52.2,482.9,122.2c147.2,73.2,287.7,141.8,465.3,82.3v28.2C1981.5,1231.7,1941,1236.2,1895.8,1236.2z"></path> </g> <g class="st5"> <linearGradient id="SVGID_2_" gradientUnits="userSpaceOnUse" x1="458.0539" y1="1064.7793" x2="2032.9742" y2="1064.7793"> <stop offset="0" style="stop-color:#40D5E6"></stop> <stop offset="1" style="stop-color:#5577FF"></stop> </linearGradient> <path class="st6" d="M1159,1229.6c-90.6,0-162.5-60.9-232.8-120.6c-53.3-45.2-108.7-91.5-172.6-114.3 c-195-69.6-294.7,57.5-295.6,58.6v-38.7c1.1-1.3,18.8-24.4,70.3-46.5c46.9-20.1,125.5-36.1,233.9,1.6 c68.7,23.9,125.8,72.3,181,119.1c111.9,94.9,208.6,176.9,376.5,48.5c127.2-97.2,247-189.9,365-223.8 c115.4-33.1,235.6-8.9,348.2,103.7l-0.8,35.1c-239.1-240.2-442.8-88-696.3,105.9C1268.6,1209.7,1210.8,1229.6,1159,1229.6z"></path> </g> </g> <g> <polygon class="st7" points="1351.6,689.3 1347.6,684.6 1413.9,628.2 1454.2,628.2 1545.5,550.3 1602.6,599 1644.8,599 1666.1,617.1 1732.2,560.8 1765.8,560.8 1905,442.2 1909,446.9 1768.1,566.9 1734.5,566.9 1666.1,625.2 1642.5,605.2 1600.4,605.2 1545.5,558.4 1456.4,634.3 1416.2,634.3 "></polygon> </g> <g> <polygon class="st7" points="1361.2,611.3 1338.3,611.3 1338.3,605.2 1358.6,605.2 1393,570.7 1418,595.8 1477.8,536 1496.2,554.4 1556.8,493.8 1593.1,530.1 1634.5,530.1 1698.3,466.2 1753.4,466.2 1794.2,425.5 1844,425.5 1893.5,376 1897.9,380.4 1846.6,431.7 1796.7,431.7 1756,472.4 1700.9,472.4 1637,536.3 1590.5,536.3 1556.8,502.5 1496.2,563.1 1477.8,544.7 1418,604.5 1393,579.5 "></polygon> </g> <path class="st8" d="M1973,625.3c0-0.1-0.1-0.3-0.1-0.4c-58.9-205.5-206-381.1-409.1-471.5h0c-34.8-15.6-71.3-28.6-109.2-38.8 c-94.9-25.5-190.4-31.3-282.3-19.9c-0.1,0-0.2,0-0.2,0l-0.1,0c-61.8,7.7-122,23.2-179.2,45.8c-0.1,0-0.2,0.1-0.3,0.1 c-210.1,82.6-379.6,260.5-442.8,495.2c-106,394,127.3,799.2,521.2,905.1c202.2,54.4,407.4,19.4,573.6-80.9l31,43.1l146.2-105.3 l-35.3-49c88.1-88.3,154.9-200.1,189.6-329.2C2012,885.4,2008.7,749.8,1973,625.3z M1432.3,1300.1 c-261.1,93.6-548.7-42.2-642.2-303.3c-91.8-256.3,37.3-538,288.9-636.8c4.8-1.9,9.6-3.7,14.4-5.4c35.6-12.8,71.7-21.3,107.8-25.8 c92.4-11.5,184.4,3.3,266.5,40c120.6,53.9,219.9,155,268,289.1c3.8,10.6,7.2,21.2,10.2,31.8 C1818,941.9,1682.8,1210.3,1432.3,1300.1z"></path> <g> <path class="st9" d="M2118.5,583.4l-145.6,41.5l-227.1,64.7c-3-10.6-6.5-21.2-10.2-31.8c-48.1-134.2-147.4-235.3-268-289.1 l96.1-215.3h0l10.1-22.7l51.7-115.7C1870.4,124,2047.6,335.8,2118.5,583.4z"></path> </g> <g> <path class="st7" d="M1573.9,130.8l-10.1,22.7l-96.2,215.3c-82.1-36.7-174-51.5-266.5-40l-29-234l-3-24.5 c95-11.8,193.8-5.8,291.9,20.6C1500.2,101.3,1537.9,114.6,1573.9,130.8z"></path> </g> <g> <path class="st10" d="M1201.1,328.7c-36,4.5-72.2,13-107.8,25.8c-4.9,1.7-9.7,3.6-14.4,5.4l-86.3-219.4l-26.1-66.4 c62.8-24.9,128.9-41.9,196.8-50.3l0.1,0l5.7,46.4l3,24.5L1201.1,328.7z"></path> </g> <polygon class="st9" points="2144,1797.8 1852.9,1797.8 1650.6,1516.8 1745.4,1448.5 1842.3,1378.8 1890.5,1445.8 "></polygon> <g> <rect x="1992.6" y="1292.9" transform="matrix(-1 -1.224647e-16 1.224647e-16 -1 4064.6653 2591.3438)" class="st11" width="79.5" height="5.6"></rect> <rect x="1992.6" y="1303.4" transform="matrix(-1 -1.224647e-16 1.224647e-16 -1 4064.6653 2630.1885)" class="st11" width="79.5" height="23.4"></rect> <rect x="1955.3" y="1334.7" transform="matrix(-1 -1.224647e-16 1.224647e-16 -1 3957.4233 2672.8555)" class="st11" width="46.9" height="3.5"></rect> <rect x="1955.3" y="1339.7" transform="matrix(-1 -1.224647e-16 1.224647e-16 -1 3957.4233 2688.8955)" class="st11" width="46.9" height="9.5"></rect> <rect x="2085.1" y="1262.9" transform="matrix(-1 -1.224647e-16 1.224647e-16 -1 4173.731 2591.3418)" class="st11" width="3.5" height="65.6"></rect> </g> <g> <polygon class="st12" points="1930.8,1161.1 2253.7,1140.3 2255.5,1329.1 1964.9,1329.1 "></polygon> <polygon class="st13" points="1944.8,1143.5 2253.7,1140.3 2255.5,1329.1 1964.9,1329.1 "></polygon> <g> <path class="st14" d="M1939.9,923.7c0,0,7.3,8.1,10.2,4.5c2.9-3.6,6.2-8.6,6.2-8.6L1939.9,923.7z"></path> <path class="st14" d="M1925.4,846.5l9.5,43.9c-2.9-3.6-8-9.3-9.7-7.6c-2.4,2.4,5.5,14.4,6.9,19.6c1.2,4.7,2.9,12.1,4.9,16.5 l3.6,7.2l15.8-6.5c0,0-0.7-31.3-1.3-38.4c-1-11.5-23-36.3-25.2-36.6C1925.9,844.2,1925.4,846.5,1925.4,846.5z"></path> </g> <path class="st15" d="M2248.9,1678.2c0,0,4.4,10.7,8.2,15c3.7,4.2,18.1,11.8,18.2,24.5c0.1,13.7-24.2,9.9-33.7,9.4 c-9.5-0.5-10.2-7.8-14.2-15.6c-4-7.7-8-6.4-8.8-12.7c-0.7-6.2,3.1-20.2,3.1-20.2L2248.9,1678.2z"></path> <g> <path class="st15" d="M2025.1,1680.6c0,0-13.2,13.9-26.6,16.8c-13.4,2.9-22.8,6.6-22.9,14.6c-0.1,8,38.6,13.2,54,5.2 c22.9-12,25.3-8.4,27.8-14.4c2.5-6-3.1-22-2.9-23.9C2054.7,1676.5,2025.1,1680.6,2025.1,1680.6z"></path> </g> <g> <path class="st15" d="M2060.4,1279.6c0,0-13.9,100.9-19.6,135c-6.6,39.9-8.9,72.8-10.7,93.5c-2.3,26-6.8,162.5-8.4,170.1 c-1.6,7.6,36.3,3.8,36.3,3.8s27.5-177,34.5-204.7c6.5-25.7,24.2-131.9,30.1-124.9c5.9,7,42.9,131.2,47.2,151.5 c4.4,20.3,46.4,179.3,46.4,179.3s31.4,6.8,39.4,0.4c0,0-27.4-146-30.2-184.1c-1.1-14.5-9.7-173-34.2-237.1 C2178.3,1228.4,2060.4,1279.6,2060.4,1279.6z"></path> </g> <path class="st7" d="M2101.1,1037.6c0,0-36.8,7.6-41.1,11.5c-4.7,4.1-13.1,44.4-13.6,55.6c-0.5,11.2,4.4,58.1,9.2,75.5 c4.7,17.4,3.7,108.5,1.5,122.8c0,0,73.7,14.4,146.5,5c0,0-12.6-79.1-9.7-103c3.7-30.6,12.7-101.2,12.7-101.2s-9.7-47.5-16.2-53 c-6.5-5.5-51.5-14.4-51.5-14.4L2101.1,1037.6z"></path> <path class="st16" d="M2116.3,924c0,0-44.2-16.4-41.4,42.4c2.8,58.8,13.1,64.7,42.2,56.5c29.1-8.2,31.5-45.3,35.3-63.1 C2156.2,941.9,2130.8,926.6,2116.3,924z"></path> <path class="st16" d="M2093.9,1046.9c0,0,23,18.6,45.1-10.5c0,0-1-23.7,5.8-45.7s-46.3,29.5-46.3,29.5c0.6,0.4,0.7,2.6,0.3,5.7 c-0.3,2.6-0.8,5.8-1.7,9.1C2095.2,1042.3,2095.6,1041,2093.9,1046.9z"></path> <path class="st17" d="M2146.3,988.9c0,0,0.1-15.7-6.4-17.1c-6.5-1.4-9.9,7.6-9.9,7.6l-5.3-0.3c0,0,4.7-15.9-1.5-19.6 c-6.2-3.6-43.4-0.4-48.1-5.8c-4.7-5.4,2.1-37.2,12.3-40.3c10.2-3.1,37.9-9.5,55.5,6.2c0,0,15.8,0.1,15.7,19 C2158.6,951.2,2151.6,980.4,2146.3,988.9z"></path> <path class="st18" d="M2097.1,1034.9c34.3-5.8,39.4-25.3,39.5-25.6c-13.3,17.2-37.8,16.4-37.8,16.4 C2098.5,1028.4,2098,1031.7,2097.1,1034.9z"></path> <path class="st16" d="M2132.5,965.1c2-5.2,13-4.5,11.9,3.7c-1.1,8.2-10.2,20.8-13.9,18.5C2126.8,984.9,2129.8,972.3,2132.5,965.1z "></path> <path class="st16" d="M2150.9,1038.9c0,0-20.7,41.9-51.2,38.5c-30.5-3.4-12.8-32.6-9.9-37.3 C2089.7,1040.1,2108,1028.4,2150.9,1038.9z"></path> <g> <path class="st7" d="M1958.3,1005.1c-8.6-16.8-27.6-81.6-27.6-81.6l26.8-5.6c0,0,14.3,32.6,21.1,55.2c3.3,11,7.7,21.8,8.7,23.5 c1,1.7,46.7,36.3,51.6,38.9c5,2.5,24.1,9.2,33.3,18.5c9.1,9.3,4.7,22,4.7,22c-19.4,24.9-55.2-7.5-55.2-7.5 S1970.4,1028.6,1958.3,1005.1z"></path> </g> <path class="st7" d="M2003.1,1053.1c0,0,42.3,46.2,43.8,63.3c1,12.2,8.7-36.8,8.7-36.8L2003.1,1053.1z"></path> <rect x="1964.9" y="1129.5" transform="matrix(-1 -1.224647e-16 1.224647e-16 -1 4246.5679 2458.6687)" class="st9" width="316.8" height="199.6"></rect> <path class="st19" d="M2232.4,1339.2c0,0,1.5-3.7,1.4-5.6c0,0-0.5-3.5-0.7-6c-0.1-0.8-0.1-1.5-0.1-1.9c0.1-1.9,0.9-6-0.2-10.5 c-1-4.6-6.3-20.3-6.3-20.3l-14.2,2.1l-12.4-1.7c0,0-9.2,26.9-8.8,31.3c0,0.4,0.1,0.8,0.2,1.2c0.8,3.7,2.9,6.1,3.5,7.9 c0.2,0.7,3,7.4,5,8c2.9,0.9,5.2,0.3,6.8-1c0,0,5.7,1.5,9.3-0.1c0,0,5.2,1.6,9.1-1.8C2225.1,1340.8,2230.5,1341.8,2232.4,1339.2z"></path> <path class="st7" d="M2170.2,1049.8c-4.8,1.9-9.9,13.5-6.1,36.4c4.1,24.5,12.2,35,15.4,40.8c3.3,5.7,23.4,44,23.3,49.6 c-0.2,14.7,0.1,53.6-0.3,56.6c-0.8,5.1-4.1,63.7-4.1,63.7l31.1,7.5c0,0,6.1-66.1,8.9-86c1.1-8,3.5-30,0.7-51.9 c-2.7-21.1-18-67.8-20-71.5C2217.1,1091.2,2202.1,1037.5,2170.2,1049.8z"></path> </g> <path class="st10" d="M649,1464.1H159.7c-30.2,0-54.7-24.5-54.7-54.7v-599c0-30.2,24.5-54.7,54.7-54.7H649 c30.2,0,54.7,24.5,54.7,54.7v599C703.7,1439.6,679.2,1464.1,649,1464.1z"></path> <g> <g> <g> <path class="st11" d="M319.2,865.4c-13.1-36.5-48-59-84.8-57.8c-8.9,0.3-17.9,1.9-26.8,5.1c-26.8,9.6-46,30.9-53.9,56.1 c-5.5,17.5-5.5,36.8,1.1,55.4c0.7,1.8,1.4,3.7,2.1,5.4c3.5,8,8.1,15.3,13.5,21.7c22.8,26.8,60.7,38.2,95.9,25.6 C311.8,960.7,335.4,910.8,319.2,865.4z M259.1,956.4c-26.3,9.4-54.7,0.9-71.9-19.2c-4.1-4.8-7.5-10.3-10.1-16.3 c-0.6-1.3-1.1-2.7-1.6-4.1c-5-13.9-5-28.4-0.9-41.5c5.9-18.9,20.3-34.9,40.4-42.1c6.6-2.4,13.4-3.6,20.1-3.8 c27.6-0.8,53.8,16,63.5,43.4C310.8,906.8,293.1,944.2,259.1,956.4z"></path> </g> </g> </g> <path class="st7" d="M680.4,704.5H128.2c-12.9,0-23.3-10.4-23.3-23.3v-5.9c0-12.9,10.4-23.3,23.3-23.3h552.1 c12.9,0,23.3,10.4,23.3,23.3v5.9C703.7,694.1,693.2,704.5,680.4,704.5z"></path> <g> <g> <g> <g> <g> <polygon class="st11" points="486.9,1126.7 578.4,1131.9 651.3,1031.3 646.3,1027.7 575.4,1125.6 484.3,1120.5 379.8,1239.6 270.5,1215.9 162.5,1317.8 166.6,1322.2 272.3,1222.5 382.1,1246.3 "></polygon> </g> </g> </g> </g> <g> <g> <g> <path class="st11" d="M396.8,1239.5c1.9,8.8-3.7,17.4-12.4,19.3c-8.8,1.9-17.4-3.7-19.3-12.4c-1.9-8.8,3.7-17.4,12.4-19.3 C386.3,1225.2,394.9,1230.7,396.8,1239.5z"></path> </g> </g> </g> <g> <g> <g> <path class="st11" d="M501.4,1121.2c1.9,8.8-3.7,17.4-12.4,19.3c-8.8,1.9-17.4-3.7-19.3-12.4c-1.9-8.8,3.7-17.4,12.4-19.3 C490.9,1106.8,499.5,1112.4,501.4,1121.2z"></path> </g> </g> </g> <g> <g> <g> <path class="st11" d="M591.9,1124.8c1.9,8.8-3.7,17.4-12.4,19.3c-8.8,1.9-17.4-3.7-19.3-12.4c-1.9-8.8,3.7-17.4,12.4-19.3 C581.3,1110.5,590,1116,591.9,1124.8z"></path> </g> </g> </g> <g> <g> <g> <path class="st11" d="M287.2,1217.3c1.9,8.8-3.7,17.4-12.4,19.3c-8.8,1.9-17.4-3.7-19.3-12.4c-1.9-8.8,3.7-17.4,12.4-19.3 C276.7,1202.9,285.3,1208.5,287.2,1217.3z"></path> </g> </g> </g> </g> <g> <rect x="255.1" y="1281" class="st11" width="66.5" height="12.8"></rect> </g> <g> <rect x="301.3" y="1149.7" class="st11" width="66.5" height="12.8"></rect> </g> <g> <rect x="439.2" y="1241.2" class="st11" width="66.5" height="12.8"></rect> </g> <g> <rect x="498.8" y="1061.5" class="st11" width="66.5" height="12.8"></rect> </g> <g> <rect x="595.3" y="1168.6" class="st11" width="66.5" height="12.8"></rect> </g> <g> <g> <rect x="377.3" y="872.6" class="st11" width="19.7" height="109.5"></rect> </g> <g> <rect x="411.9" y="843.4" class="st11" width="19.7" height="138.7"></rect> </g> <g> <rect x="448.2" y="858.7" class="st11" width="19.7" height="123.4"></rect> </g> <g> <linearGradient id="SVGID_3_" gradientUnits="userSpaceOnUse" x1="485.468" y1="938.0942" x2="505.1628" y2="938.0942"> <stop offset="0" style="stop-color:#D5E4FF"></stop> <stop offset="1" style="stop-color:#EDFFFE"></stop> </linearGradient> <rect x="485.5" y="894.1" class="st20" width="19.7" height="87.9"></rect> </g> <g> <rect x="377.3" y="912.6" class="st15" width="19.7" height="69.4"></rect> </g> <g> <rect x="411.9" y="894.1" class="st15" width="19.7" height="87.9"></rect> </g> <g> <rect x="448.2" y="903.8" class="st15" width="19.7" height="78.3"></rect> </g> <g> <rect x="485.5" y="927.3" class="st15" width="19.7" height="54.7"></rect> </g> </g> <g> <g> <rect x="523.4" y="908.6" class="st11" width="19.7" height="73.4"></rect> </g> <g> <rect x="558" y="854.6" class="st11" width="19.7" height="127.5"></rect> </g> <g> <rect x="594.3" y="878" class="st11" width="19.7" height="104.1"></rect> </g> <g> <rect x="631.6" y="821.3" class="st11" width="19.7" height="160.8"></rect> </g> <g> <rect x="523.4" y="942.9" class="st15" width="19.7" height="39.1"></rect> </g> <g> <rect x="558" y="923.7" class="st15" width="19.7" height="58.3"></rect> </g> <g> <rect x="594.3" y="930" class="st15" width="19.7" height="52"></rect> </g> <g> <rect x="631.6" y="862.6" class="st15" width="19.7" height="119.5"></rect> </g> </g> <g> <g> <g> <g> <path class="st16" d="M41.1,1273.3c0,0,3.1,5,3.4,9.1c0.3,3.2,3,8.1,4.2,10.8c1.2,2.7,5,14.8,5.1,17.9c0.1,1.3-2.8,9.4-2.4,12 c0.4,2.6,1.9,7.7-0.4,8.1c-2.3,0.3-5-3.9-5-3.9s0.2,2.4-1.8,3.3c-3.8,1.8-5.9,0.2-5.9,0.2s-1.4,2.6-3.2,3 c-3.9,0.8-5.8-0.8-5.8-0.8s-1.7,1.5-4.4,1.4c-3.5-0.1-4.9-3.1-4.9-3.1s-4.4,0.9-5.7-1.2c-1.3-2-1.1-4.2-1.6-6.1 c-0.5-1.9-0.1-18.6,5.6-30.6c5.7-12-1.4-23.8-1.4-23.8L41.1,1273.3z"></path> </g> </g> </g> <g> <g> <path class="st21" d="M46.6,1325.7c0,0,0.4-15-3.6-18.2c-4-3.2-4.4,2.2-4.4,2.2s0.5-5.4-3.8-6.1c-4.3-0.7-4.5,5.6-4.5,5.6 s-0.7-4.1-5.2-3.3c-4.5,0.8-3.5,6.1-3.5,6.1s-4.3-5.2-7.1-0.2c-4.7,8.4-0.2,18.3-0.2,18.3s1.3,2.3,5.7,1.2c0,0,2.9,5.8,9.3,1.6 c0,0,6.6,3.6,9-2.2C38.4,1330.8,45.7,1334.2,46.6,1325.7z"></path> </g> </g> <path class="st15" d="M92,1057.1c0,0-25.7,85.6-34.4,117.2c-2.7,9.9-9.3,104.5-10.5,108.3c-1.2,3.8-33.8,9-33.8,9 s3.9-118.4,4.3-124.8c0.4-6.5,36-138.6,46.3-143.3c7.8-3.5,11.8-0.6,21.6,6.6C99.3,1040.3,92,1057.1,92,1057.1z"></path> <path class="st19" d="M410.5,920.7c0,0-0.6,3.3-1.5,4.7c0,0-1.9,2.3-3.2,4c-0.4,0.5-0.7,1-0.9,1.4c-0.8,1.4-2.1,4.7-4.9,7.6 c-2.8,2.8-13.7,11.9-13.7,11.9l-9.3-7.9l-9.7-4.4c0,0,5.4-23.6,7.7-26.6c0.2-0.3,0.5-0.6,0.7-0.8c2.2-2.3,4.8-3.1,6.1-4.2 c0.5-0.4,5.5-4,7.2-3.5c2.5,0.6,3.9,2.1,4.5,3.7c0,0,4.8,1.5,6.6,4.3c0,0,4.5,1.2,5.8,5.4C405.9,916.2,410.3,917.9,410.5,920.7z"></path> <g> <g> <path class="st22" d="M229.3,1080l6.6-2.5c0,0-8.3-19.4-11.9-19c-4.2,0.5-9.4,1.9-9.4,1.9L229.3,1080z"></path> </g> </g> <g> <g> <path class="st23" d="M230.8,1083.4c-0.8-0.6-14.1-26.1-14.1-26.1l-28.3,3.9l15.3,30.1L230.8,1083.4z"></path> </g> </g> <g> <g> <path class="st24" d="M71.1,1641.8c0,0-2.3,16.3-2.6,18.7c-0.3,2.4-26.1-1.4-26.1-1.4l-2.1-19.4 C40.4,1639.7,67.9,1639.5,71.1,1641.8z"></path> </g> </g> <g> <g> <path class="st15" d="M68.8,1658.4c0,0,8.2,9.8,16.1,14.1c7.9,4.3,20.3,6,25,10.4c3.4,3.2,12.3,16.9-20.5,16.6 c-32.8-0.3-48.6,1.9-52.1-3.3c-3.5-5.3,5.1-38.9,5.1-38.9S50,1660.1,68.8,1658.4z"></path> </g> </g> <g> <g> <path class="st24" d="M255.7,1641.8c0,0-2.3,16.3-2.6,18.7c-0.3,2.4-26.1-1.4-26.1-1.4l-2.1-19.4 C225,1639.7,252.5,1639.5,255.7,1641.8z"></path> </g> </g> <g> <g> <path class="st15" d="M253.4,1658.4c0,0,8.2,9.8,16.1,14.1c7.9,4.3,36.9,7.8,41.6,12.2c3.4,3.2,9,16-37.2,14.8 c-32.8-0.9-48.6,1.9-52.1-3.3c-3.5-5.3,5.1-38.9,5.1-38.9S234.2,1660.3,253.4,1658.4z"></path> </g> </g> <g> <g> <path class="st17" d="M92.5,1224c0,0-24.2,38.5-22.4,73.2c1.8,34.8-8.8,72.7-12.4,109c-4.1,40.5-20.6,136.3-21.2,158 c-0.6,21.7,2.6,90.8,2.6,90.8l33.2,0.8c0,0,27.9-167.6,35.1-184.7c7.2-17.1,43-139,44.3-152.7C152.8,1304.9,92.5,1224,92.5,1224 z"></path> </g> </g> <g> <g> <path class="st17" d="M219.9,1229.3c0,0,18.2,95.3,20.7,116.6c2.4,21.3,4,103,5.2,116.3c1.2,13.3,11.2,173.6,14.4,193.8h-42.5 c0,0-32.6-116.8-32.6-172.1c0-55.3-25.2-120.2-41.4-156.7c-16.3-36.5-53.5-37.3-63.5-105C80.3,1222.1,206.4,1207.8,219.9,1229.3 z"></path> </g> </g> <g> <g> <path class="st16" d="M132.9,900.7c0,0,32.5-12.1,47.5,12.6c15,24.7,13.5,74.3-2.8,80.3c-16.4,6.1-41,2.9-49.4-12.6 c-8.4-15.5-16-37.9-15.6-52.8C112.9,913.3,124.3,905,132.9,900.7z"></path> </g> </g> <g> <g> <path class="st16" d="M174,994.7c0,0-1.4,8.8,0.9,13.1c2.2,4.3-42.1,4.4-42.1,4.4s-3.6-23.5-10.4-43.4 C115.5,949,174,994.7,174,994.7z"></path> </g> </g> <g> <g> <path class="st17" d="M122.3,968.9c0,0,3.1,5,15.5,3.1c12.5-2,27.7-18.6,32.9-20.4c5.2-1.8,5.3-4.9,5.3-4.9l3.3,4.8l5.5,0.4 c0,0-5.1-14.9,2.6-20.9c7.6-6.1-7.9-48.1-48-34.1c0,0-30.8,8.5-29.6,26C111,940.3,115.5,960.2,122.3,968.9z"></path> </g> </g> <g> <g> <path class="st11" d="M177.5,1007.3c0,0-0.1-8.3-3.9-9c-3.7-0.8-41.3-4.4-45.9-2.6v9.6C127.7,1005.3,136.5,1010.7,177.5,1007.3z "></path> </g> </g> <g> <g> <path class="st16" d="M175.3,940.4c-0.7-2.9-8.2-11.3-11-2.3c-2.9,9,4.3,21.1,8.3,20C176.6,957,177,947.8,175.3,940.4z"></path> </g> </g> <g> <g> <path class="st25" d="M326.6,1104.9C326.6,1104.9,326.5,1104.9,326.6,1104.9C326.8,1105,326.8,1105,326.6,1104.9z"></path> </g> </g> <g> <g> <path class="st15" d="M239.6,1019.8c-25.8-3.4-62.1-12.5-62.1-12.5l-49.8-2c0,0-45.7,10.1-63.7,18.2c-1.7,0.8-1.7,40.8-6.4,51.3 l14.9,31.5c0,0,8.6,62.4,10.4,90.1c0.8,12.7-17.8,119.4-17.8,119.4s19.9,5.9,53.9,9.6c34,3.7,118.9-1.4,119.4-5.4 c0.5-4-16.4-149.4-17.2-157c-1.2-11.6,4-73,4-73c7.8-6.1,76.7-38.1,95.5-54.7c5-4.5,26.3-25.1,32.3-32.3 c21.4-25.3,38.9-46.9,41-51.6c2.4-2.7-23.2-16.6-25.5-17.4c-2-0.7-30.9,36.7-42,48.8c-5,5.4-25.6,20.4-25.6,20.4 S255.7,1020.8,239.6,1019.8z"></path> </g> </g> <g> <g> <path class="st17" d="M123.6,903.6c0,0-41.4,3.2-1.3,65.3L123.6,903.6z"></path> </g> </g> </g> <g> <g> <path class="st15" d="M651.1,1650.8c0,0-8.7,13.1-21,15.9c-12.2,2.8-24.3,7.3-24.4,15c-0.1,7.7,35.4,12.3,49.4,4.5 c20.9-11.6,23-8.1,25.3-13.9c2.3-5.8-2.8-21.3-2.6-23.2C678,1646.9,651.1,1650.8,651.1,1650.8z"></path> </g> <g> <path class="st11" d="M652.5,1644.4c0,0-1.6,6.3-1.4,6.4c0.2,0.1,27.6,3.4,26.7-1.7c-0.7-4.1-1.6-8.6-1.6-8.6L652.5,1644.4z"></path> </g> <g> <path class="st15" d="M743.1,1650c0,0-6.2,12.5-16.9,16.7c-11.4,4.5-20.5,9.8-20.3,17.3c0.2,7.5,27.8,15.2,47.8,0.7 c12.7-9.1,16.7-9.2,18.7-14.9c2-5.7-3.5-20.7-3.5-22.5C769.2,1645.1,743.1,1650,743.1,1650z"></path> </g> <g> <path class="st26" d="M742.8,1643.5c0,0,0.1,6.4,0.3,6.5c0.2,0.1,26.7,2.3,26-2.7c-0.5-3.9-2.6-8.7-2.6-8.7L742.8,1643.5z"></path> </g> <g> <path class="st15" d="M645.9,1262.1c0,0-24.5,108.3-30.2,141.3c-4.8,28.1-8.6,57.3-6.3,77.6c2.8,25.1,38.3,155.1,36.9,162.5 c-1.5,7.4,37.2,1.2,37.2,1.2s-27-145.1-21.6-172c4-20,39-152.8,44.4-146c5.4,6.8,12,125.4,16,145c4,19.7,16.2,175.2,16.2,175.2 s27.3,4,34.6-2.1c0,0,3.3-132.8,0.8-169.7c-1-14.1,16.5-168.6-5.9-230.8C756.1,1211.3,645.9,1262.1,645.9,1262.1z"></path> </g> <g> <path class="st11" d="M539.1,1163.6c17.5-2.5,72.5,21.9,77.5,20.1c3.4-1.3,11.5-27.6,17.3-47.5c3.4-11.8,6-21.3,6.4-22.1l0,0 c-0.1,0.5-0.9,9.5,0.2,21.4c0.1,0.8,0.2,1.5,0.2,2.3c0,0.2,0.1,0.4,0.1,0.6c0.5,4.2,1.3,8.8,2.5,13.3c1.7,6.7,2.6,15.6,2.9,25v0 c0,0.1,0,0.1,0,0.2c0,0.2,0,0.4,0,0.6c0,0.1,0,0.2,0,0.3c0.5,17-0.7,35.4-1.2,45.2c-0.8,15.2,4.2,22,4.4,22.2c0,0,0,0,0,0 l5.3-0.7l3.8-0.5l0,0l5.1-0.7l20-2.8l7.2-1l1.7-0.2l12.6-1.8l35.7-5l3.9-0.5l1.6-0.2l13.4-1.9l6.1-0.9l0,0c0,0,5.2-36.6,5.6-56.4 c0.4-18.2,10.1-55.1,11.7-61c0,0,0-0.1,0-0.1c0-0.1,0-0.1,0-0.2c0-0.1,0.1-0.2,0.1-0.3c0,0,0-0.1,0-0.1c0,0,0,0,0,0c0,0,0,0,0,0 c0,0,0-0.1,0-0.1s29.1,30.6,34.8,43.9c1.7,4,7,15.1,13.7,28.5c4.6-8.7,7.5-14.8,7.5-16.4c0-0.2,0-0.4,0-0.6 c-0.4-13.2-14.3-66.7-25.2-101.6c-8.5-17-15.8-30.8-18.1-32.5c-3.6-2.6-18.5-8.9-31.5-14.1c-0.4-0.2-0.9-0.3-1.3-0.5 c-1.2-0.5-2.4-0.9-3.6-1.4c-0.6-0.2-1.2-0.4-1.7-0.7c-0.3-0.1-0.6-0.2-0.9-0.3c-0.3-0.1-0.5-0.2-0.7-0.3h0 c-6.5-2.5-11.5-4.2-12.5-4.3c-0.2,0-0.4,0-0.8,0c-0.4,0-1,0-1.6,0.1c-8.1,0.5-32.1,2.7-39.9,3.5c-1.4,0.1-2.3,0.2-2.4,0.2 c0,0,0,0,0,0s-3.7,1.7-9.2,4.2l0,0l-0.5,0.2c-3.4,1.5-7.2,3.6-11.3,5.8c-8,4.4-16.9,9.6-24.3,13.1c-7.2,3.4-17.1,8.2-18,8.9 l-36.6,105.6l-63.5-11.6L539.1,1163.6z"></path> </g> <g> <path class="st15" d="M649.4,1245.3c0,0-2.7,3.2-3.5,16.8c0,0,110.3-12.9,122-17.9c0,0,0.5-15-2-15.2 C763.2,1228.6,649.4,1245.3,649.4,1245.3z"></path> </g> <g> <path class="st16" d="M743.5,1006.7c-0.3,17.3-33.9,26.8-33.9,26.8s-14-17.6-10.7-19.3c1.3-0.7,1.8-3.3,2-6.2 c0.2-2.8,0-5.9-0.2-7.9c-0.1-1.2-0.2-2-0.2-2s4.8-5.1,10.9-11.1c10.6-10.5,25.3-24,25.3-18.6c0,0.3,0,0.6-0.1,1 C734,981.5,743.5,1006.7,743.5,1006.7z"></path> </g> <g> <path class="st17" d="M740.7,1231.5c0,0,2.4,15.2,2.6,19.1l5.1-1c0,0-1.4-16.1-2.2-18.8L740.7,1231.5z"></path> </g> <g> <path class="st17" d="M658.6,1243.5c0,0-1.9,13.8-2,19l5.4-0.7c0,0,1.1-17.2,1.7-19L658.6,1243.5z"></path> </g> <g> <path class="st18" d="M730.6,981.3C730.6,981.3,730.6,981.3,730.6,981.3c-0.1,0.1-1.5,2.2-3.9,5.3c-5.1,6.5-14.8,17.1-25.7,21.4 c0.2-2.8,0-5.9-0.2-7.9c-1.1,0-2.2-0.2-3.3-0.4c3-5.2,7.3-10.7,7.3-10.7l6.7-2L730.6,981.3z"></path> </g> <g> <path class="st16" d="M737,968.6c-2.9,6.3-5.7,10.9-6.4,12.7c0,0,0,0,0,0c-0.5,1.2-1.9,3.1-3.9,5.3c-5.5,6-15.8,13.8-25.9,13.5 c-1.1,0-2.2-0.2-3.3-0.4c-4.1-0.9-8.9-2.8-11.5-8c-20.9-40.9-5.8-74.4-5.8-74.4s57.2-16.2,66.1,1 C752.5,930.4,743.8,953.8,737,968.6z"></path> </g> <g> <path class="st17" d="M680.1,917.3c0,0-5.3-0.3-6.6-10.4c-1.3-9.9,1.3-12.7,1.3-12.7s23.6-9.9,32.1-11.2 c8.5-1.3,29.3-2.5,34.2,3.1c0,0,11.9-2.8,15.1,17c5.1,31.3-17.5,61.6-17.5,61.6s0.2-20.4-4.3-23.1c-4.5-2.7-8.4,3.7-8.4,3.7 l-9.2,1.7c0,0,14-30.2-2.8-31.3C697.2,914.5,689.7,919.1,680.1,917.3z"></path> </g> <g> <path class="st16" d="M726.3,937.2c0.9-9,17.2-12.4,16.1-3c-1.1,9.4-9.1,18.5-12.8,18.2C725.8,952,725.6,944,726.3,937.2z"></path> </g> <g> <path class="st15" d="M839.2,1166.7c0-0.2,0-0.4,0-0.6c-0.3-13.2-6.8-65.8-17.7-100.8c-5.3-17-6.5-28.8-8.6-30.3 c-3.6-2.5-35.1-11.9-48.6-17.1c-0.4-0.2-0.9-0.3-1.3-0.5c-1.2-0.5-2.4-0.9-3.6-1.4c-0.6-0.2-1.2-0.4-1.7-0.7 c-0.3-0.1-0.6-0.2-0.9-0.3c-0.3-0.1-0.5-0.2-0.7-0.3c0,0,0,0-0.1,0.1c-1.2,1.3-7.4,8.4-14.8,18.9c-13.8,19.7-31.9,51.6-29.1,81 c0.9,9.4,2,23,3.8,38.2c0.2,1.3,0.3,2.6,0.5,3.9c0.4,3.5,0.9,7.1,1.5,10.7c0.3,2.2,0.7,4.4,1,6.6c3.7,22.8,15.2,38.4,25.4,57 c0.1,0.2,0.2,0.3,0.3,0.5c0,0.1,0.1,0.2,0.1,0.3c0.2,0.4,0.4,0.8,0.7,1.2c0.3,0.7,0.7,1.3,1,2c0.2,0.4,0.4,0.8,0.6,1.1 c2,3.7,3.9,7.6,5.7,11.4c1.2,2.5,2.4,5,3.5,7.5c0.1,0.3,0.2,0.5,0.4,0.8c0,0,1.9,4.4,4.3,10c0.9,2.1,1.8,4.3,2.8,6.5 c0.7,1.5,1.3,3.1,2,4.6c0.6,1.3,1.1,2.6,1.6,3.8c1.2,2.7,2.2,5.1,2.9,6.7c0.5,1.2,0.9,2.1,1,2.4c3.5,8.8,6,15.6,7.2,18.7 c0.5,1.3,0.7,2,0.7,2l35.3-19.5c6.7-3.4,3.2-21.4,0.7-28.5c-2.1-5.9-5-12.2-8.4-18.7c-1.4-2.7-2.8-5.3-4.2-8.1 c11-19.3,22.2-39.2,29.3-52.7C836.4,1174.3,839.2,1168.2,839.2,1166.7z M783.1,1111.5c0,0,0-0.1,0-0.1c0-0.1,0-0.1,0-0.2 c0-0.1,0-0.2,0.1-0.3c0,0,0-0.1,0-0.1c0,0,0,0,0,0c0,0,0,0,0,0c0,0,17.2,26.8,15.9,50.1c-0.2,3.6-3.8,12.8-9.1,24.6c0,0,0,0,0,0 c-1.9,4.3-4,8.9-6.3,13.7c-0.1-0.2-0.2-0.4-0.3-0.6c-3.3-8-5.4-15.5-5.4-22.1C778.2,1176.5,779.6,1125.4,783.1,1111.5z"></path> </g> <g> <path class="st15" d="M515.6,1127.8l79.9,17.4l38.1-99.6c0.8-0.7,11.8-6.5,19-10c7.5-3.6,17.1-8,25.5-11.9c4-1.9,7.8-3.6,11-5.1 l0.3,0.2c0,0-4.7,15.7-10.8,54.9c0,0,0,0,0,0c-0.2,1.3-0.4,2.7-0.6,4c0,0.2,0,0.3-0.1,0.5c-0.1,0.9-0.3,1.8-0.4,2.8 c0,0.1,0,0.2-0.1,0.3c-0.1,0.6-0.2,1.3-0.3,1.9c-0.2,1.5-0.5,3.1-0.7,4.7c-2.7,19.1-6.5,51.6-10.2,84.3v0 c-2.9,25.8-9.5,52.4-11.6,72.1c0,0,0,0,0,0c-0.4,3.9-1.4,9-2.7,14.9c-0.1,0.7-0.3,1.3-0.5,2c-5.9,25-17.4,60.3-17.4,60.3 l-3.3-3.1l-9.9-9.1c-2.3-2.1-3.1-5.3-2.2-8.3c5.5-17.7,24.2-80.4,27.6-124.5c0,0,0,0,0,0c1.1-13.8-3-26.9-5.3-39.3 c0,0.1-0.1,0.2-0.1,0.3c-2,5.5-4.1,11.4-6.3,17.2v0c-5.9,15.5-11.9,29.9-14.4,30.8c-5.6,2.1-110.8-26.7-111.5-30.8L515.6,1127.8z "></path> </g> <g> <path class="st17" d="M746.9,1057.7l-16.3,9.2l7,7.1L719,1174.1c-3.8-23.5-5.5-45.8-6.8-59.5c-4.3-45.5,41.2-96.8,44-100 c2.2,0.8,4.5,1.7,7,2.7L746.9,1057.7z"></path> </g> <g> <path class="st17" d="M689.7,1018.4c0,0-6.1,19.9-13.2,69.6c-2.7,19.1-6.5,51.6-10.2,84.3l-3.8-93.8l7.8-8.4l-6.9-8.6l14.8-37.7 c4-1.9,7.8-3.6,11.1-5.1L689.7,1018.4z"></path> </g> <g> <path class="st11" d="M757,1014.9l-13.5-8.2c0,0-0.4,7.4-33.9,26.8l9.5,26.8L757,1014.9z"></path> </g> <g> <path class="st11" d="M700.7,1010.4c0,0,0.5,8,8.9,23l-18.6,24.2l-1.4-39.2L700.7,1010.4z"></path> </g> <g> <path class="st17" d="M709.6,1033.5c0,0,3.6,14.4,2.3,18.4c0,0-7.9,2.9-13.6-0.7C698.4,1051.2,702.4,1041.1,709.6,1033.5z"></path> </g> <g> <path class="st17" d="M705.1,1236.3c0,0-16.2,1.9-21.6,3.3l0.7,18.2l21.3-2.3L705.1,1236.3z"></path> </g> <g> <path class="st17" d="M701.6,1049.9c0,0-18.1,45.7-15.2,96.9c3.1,53.1,8.1,72.3,8.1,72.3l11.2,14l4.9-17.2c0,0-15-67.6-5.3-133.5 c1.8-11.9,4.4-34.5,4.4-34.5L701.6,1049.9z"></path> </g> <g> <path class="st16" d="M756,1265.8c0,0-3.9,7.8-7.8,9.1c-3.9,1.3-9.5,7.6-9.5,7.6l27.4,14.4c0,0,7.3-14.2,7.6-23.3 C774,1264.5,756,1265.8,756,1265.8z"></path> </g> <g> <path class="st27" d="M753.4,1266.5l-1.8,3.6c0,0,17.4,12.7,22.1,13.5l1.6-4.9L753.4,1266.5z"></path> </g> <g> <path class="st15" d="M751.6,1266.7c0,0,13,10.8,24,15.7l36.9-66.4l-19.1-37C793.3,1179.1,752.4,1260.2,751.6,1266.7z"></path> </g> <g> <path class="st17" d="M641.4,1114.3c-0.6,12.3-0.5,23.2-0.5,23.2s0,0,0,0c0,0.1,0,0.4,0,0.9c0-0.2-0.1-0.4-0.1-0.6 c-2,5.5-4.1,11.4-6.3,17.2c-0.5-6.7-0.6-12.9-0.5-18.7c0.9-34.4,11.7-52.5,11.7-52.5C643.1,1089.8,641.9,1102.6,641.4,1114.3z"></path> </g> <g> <path class="st17" d="M806.7,1243.9l-29.5,35.7l25.3-43.7C803.9,1238.5,805.3,1241.2,806.7,1243.9z"></path> </g> <g> <path class="st9" d="M592.2,1199.1H524c-4.7,0-8.7-3.2-9.8-7.7l-29.6-122.3c-1.5-6.4,3.3-12.5,9.8-12.5h68.2 c4.7,0,8.7,3.2,9.8,7.7l29.6,122.3C603.6,1193,598.7,1199.1,592.2,1199.1z"></path> </g> </g> <g> <g> <polygon class="st9" points="1021.3,1424.7 1325.3,1424.7 1229.5,1719 1238.4,1721.9 1338.3,1415.3 1014.4,1415.3 915.6,1719 924.5,1721.9 "></polygon> </g> <g> <polygon class="st9" points="1124.8,1719 1028.9,1424.7 1332.9,1424.7 1429.7,1721.9 1438.7,1719 1339.8,1415.3 1016,1415.3 1115.8,1721.9 "></polygon> </g> <g> <rect x="993" y="1507.9" class="st9" width="372.1" height="9.4"></rect> </g> <g> <rect x="954.7" y="1610.3" class="st9" width="445.2" height="9.4"></rect> </g> </g> <g> <g> <g> <path class="st16" d="M1173.6,753.1c0,0,7.6-13.3-4.4-48.8c-11.6-34.4-51.9-31.3-64.6-9.2c-12.8,22-8.5,35.7,10.4,60.6 C1133.7,780.5,1165.8,764.5,1173.6,753.1z"></path> </g> </g> <g> <g> <path class="st16" d="M1080.2,1364.7c0,0-2,14.6-2.2,16.8c-0.2,2.2-22.1-1.3-22.1-1.3l-1.8-17.4 C1054,1362.8,1077.4,1362.6,1080.2,1364.7z"></path> </g> </g> <g> <g> <path class="st15" d="M1078.2,1379.6c0,0,6.9,8.8,13.7,12.6c6.7,3.8,17.3,5.4,21.2,9.3c2.9,2.9,10.4,15.2-17.4,14.9 c-27.9-0.3-41.3,1.7-44.3-3c-3-4.7,4.3-34.9,4.3-34.9S1062.4,1380.5,1078.2,1379.6z"></path> </g> </g> <g> <g> <path class="st16" d="M1231.8,1364.7c0,0-2,14.6-2.2,16.8c-0.3,2.2-22.2-1.3-22.2-1.3l-1.8-17.4 C1205.6,1362.8,1229.1,1362.6,1231.8,1364.7z"></path> </g> </g> <g> <g> <path class="st15" d="M1229.8,1379.6c0,0,6.9,8.8,13.7,12.6c6.7,3.8,31.4,7,35.4,11c2.9,2.9,7.6,14.4-31.6,13.3 c-27.9-0.8-41.3,1.7-44.3-3c-3-4.7,4.3-34.9,4.3-34.9S1215.9,1380.2,1229.8,1379.6z"></path> </g> </g> <g> <g> <path class="st15" d="M1087.5,1001.2c0,0-11.2,34.9-9.8,65c1.5,30.1-5.8,63-8.8,94.4c-3.3,35-16.9,117.9-17.4,136.7 c-0.5,18.7,2.1,78.6,2.1,78.6l27.2,0.7c0,0,22.8-144.9,28.8-159.7c5.9-14.8,35.3-120.2,36.2-132.1 C1146.9,1072.8,1087.5,1001.2,1087.5,1001.2z"></path> </g> </g> <g> <g> <path class="st15" d="M1200.3,997.6c0,0,16.5,92.3,18.5,110.7c2,18.4,3.3,89.1,4.3,100.6c1,11.5,6.6,150.5,11.8,167.6h-30.3 c0,0-31.1-101.1-31.1-148.9c0-47.8-20.6-104-33.9-135.5c-13.3-31.6-43.8-32.3-52-90.8C1087.5,1001.2,1189.2,979,1200.3,997.6z"></path> </g> </g> <g> <g> <path class="st16" d="M1162.6,762.5c0,0-3.4,10,0,17.1c3.4,7.1-43.7,2.8-43.7,2.8s2.1-14.7-4-26.8 C1108.7,743.6,1162.6,762.5,1162.6,762.5z"></path> </g> </g> <g> <g> <path class="st15" d="M1085.4,1008.8c0,0,16.9,17.4,116.5-2.7l-1.5-8.5l-113.1,4.3L1085.4,1008.8z"></path> </g> </g> <g> <g> <path class="st16" d="M1169.8,781.9c0,0,17.4,1.8,22.4,2.7c5,0.9,38.4-6,45.3-6.7c6.9-0.7,36.2-20.8,37.1-23.1 c0.9-2.4,17.8-45.1,18.8-54.3c0.9-9.2,16.4-4.5,15.1,1.9c-2.5,11.9-5.7,40.8-7.4,49.2c-1.9,9-6.9,29.5-9.8,32.1 s-29.2,22.6-55,31.1c-25.8,8.5-45.2,21.1-45.2,21.1h-127.2c0,0-49.5-70.7-50.5-81.4c-1.1-10.7,34.6-81.5,41.7-90.4 c7.1-8.9,17.4,2.9,17.4,2.9s-21.3,62.5-24.1,71.3c-2.8,8.9,24.8,47.9,32.3,48c7.6,0.1,27-2.4,35.7-2.7 c8.6-0.4,17.8-4.1,17.8-4.1L1169.8,781.9z"></path> </g> </g> <g> <g> <path class="st7" d="M1224.6,829.1c0,0-15.6,10.4-17,28.1c-1.4,17.8-7.1,45.8-9.9,55.4c-2.8,9.6,2.5,79.2,3.2,84.2 c0.7,5-98.4,16.8-113.7,5c0,0-4.3-65-6-83.5c-1.8-18.5-10.3-63.2-13.1-69.3c-2.8-6-37.3-54.4-38.7-60.7c0,0,17.8-28.4,30.6-28.8 c0,0,20.3,23.8,26.9,24.9c6.6,1.1,47.2-6.4,47.2-6.4c0,0,4.4,6,28-1.1c0,0,28,3.2,32.6,3.7c5.5,0.7,43.9-4.8,43.9-4.8 s15.4,26,12.7,39.2L1224.6,829.1z"></path> </g> </g> <g> <g> <path class="st16" d="M1292.4,706c0,0,3.5-16.5-0.7-21.2c-2.4-2.7-8.1-9.8-8.6-10.9c-0.5-1-6.7-4.6-6.7-6.3c0-1.7,6-3.8,11.3,1 c5.2,4.8,8.5,5.9,10.6,5.4c2.1-0.5,5.1-17.9,5.4-22.2c0.3-4.3,1.9-15.7,4.6-14.9c2.7,0.8,2.6,5.8,2.6,5.8s3.1-8.6,5.2-6.9 c2.1,1.7,1.8,5.9,1.8,5.9s3.9-4.8,5-1.3c1,3.5,0,6.7,0,6.7s4.1-2.2,4.3,3.3c0.3,5.5-1.2,21.6-4.1,27.3 c-2.9,5.8-13.7,20.8-14.9,26.7C1306.9,710.2,1292.4,706,1292.4,706z"></path> </g> </g> <g> <g> <path class="st16" d="M1068.8,677.1c0,0,11.8-19.9,15.9-21.7c4-1.8,9.7-2.8,14.7-6.3c5-3.6,11.5-6.5,11.2-7.7 c-0.4-1.2-6.2-0.7-12.5,2c-6.3,2.7-9,1.4-9.6,0c-0.6-1.4,3.3-11.5,5.2-13.8c1.9-2.4,15.4-15.9,13.1-18c-2.2-2-11,5.4-12.4,7 c0,0,7-14.7,4.3-15.4c-2.7-0.7-7.8,4.5-7.8,4.5s0.6-12.6-12.9,7.8c0,0,2.8-6.8-1.3-4.5c-4.1,2.3-8.2,14.9-9.5,21.3 c-1.3,6.4-7.2,26.8-12.3,31.7C1049.8,668.9,1068.8,677.1,1068.8,677.1z"></path> </g> </g> <g> <g> <path class="st17" d="M1114.9,755.7c0,0,6.2,0.6,19.5-4c13.3-4.6,14.3-27.8,17.1-25c5.9,5.6,11.4,1.7,13.6-1.6 c0,0-6.5-8.5-3.5-12.6c3-4.1,7.9-7.1,7.9-7.1s-9.3-45-51.8-24.5C1068,704.8,1114.9,755.7,1114.9,755.7z"></path> </g> </g> <g> <g> <path class="st7" d="M1162.6,779.6l-1.5-6.5c0,0-27.1-0.6-41.9,1.6l-1.6,7.8C1117.7,782.4,1136.6,791,1162.6,779.6z"></path> </g> </g> <g> <g> <path class="st16" d="M1155.9,720.9c-2.5-4.1-11.6-6.8-12.6,4.7c-0.8,9,16.3,18.8,16.4,10.4 C1159.9,727.7,1157.6,723.7,1155.9,720.9z"></path> </g> </g> <g> <g> <path class="st28" d="M1293.1,702.3c0,0,9.8,0.2,14.5,4.5c0,0,0.3,2.7-0.8,4.9c0,0-8.5-4-15-4.7 C1291.8,707,1291.9,703.4,1293.1,702.3z"></path> </g> </g> <g> <g> <path class="st29" d="M1304.6,704.7c0.9,2.1-0.1,4.6-2.2,5.5c-2.1,0.9-4.6-0.1-5.5-2.2c-0.9-2.1,0.1-4.6,2.2-5.5 C1301.2,701.6,1303.7,702.6,1304.6,704.7z"></path> </g> </g> </g> </g> </svg> 