<?xml version="1.0" encoding="UTF-8"?> <!-- Generator: Adobe Illustrator 23.1.0, SVG Export Plug-In . SVG Version: 6.00 Build 0) --> <svg xmlns="http://www.w3.org/2000/svg" xmlns:xlink="http://www.w3.org/1999/xlink" id="Слой_1" x="0px" y="0px" viewBox="0 0 522.9 302.9" style="enable-background:new 0 0 522.9 302.9;" xml:space="preserve"> <style type="text/css"> .st0{fill:#41B792;} .st1{fill:#FFFFFF;} .st2{fill:#4AD6AE;} .st3{fill:#00BDC7;} .st4{fill:#233C67;} .st5{fill:#EEA886;} .st6{fill:#E55353;} .st7{fill:#3B639F;} .st8{fill:#525252;} .st9{fill:#FDFFFF;} .st10{fill:#A77860;} .st11{fill:#DE9673;} .st12{fill:#EEA987;} .st13{fill:#DB9C7C;} </style> <g> <g> <g> <path class="st0" d="M141.4,100.9c5.3-2.5,10.6,14.4,10.6,14.4c9.1,12,21.7-4,20.5,13.9c-2.2,31.3,36,9.8,18.4,42.5 c-17.6,32.7,15.6,18.5,4.6,44.8c-10.9,26.3,3.2,57.7-13.2,44.8c0,0-14.5-31.8-29.5-41.6c-15-9.8,9-21.5,4.3-34.9 c-6.8-19.4-23.2-18.6-11.4-39.5C157.5,124.5,123.3,109.6,141.4,100.9z"></path> <g> <path class="st1" d="M187.5,249.4c-7.1-5-15.5-40-16-60.8c-0.3-10.7-3.4-15.1-6.2-19c-2.7-3.8-5-7-3.6-14.4 c2.6-14.2-4.2-20.3-4.2-20.4l0.8-0.9c0.3,0.3,7.3,6.6,4.6,21.5c-1.3,6.9,0.8,9.9,3.4,13.5c2.7,3.9,6.1,8.7,6.4,19.7 c0.5,22.4,9.1,55.4,15.5,59.9L187.5,249.4z"></path> </g> <g> <path class="st0" d="M190.2,252c-0.9,0-1.9-0.1-3-0.3c-2.8-0.6-4.6-2-5.4-4.3c-1.9-5.5,2.5-14.4,6.2-18.8 c0.1-0.1,6.1-7.5,5.5-17.7c-0.1-1.7-0.3-3.3-0.4-4.7c-0.5-4.1-0.8-7,1-9c1.5-1.7,4.5-2.5,9.9-2.5c9.5,0,13.3-4,16.3-7.1 c1.3-1.3,2.5-2.6,4-3.4l0,0c4.7-2.6,9.7-3,11.9-0.9c1,1,1.9,2.9,0.2,6.5c-1.6,3.3-3.6,5.3-5.2,7c-2.2,2.2-3.6,3.7-2.9,6.7 c0.2,0.7,0.4,1.4,0.6,2.1c1.5,5,3.1,10.7-5.4,14.5c-1.8,0.8-3.5,1.5-4.9,2c-6,2.3-9.6,3.8-13.7,12.4c-0.8,1.7-1.5,3.2-2.2,4.8 C199.2,246.5,196.8,252,190.2,252z M224.6,185.2c-1.3,0.7-2.4,1.9-3.7,3.2c-3.2,3.3-7.1,7.5-17.1,7.5c-5,0-7.8,0.7-9,2.1 c-1.4,1.6-1.1,4.3-0.7,8c0.2,1.4,0.3,3,0.5,4.8c0.7,10.7-5.5,18.3-5.7,18.6c-3.6,4.3-7.6,12.8-5.9,17.6c0.7,1.9,2.2,3.1,4.5,3.5 c8.1,1.6,10.3-3.4,14-11.8c0.7-1.5,1.4-3.1,2.2-4.8c4.3-9,8.3-10.6,14.3-13c1.5-0.6,3.1-1.2,4.9-2c7.6-3.4,6.3-8.1,4.8-13.1 c-0.2-0.7-0.4-1.4-0.6-2.1c-0.9-3.6,0.9-5.4,3.2-7.8c1.7-1.7,3.5-3.6,5-6.7c0.8-1.6,1.4-3.8,0.1-5.1 C233.4,182.4,228.9,182.9,224.6,185.2L224.6,185.2z"></path> </g> <g> <path class="st0" d="M187.3,258.9l-1.2-0.1c0.1-1.1,1.5-27.2,12-34.9c11.5-8.4,15.1-17.4,16.9-23.4c2-7.1,12.4-9,12.8-9.1 l0.2,1.2c-0.1,0-10.1,1.9-11.9,8.3c-1.8,6.2-5.5,15.5-17.3,24.1C188.8,232.2,187.3,258.6,187.3,258.9z"></path> </g> <path class="st2" d="M211.2,127.3c-7.5-2.6-5.9,11.8-9.1,22.4c-3.1,10.6-35,4.6-21.6,31.2c13.4,26.6-16.9,8.9-7.9,32.1 c9.1,23.2,0.8,48,10.6,41.7c9.8-6.3,5.5-35.6,15.8-39c10.2-3.5,11.9-7.5,1.8-17c-10.1-9.4,26.5-18.8,17.5-37.9 C209.3,141.8,219.8,130.2,211.2,127.3z"></path> <g> <path class="st1" d="M187.9,253.7c-0.9-4-8.9-39-1.5-43.2c6.6-3.7,6.4-18.2,5.4-31.9c-0.9-12.1,14.7-17.8,15.3-18l0.4,1.1 c-0.2,0.1-15.4,5.6-14.5,16.8c1.1,14.1,1.2,29-6,33c-5.7,3.2-0.5,31.3,2,41.9L187.9,253.7z"></path> </g> <polygon class="st3" points="204.8,241.2 194.2,281.6 170.4,281.6 159.7,241.2 "></polygon> </g> <g> <g> <g> <polygon class="st0" points="350.6,109.4 292.8,109.7 293,151.6 293,160.4 301.8,151.6 350.8,151.3 "></polygon> </g> </g> <path class="st1" d="M326.2,132.2c0,2.4-2,4.4-4.4,4.4c-2.4,0-4.4-2-4.4-4.4c0-2.4,2-4.4,4.4-4.4 C324.2,127.8,326.2,129.8,326.2,132.2z"></path> <path class="st1" d="M340.7,132.1c0,2.4-2,4.4-4.4,4.4c-2.4,0-4.4-2-4.4-4.4c0-2.4,2-4.4,4.4-4.4 C338.7,127.7,340.7,129.7,340.7,132.1z"></path> <path class="st1" d="M312.1,132.2c0,2.4-2,4.4-4.4,4.4c-2.4,0-4.4-2-4.4-4.4c0-2.4,2-4.4,4.4-4.4 C310.1,127.8,312,129.8,312.1,132.2z"></path> </g> <g> <g> <g> <polygon class="st2" points="320.6,15.9 378.7,16.2 378.6,58.4 378.5,67.2 369.7,58.3 320.4,58.1 "></polygon> </g> </g> <path class="st1" d="M345.1,38.8c0,2.5,2,4.4,4.4,4.5c2.5,0,4.4-2,4.5-4.4c0-2.5-2-4.4-4.4-4.5C347.1,34.4,345.1,36.4,345.1,38.8 z"></path> <path class="st1" d="M330.5,38.8c0,2.5,2,4.4,4.4,4.5c2.5,0,4.4-2,4.5-4.4c0-2.5-2-4.4-4.4-4.5C332.5,34.3,330.5,36.3,330.5,38.8 z"></path> <path class="st1" d="M359.4,38.9c0,2.5,2,4.4,4.4,4.5c2.5,0,4.4-2,4.5-4.4c0-2.5-2-4.4-4.4-4.5C361.4,34.4,359.4,36.4,359.4,38.9 z"></path> </g> <g> <g> <g> <polygon class="st0" points="520.1,2.4 448.4,2.8 448.6,54.8 448.7,65.7 459.6,54.7 520.4,54.4 "></polygon> </g> </g> <path class="st1" d="M489.9,30.7c0,3-2.4,5.5-5.5,5.5c-3,0-5.5-2.4-5.5-5.5c0-3,2.4-5.5,5.5-5.5 C487.4,25.2,489.9,27.6,489.9,30.7z"></path> <path class="st1" d="M507.9,30.6c0,3-2.4,5.5-5.5,5.5c-3,0-5.5-2.4-5.5-5.5c0-3,2.4-5.5,5.5-5.5 C505.4,25.1,507.9,27.6,507.9,30.6z"></path> <path class="st1" d="M472.3,30.7c0,3-2.4,5.5-5.5,5.5c-3,0-5.5-2.4-5.5-5.5c0-3,2.4-5.5,5.5-5.5 C469.8,25.3,472.3,27.7,472.3,30.7z"></path> </g> <g> <g> <g> <polygon class="st0" points="4.1,34.3 79.8,34.6 79.6,89.6 79.5,101.1 68,89.5 3.8,89.2 "></polygon> </g> </g> <path class="st1" d="M36,64.1c0,3.2,2.6,5.8,5.8,5.8c3.2,0,5.8-2.6,5.8-5.8c0-3.2-2.6-5.8-5.8-5.8C38.6,58.3,36,60.9,36,64.1z"></path> <path class="st1" d="M17,64c0,3.2,2.6,5.8,5.8,5.8c3.2,0,5.8-2.6,5.8-5.8c0-3.2-2.6-5.8-5.8-5.8C19.6,58.3,17,60.8,17,64z"></path> <path class="st1" d="M54.6,64.2c0,3.2,2.6,5.8,5.8,5.8c3.2,0,5.8-2.6,5.8-5.8c0-3.2-2.6-5.8-5.8-5.8C57.2,58.4,54.6,61,54.6,64.2 z"></path> </g> <path class="st2" d="M273.1,121.9c2-5.5-0.8-11.7-6.3-13.7c-5.5-2-11.7,0.8-13.7,6.3c0,0-0.2,0.4-0.4,1.5 c-0.1,0.4-0.1,0.7-0.2,1.1c-0.4,3.3-0.5,10.1,2.5,23.2c10.7-8,15.1-13.2,16.9-16c0.2-0.3,0.4-0.6,0.6-0.9 C273,122.4,273.1,121.9,273.1,121.9z M260.8,124.5c-3.5-1.3-5.2-5.1-3.9-8.6c1.3-3.5,5.1-5.2,8.6-3.9c3.5,1.3,5.2,5.1,3.9,8.6 C268.1,124,264.3,125.7,260.8,124.5z"></path> <g> <rect x="205.9" y="57.5" transform="matrix(0.9798 0.2001 -0.2001 0.9798 19.6824 -44.7898)" class="st2" width="51.1" height="35"></rect> <polygon class="st2" points="202.9,87 231.9,73 253,97.2 "></polygon> <polygon class="st0" points="260,63 230.6,79.2 209.9,52.8 "></polygon> </g> <g> <g> <path class="st2" d="M146.5,76.9c-2,0.6-4.1,0.7-5.9,0c-2.1-0.7-3.7-2.1-4.5-4c-1.8-3.6-4.6-7-6.6-9.3 c-6.1-1.8-10.9-6.4-12.8-12.5c-3.2-10,2.3-20.8,12.3-24.1c10-3.2,20.8,2.3,24.1,12.3c1.8,5.5,1,11.3-2.1,16.2 c0.1,4.1,0.7,7.7,1.6,10.7c1.6,3.9-0.9,8.6-5.4,10.4C147,76.8,146.8,76.9,146.5,76.9z M129.5,28.6c-9.2,3-14.3,12.9-11.3,22.1 c1.8,5.6,6.3,9.9,12,11.5l0.2,0.1l0.2,0.2c2.1,2.3,5.1,5.9,7,9.9l0,0.1c0.6,1.5,1.9,2.6,3.5,3.2c1.7,0.6,3.7,0.5,5.5-0.2 c3.7-1.5,5.8-5.3,4.5-8.4l0,0l0,0c-1-3.2-1.6-7-1.7-11.4l0-0.2l0.1-0.2c2.9-4.5,3.7-10,2-15C148.6,30.7,138.7,25.6,129.5,28.6z"></path> </g> <g> <polygon class="st2" points="140.8,72.2 130.6,53.9 136,55.6 137.3,51.8 140.5,53.5 143,48.8 148.6,69 147.1,69.5 142.6,53 141.2,55.6 138.2,54 136.9,57.5 133.9,56.6 142.2,71.5 "></polygon> </g> <g> <rect x="140.7" y="74.7" transform="matrix(0.928 -0.3725 0.3725 0.928 -18.235 60.5215)" class="st2" width="13.6" height="5.5"></rect> </g> <g> <rect x="137.1" y="69.4" transform="matrix(0.928 -0.3725 0.3725 0.928 -16.987 59.7163)" class="st2" width="17.9" height="8.8"></rect> </g> </g> <g> <path class="st4" d="M340.1,265.5c-0.3,2.2-13.2,11.2-15.8,13c-2,1.5-3.8,2.1-6.9,3.3c0,0,0,0,0,0c-7,1.8-51.1,15-51.1,15 c-0.1-0.4-0.2-0.8-0.4-1.3c-1.6,0.7-3.3,1.1-4.4,1.4c-1.6,0.5-14.7,0.9-17.3,1.4c-2.7,0.5-8,1.3-10.2-0.7 c-2.2-2.1,1.3-6.5,4.3-7.6c3-1.1,13.8-1.4,15.8-1.6c1.9-0.2,4.5-0.9,5.7-0.5c0.4,0.1,2.1-0.4,4.3-1.1c-0.1-0.8-0.1-1.3-0.1-1.3 l11.6-3.3l-2.1-20.5c0,0,5-19,25.1-4.5c0,0,4.5,1.3,6,1.7c0.1,0,0.3,0,0.5,0c3.1-0.2,16.3-4.2,21-4.2c5.1,0,6.8-0.3,8.6,0.6 C336.6,256.2,340.4,263.4,340.1,265.5z"></path> <path class="st4" d="M319.5,297.6c-2.2,2.1-7.5,1.2-10.2,0.7c-2.7-0.5-15.7-0.9-17.3-1.4c-1.6-0.5-4.7-1.2-6.9-2.7 c-0.2-0.1-0.6-0.3-1.2-0.5c0,0,0,0,0,0l-3.3,2.3l-45.3-14.4c-2.7-0.7-4.9-1.9-6.3-3.1c-2.4-2.1-15.5-10.9-15.8-13 c-0.3-2.2,3.5-9.3,5.3-10.3c1.8-0.9,3.5-0.6,8.6-0.6c5.1,0,20,4.6,21.5,4.2c0.7-0.2,2.1-0.9,3.5-1.7c1.6-0.9,3.2-1.8,3.2-1.8 c22-9.8,24.5,6.3,24.5,6.3l-1.3,19.9c0,0,1.8,0.9,4.2,2l10.9,3.1l-1.4,1c0.6,0.2,1.1,0.3,1.2,0.2c1.2-0.4,3.8,0.3,5.7,0.5 c1.9,0.2,12.8,0.5,15.8,1.6C318.2,291.2,321.7,295.6,319.5,297.6z"></path> <path class="st2" d="M252.4,257.2c1.5,0.1,11.8,6,14.2,7.5c-3.7-1.9-17.7-5.8-17.7-5.8C249.5,258.7,251,257.9,252.4,257.2z"></path> <path class="st2" d="M305.1,258.9c0,0-17.7,4.3-20.9,6.1c0.1-0.1,9.3-7.1,14.1-8c0,0,4.7,1.5,6.3,1.9 C304.7,258.9,304.9,258.9,305.1,258.9C305.1,258.9,305.1,258.9,305.1,258.9z"></path> <path class="st5" d="M319.5,297.6c-2.2,2.1-7.5,1.2-10.2,0.7c-2.7-0.5-15.7-0.9-17.3-1.4c-0.5-0.1-1.1-0.3-1.7-0.5h0 c-1.6-0.5-3.6-1.1-5.2-2.2c-0.2-0.1-0.6-0.3-1.2-0.5l8.2-5.9l0.2-0.2c0.6,0.2,1.1,0.3,1.2,0.2c1.2-0.4,3.8,0.3,5.7,0.5 c1.9,0.2,12.8,0.5,15.8,1.6C318.2,291.2,321.7,295.6,319.5,297.6z"></path> <path class="st4" d="M319.5,297.6c-2.2,2.1-7.5,1.2-10.2,0.7c-2.7-0.5-15.7-0.9-17.3-1.4c-0.5-0.1-1.1-0.3-1.7-0.5h0c0,0,0,0,0,0 s3.6-3.5,1.9-8.6l0.2-0.2c0.6,0.2,1.1,0.3,1.2,0.2c1.2-0.4,3.8,0.3,5.7,0.5c1.9,0.2,12.8,0.5,15.8,1.6 C318.2,291.2,321.7,295.6,319.5,297.6z"></path> <path class="st6" d="M256.9,261.7c0,0.1,0,0.1,0,0.1C256.6,262,256.7,261.9,256.9,261.7z"></path> <path class="st2" d="M316.1,237.7c-0.2-0.3-9.5-15-12-21.7c-2.5-6.7-8.6-9.8-11.5-10.7c-1-0.3-2.8-0.9-4.8-1.6 c-3.5-1.1-7.3-2.3-7.3-2.3h-12c0,0-4.1,1.4-8.5,2.9c0,0,0,0,0,0c-4.1,1.4-8.3,3-9.8,3.7c-3,1.5-8.1,12.2-9.1,13.5 c-1,1.2-8.9,15.8-10,21.5c-0.9,4.4,25,17.1,25.7,18.8c0.8-0.9,4.6-4.5,4.6-4.5s-1.2-0.8-2.9-1.9c6.9,0.3,23.9-0.3,26.3-0.2 c0.5,0,1,0,1.6,0c0,0,0,0,0,0c0.8,0.5,5.6,4.8,5.6,4.8s12-5,17.5-10.5C317.3,241.5,317,239.5,316.1,237.7z M248.1,247.4 c-2.6-3.1-6.1-4.9-5.2-6.3c0.9-1.4,8.4-14.4,8.4-14.4s3.9,8.5,5,13c1.1,4.4,1,6.5,0.5,7.9c-0.4,1.2-0.7,2.1-1.1,5.8 C252.7,251.3,249.3,248.9,248.1,247.4z M301,246c-1,1.1-5,3.7-8.6,5.8c-0.3-2.5-0.7-6.4-0.7-7.8c-0.1-2.1,0.8-8.2,1.9-10.5 c1.1-2.3,1.8-8.7,1.8-8.7s9.1,12.3,10.5,13.6C307.4,239.6,304.4,242.1,301,246z"></path> <g> <path class="st5" d="M276,168.5c0,0,9.4,1.5,7.9,16.1c-1.4,14.6-9.7,13.4-10.2,13.4c-0.6,0-8.3,0.3-8.9-17.6 C264.8,180.4,264.6,167.2,276,168.5z"></path> </g> <g> <path class="st5" d="M284.1,180.5c0,0,1-1.1,1.4,0c0.4,1.1-1.4,6-1.5,6.3c0,0-0.2,0.4-0.4,0.2 C283.3,186.7,284.1,180.5,284.1,180.5z"></path> </g> <g> <path class="st5" d="M265.1,180.3c0,0-1-1.1-1.4,0c-0.4,1.1,1.3,6.1,1.3,6.3c0,0,0.2,0.4,0.4,0.2 C265.7,186.5,265.1,180.3,265.1,180.3z"></path> </g> <g> <path class="st7" d="M284.1,182.7l-1.3,1.8c0,0,0-3.9-0.2-4.5c-0.2-0.6-0.5-2.5-0.7-2.9c-0.2-0.4-8-2.6-15,0.6 c0,0,0.3,2.8-0.4,3.1c-0.7,0.3-0.3,4.6-0.3,4.6l-1.1-1.2c0,0-1.7-11.3-1.3-12.4c0.4-1.2,1.7-8.2,16-4c0,0,4.4-0.9,5.3,2.1 C286,172.8,284.1,182.7,284.1,182.7z"></path> </g> <path class="st7" d="M262.2,276.3c0,0-14.3-8.6-20.6-9.9c-5.9-1.3-8.1-3.5-8.1-3.5s9.4,0,15.7,4.4 C253.5,270.3,262.2,276.3,262.2,276.3z"></path> <path class="st7" d="M275,282.3c0,0,24.9-13.1,35.1-15.9c5.8-1.6,8.1-3.5,8.1-3.5s-15.4,1.5-24.8,7.1 C288.9,272.7,275,282.3,275,282.3z"></path> <path class="st5" d="M265.9,295.5c-1.6,0.7-3.3,1.1-4.4,1.4c-1.6,0.5-14.7,0.9-17.3,1.4c-2.7,0.5-8,1.3-10.2-0.7 c-2.2-2.1,1.3-6.5,4.3-7.6c3-1.1,13.8-1.4,15.8-1.6c1.9-0.2,4.5-0.9,5.7-0.5c0.4,0.1,2.1-0.4,4.3-1.1 C264.2,288,265.9,295.5,265.9,295.5z"></path> <path class="st7" d="M275,294.2l24.5-7.2l-4.8-1.5C294.6,285.5,275,292.6,275,294.2z"></path> <polygon class="st4" points="275,294.2 286.4,290.7 278.5,295.4 "></polygon> <path class="st8" d="M267.1,265c0,0-0.2-0.1-0.5-0.3C266.8,264.8,267,264.9,267.1,265z"></path> <path class="st4" d="M261.5,296.9c-1.6,0.5-14.7,0.9-17.3,1.4c-2.7,0.5-8,1.3-10.2-0.7c-2.2-2.1,1.3-6.5,4.3-7.6 c3-1.1,13.8-1.4,15.8-1.6c1.9-0.2,4.5-0.9,5.7-0.5C259.8,287.9,256.5,292.9,261.5,296.9z"></path> <path class="st3" d="M253.4,262.9l-3.8-21.5l48.8-1.1l-3.1,21.1c0,0-15.6,5.7-20.9,9C274.4,270.4,261,265,253.4,262.9z"></path> <path class="st9" d="M277.2,254.4c0,1.8-1.2,3.2-2.7,3.2c-1.5,0-2.7-1.4-2.7-3.2c0-1.8,1.2-3.2,2.7-3.2 C276,251.2,277.2,252.6,277.2,254.4z"></path> <path class="st5" d="M280.7,201.4C280.7,201.4,280.7,201.4,280.7,201.4c-0.6-1.3-0.3-7.7-0.3-7.7s-11.9-3-11.6-0.7 c0.3,2.3-1,8.7-1,8.7l-6.1,2.1c0,0,6.5,17.5,14,15.2c7.5-2.3,10.3-15.9,10.3-15.9L280.7,201.4z"></path> <path class="st10" d="M269,195.6c0,0,1.9,2.4,5.2,2.4c2.2,0,3.7-0.5,5.9-2.7c0,0-0.9,4-5.9,4.3 C274.2,199.7,270.7,200.2,269,195.6z"></path> </g> <g> <g> <g> <g> <path class="st7" d="M474.2,63.7c0,0,6.9-0.7,9.4,6c2.5,6.7,4.8,8.9,5.1,12.4c1.2,14.2,7.8,11,6,19.2 c-1.9,8.2-3.2,9.4-3.2,9.4l-15.9-3.1l-16.1,0.1c0,0,6.3-3.1,4.9-9.8c-1.4-6.7-4.9-17.6-2.9-25.1 C463.6,65.2,470.1,64.2,474.2,63.7z"></path> </g> </g> </g> <g> <g> <path class="st4" d="M469.8,283.2c0,0-5,6.8-4.3,7.9c0.7,1.1,6.1,1.3,9.4,0c3.3-1.3,3.4-9.4,4.9-12.9c0.6-1.5-0.7-5.8-2.6-6.1 c-1.9-0.3-4.1,0.7-4.1,0.7S475.1,277.8,469.8,283.2z"></path> </g> </g> <g> <g> <path class="st5" d="M473.2,272.8c0,0-0.4,3.2-1,5.5c-0.6,2.3-4,7.5-3.9,8.1c0.2,0.6,4.4,1.2,6.1-0.4c1.7-1.6,3.1-6.3,3.2-9.2 c0.2-2.8-0.4-4.7-0.4-4.7S474.8,271.1,473.2,272.8z"></path> </g> </g> <g> <g> <polygon class="st4" points="479.9,278.3 479.9,285.5 478.9,285.5 478.9,279.9 "></polygon> </g> </g> <g> <g> <path class="st4" d="M482.8,283.2c0,0-5,6.8-4.3,7.9c0.7,1.1,6.1,1.3,9.4,0c3.3-1.3,3.4-9.4,4.9-12.9c0.6-1.5-0.7-5.8-2.6-6.1 c-1.9-0.3-4.1,0.7-4.1,0.7S488.1,277.8,482.8,283.2z"></path> </g> </g> <g> <g> <path class="st5" d="M486.2,272.8c0,0-0.4,3.2-1,5.5c-0.6,2.3-4,7.5-3.9,8.1c0.2,0.6,4.4,1.2,6.1-0.4c1.7-1.6,3.1-6.3,3.2-9.2 c0.2-2.8-0.4-4.7-0.4-4.7S487.9,271.1,486.2,272.8z"></path> </g> </g> <g> <g> <polygon class="st4" points="492.9,278.3 492.9,285.5 492,285.5 492,279.9 "></polygon> </g> </g> <g> <g> <path class="st5" d="M460.7,159.6c0,0-3.8,20.7-4.8,25.9c-1,5.2-3.9,30.3-4.2,34.6c-0.3,4.3,9.3,24.8,9.9,26.2 c10,23.7,11.2,29.1,11.2,29.1s3.3,2.1,4.8-0.4c0.5-0.8-6.2-27.9-7.3-35.5c-1-7-3.7-17.9-2.9-20.3c0.7-2.5,7.2-36.4,8.4-37.8 c1.2-1.4,3.1,0.8,3.8,4c0.7,3.2,2.2,30.4,3.2,33.9c0.9,3.5,0.2,15.2,0.7,21c0.5,5.9,2.6,33.4,2.6,33.4s4.1,0.7,4.5,0.1 c0.4-0.7,4-30.6,4.1-37.6c0.1-7,0.2-16.7,0.4-19.7c1.9-29.1,5.4-32.9-0.8-53.8C479.1,111.4,460.7,159.6,460.7,159.6z"></path> </g> </g> <g> <g> <path class="st4" d="M460.7,159.6c0,0-3.8,20.7-4.8,25.9c-1,5.2-3.9,30.3-4.2,34.6c-0.3,4.3,8.9,24.8,9.2,26.3 c0.2,1.5,7.8,23.4,7.8,23.4s7.7-0.1,9.8-2.1c0.4-0.4-7.1-20.6-8.2-28.1c-1-7-3.7-17.9-2.9-20.3c0.7-2.5,7.2-36.4,8.4-37.8 c1.2-1.4,3.1,0.8,3.8,4c0.7,3.2,2.2,30.4,3.2,33.9c0.9,3.5,0.2,15.2,0.7,21c0.5,5.9-0.6,26.9-0.6,26.9s10.1,0.5,10.5-0.1 c0.4-0.7,1.2-23.8,1.3-30.8c0.1-7,0.2-16.7,0.4-19.7c1.9-29.1,5.4-32.9-0.8-53.8C479.1,111.4,460.7,159.6,460.7,159.6z"></path> </g> </g> <g> <g> <path class="st2" d="M495.8,166.6c0.6-0.2-4.1-15.8-5.1-20.5c-0.8-4.2-3.7-8-0.9-15.2c1.6-4.1,1.5-8.9,1.5-8.9 s4.3,9.5,4.7,11.9c0.4,2.4-14.8-2-15-1.7c-0.4,0.6-0.8,4.8-0.8,6.2c0,1.2,22.1,6.4,24.7,1.8c0.7-1.3-4.1-26.4-7.2-29.8 c-5.1-5.5-18.4-10.2-18.4-10.2s-3.7-2-10.1,0.1c-6.4,2-15.5,8.3-17,9.9c-1.6,1.6-7.8,26.1-8.3,29.3c-0.5,3-0.3,9.3,6.5,8.5 l18.4-4.2l-1.1-5.6l-13.8,1.1c-2.8,0.5-1.5-2-1.1-3.4c0.4-1.3,3.8-13.8,3.8-13.8c-0.2,3.5,2.4,14.8,3.8,18.7 c1.4,3.9-1.6,25-1.8,27.3C458.4,168.1,469.5,177.2,495.8,166.6z"></path> </g> </g> <g> <g> <path class="st5" d="M482.3,101.4c0,0-4.5,9.4-8.3,12.1c0,0-6.8-10.2-6.5-12.6C467.5,100.9,475,97.6,482.3,101.4z"></path> </g> </g> <g> <path class="st5" d="M482.4,133c0,0-2.1-0.8-2.7-1.6c-0.6-0.8-2.4-1.2-3.8-0.8c-1.4,0.4-0.6,6.3-0.6,6.3l7.3,0.9L482.4,133z"></path> </g> <g> <g> <path class="st5" d="M469.3,137.5c0,0,0.7-3.8,0.5-4.5c-0.2-0.7,1.2-1.4,1.4,0.3c0.2,1.7,0.3,2.9,0.3,2.9L469.3,137.5z"></path> </g> </g> <g> <path class="st3" d="M472.3,140.2l5.3-0.2c0.7,0,1.2-0.6,1.2-1.3l0.1-11.6c0-0.7-0.6-1.3-1.3-1.3l-6.3,0.2 c-0.7,0-1.3,0.7-1.2,1.4L471,139C471,139.7,471.6,140.2,472.3,140.2z"></path> </g> <g> <g> <path class="st5" d="M469.1,137.8c0,0-0.1-1.1,2-2.1c2.8-1.3,6.5-2.7,7.1-2.3c0.9,0.5,0.4,1.2-1.3,1.8 c-1.8,0.6-2.3,0.8-2.3,0.8s3.4-0.3,4.2,0.1c0.8,0.4,0.8,1.4,0.3,1.5c-0.6,0.2-1.9,0.2-1.9,0.2s1.5,0.1,1.6,0.6 c0.1,0.4,0.2,1.1-1.2,1.3c0,0,0.9,1-0.5,1.7c-1.4,0.7-3.9,1.3-5.2,1.5c-2.6,0.4-8.6,0.1-8.6,0.1l2.5-4.2c0,0,1.4,0.1,2.3-0.2 C469.3,138.3,469.1,137.8,469.1,137.8z"></path> </g> </g> <g> <polygon class="st2" points="467.6,138.2 468.7,143.8 457,146.5 456.5,139.1 "></polygon> </g> <g> <path class="st2" d="M481,132.2c0,0-1,2.1-0.8,6.2c0,0,7.3,2.7,12.9,3.3v-7.1L481,132.2z"></path> </g> <g> <path class="st0" d="M468.7,143.8l-8.2,4.6c0.1-1,0.1-1.9,0.1-2.7L468.7,143.8z"></path> </g> <g> <path class="st0" d="M490.3,144.4c-6.6-2.6-9.2-5-10-5.7c-0.2-0.2-0.2-0.2-0.2-0.2l9.4,2.7c0,0,0,0,0,0 C489.8,142.3,490.1,143.4,490.3,144.4z"></path> </g> <g> <g> <g> <path class="st5" d="M475.1,67.6c0,0,9.2,1.3,7.8,14.9c-1.3,13.5-9.4,12.5-10,12.5c-0.5,0-8.1,0.3-8.8-16.2 C464.2,78.6,463.9,66.4,475.1,67.6z"></path> </g> </g> </g> <g> <g> <g> <path class="st5" d="M479.2,92.5c0,0-0.6,7,0.8,9.2c1.4,2.1-1.2,5-6.3,4c-5.2-1-4.9-3.9-4.9-3.9s1.5-4.3,1-7.8 C469.4,90.4,479.2,92.5,479.2,92.5z"></path> </g> </g> </g> <g> <g> <g> <path class="st7" d="M474.1,72.5c0,0,4.3,4.5,6.3,6.8c2,2.3,2.2,6.7,2.2,6.7s3.4-4.1,2-8.9c-1.4-4.8-4.7-14-13.1-11.2 c-8.4,2.9-8.7,15.4-7.7,21.6C463.7,87.5,467.5,73.8,474.1,72.5z"></path> </g> </g> </g> <g> <g> <path class="st10" d="M470.5,94.3c0,0,3.9,1.8,7.7-0.9c0,0-1.1,2.2-3.9,2.5C471.5,96.2,470.5,94.3,470.5,94.3z"></path> </g> </g> <g> <path class="st7" d="M469.1,96.7c0,0-12.6,11.2-9.3,18.2c2.8,6,12.7,2.3,11.1-4C469.2,104.7,469.1,96.7,469.1,96.7z"></path> </g> <g> <path class="st1" d="M472.6,128.3c0,0.4-0.4,0.8-0.8,0.8c-0.4,0-0.8-0.4-0.8-0.8c0-0.4,0.4-0.8,0.8-0.8 C472.2,127.5,472.6,127.8,472.6,128.3z"></path> </g> </g> <g> <g> <polygon class="st3" points="131.3,284.2 122.1,223 123.9,222.7 133.1,283.9 "></polygon> </g> <g> <polygon class="st3" points="120.1,284.2 110.9,223 112.6,222.7 121.8,283.9 "></polygon> </g> <g> <polygon class="st3" points="64.7,284.2 62.9,283.9 72.1,222.7 73.9,223 "></polygon> </g> <path class="st3" d="M125,223.6l7.2-75.9c0,0-12.6-1.6-20.2-1.2l-11.5,77.1H125z"></path> <rect x="100.5" y="219.7" class="st3" width="24.5" height="3.9"></rect> <path class="st3" d="M84.5,220.5l-3.8-72.3c0,0,31.9-3.5,51.5-0.5L84.5,220.5z"></path> <path class="st7" d="M110,124.8c0,0,4.9-14.5-4.5-18.9c-9.4-4.5-17.4,2-18.9,5.5c-1.5,3.5-1.1,9.9,0.2,14.3 c1.3,4.4,1.1,11.2-1.7,13.5c-2.8,2.3-6.3,6-6.1,13.7c0.1,4.7,18.7-12.1,18.7-12.1L110,124.8z"></path> <path class="st4" d="M97.4,280.3c0,0-0.3,10.2,1.2,10.8c1.5,0.6,7-2.9,9.4-6.5c2.4-3.5-3.1-11.7-4-16.2c-0.4-1.9-4.7-5.3-6.8-4.3 c-2.1,1-3.6,3.5-3.6,3.5S99,271.3,97.4,280.3z"></path> <g> <path class="st11" d="M93.7,267.7c0,0,1.8,3.5,2.7,6.2c0.9,2.7,1.1,10.2,1.7,10.7c0.6,0.5,5.2-1.8,5.8-4.6 c0.6-2.8-1.3-8.4-3-11.3c-1.8-2.9-3.6-4.4-3.6-4.4S94.1,264.8,93.7,267.7z"></path> </g> <polygon class="st4" points="104.1,268.5 109,275.8 108.1,276.4 104.2,270.8 "></polygon> <path class="st11" d="M86.2,188.3c0,0,2.4,4.1,0,7.1c-2.4,3-18.8,11.2-18.7,15.9c0.1,4.7,3.1,12.2,4.2,14s5,9.7,7.1,14.3 c2.1,4.6,14,26.5,16.3,31.4c2.3,4.9,0.9-19.7,0.9-19.7l-11.9-35l27.9-27.1C112,189.2,108.6,181.7,86.2,188.3z"></path> <path class="st4" d="M96.8,142c0,0-7.7,1.7-10.8,3.5c-3.1,1.8-9.9,10-9.9,13.6c0,3.5,29.8,6.9,29.8,6.9l5.6,20.6 c0,0,15.1-3.7,16.9-6.7c1.8-3-5.9-24.7-7-29.3c-1.1-4.6-6.7-7.7-13-8.5C102.1,141.1,96.8,142,96.8,142z"></path> <path class="st5" d="M115,189c0,0-0.5,3.5,0.9,5c1.4,1.5,8,10.2,4.5,18.8c-3.2,7.9-9.4,7.7-9.4,7.7h-9.6c0,0,2.8,14.2,1.9,23.5 c-0.9,9.3-5.2,30.6-5.2,31.7c-0.1,1.1-4.1,4.4-5.2,2.7c0,0-0.1-12.8-0.7-17.7c-0.6-4.8-3.3-24.2-4.1-27.1 c-0.8-2.9-5.6-11.6-5.6-12.5c0-0.9-4.6-14.9,5.5-18.5C98,199.1,101.6,189,115,189z"></path> <path class="st4" d="M88,288.3c0,0-6.7,7.8-5.9,9.2c0.7,1.4,7.3,2.1,11.4,0.9c4.1-1.2,5-11,7.1-15.1c0.9-1.7-0.3-7-2.5-7.6 c-2.2-0.6-5,0.4-5,0.4S94.9,282.2,88,288.3z"></path> <g> <path class="st5" d="M93,276.1c0,0-0.8,3.8-1.8,6.5c-1,2.7-5.6,8.6-5.4,9.4c0.1,0.8,5.2,1.9,7.4,0.1c2.2-1.8,4.3-7.3,4.8-10.7 c0.5-3.4,0-5.7,0-5.7S95.2,274.1,93,276.1z"></path> </g> <polygon class="st4" points="100.6,283.2 99.9,292 98.7,291.9 99.3,285.1 "></polygon> <path class="st4" d="M120.5,212.8c-3,8-9.4,7.7-9.4,7.7h-9.6c0,0-4-6.4-13.9-7.5c-2.2-0.2-4.7-0.2-7.4,0.2c0,0-0.1,0-0.1,0 c-13.1,1.9-10.6,6.7-10.5,6.9c-1.1-2.7-2.2-6.9-2-9.2c1.3-10.4,16.2-12.5,18.7-15.5c2.4-3,0-7.1,0-7.1 c22.4-6.6,25.8,0.9,25.8,0.9c1-0.1,3.5-1.6,4.6-1.6c0,0,1.1,2.5,1.9,4.7C119.1,194.2,123.8,204.1,120.5,212.8z"></path> <polygon class="st3" points="111.2,155.7 114.5,186.6 70.8,186.6 67.5,155.7 "></polygon> <rect x="110.7" y="183.8" class="st3" width="7.3" height="2.8"></rect> <rect x="40.7" y="186.6" class="st7" width="120.3" height="4.2"></rect> <path class="st5" d="M101.6,108.3c0,0,9.8,2.9,8.4,16.5c-1.4,13.6-7.8,12.9-8.4,13c-0.6,0.1-8.2,0.6-10.6-15.9 C88.6,105.4,101.6,108.3,101.6,108.3z"></path> <path class="st5" d="M106.3,135.3c0,0-0.5,4.5,0.3,7.3c0.9,2.8-11.4,2.9-11.4,0.6c0-2.6,1.3-4.8,0.1-9.3 C94.1,129.4,106.3,135.3,106.3,135.3z"></path> <path class="st7" d="M99.1,114.4c0,0,5.3,8.5,10.9,10.4c0,0,3.1-14.2-9.6-17.2c-12.6-3-10.6,14.3-9.7,18.9 C90.7,126.6,93.3,119.8,99.1,114.4z"></path> <path class="st10" d="M96.7,135.8c0,0,3.9,4,8.8,0.4c0,0-0.4,2.6-4,2.9C98,139.5,96.7,135.8,96.7,135.8z"></path> <path class="st4" d="M91.9,113.1c0,0,2.8-5.4,7.5-5.7c4.7-0.2,7.5,3.9,7.5,3.9s-1.8-4.6-7.5-4.6S91.9,113.1,91.9,113.1z"></path> <path class="st5" d="M107.9,141.9c0,0-0.2,9.4-7.6,9.7c-7.5,0.3-5.9-9-5.9-9S99.8,140.4,107.9,141.9z"></path> <rect x="157.9" y="190.8" class="st3" width="3.1" height="96.4"></rect> <rect x="40.7" y="190.8" class="st3" width="3.1" height="96.4"></rect> </g> <g> <path class="st5" d="M405.5,105.5c0,0,9.6,2.8,9,15.8C413.9,134.3,405.5,105.5,405.5,105.5z"></path> <g> <path class="st5" d="M404.6,105.5c0,0,0.7,1-0.2,7.5c-0.9,6.5,0.8,9.2,1,11.9c0.2,2.7,3.4,20.1,3.5,20.9 c0.1,0.8,0.5,10,1.7,12.5c1.2,2.5,10.3,16.4,10.4,17.1c0.1,0.7,4.4-2.4,4.4-2.4s-8.1-16.9-8.7-18.6c-0.7-2.1-2.7-7.2-2.8-9.9 c-0.3-6.6,0.3-21.8,0.1-25.1C413.7,113,408.8,106.5,404.6,105.5z"></path> </g> <g> <g> <g> <path class="st12" d="M416.8,161.1c0,0,1.4,3.1,2.3,3.3c0.8,0.2,1.8,1.2,2.6,1.6c0.7,0.3,3,0.5,3.6,1.1 c0.2,0.2,1.2,2.3,1.8,2.8c0.6,0.4,1.8,1.2,1.4,1.7c-0.4,0.5-1.7,0.1-1.7,0.1s0.5,0.4,0.3,0.9c-0.4,1-1.1,1.1-1.1,1.1 s0.2,0.8-0.1,1.1c-0.6,0.8-1.3,0.9-1.3,0.9s-0.1,0.6-0.6,1c-0.7,0.6-1.5,0.3-1.5,0.3s-0.7,0.9-1.3,0.8c-0.6-0.2-1-0.6-1.4-0.9 c-0.4-0.3-3.6-3.8-4.7-7.2c-1.1-3.3-3.1-6.1-3.1-6.1L416.8,161.1z"></path> </g> </g> </g> <rect x="403.6" y="138" transform="matrix(0.6299 0.7767 -0.7767 0.6299 279.0257 -264.4961)" class="st3" width="27" height="45"></rect> <g> <g> <path class="st13" d="M426.6,171.1c0,0-2.7-3-4.1-3c-1.4,0.1-0.4,1.2-0.4,1.2s-0.9-1.1-1.9-0.5c-1,0.6,0.2,1.9,0.2,1.9 s-0.9-0.7-1.6,0.3c-0.7,1,0.5,1.8,0.5,1.8s-1.8-0.3-1.4,1.2c0.6,2.5,3.3,3.7,3.3,3.7s0.7,0.2,1.4-0.8c0,0,1.7,0.6,2.1-1.3 c0,0,2-0.5,1.3-2C426,173.6,428.1,172.9,426.6,171.1z"></path> </g> </g> <path class="st7" d="M396.7,67.5c0,0-13.8-1.2-13.5,13.4c0.4,14.6,2.7,16.7,0,27c-2.7,10.3,13.5-5.8,13.5-5.8L396.7,67.5z"></path> <path class="st12" d="M381.7,157.5c0,0-5.1,6.5-6.9,10.8c-1.8,4.3-4.8,13.7-4.4,21c0.4,7.3,2.8,21,2.1,24.1 c-0.7,3.1-1.4,9.5-2.1,11.7c-0.8,2.2-3.7,8.6-4,15.2c-0.3,6.6,4.2,35.6,4,38.3c-0.2,2.7,5.1,1.1,5.1,1.1s1.8-26.2,2.8-30.7 c1-4.5,2.2-19.8,3.1-20.9c0.9-1.1,3.4-12.5,3-14.3c-0.4-1.8,9.8-28.8,10.4-34.2s15.6-22.1,15.6-22.1S397.2,152.4,381.7,157.5z"></path> <path class="st12" d="M406,157.5c0,0,0.3,2.7,0.6,3.7c0.3,1,7.2,26.5,7.9,36.3c0.7,9.8,2.5,18.1,2.8,20.2 c0.3,2.1-0.3,9.1-0.9,10.9c-0.6,1.8,3,44.3,3.3,45.3c0.3,1-2.4,1.3-4.3,1c-1.9-0.3-11.5-31.2-10.9-36.4 c0.6-5.2,1.2-16.3-0.5-20.8c-1.7-4.5-17-37.1-17.1-39.1C386.8,176.6,380.2,142.2,406,157.5z"></path> <path class="st12" d="M375.3,276.4c0,0,0.5,3.4,1,4.4c0.5,0.9,2,5.7,2.7,6.6c0.7,0.9,2.2,7.6,0,8.4c-2.2,0.8-7.2,2.2-8.9-0.5 c-1.7-2.7-1.9-5.4-1.7-7.4c0.3-2.1,2.3-11.5,2.3-12.5C370.7,274.5,375.3,276.4,375.3,276.4z"></path> <path class="st4" d="M378.1,285.6c0,0,0.2,5.2-3.7,5.2c-3.9,0-5.7-4.8-5.7-4.8s-1.3,2.3,0,7.3c1.3,5,6.9,3.9,8.2,3.8 C378.2,296.9,384.1,295.4,378.1,285.6z"></path> <path class="st4" d="M419.2,271.7c0,0,2.8,5,4.4,6c2.1,1.3,6.1,5.3,7.5,5.5c1.4,0.2,6.4,1.1,5.5,3.9c-0.8,2.3-12.8,2-14.1,0.8 c-1.4-1.2-5.4-5.3-7-5.3c-1.6,0.1-1,6-1,6h-1.8c0,0-0.6-5.8-0.7-6.8c-0.2-2.9,1.9-5.1,2-6.8c0.1-1.7,0.2-2.9,0.2-2.9L419.2,271.7 z"></path> <path class="st12" d="M430.7,283.1c0,0-4,1.4-7-0.4c-3-1.7-8.9-4.4-10.9-4.4c0,0,1.1-3.4,1.1-3.8c0-0.4,0.1-2.2,0.1-2.2l5.1-0.8 c0,0,3.3,4.9,4.8,6C425.4,278.6,429.1,281.4,430.7,283.1z"></path> <path class="st4" d="M410.4,157c0,0,1.4,5.9,1.9,7.6c0.5,1.7,3.9,28.5,4.7,45.2c0,0-20.2,7.6-47.9,6.4c0,0-0.7-30.7,1.9-39.4 c2.5-8.7,7.2-16.8,10.6-19.3C384.8,155.2,410.4,157,410.4,157z"></path> <path class="st2" d="M413.8,122c-0.2,3.5-1.7,5.8-2,7.1c-0.3,1.3,0,4.2-0.4,7.1c-0.4,2.9-1.5,16.9-1.1,20.8 c0.4,4-27.3,2.2-29.4,1c0,0,4.7-8.3,4.8-11.8c0-1.2,0.8-4.9-1.2-7.6c-1-1.4-2.9-6-4.8-9.3c0,0,0.4-0.7,0,0 c-0.7-1.3-1.5-2.6-2.1-3.5l0,0c-0.7-1.2-1.1-2.7-1.1-2.7s-1.2-15.3,2.1-17c3.4-1.7,5.2-2,8.5-2.2c3.3-0.2,5.5-0.8,5.5-0.8 l7.7,0.8c0,0,2.7,1.3,4.7,1.4c1.9,0.1,4.3,4.4,5.5,7.4C411.6,115.4,414.1,118.5,413.8,122z"></path> <path class="st5" d="M382.9,104.5c0,0-6.1,0.5-8.4,6.1c-2.3,5.6-2.1,11.3-2.6,13.4c-0.5,2.1-1.2,14.1-1.8,15.9 c-0.5,1.8-2.3,10-2.7,16.7c-0.4,6.7,0.6,20.7,0.6,20.7l3.4-1.6c0,0,3-20.8,4.3-25.2c1.1-3.8,1.1-10.2,1.7-12.5 c0.6-2.3,4.5-16.2,5.1-17.6C383.5,118.2,388.2,104.5,382.9,104.5z"></path> <path class="st5" d="M395.4,69c3.4-0.6,11.3,0.3,13.5,9.3c0,0,0,2.5-0.4,4.5c-0.4,2,2,7.5,1.6,7.8c-0.4,0.3-2.3,0.9-2.3,0.9 s-1.3,6.5-3.5,6.7c-2.2,0.2-10.7-0.6-15.5-7.9C384.1,83,381.5,71.3,395.4,69z"></path> <path class="st5" d="M401.1,95.7c0,0-0.2,0.9-0.3,2.2c-0.1,0.7-0.2,1.5-0.2,2.3c-0.1,2.3-0.1,5,0.7,6.7c0,0-4.3,2.6-8.9-3.8 c0,0,0.5-7.9-2.2-12.2C387.5,86.8,401.1,95.7,401.1,95.7z"></path> <path class="st7" d="M408.9,78.3c0,0-5.2,4.5-10.6,5.9c-5.5,1.4-8.4,7.5-8.4,7.5s-9.7-9.7-3.8-19 C391.9,63.3,408.9,67.5,408.9,78.3z"></path> <path class="st10" d="M400.8,97.9c-0.1,0.7-0.2,1.5-0.2,2.3c-4.8-2.3-7.5-5.5-7.5-5.5C395.9,96.7,400.8,97.9,400.8,97.9z"></path> <path class="st7" d="M397.3,84.5c0,0-5.6,15-4.9,18.7c0,0-3-0.5-8.2,1.1C384.1,104.2,386.6,77.4,397.3,84.5z"></path> <path class="st5" d="M390.5,103.6c0,0,1.8,11.3,8.7,10c6.8-1.3,1.6-9.5,1.6-9.5S397.7,101.6,390.5,103.6z"></path> <path class="st5" d="M371.5,175c0,0,0.5,1.8,1.4,3.6c0.4,0.9,1,6.8,1,7.6c0,0.6-0.4,0.3-0.7-0.1c-0.1-0.2-0.7-2.3-1.1-3.3 c-0.4-0.9-0.7-1.2-0.8-0.9c-0.1,0.3-0.1,4.1,0.3,5.7c0.5,1.6,0.4,5.4-0.5,4.9c-0.9-0.5-3.4-7.1-3.4-9.7c0-2.6,0.4-5.7,0.4-5.7 L371.5,175z"></path> </g> </g> </g> </svg> 