<?xml version="1.0" encoding="UTF-8"?> <!-- Generator: Adobe Illustrator 23.1.0, SVG Export Plug-In . SVG Version: 6.00 Build 0) --> <svg xmlns="http://www.w3.org/2000/svg" xmlns:xlink="http://www.w3.org/1999/xlink" id="Ñëîé_1" x="0px" y="0px" viewBox="0 0 651.2 361.9" style="enable-background:new 0 0 651.2 361.9;" xml:space="preserve"> <style type="text/css"> .st0{fill:#00CECE;} .st1{fill:#00BDC7;} .st2{fill:#E0AB82;} .st3{fill:#233C67;} .st4{fill:#3B639F;} .st5{fill:#41B792;} .st6{fill:#E1AA82;} .st7{fill:#4AD6AE;} .st8{fill:#D09E78;} .st9{fill:#E2AD86;} .st10{fill:#A0D5D9;} .st11{fill:#DAE9FD;} .st12{fill:#85C0D5;} </style> <g> <g> <g id="chair_x5F_1"> <path class="st0" d="M78,234.9c-16.1-5.4-20.4-22.5-22-32c-1.8-10.8-2.5-22.4-2.6-32c-0.3-17.3,13-32.1,30.2-33.3 c3.6-0.3,7.6-0.2,11.8,0.4c19.4,2.4,34.4,17.6,37.9,36.8c2.2,11.8,7.5,21,15.6,39.3c0,0,5.1,13.5-10.8,16.3 C122.4,233,94.3,240.4,78,234.9z"></path> <g> <rect x="94.8" y="236.9" class="st1" width="6" height="60.7"></rect> <path class="st1" d="M71.5,219.2c14.3,4.7,28.3-3.1,48.5-2.5c33.4,1,25.8,11.2,25.8,11.2S109.7,243.3,78,235 c-16.5-4.3-20.8-23.8-22.2-33.4C57.2,208.6,63.3,216.4,71.5,219.2z"></path> <path class="st1" d="M97.7,297.3L97.7,297.3c8.6,0,30.1,4.5,30.1,10v0H67.7v0C67.7,301.7,89.2,297.3,97.7,297.3z"></path> </g> </g> <g id="chair_x5F_3"> <path class="st0" d="M463.4,234.9c16.1-5.4,20.4-22.5,22-32c1.8-10.8,2.5-22.4,2.6-32c0.3-17.3-13-32.1-30.2-33.3 c-3.6-0.3-7.6-0.2-11.8,0.4c-19.4,2.4-34.4,17.6-37.9,36.8c-2.2,11.8-7.5,21-15.6,39.3c0,0-5.1,13.5,10.8,16.3 C419,233,447.1,240.4,463.4,234.9z"></path> <g> <rect x="440.7" y="236.9" transform="matrix(-1 -1.224647e-16 1.224647e-16 -1 887.4169 534.5214)" class="st1" width="6" height="60.7"></rect> <path class="st1" d="M469.9,219.2c-14.3,4.7-28.3-3.1-48.5-2.5c-33.4,1-25.8,11.2-25.8,11.2s36.2,15.4,67.9,7.1 c16.5-4.3,20.8-23.8,22.2-33.4C484.2,208.6,478.2,216.4,469.9,219.2z"></path> <path class="st1" d="M443.7,297.3L443.7,297.3c-8.6,0-30.1,4.5-30.1,10v0h60.2v0C473.8,301.7,452.3,297.3,443.7,297.3z"></path> </g> </g> <g id="man_x5F_3_1_"> <g> <g> <polygon class="st2" points="370.5,286.1 369.9,301.1 359.6,299.9 357.8,286.1 "></polygon> <g> <path class="st3" d="M370.8,298.3l0,8.9l-30.7,0l0-0.1c0-1.3,0.7-2.4,1.8-3l16.2-7.6c0.6-0.3,1.3-0.1,1.6,0.5 c0.6,1.2,2,2.8,5.5,2.8c2.7,0,4.1-0.9,4.8-1.7C370.3,297.7,370.8,297.9,370.8,298.3z"></path> </g> </g> <g> <polygon class="st2" points="400.2,285.7 400.3,301.1 390,299.9 388.3,286.1 "></polygon> <g> <path class="st3" d="M401.3,298.3l0,8.9l-30.7,0l0-0.1c0-1.3,0.7-2.4,1.8-3l16.2-7.6c0.6-0.3,1.3-0.1,1.6,0.5 c0.6,1.2,2,2.8,5.5,2.8c2.7,0,4.1-0.9,4.8-1.7C400.8,297.7,401.3,297.9,401.3,298.3z"></path> </g> </g> <path class="st4" d="M410.7,191.7c0,0-42.7,10.6-52.4,14.5c-9.7,3.9-10.9,10-10,21.5c0.9,11.5,8.6,58.4,8.6,58.4h14.7l2.4-53.7 c0.1-1.6,1.2-3,2.8-3.4l27.2-7.6l27.7-25.7v-4.2L410.7,191.7z"></path> <path class="st3" d="M463.9,194.5c0,0,0.6,19.9-11.5,24.2c-10,3.5-37,9.7-45.9,11.7c-1.7,0.4-3,1.9-3,3.7l-2.3,51.8l-14,0.4 l-9.7-56.7c0,0-2.6-9.7,5-17.2c7.6-7.6,40.9-17.5,40.9-17.5L463.9,194.5z"></path> </g> <g> <path class="st5" d="M366.2,97.9l15.7,31.6c0.5,1.1,2,1.3,2.9,0.5c3.3-3.2,10.5-10,13.2-12.8c3.8-4,12.8-11.7,19.5-11.6 c0,0,9.4,1,8.5,7.2c-0.9,6.2-19.4,25.2-26,30.7c-4.6,3.8-12.4,8.9-17.4,11.2c-2.2,1-5.6-0.3-6.9-2.2 c-7.6-11.2-20.7-50.6-20.7-50.6L366.2,97.9z"></path> <path class="st6" d="M365.3,98.3l-0.8-2.2c-0.1-0.3-0.2-0.7-0.2-1l-0.6-10.1c0-0.7-0.3-1.4-0.8-2l-12-14.2 c-0.6-0.7-1.7-0.5-2,0.3c-0.3,0.8-0.4,2,0.6,3.4c2,2.9,4.6,6.3,4.6,6.3s-5.8,6.4-6,7.6s4.1,11.2,4.7,12c0.6,0.8,2.6,1.8,2.6,1.8 l0.5,1.5L365.3,98.3z"></path> </g> <path class="st7" d="M409.5,108c4.1-2.8,11.4-6.9,25.5-7.3c18.3-0.5,25.8,5.2,28.1,7.9c3.3,3.7,0.9,65.3,0.9,65.3s0.1,1.7,0,21.4 c-10.3,5.5-51,2.8-57-2.7C401.3,157.8,404.7,111.2,409.5,108z"></path> <g> <path class="st5" d="M458.6,167.8c-0.6-3.7-8.7-31.3-9.7-35.5c-1.6-6.2-4.1-15.9-0.2-21.3c0,0,2.5-5.8,9.5-4.4 c3.6,0.7,9,3.1,11.4,11c5.4,18,7.3,42.5,7.7,51.1C477.3,169.2,461.4,170.8,458.6,167.8z"></path> <g> <path class="st2" d="M423.6,206.7c7-1.6,10.8-6.9,10.8-6.9l2.3-1.4l-6-7.7c0,0-2.4,2.4-3.1,2.6c-7.9,2.2-12,2.7-15.9,4.9 c-2.7,1.5-7.2,4.7-8.2,7.8c-0.6,2,7.6,9,9.7,7.2C417.9,209.1,420,207.5,423.6,206.7z"></path> <path class="st5" d="M430,189.8c0,0,5.2-4.9,26.8-23.5c0.8-0.7,1.2-1.1,0.5-3.7c-1.7-6.1,18.3-8.4,19.2-4.9 c1,3.9,0.8,4.1,1.4,7c0.5,2,0,4.3-0.7,5.3c-8.2,10.8-39.8,29.2-39.8,29.2L430,189.8z"></path> <path class="st2" d="M409.4,195.2c-0.4-0.4,0-1.1,0.5-1.3c2-0.8,7.2-1.5,10.2-1.9c3.8-0.5,7.5,1.2,7.5,1.2l-11.7,4 c-0.7-0.8-2-0.5-3.8-0.8C410.3,196.2,409.9,195.8,409.4,195.2z"></path> </g> </g> <g> <path class="st8" d="M425.5,88.6l0,15c0,0,0.2,4.4,6.3,4.3c5.5-0.1,10-3.3,10.1-5.8c0-2.5-0.9-20.1-0.9-20.1L425.5,88.6z"></path> <g> <path class="st9" d="M411.5,64.1c0,0,0.5,14,1,17.9c0.5,3.9,3.1,12.6,5.5,14.3c1.8,1.3,5.2,2.5,10.8-0.1c5.2-2.3,8.3-6,9.8-8.5 c1.8-2.9,3.2-5.3,3.2-5.3l3.9-6.9c0,0-3.9-13.4-4-13.7c-0.1-0.4-16.2-9.2-23.1-6.5C411.6,58.2,411.5,64.1,411.5,64.1z"></path> <path class="st4" d="M443.8,60.2c0,0,1.1-4.5-4.8-8.5c-3.5-2.4-13.8-3.8-19.5-2.7c-4.8,0.9-9.6,3.5-10.3,10.6 c-0.4,3.6,2.5,9.2,2.5,9.2s-0.7-6.2,2.7-8.3c3.5-2.1,8.5-2.1,12.3-1.1c3.8,1,6.6,2.3,7.5,2.1c1-0.2-0.7,2.8,0.5,5.8 c3.3,7.9-1.9,14.1,2.5,12.4c1.8-0.7,3.4-4.9,3.5-6.1c0.1-1.2,2.1-2.2,2.9-1c0.8,1.2,0.1,6.9-1.9,8.3c-2,1.5-0.5,8.1-0.5,8.1 s4.5-6.4,7.1-14.6c0.6-1.9,1.2-7-0.3-10.5C446.5,59.7,443.8,60.2,443.8,60.2z"></path> <path class="st9" d="M441.2,72.6c0,0,3-2.7,4.8,0.3c1.5,2.4-0.7,7.5-2.8,8.7c-0.9,0.5-3.5,0.8-3.7-2.7 C439.4,75.5,441.2,72.6,441.2,72.6z"></path> </g> </g> </g> <g id="man_x5F_2_1_"> <g> <polygon class="st6" points="132.6,284.7 130,299.5 140.7,300.9 145.5,285.9 "></polygon> <polygon class="st6" points="177.1,286.6 181,301.3 191,298.6 189.5,285.5 "></polygon> <path class="st3" d="M129.1,297.7v9.5h31l1.9-0.1c0-1.3-0.7-2.4-1.8-3l-16.3-7.6c-0.6-0.3-1.4-0.1-1.8,0.5 c-0.8,1.2-2.6,2.9-6.1,2.9c-3.4,0-5.2-1.4-6.1-2.4C129.6,297.1,129.1,297.3,129.1,297.7z"></path> <path class="st3" d="M179.4,298.4v8.9H210v-0.1c0-1.3-0.7-2.4-1.8-3l-16.2-7.6c-0.6-0.3-1.3-0.1-1.6,0.5c-0.6,1.2-2,2.8-5.5,2.8 c-2.7,0-4.1-0.9-4.8-1.7C179.9,297.8,179.4,297.9,179.4,298.4z"></path> <path class="st4" d="M113.1,194.5l15.7-3c0,0,33.2,4.5,41.3,6.6c13.5,3.5,14.7,9.4,15.7,23.5c4.5,63.7,0.2,0.1,4.7,63.8 c-10.7,1-15.3,1.4-15.3,1.4l-12-41.7l-8.8-33.7l-35-12.2L113.1,194.5z"></path> <path class="st3" d="M72.7,194.1c0,0,0,0-0.1,10.4c0,4.9,3,14.8,15.9,16.7c14.3,2.1,39.2,5.8,48.9,8.1c2.1,0.5,3.5,2.6,3.1,4.7 l-9.3,52.3l14.7,2.3c0,0,23.5-52.2,26.1-67.2c1.8-10.2-4-16.6-13.5-17.9c-9.5-1.4-42.4-9.7-42.4-9.7l-2.2-3.1L72.7,194.1z"></path> </g> <g> <path class="st5" d="M148.9,162.2c6,0.5,11.5-5.3,7.4-15.2c0,0-16.7-23.9-20-30c-2.8-5.2-6.9-13.3-17.6-15.8 c0,0-5.6-1.5-8.5,3.9c-0.8,1.4-1.4,5.4,2,12c7,13.8,21,33.7,32.1,42.9C144.3,160.2,146.3,161.9,148.9,162.2z"></path> <path class="st5" d="M154.7,144.1c-12,0.2-13.2,9.5-9,15.8c1.2,1.5,3.5,2.4,5.2,2.3c29-1.3,50.3-4.7,50.3-4.7l1-11.4 L154.7,144.1z"></path> <path class="st1" d="M191.4,162.2l18.5,0c1.2,0,2.1-1,2.1-2.1l5.6-28.1c0-1.2-1-2.1-2.1-2.1l-18.5,0c-1.2,0-2.1,1-2.1,2.1 l-5.6,28.1C189.3,161.2,190.2,162.2,191.4,162.2z"></path> <path class="st2" d="M213.1,154.4c0.1-1.9-1.8-3.4-6.1-6.4c-2.1-1.5,1.3-13.1,3.4-12.7c1.3,0.2,6.1,3.8,7.2,6 c0.6,1.3-0.2,7.9-1.7,11.8C215.3,154.5,214,154.9,213.1,154.4z"></path> </g> <path class="st7" d="M130.6,110.2c-0.6-3.5-3-5.3-6.1-6.9c-5.4-2.7-20.7-5.7-25.8-5.9c-16.5-0.6-25.4,5.2-27.4,8.6 c-2.4,3.9-3.5,5.5-3,15.7c1.9,39.5,2.7,43.7,4.4,72.4c8.7,5.4,52.5,1.8,56.5-2.6C132.2,150.8,133.5,128,130.6,110.2z"></path> <g> <path class="st5" d="M111,162.2c6-0.1,10.9-6.5,5.8-15.8c0,0-15.7-20.1-19.3-26c-3.9-6.2-9.2-15.8-18.5-16.8 c0,0-6.4-0.8-9.3,5.1c-1.9,3.8-4,11.2,0,17.4c8.3,13,24.5,26.6,36.5,34.7C106.2,160.7,108.4,162.2,111,162.2z"></path> <path class="st5" d="M112.8,143.4c-11.7,2.6-11,12-5.7,17.3c1.4,1.2,3.9,1.6,5.6,1.2c28.2-7,46.3-14.1,46.3-14.1l-1.3-11.4 L112.8,143.4z"></path> <path class="st6" d="M157.8,137l2-0.4c0.3-0.1,0.7-0.2,1-0.3l9.1-4.6c0.6-0.3,1.4-0.4,2.1-0.3l18.3,3.2c0.9,0.2,1.3,1.2,0.7,1.9 c-0.6,0.7-1.5,1.3-3.2,1.2c-3.5-0.2-7.8-0.9-7.8-0.9s-2.7,8.2-3.5,9c-0.8,0.8-8.9,1.7-10.6,1.7c-1.3,0-2.5-0.4-3.3-0.7 c-0.8-0.3-1.6-0.4-2.4-0.3l-1.3,0.2L157.8,137z"></path> </g> <g> <path class="st8" d="M113.8,87.7l-2.6,13c-0.7,3.7-3.6,5.1-7.4,5.1c-0.2,0-0.5,0-0.7,0c-4.5-0.4-9.9-3.9-9.4-6.6 c0.4-2.6,4.2-16.4,4.2-16.4L113.8,87.7z"></path> <path class="st6" d="M128,64.1c0,0,0.3,8.1-1.2,16.2c-1.5,8.1-5.4,17.3-11,18c-5.7,0.6-9.1-2.3-11.3-4.4c-5.1-4.8-6.5-11-6.5-11 s-3.6-22.6,2.6-25.5c6.2-2.9,18-2.7,22.1-0.6C126.8,58.8,128,64.1,128,64.1z"></path> <path class="st4" d="M108.3,59c-5,0.2-4.4,9.1-4.3,13.5c0.1,2.2,0,4.2-1.1,5.7c-1,1.4-2.1,0.5-2.1,0.5l-5.5-7 c0,0-2.3-5.8-0.4-13c1.4-5.2,5.4-7.2,7.6-6.6c2.4-3.1,8.8-5.8,17.2-4.6c8.1,1.2,7,6.8,7,6.8s3.4-0.1,5.7,3.4 c1.7,2.7,0.4,5.3-0.4,5.9c-0.4,0.3,0.3,1.6-0.4,3.9c-0.8,2.4-1.8,3.4-3.8,6.3c0.7-8.5,0.3-10.7-1.6-11.2 c-1.9-0.5-2.5,1.9-6.8,0.6C114.9,61.8,112,58.8,108.3,59z"></path> <path class="st6" d="M100.4,72.7c0,0-2.4-3.7-5.2-1c-2.2,2.2-1.3,8.2,0.6,10c0.8,0.8,3.6,1.8,4.7-1.9 C101.6,76.2,100.4,72.7,100.4,72.7z"></path> </g> </g> <g id="table_1_"> <g> <polygon class="st1" points="23.3,307.2 31.7,307.2 41.9,178 31.3,178 "></polygon> </g> <g> <g> <polygon class="st1" points="627.7,307.2 619.7,307.2 609.5,178 619.7,178 "></polygon> </g> <rect x="2.8" y="167.9" class="st1" width="645.1" height="10.1"></rect> </g> </g> <g id="woman_x5F_3_1_"> <g> <path class="st5" d="M599,169.8c-2.8-10.7-2.8-15.8-7.3-32.5c-2.4-8.8-2.2-13.3,0.7-16.5c2.6-2.8,13.1-0.9,14.8,9.3l8.7,44.7 c0.5,2.4,0.1,4.5-1,6.6c-1.8,3.4-4,3.8-7.6,4.5C602,187.2,599.1,170.2,599,169.8z"></path> <path class="st10" d="M592.8,181.7l6.7-4.5c0.5-0.3,1.1-0.7,0.9-2c-1.7-8.6,12.7-10.6,15.4-0.6c1.1,4.1-0.3,9.2-6.1,12.6 l-9.8,4.2L592.8,181.7z"></path> <path class="st6" d="M571.1,204.5c11.8-5.3,28.8-13.1,28.8-13.1l-7.1-9.6l-26.9,16C562.5,200.3,567.5,206.1,571.1,204.5z"></path> <path class="st6" d="M567.6,197.1l-0.3,0.1c0,0-3.8-1-7.1,0.4c-3.5,1.5-8.5,4.5-8.5,4.5s0.4,1.6,2.4,1.4c2-0.2,3.5-1.2,4.2-0.6 c0,0-2.9,4.2-11.9,7.2c-3,1,5.7,7.4,9.4,6.5c7.2-1.8,16.3-12.8,16.3-12.8l0.9-0.5C576.6,202.2,571.9,196,567.6,197.1z"></path> </g> <g> <g> <polygon class="st2" points="505.7,282.1 502.1,302.8 492.1,302.2 493.3,280.4 "></polygon> <g> <path class="st3" d="M503.5,298.4l0,8.9l-30.7,0V307c0-1.3,0.7-2.4,1.8-3l16.2-7.6c0.6-0.3,1.3-0.1,1.6,0.5 c0.6,1.2,2,2.8,5.5,2.9c2.7,0,4.1-0.9,4.8-1.7C503,297.8,503.5,297.9,503.5,298.4z"></path> </g> </g> <g> <path class="st3" d="M519.3,213.7c2.2-6.3,8.1-8.2,10.8-8.8c7.5-1.7,21.2-5,35.7-8c0.1,0,0.2-0.1,0.3-0.1 c5.7-1,6.6-3.2,6.6-3.2l26.4-0.4c0,0,0.8,5.2,1.4,14.2c0.8,11.9-4.1,14.8-22.3,15.8l-36.2,3.7c-0.6,0-1.1,0.3-1.4,0.7 C535.7,233,517.9,222.4,519.3,213.7z"></path> <path class="st3" d="M540,227.3c-0.1,0.2-0.1,0.5-0.1,0.7l5.9,52.3l-12.3,1.4c0,0-11.4-43.3-14.5-58.3c-0.8-4-0.7-7.2,0-9.8 C524.4,207.5,541.6,218.8,540,227.3z"></path> <path class="st3" d="M498.6,212.6c2.2-6.3,8.1-8.2,10.8-8.8c8.1-1.8,27.9-4.9,43.2-7.7c0.1,0,0.1-0.1,0.2-0.1 c2.4-0.5,1.3-3.5,1.3-3.5l33.1,1.9l1.4,15.3c1.6,10.5-10.9,11.4-25.7,12.6l-0.2,0.1l-6.2,0.5l0,0l0,0l-38.5,3 c-0.6,0-1.1,0.3-1.4,0.7C511.9,232,497.3,221.3,498.6,212.6z"></path> <path class="st3" d="M517.4,226c-0.8,0.2-0.8,1.2-0.9,1.4l-10.8,54.7l-12.3-1.7c0,0,2.6-44,3.4-59.3c0.2-4.1,1.3-8.8,3.6-11.8 C507.1,204.8,521.1,225.4,517.4,226z"></path> </g> <g> <polygon class="st2" points="545.8,280.3 548.4,302.8 538.4,302.2 533.5,281.6 "></polygon> <g> <path class="st3" d="M548.5,298.4l0,8.9l-30.7,0l0-0.1c0-1.3,0.7-2.4,1.8-3l16.2-7.6c0.6-0.3,1.3-0.1,1.6,0.5 c0.6,1.2,2,2.8,5.5,2.9c2.7,0,4.1-0.9,4.8-1.7C548,297.8,548.5,297.9,548.5,298.4z"></path> </g> </g> </g> <g> <path class="st1" d="M532.4,135.3l-18.5,0c-1.2,0-2.1-1-2.1-2.1l-5.6-28.1c0-1.2,1-2.1,2.1-2.1l18.5,0c1.2,0,2.1,1,2.1,2.1 l5.6,28.1C534.6,134.4,533.6,135.3,532.4,135.3z"></path> <path class="st11" d="M513.8,131c-0.8,0-1.5-0.7-1.5-1.5l-4.7-23.7c0-0.7,0.7-1.4,1.5-1.4l17.3,0c0.8,0,1.5,0.7,1.5,1.5 l4.7,23.7c0,0.3-0.2,0.7-0.4,0.9c-0.3,0.3-0.6,0.4-1,0.4L513.8,131z"></path> </g> <g> <path class="st8" d="M586.9,97.8c0,0,0,0.3,0.2,18.8c0,1.9-11.7,3.7-13.8,0.2c0-4.7,0-7.5,0.1-9.6 C573.5,102.8,586.9,97.8,586.9,97.8z"></path> <path class="st4" d="M563.3,75.3c3.3-3,9.1-5.8,13-6.4c5-0.8,9.7-0.3,13.5,3.1c6.7,5.9,8.8,16.5,9.7,25 c0.4,3.6,0.4,7.2-0.1,10.8c-0.3,1.9-1.2,2.6-2.9,3.4c-1.4,0.6-2.9,1.1-4.4,1.4c-2.4,0.6-6.7,1.4-9.1,0.4 c-0.5-0.2-1.1-0.6-1.1-1.2c0.2-4.9,0.2-7.4-0.2-11.6c-0.6-2.4-0.1-5-2.6-5.1c-8-0.4-15.5-3.3-18.2-11 C559.4,79.7,560.4,78,563.3,75.3z"></path> <path class="st9" d="M580.7,91.9c-1.1,1.6-1.5,1.4-2,1.4c-5.8,0.6-11.2-13.1-16.3-13.3c-1.1,0.6-3.1,4.6-2.9,8.9 c0.1,2.1,0.8,3.8,1.1,4.6c0.1,0.3,0.1,0.7,0,1c-0.5,1.4-2.1,4.8-1.6,5.6c0.4,0.7,1.8,0.6,2.7,0.6c2.2,8.6,2.7,11.1,5.5,10.8 c5.6-0.5,10-2.5,12.5-7.2c0.5-1,2-4.7,2-4.7s3,0.6,4.2-3.6C587.3,90.1,582.4,89.3,580.7,91.9z"></path> </g> <path class="st7" d="M580.3,115.8L580.3,115.8c4.2,0.2,8.4,0.9,12.4,2.2c3,0.9,6.2,2,7.4,2.7c5.9,3.4-0.8,72.8-0.8,72.8l-12,1.3 c-9.3,1-18.7,0.9-28.1-0.1l-5.8-1.1l1.5-31.7c0.1-1.7-0.1-3.5-0.8-5.1l-2.8-6.9c-1-2.4-1.1-5.1-0.3-7.6l7.1-22.2l4.2-1.5 c5.7-2,11.7-3,17.7-2.7C580.2,115.8,580.2,115.8,580.3,115.8z"></path> <g> <g> <path class="st6" d="M514.2,138.4c5.4,11.8,13.2,28.5,13.2,28.5l9.7-7l-16.2-26.8C518.3,129.7,512.5,134.8,514.2,138.4z"></path> <path class="st6" d="M521.5,134.9l-0.1-0.3c0,0,1-3.8-0.5-7.1c-1.5-3.4-4.6-8.4-4.6-8.4s-1.6,0.4-1.4,2.4 c0.2,2,1.2,3.5,0.6,4.2c0,0-4-2.9-7.3-11.9c-0.9-2.4-2.5-1-2.1,0.9c0.3,1.5,0.7,4,1.6,7.3c0.6,2.5-3.2,6-1.4,9.1 c3.1,5.1,8.4,8.5,8.4,8.5l0.5,0.8C516.5,143.9,522.7,139.2,521.5,134.9z"></path> </g> <g> <path class="st5" d="M541.6,165.4c2.4-10.8,4.8-15.3,8.5-32.2c1.9-9,4.2-11.7,8.2-13.2c3.6-1.3,12.1,4.2,8.9,14L555,174.7 c-0.7,2.3-2,4.2-3.8,5.7c-2.8,2.5-5.7,3.7-9.8,3.2C536.2,182.9,541.5,165.8,541.6,165.4z"></path> <path class="st5" d="M537.1,160l3.2,5.3c0.3,0.5,0.8,0.9,1.3,1.1c8.7,3.5,12.5,16.7,2.7,17.4c-4.3,0.3-9.6-1.1-12.9-6.9l-4-9.9 L537.1,160z"></path> </g> </g> </g> <g id="chair_x5F_4"> <rect x="571.6" y="236.9" transform="matrix(-1 -1.224647e-16 1.224647e-16 -1 1149.2056 534.5214)" class="st1" width="6" height="60.7"></rect> <path class="st1" d="M622.2,170.9c0.3-17.3-13-32.1-30.2-33.3c-3.5-0.2-7.3-0.2-11.4,0.3c-17.3,2.1-31.1,15.4-34.2,32.5 c-3.9,21.8-8.6,29.4-17.9,41.3c-1.9,2.4-3.1,5.4-3,8.5c0,2.8,1,5.9,4.3,7.7c0,0,14.3,9.5,44.9,9.5c12.3,0,23.9-3,29-5.4 c13.9-6.7,14.9-20.8,16.3-30.5c0,0.1,0,0.2-0.1,0.2C621.4,191.4,622.1,180.2,622.2,170.9z"></path> <path class="st1" d="M574.6,297.3L574.6,297.3c-8.6,0-30.1,4.5-30.1,10v0h60.2v0C604.7,301.7,583.2,297.3,574.6,297.3z"></path> </g> <g id="woman_x5F_2_1_"> <g> <path class="st7" d="M284.7,151.9c6-9.2,8.5-13.2,17.9-27.8c5-7.7,17.4-11,20.7-6.8c2.2,2.9,2.2,9.6-2.4,15.3l-26.8,32.8 c-1.5,1.9-3.4,3.3-5.5,4c-3.5,1.4-6.6,1.5-10.3-0.4C273.6,166.4,284.5,152.3,284.7,151.9z"></path> <path class="st12" d="M279.8,145.7l2.3,5.7c0.2,0.6,0.6,1,1.1,1.2c8,4.8,9.8,18.4,0,17.6c-4.3-0.4-9.3-2.5-11.6-8.8l-2.5-10.4 L279.8,145.7z"></path> <path class="st6" d="M268.7,117.4l-0.2-0.6c0,0,0.7-3.9-0.9-7c-1.7-3.3-4.6-8.2-4.6-8.2s-1.6,0.5-1.2,2.5c0.4,2,0.9,3.5,0.3,4.3 c0,0-4.4-2.6-8.1-11.3c-1.2-2.9-7,6.2-5.8,9.9c2.3,7.1,12.7,14.1,12.7,14.1l1.1,1.8l7.2,28.2l10.7-5.4L268.7,117.4z"></path> </g> <g> <path class="st3" d="M320.9,202.3c-0.6-6.1-1-9.3-1-9.3l-29.2,1.3c0,0,0.3,2.2-3.1,3.1c-14.2,2.4-26.9,4.6-34.6,6.3 c-3.9,0.9-14.2,4.5-11.1,19.6c3.1,15,11.8,58.2,11.8,58.2l12.4-1.5l-4.2-52c-0.1-1.2,0.8-2.2,2-2.3l29.9-2.3 C316.2,222.5,322.1,215.3,320.9,202.3z"></path> <g> <polygon class="st2" points="266.1,280.1 268.1,302.8 258.1,302.2 253.8,281.6 "></polygon> <g> <path class="st3" d="M268.3,298.4l0,8.9l-30.7,0l0-0.1c0-1.3,0.7-2.4,1.8-3l16.2-7.6c0.6-0.3,1.3-0.1,1.6,0.5 c0.6,1.2,2,2.8,5.5,2.9c2.7,0,4.1-0.9,4.8-1.7C267.8,297.8,268.3,297.9,268.3,298.4z"></path> </g> </g> <g> <polygon class="st2" points="243.3,280.1 245.3,302.8 235.3,302.2 230.9,281.6 "></polygon> <g> <path class="st3" d="M245.5,298.4l0,8.9l-30.7,0l0-0.1c0-1.3,0.7-2.4,1.8-3l16.2-7.6c0.6-0.3,1.3-0.1,1.6,0.5 c0.6,1.2,2,2.8,5.5,2.9c2.7,0,4.1-0.9,4.8-1.7C245,297.8,245.5,297.9,245.5,298.4z"></path> </g> </g> <path class="st3" d="M293.9,194.4l-19.8-1c0,0,0.6,2.3-6,3.6c-15.5,2.7-29.6,5-37.8,6.8c-3.9,0.9-14.2,4.5-11.1,19.6 c3.1,15,11.8,58.2,11.8,58.2l12.4-1.5l-4.2-52c-0.1-1.2,0.8-2.2,2-2.3l41.3-3.2c6.1,0.4,12.8-2.8,13.3-9L293.9,194.4z"></path> </g> <g> <path class="st1" d="M262.7,122.2l-18.5,0c-1.2,0-2.1-1-2.1-2.1L236.5,92c0-1.2,1-2.1,2.1-2.1l18.5,0c1.2,0,2.1,1,2.1,2.1 l5.6,28.1C264.9,121.2,263.9,122.2,262.7,122.2z"></path> <path class="st11" d="M244.1,117.9c-0.8,0-1.5-0.7-1.5-1.5l-4.7-23.7c0-0.7,0.7-1.4,1.5-1.4l17.3,0c0.8,0,1.5,0.7,1.5,1.5 l4.7,23.7c0,0.3-0.2,0.7-0.4,0.9c-0.3,0.3-0.6,0.4-1,0.4L244.1,117.9z"></path> </g> <path class="st8" d="M303.9,91.2l0.2,6.2c0,0-1,6.9-0.9,13.2c0,1.9-10.9,3.1-12.9-0.3c0-4.7,0-7.5,0.1-9.6 C290.5,96.3,303.9,91.2,303.9,91.2z"></path> <path class="st7" d="M268.6,195.3l2-37.6c0.3-2.9-0.2-5.9-1.5-8.5l0,0c-1.8-3.5-2.1-7.5-1-11.3l4-15.5c0.8-3.8,1.6-6.6,5.1-8.5 c11.6-6.3,20.2-7,26.2-5.9c11.8,2,19.5,8.6,19.6,8.8c0.9,2.3,0.9,10.1-1.4,33.6c-2.6,25.8-1.4,47.3-1.4,47.3 S280.6,201.1,268.6,195.3z"></path> <g> <path class="st4" d="M313.5,69.9c-4.4-8.8-16.3-10.8-26.8-4.7c-5.7,3.3-5.7,6.7-5.3,9.3c1.3,8.1,8.2,12.2,16,14 c3.5,0.8,0.5,6.4,3.1,8.6c0.9,1,5.3-0.8,9.8-5C316.6,86.2,317,77,313.5,69.9z"></path> <path class="st9" d="M299.4,85.8c-3.6,3.6-3.7,0.6-4-2.8c-0.5-7.1-7.7-8.8-12-12.2c-1.2,0.4-3.8,4-4.4,8.2c-0.3,2,0,3.9,0.2,4.8 c0.1,0.3,0,0.7-0.2,1c-0.7,1.3-2.7,4.9-2.4,5.5c0.4,0.7,1.6,0.8,2.5,0.7c0.6,8.8,0.6,11.4,3.5,11.6c5.6,0.5,10.3-0.7,13.5-4.9 c0.7-0.9,2.8-4.3,2.8-4.3s2.9,1.1,4.7-2.9C306.3,85.2,301.6,83.5,299.4,85.8z"></path> <path class="st4" d="M316.5,108.6c4.1,5.6,6,12.1,4.1,18.8c-2.3,8.1-8.4,10.8-11.9,12.9c-1.2,0.7-2.6-0.3-2.3-1.7 c0.8-2.9,1.2-7.4-1.4-12.2c-4.7-8.7-5.9-12.2-5.9-16c0-7.1,2.3-11.4,2.3-11.4c1.7,0.1,4.9-1.5,6-2.8 C308.7,99.9,312.5,103.1,316.5,108.6z"></path> <path class="st1" d="M307.4,96.1c-0.1-0.5-0.1-0.9-0.1-1.5c-1.3,0.9-3.8,2.5-6.1,2.8c0,0,0,0,0.3,1.6 C303.2,99.4,307.5,97.2,307.4,96.1z"></path> </g> <g> <path class="st5" d="M257.5,157.2c3.3-10.5,4.6-15,9.6-31.7c2.6-8.8,13.7-15.4,18-12.3c2.9,2.1,4.7,8.7,1.9,15.4l-16.8,38.9 c-0.9,2.3-2.4,4.1-4.2,5.3c-3,2.3-6,3.3-10,2.4C250.8,174.2,257.4,157.6,257.5,157.2z"></path> <path class="st5" d="M256.4,150.7l1.7,5.9c0.2,0.6,0.5,1,1,1.3c7.5,5.6,7.9,19.3-1.7,17.5c-4.2-0.8-9-3.4-10.7-9.9l-1.4-10.6 L256.4,150.7z"></path> <path class="st6" d="M247.8,119.8l-0.2-0.6c0,0,1.1-3.8-0.2-7.1c-1.4-3.5-4.3-8.6-4.3-8.6s-1.6,0.4-1.5,2.4 c0.2,2,1.1,3.5,0.4,4.3c0,0-4.1-3-6.9-12.1c-0.9-3-7.6,5.5-6.7,9.3c1.6,7.3,11.2,15.3,11.2,15.3l1,1.9l4.7,30.5l11.2-4.3 L247.8,119.8z"></path> </g> </g> <g id="chair_x5F_2"> <rect x="291.6" y="236.9" transform="matrix(-1 -1.224647e-16 1.224647e-16 -1 589.1124 534.5214)" class="st1" width="6" height="60.7"></rect> <path class="st1" d="M342.2,170.9c0.3-17.3-13-32.1-30.2-33.3c-3.5-0.2-7.3-0.2-11.4,0.3c-17.3,2.1-31.1,15.4-34.2,32.5 c-3.9,21.8-8.6,29.4-17.9,41.3c-1.9,2.4-3.1,5.4-3,8.5c0,2.8,1,5.9,4.3,7.7c0,0,14.3,9.5,44.9,9.5c12.3,0,23.9-3,29-5.4 c13.9-6.7,14.9-20.8,16.3-30.5c0,0.1,0,0.2-0.1,0.2C341.4,191.4,342,180.2,342.2,170.9z"></path> <path class="st1" d="M294.6,297.3L294.6,297.3c-8.6,0-30.1,4.5-30.1,10v0h60.2v0C324.6,301.7,303.1,297.3,294.6,297.3z"></path> </g> </g> </g> </svg> 