<?xml version="1.0" encoding="UTF-8"?> <!-- Generator: Adobe Illustrator 23.1.0, SVG Export Plug-In . SVG Version: 6.00 Build 0) --> <svg xmlns="http://www.w3.org/2000/svg" xmlns:xlink="http://www.w3.org/1999/xlink" id="Ñëîé_1" x="0px" y="0px" viewBox="0 0 985.3 600.3" style="enable-background:new 0 0 985.3 600.3;" xml:space="preserve"> <style type="text/css"> .st0{fill:#233C67;} .st1{enable-background:new ;} .st2{fill:#00BDC7;} .st3{fill:#F7F1FC;} .st4{fill:#541EA0;} .st5{fill:#3B639F;} .st6{fill:#FFFFFF;} .st7{fill:#FFE1BD;} .st8{fill:#4AD6AE;} .st9{fill:#FFCCB0;} .st10{fill:#F2A181;} .st11{fill:#41B792;} .st12{fill:#F5BC8E;} .st13{fill:#FCD4A9;} .st14{fill:#FEB39E;} .st15{fill:#FEA086;} .st16{fill:#F7B690;} </style> <g> <path class="st0" d="M376.5,293c-1.1,0-2-0.9-2-2v-36.4c0-1.1,0.9-2,2-2c1.1,0,2,0.9,2,2V291C378.6,292.1,377.7,293,376.5,293z"></path> </g> <g> <path class="st0" d="M331.6,319.6c-1.1,0-2-0.9-2-2v-34.8c0-1.1,0.9-2,2-2c1.1,0,2,0.9,2,2v34.8 C333.6,318.6,332.7,319.6,331.6,319.6z"></path> </g> <g> <g class="st1"> <g> <path class="st2" d="M394.9,105c-6.8-3.9-17.9-3.9-24.7,0c-6.8,3.9-6.8,10.3,0.1,14.3s17.9,3.9,24.7,0 C401.8,115.3,401.7,108.9,394.9,105L394.9,105z"></path> </g> </g> </g> <g> <g> <g class="st1"> <g> <g> <g> <g> <g> <path class="st2" d="M453.3,68l-149.2,86.7c-0.9,0.5-0.9,1.4,0,1.9c-0.9-0.5-0.9-1.4,0-1.9c0.9-0.5,2.4-0.5,3.3,0l1.6,1 l71.3-41.4l-1.6-1c-0.9-0.5-0.9-1.4,0-1.9c0.9-0.5,2.4-0.5,3.3,0l1.6,1l71.3-41.4l-1.6-1C452.4,69.4,452.4,68.6,453.3,68 L453.3,68z"></path> <path class="st2" d="M229.5,198.1l-74.6,43.3c-0.9,0.5-0.9,1.4,0,1.9c-0.9-0.5-0.9-1.4,0-1.9c0.9-0.5,2.4-0.5,3.3,0l1.6,1 l71.3-41.4l-1.6-1C228.6,199.4,228.6,198.6,229.5,198.1L229.5,198.1z"></path> <path class="st2" d="M80.3,284.8L5.8,328.1c-0.4,0.3-0.7,0.6-0.7,0.9c0,0.4,0.3,0.7,0.7,1L179,430c0.9,0.5,2.4,0.5,3.3,0 c-0.9,0.5-2.4,0.5-3.3,0c-0.9-0.5-0.9-1.4,0-1.9l1.6-1l-83.3-48.1l-1.6,1c-0.9,0.5-2.4,0.5-3.3,0c-0.9-0.5-0.9-1.4,0-1.9 l1.6-1L10.7,329L82,287.6l-1.6-1C79.4,286.1,79.4,285.3,80.3,284.8L80.3,284.8z"></path> <path class="st2" d="M265.6,478.1c-0.9,0.5-0.9,1.4,0,1.9C264.7,479.5,264.7,478.6,265.6,478.1L265.6,478.1z M353.8,527.1 l-83.3-48.1l-1.6,1c-0.9,0.5-2.4,0.5-3.3,0l86.6,50c-0.9-0.5-0.9-1.4,0-1.9L353.8,527.1L353.8,527.1z M440.4,577.1 l-83.3-48.1l-1.6,1c-0.9,0.5-2.4,0.5-3.3,0l87.6,50.6c0.9,0.5,2.4,0.5,3.3,0c0.7-0.4,0.9-1,0.5-1.5l-1.5,0.9 c-0.9,0.5-2.4,0.5-3.3,0c-0.9-0.5-0.9-1.4,0-1.9L440.4,577.1L440.4,577.1z"></path> <path class="st2" d="M603.3,586.7c-0.9,0.5-2.4,0.5-3.3,0l-1.1-0.7c0,0.3,0.2,0.7,0.7,0.9c0.9,0.5,2.4,0.5,3.3,0 L603.3,586.7L603.3,586.7z M677.8,543.3c-0.9,0.5-2.4,0.5-3.3,0l-1.6-1l-71.3,41.4l1.6,1c0.9,0.5,0.9,1.4,0,1.9L677.8,543.3 L677.8,543.3z"></path> <path class="st2" d="M827,456.6c-0.9,0.5-2.4,0.5-3.3,0l-1.6-1l-71.3,41.4l1.6,1c0.9,0.5,0.9,1.4,0,1.9L827,456.6L827,456.6 z"></path> <path class="st2" d="M976.2,369.9c-0.9,0.5-2.4,0.5-3.3,0l-1.6-1l-71.3,41.4l1.6,1c0.9,0.5,0.9,1.4,0,1.9L976.2,369.9 L976.2,369.9z"></path> <path class="st2" d="M803,268l-0.8-0.5c-0.9-0.5-2.4-0.5-3.3,0c-0.6,0.4-0.8,0.9-0.6,1.3l1.4-0.8 C800.6,267.5,802.1,267.5,803,268L803,268z M889.6,318L803,268c0.9,0.5,0.9,1.4,0,1.9l-1.6,1l83.3,48.1l1.6-1 C887.2,317.5,888.7,317.5,889.6,318L889.6,318z M976.2,368l-86.6-50c0.9,0.5,0.9,1.4,0,1.9l-1.6,1l83.3,48.1l1.6,1 c0.9,0.5,2.4,0.5,3.3,0C977.1,369.4,977.1,368.6,976.2,368L976.2,368z"></path> <path class="st2" d="M543.1,118l-86.6-50c-0.9-0.5-2.4-0.5-3.3,0c-0.9,0.5-0.9,1.4,0,1.9l1.6,1l83.3,48.1l1.6-1 C540.8,117.5,542.2,117.5,543.1,118L543.1,118z M544,118.5l-0.9-0.5c0.9,0.5,0.9,1.4,0,1.9l-1.4,0.8c0.8,0.1,1.7,0,2.3-0.3 C544.9,119.9,544.9,119.1,544,118.5L544,118.5z"></path> <path class="st2" d="M515,537.6l-3.3-1.9l-71.3,41.4l-1.6,1c-0.9,0.5-0.9,1.4,0,1.9c0.9,0.5,2.4,0.5,3.3,0l1.5-0.9 L515,537.6L515,537.6z M589.6,494.3l-3.3-1.9L515,533.8l3.3,1.9L589.6,494.3L589.6,494.3z M664.2,450.9l-3.3-1.9l-71.3,41.4 l3.3,1.9L664.2,450.9L664.2,450.9z M738.8,407.6l-3.3-1.9l-71.3,41.4l3.3,1.9L738.8,407.6L738.8,407.6z M813.4,364.2 l-3.3-1.9l-71.3,41.4l3.3,1.9L813.4,364.2L813.4,364.2z M889.6,318c-0.9-0.5-2.4-0.5-3.3,0l-1.6,1l-71.3,41.4l3.3,1.9 l71.3-41.4l1.6-1C890.5,319.4,890.5,318.6,889.6,318L889.6,318z"></path> <path class="st2" d="M428.4,487.6l-3.3-1.9l-71.3,41.4l-1.6,1c-0.9,0.5-0.9,1.4,0,1.9c0.9,0.5,2.4,0.5,3.3,0l1.6-1 L428.4,487.6L428.4,487.6z M503,444.3l-3.3-1.9l-71.3,41.4l3.3,1.9L503,444.3L503,444.3z M577.6,400.9l-3.3-1.9L503,440.5 l3.3,1.9L577.6,400.9L577.6,400.9z M652.2,357.6l-3.3-1.9l-71.3,41.4l3.3,1.9L652.2,357.6L652.2,357.6z M726.8,314.2 l-3.3-1.9l-71.3,41.4l3.3,1.9L726.8,314.2L726.8,314.2z M803,268c-0.9-0.5-2.4-0.5-3.3,0l-1.4,0.8l-71.5,41.6l3.3,1.9 l71.3-41.4l1.6-1C803.9,269.4,803.9,268.6,803,268L803,268z"></path> <path class="st2" d="M255.2,387.6l-3.3-1.9l-71.3,41.4l-1.6,1c-0.9,0.5-0.9,1.4,0,1.9c0.9,0.5,2.4,0.5,3.3,0L255.2,387.6 L255.2,387.6z M341.8,437.6l-3.3-1.9l-72.9,42.4c-0.9,0.5-0.9,1.4,0,1.9s2.4,0.5,3.3,0l1.6-1L341.8,437.6L341.8,437.6z M329.8,344.3l-3.3-1.9l-71.3,41.4l3.3,1.9L329.8,344.3L329.8,344.3z M416.4,394.3l-3.3-1.9l-71.3,41.4l3.3,1.9L416.4,394.3 L416.4,394.3z M404.4,300.9l-3.3-1.9l-71.3,41.4l3.3,1.9L404.4,300.9L404.4,300.9z M491,350.9l-3.3-1.9l-71.3,41.4l3.3,1.9 L491,350.9L491,350.9z M479,257.6l-3.3-1.9l-71.3,41.4l3.3,1.9L479,257.6L479,257.6z M565.6,307.6l-3.3-1.9L491,347.1 l3.3,1.9L565.6,307.6L565.6,307.6z M553.5,214.2l-3.3-1.9l-71.3,41.4l3.3,1.9L553.5,214.2L553.5,214.2z M640.2,264.2 l-3.3-1.9l-71.3,41.4l3.3,1.9L640.2,264.2L640.2,264.2z M716.4,218l-86.6-50c-0.4-0.3-1-0.4-1.6-0.4c-0.6,0-1.2,0.1-1.6,0.4 l-72.9,42.4l3.3,1.9l71.3-41.4l83.3,48.1l-71.3,41.4l3.3,1.9l72.9-42.4c0.4-0.3,0.7-0.6,0.7-1S716.8,218.3,716.4,218 L716.4,218z"></path> <path class="st2" d="M168.6,337.6l-3.3-1.9L94,377.1l-1.6,1c-0.9,0.5-0.9,1.4,0,1.9c0.9,0.5,2.4,0.5,3.3,0l1.6-1 L168.6,337.6L168.6,337.6z M243.2,294.3l-3.3-1.9l-71.3,41.4l3.3,1.9L243.2,294.3L243.2,294.3z M317.8,250.9l-3.3-1.9 l-71.3,41.4l3.3,1.9L317.8,250.9L317.8,250.9z M392.4,207.6l-3.3-1.9l-71.3,41.4l3.3,1.9L392.4,207.6L392.4,207.6z M466.9,164.2l-3.3-1.9l-71.3,41.4l3.3,1.9L466.9,164.2L466.9,164.2z M543.1,118c-0.9-0.5-2.4-0.5-3.3,0l-1.6,1l-71.3,41.4 l3.3,1.9l71.5-41.6l1.4-0.8C544.1,119.4,544.1,118.6,543.1,118L543.1,118z"></path> <path class="st2" d="M901.6,411.4l-1.6-1l-83.3-48.1l-3.3-1.9L730,312.3l-3.3-1.9l-83.3-48.1l-3.3-1.9l-83.3-48.1l-3.3-1.9 l-83.3-48.1l-3.3-1.9l-83.3-48.1l-1.6-1c-0.9-0.5-2.4-0.5-3.3,0c-0.9,0.5-0.9,1.4,0,1.9l1.6,1l83.3,48.1l3.3,1.9l83.3,48.1 l3.3,1.9l83.3,48.1l3.3,1.9l83.3,48.1l3.3,1.9l83.3,48.1l3.3,1.9l85,49c0.9,0.5,2.4,0.5,3.3,0S902.5,411.9,901.6,411.4 L901.6,411.4z"></path> <path class="st2" d="M827,454.7l-85-49l-3.3-1.9l-83.3-48.1l-3.3-1.9l-83.3-48.1l-3.3-1.9l-83.3-48.1l-3.3-1.9l-83.3-48.1 l-3.3-1.9L309,155.7l-1.6-1c-0.9-0.5-2.4-0.5-3.3,0c-0.9,0.5-0.9,1.4,0,1.9l85,49l3.3,1.9l83.3,48.1l3.3,1.9l83.3,48.1 l3.3,1.9l83.3,48.1l3.3,1.9l83.3,48.1l3.3,1.9l83.3,48.1l1.6,1c0.9,0.5,2.4,0.5,3.3,0C827.9,456.1,827.9,455.3,827,454.7 L827,454.7z"></path> <path class="st2" d="M752.4,498.1l-1.6-1L667.5,449l-3.3-1.9L580.9,399l-3.3-1.9L494.3,349l-3.3-1.9L407.7,299l-3.3-1.9 L321.1,249l-3.3-1.9l-85-49c-0.9-0.5-2.4-0.5-3.3,0c-0.9,0.5-0.9,1.4,0,1.9l1.6,1l83.3,48.1l3.3,1.9l83.3,48.1l3.3,1.9 l83.3,48.1l3.3,1.9l83.3,48.1l3.3,1.9l83.3,48.1l3.3,1.9l85,49c0.9,0.5,2.4,0.5,3.3,0C753.3,499.5,753.3,498.6,752.4,498.1 L752.4,498.1z"></path> <path class="st2" d="M677.8,541.4l-85-49l-3.3-1.9l-83.3-48.1l-3.3-1.9l-83.3-48.1l-3.3-1.9l-83.3-48.1l-3.3-1.9l-83.3-48.1 l-3.3-1.9l-83.3-48.1l-1.6-1c-0.9-0.5-2.4-0.5-3.3,0c-0.9,0.5-0.9,1.4,0,1.9l85,49l3.3,1.9l83.3,48.1l3.3,1.9l83.3,48.1 l3.3,1.9l83.3,48.1l3.3,1.9l83.3,48.1l3.3,1.9l83.3,48.1l1.6,1c0.9,0.5,2.4,0.5,3.3,0C678.7,542.8,678.8,541.9,677.8,541.4 L677.8,541.4z"></path> <path class="st2" d="M603.3,584.8l-1.6-1l-83.3-48.1l-3.3-1.9l-83.3-48.1l-3.3-1.9l-83.3-48.1l-3.3-1.9l-83.3-48.1l-3.3-1.9 l-83.3-48.1l-3.3-1.9l-85-49c-0.9-0.5-2.4-0.5-3.3,0c-0.9,0.5-0.9,1.4,0,1.9l1.6,1l83.3,48.1l3.3,1.9l83.3,48.1l3.3,1.9 l83.3,48.1l3.3,1.9l83.3,48.1l3.3,1.9l83.3,48.1l3.3,1.9l83.8,48.4l1.1,0.7c0.9,0.5,2.4,0.5,3.3,0 C604.2,586.1,604.2,585.3,603.3,584.8L603.3,584.8z"></path> </g> </g> </g> </g> </g> </g> </g> </g> <g> <path class="st0" d="M708.9,318c-1.1,0-2-0.9-2-2l-1.1-38.3c0-1.1,0.8-2,2-2.1c1.1-0.1,2,0.8,2.1,2l1.1,38.3 C710.9,317,710,317.9,708.9,318C708.9,318,708.9,318,708.9,318z"></path> </g> <g> <g class="st1"> <g> <path class="st3" d="M561,210.7l-0.1,24.7c-15.3-8.8-40-8.8-55.2,0l0.1-24.7C520.9,201.9,545.7,201.9,561,210.7z"></path> </g> <g> <polygon class="st3" points="696.2,288.8 696.1,313.5 560.9,235.4 561,210.7 "></polygon> </g> <g> <path class="st3" d="M707.7,304.9l-0.1,24.7c0-5.8-3.8-11.7-11.5-16.1l0.1-24.7C703.9,293.2,707.7,299.1,707.7,304.9z"></path> </g> <g> <path class="st4" d="M707.6,329.6c0,5.8-3.8,11.5-11.3,15.9l0.1-24.7c7.6-4.4,11.3-10.1,11.3-15.9 C707.7,312.3,707.6,322.2,707.6,329.6z"></path> </g> <g> <path class="st0" d="M722.8,304.9l-0.1,24.7c0,8-5.3,16-15.7,22l0.1-24.7C717.6,320.9,722.8,312.9,722.8,304.9z"></path> </g> <g> <path class="st3" d="M244.7,396.4l0.1-24.7c0-5.8,3.8-11.5,11.3-15.9l-0.1,24.7C248.5,384.9,244.7,390.6,244.7,396.4z"></path> </g> <g> <path class="st4" d="M244.7,396.5C244.7,396.5,244.7,396.4,244.7,396.5l0.1-24.8c0,0,0,0.1,0,0.1 C244.7,380,244.7,388.3,244.7,396.5z"></path> </g> <g> <path class="st4" d="M256.2,412.5c-7.6-4.4-11.5-10.2-11.5-16c0-8.2,0-16.5,0.1-24.7c0,5.8,3.9,11.6,11.5,16 C256.3,395.2,256.2,405.1,256.2,412.5z"></path> </g> <g> <path class="st0" d="M229.6,396.3l0.1-24.7c0,8.1,5.3,16.2,16,22.4l-0.1,24.7C234.9,412.5,229.5,404.4,229.6,396.3z"></path> </g> <g> <polygon class="st4" points="696.3,320.8 696.3,345.5 446.6,490.6 446.7,465.9 "></polygon> </g> <g> <polygon class="st4" points="391.5,465.9 391.4,490.6 256.2,412.5 256.3,387.8 "></polygon> </g> <g> <path class="st4" d="M446.7,465.9l-0.1,24.7c-15.2,8.8-39.9,8.8-55.2,0l0.1-24.7C406.8,474.7,431.5,474.7,446.7,465.9z"></path> </g> <g> <path class="st5" d="M706.8,282.6c21.2,12.2,21.3,32.2,0.2,44.4L457.4,472.1c-21.1,12.2-55.4,12.2-76.6,0L245.6,394 c-21.2-12.2-21.3-32.2-0.2-44.4L495,204.5c21.1-12.2,55.4-12.2,76.6,0L706.8,282.6z M446.7,465.9l249.6-145.1 c15.2-8.8,15.1-23.2-0.2-32L561,210.7c-15.3-8.8-40-8.8-55.2,0L256.1,355.8c-15.2,8.8-15.1,23.2,0.2,32l135.2,78.1 C406.8,474.7,431.5,474.7,446.7,465.9L446.7,465.9z"></path> </g> <g> <polygon class="st3" points="256.1,355.8 256,380.5 505.7,235.4 505.7,210.7 "></polygon> </g> <g> <polygon class="st0" points="707.1,327 707,351.7 457.4,496.8 457.4,472.1 "></polygon> </g> <g> <polygon class="st0" points="380.8,472.1 380.7,496.8 245.5,418.7 245.6,394 "></polygon> </g> <g> <path class="st0" d="M457.4,472.1l-0.1,24.7c-21.1,12.2-55.4,12.2-76.6,0l0.1-24.7C402,484.3,436.4,484.3,457.4,472.1z"></path> </g> <g> <path class="st2" d="M696.2,288.8c15.3,8.8,15.4,23.2,0.2,32L446.7,465.9c-15.2,8.8-39.9,8.8-55.2,0l-135.2-78.1 c-15.3-8.8-15.4-23.2-0.2-32l249.6-145.1c15.2-8.8,39.9-8.8,55.2,0L696.2,288.8z"></path> </g> </g> </g> <g> <g class="st1"> <g> <path class="st0" d="M532.9,395.9c-2.9-1.7-3-4.5,0-6.2c2.9-1.7,7.7-1.7,10.6,0c2.9,1.7,3,4.5,0,6.2 C540.6,397.6,535.8,397.6,532.9,395.9L532.9,395.9z M546.8,387.8c-4.8-2.8-12.6-2.8-17.4,0c-4.8,2.8-4.8,7.3,0.1,10.1 c4.8,2.8,12.6,2.8,17.4,0C551.7,395.1,551.7,390.6,546.8,387.8L546.8,387.8z"></path> <path class="st5" d="M543.5,389.8c-2.9-1.7-7.7-1.7-10.6,0c-2.9,1.7-2.9,4.5,0,6.2c2.9,1.7,7.7,1.7,10.6,0 C546.4,394.2,546.4,391.5,543.5,389.8L543.5,389.8z"></path> </g> </g> </g> <g> <g> <g> <path class="st0" d="M658.4,303.2c-2.9-1.7-3-4.5,0-6.2c2.9-1.7,7.7-1.7,10.6,0c2.9,1.7,3,4.5,0,6.2 C666.1,304.9,661.3,304.9,658.4,303.2L658.4,303.2z M672.3,295.1c-4.8-2.8-12.6-2.8-17.4,0c-4.8,2.8-4.8,7.3,0.1,10.1 c4.8,2.8,12.6,2.8,17.4,0C677.2,302.3,677.1,297.8,672.3,295.1L672.3,295.1z"></path> <path class="st5" d="M669,297c-2.9-1.7-7.7-1.7-10.6,0c-2.9,1.7-2.9,4.5,0,6.2c2.9,1.7,7.7,1.7,10.6,0 C671.9,301.5,671.9,298.7,669,297L669,297z"></path> </g> </g> </g> <g> <g> <path class="st0" d="M589.8,444.2c-1.1,0-2-0.9-2-2v-25.3c0-1.1,0.9-2,2-2c1.1,0,2,0.9,2,2v25.3 C591.8,443.3,590.9,444.2,589.8,444.2z"></path> </g> <g> <path class="st0" d="M589.8,419.1c-1.1,0-2-0.9-2-2c0-8.2-4.4-15.9-11.4-20l-6.3-3.7l-22.2-13.8c-1.7-0.7-3.6-0.6-5.2,0.4 c-1.6,1-2.5,2.7-2.5,4.6V395c0,1.1-0.9,2-2,2c-1.1,0-2-0.9-2-2v-10.4c0-3.3,1.6-6.3,4.4-8c2.8-1.8,6.2-2,9.1-0.6 c0.1,0,0.1,0.1,0.2,0.1l22.3,13.8l6.3,3.7c8.3,4.9,13.4,13.9,13.4,23.5C591.8,418.2,590.9,419.1,589.8,419.1z"></path> </g> </g> <g> <g class="st1"> <g> <path class="st0" d="M570,371.7c-2.9-1.7-3-4.5,0-6.2c2.9-1.7,7.7-1.7,10.6,0c2.9,1.7,3,4.5,0,6.2 C577.7,373.4,573,373.4,570,371.7L570,371.7z M584,363.6c-4.8-2.8-12.6-2.8-17.4,0c-4.8,2.8-4.8,7.3,0.1,10.1 c4.8,2.8,12.6,2.8,17.4,0C588.8,370.8,588.8,366.3,584,363.6L584,363.6z"></path> <path class="st5" d="M580.6,365.5c-2.9-1.7-7.7-1.7-10.6,0c-2.9,1.7-2.9,4.5,0,6.2c2.9,1.7,7.7,1.7,10.6,0 C583.6,370,583.6,367.2,580.6,365.5L580.6,365.5z"></path> </g> </g> </g> <g> <g> <path class="st0" d="M627,420c-1.1,0-2-0.9-2-2v-25.3c0-1.1,0.9-2,2-2c1.1,0,2,0.9,2,2v25.3C629,419.1,628.1,420,627,420z"></path> </g> <g> <path class="st0" d="M627,394.9c-1.1,0-2-0.9-2-2c0-8.2-4.4-15.9-11.4-20l-6.3-3.7L585,355.3c-1.7-0.7-3.6-0.6-5.2,0.4 c-1.6,1-2.5,2.7-2.5,4.6v10.4c0,1.1-0.9,2-2,2c-1.1,0-2-0.9-2-2v-10.4c0-3.3,1.6-6.3,4.4-8c2.8-1.8,6.2-2,9.1-0.6 c0.1,0,0.1,0.1,0.2,0.1l22.3,13.8l6.3,3.7c8.3,4.9,13.4,13.9,13.4,23.5C629,394,628.1,394.9,627,394.9z"></path> </g> </g> <g> <path class="st0" d="M663.7,301.3c-1.1,0-2-0.9-2-2v-9.6c0-5.1,3-9.9,7.6-12.2l21.1-12c0,0,0.1,0,0.1-0.1c4.2-2,9.1-1.8,13.1,0.7 c4,2.5,6.3,6.8,6.3,11.4c0,1.1-0.9,2-2,2c-1.1,0-2-0.9-2-2c0-3.3-1.7-6.3-4.4-8c-2.8-1.7-6.2-1.9-9.1-0.5l-21.1,12 c0,0-0.1,0-0.1,0.1c-3.3,1.6-5.4,4.9-5.4,8.6v9.6C665.7,300.4,664.8,301.3,663.7,301.3z"></path> </g> <g> <g class="st1"> <g> <path class="st0" d="M381,308.3c-2.9,1.7-7.7,1.7-10.6,0c-2.9-1.7-2.9-4.5,0-6.2c2.9-1.7,7.7-1.7,10.6,0 C383.9,303.9,383.9,306.6,381,308.3L381,308.3z M367,300.2c-4.8,2.8-4.8,7.3-0.1,10.1c4.8,2.8,12.6,2.8,17.4,0 c4.8-2.8,4.8-7.3,0.1-10.1C379.6,297.4,371.8,297.4,367,300.2L367,300.2z"></path> <path class="st5" d="M370.4,302.2c2.9-1.7,7.7-1.7,10.6,0c2.9,1.7,2.9,4.5,0,6.2c-2.9,1.7-7.7,1.7-10.6,0 C367.4,306.6,367.4,303.9,370.4,302.2L370.4,302.2z"></path> </g> </g> </g> <g> <path class="st0" d="M375.7,306.5c-1.1,0-2-0.9-2-2v-9.6c0-3.6-2.1-7-5.4-8.6c0,0-0.1,0-0.1-0.1l-21.1-12c-2.9-1.4-6.3-1.2-9.1,0.5 c-2.8,1.7-4.4,4.7-4.4,8c0,1.1-0.9,2-2,2c-1.1,0-2-0.9-2-2c0-4.7,2.4-9,6.3-11.4c4-2.5,8.8-2.7,13.1-0.7c0,0,0.1,0,0.1,0.1l21.1,12 c4.6,2.3,7.6,7,7.6,12.2v9.6C377.7,305.6,376.8,306.5,375.7,306.5z"></path> </g> <g> <g class="st1"> <g> <path class="st0" d="M425.9,280.2c-2.9,1.7-7.7,1.7-10.6,0c-2.9-1.7-2.9-4.5,0-6.2c2.9-1.7,7.7-1.7,10.6,0 C428.9,275.8,428.9,278.5,425.9,280.2L425.9,280.2z M412,272.1c-4.8,2.8-4.8,7.3-0.1,10.1c4.8,2.8,12.6,2.8,17.4,0 c4.8-2.8,4.8-7.3,0.1-10.1C424.6,269.3,416.8,269.3,412,272.1L412,272.1z"></path> <path class="st5" d="M415.3,274.1c2.9-1.7,7.7-1.7,10.6,0c2.9,1.7,2.9,4.5,0,6.2c-2.9,1.7-7.7,1.7-10.6,0 C412.4,278.5,412.4,275.8,415.3,274.1L415.3,274.1z"></path> </g> </g> </g> <g> <path class="st0" d="M420.6,278.4c-1.1,0-2-0.9-2-2v-9.6c0-3.6-2.1-7-5.4-8.6c0,0-0.1,0-0.1-0.1l-21.1-12c-2.9-1.4-6.3-1.2-9.1,0.5 c-2.8,1.7-4.4,4.7-4.4,8c0,1.1-0.9,2-2,2c-1.1,0-2-0.9-2-2c0-4.7,2.4-9,6.3-11.4c4-2.5,8.8-2.7,13.1-0.7c0,0,0.1,0,0.1,0.1l21.1,12 c4.6,2.3,7.6,7,7.6,12.2v9.6C422.7,277.5,421.8,278.4,420.6,278.4z"></path> </g> <g> <g class="st1"> <g> <path class="st2" d="M899.4,313c-6.8-3.9-17.9-3.9-24.7,0c-6.8,3.9-6.8,10.3,0.1,14.3c6.8,3.9,17.9,3.9,24.7,0 C906.3,323.3,906.2,316.9,899.4,313L899.4,313z"></path> </g> </g> </g> <g> <g> <g> <g> <g class="st1"> <g> <path class="st2" d="M845.3,435.9c-15.4-8.9-40.4-8.9-55.7,0c-15.3,8.9-15.3,23.4,0.2,32.3s40.4,8.9,55.7,0 C860.9,459.3,860.8,444.9,845.3,435.9L845.3,435.9z"></path> </g> </g> </g> </g> <g> <g> <g class="st1"> <g> <path class="st0" d="M862.7,425.8c-25.1-14.5-65.7-14.5-90.6,0c-25,14.5-24.8,38,0.3,52.5c25.1,14.5,65.7,14.5,90.6,0 l-1.4-0.8l-1.4-0.8c-11.7,6.8-27,10.2-42.4,10.2c-15.4,0-30.8-3.4-42.5-10.2c-11.8-6.8-17.7-15.7-17.7-24.6 c0-8.9,5.8-17.8,17.5-24.6c11.7-6.8,27-10.2,42.4-10.2c15.4,0,30.7,3.4,42.5,10.2c11.8,6.8,17.7,15.7,17.7,24.6 c0.1,8.9-5.8,17.8-17.5,24.6l1.4,0.8l1.4,0.8C888,463.8,887.9,440.3,862.7,425.8L862.7,425.8z"></path> </g> </g> </g> </g> </g> </g> <g> <g> <g> <g> <g class="st1"> <g> <path class="st2" d="M732.6,200.5c-15.4-8.9-40.4-8.9-55.7,0c-15.3,8.9-15.3,23.4,0.2,32.3c15.4,8.9,40.4,8.9,55.7,0 S748,209.4,732.6,200.5L732.6,200.5z"></path> </g> </g> </g> </g> <g> <g> <g class="st1"> <g> <path class="st0" d="M750,190.4c-25.1-14.5-65.7-14.5-90.6,0c-24.9,14.5-24.8,38,0.3,52.5c25.1,14.5,65.7,14.5,90.6,0 l-1.4-0.8l-1.4-0.8c-11.7,6.8-27,10.2-42.4,10.2c-15.4,0-30.8-3.4-42.5-10.2c-11.8-6.8-17.7-15.7-17.7-24.6 c0-8.9,5.8-17.8,17.5-24.6c11.7-6.8,27-10.2,42.4-10.2c15.4,0,30.8,3.4,42.5,10.2c11.8,6.8,17.7,15.7,17.7,24.6 s-5.8,17.8-17.5,24.6l1.4,0.8l1.4,0.8C775.2,228.4,775.1,204.9,750,190.4L750,190.4z"></path> </g> </g> </g> </g> </g> </g> <g> <g class="st1"> <g> <path class="st2" d="M675.2,443.2c-6.8-3.9-17.9-3.9-24.7,0c-6.8,3.9-6.8,10.3,0.1,14.3c6.8,3.9,17.9,3.9,24.7,0 C682.1,453.5,682,447.1,675.2,443.2L675.2,443.2z"></path> </g> </g> </g> <g> <g class="st1"> <g> <path class="st2" d="M615.1,576.2c-6.8-3.9-17.9-3.9-24.7,0c-6.8,3.9-6.7,10.3,0.1,14.3c6.8,3.9,17.9,3.9,24.7,0 C622,586.6,621.9,580.2,615.1,576.2L615.1,576.2z"></path> </g> </g> </g> <g> <g class="st1"> <g> <path class="st2" d="M328.8,240.9c-6.8-3.9-17.9-3.9-24.7,0c-6.8,3.9-6.8,10.3,0.1,14.3c6.8,3.9,17.9,3.9,24.7,0 C335.7,251.2,335.6,244.8,328.8,240.9L328.8,240.9z"></path> </g> </g> </g> <g> <g> <g> <g> <g class="st1"> <g> <path class="st2" d="M188.6,320c-15.4-8.9-40.4-8.9-55.7,0c-15.3,8.9-15.3,23.4,0.2,32.3c15.4,8.9,40.4,8.9,55.7,0 C204.2,343.3,204.1,328.9,188.6,320L188.6,320z"></path> </g> </g> </g> </g> <g> <g> <g class="st1"> <g> <path class="st0" d="M206,309.9c-25.1-14.5-65.7-14.5-90.6,0c-24.9,14.5-24.8,38,0.3,52.5c25.1,14.5,65.7,14.5,90.6,0 l-1.4-0.8l-1.4-0.8c-11.7,6.8-27,10.2-42.4,10.2c-15.4,0-30.8-3.4-42.5-10.2c-11.8-6.8-17.7-15.7-17.7-24.6 c-0.1-8.9,5.8-17.8,17.4-24.6c11.7-6.8,27-10.2,42.4-10.2c15.4,0,30.7,3.4,42.5,10.2c11.8,6.8,17.7,15.7,17.7,24.6 c0,8.9-5.8,17.8-17.5,24.6l1.4,0.8l1.4,0.8C231.3,347.9,231.2,324.4,206,309.9L206,309.9z"></path> </g> </g> </g> </g> </g> </g> <g> <path class="st0" d="M602.8,583.4c-0.8,0-1.5-0.7-1.5-1.5v-60.6c0-0.8,0.7-1.5,1.5-1.5s1.5,0.7,1.5,1.5v60.6 C604.3,582.7,603.7,583.4,602.8,583.4z"></path> </g> <g> <g> <g class="st1"> <g> <path class="st2" d="M451.5,570c-6.8-3.9-17.9-3.9-24.7,0s-6.8,10.3,0.1,14.3c6.8,3.9,17.9,3.9,24.7,0 C458.4,580.3,458.3,573.9,451.5,570L451.5,570z"></path> </g> </g> </g> </g> <g> <g> <g> <g> <g class="st1"> <g> <path class="st2" d="M548.8,109.8c-6.8-3.9-17.9-3.9-24.7,0c-6.8,3.9-6.8,10.3,0.1,14.3c6.8,3.9,17.9,3.9,24.7,0 C555.7,120.1,555.7,113.7,548.8,109.8L548.8,109.8z"></path> </g> </g> </g> </g> <g> <path class="st0" d="M536.5,117.1c-0.8,0-1.5-0.7-1.5-1.5V55c0-0.8,0.7-1.5,1.5-1.5c0.8,0,1.5,0.7,1.5,1.5v60.6 C538.1,116.5,537.4,117.1,536.5,117.1z"></path> </g> </g> </g> <g> <g> <path class="st0" d="M439.2,578.6c-0.8,0-1.5-0.7-1.5-1.5v-33.9c0-0.8,0.7-1.5,1.5-1.5s1.5,0.7,1.5,1.5v33.9 C440.7,577.9,440,578.6,439.2,578.6z"></path> </g> <g> <path class="st0" d="M439.2,536.9c-0.8,0-1.5-0.7-1.5-1.5v-14.5c0-0.8,0.7-1.5,1.5-1.5s1.5,0.7,1.5,1.5v14.5 C440.7,536.2,440,536.9,439.2,536.9z"></path> </g> </g> <g> <g> <path class="st0" d="M663.7,452.8c-0.8,0-1.5-0.7-1.5-1.5v-33.9c0-0.8,0.7-1.5,1.5-1.5c0.8,0,1.5,0.7,1.5,1.5v33.9 C665.2,452.2,664.5,452.8,663.7,452.8z"></path> </g> <g> <path class="st0" d="M663.7,411.1c-0.8,0-1.5-0.7-1.5-1.5v-14.5c0-0.8,0.7-1.5,1.5-1.5c0.8,0,1.5,0.7,1.5,1.5v14.5 C665.2,410.5,664.5,411.1,663.7,411.1z"></path> </g> </g> <g> <g> <path class="st0" d="M382.7,113.7c-0.8,0-1.5-0.7-1.5-1.5V78.2c0-0.8,0.7-1.5,1.5-1.5s1.5,0.7,1.5,1.5v33.9 C384.2,113,383.5,113.7,382.7,113.7z"></path> </g> <g> <path class="st0" d="M382.7,72c-0.8,0-1.5-0.7-1.5-1.5V56c0-0.8,0.7-1.5,1.5-1.5s1.5,0.7,1.5,1.5v14.5 C384.2,71.3,383.5,72,382.7,72z"></path> </g> </g> <g> <path class="st0" d="M602.8,505.5c-0.8,0-1.5-0.7-1.5-1.5v-14.5c0-0.8,0.7-1.5,1.5-1.5c0.8,0,1.5,0.7,1.5,1.5V504 C604.3,504.8,603.7,505.5,602.8,505.5z"></path> </g> <g> <path class="st0" d="M602.8,477.7c-0.8,0-1.5-0.7-1.5-1.5v-14.5c0-0.8,0.7-1.5,1.5-1.5c0.8,0,1.5,0.7,1.5,1.5v14.5 C604.3,477.1,603.7,477.7,602.8,477.7z"></path> </g> <g> <path class="st0" d="M316.5,140.2c-0.8,0-1.5-0.7-1.5-1.5v-14.5c0-0.8,0.7-1.5,1.5-1.5s1.5,0.7,1.5,1.5v14.5 C318,139.6,317.4,140.2,316.5,140.2z"></path> </g> <g> <path class="st0" d="M536.5,46.9c-0.8,0-1.5-0.7-1.5-1.5V30.9c0-0.8,0.7-1.5,1.5-1.5c0.8,0,1.5,0.7,1.5,1.5v14.5 C538,46.2,537.4,46.9,536.5,46.9z"></path> </g> <g> <path class="st0" d="M316.5,248c-0.8,0-1.5-0.7-1.5-1.5V200c0-0.8,0.7-1.5,1.5-1.5s1.5,0.7,1.5,1.5v46.6 C318,247.3,317.4,248,316.5,248z"></path> </g> <g> <path class="st0" d="M316.5,184.8c-0.8,0-1.5-0.7-1.5-1.5v-25.8c0-0.8,0.7-1.5,1.5-1.5s1.5,0.7,1.5,1.5v25.8 C318,184.2,317.4,184.8,316.5,184.8z"></path> </g> <g> <g class="st1"> <g> <polygon class="st5" points="634.7,260.2 634.6,304.7 617,314.9 617.2,270.4 "></polygon> </g> <g> <polygon class="st0" points="617.2,270.4 617,314.9 539.4,270.1 539.6,225.6 "></polygon> </g> <g> <polygon class="st6" points="634.7,260.2 617.2,270.4 539.6,225.6 557.1,215.4 "></polygon> </g> </g> <g class="st1"> <g> <polygon class="st5" points="546.7,239.5 546.6,283.9 519.5,299.6 519.7,255.1 "></polygon> </g> <g> <polygon class="st5" points="575.6,258.5 575.4,303 550.5,317.5 550.6,273 "></polygon> </g> <g> <polygon class="st5" points="581.7,291 581.6,335.4 564.1,345.7 564.2,301.2 "></polygon> </g> <g> <polygon class="st0" points="564.2,301.2 564.1,345.7 486.5,300.9 486.6,256.4 "></polygon> </g> <g> <polygon class="st6" points="546.7,239.5 519.7,255.1 535.1,264.1 560,249.6 575.6,258.5 550.6,273 581.7,291 564.2,301.2 486.6,256.4 531.2,230.5 "></polygon> </g> </g> <g class="st1"> <g> <polygon class="st5" points="532.9,296.1 532.8,340.6 502.7,358.1 502.9,313.6 "></polygon> </g> <g> <polygon class="st0" points="502.9,313.6 502.7,358.1 488.3,349.8 488.5,305.3 "></polygon> </g> <g> <polygon class="st6" points="532.9,296.1 502.9,313.6 488.5,305.3 518.5,287.8 "></polygon> </g> </g> <g class="st1"> <g> <polygon class="st5" points="511.7,331.7 511.5,376.2 494,386.4 494.1,341.9 "></polygon> </g> <g> <polygon class="st0" points="494.1,341.9 494,386.4 416.4,341.6 416.5,297.1 "></polygon> </g> <g> <polygon class="st6" points="511.7,331.7 494.1,341.9 416.5,297.1 434.1,286.9 "></polygon> </g> </g> <g class="st1"> <g> <polygon class="st0" points="432.9,349.2 432.8,393.7 392.7,355.3 392.9,310.9 "></polygon> </g> <g> <polygon class="st0" points="448.5,368.4 448.4,412.9 392.5,394.9 392.6,350.4 "></polygon> </g> <g> <polygon class="st5" points="467.9,357.1 467.8,401.6 448.4,412.9 448.5,368.4 "></polygon> </g> <g> <polygon class="st0" points="391.2,373.5 391,418 351.8,379.1 352,334.6 "></polygon> </g> <g> <polygon class="st0" points="404.3,394.1 404.2,438.6 304.6,406.5 304.8,362.1 "></polygon> </g> <g> <polygon class="st5" points="423.8,382.7 423.7,427.2 404.2,438.6 404.3,394.1 "></polygon> </g> <g> <polygon class="st6" points="412.3,299.6 467.9,357.1 448.5,368.4 392.6,350.4 423.8,382.7 404.3,394.1 304.8,362.1 324.3,350.7 390.7,373.8 391.2,373.5 352,334.6 365.2,326.9 432.5,349.5 432.9,349.2 392.9,310.9 "></polygon> </g> </g> </g> <g> <g> <g> <path class="st7" d="M686,212.9c0,0-0.2,5.4,0.1,6.7c0.2,1,3.3,1.1,3.6,0.6c0.4-0.5,0.8-6.8,0.8-6.8"></path> <path class="st0" d="M690.9,220.4c0,0.8-0.2,2-0.3,2.7c-0.1,0.3-0.3,0.6-0.7,0.6h-3.8c0,0-1.7,0-2.8,0h-3.7 c-2.7,0-4.3-0.3-4.4-0.8c-0.3-2,10.3-5.3,10.8-5.1c0,0,0.1,0.4,0.5,0.9c0.6,0.7,1.1,1,2,0.8c0.6-0.1,1.1-0.3,1.5-0.7 C690,218.8,690.9,219.1,690.9,220.4z"></path> </g> <g> <path class="st7" d="M732,215.2c0,0,0.6,2.7,0.9,3.6s3.3,0.3,3.5-0.3c0.2-0.6-1.2-5.7-1.2-5.7"></path> <path class="st0" d="M737.4,218.7c0.2,0.7,0.4,1.8,0.5,2.5c0.1,0.3-0.1,0.6-0.4,0.8l-2.6,1.1l0,0c-0.2,0.1-1.2,0.4-2.1,0.8 c-0.8,0.4-2.2,0.7-3.1,0.8c-2.7,0.2-4.6-0.4-4.8-0.7c-0.6-1.5,5.8-5.7,7.2-6.4c0.2-0.1,0.4-0.1,0.5,0c0.2,0.1,0.6,0.3,0.8,0.8 c0.1,0.3,0.4,0.5,0.8,0.4c0.7-0.1,1.8-0.4,2.2-1.2C736.3,217.5,737.1,217.6,737.4,218.7z"></path> </g> <path class="st0" d="M721.2,134.4c0,0,6.1-17.9-11.2-32.6c0,0-9.2,3.7-16.6,4.1c-5.8,0.3-8.8-0.2-8.8-0.2s-0.5,15.9-0.5,24.4 L721.2,134.4z"></path> <path class="st0" d="M686.5,115.6c-1.4,0.5-1.8,4.6-2,7.4c-0.2,2.8-1.3,31.9-1.7,37.1c-0.1,0.9-0.1,1.7,0,2.4 c-0.1,0.5-0.1,1-0.1,1.5c0.4,8.5,2.2,35.5,2,52c0,0,5,0.5,6.4,0.2c1-11.5,7.4-33.2,5.2-47c-0.8-4.9-0.4-10,1.1-14.7 c2.5-8.1,5.4-17.7,6.2-22.2C705.2,121.8,693.2,113,686.5,115.6z"></path> <path class="st0" d="M726.7,171.3c-2.6-4.5-4.3-9.6-4.4-14.9c-0.2-9.7-0.4-22.1-1.4-26.8c-2.3-10.4-14.3-14.7-19.6-9.8 c-1.1,1-1.3,6.5-0.4,9.2c0.9,2.7,7.7,32.4,9.4,37.4c0.2,0.7,0.5,1.4,0.7,1.9c0.1,0.5,0.2,0.9,0.4,1.5c2.9,8.1,15,31.2,19.7,47 c0,0,4.5-0.5,6.1-1.6C734.6,204,734,183.8,726.7,171.3z"></path> <g> <path class="st8" d="M720.5,114.7c-20.8,3.8-37.1,0.3-36.9-1.1c0.6-3.4,2.1-29.9,1.2-32.5c-1.6-4.5-2.3-12-3.6-15.4 c-0.9-2.6-3.4-10-1.4-12c2.2-2.3,7.6-5.7,15.5-5.5c5.5,0.2,19.5,1.6,22,4.7c1.6,1.9,2.4,5.5,2.8,9.9c0.2,2.7,0.3,5.6,0.3,8.8 c-0.1,9.3-1.2,19.9-1.8,27.7C718.3,104.9,720.5,114.7,720.5,114.7z"></path> <path class="st9" d="M693.5,41.8c0,0,0,5.6-0.2,5.8c-0.5,0.6-2.1,0.9-2.1,0.9s0.3,3.5,3.7,3.9c7.3,0.9,9.8-3.3,9.8-3.3 s-1.9-0.4-1.8-1.5c0-0.5,1.2-9.8,1.2-9.8"></path> <g> <path class="st10" d="M693.5,42.4l3.9,0.7c0,0-1.3,1.4-3.9,1.4"></path> </g> <g> <g> <path class="st5" d="M684,21.9c-1.2,1-1.2,3.1-1.1,4.6c0.1,1.7,0.5,3.4,0.9,5.1c0.3,1.2,0.8,2.3,1.6,3.2c0.4,0.4,1,0.7,1.5,1 c0.3,0.2,0.6,0.3,1,0.4c0.3,0.1,0.7,0,1-0.2c0.4-0.4,0.3-0.9,0.3-1.4c-0.4-3.3-0.8-6.6-0.3-9.9"></path> </g> <g> <path class="st9" d="M686.4,31.8c-0.4-0.9-1.7-1.1-2.1,0.2c-0.4,1.1,0.1,2.7,0.5,3.8c0.5,1.4,1.7,1.2,2.6,1"></path> </g> <path class="st9" d="M689.6,20.2c-1.1,0.8-4.5,1.5-4.8,3.2s0.3,5.2,0.3,6.2c0.1,2,0.5,4.1,0.8,6.1c0.4,2.6,1.2,7.3,4.3,8.3 c0.9,0.3,1.3,0.3,2.1,0.1c1.2-0.3,2.3-0.5,3.5-0.8c1.8-0.4,3.8-0.9,5.3-2.1c1.9-1.7,1.8-5.3,1.5-7.6l-1.8-13.3L689.6,20.2z"></path> <g> <path class="st5" d="M703,31.1c-0.9-0.1-1.7-0.3-1.9,0.6c-0.1,0.5,0,1.1-0.4,1.4c-0.4,0.3-1,0.1-1.3-0.3s-0.4-0.9-0.4-1.4 c-0.1-1.1-0.2-2.2-0.3-3.3c-0.1-1.1-0.3-2.3-1-3c-0.4-0.4-0.9-0.6-1.4-0.8c-1.7-0.5-3.6-0.4-5.3,0c-1.8,0.4-3.5,0.9-5.3,1.1 c-0.7,0.1-1.5,0.1-2.2-0.1c-1.2-0.4-2.1-1.3-2.6-2.4s-0.6-2.4-0.4-3.6c0.3,0.3,0.6,0.6,1,0.9c0-0.6,0.1-1.2,0.3-1.8 c1.6,2.4,12.3-3.2,15.3-3.1c2.1,0,3.8-0.1,5,2.9c0.1,0.2,0.3,0.2,0.5,0.3c2.2,0.8,3.7,2.3,5,4.8c1.6,3.1,1.2,7.4,0.5,10.8 c-0.2,0.9-0.2,1.4-0.7,2.2c-0.4,0.8-1.5,1.5-2.3,1.7c-0.9,0.2-2.4,0.9-2.8,0.1c-0.3-0.6,0.5-2.1,0.7-2.8"></path> </g> <g> <path class="st9" d="M701.4,35.3c0,0,0.1,0.6,0.6,0.9c0.5,0.2,1-0.1,1.4-0.4c1-0.9,1.3-2.4,1-3.6c-0.3-1.5-1.7-2.6-2.8-1.7 c-0.7,0.5-0.8,1.6-0.4,2.3"></path> </g> </g> </g> </g> <polygon class="st8" points="679.2,54.8 675.2,69.1 684.2,70.1 686.6,61.3 "></polygon> <g> <rect x="661.9" y="91.5" class="st2" width="49.3" height="1.9"></rect> <path class="st2" d="M652.4,93.5h42.8l-7.7-25c-0.4-1.4-1.7-2.3-3.1-2.3h-37.5c-1.4,0-2.5,1.4-2,2.8L652.4,93.5z"></path> <path class="st2" d="M651.9,93.5H694l-7.7-25c-0.4-1.4-1.7-2.3-3.1-2.3h-37.5c-1.4,0-2.5,1.4-2,2.8l7.3,24 C651.2,93.2,651.5,93.5,651.9,93.5z"></path> <path class="st6" d="M671.5,80.1c0,2.4-1.9,4.3-4.3,4.3c-2.4,0-4.3-1.9-4.3-4.3c0-2.4,1.9-4.3,4.3-4.3 C669.6,75.8,671.5,77.7,671.5,80.1z"></path> </g> <path class="st9" d="M707.6,70.1c0,0-1.7,11.3-2.2,14.3c-0.4,2.3-1.3,9.1-1.3,9.1l2.8,5.7c0,0,2.5-0.8,4.3-3 c1.8-2.3,5.4-19.9,5.4-19.9"></path> <path class="st8" d="M709.2,58.3c0,0-2.2,9.2-2.7,17.5c0,0,7.9,1.6,12.6,2.2c0,0,6.6-19.2-2.3-25.3"></path> <g> <path class="st11" d="M708.6,61.3l-1,7.3c-0.2,1.2-0.3,2.4-0.5,3.6c-0.1,1.2-0.3,2.4-0.3,3.6l-0.2-0.3c1.8,0.4,3.6,0.8,5.3,1.2 c1.8,0.4,3.6,0.7,5.4,1c-1.8-0.1-3.6-0.3-5.4-0.6s-3.6-0.6-5.4-1h-0.2v-0.2c0-1.3,0.1-2.5,0.3-3.7s0.4-2.4,0.6-3.6 C707.5,66.1,708,63.6,708.6,61.3z"></path> </g> <path class="st9" d="M696.5,93.5c0,0,5-1.4,9.6-0.6c4.6,0.8,0.8,6.3,0.8,6.3c-20.3,1.7-33.1-5.7-33.1-5.7h30.4"></path> <path class="st9" d="M670,93.5c0,0,2.9,1.2,6.4,1.3c3.6,0.1,4.1-1.3,4.1-1.3H670z"></path> </g> <g> <g> <g> <g> <path class="st7" d="M149.8,310.7c0,0-5.3,10.6-8.2,16.5c-0.2,0.3-0.2,0.8,0,1.2c0.7,1.5,2.6,5.3,3.8,6.8 c-0.9-0.3-12.6-3.6-10.1-7.1c2.1-3,3.5-11.5,6.2-20.3"></path> <path class="st0" d="M136,326.1c0.1-0.1,0.5-0.1,0.6,0.1c0.6,0.8,1.8,1.5,2.4,1.7c1.2,0.3,2.3-0.1,2.8,0.2 c0.5,0.3,3.2,6.3,5.8,8.4c1.8,1.5,0.5,2.6,0.2,2.8c-6.8,1.6-8.5-2-9.2-2.8c-1.6-1.8-1.8-2.8-3.3-4.5c-0.5-0.5-1.3-1.5-1.4-2.2 C133.6,328.4,134.7,326.9,136,326.1z"></path> </g> <g> <path class="st7" d="M181.7,318.8c0,0,0.2,4.6,0.1,12.6c0,0.3,0.1,0.7,0.5,0.9c1.4,1,5.3,4,7.4,4.8c-1.2,0.2-14.4,3.5-13.7-1.5 c0.6-4.1-0.2-7.9-2.2-16.6"></path> <path class="st0" d="M175.8,333.6c0.1-0.2,0.3-0.3,0.6-0.3c0.9,0.3,2.3,0.2,3,0.2c0.9,0.1,2.3-1.4,2.9-1.3 c0.6,0.1,4.8,3,7.5,4.1c0.6,0.2,1.6,0.6,3.1,1.2c3,1.4,0.8,2.6,0,2.8c-1.3,0.3-13.1,0.2-15.6-0.5c-1.2-0.2-1.8-0.6-2.3-1.2 C174.4,337.7,175.3,335.4,175.8,333.6z"></path> </g> <path class="st0" d="M188.6,230.2c0.5,13.7-6.3,94.1-6.3,94.1s-0.9,0.5-2.9,0.5c-2.6,0-5.1-0.3-5.1-0.3s-4.7-20.4-4-41.2 c0.1-2.8,0.2-5.5,0.6-8.3c0.5-4.4,0.5-8.8-0.2-13.1c-0.8-5-1.6-10.4-2.3-16.1c-1.4-11.2-2.4-23.2-2.6-33.1 c-0.8-47.5,19.4-8.5,19.4-8.5S188.1,216.5,188.6,230.2z"></path> <path class="st5" d="M170.9,274.9c0.5-4.4,0.5-8.8-0.2-13.1c-0.8-5-1.6-10.4-2.3-16.1l4.3-20.3c0,0,4.8,33.8-2.3,57.8 C170.4,280.5,170.7,277.7,170.9,274.9z"></path> <path class="st0" d="M151.5,208.6c0,0-6,12.4-4.5,25.7c1,9.1,3.6,19.2,5.5,25.9c1.2,3.9,0.8,8.1-0.9,11.8 c-6.3,13.8-14.5,47.7-14.5,47.7s4.6,2.5,8.4,2.4c0,0,18-39.2,21.1-50.7c5.9-21.3,6.7-61.9,6.7-61.9L151.5,208.6z"></path> <path class="st7" d="M180.2,116.1c1.2,2.9-0.6,6.1-0.9,9.1c-0.2,2.1,0.1,4.3,0.2,6.5c0,2.2-0.3,4.5-1.8,6c-1.3,1.3-3.1,1.8-5,2 c-4.3,0.2-8.5-1.5-11.4-4.6c-2.9-3.1-4.3-7.6-3.6-11.8c0.2-1.5,0.7-3,1.3-4.4c1.6-3.6,4.3-6.9,8.1-8.2c3.7-1.3,8.4-0.1,10.3,3.3"></path> <path class="st5" d="M157.3,109.4c-1.8-1.5-4.3-2.3-6.6-2.5c-3-0.2-6.2,0.8-7.9,3.1c-1.7,2.2-2,5.2-3.3,7.6 c-2.4,4-7.6,5.5-10.8,9c-0.9,1-1.7,2.3-1.6,3.7c0.1,1.7,1.5,3.1,1.7,4.8c0.5,3.1-2.8,5.8-2.3,8.9c0.5,2.6,3.3,4,6.1,4.4 c4,0.6,8.2-0.3,11.4-2.8s5.2-6.6,4.7-10.5c-0.2-1.7-0.9-3.5-0.9-5.2c-0.1-3.1,1.7-6.1,1.5-9.3c-0.1-1.4-0.6-3,0.1-4.3 c0.3-0.6,0.8-1,1.3-1.4c1.5-1.3,3.5-2.5,5.2-1.6"></path> <path class="st5" d="M183.1,114.7c-0.2-1.3-0.5-2.5-1.2-3.6c-1.3-2.1-4.1-2.8-6.3-1.8c-0.2-0.6-0.5-1-0.8-1.5 c-3.5-4.8-11.3-4.4-16-2.2c-1,0.5-2,0.9-2.6,1.8c-1,1.3-1.2,3-1.3,4.7c-1.3,0.2-2.3,1.3-2.9,2.3c-0.6,1.2-0.8,2.4-0.9,3.7 c-0.3,4.3,0.9,8.8,3.6,12.1c1,1.4,2.5,2.5,4.1,2.8c0.2,0,0.6,0,0.8-0.2c0.1-0.1,0.1-0.2,0.1-0.3c0-0.9-0.3-1.7-0.5-2.6 c-0.1-0.9-0.1-1.8,0.5-2.6c0.5,0,0.8,0.9,1.3,0.7c0.1,0,0.1-0.1,0.2-0.2c0.7-1.3,0.2-2.9,0.2-4.4c0-0.2,0.1-0.3,0.1-0.6 c4.5-2.8,10.5-1.4,15-4.5c0.3-0.2,0.8-0.6,1-1c0.2-0.5,0.3-0.9,0.3-1.5c0.5,0.7,0.9,1.4,1.2,2.1c0.7,2.3,0.9,3.5,0.6,7 c0.9-1.6,2-3,2.9-4.7c0.3-0.6,0.7-1.3,0.8-2C183.5,116.9,183.3,115.7,183.1,114.7z"></path> <path class="st12" d="M161.6,127.7c0.2-0.2,0-0.5-0.2-0.6c-0.5-0.3-0.9-0.6-1.4-0.7s-1.2-0.1-1.5,0.2c-0.3,0.3-0.6,0.8-0.7,1.4 c-0.2,1.7,0.5,3.7,2,4.7c0.6,0.5,1.3,0.8,2,0.6c0.7-0.1,1.3-0.9,1-1.6"></path> <path class="st7" d="M189.4,177.1c0,0-4.4,26.4-4.8,30.4c-0.3,3.2,1.5,5.5,3.7-0.6c1.5-4.1,11.1-25,8.5-31.7 c-2.5-6.6-5.3-0.7-5.3-0.7L189.4,177.1z"></path> <path class="st7" d="M188.5,157.3c0,0,5.2,9.3,8.2,17.6c1.4,3.9-3.8,9.7-7.3,2.6c-4-8.3-7.8-15.6-7.8-15.6"></path> <g> <path class="st8" d="M189.8,159.2c-0.1,0.1-0.2,0.2-0.5,0.3c-0.7,0.6-1.8,1.4-3.5,2.4c-0.2,0.1-0.5,0.2-0.7,0.5 c-5,2.8-7.6-5.4-7.6-5.4l-0.7-13.9c0,0,2.5,0.5,6.8,5.6C184,149.1,187.8,154.2,189.8,159.2z"></path> <path class="st11" d="M189.4,159.5c-0.7,0.6-1.8,1.4-3.5,2.4l-5.3-2.6l0.8-9.3c0,0,2.5,4.1,3.7,5.8 C186.4,157.4,188.1,158.2,189.4,159.5z"></path> <path class="st8" d="M185.8,175c-4,7-0.3,25.2,0.9,35c0,0.3-0.2,0.7-0.6,0.8c-6.8,1.3-19.9,3-28.8,1c-0.9-0.2-1.8-0.5-2.5-0.6 c-1.5-0.5-2.4-0.8-3.1-1.2c-0.2-0.1-0.3-0.5-0.3-0.7c0.1-0.5,0.2-0.9,0.2-1.4c1.2-6.2,2-16.5-1.7-31.6 c-2.5-10.1-3.8-21.8,0.1-28l0,0c0.3-0.6,0.8-1.2,1.4-1.7c4.1-4.1,11.5-4.7,22.1-4.3c2.1,0.1,4.3,1.3,5.3,2.2 c3,2.5,2.8,11.8,6.5,16.9C186.9,163.4,190.4,167,185.8,175z"></path> <path class="st11" d="M154.9,211.1c-1.8-0.6-3.9-0.9-4.1-2c-0.1-1.8,0.9-3.6,1-4.1c1.2-6.2,2.1-13.7-1.7-28.8 c-2.5-10.1-3.8-21.8,0.1-28l0,0c0.7-1.2,2.1-1.8,3.5-1.8c0.7,0,1.4,0,2.2,0.2c-0.6,1.6-1.4,6.1-1.4,6.1l5.2,1.2 c0,0,1.3,1.8-1.8,12.8l0,0c-1,2.8-1.8,4.7-2,7.1c-0.3,4.4,0.5,13.5,0.5,13.5S155.8,204.7,154.9,211.1z"></path> <path class="st7" d="M157,161.1l-6.7,18c-2.1,2.2-4.6,3.6-6.9,2.4c-1.5-0.7-1.7-2.5-1.7-3.7c0-0.7,0.1-1,0.1-1 c0.7-3.9,1.7-8.5,2.6-12.3c0.2-0.8,0.3-1.6,0.6-2.4c0.7-2.6,1.2-4.6,1.4-5.3c0.1-0.2,0.1-0.3,0.1-0.3L157,161.1z"></path> <path class="st13" d="M149.5,165.8l-2.9,5.9c0,0-2.3,1.2-1.4-0.8c0.9-2,0.8-5.1,0.8-5.1c-0.7-0.3-1.3-0.9-1.7-1.3 c0.2-0.8,0.3-1.6,0.6-2.4c0.8,0,2.8,0,2.8,0C147.7,162.2,149.5,165.8,149.5,165.8z"></path> <path class="st8" d="M152.7,145.3c-6.6,3.1-7.9,10.6-9.1,18.2l11.4,4.6c0,0,9.7-14.7,3.7-20.3 C156.4,145.6,155.2,144.2,152.7,145.3z"></path> </g> <path class="st7" d="M169.3,137.3c0.1,0.9,0.8,3.9,1.2,4.4c0.5,0.6,1.2,0.5,1.7,0.5c0,2.4-3.3,4.6-6.1,4 c-1.8-0.3-3.8-1.8-4.5-3.7c1.5-1.2,1.5-3.6,1.5-5.3c0-1.3,0.2-3.1-0.2-4.4"></path> <path class="st2" d="M167.3,137.3l-6.9,2.4c-0.5,0.1-1-0.1-1.2-0.6l-5.3-15.3c-0.1-0.5,0.1-1,0.6-1.2l6.9-2.4 c0.5-0.1,1,0.1,1.2,0.6l5.3,15.3C168,136.6,167.8,137,167.3,137.3z"></path> <path class="st7" d="M149.2,183.6c2.3-0.3,6.5-6.6,8.1-13c3.2-12.4,5.1-21.7,5.8-25.7l0,0c0.2-1.5,0.3-2.2,0.3-2.2 s-4.5-1.5-4.5-0.9c0,0.5,0,1-0.3,1.6c-2.3,4.4-9.2,17.2-12.7,26.7c-0.2,0.6-0.9,0.9-1.5,0.8c-2.5,1.4-2.5,8.9-2.5,8.9l0.5,0.9 C144.4,183.8,147.6,183.8,149.2,183.6z"></path> <path class="st7" d="M159,141.8c0,0,0.3-2.4-0.8-4.5c-1.3-2.2-1.6-5.3-1.6-5.3s0.1-5.2,0.6-5.5c0.3-0.5,0.7,0.5,0.8,1.3 c0.1,0.7,0.1,3.7,0.2,4.4c0.1,0.8,0.7,2,0.7,2s-0.2-4-0.2-5.3c0-1.3,0-2.5,0.3-2.5c0.6,0.1,0.9,1.4,0.9,3c0,1.6,0.8,5,0.8,5 s-0.1-3,0-4c0.1-1,0.2-3,0.5-3.2c0.2-0.2,0.9,0.2,0.9,1.2s0.2,4,0.3,5s0.7,1.6,0.7,1.6s-0.1-1.4-0.1-2.8c0-1.5,0.2-3.1,0.5-3.1 c0.9,0,0.7,4.4,0.9,5.1c1.2,3.3-0.7,9-0.7,9s-2.6,2.5-3,2.6c-0.3,0.1-2.3,0.3-2.3,0.3L159,141.8z"></path> </g> </g> </g> <g> <g> <g> <g> <path class="st0" d="M829.8,457.5c-2.7,0.3-8.1-3.2-8.9-3.4c-0.8-0.1-2.8-2.2-2.5-3.1c0.2-0.9-1.9-1.6-2.3-0.7s-5.7-0.2-3.7-3.1 s6-6.1,6-6.1c2,3.2,5.1,2.7,5.1,2.7s-0.3,2.3,0.3,5.1C824.5,451.5,832.5,457.2,829.8,457.5z"></path> </g> <g> <path class="st14" d="M861.1,360.9c0,0,1.9,25.6-3.2,34.6c-5.1,8.9-35.8,49.3-35.8,49.3l-3.8-3.2c0,0,12-39.4,23.4-56.3 c0,0,1.2-22.2-2.5-26.8C839.1,358.7,845.9,358.1,861.1,360.9z"></path> </g> <g> <path class="st0" d="M827,456c-0.8,0.1-3.4-1.3-3.5-2.2s-2.2-0.9-2.4,0.1c-0.1,1-5.4,1.6-4.5-1.7c1-3.4,3.8-7.8,3.8-7.8 c2.9,2.4,5.7,0.8,5.7,0.8s0.5,2.3,1.9,4.6c1.4,2.3,10.9,5.2,8.5,6.4C834.1,457.5,827.8,455.9,827,456z"></path> </g> <g> <path class="st15" d="M826.6,240.9l-0.2-8l6.5,0.1l0.5,8C833.3,241,830.4,244.7,826.6,240.9z"></path> </g> <g> <path class="st15" d="M839.1,358.7c0,0,1.2,28.7-0.7,32.2s-12.9,47.5-12.3,54.4c0,0-2.1,2.9-5.8-0.6c0,0-4.6-45.4-1.4-54.9 c3.1-9.5-4.4-27.8-4.4-27.8S829.6,358.3,839.1,358.7z"></path> </g> <g> <g> <path class="st0" d="M811.1,303.5c4.5-12.6,11.8-18.2,13-19.8l18.8,0.2c6.1,5,14.1,20.3,16.4,34.5c3.1,19.3,1.7,42.6,1.7,42.6 s-18.7,0.3-46.7,1C814.4,362.1,805.9,317.6,811.1,303.5z"></path> </g> </g> <path class="st16" d="M833.3,218.8l-10.8,9.8c0,0,0.7,12.4,10.8,11.4c10.2-1.2,10.1-15.2,8.3-18.7 C840,217.7,833.3,218.8,833.3,218.8z"></path> <path class="st5" d="M844.4,217.6c-2.1-1.3-4.5-1.4-6.5-2.9c-0.2-0.1-0.6-0.2-0.9-0.5c-0.3-0.1-0.6-0.2-0.9-0.3 c-0.3-0.1-0.6-0.2-0.9-0.3c-0.2-0.1-0.5-0.1-0.7-0.2c-0.2-0.1-0.5-0.1-0.7-0.2c-3-1.3-6.5-0.9-9,1c-0.3,0.2-0.6,0.5-0.8,0.7 c-0.3,0.2-0.6,0.5-0.9,0.7c-0.7,0.6-1.3,1.3-1.6,2.1c-0.1,0.2-0.2,0.6-0.3,0.8c-0.3,0.6-0.5,1.3-0.7,2c-0.1,0.3-0.1,0.7-0.1,1 c-0.8,2.7-0.1,6.7,2,7.6c0.2,0.1,0.6,0.2,0.8,0.2c0.8,0,1.4-0.2,2-0.5c0.8-0.5,1.5-1,2.3-1.5c0.3-0.1,0.6-0.3,0.8-0.6 c1.9-1.6,3.1-4.5,5.7-5.3c2.5-0.8,5.2,1.9,6.4,4.1c0.6,1,0.8,5.4,3.2,4.6c2.9-0.9,2.2-5.9,2.5-8.2 C846.4,220.3,846,218.7,844.4,217.6z"></path> <path class="st2" d="M815.8,226.9c0.1,0.3,7,16.8,7.3,16.8s6-2.7,6-2.7l-6.8-16.8C822.3,224.2,815.7,226.5,815.8,226.9z"></path> <polygon class="st6" points="816.9,228.6 822.7,241.9 828.2,239.7 822.5,226.3 "></polygon> <path class="st5" d="M813,204.6c-4.2,2.5-10.7,4.5-17.3-3.1c-6.7-7.5-15.4-8.7-22.7-7.4c-7.3,1.3-2.7,5,4.9,5.7 c7.5,0.6,9,16.3,17.1,18.7c3.5,1,7.3,0.2,10.7-0.8c2.2-0.7,4.2-1.7,6.3-2.4c3.2-1,6.6,0.6,10,0.1c0.9-0.1,1.9-0.5,2.5-0.9 c2.2-1.5,3.1-4.5,1.5-7.2C823.1,202.8,817.2,202.1,813,204.6z"></path> <path class="st16" d="M891.3,237.8c0,0,0,0-0.5-2.1s-14.8,26.6-17.4,26.9c-2.5,0.2-18.4-14.7-18.4-14.7l1.7,22.6 c0.1,1.4,17.3,5.6,19.1,5.6c4.2-0.1,7.4-14.7,8.5-18c1.6-4.6,3.1-9.4,4.6-14.1c0,0,0,0,1.9-0.9c1.9-0.9,9.6-7,8.1-8.2 C897.4,233.6,891.3,237.8,891.3,237.8z"></path> <path class="st8" d="M856,248.6c-2.1-2.2-20.9-4.9-20.9-4.9c-3.4,3.4-6.6,0-6.6,0s-11.1,1.5-11.1,1.6c-1.7,0.2-6.3,9.3-7.2,10.8 c-2.5,3.8-5.1,7.6-7.6,11.5c5.6-3.7,11.7-2.1,15.4,3.5c1.7,2.7,3.2,5.6,4.2,8.7c1.2,3.7,1,5.1,5.4,5.1c4.9,0,10.4,0.3,15.3-0.7 c-0.6,0.1,3.9-9.5,4.9-10.4c3-3,6-5,9.8-2.4c2.2-0.5,7-13.8,6.4-15.2C863.5,254.5,858.2,250.8,856,248.6z"></path> <path class="st16" d="M828.6,244c0,0,3.9,3.2,6.6,0v-6.3l-6.6,0.9V244z"></path> <path class="st16" d="M818.4,231.1c-2,2.3-0.8,9.3-2,10.7c-2,2.3-5.1,3.9-7.4,5.8c-5.6,4.1-12.6,9.4-15.2,16 c-1,2.7-1.4,7.3,2,8.7c4.2,1.7,6-3.6,7.8-5.9c0.2-0.3,16.9-23.3,18.2-23.9s0.8-7.4,0.8-9.7C822.4,230.2,820.4,228.6,818.4,231.1z "></path> </g> </g> </g> </svg> 