<?xml version="1.0" encoding="UTF-8" standalone="no"?>
<svg
   xmlns:dc="http://purl.org/dc/elements/1.1/"
   xmlns:cc="http://creativecommons.org/ns#"
   xmlns:rdf="http://www.w3.org/1999/02/22-rdf-syntax-ns#"
   xmlns:svg="http://www.w3.org/2000/svg"
   xmlns="http://www.w3.org/2000/svg"
   xmlns:sodipodi="http://sodipodi.sourceforge.net/DTD/sodipodi-0.dtd"
   xmlns:inkscape="http://www.inkscape.org/namespaces/inkscape"
   width="825"
   height="429.01694"
   viewBox="0 0 825 429.01694"
   version="1.1"
   id="svg397"
   sodipodi:docname="header.svg"
   inkscape:version="0.92.5 (2060ec1f9f, 2020-04-08)">
  <metadata
     id="metadata401">
    <rdf:RDF>
      <cc:Work
         rdf:about="">
        <dc:format>image/svg+xml</dc:format>
        <dc:type
           rdf:resource="http://purl.org/dc/dcmitype/StillImage" />
        <dc:title></dc:title>
      </cc:Work>
    </rdf:RDF>
  </metadata>
  <sodipodi:namedview
     pagecolor="#ffffff"
     bordercolor="#666666"
     borderopacity="1"
     objecttolerance="10"
     gridtolerance="10"
     guidetolerance="10"
     inkscape:pageopacity="0"
     inkscape:pageshadow="2"
     inkscape:window-width="1848"
     inkscape:window-height="1016"
     id="namedview399"
     showgrid="true"
     fit-margin-top="0"
     fit-margin-left="0"
     fit-margin-right="0"
     fit-margin-bottom="0"
     inkscape:zoom="1.0535714"
     inkscape:cx="463.02631"
     inkscape:cy="144.06279"
     inkscape:window-x="72"
     inkscape:window-y="27"
     inkscape:window-maximized="1"
     inkscape:current-layer="svg397"
     inkscape:snap-grids="false">
    <inkscape:grid
       type="xygrid"
       id="grid1223"
       originx="113.38983"
       originy="0.073991643" />
  </sodipodi:namedview>
  <defs
     id="defs107">
    <linearGradient
       id="j3965qd7ga"
       x1="254.81512"
       x2="254.81512"
       y1="101.72005"
       y2="532.76996"
       gradientTransform="scale(1.2676623,0.78885362)"
       gradientUnits="userSpaceOnUse">
      <stop
         offset="0%"
         stop-color="#E9EEF4"
         id="stop2" />
      <stop
         offset="100%"
         stop-color="#C2CAF7"
         id="stop4" />
    </linearGradient>
    <linearGradient
       id="4tjernw3qb"
       x1="127.12542"
       x2="178.69154"
       y1="25.982185"
       y2="25.982185"
       gradientTransform="scale(0.39498873,2.5317178)"
       gradientUnits="userSpaceOnUse">
      <stop
         offset="4.27%"
         stop-color="#7B8BFF"
         id="stop7" />
      <stop
         offset="100%"
         stop-color="#6F80FF"
         id="stop9" />
    </linearGradient>
    <linearGradient
       id="6pu3t1tpdc"
       x1="106.70399"
       x2="114.67525"
       y1="59.091839"
       y2="28.491657"
       gradientTransform="scale(0.72402047,1.3811764)"
       gradientUnits="userSpaceOnUse">
      <stop
         offset="4.27%"
         stop-color="#7B8BFF"
         id="stop12" />
      <stop
         offset="100%"
         stop-color="#6F80FF"
         id="stop14" />
    </linearGradient>
    <linearGradient
       id="q83iyi9zvd"
       x1="86.082321"
       x2="146.42232"
       y1="50.825352"
       y2="50.825352"
       gradientTransform="scale(0.69966978,1.4292457)"
       gradientUnits="userSpaceOnUse">
      <stop
         offset="0%"
         stop-color="#7B8BFF"
         id="stop17" />
      <stop
         offset="100%"
         stop-color="#6F80FF"
         id="stop19" />
    </linearGradient>
    <linearGradient
       id="fpl9qh84le"
       x1="247.12605"
       x2="180.11339"
       y1="47.588375"
       y2="56.760521"
       gradientTransform="scale(1.5482687,0.64588273)"
       gradientUnits="userSpaceOnUse">
      <stop
         offset="0%"
         stop-color="#E9EEF4"
         id="stop22" />
      <stop
         offset="100%"
         stop-color="#C2CAF7"
         id="stop24" />
    </linearGradient>
    <linearGradient
       id="0jtmjjuyrf"
       x1="0.28996125"
       x2="33.013226"
       y1="17.123655"
       y2="17.123655"
       gradientTransform="scale(1.0021745,0.9978302)"
       gradientUnits="userSpaceOnUse">
      <stop
         offset="4.27%"
         stop-color="#7B8BFF"
         id="stop27" />
      <stop
         offset="100%"
         stop-color="#6F80FF"
         id="stop29" />
    </linearGradient>
    <linearGradient
       id="awibrnh92g"
       x1="0.75394237"
       x2="31.675611"
       y1="18.812771"
       y2="18.812771"
       gradientTransform="scale(1.0259006,0.97475331)"
       gradientUnits="userSpaceOnUse">
      <stop
         offset="4.27%"
         stop-color="#7B8BFF"
         id="stop32" />
      <stop
         offset="100%"
         stop-color="#6F80FF"
         id="stop34" />
    </linearGradient>
    <linearGradient
       id="mt6vqr145h"
       x1="0.42612526"
       x2="33.11694"
       y1="16.868505"
       y2="16.868505"
       gradientTransform="scale(1.0017917,0.99821151)"
       gradientUnits="userSpaceOnUse">
      <stop
         offset="4.27%"
         stop-color="#7B8BFF"
         id="stop37" />
      <stop
         offset="100%"
         stop-color="#6F80FF"
         id="stop39" />
    </linearGradient>
    <linearGradient
       id="h5dvd7q13i"
       x1="1.2278663"
       x2="32.196098"
       y1="18.623062"
       y2="18.623062"
       gradientTransform="scale(1.0288825,0.97192829)"
       gradientUnits="userSpaceOnUse">
      <stop
         offset="4.27%"
         stop-color="#7B8BFF"
         id="stop42" />
      <stop
         offset="100%"
         stop-color="#6F80FF"
         id="stop44" />
    </linearGradient>
    <linearGradient
       id="a6m17akf0j"
       x1="0.059764858"
       x2="36.131912"
       y1="18.266659"
       y2="18.266659"
       gradientTransform="scale(0.72043215,1.3880558)"
       gradientUnits="userSpaceOnUse">
      <stop
         offset="4.27%"
         stop-color="#7B8BFF"
         id="stop47" />
      <stop
         offset="100%"
         stop-color="#6F80FF"
         id="stop49" />
    </linearGradient>
    <linearGradient
       id="l3pat5seak"
       x1="0.7609356"
       x2="35.51981"
       y1="18.141542"
       y2="18.141542"
       gradientTransform="scale(0.70674724,1.414933)"
       gradientUnits="userSpaceOnUse">
      <stop
         offset="4.27%"
         stop-color="#7B8BFF"
         id="stop52" />
      <stop
         offset="100%"
         stop-color="#6F80FF"
         id="stop54" />
    </linearGradient>
    <linearGradient
       id="kjb1iwvn5l"
       x1="2.6553786"
       x2="38.746914"
       y1="18.149157"
       y2="18.149157"
       gradientTransform="scale(0.72012443,1.3886489)"
       gradientUnits="userSpaceOnUse">
      <stop
         offset="4.27%"
         stop-color="#7B8BFF"
         id="stop57" />
      <stop
         offset="100%"
         stop-color="#6F80FF"
         id="stop59" />
    </linearGradient>
    <linearGradient
       id="8xn6swkg7m"
       x1="3.625334"
       x2="38.991901"
       y1="18.169712"
       y2="18.169712"
       gradientTransform="scale(0.71363044,1.4012855)"
       gradientUnits="userSpaceOnUse">
      <stop
         offset="4.27%"
         stop-color="#7B8BFF"
         id="stop62" />
      <stop
         offset="100%"
         stop-color="#6F80FF"
         id="stop64" />
    </linearGradient>
    <linearGradient
       id="gj5aifmw6n"
       x1="0.8931849"
       x2="68.300545"
       y1="34.058178"
       y2="34.058178"
       gradientTransform="scale(0.97887856,1.0215772)"
       gradientUnits="userSpaceOnUse">
      <stop
         offset="0%"
         stop-color="#E9EEF4"
         id="stop67" />
      <stop
         offset="100%"
         stop-color="#C2CAF7"
         id="stop69" />
    </linearGradient>
    <linearGradient
       id="92jxc9m4fo"
       x1="86.924141"
       x2="146.78384"
       y1="30.932484"
       y2="30.932484"
       gradientTransform="scale(0.88535267,1.1294934)"
       gradientUnits="userSpaceOnUse">
      <stop
         offset="0%"
         stop-color="#E9EEF4"
         id="stop72" />
      <stop
         offset="100%"
         stop-color="#C2CAF7"
         id="stop74" />
    </linearGradient>
    <linearGradient
       id="9i0nmoxe2p"
       x1="131.30353"
       x2="203.18906"
       y1="37.16431"
       y2="37.16431"
       gradientTransform="scale(1.0637378,0.94008131)"
       gradientUnits="userSpaceOnUse">
      <stop
         offset="0%"
         stop-color="#E9EEF4"
         id="stop77" />
      <stop
         offset="100%"
         stop-color="#C2CAF7"
         id="stop79" />
    </linearGradient>
    <linearGradient
       id="jzyaook6xq"
       x1="0.33692101"
       x2="105.39716"
       y1="53.436886"
       y2="53.436886"
       gradientTransform="scale(1.4847395,0.67351883)"
       gradientUnits="userSpaceOnUse">
      <stop
         offset="4.27%"
         stop-color="#7B8BFF"
         id="stop82" />
      <stop
         offset="100%"
         stop-color="#6F80FF"
         id="stop84" />
    </linearGradient>
    <linearGradient
       id="dokjc7u18r"
       x1="0.24762125"
       x2="61.40453"
       y1="31.003412"
       y2="31.003412"
       gradientTransform="scale(1.7495698,0.57156908)"
       gradientUnits="userSpaceOnUse">
      <stop
         offset="4.27%"
         stop-color="#7B8BFF"
         id="stop87" />
      <stop
         offset="100%"
         stop-color="#6F80FF"
         id="stop89" />
    </linearGradient>
    <linearGradient
       id="rv40ibitls"
       x1="120.07512"
       x2="99.989014"
       y1="93.502975"
       y2="93.502975"
       gradientTransform="scale(1.197984,0.83473569)"
       gradientUnits="userSpaceOnUse">
      <stop
         offset="3.27%"
         stop-color="#214F95"
         id="stop92" />
      <stop
         offset="100%"
         stop-color="#0E408C"
         id="stop94" />
    </linearGradient>
    <linearGradient
       id="8uhangrutt"
       x1="1.9427617"
       x2="1.9427617"
       y1="0.25903076"
       y2="2.0542696"
       gradientTransform="scale(0.50262469,1.9895561)"
       gradientUnits="userSpaceOnUse">
      <stop
         offset="0%"
         stop-color="#3197FF"
         id="stop97" />
      <stop
         offset="100%"
         stop-color="#55AEFF"
         id="stop99" />
    </linearGradient>
    <linearGradient
       id="bij5v63i8u"
       x1="59.814369"
       x2="59.814369"
       y1="0.26058814"
       y2="2.0675943"
       gradientTransform="scale(0.50588948,1.9767163)"
       gradientUnits="userSpaceOnUse">
      <stop
         offset="0%"
         stop-color="#3197FF"
         id="stop102" />
      <stop
         offset="100%"
         stop-color="#55AEFF"
         id="stop104" />
    </linearGradient>
  </defs>
  <g
     id="g395"
     style="fill:none;fill-rule:evenodd"
     transform="matrix(0.90588903,0,0,0.90588903,167.32597,12.145355)">
    <g
       id="g393"
       style="fill-rule:nonzero">
      <g
         id="g391">
        <path
           d="m 567.288,417.877 c 0,0 60.238,-98.904 38.672,-174.39 -0.944,-3.277 -2.055,-6.535 -3.332,-9.756 -2.333,-4.887 -3.48,-9.663 -3.74,-14.346 -0.24,-4.683 0.408,-9.255 1.685,-13.754 4.11,-10.921 9.608,-21.953 16.772,-31.764 2.388,-3.277 4.96,-6.405 7.738,-9.367 28.564,-32.505 30.156,-84.206 -9.515,-110.806 -19.827,-12.31 -42.985,-6.164 -62.071,2.999 -3.814,1.833 -7.48,3.776 -10.904,5.72 -13.81,5.368 -28.897,10.033 -44.41,13.217 -5.165,1.055 -10.367,1.943 -15.55,2.517 -49.538,5.09 -93.967,-20.029 -130.954,-47.536 -3.295,-1.758 -6.702,-3.313 -10.256,-4.646 -17.771,-6.682 -39.153,-7.57 -68.254,3.48 -93.134,35.356 -64.977,123.986 -175.105,116.285 -110.128,-7.7 -110.942,96.35 -81.953,144.903 28.972,48.554 60.442,97.886 39.746,120.247 -20.697,22.361 161.869,6.682 175.938,8.219 14.088,1.573 335.493,-1.222 335.493,-1.222 z"
           transform="translate(0.512,0.78)"
           id="path109"
           inkscape:connector-curvature="0"
           style="opacity:0.05;fill:url(#j3965qd7ga)" />
        <g
           id="g123">
          <path
             d="m 60.071,105.543 c 1.414,9.521 -0.587,21.792 -1.27,25.512 -0.127,0.715 -0.207,1.112 -0.207,1.112 l -7.24,-12.096 C 49.162,115.048 40.381,95.704 38.237,83.465 36.062,71.242 29.424,61.307 29.25,55.188 c -0.19,-6.12 9.829,-9.712 12.465,-22.27 2.62,-12.54 7.892,-33.013 11.147,-32.41 0.207,0.032 0.397,0.16 0.588,0.366 l 0.015,0.016 c 2.938,3.068 5.05,23.064 7.956,28.277 3.096,5.548 11.449,12.446 4.986,20.426 -6.479,7.979 -3.017,17.532 2.922,25.877 5.907,8.345 -10.91,18.724 -9.258,30.073 z"
             transform="translate(76.402,277.998)"
             id="path111"
             inkscape:connector-curvature="0"
             style="fill:#6b76d1" />
          <path
             d="m 60.071,105.543 c 1.414,9.521 -0.587,21.792 -1.27,25.512 C 43.986,68.794 52.846,0.525 52.846,0.525 l 0.588,0.365 0.016,0.016 c 2.937,3.068 5.05,23.064 7.955,28.277 3.097,5.548 11.45,12.446 4.986,20.425 -6.479,7.98 -3.017,17.533 2.922,25.878 5.923,8.329 -10.893,18.708 -9.242,30.057 z"
             transform="translate(76.402,277.998)"
             id="path113"
             inkscape:connector-curvature="0"
             style="opacity:0.3;fill:url(#4tjernw3qb)" />
          <path
             d="m 44.637,117.989 c -2.573,0.604 -5.876,0.175 -10.004,-1.685 -2.43,-1.097 -3.208,-14.337 -7.67,-16.324 -4.43,-1.971 -7.654,-8.154 -9.13,-14.576 C 16.34,78.982 3.27,76.264 0.793,69.35 -1.7,62.42 5.731,57.492 5.223,51.07 4.731,44.633 -0.7,35.494 3.254,31.297 c 3.938,-4.196 10.862,10.38 14.562,13.336 3.7,2.973 10.861,6.183 8.876,11.62 -1.985,5.42 0.746,14.337 13.577,19.28 10.877,4.18 18.563,39.166 4.367,42.456 z"
             transform="translate(76.402,277.998)"
             id="path115"
             inkscape:connector-curvature="0"
             style="fill:#5866d5" />
          <path
             d="m 98.721,68.03 c -4.605,6.263 -13.481,0.335 -17.45,6.597 -3.939,6.263 -0.334,15.482 -3.939,21.41 -3.62,5.93 -8.225,7.249 -12.846,9.22 -4.542,1.955 -5.256,10.284 -5.876,12.414 -0.016,0.032 -0.016,0.064 -0.031,0.111 0,0 -5.272,-10.872 -2.97,-17.802 2.319,-6.915 0.334,-16.467 1.652,-22.746 1.318,-6.247 6.59,-9.553 8.225,-15.816 1.652,-6.262 8.892,-10.872 12.514,-18.772 3.62,-7.915 17.451,-16.8 22.39,-15.163 0.063,0.031 0.159,0.047 0.222,0.11 4.557,1.924 -0.286,14.147 -3.843,18.677 -3.652,4.626 6.558,15.498 1.953,21.76 z"
             transform="translate(76.402,277.998)"
             id="path117"
             inkscape:connector-curvature="0"
             style="fill:url(#6pu3t1tpdc)" />
          <path
             d="m 98.721,68.03 c -4.605,6.263 -13.481,0.335 -17.45,6.597 -3.939,6.263 -0.334,15.482 -3.939,21.41 -3.62,5.93 -8.225,7.249 -12.846,9.22 -4.542,1.955 -5.256,10.284 -5.876,12.414 -2.048,-14.512 8.496,-35.764 17.5,-54.838 9.05,-19.17 21.5,-32.251 24.485,-35.24 4.557,1.924 -0.286,14.147 -3.843,18.677 -3.636,4.626 6.574,15.498 1.97,21.76 z"
             transform="translate(76.402,277.998)"
             id="path119"
             inkscape:connector-curvature="0"
             style="opacity:0.3;fill:url(#q83iyi9zvd)" />
          <path
             d="M 44.637,117.989 C 39.365,96.435 31.203,86.119 25.677,77.869 19.674,68.906 3.27,31.282 3.27,31.282 c 3.938,-4.196 10.862,10.38 14.561,13.336 3.7,2.973 10.862,6.184 8.877,11.62 -1.985,5.42 0.746,14.337 13.577,19.28 10.861,4.197 18.547,39.182 4.35,42.472 z"
             transform="translate(76.402,277.998)"
             id="path121"
             inkscape:connector-curvature="0"
             style="fill:#5866d5" />
        </g>
        <path
           d="m 407.155,26.245 c 2.477,7.98 12.466,13.908 19.246,17.707 12.942,7.264 29.027,11.365 43.747,8.456 8.845,-1.748 17.579,-5.181 25.931,-8.885 12.434,-5.516 31.124,-9.108 37.428,-22.968 5.32,-11.73 -12.593,-13.781 -19.627,-14.99 -26.868,-4.657 -57.293,-8.535 -84.367,-2.4 -8.162,1.844 -17.911,5.564 -21.643,13.75 -1.525,3.37 -1.588,6.485 -0.715,9.33 z"
           transform="translate(0.512,0.78)"
           id="path125"
           inkscape:connector-curvature="0"
           style="opacity:0.04599998;fill:url(#fpl9qh84le)" />
        <g
           id="g159">
          <g
             id="g133">
            <path
               d="m 32.49,32.87 c -0.158,0.335 -0.349,0.525 -0.555,0.541 -0.064,0 -0.111,0.016 -0.19,0.016 C 25.9,33.3 15.61,3.131 0.763,4.864 L 0.286,4.912 c 0,0 14.101,-6.724 21.2,-3.036 11.035,5.706 12.766,27.323 11.004,30.994 z"
               transform="translate(517.288,343.167)"
               id="path127"
               inkscape:connector-curvature="0"
               style="fill:url(#0jtmjjuyrf)" />
            <path
               d="m 32.49,32.87 c -0.158,0.335 -0.349,0.525 -0.555,0.541 -0.064,0 -0.111,0.016 -0.19,0.016 C 25.9,33.3 15.61,3.131 0.763,4.864 c 0,0 16.355,-6.485 24.04,6.803 4.908,8.408 6.877,16.451 7.686,21.204 z"
               transform="translate(517.288,343.167)"
               id="path129"
               inkscape:connector-curvature="0"
               style="opacity:0.3;fill:url(#awibrnh92g)" />
            <path
               d="M 32.84,51.643 H 32.824 C 32.634,51.627 32.474,51.453 32.49,51.261 32.522,50.785 35.253,7.201 11.625,3.942 11.435,3.91 11.292,3.735 11.323,3.529 c 0.032,-0.191 0.191,-0.35 0.413,-0.302 24.28,3.338 21.517,47.605 21.485,48.082 -0.032,0.19 -0.19,0.334 -0.381,0.334 z"
               transform="translate(517.288,343.167)"
               id="path131"
               inkscape:connector-curvature="0"
               style="fill:#627af4" />
          </g>
          <g
             id="g141">
            <path
               d="m 33.173,4.644 c 0,0 -0.016,0 -0.047,-0.016 C 18.136,2.355 7.735,32.746 1.828,33.143 c -0.096,0.016 -0.19,0.016 -0.27,0 C 1.447,33.127 1.335,33.08 1.256,32.984 -0.872,30.823 0.51,7.584 12.022,1.624 c 6.892,-3.577 20.39,2.654 21.151,3.02 z"
               transform="translate(555.398,353.735)"
               id="path135"
               inkscape:connector-curvature="0"
               style="fill:url(#mt6vqr145h)" />
            <path
               d="M 33.126,4.628 C 18.136,2.355 7.735,32.746 1.828,33.143 c -0.096,0.016 -0.19,0.016 -0.27,0 C 1.447,33.127 1.335,33.08 1.256,32.984 2.272,27.724 4.13,17.026 10.323,9.412 18.676,-0.84 32.141,4.294 33.126,4.628 Z"
               transform="translate(555.398,353.735)"
               id="path137"
               inkscape:connector-curvature="0"
               style="opacity:0.3;fill:url(#h5dvd7q13i)" />
            <path
               d="M 0.668,51.39 C 0.478,51.39 0.319,51.248 0.303,51.057 0.271,50.58 -2.507,6.313 21.788,2.975 21.994,2.943 22.168,3.085 22.201,3.277 22.232,3.467 22.09,3.658 21.899,3.69 -1.729,6.948 1.018,50.533 1.034,51.01 1.05,51.2 0.891,51.375 0.7,51.39 Z"
               transform="translate(555.398,353.735)"
               id="path139"
               inkscape:connector-curvature="0"
               style="fill:#627af4" />
          </g>
          <g
             id="g149">
            <path
               d="m 25.312,50.23 v 0.032 c -0.016,0.096 -0.032,0.143 -0.032,0.143 0,0 -0.064,-0.047 -0.19,-0.159 C 23.882,49.181 17.038,42.569 13.751,27.31 9.178,6.185 1.032,1.353 0.524,1.067 0.508,1.051 0.492,1.051 0.492,1.051 L 0.016,0.813 0.492,0.718 c 11.402,-2.115 20.024,3.432 23.311,16.672 3.668,14.72 1.763,30.964 1.509,32.84 z"
               transform="translate(525.785,306.05)"
               id="path143"
               inkscape:connector-curvature="0"
               style="fill:url(#a6m17akf0j)" />
            <path
               d="M 25.105,50.262 C 23.898,49.197 17.055,42.585 13.767,27.326 9.194,6.2 1.048,1.369 0.54,1.083 c 0.762,0.127 15.88,3.147 20.008,20.6 3.112,13.177 4.208,23.859 4.557,28.58 z"
               transform="translate(525.785,306.05)"
               id="path145"
               inkscape:connector-curvature="0"
               style="opacity:0.3;fill:url(#l3pat5seak)" />
            <path
               d="m 26.852,96.914 c -0.207,0 -0.365,-0.159 -0.365,-0.365 V 96.294 C 26.757,87.536 28.535,13.863 7.956,4.818 7.781,4.739 7.686,4.532 7.765,4.342 7.845,4.151 8.051,4.087 8.241,4.151 c 20.58,9.044 19.405,77.79 18.96,92.16 v 0.238 c 0.016,0.206 -0.143,0.365 -0.35,0.365 z"
               transform="translate(525.785,306.05)"
               id="path147"
               inkscape:connector-curvature="0"
               style="fill:#627af4" />
          </g>
          <g
             id="g157">
            <path
               d="m 27.9,0.668 -0.095,0.047 -0.397,0.191 c 0,0 -8.512,4.45 -13.228,26.275 C 10.64,43.552 3.033,49.974 2.652,50.244 2.636,50.197 2.62,50.022 2.588,49.72 V 49.704 C 2.223,46.652 0.651,31.266 4.113,17.246 7.43,3.846 16.244,-1.669 27.82,0.652 h 0.08 z"
               transform="translate(552.78,316.146)"
               id="path151"
               inkscape:connector-curvature="0"
               style="fill:url(#kjb1iwvn5l)" />
            <path
               d="m 27.82,0.668 c 0,0 0,0.015 -0.031,0.047 l -0.397,0.191 c 0,0 -8.512,4.45 -13.228,26.275 C 10.624,43.552 3.017,49.974 2.636,50.244 2.62,50.197 2.604,50.022 2.572,49.72 V 49.704 C 4.954,28.404 8.734,17.866 12.148,11.317 16.388,3.258 27.82,0.667 27.82,0.667 Z"
               transform="translate(552.78,316.146)"
               id="path153"
               inkscape:connector-curvature="0"
               style="opacity:0.3;fill:url(#8xn6swkg7m)" />
            <path
               d="m 0.921,87.661 c -0.19,0 -0.365,-0.159 -0.365,-0.365 -0.143,-23.477 1.429,-75.518 19.118,-83.29 0.191,-0.08 0.397,0 0.477,0.19 0.08,0.191 0,0.398 -0.19,0.477 C 2.667,12.287 1.126,63.978 1.27,87.296 1.285,87.502 1.126,87.661 0.92,87.661 Z"
               transform="translate(552.78,316.146)"
               id="path155"
               inkscape:connector-curvature="0"
               style="fill:#627af4" />
          </g>
        </g>
        <g
           id="g185">
          <path
             d="m 148.773,235.63 h 76.967 v 30 h -76.967 z"
             transform="translate(141.507,118.026)"
             id="path161"
             inkscape:connector-curvature="0"
             style="fill:#1a2645" />
          <path
             d="M 374.163,9.841 V 227.7 c 0,5.26 -4.271,9.537 -9.527,9.537 H 9.86 c -5.256,0 -9.512,-4.276 -9.512,-9.537 V 9.84 C 0.35,4.564 4.605,0.304 9.861,0.304 h 354.806 c 5.256,0 9.496,4.276 9.496,9.537 z"
             transform="translate(141.507,118.026)"
             id="path163"
             inkscape:connector-curvature="0"
             style="fill:#263764" />
          <path
             d="M 374.163,9.841 V 215.714 H 0.333 V 9.84 c 0,-5.276 4.257,-9.536 9.512,-9.536 h 354.822 c 5.256,0 9.496,4.276 9.496,9.537 z"
             transform="translate(141.507,118.026)"
             id="path165"
             inkscape:connector-curvature="0"
             style="fill:#1a2645" />
          <path
             d="M 9.512,9.857 H 364.969 V 205.652 H 9.512 Z"
             transform="translate(141.507,118.026)"
             id="path167"
             inkscape:connector-curvature="0"
             style="fill:#ffffff" />
          <path
             d="M 250.019,271.952 H 124.493 v -0.588 c 0,-3.417 2.763,-6.183 6.177,-6.183 h 113.172 c 3.414,0 6.177,2.766 6.177,6.183 z"
             transform="translate(141.507,118.026)"
             id="path169"
             inkscape:connector-curvature="0"
             style="fill:#1a2645" />
          <path
             d="m 9.845,29.09 h 354.79 V 186.387 H 9.845 Z"
             transform="translate(141.507,118.026)"
             id="path171"
             inkscape:connector-curvature="0"
             style="fill:#e4f5fb" />
          <g
             id="g179">
            <path
               d="m 34.823,0.368 c 16.07,0 28.186,9.044 32.029,23.683 H 48.765 c -2.795,-5.77 -7.892,-8.662 -14.132,-8.662 -10.1,0 -17.023,7.518 -17.023,19.455 0,11.937 6.923,19.456 17.023,19.456 6.256,0 11.353,-2.893 14.132,-8.663 H 66.852 C 63.009,60.277 50.877,69.225 34.823,69.225 14.911,69.225 0.873,55.08 0.873,34.86 0.873,14.626 14.911,0.368 34.823,0.368 Z"
               transform="translate(220.903,192.733)"
               id="path173"
               inkscape:connector-curvature="0"
               style="fill:url(#gj5aifmw6n)" />
            <path
               d="m 104.565,1.147 c 16.546,0 24.82,9.537 24.82,21.283 0,8.472 -4.622,16.467 -15.007,19.551 l 15.578,26.767 H 111.393 L 97.356,43.237 H 93.418 V 68.748 H 76.967 V 1.163 h 27.598 z m -0.969,13.67 H 93.402 V 31.57 h 10.194 c 6.161,0 9.036,-3.18 9.036,-8.472 0.016,-5.007 -2.875,-8.282 -9.036,-8.282 z"
               transform="translate(220.903,192.733)"
               id="path175"
               inkscape:connector-curvature="0"
               style="fill:url(#92jxc9m4fo)" />
            <path
               d="m 139.674,1.147 h 19.436 l 18.944,46.795 18.754,-46.795 h 19.325 V 68.732 H 199.682 V 28.2 L 184.581,68.732 H 171.306 L 156.109,28.105 V 68.732 H 139.658 V 1.147 Z"
               transform="translate(220.903,192.733)"
               id="path177"
               inkscape:connector-curvature="0"
               style="fill:url(#9i0nmoxe2p)" />
          </g>
          <g
             id="g183"
             style="fill:#da3685">
            <path
               d="m 34.269,0.286 c 16.07,0 28.186,9.044 32.028,23.684 H 48.211 c -2.795,-5.77 -7.892,-8.663 -14.133,-8.663 -10.099,0 -17.022,7.518 -17.022,19.455 0,11.938 6.923,19.456 17.022,19.456 6.257,0 11.354,-2.893 14.133,-8.663 H 66.297 C 62.455,60.195 50.323,69.143 34.269,69.143 14.356,69.143 0.319,54.997 0.319,34.778 0.303,14.528 14.356,0.286 34.27,0.286 Z m 69.726,0.764 c 16.546,0 24.82,9.536 24.82,21.283 0,8.472 -4.622,16.467 -15.007,19.55 l 15.578,26.768 H 110.823 L 96.786,43.139 H 92.848 V 68.651 H 76.397 V 1.065 h 27.598 V 1.049 Z m -0.953,13.669 H 92.848 v 16.753 h 10.194 c 6.161,0 9.035,-3.179 9.035,-8.472 0,-5.007 -2.89,-8.281 -9.035,-8.281 z m 36.062,-13.67 h 19.436 l 18.944,46.795 18.753,-46.795 h 19.341 V 68.635 H 199.127 V 28.102 L 184.026,68.635 H 170.751 L 155.555,28.007 v 40.628 h -16.451 z"
               transform="translate(218.758,190.112)"
               id="path181"
               inkscape:connector-curvature="0" />
          </g>
        </g>
        <g
           id="g205">
          <path
             d="M 153.316,71.369 H 3.67 c -1.747,0 -3.176,-1.415 -3.176,-3.18 V 3.784 c 0,-1.749 1.413,-3.18 3.176,-3.18 h 149.646 c 1.747,0 3.176,1.415 3.176,3.179 V 68.19 c 0,1.764 -1.43,3.179 -3.176,3.179 z"
             transform="translate(76.086,21.93)"
             id="path187"
             inkscape:connector-curvature="0"
             style="fill:url(#jzyaook6xq)" />
          <g
             id="g203">
            <path
               d="M 0.413,32.092 H 9.972 V 48.4 H 0.413 Z"
               transform="translate(90.935,36.236)"
               id="path189"
               inkscape:connector-curvature="0"
               style="fill:#da3685" />
            <path
               d="m 19.897,14.766 h 9.559 V 48.4 h -9.559 z"
               transform="translate(90.935,36.236)"
               id="path191"
               inkscape:connector-curvature="0"
               style="fill:#e4f5fb" />
            <path
               d="M 39.381,24.097 H 48.94 V 48.401 H 39.381 Z"
               transform="translate(90.935,36.236)"
               id="path193"
               inkscape:connector-curvature="0"
               style="fill:#da3685" />
            <path
               d="m 58.864,10.221 h 9.559 v 38.164 h -9.559 z"
               transform="translate(90.935,36.236)"
               id="path195"
               inkscape:connector-curvature="0"
               style="fill:#e4f5fb" />
            <path
               d="m 78.348,0.445 h 9.559 v 47.939 h -9.559 z"
               transform="translate(90.935,36.236)"
               id="path197"
               inkscape:connector-curvature="0"
               style="fill:#da3685" />
            <path
               d="m 97.832,6.12 h 9.559 v 42.281 h -9.559 z"
               transform="translate(90.935,36.236)"
               id="path199"
               inkscape:connector-curvature="0"
               style="fill:#e4f5fb" />
            <path
               d="m 117.332,18.438 h 9.559 V 48.4 h -9.559 z"
               transform="translate(90.935,36.236)"
               id="path201"
               inkscape:connector-curvature="0"
               style="fill:#da3685" />
          </g>
        </g>
        <path
           d="m 87.546,159.23 2.747,-15.45 c 0.159,-0.89 -0.635,-1.668 -1.525,-1.477 l -31.123,6.533 c -0.89,0.19 -1.302,1.208 -0.794,1.97 l 8.718,13.05 c 0.286,0.43 0.81,0.652 1.334,0.54 l 19.658,-4.132 c 0.492,-0.111 0.89,-0.509 0.985,-1.033 z m -18.261,13.003 c -2.303,0.477 -3.764,2.734 -3.287,5.039 0.476,2.305 2.73,3.767 5.033,3.29 2.303,-0.477 3.764,-2.734 3.287,-5.039 -0.476,-2.304 -2.73,-3.783 -5.033,-3.29 z m 15.958,-3.354 c -2.302,0.477 -3.763,2.734 -3.287,5.039 0.477,2.305 2.731,3.767 5.034,3.29 2.302,-0.477 3.763,-2.734 3.287,-5.039 -0.476,-2.304 -2.731,-3.783 -5.034,-3.29 z m 3.525,-6.342 -23.279,4.896 c -0.492,0.095 -1,-0.096 -1.286,-0.493 L 48.15,145.227 c -0.301,-0.397 -0.81,-0.588 -1.286,-0.492 l -11.671,2.447 c -0.81,0.175 -1.318,0.954 -1.16,1.765 0.175,0.81 0.953,1.32 1.763,1.16 l 9.798,-2.05 c 0.492,-0.096 1,0.095 1.286,0.492 l 16.054,21.713 c 0.302,0.397 0.81,0.588 1.286,0.493 l 25.153,-5.277 c 0.81,-0.175 1.318,-0.954 1.159,-1.765 -0.175,-0.826 -0.953,-1.35 -1.763,-1.176 z"
           transform="translate(0.512,0.78)"
           id="path207"
           inkscape:connector-curvature="0"
           style="fill:#e4f5fb" />
        <g
           id="g213"
           style="opacity:0.2;fill:#e4f5fb">
          <path
             d="m 0.113,23.416 v 7.439 c 0,0.858 0.698,1.557 1.556,1.557 h 2.795 c 0.365,0 0.682,0.255 0.794,0.604 0.571,2.035 1.445,3.942 2.54,5.69 l -2.35,2.353 c -0.603,0.604 -0.603,1.59 0,2.194 l 5.256,5.26 c 0.604,0.605 1.588,0.605 2.191,0 l 2.43,-2.431 c 1.937,1.16 4.08,2.035 6.352,2.543 v 3.322 c 0,0.859 0.698,1.558 1.556,1.558 h 7.431 c 0.858,0 1.557,-0.7 1.557,-1.558 v -3.433 c 2.254,-0.572 4.366,-1.494 6.288,-2.702 l 2.334,2.336 c 0.603,0.604 1.588,0.604 2.191,0 l 5.256,-5.261 c 0.604,-0.604 0.604,-1.59 0,-2.193 l -1.985,-1.987 c -0.27,-0.27 -0.317,-0.668 -0.127,-0.986 0.906,-1.621 1.604,-3.354 2.08,-5.182 0.096,-0.365 0.413,-0.62 0.795,-0.62 h 2.683 c 0.858,0 1.556,-0.699 1.556,-1.557 v -7.44 c 0,-0.857 -0.698,-1.557 -1.556,-1.557 h -2.81 c -0.366,0 -0.683,-0.254 -0.794,-0.604 -0.524,-1.828 -1.255,-3.544 -2.192,-5.134 -0.19,-0.334 -0.143,-0.731 0.127,-1.001 l 1.89,-1.892 c 0.603,-0.604 0.603,-1.59 0,-2.193 L 42.7,5.279 c -0.604,-0.604 -1.588,-0.604 -2.192,0 L 38.08,7.711 c -1.763,-1.049 -3.7,-1.86 -5.732,-2.4 -0.366,-0.095 -0.62,-0.413 -0.62,-0.795 v -2.67 c 0,-0.858 -0.698,-1.558 -1.556,-1.558 h -7.431 c -0.858,0 -1.557,0.7 -1.557,1.558 v 2.798 c 0,0.365 -0.254,0.683 -0.603,0.794 -1.826,0.525 -3.541,1.256 -5.145,2.21 -0.333,0.19 -0.73,0.143 -1,-0.127 l -1.89,-1.892 c -0.603,-0.604 -1.588,-0.604 -2.191,0 L 5.099,10.89 c -0.604,0.604 -0.604,1.59 0,2.194 l 1.985,1.987 c 0.27,0.27 0.317,0.667 0.127,0.985 -0.905,1.622 -1.604,3.354 -2.08,5.198 -0.096,0.365 -0.413,0.62 -0.794,0.62 H 1.669 C 0.811,21.858 0.113,22.557 0.113,23.416 Z m 15.91,-3.1 c 0.906,-1.717 2.319,-3.147 4.034,-4.053 11.703,-6.279 23.517,5.484 17.293,17.23 -0.906,1.717 -2.335,3.147 -4.05,4.053 -11.703,6.2 -23.453,-5.515 -17.276,-17.23 z"
             transform="translate(563.454,157.659)"
             id="path209"
             inkscape:connector-curvature="0" />
          <path
             d="m 26.695,19.06 c 4.319,0 7.812,3.497 7.812,7.82 0,4.324 -3.493,7.821 -7.812,7.821 -4.32,0 -7.813,-3.497 -7.813,-7.82 0,-4.324 3.493,-7.82 7.813,-7.82 z"
             transform="translate(563.454,157.659)"
             id="path211"
             inkscape:connector-curvature="0" />
        </g>
        <path
           d="m 355.206,69.309 c -0.571,-0.27 -1.207,-0.43 -1.826,-0.461 -10.4,-0.652 -15.498,8.678 -12.322,15.99 l -10.1,5.993 1.446,2.432 10.099,-5.993 c 3.446,4.45 9.766,5.754 14.72,2.798 7.447,-4.435 7.987,-16.118 -2.017,-20.76 z m 4.59,13.622 c -4.4,9.934 -17.833,6.517 -16.928,-4.324 0.032,-0.318 0.111,-0.635 0.238,-0.922 4.399,-9.95 17.833,-6.517 16.928,4.324 -0.032,0.318 -0.112,0.636 -0.239,0.922 z"
           transform="translate(0.512,0.78)"
           id="path215"
           inkscape:connector-curvature="0"
           style="fill:#e4f5fb" />
        <g
           id="g223">
          <path
             d="M 105.057,35.192 H 2.827 c -1.318,0 -2.382,-1.065 -2.382,-2.385 V 2.623 c 0,-1.32 1.064,-2.385 2.382,-2.385 h 102.23 c 1.318,0 2.382,1.065 2.382,2.385 v 30.184 c 0,1.32 -1.08,2.385 -2.382,2.385 z"
             transform="translate(1,211.776)"
             id="path217"
             inkscape:connector-curvature="0"
             style="fill:url(#dokjc7u18r)" />
          <g
             id="g221"
             style="fill:#e4f5fb">
            <path
               d="m 7.844,1.16 1.858,3.767 c 0.064,0.128 0.19,0.223 0.334,0.239 l 4.16,0.604 c 0.365,0.048 0.508,0.493 0.238,0.747 l -3.017,2.94 C 11.322,9.553 11.274,9.696 11.29,9.839 l 0.715,4.149 c 0.063,0.35 -0.318,0.635 -0.635,0.46 L 7.654,12.493 C 7.527,12.43 7.368,12.43 7.241,12.493 L 3.525,14.45 C 3.208,14.624 2.827,14.338 2.89,13.989 L 3.605,9.84 C 3.636,9.697 3.589,9.554 3.478,9.459 L 0.46,6.517 C 0.206,6.263 0.35,5.817 0.699,5.77 L 4.859,5.166 C 5.002,5.15 5.129,5.055 5.193,4.927 L 7.05,1.16 c 0.175,-0.318 0.636,-0.318 0.794,0 z m 16.896,0 1.858,3.767 c 0.063,0.128 0.19,0.223 0.333,0.239 l 4.16,0.604 c 0.366,0.048 0.509,0.493 0.239,0.747 l -3.017,2.94 C 28.217,9.553 28.17,9.696 28.186,9.839 l 0.714,4.149 c 0.064,0.35 -0.317,0.635 -0.635,0.46 l -3.716,-1.955 c -0.127,-0.063 -0.285,-0.063 -0.413,0 l -3.715,1.956 c -0.318,0.174 -0.699,-0.112 -0.635,-0.461 L 20.5,9.839 C 20.532,9.696 20.484,9.553 20.373,9.458 L 17.356,6.517 C 17.102,6.263 17.245,5.817 17.594,5.77 l 4.16,-0.604 C 21.898,5.15 22.024,5.055 22.088,4.927 L 23.946,1.16 c 0.175,-0.318 0.635,-0.318 0.794,0 z m 16.88,0 1.857,3.767 c 0.064,0.128 0.191,0.223 0.334,0.239 l 4.16,0.604 c 0.365,0.048 0.508,0.493 0.238,0.747 l -3.017,2.94 c -0.095,0.096 -0.143,0.239 -0.127,0.382 l 0.715,4.149 c 0.063,0.35 -0.318,0.635 -0.635,0.46 l -3.716,-1.955 c -0.127,-0.063 -0.286,-0.063 -0.413,0 L 37.3,14.45 c -0.317,0.174 -0.698,-0.112 -0.635,-0.461 L 37.38,9.84 C 37.412,9.697 37.364,9.554 37.253,9.459 L 34.236,6.518 c -0.254,-0.254 -0.111,-0.7 0.238,-0.747 l 4.16,-0.604 c 0.143,-0.016 0.27,-0.111 0.334,-0.239 l 1.858,-3.767 c 0.174,-0.318 0.635,-0.318 0.794,0 z m 16.88,0 1.857,3.767 c 0.064,0.128 0.19,0.223 0.334,0.239 l 4.16,0.604 c 0.365,0.048 0.508,0.493 0.238,0.747 l -3.017,2.94 c -0.095,0.096 -0.143,0.239 -0.127,0.382 l 0.715,4.149 c 0.063,0.35 -0.318,0.635 -0.636,0.46 l -3.715,-1.955 c -0.127,-0.063 -0.286,-0.063 -0.413,0 L 54.18,14.45 c -0.318,0.174 -0.699,-0.112 -0.635,-0.461 L 54.259,9.84 C 54.291,9.697 54.244,9.554 54.132,9.459 L 51.115,6.518 c -0.254,-0.254 -0.11,-0.7 0.239,-0.747 l 4.16,-0.604 c 0.143,-0.016 0.27,-0.111 0.333,-0.239 l 1.858,-3.767 c 0.175,-0.318 0.635,-0.318 0.794,0 z m 16.895,0 1.858,3.767 c 0.063,0.128 0.19,0.223 0.333,0.239 l 4.16,0.604 c 0.366,0.048 0.509,0.493 0.239,0.747 l -3.017,2.94 c -0.096,0.096 -0.143,0.239 -0.127,0.382 l 0.714,4.149 c 0.064,0.35 -0.317,0.635 -0.635,0.46 l -3.716,-1.955 c -0.127,-0.063 -0.286,-0.063 -0.413,0 l -3.715,1.956 c -0.318,0.174 -0.7,-0.112 -0.636,-0.461 L 71.155,9.839 C 71.187,9.696 71.139,9.553 71.028,9.458 L 68.011,6.517 C 67.757,6.263 67.9,5.817 68.249,5.77 l 4.16,-0.604 C 72.552,5.15 72.679,5.055 72.743,4.927 L 74.6,1.16 c 0.159,-0.318 0.62,-0.318 0.794,0 z"
               transform="translate(13.703,221.313)"
               id="path219"
               inkscape:connector-curvature="0" />
          </g>
        </g>
        <path
           d="M 48.752,388.801 H 587.25 v 26.211 H 48.752 Z"
           transform="translate(0.512,0.78)"
           id="path225"
           inkscape:connector-curvature="0"
           style="fill:#3d479e" />
        <path
           d="M 48.752,388.801 H 587.25 v 1.939 H 48.752 Z"
           transform="translate(0.512,0.78)"
           id="path227"
           inkscape:connector-curvature="0"
           style="fill:#1a2645" />
        <g
           id="g291">
          <g
             id="g243">
            <path
               d="m 122.821,66.742 3.98,3.894 -4.658,7.148 -6.14,-4.978 z"
               transform="translate(117,360)"
               id="path229"
               inkscape:connector-curvature="0"
               style="fill:#f2bc97" />
            <path
               d="m 11.221,10.002 c 4.489,8.553 19.606,12.425 32.712,14.233 10.861,1.51 20.346,1.596 21.257,1.766 2.032,0.362 11.539,16.041 18.61,23.402 7.093,7.361 32.182,24.403 32.182,24.403 l 7.94,-6.979 c 0,0 -31.187,-38.294 -40.778,-47.953 C 73.553,9.215 47.51,2.364 47.51,2.364 c 0,0 -44.504,-7.977 -36.29,7.639 z"
               transform="translate(117,360)"
               id="path231"
               inkscape:connector-curvature="0"
               style="fill:#1a2645" />
            <path
               d="m 31.356,8.534 12.577,15.701 c 10.861,1.51 20.346,1.596 21.257,1.766 2.032,0.362 11.539,16.041 18.61,23.402 7.093,7.361 32.182,24.403 32.182,24.403 l 7.94,-6.979 C 110.52,69.295 108.805,65.849 98.367,56.913 87.95,48 80.518,28.256 74.97,23.703 69.423,19.172 56,16.853 55.322,14.278 54.645,11.704 61.208,9.811 61.208,9.811 L 51.554,8.385 31.355,8.535 Z"
               transform="translate(117,360)"
               id="path233"
               inkscape:connector-curvature="0"
               style="opacity:0.3;fill:#000000" />
            <path
               d="m 127.902,55.764 5.865,0.851 -1.059,9.085 -7.791,-1.277 z"
               transform="translate(117,360)"
               id="path235"
               inkscape:connector-curvature="0"
               style="fill:#f2bc97" />
            <path
               d="m 133.513,56.467 c 0,0 3.049,0.212 3.578,0.063 0.508,-0.149 11.073,-6.531 12.322,-6.68 0.127,-0.021 1.313,0.021 1.334,0.277 0.254,2.531 -3.197,16.956 -4.213,17.424 -1.101,0.51 -14.164,-1.787 -14.164,-1.787 z"
               transform="translate(117,360)"
               id="path237"
               inkscape:connector-curvature="0"
               style="fill:#1a2645" />
            <path
               d="m 126.335,69.657 c 0,0 2.308,2.042 2.795,2.234 0.508,0.191 12.725,1.574 13.805,2.234 0.105,0.064 1.037,0.808 0.889,1.042 -1.334,2.149 -12.81,11.51 -13.89,11.255 -1.185,-0.256 -10.162,-10.063 -10.162,-10.063 z"
               transform="translate(117,360)"
               id="path239"
               inkscape:connector-curvature="0"
               style="fill:url(#rv40ibitls)" />
            <path
               d="m 1.588,25.171 c 5.399,18.126 60.85,17.275 60.85,17.275 0,0 11.136,8.127 23.098,13.723 11.963,5.595 41.773,9.148 41.773,9.148 l 2.012,-10.638 C 109.609,49.595 75.395,25.703 71.181,23.661 68.725,22.469 53.312,15.811 41.011,10.491 33.791,7.385 27.651,4.747 25.746,3.918 25.364,3.768 25.153,3.662 25.153,3.662 c 0,0 -0.424,0.043 -1.186,0.17 -5.357,0.873 -27.122,5.426 -22.38,21.34 z"
               transform="translate(117,360)"
               id="path241"
               inkscape:connector-curvature="0"
               style="fill:#1a2645" />
          </g>
          <g
             id="g289">
            <path
               d="m 57.137,38.395 c 2.018,0.211 3.659,1.733 4.332,3.635 3.09,8.515 12.954,37.233 6.834,39.853 C 61.111,84.947 53.877,58.977 52.72,51.222 51.795,44.734 52.279,37.867 57.137,38.395 Z"
               transform="translate(101,265)"
               id="path245"
               inkscape:connector-curvature="0"
               style="fill:#f2bc97" />
            <path
               d="m 60.985,38.839 c 0,0 4.017,2.134 5.762,10.375 1.745,8.241 9.905,52.257 9.905,52.257 0,0 -16.319,3.191 -16.74,0.212 -0.42,-2.98 1.073,-62.844 1.073,-62.844 z"
               transform="translate(101,265)"
               id="path247"
               inkscape:connector-curvature="0"
               style="fill:#da3685" />
            <path
               d="m 64.728,60.667 5.888,42.283 -11.755,-2.873 z"
               transform="translate(101,265)"
               id="path249"
               inkscape:connector-curvature="0"
               style="opacity:0.5;fill:#ad316d" />
            <path
               d="m 22.48,39.874 c -2.018,-0.211 -3.932,0.93 -5.005,2.642 -4.794,7.691 -20.42,33.683 -14.973,37.528 6.393,4.501 18.885,-19.356 21.619,-26.71 2.27,-6.148 3.217,-12.953 -1.64,-13.46 z m 12.597,19.61 c 1.304,-0.211 2.65,0.909 2.923,2.43 0.231,1.204 0.505,4.205 0.484,6.276 -0.042,5.177 0.147,9.974 -1.536,10.798 -1.682,0.803 -3.448,-2.346 -3.932,-7.46 -0.442,-4.606 -2.06,-10.27 -0.946,-11.114 0.546,-0.423 1.85,-0.74 3.007,-0.93 z"
               transform="translate(101,265)"
               id="path251"
               inkscape:connector-curvature="0"
               style="fill:#f2bc97" />
            <path
               d="M 67.378,103.584 56.8,102.486 41.302,101.936 39.367,102.147 34.53,100.182 23.07,99 19.873,98.662 19.831,97.88 c 0,0 -0.084,-1.416 -0.19,-3.825 -0.084,-1.648 -0.189,-3.74 -0.294,-6.17 C 19.095,82.201 18.821,74.826 18.653,67.599 18.401,56.844 18.422,46.447 19.221,42.686 21.134,33.747 35.098,35.712 35.098,35.712 h 0.02 l 16.908,1.226 c 0,0 9.106,-0.169 10.62,3.804 1.872,4.796 4.732,62.843 4.732,62.843 z"
               transform="translate(101,265)"
               id="path253"
               inkscape:connector-curvature="0"
               style="fill:#ffffff" />
            <path
               d="m 18.001,112.396 2.524,-0.74 21.828,-6.445 c 0.19,-7.247 0.61,-28.611 0.778,-37.317 0,-0.592 0.021,-1.141 0,-1.648 -0.736,-20.434 -7.97,-30.492 -7.97,-30.492 H 35.14 c 0,0 -13.963,-1.965 -15.877,6.973 -0.8,3.761 -0.82,14.158 -0.568,24.935 0.147,7.205 0.442,14.601 0.694,20.285 0.105,2.41 0.21,4.501 0.294,6.17 0.106,2.41 0.19,3.825 0.19,3.825 L 18,112.396 Z"
               transform="translate(101,265)"
               id="path255"
               inkscape:connector-curvature="0"
               style="fill:#da3685" />
            <path
               d="m 18.001,112.396 2.524,-0.74 c 3.659,-14.96 1.303,-24.089 0.757,-31.147 -0.926,-11.368 2.712,-20.032 2.944,-20.518 l -5.468,7.29 c 0,0 -0.02,0.148 -0.063,0.38 0.147,7.206 0.442,14.602 0.694,20.286 0.105,2.41 0.21,4.501 0.294,6.17 0.106,2.41 0.19,3.825 0.19,3.825 L 18,112.396 Z"
               transform="translate(101,265)"
               id="path257"
               inkscape:connector-curvature="0"
               style="opacity:0.5;fill:#ad316d" />
            <path
               d="m 39.872,98.957 v 3.423 l -5.32,-2.177 -14.89,-6.106 c -0.084,-1.649 -0.189,-3.74 -0.294,-6.17 6.603,3.38 20.504,10.734 20.504,11.03 z"
               transform="translate(101,265)"
               id="path259"
               inkscape:connector-curvature="0"
               style="opacity:0.5;fill:#c33379" />
            <path
               d="m 2.902,78.734 c 0.105,1.733 1.178,3.276 2.67,4.163 7.34,4.438 34.068,20.307 37.117,18.11 C 46.243,98.45 8.75,73.79 6.624,74.74 4.963,75.48 2.734,75.944 2.902,78.733 Z"
               transform="translate(101,265)"
               id="path261"
               inkscape:connector-curvature="0"
               style="fill:#f2bc97" />
            <path
               d="m 39.598,97.203 c 0,0 3.197,-1.12 6.435,-0.55 2.397,0.423 5.615,3.762 5.3,5.199 -0.295,1.437 -1.683,1.056 -4.375,-0.444 -2.796,-1.564 -2.439,1.204 -5.11,0.613 -2.691,-0.592 -3.091,-2.029 -3.091,-2.029 M 35.161,35.754 c 6.603,5.959 15.982,1.67 16.76,1.289 0,0 0,0.02 0.021,0 l 0.042,-0.021 c -3.301,-1.12 -3.406,-5.41 -3.406,-5.41 5.446,1.205 9.947,-10.164 10.83,-12.7 C 60.27,16.355 63.13,6.931 51.059,5.431 38.989,3.909 38.904,18.511 38.673,24.258 c -0.252,5.748 -4.059,11.01 -3.512,11.496 z"
               transform="translate(101,265)"
               id="path263"
               inkscape:connector-curvature="0"
               style="fill:#f2bc97" />
            <path
               d="m 38.547,25.801 c 0,0 -4.164,-21.152 5.593,-24.047 8.96,-2.642 11.798,1.711 16.487,7.67 4.669,5.96 10.431,6.741 10.431,6.741 0,0 -9.127,6.297 -14.7,2.304 -4.752,-3.403 -10.346,-4.797 -11.25,-1.987 -0.904,2.81 0,5.706 -1.073,5.706 -1.072,0 -1.619,-5.156 -2.965,-4.079 -1.346,1.1 1.62,6.699 -2.523,7.692 z"
               transform="translate(101,265)"
               id="path265"
               inkscape:connector-curvature="0"
               style="fill:#1a2645" />
            <path
               d="m 44.12,30.386 c 0,0 1.387,6.17 7.801,6.678 0,0 0,0.021 0.021,0 l 0.042,-0.021 c -3.301,-1.12 -3.406,-5.41 -3.406,-5.41 0,0 -2.545,-0.148 -4.459,-1.247 z"
               transform="translate(101,265)"
               id="path267"
               inkscape:connector-curvature="0"
               style="fill:#e5ad88" />
            <path
               d="m 23.595,37.508 c 0,0 -5.615,1.056 -10.915,11.284 C 7.38,58.998 -2.04,74.339 1.66,80.615 5.362,86.89 29.4,96.463 29.4,96.463 l 3.911,-5.325 c 0,0 -20.336,-14.475 -20.336,-14.897 0,-0.423 9.947,-15.426 9.947,-15.426 z m 34.088,29.9 C 57.305,52.405 52.51,38.606 51.963,37.043 l -0.105,-0.212 h 0.232 c 0.378,0 9.231,-0.105 10.746,3.889 1.808,4.733 4.584,60.477 4.69,62.864 v 0.17 l -10.747,-1.12 -0.147,-0.022 v -0.148 c 0.526,-7.691 1.178,-24.976 1.01,-34.57 0.041,-0.148 0.041,-0.317 0.041,-0.486 z"
               transform="translate(101,265)"
               id="path269"
               inkscape:connector-curvature="0"
               style="fill:#da3685" />
            <path
               d="m 52.216,36.937 8.054,17.75 0.021,0.042 -0.841,2.452 1.156,2.45 -2.902,8.96 -0.02,-1.204 C 57.304,52.384 52.51,38.585 51.964,37.022 Z"
               transform="translate(101,265)"
               id="path271"
               inkscape:connector-curvature="0"
               style="fill:#ad316d" />
            <g
               id="g283">
              <path
                 d="m 20.513,29.058 c 0.19,-0.232 27.8,-2.43 27.8,-2.43 L 58.43,0.108 c 0.02,-0.063 0.042,-0.084 0.042,-0.084 0.4,-0.042 -27.023,0.55 -27.023,0.55 L 20.64,28.762 20.514,29.058 Z"
                 transform="translate(139.853,342.442)"
                 id="path273"
                 inkscape:connector-curvature="0"
                 style="fill:#c7d4f9" />
              <path
                 d="m 20.513,29.058 c 0.19,-0.232 27.8,-2.43 27.8,-2.43 L 58.43,0.108 c -0.778,1.628 -13.501,27.746 -37.054,28.633 -0.252,0.021 -0.505,0.021 -0.736,0.042 l -0.126,0.275 z"
                 transform="translate(139.853,342.442)"
                 id="path275"
                 inkscape:connector-curvature="0"
                 style="fill:#c7d4f9" />
              <path
                 d="m 0.283,27.833 20.293,1.12 0.652,-1.691 0.736,-1.944 -21.471,-1.204 -0.105,1.859 z"
                 transform="translate(139.853,342.442)"
                 id="path277"
                 inkscape:connector-curvature="0"
                 style="fill:#b9c8fc" />
              <path
                 d="m 31.427,0.574 -1.03,0.084 -10.683,28.273 0.841,0.022 z"
                 transform="translate(139.853,342.442)"
                 id="path279"
                 inkscape:connector-curvature="0"
                 style="fill:#b9c8fc" />
              <path
                 d="m 0.283,27.833 20.293,1.14 0.652,-1.711 C 16.055,26.966 4.131,26.248 0.388,25.994 Z"
                 transform="translate(139.853,342.442)"
                 id="path281"
                 inkscape:connector-curvature="0"
                 style="fill:#b9c8fc" />
            </g>
            <path
               d="m 89.921,96.886 c 0,0 -4.121,-1.206 -4.751,1.711 -0.631,2.917 2.481,4.248 2.481,4.248 0,0 2.67,-3.74 2.271,-5.96 z"
               transform="translate(101,265)"
               id="path285"
               inkscape:connector-curvature="0"
               style="fill:#f2bc97" />
            <path
               d="m 81.215,91.857 c -0.42,1.162 -1.514,1.817 -2.46,1.458 -0.926,-0.338 -1.346,-1.564 -0.926,-2.705 0.421,-1.162 1.515,-1.817 2.46,-1.458 0.926,0.338 1.347,1.542 0.926,2.705 z"
               transform="translate(101,265)"
               id="path287"
               inkscape:connector-curvature="0"
               style="fill:#ffffff" />
          </g>
        </g>
        <g
           id="g369">
          <path
             d="m 36.792,32.007 c -1.646,0.317 -2.904,1.677 -3.347,3.298 -1.998,7.266 -8.304,31.748 -3.07,33.5 6.158,2.068 10.448,-19.955 10.892,-26.457 0.37,-5.422 -0.5,-11.086 -4.475,-10.34 z"
             transform="translate(455.656,173.06)"
             id="path293"
             inkscape:connector-curvature="0"
             style="fill:#f2bc97" />
          <path
             d="m 36.39,30.941 c 0,0 -3.358,1.792 -4.806,8.734 -1.447,6.942 -8.24,44.01 -8.24,44.01 0,0 13.585,2.697 13.938,0.188 0.352,-2.51 -0.891,-52.932 -0.891,-52.932 z"
             transform="translate(455.656,173.06)"
             id="path295"
             inkscape:connector-curvature="0"
             style="fill:#da3685" />
          <path
             d="m 33.354,49.941 -5.009,35 10,-2.372 z"
             transform="translate(455.656,173.06)"
             id="path297"
             inkscape:connector-curvature="0"
             style="opacity:0.5;fill:#c33379" />
          <path
             d="m 68.979,31.031 c 1.595,0.353 2.778,1.762 3.154,3.375 1.739,7.289 7.187,31.807 2.08,33.42 -6.005,1.892 -9.59,-20.14 -9.84,-26.632 -0.215,-5.434 0.753,-11.035 4.606,-10.163 z M 57.347,48.964 c -1.157,-0.182 -2.334,0.73 -2.57,1.969 -0.196,0.984 -0.45,3.408 -0.431,5.121 0.039,4.21 -0.138,8.129 1.353,8.785 1.491,0.656 3.022,-1.914 3.473,-6.07 0.392,-3.754 1.805,-8.347 0.844,-9.058 -0.51,-0.346 -1.668,-0.583 -2.669,-0.747 z"
             transform="translate(455.656,173.06)"
             id="path299"
             inkscape:connector-curvature="0"
             style="fill:#f2bc97" />
          <path
             d="m 30.345,86.006 7.593,1.935 13.878,-0.056 2.038,-3.08 4.059,-1.635 9.613,-0.995 2.694,-0.282 0.018,-0.657 c 0,0 0.056,-1.202 0.169,-3.212 0.074,-1.39 0.15,-3.137 0.243,-5.165 0.205,-4.752 0.449,-10.97 0.58,-17.017 0.205,-9.034 0.187,-17.75 -0.487,-20.905 -1.608,-7.494 -13.335,-5.841 -13.335,-5.841 h -0.019 l -14.195,1.033 c 0,0 -7.65,-0.132 -8.903,3.193 -1.534,3.982 -3.946,52.684 -3.946,52.684 z"
             transform="translate(455.656,173.06)"
             id="path301"
             inkscape:connector-curvature="0"
             style="fill:#ffffff" />
          <g
             id="g335">
            <path
               d="m 47.085,4.346 c 4.144,0.768 6.888,5.358 5.992,9.966 -0.71,3.672 -3.248,12.42 -5.675,18.303 C 41.409,47.208 36.574,61.052 30.637,61.558 24.701,62.064 23.02,51.273 27.333,36.287 31.235,22.742 32.822,5.058 37.097,3.784 39.262,3.166 43.463,3.672 47.085,4.346 Z"
               transform="translate(456.001,259.001)"
               id="path303"
               inkscape:connector-curvature="0"
               style="fill:#f2bc97" />
            <path
               d="m 58.118,2.997 c 3.94,-0.655 7.99,2.717 8.83,7.306 0.672,3.653 1.512,12.627 1.456,18.902 -0.149,15.55 0.467,30.03 -4.61,32.447 C 58.715,64.068 53.432,54.608 51.939,39.247 50.594,25.365 45.759,8.393 49.082,5.807 c 1.7,-1.348 5.6,-2.248 9.036,-2.81 z"
               transform="translate(456.001,259.001)"
               id="path305"
               inkscape:connector-curvature="0"
               style="fill:#f2bc97" />
            <g
               id="g313">
              <path
                 d="M 27.93,0.281 C 39.15,-1.892 26.4,49.962 21.415,60.265 16.43,70.569 16.393,63.338 18.148,44.455 19.884,25.59 23.506,1.123 27.93,0.28 Z"
                 transform="translate(456.001,313.328)"
                 id="path307"
                 inkscape:connector-curvature="0"
                 style="fill:#f2bc97" />
              <path
                 d="m 15.758,52.753 -1.101,14.2 5.694,0.113 4.182,-14.912 z"
                 transform="translate(456.001,313.328)"
                 id="path309"
                 inkscape:connector-curvature="0"
                 style="fill:#f2bc97" />
              <path
                 d="m 14.507,62.607 c 0,0 -2.314,2.848 -7.467,6.482 -5.171,3.634 -6.44,2.754 -6.61,4.177 -0.168,1.424 20.816,1.012 20.816,1.012 l 0.56,-11.708 c -0.019,-0.02 -7.3,-0.263 -7.3,0.037 z"
                 transform="translate(456.001,313.328)"
                 id="path311"
                 inkscape:connector-curvature="0"
                 style="fill:#000000" />
            </g>
            <g
               id="g321">
              <path
                 d="M 2.166,1.499 C 11.201,-5.732 21.133,46.834 21.115,58.429 21.095,70.026 15.42,50.374 8.868,32.596 2.315,14.836 -1.4,4.346 2.166,1.5 Z"
                 transform="translate(514.53,313.328)"
                 id="path315"
                 inkscape:connector-curvature="0"
                 style="fill:#f2bc97" />
              <path
                 d="m 14.356,52.304 5.62,13.076 5.096,-2.586 -3.248,-15.117 z"
                 transform="translate(514.53,313.328)"
                 id="path317"
                 inkscape:connector-curvature="0"
                 style="fill:#f2bc97" />
              <path
                 d="m 17.903,61.596 c 0,0 -1.213,3.465 -4.872,8.617 -3.64,5.152 -5.153,4.758 -4.835,6.163 0.317,1.405 19.938,-6.07 19.938,-6.07 l -3.398,-11.22 c 0.019,0 -6.926,2.21 -6.833,2.51 z"
                 transform="translate(514.53,313.328)"
                 id="path319"
                 inkscape:connector-curvature="0"
                 style="fill:#000000" />
            </g>
            <path
               d="m 82.649,108.354 -4.425,1.799 -4.088,1.667 c 0,0 -17.176,-43.125 -19.322,-49.475 -2.147,-6.37 -5.9,-29.13 -5.9,-29.13 L 34.726,63.936 c -2.744,22.911 -10.38,46.609 -10.81,47.47 -0.055,0.094 -3.883,-0.43 -6.534,-0.805 -1.381,-0.187 -2.445,-0.356 -2.445,-0.356 0,0 4.63,-43.199 6.067,-54.477 C 22.442,44.473 32.86,2.023 32.86,2.023 l 31.494,0.862 2.24,0.075 c 4.873,13.413 1.587,55.507 1.587,55.507 7.319,12.402 14.469,49.887 14.469,49.887 z"
               transform="translate(456.001,259.001)"
               id="path323"
               inkscape:connector-curvature="0"
               style="fill:#1a2645" />
            <path
               d="M 78.224,110.153 C 80.95,101.329 77.31,95.803 76.021,91.756 74.677,87.448 73.781,81.453 72.531,74.222 71.279,66.991 66.221,63.356 65.548,58.505 64.876,53.634 66.444,39.153 66.668,33.271 66.892,27.388 66.538,20.569 65.847,13.431 65.175,6.276 60.582,4.028 60.582,4.028 l 3.79,-1.106 2.24,0.075 c 4.873,13.413 1.588,55.508 1.588,55.508 7.3,12.364 14.431,49.868 14.431,49.868 l -4.406,1.78 z"
               transform="translate(456.001,259.001)"
               id="path325"
               inkscape:connector-curvature="0"
               style="opacity:0.3;fill:#000000" />
            <g
               id="g331">
              <path
                 d="M 1.222,4.44 H 0.736 C 0.586,4.44 0.475,4.327 0.475,4.178 V 0.712 c 0,-0.15 0.112,-0.262 0.261,-0.262 h 0.486 c 0.149,0 0.261,0.112 0.261,0.262 v 3.466 c 0,0.13 -0.112,0.262 -0.261,0.262 z"
                 transform="translate(489.393,259.001)"
                 id="path327"
                 inkscape:connector-curvature="0"
                 style="fill:url(#8uhangrutt)" />
              <path
                 d="m 30.42,4.44 h -0.318 c -0.186,0 -0.354,-0.15 -0.354,-0.356 V 0.787 c 0,-0.188 0.149,-0.356 0.354,-0.356 h 0.318 c 0.186,0 0.354,0.15 0.354,0.356 v 3.297 c 0,0.187 -0.168,0.356 -0.354,0.356 z"
                 transform="translate(489.393,259.001)"
                 id="path329"
                 inkscape:connector-curvature="0"
                 style="fill:url(#bij5v63i8u)" />
            </g>
            <path
               d="M 48.914,33.214 34.726,63.937 c -2.744,22.911 -10.38,46.609 -10.81,47.47 -0.055,0.094 -3.883,-0.43 -6.534,-0.805 8.644,-4.102 7.692,-9.33 9.708,-17.478 2.371,-9.498 4.742,-25.346 5.284,-30.423 0.578,-5.096 15.01,-36.1 15.01,-36.1 z"
               transform="translate(456.001,259.001)"
               id="path333"
               inkscape:connector-curvature="0"
               style="opacity:0.3;fill:#000000" />
          </g>
          <path
             d="m 71.227,55.608 v 0.279 c -0.074,3.128 -0.166,6.293 -0.258,9.254 -0.093,2.643 -0.203,5.157 -0.296,7.335 0,0.112 0,0.224 -0.018,0.317 -0.074,1.843 -0.074,3.184 -0.148,4.487 -0.036,0.67 -0.073,1.285 -0.11,1.806 -0.074,1.08 -0.074,2.16 -0.037,3.24 0.147,3.072 0.129,9.812 -2.435,12.4 -0.756,0.763 -6.38,-0.652 -10.863,-1.955 h -0.018 c -1.623,-0.484 -3.117,-0.931 -4.15,-1.266 -0.94,-0.298 -1.567,-1.173 -1.549,-2.16 0.074,-2.904 0.332,-8.062 0.406,-10.817 0.055,-1.006 0.074,-2.049 0.129,-3.147 0.277,-6.74 0.72,-14.69 1.143,-20.686 1.42,-19.53 4.556,-25.6 4.556,-25.6 h 0.018 c 0,0 11.583,-1.639 13.15,5.79 0.683,3.128 0.683,11.767 0.48,20.723 z"
             transform="translate(455.656,173.06)"
             id="path337"
             inkscape:connector-curvature="0"
             style="fill:#da3685" />
          <path
             d="m 69.147,75.941 c 0,0 1.135,1.108 -2.037,2.198 -3.172,1.09 -11.842,3.905 -11.765,3.8 0.077,-0.124 13.802,-5.998 13.802,-5.998 z"
             transform="translate(455.656,173.06)"
             id="path339"
             inkscape:connector-curvature="0"
             style="opacity:0.5;fill:#c33379" />
          <path
             d="m 71.079,79.205 c -0.076,1.072 -0.076,2.144 -0.038,3.216 0.152,3.049 0.133,9.738 -2.508,12.307 -0.779,0.757 -6.572,-0.647 -11.188,-1.94 2.564,0.461 6.534,0.979 8.814,0.35 3.552,-0.979 3.609,-8.075 3.4,-11.475 -0.228,-3.419 -0.17,-6.67 -0.17,-6.67 0,0 0.949,-0.999 1.956,-2.052 -0.076,1.83 -0.076,3.16 -0.152,4.453 -0.038,0.684 -0.076,1.294 -0.114,1.811 z"
             transform="translate(455.656,173.06)"
             id="path341"
             inkscape:connector-curvature="0"
             style="opacity:0.5;fill:#c33379" />
          <path
             d="m 43.252,30.11 0.093,-0.169 h -0.186 c -0.314,0 -7.666,-0.094 -8.944,3.266 -1.315,3.473 -3.26,40.04 -3.778,50.177 -0.092,1.652 0.019,3.717 -0.092,5.875 v 0.094 c 0.018,0.507 0.148,5.031 0.74,5.482 0.89,0.694 5.908,-2.197 7.778,-3.323 0.426,-0.263 0.685,-0.732 0.667,-1.258 l -0.167,-5.162 v -0.113 c -0.426,-6.344 0.26,-20.46 0.76,-28.57 0.407,-6.607 2.888,-25.623 3.13,-26.299 z"
             transform="translate(455.656,173.06)"
             id="path343"
             inkscape:connector-curvature="0"
             style="fill:#da3685" />
          <path
             d="M 74.345,61.928 71.18,65.36 c -2.134,2.3 -4.573,4.935 -4.687,5.028 -0.229,0.167 -15.054,8.553 -15.054,8.553 l -0.095,-0.223 c 0.038,-1.002 0.076,-2.04 0.114,-3.135 3.24,-2.282 12.539,-8.924 14.692,-10.872 2.63,-2.356 1.715,-15.77 1.715,-15.77 l 3.601,7.217 2.878,5.77 z"
             transform="translate(455.656,173.06)"
             id="path345"
             inkscape:connector-curvature="0"
             style="opacity:0.5;fill:#ad316d" />
          <path
             d="M 57.302,28.32 C 57.747,27.91 54.591,23.521 54.387,18.74 54.182,13.94 54.127,1.763 44.063,3.033 34,4.303 36.395,12.147 37.12,14.276 c 0.724,2.13 4.475,11.598 9.024,10.608 0,0 -0.112,3.568 -2.841,4.501 -0.019,0 8.262,4.128 14,-1.064 z m 20.034,37.952 c -0.094,1.45 -1.003,2.714 -2.271,3.458 -6.229,3.68 -28.926,16.86 -31.52,15.04 -3.01,-2.12 28.831,-22.588 30.63,-21.807 1.4,0.595 3.313,0.985 3.161,3.309 z"
             transform="translate(455.656,173.06)"
             id="path347"
             inkscape:connector-curvature="0"
             style="fill:#f2bc97" />
          <path
             d="m 46.606,82.514 c 0,0 -2.78,-0.896 -5.617,-0.448 -2.1,0.34 -4.898,3.01 -4.626,4.157 0.272,1.146 1.458,0.842 3.81,-0.359 2.43,-1.254 2.118,0.968 4.47,0.484 2.332,-0.484 2.702,-1.612 2.702,-1.612"
             transform="translate(455.656,173.06)"
             id="path349"
             inkscape:connector-curvature="0"
             style="fill:#f2bc97" />
          <path
             d="m 67.042,29.941 c 0,0 5.52,1.91 7.7,9.273 2.695,9.106 5.797,24.795 4.136,28.374 -2.548,5.471 -23.394,13.353 -23.394,13.353 l -3.14,-5.638 c 0,0 16.786,-11.869 16.786,-12.221 0,-0.353 -1.551,-13.854 -1.551,-13.854 L 67.043,29.941 Z"
             transform="translate(455.656,173.06)"
             id="path351"
             inkscape:connector-curvature="0"
             style="fill:#da3685" />
          <path
             d="m 52.59,74.946 c 0.151,0.039 3.755,6.271 3.755,6.271 l -1.32,0.704 c -0.057,0.039 -0.114,0.02 -0.152,-0.04 l -3.509,-5.92 c -0.037,-0.058 -0.019,-0.117 0.038,-0.156 0,0 0.83,-0.938 1.189,-0.86 z"
             transform="translate(455.656,173.06)"
             id="path353"
             inkscape:connector-curvature="0"
             style="fill:#ffffff" />
          <path
             d="M 54.007,7.397 C 53.747,6.794 53.471,6.191 53.175,5.587 52.121,3.467 50.513,1.22 48.146,0.964 c -1.904,-0.2 -3.641,0.95 -5.398,1.718 -2.791,1.225 -6.008,1.48 -8.966,0.731 -1.275,-0.329 -2.57,-0.822 -3.863,-0.585 -1.738,0.33 -2.977,1.956 -3.383,3.637 -0.647,2.632 0.388,5.592 2.532,7.274 2.145,1.663 5.287,1.955 7.728,0.767 1.7,-0.822 3.53,-1.663 5.398,-2.01 0.924,-0.164 2.052,-0.22 2.865,0.31 0.814,0.53 1.257,1.371 1.701,2.194 0.407,0.75 0.813,2.047 1.682,2.43 0.832,0.384 0.74,-0.986 0.684,-1.425 -0.092,-0.895 -0.222,-1.791 -0.351,-2.668 -0.074,-0.475 -0.388,-1.59 0.11,-1.956 0.075,-0.055 0.167,-0.073 0.26,-0.091 0.85,-0.091 1.719,0.384 2.274,0.987 1.368,1.462 0.739,3.655 1.183,5.41 0.296,1.224 1.164,3.581 2.865,3.216 0.795,-0.183 0.795,-1.37 0.795,-1.974 0.019,-1.096 0.111,-2.193 0.074,-3.29 -0.037,-1.114 -0.37,-2.174 -0.647,-3.234 -0.444,-1.7 -0.998,-3.381 -1.682,-5.008 z"
             transform="translate(455.656,173.06)"
             id="path355"
             inkscape:connector-curvature="0"
             style="fill:#1a2645" />
          <g
             id="g367">
            <path
               d="m 0.39,0.585 8.43,22.317 c 0,0 22.953,1.84 23.12,2.028 L 22.863,1.036 C 22.844,1.055 0.039,0.566 0.39,0.585 Z"
               transform="translate(461.001,236.001)"
               id="path357"
               inkscape:connector-curvature="0"
               style="fill:#c7d4f9" />
            <path
               d="m 48.743,23.916 -16.877,0.939 -0.537,-1.427 -0.63,-1.635 17.859,-0.995 0.093,1.559 z"
               transform="translate(461.001,236.001)"
               id="path359"
               inkscape:connector-curvature="0"
               style="fill:#b9c8fc" />
            <path
               d="m 22.844,1.055 0.852,0.075 8.893,23.688 -0.723,0.037 z"
               transform="translate(461.001,236.001)"
               id="path361"
               inkscape:connector-curvature="0"
               style="fill:#b9c8fc" />
            <path
               d="m 48.743,23.916 -16.877,0.958 -0.537,-1.428 c 4.298,-0.263 14.21,-0.845 17.34,-1.07 z"
               transform="translate(461.001,236.001)"
               id="path363"
               inkscape:connector-curvature="0"
               style="fill:#b9c8fc" />
            <path
               d="m 13.748,12.645 c 0.352,0.977 1.26,1.522 2.038,1.24 0.778,-0.282 1.13,-1.315 0.778,-2.273 -0.352,-0.977 -1.26,-1.522 -2.038,-1.24 -0.778,0.3 -1.13,1.315 -0.778,2.273 z"
               transform="translate(461.001,236.001)"
               id="path365"
               inkscape:connector-curvature="0"
               style="fill:#ffffff" />
          </g>
        </g>
        <g
           id="g389">
          <g
             transform="translate(463.57,23.394)"
             id="g381">
            <ellipse
               cx="39.841"
               cy="39.848999"
               rx="39.698002"
               ry="39.737999"
               id="ellipse371"
               style="fill:#7081ff" />
            <ellipse
               cx="39.841"
               cy="39.848999"
               rx="31.790001"
               ry="31.822001"
               id="ellipse373"
               style="fill:#e4f5fb" />
            <ellipse
               cx="39.841"
               cy="39.848999"
               rx="22.93"
               ry="22.952"
               id="ellipse375"
               style="fill:#7081ff" />
            <ellipse
               cx="39.810001"
               cy="39.791"
               rx="15.165"
               ry="15.178"
               transform="rotate(-13.286,39.81,39.791)"
               id="ellipse377"
               style="fill:#e4f5fb" />
            <path
               d="m 33.156,39.849 c 0,3.687 2.985,6.692 6.685,6.692 3.684,0 6.685,-2.989 6.685,-6.692 0,-3.688 -2.985,-6.692 -6.685,-6.692 -3.684,0 -6.685,2.988 -6.685,6.692 z"
               id="path379"
               inkscape:connector-curvature="0"
               style="fill:#da3685" />
          </g>
          <path
             d="m 23.777,-3.446 1.652,-10e-4 -0.028,55.827 -1.652,10e-4 z"
             transform="rotate(-45,273.0885,-519.20545)"
             id="path383"
             inkscape:connector-curvature="0"
             style="fill:#1a2645" />
          <path
             d="m 47.114,47.004 -0.985,-5.087 -4.097,4.101 z"
             transform="translate(457.218,16.477)"
             id="path385"
             inkscape:connector-curvature="0"
             style="fill:#1a2645" />
          <path
             d="M 5.748,6.551 0.206,4.818 3.668,3.467 4.986,0.05 6.749,5.55 Z"
             transform="translate(457.218,16.477)"
             id="path387"
             inkscape:connector-curvature="0"
             style="fill:#da3685" />
        </g>
      </g>
    </g>
  </g>
</svg>
