<?xml version="1.0" encoding="utf-8"?>
<!-- Generator: Adobe Illustrator 25.2.0, SVG Export Plug-In . SVG Version: 6.00 Build 0)  -->
<svg version="1.1" id="Layer_1" xmlns="http://www.w3.org/2000/svg" xmlns:xlink="http://www.w3.org/1999/xlink" x="0px" y="0px"
	 viewBox="0 0 1400 970" style="enable-background:new 0 0 1400 970;" xml:space="preserve">
<style type="text/css">
	.st0{fill:none;stroke:#2C3E50;stroke-width:0.5;stroke-miterlimit:10;}
	.st1{fill:none;stroke:#2C3E50;stroke-miterlimit:10;}
	.st2{fill:#5ED092;}
	.st3{fill:#2C3E50;}
	.st4{fill:#FFFFFF;stroke:#2C3E50;stroke-miterlimit:10;}
	.st5{fill:#FFFFFF;stroke:#2C3E50;stroke-width:4;stroke-miterlimit:10;}
	.st6{fill:#4C95FC;}
	.st7{fill:#FFFFFF;stroke:#2C3E50;stroke-width:2;stroke-miterlimit:10;}
	.st8{fill:#F9F9F9;}
	.st9{fill:#FFFFFF;}
	.st10{fill:none;stroke:#B3B3B3;stroke-width:0.25;stroke-miterlimit:10;}
	.st11{fill:#EFF0F2;}
	.st12{fill:#F7F7F7;}
	.st13{fill:#FFFFFF;stroke:#B3B3B3;stroke-width:0.25;stroke-miterlimit:10;}
	.st14{fill:#FFFFFF;stroke:#FFFFFF;stroke-miterlimit:10;}
	.st15{fill:#F4F4F4;stroke:#2C3E50;stroke-miterlimit:10;}
	.st16{fill:#DB5F8D;}
	.st17{fill:#1D262D;}
	.st18{fill:none;}
	.st19{fill:#F2F2F2;}
	.st20{fill:#8478F4;}
	.st21{fill:none;stroke:#2C3E50;stroke-width:0.75;stroke-miterlimit:10;}
	.st22{fill:#7466F2;}
	.st23{fill:#627AF4;}
	.st24{fill:none;stroke:#7FB2EF;stroke-width:0.5469;stroke-linecap:round;stroke-miterlimit:10;}
	.st25{fill:#FF8C52;}
	.st26{fill:#252A30;}
	.st27{fill:none;stroke:#FFFFFF;stroke-miterlimit:10;}
	.st28{fill:url(#SVGID_1_);}
	.st29{fill:url(#SVGID_2_);}
	.st30{fill:url(#SVGID_3_);}
	.st31{fill:url(#SVGID_4_);}
	.st32{fill:url(#SVGID_5_);}
	.st33{fill:none;stroke:#2C3E50;stroke-linecap:round;stroke-linejoin:round;stroke-miterlimit:10;}
	.st34{fill:#FFC202;}
</style>
<g>
	<line class="st0" x1="356.8" y1="217.9" x2="356.8" y2="362"/>
	<line class="st0" x1="647.9" y1="315.4" x2="647.9" y2="362"/>
	<line class="st0" x1="181.3" y1="453.2" x2="269.4" y2="453.2"/>
	<line class="st1" x1="117.7" y1="959.4" x2="1367.1" y2="959.4"/>
	<path class="st2" d="M1016.7,556.9l-8.6,61.1c-0.5,3.5,1.9,6.7,5.4,7.2l28.5,4c1.8,16.4,6.1,32.1,12.7,46.7c0,0,0,0,0,0l-22.4,16.9
		c-2.8,2.1-3.4,6.1-1.3,8.9l37.1,49.3c2.1,2.8,6.1,3.4,8.9,1.3l23-17.3c0,0,0,0,0,0c12.4,10,26.5,18.2,41.9,24.1c0,0,0,0,0,0
		l-3.9,27.7c-0.5,3.5,1.9,6.7,5.4,7.2l61.1,8.6c3.5,0.5,6.7-1.9,7.2-5.4l4-28.5c0,0,0,0,0,0c16.4-1.8,32.1-6.1,46.7-12.7
		c0,0,0,0,0,0l16.8,22.4c2.1,2.8,6.1,3.4,8.9,1.3l49.3-37.1c2.8-2.1,3.4-6.1,1.3-8.9l-17.4-23c10-12.5,18.3-26.6,24-42l27.8,3.9
		c3.5,0.5,6.7-1.9,7.2-5.4l8.6-61.1c0.5-3.5-1.9-6.7-5.4-7.2l-28.5-4c-1.8-16.4-6.1-32.1-12.7-46.7l22.4-16.9
		c2.8-2.1,3.4-6.1,1.3-8.9l-37.1-49.3c-2.1-2.8-6.1-3.4-8.9-1.3l-23,17.3l0,0c-12.5-10-26.6-18.2-42-24.1l3.9-27.7
		c0.5-3.5-1.9-6.7-5.4-7.2l-61.1-8.6c-3.5-0.5-6.7,1.9-7.2,5.4l-4,28.5c-16.3,1.8-32.1,6.1-46.7,12.7l-16.8-22.4
		c-2.1-2.8-6.1-3.4-8.9-1.3l-49.3,37.1c-2.8,2.1-3.4,6.1-1.3,8.9l17.3,23l0,0c-10,12.5-18.3,26.6-24.1,42l-27.7-3.9
		C1020.4,551,1017.2,553.4,1016.7,556.9z M1121,571.1c11.5-23.3,33.7-40.2,59.3-44.9c73.7-13.8,129.2,59.6,95.9,126.8
		c-11.6,23.3-33.9,40.1-59.5,44.8C1143.1,711.1,1087.9,638.1,1121,571.1z"/>
	<g>
		<path class="st3" d="M1260,379.6c15.7,2.4,31.5,4.9,47.2,7.3c8.5-13.6,17-27.2,25.4-40.7c0.4-0.9,0-2.1-0.9-2.5
			c-0.9-0.4-2-0.1-2.5,0.8c-8,12.7-16,25.5-23.9,38.2c-14.9-2.2-29.9-4.5-44.8-6.7c-1-0.1-1.8,0.6-1.9,1.5
			C1258.4,378.4,1259.1,379.4,1260,379.6z"/>
	</g>
	<g>
		<path class="st4" d="M1291.2,495.4c2.3,0.3,4.6,0.6,6.9,1c0.1-2,0.2-3.9,0.2-5.9c-2.6-0.1-5.2-0.1-7.8-0.2
			C1290.8,492,1291,493.7,1291.2,495.4z"/>
		<g>
			<path class="st4" d="M1212.6,408.3c-6.1-0.4-12.3-0.8-18.4-1.2c-1.3-4.5-2.7-9-4-13.4c4.5-18.4,9-36.9,13.4-55.3l12.1-39.5v-8.4
				l6.9-16.4l13.2,1c25.6,9.3,33.7,38.7,33.7,38.7c10.8,38-6,92.7-6,92.7c-45.9-0.6-68.9-0.4-68.9,0.7c0,0.1,0.4,0.3,1.1,0.5"/>
			<path class="st5" d="M1242,272.1"/>
			<path class="st4" d="M1225,273.7c-8.2,2.4-17.4,6.8-25.1,14.6c-21.4,21.7-17.9,56.3-15.6,78.6c1.6,16,5.3,29.5,9,39.9"/>
			<path class="st6" d="M1193,404c1.8,3.8,5.2,9.7,11.7,14.6c13.9,10.7,31.1,8.7,34.7,8.3c5.8-0.7,5.9-1.7,21.3-5.8
				c9.2-2.5,16.7-4.2,21.7-5.2c-0.5,9.9-0.4,21,0.5,33c1.2,15.8,3.7,30,6.7,42.1c3.2,0,6.5,0,9.7,0c3.4-12.3,6-22.6,8-30.4
				c3.1-12.7,4.1-17.9,4.9-23.3c1.7-11.8,2.5-17.7,1.3-24c-0.9-4.5-4.7-19.5-17.8-26.6c-3.7-2-8.1-3-16.9-4.8
				c-7.9-1.7-14.6-2.5-19.3-3C1237.3,387.2,1215.2,395.6,1193,404z"/>
			<g>
				<path class="st4" d="M1228.5,273.2L1228.5,273.2c4.3,1.1,8.6-1.5,9.6-5.1l2.1-7.5c1.3-4.5-1.1-9.1-5.4-10.5l0,0
					c-4.4-1.4-9.9,0.9-11.3,5.4l-1.5,5.8C1220.5,266.6,1223.5,271.6,1228.5,273.2z"/>
				<path class="st3" d="M1235.8,247.6c-3.9-1-10.3-2.6-12.6,0.4c-0.6,0.8-0.8,1.8-0.8,2.5c-0.6-0.3-1.5-0.6-2.2-0.3
					c-2.8,1-2.2,8.3-2.1,9.8c0.4,5,2.2,11.9,4.7,12c0.7,0,1.2-0.4,1.3-0.5c2.1-1.9-1-6.3,0.9-8.7c1.1-1.4,2.5-0.6,4.5-2.1
					c1.8-1.4,2.5-3.6,2.7-5.3c1.7,0.9,5.3,2.6,9,2.1c1.4-0.2,2.1-0.6,2.6-1.1c1-1.1,1.2-2.8,0.9-3.8
					C1243.9,249.7,1239.7,248.6,1235.8,247.6z"/>
			</g>
			<path class="st4" d="M1215.2,327.7c0.4,4.9,1.5,12.2,4.4,20.4c2.3,6.7,4.7,14,10,19.3c4,4,9.7,7.3,27.5,9.5
				c9.7,1.2,23.2,2.1,39.5,0.7c0.2-2.1,0.4-4.1,0.6-6.2c-14.1-8.2-28.1-16.4-42.2-24.6c0.4-5.7,0.9-11.4,1.3-17"/>
		</g>
		<path class="st4" d="M1290.1,494.4c0,0-0.7,5.6,0.9,10.1l5.2-0.5l0.5-2.6c0,0,8.2,3.2,19.5,0c0,0,0.7-3.5-3.6-4
			c0,0-9.9,1.7-13.7-4.5L1290.1,494.4z"/>
	</g>
	<g>
		<path class="st7" d="M1042.3,827.2H273.3c-2.8,0-5-2.2-5-5V361.3c0-8.3,6.7-15,15-15h753.9c8.3,0,15,6.7,15,15v455.9
			C1052.3,822.7,1047.8,827.2,1042.3,827.2z"/>
		<path class="st8" d="M1028.8,798.7H468.2c-2.2,0-4-1.8-4-4V416.3c0-2.2,1.8-4,4-4h560.6c2.2,0,4,1.8,4,4v378.5
			C1032.8,797,1031,798.7,1028.8,798.7z"/>
		<g>
			<path class="st9" d="M1007.9,766.6H489.4c-1.8,0-3.3-1.5-3.3-3.3v-188c0-1.8,1.5-3.3,3.3-3.3h518.5c1.8,0,3.3,1.5,3.3,3.3v188
				C1011.3,765.2,1009.8,766.6,1007.9,766.6z"/>
			<line class="st10" x1="485.7" y1="616.3" x2="1010.8" y2="616.3"/>
			<g>
				<path class="st11" d="M590.1,597.8h-64.7c-1.1,0-2-0.9-2-2v-3.4c0-1.1,0.9-2,2-2h64.7c1.1,0,2,0.9,2,2v3.4
					C592.1,597,591.2,597.8,590.1,597.8z"/>
				<path class="st11" d="M801.6,597.8h-90.5c-1.1,0-2-0.9-2-2v-3.4c0-1.1,0.9-2,2-2h90.5c1.1,0,2,0.9,2,2v3.4
					C803.6,597,802.7,597.8,801.6,597.8z"/>
				<path class="st12" d="M971.3,597.8H918c-1.1,0-2-0.9-2-2v-3.4c0-1.1,0.9-2,2-2h53.3c1.1,0,2,0.9,2,2v3.4
					C973.3,597,972.4,597.8,971.3,597.8z"/>
			</g>
			<g>
				<path class="st11" d="M570.7,649.6h-30.4c-1.1,0-2-0.9-2-2v-3.4c0-1.1,0.9-2,2-2h30.4c1.1,0,2,0.9,2,2v3.4
					C572.7,648.7,571.8,649.6,570.7,649.6z"/>
				<path class="st11" d="M760.7,654.5h-13.2c-1.1,0-2-0.9-2-2v-13.2c0-1.1,0.9-2,2-2h13.2c1.1,0,2,0.9,2,2v13.2
					C762.7,653.6,761.8,654.5,760.7,654.5z"/>
				<path class="st11" d="M969,649.6h-53.3c-1.1,0-2-0.9-2-2v-3.4c0-1.1,0.9-2,2-2H969c1.1,0,2,0.9,2,2v3.4
					C971,648.7,970.1,649.6,969,649.6z"/>
			</g>
			<g>
				<path class="st11" d="M570.7,698.4h-30.4c-1.1,0-2-0.9-2-2V693c0-1.1,0.9-2,2-2h30.4c1.1,0,2,0.9,2,2v3.4
					C572.7,697.5,571.8,698.4,570.7,698.4z"/>
				<path class="st11" d="M760.7,703.3h-13.2c-1.1,0-2-0.9-2-2v-13.2c0-1.1,0.9-2,2-2h13.2c1.1,0,2,0.9,2,2v13.2
					C762.7,702.4,761.8,703.3,760.7,703.3z"/>
				<path class="st11" d="M969,698.4h-53.3c-1.1,0-2-0.9-2-2V693c0-1.1,0.9-2,2-2H969c1.1,0,2,0.9,2,2v3.4
					C971,697.5,970.1,698.4,969,698.4z"/>
			</g>
			<g>
				<path class="st11" d="M570.7,747.2h-30.4c-1.1,0-2-0.9-2-2v-3.4c0-1.1,0.9-2,2-2h30.4c1.1,0,2,0.9,2,2v3.4
					C572.7,746.3,571.8,747.2,570.7,747.2z"/>
				<path class="st11" d="M764.6,744.6h-21.1c-0.5,0-0.9-0.4-0.9-0.9v-0.5c0-0.5,0.4-0.9,0.9-0.9h21.1c0.5,0,0.9,0.4,0.9,0.9v0.5
					C765.5,744.2,765.1,744.6,764.6,744.6z"/>
				<path class="st11" d="M969,747.2h-53.3c-1.1,0-2-0.9-2-2v-3.4c0-1.1,0.9-2,2-2H969c1.1,0,2,0.9,2,2v3.4
					C971,746.3,970.1,747.2,969,747.2z"/>
			</g>
		</g>
		<path class="st6" d="M1051.4,389.8H269v-28.1c0-8.3,6.7-15,15-15h752.4c8.3,0,15,6.7,15,15V389.8z"/>
		<g>
			<circle class="st1" cx="308.2" cy="367.3" r="4.6"/>
			<circle class="st1" cx="331.2" cy="367.3" r="4.6"/>
			<circle class="st1" cx="354.1" cy="367.3" r="4.6"/>
		</g>
		<g>
			<path class="st13" d="M438.2,729.7H291.8c-2.2,0-4-1.8-4-4V416.3c0-2.2,1.8-4,4-4h146.3c2.2,0,4,1.8,4,4v309.4
				C442.2,727.9,440.4,729.7,438.2,729.7z"/>
			<path class="st13" d="M424.1,458.4H305.7c-2.1,0-3.8-1.7-3.8-3.8v-10.8c0-2.1,1.7-3.8,3.8-3.8h118.4c2.1,0,3.8,1.7,3.8,3.8v10.8
				C427.8,456.7,426.1,458.4,424.1,458.4z"/>
			<g>
				<path class="st11" d="M391.7,487.4h-87.8c-1.1,0-2-0.9-2-2V482c0-1.1,0.9-2,2-2h87.8c1.1,0,2,0.9,2,2v3.4
					C393.7,486.5,392.8,487.4,391.7,487.4z"/>
				<path class="st11" d="M372.2,524.1h-68.3c-1.1,0-2-0.9-2-2v-3.4c0-1.1,0.9-2,2-2h68.3c1.1,0,2,0.9,2,2v3.4
					C374.2,523.2,373.3,524.1,372.2,524.1z"/>
				<path class="st11" d="M382.6,560.9h-78.7c-1.1,0-2-0.9-2-2v-3.4c0-1.1,0.9-2,2-2h78.7c1.1,0,2,0.9,2,2v3.4
					C384.6,560,383.7,560.9,382.6,560.9z"/>
				<path class="st11" d="M353,597.6h-49.1c-1.1,0-2-0.9-2-2v-3.4c0-1.1,0.9-2,2-2H353c1.1,0,2,0.9,2,2v3.4
					C355,596.7,354.1,597.6,353,597.6z"/>
				<path class="st11" d="M402.9,634.4h-99c-1.1,0-2-0.9-2-2V629c0-1.1,0.9-2,2-2h99c1.1,0,2,0.9,2,2v3.4
					C404.9,633.5,404,634.4,402.9,634.4z"/>
				<path class="st11" d="M382.7,671.1h-78.8c-1.1,0-2-0.9-2-2v-3.4c0-1.1,0.9-2,2-2h78.8c1.1,0,2,0.9,2,2v3.4
					C384.7,670.2,383.8,671.1,382.7,671.1z"/>
				<path class="st11" d="M372.1,707.8h-68.2c-1.1,0-2-0.9-2-2v-3.4c0-1.1,0.9-2,2-2h68.2c1.1,0,2,0.9,2,2v3.4
					C374.1,707,373.2,707.8,372.1,707.8z"/>
			</g>
		</g>
		<g>
			<rect x="486.1" y="437.4" class="st14" width="304.5" height="108.7"/>
			<g>
				<path class="st11" d="M571.1,463.8h-64.7c-1.1,0-2-0.9-2-2v-3.4c0-1.1,0.9-2,2-2h64.7c1.1,0,2,0.9,2,2v3.4
					C573.1,462.9,572.2,463.8,571.1,463.8z"/>
				<line class="st10" x1="625.2" y1="463.8" x2="738.6" y2="463.8"/>
			</g>
			<g>
				<path class="st11" d="M555.2,489.8h-48.7c-1.1,0-2-0.9-2-2v-3.4c0-1.1,0.9-2,2-2h48.7c1.1,0,2,0.9,2,2v3.4
					C557.2,488.9,556.3,489.8,555.2,489.8z"/>
				<line class="st10" x1="625.2" y1="489.8" x2="738.6" y2="489.8"/>
			</g>
			<path class="st11" d="M570.8,518.8h-64.3c-1.1,0-2-0.9-2-2v-3.4c0-1.1,0.9-2,2-2h64.3c1.1,0,2,0.9,2,2v3.4
				C572.8,517.9,571.9,518.8,570.8,518.8z"/>
			<path class="st11" d="M640.9,522.2h-13.2c-1.1,0-2-0.9-2-2V507c0-1.1,0.9-2,2-2h13.2c1.1,0,2,0.9,2,2v13.2
				C642.9,521.3,642,522.2,640.9,522.2z"/>
		</g>
	</g>
	<path class="st1" d="M456.6,916.8c-70.6-0.2-141.3-0.3-211.9-0.5v43.2c-76.3,0-152.6,0-228.9,0"/>
	<g>
		<g>
			<g>
				<path class="st15" d="M260.1,893.5c3.6,0,7.3-0.1,10.9-0.1c-0.4,1.6-0.7,4.1,0.7,6.2c1.1,1.8,2.6,2.4,5.1,3.9
					c2.1,1.2,10,5.8,9.4,7.4c-0.6,1.6-8.9,0.3-9.8,0.1c-6.7-1.1-11.9-3.3-15.3-5C260.8,901.9,260.4,897.7,260.1,893.5z"/>
				<path class="st15" d="M187.4,948.3c-0.3-5.1-0.6-10.1-0.9-15.2c4.2-0.2,8.4-0.4,12.7-0.6c-0.6,1.7-1.4,5.3,0.4,8.7
					c0.4,0.7,1.1,1.8,4.3,4.5c5.9,4.9,9.3,6,9,7.1c-0.4,1.3-6.2,1.1-10.6,0.4C195.5,952.2,190.5,949.9,187.4,948.3z"/>
				<path class="st16" d="M241.8,781.2h-75.5c-1.2,4.3-2.6,10.7-2.8,18.4c-0.4,13.5,3,22.8,5.8,32.9c0.2,0.7,2.7,14,7.7,40.6
					c2.9,15.5,6.5,37.8,9.3,66.5h13.5c2.8-17,5.1-35,6.8-54.1c1.8-20.9,2.2-32,2.3-37.4c0.2-12.2-0.3-22.5-0.7-29.9
					c4,0.5,7.4,1.6,10.1,2.9c4.1,1.9,5.8,4.2,12.7,8.7c5.4,3.5,6.7,4.1,8.9,6.1c8.2,7.5,8.2,17.3,11.3,27.4
					c2.7,8.8,6.1,20.9,9.4,35.6c3.8,0,7.5,0,11.3,0c0-4.1,0-10.8,0.3-18.9c1.1-27.2,3.9-34.6,0-47.9c-1.6-5.4-4.2-10.1-9.5-19.6
					C255.1,798.9,247.5,788.4,241.8,781.2z"/>
				<path class="st4" d="M186.9,946.7c3.5,0.6,6.3,1.4,8.2,2.1c4.8,1.6,6.5,3,9.9,2.9c2.8-0.1,3.3-1.1,5.3-1.1
					c2.3,0.1,5.7,1.4,9.7,7.7c-6.5,0-13-0.1-19.5-0.1c-2.7-1.9-5.4-3.8-8.1-5.6c-0.8,1.8-1.6,3.6-2.5,5.5c-0.9,0-1.9,0-2.8-0.1
					C187.1,954.2,187,950.4,186.9,946.7z"/>
				<path class="st4" d="M245.4,692.1c-9.3-19.9-33.7-26-36.4-26.7c-3.3-0.8-14.8-3.1-28.8,0.7c-21.4,5.8-32.2,21.6-35.6,26.6
					c-17,25-9.2,51.9-5.2,62.2c2.8,7.3,8.2,5.1,12,12.1c4.6,8.5-0.7,21.9,4.3,35.4c5.8,16,27.8,21.1,30.5,21.7
					c24.9,5.5,51.9-10.7,59.8-30.7c5.5-14-3.1-17.9-2.7-48.8C243.6,713,252.1,706.6,245.4,692.1z"/>
				<path class="st4" d="M210.3,718.7c3.7,2.7,19,13.5,39.2,10.6c14.4-2.1,23.7-10.1,28.9-14.8c16.6-14.8,21.2-33.8,22.6-41.6
					c-1.7-1.5-3.3-3-5-4.5c-14.1,7.5-28.2,14.9-42.4,22.4"/>
				<path class="st4" d="M184.4,648.5c0.2,6,6.1,10.5,10.8,10.4c4.7-0.1,6.5-4.8,6.3-10.8c-0.2-6-4.3-10.8-9-10.7
					C187.8,637.5,184.2,642.4,184.4,648.5z"/>
				<path class="st3" d="M174.5,699c-5.1,0.9-12-0.7-14.8-4.8c-5.4-8,5.4-25.3,9.7-32.1c0.6-0.9,1.2-1.8,1.8-3.2
					c2.2-5.5-0.2-8.4,1-16.4c0.1-0.9,0.8-4.5,3.1-6.6c2.5-2.3,4.1-0.9,9.4-3.5c3.5-1.7,4.4-3.1,7.2-3.1c1.4,0,2.4,0.3,4.4,1
					c3.1,1,5.1,1.7,5.5,3.2c0.6,1.8-1.5,3.9-2.3,4.6c-2.8,2.7-6.4,3-8,3.1c0.7,1.8,1.3,3.8,0.4,4.5c-0.9,0.8-2.6-0.5-3.7,0.1
					c-2.1,1-2.2,5.9-0.3,9.7c1.1,2.2,2.7,3.5,3.3,4C198.2,666.1,191.2,696.2,174.5,699z"/>
			</g>
			<path class="st4" d="M260.5,905c3.5,0.5,6.3,1.3,8.1,1.9c4.8,1.6,6.5,3,9.9,2.9c2.8-0.1,3.3-1.2,5.3-1.1c2.1,0.1,5.1,1.4,8.6,7.1
				c-6.1-0.1-12.2-0.1-18.3-0.2c-2.7-1.7-5.5-3.4-8.2-5.1c-0.8,1.9-1.7,3.7-2.5,5.6c-0.9,0-1.9,0-2.8-0.1
				C260.6,912.3,260.6,908.7,260.5,905z"/>
		</g>
		<g>
			<path class="st4" d="M295.7,668.4c0.2-1.1,0.6-2.3,1.2-3.6c1.5-3.2,3.8-5.3,5.2-6.4c0,0,1.4-0.7,1.4,1.1l-1,3.4
				c0.6-0.5,4.4-3.8,7.4-3.2c0.3,0.1,0.9,0.2,1.4,0.6c1.5,1.3,1.1,3.7,1,4.1c-0.4,2.5-2.5,4-4.9,5.8c-1.7,1.2-4.4,2.9-8.2,4.1"/>
			<line class="st0" x1="307.4" y1="666.7" x2="310.3" y2="663.8"/>
			<line class="st0" x1="306" y1="664.5" x2="309.3" y2="661.7"/>
			<line class="st0" x1="296.6" y1="670.1" x2="298.5" y2="672.4"/>
		</g>
	</g>
	<g>
		<g>
			<g>
				<g>
					<path class="st3" d="M956,106h-10.1h-43h-10.1c-5.9,0-10.7,4.8-10.7,10.7v14.4v4.1v7.6V156v3.2v13.1V257
						c0,5.9,4.8,10.7,10.7,10.7H956c5.9,0,10.7-4.8,10.7-10.7v-96.5v-13.1v-30.7C966.7,110.8,961.9,106,956,106z"/>
					<g>
						<path class="st9" d="M963.5,117.7V256c0,4.6-3.7,8.4-8.3,8.4h-61.6c-4.6,0-8.3-3.8-8.3-8.4V117.7c0-4.6,3.7-8.4,8.3-8.4h13.5
							c0.6,0,1,0.5,1,1v1.7c0,1.8,1.4,3.3,3.2,3.3h26.1c1.8,0,3.2-1.5,3.2-3.3v-1.7c0-0.6,0.5-1,1-1h13.5
							C959.8,109.3,963.5,113,963.5,117.7z"/>
					</g>
					<path class="st17" d="M926.7,111.1h-8.2c-0.4,0-0.6,0.3-0.6,0.6c0,0.4,0.3,0.6,0.6,0.6h8.2c0.4,0,0.6-0.3,0.6-0.6
						C927.4,111.4,927.1,111.1,926.7,111.1z M930.2,111c-0.4,0-0.7,0.3-0.7,0.7c0,0.4,0.3,0.7,0.7,0.7c0.4,0,0.7-0.3,0.7-0.7
						C930.9,111.3,930.6,111,930.2,111z"/>
					<path class="st18" d="M955.8,110.4h-6.1h-3.8h-3.4v1.1c0,2.7-2.2,4.9-4.9,4.9h-26.6c-2.7,0-4.9-2.2-4.9-4.9v-1.1h-3.4h-4.5H893
						c-1.9,0-3.6,0.8-4.9,2c-1.2,1.3-2,3-2,4.9v139.1c0,1.9,0.8,3.6,2,4.9c1.3,1.2,3,2,4.9,2h62.8c1.9,0,3.6-0.8,4.9-2
						c1.2-1.2,2-3,2-4.9V117.3c0-1.9-0.8-3.6-2-4.9C959.4,111.2,957.7,110.4,955.8,110.4z"/>
				</g>
			</g>
		</g>
		<g>
			<g>
				<rect x="892.7" y="158.5" class="st19" width="63.4" height="9.8"/>
			</g>
			<g>
				<rect x="892.7" y="178.1" class="st19" width="63.4" height="46.1"/>
			</g>
		</g>
	</g>
	<path class="st20" d="M870.3,461.7C870.2,461.7,870.2,461.7,870.3,461.7c0.2-1.9,0.3-3.9,0.3-5.9c0-34.6-28.1-62.7-62.7-62.7
		c-28.1,0-51.8,18.5-59.8,43.9c-1.5-0.1-2.9-0.2-4.4-0.2c-11.2,0-21.4,4-29.4,10.5c-9.1-5.2-19.7-8.2-31-8.2c-30,0-55,21-61.2,49.2
		c0,0,0,0-0.1,0c-3.8-1.1-7.9-1.6-12.1-1.6c-25.6,0-46.4,20.8-46.4,46.4c0,15.4,7.5,29.1,19,37.5h17.7h37.1h2.3h81.2h42.1h36.1h27.7
		h53.7h31.3c12.5-11.4,20.3-27.9,20.3-46.1C931.7,490.2,904.3,462.4,870.3,461.7z"/>
	<g>
		<path class="st4" d="M722.7,949c3.7-0.8,7.3-1.7,11-2.5c-1.3-3.3-2.6-6.5-3.9-9.8c-3.4,0.9-6.8,1.8-10.2,2.7
			C720.6,942.6,721.6,945.8,722.7,949z"/>
		<path class="st4" d="M558.1,934c2.9,2.4,5.8,4.8,8.7,7.2c1.8-3,3.6-6.1,5.4-9.1c-2.8-2.1-5.6-4.3-8.4-6.4
			C561.9,928.4,560,931.2,558.1,934z"/>
		<g>
			<path class="st6" d="M689.2,784.5c2,3.9,5,9.7,8,17c10.3,24.2,13.5,43.6,15.5,54.4c3.4,18.7,8.9,45,18.6,82.3
				c-4.2,1-8.4,2-12.6,3c-4.5-5.1-9-10.9-13.4-17.5c-12.7-19.1-19.3-37.7-22.8-52.3c-8.2-12.5-16.3-24.9-24.5-37.4
				c-0.8,12.2-4,29.8-16.7,44.9c-6.3,7.5-12.1,11.1-23.3,19.1c-11.4,8.1-27.6,20.2-46.7,36.4c-3.1-2.8-6.1-5.6-9.2-8.4
				c3.3-7.4,7.8-15.6,13.9-24.2c13.2-18.7,28.6-31,40.1-38.7c-1.4-11.6-1.9-21.5-2-28.7c-0.2-12.8-0.3-21.8,2.5-33.3
				c1.8-7.5,4.2-13.5,6-17.4C644.8,784,667,784.3,689.2,784.5z"/>
			<path class="st4" d="M621.8,785.1c-8-20.1-17.5-51.3-18.3-90.3c-1.1-53.7,14.8-95.2,25.1-117.1c3.1-0.1,6.3-0.2,9.4-0.2
				c2.6,5.3,5.6,12.9,6.8,22.3c2.5,19-3.5,34.1-6.8,40.9c0,0,12,22.6,10.5,37.8c0,0,27.2-11.5,40.3-3.7c2.2-4.6,4.7-9.5,7.8-14.7
				c3.3-5.5,6.7-10.4,9.9-14.7c-1.1-8.1-1.7-19.6,0.5-33.1c2.4-14.3,7-25.4,10.8-32.9c3.1,0.5,6.2,0.9,9.2,1.4
				c5.3,17.1,9.9,39.1,10,64.8c0.2,69-32.5,119.4-47.8,140.2C666.8,785.6,644.3,785.3,621.8,785.1z"/>
			<g>
				<path class="st4" d="M671.9,668.7L671.9,668.7c5.3,0,9.7-4.2,9.9-8.7l0.3-9.3c0.2-5.6-3.9-10.4-9.3-10.8l0,0
					c-5.5-0.4-11.3,3.8-11.7,9.5l-0.2,7.3C660.7,663.2,665.5,668.2,671.9,668.7z"/>
				<path class="st3" d="M673.2,636.6c-4.8-0.1-12.8-0.2-14.7,4c-0.5,1.2-0.4,2.3-0.2,3.2c-0.8-0.2-1.9-0.3-2.7,0.2
					c-3,1.9-0.3,10.3,0.2,12c1.8,5.8,5.9,13.3,8.9,12.7c0.8-0.2,1.2-0.8,1.4-1c1.9-2.8-3-7-1.3-10.5c0.9-1.9,2.8-1.4,4.7-3.7
					c1.7-2.1,1.9-4.9,1.7-7c2.2,0.6,7,1.5,11.1,0c1.5-0.6,2.3-1.3,2.7-2c0.9-1.5,0.6-3.6,0-4.7C683.3,636.8,678.1,636.7,673.2,636.6
					z"/>
			</g>
		</g>
		<g>
			<path class="st4" d="M628.9,578.7c-0.4-1.6-1-3.9-1.5-6.7c-0.7-4.1-1-6.2-0.4-7.9c1.3-3.5,5.1-5.8,7.5-5.5c0.4,0,1.5,0.2,2.1,1
				c0.2,0.3,0.4,0.7,0.3,1.7c-0.1,2-1.3,3.7-2,4.5c0.8,1.6,1.8,3.8,2.4,6.6c0.4,2.1,0.6,4.1,0.5,5.6"/>
			<path class="st21" d="M632.3,564.4c0.1-0.4,0.4-1.1,1-1.8c0.6-0.6,1.2-0.9,1.6-1.1"/>
			<path class="st21" d="M629.5,565c0-0.6,0.2-2.3,1.6-3.7c0.5-0.5,1.1-0.9,1.6-1.1"/>
			<line class="st0" x1="630.8" y1="578.8" x2="636.1" y2="578.8"/>
		</g>
		<g>
			<path class="st4" d="M727.1,582c0.5-1.7,1-4,1.5-6.9c0.7-4.2,1.1-6.4,0.4-8.1c-1.4-3.6-5.4-6-8-5.7c-0.4,0.1-1.6,0.2-2.2,1.1
				c-0.2,0.3-0.4,0.7-0.4,1.7c0.1,2.1,1.4,3.7,2.1,4.6c-0.9,1.7-1.9,3.9-2.5,6.8c-0.5,2.2-0.6,4.2-0.6,5.7"/>
			<path class="st21" d="M723.6,567.3c-0.1-0.4-0.4-1.1-1.1-1.8c-0.6-0.6-1.3-0.9-1.6-1.1"/>
			<path class="st21" d="M726.4,567.8c0-0.6-0.3-2.2-1.6-3.6c-0.6-0.6-1.2-0.9-1.6-1.1"/>
			<line class="st0" x1="725.2" y1="582.1" x2="719.5" y2="582.1"/>
		</g>
		<path class="st4" d="M721.6,945.6c0,0-0.5,7.8,1.8,14l6.7-0.9l0.5-3.7c0,0,11,4.1,25.5-0.8c0,0,0.7-4.9-4.9-5.3
			c0,0-12.9,2.8-18.2-5.6L721.6,945.6z"/>
		<path class="st4" d="M557.7,931.5c0,0-5.1,5.8-7.1,12.2l5.9,3.4l2.7-2.6c0,0,6.2,10,20.7,14.9c0,0,3.5-3.5-0.7-7.2
			c0,0-12-5.7-11-15.5L557.7,931.5z"/>
	</g>
	<g>
		<g>
			<g>
				<path class="st22" d="M49.9,916.7c-0.1,0-0.1,0-0.2,0c-7.2-0.2-20-37.5-38.4-35.4c-0.2,0-0.4,0-0.6,0.1c0,0,17.5-8.3,26.3-3.8
					C51.9,885.4,53.1,916.4,49.9,916.7z"/>
				<g>
					<path class="st23" d="M51.1,939.3C51.1,939.3,51,939.3,51.1,939.3c-0.3,0-0.5-0.2-0.4-0.5c0-0.6,3.4-54.6-25.9-58.6
						c-0.2,0-0.4-0.3-0.4-0.5c0-0.2,0.2-0.4,0.5-0.4c30.1,4.1,26.7,58.9,26.6,59.5C51.5,939.1,51.3,939.3,51.1,939.3z"/>
				</g>
			</g>
			<g>
				<path class="st22" d="M98.8,894.2C98.8,894.2,98.7,894.2,98.8,894.2c-18.7-2.9-31.6,34.8-38.9,35.3c-0.1,0-0.2,0-0.3,0
					c-3.1-0.3-1.9-31.3,13-39C81.1,886,97.9,893.8,98.8,894.2C98.8,894.2,98.8,894.2,98.8,894.2z"/>
				<g>
					<path class="st23" d="M58.4,952.1c-0.2,0-0.4-0.2-0.4-0.4c0-0.6-3.5-55.4,26.6-59.5c0.3,0,0.5,0.1,0.5,0.4S85,893,84.7,893
						c-29.3,4-25.9,58-25.9,58.6C58.9,951.9,58.7,952.1,58.4,952.1C58.4,952.1,58.4,952.1,58.4,952.1z"/>
				</g>
			</g>
			<g>
				<path class="st22" d="M52.3,891.6L52.3,891.6c0,0.2,0,0.2,0,0.2S42.4,884,38,863.2c-5.8-27-16.4-32.5-16.4-32.5l-0.6-0.3
					c0.2,0,0.4-0.1,0.6-0.1c14.1-2.6,24.8,4.2,28.9,20.6C54.9,869.2,52.6,889.3,52.3,891.6z"/>
				<g>
					<path class="st23" d="M54.2,949.4L54.2,949.4c-0.2,0-0.4-0.2-0.4-0.4l0-0.3c0.3-10.8,2.5-102.1-23-113.3
						c-0.2-0.1-0.3-0.4-0.2-0.6c0.1-0.2,0.4-0.3,0.6-0.2c25.5,11.2,24,96.3,23.5,114.1l0,0.3C54.6,949.2,54.4,949.4,54.2,949.4z"/>
				</g>
			</g>
			<g>
				<path class="st22" d="M88.9,842.7l-0.6,0.3c0,0-10.6,5.5-16.4,32.5c-4.4,20.3-13.8,28.2-14.3,28.6c0,0,0,0,0,0s-3-21.5,1.8-40.9
					C63.6,846.7,74.5,839.9,88.9,842.7C88.9,842.7,88.9,842.7,88.9,842.7z"/>
				<g>
					<path class="st23" d="M55.5,950.5c-0.2,0-0.4-0.2-0.4-0.4c-0.2-29.1,1.8-93.5,23.7-103.1c0.2-0.1,0.5,0,0.6,0.2
						c0.1,0.2,0,0.5-0.2,0.6c-21.4,9.4-23.3,73.4-23.2,102.3C55.9,950.3,55.7,950.5,55.5,950.5C55.5,950.5,55.5,950.5,55.5,950.5z"
						/>
				</g>
			</g>
			<path class="st24" d="M57.5,933.2"/>
			<g>
				<path class="st3" d="M74.4,929.8H34.5c-0.2,0-0.3-0.1-0.3-0.3v-5.3c0-0.2,0.1-0.3,0.3-0.3h39.9c0.2,0,0.3,0.1,0.3,0.3v5.3
					C74.8,929.6,74.6,929.8,74.4,929.8z"/>
			</g>
			<g>
				<path class="st3" d="M72.3,929.2H36.6l1.7,15.9c0.9,8.3,7.9,14.5,16.2,14.5l0,0c8.3,0,15.3-6.3,16.2-14.5L72.3,929.2z"/>
			</g>
		</g>
	</g>
	<g>
		<path class="st25" d="M190.8,482.5l-49.2,0.1c-1,0-1.8-0.8-1.8-1.8l-0.1-49.2c0-1,0.8-1.8,1.8-1.8l49.2-0.1c1,0,1.8,0.8,1.8,1.8
			l0.1,49.2C192.6,481.6,191.8,482.5,190.8,482.5z"/>
		<g>
			<g>
				<path class="st9" d="M158.5,451.6c0,0,5.5-0.1,5.2-8.5c0,0,3.7-0.4,3.9,2.6s-0.2,5.7-0.2,5.7l8.7,0c1.9,0,3.4,1.4,3.5,3.3
					c0.3,4.7,0.1,12.7-3.6,13.7c-5.2,1.3-9.6,0.7-10.6,0.3c-1-0.4-5.1-1-7-1"/>
				<path class="st26" d="M158.3,468l-5.3,0c-0.3,0-0.5-0.2-0.5-0.5l0-15.9c0-0.3,0.2-0.5,0.5-0.5l5.3,0c0.3,0,0.5,0.2,0.5,0.5
					l0,15.9C158.9,467.8,158.6,468,158.3,468z"/>
			</g>
		</g>
	</g>
	<g>
		<path class="st4" d="M1294.7,369.8c2.2,0.9,4.1,1.7,5.4,2.2c3.6,1.5,4.3,1.8,4.9,2.6c1.7,2.1,1.7,5.2,0.6,6.6
			c-0.2,0.2-0.7,0.9-1.4,0.9c-0.2,0-0.6,0-1.1-0.4c-1.2-0.8-1.7-2.1-2-2.9c-1.2-0.4-2.9-0.9-4.9-1c-1.4-0.1-2.6,0-3.6,0.2"/>
		<path class="st21" d="M1301.1,377.2c0.2,0.2,0.5,0.6,0.7,1.3c0.2,0.6,0.1,1.1,0.1,1.3"/>
		<path class="st21" d="M1301.7,375.3c0.3,0.2,1.3,1,1.7,2.3c0.1,0.5,0.1,1,0.1,1.3"/>
	</g>
	<line class="st21" x1="1300.2" y1="373.1" x2="1299" y2="376.7"/>
	<g>
		<circle class="st20" cx="353.6" cy="174.9" r="44.9"/>
		<g>
			<g>
				<g>
					<g>
						<polygon class="st9" points="377.8,159.6 329.5,159.6 353.6,173.8 						"/>
					</g>
					<g>
						<polygon class="st9" points="353.6,176 328.7,161.4 328.7,190.2 378.6,190.2 378.6,161.4 						"/>
					</g>
				</g>
			</g>
		</g>
	</g>
	<g>
		<circle class="st2" cx="105.7" cy="274.9" r="37.2"/>
		<g>
			<g>
				<path class="st27" d="M95.8,268.6c1.7-0.9,2.6-2.4,2.6-2.4l-5.6-9.3c-0.8,0-2.2,0.4-3.4,1.3L95.8,268.6z"/>
				<path class="st27" d="M112.4,285.1l10.4,6.4c0.9-1.2,1.3-2.6,1.3-3.4l-9.3-5.6C114.7,282.5,113.2,283.5,112.4,285.1z"/>
				<path class="st27" d="M114.3,293.3c4.3,1.8,7,0.2,8.4-1.8l-10.4-6.4c-0.2,0.4-0.4,0.8-0.5,1.2c0,0-7.2-5-9.5-7.7
					c-2.7-2.4-7.7-9.5-7.7-9.5c0.4-0.1,0.8-0.3,1.2-0.5l-6.4-10.4c-2,1.4-3.6,4.1-1.8,8.4c0.6,1.5,1.4,2.9,2.3,4.3
					c0.4,0.6,0.8,1.2,1.2,1.9c2.3,3.4,4.9,6.5,7.7,9.3c2.4,2.3,4.9,4.5,7.6,6.5C108.9,290.4,111.5,292.1,114.3,293.3z"/>
			</g>
		</g>
	</g>
	<g>
		<path class="st9" d="M700.7,483.4c5.6,4.5,9.3,10.6,10.9,18.3h-17.2c-1.3-3.1-3.2-5.6-5.9-7.3c-2.6-1.8-5.8-2.7-9.4-2.7
			c-4.8,0-8.6,1.7-11.5,5.2c-2.9,3.5-4.4,8.2-4.4,14c0,5.8,1.5,10.5,4.4,14c2.9,3.5,6.8,5.2,11.5,5.2c3.6,0,6.7-0.9,9.4-2.7
			c2.6-1.8,4.6-4.2,5.9-7.2h17.2c-1.7,7.6-5.3,13.7-10.9,18.2c-5.6,4.5-12.7,6.8-21.3,6.8c-6.5,0-12.3-1.4-17.2-4.3
			c-5-2.9-8.8-6.9-11.5-12.1c-2.7-5.2-4-11.1-4-17.8c0-6.7,1.3-12.6,4-17.8c2.7-5.2,6.5-9.3,11.5-12.1c5-2.9,10.7-4.3,17.2-4.3
			C688,476.6,695.1,478.8,700.7,483.4z"/>
		<path class="st9" d="M758.8,544.6l-14.6-25.4h-3.7v25.4h-16.3v-67.3h27.8c5.3,0,9.8,0.9,13.5,2.8c3.7,1.8,6.4,4.4,8.3,7.6
			c1.8,3.2,2.8,6.9,2.8,11c0,4.9-1.3,9-4,12.5c-2.7,3.4-6.6,5.8-11.8,7l16,26.5H758.8z M740.5,508h10.1c3.2,0,5.6-0.7,7.1-2.1
			s2.3-3.5,2.3-6.3c0-2.7-0.8-4.8-2.3-6.3c-1.6-1.5-3.9-2.3-7.1-2.3h-10.1V508z"/>
		<path class="st9" d="M864.1,477.7v66.9h-16.3v-41.8l-14.5,41.8h-14.1l-14.6-41.9v41.9h-16.3v-66.9h19.9l18.2,46.6l17.8-46.6H864.1
			z"/>
	</g>
	<circle class="st4" cx="647.8" cy="239.7" r="75.7"/>
	<g>
		<g>
			<path class="st4" d="M684.9,276.3h-71.3c-2.3,0-4.2-1.9-4.2-4.2v-71.3c0-2.3,1.9-4.2,4.2-4.2h71.3c2.3,0,4.2,1.9,4.2,4.2v71.3
				C689,274.5,687.2,276.3,684.9,276.3z"/>
			<path class="st25" d="M689,215.8h-79.6v-15c0-2.3,1.9-4.2,4.2-4.2h71.3c2.3,0,4.2,1.9,4.2,4.2V215.8z"/>
			<g>
				<linearGradient id="SVGID_1_" gradientUnits="userSpaceOnUse" x1="618.4749" y1="206.7395" x2="623.5457" y2="206.7395">
					<stop  offset="0" style="stop-color:#00AAF6"/>
					<stop  offset="1" style="stop-color:#0078EF"/>
				</linearGradient>
				<path class="st28" d="M623.5,206.7c0,1.4-1.1,2.5-2.5,2.5c-1.4,0-2.5-1.1-2.5-2.5c0-1.4,1.1-2.5,2.5-2.5
					C622.4,204.2,623.5,205.3,623.5,206.7z"/>
				<linearGradient id="SVGID_2_" gradientUnits="userSpaceOnUse" x1="632.5838" y1="206.7395" x2="637.6546" y2="206.7395">
					<stop  offset="0" style="stop-color:#00AAF6"/>
					<stop  offset="1" style="stop-color:#0078EF"/>
				</linearGradient>
				<path class="st29" d="M637.7,206.7c0,1.4-1.1,2.5-2.5,2.5c-1.4,0-2.5-1.1-2.5-2.5c0-1.4,1.1-2.5,2.5-2.5
					C636.5,204.2,637.7,205.3,637.7,206.7z"/>
				<linearGradient id="SVGID_3_" gradientUnits="userSpaceOnUse" x1="646.6927" y1="206.7395" x2="651.7635" y2="206.7395">
					<stop  offset="0" style="stop-color:#00AAF6"/>
					<stop  offset="1" style="stop-color:#0078EF"/>
				</linearGradient>
				<path class="st30" d="M651.8,206.7c0,1.4-1.1,2.5-2.5,2.5c-1.4,0-2.5-1.1-2.5-2.5c0-1.4,1.1-2.5,2.5-2.5
					C650.6,204.2,651.8,205.3,651.8,206.7z"/>
				<linearGradient id="SVGID_4_" gradientUnits="userSpaceOnUse" x1="660.8016" y1="206.7395" x2="665.8723" y2="206.7395">
					<stop  offset="0" style="stop-color:#00AAF6"/>
					<stop  offset="1" style="stop-color:#0078EF"/>
				</linearGradient>
				<path class="st31" d="M665.9,206.7c0,1.4-1.1,2.5-2.5,2.5c-1.4,0-2.5-1.1-2.5-2.5c0-1.4,1.1-2.5,2.5-2.5
					C664.7,204.2,665.9,205.3,665.9,206.7z"/>
				<linearGradient id="SVGID_5_" gradientUnits="userSpaceOnUse" x1="674.9104" y1="206.7395" x2="679.9812" y2="206.7395">
					<stop  offset="0" style="stop-color:#00AAF6"/>
					<stop  offset="1" style="stop-color:#0078EF"/>
				</linearGradient>
				<path class="st32" d="M680,206.7c0,1.4-1.1,2.5-2.5,2.5s-2.5-1.1-2.5-2.5c0-1.4,1.1-2.5,2.5-2.5S680,205.3,680,206.7z"/>
			</g>
			<path class="st9" d="M621.2,206.9L621.2,206.9c-0.7,0-1.3-0.6-1.3-1.3v-9.7c0-0.7,0.6-1.3,1.3-1.3l0,0c0.7,0,1.3,0.6,1.3,1.3v9.7
				C622.5,206.3,621.9,206.9,621.2,206.9z"/>
			<path class="st9" d="M635,206.9L635,206.9c-0.7,0-1.3-0.6-1.3-1.3v-9.7c0-0.7,0.6-1.3,1.3-1.3l0,0c0.7,0,1.3,0.6,1.3,1.3v9.7
				C636.4,206.3,635.8,206.9,635,206.9z"/>
			<path class="st9" d="M649.2,206.9L649.2,206.9c-0.7,0-1.3-0.6-1.3-1.3v-9.7c0-0.7,0.6-1.3,1.3-1.3l0,0c0.7,0,1.3,0.6,1.3,1.3v9.7
				C650.5,206.3,650,206.9,649.2,206.9z"/>
			<path class="st9" d="M663.3,206.9L663.3,206.9c-0.7,0-1.3-0.6-1.3-1.3v-9.7c0-0.7,0.6-1.3,1.3-1.3l0,0c0.7,0,1.3,0.6,1.3,1.3v9.7
				C664.6,206.3,664,206.9,663.3,206.9z"/>
			<path class="st9" d="M677.5,206.9L677.5,206.9c-0.7,0-1.3-0.6-1.3-1.3v-9.7c0-0.7,0.6-1.3,1.3-1.3l0,0c0.7,0,1.3,0.6,1.3,1.3v9.7
				C678.8,206.3,678.2,206.9,677.5,206.9z"/>
		</g>
		<path class="st19" d="M664.4,263.6h-32.2c-2,0-3.7-1.6-3.7-3.7v-25.8c0-2,1.6-3.7,3.7-3.7h32.2c2,0,3.7,1.6,3.7,3.7V260
			C668.1,262,666.5,263.6,664.4,263.6z"/>
		<polyline class="st33" points="639.3,247.3 643,252.3 658.4,240 		"/>
	</g>
	<g>
		<circle class="st4" cx="1194.4" cy="86.1" r="75.7"/>
		<g>
			<g>
				<g>
					<path class="st9" d="M1214.5,65.1c-2.6-12.7-16.6-22.3-33.4-22.3c-18.7,0-33.8,11.9-33.8,26.7c0,6.3,2.8,12,7.4,16.6v12.8
						l11-5.7c4.4,1.8,9.3,2.8,14.5,2.9c0-0.2,0-0.4,0-0.6c0-8.2,4-15.7,10.5-21.1c-0.3,0.1-0.6,0.1-1,0.1c-2.7,0-5-2.2-5-5
						c0-2.8,2.2-5,5-5c2.8,0,5,2.2,5,5c0,0.9-0.2,1.6-0.6,2.3C1199.9,68.1,1206.9,65.7,1214.5,65.1z M1172.5,74.5c-2.7,0-5-2.2-5-5
						c0-2.8,2.2-5,5-5c2.8,0,5,2.2,5,5C1177.5,72.3,1175.3,74.5,1172.5,74.5z"/>
				</g>
				<g>
					<path class="st1" d="M1214.5,65.1c-2.6-12.7-16.6-22.3-33.4-22.3c-18.7,0-33.8,11.9-33.8,26.7c0,6.3,2.8,12,7.4,16.6v12.8
						l11-5.7c4.4,1.8,9.3,2.8,14.5,2.9c0-0.2,0-0.4,0-0.6c0-8.2,4-15.7,10.5-21.1c-0.3,0.1-0.6,0.1-1,0.1c-2.7,0-5-2.2-5-5
						c0-2.8,2.2-5,5-5c2.8,0,5,2.2,5,5c0,0.9-0.2,1.6-0.6,2.3C1199.9,68.1,1206.9,65.7,1214.5,65.1z M1172.5,74.5c-2.7,0-5-2.2-5-5
						c0-2.8,2.2-5,5-5c2.8,0,5,2.2,5,5C1177.5,72.3,1175.3,74.5,1172.5,74.5z"/>
				</g>
			</g>
			<g>
				<g>
					<path class="st34" d="M1217.9,68.9c-18.7,0-33.8,11.9-33.8,26.7c0,14.7,15.1,26.7,33.8,26.7c5.6,0,10.8-1.1,15.4-3l11,5.7
						v-12.8c4.6-4.6,7.4-10.3,7.4-16.6C1251.7,80.8,1236.6,68.9,1217.9,68.9z M1209.3,100.5c-2.8,0-5-2.2-5-5c0-2.8,2.2-5,5-5
						c2.7,0,5,2.2,5,5C1214.3,98.3,1212,100.5,1209.3,100.5z M1226.5,100.5c-2.8,0-5-2.2-5-5c0-2.8,2.2-5,5-5c2.7,0,5,2.2,5,5
						C1231.5,98.3,1229.3,100.5,1226.5,100.5z"/>
				</g>
			</g>
		</g>
	</g>
</g>
<g>
</g>
<g>
</g>
<g>
</g>
<g>
</g>
<g>
</g>
<g>
</g>
<g>
</g>
<g>
</g>
<g>
</g>
<g>
</g>
<g>
</g>
<g>
</g>
<g>
</g>
<g>
</g>
<g>
</g>
</svg>
