<svg id="Layer_1" data-name="Layer 1" xmlns="http://www.w3.org/2000/svg" xmlns:xlink="http://www.w3.org/1999/xlink" viewBox="0 0 778.6 478.6"><defs><style>.cls-1{fill:url(#linear-gradient);}.cls-2{fill:#91b3fa;}.cls-3{fill:#dce5fe;}.cls-4{fill:#bdd0fb;}.cls-5{fill:#7d97f4;}.cls-6{fill:url(#linear-gradient-2);}.cls-7{fill:url(#linear-gradient-3);}.cls-8{fill:url(#linear-gradient-4);}.cls-9{fill:url(#linear-gradient-5);}.cls-10{fill:url(#linear-gradient-6);}.cls-11{fill:url(#linear-gradient-7);}.cls-12{fill:url(#linear-gradient-8);}.cls-13{fill:url(#linear-gradient-9);}.cls-14{fill:url(#linear-gradient-10);}.cls-15{fill:url(#linear-gradient-11);}.cls-16{fill:url(#linear-gradient-12);}.cls-17{fill:url(#linear-gradient-13);}.cls-18{fill:url(#linear-gradient-14);}.cls-19{fill:url(#linear-gradient-15);}.cls-20{fill:url(#linear-gradient-16);}.cls-21{fill:url(#linear-gradient-17);}.cls-22{fill:url(#linear-gradient-18);}.cls-23{fill:url(#linear-gradient-19);}.cls-24{fill:url(#linear-gradient-20);}.cls-25{fill:url(#linear-gradient-21);}.cls-26{fill:url(#linear-gradient-22);}.cls-27{fill:url(#linear-gradient-23);}.cls-28{fill:url(#linear-gradient-24);}.cls-29{fill:url(#linear-gradient-25);}.cls-30{fill:url(#linear-gradient-26);}.cls-31{fill:url(#linear-gradient-27);}.cls-32{fill:url(#linear-gradient-28);}.cls-33{fill:url(#linear-gradient-29);}.cls-34{fill:url(#linear-gradient-30);}.cls-35{fill:url(#linear-gradient-31);}.cls-36{fill:url(#linear-gradient-32);}.cls-37{fill:url(#linear-gradient-33);}.cls-38{fill:url(#linear-gradient-34);}.cls-39{fill:url(#linear-gradient-35);}.cls-40{fill:url(#linear-gradient-36);}.cls-41{fill:url(#linear-gradient-37);}.cls-42{fill:url(#linear-gradient-38);}.cls-43{fill:url(#linear-gradient-39);}.cls-44{fill:url(#linear-gradient-40);}.cls-45{fill:url(#linear-gradient-41);}.cls-46{fill:url(#linear-gradient-42);}.cls-47{fill:url(#linear-gradient-43);}.cls-48{fill:url(#linear-gradient-44);}.cls-49{fill:url(#linear-gradient-45);}.cls-50{fill:url(#linear-gradient-46);}.cls-51{fill:url(#linear-gradient-47);}.cls-52{fill:url(#linear-gradient-48);}.cls-53{fill:url(#linear-gradient-49);}.cls-54{fill:url(#linear-gradient-50);}.cls-55{fill:url(#linear-gradient-51);}.cls-56{fill:url(#linear-gradient-52);}.cls-57{fill:url(#linear-gradient-53);}.cls-58{fill:url(#linear-gradient-54);}.cls-59{fill:url(#linear-gradient-55);}.cls-60{fill:url(#linear-gradient-56);}.cls-61{fill:url(#linear-gradient-57);}.cls-62{fill:url(#linear-gradient-58);}.cls-63{fill:url(#linear-gradient-59);}.cls-64{fill:url(#linear-gradient-60);}.cls-65{fill:url(#linear-gradient-61);}.cls-66{fill:url(#linear-gradient-62);}.cls-67{fill:url(#linear-gradient-63);}.cls-68{fill:url(#linear-gradient-64);}.cls-69{fill:url(#linear-gradient-65);}.cls-70{fill:url(#linear-gradient-66);}.cls-71{fill:url(#linear-gradient-67);}.cls-72{fill:url(#linear-gradient-68);}.cls-73{fill:url(#linear-gradient-69);}.cls-74{fill:url(#linear-gradient-70);}.cls-75{fill:url(#linear-gradient-71);}.cls-76{fill:url(#linear-gradient-72);}.cls-77{fill:url(#linear-gradient-73);}.cls-78{fill:url(#linear-gradient-74);}.cls-79{fill:url(#linear-gradient-75);}.cls-80{fill:url(#linear-gradient-76);}.cls-81{fill:url(#linear-gradient-77);}.cls-82{fill:url(#linear-gradient-78);}.cls-83{fill:url(#linear-gradient-79);}.cls-84{fill:url(#linear-gradient-80);}.cls-85{fill:url(#linear-gradient-81);}.cls-86{fill:url(#linear-gradient-82);}.cls-87{fill:url(#linear-gradient-83);}.cls-88{fill:url(#linear-gradient-84);}.cls-89{fill:url(#linear-gradient-85);}.cls-90{fill:url(#linear-gradient-86);}.cls-91{fill:url(#linear-gradient-87);}.cls-92{fill:url(#linear-gradient-88);}.cls-93{fill:url(#linear-gradient-89);}.cls-94{fill:url(#linear-gradient-90);}.cls-95{fill:url(#linear-gradient-91);}.cls-96{fill:url(#linear-gradient-92);}.cls-97{fill:url(#linear-gradient-93);}.cls-98{fill:url(#linear-gradient-94);}.cls-99{fill:url(#linear-gradient-95);}.cls-100{fill:url(#linear-gradient-96);}.cls-101{fill:url(#linear-gradient-97);}.cls-102{fill:url(#linear-gradient-98);}.cls-103{fill:url(#linear-gradient-99);}.cls-104{fill:url(#linear-gradient-100);}.cls-105{fill:url(#linear-gradient-101);}.cls-106{fill:url(#linear-gradient-102);}.cls-107{fill:url(#linear-gradient-103);}.cls-108{fill:url(#linear-gradient-104);}.cls-109{fill:url(#linear-gradient-105);}.cls-110{fill:url(#linear-gradient-106);}.cls-111{fill:url(#linear-gradient-107);}.cls-112{fill:url(#linear-gradient-108);}.cls-113{fill:url(#linear-gradient-109);}.cls-114{fill:url(#linear-gradient-110);}.cls-115{fill:url(#linear-gradient-111);}.cls-116{fill:url(#linear-gradient-112);}</style><linearGradient id="linear-gradient" x1="-1592.35" y1="387.97" x2="-887.42" y2="387.97" gradientTransform="matrix(-1.09, -0.04, -0.04, 1, -938.02, -41.98)" gradientUnits="userSpaceOnUse"><stop offset="0" stop-color="#dae3fe"/><stop offset="1" stop-color="#e9effd"/></linearGradient><linearGradient id="linear-gradient-2" x1="535.89" y1="224.35" x2="134.19" y2="757.67" gradientTransform="translate(415.99 -142.88) rotate(45)" gradientUnits="userSpaceOnUse"><stop offset="0" stop-color="#4042e2"/><stop offset="1" stop-color="#4f52ff"/></linearGradient><linearGradient id="linear-gradient-3" x1="198.22" y1="430.7" x2="562.72" y2="430.7" gradientTransform="matrix(1, 0, 0, 1, 0, 0)" xlink:href="#linear-gradient"/><linearGradient id="linear-gradient-4" x1="535.89" y1="224.35" x2="134.19" y2="757.67" xlink:href="#linear-gradient-2"/><linearGradient id="linear-gradient-5" x1="267.86" y1="430.7" x2="493.07" y2="430.7" gradientTransform="matrix(1, 0, 0, 1, 0, 0)" xlink:href="#linear-gradient"/><linearGradient id="linear-gradient-6" x1="535.89" y1="224.35" x2="134.19" y2="757.67" gradientTransform="translate(703.8 -44.39) rotate(75.69)" gradientUnits="userSpaceOnUse"><stop offset="0" stop-color="#e1473d"/><stop offset="1" stop-color="#e9605a"/></linearGradient><linearGradient id="linear-gradient-7" x1="334.48" y1="430.7" x2="426.45" y2="430.7" gradientTransform="matrix(1, 0, 0, 1, 0, 0)" xlink:href="#linear-gradient"/><linearGradient id="linear-gradient-8" x1="-1617.24" y1="2607.06" x2="-1660.18" y2="2781.52" gradientTransform="translate(2137.57 -2432.11)" gradientUnits="userSpaceOnUse"><stop offset="0" stop-color="#09005d"/><stop offset="1" stop-color="#1a0f91"/></linearGradient><linearGradient id="linear-gradient-9" x1="-1653.86" y1="2643.73" x2="-1666.98" y2="2784.49" gradientTransform="translate(-2647.26 1120.51) rotate(-135)" xlink:href="#linear-gradient-8"/><linearGradient id="linear-gradient-10" x1="544.2" y1="292.32" x2="545.26" y2="416.92" gradientTransform="matrix(1, 0, 0, 1, 0, 0)" xlink:href="#linear-gradient-6"/><linearGradient id="linear-gradient-11" x1="530.7" y1="292.44" x2="531.75" y2="417.03" gradientTransform="matrix(1, 0, 0, 1, 0, 0)" xlink:href="#linear-gradient-6"/><linearGradient id="linear-gradient-12" x1="-208.49" y1="708.28" x2="-207.13" y2="667.45" gradientTransform="matrix(-1, 0, 0, 1, -48.34, 0)" xlink:href="#linear-gradient-8"/><linearGradient id="linear-gradient-13" x1="-159.98" y1="603.79" x2="-244.1" y2="669.84" gradientTransform="matrix(-1, 0, 0, 1, -48.34, 0)" xlink:href="#linear-gradient-2"/><linearGradient id="linear-gradient-14" x1="1973.61" y1="604.8" x2="1969.04" y2="644.65" gradientTransform="translate(-1811.84)" gradientUnits="userSpaceOnUse"><stop offset="0" stop-color="#ff928e"/><stop offset="1" stop-color="#feb3b1"/></linearGradient><linearGradient id="linear-gradient-15" x1="2051.12" y1="623.39" x2="1969.78" y2="687.27" gradientTransform="translate(-1811.84)" xlink:href="#linear-gradient-2"/><linearGradient id="linear-gradient-16" x1="2027.66" y1="733.53" x2="2029.02" y2="692.7" gradientTransform="translate(-1811.84)" xlink:href="#linear-gradient-8"/><linearGradient id="linear-gradient-17" x1="2021.7" y1="609.9" x2="2017.43" y2="647.18" xlink:href="#linear-gradient-14"/><linearGradient id="linear-gradient-18" x1="183.5" y1="608.71" x2="188.63" y2="448.17" gradientTransform="matrix(1, 0, 0, 1, 0, 0)" xlink:href="#linear-gradient-8"/><linearGradient id="linear-gradient-19" x1="197.95" y1="336.26" x2="131.1" y2="532.61" gradientUnits="userSpaceOnUse"><stop offset="0" stop-color="#fe7062"/><stop offset="1" stop-color="#ff928e"/></linearGradient><linearGradient id="linear-gradient-20" x1="181.84" y1="326.57" x2="172.34" y2="378.83" gradientTransform="matrix(1, 0, 0, 1, 0, 0)" xlink:href="#linear-gradient-14"/><linearGradient id="linear-gradient-21" x1="-206.54" y1="362.62" x2="-236.63" y2="307.72" gradientTransform="matrix(0.88, -0.48, 0.48, 0.88, 655.29, 211.81)" xlink:href="#linear-gradient-14"/><linearGradient id="linear-gradient-22" x1="-490.02" y1="-135.94" x2="-453.07" y2="-135.94" gradientTransform="matrix(0.88, -0.48, 0.48, 0.88, 655.29, 211.81)" xlink:href="#linear-gradient-8"/><linearGradient id="linear-gradient-23" x1="-216.69" y1="368.19" x2="-246.78" y2="313.29" gradientTransform="matrix(0.88, -0.48, 0.48, 0.88, 655.29, 211.81)" xlink:href="#linear-gradient-14"/><linearGradient id="linear-gradient-24" x1="171.11" y1="327.13" x2="104.26" y2="523.48" xlink:href="#linear-gradient-19"/><linearGradient id="linear-gradient-25" x1="189.13" y1="404.4" x2="152.71" y2="481.47" gradientTransform="matrix(1, 0, 0, 1, 0, 0)" xlink:href="#linear-gradient-14"/><linearGradient id="linear-gradient-26" x1="248.53" y1="348.09" x2="172.34" y2="571.89" xlink:href="#linear-gradient-19"/><linearGradient id="linear-gradient-27" x1="-750.97" y1="145.27" x2="-804.29" y2="246.62" gradientTransform="translate(1163.55)" xlink:href="#linear-gradient-14"/><linearGradient id="linear-gradient-28" x1="-733.75" y1="154.33" x2="-787.06" y2="255.68" gradientTransform="translate(1163.55)" xlink:href="#linear-gradient-14"/><linearGradient id="linear-gradient-29" x1="-2544.71" y1="422.92" x2="-2531.64" y2="455.69" gradientTransform="translate(3119.97)" xlink:href="#linear-gradient-8"/><linearGradient id="linear-gradient-30" x1="-2485.96" y1="558.61" x2="-2483.96" y2="531.51" gradientTransform="translate(3119.97)" xlink:href="#linear-gradient-19"/><linearGradient id="linear-gradient-31" x1="-2543.76" y1="676.44" x2="-2527.82" y2="490.09" gradientTransform="translate(3119.97)" xlink:href="#linear-gradient-14"/><linearGradient id="linear-gradient-32" x1="-2533.77" y1="555.09" x2="-2531.77" y2="527.99" gradientTransform="translate(3119.97)" xlink:href="#linear-gradient-19"/><linearGradient id="linear-gradient-33" x1="-2511.69" y1="679.21" x2="-2495.74" y2="492.82" gradientTransform="translate(3119.97)" xlink:href="#linear-gradient-14"/><linearGradient id="linear-gradient-34" x1="-2543.37" y1="488.52" x2="-2535.39" y2="562.49" gradientTransform="translate(3119.97)" xlink:href="#linear-gradient-19"/><linearGradient id="linear-gradient-35" x1="-2499.45" y1="492.15" x2="-2539.31" y2="555.93" gradientTransform="translate(3119.97)" xlink:href="#linear-gradient-8"/><linearGradient id="linear-gradient-36" x1="576.44" y1="460.53" x2="582.54" y2="488.21" gradientTransform="matrix(1, 0, 0, 1, 0, 0)" xlink:href="#linear-gradient-14"/><linearGradient id="linear-gradient-37" x1="-2533.16" y1="503.43" x2="-2513.27" y2="503.43" gradientTransform="translate(3119.97)" xlink:href="#linear-gradient-14"/><linearGradient id="linear-gradient-38" x1="-2070.31" y1="-170.67" x2="-2090.95" y2="-153.54" gradientTransform="translate(3145.79 -409.74) rotate(-11.2)" xlink:href="#linear-gradient-14"/><linearGradient id="linear-gradient-39" x1="-2692.28" y1="318.26" x2="-2679.22" y2="351.03" gradientTransform="translate(3145.79 -409.74) rotate(-11.2)" xlink:href="#linear-gradient-8"/><linearGradient id="linear-gradient-40" x1="-2068.57" y1="-165.4" x2="-2089.21" y2="-148.27" gradientTransform="translate(3145.79 -409.74) rotate(-11.2)" xlink:href="#linear-gradient-14"/><linearGradient id="linear-gradient-41" x1="2549.32" y1="681.6" x2="2550.19" y2="655.52" gradientTransform="translate(-1882.42)" xlink:href="#linear-gradient-2"/><linearGradient id="linear-gradient-42" x1="2580.31" y1="614.86" x2="2526.58" y2="657.05" gradientTransform="translate(-1882.42)" xlink:href="#linear-gradient-8"/><linearGradient id="linear-gradient-43" x1="-784.79" y1="615.5" x2="-787.71" y2="640.96" gradientTransform="matrix(-1, 0, 0, 1, -118.93, 0)" xlink:href="#linear-gradient-14"/><linearGradient id="linear-gradient-44" x1="-735.28" y1="627.38" x2="-787.24" y2="668.17" gradientTransform="matrix(-1, 0, 0, 1, -118.93, 0)" xlink:href="#linear-gradient-8"/><linearGradient id="linear-gradient-45" x1="-750.27" y1="697.72" x2="-749.4" y2="671.65" gradientTransform="matrix(-1, 0, 0, 1, -118.93, 0)" xlink:href="#linear-gradient-2"/><linearGradient id="linear-gradient-46" x1="-754.07" y1="618.76" x2="-756.8" y2="642.57" gradientTransform="matrix(-1, 0, 0, 1, -118.93, 0)" xlink:href="#linear-gradient-14"/><linearGradient id="linear-gradient-47" x1="-2582.75" y1="618" x2="-2579.47" y2="515.46" gradientTransform="matrix(-1, 0, 0, 1, -1930.76, 0)" xlink:href="#linear-gradient-8"/><linearGradient id="linear-gradient-48" x1="-2593.49" y1="537.2" x2="-2601.23" y2="610.23" gradientTransform="matrix(-1, 0, 0, 1, -1930.76, 0)" xlink:href="#linear-gradient-19"/><linearGradient id="linear-gradient-49" x1="657.25" y1="446.36" x2="657.25" y2="475.46" gradientTransform="matrix(1, 0, 0, 1, 0, 0)" xlink:href="#linear-gradient-14"/><linearGradient id="linear-gradient-50" x1="-2778.21" y1="-1428.01" x2="-2799.09" y2="-1420.03" gradientTransform="matrix(-0.88, -0.48, -0.48, 0.88, -2586.06, 211.81)" xlink:href="#linear-gradient-14"/><linearGradient id="linear-gradient-51" x1="-2958.51" y1="-1371.03" x2="-2934.91" y2="-1371.03" gradientTransform="matrix(-0.88, -0.48, -0.48, 0.88, -2586.06, 211.81)" xlink:href="#linear-gradient-8"/><linearGradient id="linear-gradient-52" x1="-2779.7" y1="-1431.91" x2="-2800.58" y2="-1423.93" gradientTransform="matrix(-0.88, -0.48, -0.48, 0.88, -2586.06, 211.81)" xlink:href="#linear-gradient-14"/><linearGradient id="linear-gradient-53" x1="-2617.9" y1="534.61" x2="-2625.64" y2="607.64" gradientTransform="matrix(-1, 0, 0, 1, -1930.76, 0)" xlink:href="#linear-gradient-19"/><linearGradient id="linear-gradient-54" x1="-2591.37" y1="520.89" x2="-2614.64" y2="540.77" gradientTransform="matrix(-1, 0, 0, 1, -1930.76, 0)" xlink:href="#linear-gradient-14"/><linearGradient id="linear-gradient-55" x1="-2558.88" y1="540.87" x2="-2566.63" y2="613.9" gradientTransform="matrix(-1, 0, 0, 1, -1930.76, 0)" xlink:href="#linear-gradient-19"/><linearGradient id="linear-gradient-56" x1="-2577.36" y1="521.97" x2="-2564.27" y2="535.06" gradientTransform="matrix(-1, 0, 0, 1, -1930.76, 0)" xlink:href="#linear-gradient-14"/><linearGradient id="linear-gradient-57" x1="-2627.93" y1="489.9" x2="-2642.02" y2="511.03" gradientTransform="matrix(-1, 0, 0, 1, -1930.76, 0)" xlink:href="#linear-gradient-14"/><linearGradient id="linear-gradient-58" x1="-2650.86" y1="636.01" x2="-2626.68" y2="636.01" gradientTransform="matrix(-1, 0, 0, 1, -1930.76, 0)" xlink:href="#linear-gradient-2"/><linearGradient id="linear-gradient-59" x1="-2638.97" y1="626.78" x2="-2638.27" y2="586.19" gradientTransform="matrix(-1, 0, 0, 1, -1930.76, 0)" xlink:href="#linear-gradient-19"/><linearGradient id="linear-gradient-60" x1="-2648.63" y1="624.65" x2="-2641.82" y2="624.65" gradientTransform="matrix(-1, 0, 0, 1, -1930.76, 0)" xlink:href="#linear-gradient-14"/><linearGradient id="linear-gradient-61" x1="-2694.02" y1="640.08" x2="-2684.75" y2="640.08" gradientTransform="matrix(-1, 0, 0, 1, -1930.76, 0)" xlink:href="#linear-gradient-2"/><linearGradient id="linear-gradient-62" x1="-2687.04" y1="625.95" x2="-2686.34" y2="585.36" gradientTransform="matrix(-1, 0, 0, 1, -1930.76, 0)" xlink:href="#linear-gradient-19"/><linearGradient id="linear-gradient-63" x1="-2686.88" y1="621.1" x2="-2678.74" y2="621.1" gradientTransform="matrix(-1, 0, 0, 1, -1930.76, 0)" xlink:href="#linear-gradient-14"/><linearGradient id="linear-gradient-64" x1="-2621.04" y1="533.26" x2="-2690.54" y2="647.1" gradientTransform="matrix(-1, 0, 0, 1, -1930.76, 0)" xlink:href="#linear-gradient-8"/><linearGradient id="linear-gradient-65" x1="-2626.27" y1="475" x2="-2706.23" y2="569.76" gradientTransform="matrix(-1, 0, 0, 1, -1930.76, 0)" xlink:href="#linear-gradient-19"/><linearGradient id="linear-gradient-66" x1="713.44" y1="451.41" x2="713.44" y2="467.83" gradientTransform="matrix(1, 0, 0, 1, 0, 0)" xlink:href="#linear-gradient-14"/><linearGradient id="linear-gradient-67" x1="-2494.21" y1="316.22" x2="-2511.8" y2="331.7" gradientTransform="matrix(-1, 0, 0, 1, -1930.76, 0)" xlink:href="#linear-gradient-14"/><linearGradient id="linear-gradient-68" x1="-2651.4" y1="430.58" x2="-2632.66" y2="454.71" gradientTransform="matrix(-1, 0, 0, 1, -1930.76, 0)" xlink:href="#linear-gradient-8"/><linearGradient id="linear-gradient-69" x1="-2497.14" y1="312.89" x2="-2514.73" y2="328.37" gradientTransform="matrix(-1, 0, 0, 1, -1930.76, 0)" xlink:href="#linear-gradient-14"/><linearGradient id="linear-gradient-70" x1="-2644.72" y1="513.55" x2="-2654" y2="527.48" gradientTransform="matrix(-1, 0, 0, 1, -1930.76, 0)" xlink:href="#linear-gradient-14"/><linearGradient id="linear-gradient-71" x1="-2868.92" y1="522.1" x2="-2847.93" y2="522.1" gradientTransform="matrix(-1, 0, 0, 1, -2326.55, 0)" xlink:href="#linear-gradient-14"/><linearGradient id="linear-gradient-72" x1="-2840.38" y1="587.88" x2="-2839.85" y2="645.77" gradientTransform="matrix(-1, 0, 0, 1, -2326.55, 0)" xlink:href="#linear-gradient-2"/><linearGradient id="linear-gradient-73" x1="-2843.44" y1="612.15" x2="-2846.45" y2="638.38" gradientTransform="matrix(-1, 0, 0, 1, -2326.55, 0)" xlink:href="#linear-gradient-14"/><linearGradient id="linear-gradient-74" x1="-2812.96" y1="587.63" x2="-2812.44" y2="645.52" gradientTransform="matrix(-1, 0, 0, 1, -2326.55, 0)" xlink:href="#linear-gradient-2"/><linearGradient id="linear-gradient-75" x1="-2818.96" y1="614.95" x2="-2821.97" y2="641.19" gradientTransform="matrix(-1, 0, 0, 1, -2326.55, 0)" xlink:href="#linear-gradient-14"/><linearGradient id="linear-gradient-76" x1="-2783.25" y1="495" x2="-2879.38" y2="644.17" gradientTransform="matrix(-1, 0, 0, 1, -2326.55, 0)" xlink:href="#linear-gradient-8"/><linearGradient id="linear-gradient-77" x1="-3613.47" y1="465.32" x2="-3628.91" y2="616.48" gradientTransform="matrix(-1, 0, 0, 1, -3094.31, 0)" xlink:href="#linear-gradient-19"/><linearGradient id="linear-gradient-78" x1="-2836.8" y1="444.45" x2="-2848.28" y2="494.05" gradientTransform="matrix(-1, 0, 0, 1, -2326.55, 0)" xlink:href="#linear-gradient-14"/><linearGradient id="linear-gradient-79" x1="-3745.38" y1="-3054.88" x2="-3765.74" y2="-3027.95" gradientTransform="matrix(-0.69, -0.73, -0.73, 0.69, -4279.19, -198.34)" xlink:href="#linear-gradient-14"/><linearGradient id="linear-gradient-80" x1="-3760.93" y1="-3048.42" x2="-3736.61" y2="-3048.42" gradientTransform="matrix(-0.69, -0.73, -0.73, 0.69, -4279.19, -198.34)" xlink:href="#linear-gradient-8"/><linearGradient id="linear-gradient-81" x1="-3775.2" y1="-3033.55" x2="-3758.87" y2="-3050.31" gradientTransform="matrix(-0.69, -0.73, -0.73, 0.69, -4279.19, -198.34)" xlink:href="#linear-gradient-14"/><linearGradient id="linear-gradient-82" x1="-2846.47" y1="453.8" x2="-2870.23" y2="497.44" gradientTransform="matrix(-1, 0, 0, 1, -2326.55, 0)" gradientUnits="userSpaceOnUse"><stop offset="0" stop-color="#a22b25"/><stop offset="1" stop-color="#c0423c"/></linearGradient><linearGradient id="linear-gradient-83" x1="-2837.16" y1="535.05" x2="-2845.22" y2="549.4" gradientTransform="matrix(-1, 0, 0, 1, -2326.55, 0)" gradientUnits="userSpaceOnUse"><stop offset="0" stop-color="#2b3582"/><stop offset="1" stop-color="#150e42"/></linearGradient><linearGradient id="linear-gradient-84" x1="484.57" y1="570.7" x2="483.16" y2="590.4" xlink:href="#linear-gradient-19"/><linearGradient id="linear-gradient-85" x1="464.11" y1="565.13" x2="506.27" y2="565.13" gradientTransform="matrix(1, 0, 0, 1, 0, 0)" xlink:href="#linear-gradient-6"/><linearGradient id="linear-gradient-86" x1="-2424.72" y1="548.3" x2="-2424.97" y2="542.1" gradientTransform="matrix(-1, 0, 0, 1, -1930.76, 0)" xlink:href="#linear-gradient-6"/><linearGradient id="linear-gradient-87" x1="-2425.04" y1="538.99" x2="-2423.76" y2="556.76" gradientTransform="matrix(-1, 0, 0, 1, -1930.76, 0)" xlink:href="#linear-gradient-6"/><linearGradient id="linear-gradient-88" x1="-2407.45" y1="547.59" x2="-2407.7" y2="541.39" gradientTransform="matrix(-1, 0, 0, 1, -1930.76, 0)" xlink:href="#linear-gradient-6"/><linearGradient id="linear-gradient-89" x1="-2407.82" y1="537.75" x2="-2406.54" y2="555.52" gradientTransform="matrix(-1, 0, 0, 1, -1930.76, 0)" xlink:href="#linear-gradient-6"/><linearGradient id="linear-gradient-90" x1="486.32" y1="540.94" x2="493.54" y2="550.71" gradientTransform="matrix(1, 0, 0, 1, 0, 0)" xlink:href="#linear-gradient-6"/><linearGradient id="linear-gradient-91" x1="493.33" y1="524.31" x2="492.63" y2="537.42" gradientTransform="matrix(1, 0, 0, 1, 0, 0)" xlink:href="#linear-gradient-14"/><linearGradient id="linear-gradient-92" x1="487.51" y1="541.93" x2="484.17" y2="562.52" xlink:href="#linear-gradient-19"/><linearGradient id="linear-gradient-93" x1="463.97" y1="554.01" x2="506.57" y2="554.01" gradientTransform="matrix(1, 0, 0, 1, 0, 0)" xlink:href="#linear-gradient-6"/><linearGradient id="linear-gradient-94" x1="-2413.93" y1="546.24" x2="-2416.43" y2="565.99" gradientTransform="matrix(-1, 0, 0, 1, -1930.76, 0)" xlink:href="#linear-gradient-6"/><linearGradient id="linear-gradient-95" x1="-2419.27" y1="561.74" x2="-2412.03" y2="561.74" gradientTransform="matrix(-1, 0, 0, 1, -1930.76, 0)" xlink:href="#linear-gradient-19"/><linearGradient id="linear-gradient-96" x1="-2423.52" y1="470.96" x2="-2440.01" y2="632.47" gradientTransform="matrix(-1, 0, 0, 1, -1930.76, 0)" xlink:href="#linear-gradient-19"/><linearGradient id="linear-gradient-97" x1="-2412.25" y1="472.11" x2="-2428.74" y2="633.62" gradientTransform="matrix(-1, 0, 0, 1, -1930.76, 0)" xlink:href="#linear-gradient-14"/><linearGradient id="linear-gradient-98" x1="-1073.71" y1="265.29" x2="-1332.99" y2="569.19" gradientTransform="matrix(-0.74, 0.67, -0.67, -0.74, -514.18, 1596.72)" xlink:href="#linear-gradient-2"/><linearGradient id="linear-gradient-99" x1="-1179.11" y1="345.51" x2="-1308.87" y2="497.6" gradientTransform="matrix(-0.74, 0.67, -0.67, -0.74, -514.18, 1596.72)" xlink:href="#linear-gradient-2"/><linearGradient id="linear-gradient-100" x1="-1113.61" y1="373.86" x2="-1277.61" y2="566.09" gradientTransform="matrix(-0.74, 0.67, -0.67, -0.74, -514.18, 1596.72)" xlink:href="#linear-gradient-2"/><linearGradient id="linear-gradient-101" x1="321.3" y1="331.07" x2="161.33" y2="585.19" xlink:href="#linear-gradient-19"/><linearGradient id="linear-gradient-102" x1="338.06" y1="341.62" x2="178.1" y2="595.74" xlink:href="#linear-gradient-19"/><linearGradient id="linear-gradient-103" x1="343.29" y1="344.91" x2="183.33" y2="599.03" xlink:href="#linear-gradient-19"/><linearGradient id="linear-gradient-104" x1="367.8" y1="360.34" x2="207.84" y2="614.46" xlink:href="#linear-gradient-19"/><linearGradient id="linear-gradient-105" x1="372.12" y1="363.06" x2="212.16" y2="617.18" xlink:href="#linear-gradient-19"/><linearGradient id="linear-gradient-106" x1="387.75" y1="372.9" x2="227.79" y2="627.02" xlink:href="#linear-gradient-19"/><linearGradient id="linear-gradient-107" x1="403.56" y1="382.85" x2="243.6" y2="636.97" xlink:href="#linear-gradient-19"/><linearGradient id="linear-gradient-108" x1="407.55" y1="385.36" x2="247.59" y2="639.48" xlink:href="#linear-gradient-19"/><linearGradient id="linear-gradient-109" x1="422.85" y1="394.99" x2="262.89" y2="649.11" xlink:href="#linear-gradient-19"/><linearGradient id="linear-gradient-110" x1="439.09" y1="405.22" x2="279.13" y2="659.34" xlink:href="#linear-gradient-19"/><linearGradient id="linear-gradient-111" x1="462.22" y1="419.77" x2="302.26" y2="673.89" xlink:href="#linear-gradient-19"/><linearGradient id="linear-gradient-112" x1="469.49" y1="424.35" x2="309.53" y2="678.47" xlink:href="#linear-gradient-19"/></defs><path class="cls-1" d="M595.19,200.69c43.41,49.83,202.62,2.51,197.54,91.08-6,103.71-161.58,128.27-114.4,203.15s-11.2,154.51-212.1,145.19S-54.4,526.72,27.34,430.3s30-103.53,27.94-147.62,41-139,193.56-52.55S485.24,74.5,595.19,200.69Z" transform="translate(-14.25 -163.44)"/><path class="cls-2" d="M754.32,419.84c.76-2.55-3.09-5-5.19-3.38-20.29,16.19-75.36,56.84-126.31,65.06-83,13.39-165.91,66.92-155.68,127.32C467.14,608.84,671.77,697,754.32,419.84Z" transform="translate(-14.25 -163.44)"/><path class="cls-3" d="M730.54,446.12c-.51.66-1,1.14-1.49,1.7l-1.51,1.6c-1,1.06-2,2.12-3.06,3.16-2.05,2.09-4.14,4.15-6.23,6.2-4.19,4.09-8.48,8.09-12.77,12.07q-13,11.86-26.55,23a647.84,647.84,0,0,1-56.54,41.76c-9.8,6.44-19.86,12.49-30,18.28S571.67,565,561.05,570s-21.55,9.28-32.6,13.23c-5.58,1.81-11.12,3.73-16.79,5.24-5.61,1.71-11.35,2.94-17.05,4.3a.34.34,0,1,1-.16-.67h0A345.22,345.22,0,0,0,528,581.89q16.42-6.1,32.28-13.57c10.53-5.06,20.92-10.4,31.08-16.17s20.09-11.92,29.9-18.26,19.39-13.06,28.82-20l7-5.22,7-5.32c4.62-3.58,9.23-7.18,13.77-10.86q13.65-11,26.74-22.69c4.36-3.9,8.7-7.82,13-11.83q3.19-3,6.33-6.07c1-1,2.09-2,3.12-3.07l1.54-1.56c.49-.52,1-1.07,1.44-1.55l.07-.08a.35.35,0,0,1,.48,0A.34.34,0,0,1,730.54,446.12Z" transform="translate(-14.25 -163.44)"/><path class="cls-4" d="M715.29,249.64a3.33,3.33,0,0,0-6.19-1.82c-16.86,28.87-63.43,103.2-113.82,136C513.22,437.11,441.14,539.64,466.7,609.13,466.7,609.13,699.25,626.12,715.29,249.64Z" transform="translate(-14.25 -163.44)"/><path class="cls-3" d="M697.33,292.44c-.33.94-.71,1.75-1.06,2.62l-1.12,2.54-2.29,5c-1.54,3.36-3.12,6.7-4.71,10q-4.78,10-9.81,19.89c-6.69,13.18-13.72,26.18-21,39.07s-14.79,25.61-22.6,38.16l-2.92,4.71-3,4.68c-2,3.1-4,6.25-6,9.32l-6.11,9.26-6.24,9.17a720.62,720.62,0,0,1-54.47,70c-.61.69-1.21,1.39-1.83,2.08l-1.89,2-3.77,4.07-3.77,4.07c-1.27,1.34-2.58,2.65-3.87,4l-3.89,4c-1.3,1.31-2.56,2.67-3.91,3.93l-8,7.69A391.63,391.63,0,0,1,491,577.13a.34.34,0,0,1-.48-.07.35.35,0,0,1,.06-.49h0a418.53,418.53,0,0,0,33.5-28.87L532,540c1.34-1.27,2.58-2.64,3.87-4l3.83-4c1.27-1.34,2.56-2.65,3.82-4l3.72-4.1,3.72-4.09,1.86-2.05c.61-.68,1.21-1.39,1.81-2.08l7.24-8.37c2.4-2.8,4.72-5.67,7.08-8.5,1.17-1.42,2.36-2.83,3.52-4.27l3.43-4.33,3.43-4.34c1.15-1.44,2.29-2.89,3.4-4.37,9-11.66,17.59-23.68,26-35.78,16.8-24.27,32.34-49.39,47.07-75q11-19.2,21.29-38.83,5.15-9.79,10.09-19.71,2.46-5,4.85-10l2.36-5,1.15-2.51c.36-.84.76-1.7,1.07-2.49l0-.07a.35.35,0,0,1,.45-.2A.33.33,0,0,1,697.33,292.44Z" transform="translate(-14.25 -163.44)"/><ellipse class="cls-4" cx="531.02" cy="91.91" rx="35.49" ry="32.99"/><ellipse class="cls-4" cx="619.23" cy="91.91" rx="35.49" ry="32.99"/><ellipse class="cls-4" cx="707.43" cy="92.99" rx="35.49" ry="32.99"/><path class="cls-2" d="M566.36,248.38a20,20,0,0,1,1.7,8.05c0,11.7-10.2,21.19-22.79,21.19s-22.8-9.49-22.8-21.19,10.21-21.19,22.8-21.19c.38,0,.77,0,1.15,0V229.9c-.38,0-.77,0-1.15,0-15.78,0-28.58,11.89-28.58,26.56S529.49,283,545.27,283s28.57-11.89,28.57-26.56a24.94,24.94,0,0,0-2.18-10.19Z" transform="translate(-14.25 -163.44)"/><path class="cls-2" d="M645.23,274.36a24,24,0,0,1-12.14,3.26c-12.59,0-22.8-9.49-22.8-21.19s10.21-21.19,22.8-21.19c.38,0,.77,0,1.15,0V229.9l-1.15,0c-15.78,0-28.58,11.89-28.58,26.56S617.31,283,633.09,283a30.05,30.05,0,0,0,15-4Z" transform="translate(-14.25 -163.44)"/><path class="cls-2" d="M740.7,268.35a23.29,23.29,0,0,1-18.85,9.27c-12.59,0-22.8-9.49-22.8-21.19s10.21-21.19,22.8-21.19c.39,0,.77,0,1.15,0V229.9c-.38,0-.76,0-1.15,0-15.78,0-28.57,11.89-28.57,26.56S706.07,283,721.85,283a29.18,29.18,0,0,0,23.53-11.5Z" transform="translate(-14.25 -163.44)"/><path class="cls-2" d="M574.19,302.32H516.35a6.13,6.13,0,1,0,0,12.22h57.84a6.13,6.13,0,1,0,0-12.22Z" transform="translate(-14.25 -163.44)"/><path class="cls-2" d="M662.39,302.32H604.56a6.13,6.13,0,1,0,0,12.22h57.83a6.13,6.13,0,1,0,0-12.22Z" transform="translate(-14.25 -163.44)"/><path class="cls-2" d="M692.76,314.54H750.6a6.13,6.13,0,1,0,0-12.22H692.76a6.13,6.13,0,1,0,0,12.22Z" transform="translate(-14.25 -163.44)"/><path class="cls-2" d="M574.19,321.33H516.35a6.35,6.35,0,0,0-6.57,6.11v36a6.35,6.35,0,0,0,6.57,6.11h57.84a6.35,6.35,0,0,0,6.57-6.11v-36A6.35,6.35,0,0,0,574.19,321.33Z" transform="translate(-14.25 -163.44)"/><path class="cls-2" d="M662.39,321.33H604.56a6.36,6.36,0,0,0-6.58,6.11v36a6.36,6.36,0,0,0,6.58,6.11h57.83a6.36,6.36,0,0,0,6.58-6.11v-36A6.36,6.36,0,0,0,662.39,321.33Z" transform="translate(-14.25 -163.44)"/><path class="cls-2" d="M750.6,321.33H692.76a6.35,6.35,0,0,0-6.57,6.11v36a6.35,6.35,0,0,0,6.57,6.11H750.6a6.35,6.35,0,0,0,6.57-6.11v-36A6.35,6.35,0,0,0,750.6,321.33Z" transform="translate(-14.25 -163.44)"/><path class="cls-2" d="M27.11,386.64c30.05,8.09,203,62.27,181.33,233.72,0,0-123-6.36-184.56-230.48A2.64,2.64,0,0,1,27.11,386.64Z" transform="translate(-14.25 -163.44)"/><path class="cls-3" d="M46.6,411.05c7.84,6.12,15.55,12.4,23.21,18.75S85,442.59,92.54,449.11q22.51,19.58,44,40.28c14.29,13.85,28.18,28.12,41.28,43.13q9.85,11.24,18.88,23.18a253.47,253.47,0,0,1,16.71,24.87A1.4,1.4,0,1,1,211,582h0a249,249,0,0,0-16.36-24.7q-8.87-11.93-18.61-23.17c-12.94-15-26.7-29.36-40.86-43.28s-28.78-27.37-43.68-40.5q-11.17-9.85-22.57-19.45c-7.6-6.39-15.27-12.72-23.05-18.88h0a.59.59,0,1,1,.73-.93Z" transform="translate(-14.25 -163.44)"/><path class="cls-4" d="M127.22,166.21c37,33.15,244.36,234.87,90,463.47,0,0-170.7-97.66-96.94-461.19A4.2,4.2,0,0,1,127.22,166.21Z" transform="translate(-14.25 -163.44)"/><path class="cls-3" d="M137.1,215.17c6.51,15.53,12.48,31.26,18.22,47.07S166.45,294,171.57,310s10,32.14,14.44,48.36,8.63,32.53,12.46,48.92,7.14,32.89,10.15,49.46S214,490,216,506.72c1.85,16.73,3.22,33.53,3.9,50.37s.4,33.72-.62,50.56a1.4,1.4,0,1,1-2.79-.17h0c1.08-16.73,1.28-33.51.82-50.28s-1.91-33.5-3.69-50.2q-2.9-25-7.17-49.84t-9.93-49.4q-5.64-24.56-12.25-48.88c-4.4-16.22-9.19-32.33-14.23-48.36s-10.39-32-16-47.79-11.58-31.56-18-47.07h0a.58.58,0,0,1,.32-.77A.58.58,0,0,1,137.1,215.17Z" transform="translate(-14.25 -163.44)"/><circle class="cls-5" cx="380.47" cy="430.7" r="209.04" transform="translate(-207.36 231.74) rotate(-45)"/><circle class="cls-6" cx="380.47" cy="430.7" r="178.4" transform="translate(-207.36 231.74) rotate(-45)"/><path class="cls-7" d="M380.47,613a182.25,182.25,0,1,1,128.87-53.38A181.06,181.06,0,0,1,380.47,613Zm0-356.81A174.57,174.57,0,1,0,503.9,307.27,173.43,173.43,0,0,0,380.47,256.14Z" transform="translate(-14.25 -163.44)"/><circle class="cls-8" cx="380.47" cy="430.7" r="108.76" transform="translate(-207.36 231.74) rotate(-45)"/><path class="cls-9" d="M380.47,543.31A112.61,112.61,0,1,1,493.07,430.7,112.74,112.74,0,0,1,380.47,543.31Zm0-217.53A104.92,104.92,0,1,0,485.38,430.7,105,105,0,0,0,380.47,325.78Z" transform="translate(-14.25 -163.44)"/><circle class="cls-10" cx="380.47" cy="430.7" r="42.14" transform="translate(-145.13 529.51) rotate(-75.69)"/><path class="cls-11" d="M380.47,476.68a46,46,0,1,1,46-46A46,46,0,0,1,380.47,476.68Zm0-84.28a38.3,38.3,0,1,0,38.29,38.3A38.34,38.34,0,0,0,380.47,392.4Z" transform="translate(-14.25 -163.44)"/><rect class="cls-12" x="478.26" y="233.56" width="5.37" height="203.26" transform="translate(569.75 748.85) rotate(-135)"/><path class="cls-13" d="M409.87,396c2.18-2.17,12.44,8.09,10.27,10.27L382.06,436.2a1.51,1.51,0,0,1-2.12-2.12Z" transform="translate(-14.25 -163.44)"/><path class="cls-14" d="M554.63,265.31,574,267.23l-26.54,26.55a41.05,41.05,0,0,1-33.08,11.81h0Z" transform="translate(-14.25 -163.44)"/><path class="cls-15" d="M550.83,261.51l-1.92-19.33-26.55,26.54a41.05,41.05,0,0,0-11.81,33.08h0Z" transform="translate(-14.25 -163.44)"/><path class="cls-16" d="M146.41,639.3a2.35,2.35,0,0,1,.05-.52c2.61-10.32,13.25-15.62,13.25-15.62l5.12.41c2.95,9.1,4.85,13.54,4.38,16l-.06.21A122.12,122.12,0,0,1,146.41,639.3Z" transform="translate(-14.25 -163.44)"/><path class="cls-17" d="M169.15,639.8a2.23,2.23,0,0,1-1.62,1.64c-6,1.26-15.57.24-19.58-.28a1.86,1.86,0,0,1-1.54-1.86A122.12,122.12,0,0,0,169.15,639.8Z" transform="translate(-14.25 -163.44)"/><path class="cls-18" d="M155.5,615.19l2.24,10.8a1.76,1.76,0,0,0,1.51,1.45,14.58,14.58,0,0,0,3.47-.05,2.23,2.23,0,0,0,1.76-2.61l-1.56-9.59Z" transform="translate(-14.25 -163.44)"/><path class="cls-19" d="M212.67,639.71c-5.47-.16-8.3-.8-9.76-1.4,0,.55,0,1.1,0,1.67a1.07,1.07,0,0,0,1,1.1l30-.19a1.37,1.37,0,0,0,1.1-2C231.16,639.22,221.13,639.94,212.67,639.71Z" transform="translate(-14.25 -163.44)"/><path class="cls-20" d="M235.09,638.89a1.2,1.2,0,0,0-.11-.23c-2.66-3.7-9.41-11.08-22.76-14.28l-6.41-.21s-2.85,5-2.9,14.14c1.46.6,4.29,1.24,9.76,1.4C221.13,639.94,231.16,639.22,235.09,638.89Z" transform="translate(-14.25 -163.44)"/><path class="cls-21" d="M204.63,614.47c.07.48,1,7.73,1.29,10.54a1.39,1.39,0,0,0,1.17,1.26,14.87,14.87,0,0,0,4.4-.06,1.92,1.92,0,0,0,1.44-1.91V612.92Z" transform="translate(-14.25 -163.44)"/><path class="cls-22" d="M159.77,473.44s-10.24,91.09-4.55,148c0,0,6.83,0,10.25-1.14,0,0,10.65-89.06,14.09-114.55a.86.86,0,0,1,1.69,0c4.25,21.44,20.95,105.52,22.93,113.46,0,0,5.69,2.28,10.25,0,0,0-9.11-121.83-15.94-143.47Z" transform="translate(-14.25 -163.44)"/><path class="cls-23" d="M139.28,367.54s43.27-6.83,77.43,2.28l-2.28,35.3s-9.11,49-15.94,70.59c0,0-26.19,4.56-38.72-2.27,0,0-10.24-61.49-15.94-70.6C143.83,402.84,138.14,378.93,139.28,367.54Z" transform="translate(-14.25 -163.44)"/><path class="cls-24" d="M169.34,336.43,165,365.58s12,5.53,20.47-.24l-1.81-20.57Z" transform="translate(-14.25 -163.44)"/><path class="cls-25" d="M187.9,317.45c.13.25,2.73,14.95,4.33,24.05a6.38,6.38,0,0,1-5.91,7.47l-3.49.21a12.44,12.44,0,0,1-13-10.53l-2.52-16.49S184.6,311.47,187.9,317.45Z" transform="translate(-14.25 -163.44)"/><path class="cls-26" d="M163.51,322.21c-1.33-1.67-2.5-4.36.35-7.19s6.15-2.15,8.23-1.19a2.28,2.28,0,0,0,2.7-.53,1.48,1.48,0,0,1,1.37-.51,2.14,2.14,0,0,0,2.42-1.86,5.68,5.68,0,0,1,5-5.21c6.71-1.3,10,5.41,9.93,10.13s-7.46,5.7-11.63,4.92c-3.07-.57-5.71,2.12-6.9,3.58a2.22,2.22,0,0,0-.44,1.9l1.06,4.56a20.36,20.36,0,0,1-2.49,4.07,4.45,4.45,0,0,1-2.41,1.55c-1.25-2.32-4.75-2.72-6.37-2.77a2.19,2.19,0,0,1-1.61-.76c-1.23-1.41-3.15-4.54.52-7.62A2.2,2.2,0,0,0,163.51,322.21Z" transform="translate(-14.25 -163.44)"/><path class="cls-27" d="M171.9,341.31s-.14-8.23-3.47-9-6.92,1.64-4.07,6.56C167.9,345,171.9,341.31,171.9,341.31Z" transform="translate(-14.25 -163.44)"/><path class="cls-28" d="M139.28,367.54s-67.18,72.88,12,100.77v-5.69s-29.61-25.05-6.84-59.21C144.4,403.41,141.56,371,139.28,367.54Z" transform="translate(-14.25 -163.44)"/><path class="cls-29" d="M151.8,463.19s10.25-6.83,14.81-4.56,4.55,5.7,4.55,5.7-2.28,4.55-5.69,3.41-11.39,1.14-14.8,0C150.67,467.74,149.53,463.19,151.8,463.19Z" transform="translate(-14.25 -163.44)"/><path class="cls-30" d="M269.09,393.28c-21.69,3.26-33.87-11.55-44.41-19.85-13.9-11-26.68-4.51-26.68-4.51l13.69,31.95c22.15,20.88,46,12.61,60.32,5.84A27.61,27.61,0,0,0,269.09,393.28Z" transform="translate(-14.25 -163.44)"/><path class="cls-31" d="M299.58,380.34l-7.2,3.87c-8.62,5.26-16.34,8-23.29,9.07A27.61,27.61,0,0,1,272,406.71a66.63,66.63,0,0,0,14.83-9.48C303.13,387.51,299.58,380.34,299.58,380.34Z" transform="translate(-14.25 -163.44)"/><path class="cls-32" d="M320.76,390.48a5.28,5.28,0,0,0-3.1-3.39l-14.59-5.87s-.22-1.88,3.08-3.15,2.53-5,2.53-5-4.51,2.06-11.12,5.32a15.53,15.53,0,0,0-7,7.65l3.76,4.94a66.7,66.7,0,0,0,27.28,2.15Z" transform="translate(-14.25 -163.44)"/><path class="cls-33" d="M583,440.55s4.4,2.14,5.21,4.6c.65,2,5.52,2.23,6,6.11a4.45,4.45,0,0,0,3.73,3.92c5,.76,12.64,3.35,13.86,12,.94,6.6-2.42,9.09-6,10a5,5,0,0,0-3.79,5.77c.51,2.51-.24,5.41-4.59,7.7-9.74,5.14-19.46-12.17-19.46-12.17l-2-30.23Z" transform="translate(-14.25 -163.44)"/><path class="cls-34" d="M623,630.09l.63,5.18a2.14,2.14,0,0,0,1.88,1.87,32.76,32.76,0,0,0,6.93.11,1.84,1.84,0,0,0,1.54-2.38c-.64-2-1.8-5-3.48-6.77H624.8A1.77,1.77,0,0,0,623,630.09Z" transform="translate(-14.25 -163.44)"/><path class="cls-35" d="M578,569.4l-1,5.71s3.24,32.9,3.82,46.06a10.34,10.34,0,0,1-1.52,5.86l-5.65,9.17,14.35-8.47.29-1.75L586,622.75l3.08-36.86a11.3,11.3,0,0,0-1.29-6.25l-3-5.58Z" transform="translate(-14.25 -163.44)"/><path class="cls-36" d="M572.76,637.53h4.58a2.75,2.75,0,0,0,2.19-1.07c1.43-1.86,4.39-5.48,5.8-5.57,1.91-.13,1.67,6.64,1.67,6.64h1.06l1.36-8.41a5,5,0,0,0-2.62-5.21h0s-.43,3.22-2.79,4.65-9.61,6.52-9.61,6.52a6.38,6.38,0,0,0-1.86,0A1.21,1.21,0,0,0,572.76,637.53Z" transform="translate(-14.25 -163.44)"/><path class="cls-37" d="M597.69,572.11s19,36.1,22,44.34a78.92,78.92,0,0,1,4.13,15.77c.06,1,1.33,2,4.81,2a3.35,3.35,0,0,0,3.12-1.42,2,2,0,0,0,.07-2c-1.1-2.23-4.59-9.35-5.88-12.57-1.55-3.86-4.87-21.33-6.69-27.41s-3.88-12.66-11.82-18.73C607.48,572.11,602,566.78,597.69,572.11Z" transform="translate(-14.25 -163.44)"/><path class="cls-38" d="M585.67,513c-4.91-20.8,7.52-32.56,7.52-32.56-7.84-7.53-22.14-11-22.14-11s-13.64,10-12,17.78c1,4.58,9.59,27.41,9.59,27.41A19,19,0,0,0,585.67,513Z" transform="translate(-14.25 -163.44)"/><path class="cls-39" d="M596.55,523.26c-2-6-10.88-10.3-10.88-10.3a19,19,0,0,1-17,1.67,34,34,0,0,0-.56,13.21c1.24,6.36,9,47.27,9,47.27,12.22,2.47,31-2.49,31-2.49C600.3,558.79,598.55,529.28,596.55,523.26Z" transform="translate(-14.25 -163.44)"/><path class="cls-40" d="M580,455.7l4,17.92c.38,1.58-1.06,1.32-2.65,1-2.62-.49-6-1.51-7.11-3.54a1.8,1.8,0,0,1-.21-.68L572.28,458a2.22,2.22,0,0,1,1.3-2.34l3.31-1.47A2.23,2.23,0,0,1,580,455.7Z" transform="translate(-14.25 -163.44)"/><path class="cls-41" d="M593.19,480.4s27.86,19.93,3.57,40.87a6.27,6.27,0,0,1-2.75,1.59c-.92.28-3.64,2.34-5,3.41a1,1,0,0,1-1.39-.25h0a1.3,1.3,0,0,1-.07-1.24l3.45-7.29a2.66,2.66,0,0,1,3.45-.15h0a1.31,1.31,0,0,0,2-.45c1.88-3.82,5.43-15.07-9.09-27.78a1.57,1.57,0,0,1-.34-1.91C588,485.24,590.34,481.35,593.19,480.4Z" transform="translate(-14.25 -163.44)"/><path class="cls-42" d="M572.32,439.35s-4.24,2.88-6.07,10.2,1.14,10,4.18,9.8,7.45-1.11,11.27-6.36S577.89,435.84,572.32,439.35Z" transform="translate(-14.25 -163.44)"/><path class="cls-43" d="M577.85,450s1.56-10.49-7.16-8.88L568.93,443s-4.26-4.8.46-8.43,11.27-2.71,14.89,3.9,4.94,11.26,1.9,15.37-5.32.58-5.32.58,1.39-3.55.24-5.08-2.65.89-2.65.89Z" transform="translate(-14.25 -163.44)"/><path class="cls-44" d="M577.52,452.3s.77-5.4,3.52-3.85-1,5-2.49,6.23Z" transform="translate(-14.25 -163.44)"/><path class="cls-45" d="M675.68,637.54a1.24,1.24,0,0,0,0-.33c-1.66-6.6-8.46-10-8.46-10l-3.27.26c-1.88,5.81-3.1,8.65-2.79,10.24l0,.13A78.23,78.23,0,0,0,675.68,637.54Z" transform="translate(-14.25 -163.44)"/><path class="cls-46" d="M661.15,637.86a1.41,1.41,0,0,0,1,1c3.84.81,9.94.16,12.5-.17a1.2,1.2,0,0,0,1-1.19A78.23,78.23,0,0,1,661.15,637.86Z" transform="translate(-14.25 -163.44)"/><path class="cls-47" d="M669.87,622.14l-1.43,6.9a1.11,1.11,0,0,1-1,.92,9.27,9.27,0,0,1-2.22,0,1.42,1.42,0,0,1-1.12-1.67l1-6.12Z" transform="translate(-14.25 -163.44)"/><path class="cls-48" d="M633.35,637.8a19,19,0,0,0,6.24-.89c0,.34,0,.7,0,1.06a.69.69,0,0,1-.66.71l-19.18-.13a.87.87,0,0,1-.71-1.27C621.55,637.48,628,638,633.35,637.8Z" transform="translate(-14.25 -163.44)"/><path class="cls-49" d="M619,637.28l.08-.15c1.69-2.37,6-7.08,14.53-9.12l4.09-.13s1.83,3.16,1.86,9a19,19,0,0,1-6.24.89C628,638,621.55,637.48,619,637.28Z" transform="translate(-14.25 -163.44)"/><path class="cls-50" d="M638.49,621.68c0,.3-.6,4.94-.82,6.73a.89.89,0,0,1-.75.81,9.24,9.24,0,0,1-2.81-.05,1.21,1.21,0,0,1-.92-1.21v-7.27Z" transform="translate(-14.25 -163.44)"/><path class="cls-51" d="M667.14,531.6s6.55,58.18,2.91,94.54a28.11,28.11,0,0,1-6.55-.73s-6.8-56.88-9-73.16a.55.55,0,0,0-1.08,0c-2.71,13.69-13.37,67.39-14.64,72.47,0,0-3.64,1.45-6.55,0,0,0,5.82-77.82,10.18-91.64Z" transform="translate(-14.25 -163.44)"/><path class="cls-52" d="M680.23,464s-27.63-4.36-49.45,1.46L632.23,488s5.82,31.27,10.18,45.09c0,0,16.73,2.91,24.73-1.45,0,0,6.55-39.27,10.18-45.09C677.32,486.51,681,471.23,680.23,464Z" transform="translate(-14.25 -163.44)"/><path class="cls-53" d="M661,444.09l2.76,18.62s-7.7,3.53-13.08-.15l1.16-13.14Z" transform="translate(-14.25 -163.44)"/><path class="cls-54" d="M649.18,432c-.09.15-1.75,9.54-2.77,15.35a4.08,4.08,0,0,0,3.78,4.78l2.23.13a7.94,7.94,0,0,0,8.32-6.73L662.35,435S651.28,428.15,649.18,432Z" transform="translate(-14.25 -163.44)"/><path class="cls-55" d="M664.75,435a3.11,3.11,0,0,0-.22-4.58,4.4,4.4,0,0,0-5.26-.76,1.45,1.45,0,0,1-1.72-.35.93.93,0,0,0-.87-.32,1.37,1.37,0,0,1-1.55-1.19,3.62,3.62,0,0,0-3.2-3.33c-4.28-.83-6.41,3.46-6.34,6.47s4.77,3.65,7.43,3.15c2-.37,3.65,1.35,4.41,2.29a1.39,1.39,0,0,1,.28,1.21L657,440.5a13.51,13.51,0,0,0,1.59,2.6,2.87,2.87,0,0,0,1.55,1c.79-1.49,3-1.74,4.06-1.77a1.41,1.41,0,0,0,1-.49c.78-.9,2-2.9-.34-4.87A1.42,1.42,0,0,1,664.75,435Z" transform="translate(-14.25 -163.44)"/><path class="cls-56" d="M659.39,447.2s.1-5.25,2.22-5.74,4.42,1,2.6,4.19C662,449.56,659.39,447.2,659.39,447.2Z" transform="translate(-14.25 -163.44)"/><path class="cls-57" d="M680.23,464s42.91,46.55-7.64,64.36v-3.63s18.91-16,4.37-37.82C677,486.87,678.78,466.14,680.23,464Z" transform="translate(-14.25 -163.44)"/><path class="cls-58" d="M672.23,525.05s-6.54-4.36-9.45-2.91-2.91,3.64-2.91,3.64,1.45,2.91,3.63,2.18,7.28.73,9.46,0C673,528,673.69,525.05,672.23,525.05Z" transform="translate(-14.25 -163.44)"/><path class="cls-59" d="M630.78,465.42s-44.73,45.09,5.82,62.9v-3.63s-18.91-16-4.37-37.82C632.23,486.87,633.69,469.05,630.78,465.42Z" transform="translate(-14.25 -163.44)"/><path class="cls-60" d="M637,525.05s6.54-4.36,9.45-2.91,2.91,3.64,2.91,3.64-1.45,2.91-3.63,2.18-7.28.73-9.46,0C636.23,528,635.5,525.05,637,525.05Z" transform="translate(-14.25 -163.44)"/><path class="cls-61" d="M716.83,523.87l-15.56.2,5.45-5.13a4.06,4.06,0,0,1,5-.47,11.79,11.79,0,0,1,2.77,2.47s9.7-3.55,14.41-11.49a48,48,0,0,1,4.66,8.83A48.46,48.46,0,0,1,716.83,523.87Z" transform="translate(-14.25 -163.44)"/><path class="cls-62" d="M696.6,634.84c4.14.35,11.33.94,17,1.19,3.41.15,5.37-.19,6.5-.64,0,.13,0,.25,0,.36a1.19,1.19,0,0,1-1.12,1.11,202.15,202.15,0,0,1-22.26,0,.84.84,0,0,1-.68-1.26A6.73,6.73,0,0,1,696.6,634.84Z" transform="translate(-14.25 -163.44)"/><path class="cls-63" d="M713.6,636c-5.67-.25-12.86-.84-17-1.19,4.07-5,17-8.37,17-8.37h3.65a15.39,15.39,0,0,1,2.85,8.92C719,635.84,717,636.18,713.6,636Z" transform="translate(-14.25 -163.44)"/><path class="cls-64" d="M717.86,620.51l-.34,6.76a1.53,1.53,0,0,1-1.32,1.45,6,6,0,0,1-2.74-.22,1.84,1.84,0,0,1-1.23-1.41l-1.18-6.58Z" transform="translate(-14.25 -163.44)"/><path class="cls-65" d="M760.24,640.65a3.42,3.42,0,0,0,3-2.54v0a2.8,2.8,0,0,1-1.57,3.1,9,9,0,0,1-4.35.79,4.1,4.1,0,0,1-3.27-1.75v0C755.34,641,757.24,641.13,760.24,640.65Z" transform="translate(-14.25 -163.44)"/><path class="cls-66" d="M751.77,622.59h3c4.59-.1,7.47,11.16,8.41,15.52a3.42,3.42,0,0,1-3,2.54c-3,.48-4.9.39-6.25-.39-2.48-3.79-3.71-9.35-4.3-12.6A4.56,4.56,0,0,1,751.77,622.59Z" transform="translate(-14.25 -163.44)"/><path class="cls-67" d="M754.39,616.32l1.67,6.65a1.78,1.78,0,0,1-.94,2,6.35,6.35,0,0,1-3.46.84,1.52,1.52,0,0,1-1.23-1l-2.45-7Z" transform="translate(-14.25 -163.44)"/><path class="cls-68" d="M695.58,528.74s14.94,93.39,14.69,93.91a12.45,12.45,0,0,0,8.63.23s-1.35-49.92-4.52-69.06c0,0,25.5,44.62,33.6,66.85a20.23,20.23,0,0,0,7.72-2.8s-27.46-80.32-34.78-91Z" transform="translate(-14.25 -163.44)"/><path class="cls-69" d="M694.05,468.39c2.51-5.27,24.21-5.83,40.11-.58a12.38,12.38,0,0,1,7.45,6.79c4.3,9.86,11.26,32.34-8.07,43.68a48,48,0,0,0-4.66-8.83c3.11-5.25,4-12.42-1.49-21.75-4,10.87-5.92,26.74-6.31,33.76a15,15,0,0,0,1.18,6.75l.1.24a.8.8,0,0,1-.56,1.09c-10.88,2.44-22.19,1.78-25.58,1.5A1.39,1.39,0,0,1,695,530C689.69,507.68,690.27,476.33,694.05,468.39Z" transform="translate(-14.25 -163.44)"/><path class="cls-70" d="M717.8,450.54s1.1,11.64,2.07,15.08a1.19,1.19,0,0,1-.55,1.35c-1.65.94-5.59,2.47-11-.18a2.45,2.45,0,0,1-1.36-2.3l.48-11.24Z" transform="translate(-14.25 -163.44)"/><path class="cls-71" d="M707.21,435.66s-3.52,8.08-3.76,12.33-1.15,7,3.76,7.85,9-1.59,11.28-5.82c0,0,3.51-6.51,2.72-9.18S707.21,435.66,707.21,435.66Z" transform="translate(-14.25 -163.44)"/><path class="cls-72" d="M716.81,447l-.27-.12a.67.67,0,0,1-.33-.93c.69-1.33,2-4.4.29-5.11-2.24-.92-11.14-2.74-13.06-5.9a5.87,5.87,0,0,1,2.25-8.06.35.35,0,0,1,.44.14l.21.39a.33.33,0,0,0,.61-.06h0a.33.33,0,0,1,.6-.09c.59.95,2.18,2.48,6.44,3.26,6.06,1.12,10.06,3.57,10.16,7.76a.34.34,0,0,0,.52.27c.44-.27,1.16-.4,2.12.4,1.66,1.4,1,5-2.67,8a.34.34,0,0,0,0,.54c.66.43,1.64,1.45-.91,2.81a8.49,8.49,0,0,1-5.37,1.17.33.33,0,0,1-.27-.4l.81-3.67a.33.33,0,0,0-.32-.41Z" transform="translate(-14.25 -163.44)"/><path class="cls-73" d="M716.66,447.76s1.35-5.17,3.66-3.72-1.2,5.79-3.06,6Z" transform="translate(-14.25 -163.44)"/><path class="cls-74" d="M723.35,517.61a5.19,5.19,0,0,0-4.41-2.21c-3.09,0-6.62,5.74-6.62,5.74s4.85,2.2,6.62,4S723.35,521.14,723.35,517.61Z" transform="translate(-14.25 -163.44)"/><path class="cls-75" d="M534.82,511.28a32.46,32.46,0,0,0,7.55,5.53,62.62,62.62,0,0,1-13.8,12.27l-1.71,3.83-5.47-6.55S531.21,521.47,534.82,511.28Z" transform="translate(-14.25 -163.44)"/><path class="cls-76" d="M505.54,635.67a1.46,1.46,0,0,1,0-.36c1.78-7,10.57-11.4,10.57-11.4l3.49.27c2,6.19,1.75,10,1.42,11.68l0,.14A82.4,82.4,0,0,1,505.54,635.67Z" transform="translate(-14.25 -163.44)"/><path class="cls-5" d="M521,636a1.51,1.51,0,0,1-1.11,1.12c-4.09.86-10.59.17-13.32-.19a1.27,1.27,0,0,1-1-1.26A82.4,82.4,0,0,0,521,636Z" transform="translate(-14.25 -163.44)"/><path class="cls-77" d="M521,619l-1.48,7.11a1.13,1.13,0,0,1-1,.95,9.39,9.39,0,0,1-2.29,0,1.45,1.45,0,0,1-1.15-1.71l1-6.31Z" transform="translate(-14.25 -163.44)"/><path class="cls-5" d="M490.44,635.93c3.85-.11,5.84-.56,6.87-1,0,.38,0,.77,0,1.17a.76.76,0,0,1-.72.78l-21.14-.14a1,1,0,0,1-.78-1.4C477.43,635.58,484.49,636.1,490.44,635.93Z" transform="translate(-14.25 -163.44)"/><path class="cls-78" d="M474.66,635.36a.83.83,0,0,1,.09-.16c1.86-2.61,6.62-7.81,16-10.06l4.51-.14s2,3.49,2,10c-1,.42-3,.87-6.87,1C484.49,636.1,477.43,635.58,474.66,635.36Z" transform="translate(-14.25 -163.44)"/><path class="cls-79" d="M496.1,618.17c-.05.33-.66,5.44-.9,7.42a1,1,0,0,1-.83.89,10.51,10.51,0,0,1-3.1-.05,1.35,1.35,0,0,1-1-1.34v-8Z" transform="translate(-14.25 -163.44)"/><path class="cls-80" d="M499.72,525s-10.87,41.31-10.67,93.3a2,2,0,0,0,1.59,2,23.17,23.17,0,0,0,5,.58,1.86,1.86,0,0,0,1.78-1.56c1.53-8.94,10.27-59.29,15.26-67.47,0,0,3.27,44.85,2.23,68.12a1.1,1.1,0,0,0,1,1.15,19.09,19.09,0,0,0,4,0,1.5,1.5,0,0,0,1.32-1.26c1.09-7.56,7.33-52.59,7.07-85,0-1.83-4.84-9.78-4.84-9.78Z" transform="translate(-14.25 -163.44)"/><path class="cls-81" d="M492.16,479.43a15.68,15.68,0,0,1,13.76-18.77c10.3-1.09,20.59,1.2,25.68,1.84a10.51,10.51,0,0,1,6.65,3.57c6.75,7.81,21.56,29.19,4.12,50.74a32.46,32.46,0,0,1-7.55-5.53c1.93-5.43,2.09-12.38-2-20.9a18.92,18.92,0,0,1-.52,2,124.06,124.06,0,0,0-5.86,35.72,1.07,1.07,0,0,1-.67,1c-7.32,3-21.46,1.2-26.21.5a1.59,1.59,0,0,1-1.33-1.81C499.86,516.38,495.17,493.89,492.16,479.43Z" transform="translate(-14.25 -163.44)"/><path class="cls-82" d="M518.93,448.32l1.41,14.43s-8.12,2.45-14-1.72l4.15-13.12Z" transform="translate(-14.25 -163.44)"/><path class="cls-83" d="M509.51,431.86c-.2.19-8.25,16-8.25,16l9.13,4.41,9.86-13.86S512.78,428.78,509.51,431.86Z" transform="translate(-14.25 -163.44)"/><path class="cls-84" d="M516.21,438.8a1.46,1.46,0,0,1-.11,1.27l-4.55,7.59a1.54,1.54,0,0,1-.25.31c-.55.51-2.4,2-3.83,0-1.23-1.7-2.37-3.25-3.6-3.89a1.45,1.45,0,0,0-2,.65,53.22,53.22,0,0,0-3.12,7.39,1.44,1.44,0,0,0,.84,1.77,39.87,39.87,0,0,0,8.75,2.55,1.43,1.43,0,0,0,1.37-.58c1.4-1.91,5.33-7.25,6.67-8.59s3.55-.77,4.58-.47a1.46,1.46,0,0,0,1.17-.16c1.05-.63,2.88-2.21,1.2-4.88a1.47,1.47,0,0,1,.45-2,3.22,3.22,0,0,0,1.24-4.57,4.53,4.53,0,0,0-4.92-2.4,1.52,1.52,0,0,1-1.59-.89,1,1,0,0,0-.75-.59,1.41,1.41,0,0,1-1.14-1.66,3.74,3.74,0,0,0-2.08-4.27c-3.94-2.16-7.39,1.36-8.27,4.34s3.53,5.09,6.3,5.44C514.64,435.41,515.76,437.64,516.21,438.8Z" transform="translate(-14.25 -163.44)"/><path class="cls-85" d="M514.71,450s1.75-5.12,4-4.94,4,2.42,1.23,4.94C516.47,453.16,514.71,450,514.71,450Z" transform="translate(-14.25 -163.44)"/><path class="cls-86" d="M533.61,489.06c2.95-8.08,1.88-17.85,1.87-17.95l-.82.1c0,.09,1.06,9.67-1.82,17.57Z" transform="translate(-14.25 -163.44)"/><path class="cls-87" d="M513.12,550.75a.4.4,0,0,0,.39-.31c.9-3.47,7.65-7.29,7.72-7.33a.41.41,0,0,0-.4-.72c-.29.17-7.12,4-8.11,7.85a.41.41,0,0,0,.29.5Z" transform="translate(-14.25 -163.44)"/><path class="cls-88" d="M507.28,555.94l-.46,14.54a4.74,4.74,0,0,1-4.71,4.56l-34.81.21a3.42,3.42,0,0,1-3.4-2.91,63.57,63.57,0,0,1-.46-16.4Z" transform="translate(-14.25 -163.44)"/><path class="cls-89" d="M468.18,574.32a.06.06,0,0,1,.06-.06h.31a0,0,0,0,1,.05,0,.06.06,0,0,1-.05.06h-.31A.06.06,0,0,1,468.18,574.32Zm1.05,0a.06.06,0,0,1,.06,0h.31a.06.06,0,0,1,0,.06,0,0,0,0,1,0,.05h-.31A.06.06,0,0,1,469.23,574.31Zm1,0a0,0,0,0,1,.05,0h.32a0,0,0,0,1,0,.1h-.32A.05.05,0,0,1,470.28,574.3Zm1.05,0a.06.06,0,0,1,.05-.06h.32a.05.05,0,0,1,.05,0,.06.06,0,0,1-.05.06h-.32A0,0,0,0,1,471.33,574.3Zm1.05,0a0,0,0,0,1,.05,0h.32a.05.05,0,0,1,.05,0,0,0,0,0,1-.05.05h-.32A0,0,0,0,1,472.38,574.29Zm1.05,0a.05.05,0,0,1,.05,0h.31a.05.05,0,1,1,0,.1h-.31A.06.06,0,0,1,473.43,574.28Zm1.05,0a0,0,0,0,1,0,0h.31a.06.06,0,1,1,0,.11h-.31A0,0,0,0,1,474.48,574.28Zm1,0a.06.06,0,0,1,.06,0h.31a0,0,0,0,1,0,.1h-.31A.06.06,0,0,1,475.52,574.27Zm1.05,0a.06.06,0,0,1,.06-.06h.31a0,0,0,0,1,.05,0,.06.06,0,0,1-.05.06h-.31A.06.06,0,0,1,476.57,574.27Zm1.05,0a0,0,0,0,1,.05,0H478a.06.06,0,0,1,.05.06,0,0,0,0,1-.05,0h-.32A.05.05,0,0,1,477.62,574.26Zm1.05,0a0,0,0,0,1,.05,0H479a0,0,0,0,1,0,.1h-.32A.06.06,0,0,1,478.67,574.25Zm-11.17,0-.31-.07a.06.06,0,0,1,0-.07.05.05,0,0,1,.07,0l.3.07a.05.05,0,0,1,0,.06.05.05,0,0,1-.05,0Zm12.22,0a.06.06,0,0,1,0-.06h.32a.06.06,0,0,1,.05,0,.06.06,0,0,1-.05.06h-.32A0,0,0,0,1,479.72,574.25Zm1,0a0,0,0,0,1,.05,0h.31a.05.05,0,0,1,.06,0,.06.06,0,0,1-.06,0h-.31A0,0,0,0,1,480.77,574.24Zm1.05,0a.05.05,0,0,1,.05-.05h.31a.05.05,0,1,1,0,.1h-.31A.06.06,0,0,1,481.82,574.23Zm1,0a.06.06,0,0,1,.06-.05h.31a.06.06,0,0,1,0,.06,0,0,0,0,1,0,0h-.31A.06.06,0,0,1,482.86,574.23Zm1.05,0a.06.06,0,0,1,.06-.05h.31a0,0,0,0,1,0,.1H484A.06.06,0,0,1,483.91,574.22Zm1,0a.06.06,0,0,1,.05-.06h.32a0,0,0,0,1,.05.05.06.06,0,0,1-.05.06H485A.05.05,0,0,1,485,574.22Zm1.05,0a0,0,0,0,1,.05-.05h.32a0,0,0,0,1,0,.1h-.32A0,0,0,0,1,486,574.21Zm1.05,0a0,0,0,0,1,.05-.05h.32a.05.05,0,0,1,.05.05,0,0,0,0,1-.05,0h-.32A.06.06,0,0,1,487.06,574.2Zm1.05,0a.06.06,0,0,1,.05-.06h.31a.06.06,0,1,1,0,.11h-.31A0,0,0,0,1,488.11,574.2Zm1.05,0a0,0,0,0,1,0-.05h.31a.05.05,0,1,1,0,.1h-.31A0,0,0,0,1,489.16,574.19Zm1,0a.06.06,0,0,1,.06-.06h.31a0,0,0,0,1,.05,0,.06.06,0,0,1-.05.06h-.31A.06.06,0,0,1,490.2,574.19Zm1.05,0a.06.06,0,0,1,.06,0h.31a.06.06,0,0,1,.05.06,0,0,0,0,1-.05.05h-.31A.06.06,0,0,1,491.25,574.18Zm1.05,0a0,0,0,0,1,.05,0h.32a.05.05,0,1,1,0,.1h-.32A.06.06,0,0,1,492.3,574.17Zm1.05,0a.06.06,0,0,1,0-.06h.32a.05.05,0,0,1,0,0,.06.06,0,0,1,0,.06h-.32A0,0,0,0,1,493.35,574.17Zm1,0a0,0,0,0,1,.05,0h.32a.05.05,0,0,1,.05,0,0,0,0,0,1-.05.05h-.32A0,0,0,0,1,494.4,574.16Zm1.05,0a.05.05,0,0,1,.05,0h.31a.05.05,0,1,1,0,.1h-.31A.06.06,0,0,1,495.45,574.15Zm1.05,0a0,0,0,0,1,.05,0h.31a.06.06,0,1,1,0,.11h-.31A0,0,0,0,1,496.5,574.15Zm1,0a.06.06,0,0,1,.06,0h.31a0,0,0,0,1,0,.1h-.31A.06.06,0,0,1,497.54,574.14Zm1,0a.06.06,0,0,1,.06-.06H499a0,0,0,0,1,.05,0,.06.06,0,0,1-.05.06h-.31A.06.06,0,0,1,498.59,574.14Zm1.05,0a0,0,0,0,1,.05,0H500a.05.05,0,1,1,0,.1h-.32A.05.05,0,0,1,499.64,574.13Zm1.05,0a0,0,0,0,1,.05,0h.32a0,0,0,1,1,0,.1h-.32A.06.06,0,0,1,500.69,574.12Zm1.05,0a0,0,0,0,1,0-.06l.31,0s.06,0,.06,0a0,0,0,0,1,0,.06l-.31,0h0A0,0,0,0,1,501.74,574.1Zm-35.24-.17-.27-.17a0,0,0,0,1,0-.07,0,0,0,0,1,.07,0l.27.16a0,0,0,0,1,0,.07s0,0,0,0Zm36.26-.06a.05.05,0,0,1,0-.07,1.78,1.78,0,0,0,.29-.12.05.05,0,0,1,.07,0,.05.05,0,0,1,0,.07l-.29.12h0A.05.05,0,0,1,502.76,573.87Zm.94-.46a0,0,0,0,1,0-.07l.26-.18a0,0,0,0,1,.07,0,0,0,0,0,1,0,.07,2.4,2.4,0,0,1-.26.18h0A0,0,0,0,1,503.7,573.41Zm-38-.14-.2-.25a0,0,0,0,1,0-.07,0,0,0,0,1,.07,0l.2.24a0,0,0,0,1,0,.07h-.07Zm38.83-.52a.06.06,0,0,1,0-.08,2.2,2.2,0,0,0,.2-.23.08.08,0,0,1,.08,0,.06.06,0,0,1,0,.08,2.25,2.25,0,0,1-.21.24h-.07Zm-39.4-.38a1.33,1.33,0,0,1-.11-.3,0,0,0,0,1,0-.06.05.05,0,0,1,.07,0,2.47,2.47,0,0,0,.1.29.06.06,0,0,1,0,.07h0S465.12,572.39,465.11,572.37Zm40-.45a0,0,0,0,1,0-.07l.14-.28s.05,0,.07,0a.05.05,0,0,1,0,.07l-.15.28s0,0-.05,0Zm-40.29-.57c0-.1,0-.21-.05-.31a.06.06,0,0,1,.05-.06s0,0,0,0,0,.21.05.31a.06.06,0,0,1-.05.06h0A0,0,0,0,1,464.85,571.35Zm40.72-.39a0,0,0,0,1,0-.06c0-.1,0-.2.07-.3a.06.06,0,0,1,.07,0s0,0,0,.06-.05.21-.08.31a.05.05,0,0,1-.05,0Zm-40.87-.65c0-.1,0-.21,0-.31a.06.06,0,0,1,0-.06s.05,0,.06,0a2.91,2.91,0,0,0,0,.31.06.06,0,0,1-.05.06h0A.07.07,0,0,1,464.7,570.31Zm41.06-.38a0,0,0,0,1-.05,0,.41.41,0,0,0,0-.11v-.2s0-.06.06-.06a.06.06,0,0,1,.05.06v.31a.05.05,0,0,1-.05,0Zm-41.19-.66,0-.32s0-.05,0-.05a0,0,0,0,1,.06,0c0,.11,0,.21,0,.31a.06.06,0,0,1-.05.06h0A.07.07,0,0,1,464.57,569.27Zm41.23-.38a.06.06,0,0,1-.05-.06v-.31s0-.06.05,0a0,0,0,0,1,.05,0v.31a.06.06,0,0,1-.05.06Zm-41.34-.67,0-.31a.06.06,0,0,1,.05-.06.05.05,0,0,1,0,0l0,.31a0,0,0,0,1,0,.06h0A0,0,0,0,1,464.46,568.22Zm41.37-.38a.06.06,0,0,1-.05-.06v-.31a.06.06,0,0,1,.06-.05,0,0,0,0,1,0,.05v.32a.06.06,0,0,1-.06.05Zm-41.47-.66,0-.32a.05.05,0,0,1,.05-.05.06.06,0,0,1,.06.05c0,.1,0,.21,0,.31s0,.05,0,.06h0A.05.05,0,0,1,464.36,567.18Zm41.51-.39s-.06,0-.05,0v-.32a0,0,0,0,1,.05,0,.05.05,0,0,1,.05,0v.32a0,0,0,0,1-.05,0Zm-41.59-.66,0-.31a.06.06,0,1,1,.11,0c0,.11,0,.21,0,.31a.06.06,0,0,1-.05.06h0A0,0,0,0,1,464.28,566.13Zm41.62-.39a0,0,0,0,1,0,0v-.32a.05.05,0,0,1,.05,0,.05.05,0,0,1,0,.06v.31a0,0,0,0,1-.05,0Zm-41.69-.66c0-.1,0-.2,0-.31a0,0,0,0,1,.05,0,0,0,0,0,1,.06,0c0,.11,0,.21,0,.32s0,0-.05,0h0A0,0,0,0,1,464.21,565.08Zm41.72-.39a0,0,0,0,1-.05-.05v-.32a.06.06,0,0,1,.06-.05.06.06,0,0,1,.05.06v.31a.05.05,0,0,1-.05.05ZM464.16,564c0-.11,0-.21,0-.32s0-.05.05-.05a0,0,0,0,1,.05.05c0,.1,0,.21,0,.31a.06.06,0,0,1-.05.06h0A.05.05,0,0,1,464.16,564Zm41.81-.39a.06.06,0,0,1-.05-.06v-.31s0-.06.05,0a0,0,0,0,1,0,0v.31a.06.06,0,0,1,0,.06ZM464.12,563v-.32a0,0,0,0,1,.05,0h0a0,0,0,0,1,.05,0c0,.11,0,.21,0,.31a.06.06,0,0,1-.05.06h0A.06.06,0,0,1,464.12,563ZM506,562.6a.06.06,0,0,1-.05-.06v-.31a.05.05,0,0,1,.05-.05.06.06,0,0,1,.06.05v.32s0,.05-.06.05Zm-41.89-.66v-.32a0,0,0,0,1,.1,0v.32a0,0,0,0,1,0,0h0A0,0,0,0,1,464.11,561.94Zm41.92-.39a.06.06,0,0,1,0,0v-.32a.06.06,0,0,1,.06,0,.05.05,0,0,1,.05,0v.32a.05.05,0,0,1,0,0Zm-41.87-.61a.05.05,0,0,1-.05-.05c0-.11,0-.21,0-.32s0,0,.05-.05a.06.06,0,0,1,.05.06v.31a.05.05,0,0,1-.05.05Zm41.91-.44a0,0,0,0,1-.05,0v-.32a0,0,0,0,1,.05,0,.06.06,0,0,1,.05.06v.31a0,0,0,0,1-.05,0Zm-41.88-.61a0,0,0,0,1-.05,0c0-.11,0-.21,0-.32a.05.05,0,0,1,.05,0,.05.05,0,0,1,.05.06c0,.1,0,.21,0,.31a0,0,0,0,1-.05,0Zm41.91-.44a0,0,0,0,1-.05-.05v-.32a.06.06,0,0,1,.11,0v.31a.06.06,0,0,1-.06.05Zm-41.87-.6s-.05,0-.05-.06,0-.21,0-.31,0-.06.06-.05a0,0,0,0,1,.05.05c0,.11,0,.21,0,.32a.06.06,0,0,1-.05.05Zm41.91-.44s-.06,0-.05-.06V558a0,0,0,0,1,.1,0v.31a.06.06,0,0,1-.05.06Zm-41.84-.61a0,0,0,0,1,0-.06c0-.1,0-.21,0-.31a.06.06,0,0,1,.11,0l0,.31a0,0,0,0,1-.05,0Zm41.87-.44a.06.06,0,0,1-.05-.06V557a.05.05,0,0,1,.05,0,0,0,0,0,1,.05,0v.32a.05.05,0,0,1-.05.05Zm-41.77-.61a0,0,0,0,1,0,0c0-.11,0-.21,0-.32a0,0,0,0,1,.06,0s0,0,0,.06l0,.31a.06.06,0,0,1-.06,0Zm41.8-.44a.06.06,0,0,1-.05-.06v-.31a.06.06,0,0,1,.06-.05,0,0,0,0,1,0,.05v.32a.05.05,0,0,1-.05,0Zm-41.48-.37a.06.06,0,0,1,.06-.05h.31a0,0,0,0,1,0,.1h-.31A.06.06,0,0,1,464.72,555.94Zm1,0a.05.05,0,0,1,.05-.05h.32a0,0,0,0,1,0,.1h-.32A.05.05,0,0,1,465.77,555.94Zm1.05,0a0,0,0,0,1,.05-.05h.32a0,0,0,0,1,0,.1h-.32A0,0,0,0,1,466.82,555.94Zm1.05,0a0,0,0,0,1,.05-.05h.32a0,0,0,0,1,0,.1h-.32A0,0,0,0,1,467.87,555.94Zm1.05,0a0,0,0,0,1,.05-.05h.32a0,0,0,0,1,0,.1H469A0,0,0,0,1,468.92,555.94Zm1.05,0a0,0,0,0,1,0-.05h.31a.05.05,0,1,1,0,.1H470A0,0,0,0,1,470,555.94Zm1,0a0,0,0,0,1,.05-.05h.31a.05.05,0,0,1,0,.1h-.31A0,0,0,0,1,471,555.94Zm1,0a.06.06,0,0,1,.06-.05h.31a0,0,0,0,1,0,.1h-.31A.06.06,0,0,1,472.06,555.94Zm1.05,0a.05.05,0,0,1,.05-.05h.32a0,0,0,0,1,0,.1h-.32A.05.05,0,0,1,473.11,555.94Zm1.05,0a0,0,0,0,1,0-.05h.32a0,0,0,0,1,0,.1h-.32A0,0,0,0,1,474.16,555.94Zm1,0a0,0,0,0,1,.05-.05h.32a.05.05,0,0,1,0,.1h-.32A0,0,0,0,1,475.21,555.94Zm1.05,0a0,0,0,0,1,.05-.05h.32a.05.05,0,0,1,0,.1h-.32A0,0,0,0,1,476.26,555.94Zm1.05,0a0,0,0,0,1,.05-.05h.31a.05.05,0,1,1,0,.1h-.31A0,0,0,0,1,477.31,555.94Zm1.05,0a0,0,0,0,1,.05-.05h.31a0,0,0,0,1,0,.1h-.31A0,0,0,0,1,478.36,555.94Zm1,0a.06.06,0,0,1,.06-.05h.31a0,0,0,0,1,0,.1h-.31A.06.06,0,0,1,479.4,555.94Zm1.05,0a.06.06,0,0,1,.06-.05h.31a.05.05,0,1,1,0,.1h-.31A.06.06,0,0,1,480.45,555.94Zm1.05,0a0,0,0,0,1,.05-.05h.32a0,0,0,0,1,0,.1h-.32A0,0,0,0,1,481.5,555.94Zm1.05,0a0,0,0,0,1,.05-.05h.32a0,0,0,1,1,0,.1h-.32A0,0,0,0,1,482.55,555.94Zm1.05,0a0,0,0,0,1,0-.05H484a0,0,0,0,1,0,.1h-.32A0,0,0,0,1,483.6,555.94Zm1,0a0,0,0,0,1,.05-.05H485a.05.05,0,1,1,0,.1h-.31A0,0,0,0,1,484.65,555.94Zm1.05,0a0,0,0,0,1,.05-.05h.31a.05.05,0,1,1,0,.1h-.31A0,0,0,0,1,485.7,555.94Zm1,0a.06.06,0,0,1,.06-.05h.31a0,0,0,0,1,0,.1h-.31A.06.06,0,0,1,486.74,555.94Zm1.05,0a.06.06,0,0,1,.06-.05h.31a0,0,0,0,1,0,.1h-.31A.06.06,0,0,1,487.79,555.94Zm1,0a0,0,0,0,1,.05-.05h.32a0,0,0,0,1,0,.1h-.32A0,0,0,0,1,488.84,555.94Zm1.05,0a0,0,0,0,1,.05-.05h.32a0,0,0,0,1,0,.1h-.32A0,0,0,0,1,489.89,555.94Zm1.05,0a0,0,0,0,1,.05-.05h.32a0,0,0,0,1,0,.1H491A0,0,0,0,1,490.94,555.94Zm1.05,0a0,0,0,0,1,.05-.05h.31a.05.05,0,1,1,0,.1H492A0,0,0,0,1,492,555.94Zm1.05,0a0,0,0,0,1,0-.05h.31a.05.05,0,1,1,0,.1h-.31A0,0,0,0,1,493,555.94Zm1,0a.06.06,0,0,1,.06-.05h.31a0,0,0,0,1,0,.1h-.31A.06.06,0,0,1,494.08,555.94Zm1.05,0a.06.06,0,0,1,.06-.05h.31a0,0,0,0,1,0,.1h-.31A.06.06,0,0,1,495.13,555.94Zm1.05,0a0,0,0,0,1,.05-.05h.32a0,0,0,0,1,0,.1h-.32A0,0,0,0,1,496.18,555.94Zm1.05,0a0,0,0,0,1,0-.05h.32a0,0,0,0,1,0,.1h-.32A0,0,0,0,1,497.23,555.94Zm1,0a0,0,0,0,1,.05-.05h.32a.05.05,0,0,1,0,.1h-.32A0,0,0,0,1,498.28,555.94Zm1.05,0a0,0,0,0,1,.05-.05h.31a.05.05,0,1,1,0,.1h-.31A0,0,0,0,1,499.33,555.94Zm1.05,0a0,0,0,0,1,.05-.05h.31a.05.05,0,1,1,0,.1h-.31A0,0,0,0,1,500.38,555.94Zm1,0a.06.06,0,0,1,.06-.05h.31a0,0,0,0,1,0,.1h-.31A.06.06,0,0,1,501.42,555.94Zm1.05,0a.06.06,0,0,1,.06-.05h.31a.05.05,0,1,1,0,.1h-.31A.06.06,0,0,1,502.47,555.94Zm1,0a.05.05,0,0,1,.05-.05h.32a0,0,0,0,1,0,.1h-.32A.05.05,0,0,1,503.52,555.94Zm1.05,0a0,0,0,0,1,.05-.05h.32a0,0,0,1,1,0,.1h-.32A0,0,0,0,1,504.57,555.94Zm1.05,0a0,0,0,0,1,.05-.05H506a0,0,0,0,1,0,.1h-.32A0,0,0,0,1,505.62,555.94Z" transform="translate(-14.25 -163.44)"/><path class="cls-90" d="M497.08,545.39l-.1-1.12a.85.85,0,0,0-.66-.5c-1.08-.18-3.77-.48-5.06.49l-.2,1.3Z" transform="translate(-14.25 -163.44)"/><path class="cls-91" d="M493.7,544.31a1.58,1.58,0,0,0,.75,0,.67.67,0,0,0,.51-.66v-3.51h-1.78v3.51A.67.67,0,0,0,493.7,544.31Z" transform="translate(-14.25 -163.44)"/><path class="cls-92" d="M479.78,545.39l-.1-1.12a.85.85,0,0,0-.66-.5c-1.08-.18-3.77-.48-5.07.49l-.19,1.3Z" transform="translate(-14.25 -163.44)"/><path class="cls-93" d="M476.39,544.31a1.59,1.59,0,0,0,.75,0,.67.67,0,0,0,.52-.66v-3.88h-1.78v3.88A.68.68,0,0,0,476.39,544.31Z" transform="translate(-14.25 -163.44)"/><path class="cls-94" d="M495.14,541l-19.21-.38c-.43,0-.81-.2-.88-.46a2.75,2.75,0,0,1-.06-1.45c.16-.64,1.07-1.11,2.15-1.13,3.58-.05,12.7-.05,17.73,1.14a1.46,1.46,0,0,1,1.06.73,1.55,1.55,0,0,1,.05,1.17A.89.89,0,0,1,495.14,541Z" transform="translate(-14.25 -163.44)"/><path class="cls-95" d="M495.48,540.42s.1,0,.1-.06a1.78,1.78,0,0,0-.11-.87,1.49,1.49,0,0,0-1.11-.67,35.74,35.74,0,0,0-4.79-.53c-.06,0-.11,0-.11.06s.05.06.1.06a35.09,35.09,0,0,1,4.74.53,1.27,1.27,0,0,1,1,.59,1.58,1.58,0,0,1,.11.82s0,.07.1.07Z" transform="translate(-14.25 -163.44)"/><path class="cls-96" d="M506,545c-6.21-.08-33.06-.36-40.86.58a1.59,1.59,0,0,0-1.36,1.23,52.56,52.56,0,0,0-1.28,11.72,1.39,1.39,0,0,0,1.14,1.33l17.8,3.37h6.32l19-3.77a1.5,1.5,0,0,0,1.2-1.38,62.17,62.17,0,0,0-.34-11.72A1.64,1.64,0,0,0,506,545Z" transform="translate(-14.25 -163.44)"/><path class="cls-97" d="M487.56,561.65a.05.05,0,0,1,0-.06l.31-.06a.05.05,0,0,1,0,.1l-.31.06h0S487.57,561.68,487.56,561.65Zm-5.93,0a.06.06,0,0,1,.06,0H482a0,0,0,0,1,.05,0,.06.06,0,0,1-.05.06h-.31A.06.06,0,0,1,481.63,561.64Zm1.05,0a0,0,0,0,1,.05,0h.32a0,0,0,0,1,.05,0,.06.06,0,0,1-.05.06h-.32A.06.06,0,0,1,482.68,561.64Zm1.05,0a0,0,0,0,1,0,0h.32a0,0,0,0,1,0,0,.06.06,0,0,1,0,.06h-.32A.06.06,0,0,1,483.73,561.64Zm1,0a0,0,0,0,1,.05,0h.32a.05.05,0,0,1,.05,0,.06.06,0,0,1-.05.06h-.32A.06.06,0,0,1,484.78,561.64Zm1.05,0a0,0,0,0,1,.05,0h.31a.06.06,0,0,1,.06,0,.06.06,0,0,1-.06.06h-.31A.06.06,0,0,1,485.83,561.64Zm1.05,0a0,0,0,0,1,.05,0h.31a.06.06,0,0,1,.06,0,.06.06,0,0,1-.06.06h-.31A.06.06,0,0,1,486.88,561.64Zm-5.93-.06-.31-.06a.05.05,0,0,1,0-.06s0-.05.06,0l.31.05s0,0,0,.06a0,0,0,0,1-.05.05Zm7.64-.13a0,0,0,0,1,0-.06l.31-.06a0,0,0,0,1,.06,0s0,0,0,.06l-.31.06h0S488.59,561.47,488.59,561.45Zm-8.67-.07-.31-.06s0,0,0-.06a.05.05,0,0,1,.06,0l.31.06a0,0,0,0,1,0,.06s0,0-.05,0Zm9.7-.14s0,0,0-.06l.31-.06a.05.05,0,0,1,.06,0,0,0,0,0,1,0,.06l-.31.07h0A0,0,0,0,1,489.62,561.24Zm-10.73,0-.31-.06a.05.05,0,0,1,0-.06s0-.05.06,0l.31.05s0,0,0,.06a0,0,0,0,1-.05.05Zm11.76-.15a0,0,0,0,1,0-.06l.31-.06s.05,0,.06,0a.05.05,0,0,1,0,.06l-.31.06h0A0,0,0,0,1,490.65,561Zm-12.79,0-.31-.06s0,0,0-.06a.05.05,0,0,1,.06,0l.31.06a0,0,0,0,1,0,.06s0,0-.05,0Zm13.82-.15a.06.06,0,0,1,0-.07l.3-.06a.06.06,0,1,1,0,.11l-.31.06h0A0,0,0,0,1,491.68,560.84Zm-14.85,0-.31-.06a.05.05,0,0,1,0-.06s0,0,.06,0l.31.05a.06.06,0,0,1,0,.07,0,0,0,0,1-.05,0Zm15.87-.17s0-.06,0-.06l.31-.06a0,0,0,0,1,.06,0s0,.05,0,.06l-.3.06h0A.05.05,0,0,1,492.7,560.63Zm-16.9,0-.31-.06a0,0,0,0,1,0-.06s0-.05.06,0l.31.06a0,0,0,0,1,0,.06s0,0-.05,0Zm17.93-.17a.07.07,0,0,1,0-.07l.31-.06s.06,0,.06,0a.06.06,0,0,1,0,.07l-.31.06h0A.07.07,0,0,1,493.73,560.43Zm-19,0-.31-.06s0,0,0-.06,0,0,.06,0l.31,0a.06.06,0,0,1,0,.07,0,0,0,0,1-.05,0Zm20-.19s0-.05,0-.06l.31-.06a.05.05,0,1,1,0,.1l-.31.06h0A.05.05,0,0,1,494.76,560.22Zm-21,0-.31-.06a0,0,0,0,1,0-.06s0,0,.06,0l.31.06a0,0,0,0,1,0,.06s0,0-.05,0Zm22.05-.19a0,0,0,0,1,0-.06l.31-.07a.06.06,0,0,1,.06.05s0,0,0,.06l-.31.06h0S495.79,560,495.79,560Zm-23.08,0-.31-.06s0,0,0-.06a0,0,0,0,1,.06,0l.31,0a.06.06,0,0,1,0,.07s0,0,0,0Zm24.11-.21s0,0,0-.06l.31-.06s.05,0,.06,0,0,.06,0,.06l-.31.06h0A0,0,0,0,1,496.82,559.81Zm-25.14,0-.31-.06a0,0,0,0,1,0-.06s0,0,.06,0l.31.06a0,0,0,0,1,0,.06s0,0-.05,0Zm26.17-.21a0,0,0,0,1,0-.06l.31-.06s.05,0,.06,0a.07.07,0,0,1,0,.06l-.31.06h0A0,0,0,0,1,497.85,559.61Zm-27.2,0-.31-.06s0,0,0-.06a0,0,0,0,1,.06,0l.31,0a.06.06,0,0,1,0,.07s0,0,0,0Zm28.22-.23a.07.07,0,0,1,.05-.06l.3-.06a.07.07,0,0,1,.07,0,.06.06,0,0,1-.05.06l-.3.07h0A.06.06,0,0,1,498.87,559.4Zm-29.25,0-.31-.06a0,0,0,0,1,0-.06s0,0,.06,0l.31.06a0,0,0,0,1,0,.06s0,0-.05,0Zm30.28-.23s0-.06,0-.06l.31-.06a0,0,0,0,1,.06,0s0,0,0,.06l-.31.06h0A.07.07,0,0,1,499.9,559.2Zm-31.31,0-.31-.06s0,0,0-.06a0,0,0,0,1,.06,0l.31,0a.06.06,0,0,1,0,.07s0,0,0,0Zm-1-.2-.31-.06a0,0,0,0,1,0-.06s0,0,.06,0l.31.06a0,0,0,0,1,0,.06.05.05,0,0,1-.05,0Zm33.37,0a.07.07,0,0,1,0-.07l.31-.06s.06,0,.06,0a.06.06,0,0,1,0,.07L501,559h0A.07.07,0,0,1,500.93,559Zm-34.4-.15-.31-.06s-.05,0,0-.06a0,0,0,0,1,.06,0l.31,0a.06.06,0,0,1,0,.11Zm35.43-.06a0,0,0,0,1,0-.06l.31-.06a.05.05,0,0,1,0,.1l-.31.06h0S502,558.82,502,558.79Zm-36.46-.14-.31-.06a0,0,0,0,1,0-.06s0,0,.06,0l.31.06a.05.05,0,0,1,0,.06.05.05,0,0,1-.05,0Zm37.49-.06a.06.06,0,0,1,0-.07l.31-.06a.07.07,0,0,1,.06,0,.06.06,0,0,1,0,.07l-.31.06h0S503,558.61,503,558.59Zm-38.52-.13-.31-.06s-.05,0,0-.06a0,0,0,0,1,.06,0l.31.05a.06.06,0,0,1,0,.11Zm39.55-.08s0,0,0-.06l.31-.06s.05,0,.06,0,0,.06,0,.06l-.31.06h0S504,558.41,504,558.38Zm1-.2a0,0,0,0,1,0-.06l.3-.07a.08.08,0,0,1,.07.05.08.08,0,0,1,0,.06l-.31.06h0A0,0,0,0,1,505.05,558.18Zm1-.21a.07.07,0,0,1,0-.06l.24,0a0,0,0,0,1,0,0,.05.05,0,0,1,.05,0V558l-.31.06h0A.06.06,0,0,1,506.07,558Zm-42.1-.24v-.32a.06.06,0,0,1,.06,0,0,0,0,0,1,.05,0v.32a.05.05,0,0,1-.05,0A.06.06,0,0,1,464,557.73Zm42.46-.54a0,0,0,0,1-.05-.05c0-.1,0-.21,0-.32a.06.06,0,0,1,.06-.05.06.06,0,0,1,.05.06c0,.1,0,.21,0,.31a.06.06,0,0,1-.06.05ZM464,556.73a0,0,0,0,1-.05-.05c0-.11,0-.21,0-.32a0,0,0,0,1,.05-.05.06.06,0,0,1,.05.06c0,.1,0,.21,0,.31a0,0,0,0,1,0,.05Zm42.43-.59a0,0,0,0,1-.05,0c0-.1,0-.21,0-.32a.05.05,0,0,1,.05,0,.05.05,0,0,1,0,.06c0,.1,0,.21,0,.31a0,0,0,0,1,0,0Zm-42.39-.46a0,0,0,0,1-.05,0c0-.11,0-.21,0-.32a0,0,0,0,1,.05,0s.06,0,0,.05,0,.21,0,.31a.06.06,0,0,1-.06,0Zm42.42-.59a0,0,0,0,1-.05-.05v-.31a.05.05,0,0,1,.06-.05,0,0,0,0,1,.05.05c0,.1,0,.21,0,.31a0,0,0,0,1-.05.05Zm-42.35-.45a.06.06,0,0,1,0-.06l0-.31a0,0,0,0,1,.05,0,.06.06,0,0,1,.05.06l0,.31a0,0,0,0,1-.05,0Zm42.37-.59a.06.06,0,0,1-.06-.06c0-.1,0-.21,0-.31a0,0,0,0,1,0,0h0a0,0,0,0,1,.05,0V554a.06.06,0,0,1-.05.06Zm-42.28-.46a.05.05,0,0,1-.05-.05c0-.11,0-.21,0-.32s0-.05,0,0a0,0,0,0,1,.05.05l0,.32a.07.07,0,0,1-.05,0Zm42.23-.65c0-.1,0-.2,0-.31a.06.06,0,0,1,.06,0h0a0,0,0,0,1,.05,0v.31a.06.06,0,0,1-.05.06h0A.06.06,0,0,1,506.47,552.94Zm-42.12-.39a0,0,0,0,1,0-.06c0-.1,0-.21,0-.31a.06.06,0,0,1,.06,0,.07.07,0,0,1,0,.06c0,.1,0,.21,0,.31a0,0,0,0,1-.05,0Zm42.1-.65v-.32a.05.05,0,0,1,.1,0c0,.11,0,.21,0,.32a.05.05,0,0,1-.05.05h0A.06.06,0,0,1,506.45,551.9Zm-42-.39a.06.06,0,0,1-.05-.06c0-.11,0-.21.05-.31a.06.06,0,0,1,.06,0s.05,0,0,.06,0,.21,0,.31,0,0-.05,0Zm41.94-.66c0-.11,0-.21,0-.31a.06.06,0,1,1,.11,0c0,.11,0,.21,0,.32a.05.05,0,0,1,0,0h0A0,0,0,0,1,506.43,550.85Zm-41.79-.38a0,0,0,0,1,0-.06c0-.1,0-.21,0-.31a.05.05,0,1,1,.1,0c0,.1,0,.2-.05.31a0,0,0,0,1-.05,0Zm41.74-.67c0-.1,0-.21,0-.31a.06.06,0,0,1,.05-.06,0,0,0,0,1,0,.05c0,.11,0,.21,0,.32a0,0,0,0,1-.05.05h0A0,0,0,0,1,506.38,549.8Zm-41.57-.36a.08.08,0,0,1,0-.06l.06-.31a.06.06,0,0,1,.06-.05s.05,0,0,.06l-.06.31a0,0,0,0,1-.05.05Zm41.49-.68,0-.32a.05.05,0,0,1,.05-.05s.06,0,.06,0l0,.32a.06.06,0,0,1-.05.06h0A.05.05,0,0,1,506.3,548.76ZM465,548.4s0,0,0-.06L465,548a.06.06,0,0,1,.11,0l-.06.3a.06.06,0,0,1-.06,0Zm41.2-.68c0-.11,0-.21,0-.32s0,0,0,0a0,0,0,0,1,.06,0c0,.1,0,.21,0,.31a.06.06,0,0,1-.05.06h0A0,0,0,0,1,506.2,547.72Zm-41-.34a.08.08,0,0,1,0-.07l.05-.23a.12.12,0,0,1,.1-.08h0a0,0,0,0,1,.05,0,.06.06,0,0,1-.05.06l-.05.23a.07.07,0,0,1,0,0Zm.81-.4s0-.05,0-.06l.32,0a0,0,0,0,1,.05.05,0,0,0,0,1,0,.06l-.32,0h0A0,0,0,0,1,466,547Zm1-.09a.06.06,0,0,1,.05-.06l.31,0a.06.06,0,0,1,.06.05.06.06,0,0,1-.05.06l-.31,0h0A.05.05,0,0,1,467.06,546.89Zm1.05-.07a.05.05,0,0,1,.05-.06l.31,0a0,0,0,0,1,0,0,0,0,0,0,1,0,.06l-.32,0h0A0,0,0,0,1,468.11,546.82Zm1-.06a.06.06,0,0,1,.05-.06h.32s.05,0,.05,0a.05.05,0,0,1-.05,0l-.31,0h0A.06.06,0,0,1,469.15,546.76Zm1.05,0a.06.06,0,0,1,.05-.06h.32a.05.05,0,0,1,.05.05,0,0,0,0,1-.05,0l-.31,0h0A.06.06,0,0,1,470.2,546.71Zm35.85,0,0-.09s0-.05,0-.05h-.07a.06.06,0,0,1-.06,0,.06.06,0,0,1,.06-.06H506a.15.15,0,0,1,.15.13l0,.09s0,.06,0,.06h0S506.05,546.71,506.05,546.68Zm-34.8,0a0,0,0,0,1,.05,0l.31,0s.06,0,.06,0a.06.06,0,0,1-.05.06h-.32A0,0,0,0,1,471.25,546.66Zm1.05,0a0,0,0,0,1,.05,0h.31a.06.06,0,0,1,.06.05.06.06,0,0,1-.06,0h-.31A0,0,0,0,1,472.3,546.62Zm1,0a.06.06,0,0,1,.06-.06h.31a.06.06,0,0,1,.05.06.05.05,0,0,1-.05,0h-.31A.06.06,0,0,1,473.34,546.59Zm1.05,0a.06.06,0,0,1,.05-.06h.32a.05.05,0,0,1,0,.1h-.31A.06.06,0,0,1,474.39,546.56Zm1.05,0a0,0,0,0,1,.05,0h.32a.05.05,0,1,1,0,.1h-.32A0,0,0,0,1,475.44,546.53Zm1.05,0a.06.06,0,0,1,.05-.06h.32s.05,0,.05,0a0,0,0,0,1-.05,0h-.32A0,0,0,0,1,476.49,546.51Zm1.05,0a.06.06,0,0,1,0-.06h.31a.06.06,0,0,1,.06.05.05.05,0,0,1,0,0h-.32A0,0,0,0,1,477.54,546.49Zm27.63,0h-.31a.06.06,0,0,1-.05-.06,0,0,0,0,1,.05-.05h.31s.06,0,.05.05a0,0,0,0,1-.05,0Zm-26.58-.06a0,0,0,0,1,.05-.05H479a.06.06,0,0,1,.06.05.06.06,0,0,1-.06.06h-.31A0,0,0,0,1,478.59,546.47Zm25.53,0h-.31a0,0,0,0,1,0-.1h.31a.06.06,0,0,1,.06.06.06.06,0,0,1-.06,0Zm-1.05,0h-.31a0,0,0,0,1,0-.1h.31a.06.06,0,1,1,0,.11Zm-23.44-.06a.06.06,0,0,1,.06-.05H480a0,0,0,0,1,0,.1h-.31A.06.06,0,0,1,479.63,546.45Zm22.39,0h-.31a.05.05,0,0,1,0-.1H502a.06.06,0,0,1,0,.11Zm-21.34-.06a.06.06,0,0,1,.06-.05h.31a.05.05,0,0,1,.05,0,.06.06,0,0,1-.05.06h-.31A.06.06,0,0,1,480.68,546.44Zm20.3,0h-.32a.05.05,0,1,1,0-.1H501a.06.06,0,0,1,0,.06.06.06,0,0,1,0,0Zm-19.25-.06a.06.06,0,0,1,0-.06h.32a0,0,0,0,1,0,0,.06.06,0,0,1,0,.06h-.32A.05.05,0,0,1,481.73,546.43Zm18.2.05h-.32a.06.06,0,0,1-.05-.06.05.05,0,0,1,.05,0h.32a.06.06,0,0,1,.05.06,0,0,0,0,1-.05.05Zm-1.05,0h-.32a.05.05,0,0,1-.05-.05.06.06,0,0,1,.05-.06h.32a0,0,0,1,1,0,.1Zm-16.1-.05a.06.06,0,0,1,.05-.06h.32a0,0,0,0,1,.05,0,.06.06,0,0,1-.05.06h-.32A0,0,0,0,1,482.78,546.42Zm15.05,0h-.32a0,0,0,0,1,0-.1h.32a0,0,0,1,1,0,.1Zm-14-.05a0,0,0,0,1,.05,0h.32a.06.06,0,0,1,.05.06.05.05,0,0,1-.05.05h-.32A0,0,0,0,1,483.83,546.41Zm12.95.05h-.31a.06.06,0,0,1-.06-.06.06.06,0,0,1,.06,0h.31a.06.06,0,0,1,.05.06.05.05,0,0,1-.05.05Zm-11.9-.06a0,0,0,0,1,.05,0h.31a.06.06,0,0,1,.06,0,.05.05,0,0,1-.05.05h-.32A0,0,0,0,1,484.88,546.4Zm10.85.05h-.31a.05.05,0,1,1,0-.1h.31a.05.05,0,1,1,0,.1Zm-9.8-.05a.06.06,0,0,1,.05-.06h.31a.06.06,0,1,1,0,.11H486A0,0,0,0,1,485.93,546.4Zm8.75.05h-.31a.06.06,0,0,1-.05-.06,0,0,0,0,1,.05,0h.31a.06.06,0,0,1,.06.06s0,.05-.06.05Zm-7.71-.06a.06.06,0,0,1,.06,0h.31a0,0,0,1,1,0,.1H487A.06.06,0,0,1,487,546.39Zm6.66.05h-.31a0,0,0,1,1,0-.1h.31a.05.05,0,1,1,0,.1Zm-5.61-.05a.06.06,0,0,1,.06,0h.31a0,0,0,0,1,0,.1h-.31A.06.06,0,0,1,488,546.39Zm4.56.05h-.31a.05.05,0,0,1,0-.1h.32a.05.05,0,0,1,.05,0,.06.06,0,0,1-.06.05Zm-3.51-.05a.06.06,0,0,1,.05-.06h.32a.06.06,0,0,1,.05.06,0,0,0,0,1-.05.05h-.32A.05.05,0,0,1,489.07,546.39Zm2.47.05h-.32a0,0,0,0,1-.05-.05.06.06,0,0,1,.05-.06h.32a.06.06,0,0,1,0,.06.05.05,0,0,1,0,.05Zm-1.37,0a0,0,0,0,1-.05-.05.06.06,0,0,1,.05-.06h.32a.06.06,0,0,1,.05.06,0,0,0,0,1-.05.05Z" transform="translate(-14.25 -163.44)"/><path class="cls-98" d="M482,565.83h5.54a1.44,1.44,0,0,0,1.42-1.26l.64-5.33a1.43,1.43,0,0,0-1.42-1.59h-6.66a1.43,1.43,0,0,0-1.43,1.55l.48,5.33A1.42,1.42,0,0,0,482,565.83Z" transform="translate(-14.25 -163.44)"/><path class="cls-99" d="M482.72,564.85h4.21a1.09,1.09,0,0,0,1.09-1l.48-4a1.09,1.09,0,0,0-1.08-1.22h-5.06a1.08,1.08,0,0,0-1.09,1.18l.36,4.06A1.09,1.09,0,0,0,482.72,564.85Z" transform="translate(-14.25 -163.44)"/><path class="cls-100" d="M484.65,514.59c.46-12.23,1.27-28,2.6-34.67,2.31-11.53,10.46-15.89,10.46-15.89,17.38,2.56.31,32.8.31,32.8l-5.52,19.1A16.41,16.41,0,0,0,484.65,514.59Z" transform="translate(-14.25 -163.44)"/><path class="cls-101" d="M484.65,514.59a16.41,16.41,0,0,1,7.85,1.34L488,531.43s.77,8.45.08,9.39-6.23.6-6.23-.94,2.31-9.22,2.31-9.22S484.32,523.6,484.65,514.59Z" transform="translate(-14.25 -163.44)"/><path class="cls-102" d="M136.38,591.61a.69.69,0,0,0,.05-.83l-4.65-7.47a38.38,38.38,0,0,0,3.54-11.9l8-3.71a.74.74,0,0,0,.42-.73l-1.1-10.5a.71.71,0,0,0-.55-.63l-8.57-2a38.4,38.4,0,0,0-5.92-10.91l3-8.26a.75.75,0,0,0-.22-.81l-8.2-6.65a.74.74,0,0,0-.84-.05l-7.46,4.65a38.35,38.35,0,0,0-11.91-3.53l-3.71-8a.71.71,0,0,0-.73-.41L87,521a.72.72,0,0,0-.62.56l-2,8.56A38.52,38.52,0,0,0,73.48,536l-8.27-3a.74.74,0,0,0-.81.23l-6.64,8.2a.71.71,0,0,0-.06.83l4.66,7.47a38.3,38.3,0,0,0-3.54,11.9l-8,3.71a.73.73,0,0,0-.41.73l1.1,10.5a.71.71,0,0,0,.55.63l8.57,2a38.08,38.08,0,0,0,5.92,10.92l-3,8.26a.71.71,0,0,0,.22.81l8.2,6.65a.74.74,0,0,0,.84,0l7.46-4.65a38.37,38.37,0,0,0,11.9,3.53l3.72,8a.71.71,0,0,0,.73.41l10.49-1.09a.74.74,0,0,0,.63-.56l2-8.56A38.65,38.65,0,0,0,120.66,597l8.27,3a.72.72,0,0,0,.81-.22Z" transform="translate(-14.25 -163.44)"/><path class="cls-4" d="M108.7,564.12a11.89,11.89,0,0,1-7.54,13.56,11.87,11.87,0,1,1,7.06-15.23A12.65,12.65,0,0,1,108.7,564.12Zm-18.36,3.8a8.41,8.41,0,0,0,.28,1,6.87,6.87,0,1,0,12.89-4.73,6.87,6.87,0,0,0-13.17,3.75Z" transform="translate(-14.25 -163.44)"/><path class="cls-4" d="M122.63,561c.18.87.31,1.75.41,2.64,0,.15,0,.29,0,.43a26.26,26.26,0,0,1,0,5.17.83.83,0,0,1-.66.73.75.75,0,0,1-.26,0,.83.83,0,0,1-.74-.92,24.8,24.8,0,0,0,0-5.24h0a24.65,24.65,0,0,0-14.7-20,24.37,24.37,0,0,0-11.45-2l-.91.07a24.92,24.92,0,0,0-2.47.39,24.63,24.63,0,0,0,7.59,48.6c.84-.09,1.66-.21,2.48-.38a24.8,24.8,0,0,0,9.74-4.4A.71.71,0,0,1,112,586a.83.83,0,0,1,.67,1.48,26.22,26.22,0,0,1-13,5.11,26.29,26.29,0,0,1-8.12-51.89c.87-.18,1.75-.32,2.65-.42A26.35,26.35,0,0,1,122.63,561Z" transform="translate(-14.25 -163.44)"/><path class="cls-103" d="M142.41,504.17a.36.36,0,0,0,0-.42L140.11,500a19,19,0,0,0,1.77-6l4-1.86a.36.36,0,0,0,.21-.36l-.55-5.25a.37.37,0,0,0-.28-.32l-4.29-1a19,19,0,0,0-3-5.46l1.51-4.14a.38.38,0,0,0-.12-.41l-4.1-3.32a.36.36,0,0,0-.42,0l-3.73,2.33a19.21,19.21,0,0,0-6-1.77l-1.86-4a.34.34,0,0,0-.36-.2l-5.26.55a.34.34,0,0,0-.31.27l-1,4.29a19.24,19.24,0,0,0-5.46,3l-4.13-1.5a.36.36,0,0,0-.41.11l-3.32,4.1a.36.36,0,0,0,0,.42l2.33,3.74a18.89,18.89,0,0,0-1.77,5.95l-4,1.86a.38.38,0,0,0-.21.37l.55,5.25a.36.36,0,0,0,.28.31l4.29,1a19.11,19.11,0,0,0,3,5.46L106,507.57a.37.37,0,0,0,.12.4l4.1,3.33a.38.38,0,0,0,.42,0l3.73-2.33a19,19,0,0,0,6,1.77l1.86,4a.36.36,0,0,0,.36.21l5.26-.55a.36.36,0,0,0,.31-.28l1-4.28a19.52,19.52,0,0,0,5.46-3l4.13,1.51a.37.37,0,0,0,.41-.11Z" transform="translate(-14.25 -163.44)"/><path class="cls-4" d="M128.56,490.42a6,6,0,1,1-.24-.84A5.8,5.8,0,0,1,128.56,490.42Zm-9.19,1.9c0,.16.09.32.14.48a3.44,3.44,0,1,0,6.46-2.36,3.4,3.4,0,0,0-1.79-1.93,3.36,3.36,0,0,0-2.62-.11,3.43,3.43,0,0,0-1.94,1.78A3.5,3.5,0,0,0,119.37,492.32Z" transform="translate(-14.25 -163.44)"/><path class="cls-4" d="M135.53,488.87q.14.64.21,1.32a1.49,1.49,0,0,0,0,.21,14,14,0,0,1,0,2.59.43.43,0,0,1-.33.37h-.13a.42.42,0,0,1-.37-.46,12.08,12.08,0,0,0,0-2.62h0a12.33,12.33,0,0,0-13.09-11l-.45,0c-.43.05-.84.11-1.24.19a12.33,12.33,0,0,0,3.8,24.33c.42-.05.83-.11,1.24-.2a12.09,12.09,0,0,0,4.87-2.2.36.36,0,0,1,.17-.07.41.41,0,0,1,.33.74,13.05,13.05,0,0,1-5.2,2.35q-.66.13-1.32.21a13.16,13.16,0,0,1-4.07-26c.44-.09.88-.16,1.33-.21A13.17,13.17,0,0,1,135.53,488.87Z" transform="translate(-14.25 -163.44)"/><path class="cls-104" d="M79.62,516a.45.45,0,0,0,0-.53l-3-4.72A24,24,0,0,0,79,503.23l5-2.35a.45.45,0,0,0,.26-.46l-.69-6.64a.47.47,0,0,0-.35-.4l-5.42-1.25a24,24,0,0,0-3.75-6.9L76,480a.48.48,0,0,0-.14-.52l-5.19-4.2a.47.47,0,0,0-.53,0l-4.72,2.94A24.12,24.12,0,0,0,57.84,476l-2.35-5a.46.46,0,0,0-.46-.27l-6.64.7a.47.47,0,0,0-.4.35l-1.25,5.42a24,24,0,0,0-6.9,3.74L34.61,479a.45.45,0,0,0-.51.14l-4.21,5.18a.47.47,0,0,0,0,.53l2.94,4.73a24.06,24.06,0,0,0-2.23,7.52l-5,2.35a.47.47,0,0,0-.27.47l.7,6.63a.45.45,0,0,0,.35.4l5.42,1.26a24.12,24.12,0,0,0,3.74,6.9l-1.9,5.23a.45.45,0,0,0,.14.51l5.18,4.2a.45.45,0,0,0,.53,0l4.73-2.95a24.16,24.16,0,0,0,7.52,2.24l2.35,5a.46.46,0,0,0,.47.26l6.63-.69a.45.45,0,0,0,.4-.35l1.26-5.42a24.15,24.15,0,0,0,6.9-3.75l5.23,1.91a.47.47,0,0,0,.51-.14Z" transform="translate(-14.25 -163.44)"/><path class="cls-4" d="M62.11,498.62a7.52,7.52,0,0,1-4.77,8.58,7.51,7.51,0,1,1-5.17-14.1,7.52,7.52,0,0,1,9.64,4.46A7,7,0,0,1,62.11,498.62ZM50.5,501a6.32,6.32,0,0,0,.18.62,4.34,4.34,0,1,0,8.15-3,4.25,4.25,0,0,0-2.25-2.44,4.3,4.3,0,0,0-3.32-.14A4.36,4.36,0,0,0,50.5,501Z" transform="translate(-14.25 -163.44)"/><path class="cls-4" d="M70.92,496.67a14.91,14.91,0,0,1,.27,1.67,2.45,2.45,0,0,0,0,.27,16.24,16.24,0,0,1,0,3.27.54.54,0,0,1-.42.46H70.6a.53.53,0,0,1-.47-.58,15.35,15.35,0,0,0,0-3.32h0a15.58,15.58,0,0,0-9.29-12.67,15.35,15.35,0,0,0-7.24-1.25l-.58.05a13.84,13.84,0,0,0-1.57.24,15.58,15.58,0,0,0,4.81,30.74c.53,0,1.05-.14,1.56-.24A15.64,15.64,0,0,0,64,512.53a.5.5,0,0,1,.21-.09.53.53,0,0,1,.53.2.54.54,0,0,1-.11.74,16.57,16.57,0,0,1-6.58,3,15.67,15.67,0,0,1-1.67.26,16.63,16.63,0,0,1-5.13-32.82,15.29,15.29,0,0,1,1.67-.27A16.65,16.65,0,0,1,70.92,496.67Z" transform="translate(-14.25 -163.44)"/><rect class="cls-105" x="241.29" y="427.78" width="11.23" height="42.92"/><rect class="cls-106" x="260.06" y="442.53" width="11.23" height="28.17"/><rect class="cls-107" x="278.83" y="406.07" width="11.23" height="64.63"/><rect class="cls-108" x="297.6" y="455.17" width="11.23" height="15.53"/><rect class="cls-109" x="316.37" y="414.71" width="11.23" height="55.99"/><rect class="cls-110" x="335.14" y="424.4" width="11.23" height="46.3"/><rect class="cls-111" x="353.91" y="434.94" width="11.23" height="35.76"/><rect class="cls-112" x="372.67" y="393" width="11.23" height="77.7"/><rect class="cls-113" x="391.44" y="401.22" width="11.23" height="69.48"/><rect class="cls-114" x="410.21" y="413.66" width="11.23" height="57.04"/><rect class="cls-115" x="428.98" y="456.61" width="11.23" height="14.09"/><rect class="cls-116" x="447.75" y="429.25" width="11.23" height="41.45"/><path class="cls-5" d="M375.06,427.93a.7.7,0,0,1-.37-.11,14.69,14.69,0,0,1-1.76-1.32.69.69,0,0,1,.91-1.05,13.81,13.81,0,0,0,1.6,1.19.71.71,0,0,1,.21,1A.71.71,0,0,1,375.06,427.93ZM370.19,423a.7.7,0,0,1-.58-.31c-.38-.57-.76-1.19-1.12-1.84a.7.7,0,1,1,1.22-.68c.34.61.7,1.2,1.06,1.74a.7.7,0,0,1-.58,1.09ZM367,416.77a.69.69,0,0,1-.65-.44l-.08-.19c-.24-.59-.47-1.19-.68-1.78a.69.69,0,0,1,.41-.9.71.71,0,0,1,.9.41c.21.59.43,1.17.67,1.75l.07.19a.7.7,0,0,1-.38.91A.63.63,0,0,1,367,416.77Zm-2.28-6.61a.71.71,0,0,1-.67-.5c-.19-.68-.38-1.36-.55-2.05a.7.7,0,1,1,1.36-.34c.17.67.35,1.34.54,2a.71.71,0,0,1-.48.87Zm-1.58-6.8a.69.69,0,0,1-.68-.58c-.13-.69-.24-1.39-.35-2.09a.7.7,0,0,1,1.39-.21c.1.69.21,1.37.33,2a.7.7,0,0,1-.56.82Zm-.9-6.93a.7.7,0,0,1-.69-.65c-.06-.7-.11-1.4-.14-2.11a.7.7,0,1,1,1.39-.07c0,.69.09,1.38.14,2.07a.69.69,0,0,1-.64.75Zm-.23-7h0a.69.69,0,0,1-.69-.7c0-.71,0-1.41.05-2.12a.69.69,0,0,1,.73-.67.7.7,0,0,1,.67.73q0,1-.06,2.07A.69.69,0,0,1,362,389.44Zm.39-7h-.07a.7.7,0,0,1-.63-.76q.11-1.05.24-2.1a.7.7,0,0,1,1.39.17q-.14,1-.24,2.07A.69.69,0,0,1,362.42,382.47Zm1-6.92h-.13a.7.7,0,0,1-.55-.82c.13-.69.26-1.38.41-2.07a.7.7,0,0,1,1.37.29c-.15.68-.28,1.36-.41,2A.7.7,0,0,1,363.41,375.55Zm1.57-6.81-.19,0a.71.71,0,0,1-.49-.86c.19-.68.38-1.36.59-2a.7.7,0,1,1,1.34.4c-.2.66-.39,1.33-.58,2A.68.68,0,0,1,365,368.74Zm2.11-6.66a.67.67,0,0,1-.24,0,.7.7,0,0,1-.42-.9c.24-.66.49-1.32.74-2a.7.7,0,0,1,1.31.51c-.26.65-.5,1.29-.73,1.95A.72.72,0,0,1,367.09,362.08Zm2.63-6.48a.72.72,0,0,1-.29-.06.7.7,0,0,1-.35-.92c.29-.65.59-1.29.89-1.92a.7.7,0,1,1,1.26.61c-.3.62-.59,1.25-.88,1.88A.68.68,0,0,1,369.72,355.6Zm3.12-6.25a.66.66,0,0,1-.33-.09.69.69,0,0,1-.28-.95c.34-.61.68-1.23,1-1.84a.7.7,0,0,1,1.21.71c-.35.6-.69,1.2-1,1.81A.68.68,0,0,1,372.84,349.35Zm3.6-6a.68.68,0,0,1-.38-.12.69.69,0,0,1-.2-1c.39-.59.78-1.18,1.18-1.76a.71.71,0,0,1,1-.18.71.71,0,0,1,.18,1c-.39.57-.78,1.14-1.16,1.72A.7.7,0,0,1,376.44,343.36Zm301.44-3.66h-1.14a.7.7,0,1,1,0-1.4h2.1a.7.7,0,0,1,0,1.4Zm5.85-.12a.7.7,0,0,1,0-1.39l2.09-.11a.72.72,0,0,1,.74.66.7.7,0,0,1-.66.74l-2.11.1Zm-11.88,0h0l-2.1-.1a.7.7,0,1,1,.07-1.39c.7,0,1.39.07,2.09.09a.7.7,0,0,1,0,1.4Zm-7-.43h-.06l-2.09-.19a.7.7,0,0,1-.63-.76.68.68,0,0,1,.76-.63l2.08.18a.7.7,0,0,1-.06,1.4Zm25.84,0a.7.7,0,0,1-.07-1.4l2.08-.21a.7.7,0,0,1,.15,1.39l-2.1.22Zm-32.79-.68h-.09l-2.08-.26a.7.7,0,0,1,.18-1.39L658,337a.7.7,0,0,1-.08,1.39Zm39.72-.18a.7.7,0,0,1-.1-1.39c.69-.1,1.37-.21,2.06-.33a.69.69,0,0,1,.8.57.7.7,0,0,1-.57.81c-.69.12-1.39.23-2.08.33Zm-317.13-.58a.71.71,0,0,1-.56-1.13l1.32-1.65a.7.7,0,1,1,1.08.88c-.43.54-.87,1.08-1.29,1.63A.7.7,0,0,1,380.51,337.67ZM651,337.45h-.11l-2.08-.35a.69.69,0,1,1,.23-1.37l2.07.34a.7.7,0,0,1-.11,1.39Zm53.52-.46a.69.69,0,0,1-.68-.55.68.68,0,0,1,.53-.83l2-.46a.7.7,0,1,1,.33,1.36c-.69.16-1.38.32-2.06.46Zm-60.41-.76-.13,0-2.06-.41a.69.69,0,0,1-.55-.82.71.71,0,0,1,.83-.55l2,.41a.7.7,0,0,1-.14,1.39Zm67.19-.93a.7.7,0,0,1-.67-.51.69.69,0,0,1,.48-.86l2-.6a.7.7,0,1,1,.42,1.33l-2,.61A.63.63,0,0,1,711.3,335.3Zm-74-.51a.39.39,0,0,1-.15,0l-2-.47a.69.69,0,0,1-.52-.84.7.7,0,0,1,.84-.52l2,.47a.7.7,0,0,1-.15,1.38Zm-6.8-1.63a.52.52,0,0,1-.17,0l-2-.52a.7.7,0,0,1-.5-.86.69.69,0,0,1,.85-.5l2,.53a.7.7,0,0,1-.18,1.37Zm87.46-.07a.7.7,0,0,1-.65-.45.69.69,0,0,1,.4-.9c.65-.25,1.29-.51,1.93-.78a.7.7,0,0,1,.91.37.71.71,0,0,1-.37.92c-.65.27-1.31.54-2,.79A.7.7,0,0,1,717.93,333.09ZM385,332.33a.7.7,0,0,1-.51-1.17c.47-.53.95-1,1.44-1.55a.7.7,0,1,1,1,1c-.48.5-.95,1-1.42,1.52A.71.71,0,0,1,385,332.33Zm238.71-1-.19,0-2-.58a.7.7,0,0,1,.38-1.34l2,.57a.7.7,0,0,1-.19,1.37Zm100.59-1.12a.71.71,0,0,1-.62-.38.7.7,0,0,1,.3-.94c.62-.32,1.22-.65,1.82-1a.71.71,0,0,1,1,.27.7.7,0,0,1-.27.95c-.61.35-1.24.68-1.87,1A.72.72,0,0,1,724.31,330.24ZM617,329.42l-.2,0-2-.61a.69.69,0,0,1-.46-.87.7.7,0,0,1,.87-.47l2,.61a.7.7,0,0,1-.2,1.37Zm-6.68-2.06a.52.52,0,0,1-.21,0l-2-.64a.68.68,0,0,1-.45-.87.7.7,0,0,1,.88-.46l2,.64a.7.7,0,0,1-.21,1.37Zm-220.41,0a.66.66,0,0,1-.5-.22.7.7,0,0,1,0-1L391,324.7a.71.71,0,0,1,1,0,.7.7,0,0,1-.05,1c-.51.47-1,.94-1.52,1.42A.7.7,0,0,1,389.91,327.34Zm340.39-.71a.72.72,0,0,1-.58-.29.71.71,0,0,1,.18-1c.56-.39,1.12-.8,1.66-1.22a.7.7,0,1,1,.85,1.11c-.55.43-1.13.85-1.71,1.26A.72.72,0,0,1,730.3,326.63ZM603.67,325.2l-.22,0-2-.67a.7.7,0,1,1,.44-1.32l2,.66a.7.7,0,0,1-.22,1.36ZM597.05,323a.85.85,0,0,1-.23,0l-2-.68a.7.7,0,0,1,.46-1.32l2,.67a.71.71,0,0,1,.44.89A.7.7,0,0,1,597.05,323Zm-201.89-.26a.68.68,0,0,1-.54-.25.69.69,0,0,1,.09-1c.55-.45,1.09-.89,1.65-1.33a.7.7,0,0,1,.86,1.1c-.54.43-1.08.86-1.62,1.31A.73.73,0,0,1,395.16,322.71Zm340.53-.51a.7.7,0,0,1-.5-.21.7.7,0,0,1,0-1c.49-.47,1-1,1.45-1.47a.7.7,0,0,1,1,1c-.49.52-1,1-1.5,1.52A.7.7,0,0,1,735.69,322.2Zm-145.26-1.5a.66.66,0,0,1-.23,0l-2-.69a.7.7,0,0,1-.43-.89.7.7,0,0,1,.89-.43l2,.69a.7.7,0,0,1-.23,1.36ZM400.7,318.46a.7.7,0,0,1-.4-1.27L402,316a.71.71,0,0,1,1,.18.7.7,0,0,1-.19,1l-1.7,1.2A.69.69,0,0,1,400.7,318.46Zm183.13-.06a.62.62,0,0,1-.23,0l-2-.69a.7.7,0,0,1-.43-.89.71.71,0,0,1,.89-.43l2,.69a.7.7,0,0,1-.23,1.36ZM740.34,317a.66.66,0,0,1-.42-.15.69.69,0,0,1-.13-1c.42-.54.82-1.1,1.22-1.66a.7.7,0,0,1,1-.18.71.71,0,0,1,.17,1c-.4.58-.82,1.15-1.25,1.71A.72.72,0,0,1,740.34,317Zm-163.11-.89a.62.62,0,0,1-.23,0l-2-.68a.69.69,0,0,1-.43-.89.69.69,0,0,1,.89-.43l2,.68a.7.7,0,0,1-.23,1.36Zm-170.71-1.52a.7.7,0,0,1-.37-1.29c.59-.37,1.19-.74,1.8-1.1a.7.7,0,0,1,1,.24.71.71,0,0,1-.25,1l-1.78,1.08A.61.61,0,0,1,406.52,314.58Zm164.1-.75a.93.93,0,0,1-.23,0l-2-.68a.7.7,0,1,1,.45-1.32l2,.67a.7.7,0,0,1-.22,1.37ZM564,311.59l-.22,0-2-.66a.7.7,0,0,1,.44-1.33l2,.66a.7.7,0,0,1-.22,1.36Zm180.19-.43a.72.72,0,0,1-.34-.09.7.7,0,0,1-.26-1c.33-.6.66-1.2,1-1.82a.7.7,0,0,1,1.24.64c-.32.63-.66,1.25-1,1.87A.69.69,0,0,1,744.18,311.16Zm-331.62-.09a.69.69,0,0,1-.33-1.31l1.86-1a.7.7,0,0,1,.64,1.25l-1.84,1A.64.64,0,0,1,412.56,311.07Zm144.79-1.64a.57.57,0,0,1-.22,0l-2-.63a.7.7,0,1,1,.42-1.33l2,.63a.7.7,0,0,1-.21,1.37ZM418.8,307.94a.69.69,0,0,1-.63-.41.71.71,0,0,1,.34-.93l1.92-.87a.7.7,0,0,1,.92.35.7.7,0,0,1-.35.93l-1.9.86A.66.66,0,0,1,418.8,307.94Zm131.87-.59a.69.69,0,0,1-.2,0l-2-.6a.7.7,0,1,1,.4-1.34l2,.6a.7.7,0,0,1,.47.87A.69.69,0,0,1,550.67,307.35Zm-6.71-2a.63.63,0,0,1-.19,0l-2-.56a.7.7,0,0,1,.37-1.35l2,.57a.7.7,0,0,1-.19,1.37Zm-118.74-.23a.69.69,0,0,1-.26-1.34l2-.77a.7.7,0,0,1,.91.4.72.72,0,0,1-.41.91c-.65.24-1.3.5-1.94.75A.63.63,0,0,1,425.22,305.16Zm322-.3a.75.75,0,0,1-.26-.05.7.7,0,0,1-.39-.91c.26-.64.5-1.29.74-1.94a.7.7,0,0,1,.89-.42.7.7,0,0,1,.42.9q-.36,1-.75,2A.71.71,0,0,1,747.21,304.86Zm-210-1.3-.17,0-2-.52a.71.71,0,0,1-.51-.85.69.69,0,0,1,.85-.51l2,.52a.7.7,0,0,1-.18,1.38Zm-105.43-.81a.7.7,0,0,1-.23-1.36l2-.66a.7.7,0,1,1,.43,1.33l-2,.65A.57.57,0,0,1,431.78,302.75Zm98.65-.88a.41.41,0,0,1-.16,0l-2-.47a.71.71,0,0,1-.53-.84.7.7,0,0,1,.84-.52l2.05.47a.7.7,0,0,1-.16,1.38Zm-92-1.18a.71.71,0,0,1-.67-.51.71.71,0,0,1,.49-.87l2-.55a.7.7,0,0,1,.36,1.35l-2,.55A.58.58,0,0,1,438.45,300.69Zm85.16-.35h-.15l-2.05-.43a.7.7,0,0,1,.28-1.37l2.06.43a.7.7,0,0,1-.14,1.38ZM516.75,299l-.13,0-2.06-.37a.69.69,0,0,1-.56-.81.68.68,0,0,1,.8-.56l2.07.37a.7.7,0,0,1,.57.81A.71.71,0,0,1,516.75,299Zm-71.52,0a.7.7,0,0,1-.15-1.38l2.06-.46a.7.7,0,0,1,.29,1.37l-2,.45Zm304.18-.74-.18,0a.7.7,0,0,1-.49-.86c.17-.67.34-1.34.49-2a.7.7,0,1,1,1.36.31c-.15.69-.32,1.38-.5,2.06A.71.71,0,0,1,749.41,298.23Zm-239.55-.41h-.11l-2.07-.31a.7.7,0,0,1-.59-.79.69.69,0,0,1,.79-.59l2.08.31a.7.7,0,0,1,.59.8A.71.71,0,0,1,509.86,297.82Zm-57.77-.23a.7.7,0,0,1-.12-1.39l2.07-.35a.71.71,0,0,1,.81.58.7.7,0,0,1-.58.8l-2.06.35Zm50.84-.74h-.08l-2.08-.25a.7.7,0,0,1-.62-.77.72.72,0,0,1,.78-.62l2.09.25a.7.7,0,0,1-.09,1.39Zm-43.93-.3a.69.69,0,0,1-.69-.61.7.7,0,0,1,.6-.79l2.1-.24a.69.69,0,0,1,.77.61.71.71,0,0,1-.62.78l-2.07.24Zm37-.44h-.06l-2.08-.18a.7.7,0,0,1-.65-.75.71.71,0,0,1,.76-.64c.7,0,1.4.11,2.09.18a.7.7,0,0,1-.06,1.39Zm-30-.27a.7.7,0,0,1-.06-1.4l2.1-.15a.7.7,0,0,1,.75.65.71.71,0,0,1-.66.75l-2.08.15Zm23.05-.23h0l-2.09-.11a.69.69,0,0,1-.66-.72.7.7,0,0,1,.73-.67l2.1.1a.7.7,0,0,1,0,1.4Zm-16.07-.17a.69.69,0,0,1-.7-.67.7.7,0,0,1,.67-.73L475,294a.68.68,0,0,1,.71.69.7.7,0,0,1-.68.71l-2.09.06Zm9.08-.08h0l-2.09,0a.71.71,0,0,1-.69-.71.69.69,0,0,1,.7-.69h0l2.11,0a.7.7,0,0,1,0,1.4Zm268.78-4h-.1a.7.7,0,0,1-.6-.79c.1-.68.19-1.37.26-2.05a.71.71,0,0,1,.77-.63.7.7,0,0,1,.62.77c-.08.7-.16,1.41-.26,2.11A.7.7,0,0,1,750.8,291.38Zm.56-7h0a.69.69,0,0,1-.68-.71c0-.49,0-1,0-1.48v-.6a.69.69,0,0,1,.69-.7h0a.69.69,0,0,1,.69.69v.61c0,.51,0,1,0,1.51A.7.7,0,0,1,751.36,284.41Zm-.21-7a.71.71,0,0,1-.7-.64c-.05-.69-.12-1.38-.2-2.07a.7.7,0,1,1,1.39-.15q.12,1.05.21,2.1a.71.71,0,0,1-.64.76Zm-.92-6.93a.7.7,0,0,1-.69-.57c-.12-.68-.25-1.36-.4-2a.71.71,0,0,1,.54-.83.7.7,0,0,1,.83.54c.15.69.28,1.38.41,2.08a.69.69,0,0,1-.56.81Zm-1.56-6.81a.68.68,0,0,1-.67-.51c-.19-.67-.38-1.34-.58-2a.7.7,0,0,1,.47-.87.69.69,0,0,1,.87.46c.2.68.4,1.36.58,2a.68.68,0,0,1-.48.85ZM746.54,257a.7.7,0,0,1-.66-.46c-.24-.66-.48-1.3-.74-1.95a.71.71,0,0,1,.4-.91.69.69,0,0,1,.9.4c.26.66.51,1.31.75,2a.71.71,0,0,1-.65.94Zm-2.65-6.47a.72.72,0,0,1-.64-.41c-.28-.64-.58-1.27-.88-1.89a.7.7,0,0,1,1.26-.61c.31.64.6,1.28.9,1.92a.7.7,0,0,1-.35.92A.62.62,0,0,1,743.89,250.57Zm-3.11-6.26a.69.69,0,0,1-.61-.37c-.33-.61-.67-1.22-1-1.82a.7.7,0,0,1,1.22-.69c.35.61.69,1.23,1,1.84a.69.69,0,0,1-.28.95A.66.66,0,0,1,740.78,244.31Zm-3.59-6a.69.69,0,0,1-.58-.31c-.39-.57-.78-1.14-1.19-1.7a.7.7,0,0,1,1.13-.82c.42.57.82,1.15,1.22,1.74a.69.69,0,0,1-.19,1A.71.71,0,0,1,737.19,238.31Zm-4.28-5.52a.71.71,0,0,1-.52-.23c-.47-.51-.95-1-1.42-1.49a.69.69,0,0,1,0-1,.7.7,0,0,1,1,0c.5.49,1,1,1.48,1.54a.7.7,0,0,1-.52,1.17Zm-5.17-4.69a.7.7,0,0,1-.41-.14c-.55-.4-1.12-.79-1.69-1.16a.69.69,0,0,1-.22-1,.71.71,0,0,1,1-.22c.6.39,1.2.8,1.77,1.21a.71.71,0,0,1,.15,1A.7.7,0,0,1,727.74,228.1Zm-6-3.51a.75.75,0,0,1-.29-.06c-.62-.28-1.25-.55-1.9-.79a.71.71,0,0,1-.4-.91.71.71,0,0,1,.91-.4c.66.26,1.33.54,2,.83a.7.7,0,0,1-.29,1.33Zm-6.6-2.28-.17,0c-.66-.16-1.34-.32-2-.46a.7.7,0,0,1-.54-.83.69.69,0,0,1,.82-.54c.7.15,1.39.31,2.08.48a.7.7,0,0,1-.18,1.38Zm-6.87-1.26h-.08c-.68-.08-1.37-.15-2.06-.21a.7.7,0,1,1,.12-1.39c.71.06,1.41.13,2.11.22a.7.7,0,0,1-.09,1.39Zm-22.43,0a.69.69,0,0,1-.69-.65.7.7,0,0,1,.65-.75l1.49-.09a.7.7,0,1,1,.08,1.4l-1.48.09Zm6.38-.35a.69.69,0,0,1-.7-.67.7.7,0,0,1,.67-.73l2.1-.08a.71.71,0,0,1,.72.68.7.7,0,0,1-.68.72l-2.08.08Zm9.08-.1h0c-.69,0-1.38,0-2.08,0a.69.69,0,0,1-.69-.7.72.72,0,0,1,.7-.7l2.11,0a.7.7,0,0,1,0,1.4Z" transform="translate(-14.25 -163.44)"/><polygon class="cls-5" points="695.82 36.84 691.79 51.2 683.79 42.3 695.82 36.84"/><path class="cls-2" d="M647.8,173.9,677,218.82a3.78,3.78,0,0,0,5.34,1l44-31.05a1.5,1.5,0,0,0,.6-1.58,1.52,1.52,0,0,0-1.24-1.15Z" transform="translate(-14.25 -163.44)"/><polygon class="cls-5" points="695.82 36.84 633.55 10.46 688.73 41.88 687.78 45.91 695.82 36.84"/><polygon class="cls-5" points="684.51 44.83 691.79 51.2 688.73 41.88 684.51 44.83"/></svg>