<svg xmlns="http://www.w3.org/2000/svg" viewBox="0 0 292.27 188.82"><defs><style>.cls-1{fill:#87d4b3}</style></defs><g id="Layer_2" data-name="Layer 2"><g id="Layer_1-2" data-name="Layer 1"><path d="M280.18,59.71C271.61,55.51,260.45,57,255.3,65c-4.66,7.28-10.2,6.68-16.77,5.65-2.85-.45-5.73-.76-8.6-1.11l-55.75-6.87c-.17-1-.34-2-.51-3v-.1a42.16,42.16,0,0,0-2.4-14l-.33-2c3.94-1.81,8.34-3.53,12.43-5.81,5.17-2.88,8.92-3.84,14.39,1.05,8.15,7.29,21.05,4.7,28.18-3.93a21.25,21.25,0,0,0-1.62-28.69,20.92,20.92,0,0,0-29.23-.41c-6.62,6.12-8.09,13.78-6.26,22.63l-20.66,9.53a55.43,55.43,0,0,0-3.63-4.63,42.41,42.41,0,0,0-69.68,4.37,51.18,51.18,0,0,0-6.24,14.61l-13.9-1c-.51-2.44-.72-4.27-1.28-6-3-9.27-12.61-15.76-21.85-14.9-9.54.88-17.67,8.12-19.23,17.13C30.59,57.6,35.2,66.89,44.09,71.14s20.52,2.42,25.27-6.32c5.44-10,12.27-6.63,19-5.69.14.61.27,1.2.4,1.79a42,42,0,0,0,3.54,15.62c.18.83.37,1.67.56,2.51-16,9.44-32.18,18.81-48.16,28.44-4.34,2.62-7.51,4-12.46.19-6.83-5.26-15-4.84-22.2-.06s-11.2,11.85-9.8,20.89C2.06,140,12.2,148.07,23.12,147c11.68-1.13,19.42-10.49,19.27-22.84,0-3,0-7.72,1.7-8.81,17.32-10.81,35-21,52.32-31.24l.65.59a42.81,42.81,0,0,0,12.78,11.48l1.06,1-4.42,10.47-.2-.09c-4.41,10.26-8.82,19.85-12.53,29.7-2.32,6.17-4.65,9.73-12.54,9.62-11.08-.15-19.36,10-19.31,20.95.06,10.05,8.33,19.53,18.18,20.83a21.38,21.38,0,0,0,23.92-16c2.53-9.73-1.77-16.94-8.49-23,6.58-15.68,13.08-31.15,19.71-46.53a6.33,6.33,0,0,1,3.58-2.91A42.39,42.39,0,0,0,166,83.82c10.11,5.88,19.44,11.7,29.16,16.8,5.84,3.06,9.08,5.81,8,13.63-1.52,11,7.52,20.44,18.42,21.73,10,1.18,20.4-5.86,22.9-15.48a21.4,21.4,0,0,0-12.95-25.71c-9.52-3.76-17.3-.21-24.26,5.9L169.18,78.51a42.32,42.32,0,0,0,3.45-9.67L248.88,78c.63,2.49,1.11,4.81,1.8,7.06,3,9.63,11.27,15.33,21.57,14.91,9.26-.38,17.92-7.71,19.61-16.59A21.61,21.61,0,0,0,280.18,59.71ZM209.27,6.43c8.58-.11,14.94,6.05,15.06,14.59s-6,15.12-14.35,15.34a15.22,15.22,0,0,1-15.83-15A15.14,15.14,0,0,1,209.27,6.43ZM53.13,66.63A14.63,14.63,0,0,1,38,51.77,15.39,15.39,0,0,1,53.1,36.63a15.22,15.22,0,0,1,15,15.11C68.15,60.26,61.76,66.61,53.13,66.63ZM21.26,140.68c-8.5,0-15.6-7.32-15.21-15.65s7-14.4,15.61-14.29,14.58,6.39,14.49,15.1A14.53,14.53,0,0,1,21.26,140.68Zm76.87,24.6c1.24,8.54-4.74,16.51-13.07,17.41a15.2,15.2,0,0,1-16.57-13.25,15,15,0,0,1,29.64-4.16ZM223.56,99.72c8.62-.18,15.8,6.73,15.66,15.11A15.17,15.17,0,0,1,224,129.64a15,15,0,0,1-.48-29.92ZM133.69,71.63h0c-11.28,0-20.5,4.25-26.28,12a33.89,33.89,0,0,1-10-24.3c0-19.27,14.65-33.95,33.92-34A33.83,33.83,0,0,1,155,83.47C149.46,76.19,141.82,71.91,133.69,71.63Zm17.62,15a34.18,34.18,0,0,1-40.12.23,27.61,27.61,0,0,1,2-2.52,24.64,24.64,0,0,1,38.09,2.29ZM271,93.76a15.08,15.08,0,0,1-15.29-14.64c-.18-8.13,7.4-15.68,15.52-15.46,8.29.22,14.55,6.81,14.52,15.31C285.75,87.63,279.69,93.7,271,93.76Z" class="cls-1"/><path d="M131.43,37h0A15.19,15.19,0,0,0,131,67.4h.22a15.19,15.19,0,0,0,.2-30.38Zm-.13,25.6h-.41a10.4,10.4,0,0,1,.24-20.8h.27a10.4,10.4,0,0,1-.1,20.79Z" class="cls-1"/></g></g></svg>