<svg xmlns="http://www.w3.org/2000/svg" xmlns:xlink="http://www.w3.org/1999/xlink" viewBox="0 0 392.48 282.96"><defs><style>.cls-1,.cls-4{fill:#3b3b3b}.cls-1{opacity:.12}.cls-2,.cls-24,.cls-28,.cls-29{fill:#55bfbc}.cls-2{opacity:.17}.cls-3{opacity:.53}.cls-5{fill:#e85e5e}.cls-6{fill:#a52121}.cls-7{fill:#ddb36f}.cls-8{fill:#acc0e1}.cls-23,.cls-25,.cls-9{fill:#fff}.cls-10{fill:#623e3b}.cls-11{fill:#ecca87}.cls-12{fill:#54516e}.cls-13{fill:#29abe2}.cls-14{fill:#1c59d3}.cls-15,.cls-16{fill-rule:evenodd}.cls-15{fill:url(#linear-gradient)}.cls-16{fill:url(#linear-gradient-2)}.cls-17{fill:#23b023}.cls-18{fill:#51a601;opacity:.7}.cls-19{fill:#d9e021}.cls-20,.cls-22{fill:#4c7968}.cls-21{fill:#87d4b3}.cls-22{opacity:.2}.cls-23,.cls-25{stroke:#87d4b4;stroke-miterlimit:10;stroke-width:3px}.cls-23{opacity:.8}.cls-26{fill:#258787}.cls-27{opacity:.29}.cls-28{opacity:.55}.cls-29{opacity:.68}</style><linearGradient id="linear-gradient" x1="172.8" x2="241.16" y1="250.23" y2="250.23" gradientUnits="userSpaceOnUse"><stop offset=".04" stop-color="#a9dba9"/><stop offset="1" stop-color="#88db88"/></linearGradient><linearGradient id="linear-gradient-2" x1="206.98" x2="206.98" y1="200.99" y2="235.35" gradientUnits="userSpaceOnUse"><stop offset="0" stop-color="#e5ffe5"/><stop offset="1" stop-color="#b5e8b5"/></linearGradient></defs><title>Customer Hub copy (5)</title><g id="Layer_2" data-name="Layer 2"><g id="Website"><g id="Customer_Hub_copy" data-name="Customer Hub copy"><rect width="63.2" height="88.89" x="249.24" y="7.89" class="cls-1" rx="12" ry="12"/><path d="M339.11,110.61a55.52,55.52,0,0,0-80.9-61.26A97.55,97.55,0,0,0,79.08,72.67a88,88,0,0,0,34.63,168.87h201.9a67.57,67.57,0,0,0,23.5-130.93Z" class="cls-2"/><g class="cls-3"><path d="M112.93,55h38.72a.78.78,0,0,1,0,1.52H112.93a.78.78,0,0,1,0-1.52Z" class="cls-4"/><path d="M151.65,67.21h-27a.79.79,0,0,1,0-1.52h27a.78.78,0,0,1,0,1.52Z" class="cls-4"/><path d="M151.65,76.35H134.56a4.83,4.83,0,0,1,0,.76h0a3.88,3.88,0,0,1-.11.75h17.17a.78.78,0,0,0,0-1.52Z" class="cls-4"/><path d="M151.65,87H131.3v1.52h20.35a.78.78,0,0,0,0-1.52Z" class="cls-4"/></g><rect width="63.2" height="88.89" x="253.05" y="4.84" class="cls-5" rx="12" ry="12"/><path d="M307.38,61.43A2.44,2.44,0,0,1,305,63.87H265.09a2.43,2.43,0,0,1-2.41-2.44V20.94a2.43,2.43,0,0,1,2.41-2.44H305a2.44,2.44,0,0,1,2.41,2.44Z" class="cls-6"/><path d="M289.54,44.94v5.32c1.54,1.14,2.67,1,5.44,3.64.72,2.09,3,5.84,4.11,8S268.63,54.3,270,53.49s7.19-3.65,10.37-4.17v-12Z" class="cls-7"/><polygon points="291.65 51.45 297.72 61.09 297.5 63.88 280.9 63.88 280.9 53.09 289.54 55.73 291.65 51.45" class="cls-8"/><path d="M280.93,51.51c2.08,2.18,8.76,3.86,10,.7.88,1.84,1.66,3.9,1.66,3.9-2.12,2.57-8.8,1.52-10.91-.49A26.49,26.49,0,0,1,280.93,51.51Z" class="cls-9"/><path d="M291.34,24.63c6.08,3.21,5.62,7,5.24,9.78s-.31,13.37-1.23,14.46a22.17,22.17,0,0,1-5.81-.94V32.86l1.8-8.23" class="cls-10"/><path d="M294.63,29.21c1,2.44-.5,5.32-.37,7.39.11,1.56-.61,6.35-2.36,9-7-.45-10.37-.84-12.42-7.72s-.72-9.17,2.57-11.46S292.42,23.78,294.63,29.21Z" class="cls-11"/><path d="M292.57,29a29.1,29.1,0,0,1-10.47,5.71V49.1s-4.78-.39-6.39-1.56-1.93-17,.61-18.92,8.94-7.19,15-4,5.62,7,5.24,9.78C296.58,34.41,292.88,30.11,292.57,29Z" class="cls-10"/><path d="M289.54,50.26c1.54,1.14,2.67,1,5.44,3.64A10,10,0,0,1,299,57.79a52,52,0,0,1,2.58,6.08h-5.91c0-.61,0-1.16,0-1.62C295.36,57.45,289.54,50.26,289.54,50.26Z" class="cls-12"/><path d="M264.66,63.83c.44-3.51.95-6.47,1.58-7.11A16.34,16.34,0,0,1,270,53.49c1.44-.84,7.19-3.65,10.37-4.17,0,0,5.53,8.5,6.88,14.55H265.09A2,2,0,0,1,264.66,63.83Z" class="cls-12"/><path d="M363.08,91.59H277.61A1.54,1.54,0,0,0,276,92.94v45.24a1.54,1.54,0,0,0,1.66,1.36h85.47a1.54,1.54,0,0,0,1.66-1.36V92.94A1.54,1.54,0,0,0,363.08,91.59Z" class="cls-1"/><path d="M366.88,87.78H281.42a1.53,1.53,0,0,0-1.66,1.36v45.24a1.53,1.53,0,0,0,1.66,1.35h85.46a1.54,1.54,0,0,0,1.67-1.35V89.14A1.54,1.54,0,0,0,366.88,87.78Z" class="cls-13"/><path d="M289.45,118.53v-20a2.81,2.81,0,0,0,.08-.31,5,5,0,0,1,3.55-3.81c.22-.07.44-.11.66-.17h20l.17,0a5,5,0,0,1,4,3.67c.06.19.1.38.15.57v20a1.41,1.41,0,0,0-.06.22,5,5,0,0,1-3.64,3.92c-.19.06-.39.1-.59.15h-5.52c0-.09,0-.17,0-.25V112h.3c1.39,0,2.79,0,4.19,0,.2,0,.27,0,.27-.26,0-1.41,0-2.83,0-4.24,0-.08,0-.16,0-.27h-4.72c0-.74,0-1.45,0-2.15a1,1,0,0,1,1.13-1h3.58V99.34h-3.73a4.84,4.84,0,0,0-2.82.89,6,6,0,0,0-2.53,4.16,20.64,20.64,0,0,0-.1,2.61,2.62,2.62,0,0,0,0,.29h-3.47a1.24,1.24,0,0,0,0,.18c0,1.45,0,2.9,0,4.35,0,.2.08.22.24.22h3.25v10.78h-10l-.19-.06a5,5,0,0,1-3.95-3.64C289.54,118.93,289.5,118.73,289.45,118.53Z" class="cls-14"/><rect width="103.25" height="77" x="60.72" y="45" class="cls-1" rx="12" ry="12"/><path d="M241.16,265.1c0,9.59-15.3,17.36-34.18,17.36s-34.18-7.77-34.18-17.36V218h68.36Z" class="cls-15"/><path d="M241.16,218c0,9.59-15.3,17.36-34.18,17.36S172.8,227.58,172.8,218s15.31-17.36,34.18-17.36S241.16,208.4,241.16,218Z" class="cls-16"/><path d="M207,266.81c-19.12,0-34.68-8-34.68-17.86h1c0,9.29,15.11,16.86,33.68,16.86s33.68-7.57,33.68-16.86h1C241.66,258.8,226.11,266.81,207,266.81Z" class="cls-17"/><path d="M207,283c-19.12,0-34.68-8-34.68-17.86h1c0,9.3,15.11,16.86,33.68,16.86s33.68-7.56,33.68-16.86h1C241.66,275,226.11,283,207,283Z" class="cls-17"/><path d="M207,250.66c-19.12,0-34.68-8-34.68-17.86h1c0,9.29,15.11,16.86,33.68,16.86s33.68-7.57,33.68-16.86h1C241.66,242.64,226.11,250.66,207,250.66Z" class="cls-17"/><path d="M123.58,175.19V115.92a4.15,4.15,0,0,0-4.14-4.14H11a4.16,4.16,0,0,0-4.15,4.14v67.35A4.16,4.16,0,0,0,11,187.41H111.36Z" class="cls-1"/><rect width="103.25" height="77" x="56.91" y="40.44" class="cls-18" rx="12" ry="12"/><path d="M65.69,89.84A2.27,2.27,0,0,0,68,92.11H105.4a2.27,2.27,0,0,0,2.26-2.27V52.4a2.27,2.27,0,0,0-2.26-2.26H68a2.27,2.27,0,0,0-2.26,2.26Z" class="cls-19"/><path d="M82.43,74.59v4.92c-1.44,1.06-2.5,1-5.11,3.37a77.75,77.75,0,0,1-3.85,7.43c-1.06,2,28.6-7.06,27.28-7.81S94,79.13,91,78.64V67.53Z" class="cls-7"/><polygon points="80.45 80.62 74.75 89.53 74.97 92.11 90.54 92.11 90.54 82.13 82.43 84.57 80.45 80.62" class="cls-8"/><path d="M90.52,80.67c-2,2-8.22,3.57-9.36.65-.82,1.7-1.55,3.6-1.55,3.6,2,2.38,8.26,1.41,10.24-.44A23.73,23.73,0,0,0,90.52,80.67Z" class="cls-9"/><path d="M80.75,55.81c-5.71,3-5.28,6.44-4.92,9S76.12,77.22,77,78.23a21.19,21.19,0,0,0,5.44-.87V63.42l-1.68-7.61" class="cls-10"/><path d="M77.65,60.05c-.93,2.25.48,4.91.35,6.83a17.19,17.19,0,0,0,2.22,8.29c6.6-.41,9.73-.78,11.66-7.14s.68-8.48-2.41-10.6S79.73,55,77.65,60.05Z" class="cls-11"/><path d="M79.59,59.87a27.67,27.67,0,0,0,9.83,5.27V78.45s4.49-.37,6-1.45,1.81-15.76-.58-17.5-8.38-6.65-14.09-3.69-5.28,6.44-4.92,9C75.83,64.85,79.3,60.88,79.59,59.87Z" class="cls-10"/><path d="M82.43,79.51c-1.44,1.06-2.5,1-5.11,3.37a9.34,9.34,0,0,0-3.8,3.6,48.36,48.36,0,0,0-2.43,5.63h5.55c0-.57,0-1.08,0-1.51C77,86.16,82.43,79.51,82.43,79.51Z" class="cls-12"/><path d="M105.79,92.06c-.4-3.24-.88-6-1.48-6.57a15.34,15.34,0,0,0-3.56-3C99.4,81.73,94,79.13,91,78.64c0,0-5.19,7.87-6.45,13.47H105.4A1.74,1.74,0,0,0,105.79,92.06Z" class="cls-12"/><path d="M116.73,169.86V110.59a4.16,4.16,0,0,0-4.15-4.14H4.14A4.15,4.15,0,0,0,0,110.59v67.35a4.15,4.15,0,0,0,4.14,4.14H104.51Z" class="cls-20"/><path d="M7.49,157.11a2.46,2.46,0,0,0,2.44,2.48H50.29a2.46,2.46,0,0,0,2.44-2.48v-41a2.46,2.46,0,0,0-2.44-2.48H9.93a2.46,2.46,0,0,0-2.44,2.48Z" class="cls-21"/><path d="M25.54,140.42v5.39C24,147,22.84,146.86,20,149.5c-.73,2.11-3,5.91-4.16,8.12s30.83-7.72,29.41-8.54-7.27-3.69-10.49-4.22V132.69Z" class="cls-7"/><polygon points="23.4 147.02 17.26 156.77 17.49 159.59 34.28 159.59 34.28 148.68 25.54 151.34 23.4 147.02" class="cls-8"/><path d="M34.26,147.07c-2.11,2.21-8.87,3.91-10.09.71-.89,1.87-1.68,3.95-1.68,3.95,2.15,2.6,8.91,1.54,11.05-.49A27.92,27.92,0,0,0,34.26,147.07Z" class="cls-9"/><path d="M23.72,119.87c-6.16,3.25-5.69,7-5.3,9.9s.31,13.53,1.24,14.63a22.5,22.5,0,0,0,5.88-1V128.2l-1.82-8.33" class="cls-10"/><path d="M20.39,124.51c-1,2.46.5,5.37.37,7.47-.11,1.58.62,6.44,2.39,9.07,7.12-.45,10.49-.84,12.57-7.81s.73-9.28-2.6-11.6S22.63,119,20.39,124.51Z" class="cls-11"/><path d="M22.47,124.31c3,2.76,8.5,5.38,10.6,5.77v14.56s4.83-.4,6.47-1.58,2-17.25-.62-19.15-9-7.28-15.2-4-5.69,7-5.3,9.9C18.42,129.77,22.16,125.41,22.47,124.31Z" class="cls-10"/><path d="M25.54,145.81C24,147,22.84,146.86,20,149.5c-1.54.6-2.86,2.11-4.1,3.93a52.47,52.47,0,0,0-2.62,6.16h6c0-.62,0-1.18.06-1.65C19.65,153.08,25.54,145.81,25.54,145.81Z" class="cls-12"/><path d="M50.72,159.55c-.44-3.55-1-6.55-1.6-7.2a16.31,16.31,0,0,0-3.84-3.27c-1.45-.85-7.27-3.69-10.49-4.22,0,0-5.6,8.6-7,14.73H50.29A3,3,0,0,0,50.72,159.55Z" class="cls-12"/><circle cx="346.18" cy="28.87" r="22.57" class="cls-22"/><circle cx="346.18" cy="24.94" r="22.57" class="cls-23"/><path d="M342,31.22a5,5,0,0,1-4.58-3.47,9.48,9.48,0,0,0,1.06,0,7.81,7.81,0,0,0,1.07-.13,5.09,5.09,0,0,1-3.91-5,5.69,5.69,0,0,0,2.24.56,5.08,5.08,0,0,1-2.08-3.05,5,5,0,0,1,.55-3.62,14.37,14.37,0,0,0,10.33,5.23c0-.32-.08-.61-.09-.9a5,5,0,0,1,6-5.16,4.66,4.66,0,0,1,2.49,1.34.33.33,0,0,0,.34.1,10.33,10.33,0,0,0,2.8-1.07l.1-.05h.07a5.23,5.23,0,0,1-2.05,2.67,9.44,9.44,0,0,0,2.74-.73A10.5,10.5,0,0,1,357,20.26l-.07,0a.77.77,0,0,0-.37.81,13.88,13.88,0,0,1-1.07,5.54,14.4,14.4,0,0,1-2.25,3.82A13.75,13.75,0,0,1,350.63,33a13.4,13.4,0,0,1-3.57,1.83,13.85,13.85,0,0,1-3.43.7,14.92,14.92,0,0,1-4.22-.24A13.18,13.18,0,0,1,336,34.06c-.45-.23-.89-.47-1.33-.74a11.09,11.09,0,0,0,3.85-.35A9.19,9.19,0,0,0,342,31.22Z" class="cls-24"/><circle cx="160.28" cy="39.26" r="24.78" class="cls-22"/><circle cx="160.28" cy="35.33" r="24.78" class="cls-25"/><rect width="25.26" height="14.74" x="147.65" y="27.57" class="cls-24"/><polygon points="147.65 27.96 160.28 35.33 172.91 27.96 172.91 27.57 172.91 27.57 172.25 27.57 160.28 34.55 148.32 27.57 147.65 27.57 147.65 27.96" class="cls-9"/><circle cx="59.43" cy="202.69" r="25.79" class="cls-22"/><circle cx="59.43" cy="198.55" r="25.79" class="cls-25"/><path d="M56.33,209.05l3.1,3.13,3.11-3.13a4.41,4.41,0,0,0-6.21,0Zm3.1-20.26A23.32,23.32,0,0,0,43,195.57l3.11,3.13a18.94,18.94,0,0,1,26.69,0l3.1-3.13A23.29,23.29,0,0,0,59.43,188.79ZM49.5,202.15l3.1,3.13a9.71,9.71,0,0,1,13.66,0l3.1-3.13a14.1,14.1,0,0,0-19.86,0Z" class="cls-24"/><circle cx="361.81" cy="149.41" r="29.17" class="cls-22" transform="translate(0.32 299.6) rotate(-45)"/><circle cx="361.81" cy="144.73" r="29.17" class="cls-25" transform="translate(213.75 505.19) rotate(-89.47)"/><path d="M363,128a12.31,12.31,0,0,0-12.31,12.3c0,3,2.46,7.16,2.46,7.16.26.44.68,1.16.93,1.61l8.46,15c.25.45.66.45.91,0l8.46-15c.25-.45.67-1.17.93-1.61,0,0,2.46-4.12,2.46-7.16A12.3,12.3,0,0,0,363,128Zm0,16.7a4.4,4.4,0,1,1,4.39-4.4A4.4,4.4,0,0,1,363,144.68Z" class="cls-26"/><g class="cls-3"><path d="M100.28,119.72H66.21c-.29,0-.52.34-.52.76s.23.76.52.76h34.07c.28,0,.51-.34.51-.76S100.56,119.72,100.28,119.72Z" class="cls-9"/><path d="M66.21,131.9H90c.29,0,.52-.34.52-.76s-.23-.76-.52-.76H66.21c-.29,0-.52.34-.52.76S65.92,131.9,66.21,131.9Z" class="cls-9"/><path d="M66.21,142.56H82.73c.28,0,.51-.34.51-.76S83,141,82.73,141H66.21c-.29,0-.52.34-.52.76S65.92,142.56,66.21,142.56Z" class="cls-9"/></g><g class="cls-27"><path d="M263.69,71.78h23.64c.41,0,.74-.18.74-.41s-.33-.41-.74-.41H263.69c-.41,0-.74.18-.74.41S263.28,71.78,263.69,71.78Z" class="cls-4"/></g><path d="M194,191c-.06-.37-.1-.74-.18-1.11l-1.21-5.31a71.64,71.64,0,0,0-6.15-15.54,55.48,55.48,0,0,0-10.34-13.51,56.44,56.44,0,0,0-13.89-9.77l-.57-.28-.57-.27a68.15,68.15,0,0,0-8.26-3.32,77.46,77.46,0,0,0-8.54-2.18,78.8,78.8,0,0,0-16.89-1.46v12.08A66.83,66.83,0,0,1,142,151.59a65.47,65.47,0,0,1,7.14,1.82,58.31,58.31,0,0,1,6.75,2.71l.46.23.46.22a43.77,43.77,0,0,1,19.11,18.35,60,60,0,0,1,5,12.76l1,4.52c.06.32.1.64.16,1l-3.92.71q1.53,1.66,3.07,3.46c1,1.21,1.91,2.48,2.88,3.77l1.43,2,1.31,2.05c.88,1.38,1.75,2.79,2.63,4.23.79-1.44,1.59-2.92,2.38-4.43l1.18-2.29,1-2.34c.69-1.58,1.42-3.2,2.05-4.86s1.17-3.36,1.74-5.1Z" class="cls-28"/><path d="M200.84,157.58V117c0-.61,0-1.15,0-1.81l-.05-2c0-.66-.07-1.33-.13-2s-.09-1.34-.19-2l-.16-1.1-.16-1.1a34.37,34.37,0,0,0-3.08-9.47,25.71,25.71,0,0,0-6.69-8.3,27.2,27.2,0,0,0-4.54-2.89,28.73,28.73,0,0,0-4.91-1.86,33,33,0,0,0-10-1.09h-.13V95.5l.66,0a20.52,20.52,0,0,1,6.25.67,16.85,16.85,0,0,1,2.74,1,15.61,15.61,0,0,1,2.35,1.49,13.74,13.74,0,0,1,3.5,4.39,22.09,22.09,0,0,1,1.93,6.06l.11.79.12.79c.08.48.09,1,.14,1.5s.1,1,.1,1.53l0,1.55c0,.52,0,1.16,0,1.74v40.58h-4l10,17.34,10-17.34Z" class="cls-29"/><path d="M265.17,108.25H265l-.49,0-.54,0a68.18,68.18,0,0,0-8.15.38,69.6,69.6,0,0,0-8,1.34l-.41.09-.41.1a59.77,59.77,0,0,0-11.53,4V83.2l0-2,0-1,.07-1a38,38,0,0,1,1.14-7.51,21,21,0,0,1,2.68-6.21,12.19,12.19,0,0,1,4.25-4l.55-.27a4.58,4.58,0,0,1,.46-.2V48.45a24.48,24.48,0,0,0-4.5,1.36c-.39.17-.77.33-1.15.51l-1.12.57a24.24,24.24,0,0,0-8.52,7.86,32.91,32.91,0,0,0-4.33,9.83,51.19,51.19,0,0,0-1.52,9.84l-.08,1.21,0,1.2,0,2.37v38.55c-.47.4-.94.81-1.4,1.23a48.52,48.52,0,0,0-9,11.24,56.09,56.09,0,0,0-5.52,13.06c-.34,1.12-.55,2.26-.83,3.39l-.39,1.7c-.11.57-.19,1.14-.29,1.71l-.54,3.41-.32,3.4-.15,1.71c0,.56,0,1.13-.06,1.69l-.1,3.39c0,.58,0,1.1,0,1.63v20.53h-4l10,17.34,10-17.34h-4V169.31c0-.53,0-1.07,0-1.54l.09-3c0-.49,0-1,0-1.47l.14-1.46.27-2.9.45-2.85c.08-.48.15-.95.24-1.42l.32-1.39c.23-.92.4-1.87.68-2.77a44.29,44.29,0,0,1,4.3-10.22v40.75h-4l10,17.34,10-17.34h-4V127.83a47,47,0,0,1,14.34-6l.33-.07.34-.08a58.44,58.44,0,0,1,6.59-1.1,52.84,52.84,0,0,1,6.59-.32l.82,0h3.81V108.25Z" class="cls-29"/></g></g></g></svg>