<svg id="Layer_1" data-name="Layer 1" xmlns="http://www.w3.org/2000/svg" xmlns:xlink="http://www.w3.org/1999/xlink" viewBox="0 0 500 400"><defs><linearGradient id="linear-gradient" x1="380.07" y1="348.47" x2="425.45" y2="348.47" gradientUnits="userSpaceOnUse"><stop offset="0.37" stop-color="#3fa9f5"/><stop offset="1" stop-color="#fff"/></linearGradient><linearGradient id="linear-gradient-2" x1="66.58" y1="34" x2="122.71" y2="34" xlink:href="#linear-gradient"/><linearGradient id="linear-gradient-3" x1="327.38" y1="333.16" x2="272.62" y2="22.6" xlink:href="#linear-gradient"/><linearGradient id="linear-gradient-4" x1="275.68" y1="361.65" x2="229.07" y2="29.95" xlink:href="#linear-gradient"/><linearGradient id="linear-gradient-5" x1="125.82" y1="185.31" x2="458" y2="185.31" xlink:href="#linear-gradient"/><linearGradient id="linear-gradient-6" x1="45.09" y1="60.09" x2="65.41" y2="60.09" xlink:href="#linear-gradient"/><clipPath id="clip-path"><path d="M165.64,200.72c0,.87-2.77,1.54-6,1.54s-5.86-.6-5.91-1.5h-1l.09,4.75,13.58,0v-4.76Z" style="fill:none"/></clipPath><clipPath id="clip-path-2"><path d="M165.64,196.62c0,.88-2.77,1.56-6,1.56s-5.86-.59-5.91-1.5h-1v4.75l13.67,0v-4.78Z" style="fill:none"/></clipPath><clipPath id="clip-path-3"><path d="M165.64,192.53c0,.88-2.77,1.57-6,1.57s-5.86-.58-5.91-1.49l-1,0v4.75l13.67,0v-4.8Z" style="fill:none"/></clipPath></defs><g style="opacity:0.800000011920929"><path d="M404.6,337.1c6.3-1.8,14.2-2.3,18.5,2.7,3.7,4.4,2.8,11.5-1.1,15.7s-10,5.8-15.7,5.6c-4.7-.2-25.5-3.9-26.2-9.1C379.2,345.3,400.1,338.4,404.6,337.1Z" style="opacity:0.379999995231628;isolation:isolate;fill:url(#linear-gradient)"/><path d="M93.6,17.8a43.24,43.24,0,0,0-15,3.5A21.07,21.07,0,0,0,67.8,31.9a14.88,14.88,0,0,0,1.6,14.7c5,6.2,10.7,4.6,15.9-.2,6.4-6,13.9-11.3,22.8-13.1,5.2-1,19.5-2.7,12.9-11.3C116.5,16.1,100,17.3,93.6,17.8Z" style="opacity:0.379999995231628;isolation:isolate;fill:url(#linear-gradient-2)"/><path d="M350.8,320.4a51.17,51.17,0,0,0,26.4,3.8c40.3-4.5,66.5-36.6,75.4-74.2,6.5-27.9,6-57.2,5.5-85.7-1-53.9-22.8-101.7-75.6-121.6-46.1-17.4-98.6-20.6-147-13.4C189.2,36.2,121,53.4,126,113.3c3.4,39.6,40.2,59.1,71.9,74.4,26.5,12.8,53,24.9,79.9,36.9,32.5,14.5,36.4,32.8,45.8,64C328.3,303.5,338,314.8,350.8,320.4Z" style="opacity:0.379999995231628;isolation:isolate;fill:url(#linear-gradient-3)"/><path d="M278.4,358.7c-49.8-.2-99-16.7-140.7-44-50.3-33-91.3-84.5-92.6-147.2-1-46.7,18-100.9,65.1-118.7A95.53,95.53,0,0,1,145.3,43c23.6.3,45.8,6.3,65.2,20,15.3,10.9,27.7,25.7,44.3,34.8,45.1,24.9,65.4-.5,129.5,26.7,22.9,9.7,47,20.3,60.5,41.3,23.6,36.8,13.7,86.9-9.4,121.6C401.3,338.4,337.3,358.9,278.4,358.7Z" style="opacity:0.379999995231628;isolation:isolate;fill:url(#linear-gradient-4)"/><path d="M458,206.2a87.06,87.06,0,0,0-13.2-40.5c-13.4-21-37.6-31.6-60.5-41.3-64.1-27.3-84.4-1.8-129.5-26.7-16.6-9.1-29-24-44.3-34.8A103.69,103.69,0,0,0,172.3,46c-27.6,12.4-49.2,32.7-46.2,67.3,3.4,39.6,40.2,59.1,71.9,74.4,26.5,12.8,53,24.9,79.9,36.9,32.5,14.5,36.4,32.8,45.8,64,4.6,15,14.3,26.2,27.1,31.9a51.17,51.17,0,0,0,26.4,3.8,79.48,79.48,0,0,0,45.9-21.2,134.34,134.34,0,0,0,12.2-15.7,143.75,143.75,0,0,0,15.8-31.9c.5-1.8,1-3.6,1.4-5.4A231.25,231.25,0,0,0,458,206.2Z" style="opacity:0.379999995231628;isolation:isolate;fill:url(#linear-gradient-5)"/><path d="M45.1,60.6a10.24,10.24,0,0,1,2.9-8,9,9,0,0,1,8.2-1.7A13,13,0,0,1,63.1,56a11.44,11.44,0,0,1,2.3,6.1A7.24,7.24,0,0,1,63,68c-1.9,1.5-4.6,1.7-7.1,1.6C48.5,69.3,45.4,68.8,45.1,60.6Z" style="opacity:0.379999995231628;isolation:isolate;fill:url(#linear-gradient-6)"/></g><path d="M164.5,367.5c0-.1-4.1-9.5.4-16.8l.3.2c-4.4,7.2-.5,16.4-.4,16.5Z" style="fill:#7fccc5"/><g id="Man_01"><polyline points="51.2 367.2 51.7 366.1 48.8 366.1 48.5 367.2" style="fill:#f7a890"/><polygon points="74 366.9 70.4 366.9 70.4 368 74.2 368 74 366.9" style="fill:#f7a890"/><polygon points="79.5 371.1 79.5 370.3 74.5 368.8 74.5 368 74.2 368 70.2 368 70.2 371 79.5 371.1" style="fill:#2c151a"/><polygon points="55.7 371.1 55.7 370.1 53.2 369.3 51.6 367.1 48.3 367.1 48.3 369.3 51.8 371.1 55.7 371.1" style="fill:#2c151a"/><path d="M74.2,367.6H70.4s-6.1-35.2-9.8-37.6c0,0,3.7-5.1,8.4-1.3C69,328.7,72.5,337.6,74.2,367.6Z" style="fill:#233269"/><path d="M68.9,330.9s-9.3,25.7-17.5,36l-3.1-.1s2.6-6.1,4.8-11.2a45.48,45.48,0,0,0,3.6-21.5,13.76,13.76,0,0,0-1-4.6C53.9,326.2,70.8,323.7,68.9,330.9Z" style="fill:#273b80"/><path d="M57.4,291.7l.3,1.2v.3l-.1.2c-.1.1-.2.2-.1.3l.5,1c.1.2.5.9.2,1.1l-.5.1c-.1.1.1.2.1.4h0a.6.6,0,0,1-.1.4l-.1.1c-.1.1-.2.3-.1.4h0a.37.37,0,0,1-.1.3l-.2.3v.1l-.3.8c0,.1-.1.1-.2.2l-.7.4c-.1,0-.1.1-.2.1l-.5.1a.27.27,0,0,0-.3.3c-.2.7.5,2.2.1,2.2l-4.8-.4c-.5.1-.5-.8-.6-1.3l-.3-4.7v-.1l-1-4c0-.2,0-.3.1-.4l2.6-2.1c.1-.1.2-.1.4-.1l4.3,1.1c.1,0,.1.1.2.1l1.2,1.4C57.4,291.6,57.4,291.6,57.4,291.7Z" style="fill:#f7a890"/><path d="M54,294.1l.6-1.9a.68.68,0,0,1,.6-.4l2.1-.1a.37.37,0,0,0,.3-.1l.5-.4c.2-.3.7-1.3-.1-1.8l-1.6-.9a15.19,15.19,0,0,0-2-.6l-2-.1a9.36,9.36,0,0,0-1.6.4l-1.4.8a3.24,3.24,0,0,0-.8.9l-.6,1.9a.45.45,0,0,0,0,.5l1.4,4.9c0,.1.1.9.2.9h0l1.1-.5c.5-.2.6-.9.6-1.3l-.1-2.5a.37.37,0,0,1,.1-.3h0a.62.62,0,0,1,1.1,0l.2.4a.35.35,0,0,0,.1.2l.2,4.1a.66.66,0,0,0,.4.5l2.2,1.1a.63.63,0,0,0,.8-.2l.7-1.7-2.3-1.2a.78.78,0,0,1-.4-.4l-.4-1.8C54,294.4,54,294.3,54,294.1Z" style="fill:#3e296c"/><path d="M76.1,317.6h2.1a1.14,1.14,0,0,1,.8.3l.8.6a1.24,1.24,0,0,1,.4,1.4h0a1.22,1.22,0,0,1-.9.8,10.7,10.7,0,0,1-2.3.5,11.07,11.07,0,0,1-1.7-1.1,1.42,1.42,0,0,1-.5-1.6l.1-.2A1.39,1.39,0,0,1,76.1,317.6Z" style="fill:#f69883"/><path d="M74.8,319.8l1-2.4s-12.5-6.5-17.6-11.1c0,0-6.2-6.7-8-3.3a2.87,2.87,0,0,0,.1,2.7C51.8,307.9,56.8,313,74.8,319.8Z" style="fill:#3a6bb3"/><path d="M64.9,310.7s-4.5-8.8-12.2-10.6a3.13,3.13,0,0,0-3.7,2.2c-.6,2-.7,5.4,1.4,10.7,0,0,2.8,5.2,3.6,15.7,0,0,.1,2.8,7.3,2.2,0,0,8.6-.4,9-1.1S67.6,314.8,64.9,310.7Z" style="fill:#79acdc"/><path d="M137.9,308.5h0a1.2,1.2,0,0,0,1.4-.9h0v-.1l1.4-9.2v-.1h0a1.13,1.13,0,0,0-.9-1.3h0l-6.9-1.4a2.21,2.21,0,0,1-1.6-1.5,61.29,61.29,0,0,0-1.8-6.1,2,2,0,0,1,.6-2.1l5.6-4.9.1-.1h0a1.1,1.1,0,0,0,.3-1.5v-.1l-5.2-7.8v-.1a1.1,1.1,0,0,0-1.5-.3h-.1l-6.6,3.5a3.25,3.25,0,0,1-3.3-.1,54.27,54.27,0,0,0-5.1-2.9,1.61,1.61,0,0,1-.8-1.7l1.1-7v-.1h0a1.13,1.13,0,0,0-.9-1.3h0l-9.3-1.9h0a1.13,1.13,0,0,0-1.3.9h0l-1.6,7.6a1.59,1.59,0,0,1-1.4,1.3c-1.5.2-3.6.6-5.3.9a3.78,3.78,0,0,1-3.5-1.1l-4.5-4.8-.1-.1h0a1.1,1.1,0,0,0-1.5-.3h0l-.1.1-7.2,5.6-.1.1h0a1.1,1.1,0,0,0-.3,1.5l.1.1,3.3,5.5a2.58,2.58,0,0,1-.1,2.8c-1,1.5-2.3,3.8-3.2,5.4a2.71,2.71,0,0,1-2.6,1.4l-6.6-.5h-.2a1,1,0,0,0-1.2.8v.2l-1.3,9v.2a1,1,0,0,0,.8,1.2h.2l7.1,1.9a2.39,2.39,0,0,1,1.7,1.8,42.09,42.09,0,0,0,1.2,5.1,2.6,2.6,0,0,1-.7,2.4l-5.6,4.7-.1.1h0a1.1,1.1,0,0,0-.3,1.5v.1l5.5,8v.1a1.1,1.1,0,0,0,1.5.3h.1l6-3.6a3,3,0,0,1,2.9,0c1.4.8,3.2,1.8,4.7,2.6a2.77,2.77,0,0,1,1.5,2.7l-.5,7.1v.1h0a1.11,1.11,0,0,0,.8,1.3h.1l9.2,1.4h.1a1.11,1.11,0,0,0,1.3-.8V334l1.8-7.2a2.23,2.23,0,0,1,2-1.8c1.7-.2,4.1-.6,5.7-.9a2.33,2.33,0,0,1,2.3.8l4.5,5.3.1.1h0a1.1,1.1,0,0,0,1.5.3h.1l7.9-5.8h.1a1.1,1.1,0,0,0,.3-1.5v-.1l-3.6-5.6a2.87,2.87,0,0,1,.1-3.2,49,49,0,0,0,3.1-4.8,2.89,2.89,0,0,1,2.7-1.3l6.1.2Zm-18.6-9.8a16.27,16.27,0,1,1-11.7-18A16.22,16.22,0,0,1,119.3,298.7Z" style="fill:#057cce"/><path d="M103.3,315.9a19,19,0,0,1-4.1-.4A19.74,19.74,0,0,1,86.8,307a19.26,19.26,0,0,1-2.7-14.8,19.67,19.67,0,0,1,35.7-6.6,19.26,19.26,0,0,1,2.7,14.8,19.43,19.43,0,0,1-19.2,15.5Zm-.1-34.6a15,15,0,0,0-12.5,23.2,14.6,14.6,0,0,0,9.4,6.5,15.05,15.05,0,0,0,11.3-2.1,14.6,14.6,0,0,0,6.5-9.4h0a15.05,15.05,0,0,0-2.1-11.3,14.6,14.6,0,0,0-9.4-6.5A18.65,18.65,0,0,0,103.2,281.3Z" style="fill:#057cce"/><g style="opacity:0.400000005960465"><path d="M103.3,318.2a24,24,0,0,1-4.6-.5,21.93,21.93,0,1,1,26-16.9h0a21.79,21.79,0,0,1-9.5,13.8A21.31,21.31,0,0,1,103.3,318.2Zm-.1-42.5A20.56,20.56,0,0,0,86,307.5a20.29,20.29,0,0,0,13,8.9,20.63,20.63,0,0,0,15.5-2.9,20.29,20.29,0,0,0,8.9-13,20.63,20.63,0,0,0-15.8-24.4A34.25,34.25,0,0,0,103.2,275.7Z" style="fill:#fff"/></g><path d="M75,319.8l2.1.1a1.23,1.23,0,0,1,.8.4l.7.7a1.4,1.4,0,0,1,.3,1.5h0a1.42,1.42,0,0,1-.9.8,8.44,8.44,0,0,1-2.4.3,15.37,15.37,0,0,1-1.7-1.3,1.36,1.36,0,0,1-.3-1.7l.1-.2A1.61,1.61,0,0,1,75,319.8Z" style="fill:#f7a890"/><path d="M73.5,322l1.3-2.4s-12.2-7.7-17-12.8c0,0-5.8-7.4-7.9-4a3.07,3.07,0,0,0-.1,2.8C51,308,55.6,313.6,73.5,322Z" style="fill:#5c84c2"/><path d="M57.6,296l-1,.2-.6,1.1s.4.2.3.2a1.73,1.73,0,0,1,.3-.4,1.24,1.24,0,0,1,.2-.3l.9-.4Z" style="fill:#3e296c"/><polygon points="56.9 297.7 57.3 297.8 57.1 298 56.4 298.1 56.2 297.5 56.8 296.8 56.9 297.7" style="fill:#3e296c"/></g><path d="M332.8,247.6h0a1.29,1.29,0,0,0,1.5-.6h0v-.1L337,238v-.1h0a1.08,1.08,0,0,0-.7-1.4h0l-6.7-2.4a1.92,1.92,0,0,1-1.3-1.8c-.1-1.8-.6-4.5-.9-6.3a2,2,0,0,1,.9-2l6.2-4,.1-.1h0a1,1,0,0,0,.5-1.4v-.1l-4-8.5v-.1a1,1,0,0,0-1.4-.5h-.1l-7,2.5a3.31,3.31,0,0,1-3.3-.6c-1.4-1.2-3.3-2.7-4.6-3.6a1.72,1.72,0,0,1-.6-1.8l2.1-6.8v-.1h0a1.08,1.08,0,0,0-.7-1.4h0l-8.9-3.2h0a1.08,1.08,0,0,0-1.4.7h0l-2.7,7.3a1.63,1.63,0,0,1-1.5,1.1c-1.5,0-3.7,0-5.4.1a3.7,3.7,0,0,1-3.3-1.6l-3.8-5.4c0-.1-.1-.1-.1-.2h0a1,1,0,0,0-1.4-.5h-.1l-8,4.5h-.1a1,1,0,0,0-.5,1.4v.1l2.5,5.9a2.66,2.66,0,0,1-.5,2.8c-1.2,1.4-2.8,3.4-3.9,4.9a2.77,2.77,0,0,1-2.7,1l-6.5-1.5c-.1,0-.1,0-.2-.1h0a1,1,0,0,0-1.3.6v.2l-2.6,8.7v.2a1,1,0,0,0,.6,1.3h.2l6.8,2.9a2.43,2.43,0,0,1,1.4,2.1,45.5,45.5,0,0,0,.4,5.2,2.15,2.15,0,0,1-1.1,2.2l-6.2,3.8a.1.1,0,0,0-.1.1h0a1,1,0,0,0-.5,1.4v.1l4.3,8.7v.1a1,1,0,0,0,1.4.5h.1l6.5-2.7a3,3,0,0,1,2.9.4c1.2,1,2.9,2.3,4.2,3.2a3,3,0,0,1,1.1,2.9l-1.5,7v.1h0a1.11,1.11,0,0,0,.6,1.4h.1l8.9,2.7h.1a1.11,1.11,0,0,0,1.4-.6v-.1l2.8-6.8a2.53,2.53,0,0,1,2.3-1.5h5.7a2.36,2.36,0,0,1,2.1,1.1l3.7,5.9a.1.1,0,0,0,.1.1h0a1,1,0,0,0,1.4.5h.1l8.6-4.6h.1a1,1,0,0,0,.5-1.4v-.1l-2.7-6.1a2.91,2.91,0,0,1,.5-3.2c1.2-1.3,2.7-3,3.8-4.3a2.74,2.74,0,0,1,2.8-.9l6.3,1.7Zm-16.9-12.4a16.23,16.23,0,1,1-8.9-19.5A16.27,16.27,0,0,1,315.9,235.2Z" style="fill:#057cce"/><path d="M300.2,250.2a19.61,19.61,0,1,1,6.8-38,19.61,19.61,0,0,1-6.8,38Zm.1-34.6a15,15,0,1,0,14,20.2,14.91,14.91,0,0,0-8.8-19.2A13.72,13.72,0,0,0,300.3,215.6Z" style="fill:#057cce"/><g style="opacity:0.600000023841858"><path d="M300.2,252.5a20.42,20.42,0,0,1-7.6-1.4,21.95,21.95,0,1,1,28.2-12.9h0A22.06,22.06,0,0,1,300.2,252.5Zm0-42.5a20.27,20.27,0,0,0-8.6,1.9,20.53,20.53,0,1,0,27.8,25.8h0a20.58,20.58,0,0,0-12.1-26.4A18.66,18.66,0,0,0,300.2,210Z" style="fill:#fff"/></g><path d="M168.1,366.1h0a.81.81,0,0,0,1.1-.5h0l2-6.6h0a.89.89,0,0,0-.5-1.1h0l-4.9-1.7a1.52,1.52,0,0,1-1-1.3,41.13,41.13,0,0,0-.7-4.7,1.49,1.49,0,0,1,.7-1.5l4.6-3a.1.1,0,0,0,.1-.1h0a.73.73,0,0,0,.4-1v-.1l-2.9-6.3v-.1a.73.73,0,0,0-1-.4h-.1l-5.2,1.8a2.35,2.35,0,0,1-2.4-.5,40.13,40.13,0,0,0-3.4-2.7,1.09,1.09,0,0,1-.4-1.3l1.5-5h0a.89.89,0,0,0-.5-1.1h0l-6.6-2.4h0a.89.89,0,0,0-1.1.5h0l-2,5.4a1.17,1.17,0,0,1-1.1.8c-1.1,0-2.7,0-4,.1a2.53,2.53,0,0,1-2.4-1.2l-2.8-4a.1.1,0,0,0-.1-.1h0a.73.73,0,0,0-1-.4h-.1l-5.9,3.3h-.1a.73.73,0,0,0-.4,1v.1l1.8,4.4a2,2,0,0,1-.3,2.1c-.9,1-2.1,2.5-2.9,3.6a2,2,0,0,1-2,.7l-4.7-.8h-.2a.88.88,0,0,0-1,.5v.1h0l-1.9,6.4h0v.1a.88.88,0,0,0,.5,1h.1l5,2.2a1.75,1.75,0,0,1,1,1.5c0,1.2.2,2.7.3,3.9a1.48,1.48,0,0,1-.8,1.6l-4.6,2.8h-.1a.84.84,0,0,0-.4,1.1h0l3.1,6.4h0a.84.84,0,0,0,1.1.4h0l4.8-2a2,2,0,0,1,2.1.3c.9.8,2.2,1.7,3.1,2.4a2,2,0,0,1,.8,2.1l-1.1,5.1v.1h0a.75.75,0,0,0,.5,1h0l6.6,2h0a.75.75,0,0,0,1-.5v-.1l2.1-5a1.75,1.75,0,0,1,1.7-1.1h4.2a2.09,2.09,0,0,1,1.6.8l2.7,4.3v.1h0a.84.84,0,0,0,1.1.4h0l6.4-3.4h0a.84.84,0,0,0,.4-1.1h0l-2-4.5a2,2,0,0,1,.4-2.3c.9-.9,2-2.2,2.8-3.1a2.07,2.07,0,0,1,2.1-.7l4.9,1.3ZM155.7,357a12,12,0,1,1-6.6-14.4A12,12,0,0,1,155.7,357Z" style="fill:#138ff6"/><path d="M144.1,368.6a15.81,15.81,0,0,1-5.2-.9,15,15,0,0,1-8.5-7.9,14.83,14.83,0,0,1-.4-11.5,15.09,15.09,0,0,1,28.3,10.5h0A15.21,15.21,0,0,1,144.1,368.6Zm.1-25.5a9.07,9.07,0,0,0-4.3,1,10.25,10.25,0,0,0-5.4,5.8,10.13,10.13,0,0,0,.3,8,10.25,10.25,0,0,0,5.8,5.4,10.48,10.48,0,0,0,13.4-6.1h0a10.13,10.13,0,0,0-.3-8,10.25,10.25,0,0,0-5.8-5.4A10.07,10.07,0,0,0,144.2,343.1Z" style="fill:#138ff6"/><g style="opacity:0.600000023841858"><path d="M144.2,369.8a16.35,16.35,0,1,1,6.9-1.5A17.18,17.18,0,0,1,144.2,369.8Zm0-31.3a15.13,15.13,0,0,0-6.2,1.4,15.29,15.29,0,0,0-7.8,8.4,15,15,0,0,0,8.8,19.3,15,15,0,1,0,10.5-28.1A14.6,14.6,0,0,0,144.2,338.5Z" style="fill:#fff"/></g><g id="Man_03"><path d="M292.4,279.8l-.6-.2a.37.37,0,0,1-.2-.5,1.69,1.69,0,0,1,.3-.6,7.1,7.1,0,0,1,1-1.4l.2-.3v-.2a1.42,1.42,0,0,1-.2-.6v-.4a4.87,4.87,0,0,1,.4-1.1l1-1.7a3.9,3.9,0,0,1,2-.9l3.8.4a14,14,0,0,1,1.7.9l1.7,1.3a3.7,3.7,0,0,1,.5,1.1V278a20.36,20.36,0,0,1-.9,2.2l-1.7,1.2a9.13,9.13,0,0,0-.8,1.3l-.5,3.5c0,.2-.4.6-.6.7l-2.4,1c-.2.1-1.4,1.1-1.6,1l-1.2-1.9a.68.68,0,0,1-.4-.6l.2-2c0-.2-.1-.7-.5-.8l-.8-.2a1,1,0,0,1-1-.5.88.88,0,0,1-.1-.7c0-.1.1-.2.2-.3h0a.66.66,0,0,0,.1-.6l-.1-.2,1.1.1-1.1-.8Z" style="fill:#f8b4a4"/><polygon points="312.1 361.4 310.5 360 308.1 362.8 309.2 363.8 311.8 363.4 312.1 361.4" style="fill:#f8b4a4"/><polygon points="286.2 365.9 286.2 368 286.2 369.7 290.1 368 290.3 365.9 288.4 364.7 286.2 365.9" style="fill:#f8b4a4"/><polygon points="311.4 362 309.2 363.8 307.7 366.9 305.4 370 306.3 371.6 315 364.9 312.1 361.4 311.4 362" style="fill:#1c1d26"/><polygon points="290.1 371.6 290.1 368 285.4 368 281.9 369.1 279.2 369.8 279.2 371.6 290.1 371.6" style="fill:#1c1d26"/><path d="M291.2,365.9v1.7h-5.4V366l-4.9-27.7,1.5-22.2.9-1.7h11.1s-3.3,22.1-3.6,22.4a20.79,20.79,0,0,0-1.3,2.6l.9,2.8Z" style="fill:#1d1953"/><path d="M308.6,363.8l3.2-2.7s-7.9-22.6-10.7-26.1c0,0-1.7-14.3-2.7-18.9l-6.5-1.2-7.2.5s4,17.6,6.2,21.1l1.9,4.9,2,2.1Z" style="fill:#252364"/><path d="M269.4,281l.5.2a.63.63,0,0,0,.8-.3l.1-.2a.45.45,0,0,0,0-.5v-.1a.62.62,0,0,1,.8-.8h0c.2.1.4.2.4.5l.4,1.6v.3l-.3,1.5a.6.6,0,0,0,.1.4l.5.8a.61.61,0,0,1-.3.9l-1.7.9a.66.66,0,0,1-.9-.3c-.2-.4-.4-1-.6-1s-1.6-.6-2-.7c-.1,0-.1-.1-.2-.1l-.3-.3a4.56,4.56,0,0,1-1.5-2.7v-.4l.6-1.6c0-.1.1-.2.2-.3l.5-.4a.61.61,0,0,1,.8,0l.6.5c.1.1.1.1.1.2l.9,1.8C269.1,280.8,269.3,281,269.4,281Z" style="fill:#f8b4a4"/><path d="M276.6,298.3l-7-12.4,3.3-1.8.9,1.1,6.4,8.8a1.65,1.65,0,0,0,2.6.2l5.8-4.4,3.4-3a1.59,1.59,0,0,1,1.2-.4h.6c.8,0,1.7,1.7,1.9,2.4h0a1.91,1.91,0,0,1-.2,1.3l-2.6,4-.3.3-8.8,7.1-1.6.1a4.66,4.66,0,0,1-3.4-1.1l-.6-.5A3.75,3.75,0,0,1,276.6,298.3Z" style="fill:#233c79"/><path d="M274.7,284h0a2,2,0,0,0,2.1-2h0v-.1l-1-16.7v-.1h0a2,2,0,0,0-2-2h-.1l-12.7.2a3.77,3.77,0,0,1-3.4-2.1c-1.4-3-3.8-7.2-5.5-10.1a3.84,3.84,0,0,1,.2-4l7.9-10.6.2-.2h0a2,2,0,0,0,0-2.7l-.1-.1-12-11.8-.1-.1a2,2,0,0,0-2.7,0h0l-.1.1-10.2,8.6a5.76,5.76,0,0,1-5.9,1c-3.1-1.1-7.2-2.4-10-3.2a3,3,0,0,1-2.1-2.6l-.7-12.7v-.1h0a2,2,0,0,0-2-2h-.1l-17,.1h-.1a2,2,0,0,0-2,2v14.1a2.93,2.93,0,0,1-1.9,2.7c-2.5.9-6.1,2.4-8.9,3.6a6.84,6.84,0,0,1-6.5-.6l-9.7-6.7c-.1-.1-.2-.1-.3-.2h0a2,2,0,0,0-2.7,0l-.1.1-.1.1-10.6,12.5-.1.1-.1.1a2,2,0,0,0,0,2.7l.1.1,7.8,8.4a4.83,4.83,0,0,1,1,5c-1.2,3-2.6,7.5-3.5,10.6a5,5,0,0,1-4,3.4l-11.8,1.5h-.4a1.9,1.9,0,0,0-1.9,1.9v.2l1,16.3v.2a1.9,1.9,0,0,0,1.9,1.9h.2l13.2.7a4.14,4.14,0,0,1,3.6,2.6c1.1,2.7,2.6,6,3.9,8.5a4.14,4.14,0,0,1-.4,4.4l-8,10.3-.2.2h0a1.82,1.82,0,0,0,0,2.7l.1.1,12.6,11.9.1.1a1.82,1.82,0,0,0,2.7,0l.1-.1,9.2-8.5a5,5,0,0,1,5.1-1.1c2.7,1,6.3,2,9.1,2.8a4.92,4.92,0,0,1,3.6,4.2l1.8,12.7v.3h0a1.9,1.9,0,0,0,1.9,1.9h.2l16.7-1h.2a1.9,1.9,0,0,0,1.9-1.9v-.1l.5-13.2a4.31,4.31,0,0,1,2.9-3.9c2.9-1,6.9-2.5,9.6-3.7a4.41,4.41,0,0,1,4.3.5l9.9,7.6.2.2h0a1.82,1.82,0,0,0,2.7,0h0l.1-.1,11.6-13.1.1-.1h0a1.82,1.82,0,0,0,0-2.7l-.1-.1-8.4-8.5a5.09,5.09,0,0,1-1.1-5.6c1.2-2.8,2.7-6.7,3.7-9.5a5.13,5.13,0,0,1,4.2-3.3l12.4-2Zm-36.1-10.3a29.16,29.16,0,1,1-27.2-27.2A29.18,29.18,0,0,1,238.6,273.7Z" style="fill:#138ff6"/><path d="M209.4,313.3a37.7,37.7,0,1,1,37.7-37.7A37.73,37.73,0,0,1,209.4,313.3Zm0-62a24.3,24.3,0,1,0,24.3,24.3A24.33,24.33,0,0,0,209.4,251.3Z" style="fill:#138ff6"/><g style="opacity:0.5"><path d="M209.4,314.7a39.1,39.1,0,1,1,39.1-39.1A39.16,39.16,0,0,1,209.4,314.7Zm0-76.2a37.1,37.1,0,1,0,37.1,37.1A37.15,37.15,0,0,0,209.4,238.5Z" style="fill:#fff"/></g><path d="M299.6,319.4l-17.6-.3s5.9-30.5,9.1-31.8a12.55,12.55,0,0,1,3-1.8s.7,2.2,1.3,2.2c1,.1,2.3-1.3,4.4-1.8a4,4,0,0,1,2.7,1.3s3.5,1.6-2.5,18.5l-.8,10.6Z" style="fill:#2e5ba8"/><path d="M297.8,279.8l-.1-2.5c0-.2-.2-.3-.3-.4l-1.5-.5c-.2-.1-.3-.2-.3-.4l-.1-.6a.43.43,0,0,0-.4-.4,4.4,4.4,0,0,1-2.3-.8.91.91,0,0,1-.3-.7c-.1-2.4,2.2-2.4,2.8-2.3s3.2.1,3.2.1a7.58,7.58,0,0,1,4.2,1.2c1.9,1.5,1.5,5.4,1.2,6.3a4.53,4.53,0,0,1-.5,1c-.6.8-1.1,1.2-1.7,2l-1.1,1.4a.62.62,0,0,1-.7.1l-.1-.3a.76.76,0,0,1-.2-.5l-.1-.7.4-1.8.5-1.1a1.18,1.18,0,0,0-.1-.8l-.2-.3a.92.92,0,0,0-1,.1l-.5,1.6Z" style="fill:#072d4b"/><path d="M274.3,282.3l.2.2a.81.81,0,0,0,.9-.3l.1-.2a.45.45,0,0,0,0-.5l-.6-1.8c-.2-.5-.1-1.9.4-1.7l.8,1.5a8.65,8.65,0,0,1,.7,1.7l.4,1.6v.3l-.3,1.6a.6.6,0,0,0,.1.4l.5.9a.61.61,0,0,1-.3.9l-1.8.9a.73.73,0,0,1-1-.4c-.2-.5-.5-1-.7-1s-1.8-.6-2.2-.8c-.1,0-.1-.1-.2-.1l-.4-.3a5,5,0,0,1-1.9-2.7l-.2-1v-.8l.1-.3a2,2,0,0,1,.8-1.2h0l.5-.2a1.94,1.94,0,0,1,1.3.3l.4.3a4.17,4.17,0,0,1,.6.8l1.2,1.6C274,281.9,274.1,282.1,274.3,282.3Z" style="fill:#f8b4a4"/><path d="M282.2,300.1l-8-12.8,3.6-1.7,1,1.2,7.3,9.1a2.07,2.07,0,0,0,2.9.3l6.3-4.4,3.8-3a2,2,0,0,1,1.3-.4h.7a2,2,0,0,1,1.9,1.4l.3,1.1a2.2,2.2,0,0,1-.2,1.4l-4.1,4.1-.3.3-8.2,7.1-1.8.1a6.36,6.36,0,0,1-3.8-1.2l-.7-.6A7.59,7.59,0,0,1,282.2,300.1Z" style="fill:#17489a"/></g><ellipse cx="297.2" cy="371.5" rx="20.5" ry="1.8" style="fill:#222343;opacity:0.200000002980232;isolation:isolate"/><ellipse cx="62.1" cy="370.6" rx="20.5" ry="1.8" style="fill:#222343;opacity:0.200000002980232;isolation:isolate"/><path d="M185.9,229.8l-.6,1h-1.5v-.1a2.92,2.92,0,0,0-.2-.9.35.35,0,0,0-.1-.2l1.8-.9a5.58,5.58,0,0,0,.5.8C185.8,229.6,185.8,229.8,185.9,229.8Z" style="fill:#e2a8a7"/><path d="M186.9,232c-2,1.5-2,1.8-4.3,2.4-.3.1-1.6.4-1.9-.7,0-1.7,2.3-.3,2.9-3h0a1.4,1.4,0,0,1,1.4.1l.9-.9A13.09,13.09,0,0,1,186.9,232Z" style="fill:#291b0e"/><path d="M202.7,192.8l1.3.3.4,1.3c-.1,0-.5,0-.9,1.4l-1.7-.8A16.79,16.79,0,0,0,202.7,192.8Z" style="fill:#e2a8a7"/><path d="M203.9,193.2a1.34,1.34,0,0,0,.4,1.2c1.9-.9,4.1,1.5,5.1-.5-4.2-2.2-6-2.9-6-2.9a9.82,9.82,0,0,0-.8,1.8l.2.1Z" style="fill:#291b0e"/><path d="M173,178a7.93,7.93,0,0,1-2.5-6.7c.5-3.3.6-.4-.9-5.3-1.1-3.5,1.7-8.9,5.5-7.5,1.1-1.3,5.1-.6,6.1,2,.9,2.3-.8,3.8,3.6,5.4,3.8,1.4,4.8,3.3,4.8,6.1,0,7.2,1.9,4.6,2.4,9.7.6,6.1-4.4,7.5-8,7.5C171.6,189.3,173,178,173,178Z" style="fill:#101133"/><path d="M164.8,190.7a9.22,9.22,0,0,1-.8.5c-.1-.2-.4-.8-.9-.8s-1.1-.2-1.4.1l.3.8-.4.2s-1.2.5-1.2,1.1a.49.49,0,0,0,.6.5,1.54,1.54,0,0,0,2,.7,26.75,26.75,0,0,0,3.4-2A5.72,5.72,0,0,1,164.8,190.7Z" style="fill:#e2a8a7"/><path d="M174.8,172.6c-1.2,1.9-4.2,11.3-4.2,11.3s-4.1,4.8-6.5,6.4a4.47,4.47,0,0,0,2,1.6,41.42,41.42,0,0,0,7.8-6.1c1.2-1.5,3.1-7.5,4.7-10,.6-.9,1.6-3.5.2-4.4C176.6,170,175.4,171.7,174.8,172.6Z" style="fill:#4088c7"/><path d="M183.3,230.1c-1-2.7-5.5-9.7-7.5-16.6,0,0-1.2-11.2,2.9-21.3l8.1-.7-2.5,9.9a33.16,33.16,0,0,1-4.4,10h0c2.8,3.4,3.9,11,5.9,17.7C186.1,230.3,183.7,231.1,183.3,230.1Z" style="fill:#101133"/><path d="M204.2,194.6s-10.1,21.2-16,18.6c0,0-1.6-.3-2.5-5.2-.7-3.7-2.8-10.9-3.3-15.6l1.6-.3,5.7-4.1a12,12,0,0,1,2.3,5.3c.8,4.5-.9,7-.3,13.8,1.6-3,8-11.5,10.7-13.4Z" style="fill:#1d1852"/><path d="M178.7,192.2c.2-7.3-3.1-9.3-4.9-12-1-1.5-.3-5.4.5-7.6s2.1-2.6,4.4-2.8a6.44,6.44,0,0,1,2.4.6,4.32,4.32,0,0,1,2.4,2.2,30.61,30.61,0,0,1,3.5,9.3,20.93,20.93,0,0,0,2.6,6.1,10.3,10.3,0,0,1-5.7,4.1A18.16,18.16,0,0,1,178.7,192.2Z" style="fill:#7aa9da"/><path d="M174.5,173.1s-.6,1.5-.2,1.7c.8.4,3.5-2.8,3.9-4a14.36,14.36,0,0,0-.2-2.4l-3,1.3C175.1,172.5,174.5,173.1,174.5,173.1Z" style="fill:#e2a8a7"/><path d="M178.5,165.5c.6,2.7-.4,5.4-2.2,5.6-1.6.2-2.9-1.1-3.9-3.4-.1-.2,0-.6,0-.8s-.3-.3-.4-.5c-.4-2.5.4-4.7,2.1-5.1C176,160.9,177.9,162.8,178.5,165.5Z" style="fill:#edb9b4"/><path d="M171,166.3s.8-.3,1.7-2.4c1.1.9,3.2,1.4,6.3,1.1-.4-2.4-3.1-4.8-5.1-4.3C171.9,161,170.7,163.6,171,166.3Z" style="fill:#101133"/><path d="M177.7,165.6c-.3.7-.2,1.5.2,1.7s1.1-.2,1.4-.9.2-1.5-.2-1.7S178.1,164.9,177.7,165.6Z" style="fill:#edb9b4"/><g id="Man_02"><polygon points="124.6 266.9 124.8 265.6 127.2 266.4 126.8 267.6 124.6 266.9" style="fill:#f7a591"/><polygon points="144.9 267.5 144.8 266.1 147.5 266 147.5 267.6 145.2 267.9 144.9 267.5" style="fill:#f7a591"/><polygon points="147.5 266.9 144.8 267.1 145 269.5 152.7 269.1 151.8 267.9 147.5 266.9" style="fill:#2f2f38"/><polygon points="131.4 270.8 124.1 269.4 124.6 266.9 126.9 267.4 127.6 268.2 131 269.5 131.4 270.8" style="fill:#2f2f38"/><path d="M127.1,267l7.4-16.8,3.3-11.3.3-10.4-11.4-1.4s3.4,13,3.6,15.8c.1,1.5-1,3.6-1.6,5.1a36.18,36.18,0,0,0-1.7,5.6l-2.9,12.8Z" style="fill:#767875"/><path d="M137.4,243.2l5.1,7.6,1.8,15.8,3.3-.2,1.4-18.5s-7.4-16.2-8.9-19l-5-2.5-6.6,3.6Z" style="fill:#898a88"/><path d="M128.4,204.6v-2.4l-1.4-1.4-1.6-2.9v-2.6l2.8-1.7h4.6l1.3,1,.8,1.3-.3,1.1.8,1.4-.1,3.1-2.2,1.2-.2,2a30,30,0,0,1-2.9,1.1A11.09,11.09,0,0,1,128.4,204.6Z" style="fill:#f7a591"/><path d="M152.9,202.7c.1.1,1.1-.4,1.5-.4a.37.37,0,0,0,.3-.1l1.4-.6a1.38,1.38,0,0,0,.4-.3l.6-.9a.66.66,0,0,0,.1-.6l-.1-.6c0-.2-.1-.3-.2-.5l-.3-.3a1,1,0,0,0-.9-.2l-.6.2a1,1,0,0,0-.5.4l-.5,1-.3-.2.3-.6a.9.9,0,0,0,.1-.5h0c-.1-.4-.3-.7-.7-.7h-.1l-.1.3c0,.1-.1.2-.1.3l-.4.6a.37.37,0,0,0-.1.3l-.1.7c0,.1-.1.2-.2.3h0a.49.49,0,0,0-.1.7l.2.9Z" style="fill:#f39986"/><polygon points="152 200.5 153.4 202.4 144.7 209.4 142.8 205.7 152 200.5" style="fill:#3e2e8c"/><g style="opacity:0.75"><path d="M165.66,200.88c0,.85-2.75,1.54-6,1.53s-5.91-.69-5.91-1.53,2.64-1.54,5.91-1.54,6,.69,6,1.54" style="fill:#575c61"/><g style="clip-path:url(#clip-path)"><path d="M159.64,199c-3.28,0-5.91.69-5.91,1.54l.09,3.1c0,.85,2.64,1.54,5.92,1.54s5.92-.69,5.92-1.54v-3.1c0-.85-2.74-1.54-6-1.54" style="fill:#697077"/></g><path d="M165.66,196.82c0,.84-2.75,1.53-6,1.53s-5.91-.69-5.91-1.54,2.64-1.54,5.91-1.53,6,.69,6,1.54" style="fill:#707880"/><g style="clip-path:url(#clip-path-2)"><path d="M159.64,194.91c-3.28,0-5.91.68-5.91,1.53v3.1c0,.85,2.63,1.54,5.91,1.54s6-.68,6-1.53v-3.1c0-.85-2.74-1.54-6-1.54" style="fill:#7f8997"/></g><path d="M165.66,192.75c0,.85-2.75,1.54-6,1.54s-5.91-.69-5.91-1.54,2.64-1.54,5.91-1.54,6,.69,6,1.54" style="fill:#cddce3"/><g style="clip-path:url(#clip-path-3)"><path d="M159.64,190.84c-3.28,0-5.91.69-5.91,1.54v3.1c0,.85,2.63,1.54,5.91,1.54s6-.69,6-1.53v-3.11c0-.85-2.74-1.53-6-1.54" style="fill:#959fab"/></g></g><path d="M154,205.5a12.75,12.75,0,0,0,1.4-.4c.1,0,.1,0,.2-.1l1.2-.5a1,1,0,0,0,.5-.4l.8-1.2a1.42,1.42,0,0,0,.2-.6V202a1.14,1.14,0,0,0-.3-.8v-.1a1.06,1.06,0,0,0-1.2-.2l-.4.2a1.38,1.38,0,0,0-.4.3l-.6.7-.1-.2.2-.3a1.27,1.27,0,0,0,.1-.6h0a.89.89,0,0,0-.5-.8h0l-.2.6a.52.52,0,0,1-.2.4l-.3.3a.76.76,0,0,0-.2.4l-.2.6c0,.1-.1.3-.2.3h0c-.2.2-.4.3-.4.6l.3.9v.2C153.7,205.3,153.7,205.6,154,205.5Z" style="fill:#f7a591"/><path d="M141.1,229.4h0c-.2.2-1.7,1.5-7.1,1.5,0,0-6.4,0-7.3-2.2h0c0-.5-.5-8.1-.8-10.2h0c0-.1-2.7-10.2,1.1-13.6h0c.1,0,3.3-2.2,6.2-1.3a17.62,17.62,0,0,1,3.3.6h0c3.1.5,6.7.9,8.7,1.2h0l8.2-2.1h.1l.6,2.6v.1l-8,3.7h.4l-8.9.6a.1.1,0,0,0-.1.1Z" style="fill:#544199"/><path d="M130.6,201.6h0a.52.52,0,0,1-.4.2l-1.7.4a.75.75,0,0,1-.5-.1l-1.2-.6c-.1-.1-.9-1-1-1.1-.3-.7-1.7-3.7-1-5a5.37,5.37,0,0,1,1.5-2,3.59,3.59,0,0,0,1-.7l1.9-.8c.1,0,1.2-.3,1.3-.3h1.9c.1,0,.7.2.8.2a7.47,7.47,0,0,1,1.3,1.1,4.72,4.72,0,0,1-.2,1.5.38.38,0,0,1-.5.3h0a.55.55,0,0,0-.5.3l-.2.5c-.1.2-.2.3-.4.3l-.5.2a.68.68,0,0,0-.4.6,2.27,2.27,0,0,0,.3,1.3,4.64,4.64,0,0,1,.8,2c.1.2.2.4.4.4l.5.2h.1l.5.1c.3,0,.5.3.6.5l.1.6a.89.89,0,0,1-.5.8,3.64,3.64,0,0,1-1.4.2,6.71,6.71,0,0,1-1.5-.6c-.1,0-.1-.1-.2-.2l-.3-.4C131.4,201.3,130.9,201.3,130.6,201.6Z" style="fill:#3c3264"/><path d="M130.4,198h0c-.2.1-.4.4-.3.6v.9l.5,1.5a.71.71,0,0,0,1.1.3h0a.86.86,0,0,0,.3-.6l-.2-1.3v-.1l-.3-.9A.84.84,0,0,0,130.4,198Z" style="fill:#f7a591"/></g><path d="M169.2,189.7a4.3,4.3,0,0,1-1,.9c-.1-.2-.5-.2-1-.1a4.08,4.08,0,0,0-2,.9l.5.2.3-.2s-2.1,1.4-2,1.9.8.5,1.1.6a1.79,1.79,0,0,0,1.6.1c.5-.2.6,0,1.3-.5a26.49,26.49,0,0,0,2.5-2.4A17.88,17.88,0,0,0,169.2,189.7Z" style="fill:#e2a8a7"/><path d="M178.4,174.8c-.6,2.1-2.2,7.2-2.2,7.2s-6,6.2-7.9,8.4a3.66,3.66,0,0,0,1.6,1,54.46,54.46,0,0,0,9.1-6.3,23.83,23.83,0,0,0,4.2-9.7c.3-2.3-.3-3.8-2.1-3.7C178.5,171.7,178.8,173.4,178.4,174.8Z" style="fill:#568eca"/><g style="opacity:0.3"><path d="M199.6,132.2v-.8h-.1a14,14,0,0,0-13.8-11.6,12.65,12.65,0,0,0-2.8.3A16.86,16.86,0,0,0,152,128a10.11,10.11,0,0,0-5.2-1.4,10.61,10.61,0,0,0-10.6,10.6v.1a10.5,10.5,0,0,0,10.5,10.5h39a14,14,0,0,0,14-14A8.08,8.08,0,0,1,199.6,132.2Z" style="fill:#138ff6"/></g><g style="opacity:0.3"><path d="M138.8,106.2a4.1,4.1,0,0,0-1.1.1,13.82,13.82,0,0,0-13.5-11,19.48,19.48,0,0,0-2.5.2,20.81,20.81,0,0,0-38.6,2,11.48,11.48,0,0,0-3.7-.6,12.18,12.18,0,0,0-12.2,12.2v.3a6.6,6.6,0,0,0-1.4-.1,7.9,7.9,0,0,0,0,15.8h73a9.45,9.45,0,0,0,0-18.9Z" style="fill:#138ff6"/></g><g style="opacity:0.3"><path d="M348.7,169.3a3.59,3.59,0,0,0-1.1.2,4,4,0,0,0-5.5-3.5,4.62,4.62,0,0,0-8.9,1.5h0a3.4,3.4,0,1,0,0,6.8h15.5a2.5,2.5,0,0,0,0-5Zm-8.6,2.5h-.3c.1,0,.2-.1.3,0Z" style="fill:#138ff6"/></g><g style="opacity:0.3"><path d="M374.8,157.2v-.3a4.74,4.74,0,0,0-4.8-4.8,5.9,5.9,0,0,0-1.4.2v-.1a5.91,5.91,0,0,0-11.5-1.9,4.81,4.81,0,0,0-2.4-.7,4.65,4.65,0,0,0-4.6,4.6,2.77,2.77,0,0,0,.1.9,4.56,4.56,0,0,0-3.9,4.6,4.65,4.65,0,0,0,4.6,4.6h22.8a3.69,3.69,0,0,0,3.7-3.7A4,4,0,0,0,374.8,157.2Z" style="fill:#138ff6"/></g></svg>