<?xml version="1.0" encoding="utf-8"?>
<!-- Generator: Adobe Illustrator 24.0.2, SVG Export Plug-In . SVG Version: 6.00 Build 0)  -->
<svg version="1.1" id="Layer_1" xmlns="http://www.w3.org/2000/svg" xmlns:xlink="http://www.w3.org/1999/xlink" x="0px" y="0px"
	 width="442.6px" height="409.9px" viewBox="0 0 442.6 409.9" style="enable-background:new 0 0 442.6 409.9;" xml:space="preserve"
	>
<style type="text/css">
	.st0{opacity:0.18;fill:#5075D0;enable-background:new    ;}
	.st1{fill:url(#SVGID_1_);}
	.st2{fill:#5075D0;}
	.st3{opacity:0.69;fill:url(#SVGID_2_);enable-background:new    ;}
	.st4{fill:url(#SVGID_3_);}
	.st5{fill:url(#SVGID_4_);}
	.st6{fill:url(#SVGID_5_);}
	.st7{fill:url(#SVGID_6_);}
	.st8{fill:url(#SVGID_7_);}
	.st9{fill:url(#SVGID_8_);}
	.st10{fill:#435276;}
	.st11{fill:url(#SVGID_9_);}
	.st12{fill:url(#SVGID_10_);}
	.st13{fill:url(#SVGID_11_);}
	.st14{fill:url(#SVGID_12_);}
	.st15{fill:#FFFFFF;}
	.st16{fill:url(#SVGID_13_);}
	.st17{fill:url(#SVGID_14_);}
	.st18{fill:url(#SVGID_15_);}
	.st19{opacity:0.25;fill:#FFFFFF;enable-background:new    ;}
	.st20{fill:url(#SVGID_16_);}
	.st21{opacity:0.69;fill:url(#SVGID_17_);enable-background:new    ;}
	.st22{fill:url(#SVGID_18_);}
	.st23{fill:url(#SVGID_19_);}
	.st24{opacity:0.69;fill:url(#SVGID_20_);enable-background:new    ;}
	.st25{fill:url(#SVGID_21_);}
	.st26{fill:#3F3D56;}
	.st27{fill:url(#SVGID_22_);}
	.st28{fill:url(#SVGID_23_);}
</style>
<title>Data Process</title>
<g>
	<path class="st0" d="M59.2,46.2c15.2-25.4,48.2-33.9,77.8-33.9c29.6,0,59.6,6.1,88.6,0c13.4-2.8,26.3-8.2,39.9-8.9
		c29-1.5,54.3,17.8,76.8,36.2l41,33.6c16.6,13.6,33.7,27.7,43.8,46.7c8.8,16.7,11.5,35.9,7.8,54.4c-4.7,22.9-19.4,44.6-15.7,67.7
		c1.8,11.6,8.2,21.9,12.3,32.9c17.2,46.1-6.1,97.4-52.2,114.7c-0.4,0.2-0.9,0.3-1.3,0.5c-31,11-65,4.2-97.5-0.2
		c-62-8.5-124.9-8.1-187.3-11.8c-10.8-0.6-22.4-1.6-30.9-8.3c-12.3-9.6-14.3-27.2-14.6-42.9c-0.9-41.2,2-82.4,6.1-123.4
		c3-30.1,1.2-53.2-8.2-81.5C38.7,102.3,48.2,64.7,59.2,46.2z"/>
	
		<linearGradient id="SVGID_1_" gradientUnits="userSpaceOnUse" x1="223.0894" y1="396.9188" x2="262.9908" y2="396.9188" gradientTransform="matrix(1 0 0 -1 -44.82 469.5816)">
		<stop  offset="0" style="stop-color:#ECC4D7"/>
		<stop  offset="0.42" style="stop-color:#EFD4D1"/>
		<stop  offset="1" style="stop-color:#F2EAC9"/>
	</linearGradient>
	<path class="st1" d="M186.5,62.7l3.6,6.3l25.4-11.3l2.6,4c0,0-26.4,26.3-28,25.9c-1.6-0.4-11.9-18.7-11.9-18.7L186.5,62.7z"/>
	<polygon class="st2" points="177.2,38.6 188.6,61 178.6,69.7 	"/>
	
		<linearGradient id="SVGID_2_" gradientUnits="userSpaceOnUse" x1="177.1726" y1="420.7817" x2="188.5989" y2="420.7817" gradientTransform="matrix(1 0 0 -1 0 474.9516)">
		<stop  offset="2.000000e-02" style="stop-color:#FFFFFF;stop-opacity:0"/>
		<stop  offset="0.58" style="stop-color:#FFFFFF;stop-opacity:0.39"/>
		<stop  offset="0.68" style="stop-color:#FFFFFF;stop-opacity:0.68"/>
		<stop  offset="1" style="stop-color:#FFFFFF"/>
	</linearGradient>
	<polygon class="st3" points="177.2,38.6 188.6,61 178.6,69.7 	"/>
	<polygon class="st2" points="199.4,80.8 205.6,38.6 230.2,38.3 222.1,81.1 	"/>
	<path class="st2" d="M268.8,225.7h7.2v-52.2c0-7.2,5.8-13,13-13h33.8v-7.2H289c-11.1,0-20.2,9-20.2,20.2V225.7z"/>
	
		<linearGradient id="SVGID_3_" gradientUnits="userSpaceOnUse" x1="340.8304" y1="279.64" x2="342.7736" y2="233.9002" gradientTransform="matrix(1 0 0 -1 -44.82 469.5816)">
		<stop  offset="0" style="stop-color:#000000;stop-opacity:0"/>
		<stop  offset="0.99" style="stop-color:#000000"/>
	</linearGradient>
	<path class="st4" d="M269,225.7h7.2v-52.2c0-7.2,5.8-13,13-13H323v-7.2h-33.9c-11.1,0-20.1,9-20.2,20.2V225.7z"/>
	
		<linearGradient id="SVGID_4_" gradientUnits="userSpaceOnUse" x1="21.0994" y1="240.7504" x2="210.1733" y2="240.7504" gradientTransform="matrix(1 0 0 -1 0 474.9516)">
		<stop  offset="0" style="stop-color:#000000;stop-opacity:0"/>
		<stop  offset="0.99" style="stop-color:#000000"/>
	</linearGradient>
	<path class="st5" d="M50.9,115.1h129.4c16.5,0,29.8,13.4,29.8,29.8v178.5c0,16.5-13.4,29.8-29.8,29.8H50.9
		c-16.5,0-29.8-13.4-29.8-29.8V145C21.1,128.5,34.5,115.1,50.9,115.1z"/>
	<path class="st2" d="M200.3,327.4L200.3,327.4c0-2,1.6-3.6,3.6-3.6h31.9c7.1,0,12.9-5.8,12.9-13v-33.8h7.3v33.8
		c0,11.1-9,20.2-20.2,20.2l0,0H204C202,331.1,200.3,329.5,200.3,327.4C200.3,327.4,200.3,327.4,200.3,327.4z"/>
	<path class="st2" d="M335.5,338.8v-7.2h-52.2c-7.2,0-13-5.8-13-13v-33.8h-7.2v33.8c0,11.1,9,20.2,20.2,20.2H335.5z"/>
	
		<linearGradient id="SVGID_5_" gradientUnits="userSpaceOnUse" x1="274.2041" y1="147.6796" x2="271.2849" y2="194.3867" gradientTransform="matrix(1 0 0 -1 -44.82 469.5816)">
		<stop  offset="0" style="stop-color:#000000;stop-opacity:0"/>
		<stop  offset="0.99" style="stop-color:#000000"/>
	</linearGradient>
	<path class="st6" d="M200.3,327.4L200.3,327.4c0-2,1.6-3.6,3.6-3.6h31.9c7.1,0,12.9-5.8,12.9-13v-33.8h7.3v33.8
		c0,11.1-9,20.2-20.2,20.2l0,0H204C202,331.1,200.3,329.5,200.3,327.4C200.3,327.4,200.3,327.4,200.3,327.4z"/>
	
		<linearGradient id="SVGID_6_" gradientUnits="userSpaceOnUse" x1="344.0583" y1="152.2657" x2="344.5506" y2="183.159" gradientTransform="matrix(1 0 0 -1 -44.82 469.5816)">
		<stop  offset="0" style="stop-color:#000000;stop-opacity:0"/>
		<stop  offset="0.99" style="stop-color:#000000"/>
	</linearGradient>
	<path class="st7" d="M335.5,338.8v-7.2h-52.2c-7.2,0-13-5.8-13-13v-33.8h-7.2v33.8c0,11.1,9,20.2,20.2,20.2H335.5z"/>
	<path class="st2" d="M442.6,397.6c0,6.8-5.5,12.3-12.2,12.3c0,0,0,0,0,0H24.8c-6.8,0-12.2-5.5-12.2-12.3c0-5.8,4.1-10.8,9.8-12
		c0.8-0.2,1.6-0.2,2.4-0.2h405.6C437.1,385.4,442.5,390.9,442.6,397.6z"/>
	<rect x="28.8" y="337.7" class="st2" width="156.5" height="53.1"/>
	
		<linearGradient id="SVGID_7_" gradientUnits="userSpaceOnUse" x1="107.3517" y1="98.9147" x2="106.6781" y2="147.496" gradientTransform="matrix(1 0 0 -1 0 474.9516)">
		<stop  offset="0" style="stop-color:#000000;stop-opacity:0"/>
		<stop  offset="0.99" style="stop-color:#000000"/>
	</linearGradient>
	<rect x="28.8" y="337.7" class="st8" width="156.5" height="38.9"/>
	<path class="st2" d="M29.8,115.1h129.4c16.5,0,29.8,13.4,29.8,29.8v178.5c0,16.5-13.4,29.8-29.8,29.8H29.8
		C13.4,353.3,0,339.9,0,323.4V145C0,128.5,13.4,115.1,29.8,115.1z"/>
	
		<linearGradient id="SVGID_8_" gradientUnits="userSpaceOnUse" x1="137.7666" y1="118.2457" x2="148.0529" y2="516.4219" gradientTransform="matrix(1 0 0 -1 -44.82 469.5816)">
		<stop  offset="0" style="stop-color:#000000;stop-opacity:0"/>
		<stop  offset="0.99" style="stop-color:#000000"/>
	</linearGradient>
	<path class="st9" d="M189.1,256.1v67.4c0,16.5-13.4,29.8-29.8,29.8H29.8C13.4,353.3,0,339.9,0,323.5c0,0,0,0,0,0v-67.4
		c0-16.5,13.4-29.8,29.8-29.8h129.4C175.7,226.2,189.1,239.6,189.1,256.1C189.1,256.1,189.1,256.1,189.1,256.1z"/>
	<rect x="225.9" y="216" class="st10" width="78.1" height="73.6"/>
	<g>
		<path class="st2" d="M227.6,205.6h76.1c4.3,0,7.8,3.5,7.8,7.8v13.4c0,4.3-3.5,7.8-7.8,7.8h-76.1c-4.3,0-7.8-3.5-7.8-7.8v-13.4
			C219.7,209.1,223.2,205.6,227.6,205.6z"/>
		<path class="st2" d="M227.6,239.2h76.1c4.3,0,7.8,3.5,7.8,7.8v13.4c0,4.3-3.5,7.8-7.8,7.8h-76.1c-4.3,0-7.8-3.5-7.8-7.8V247
			C219.7,242.7,223.2,239.2,227.6,239.2z"/>
		<path class="st2" d="M227.6,272.8h76.1c4.3,0,7.8,3.5,7.8,7.8v13.4c0,4.3-3.5,7.8-7.8,7.8h-76.1c-4.3,0-7.8-3.5-7.8-7.8v-13.4
			C219.7,276.3,223.2,272.8,227.6,272.8z"/>
	</g>
	<path class="st2" d="M262.5,205.7h-7.2v-52.2c0-7.2-5.8-13-13-13l0,0h-38.8c-2,0-3.6-1.6-3.6-3.6c0,0,0,0,0,0l0,0
		c0-2,1.6-3.6,3.6-3.6h38.8c11.1,0,20.2,9,20.2,20.1c0,0,0,0,0,0V205.7z"/>
	
		<linearGradient id="SVGID_9_" gradientUnits="userSpaceOnUse" x1="277.6832" y1="277.3849" x2="279.1428" y2="236.9998" gradientTransform="matrix(1 0 0 -1 -44.82 469.5816)">
		<stop  offset="0" style="stop-color:#000000;stop-opacity:0"/>
		<stop  offset="0.99" style="stop-color:#000000"/>
	</linearGradient>
	<path class="st11" d="M262.5,205.7h-7.2v-52.2c0-7.2-5.8-13-13-13l0,0h-38.8c-2,0-3.6-1.6-3.6-3.6c0,0,0,0,0,0l0,0
		c0-2,1.6-3.6,3.6-3.6h38.8c11.1,0,20.2,9,20.2,20.1c0,0,0,0,0,0V205.7z"/>
	
		<linearGradient id="SVGID_10_" gradientUnits="userSpaceOnUse" x1="295.2185" y1="255.3853" x2="301.3851" y2="255.3853" gradientTransform="matrix(1 0 0 -1 0 474.9516)">
		<stop  offset="0" style="stop-color:#000000;stop-opacity:0"/>
		<stop  offset="0.99" style="stop-color:#000000"/>
	</linearGradient>
	<circle class="st12" cx="298.3" cy="219.6" r="3.1"/>
	
		<linearGradient id="SVGID_11_" gradientUnits="userSpaceOnUse" x1="287.4801" y1="255.3853" x2="293.6467" y2="255.3853" gradientTransform="matrix(1 0 0 -1 0 474.9516)">
		<stop  offset="0" style="stop-color:#000000;stop-opacity:0"/>
		<stop  offset="0.99" style="stop-color:#000000"/>
	</linearGradient>
	<circle class="st13" cx="290.6" cy="219.6" r="3.1"/>
	
		<linearGradient id="SVGID_12_" gradientUnits="userSpaceOnUse" x1="279.8366" y1="255.3853" x2="286.0118" y2="255.3853" gradientTransform="matrix(1 0 0 -1 0 474.9516)">
		<stop  offset="0" style="stop-color:#000000;stop-opacity:0"/>
		<stop  offset="0.99" style="stop-color:#000000"/>
	</linearGradient>
	<circle class="st14" cx="282.9" cy="219.6" r="3.1"/>
	<path class="st2" d="M267.6,79.2h145.2c7.9,0,14.3-6.4,14.3-14.3c0,0,0,0,0,0l0,0c0-16.5-13.4-29.9-29.9-29.9h-12.2
		C384.9,18.4,371.5,5,355,5c0,0,0,0,0,0h-19.8c-16.5,0-29.9,13.4-29.9,29.9c0,0,0,0,0,0v6.1h-16.7c-16.1,0-29.3,12.8-29.9,28.9l0,0
		c-0.2,4.9,3.7,9.1,8.6,9.2C267.4,79.2,267.5,79.2,267.6,79.2z"/>
	<path class="st2" d="M101.6,79.2H13.6c-3.9,0-7-3.1-7-7c0,0,0,0,0,0v-1.5c0-9.8,8-17.8,17.8-17.9h7.3c0-9.9,8-17.9,17.9-17.9h11.8
		c9.9,0,17.9,8,17.9,17.9c0,0,0,0,0,0v3.6h10c9.6,0,17.5,7.6,17.8,17.2l0,0c0.1,2.9-2.2,5.4-5.1,5.5
		C101.8,79.2,101.7,79.2,101.6,79.2z"/>
	<path class="st15" d="M32.7,172.2H157c4.9,0,8.8,4,8.8,8.8l0,0c0,4.9-4,8.8-8.8,8.8H32.7c-4.9,0-8.8-4-8.8-8.8l0,0
		C23.9,176.1,27.8,172.2,32.7,172.2z"/>
	<path class="st2" d="M33.5,175.6h81.1c3.2,0,5.8,2.6,5.8,5.8v0c0,3.2-2.6,5.8-5.8,5.8H33.5c-3.2,0-5.8-2.6-5.8-5.8v0
		C27.7,178.2,30.3,175.6,33.5,175.6z"/>
	<g>
		<path class="st2" d="M333.2,115.1h60.1c7.7,0,13.9,6.2,13.9,13.9v82.9c0,7.7-6.2,13.9-13.9,13.9h-60.1c-7.7,0-13.9-6.2-13.9-13.9
			V129C319.4,121.3,325.6,115.1,333.2,115.1z"/>
		
			<linearGradient id="SVGID_13_" gradientUnits="userSpaceOnUse" x1="342.297" y1="305.4518" x2="548.696" y2="300.9175" gradientTransform="matrix(1 0 0 -1 0 474.9516)">
			<stop  offset="0" style="stop-color:#000000;stop-opacity:0"/>
			<stop  offset="0.99" style="stop-color:#000000"/>
		</linearGradient>
		<path class="st16" d="M375.4,115.1h17.9c7.7,0,13.9,6.2,13.9,13.9v82.9c0,7.7-6.2,13.9-13.9,13.9h-17.9c-7.7,0-13.9-6.2-13.9-13.9
			V129C361.5,121.3,367.8,115.1,375.4,115.1z"/>
		
			<linearGradient id="SVGID_14_" gradientUnits="userSpaceOnUse" x1="330.3741" y1="349.0852" x2="712.3998" y2="340.6904" gradientTransform="matrix(1 0 0 -1 -44.82 469.5816)">
			<stop  offset="0" style="stop-color:#000000;stop-opacity:0"/>
			<stop  offset="0.99" style="stop-color:#000000"/>
		</linearGradient>
		<path class="st17" d="M407.2,129h-87.8c0-7.6,6.1-13.8,13.8-13.9c0,0,0,0,0,0h60.1c7.6,0,13.9,6.1,13.9,13.7
			C407.2,128.9,407.2,128.9,407.2,129z"/>
		
			<linearGradient id="SVGID_15_" gradientUnits="userSpaceOnUse" x1="407.9388" y1="260.8982" x2="411.1084" y2="196.4774" gradientTransform="matrix(1 0 0 -1 -44.82 469.5816)">
			<stop  offset="0" style="stop-color:#000000;stop-opacity:0"/>
			<stop  offset="0.99" style="stop-color:#000000"/>
		</linearGradient>
		<path class="st18" d="M407.2,211.9c0,7.6-6.2,13.8-13.8,13.8c0,0,0,0,0,0h-60.1c-7.6,0-13.8-6.2-13.8-13.8L407.2,211.9z"/>
	</g>
	<path class="st2" d="M432.6,379.1h-100V252.3l74.2-0.9l26.9,20.1L432.6,379.1z M336.5,375.4h92.4l1.1-101.9l-24.4-18.1l-69.2,0.8
		L336.5,375.4z"/>
	<path class="st2" d="M432.8,274.6l-22.7,0.4l-4-22.1L432.8,274.6z M413.3,271.1l11.1-0.6l-12.7-8.9L413.3,271.1z"/>
	<path class="st2" d="M353.1,279.9h62.5c1.2,0,2.2,1,2.2,2.2v0c0,1.2-1,2.2-2.2,2.2h-62.5c-1.2,0-2.2-1-2.2-2.2v0
		C350.9,280.9,351.9,279.9,353.1,279.9z"/>
	<path class="st2" d="M353.1,294.4h62.5c1.2,0,2.2,1,2.2,2.2v0c0,1.2-1,2.2-2.2,2.2h-62.5c-1.2,0-2.2-1-2.2-2.2v0
		C350.9,295.4,351.9,294.4,353.1,294.4z"/>
	<path class="st2" d="M353.1,308.9h62.5c1.2,0,2.2,1,2.2,2.2v0c0,1.2-1,2.2-2.2,2.2h-62.5c-1.2,0-2.2-1-2.2-2.2v0
		C350.9,309.9,351.9,308.9,353.1,308.9z"/>
	<path class="st2" d="M353.1,323.4h62.5c1.2,0,2.2,1,2.2,2.2v0c0,1.2-1,2.2-2.2,2.2h-62.5c-1.2,0-2.2-1-2.2-2.2v0
		C350.9,324.4,351.9,323.4,353.1,323.4z"/>
	<path class="st2" d="M353.1,338h62.5c1.2,0,2.2,1,2.2,2.2v0c0,1.2-1,2.2-2.2,2.2h-62.5c-1.2,0-2.2-1-2.2-2.2v0
		C350.9,338.9,351.9,338,353.1,338z"/>
	<path class="st2" d="M353.1,352.5h62.5c1.2,0,2.2,1,2.2,2.2v0c0,1.2-1,2.2-2.2,2.2h-62.5c-1.2,0-2.2-1-2.2-2.2v0
		C350.9,353.5,351.9,352.5,353.1,352.5z"/>
	<path class="st2" d="M220.1,185.1H201c-0.9,0-1.6-0.7-1.6-1.6l0,0c0-0.9,0.7-1.6,1.6-1.6h19.1c8.2,0,14.9-6.7,14.9-14.9v-32.1
		c0-9.6,7.8-17.5,17.5-17.5h38.2c8.8,0,16-7.2,16-16V75.5h3.2v25.9c0,10.6-8.6,19.2-19.2,19.2h-38.2c-7.9,0-14.2,6.4-14.2,14.2l0,0
		V167C238.2,177,230.1,185.1,220.1,185.1z"/>
	<path class="st2" d="M107.1,113.9h3.2V112c0-9.6-7.8-17.4-17.4-17.4H76.2c-7.4,0-13.4-6-13.4-13.4v-2.6h-3.2v2.6
		c0,9.2,7.5,16.6,16.7,16.7h16.8c7.8,0,14.2,6.4,14.2,14.2L107.1,113.9z"/>
	<rect x="331.6" y="139" class="st19" width="64.6" height="43.5"/>
	
		<linearGradient id="SVGID_16_" gradientUnits="userSpaceOnUse" x1="518.2964" y1="49.2462" x2="-177.793" y2="106.1359" gradientTransform="matrix(1 0 0 -1 -44.82 469.5816)">
		<stop  offset="0" style="stop-color:#000000;stop-opacity:0"/>
		<stop  offset="0.41" style="stop-color:#000000;stop-opacity:0.41"/>
		<stop  offset="0.99" style="stop-color:#000000"/>
	</linearGradient>
	<path class="st20" d="M382.2,397.9c0,5.8-4.1,10.9-9.8,12H24.8c-6.8,0-12.2-5.5-12.2-12.3c0-5.8,4.1-10.8,9.8-12H370
		C376.7,385.6,382.2,391.1,382.2,397.9z"/>
	<path class="st2" d="M140.5,54.9v48.4h39.9V51.7c0,0,0.4-16.7-8.4-16C163.3,36.4,144.2,32.5,140.5,54.9z"/>
	
		<linearGradient id="SVGID_17_" gradientUnits="userSpaceOnUse" x1="185.3386" y1="400.1021" x2="225.2343" y2="400.1021" gradientTransform="matrix(1 0 0 -1 -44.82 469.5816)">
		<stop  offset="2.000000e-02" style="stop-color:#FFFFFF;stop-opacity:0"/>
		<stop  offset="0.58" style="stop-color:#FFFFFF;stop-opacity:0.39"/>
		<stop  offset="0.68" style="stop-color:#FFFFFF;stop-opacity:0.68"/>
		<stop  offset="1" style="stop-color:#FFFFFF"/>
	</linearGradient>
	<path class="st21" d="M140.5,54.9v48.4h39.9V51.7c0,0,0.4-16.7-8.4-16C163.3,36.4,144.2,32.5,140.5,54.9z"/>
	<path class="st15" d="M180.4,103.2c0,0,25.9,0.8,33.3,13c7.3,12.1,17.5,42.8,17.5,42.8l-9.2,3.6l-16.5-20.9L180.4,103.2z"/>
	
		<linearGradient id="SVGID_18_" gradientUnits="userSpaceOnUse" x1="264.7083" y1="339.4905" x2="205.5903" y2="330.4911" gradientTransform="matrix(1 0 0 -1 -44.82 469.5816)">
		<stop  offset="0" style="stop-color:#000000;stop-opacity:0"/>
		<stop  offset="0.99" style="stop-color:#000000"/>
	</linearGradient>
	<path class="st22" d="M180.4,103.2c0,0,25.9,0.8,33.3,13c7.3,12.1,17.5,42.8,17.5,42.8l-9.2,3.6l-16.5-20.9L180.4,103.2z"/>
	<path class="st15" d="M140.5,103.2c0,0-3.6,17.8,5.8,20.7s38.3,5.8,38.3,5.8l14.3,47.4l11.8-5.4c0,0-4.4-51.4-10.2-57.9
		s-20.1-10.7-20.1-10.7H140.5z"/>
	
		<linearGradient id="SVGID_19_" gradientUnits="userSpaceOnUse" x1="200.5218" y1="443.8453" x2="226.6218" y2="443.8453" gradientTransform="matrix(1 0 0 -1 -44.82 469.5816)">
		<stop  offset="0" style="stop-color:#ECC4D7"/>
		<stop  offset="0.42" style="stop-color:#EFD4D1"/>
		<stop  offset="1" style="stop-color:#F2EAC9"/>
	</linearGradient>
	<path class="st23" d="M160.8,21.1c0.4-2.5,1.1-4.9,2.2-7.2c2.1-4,6.2-6.5,10.7-6.8c0.5,0,1.1,0,1.6,0.1c0.6,0.1,1.1,0.4,1.6,0.7
		c2.4,1.7,4.1,4.3,4.6,7.2c0.5,2.9,0.5,5.8,0.2,8.7c-0.2,3.2-0.8,6.9-3.6,8.4c-2,1-4.3,0.5-6.5-0.2c-0.4-0.2-0.9-0.2-1.4,0
		c-0.3,0.3-0.5,0.6-0.5,1c-0.5,3.1,0.5,6.3-0.2,9.3c-0.1,0.7-0.5,1.3-1.1,1.7c-0.6,0.2-1.2,0.2-1.7,0c-2.8-0.7-5.4-2.1-7.5-4.1
		c-0.9-0.8-3.1-2.2-3.5-3.3c-0.3-1.1,1.3-3.6,1.7-4.7C158.8,28.5,159.9,24.8,160.8,21.1z"/>
</g>
<linearGradient id="SVGID_20_" gradientUnits="userSpaceOnUse" x1="185.8301" y1="405.3559" x2="212.4224" y2="417.8445" gradientTransform="matrix(1 0 0 -1 -44.82 469.5816)">
	<stop  offset="2.000000e-02" style="stop-color:#FFFFFF;stop-opacity:0"/>
	<stop  offset="0.58" style="stop-color:#FFFFFF;stop-opacity:0.39"/>
	<stop  offset="0.68" style="stop-color:#FFFFFF;stop-opacity:0.68"/>
	<stop  offset="1" style="stop-color:#FFFFFF"/>
</linearGradient>
<path class="st24" d="M140.9,55l12.3,23.3l13.1-9.7c0,0-9.7-24.3-11.6-25.3c-1.9-1-6.6-3.9-8.8-0.7C143.8,45.7,140.5,50.8,140.9,55z
	"/>
<linearGradient id="SVGID_21_" gradientUnits="userSpaceOnUse" x1="201.0659" y1="397.8114" x2="253.5428" y2="397.8114" gradientTransform="matrix(1 0 0 -1 -44.82 469.5816)">
	<stop  offset="0" style="stop-color:#ECC4D7"/>
	<stop  offset="0.42" style="stop-color:#EFD4D1"/>
	<stop  offset="1" style="stop-color:#F2EAC9"/>
</linearGradient>
<path class="st25" d="M156.2,76.8c0,0,5.4,9.5,7.8,9.7c2.4,0.2,37-14.8,37-14.8l5.4-1.7c0,0,1.2-5.8,1.5-7.1
	c0.2-1.2,2.2-5.3-0.5-5.8c-2.7-0.5-6.8,2.9-6.8,2.9l-2,4.9l-29.2,9l-3-5.3L156.2,76.8z"/>
<path class="st26" d="M187.4,8.1c1.2-2.8,0.1-6.7-2.8-7.6c-2.4-0.8-4.9,0.6-7.4,0.6c-2.1,0-4.2-0.9-6.3-1.1
	c-5.2-0.4-9.9,2.9-11.2,7.9c-0.1,0.8-0.3,1.5-0.6,2.2c-0.9,1.6-3.1,2.2-3.5,3.9c-0.1,0.9,0,1.7,0.3,2.5l2.7,8.2c0.3,0.9,1,2,1.9,1.7
	c0.5-0.2,0.8-0.7,0.9-1.3l1.8-5.1c1.7-0.1,1.3,3.7,2.9,3.5c1.1-0.2,0.9-1.7,0.6-2.8c-0.5-3,1.5-5.8,4.5-6.3c0,0,0,0,0,0
	c0.8,0,1.6-0.1,2.4-0.4c0.5-0.4,1-0.7,1.5-1c2-0.8,4.2,0.9,6.5,0.1C184.2,12.3,186.2,10.5,187.4,8.1z"/>
<polygon class="st2" points="206.8,173.4 208.5,178 221.7,177.8 205.1,185.3 202,175.1 "/>
<linearGradient id="SVGID_22_" gradientUnits="userSpaceOnUse" x1="200.8889" y1="295.0103" x2="220.5891" y2="295.0103" gradientTransform="matrix(1 0 0 -1 0 474.9516)">
	<stop  offset="0" style="stop-color:#000000;stop-opacity:0"/>
	<stop  offset="0.99" style="stop-color:#000000"/>
</linearGradient>
<polygon class="st27" points="205.8,174 207.5,178.6 220.6,178.4 204,185.9 200.9,175.7 "/>
<polygon class="st2" points="230,159.5 231.7,164.1 244.8,163.9 228.3,171.4 225.1,161.2 "/>
<linearGradient id="SVGID_23_" gradientUnits="userSpaceOnUse" x1="224.0006" y1="308.8764" x2="243.7094" y2="308.8764" gradientTransform="matrix(1 0 0 -1 0 474.9516)">
	<stop  offset="0" style="stop-color:#000000;stop-opacity:0"/>
	<stop  offset="0.99" style="stop-color:#000000"/>
</linearGradient>
<polygon class="st28" points="228.9,160.1 230.6,164.7 243.7,164.5 227.2,172 224,161.8 "/>
</svg>
