<svg xmlns="http://www.w3.org/2000/svg" id="Layer_1" data-name="Layer 1" viewBox="0 0 298.45 412.29"><defs><style>.cls-1{fill:#f9d4ac}.cls-2{fill:#e2b788}.cls-12,.cls-2{opacity:.8}.cls-3{fill:#fff3d9}.cls-4{fill:#596273}.cls-5{fill:#3d4756}.cls-6{fill:#414b5b}.cls-7{fill:#fff}.cls-8{fill:#ff884d}.cls-9{fill:#e5e5e5}.cls-10{fill:#81d6af}.cls-11{fill:#e8ba87}.cls-13{fill:#fff0cc}.cls-14{opacity:.3}</style></defs><title>03 Surveys</title><path d="M218,313.89c-3.06-26.94-9.32-81.84-9.66-83.21-.45-1.81-63.28-45.14-63.28-45.14S130.29,161.09,99.5,168c0,0-10.81,2.52,4.59,23.05.73,1,1.67,2.05,2.43,3a92.21,92.21,0,0,1,5.27,7.79,80,80,0,0,1,6.66,13,59.8,59.8,0,0,1,3.81,17.78c.75,11.46-1.06,23-1,34.48a113.36,113.36,0,0,0,.57,11.57,74.67,74.67,0,0,0,1.91,10.75,61.88,61.88,0,0,0,3.46,9.95,51,51,0,0,0,5.29,9.19,41.56,41.56,0,0,0,7.83,8.16A43.7,43.7,0,0,0,149,322.1v48.52H259.42V310.45Z" class="cls-1" transform="translate(-95.81 -37.71)"/><path d="M282.18,281.89c-4.12-5.1-33,8.76-51.33,18.3l-1.36-2.92L143,297.06,219.69,363h39.9l-16.64-36.79C282.54,316.21,282.18,281.89,282.18,281.89Z" class="cls-2" transform="translate(-95.81 -37.71)"/><path d="M107.18,195c6.43-12.21-4.95-21.5-8.35-22.38-.55-.14-2.54-.52-2.93-.15-.46,3.07.77,8.17,6.72,16.59l.15.21c.42.59.86,1.19,1.32,1.81.73,1,1.67,2.05,2.43,3,.2.27.4.54.6.81A.57.57,0,0,0,107.18,195Z" class="cls-3" transform="translate(-95.81 -37.71)"/><rect width="162.48" height="101.35" x="32.49" y="310.93" class="cls-4"/><rect width="80.21" height="101.35" x="114.76" y="310.93" class="cls-5"/><path d="M287.05,290.66a16.91,16.91,0,0,1-16.91,16.91H151.86a16.91,16.91,0,0,1-16.91-16.91v-236a16.91,16.91,0,0,1,16.91-16.91H270.15a16.91,16.91,0,0,1,16.91,16.91Z" class="cls-6" transform="translate(-95.81 -37.71)"/><rect width="131.2" height="213.76" x="49.59" y="18.81" class="cls-7"/><circle cx="115.19" cy="9.91" r="3" class="cls-8"/><path d="M227.83,115.51H194.18a3,3,0,0,1-3-3V78.83a3,3,0,0,1,3-3h33.65a3,3,0,0,1,3,3v33.65A3,3,0,0,1,227.83,115.51Zm-30.62-6.06H224.8V81.87H197.21Z" class="cls-9" transform="translate(-95.81 -37.71)"/><path d="M227.83,168.51H194.18a3,3,0,0,1-3-3V131.82a3,3,0,0,1,3-3h33.65a3,3,0,0,1,3,3v33.65A3,3,0,0,1,227.83,168.51Zm-30.62-6.07H224.8V134.85H197.21Z" class="cls-9" transform="translate(-95.81 -37.71)"/><path d="M227.83,221.49H194.18a3,3,0,0,1-3-3V184.81a3,3,0,0,1,3-3h33.65a3,3,0,0,1,3,3v33.65A3,3,0,0,1,227.83,221.49Zm-30.62-6.05H224.8V187.84H197.21Z" class="cls-9" transform="translate(-95.81 -37.71)"/><polygon points="90.52 95.79 99.28 87.05 115.55 103.31 131.87 86.98 132.79 86.1 143.44 75.47 152.2 84.21 123.78 112.63 122.85 113.53 115.55 120.81 90.52 95.79" class="cls-10"/><path d="M322.4,157.09c2.55,6.2-.68,13.41-7.21,16.11l-38.91,16c-6.54,2.69-13.91-.15-16.47-6.35L257,176c-2.55-6.2.68-13.41,7.22-16.11l38.91-16c6.54-2.69,13.92.15,16.47,6.35Z" class="cls-1" transform="translate(-95.81 -37.71)"/><path d="M258.32,179.26l1.46,3.56c2.55,6.2,9.92,9,16.47,6.35l38.9-16c6.54-2.69,9.77-9.91,7.22-16.11l-1.47-3.56Z" class="cls-11" transform="translate(-95.81 -37.71)"/><g class="cls-12"><path d="M288.12,173.55a3.42,3.42,0,0,1-2,4.41l-15.93,6.56a3.42,3.42,0,0,1-4.51-1.74l-4.9-11.9a3.42,3.42,0,0,1,2-4.41l15.93-6.56a3.41,3.41,0,0,1,4.5,1.74Z" class="cls-13" transform="translate(-95.81 -37.71)"/></g><path d="M317.91,190.17c2.55,6.2-.68,13.41-7.21,16.11l-38.91,16c-6.54,2.69-13.91-.15-16.46-6.35l-2.81-6.82c-2.55-6.2.68-13.41,7.22-16.11l38.91-16c6.54-2.69,13.91.15,16.46,6.35Z" class="cls-1" transform="translate(-95.81 -37.71)"/><path d="M253.84,212.33l1.46,3.56c2.55,6.2,9.93,9,16.47,6.35l38.91-16c6.54-2.7,9.77-9.91,7.22-16.11l-1.47-3.56Z" class="cls-11" transform="translate(-95.81 -37.71)"/><g class="cls-12"><path d="M283.64,206.63a3.42,3.42,0,0,1-2,4.41l-15.93,6.56a3.42,3.42,0,0,1-4.51-1.74l-4.9-11.9a3.42,3.42,0,0,1,2-4.41L274.23,193a3.42,3.42,0,0,1,4.51,1.74Z" class="cls-13" transform="translate(-95.81 -37.71)"/></g><path d="M315.68,224.08c2.55,6.2-.68,13.41-7.21,16.1l-38.91,16c-6.54,2.69-13.91-.15-16.46-6.35L250.28,243c-2.56-6.2.68-13.41,7.22-16.11l38.9-16c6.54-2.69,13.91.15,16.47,6.35Z" class="cls-1" transform="translate(-95.81 -37.71)"/><path d="M251.61,246.24l1.46,3.56c2.55,6.2,9.92,9,16.46,6.35l38.91-16c6.54-2.69,9.77-9.91,7.22-16.1l-1.47-3.56Z" class="cls-11" transform="translate(-95.81 -37.71)"/><g class="cls-12"><path d="M281.41,240.54a3.42,3.42,0,0,1-2,4.41l-15.93,6.56a3.42,3.42,0,0,1-4.51-1.74l-4.9-11.9a3.42,3.42,0,0,1,2-4.41L272,226.9a3.42,3.42,0,0,1,4.51,1.74Z" class="cls-13" transform="translate(-95.81 -37.71)"/></g><path d="M310.17,256.94a10.53,10.53,0,0,1-6.09,13.59L271.27,284a10.53,10.53,0,0,1-13.89-5.36L255,272.94a10.53,10.53,0,0,1,6.09-13.59l32.82-13.52a10.53,10.53,0,0,1,13.89,5.36Z" class="cls-1" transform="translate(-95.81 -37.71)"/><path d="M256.12,275.64l1.24,3A10.53,10.53,0,0,0,271.25,284l32.82-13.51a10.53,10.53,0,0,0,6.09-13.59l-1.24-3Z" class="cls-11" transform="translate(-95.81 -37.71)"/><g class="cls-12"><path d="M281.26,270.83a2.88,2.88,0,0,1-1.66,3.72l-13.44,5.53a2.89,2.89,0,0,1-3.81-1.47l-4.13-10a2.89,2.89,0,0,1,1.67-3.72l13.44-5.53a2.88,2.88,0,0,1,3.8,1.47Z" class="cls-13" transform="translate(-95.81 -37.71)"/></g><path d="M289.92,450h89.93l-13.66-36.6s2.25-16.05-4.86-39.1a9.14,9.14,0,0,0-.5-2.13l-23.94-65.39c-2.37-6.39-11.38-9.42-20.12-6.78a21.73,21.73,0,0,0-3.31,1.31,17.87,17.87,0,0,0-12.89-1,16.59,16.59,0,0,0-4.77,2.33,17.86,17.86,0,0,0-13.39-1.3,16,16,0,0,0-8.31,5.8,17.88,17.88,0,0,0-14.4-1.86,16.09,16.09,0,0,0-7.87,5.2L226.09,241c-3.07-8.27-12.65-12.83-21.39-10.18s-13.34,11.49-10.27,19.76L229.83,346a15.73,15.73,0,0,0,.77,1.72L243,379.43s-29.77-21.93-56.38-18.79c0,0-29.73,7.76,13.2,31.15,0,0,28.15,13.69,38.46,22.36,0,0,20.72,22.18,42.36,25.81C280.67,440,285.8,441.29,289.92,450Z" class="cls-1" transform="translate(-95.81 -37.71)"/><polygon points="112.42 269.86 119.75 269.86 105.92 232.57 98.79 232.57 112.42 269.86" class="cls-14"/><path d="M222.6,248.62a6.36,6.36,0,0,1-4.33,8.32l-6.78,2a7.38,7.38,0,0,1-9-4.29l-3.07-8.27a6.36,6.36,0,0,1,4.33-8.32l6.78-2.05a7.38,7.38,0,0,1,9,4.29Z" class="cls-3" transform="translate(-95.81 -37.71)"/><path d="M188.07,366.27a10.73,10.73,0,0,0-11.45,4c.12,4.13,4,9.77,15.85,17.25a7.28,7.28,0,0,0,2.68-1.4c3.39-3.17,6.36-10.69,2.54-14.61C196.59,370.35,189.38,366.64,188.07,366.27Z" class="cls-3" transform="translate(-95.81 -37.71)"/><polygon points="298.45 412.29 283.62 384.19 194.97 412.29 298.45 412.29" class="cls-4"/></svg>