<svg width="867" height="1046" xmlns="http://www.w3.org/2000/svg" xmlns:xlink="http://www.w3.org/1999/xlink" overflow="hidden"><defs><clipPath id="clip0"><path d="M1199 204 2066 204 2066 1250 1199 1250Z" fill-rule="evenodd" clip-rule="evenodd"/></clipPath></defs><g clip-path="url(#clip0)" transform="translate(-1199 -204)"><text fill="#F9A554" font-family="Fira Sans,Fira Sans_MSFontService,sans-serif" font-weight="600" font-size="64" transform="translate(1280 462)">Designing The Experience<tspan fill="#4BC1EB" font-weight="800" font-size="133" x="0.000244141" y="-92">DESIGN</tspan></text><path d="M1280 653.5C1280 597.995 1325 553 1380.5 553 1436 553 1481 597.995 1481 653.5 1481 709.005 1436 754 1380.5 754 1325 754 1280 709.005 1280 653.5Z" fill="#C5D620" fill-rule="evenodd"/><text fill="#D5E2E7" font-family="Fira Sans,Fira Sans_MSFontService,sans-serif" font-weight="400" font-size="48" transform="translate(1522.23 670)">Layot<tspan x="131.667" y="0">Design</tspan></text><path d="M1283 901.5C1283 845.995 1328 801 1383.5 801 1439 801 1484 845.995 1484 901.5 1484 957.005 1439 1002 1383.5 1002 1328 1002 1283 957.005 1283 901.5Z" fill="#F9A554" fill-rule="evenodd"/><text fill="#D5E2E7" font-family="Fira Sans,Fira Sans_MSFontService,sans-serif" font-weight="400" font-size="48" transform="translate(1525.25 918)">Interaction Design</text><path d="M1280 1148.5C1280 1093 1325 1048 1380.5 1048 1436 1048 1481 1093 1481 1148.5 1481 1204 1436 1249 1380.5 1249 1325 1249 1280 1204 1280 1148.5Z" fill="#E36D5F" fill-rule="evenodd"/><text fill="#D5E2E7" font-family="Fira Sans,Fira Sans_MSFontService,sans-serif" font-weight="400" font-size="48" transform="translate(1522.23 1165)">Icons &amp; Illustrations<tspan fill="#FFFFFF" font-family="et-line,et-line_MSFontService,sans-serif" font-size="71" x="-176.554" y="-476"></tspan><tspan fill="#FFFFFF" font-family="et-line,et-line_MSFontService,sans-serif" font-size="71" x="-183.672" y="-228"></tspan><tspan fill="#FFFFFF" font-family="et-line,et-line_MSFontService,sans-serif" font-size="71" x="-169.014" y="20"></tspan></text></g></svg>