<?xml version="1.0" encoding="UTF-8"?> <!-- Generator: Adobe Illustrator 23.1.0, SVG Export Plug-In . SVG Version: 6.00 Build 0) --> <svg xmlns="http://www.w3.org/2000/svg" xmlns:xlink="http://www.w3.org/1999/xlink" id="OBJECTS" x="0px" y="0px" viewBox="0 0 324 292.5" style="enable-background:new 0 0 324 292.5;" xml:space="preserve"> <style type="text/css"> .st0{opacity:0.3;} .st1{fill:#00BDC7;} .st2{fill:#FFFFFF;} .st3{fill:#233C67;} .st4{fill:#00DBD5;} .st5{fill:#063760;} .st6{opacity:0.18;} .st7{fill:#B3C3E7;} .st8{fill:#4AD6AE;} .st9{fill:#41B792;} .st10{fill:#FDE7EA;} .st11{fill:#3B639F;} .st12{fill:#072F48;} </style> <g> <g> <g> <g class="st0"> <rect x="31" y="11.8" class="st1" width="63.8" height="179.4"></rect> </g> <g> <g> <rect x="40.5" y="27.8" class="st2" width="12.4" height="19.8"></rect> </g> <g> <rect x="56.7" y="27.8" class="st2" width="12.4" height="19.8"></rect> </g> <g> <rect x="73" y="27.8" class="st2" width="12.4" height="19.8"></rect> </g> </g> <g> <g> <rect x="40.5" y="58.3" class="st2" width="12.4" height="19.8"></rect> </g> <g> <rect x="56.7" y="58.3" class="st2" width="12.4" height="19.8"></rect> </g> <g> <rect x="73" y="58.3" class="st2" width="12.4" height="19.8"></rect> </g> </g> <g> <g> <rect x="40.5" y="88.9" class="st2" width="12.4" height="19.8"></rect> </g> <g> <rect x="56.7" y="88.9" class="st2" width="12.4" height="19.8"></rect> </g> <g> <rect x="73" y="88.9" class="st2" width="12.4" height="19.8"></rect> </g> </g> <g> <g> <rect x="40.5" y="119.4" class="st2" width="12.4" height="19.8"></rect> </g> <g> <rect x="56.7" y="119.4" class="st2" width="12.4" height="19.8"></rect> </g> <g> <rect x="73" y="119.4" class="st2" width="12.4" height="19.8"></rect> </g> </g> <g> <g> <rect x="40.5" y="149.9" class="st2" width="12.4" height="19.8"></rect> </g> <g> <rect x="56.7" y="149.9" class="st2" width="12.4" height="19.8"></rect> </g> <g> <rect x="73" y="149.9" class="st2" width="12.4" height="19.8"></rect> </g> </g> </g> <g class="st0"> <polygon class="st1" points="31,11.8 46.2,2.4 83.8,2.4 94.7,11.8 "></polygon> </g> </g> <g> <g class="st0"> <rect x="236.4" y="44.8" class="st1" width="80.2" height="178.1"></rect> </g> <g> <g> <rect x="245.9" y="60.6" class="st2" width="12.4" height="19.6"></rect> </g> <g> <rect x="262.1" y="60.6" class="st2" width="12.4" height="19.6"></rect> </g> <g> <rect x="278.4" y="60.6" class="st2" width="12.4" height="19.6"></rect> </g> <g> <rect x="294.6" y="60.6" class="st2" width="12.4" height="19.6"></rect> </g> </g> <g> <g> <rect x="245.9" y="90.9" class="st2" width="12.4" height="19.6"></rect> </g> <g> <rect x="262.1" y="90.9" class="st2" width="12.4" height="19.6"></rect> </g> <g> <rect x="278.4" y="90.9" class="st2" width="12.4" height="19.6"></rect> </g> <g> <rect x="294.6" y="90.9" class="st2" width="12.4" height="19.6"></rect> </g> </g> <g> <g> <rect x="245.9" y="121.2" class="st2" width="12.4" height="19.6"></rect> </g> <g> <rect x="262.1" y="121.2" class="st2" width="12.4" height="19.6"></rect> </g> <g> <rect x="278.4" y="121.2" class="st2" width="12.4" height="19.6"></rect> </g> <g> <rect x="294.6" y="121.2" class="st2" width="12.4" height="19.6"></rect> </g> </g> <g> <g> <rect x="245.9" y="151.5" class="st2" width="12.4" height="19.6"></rect> </g> <g> <rect x="262.1" y="151.5" class="st2" width="12.4" height="19.6"></rect> </g> <g> <rect x="278.4" y="151.5" class="st2" width="12.4" height="19.6"></rect> </g> <g> <rect x="294.6" y="151.5" class="st2" width="12.4" height="19.6"></rect> </g> </g> <g> <g> <rect x="245.9" y="181.8" class="st2" width="12.4" height="19.6"></rect> </g> <g> <rect x="262.1" y="181.8" class="st2" width="12.4" height="19.6"></rect> </g> <g> <rect x="278.4" y="181.8" class="st2" width="12.4" height="19.6"></rect> </g> <g> <rect x="294.6" y="181.8" class="st2" width="12.4" height="19.6"></rect> </g> </g> </g> </g> <g> <g> <g> <polygon class="st3" points="74.6,224.2 77.6,243.7 246.9,243.7 250.2,224.2 "></polygon> </g> <g> <polygon class="st4" points="250.2,224.2 189.3,224.2 181.2,83.1 272.6,83.1 "></polygon> </g> <g> <g> <g> <rect x="237.3" y="94.3" class="st3" width="13.7" height="15.8"></rect> <path class="st2" d="M251.5,110.7h-14.8v-17h14.8V110.7z M237.8,109.5h12.5V94.8h-12.5V109.5z"></path> </g> <g> <rect x="217.5" y="94.3" class="st5" width="13.7" height="15.8"></rect> <path class="st2" d="M231.8,110.7h-14.8v-17h14.8V110.7z M218.1,109.5h12.5V94.8h-12.5V109.5z"></path> </g> </g> <g> <g> <rect x="237.3" y="115.4" class="st5" width="13.7" height="15.8"></rect> <path class="st2" d="M251.5,131.8h-14.8v-17h14.8V131.8z M237.8,130.7h12.5V116h-12.5V130.7z"></path> </g> <g> <rect x="217.5" y="115.4" class="st5" width="13.7" height="15.8"></rect> <path class="st2" d="M231.8,131.8h-14.8v-17h14.8V131.8z M218.1,130.7h12.5V116h-12.5V130.7z"></path> </g> </g> <g> <g> <rect x="237.3" y="136.6" class="st5" width="13.7" height="15.8"></rect> <path class="st2" d="M251.5,153h-14.8v-17h14.8V153z M237.8,151.9h12.5v-14.7h-12.5V151.9z"></path> </g> <g> <rect x="217.5" y="136.6" class="st5" width="13.7" height="15.8"></rect> <path class="st2" d="M231.8,153h-14.8v-17h14.8V153z M218.1,151.9h12.5v-14.7h-12.5V151.9z"></path> </g> </g> <g> <g> <rect x="237.3" y="157.8" class="st5" width="13.7" height="15.8"></rect> <path class="st2" d="M251.5,174.2h-14.8v-17h14.8V174.2z M237.8,173h12.5v-14.7h-12.5V173z"></path> </g> <g> <rect x="217.5" y="157.8" class="st5" width="13.7" height="15.8"></rect> <path class="st2" d="M231.8,174.2h-14.8v-17h14.8V174.2z M218.1,173h12.5v-14.7h-12.5V173z"></path> </g> </g> <g> <g> <rect x="237.3" y="179" class="st5" width="13.7" height="15.8"></rect> <path class="st2" d="M251.5,195.4h-14.8v-17h14.8V195.4z M237.8,194.2h12.5v-14.7h-12.5V194.2z"></path> </g> <g> <rect x="217.5" y="179" class="st5" width="13.7" height="15.8"></rect> <path class="st2" d="M231.8,195.4h-14.8v-17h14.8V195.4z M218.1,194.2h12.5v-14.7h-12.5V194.2z"></path> </g> </g> <g> <rect x="237.3" y="104.4" class="st2" width="13.7" height="0.6"></rect> </g> <g> <rect x="237.3" y="125.2" class="st2" width="13.7" height="0.6"></rect> </g> <g> <rect x="237.3" y="146.8" class="st2" width="13.7" height="0.6"></rect> </g> <g> <rect x="237.3" y="168" class="st2" width="13.7" height="0.6"></rect> </g> <g> <rect x="237.3" y="189.5" class="st2" width="13.7" height="0.6"></rect> </g> <g> <rect x="217.5" y="189.5" class="st2" width="13.7" height="0.6"></rect> </g> <g> <rect x="217.2" y="168" class="st2" width="13.7" height="0.6"></rect> </g> <g> <rect x="217.2" y="146.7" class="st2" width="13.7" height="0.6"></rect> </g> <g> <rect x="217.2" y="125.6" class="st2" width="13.7" height="0.6"></rect> </g> <g> <rect x="217.2" y="104.4" class="st2" width="13.7" height="0.6"></rect> </g> </g> <g> <polygon class="st4" points="127.4,224.2 74.6,224.2 60,86.6 137,86.6 "></polygon> </g> <g> <g> <g> <rect x="97.7" y="96.8" class="st5" width="13.7" height="15.8"></rect> <path class="st2" d="M112,113.2H97.2v-17H112V113.2z M98.3,112.1h12.5V97.4H98.3V112.1z"></path> </g> <g> <rect x="78" y="96.8" class="st5" width="13.7" height="15.8"></rect> <path class="st2" d="M92.2,113.2H77.4v-17h14.8V113.2z M78.5,112.1h12.5V97.4H78.5V112.1z"></path> </g> </g> <g> <g> <rect x="97.7" y="118" class="st5" width="13.7" height="15.8"></rect> <path class="st2" d="M112,134.4H97.2v-17H112V134.4z M98.3,133.2h12.5v-14.7H98.3V133.2z"></path> </g> <g> <rect x="78" y="118" class="st5" width="13.7" height="15.8"></rect> <path class="st2" d="M92.2,134.4H77.4v-17h14.8V134.4z M78.5,133.2h12.5v-14.7H78.5V133.2z"></path> </g> </g> <g> <g> <rect x="97.7" y="139.2" class="st5" width="13.7" height="15.8"></rect> <path class="st2" d="M112,155.6H97.2v-17H112V155.6z M98.3,154.4h12.5v-14.7H98.3V154.4z"></path> </g> <g> <rect x="78" y="139.2" class="st5" width="13.7" height="15.8"></rect> <path class="st2" d="M92.2,155.6H77.4v-17h14.8V155.6z M78.5,154.4h12.5v-14.7H78.5V154.4z"></path> </g> </g> <g> <g> <rect x="97.7" y="160.3" class="st5" width="13.7" height="15.8"></rect> <path class="st2" d="M112,176.7H97.2v-17H112V176.7z M98.3,175.6h12.5v-14.7H98.3V175.6z"></path> </g> <g> <rect x="78" y="160.3" class="st5" width="13.7" height="15.8"></rect> <path class="st2" d="M92.2,176.7H77.4v-17h14.8V176.7z M78.5,175.6h12.5v-14.7H78.5V175.6z"></path> </g> </g> <g> <g> <rect x="97.7" y="181.5" class="st5" width="13.7" height="15.8"></rect> <path class="st2" d="M112,197.9H97.2v-17H112V197.9z M98.3,196.8h12.5v-14.7H98.3V196.8z"></path> </g> <g> <rect x="78" y="181.5" class="st5" width="13.7" height="15.8"></rect> <path class="st2" d="M92.2,197.9H77.4v-17h14.8V197.9z M78.5,196.8h12.5v-14.7H78.5V196.8z"></path> </g> </g> <g> <rect x="97.7" y="106.9" class="st2" width="13.7" height="0.6"></rect> </g> <g> <rect x="97.7" y="127.8" class="st2" width="13.7" height="0.6"></rect> </g> <g> <rect x="97.7" y="149.3" class="st2" width="13.7" height="0.6"></rect> </g> <g> <rect x="97.7" y="170.5" class="st2" width="13.7" height="0.6"></rect> </g> <g> <rect x="97.7" y="192" class="st2" width="13.7" height="0.6"></rect> </g> <g> <rect x="78" y="192" class="st2" width="13.7" height="0.6"></rect> </g> <g> <rect x="77.6" y="170.5" class="st2" width="13.7" height="0.6"></rect> </g> <g> <rect x="77.6" y="149.3" class="st2" width="13.7" height="0.6"></rect> </g> <g> <rect x="77.6" y="128.1" class="st2" width="13.7" height="0.6"></rect> </g> <g> <rect x="77.6" y="106.9" class="st2" width="13.7" height="0.6"></rect> </g> </g> <g> <polygon class="st1" points="213.2,224.2 113.3,224.2 103.1,47.7 225.7,47.7 "></polygon> </g> <g> <polygon class="st3" points="207.7,79.2 122.4,83.1 117.9,65.6 210.8,65.6 "></polygon> <path class="st2" d="M121.9,83.7L117.2,65h94.4l-3.4,14.8L121.9,83.7z M118.6,66.2l4.2,16.3l84.5-3.8l2.9-12.5H118.6z"></path> </g> <g> <polygon class="st3" points="207.7,136.6 122.4,140.4 117.9,122.9 210.8,122.9 "></polygon> <path class="st2" d="M121.9,141l-4.8-18.7h94.4l-3.4,14.8l-0.4,0L121.9,141z M118.6,123.5l4.2,16.3l84.5-3.8l2.9-12.5H118.6z"></path> </g> <g> <polygon class="st3" points="121,107.9 206.4,111.7 210.8,94.3 117.9,94.3 "></polygon> <path class="st2" d="M206.8,112.3l-86.3-3.9l-3.4-14.8h94.4L206.8,112.3z M121.5,107.4l84.5,3.8l4.2-16.3h-91.5L121.5,107.4z"></path> </g> <g> <polygon class="st3" points="121,167.3 206.4,171.1 210.8,153.6 117.9,153.6 "></polygon> <path class="st2" d="M206.8,171.7l-0.5,0l-85.8-3.8l-3.4-14.8h94.4L206.8,171.7z M121.5,166.7l84.5,3.8l4.2-16.3h-91.5 L121.5,166.7z"></path> </g> <g> <rect x="129" y="192.8" class="st3" width="68.9" height="31.4"></rect> <path class="st4" d="M199.2,225.4h-71.4v-33.9h71.4V225.4z M130.3,222.9h66.3v-28.8h-66.3V222.9z"></path> </g> <g> <rect x="127.8" y="224.2" class="st4" width="71.4" height="6.5"></rect> </g> <g> <rect x="123.8" y="230.7" class="st4" width="79.4" height="6.5"></rect> </g> <g> <rect x="120.3" y="237.2" class="st4" width="86.3" height="6.5"></rect> </g> <g> <rect x="161.3" y="193.4" class="st4" width="2.8" height="29.6"></rect> </g> <g> <polygon class="st3" points="205.6,47.7 123.8,47.7 120.3,31.4 206.7,26.7 "></polygon> </g> <g class="st6"> <polygon class="st7" points="138.6,223.3 143.9,193.7 153.5,193.7 146,223.3 "></polygon> </g> <g class="st6"> <polygon class="st7" points="173.8,223 179.1,193.4 188.7,193.4 181.2,223 "></polygon> </g> <g class="st6"> <polygon class="st7" points="149.1,223 156.1,193.7 158.9,193.7 151.8,223 "></polygon> </g> <g class="st6"> <polygon class="st7" points="184.6,223.1 191.6,193.8 194.4,193.8 187.3,223.1 "></polygon> </g> <g> <g> <path class="st2" d="M151.1,34.7v7.7H149v-3h-2.6v3h-2.1v-7.7h2.1v2.8h2.6v-2.8H151.1z"></path> </g> <g> <path class="st2" d="M157.8,42.5c-0.5,0-1-0.1-1.5-0.3c-0.4-0.2-0.8-0.5-1.2-0.9c-0.3-0.4-0.6-0.8-0.7-1.3 c-0.2-0.5-0.3-1-0.3-1.5c0-0.5,0.1-1,0.3-1.5c0.2-0.5,0.4-0.9,0.8-1.2c0.3-0.4,0.7-0.6,1.2-0.9c0.4-0.2,0.9-0.3,1.5-0.3 c0.5,0,1,0.1,1.5,0.3c0.4,0.2,0.8,0.5,1.2,0.9c0.3,0.4,0.6,0.8,0.7,1.3c0.2,0.5,0.3,0.9,0.3,1.4c0,0.5-0.1,1-0.3,1.5 c-0.2,0.5-0.4,0.9-0.8,1.2c-0.3,0.4-0.7,0.6-1.2,0.9C158.9,42.4,158.4,42.5,157.8,42.5z M156.3,38.6c0,0.3,0,0.5,0.1,0.8 c0.1,0.2,0.2,0.5,0.3,0.6c0.1,0.2,0.3,0.3,0.5,0.5c0.2,0.1,0.4,0.2,0.7,0.2c0.3,0,0.5-0.1,0.7-0.2c0.2-0.1,0.4-0.3,0.5-0.5 c0.1-0.2,0.2-0.4,0.3-0.7c0.1-0.2,0.1-0.5,0.1-0.7c0-0.3,0-0.5-0.1-0.8c-0.1-0.2-0.2-0.5-0.3-0.6c-0.1-0.2-0.3-0.3-0.5-0.4 c-0.2-0.1-0.4-0.2-0.7-0.2c-0.3,0-0.5,0.1-0.7,0.2c-0.2,0.1-0.3,0.3-0.5,0.5c-0.1,0.2-0.2,0.4-0.3,0.6 C156.3,38.1,156.3,38.3,156.3,38.6z"></path> </g> <g> <path class="st2" d="M170.4,36.6h-2.2v5.8h-2.1v-5.8h-2.2v-1.8h6.5V36.6z"></path> </g> <g> <path class="st2" d="M178.7,40.6v1.8h-5.5v-7.7h5.4v1.8h-3.3v1.1h2.8v1.7h-2.8v1.2H178.7z"></path> </g> <g> <path class="st2" d="M181.9,42.4v-7.7h2.1v5.8h3.5v1.8H181.9z"></path> </g> </g> <g> <rect x="127.8" y="228.9" class="st1" width="71.4" height="1.8"></rect> </g> <g> <rect x="123.8" y="235.2" class="st1" width="79.4" height="2"></rect> </g> <g> <rect x="120.3" y="242" class="st1" width="86.3" height="1.7"></rect> </g> </g> <g> <g> <path class="st8" d="M252.7,192.8c4.6-18.7,22.9-35.7,44.6-37.3c3.2-0.3,7.4,0.3,8.6,3c0.7,1.6,0.1,3.4-1,4.7 c-1.1,1.3-2.8,2.2-4.3,3c-5.3,2.8-10.5,5.6-15.8,8.4c1.8-0.2,3.7-0.3,5.4,0.3c1.7,0.7,3,2.5,2.4,4c-0.4,1-1.6,1.6-2.6,2 c-3.1,1.4-6.2,2.8-9.3,4.2c1.4,0,2.9,0,4.2,0.5c1.3,0.6,2.3,2,1.9,3.2c-0.4,1-1.5,1.5-2.6,2c-3.3,1.3-6.6,2.7-9.9,4 c1.8-0.7,3.8,1.4,3.5,3.2c-0.3,1.8-1.9,3-3.4,4.1c-5,3.6-9.9,7.1-14.9,10.7C249.5,220,251.7,196.7,252.7,192.8z"></path> </g> <g> <g> <g> <path class="st9" d="M255.1,212.1c4.6-24.3,21.9-44.4,45.2-52.6c0.4-0.1,0.2-0.7-0.2-0.6c-23.6,8.2-41,28.6-45.7,53.1 C254.4,212.3,255,212.5,255.1,212.1L255.1,212.1z"></path> </g> </g> <g> <g> <path class="st9" d="M263.7,189.3c7.8-5.3,16.5-8.8,25.8-10.4c0.4-0.1,0.2-0.7-0.2-0.6c-9.3,1.6-18.1,5.1-25.9,10.5 C263,189,263.4,189.5,263.7,189.3L263.7,189.3z"></path> </g> </g> <g> <g> <path class="st9" d="M259,198.4c6.4-5.1,13.8-8.4,21.6-11c0.4-0.1,0.2-0.7-0.2-0.6c-7.9,2.6-15.4,5.9-21.9,11.1 C258.3,198.3,258.7,198.7,259,198.4L259,198.4z"></path> </g> </g> <g> <g> <path class="st9" d="M256.3,206.5c5-3.1,10.4-5.5,15.9-7.4c0.4-0.1,0.2-0.7-0.2-0.6c-5.6,1.9-11,4.4-16.1,7.5 C255.6,206.1,255.9,206.7,256.3,206.5L256.3,206.5z"></path> </g> </g> </g> <g> <path class="st8" d="M261.1,213.4c10.1-16.4,32.6-26.9,53.8-21.8c3.2,0.8,6.9,2.5,7.2,5.5c0.2,1.7-0.9,3.3-2.4,4.1 c-1.5,0.9-3.3,1.2-5,1.5c-5.9,1.1-11.7,2.1-17.6,3.2c1.8,0.4,3.7,0.8,5.1,2c1.4,1.2,2.1,3.3,1,4.5c-0.7,0.8-2,1-3.1,1.1 c-3.4,0.4-6.7,0.8-10.1,1.1c1.4,0.4,2.8,0.9,3.9,1.8c1.1,1,1.6,2.6,0.8,3.6c-0.7,0.8-1.9,1-3.1,1.1c-3.5,0.3-7.1,0.5-10.6,0.8 c1.9-0.1,3.2,2.5,2.4,4.1c-0.8,1.6-2.7,2.3-4.5,2.8c-5.8,1.9-11.6,3.7-17.4,5.6C249.7,238.3,259,216.8,261.1,213.4z"></path> </g> <g> <g> <g> <path class="st2" d="M258.2,233.2c10.9-22.2,32.9-37,57.5-38.6c0.4,0,0.4-0.7,0-0.6c-24.9,1.6-47.1,16.6-58.1,38.9 C257.5,233.2,258.1,233.6,258.2,233.2L258.2,233.2z"></path> </g> </g> <g> <g> <path class="st2" d="M272.6,213.6c8.9-3.1,18.2-4.1,27.6-3.1c0.4,0,0.4-0.6,0-0.6c-9.4-1-18.8,0.1-27.7,3.2 C272,213.1,272.2,213.7,272.6,213.6L272.6,213.6z"></path> </g> </g> <g> <g> <path class="st2" d="M265.7,221.1c7.6-3.2,15.6-4.4,23.8-4.8c0.4,0,0.4-0.7,0-0.6c-8.3,0.4-16.4,1.6-24.1,4.9 C265,220.8,265.3,221.3,265.7,221.1L265.7,221.1z"></path> </g> </g> <g> <g> <path class="st2" d="M260.9,228.2c5.7-1.6,11.4-2.6,17.3-2.9c0.4,0,0.4-0.7,0-0.6c-5.9,0.3-11.8,1.3-17.5,2.9 C260.4,227.7,260.5,228.3,260.9,228.2L260.9,228.2z"></path> </g> </g> </g> <g> <path class="st9" d="M243,223c4.6-18.7,22.9-35.7,44.6-37.3c3.2-0.3,7.4,0.3,8.6,3c0.7,1.6,0.1,3.4-1,4.7c-1.1,1.3-2.8,2.2-4.3,3 c-5.3,2.8-10.5,5.6-15.8,8.4c1.8-0.2,3.7-0.3,5.4,0.3s3,2.5,2.4,4c-0.4,1-1.6,1.6-2.6,2c-3.1,1.4-6.2,2.8-9.3,4.2 c1.4,0,2.9,0,4.2,0.5c1.3,0.6,2.3,2,1.9,3.2c-0.4,1-1.5,1.5-2.6,2c-3.3,1.3-6.6,2.7-9.9,4c1.8-0.7,3.8,1.4,3.5,3.2 c-0.3,1.8-1.9,3-3.4,4.1c-5,3.6-9.9,7.1-14.9,10.7C239.7,250.2,242,226.9,243,223z"></path> </g> <g> <g> <g> <path class="st2" d="M246.6,243.4c3.6-24.4,20-45.3,43-54.5c0.4-0.1,0.2-0.8-0.2-0.6c-23.2,9.2-39.8,30.2-43.5,54.9 C245.9,243.7,246.5,243.8,246.6,243.4L246.6,243.4z"></path> </g> </g> <g> <g> <path class="st2" d="M254.3,220.3c7.5-5.6,16.1-9.5,25.3-11.5c0.4-0.1,0.2-0.7-0.2-0.6c-9.3,2-17.9,5.9-25.5,11.5 C253.6,220,253.9,220.6,254.3,220.3L254.3,220.3z"></path> </g> </g> <g> <g> <path class="st2" d="M250,229.7c6.2-5.4,13.5-9,21.2-11.8c0.4-0.1,0.2-0.8-0.2-0.6c-7.8,2.9-15.1,6.5-21.5,12 C249.2,229.5,249.7,229.9,250,229.7L250,229.7z"></path> </g> </g> <g> <g> <path class="st2" d="M247.6,237.8c4.9-3.3,10.1-6,15.6-8.1c0.4-0.1,0.2-0.8-0.2-0.6c-5.6,2.1-10.8,4.8-15.8,8.1 C246.9,237.5,247.2,238,247.6,237.8L247.6,237.8z"></path> </g> </g> </g> </g> <g> <g> <path class="st8" d="M70.6,192.9C66,174.3,47.7,157.3,26,155.6c-3.2-0.3-7.4,0.3-8.6,3c-0.7,1.6-0.1,3.4,1,4.7 c1.1,1.3,2.8,2.2,4.3,3c5.3,2.8,10.5,5.6,15.8,8.4c-1.8-0.2-3.7-0.3-5.4,0.3c-1.7,0.7-3,2.5-2.4,4c0.4,1,1.6,1.6,2.6,2 c3.1,1.4,6.2,2.8,9.3,4.2c-1.4,0-2.9,0-4.2,0.5c-1.3,0.6-2.3,2-1.9,3.2c0.4,1,1.5,1.5,2.6,2c3.3,1.3,6.6,2.7,9.9,4 c-1.8-0.7-3.8,1.4-3.5,3.2c0.3,1.8,1.9,3,3.4,4.1c5,3.6,9.9,7.1,14.9,10.7C73.8,220.2,71.5,196.9,70.6,192.9z"></path> </g> <g> <g> <g> <path class="st9" d="M68.8,212.1c-4.7-24.5-22.1-44.8-45.7-53.1c-0.4-0.1-0.6,0.5-0.2,0.6c23.4,8.2,40.6,28.3,45.2,52.6 C68.3,212.6,68.9,212.5,68.8,212.1L68.8,212.1z"></path> </g> </g> <g> <g> <path class="st9" d="M59.9,188.9c-7.8-5.3-16.6-8.9-25.9-10.5c-0.4-0.1-0.6,0.5-0.2,0.6c9.3,1.6,18,5.1,25.8,10.4 C59.9,189.7,60.2,189.2,59.9,188.9L59.9,188.9z"></path> </g> </g> <g> <g> <path class="st9" d="M64.7,198.2c-6.5-5.2-14-8.6-21.9-11.1c-0.4-0.1-0.6,0.5-0.2,0.6c7.8,2.5,15.2,5.8,21.6,11 C64.5,198.9,65,198.4,64.7,198.2L64.7,198.2z"></path> </g> </g> <g> <g> <path class="st9" d="M67.3,206.1c-5.1-3.1-10.5-5.6-16.1-7.5c-0.4-0.1-0.6,0.5-0.2,0.6c5.6,1.9,10.9,4.3,15.9,7.4 C67.3,206.9,67.6,206.3,67.3,206.1L67.3,206.1z"></path> </g> </g> </g> <g> <path class="st8" d="M62.1,213.5c-10.1-16.4-32.6-26.9-53.8-21.8c-3.2,0.8-6.9,2.5-7.2,5.5c-0.2,1.7,0.9,3.3,2.4,4.1 c1.5,0.9,3.3,1.2,5,1.5c5.9,1.1,11.7,2.1,17.6,3.2c-1.8,0.4-3.7,0.8-5.1,2c-1.4,1.2-2.1,3.3-1,4.5c0.7,0.8,2,1,3.1,1.1 c3.4,0.4,6.7,0.8,10.1,1.1c-1.4,0.4-2.8,0.9-3.9,1.8c-1.1,1-1.6,2.6-0.8,3.6c0.7,0.8,1.9,1,3.1,1.1c3.5,0.3,7.1,0.5,10.6,0.8 c-1.9-0.1-3.2,2.5-2.4,4.1c0.8,1.6,2.7,2.3,4.5,2.8c5.8,1.9,11.6,3.7,17.4,5.6C73.5,238.5,64.3,217,62.1,213.5z"></path> </g> <g> <g> <g> <path class="st2" d="M65.6,233.1c-11-22.4-33.2-37.3-58.1-38.9c-0.4,0-0.4,0.6,0,0.6c24.7,1.6,46.6,16.5,57.5,38.6 C65.2,233.7,65.8,233.4,65.6,233.1L65.6,233.1z"></path> </g> </g> <g> <g> <path class="st2" d="M50.8,213.1c-8.9-3.1-18.3-4.1-27.7-3.2c-0.4,0-0.4,0.7,0,0.6c9.3-1,18.7,0.1,27.6,3.1 C51.1,213.9,51.2,213.3,50.8,213.1L50.8,213.1z"></path> </g> </g> <g> <g> <path class="st2" d="M57.9,220.8c-7.7-3.3-15.8-4.5-24.1-4.9c-0.4,0-0.4,0.6,0,0.6c8.2,0.4,16.2,1.5,23.8,4.8 C58,221.5,58.3,220.9,57.9,220.8L57.9,220.8z"></path> </g> </g> <g> <g> <path class="st2" d="M62.5,227.7c-5.7-1.6-11.6-2.6-17.5-2.9c-0.4,0-0.4,0.6,0,0.6c5.9,0.3,11.7,1.3,17.3,2.9 C62.7,228.4,62.9,227.8,62.5,227.7L62.5,227.7z"></path> </g> </g> </g> <g> <path class="st9" d="M80.3,223.1c-4.6-18.7-22.9-35.7-44.6-37.3c-3.2-0.3-7.4,0.3-8.6,3c-0.7,1.6-0.1,3.4,1,4.7 c1.1,1.3,2.8,2.2,4.3,3c5.3,2.8,10.5,5.6,15.8,8.4c-1.8-0.2-3.7-0.3-5.4,0.3c-1.7,0.7-3,2.5-2.4,4c0.4,1,1.6,1.6,2.6,2 c3.1,1.4,6.2,2.8,9.3,4.2c-1.4,0-2.9,0-4.2,0.5c-1.3,0.6-2.3,2-1.9,3.2c0.4,1,1.5,1.5,2.6,2c3.3,1.3,6.6,2.7,9.9,4 c-1.8-0.7-3.8,1.4-3.5,3.2c0.3,1.8,1.9,3,3.4,4.1c5,3.6,9.9,7.1,14.9,10.7C83.5,250.4,81.3,227.1,80.3,223.1z"></path> </g> <g> <g> <g> <path class="st2" d="M77.3,243.4c-3.7-24.7-20.3-45.7-43.5-54.9c-0.4-0.2-0.5,0.5-0.2,0.6c23,9.1,39.4,30,43,54.5 C76.8,244,77.4,243.8,77.3,243.4L77.3,243.4z"></path> </g> </g> <g> <g> <path class="st2" d="M69.3,220c-7.6-5.7-16.2-9.6-25.5-11.5c-0.4-0.1-0.6,0.5-0.2,0.6c9.2,1.9,17.8,5.8,25.3,11.5 C69.3,220.8,69.6,220.2,69.3,220L69.3,220z"></path> </g> </g> <g> <g> <path class="st2" d="M73.7,229.4c-6.3-5.5-13.7-9.1-21.5-12c-0.4-0.1-0.5,0.5-0.2,0.6c7.7,2.9,14.9,6.4,21.2,11.8 C73.6,230.1,74,229.7,73.7,229.4L73.7,229.4z"></path> </g> </g> <g> <g> <path class="st2" d="M76,237.4c-5-3.3-10.2-6-15.8-8.1c-0.4-0.1-0.5,0.5-0.2,0.6c5.5,2.1,10.7,4.8,15.6,8.1 C76,238.2,76.3,237.7,76,237.4L76,237.4z"></path> </g> </g> </g> </g> <g> <g> <path class="st1" d="M204.9,246.3c-1.3,0-2.4-0.9-2.7-2.2c-0.2-0.8-3.6-19.8,14.5-32c1.3-0.8,2.9-0.5,3.8,0.7 c0.8,1.2,0.5,2.9-0.7,3.8c-15.2,10.2-12.2,26.3-12.2,26.5c0.3,1.5-0.7,2.9-2.2,3.2C205.2,246.3,205.1,246.3,204.9,246.3z"></path> </g> <g> <path class="st9" d="M228.9,243.8c1.3-4.5,0.4-9.7-2.4-13.5c-1,1.5-1.9,3-2.9,4.5c0.4-4.2-0.1-8.5-1.5-12.5 c-0.9,1.4-1.7,2.7-2.6,4.1c1.5-2.3-0.9-10.1-1.2-12.7c5.6-3.3,11.8-0.3,13.9,5.3C235.4,227.2,233.3,236.2,228.9,243.8z"></path> </g> <g> <path class="st8" d="M245.5,228.9c-1.9-4.4-5.8-7.7-10.4-8.9c0.2,1.8,0.4,3.5,0.6,5.3c-2.4-3.5-5.5-6.5-9.1-8.7 c0.2,1.6,0.4,3.2,0.6,4.8c-0.3-2.8-7.1-7.2-9-9.1c2.2-6.1,8.9-7.8,14.1-4.8C240.1,212,244.2,220.3,245.5,228.9z"></path> </g> <g> <path class="st9" d="M194.7,228.2c1.9-4.3,5.9-7.7,10.5-8.8c-0.2,1.8-0.5,3.5-0.7,5.3c2.4-3.5,5.6-6.4,9.2-8.6 c-0.2,1.6-0.4,3.2-0.6,4.8c0.4-2.8,7.2-7.1,9.1-8.9c-2.1-6.1-8.8-7.9-14-5.1C200.5,211.3,196.2,219.6,194.7,228.2z"></path> </g> <g> <path class="st8" d="M191.6,203.4c4.4-1.6,9.6-1.1,13.6,1.5c-1.4,1.1-2.8,2.1-4.3,3.2c4.2-0.6,8.5-0.4,12.5,0.7 c-1.3,1-2.6,1.9-3.9,2.9c2.2-1.7,10.1,0.3,12.7,0.4c2.9-5.8-0.5-11.8-6.1-13.6C207.6,195.8,198.8,198.4,191.6,203.4z"></path> </g> </g> <g> <g> <path class="st1" d="M119.8,246.7c-0.2,0-0.4,0-0.5-0.1c-1.5-0.3-2.5-1.7-2.2-3.2c0.1-0.7,2.9-16.4-12.2-26.6 c-1.3-0.8-1.6-2.6-0.7-3.8c0.8-1.3,2.6-1.6,3.8-0.7c18.2,12.3,14.7,31.4,14.6,32.2C122.2,245.8,121,246.7,119.8,246.7z"></path> </g> <g> <path class="st9" d="M95.7,244.2c-1.3-4.6-0.4-9.7,2.4-13.6c1,1.5,1.9,3,2.9,4.5c-0.4-4.2,0.2-8.6,1.5-12.6 c0.9,1.4,1.8,2.7,2.6,4.1c-1.5-2.3,0.9-10.1,1.2-12.8c-5.6-3.3-11.8-0.3-14,5.3C89.1,227.5,91.2,236.6,95.7,244.2z"></path> </g> <g> <path class="st8" d="M78.9,229.3c1.9-4.4,5.8-7.8,10.4-9c-0.2,1.8-0.4,3.6-0.6,5.3c2.4-3.5,5.5-6.5,9.1-8.7 c-0.2,1.6-0.4,3.2-0.6,4.8c0.3-2.8,7.1-7.2,9-9.1c-2.3-6.1-8.9-7.8-14.1-4.9C84.4,212.3,80.3,220.6,78.9,229.3z"></path> </g> <g> <path class="st9" d="M130,228.5c-1.9-4.3-6-7.7-10.6-8.8c0.2,1.8,0.5,3.5,0.7,5.3c-2.5-3.5-5.6-6.4-9.3-8.6 c0.2,1.6,0.4,3.2,0.6,4.8c-0.4-2.8-7.2-7.1-9.2-9c2.2-6.2,8.8-8,14-5.1C124.2,211.6,128.5,219.9,130,228.5z"></path> </g> <g> <path class="st8" d="M133.1,203.6c-4.4-1.6-9.6-1.1-13.6,1.5c1.4,1.1,2.8,2.1,4.3,3.2c-4.2-0.6-8.5-0.4-12.6,0.7 c1.3,1,2.6,1.9,3.9,2.9c-2.2-1.7-10.1,0.3-12.8,0.4c-2.9-5.9,0.5-11.9,6.2-13.7C117,195.9,125.9,198.7,133.1,203.6z"></path> </g> </g> </g> <g> <path class="st10" d="M286.5,225.5c0.1-0.1,0.2-0.3,0.4-0.2c0.1,0.1,0.1,0.2,0.1,0.3c0,0.8-0.3,1.6-0.6,2.4 c-0.1,0.2-0.1,0.3-0.2,0.4c-0.7,0.7-0.6-0.6-0.5-0.9C285.9,226.8,286.1,226.1,286.5,225.5z"></path> </g> <g> <g> <g> <g> <g> <path class="st10" d="M161.9,253.4l-3.4,33.4l-0.1,1.3h-1.6l0-1.1c0-0.1,0-0.2,0-0.3l0-1l-1-32.3H161.9z"></path> </g> <g> <polygon class="st10" points="168.3,253.4 164.8,285.7 164.7,286.6 164.6,287.5 163.2,288.1 163.2,287.1 163.1,285.1 162.1,253.4 "></polygon> </g> <g> <g> <path class="st10" d="M172.1,202.2c2.4,5.1,4.1,10.6,4.4,16.2c0.3,5.6-1,11.5-4.2,16.1c-0.4,0.6-0.9,1.2-1.5,1.6 c-0.6,0.4-1.4,0.5-2.1,0.2c-0.6-0.3-1-1.2-0.6-1.8c0.4-0.7,1.5-0.7,2.3-1.1c1-0.5,1.4-1.7,1.6-2.7c2-7.8,0.1-16.6-4.9-22.9 c-1.5-1.9-3.2-3.5-4.2-5.7c-0.9-2-1.1-4.3-0.6-6.5c0.3-1.1,1.1-2.6,2.5-2.5c1.1,0.1,2.3,1.5,2.9,2.3 C169.7,197.3,171,199.8,172.1,202.2z"></path> </g> <g> <path class="st10" d="M154.6,200.5c-5.5-1.3-10.8-3.3-15.4-6.6s-8.3-7.9-9.9-13.3c-0.2-0.7-0.4-1.4-0.3-2.1 c0.1-0.7,0.5-1.4,1.1-1.7c0.7-0.3,1.6,0,1.8,0.6c0.3,0.8-0.4,1.6-0.5,2.5c-0.2,1.1,0.4,2.1,1.1,3c4.9,6.4,12.9,10.4,20.9,10.4 c2.4,0,4.8-0.3,7.1,0.2c2.1,0.5,4.1,1.8,5.4,3.6c0.7,0.9,1.4,2.5,0.4,3.6c-0.8,0.8-2.6,0.8-3.6,0.9 C159.9,201.6,157.2,201.2,154.6,200.5z"></path> </g> <g> <path class="st3" d="M155.4,219.3c0,0-0.6,3.2-2,7.1c-1.4,3.9-1.5,29.1-1.5,29.1l18.4,3.6c0,0-1.4-29.2-2.7-34.9 c-1.3-5.7-1-5.8-1-5.8h-11.3L155.4,219.3z"></path> </g> <g> <path class="st10" d="M159.3,179c-0.5,0.9-0.9,1.8-1.2,2.8c-0.5,1.5-1,3.2-0.7,4.8c0.3,1.8,1.6,3.3,3.3,3.9 c1.7,0.5,3.7,0,4.8-1.4c1-1.2,1.3-2.9,1.2-4.5c-0.1-1.6-0.4-3.2-1.3-4.6C163.9,177.5,161.1,176.2,159.3,179z"></path> </g> <g> <path class="st10" d="M160.1,196.4c1.5,0.6,3.2,0.6,4.7,0.2c-0.4-2.3-0.4-4.7,0-7c0-0.2,0.1-0.5-0.1-0.7 c-0.1-0.1-0.3-0.1-0.5-0.1c-2-0.2-3.6-0.9-3.4,1.6C160.9,190.9,160.9,196.7,160.1,196.4z"></path> </g> <g> <path class="st2" d="M165.5,193.1c-2.7,0.8-4.9,0.5-6.6-0.6c-2.6,6.7-5.1,15.2-5.5,26.9l15.7,1.7 C169.9,212.3,167.7,203,165.5,193.1z"></path> </g> <g> <path class="st11" d="M158.1,180c0.7,1.5,2.4,1.4,2.8,3.1c0.5,2.1,0.1,4.5-0.9,6.3c-0.8,1.4-2,2.9-1.7,4.5 c0.2,1.3,1.3,2.2,2.3,3c1.7,1.4,3.1,4.2,3.4,6.4c0.1,1.1-0.1,2.2,0,3.4c0.1,1.1,0.5,2.3,1.6,2.8c1.6,0.7,3.7-0.9,5.1,0.2 c0.9,0.7,0.9,1.9,1.5,2.9c0.9,1.5,2.9,1.8,4.6,1.4c1.9-0.5,3.5-2,4.2-3.9c0.7-1.8,0.5-4-0.6-5.7c-0.8-1.4-2.2-2.4-2.7-3.9 c-1.1-3.1,1.7-6.8,0.2-9.7c-1.3-2.4-4.9-2.8-6.2-5.2c-0.7-1.3-0.6-2.9-0.9-4.3c-0.4-2.2-1.9-4.1-3.9-5.1c-1.8-0.9-4.1-1-6-0.3 C159.2,176.4,157.3,178.2,158.1,180z"></path> </g> <g> <path class="st2" d="M135,177l-3.6,1.6c-0.3,0.1-0.6,0-0.8-0.3l-2.9-6.4c-0.1-0.3,0-0.7,0.3-0.8l3.6-1.6 c0.3-0.1,0.6,0,0.8,0.3l2.9,6.4C135.5,176.5,135.3,176.8,135,177z"></path> <path class="st8" d="M131.2,179c-0.1,0-0.2,0-0.3-0.1c-0.2-0.1-0.4-0.3-0.5-0.5l-2.9-6.4c-0.2-0.5,0-1,0.5-1.3l3.6-1.6 c0.2-0.1,0.5-0.1,0.7,0c0.2,0.1,0.4,0.3,0.5,0.5l2.9,6.4c0.2,0.5,0,1-0.5,1.3h0l-3.6,1.6C131.5,179,131.3,179,131.2,179z M131.9,169.8C131.8,169.8,131.8,169.8,131.9,169.8l-3.7,1.7c-0.1,0.1-0.2,0.2-0.1,0.3l2.9,6.4c0,0.1,0.1,0.1,0.1,0.1 c0.1,0,0.1,0,0.2,0l3.6-1.6c0.1-0.1,0.2-0.2,0.1-0.3l-2.9-6.4C132.1,169.9,132,169.8,131.9,169.8 C131.9,169.8,131.9,169.8,131.9,169.8z"></path> </g> </g> <g> <path class="st8" d="M158.5,287c0,0.4,0,0.7-0.1,1.1c0,0.1,0,0.2,0,0.3c0,0.2,0,0.5,0,0.7c0,0.2,0,0.3-0.1,0.5 c-0.1,0.2-0.4,0.3-0.7,0.3c-0.9,0-1.7-0.3-2.4-0.8c-0.7-0.5-1.3-1.2-1.8-1.9c-0.1-0.2-0.3-0.4-0.3-0.6c-0.1-0.2,0-0.5,0.2-0.6 c0.2-0.1,0.4-0.1,0.5,0c0.4,0.1,0.8,0.3,1.2,0.5v0c0.4,0.3,0.8,0.6,1.2,1c0.5,0.6,0.7,0,0.7-0.6c0-0.1,0-0.2,0-0.3 C156.8,286.7,158.5,287,158.5,287z"></path> </g> <g> <path class="st8" d="M164.8,288.3c0,0.2,0,0.3,0,0.4c0,0.2,0,0.3-0.1,0.5c-0.1,0.2-0.4,0.3-0.7,0.3c-0.9,0-1.7-0.3-2.4-0.8 c-0.7-0.5-1.3-1.2-1.8-1.9c-0.1-0.2-0.3-0.3-0.3-0.6c-0.1-0.2,0-0.5,0.2-0.6c0.2-0.1,0.4-0.1,0.5,0c0.3,0.1,0.6,0.2,0.8,0.3 c0.6,0.3,1.1,0.7,1.5,1.2c0.4,0.4,0.5,0.3,0.6-0.1c0.1-0.2,0.1-0.5,0-0.8c0,0,1.5,0.2,1.5,0.3 C164.7,287.2,164.7,287.7,164.8,288.3z"></path> </g> <g> <path class="st10" d="M158.5,286.8l-0.1,1.3c0,0.1,0,0.2,0,0.3c0,0-0.1,0.1-0.1,0.1c-0.2,0.2-0.5,0.2-0.8,0.2 c-1-0.1-2.5-0.9-2.5-2.1c0.4,0.3,0.8,0.6,1.2,1c0.5,0.6,0.7,0,0.7-0.6c0-0.1,0-0.2,0-0.3l0-1c0.5,0.1,0.9,0.2,1.1,0.3 C158.2,286.2,158.4,286.5,158.5,286.8z"></path> </g> <g> <path class="st10" d="M164.8,288.3c-0.3,0.2-0.7,0.1-1.1,0c-0.7-0.2-1.4-0.5-1.9-1c-0.3-0.3-0.7-0.9-0.8-1.4 c0.6,0.3,1.1,0.7,1.5,1.2c0.4,0.4,0.5,0.3,0.6-0.1l-0.1-2.1c0.1,0,0.2,0,0.3,0c0.4,0,0.9,0.2,1.2,0.4c0.1,0.1,0.1,0.1,0.2,0.2 l-0.1,0.9C164.7,287.2,164.7,287.7,164.8,288.3z"></path> </g> </g> <g> <g> <rect x="186.9" y="254.4" class="st9" width="1.2" height="5.4"></rect> </g> <g> <rect x="180.5" y="254.4" class="st9" width="1.2" height="5.4"></rect> </g> <g> <path class="st3" d="M192,289.5h-16c-1.8,0-3.3-1.5-3.3-3.3v-23.8c0-1.8,1.5-3.3,3.3-3.3h16c1.8,0,3.3,1.5,3.3,3.3v23.8 C195.4,288,193.9,289.5,192,289.5z"></path> </g> <g> <ellipse class="st7" cx="176.1" cy="289.2" rx="2.4" ry="2.4"></ellipse> </g> <g> <path class="st7" d="M194.1,288.7c0,1.3-1.1,2.4-2.4,2.4s-2.4-1.1-2.4-2.4c0-1.3,1.1-2.4,2.4-2.4S194.1,287.3,194.1,288.7z"></path> </g> <g> <path class="st8" d="M189.5,255.3h-10c-0.5,0-0.9-0.4-0.9-0.9v0c0-0.5,0.4-0.9,0.9-0.9h10c0.5,0,0.9,0.4,0.9,0.9v0 C190.4,254.9,190,255.3,189.5,255.3z"></path> </g> <g> <path class="st9" d="M190.7,282.4L187,285c-0.4,0.3-0.9,0.2-1.1-0.2l-1.7-2.5c-0.3-0.4-0.2-0.9,0.2-1.2l3.7-2.5 c0.4-0.3,0.9-0.2,1.1,0.2l1.7,2.5C191.2,281.7,191.1,282.2,190.7,282.4z"></path> </g> <g> <path class="st8" d="M185.8,278.5l-0.2-4.5c0-0.5,0.3-0.8,0.8-0.9l3-0.1c0.5,0,0.8,0.3,0.9,0.8l0.2,4.5c0,0.5-0.3,0.8-0.8,0.9 l-3,0.1C186.2,279.3,185.8,279,185.8,278.5z"></path> </g> <g> <path class="st2" d="M187.2,277.4h-6c0,0,0,0,0,0v-4.8c0,0,0,0,0,0h6c0,0,0,0,0,0L187.2,277.4 C187.2,277.4,187.2,277.4,187.2,277.4z"></path> <path class="st9" d="M187.2,277.7h-6.3l0-0.3v-5.2l0.3,0h6.3l0,0.3v5.2L187.2,277.7z M181.4,277.1h5.4v-4.3h-5.4V277.1z"></path> </g> </g> </g> <g> <ellipse class="st8" cx="176.1" cy="289.2" rx="1.1" ry="1.1"></ellipse> <path class="st12" d="M176.1,290.6c-0.8,0-1.4-0.6-1.4-1.4c0-0.8,0.6-1.4,1.4-1.4c0.8,0,1.4,0.6,1.4,1.4 C177.5,289.9,176.9,290.6,176.1,290.6z M176.1,288.4c-0.4,0-0.8,0.3-0.8,0.8c0,0.4,0.3,0.8,0.8,0.8c0.4,0,0.8-0.3,0.8-0.8 C176.9,288.8,176.5,288.4,176.1,288.4z"></path> </g> <g> <path class="st8" d="M192.7,288.7c0,0.6-0.5,1.1-1.1,1.1s-1.1-0.5-1.1-1.1c0-0.6,0.5-1.1,1.1-1.1S192.7,288.1,192.7,288.7z"></path> <path class="st12" d="M191.6,290.1c-0.8,0-1.4-0.6-1.4-1.4c0-0.8,0.6-1.4,1.4-1.4c0.8,0,1.4,0.6,1.4,1.4 C193,289.4,192.4,290.1,191.6,290.1z M191.6,287.9c-0.4,0-0.8,0.3-0.8,0.8c0,0.4,0.3,0.8,0.8,0.8c0.4,0,0.8-0.3,0.8-0.8 C192.4,288.2,192.1,287.9,191.6,287.9z"></path> </g> </g> <g> <g> <path class="st8" d="M166.4,114.5c0,22.1-36.5,47.8-36.5,47.8s-36.5-23.5-36.5-47.8c0-18.5,16.4-36.5,36.5-36.5 C150.1,78,166.4,95.9,166.4,114.5z"></path> <path class="st2" d="M129.9,163l-0.4-0.2c-0.1-0.1-9.3-6-18.4-14.9c-8.4-8.2-18.5-20.7-18.5-33.4c0-19.8,17.4-37.1,37.2-37.1 s37.2,17.4,37.2,37.1c0,9.3-6.2,20.3-18.5,32.6c-9.1,9.1-18.3,15.6-18.4,15.7L129.9,163z M129.9,78.6 c-19.1,0-35.9,16.8-35.9,35.9c0,22.4,32.1,44.5,35.9,47c3.7-2.7,35.9-26.7,35.9-47C165.8,95.3,149,78.6,129.9,78.6z"></path> </g> </g> </g> <g> <g> <circle class="st2" cx="129" cy="132.9" r="4.5"></circle> </g> <g> <path class="st2" d="M121.2,127.5c-0.6,0-1.3-0.2-1.8-0.7c-1-1-1-2.6,0-3.5c2.6-2.6,6-4,9.6-4c3.6,0,7,1.4,9.6,4c1,1,1,2.6,0,3.5 c-1,1-2.6,1-3.5,0c-1.6-1.6-3.8-2.5-6.1-2.5c-2.3,0-4.5,0.9-6.1,2.5C122.5,127.3,121.8,127.5,121.2,127.5z"></path> </g> <g> <path class="st2" d="M144.1,120.4c-0.6,0-1.3-0.2-1.8-0.7c-3.5-3.5-8.3-5.5-13.3-5.5c-5,0-9.7,2-13.3,5.5c-1,1-2.6,1-3.5,0 c-1-1-1-2.6,0-3.5c4.5-4.5,10.5-7,16.8-7c6.3,0,12.3,2.5,16.8,7c1,1,1,2.6,0,3.5C145.4,120.1,144.7,120.4,144.1,120.4z"></path> </g> <g> <path class="st2" d="M153.7,112.4c-0.6,0.6-1.4,0.9-2.1,0.9c-0.8,0-1.5-0.3-2.1-0.9c-5.5-5.5-12.7-8.5-20.5-8.5 c-7.7,0-15,3-20.5,8.5c-1.2,1.2-3.1,1.2-4.2,0c-1.2-1.2-1.2-3.1,0-4.2c1.6-1.6,3.4-3.1,5.3-4.3c5.7-3.8,12.4-5.9,19.5-5.9 c1.4,0,2.8,0.1,4.2,0.2c7.8,0.9,14.9,4.4,20.5,10C154.9,109.4,154.9,111.2,153.7,112.4z"></path> </g> </g> </svg> 