<svg width="399" height="388" viewBox="0 0 399 388" xmlns="http://www.w3.org/2000/svg">
    <g transform="translate(-1)" fill="none" fill-rule="evenodd">
        <path d="M209.43 94.56V4.11a4.1 4.1 0 0 0-6.16-3.55L63.88 81.61a4.1 4.1 0 0 0-2 3.54v90.45a4.1 4.1 0 0 0 6.16 3.54l139.39-81a4.1 4.1 0 0 0 2-3.58z" fill="#F5F5F5" fill-rule="nonzero"/>
        <path d="M82.33 160.94l-4.12 2.37v-2l4.11-2.31v2m11.64-6.72l-4.15 2.39v-3.14l4.15-2.4v3.14m46.52-26.91l-4.15 2.39v-6.3l4.15-2.45v6.31m58.16-33.59l-4.16 2.45v-7.82l4.15-2.35v7.81m-93.04 53.69l-4.11 2.39v-8.7l4.12-2.38v8.69m46.52-26.86l-4.13 2.36v-9.19l4.12-2.38v9.18m34.9-20.15l-4.15 2.39v-13.1l4.15-2.39v13.09m-23.26 13.43l-4.15 2.39V97.98l4.14-2.39.05 18.29m34.88-28l-4.19 2.47V77.4l4.15-2.4v11m-11.66 1.4l-4.15 2.39V81.1l4.15-2.39v8.7m-58.12 46.67l-4.12 2.38-.07-22.88 4.12-2.37.06 22.88M140.48 121l-4.15 2.4-.05-18.95 4.15-2.39.05 18.94m23.22-25.41L159.56 98v-7.62l4.12-2.38v7.62m-58.13 43.17l-4.07 2.39-.05-18.74 4.12-2.38.05 18.74m69.8-31.59l-4.12 2.38-.09-30.12 4.12-2.38.08 30.12m-46.58 4l-4.12 2.37v-7.93l4.12-2.37v7.93m-11.56 29.58l-4.15 2.39-.11-39.08 4.15-2.39.11 39.08m-23.27 10.29l-4.15 2.4-.12-44 4.15-2.39.12 44M82.32 159l-4.12 2.38-.13-46.09 4.12-2.39.13 46.1m-1.17-66.75l9.65 1.05a2.48 2.48 0 0 1 .91-1.06c.65-.37 1.17-.08 1.17.67a1.46 1.46 0 0 1 0 .35l9.5-1.25a2.6 2.6 0 0 1 1-1.31.75.75 0 0 1 1 0l9.57-11.27a1 1 0 0 1-.08-.42 2.54 2.54 0 0 1 1.14-2c.64-.37 1.17-.08 1.17.67a2.16 2.16 0 0 1-.2.84l9.9 3.91a2.4 2.4 0 0 1 .8-.81c.65-.37 1.17-.1 1.17.64a2.33 2.33 0 0 1-.29 1.06l10.12 6.88c.18-.259.41-.477.68-.64.62-.36 1.15-.06 1.15.68a2.18 2.18 0 0 1-.2.86l10 4.5a2.2 2.2 0 0 1 .76-.77.89.89 0 0 1 .71-.13l10-17.62a.83.83 0 0 1-.25-.68 2.55 2.55 0 0 1 1.16-2 1 1 0 0 1 .41-.14l10.38-28.33a.75.75 0 0 1-.48-.81 2.49 2.49 0 0 1 1.13-2c.65-.38 1.17-.11 1.18.64a2.39 2.39 0 0 1-.33 1.13l10.21 8.71a2.14 2.14 0 0 1 .62-.56c.65-.37 1.16-.08 1.17.67a2 2 0 0 1-.12.65l9.73 1.55a2.34 2.34 0 0 1 .88-1c.65-.37 1.17-.08 1.17.64a2.57 2.57 0 0 1-1.16 2c-.62.35-1.15.06-1.15-.69a1.87 1.87 0 0 1 .11-.62l-9.73-1.53a2.46 2.46 0 0 1-.9 1c-.62.36-1.15.06-1.15-.68a2.37 2.37 0 0 1 .32-1.12l-10.22-8.72a2.16 2.16 0 0 1-.62.56 1 1 0 0 1-.43.14l-10.49 28.39c.3.07.49.36.5.81a2.5 2.5 0 0 1-1.14 2 .93.93 0 0 1-.73.14l-10 17.62a.88.88 0 0 1 .26.69 2.56 2.56 0 0 1-1.16 2c-.65.37-1.15.06-1.15-.68.005-.3.07-.596.19-.87l-9.95-4.52a2.25 2.25 0 0 1-.75.76c-.65.37-1.16.08-1.17-.64a2.3 2.3 0 0 1 .28-1l-10.11-6.91a2.36 2.36 0 0 1-.68.65c-.65.37-1.17.07-1.17-.67.005-.29.07-.576.19-.84l-9.89-3.92a2.53 2.53 0 0 1-.8.83.73.73 0 0 1-.94 0l-9.52 11.21c.054.137.081.283.08.43a2.56 2.56 0 0 1-1.17 2c-.65.37-1.17.08-1.17-.64a1.81 1.81 0 0 1 0-.35l-9.5 1.25a2.52 2.52 0 0 1-1 1.3c-.62.36-1.14.06-1.15-.68a1.92 1.92 0 0 1 .1-.58l-9.67-1a2.46 2.46 0 0 1-.93 1c-.64.38-1.16.08-1.17-.67a2.58 2.58 0 0 1 1.16-2c.65-.37 1.17-.08 1.17.67a1.85 1.85 0 0 1-.09.6" fill="#FFF" fill-rule="nonzero"/>
        <path fill="#2B90FF" fill-rule="nonzero" d="M194.49 88.35l4.14-2.4.03 7.82-4.15 2.4-.02-7.82"/>
        <path fill="#9ECCFF" fill-rule="nonzero" d="M194.46 77.4l4.14-2.4.03 10.95-4.14 2.4-.03-10.95"/>
        <path fill="#2B90FF" fill-rule="nonzero" d="M182.83 89.79l4.15-2.39.03 13.1-4.14 2.39-.04-13.1"/>
        <path fill="#9ECCFF" fill-rule="nonzero" d="M182.81 81.1l4.14-2.4.03 8.7-4.15 2.39-.02-8.69"/>
        <path fill="#2B90FF" fill-rule="nonzero" d="M171.17 79.47l4.12-2.38.08 30.13-4.11 2.37-.09-30.12M159.56 98.03l4.14-2.39.05 18.28-4.14 2.39-.05-18.28"/>
        <path fill="#9ECCFF" fill-rule="nonzero" d="M159.54 90.41l4.15-2.39.01 7.62-4.14 2.39-.02-7.62"/>
        <path fill="#2B90FF" fill-rule="nonzero" d="M147.97 113.84l4.12-2.38.02 9.18-4.11 2.39-.03-9.19M136.33 123.44l4.15-2.39.02 6.31-4.15 2.39-.02-6.31"/>
        <path fill="#9ECCFF" fill-rule="nonzero" d="M136.28 104.5l4.15-2.39.05 18.94-4.15 2.39-.05-18.94"/>
        <path fill="#2B90FF" fill-rule="nonzero" d="M124.67 113.57l4.12-2.37.07 22.88-4.12 2.37-.07-22.88"/>
        <path fill="#9ECCFF" fill-rule="nonzero" d="M124.65 105.65l4.12-2.38.02 7.93-4.12 2.37-.02-7.92"/>
        <path fill="#2B90FF" fill-rule="nonzero" d="M112.98 104.1l4.15-2.4.11 39.08-4.15 2.39-.11-39.07M101.45 141.18l4.12-2.37.03 8.69-4.12 2.39-.03-8.71"/>
        <path fill="#9ECCFF" fill-rule="nonzero" d="M101.4 122.44l4.12-2.37.05 18.74-4.12 2.37-.05-18.74"/>
        <path fill="#2B90FF" fill-rule="nonzero" d="M89.82 153.47l4.15-2.4.01 3.14-4.15 2.4-.01-3.14"/>
        <path fill="#9ECCFF" fill-rule="nonzero" d="M89.7 109.48l4.15-2.39.12 43.98-4.15 2.4-.12-43.99"/>
        <path fill="#2B90FF" fill-rule="nonzero" d="M78.21 161.34l4.12-2.37.01 1.97-4.13 2.37v-1.97"/>
        <path fill="#9ECCFF" fill-rule="nonzero" d="M78.08 115.25l4.12-2.38.13 46.1-4.12 2.37-.13-46.09"/>
        <path d="M196.48 54.93c.65-.37 1.17-.08 1.17.64a2.57 2.57 0 0 1-1.16 2c-.62.35-1.15.06-1.15-.69a1.87 1.87 0 0 1 .11-.62l1 .15.14-.34-1-.15a2.34 2.34 0 0 1 .88-1M183.97 53.95a2.37 2.37 0 0 0-.32 1.12c0 .74.52 1 1.15.68a2.46 2.46 0 0 0 .9-1l-1-.15-.74-.64m.82-.89a2.14 2.14 0 0 0-.62.56l.71.61.95.15a2 2 0 0 0 .12-.65c0-.74-.52-1-1.17-.67M173.15 44.72l-.45 1.21a1 1 0 0 0 .43-.14 2.16 2.16 0 0 0 .62-.56l-.6-.51m0-1.58a2.49 2.49 0 0 0-1.13 2 .75.75 0 0 0 .48.81l.54-1.46.1-.28.86.73a2.39 2.39 0 0 0 .33-1.13c0-.74-.52-1-1.18-.64M162.22 74.28l-.55 1.47-.82 1.45a.93.93 0 0 0 .73-.14 2.5 2.5 0 0 0 1.14-2c0-.46-.2-.74-.5-.81m-.65.13a2.55 2.55 0 0 0-1.16 2 .83.83 0 0 0 .25.68l.82-1.36.53-1.44a1 1 0 0 0-.41.14M150.89 94.83l-.81 1.42-.1.17-.95-.43a2.25 2.25 0 0 0-.19.87c0 .74.5 1 1.15.68a2.56 2.56 0 0 0 1.16-2 .88.88 0 0 0-.26-.69m-.91 0a2.2 2.2 0 0 0-.76.77l.76.34.71-1.25a.89.89 0 0 0-.71.13M137.48 90.56a2.3 2.3 0 0 0-.28 1c0 .71.52 1 1.17.64.307-.19.565-.45.75-.76l-.87-.4-.77-.52m.88-1c-.27.163-.5.381-.68.64l.76.52.86.39a2.18 2.18 0 0 0 .2-.86c0-.74-.52-1-1.15-.68M125.67 82.78a2.12 2.12 0 0 0-.19.84c0 .74.52 1 1.17.67.268-.169.5-.39.68-.65l-.75-.52-.9-.35m1-1.15a2.4 2.4 0 0 0-.8.81l.9.36.77.53c.18-.325.28-.689.29-1.06 0-.74-.52-1-1.17-.64M114.97 78.54l-.93 1.11a.73.73 0 0 0 .94 0c.327-.211.6-.495.8-.83l-.8-.32m0-1.51a2.54 2.54 0 0 0-1.14 2 1 1 0 0 0 .08.42l1-1.2.08-.1.95.38c.123-.264.19-.55.2-.84 0-.74-.53-1-1.17-.67M104.48 90.94l-1 1.2-.08.07-1.13.15a1.81 1.81 0 0 0 0 .35c0 .71.52 1 1.17.64a2.56 2.56 0 0 0 1.17-2 1.14 1.14 0 0 0-.08-.43m-1.09-.24a2.6 2.6 0 0 0-1 1.31l1-.14 1-1.14a.75.75 0 0 0-1 0M90.67 93.66a1.92 1.92 0 0 0-.1.58c0 .74.53 1 1.15.68a2.52 2.52 0 0 0 1-1.3l-1.1.14-1-.1m1-1.42a2.48 2.48 0 0 0-.91 1.06l1 .11 1.08-.14a1.46 1.46 0 0 0 0-.35c0-.75-.52-1-1.17-.67M80.07 91c.65-.37 1.17-.08 1.17.67a1.85 1.85 0 0 1-.09.6l-1-.11-.15.37 1 .11a2.46 2.46 0 0 1-.93 1c-.64.38-1.16.08-1.17-.67a2.58 2.58 0 0 1 1.16-2" fill="#2B90FF" fill-rule="nonzero"/>
        <path d="M160.67 77.09l-10 17.62a.53.53 0 0 1 .2.11l10-17.62a.53.53 0 0 1-.19-.11m25.17-22.71a2.65 2.65 0 0 1-.14.36l9.77 1.53a2.21 2.21 0 0 1 .14-.34l-9.73-1.55m-13.41-8.45l-10.49 28.34a.53.53 0 0 1 .24 0l10.48-28.34a1 1 0 0 1-.24 0m1.5-1a3.22 3.22 0 0 1-.21.32l10.22 8.72a2.92 2.92 0 0 1 .2-.33l-10.21-8.71M81.15 92.25a3.47 3.47 0 0 1-.14.37l9.67 1a2 2 0 0 1 .13-.36l-9.65-1.05" fill="#9ECCFF" fill-rule="nonzero"/>
        <path d="M195.58 55.93l1 .15-.14.34-1-.15a2.21 2.21 0 0 1 .14-.34M184.18 53.62l.71.61.95.15a2.65 2.65 0 0 1-.14.36l-1-.15-.74-.64a2.92 2.92 0 0 1 .2-.33M173.11 44.18l.86.73a3.22 3.22 0 0 1-.21.32l-.6-.51-.45 1.21a1 1 0 0 1-.24 0l.54-1.46.1-.28M161.99 74.27a.53.53 0 0 1 .24 0l-.55 1.47-.82 1.45a.53.53 0 0 1-.19-.11l.81-1.38.53-1.44" fill="#2B90FF" fill-rule="nonzero"/>
        <path d="M139.26 91.12a3.35 3.35 0 0 1-.18.35l9.95 4.53a2.71 2.71 0 0 1 .19-.36l-10-4.5m-11.74-7.8c-.06.11-.13.21-.2.31l10.2 6.91a2.55 2.55 0 0 1 .2-.34l-10.2-6.88M92.8 93.26a2.32 2.32 0 0 1-.1.36l9.5-1.25a2.14 2.14 0 0 1 .1-.36l-9.5 1.25m23.1-14.72a2.37 2.37 0 0 1-.17.33l9.89 3.92a2.73 2.73 0 0 1 .17-.33l-9.9-3.91m-2 .92l-9.57 11.27a.69.69 0 0 1 .12.21l9.58-11.29a.61.61 0 0 1-.13-.19" fill="#9ECCFF" fill-rule="nonzero"/>
        <path d="M150.68 94.72a.53.53 0 0 1 .2.11l-.81 1.42-.1.17-.95-.43a2.71 2.71 0 0 1 .19-.36l.76.34.71-1.25M137.64 90.22l.76.52.86.39a3.35 3.35 0 0 1-.18.35l-.87-.4-.77-.52a2.55 2.55 0 0 1 .2-.34M125.84 82.45l.9.36.77.53c-.06.11-.13.21-.2.31l-.75-.52-.9-.35a2.73 2.73 0 0 1 .17-.33M114.99 78.16l.95.38a2.37 2.37 0 0 1-.17.33l-.8-.32-.93 1.11a.61.61 0 0 1-.13-.19l1-1.2.08-.1M104.34 90.73a.69.69 0 0 1 .12.21l-1 1.2-.08.07-1.13.15a2.14 2.14 0 0 1 .1-.36l1-.14 1-1.14M90.8 93.3l1 .11 1.08-.14a2.32 2.32 0 0 1-.1.36l-1.1.14-1-.1a2 2 0 0 1 .13-.36M80.15 92.14l1 .11a3.47 3.47 0 0 1-.14.37l-1-.11.15-.37" fill="#2B90FF" fill-rule="nonzero"/>
        <path d="M224.42 255.39l21.83 12.69a18.22 18.22 0 0 0 16.53 0l51.08-29.56-38.38-22.29-51.08 29.55c-2.27 1.32-3.41 3.06-3.41 4.8 0 1.74 1.16 3.49 3.43 4.81z" fill="#D8D8D8" fill-rule="nonzero"/>
        <path fill="#969696" fill-rule="nonzero" d="M272.74 255.09l1.43.83 1.43-.83v-54.51l-1.43.83-1.43-.84z"/>
        <path fill="#000" fill-rule="nonzero" opacity=".35" d="M274.17 255.92l1.43-.83v-54.51l-1.43.83z"/>
        <path fill="#000" fill-rule="nonzero" opacity=".15" d="M272.74 200.57l1.43.84v54.51l-1.43-.83z"/>
        <path fill="#969696" fill-rule="nonzero" d="M247.15 240.23l1.44.83 1.42-.83v-54.51l-1.42.83-1.44-.83z"/>
        <path fill="#000" fill-rule="nonzero" opacity=".35" d="M248.59 241.06l1.42-.83v-54.51l-1.42.83z"/>
        <path fill="#000" fill-rule="nonzero" opacity=".15" d="M247.15 185.72l1.44.83v54.51l-1.44-.83z"/>
        <path d="M308.89 141.12a18.44 18.44 0 0 0-8.26-14.36l-10.49-6.08c-2.27-1.32-4.34-1.45-5.84-.59l-1.43.83c-1.5.86-2.43 2.71-2.43 5.34v94.51l1.43.83 1.43-.83V143.2l22.72 13.16v79.28l1.43.83 1.43-.83.01-94.52zm-25.58-15.69a5.67 5.67 0 0 1 .83-3.27 3 3 0 0 1 .22-.28 3.11 3.11 0 0 1 .66-.07 4.74 4.74 0 0 1 1.42.24c.54.176 1.06.41 1.55.7l10.49 6.08a17.06 17.06 0 0 1 7.55 13.17v1.18L283.31 130v-4.57zm0 14.44v-6.6l22.72 13.16V153l-22.72-13.13z" fill="#969696" fill-rule="nonzero"/>
        <path d="M306.48 133a17 17 0 0 1 2.43 8.16v94.52l-1.43.83V142a17 17 0 0 0-2.43-8.16l1.43-.84z" fill="#353535" fill-rule="nonzero" opacity=".35"/>
        <path d="M298.48 128.83a17.06 17.06 0 0 1 7.55 13.17v93.68l1.43.83V142a18.44 18.44 0 0 0-8.26-14.36l-10.49-6.08c-2.27-1.32-4.34-1.45-5.84-.59s-2.43 2.71-2.43 5.34v94.51l1.43.83v-95.38a5.67 5.67 0 0 1 .83-3.27 2.71 2.71 0 0 1 2.31-1.18 4.74 4.74 0 0 1 1.42.24c.54.176 1.06.41 1.55.7l10.5 6.07z" fill="#5B5B5B" fill-rule="nonzero" opacity=".15"/>
        <path fill="#000" fill-rule="nonzero" opacity=".15" d="M281.89 130.79v1.66l24.14 14v-1.66zM281.89 140.71v1.65l24.14 14v-1.66z"/>
        <path fill="#000" fill-rule="nonzero" opacity=".35" d="M283.31 133.28l-1.42-.83v8.26l1.42-.83zM281.89 142.36v79.25l1.42-.83v-77.59zM283.31 125.44a5.67 5.67 0 0 1 .83-3.27 3 3 0 0 1 .22-.28 3.11 3.11 0 0 1 .66-.07 2.71 2.71 0 0 0-2.31 1.18 5.67 5.67 0 0 0-.83 3.27v4.52l1.43-.82v-4.53z"/>
        <path d="M313.85 171.67v-33.32a18.43 18.43 0 0 0-8.26-14.35l-21.84-12.7c-2.27-1.32-4.34-1.45-5.84-.59l-1.49.89c-1.5.86-2.43 2.71-2.43 5.34v33.29l38.36 22.3 1.5-.86z" fill="#FFFCEE" fill-rule="nonzero"/>
        <path d="M274 150.24l38.36 22.3v-33.3a18.44 18.44 0 0 0-8.26-14.36l-21.83-12.69c-2.27-1.32-4.34-1.45-5.84-.59s-2.43 2.71-2.43 5.34v33.3z" fill="#EAE6D8" fill-rule="nonzero"/>
        <path d="M311.42 130.19a17 17 0 0 1 2.43 8.16v33.32l-1.49.86v-33.29a17 17 0 0 0-2.43-8.16l1.49-.89z" fill="#D8D4C7" fill-rule="nonzero"/>
        <path d="M242 188.52c0 1.74 1.14 3.48 3.41 4.8L267.24 206a18.22 18.22 0 0 0 16.53 0l30.09-17.5v-2l-38.38-22.26-30.1 17.49c-2.27 1.32-3.41 3.06-3.41 4.8l.03 1.99z" fill="#FFFCEE" fill-rule="nonzero"/>
        <path d="M275.48 208a16.82 16.82 0 0 0 8.26-2l30.09-17.5v-2L283.77 204a16.82 16.82 0 0 1-8.26 2l-.03 2z" fill="#D8D4C7" fill-rule="nonzero"/>
        <path d="M275.48 208a16.81 16.81 0 0 1-8.26-2l-21.83-12.69c-2.27-1.32-3.41-3.06-3.41-4.8v-2c0 1.74 1.14 3.48 3.41 4.8L267.24 204a16.81 16.81 0 0 0 8.26 2l-.02 2z" fill="#000" fill-rule="nonzero" opacity=".1"/>
        <path d="M303.42 120.29c1.65 11.6 1 55.19 1 55.19 0 9.3-2.34 16.63-15.1 18.42a21.42 21.42 0 0 1-7.18-.44c-9.87-2.11-21.84-9.23-26.51-13.45-7.82-7.07-7.5-13.75-7.5-19.57v-42.52s0-14.29 12.09-18.94c9.2-3.54 23.35-.29 30.75 3.88.02 0 10.73 5.35 12.45 17.43z" fill="#FFF" fill-rule="nonzero"/>
        <path d="M302.48 116.4a6.79 6.79 0 0 0-5-2.3c-7.38 0-6.88 8.36-6.88 8.36v46.92c0 18-4.09 23.05-6.76 24.4a19.52 19.52 0 0 0 5.46.12c12.76-1.79 15.1-9.12 15.1-18.42 0 0 .63-43.59-1-55.19a22.16 22.16 0 0 0-.92-3.89z" fill="#000" fill-rule="nonzero" opacity=".1"/>
        <g fill-rule="nonzero" fill="#FFF">
            <path d="M95.41 209.28l120.25-69.89 146.45 83.29-120.26 69.88z"/>
            <path d="M400 244.97L215.55 138.48 95.3 208.37l184.44 106.49L400 244.97"/>
        </g>
        <path d="M274.76 170.68l-9.85 4.73a1.65 1.65 0 0 0-.45 2.65l.75.75a4.34 4.34 0 0 0 5.28.66l10-5.93-5.73-2.86z" fill="#CCCDCE" fill-rule="nonzero"/>
        <path d="M274.72 169.21s-3.54 2.06-4.64 2.51l-1.69.69c-.71.28-1 .45-1 .76s.2.68 1.67.14a6.55 6.55 0 0 1-3 .49c-1.17-.14-2.56-.58-2.75-.06-.19.52.69 1 .69 1s-.54.52.55 1c0 0-.41.45.83.88 0 0-.15.63 1.23.86 1.38.23 6.56.86 12.4-3.27l-4.29-5z" fill="#FFCFAE" fill-rule="nonzero"/>
        <path d="M297.13 151.64l-26.53 19.79 3.86 5.21s13.51-3.36 31.27-14.22" fill="#FFF" fill-rule="nonzero"/>
        <circle fill="#FFF" fill-rule="nonzero" transform="rotate(-35.82 301.774 156.726)" cx="301.774" cy="156.726" r="6.91"/>
        <path d="M284.43 122.88l10.77 36 13.48-2.25s.21-3.34.22-6.93c0-15.1-2.14-26.46-6.23-34.51" fill="#FFF" fill-rule="nonzero"/>
        <circle fill="#FFF" fill-rule="nonzero" transform="rotate(-.22 293.787 119.588)" cx="293.787" cy="119.588" r="9.91"/>
        <path d="M271.34 75.41c-3.11-.12-6.75.64-8.55 3.64-1.16 1.93-1.07 5.43-1.17 8-.19 4.7 1.69 9.63 4.61 12.19v1.25a3.51 3.51 0 0 0 2 2.78 10.78 10.78 0 0 0 9.78 0 3.48 3.48 0 0 0 2-2.73V88.27v-.44c.36-6.66-3.53-12.21-8.67-12.42z" fill="#FFCFAE" fill-rule="nonzero"/>
        <path d="M270.32 101.06a6.62 6.62 0 0 1-4.09-1.78v1.25a3.51 3.51 0 0 0 2 2.78 10.78 10.78 0 0 0 9.78 0 3.48 3.48 0 0 0 2-2.73V88.27c-.37 6.51-4.7 12.99-9.69 12.79z" fill="#3A2416" fill-rule="nonzero" opacity=".04"/>
        <path d="M283.73 76c-1.39-4.14-3.74-3.85-3.74-3.85s-.85-1.6-4.18-1.24c-3.33.36-13.74 2.67-14.84.5a1.51 1.51 0 0 0 0 1 2.3 2.3 0 0 1-1.49-1.14c-1.56 3.25-1.2 9.62 2.19 14.15a21.45 21.45 0 0 1 .56-5c5.58 3.22 13.83.48 13.83.48l.66 7.1a1.7 1.7 0 0 1 3.36.49 1.66 1.66 0 0 1-.06.34 17.61 17.61 0 0 1-.68 3.45 13.19 13.19 0 0 0 3.14-4.35c2.29-4.98 2.28-8.87 1.25-11.93z" fill="#424242" fill-rule="nonzero"/>
        <path fill="#10355D" fill-rule="nonzero" d="M269.87 105.35l2.42 1.53-1.58 3.78 4.39 38.37-5.35 6.46-5.45-12.7 4.72-33.14-1.03-3.91z"/>
        <path d="M265.02 99.68l.23 8.11 4.62-2.44 4.5 4.83 6.49-7.74s1.4-1.79.75-3.27a4.59 4.59 0 0 0-1.53-1.52s-2.13 4.09-10 6.41c0 0-3.41-2.49-3.82-4.77 0 0-.35-.31-.78-.78a2.15 2.15 0 0 0-.46 1.17z" fill="#DBDBDB" fill-rule="nonzero"/>
        <path d="M174.97 181.19l44.07 25.63a2.73 2.73 0 0 0 2.48 0l27.34-15.91a.76.76 0 0 0 0-1.44l-44.07-25.62a2.73 2.73 0 0 0-2.48 0l-27.34 15.9a.76.76 0 0 0 0 1.44z" fill="#D8D8D8" fill-rule="nonzero"/>
        <path d="M187.48 172.52a.88.88 0 0 0 .51.72l44.4 25.83c.78.396 1.7.396 2.48 0l27.34-15.91a.87.87 0 0 0 .51-.72v-1a.87.87 0 0 0-.51-.72l-44.4-25.82a2.74 2.74 0 0 0-2.48 0l-27.34 15.9a.88.88 0 0 0-.51.72v1z" fill="#DBDDDD" fill-rule="nonzero"/>
        <path d="M233.59 199.36a2.53 2.53 0 0 1-1.24-.3l-44.4-25.83a.88.88 0 0 1-.51-.72v-1a.88.88 0 0 0 .51.72l44.4 25.83c.38.204.808.308 1.24.3v1zM233.59 199.36a2.53 2.53 0 0 0 1.24-.3l27.34-15.91a.87.87 0 0 0 .51-.72v-1a.87.87 0 0 1-.51.72l-27.34 15.91a2.53 2.53 0 0 1-1.24.3" fill="#C1C1C1" fill-rule="nonzero"/>
        <path d="M231.42 165.33a1.82 1.82 0 0 1 1.65 0l11.11 6.47a.51.51 0 0 1 0 1l-6.36 3.71a1.82 1.82 0 0 1-1.65 0L225.05 170a.51.51 0 0 1 0-1l6.37-3.67zM250.39 185.9c.17.1.17.25 0 .35l-16.24 9.44a.67.67 0 0 1-.61 0l-41.86-24.17a.19.19 0 0 1 0-.35l16.24-9.44a.67.67 0 0 1 .61 0l41.86 24.17z" fill="#CCC" fill-rule="nonzero"/>
        <path d="M229.08 187.53a.18.18 0 0 1 0 .35l-1.46.85a.67.67 0 0 1-.6 0l-1.83-1.06c-.17-.1-.17-.25 0-.35l1.47-.85a.66.66 0 0 1 .6 0l1.82 1.06zM226.02 189a.18.18 0 0 1 0 .35l-.75.44a.66.66 0 0 1-.6 0l-2-1.15c-.17-.1-.17-.25 0-.35l.75-.44a.66.66 0 0 1 .6 0l2 1.15zM223.06 187.26c.17.1.17.25 0 .35l-.76.44a.66.66 0 0 1-.6 0l-2-1.14c-.17-.1-.17-.25 0-.35l.76-.44a.66.66 0 0 1 .6 0l2 1.14zM217.14 183.84c.17.1.17.25 0 .35l-.76.44a.67.67 0 0 1-.6 0l-2-1.14c-.17-.1-.17-.25 0-.35l.76-.44a.67.67 0 0 1 .61 0l1.99 1.14zM200.41 171c.17.1.17.25 0 .35l-1.46.85a.66.66 0 0 1-.61 0l-3.2-1.84c-.17-.1-.17-.25 0-.35l1.46-.85a.66.66 0 0 1 .6 0l3.21 1.84zM196.43 171.88c.17.1.17.25 0 .35l-.76.44a.66.66 0 0 1-.6 0l-2-1.15c-.17-.1-.17-.25 0-.35l.76-.44a.66.66 0 0 1 .6 0l2 1.15zM207.59 171.86a.19.19 0 0 1 0 .35l-1.47.85a.67.67 0 0 1-.61 0L203.7 172c-.17-.1-.17-.25 0-.35l1.47-.85a.67.67 0 0 1 .61 0l1.81 1.06zM204.72 170.21a.19.19 0 0 1 0 .35l-1.47.85a.66.66 0 0 1-.6 0l-1.83-1.06c-.17-.1-.17-.25 0-.35l1.47-.85a.67.67 0 0 1 .61 0l1.82 1.06zM203.23 172.6c.17.1.17.25 0 .35l-1.46.85a.66.66 0 0 1-.61 0l-1.83-1.05a.19.19 0 0 1 0-.35l1.46-.85a.67.67 0 0 1 .61 0l1.83 1.05zM199.39 173.59c.17.1.17.25 0 .35l-.75.44a.67.67 0 0 1-.6 0l-2-1.15a.18.18 0 0 1 0-.35l.76-.44a.66.66 0 0 1 .6 0l1.99 1.15zM223.33 184.21a.19.19 0 0 1 0 .35l-1.46.85a.67.67 0 0 1-.61 0l-1.78-1.05c-.17-.1-.17-.25 0-.35l1.46-.85a.66.66 0 0 1 .61 0l1.78 1.05zM217.59 180.89c.17.1.17.25 0 .35l-1.46.85a.66.66 0 0 1-.61 0l-1.83-1.09a.19.19 0 0 1 0-.35l1.46-.85a.67.67 0 0 1 .61 0l1.83 1.09zM230.57 185.13a.19.19 0 0 1 0 .35l-1.47.85a.67.67 0 0 1-.61 0l-1.83-1.06c-.17-.1-.17-.25 0-.35l1.47-.85a.67.67 0 0 1 .61 0l1.83 1.06zM228.06 177.19a.18.18 0 0 1 0 .35l-1.47.86a.66.66 0 0 1-.6 0l-1.83-1.06a.18.18 0 0 1 0-.35l1.47-.86a.67.67 0 0 1 .6 0l1.83 1.06zM225.19 175.53c.17.1.17.25 0 .35l-1.47.86a.66.66 0 0 1-.6 0l-1.83-1.06c-.17-.1-.17-.25 0-.35l1.47-.85a.66.66 0 0 1 .6 0l1.83 1.05zM248.99 185.9a.19.19 0 0 1 0 .35l-1.47.85a.67.67 0 0 1-.61 0l-1.83-1.05a.19.19 0 0 1 0-.35l1.47-.85a.67.67 0 0 1 .61 0l1.83 1.05zM246.11 184.24c.17.1.17.25 0 .35l-1.47.85a.66.66 0 0 1-.6 0l-1.83-1.05a.19.19 0 0 1 0-.35l1.47-.85a.67.67 0 0 1 .61 0l1.82 1.05zM243.24 182.58a.19.19 0 0 1 0 .35l-1.47.85a.67.67 0 0 1-.6 0l-1.83-1.06a.19.19 0 0 1 0-.35l1.47-.85a.67.67 0 0 1 .61 0l1.82 1.06zM240.37 180.92a.19.19 0 0 1 0 .35l-1.47.85a.67.67 0 0 1-.61 0l-2.37-1.36a.19.19 0 0 1 0-.35l1.47-.85a.67.67 0 0 1 .61 0l2.37 1.36zM216.57 170.55a.18.18 0 0 1 0 .35l-1.47.86a.66.66 0 0 1-.6 0l-1.83-1.06c-.17-.1-.17-.25 0-.35l1.47-.86a.67.67 0 0 1 .61 0l1.82 1.06zM216.02 166.87a.19.19 0 0 1 0 .35l-.48.28a.67.67 0 0 1-.61 0l-1.83-1.06a.19.19 0 0 1 0-.35l.48-.28a.67.67 0 0 1 .6 0l1.84 1.06zM218.93 168.55a.19.19 0 0 1 0 .35l-1.47.85a.67.67 0 0 1-.61 0l-1.83-1.05a.19.19 0 0 1 0-.35l1.47-.85a.67.67 0 0 1 .61 0l1.83 1.05zM222.29 170.49a.19.19 0 0 1 0 .35l-1.47.85a.67.67 0 0 1-.61 0l-2.37-1.37a.19.19 0 0 1 0-.35l1.47-.85a.67.67 0 0 1 .61 0l2.37 1.37zM236.96 179a.19.19 0 0 1 0 .35l-1.47.85a.67.67 0 0 1-.61 0l-13.7-7.91a.19.19 0 0 1 0-.35l1.47-.85a.67.67 0 0 1 .61 0l13.7 7.91zM230.93 178.85a.19.19 0 0 1 0 .35l-1.47.86a.67.67 0 0 1-.61 0l-1.82-1.06c-.17-.1-.17-.25 0-.35l1.47-.85a.67.67 0 0 1 .6 0l1.83 1.05zM222.31 173.87c.17.1.17.25 0 .35l-1.47.86a.66.66 0 0 1-.6 0l-1.82-1.08a.18.18 0 0 1 0-.35l1.47-.86a.66.66 0 0 1 .6 0l1.82 1.08zM219.48 172.21a.19.19 0 0 1 0 .35l-1.47.86a.67.67 0 0 1-.61 0l-1.83-1.06c-.17-.1-.17-.25 0-.35l1.47-.86a.67.67 0 0 1 .6 0l1.84 1.06zM212.48 166.08l-.69.4a.67.67 0 0 1-.61 0l-1.83-1.05a.19.19 0 0 1 0-.35l.69-.4 2.44 1.4zM213.7 168.89c.17.1.17.26 0 .35l-1.47.86a.66.66 0 0 1-.61 0l-1.82-1.1c-.17-.1-.17-.25 0-.35l1.47-.86a.67.67 0 0 1 .6 0l1.83 1.1zM210.76 167.2a.18.18 0 0 1 0 .35l-1.47.85a.66.66 0 0 1-.6 0l-5.14-3c-.17-.1-.17-.25 0-.35l1.47-.85a.66.66 0 0 1 .6 0l5.14 3zM201.85 168.55a.19.19 0 0 1 0 .35l-1.47.85a.66.66 0 0 1-.6 0l-1.83-1.06c-.17-.1-.17-.25 0-.35l1.47-.85a.67.67 0 0 1 .61 0l1.82 1.06zM209.48 169.7c.17.1.17.25 0 .35l-1.47.85a.67.67 0 0 1-.61 0l-1.83-1.06a.19.19 0 0 1 0-.35l1.47-.85a.67.67 0 0 1 .61 0l1.83 1.06zM212.32 171.35c.17.1.17.25 0 .35l-1.47.85a.67.67 0 0 1-.61 0l-1.83-1.06a.19.19 0 0 1 0-.35l1.47-.85a.66.66 0 0 1 .6 0l1.84 1.06zM215.19 173c.17.1.17.25 0 .35l-1.47.85a.67.67 0 0 1-.61 0l-1.83-1.06a.19.19 0 0 1 0-.35l1.47-.85a.66.66 0 0 1 .6 0l1.84 1.06zM206.1 174.26c.17.1.17.25 0 .35l-1.46.85a.66.66 0 0 1-.6 0l-1.83-1.06a.19.19 0 0 1 0-.35l1.46-.85a.67.67 0 0 1 .61 0l1.82 1.06zM202.35 175.3a.18.18 0 0 1 0 .35l-.76.44a.66.66 0 0 1-.6 0l-2-1.15c-.17-.1-.17-.25 0-.35l.75-.44a.67.67 0 0 1 .61 0l2 1.15zM205.31 177a.18.18 0 0 1 0 .35l-.76.44a.66.66 0 0 1-.6 0l-2-1.15c-.17-.1-.17-.25 0-.35l.76-.44a.67.67 0 0 1 .6 0l2 1.15zM211.84 177.57c.17.1.17.25 0 .35l-1.46.85a.67.67 0 0 1-.61 0l-1.83-1.06a.19.19 0 0 1 0-.35l1.46-.85a.67.67 0 0 1 .61 0l1.83 1.06zM223.81 178c.17.1.17.25 0 .35l-1.47.85a.68.68 0 0 1-.61 0l-1.83-1.06a.19.19 0 0 1 0-.35l1.47-.85a.66.66 0 0 1 .6 0l1.84 1.06zM208.26 178.71c.17.1.17.25 0 .35l-.76.44a.67.67 0 0 1-.6 0l-2-1.14c-.17-.1-.17-.25 0-.35l.76-.44a.67.67 0 0 1 .61 0l1.99 1.14zM226.68 179.65a.18.18 0 0 1 0 .35l-1.47.85a.66.66 0 0 1-.6 0l-1.83-1.06a.19.19 0 0 1 0-.35l1.47-.85a.66.66 0 0 1 .6 0l1.83 1.06zM211.23 180.42a.18.18 0 0 1 0 .35l-.75.44a.66.66 0 0 1-.6 0l-2-1.15c-.17-.1-.17-.25 0-.35l.75-.44a.67.67 0 0 1 .61 0l1.99 1.15zM221.95 180.16a.19.19 0 0 1 0 .35l-1.47.85a.67.67 0 0 1-.61 0l-1.83-1.06c-.17-.1-.17-.25 0-.35l1.47-.85a.67.67 0 0 1 .61 0l1.83 1.06zM229.55 181.3c.17.1.17.25 0 .35l-1.47.85a.66.66 0 0 1-.6 0l-1.83-1.05a.19.19 0 0 1 0-.35l1.47-.85a.67.67 0 0 1 .61 0l1.82 1.05zM214.18 182.13c.17.1.17.25 0 .35l-.76.44a.67.67 0 0 1-.61 0l-2-1.14c-.17-.1-.17-.25 0-.35l.76-.44a.67.67 0 0 1 .61 0l2 1.14zM224.83 181.82c.17.1.17.25 0 .35l-1.47.85a.66.66 0 0 1-.6 0l-1.83-1.02c-.17-.1-.17-.25 0-.35l1.47-.85a.67.67 0 0 1 .61 0l1.82 1.02zM236.67 182.16c.17.1.17.26 0 .35l-1.47.85a.67.67 0 0 1-.61 0l-1.83-1.05c-.17-.1-.17-.25 0-.35l1.47-.85a.67.67 0 0 1 .6 0l1.84 1.05zM232.42 183c.17.1.17.25 0 .35l-1.47.85a.67.67 0 0 1-.61 0l-1.86-1.09a.19.19 0 0 1 0-.35l1.47-.85a.66.66 0 0 1 .6 0l1.87 1.09zM227.7 183.47c.17.1.17.25 0 .35l-1.47.85a.67.67 0 0 1-.6 0l-1.83-1.06c-.17-.1-.17-.25 0-.35l1.47-.85a.67.67 0 0 1 .61 0l1.82 1.06zM239.56 183.82a.19.19 0 0 1 0 .35l-1.47.85a.67.67 0 0 1-.61 0l-1.82-1.02c-.17-.1-.17-.25 0-.35l1.47-.85a.67.67 0 0 1 .6 0l1.83 1.02zM235.3 184.62c.17.1.17.25 0 .35l-1.47.85a.67.67 0 0 1-.61 0l-1.83-1.05a.19.19 0 0 1 0-.35l1.47-.85a.66.66 0 0 1 .6 0l1.84 1.05zM220.1 185.55c.17.1.17.25 0 .35l-.75.44a.67.67 0 0 1-.61 0l-2-1.14a.18.18 0 0 1 0-.35l.75-.44a.67.67 0 0 1 .6 0l2.01 1.14zM236.32 188.45a.19.19 0 0 1 0 .35l-1.47.85a.67.67 0 0 1-.61 0l-1.83-1.05c-.17-.1-.17-.25 0-.35l1.47-.85a.67.67 0 0 1 .61 0l1.83 1.05zM231.95 189.18a.19.19 0 0 1 0 .35l-1.46.85a.67.67 0 0 1-.61 0l-1.83-1.06c-.17-.1-.17-.25 0-.35l1.46-.85a.66.66 0 0 1 .6 0l1.84 1.06zM243.27 189.23c.17.1.17.25 0 .35l-1.47.85a.67.67 0 0 1-.61 0l-4-2.33a.19.19 0 0 1 0-.35l1.47-.85a.66.66 0 0 1 .6 0l4.01 2.33zM240.48 190.85a.19.19 0 0 1 0 .35l-1.47.85a.66.66 0 0 1-.61 0l-3.14-1.81c-.17-.1-.17-.25 0-.35l1.47-.85a.67.67 0 0 1 .61 0l3.14 1.81zM234.82 190.84c.17.1.17.25 0 .35l-1.46.85a.66.66 0 0 1-.6 0l-1.84-1.04c-.17-.1-.17-.25 0-.35l1.46-.85a.67.67 0 0 1 .61 0l1.83 1.04zM231.94 192.38c.17.1.17.25 0 .35l-.76.44a.66.66 0 0 1-.6 0l-2-1.14c-.17-.1-.17-.25 0-.35l.75-.44a.67.67 0 0 1 .61 0l2 1.14zM237.67 192.48c.17.1.17.25 0 .35l-1.46.85a.66.66 0 0 1-.61 0l-1.83-1.06c-.17-.1-.17-.25 0-.35l1.46-.85a.67.67 0 0 1 .61 0l1.83 1.06zM234.9 194.09c.17.1.17.25 0 .35l-.76.44a.66.66 0 0 1-.6 0l-2-1.14c-.17-.1-.17-.25 0-.35l.76-.44a.66.66 0 0 1 .6 0l2 1.14zM210.36 163.6a.19.19 0 0 1 0 .35l-.48.28a.67.67 0 0 1-.61 0l-1.79-1.05a.19.19 0 0 1 0-.35l.48-.28a.67.67 0 0 1 .61 0l1.79 1.05zM213.27 165.28a.19.19 0 0 1 0 .35l-.78.45-2.44-1.41.78-.45a.67.67 0 0 1 .61 0l1.83 1.06zM206.55 168a.18.18 0 0 1 0 .35l-1.47.85a.67.67 0 0 1-.61 0l-3.73-2.16a.19.19 0 0 1 0-.35l1.47-.85a.66.66 0 0 1 .6 0l3.74 2.16zM210.48 173.52a.19.19 0 0 1 0 .35l-1.47.85a.67.67 0 0 1-.61 0l-1.83-1.05c-.17-.1-.17-.25 0-.35l1.47-.85a.68.68 0 0 1 .61 0l1.83 1.05zM218.06 174.67c.17.1.17.25 0 .35l-1.47.85a.68.68 0 0 1-.61 0l-1.83-1.05a.19.19 0 0 1 0-.35l1.47-.85a.67.67 0 0 1 .61 0l1.83 1.05zM213.34 175.18a.19.19 0 0 1 0 .35l-1.47.85a.66.66 0 0 1-.6 0l-1.79-1.05c-.17-.1-.17-.25 0-.35l1.47-.85a.68.68 0 0 1 .61 0l1.78 1.05zM208.97 175.92c.17.1.17.25 0 .35l-1.46.85a.66.66 0 0 1-.6 0l-1.83-1.06c-.17-.1-.17-.25 0-.35l1.46-.85a.66.66 0 0 1 .61 0l1.82 1.06zM220.94 176.33c.17.1.17.25 0 .35l-1.47.85a.67.67 0 0 1-.61 0l-1.83-1.05a.19.19 0 0 1 0-.35l1.47-.85a.66.66 0 0 1 .6 0l1.84 1.05zM216.21 176.84a.19.19 0 0 1 0 .35l-1.47.85a.66.66 0 0 1-.6 0l-1.83-1.04c-.17-.1-.17-.25 0-.35l1.47-.85a.68.68 0 0 1 .61 0l1.82 1.04zM219.08 178.5a.19.19 0 0 1 0 .35l-1.47.85a.66.66 0 0 1-.6 0l-1.83-1.06c-.17-.1-.17-.25 0-.35l1.47-.85a.67.67 0 0 1 .61 0l1.82 1.06zM214.72 179.23c.17.1.17.25 0 .35l-1.46.85a.67.67 0 0 1-.61 0l-1.83-1.06a.19.19 0 0 1 0-.35l1.46-.85a.67.67 0 0 1 .61 0l1.83 1.06zM233.8 180.5c.17.1.17.26 0 .35l-1.47.85a.67.67 0 0 1-.61 0l-1.83-1.06c-.17-.1-.17-.25 0-.35l1.47-.85a.67.67 0 0 1 .6 0l1.84 1.06zM220.48 182.55a.18.18 0 0 1 0 .35l-1.46.85a.66.66 0 0 1-.6 0l-1.83-1.06c-.17-.1-.17-.25 0-.35l1.46-.85a.66.66 0 0 1 .61 0l1.82 1.06zM238.18 186.28c.17.1.17.25 0 .35l-1.47.85a.67.67 0 0 1-.61 0l-1.83-1.06a.19.19 0 0 1 0-.35l1.47-.85a.67.67 0 0 1 .61 0l1.83 1.06zM233.48 186.79a.19.19 0 0 1 0 .35l-1.47.85a.66.66 0 0 1-.6 0l-1.83-1.06a.18.18 0 0 1 0-.35l1.47-.85a.67.67 0 0 1 .61 0l1.82 1.06zM246.08 187.59c.17.1.17.26 0 .35l-1.47.85a.66.66 0 0 1-.61 0l-5.46-3.16c-.17-.1-.17-.25 0-.35l1.47-.85a.67.67 0 0 1 .6 0l5.47 3.16zM228.98 190.68a.18.18 0 0 1 0 .35l-.75.44a.66.66 0 0 1-.6 0l-2-1.15c-.17-.1-.17-.25 0-.35l.75-.44a.66.66 0 0 1 .6 0l2 1.15zM226.21 185.87a.19.19 0 0 1 0 .35l-1.46.85a.67.67 0 0 1-.61 0l-1.83-1.07c-.17-.1-.17-.25 0-.35l1.46-.85a.67.67 0 0 1 .61 0l1.83 1.07z" fill="#515151" fill-rule="nonzero"/>
        <path d="M236.85 166a.25.25 0 0 0 0 .48l5.29 3.08a.92.92 0 0 0 .83 0l-6.09-3.56h-.03z" fill="#CCC" fill-rule="nonzero"/>
        <path fill="#000" fill-rule="nonzero" opacity=".3" d="M238.83 196.08l-1.34.77v.37l1.34-.78zM237.22 197l-.93.54v.37l.93-.55zM236.01 197.7l-.93.54v.36l.93-.54z"/>
        <path d="M232.26 198.33c-.15.08-.43 0-.84-.23l-43.55-25.33a8.46 8.46 0 0 1-2.6-2.62l-10.88-19c-.26-.46-.31-.76-.19-.89l.5-.29c.13-.13.43-.07.89.19l43.57 25.34a8.44 8.44 0 0 1 2.6 2.62l10.86 19c.26.46.31.76.18.89l-.54.32z" fill="#DBDDDD" fill-rule="nonzero"/>
        <path d="M187.87 172.77a8.46 8.46 0 0 1-2.6-2.62l-10.88-19c-.26-.46-.31-.76-.19-.89s.43-.07.89.19l43.57 25.33a8.48 8.48 0 0 1 2.6 2.62l10.86 19c.26.46.31.76.19.89s-.43.07-.89-.19l-43.55-25.33z" fill="#B5B5B5" fill-rule="nonzero"/>
        <path d="M220.6 176.69c.445.434.834.92 1.16 1.45l10.86 19c.26.46.31.76.18.89l-.55.32c.13-.13.08-.43-.19-.89l-10.86-19a7.47 7.47 0 0 0-1.16-1.45l.56-.32z" fill="#C1C1C1" fill-rule="nonzero"/>
        <path d="M219.15 175.53a8.44 8.44 0 0 1 2.6 2.62l-.5.29a8.48 8.48 0 0 0-2.6-2.62l.5-.29z" fill="#FFF" fill-rule="nonzero"/>
        <path d="M222.48 157.67l-5.39 3c-1 .49-2.23 1.81-1.43 2.62.42.42 1 .26 1.57.1 3.09-.87 2.66-.89 7.2-1.15l3.89-1.17-5.84-3.4zM238.65 151.53L223.1 158l6.22 3.62 14.43-7.12z" fill="#CCCDCE" fill-rule="nonzero"/>
        <path d="M268.22 193.87H270c.44-1.68 2.92-3 5.92-3 3.31 0 6 1.57 6 3.51 0 1.94-2.68 3.51-6 3.51-3 0-5.49-1.3-5.92-3h-1.78a.53.53 0 1 1 0-1.06v.04z" fill="#D8D8D8" fill-rule="nonzero"/>
        <path d="M275.92 184.5c3.31 0 6 1.57 6 3.51a2.12 2.12 0 0 1-.1.63l-.93 5.75c0 1.61-2.22 2.91-5 2.91s-5-1.3-5-2.91l-.93-5.75a2.12 2.12 0 0 1-.1-.63c.07-1.94 2.75-3.51 6.06-3.51z" fill="#9ECCFF" fill-rule="nonzero"/>
        <ellipse fill="#7FB4DD" fill-rule="nonzero" cx="275.92" cy="188.01" rx="5.99" ry="3.51"/>
        <path d="M275.92 187.57a6.73 6.73 0 0 1 4.9 1.67 8 8 0 0 1-9.79 0 6.73 6.73 0 0 1 4.89-1.67z" fill="#5E3B1A" fill-rule="nonzero"/>
        <path d="M269.89 189.27s-1.58-.16-2.09 1c-.51 1.16.79 3.54 3.49 4.9 0 0 .74-.28.48-.64s-2.8-1.59-2.91-3.14c-.11-1.55 1.57-1.08 1.87-.69a1.07 1.07 0 0 0-.84-1.43z" fill="#9ECCFF" fill-rule="nonzero"/>
        <path d="M275.92 185.22c3.16 0 5.28 1.44 5.28 2.79 0 1.51-2.42 2.79-5.28 2.79-2.86 0-5.28-1.28-5.28-2.79 0-1.35 2.12-2.79 5.28-2.79zm0-.72c-3.31 0-6 1.57-6 3.51 0 1.94 2.68 3.51 6 3.51s6-1.57 6-3.51c0-1.94-2.68-3.51-6-3.51zM250.89 107.38c-3.85 8.17-5.59 21.29-6.23 32.67l11.18 1.19 10.69-27.55" fill="#FFF" fill-rule="nonzero"/>
        <path d="M230.3 153.67s-3.46 2.2-4.37 3c-.58.49-1 .81-1.39 1.18-.58.5-.88.71-1.15.57-.27-.14-.51-.49.64-1.55a6.55 6.55 0 0 0-1.83 2.47c-.41 1.1-.66 2.55-1.21 2.47-.55-.08-.53-1-.53-1s-.71.24-.66-1c0 0-.59.16-.4-1.15 0 0-.63-.16-.2-1.49s2.26-6.22 8.61-9.5l2.49 6z" fill="#FFCFAE" fill-rule="nonzero"/>
        <path d="M248.07 135c-18.28 8-22.34 13.5-22.34 13.5l2.88 6.11 23.23-9" fill="#FFF" fill-rule="nonzero"/>
        <circle fill="#FFF" fill-rule="nonzero" transform="rotate(-26.78 250.316 140.148)" cx="250.316" cy="140.148" r="5.62"/>
        <circle fill="#FFF" fill-rule="nonzero" cx="258.48" cy="111.11" r="8.45"/>
        <g fill-rule="nonzero" fill="#2B90FF">
            <path d="M51.36 186.31a2.35 2.35 0 0 0-2.13 0L4.12 212.53c-4.18 2.43-4.16 6.37 0 8.8l38 21.95 2.12-1.23-38-21.95a3.89 3.89 0 0 1-2.29-3.17 3.83 3.83 0 0 1 2.25-3.17l45.12-26.22a.65.65 0 0 0 0-1.23M50.19 239.13a1 1 0 0 0-.87 0l-5 2.92-2.12 1.23-4.64 2.72c-.26.15-.22.38 0 .51a.82.82 0 0 0 .34.1l14 1.26c.41 0 .76-.17.7-.41l-2.22-8.09a.33.33 0 0 0-.17-.2"/>
        </g>
        <path d="M162.17 302.85L118 328.54c-7.55 4.39-17.47 6.59-27.39 6.61-9.92.02-19.82-2.15-27.32-6.51-7.5-4.36-11.23-10.12-11.2-15.88.03-5.76 3.83-11.54 11.39-15.93l44.17-25.69c7.55-4.39 17.47-6.59 27.39-6.61 9.92-.02 19.82 2.15 27.32 6.51 7.5 4.36 11.23 10.12 11.2 15.88-.03 5.76-3.84 11.55-11.39 15.93z" fill="#000" fill-rule="nonzero" opacity=".15"/>
        <path d="M100.4 298.42l-40.53-23.55v-10.34l40.53 23.55z"/>
        <path d="M57.99 260.59l-1 .76v44.09l1.45.72 1.45-.72v-27l40.5 23.56v28.39l1.45.72v-44.85l-43.85-25.67zm1.88 3.93l40.53 23.55v10.34l-40.53-23.54v-10.35z" fill="#A3A3A3" fill-rule="nonzero"/>
        <path fill="#000" fill-rule="nonzero" opacity=".4" d="M58.42 277.77v28.39l1.45-.72v-26.95zM58.42 263.81v11.77l1.45-.71v-10.34zM101.84 286.26v44.88-44.16z"/>
        <path fill="#000" fill-rule="nonzero" opacity=".4" d="M58.42 277.77l42 24.27v-1.81l-42-24.23z"/>
        <path d="M166.97 262.19l-40.52-23.55V228.3l40.52 23.55z"/>
        <path d="M126.01 224.36l-1 .76v44.09l.72.72.72-.72v-27l40.53 23.55v28.44l1.45.72 1.45-.72V250l-43.87-25.64zm.44 3.93l40.53 23.55v10.34l-40.5-23.54-.03-10.35z" fill="#A3A3A3" fill-rule="nonzero"/>
        <path fill="#000" fill-rule="nonzero" opacity=".4" d="M126.45 241.54v28.39V242.26zM126.45 227.58v11.77-11.05zM169.87 250.03v44.17l-1.45.71v-44.16zM103.29 286.26v44.17l-1.45.71v-44.16zM126.48 241.54l40.53 24.27V264l-40.53-24.27z"/>
        <path d="M174.21 247.67c0 5.77-4.16 11.54-11.7 15.92l-44.34 25.69c-7.55 4.39-17.56 6.59-27.47 6.61-9.91.02-19.59-2.15-27.09-6.51-7.5-4.36-11-10.12-11-15.88v-3c0-5.77 3.56-11.54 11.1-15.93l44-25.69c7.55-4.39 17.41-6.59 27.32-6.61 9.91-.02 20.12 2.15 27.62 6.51 7.5 4.36 11.49 10.12 11.49 15.88l.07 3.01z" fill="#FFF" fill-rule="nonzero"/>
        <path d="M162.63 263.6l-44.57 25.69c-7.55 4.39-17.66 6.59-27.79 6.61v-3c10.13 0 20.25-2.22 27.79-6.61l44.57-25.69v3z" fill="#000" fill-rule="nonzero" opacity=".2"/>
        <path d="M90.26 295.89c-10.13 0-19.38-2.15-26.88-6.51-7.5-4.36-10.75-10.11-10.75-15.88v-3c0 5.77 3.26 11.52 10.75 15.88 7.49 4.36 16.75 6.53 26.88 6.51v3zM162.63 263.6c7.24-4.39 11.58-10.16 11.58-15.92v-3c0 5.77-4.34 11.54-11.58 15.93v2.99z" fill="#000" fill-rule="nonzero" opacity=".1"/>
        <path fill="#C1C1C1" fill-rule="nonzero" d="M156.9 222.88l-85.35 49.6v-64.33l3.42-5.94 75.1-43.66h6.83z"/>
        <path fill="#E8E8E8" fill-rule="nonzero" d="M90.33 266.33l8.53 4.96 44.37-25.8v-.8l-8.54-4.97-44.36 25.8z"/>
        <path fill="#000" fill-rule="nonzero" opacity=".5" d="M143.23 245.49v-.8l-44.37 25.8v.8z"/>
        <path fill="#000" fill-rule="nonzero" opacity=".3" d="M98.86 270.49v.8l-8.53-4.96v-.81z"/>
        <path fill="#3A3A3A" fill-rule="nonzero" d="M121.04 227.82l1.72.99v23.82l-10.24 5.95-1.71-1v-23.81z"/>
        <path fill="#C6C6C6" fill-rule="nonzero" opacity=".5" d="M122.76 228.81v23.82l-10.24 5.95v-23.81z"/>
        <path fill="#969696" fill-rule="nonzero" opacity=".3" d="M110.81 233.77v23.81l1.71 1v-23.81z"/>
        <path fill="#DDD" fill-rule="nonzero" d="M158.72 154.46l1.58.91v65.5l-92.17 53.59-1.59-.91v-65.5z"/>
        <path fill="#B7B7B7" fill-rule="nonzero" opacity=".5" d="M160.3 155.37v65.5l-92.17 53.59v-65.5z"/>
        <path fill="#10355D" fill-rule="nonzero" d="M158.36 218.22v-60.85l-89.87 52.25v60.86z"/>
        <path fill="#000" fill-rule="nonzero" opacity=".3" d="M66.54 208.05v65.5l1.59.91v-65.5z"/>
        <path d="M158.58 220.14a.64.64 0 0 1 .29-.5c.16-.09.29 0 .29.17a.64.64 0 0 1-.29.5c-.16.09-.29.02-.29-.17z" fill="#2B90FF" fill-rule="nonzero"/>
        <path d="M71.55 270.87a.74.74 0 0 1 .33-.58l84.68-49.24c.18-.11.33 0 .33.19v2a.74.74 0 0 1-.33.58l-84.68 49.26c-.18.11-.33 0-.33-.19v-2.02z" fill="#A8A8AD" fill-rule="nonzero"/>
        <path d="M71.94 273.27a.24.24 0 0 0 .19 0L156.82 224a.74.74 0 0 0 .33-.58v-2a.23.23 0 0 0-.08-.2l-.27-.16a.22.22 0 0 0-.24 0L71.88 270.3a.74.74 0 0 0-.33.58v2a.23.23 0 0 0 .08.2l.31.19z" fill="#A8A8AD" fill-rule="nonzero"/>
        <path d="M71.8 271a.74.74 0 0 1 .33-.58l84.68-49.24c.18-.11.33 0 .33.19v2a.74.74 0 0 1-.33.58l-84.68 49.28c-.18.11-.33 0-.33-.19V271z" fill="#D3D3D3" fill-rule="nonzero" opacity=".5"/>
        <path d="M71.9 270.7a.68.68 0 0 0-.1.33v2a.24.24 0 0 0 .08.19l-.25-.15a.23.23 0 0 1-.08-.2v-2a.67.67 0 0 1 .09-.32l.26.15z" fill="#DDD" fill-rule="nonzero" opacity=".3"/>
        <path fill="#000" fill-rule="nonzero" opacity=".15" d="M141.53 243.7l-44.37 25.8-4.97-2.9 18.62-10.83v1.81l1.71 1 10.24-5.95v-3.81l13.8-8.02.67.4 12.84-7.47h6.82l1.85-1.07 1.57.91-18.09 10.52zM71.54 283.34l3.42-5.93 17.21-10.01 4.99 2.89-29.02 16.87-1.59-.91z"/>
        <path d="M116.6 214.39c-2.51 1.45-4.55.25-4.56-2.64a10.07 10.07 0 0 1 4.53-7.89c2.52-1.45 4.56-.24 4.57 2.64a10.06 10.06 0 0 1-4.54 7.9m-.05-17.88c-5.66 3.27-10.37 11.22-10.72 18.06-.18 3.09.65 5.63 2.28 7.19l7.8 8.26c.19.19.45.21.78 0a2 2 0 0 0 .78-.92l7.69-17.2a21.5 21.5 0 0 0 2.27-9.82c-.46-6.37-5.21-8.86-10.87-5.59" fill="#2B90FF" fill-rule="nonzero"/>
        <path fill="#0A0A0A" fill-rule="nonzero" opacity=".15" d="M148.16 356.86l54.91-31.93 52.69 30.63-54.92 31.93z"/>
        <path d="M205.28 384.92l-3.14 1.82-6.04-3.52-.71-4.87 4.54-2.63 6.05 3.52zM253.66 356.79l-3.14 1.82-6.05-3.51-.7-4.87 4.54-2.64 6.05 3.52z" opacity=".15" fill-rule="nonzero" fill="#000"/>
        <path fill="#000" fill-rule="nonzero" opacity=".3" d="M254.36 351.11l-.7 5.68-3.14 1.82-.7-4.87zM205.98 379.24l-.7 5.68-3.14 1.82-.7-4.87z"/>
        <path d="M159.45 358.28l-3.14 1.82-6.04-3.52-.71-4.87 4.54-2.63 6.05 3.51z" opacity=".15" fill-rule="nonzero" fill="#000"/>
        <path fill="#000" fill-rule="nonzero" opacity=".15" d="M160.15 352.59l-.7 5.69-3.14 1.82-.7-4.87z"/>
        <path d="M196.48 278.55a1.66 1.66 0 0 1 1-1.36l2.87-1.67a5.17 5.17 0 0 1 4.69 0l49.73 28.92c.556.237.94.758 1 1.36v45.7a1.66 1.66 0 0 1-1 1.36l-2.87 1.67a5.17 5.17 0 0 1-4.69 0l-49.73-28.91a1.66 1.66 0 0 1-1-1.36v-45.71z" fill="#9ECCFF" fill-rule="nonzero"/>
        <path d="M249.57 309.39a4.77 4.77 0 0 1-2.35-.56l-49.74-28.92a1.66 1.66 0 0 1-1-1.36v45.7a1.66 1.66 0 0 0 1 1.36l49.73 28.92a4.77 4.77 0 0 0 2.35.56l.01-45.7z" fill="#000" fill-rule="nonzero" opacity=".15"/>
        <path d="M249.57 309.39a4.77 4.77 0 0 0 2.34-.56l2.87-1.67a1.66 1.66 0 0 0 1-1.36v45.7a1.66 1.66 0 0 1-1 1.36l-2.87 1.67a4.77 4.77 0 0 1-2.34.56" fill="#86BAEA" fill-rule="nonzero"/>
        <path d="M254.79 307.16a1.44 1.44 0 0 0 0-2.73l-49.73-28.92a5.17 5.17 0 0 0-4.69 0l-2.89 1.68a1.44 1.44 0 0 0 0 2.73l49.73 28.92a5.17 5.17 0 0 0 4.69 0l2.89-1.68z" opacity=".08" fill-rule="nonzero" fill="#FFF"/>
        <path fill="#5D5D5D" fill-rule="nonzero" d="M248.07 335.68l-45.35 26.37-42.33-24.61v-14.06l45.35-26.37 42.33 24.61z"/>
        <path fill="#000" fill-rule="nonzero" opacity=".3" d="M202.72 362.05l45.35-26.37v-14.06l-45.35 26.37z"/>
        <path fill="#000" fill-rule="nonzero" opacity=".15" d="M202.72 362.05l-42.33-24.61v-14.06l42.33 24.61z"/>
        <path d="M162.17 314.73c1.08-3 8.11-6.43 14-8.21 6.38-1.93 38.73 2.9 38.73 2.9 0 4 1 10.39-4.51 15.28-2.64 2.36-7 4.41-13.46 7.24a23.27 23.27 0 0 1-11.36 1.86c-7.55-1-20.91-6.33-22.82-9.92-.71-2.01-2.04-5.08-.58-9.15z" fill="#9B9B9B" fill-rule="nonzero"/>
        <path d="M176.48 274.39c-1.21 8.45-.75 40.24-.75 40.24 0 6.78 1.71 12.13 11 13.43a15.62 15.62 0 0 0 5.23-.32c7.19-1.54 15.92-6.73 19.32-9.81 5.7-5.16 5.47-10 5.47-14.27v-31s0-10.42-8.81-13.81c-6.71-2.58-17-.22-22.42 2.83.01 0-7.79 3.9-9.04 12.71z" fill="#FFF" fill-rule="nonzero"/>
        <path d="M177.15 271.55a5 5 0 0 1 3.63-1.68c5.38 0 5 6.1 5 6.1v34.21c0 13.16 3 16.81 4.93 17.79a14.22 14.22 0 0 1-4 .09c-9.3-1.3-11-6.65-11-13.43 0 0-.46-31.78.75-40.24a16.11 16.11 0 0 1 .69-2.84z" fill="#000" fill-rule="nonzero" opacity=".1"/>
        <path fill="#5D5D5D" fill-rule="nonzero" d="M248.07 351.15l-45.35 26.37-42.33-24.61v-14.06l45.35-26.37 42.33 24.61z"/>
        <path fill="#000" fill-rule="nonzero" opacity=".3" d="M202.72 377.52l45.35-26.37v-14.06l-45.35 26.37z"/>
        <path fill="#000" fill-rule="nonzero" opacity=".15" d="M202.72 377.52l-42.33-24.61v-14.06l42.33 24.61z"/>
        <path fill="#5D5D5D" fill-rule="nonzero" d="M245.05 319.78l-45.36 26.37-12.09-7.03v-35.16l45.35-26.37 12.1 7.03z"/>
        <path fill="#86BAEA" fill-rule="nonzero" d="M199.69 346.15l45.36-26.37v-35.16l-45.36 26.37z"/>
        <path fill="#9ECCFF" fill-rule="nonzero" d="M199.69 346.15l-12.09-7.03v-35.16l12.09 7.03zM232.95 277.59l-45.35 26.37 12.09 7.03 45.36-26.37zM157.08 281.51c1.68 0 3 .8 3 1.78 0 .109-.017.216-.05.32l-.47 4.74c0 .82-1.13 1.48-2.52 1.48-1.39 0-2.52-.66-2.52-1.48l-.47-4.74a1.07 1.07 0 0 1-.05-.32c.03-.98 1.4-1.78 3.08-1.78z"/>
        <ellipse cx="3.08" cy="2.29" rx="3.04" ry="1.78" opacity=".2" transform="translate(154 281)" fill-rule="nonzero" fill="#000"/>
        <path d="M157.08 281.75c1.52 0 2.8.7 2.8 1.54 0 .84-1.28 1.54-2.8 1.54-1.52 0-2.8-.7-2.8-1.54 0-.84 1.28-1.54 2.8-1.54zm0-.24c-1.68 0-3 .8-3 1.78s1.36 1.78 3 1.78 3-.8 3-1.78-1.36-1.78-3-1.78z" fill="#FFF" fill-rule="nonzero"/>
        <path d="M159.38 289s-1.89-.87-2.4-1.19l-.78-.5c-.32-.21-.49-.3-.62-.21s-.22.28.43.73a3.32 3.32 0 0 1-1.09-1.12c-.28-.53-.51-1.24-.78-1.16-.27.08-.19.56-.19.56s-.37-.07-.27.53c0 0-.31 0-.12.6 0 0-.31.12 0 .76a8.5 8.5 0 0 0 5 4.19l.82-3.19z" fill="#FCCEAE" fill-rule="nonzero"/>
        <path d="M186.98 251.39c-.05-5.09 3.07-9.26 7-9.3 2.38 0 5.15.65 6.46 3 .84 1.5.69 4.18.71 6.17a11 11 0 0 1-1.59 5.94v2.17a2.45 2.45 0 0 1-1.42 1.94 7.52 7.52 0 0 1-6.82 0 2.43 2.43 0 0 1-1.4-1.9v-.66a10.37 10.37 0 0 1-2.94-7.36z" fill="#FFDFCA" fill-rule="nonzero"/>
        <path d="M185.71 247.52a6.8 6.8 0 0 1 .73-6c2.07-3.28 3.57-4.33 5.86-4.84a7.26 7.26 0 0 1 4 .29 4.46 4.46 0 0 1 3.64.61 7.92 7.92 0 0 1 2.41 3c.91 1.57 1 3.84 1 6.22a14 14 0 0 1-3.71 10.71 7.18 7.18 0 0 1-1.72.8c-1.52.46-6.06.8-7.94-3.28a24.82 24.82 0 0 1-.94-3.07c0-.46.49-2.24-.38-2.85-.87-.61-1 .61-1 .61a7.59 7.59 0 0 0 .41 3c.52.93.7 3.08-.29 3.77 0 0 .81-1.63.06-2.53a8 8 0 0 1-2.13-6.44z" fill="#424242" fill-rule="nonzero"/>
        <path d="M200.08 240.64s5.4-5.57 7.49 1.8a10 10 0 0 1 .06 6.16c-1.1 3-3 4.7-.52 6.79 0 0-6.79-1.74-7.49-10.74 0 0-.41-3.19.46-4.01z" fill="#F39F00" fill-rule="nonzero"/>
        <path d="M200.08 240.64s5.4-5.57 7.49 1.8a10 10 0 0 1 .06 6.16c-1.1 3-3 4.7-.52 6.79 0 0-6.79-1.74-7.49-10.74 0 0-.41-3.19.46-4.01z" fill="#303030" fill-rule="nonzero"/>
        <path d="M182.64 295.48L159.38 289l-2.12 3a114.51 114.51 0 0 0 21.93 12.93" fill="#FFF" fill-rule="nonzero"/>
        <circle fill="#FFF" fill-rule="nonzero" transform="rotate(-49.14 181.157 300.304)" cx="181.157" cy="300.304" r="5.04"/>
        <path d="M191.19 274.7l-5.22 27-9.84-1.82s.06-2.06.12-4.68c.25-11.13-.72-19.16 1.28-25 1-2.76 15.17-1.58 13.66 4.42" fill="#FFF" fill-rule="nonzero"/>
        <circle fill="#FFF" fill-rule="nonzero" transform="rotate(-89.78 184.067 273.431)" cx="184.067" cy="273.431" r="7.27"/>
        <path fill="#9ECCFF" fill-rule="nonzero" d="M254.12 353.26l-48.38 28.13-6.05-3.52v-45.7l48.38-28.13 6.05 3.52z"/>
        <path fill="#86BAEA" fill-rule="nonzero" d="M205.74 381.39l48.38-28.13v-45.7l-48.38 28.13z"/>
        <path fill="#000" fill-rule="nonzero" opacity=".3" d="M205.74 381.39l-6.05-3.52v-45.7l6.05 3.52z"/>
        <path fill="#FFF" fill-rule="nonzero" opacity=".08" d="M199.69 332.17l6.05 3.52 48.38-28.13-6.05-3.52z"/>
        <path d="M206.42 332.56l-49.74-28.91a5.17 5.17 0 0 0-4.69 0l-2.87 1.67a1.66 1.66 0 0 0-1 1.36v45.7a1.66 1.66 0 0 0 1 1.36l49.73 28.92a5.17 5.17 0 0 0 4.69 0l2.87-1.67.01-48.43z" fill="#9ECCFF" fill-rule="nonzero"/>
        <path d="M201.2 337.52a4.77 4.77 0 0 1-2.34-.56L149.12 308a1.66 1.66 0 0 1-1-1.36v45.7a1.66 1.66 0 0 0 1 1.36l49.73 28.92a4.77 4.77 0 0 0 2.34.56l.01-45.66z" fill="#9ECCFF" fill-rule="nonzero"/>
        <path d="M206.42 335.29l-2.88 1.71a4.77 4.77 0 0 1-2.34.56v45.71a4.76 4.76 0 0 0 2.34-.56l2.87-1.67.01-45.75z" fill="#86BAEA" fill-rule="nonzero"/>
        <path d="M206.42 335.29l-2.88 1.71a5.17 5.17 0 0 1-4.69 0l-49.73-29a1.44 1.44 0 0 1 0-2.73l2.87-1.67a5.17 5.17 0 0 1 4.69 0l49.73 28.92.01 2.77z" opacity=".08" fill-rule="nonzero" fill="#FFF"/>
        <path d="M194.05 138.4a13.91 13.91 0 0 0-6.86 1.63c-1.64 1-2.54 2.17-2.54 3.42s.9 2.47 2.55 3.42a15.27 15.27 0 0 0 13.73 0c1.64-1 2.54-2.17 2.54-3.42s-.9-2.47-2.54-3.42a13.91 13.91 0 0 0-6.87-1.63" fill="#D8D8D8" fill-rule="nonzero"/>
        <path d="M184.77 134.31l2.31 9.3a3.92 3.92 0 0 0 2 2.28 11 11 0 0 0 10 0 3.91 3.91 0 0 0 2-2.28l2.31-9.3c.47-1.68-.39-3.47-2.62-4.76a14.71 14.71 0 0 0-13.34 0c-2.22 1.29-3.09 3.08-2.62 4.77l-.04-.01z" fill="#FFF" fill-rule="nonzero"/>
        <path d="M184.77 134.3a5.28 5.28 0 0 0 2.62 3 14.71 14.71 0 0 0 13.34 0 5.27 5.27 0 0 0 2.62-3l-2.31 9.3a3.91 3.91 0 0 1-2 2.28 11 11 0 0 1-10 0 3.92 3.92 0 0 1-2-2.28l-2.31-9.3h.04z" fill="#9ECCFF" fill-rule="nonzero"/>
        <path d="M194.05 128.84a12.59 12.59 0 0 0-6.22 1.48c-1.49.86-2.3 2-2.3 3.1s.82 2.24 2.3 3.1a13.83 13.83 0 0 0 12.44 0c1.49-.86 2.3-2 2.3-3.1s-.82-2.23-2.3-3.1a12.59 12.59 0 0 0-6.22-1.48" fill="#FFF1DC" fill-rule="nonzero"/>
        <path d="M194.05 128.84a12.59 12.59 0 0 0-6.22 1.48c-1.49.86-2.3 2-2.3 3.1s.82 2.24 2.3 3.1a13.83 13.83 0 0 0 12.44 0c1.49-.86 2.3-2 2.3-3.1s-.82-2.23-2.3-3.1a12.59 12.59 0 0 0-6.22-1.48" fill="#FFF1DC" fill-rule="nonzero"/>
        <path d="M200.27 132.35a12.6 12.6 0 0 0-6.22-1.48 12.59 12.59 0 0 0-6.22 1.48 4.8 4.8 0 0 0-2.07 2.08 2.53 2.53 0 0 1-.23-1c0-1.13.82-2.23 2.3-3.1a12.59 12.59 0 0 1 6.22-1.48 12.59 12.59 0 0 1 6.22 1.48c1.49.86 2.3 2 2.3 3.1a2.52 2.52 0 0 1-.23 1 4.8 4.8 0 0 0-2.07-2.08z" fill="#2B90FF" fill-rule="nonzero"/>
        <path d="M200.27 132.35a12.6 12.6 0 0 0-6.22-1.48 12.59 12.59 0 0 0-6.22 1.48 4.8 4.8 0 0 0-2.07 2.08 2.53 2.53 0 0 1-.23-1c0-1.13.82-2.23 2.3-3.1a12.59 12.59 0 0 1 6.22-1.48 12.59 12.59 0 0 1 6.22 1.48c1.49.86 2.3 2 2.3 3.1a2.52 2.52 0 0 1-.23 1 4.8 4.8 0 0 0-2.07-2.08z" fill="#7FB4DD" fill-rule="nonzero"/>
        <path d="M191.94 133.18a3.53 3.53 0 0 0 3.2 0 1.12 1.12 0 0 0 .64-.92c0-2.11-.07-11.39-.84-17.67-.17-1.36-.78-5.76-1.62-5.27-1.12.66-2.08 12.72-2.08 22.95.042.415.306.775.69.94" fill="#5CB947" fill-rule="nonzero"/>
        <path d="M194.88 135.33a3.53 3.53 0 0 0 3.2 0 1.12 1.12 0 0 0 .64-.92c0-2.11-.07-11.39-.84-17.67-.17-1.36-.78-5.77-1.62-5.27-1.13.66-2.08 12.72-2.08 22.95.04.416.305.777.69.94" fill="#30A84A" fill-rule="nonzero"/>
        <path d="M189.57 134.67a2.17 2.17 0 0 0 2 0 .69.69 0 0 0 .39-.56c0-1.3 0-7-.51-10.86-.1-.84-.48-3.54-1-3.24-.69.41-1.28 7.81-1.28 14.1a.7.7 0 0 0 .42.58" fill="#089848" fill-rule="nonzero"/>
    </g>
</svg>
