<svg width="110" height="322" viewBox="0 0 110 322" xmlns="http://www.w3.org/2000/svg">
    <g fill-rule="nonzero" fill="none">
        <path d="M109.997 30.66C109.995 15.717 99.196 2.95 84.43.44 69.665-2.073 55.235 6.402 50.27 20.501c-4.964 14.1.983 29.716 14.078 36.97a5.26 5.26 0 0 1 2.735 4.138c.27 3.71-3.393 5.52-3.393 5.52 47.542.44 46.307-36.469 46.307-36.469z" fill="#FFF"/>
        <path d="M60.733 292.49c13.663 7.877 16.096 19.383 5.355 25.56-10.741 6.176-30.67 4.794-44.334-3.07-13.663-7.866-16.065-19.42-5.355-25.603s30.67-4.796 44.334 3.112z" fill-opacity=".15" fill="#000"/>
        <path d="M55.538 312.073c-2.939 2.995-6.505 4.221-7.993 2.739-1.488-1.482-.258-5.11 2.687-8.13 2.945-3.021 6.505-4.222 7.993-2.74.88.895.818 3.24.818 4.14-.467.951-2.312 2.802-3.505 3.99z" fill="#081B2F"/>
        <path d="M55.914 308.624c-2.016 1.792-4.426 2.479-5.379 1.553-.953-.926-.09-3.119 1.933-4.905 2.022-1.786 4.425-2.479 5.378-1.553.954.926.097 3.124-1.932 4.905z" fill="#FFCFAE"/>
        <path d="M29.059 296.926c-2.749 2.801-6.084 3.946-7.45 2.557-1.365-1.388-.239-4.754 2.527-7.58 2.767-2.824 6.084-3.945 7.45-2.563.826.835.766 3.045.766 3.867-.48.87-2.228 2.605-3.293 3.72z" fill="#081B2F"/>
        <path d="M29.46 294.064c-1.82 1.783-4.002 2.485-4.85 1.553-.85-.932-.08-3.106 1.74-4.901 1.818-1.796 4-2.485 4.85-1.547.848.938.078 3.143-1.74 4.895z" fill="#FFCFAE"/>
        <path d="M59.279 256.428s10.624-42.585 14.324-69.433l-64.691-11.48c-.271 13.055 3.213 39.244 4.686 57.252 2.22 27.125 11.58 58.446 11.58 58.446.204.984 1.302 1.734 3.49 1.734 2.467 0 4.132-.818 4.132-1.968l-.98-43.533 4.785-37.036s2.306 27.599 4.02 42.333c1.715 14.734 10.428 52.62 10.428 52.62 0 1.544 1.128 2.799 3.767 2.799 2.64 0 4.434-1.138 4.446-2.67l.013-49.064z" fill="#10355D"/>
        <path d="M8.063 96.25C3.075 106.793.823 123.727 0 138.397l14.473 1.53 13.836-35.559" fill="#FFF"/>
        <path d="M11.461 169.63s.506 5.148.855 6.61c.223.929.362 1.563.53 2.239.241.935.301 1.394 0 1.617-.3.224-.843.296-1.379-1.6a8.277 8.277 0 0 0 1.74 3.472c1.012 1.086 2.488 2.197 2.096 2.77-.391.574-1.475 0-1.475 0s-.127.936-1.47.2c0 0-.156.754-1.517-.2 0 0-.536.604-1.807-.604-1.27-1.207-5.708-6.078-5.799-15.09l8.226.586z" fill="#FFCFAE"/>
        <path d="M.307 138.309c-1.417 25.826 2.533 33.735 2.533 33.735l8.624.235 3.095-32.16" fill="#FFF"/>
        <circle fill="#FFF" cx="7.279" cy="139.118" r="7.279"/>
        <circle fill="#FFF" cx="18.199" cy="101.507" r="10.919"/>
        <path d="M13.948 190.604c5.965 5.506 21.456 14.632 34.175 17.35 3.027.707 6.152.897 9.243.562 16.453-2.306 19.472-11.759 19.472-23.764l-.05-61.66c-.073-22.814-17.296-32.02-17.296-32.02-9.539-5.382-27.785-9.57-39.647-5.006-15.59 6-15.584 24.473-15.59 24.436-.006-.037-1.374 10.482 2.94 23.14.018-.012-9.65 41.824 6.753 56.962z" fill="#FFF"/>
        <path d="M73.677 107.007a11.35 11.35 0 0 0-9.099-2.527c-7.009.88-5.428 9.105-5.428 9.105s7.18 64.994-8.596 77.72c-11.132 8.994-25.861 4.304-33.569.775 7.101 5.453 20.25 12.695 31.302 15.068a27.37 27.37 0 0 0 9.19.56c16.36-2.3 19.361-11.724 19.361-23.694l-.049-61.478a39.148 39.148 0 0 0-3.112-15.53z" fill="#D8D8D8"/>
        <path fill="#2B90FF" d="M38.824 122.941v1.97l12.132 2.883v-1.97z"/>
        <path d="M66.81 198.11s-.42 5.347-.753 6.879c-.21.963-.34 1.626-.507 2.333-.229.97-.278 1.45.043 1.676.322.225.872.288 1.384-1.682a8.618 8.618 0 0 1-1.723 3.627c-1.014 1.144-2.509 2.32-2.095 2.908.414.588 1.514 0 1.514 0s.148.963 1.507.181c0 0 .18.776 1.551-.231 0 0 .562.625 1.817-.682 1.254-1.307 5.746-6.404 5.672-15.766l-8.41.757z" fill="#FFCFAE"/>
        <path d="M64.706 161.32l1.47 42.504 8.365-.258s6.39-16.723 7.959-43.419" fill="#FFF"/>
        <circle fill="#FFF" transform="rotate(-1.03 73.603 160.147)" cx="73.603" cy="160.147" r="8.897"/>
        <path d="M51.765 116.718l13.88 46.664 17.38-2.917s.278-4.336.284-8.981c0-19.572-2.766-34.289-8.01-44.72" fill="#FFF"/>
        <circle fill="#FFF" transform="rotate(-.22 63.897 112.426)" cx="63.897" cy="112.426" r="12.941"/>
        <path d="M26.553 130.22h-.1a.62.62 0 0 1-.509-.5l-4.275-23.94c-.125-.514-3.108-13.445 4.971-19.914a18.198 18.198 0 0 1 11.223-4.175c4.754 0 8.638 2.276 10.67 6.24 2.287 4.46-.621 8.417-4.68 13.89a95.203 95.203 0 0 0-7.102 10.675l-9.651 17.41a.622.622 0 0 1-.547.315zm11.335-47.292a16.951 16.951 0 0 0-10.446 3.902c-7.457 5.98-4.562 18.554-4.53 18.696l3.946 22.264 8.83-15.875a96.284 96.284 0 0 1 7.19-10.823c3.922-5.306 6.513-8.813 4.574-12.598-1.808-3.537-5.276-5.566-9.564-5.566z" fill="#2B90FF"/>
        <path fill="#9ECCFF" d="M27.803 135.405l-.012 4.835-3.027-1.797.018-4.835z"/>
        <path d="M26.645 133.333l2.942 1.747-.037 12.43-6.57-3.907.031-12.435 2.942 1.747.692.418zm-1.863.275v4.835l3.033 1.797v-4.835l-3.033-1.797zm4.29 9.446v-.493l-5.557-3.282v.493l5.556 3.301v-.019zm0 1.38v-.487l-5.557-3.301v.493l5.556 3.3v-.006zm0 1.366v-.493l-5.557-3.3v.492l5.556 3.3z" fill="#2B90FF"/>
        <path fill="#9ECCFF" d="M29.071 142.561l-.006.493-5.55-3.3v-.493z"/>
        <path fill="#2B90FF" d="M26.65 131.474l-.005 1.86-.698-.413.006-1.859z"/>
        <path fill="#D3D3D3" d="M27.791 128.379l-.515 3.47-.625-.375-.698-.412-.63-.374-.492-4.069z"/>
        <path fill="#9ECCFF" d="M29.118 145.87v.527l-5.662-3.524v-.52zM29.118 144.26v.52l-5.662-3.525v-.52z"/>
        <path d="M34.29 55.016c-3.972-.159-8.628.826-10.932 4.657-1.479 2.448-1.369 6.958-1.503 10.293-.239 6.022 2.157 12.337 5.89 15.61v1.574c.043 1.29.905 2.57 2.61 3.555 3.464 2.001 9.062 2.001 12.502 0 1.662-.967 2.512-2.221 2.56-3.488V76.128c0-.19 1.473-5.93 1.48-6.12.372-8.517-6.087-14.729-12.607-14.992z" fill="#FFCFAE"/>
        <path d="M33.576 88.594a8.486 8.486 0 0 1-5.267-2.303v1.596c.043 1.31.91 2.606 2.627 3.606 3.489 2.03 9.125 2.03 12.589 0 1.673-.981 2.529-2.253 2.578-3.538V71.985c-.53 8.454-6.104 16.87-12.527 16.61z" fill="#EAB896"/>
        <path d="M46.283 71.94l-1.13 5.613 1.13 3.519c1-1.05 1.46-3.488 2.422-5.498 3.006-6.365 2.292-11.252 1.826-16.219-.192-2.07-.838-10.5-7.173-10.996 0 0-3.341-3.372-12.694.177-5.415 2.053-8.545-.164-8.545-.164s-.454 2.12.403 3.665c0 0-5.074 4.337-.155 16.31.087-2.993 0-5.333 1.242-7.33.876-1.436 3.03-1.784 4.583-1.986.93.047 1.847.24 2.714.575 0 0 2.416-.715 3.397-.611 6.882.531 6.788 3.31 6.788 3.31l.299 3.134v10.727s-.317 5.498-5.59 6.31c-2.192.33-4.347-1.893-4.347-1.893h-1.664s-1.36 1.943-2.603 1.314a7.599 7.599 0 0 1-4.123-5.114c.292 1.46 2.347 10.477 8.999 11.259 8.166.96 11.271-3.99 11.271-9.542v-9.853a1.607 1.607 0 0 1 .41-1.425c.363-.383.89-.57 1.416-.506 2.137 0 1.64 2.896 1.124 5.223z" fill="#424242"/>
        <path d="M22.696 77.113c0-.17-.049-.275-.049-.275s.008.105.049.275z" fill="#6B373E"/>
        <path d="M32.507 76.03h-5.161s-1.464 1.224-1.464 2.426h8.089c0-1.202-1.464-2.427-1.464-2.427z" fill="#424242"/>
        <path d="M80.936 27.986c0-1.39-.922-2.132-2.283-2.132-1.255 0-2.183.623-3.099 1.558l-2.76-2.494a8.084 8.084 0 0 1 6.198-3.08c3.851 0 6.743 1.796 6.743 5.793 0 4.196-5.112 5.449-4.704 9.483h-4.392c-.677-4.658 4.297-6.59 4.297-9.128zm-2.132 11.073a3.127 3.127 0 0 1 3.136 3.118 3.127 3.127 0 0 1-3.136 3.117 3.127 3.127 0 0 1-3.137-3.117 3.127 3.127 0 0 1 3.137-3.118z" fill="#2B90FF"/>
    </g>
</svg>
