<svg width="487" height="328" viewBox="0 0 487 328" xmlns="http://www.w3.org/2000/svg">
    <defs>
        <linearGradient x1="85.044%" y1="85.499%" x2="19.62%" y2="19.228%" id="a">
            <stop stop-color="#3394FF" stop-opacity=".6" offset="0%"/>
            <stop stop-color="#FFF" stop-opacity="0" offset="100%"/>
        </linearGradient>
        <linearGradient x1="14.955%" y1="85.499%" x2="96.991%" y2="2.402%" id="b">
            <stop stop-color="#3394FF" stop-opacity=".6" offset="0%"/>
            <stop stop-color="#3E9AFF" stop-opacity=".57" offset="12%"/>
            <stop stop-color="#5DAAFF" stop-opacity=".48" offset="32%"/>
            <stop stop-color="#90C5FF" stop-opacity=".33" offset="56%"/>
            <stop stop-color="#D5E9FF" stop-opacity=".12" offset="85%"/>
            <stop stop-color="#FFF" stop-opacity="0" offset="100%"/>
        </linearGradient>
    </defs>
    <g fill-rule="nonzero" fill="none">
        <path d="M396.039 131.543L250.45 47.6c-5.035-2.905-13.174-2.905-18.177 0L87.63 131.543c-5.003 2.905-4.976 7.612.06 10.516l145.587 83.945c5.038 2.904 13.174 2.904 18.177 0l144.643-83.945c5.002-2.904 4.976-7.611-.062-10.516" fill="#EAEAEA"/>
        <path d="M481.143 179.284L256.871 49.962c-7.61-4.388-19.903-4.388-27.462 0L6.589 179.287c-7.559 4.388-7.519 11.5.091 15.888l224.275 129.322c7.61 4.388 19.904 4.388 27.463 0l222.817-129.325c7.559-4.388 7.518-11.5-.092-15.888" fill="#D8EAFF"/>
        <path d="M400.802 130.945L252.376 45.36c-5.035-2.904-13.174-2.904-18.177 0L86.74 130.948c-5.002 2.904-4.975 7.611.06 10.516l148.423 85.585c5.035 2.905 13.174 2.905 18.177 0l147.462-85.588c5.003-2.904 4.976-7.611-.059-10.516" fill="#D1D1D1"/>
        <path d="M400.802 128.4L252.376 42.814c-5.035-2.904-13.174-2.904-18.177 0L86.74 128.403c-5.005 2.904-4.975 7.611.06 10.516l148.426 85.583c5.035 2.904 13.171 2.904 18.177 0l147.457-85.578c5.002-2.905 4.976-7.611-.06-10.516" fill="#FFF"/>
        <path fill="#FFF" d="M166.514 65.471l64.817 37.789-.11 57.259-34.637 20.037-64.831-37.783.115-57.262z"/>
        <path fill="#000" opacity=".2" d="M131.868 85.51l64.826 37.784-.11 57.262-64.831-37.786z"/>
        <path fill="#000" opacity=".1" d="M231.331 103.26l-34.637 20.034-.11 57.262 34.637-20.037z"/>
        <path fill="#FFF" d="M231.331 103.26l-34.637 20.034-64.756-37.668.003-2.513 34.637-20.037 64.759 37.67z"/>
        <path fill="#000" opacity=".2" d="M196.694 123.294l-64.756-37.668.003-2.513 64.756 37.67z"/>
        <path fill="#000" opacity=".1" d="M196.694 123.294l34.637-20.034.006-2.513-34.64 20.036z"/>
        <path fill="#FFF" d="M319.025 66.544l-64.82 37.788.112 57.26 34.638 20.036 64.83-37.783-.117-57.262z"/>
        <path fill="#000" opacity=".2" d="M353.668 86.583l-64.826 37.783.113 57.262 64.83-37.785z"/>
        <path fill="#000" opacity=".1" d="M254.205 104.332l34.637 20.034.113 57.262-34.638-20.036z"/>
        <path fill="#FFF" d="M254.205 104.332l34.637 20.034L353.598 86.7l-.003-2.513-34.637-20.037-64.756 37.67z"/>
        <path fill="#000" opacity=".2" d="M288.842 124.366L353.598 86.7l-.003-2.513-64.756 37.67z"/>
        <path fill="#000" opacity=".1" d="M288.842 124.366l-34.637-20.034-.003-2.513 34.637 20.037z"/>
        <g>
            <path d="M178.008 87.43L32.315 3.407c-7.363-4.245-19.267-4.245-26.585 0-7.317 4.246-7.277 11.133.086 15.378l145.696 84.012c7.363 4.245 19.264 4.245 26.584 0 7.32-4.246 7.28-11.133-.086-15.379" fill="url(#a)" transform="translate(-13 133.56)"/>
            <path d="M260.381 135.437l145.693-84.024c7.363-4.246 19.267-4.246 26.584 0 7.318 4.245 7.278 11.132-.085 15.378L286.88 150.802c-7.363 4.246-19.265 4.246-26.585 0-7.32-4.245-7.28-11.132.086-15.378" fill="url(#b)" transform="translate(-13 133.56)"/>
        </g>
        <g>
            <path fill="#FFF" opacity=".2" d="M95.593 135.378l147.978 83.097v.003l-1.52.848L94.129 136.23z"/>
            <path fill="#CECECE" d="M95.531 135.381l-1.463.85L94.07.856 94.065.85l1.46-.85z"/>
            <path fill="#FFF" opacity=".5" d="M95.531 135.381l-1.463.85L94.07.856 94.065.85l1.46-.85z"/>
            <path fill="#FFF" d="M241.962 219.33L94.041 136.23l147.921 83.1z"/>
            <path fill="#D6E5F2" opacity=".4" d="M94.033.856l1.477-.72 147.93 83.232h.005l.002 135.244-1.477.783L94.033 136.23V.662"/>
            <path fill="#000" opacity=".2" d="M243.45 218.478l-1.463.85.002-135.376-.005-.002 1.463-.853z"/>
            <path fill="#FFF" d="M95.526 0l147.921 83.097-1.463.853L94.065.856z"/>
            <path fill="#E8E8E8" d="M94.065.856L95.525 0l147.922 83.097.003 135.381-1.463.85.002-135.376-.005-.002z"/>
            <path fill="#FFF" opacity=".2" d="M243.45 218.478l-1.463.85.002-135.376-.005-.002 1.463-.853z"/>
            <path fill="#FFF" opacity=".08" d="M95.526 0l147.921 83.097-1.463.853L94.065.856z"/>
            <g opacity=".3" fill="#FFF">
                <path d="M206.637 54.036l-77.696 121.91 17.237 14.514 86.59-117.973z"/>
                <path d="M196.176 52.45L120.35 164.96l6.053 6.906 78.198-114.572zM237.454 70.728l-80.712 116.439v3.41L239.89 80.105z"/>
            </g>
            <path fill="#FFF" opacity=".2" d="M389.701 135.915l-147.978 83.097v.002l1.52.848 147.92-83.094z"/>
            <path fill="#CECECE" d="M389.763 135.918l1.464.85-.003-135.376.005-.005-1.463-.85z"/>
            <path fill="#FFF" opacity=".5" d="M389.763 135.918l1.464.85-.003-135.376.005-.005-1.463-.85z"/>
            <path fill="#FFF" d="M243.332 219.867l147.921-83.102-147.921 83.1z"/>
            <path fill="#D6E5F2" opacity=".4" d="M391.262 1.392l-1.48-.719-147.927 83.231h-.005l-.006 135.245 1.48.783 147.938-83.167V1.199"/>
            <path fill="#000" opacity=".2" d="M241.842 219.014l1.463.85-.003-135.375.006-.003-1.461-.853z"/>
            <path fill="#FFF" d="M389.766.536l-147.92 83.097 1.462.853L391.229 1.392z"/>
            <path fill="#E8E8E8" d="M391.23 1.392l-1.464-.856-147.92 83.097-.004 135.381 1.463.85-.003-135.375.006-.003z"/>
            <path fill="#FFF" opacity=".2" d="M241.842 219.014l1.463.85-.003-135.375.006-.003-1.461-.853z"/>
            <path fill="#FFF" opacity=".08" d="M389.766.536l-147.92 83.097 1.462.853L391.229 1.392z"/>
            <g opacity=".3" fill="#FFF">
                <path d="M277.714 57.254l78.636 119.228-17.237 14.514-87.527-115.29zM287.773 53.167l77.167 112.33-6.05 6.905L279.347 58.01zM256.613 82.885l71.94 104.818v3.411l-74.378-98.853z"/>
            </g>
        </g>
        <g transform="translate(129.589 40.765)">
            <path d="M40.677 113.247s-.293 2.966-.516 3.803c-.129.515-.207.899-.309 1.29-.14.515-.174.805 0 .936.175.132.484.17.806-.92a4.761 4.761 0 0 1-1.029 1.998c-.582.628-1.442 1.263-1.208 1.61.234.345.854 0 .854 0s.078.514.849.112c0 0 .09.432.875-.113 0 0 .309.36 1.028-.359.72-.719 3.298-3.486 3.349-8.7l-4.7.343z" fill="#FFCFAE"/>
            <path d="M46.992 95.592c.806 14.482-1.444 18.926-1.444 18.926l-4.909.14-1.764-18.039" fill="#FFF"/>
            <ellipse fill="#FFF" cx="42.905" cy="95.831" rx="4.095" ry="4.09"/>
            <path d="M42.479 72.004c2.803 5.94 4.07 15.486 4.532 23.765l-8.139.864-7.787-20.042" fill="#FFF"/>
            <ellipse fill="#FFF" cx="36.952" cy="74.708" rx="6.155" ry="6.147"/>
            <path d="M15.483 193.453c1.663 1.665 3.685 2.344 4.509 1.542.824-.802.145-2.843-1.544-4.508-1.69-1.666-3.684-2.344-4.509-1.542-.515.515-.462 1.8-.462 2.298.596.8 1.268 1.54 2.006 2.21z" fill="#081B2F"/>
            <ellipse fill="#FFCFAE" transform="rotate(-46.32 16.432 190.74)" cx="16.432" cy="190.74" rx="1.348" ry="2.725"/>
            <path d="M30.39 184.927c1.61 1.61 3.533 2.25 4.33 1.46.798-.792.14-2.731-1.46-4.327s-3.534-2.25-4.331-1.459c-.478.478-.444 1.727-.444 2.21a14.776 14.776 0 0 0 1.904 2.116z" fill="#081B2F"/>
            <ellipse fill="#FFCFAE" transform="rotate(-46.32 31.291 182.357)" cx="31.291" cy="182.357" rx="1.297" ry="2.615"/>
            <path d="M13.496 162.284s-4.23-23.628-6.313-38.821l32.51-6.169c.154 7.376.412 21.431-.415 31.601-1.252 15.325-6.536 33.015-6.536 33.015-.118.555-.736.982-1.971.982-1.375 0-2.331-.462-2.331-1.11L29 157.184l-2.685-20.919s-1.303 15.593-2.27 23.918c-.966 8.324-5.907 29.745-5.907 29.745 0 .874-.639 1.582-2.124 1.582s-2.5-.643-2.51-1.504l-.009-27.723z" fill="#9B9B9B"/>
            <path d="M4.23 81.389c-1.204 8.434-.74 40.137-.74 40.137 0 6.77 1.709 12.098 10.997 13.41a15.62 15.62 0 0 0 5.228-.32c7.205-1.541 15.9-6.704 19.302-9.764 5.696-5.139 5.465-10.001 5.465-14.236V79.653s0-10.392-8.805-13.771c-6.69-2.57-16.982-.215-22.388 2.821-.013.008-7.803 3.897-9.06 12.686z" fill="#FFF"/>
            <path d="M4.898 78.556a4.946 4.946 0 0 1 3.6-1.676c5.371 0 5.006 6.08 5.006 6.08v34.12c0 13.125 2.978 16.764 4.92 17.746a14.23 14.23 0 0 1-3.977.091c-9.294-1.3-10.996-6.63-10.996-13.41 0 0-.46-31.703.746-40.137a16.03 16.03 0 0 1 .701-2.814z" fill="#D8D8D8"/>
            <path d="M9.221 129.229s.237 2.971.422 3.813c.118.515.19.904.282 1.296.129.536.158.804 0 .93-.159.127-.516.159-.776-.936.159.74.492 1.43.972 2.015.572.638 1.415 1.29 1.179 1.609-.237.319-.854 0-.854 0s-.083.515-.849.096c0 0-.096.432-.875-.128 0 0-.314.354-1.029-.381-.714-.735-3.235-3.562-3.195-8.738l4.723.424z" fill="#FFCFAE"/>
            <path d="M10.422 108.548l-.806 24.057-4.718-.144s-3.601-9.462-4.487-24.575" fill="#FFF"/>
            <ellipse fill="#FFF" transform="rotate(-88.97 5.43 107.903)" cx="5.43" cy="107.903" rx="5.032" ry="5.026"/>
            <path d="M18.056 83.263l-7.836 26.21-9.817-1.633s-.153-2.43-.159-5.042c0-10.982 1.544-19.24 4.533-25.094" fill="#FFF"/>
            <ellipse fill="#FFF" transform="rotate(-89.78 11.25 80.87)" cx="11.249" cy="80.87" rx="7.215" ry="7.206"/>
            <path d="M27.688 46.172c2.524-.102 5.491.523 6.952 2.95.943 1.566.87 4.415.953 6.53.156 3.822-1.369 7.827-3.743 9.905v1.019c-.024.805-.577 1.634-1.657 2.253-2.204 1.271-5.765 1.271-7.956 0-1.055-.614-1.595-1.408-1.63-2.213V56.618c0-.12-.016-.238-.022-.356-.236-5.407 2.954-9.924 7.103-10.09z" fill="#FFCFAE"/>
            <path d="M21.327 59.36c-.082-.754-.216-1.5-.4-2.235-.374-1.698.926-1.85.926-1.85.703-.057 1.16.437 1.302 1.107l.159 2.704.99.321s-.295-1.95-.295-2.504c0-3.087.717-3.254.717-3.254l.379-2.413s6.28.756 9.874-1.156c.354 1.383.547 2.802.574 4.23 0 0 .75-5.123-.44-8.267-1.19-3.143-3.158-4.696-6.482-4.669 0 0-10.02-.804-10.913 5.994 0 0-.994 7.625 2.892 14.064.002-.016.711-2.105.717-2.073z" fill="#424242"/>
            <path d="M28.523 67.005a5.374 5.374 0 0 0 3.327-1.44v1.019c-.024.805-.577 1.634-1.657 2.253-2.204 1.271-5.765 1.271-7.956 0-1.055-.614-1.595-1.408-1.63-2.213V56.618c.338 5.286 3.859 10.55 7.916 10.387z" fill="#3A2416" opacity=".08"/>
            <path d="M138.655 241.43c-1.71 1.708-3.787 2.414-4.635 1.564-.849-.85-.148-2.921 1.563-4.632 1.71-1.711 3.786-2.414 4.635-1.564.512.51.475 1.85.475 2.363-.288.531-1.359 1.59-2.038 2.269z" fill="#444549"/>
            <path d="M138.641 239.65c-1.12 1.072-2.457 1.482-2.986.927-.529-.555-.05-1.877 1.074-2.934 1.125-1.057 2.457-1.483 2.986-.928.53.555.043 1.87-1.074 2.934z" fill="#FFCFAE"/>
            <path d="M123.327 232.668c-1.643 1.641-3.636 2.317-4.452 1.502-.816-.815-.142-2.803 1.5-4.447 1.644-1.644 3.637-2.314 4.453-1.502.492.491.457 1.776.457 2.27-.274.509-1.303 1.525-1.958 2.177z" fill="#444549"/>
            <path d="M123.316 230.96c-1.074 1.024-2.36 1.424-2.868.893-.507-.531-.048-1.792 1.026-2.819s2.36-1.424 2.868-.89c.508.533.048 1.791-1.026 2.816z" fill="#FFCFAE"/>
            <path d="M140.695 209.392s4.348-24.312 6.49-39.902l-33.42-6.324c-.159 7.58-.425 22.03.43 32.486 1.286 15.751 6.713 33.935 6.713 33.935.118.57.757 1.008 2.024 1.005 1.413 0 2.398-.474 2.398-1.142l-.569-25.283 2.763-21.5s1.343 16.026 2.334 24.584c.99 8.559 6.06 30.574 6.06 30.574 0 .896.656 1.626 2.186 1.626 1.53 0 2.57-.663 2.58-1.55l.011-28.51z" fill="#9B9B9B"/>
            <path d="M112.755 158.982s.3 3.05.508 3.91c.131.55.212.926.316 1.328.143.552.178.826 0 .96-.177.134-.499.174-.805-.947a4.89 4.89 0 0 0 1.034 2.055c.599.643 1.477 1.3 1.243 1.641-.234.34-.878 0-.878 0s-.075.553-.873.118c0 0-.094.445-.902-.118 0 0-.317.37-1.06-.37-.745-.74-3.392-3.6-3.446-8.944l4.863.367z" fill="#FFCFAE"/>
            <path d="M106.26 140.836c-.833 14.888 1.785 19.466 1.785 19.466l4.753.128 1.815-18.54" fill="#FFCFAE"/>
            <ellipse fill="#FFCFAE" cx="110.467" cy="141.083" rx="4.208" ry="4.203"/>
            <path d="M110.902 116.578c-2.884 6.107-4.183 15.915-4.661 24.424l8.367.885 8-20.594" fill="#FFF"/>
            <ellipse fill="#FFF" cx="116.584" cy="119.37" rx="6.327" ry="6.319"/>
            <path d="M116.923 141.096c-.094.98-.963 1.7-1.944 1.61l-8.473-.765c-.98-.093-1.7-.96-1.61-1.939l.182-2.014a1.788 1.788 0 0 1 1.941-1.61l8.472.765c.981.094 1.702.962 1.612 1.942l-.18 2.011z" fill="#FFF"/>
            <path d="M150.223 126.236c1.238 8.668.768 41.259.768 41.259 0 6.954-1.754 12.433-11.305 13.769-1.625.228-3.542.064-5.37-.328-7.385-1.577-16.343-6.898-19.84-10.054-5.856-5.286-5.615-10.28-5.615-14.633V124.46c0 .022 0-10.68 9.05-14.158 6.885-2.644 17.476-.22 23.015 2.902-.005-.002 8.005 3.996 9.297 13.032z" fill="#FFF"/>
            <path d="M149.53 123.323c-.977-1.016-2.202-1.722-3.727-1.722-5.524 0-5.148 6.252-5.148 6.252v35.074c0 13.49-3.064 17.234-5.059 18.237 1.351.223 2.727.254 4.087.094 9.552-1.34 11.305-6.815 11.305-13.769 0 0 .47-32.588-.768-41.259a16.533 16.533 0 0 0-.69-2.907z" fill="#000" opacity=".1"/>
            <path d="M126.208 92.685c-2.325-.094-5.053.48-6.399 2.72-.864 1.44-.805 4.062-.878 6.007-.142 3.516 1.262 7.2 3.448 9.118V111.47c.024.751.537 1.502 1.525 2.076 2.028 1.17 5.307 1.17 7.32 0 .973-.563 1.47-1.298 1.502-2.038V102.3c0-.11.016-.22.018-.33.229-4.978-2.706-9.132-6.536-9.285z" fill="#FFCFAE"/>
            <path d="M125.448 111.855a4.96 4.96 0 0 1-3.063-1.327V111.466c.024.751.537 1.502 1.525 2.076 2.027 1.17 5.306 1.17 7.32 0 .972-.563 1.469-1.298 1.5-2.038v-9.207c-.305 4.862-3.546 9.706-7.282 9.558z" fill="#3A2416" opacity=".08"/>
            <path d="M135.975 95.096c-.19-1.202-1.55-4.795-4.909-6.453-3.408-1.681-8.821-1.413-9.968-1.073-1.573.456-1.912 1.492-1.557 2.27 0 0-2.954.777-1.942 2.842-1.162 2.427-1.093 4.913 1.373 7.649.05-1.751.131-3.736.843-4.921a5.056 5.056 0 0 1 1.998-1.878 7.437 7.437 0 0 1 7.935 3.219l.491 5.31a1.273 1.273 0 0 1 2.513.365v3.859a10.174 10.174 0 0 0 1.786-2.682c1.73-3.72 1.759-6.477 1.437-8.507z" fill="#424242"/>
            <path d="M145.091 175.398s-.244 3.055-.435 3.921c-.12.553-.198.928-.292 1.341-.132.555-.162.829.024.96.185.132.502.167.805-.963a4.89 4.89 0 0 1-.999 2.074c-.588.654-1.452 1.327-1.213 1.662.239.336.878-.016.878-.016s.086.553.872.102c0 0 .103.443.9-.134 0 0 .325.365 1.053-.389.727-.753 3.327-3.66 3.284-9.006l-4.877.448z" fill="#FFCFAE"/>
            <path d="M143.859 154.157l.838 24.73 4.85-.15s3.7-9.727 4.613-25.26" fill="#FFCFAE"/>
            <ellipse fill="#FFCFAE" transform="rotate(-1.03 148.989 153.493)" cx="148.989" cy="153.493" rx="5.172" ry="5.165"/>
            <path d="M136.01 128.167l8.056 26.916 10.09-1.682s.16-2.497.162-5.181c0-11.289-1.611-19.78-4.659-25.795" fill="#FFF"/>
            <ellipse fill="#FFF" transform="rotate(-.22 143.012 125.709)" cx="143.012" cy="125.709" rx="7.417" ry="7.407"/>
            <path d="M155.129 153.758a1.785 1.785 0 0 1-1.555 1.992l-8.442 1.041a1.79 1.79 0 0 1-1.996-1.553l-.25-2.006a1.785 1.785 0 0 1 1.555-1.993l8.443-1.04a1.79 1.79 0 0 1 1.995 1.553l.25 2.006z" fill="#FFF"/>
            <path d="M212.223 140.863c-7.892 4.583-9.285 11.264-3.093 14.871 6.192 3.607 17.723 2.79 25.61-1.794 7.886-4.583 9.285-11.264 3.093-14.871-6.192-3.607-17.715-2.79-25.61 1.794z" opacity=".15" fill="#050505"/>
            <path d="M232.277 139.841c-1.737-1.695-4.09-2.057-4.938-1.21-.849.848-.142 2.924 1.573 4.643.704.703 1.63 1.61 2.345 1.934a1.97 1.97 0 0 0 2.301-.357c.491-.536.424-2.478.424-2.99-.228-.62-.87-1.21-1.705-2.02z" fill="#444549"/>
            <ellipse fill="#FFCFAE" transform="rotate(-48.69 231.182 141.055)" cx="231.182" cy="141.055" rx="1.528" ry="2.937"/>
            <path d="M217.956 147.892c-1.737-1.695-4.09-2.057-4.938-1.21-.848.848-.142 2.924 1.574 4.643.703.703 1.63 1.61 2.344 1.934a1.97 1.97 0 0 0 2.301-.357c.49-.536.425-2.478.425-2.99-.234-.622-.876-1.21-1.706-2.02z" fill="#444549"/>
            <ellipse fill="#FFCFAE" transform="rotate(-48.652 216.577 149.465)" cx="216.577" cy="149.465" rx="1.526" ry="2.934"/>
            <path d="M231.603 142.947c-2.003-.877-2.094-1.926-2.148-2.371 0 0-2.495-16.413-3.738-27.286-.604-5.71-.895-11.45-.873-17.191l-3.82 23.668-1.768 30.547c0 .032-.193 1.28-1.756.735-1.447-.504-2.119-1.116-2.417-2.288-.201-.997-4.514-21.911-5.577-30.842-1.088-9.143-3.76-45.609-2.38-48.473l35.323 1.201-6.917 43.748-1.96 27.715s-.121.783-.642.928a2.218 2.218 0 0 1-1.327-.091z" fill="#FFCFAE"/>
            <path d="M219.447 114.889c-1.456.375-2.97.466-4.46.268-4.565-.641-9.399-5.603-9.399-5.603v-5.828c0-6.184.024-29.667.024-29.667.159-1.61.352-3.14.615-4.584.884-4.328 2.535-6.906 6.144-9.778a12.104 12.104 0 0 1 1.576-1.04c4.598-2.591 13.392-4.605 19.109-2.414 7.519 2.888 7.519 11.77 7.519 11.752v33.725a76.55 76.55 0 0 1-9.214 7.022c-4.812 3.094-10.776 5.846-11.914 6.147z" fill="#9B9B9B"/>
            <path d="M244.205 30.805c2.881 6.106 4.184 15.909 4.66 24.405l-8.366.885-7.996-20.589" fill="#FFF"/>
            <path d="M242.355 73.195s-.3 3.047-.508 3.91c-.131.537-.212.926-.316 1.325-.143.553-.178.826 0 .96.177.135.5.175.805-.946a4.89 4.89 0 0 1-1.034 2.054c-.598.644-1.477 1.3-1.243 1.641.234.341.878 0 .878 0s.075.553.87.118c0 0 .094.446.9-.118 0 0 .317.37 1.06-.37.744-.74 3.392-3.599 3.443-8.941l-4.855.367z" fill="#FFCFAE"/>
            <path d="M248.85 55.055c.833 14.882-1.484 19.452-1.484 19.452l-5.054.136-1.815-18.534" fill="#FFF"/>
            <ellipse fill="#FFF" cx="244.643" cy="55.301" rx="4.208" ry="4.203"/>
            <ellipse fill="#FFF" cx="238.528" cy="33.597" rx="6.324" ry="6.316"/>
            <path d="M204.315 39.183c-1.238 8.665-.768 41.245-.768 41.245 0 6.952 1.754 12.428 11.303 13.767 1.624.228 3.542.064 5.37-.325 7.382-1.577 16.337-6.898 19.834-10.052 5.854-5.286 5.612-10.277 5.612-14.627V37.408c0 .021 0-10.677-9.047-14.153-6.882-2.644-17.47-.22-23.007 2.9 0 0-8.008 3.998-9.297 13.028z" fill="#FFF"/>
            <path d="M205.005 36.273c.978-1.016 2.202-1.722 3.725-1.722 5.523 0 5.145 6.25 5.145 6.25v35.063c0 13.487 3.061 17.228 5.056 18.237a14.61 14.61 0 0 1-4.084.094c-9.549-1.341-11.302-6.812-11.302-13.767 0 0-.47-32.58.768-41.245.142-.989.374-1.963.692-2.91z" fill="#000" opacity=".1"/>
            <path d="M219.412 39.57l-5.37 27.717-10.103-1.877s.062-2.114.124-4.793c.268-11.404-.744-19.645 1.316-25.586.98-2.83 15.574-1.609 14.022 4.53" fill="#FFF"/>
            <path d="M207.261 88.26s-2 5.398-1.966 6.511c.03.928.242 1.48-.308 1.757-.739.37-1.032-.185-1.032-.185s-.843.552-1.267-.386c0 0-.725.48-1.074-.684 0 0-.779.64-.986-1.558-.244-2.602 1.789-6.633 1.808-6.681l4.825 1.226z" fill="#FFCFAE"/>
            <path d="M204.858 96.587a1.79 1.79 0 0 0 1.015-1.148c.292-.906-.186-1.735-1.042-1.716 0 0-1.649 3.14.027 2.864z" fill="#FFCFAE"/>
            <path d="M203.963 65.3l-2.298 24.242 4.892 2.303s4.958-12.068 7.63-25.049" fill="#FFF"/>
            <ellipse fill="#FFF" transform="rotate(-60.84 209.13 65.813)" cx="209.131" cy="65.813" rx="5.169" ry="5.163"/>
            <ellipse fill="#FFF" transform="rotate(-89.78 212.115 38.258)" cx="212.115" cy="38.258" rx="7.46" ry="7.45"/>
            <path d="M216.262 15.746c.054 5.221 3.349 9.424 7.358 9.386 4.009-.037 7.218-4.31 7.164-9.531-.021-2.044.129-4.79-.733-6.33-1.343-2.39-4.184-3.076-6.625-3.052-4.011.038-7.218 4.305-7.164 9.527z" fill="#FFCFAE"/>
            <path d="M216.262 15.746c.054 5.221 3.349 9.424 7.358 9.386 4.009-.037 7.218-4.31 7.164-9.531-.021-2.044.129-4.79-.733-6.33-1.343-2.39-4.184-3.076-6.625-3.052-4.011.038-7.218 4.305-7.164 9.527z" fill="#000" opacity=".08"/>
            <path d="M219.237 19.75l9.91.016v4.154c-.025.719-.508 1.435-1.459 1.985-1.939 1.118-5.073 1.118-6.998 0-.929-.537-1.404-1.242-1.434-1.947v-.033l-.019-4.175z" fill="#FFCFAE"/>
            <path d="M236.305 13.825c-1.837-2.54-1.356-8.134-3.668-10.996-2.312-2.861-6.694-2.18-6.694-2.18-2.546-1.673-6.614 1.32-10 5.364-4.179 4.988 1.984 7.15 1.984 7.15s2.307 4.892.027 7.7c0 0-3.33 3.623-1.845 7.673.806 2.196 2.65 3.486 3.445 5.667.672 1.85.15 5.38-3.117 6.072 0 0 3.321 3.542 12.443 2.633 4.858-.483 10.784-3.296 8.953-9.687-2.476-8.593 4.917-10.451-1.528-19.396z" fill="#424242"/>
        </g>
        <g transform="translate(143.284 3.487)">
            <ellipse fill="#2B90FF" cx="13.037" cy="60.038" rx="12.946" ry="12.93"/>
            <path d="M14.28 58.496l-.537 2.333 2.149 2.04 1.525 3.031a.782.782 0 0 1-.52 1.278.784.784 0 0 1-.732-.336l-1.495-3.095-2.363-2.173-.605 2.31-1.914 2.802a.784.784 0 1 1-1.431-.635l1.984-2.806 1.308-5.723-1.536.676c0 .021-.537 1.74-.537 1.74A.669.669 0 0 1 8.3 59.55l.71-2.312 3.536-1.483c.297-.139.63-.181.953-.121.184.042.358.122.51.233l2.132 3.007 1.386.072a.672.672 0 1 1-.07 1.341l-1.75-.091c-.27-.013-.444-.228-.6-.456l-.827-1.244zm-.166-3.337a1.342 1.342 0 1 1 .003 0h-.003z" fill="#FFF"/>
            <ellipse fill="#2B90FF" cx="112.93" cy="102.144" rx="12.946" ry="12.93"/>
            <path d="M114.173 100.602l-.537 2.333 2.148 2.041 1.525 3.03a.782.782 0 0 1-.52 1.278.784.784 0 0 1-.731-.336l-1.496-3.095-2.363-2.172-.604 2.309-1.915 2.802a.784.784 0 1 1-1.43-.635l1.984-2.805 1.307-5.724-1.536.676c0 .022-.537 1.74-.537 1.74a.669.669 0 0 1-1.275-.388l.709-2.312 3.536-1.483c.298-.139.63-.18.954-.12.184.042.357.121.51.233l2.132 3.006 1.385.072a.672.672 0 1 1-.07 1.341l-1.75-.09c-.269-.014-.443-.229-.599-.457l-.827-1.244zm-.167-3.336a1.342 1.342 0 1 1 .003 0h-.003z" fill="#FFF"/>
            <ellipse fill="#2B90FF" cx="211.318" cy="13.104" rx="12.946" ry="12.93"/>
            <path d="M209.237 12.8c-.153.231-.316.443-.598.457l-1.751.091a.672.672 0 1 1-.07-1.341l1.386-.072 2.132-3.007c.152-.111.326-.19.51-.233.322-.06.656-.018.953.12l3.537 1.484.709 2.311a.668.668 0 0 1-1.276.39s-.537-1.72-.537-1.741l-1.528-.679 1.313 5.734 1.985 2.805a.782.782 0 0 1-.796 1.13.784.784 0 0 1-.636-.494l-1.914-2.803-.604-2.309-2.363 2.173-1.496 3.095a.784.784 0 1 1-1.252-.942l1.526-3.03 2.148-2.041-.537-2.334-.84 1.237zm-.333-5.9a1.342 1.342 0 1 1 1.343 1.342 1.342 1.342 0 0 1-1.332-1.35l-.01.009z" fill="#FFF"/>
        </g>
    </g>
</svg>
