<svg width="350" height="420" viewBox="0 0 350 420" xmlns="http://www.w3.org/2000/svg">
    <g fill="none" fill-rule="evenodd">
        <path d="M306.821 326.447l-103.456-59.662L42.34 360.253l103.457 59.662 161.024-93.468" opacity=".15" fill="#000" fill-rule="nonzero"/>
        <ellipse fill="#2B90FF" fill-rule="nonzero" cx="314.064" cy="25.309" rx="25.339" ry="25.309"/>
        <path d="M314.064 26.123v-9.226a9.236 9.236 0 0 1 8.648 5.949 9.218 9.218 0 0 1-2.51 10.183l-6.138-6.906z" fill="#9ECCFF" fill-rule="nonzero"/>
        <ellipse stroke="#FFF" cx="314.064" cy="26.123" rx="13.587" ry="13.571"/>
        <path d="M313.87 27.082l6.198 6.19M313.894 12.891V7.854M310.054 7.854h7.668" stroke="#FFF"/>
        <ellipse fill="#FFF" fill-rule="nonzero" cx="313.894" cy="26.997" rx="1.75" ry="1.748"/>
        <path d="M330.847 256.31c10.719 6.226 12.603 15.306 4.193 20.186-8.41 4.88-24.05 3.787-34.757-2.428-10.707-6.215-12.602-15.307-4.193-20.186 8.41-4.88 24.038-3.824 34.757 2.427z" opacity=".15" fill="#000" fill-rule="nonzero"/>
        <path d="M327.286 271.908c-2.32 2.318-5.14 3.277-6.283 2.124-1.142-1.153-.206-3.957 2.115-6.288 2.321-2.33 5.14-3.265 6.283-2.124.693.692.644 2.512.644 3.204a21.506 21.506 0 0 1-2.759 3.084z" fill="#444549" fill-rule="nonzero"/>
        <ellipse fill="#FFCFAE" fill-rule="nonzero" transform="rotate(-43.67 325.979 268.172)" cx="325.979" cy="268.172" rx="3.804" ry="1.882"/>
        <path d="M306.493 260.012c-2.224 2.233-4.934 3.143-6.076 2.039-1.143-1.105-.195-3.8 2.03-6.07 2.223-2.27 4.933-3.143 6.076-2.039.668.668.62 2.428.62 3.083a20.643 20.643 0 0 1-2.65 2.987z" fill="#444549" fill-rule="nonzero"/>
        <ellipse fill="#FFCFAE" fill-rule="nonzero" transform="rotate(-43.68 305.228 256.407)" cx="305.228" cy="256.407" rx="3.646" ry="1.809"/>
        <path d="M330.057 228.427s5.894-32.993 8.811-54.151l-45.354-8.582c-.219 10.281-.571 29.897.583 44.088 1.75 21.376 9.115 46.054 9.115 46.054.158.777 1.02 1.372 2.746 1.372 1.92 0 3.257-.644 3.257-1.554l-.777-34.316 3.755-29.133s1.81 21.752 3.16 33.369c1.348 11.617 8.239 41.478 8.239 41.478 0 1.214.887 2.21 2.965 2.21s3.488-.899 3.5-2.1v-38.735z" fill="#9B9B9B" fill-rule="nonzero"/>
        <path d="M292.153 160.013s.4 4.139.692 5.304c.183.74.292 1.214.426 1.797.194.752.243 1.117 0 1.299-.243.182-.68.23-1.106-1.287a6.637 6.637 0 0 0 1.41 2.792c.814.874 2.005 1.76 1.689 2.221-.316.462-1.215 0-1.215 0s-.11.753-1.216.158c0 0-.133.607-1.215-.158 0 0-.425.498-1.434-.497a16.983 16.983 0 0 1-4.679-12.14l6.648.51z" fill="#FFCFAE" fill-rule="nonzero"/>
        <path d="M283.33 135.383c-1.13 20.2 2.43 26.414 2.43 26.414l6.454.17 2.43-25.164" fill="#FFF" fill-rule="nonzero"/>
        <ellipse fill="#FFF" fill-rule="nonzero" cx="289.042" cy="135.723" rx="5.712" ry="5.705"/>
        <path d="M289.637 102.463c-3.913 8.29-5.675 21.595-6.32 33.15l11.351 1.215 10.853-27.92" fill="#FFF" fill-rule="nonzero"/>
        <ellipse fill="#FFF" fill-rule="nonzero" cx="297.342" cy="106.25" rx="8.58" ry="8.57"/>
        <rect fill="#FFF" fill-rule="nonzero" transform="rotate(-84.83 289.761 133.641)" x="285.963" y="125.454" width="7.595" height="16.375" rx="2"/>
        <path d="M342.988 115.573c1.677 11.762 1.045 55.996 1.045 55.996 0 9.444-2.43 16.873-15.337 18.681a21.802 21.802 0 0 1-7.291-.437c-10.027-2.136-22.18-9.359-26.919-13.644-7.948-7.174-7.62-13.947-7.62-19.859v-43.153s0-14.493 12.275-19.215c9.345-3.642 23.71-.304 31.232 3.933 0 .012 10.865 5.438 12.615 17.698z" fill="#FFF" fill-rule="nonzero"/>
        <path d="M342.052 111.676a6.894 6.894 0 0 0-5.055-2.427c-7.499 0-6.988 8.497-6.988 8.497v47.596c0 18.305-4.157 23.39-6.867 24.763 1.833.299 3.698.34 5.542.121 12.967-1.82 15.337-9.25 15.337-18.681 0 0 .632-44.222-1.045-55.996a22.435 22.435 0 0 0-.924-3.873z" fill="#000" fill-rule="nonzero" opacity=".1"/>
        <path d="M310.418 70.04c-3.16-.12-6.854.656-8.689 3.642-1.215 1.954-1.081 5.511-1.215 8.157-.195 4.77 1.713 9.772 4.679 12.37v1.214a3.557 3.557 0 0 0 2.066 2.816 10.949 10.949 0 0 0 9.928.085 3.533 3.533 0 0 0 2.03-2.768V83.077v-.449c.401-6.737-3.622-12.381-8.799-12.588z" fill="#FFCFAE" fill-rule="nonzero"/>
        <path d="M309.373 96.054a6.724 6.724 0 0 1-4.156-1.797v1.214a3.557 3.557 0 0 0 2.066 2.816 10.949 10.949 0 0 0 9.904.037 3.533 3.533 0 0 0 2.03-2.768V83.077c-.377 6.604-4.776 13.183-9.844 12.977z" fill="#3A2416" fill-rule="nonzero" opacity=".08"/>
        <path d="M323.653 73.318a13.27 13.27 0 0 0-6.66-8.752c-4.667-2.294-11.958-1.93-13.526-1.445-2.139.62-2.589 2.028-2.115 3.084 0 0-4.01 1.056-2.637 3.86-1.58 3.29-1.482 6.664 1.86 10.378.073-2.427.182-5.074 1.142-6.676a6.863 6.863 0 0 1 2.71-2.537 10.092 10.092 0 0 1 10.767 4.37l.669 7.21a1.725 1.725 0 0 1 3.415.498v5.183a13.813 13.813 0 0 0 2.43-3.641 19.22 19.22 0 0 0 1.945-11.532zM304.828 127.36l-.875 6.13 9.795 7.052-.85-7.38zM303.26 138.394l1.86 4.345 6.732 4.844 2.37-2.865-.267-2.38-10.208-7.355zM310.345 104.405l1.021-2.44-2.455-1.553-1.908.4.402 1.505zM305.922 119.724l-.875 6.13 7.644 5.511-.839-7.368zM307.003 112.101l-.875 6.13 5.518 3.97-.85-7.369zM306.153 145.13l2.65 6.155 2.199-2.658zM309.799 105.692l-1.86-1.335.11.412-.827 5.827 3.367 2.428-.827-7.235z" fill="#424242" fill-rule="nonzero"/>
        <path d="M303.99 94.682l.23 8.23 4.691-2.428 4.57 4.856 6.587-7.854s1.422-1.82.765-3.314a4.652 4.652 0 0 0-1.543-1.541s-2.163 4.151-10.184 6.506c0 0-3.464-2.525-3.877-4.855 0 0-.352-.316-.79-.79a2.183 2.183 0 0 0-.45 1.19z" fill="#DBDBDB" fill-rule="nonzero"/>
        <path d="M336.024 182.312s-.328 4.139-.595 5.316c-.17.753-.268 1.214-.401 1.809-.183.753-.219 1.129 0 1.299.219.17.68.23 1.081-1.311a6.637 6.637 0 0 1-1.349 2.816c-.802.886-1.968 1.797-1.652 2.258.316.461 1.215 0 1.215 0s.121.752 1.215.133c0 0 .146.607 1.215-.182 0 0 .438.498 1.422-.534a16.983 16.983 0 0 0 4.46-12.224l-6.61.62z" fill="#FFCFAE" fill-rule="nonzero"/>
        <path d="M334.36 153.47l1.142 33.564 6.574-.207s5.02-13.207 6.26-34.28" fill="#FFF" fill-rule="nonzero"/>
        <ellipse fill="#FFF" fill-rule="nonzero" transform="rotate(-1.03 341.315 152.56)" cx="341.315" cy="152.561" rx="7.012" ry="7.004"/>
        <path d="M323.701 118.195l10.938 36.525 13.696-2.282s.219-3.387.219-7.028c0-15.32-2.176-26.839-6.32-35.008" fill="#FFF" fill-rule="nonzero"/>
        <ellipse fill="#FFF" fill-rule="nonzero" transform="rotate(-.22 333.206 114.865)" cx="333.206" cy="114.865" rx="10.063" ry="10.051"/>
        <rect fill="#FFF" fill-rule="nonzero" transform="rotate(-7.04 341.338 152.593)" x="333.141" y="148.794" width="16.394" height="7.599" rx="2"/>
        <path d="M16.917 278.62c-10.379 6.07-12.214 14.834-4.072 19.568 8.143 4.734 23.31 3.641 33.688-2.367 10.378-6.009 12.214-14.834 4.071-19.568-8.142-4.734-23.309-3.654-33.687 2.367z" fill="#D8D8D8" fill-rule="nonzero"/>
        <path d="M57.118 129.545c3.792 8.035 5.505 20.927 6.076 32.119l-10.998 1.213-10.524-27.081" fill="#FFF" fill-rule="nonzero"/>
        <path d="M54.688 185.31s-.39 4.006-.669 5.147c-.17.728-.28 1.214-.413 1.748-.182.728-.231 1.092 0 1.213.23.122.656.231 1.07-1.213a6.43 6.43 0 0 1-1.362 2.707c-.79.85-1.944 1.711-1.64 2.16.303.45 1.154 0 1.154 0s.097.729 1.142.158c0 0 .122.583 1.216-.158 0 0 .413.486 1.397-.485a16.462 16.462 0 0 0 4.533-11.763l-6.428.486z" fill="#FFDFCA" fill-rule="nonzero"/>
        <path d="M63.194 161.445c1.094 19.58-1.956 25.589-1.956 25.589l-6.648.182-2.43-24.387" fill="#FFF" fill-rule="nonzero"/>
        <ellipse fill="#FFF" fill-rule="nonzero" cx="57.665" cy="161.761" rx="5.53" ry="5.523"/>
        <ellipse fill="#FFF" fill-rule="nonzero" cx="49.62" cy="133.21" rx="8.325" ry="8.315"/>
        <path d="M18.484 293.757c2.249 2.246 4.983 3.168 6.077 2.052 1.094-1.117.194-3.836-2.054-6.07-2.248-2.233-4.983-3.168-6.076-2.063-.669.667-.62 2.427-.62 3.107a20.85 20.85 0 0 0 2.673 2.974z" fill="#081B2F" fill-rule="nonzero"/>
        <ellipse fill="#FFCFAE" fill-rule="nonzero" transform="rotate(-46.33 19.783 290.073)" cx="19.783" cy="290.073" rx="1.823" ry="3.678"/>
        <path d="M38.646 282.225c2.163 2.161 4.776 3.047 5.857 1.979 1.082-1.068.183-3.642-1.968-5.85-2.151-2.21-4.776-3.048-5.858-1.98-.644.644-.595 2.331-.608 2.987a20.037 20.037 0 0 0 2.577 2.864z" fill="#081B2F" fill-rule="nonzero"/>
        <ellipse fill="#FFCFAE" fill-rule="nonzero" transform="rotate(-46.32 39.883 278.693)" cx="39.883" cy="278.693" rx="1.75" ry="3.532"/>
        <path d="M16.48 251.612s-5.713-31.974-8.508-52.476l43.945-8.315c.206 9.966.559 28.975-.572 42.728-1.689 20.72-9.236 44.72-9.236 44.72-.158.752-.583 1.213-2.26 1.213a2.66 2.66 0 0 1-2.783-2.343l.377-32.41-3.646-28.283s-1.774 21.085-3.075 32.398c-1.3 11.313-8.847 40.835-8.847 40.835 0 1.213 0 1.456-1.957 1.456a2.81 2.81 0 0 1-3.062-2.549l-.377-36.974z" fill="#FFCFAE" fill-rule="nonzero"/>
        <path d="M26.93 240.492c-2.057.534-4.199.666-6.307.389-6.49-.923-13.331-7.939-13.331-7.939v-8.254V182.7c.218-2.282.498-4.443.875-6.482 1.215-6.07 3.646-9.772 8.689-13.838a17.137 17.137 0 0 1 2.236-1.469c6.502-3.642 18.958-6.519 27.04-3.411 10.634 4.09 10.634 16.654 10.634 16.63v47.73a108.39 108.39 0 0 1-13.016 9.929 99.585 99.585 0 0 1-16.82 8.703z" fill="#2B90FF" fill-rule="nonzero"/>
        <path d="M5.396 142.242c-1.629 11.398-1.009 54.26-1.009 54.26 0 9.152 2.31 16.35 14.863 18.11 2.36.257 4.748.114 7.06-.424 9.723-2.076 21.499-9.08 26.093-13.22 7.705-6.955 7.389-13.522 7.389-19.24v-41.83s0-14.044-11.898-18.62c-9.005-3.532-22.993-.28-30.272 3.824 0 0-10.537 5.256-12.226 17.14z" fill="#FFF" fill-rule="nonzero"/>
        <path d="M6.295 138.382a6.687 6.687 0 0 1 4.861-2.27c7.292 0 6.77 8.217 6.77 8.217v46.128c0 17.746 4.022 22.663 6.647 23.998a19.211 19.211 0 0 1-5.372.121c-12.517-1.723-14.826-8.934-14.826-18.074 0 0-.62-42.862 1.009-54.26.185-1.312.49-2.604.911-3.86z" fill="#D8D8D8" fill-rule="nonzero"/>
        <path d="M12.153 206.917s.316 4.018.571 5.159c.158.728.255 1.214.389 1.748.17.728.219 1.092 0 1.214-.219.121-.656.218-1.057-1.214a6.43 6.43 0 0 0 1.312 2.719c.778.862 1.908 1.748 1.592 2.185-.316.437-1.154 0-1.154 0s-.11.728-1.155.133c0 0-.134.583-1.215-.182 0 0-.426.474-1.386-.51a16.461 16.461 0 0 1-4.314-11.81l6.417.558z" fill="#FFDFCA" fill-rule="nonzero"/>
        <path d="M13.757 178.961l-1.106 32.52-6.38-.194S1.41 198.492.194 178.063" fill="#FFF" fill-rule="nonzero"/>
        <ellipse fill="#FFF" fill-rule="nonzero" transform="rotate(-88.97 7.012 178.097)" cx="7.012" cy="178.097" rx="6.806" ry="6.798"/>
        <path d="M24.087 144.779L13.49 180.175l-13.271-2.21S0 174.689 0 171.157c0-14.846 2.115-26.013 6.076-33.928" fill="#FFF" fill-rule="nonzero"/>
        <ellipse fill="#FFF" fill-rule="nonzero" transform="rotate(-89.78 14.87 141.56)" cx="14.87" cy="141.559" rx="9.759" ry="9.747"/>
        <path d="M43.75 154.793a.474.474 0 0 1-.413-.243l-7.292-13.219a72.413 72.413 0 0 0-5.371-8.108c-3.063-4.164-5.275-7.162-3.537-10.549a8.715 8.715 0 0 1 8.082-4.746 13.742 13.742 0 0 1 8.507 3.168c6.076 4.855 3.852 14.736 3.755 15.161l-3.208 18.208a.474.474 0 0 1-.39.377l-.133-.049zm-8.58-35.93a7.804 7.804 0 0 0-7.292 4.224c-1.47 2.877.499 5.535 3.464 9.565a73.179 73.179 0 0 1 5.493 8.157l6.684 12.066 2.978-16.873c0-.121 2.223-9.71-3.428-14.238a12.806 12.806 0 0 0-7.899-2.914v.012z" fill="#2B90FF" fill-rule="nonzero"/>
        <g fill-rule="nonzero">
            <path fill="#9ECCFF" d="M42.51 158.92v3.642l2.346-1.36v-3.641z"/>
            <path d="M43.944 157.05l2.237-1.31v9.359l-5.092 2.937v-9.359l2.284-1.31.571-.316zm.912.523l-2.321 1.347v3.642l2.345-1.348v-3.641h-.024zm-3.306 7.113l4.302-2.428v-.376l-4.302 2.428v.376zm0 1.02l4.302-2.428v-.364l-4.302 2.428v.364zm0 1.02l4.302-2.428v-.425L41.55 166.3v.424z" fill="#2B90FF"/>
            <path fill="#9ECCFF" d="M41.526 164.31v.364l4.314-2.476-.012-.377z"/>
            <path fill="#2B90FF" d="M43.41 155.958v1.396l.534-.303v-1.408z"/>
            <path fill="#D3D3D3" d="M42.51 153.628l.401 2.61.499-.28.534-.315.487-.28.388-3.058z"/>
        </g>
        <path fill="#9ECCFF" fill-rule="nonzero" d="M41.526 166.361l.012.364 4.302-2.476v-.376zM41.526 165.33v.376l4.314-2.489v-.364z"/>
        <path d="M28.583 99.003s-7.291-7.513-10.11 2.428a13.46 13.46 0 0 0-.074 8.303c1.495 3.994 4.071 6.349.705 9.165 0 0 9.176-2.355 10.111-14.494-.048-.012.547-4.309-.632-5.402z" fill="#08253F" fill-rule="nonzero"/>
        <path d="M47.286 106.76c.205 1.904.06 3.829-.425 5.681-.984 3.642 1.568 3.326 1.568 3.326s-3.294.316-2.43-2.5a4.85 4.85 0 0 0-.159-3.642s.34-2.804 1.446-2.865z" fill="#10355D" fill-rule="nonzero"/>
        <path d="M36.957 98.105c3.062-.121 6.647.631 8.421 3.581 1.143 1.894 1.058 5.341 1.216 7.902.182 4.625-1.665 9.469-4.533 11.994v1.213a3.448 3.448 0 0 1-2.005 2.732 10.62 10.62 0 0 1-9.625 0 3.423 3.423 0 0 1-1.97-2.683v-12.139-.437c-.388-6.494 3.477-11.944 8.496-12.163z" fill="#FFCFAE" fill-rule="nonzero"/>
        <path d="M37.965 123.33a6.518 6.518 0 0 0 4.023-1.748v1.213a3.448 3.448 0 0 1-2.005 2.732 10.62 10.62 0 0 1-9.625 0 3.423 3.423 0 0 1-1.97-2.683v-12.139c.402 6.446 4.668 12.819 9.577 12.624z" fill="#EAB896" fill-rule="nonzero"/>
        <path d="M31.075 110.462c-.17-.813-.328-1.408-1.216-1.347a1.676 1.676 0 0 0-1.53 1.639 12.006 12.006 0 0 0 1.093 4.916l-1.094 3.945c-10.038-12.794-1.932-24.144-1.932-24.144a7.04 7.04 0 0 1 6.623-2.428c4.06-1.53 10.743-1.893 13.757 3.921 0 0 2.832 3.642 1.02 9.869l-1.287 4.285V109.6c0-1.044 0-2.246-.134-3.424-10.597 0-12.797-3.641-12.797-3.641s.231 3.933-.705 5.693a11.338 11.338 0 0 1-.583 4.2s-1.057 2.816.23 3.8a2.427 2.427 0 0 1-1.287-3.169c.05-.869-.004-1.74-.158-2.598z" fill="#10355D" fill-rule="nonzero"/>
        <g fill-rule="nonzero">
            <path d="M113.167 146.806l-.22 77.76a1.809 1.809 0 0 1-1.056 1.481 5.693 5.693 0 0 1-5.165 0 1.845 1.845 0 0 1-1.094-1.517l.219-77.821c.062.666.48 1.247 1.093 1.517a5.693 5.693 0 0 0 5.165 0 1.809 1.809 0 0 0 1.058-1.42z" fill="#D6D6D6"/>
            <path d="M112.097 145.3a1.578 1.578 0 0 1 0 2.975 5.693 5.693 0 0 1-5.165 0 1.59 1.59 0 0 1 0-2.999 5.693 5.693 0 0 1 5.165.025z" fill="#EAEAEA"/>
        </g>
        <g fill-rule="nonzero">
            <path d="M111.368 93.468a1.044 1.044 0 0 1 0 1.967 3.796 3.796 0 0 1-3.427 0 1.056 1.056 0 0 1 0-1.991 3.796 3.796 0 0 1 3.427.024z" fill="#4C4C4C"/>
            <path d="M112.073 94.451l-.146 51.881c-.04.427-.304.801-.693.984a3.796 3.796 0 0 1-3.427 0 1.214 1.214 0 0 1-.717-1.008l.146-51.88c.037.44.312.827.717 1.007a3.796 3.796 0 0 0 3.427 0c.389-.183.652-.557.693-.984z" fill="#595959"/>
        </g>
        <g fill-rule="nonzero">
            <path d="M154.741 123.196l-.218 77.821a1.809 1.809 0 0 1-1.058 1.481 5.693 5.693 0 0 1-5.165 0 1.845 1.845 0 0 1-1.093-1.517l.218-77.821c.062.666.48 1.247 1.094 1.517a5.693 5.693 0 0 0 5.165 0 1.809 1.809 0 0 0 1.057-1.481z" fill="#D6D6D6"/>
            <path d="M153.672 121.69a1.578 1.578 0 0 1 0 2.975 5.693 5.693 0 0 1-5.165 0 1.59 1.59 0 0 1 0-2.999 5.693 5.693 0 0 1 5.165.025z" fill="#EAEAEA"/>
        </g>
        <g fill-rule="nonzero">
            <path d="M152.943 69.846a1.044 1.044 0 0 1 0 1.967 3.796 3.796 0 0 1-3.427 0 1.056 1.056 0 0 1 0-1.991 3.796 3.796 0 0 1 3.427.024z" fill="#4C4C4C"/>
            <path d="M153.648 70.842l-.146 51.88c-.041.428-.304.801-.693.984a3.796 3.796 0 0 1-3.427 0 1.214 1.214 0 0 1-.717-1.008l.146-51.88c.037.44.312.827.717 1.007a3.796 3.796 0 0 0 3.427 0c.388-.183.652-.556.693-.983z" fill="#595959"/>
        </g>
        <g opacity=".05" fill-rule="nonzero">
            <path fill="#FFF" d="M44.722 272.38l38.294 22.215-1.592.922-38.294-22.226z"/>
            <path fill="#000" opacity=".1" d="M44.722 272.38l38.294 22.215-1.592.922-38.294-22.226z"/>
            <path fill="#FFF" d="M58.917 264.139l38.293 22.226-1.58.91-38.293-22.214z"/>
            <path fill="#000" opacity=".1" d="M58.917 264.139l38.293 22.226-1.58.91-38.293-22.214z"/>
            <path fill="#FFF" d="M73.087 255.933l38.293 22.214-1.592.922-38.281-22.214z"/>
            <path fill="#000" opacity=".1" d="M73.087 255.933l38.293 22.214-1.592.922-38.281-22.214z"/>
            <path fill="#FFF" d="M87.27 247.703l38.292 22.214-1.58.922-38.293-22.214z"/>
            <path fill="#000" opacity=".1" d="M87.27 247.703l38.292 22.214-1.58.922-38.293-22.214z"/>
            <path fill="#FFF" d="M101.451 239.485l38.282 22.214-1.58.922-38.294-22.226z"/>
            <path fill="#000" opacity=".1" d="M101.451 239.485l38.282 22.214-1.58.922-38.294-22.226z"/>
        </g>
        <path fill="#EAEAEA" fill-rule="nonzero" d="M40.906 249.985v29.279l85.07 49.356 170.139-98.725v-29.278l-85.07-49.356"/>
        <path fill="#000" fill-rule="nonzero" opacity=".1" d="M125.976 307.583l-85.07-49.368v-8.17l85.07 49.369z"/>
        <path fill="#000" fill-rule="nonzero" opacity=".1" d="M125.976 307.583l170.139-98.724v-8.242l-170.14 98.736z"/>
        <path fill="#161616" fill-rule="nonzero" opacity=".1" d="M125.976 307.583l170.139-98.724v1.639l-170.14 98.736z"/>
        <path fill="#161616" fill-rule="nonzero" opacity=".2" d="M125.976 307.583l-85.07-49.368v1.65l85.07 49.37z"/>
        <path fill="#333" fill-rule="nonzero" d="M88.57 260.594l-7.28 4.2 7.28 4.237 7.267-4.237z"/>
        <path d="M89.517 265.353a.583.583 0 0 0 0-1.093c-.596-.3-1.3-.3-1.895 0a.583.583 0 0 0 0 1.093 2.08 2.08 0 0 0 1.895 0z" fill="#FFB522" fill-rule="nonzero"/>
        <path fill="#333" fill-rule="nonzero" d="M80.549 255.92l-7.292 4.213 7.292 4.224 7.267-4.224z"/>
        <path d="M81.484 260.68a.583.583 0 0 0 0-1.093c-.596-.301-1.3-.301-1.895 0a.583.583 0 0 0 0 1.092 2.08 2.08 0 0 0 1.895 0z" fill="#FFB522" fill-rule="nonzero"/>
        <path fill="#333" fill-rule="nonzero" d="M72.528 251.26l-7.292 4.212 7.292 4.224 7.267-4.224z"/>
        <path d="M73.464 256.018a.583.583 0 0 0 0-1.093c-.597-.3-1.3-.3-1.896 0a.583.583 0 0 0 0 1.093 2.08 2.08 0 0 0 1.896 0z" fill="#FFB522" fill-rule="nonzero" opacity=".3"/>
        <path fill="#333" fill-rule="nonzero" d="M64.507 246.598l-7.292 4.2 7.292 4.237 7.255-4.237z"/>
        <path d="M65.443 251.357a.583.583 0 0 0 0-1.093c-.596-.3-1.3-.3-1.896 0a.583.583 0 0 0 0 1.093 2.08 2.08 0 0 0 1.896 0z" fill="#FFB522" fill-rule="nonzero" opacity=".3"/>
        <path d="M57.422 246.695a.583.583 0 0 0 0-1.092c-.596-.3-1.3-.3-1.896 0a.583.583 0 0 0 0 1.092 2.08 2.08 0 0 0 1.896 0z" fill="#FFB522" fill-rule="nonzero"/>
        <path fill="#000" fill-rule="nonzero" opacity=".2" d="M296.115 200.629v29.266l-170.14 98.725v-29.267z"/>
        <ellipse fill="#2B90FF" fill-rule="nonzero" cx="33.481" cy="60.05" rx="21.997" ry="21.971"/>
        <rect fill="#FFF" fill-rule="nonzero" x="23.613" y="56.579" width="5.76" height="10.937" rx="1.11"/>
        <path d="M42.34 56.433a2.165 2.165 0 0 0-1.142-.328h-3.962c.309-1.472.419-2.978.328-4.479a3.203 3.203 0 0 0-.923-1.857c-.11-.107-.233-.2-.365-.28a1.423 1.423 0 0 0-.741-.218c-.799 0-1.446.647-1.446 1.445.01.65-.063 1.298-.22 1.93a18.454 18.454 0 0 1-2.017 4.09c-.327.393-.743.701-1.215.899v8.594a2.699 2.699 0 0 1 1.458.862c.517.586 1.26.922 2.042.922h5.894c1.853 0 3.354-1.5 3.354-3.35v-6.397a2.16 2.16 0 0 0-1.045-1.833z" fill="#FFF" fill-rule="nonzero"/>
    </g>
</svg>
