<svg xmlns="http://www.w3.org/2000/svg" xmlns:xlink="http://www.w3.org/1999/xlink" viewBox="0 0 1082.24 958.13">
    <defs>
        <style>
            .cls-1{fill:none}.cls-2{isolation:isolate}.cls-3{clip-path:url(#clip-path)}.cls-4{fill:#2b90ff}.cls-5{opacity:.15}.cls-6{fill:#fff}.cls-7{fill:#ffcfae}.cls-8{fill:#444549}.cls-9{fill:#9b9b9b}.cls-10{opacity:.1}.cls-11{fill:#dbdbdb}.cls-12{fill:#424242}.cls-13{clip-path:url(#clip-path-2)}.cls-14,.cls-45{fill:#d8d8d8}.cls-15{fill:#3a2416;opacity:.04}.cls-16{fill:#10355d}.cls-17{fill:#d3d3d3}.cls-18{fill:#cccecc}.cls-19{fill:#494f49}.cls-20{fill:#b6b9b6}.cls-21{fill:#d9dbd9}.cls-22{fill:#bdbdbd}.cls-23{fill:#868686}.cls-24{fill:#737373}.cls-25{fill:#898989}.cls-26{fill:#e8e8e8}.cls-27{fill:#ddd}.cls-28,.cls-30{fill:#c4c6c4}.cls-28{mix-blend-mode:multiply}.cls-29{fill:#777c77}.cls-31{fill:url(#_ÂÁ_Ï_ÌÌ_È_ËÂÌÚ_62)}.cls-32{fill:url(#_ÂÁ_Ï_ÌÌ_È_ËÂÌÚ_62-2)}.cls-33{fill:url(#_ÂÁ_Ï_ÌÌ_È_ËÂÌÚ_2)}.cls-34{fill:#888}.cls-35{fill:#3d3d3d}.cls-36,.cls-56{fill:#9eccff}.cls-37{fill:#d8eaff}.cls-38{fill:#8e928e}.cls-39{fill:#dedfde}.cls-40{fill:url(#_ÂÁ_Ï_ÌÌ_È_ËÂÌÚ_62-3)}.cls-41{fill:#e5eaed}.cls-42{fill:url(#_ÂÁ_Ï_ÌÌ_È_ËÂÌÚ_62-4)}.cls-43{fill:#f5f5f5}.cls-44{opacity:.08}.cls-45,.cls-46,.cls-47,.cls-48,.cls-49,.cls-50,.cls-51,.cls-52,.cls-53,.cls-54,.cls-55,.cls-56,.cls-57,.cls-58,.cls-59{fill-rule:evenodd}.cls-46{fill:#66ade2}.cls-47{fill:#b0aaad}.cls-48{fill:#b3adb0}.cls-49{fill:#a69fa3}.cls-50{fill:#bdb6b9}.cls-51{fill:#cfc9cb}.cls-52{fill:#4d4948}.cls-53{fill:#4e8aaf}.cls-54{fill:#3a7593}.cls-55{fill:#a9d6ff}.cls-57{fill:#93bee5}.cls-58{fill:#254d66}.cls-59{fill:#396a8e}
        </style>
        <clipPath id="clip-path">
            <path class="cls-1" d="M609.71 181.99L776.62 85l357.72 206.53-166.91 96.99-357.72-206.53z"/>
        </clipPath>
        <clipPath id="clip-path-2">
            <path class="cls-1" d="M392.9 735.78l236.55-137.46 33.12 19.12-236.55 137.47-33.12-19.13z"/>
        </clipPath>
        <linearGradient id="_ÂÁ_Ï_ÌÌ_È_ËÂÌÚ_62" x1="-13374.33" y1="-2628.54" x2="-13389.28" y2="-2636.02" gradientTransform="matrix(-.97 -.25 -.25 .97 -13047.54 -300.49)" gradientUnits="userSpaceOnUse">
            <stop offset=".16" stop-color="#9c9c9c"/>
            <stop offset=".16" stop-color="#bfbfbf"/>
            <stop offset=".56" stop-color="#bfbfbf"/>
            <stop offset=".56" stop-color="#ccc"/>
            <stop offset=".87" stop-color="#ccc"/>
            <stop offset=".87" stop-color="#bdbdbd"/>
        </linearGradient>
        <linearGradient id="_ÂÁ_Ï_ÌÌ_È_ËÂÌÚ_62-2" x1="-10098.68" y1="15887.74" x2="-10113.61" y2="15880.27" gradientTransform="scale(-1 1) rotate(72 5334.28 14695.212)" xlink:href="#_ÂÁ_Ï_ÌÌ_È_ËÂÌÚ_62"/>
        <linearGradient id="_ÂÁ_Ï_ÌÌ_È_ËÂÌÚ_2" x1="8573.85" y1="-4501.92" x2="8592.37" y2="-4501.92" gradientTransform="matrix(.5 -.87 -.87 -.5 -7564.29 5643.05)" gradientUnits="userSpaceOnUse">
            <stop offset=".16" stop-color="#b8b8b8"/>
            <stop offset=".16" stop-color="#dbdbdb"/>
            <stop offset=".56" stop-color="#dbdbdb"/>
            <stop offset=".56" stop-color="#e8e8e8"/>
            <stop offset=".87" stop-color="#e8e8e8"/>
            <stop offset=".87" stop-color="#d9d9d9"/>
        </linearGradient>
        <linearGradient id="_ÂÁ_Ï_ÌÌ_È_ËÂÌÚ_62-3" x1="-15032.66" y1="203.35" x2="-15017.43" y2="203.35" gradientTransform="matrix(-1 0 0 1 -14306.67 0)" xlink:href="#_ÂÁ_Ï_ÌÌ_È_ËÂÌÚ_62"/>
        <linearGradient id="_ÂÁ_Ï_ÌÌ_È_ËÂÌÚ_62-4" x1="-15026.9" y1="144.39" x2="-15023.19" y2="144.39" gradientTransform="matrix(-1 0 0 1 -14306.67 0)" xlink:href="#_ÂÁ_Ï_ÌÌ_È_ËÂÌÚ_62"/>
    </defs>
    <title>
        Optimise Staff Rosters
    </title>
    <g class="cls-2">
        <g id="Layer_2" data-name="Layer 2">
            <g id="Layer_1-2" data-name="Layer 1">
                <g class="cls-2 cls-3">
                    <path class="cls-4" d="M1055 261.9L787.57 107.48l-4.93 2.87 267.47 154.42c16.68 9.63 25.05 22.24 25.13 34.86s-8.16 25.23-24.74 34.86l-85.57 49.73c-1.36.79-1.36 2.08 0 2.87a5.45 5.45 0 0 0 5 0l85.57-49.73c17.92-10.41 26.85-24.08 26.77-37.73s-9.16-27.32-27.2-37.73M798.64 97.71a5.48 5.48 0 0 0-2.24-.65l-33.07-3c-2.71-.25-5 1.11-4.61 2.68L764 115.9a2.26 2.26 0 0 0 1.13 1.29 6.31 6.31 0 0 0 5.74 0l11.8-6.86 4.93-2.87 11.06-6.46c1.69-1 1.46-2.46 0-3.32"/>
                </g>
                <path d="M908.33 384.71c22.07 12.83 26 31.57 8.65 41.63s-49.54 7.81-71.61-5-26-31.57-8.65-41.63 49.53-7.84 71.61 5z" class="cls-5"/>
                <path class="cls-6" d="M822.65 79.35c-8.06 17.1-11.7 44.54-13 68.36L833 150.2l22.36-57.64"/>
                <path class="cls-7" d="M827.82 198s.84 8.53 1.42 10.95c.37 1.54.6 2.59.89 3.71.4 1.55.5 2.31 0 2.69s-1.4.49-2.29-2.65a13.7 13.7 0 0 0 2.89 5.75c1.68 1.8 4.13 3.64 3.48 4.59s-2.45 0-2.45 0-.21 1.55-2.44.33c0 0-.26 1.25-2.52-.33 0 0-.89 1-3-1s-9.48-10.07-9.63-25z"/>
                <path class="cls-6" d="M809.66 147.25c-2.33 41.67 4.15 54.46 4.15 54.46l14.13.38L833 150.2"/>
                <circle class="cls-6" cx="821.43" cy="147.94" r="11.77"/>
                <circle class="cls-6" cx="838.52" cy="87.17" r="17.69"/>
                <path class="cls-8" d="M897.27 408.26c4.8-4.8 10.62-6.78 13-4.41s.4 8.19-4.4 13-10.62 6.78-13 4.42c-1.43-1.43-1.32-7.27-1.32-8.71.8-1.49 3.81-2.39 5.72-4.3z"/>
                <path class="cls-7" d="M897.36 407.74c3.13-3 6.87-4.15 8.35-2.6s.14 5.23-3 8.21"/>
                <path class="cls-8" d="M857.47 385c4.8-4.81 10.62-6.79 13-4.41s.4 8.19-4.4 13-10.62 6.78-13 4.42c-1.43-1.43-1.32-7.27-1.32-8.71.81-1.54 3.82-2.44 5.72-4.3z"/>
                <path class="cls-7" d="M857.56 384.43c3.13-3 6.87-4.15 8.35-2.6s.14 5.23-3 8.21"/>
                <path class="cls-9" d="M926.3 187.55l-98.77 3.37 19.34 122.48 4.45 75.29c.08 2.57 2.36 4.65 6.55 4.64s5.72-2.28 5.81-4.82 7.11-47.77 10.58-78.21a442.19 442.19 0 0 0 2.44-48.13l10.68 66.26 3.24 82.5v.26c0 2.55 2.48 4.65 7.1 4.64 4.41 0 6.13-2.14 6.28-4.55.56-2.79 12.63-63 15.6-88 3.09-25.61 10.54-127.71 6.7-135.73z"/>
                <path class="cls-6" d="M934.2 102.81c3.46 24.26 2.15 115.48 2.15 115.48 0 19.47-4.9 34.8-31.6 38.54a44.88 44.88 0 0 1-15-.91c-20.64-4.41-45.69-19.31-55.46-28.14-16.37-14.8-15.7-28.77-15.7-41v-89c0 .06 0-29.89 25.3-39.62 19.24-7.41 48.86-.62 64.34 8.12-.03.05 22.36 11.25 25.97 36.53z"/>
                <path class="cls-10" d="M932.27 94.66a14.21 14.21 0 0 0-10.42-4.82c-15.44 0-14.39 17.49-14.39 17.49v98.17c0 37.76-8.56 48.24-14.14 51.06a40.81 40.81 0 0 0 11.42.26c26.7-3.74 31.6-19.08 31.6-38.54 0 0 1.31-91.21-2.15-115.48a46.23 46.23 0 0 0-1.92-8.14z"/>
                <path class="cls-7" d="M868 54.06v4.44c.07 2 1.42 4 4.08 5.55 5.42 3.13 14.18 3.13 19.57 0 2.6-1.51 3.93-1.67 4-3.65v-1.9c5-4.78 7.05-12.53 8.32-21.08 3.94-26.63-8.82-26.56-20-26.68-6.83-.07-14.78 1.85-18.53 8.55 0 0-1.4 12.69 1.85 23.69z"/>
                <path class="cls-11" d="M881.79 63c6 .52 11.54-.8 14.56-2.49 0 0 5.75 2.47 7.16 3.13 0 0-18.64 7.69-31.38 1.6-11.19-5.35-5.68-10.1-5.68-10.1l1.6-.63v2.78s1.86 4.65 13.74 5.71z"/>
                <path class="cls-12" d="M868.38 55.22s3 5.29 19.62 2.6c0 0 6.57-7.17 8.81-12.55 0 0-1.79-10.61.45-11.35 0 0 2.24-1.64 2.24 4.18 0 0 0 5.53-.3 6.28l1.34.75s.3-10 .9-11.36c0 0 1.56-4.58 3.35-5.18 0 0 1.73-8 1.43-12.6s-3.1-11.89-9.71-14c-6.31-2.05-23.27-4.66-31.64 4.9s-.87 44 3.51 48.33z"/>
                <path class="cls-6" d="M892 103.89l15 77.61 28.25-5.23s-.17-5.91-.34-13.42c-.73-31.93 2.08-55-3.68-71.63-2.74-7.92-43.54-4.53-39.21 12.68"/>
                <path class="cls-7" d="M926 240.22s5.59 15.12 5.49 18.23c-.08 2.6-.68 4.15.86 4.92 2.06 1 2.88-.52 2.88-.52a2.32 2.32 0 0 0 3.54-1.08s2 1.34 3-1.91c0 0 2.18 1.8 2.76-4.36.69-7.29-5-18.57-5.05-18.7z"/>
                <path class="cls-7" d="M932.68 263.53a5 5 0 0 1-2.84-3.22c-.82-2.54.52-4.86 2.91-4.81 0 .01 4.61 8.81-.07 8.03z"/>
                <path class="cls-6" d="M935.18 175.93l6.44 67.87-13.68 6.45s-13.86-33.76-21.34-70.13"/>
                <circle class="cls-6" cx="920.79" cy="177.32" r="14.45" transform="rotate(-29.16 920.668 177.328)"/>
                <circle class="cls-6" cx="912.43" cy="100.21" r="20.86" transform="rotate(-.22 900.92 98.091)"/>
                <g class="cls-2 cls-13">
                    <path class="cls-4" d="M623.4 623.48l-5-2.87-209.31 121.66c-1.36.79-1.36 2.08 0 2.87a5.46 5.46 0 0 0 5 0L623.4 623.48"/>
                    <path class="cls-4" d="M646 607.88a6.07 6.07 0 0 0-3.49-.66l-33 3c-3.28.29-4.57 2.62-2.22 4l11.16 6.44 5 2.87 11.87 6.85c2.36 1.36 6.36.6 6.87-1.3l5-19.14a1.86 1.86 0 0 0-1.15-2"/>
                </g>
                <path class="cls-14" d="M129.14 558.3c-22.13 12.87-26 31.65-8.67 41.74s49.67 7.83 71.8-5 26-31.65 8.67-41.74-49.67-7.87-71.8 5z"/>
                <path class="cls-6" d="M213.42 240.2c8.08 17.14 11.73 44.66 13.06 68.54L203 311.23l-22.42-57.79"/>
                <path class="cls-7" d="M208.24 359.2s-.84 8.56-1.42 11c-.37 1.54-.6 2.6-.89 3.72-.4 1.55-.5 2.32 0 2.69s1.4.49 2.29-2.66a13.73 13.73 0 0 1-2.9 5.76c-1.68 1.81-4.14 3.65-3.49 4.61s2.46 0 2.46 0 .21 1.55 2.44.33c0 0 .27 1.25 2.53-.33 0 0 .89 1 3-1s9.51-10.1 9.65-25.1z"/>
                <path class="cls-6" d="M226.45 308.27c2.33 41.77-4.16 54.6-4.16 54.6l-14.17.38-5.09-52"/>
                <circle class="cls-6" cx="214.66" cy="308.96" r="11.8"/>
                <circle class="cls-6" cx="197.51" cy="248.04" r="17.73"/>
                <path class="cls-8" d="M135.66 590.56c4.79 4.8 10.61 6.77 13 4.39s.42-8.19-4.38-13-10.61-6.77-13-4.39c-1.44 1.43-1.33 5.19-1.33 6.63.8 1.49 3.81 4.46 5.71 6.37z"/>
                <path class="cls-7" d="M135.7 585.56c3.14 3 6.89 4.16 8.37 2.61s.14-5.24-3-8.23-6.89-4.16-8.37-2.6-.14 5.23 3 8.22z"/>
                <path class="cls-8" d="M178.61 566c4.6 4.61 10.19 6.5 12.48 4.21s.4-7.87-4.2-12.48-10.19-6.5-12.47-4.22c-1.38 1.38-1.28 5-1.28 6.37.76 1.4 3.64 4.26 5.47 6.12z"/>
                <path class="cls-7" d="M178.65 561.17c3 2.88 6.61 4 8 2.5s.14-5-2.88-7.91-6.61-4-8-2.5-.13 5.04 2.88 7.91z"/>
                <path class="cls-4" d="M129.94 500.65s-12.18-68.23-18.19-112l93.66-17.75c.44 21.27 1.19 61.82-1.21 91.16-3.6 44.2-18.83 95.23-18.83 95.23-.33 1.6-2.12 2.83-5.67 2.83-4 0-6.72-1.34-6.72-3.2l1.6-70.95-7.74-60.34s-3.75 45-6.54 69-17 85.8-17 85.8c0 2.51-1.84 4.56-6.12 4.56s-7.21-1.86-7.23-4.35z"/>
                <path class="cls-6" d="M103.24 267.3c-3.47 24.32-2.15 115.77-2.15 115.77 0 19.52 4.92 34.89 31.68 38.64a44.94 44.94 0 0 0 15.06-.91c20.7-4.43 45.81-19.36 55.6-28.22 16.41-14.84 15.74-28.85 15.74-41.06v-89.2c0 .06 0-30-25.36-39.73-19.29-7.42-49-.62-64.5 8.14 0 0-22.46 11.27-26.07 36.57z"/>
                <path class="cls-10" d="M105.18 259.13a14.24 14.24 0 0 1 10.44-4.83c15.48 0 14.43 17.54 14.43 17.54v98.42c0 37.86 8.58 48.36 14.18 51.19a41 41 0 0 1-11.45.26c-26.78-3.71-31.69-19.12-31.69-38.63 0 0-1.31-91.45 2.15-115.77a46.4 46.4 0 0 1 1.94-8.18z"/>
                <path class="cls-7" d="M120.32 402.7s.68 8.57 1.22 11c.34 1.55.55 2.61.82 3.74.37 1.56.46 2.33-.07 2.69s-1.41.47-2.24-2.7a13.74 13.74 0 0 0 2.8 5.82c1.65 1.84 4.07 3.72 3.4 4.66s-2.46 0-2.46 0-.24 1.55-2.45.29c0 0-.29 1.25-2.52-.38 0 0-.91 1-2.95-1.09s-9.32-10.27-9.2-25.27z"/>
                <path class="cls-6" d="M123.78 343.05l-2.35 69.39-13.59-.44s-10.37-27.3-12.93-70.89"/>
                <circle class="cls-6" cx="109.4" cy="341.2" r="14.49" transform="rotate(-88.97 109.396 341.195)"/>
                <path class="cls-6" d="M145.78 270.12l-22.58 75.53-28.28-4.72s-.45-7-.46-14.54c0-31.68 4.5-55.5 13.06-72.38"/>
                <circle class="cls-6" cx="126.16" cy="263.25" r="20.78" transform="rotate(-89.78 126.167 263.245)"/>
                <path class="cls-7" d="M170.51 173.15c6.52-.26 14.16 1.35 17.94 7.63 2.43 4 2.24 11.4 2.46 16.86.4 9.87-3.54 20.21-9.66 25.58v2.58c-.07 2.11-1.49 4.21-4.28 5.82-5.68 3.28-14.87 3.28-20.52 0-2.73-1.58-4.12-3.64-4.2-5.72v-25.78c0-.31 0-.62-.05-.92-.61-13.96 7.61-25.62 18.31-26.05z"/>
                <path class="cls-15" d="M172.67 226.95a13.89 13.89 0 0 0 8.58-3.73v2.58c-.07 2.11-1.49 4.21-4.28 5.82-5.68 3.28-14.87 3.28-20.52 0-2.73-1.58-4.12-3.64-4.2-5.72v-25.78c.87 13.66 9.95 27.25 20.42 26.83z"/>
                <path class="cls-16" d="M144.54 174.38c2.91-8.67 7.85-8.07 7.85-8.07s1.79-3.36 8.77-2.61 28.83 5.6 31.14 1.05a3.17 3.17 0 0 1 0 2.19s1.63-.18 3.11-2.49c3.27 6.83 2.51 20.18-4.59 29.69a45 45 0 0 0-1.18-10.56c-11.7 6.76-29 1-29 1l-1.38 14.9a3.57 3.57 0 1 0-6.91 1.75 37 37 0 0 0 1.43 7.23 27.63 27.63 0 0 1-6.56-9.05c-4.87-10.41-4.84-18.6-2.68-25.03z"/>
                <path class="cls-4" d="M173.62 235.95l-5.08 3.21 3.32 7.92-9.22 80.5 11.22 13.56 11.44-26.65-9.9-69.52 2.16-8.2-3.94-.82z"/>
                <path class="cls-11" d="M183.79 224.06l-.48 17-9.69-5.06-9.43 10.12-13.61-16.24s-2.93-3.75-1.57-6.85a9.61 9.61 0 0 1 3.2-3.19s4.47 8.58 21 13.45c0 0 7.16-5.22 8-10 0 0 .72-.65 1.64-1.64a4.52 4.52 0 0 1 .94 2.41z"/>
                <path class="cls-16" d="M153.12 272.35l-17.88 10.39v5.84l17.88-10.39v-5.84z"/>
                <path class="cls-17" d="M378.08 422.86l44.82 25.86v165.07l-44.82-25.87V422.86z"/>
                <path class="cls-18" d="M370.26 476.1l28.95 16.7v125.55l-28.95-16.71V476.1z"/>
                <path class="cls-19" d="M373.27 484.45l21.33 12.31v32.09l-21.33-12.31v-32.09z"/>
                <path class="cls-20" d="M414.96 474.18l-15.75 18.62v125.55l15.75-9.11V474.18z"/>
                <path class="cls-21" d="M386.02 457.47l-15.76 18.63 28.95 16.7 15.75-18.62-28.94-16.71z"/>
                <path class="cls-22" d="M419.27 302.23l61.29 35.37-57.66 111.12-44.82-25.86 41.19-120.63z"/>
                <path class="cls-23" d="M468.7 341.07l-44.49-25.68L388.9 418.8l30.38 17.53 49.42-95.26z"/>
                <path class="cls-24" d="M425.61 318.74l-34.59 101.28-2.12-1.22 35.31-103.41 44.49 25.68-1.01 1.95-42.08-24.28z"/>
                <path class="cls-25" d="M550.45 226.43l61.28 35.38 58.55 43.89-58.55 47.36-61.28-126.63z"/>
                <path class="cls-26" d="M480.54 337.63V594l131.19-75.87V261.81l-131.19 75.82z"/>
                <path class="cls-6" d="M550.45 226.43l-131.18 75.8 61.27 35.4 131.19-75.82-61.28-35.38z"/>
                <path class="cls-14" d="M570.6 258.67l-12.89-7.44a14.51 14.51 0 0 0-14.51 0l-82.8 47.85a3.63 3.63 0 0 0 0 6.29l12.88 7.44a14.51 14.51 0 0 0 14.52 0L570.6 265a3.63 3.63 0 0 0 0-6.33z"/>
                <path class="cls-27" d="M611.73 353.06v165.07l35.12-28.38 11.78-9.55 11.65-9.41V305.72l-58.55 47.34zM422.88 448.72v165.07L480.54 594V428.93l-57.66 19.79z"/>
                <path class="cls-28" d="M554 377.26l15.76-.22v52l42-5.54 34.85-4.55c2.23-.27 4.37 2.63 4.86 6.52s-.85 7.23-3 7.54l-36.68 4.78-21.38 2.81 21.32 12.4 46.9 27.22-11.78 9.55-35.12-20.39-33-19.14 15 75.51c.45 2.19-2.32 4.55-6.16 5.27s-7.32-.4-7.72-2.54l-13.31-66.75-12.54-6.22z"/>
                <path class="cls-27" d="M611.73 261.81v91.25l58.55-47.36-58.55-43.89zM480.54 337.63v91.3l-57.66 19.79 57.66-111.09z"/>
                <path class="cls-4" d="M381.32 502.13l3.74 2.16v14.37l-3.74-2.15v-14.38z"/>
                <path class="cls-4" d="M384.82 505.53l-1.36-10.76 7.63 16.24-2.04 3.38-4.23-8.86zM381.55 503.68l1.87-9.04-6.64 10.08 2.17 3.83 2.6-4.87z"/>
                <path class="cls-4" d="M384.82 505.53l-3.3-.75-1.17-4.58 3.07-5.56 2.61 8.4-1.21 2.49z"/>
                <path class="cls-20" d="M564.86 390.05l-20.03 11.56v64.28l20.03-11.56v-64.28z"/>
                <path class="cls-29" d="M559 444.8v-41.15a3.39 3.39 0 0 0-5.09-2.94 12 12 0 0 0-6 10.42v41.15a3.39 3.39 0 0 0 5.09 2.94 12 12 0 0 0 6-10.42z"/>
                <path class="cls-30" d="M533.92 388.72l10.91 12.89v64.28l-10.91 3.96v-81.13z"/>
                <path class="cls-21" d="M553.95 377.16l10.91 12.89-20.03 11.56-10.91-12.89 20.03-11.56z"/>
                <path class="cls-31" d="M555.93 421.87c4.81-1 9.16.45 9.71 3.16L588 533.15c.55 2.72-2.91 5.71-7.72 6.68s-9.16-.45-9.71-3.17L548.2 428.55c-.55-2.72 2.91-5.71 7.73-6.68z"/>
                <path class="cls-32" d="M552.66 421.41c-.65-4.87 1-9.11 3.79-9.48l96.93-13.38c2.75-.37 5.51 3.28 6.16 8.14s-1 9.11-3.79 9.48l-96.93 13.38c-2.75.37-5.5-3.28-6.16-8.14z"/>
                <path class="cls-33" d="M697.64 512.28l-148-84.56c-2.4-1.39-2.36-6 .1-10.21s6.39-6.57 8.79-5.19l148 84.56z"/>
                <ellipse class="cls-34" cx="702.08" cy="504.58" rx="8.89" ry="5.02" transform="rotate(-60 702.08 504.581)"/>
                <path class="cls-21" d="M417.83 401.1l-10.48 23.49 10.98 6.33 10.47-23.49-10.97-6.33z"/>
                <path class="cls-35" d="M424.79 337.63l-17.44 47.18 25.14 14.45 21.24-44.93-28.94-16.7z"/>
                <path class="cls-36" d="M402 399.65l1.3-2.86a1.56 1.56 0 0 1 2.2-.71l7.27 4.2a1.77 1.77 0 0 1 .73 2.26l-1.3 2.86a1.56 1.56 0 0 1-2.2.71l-7.27-4.2a1.77 1.77 0 0 1-.73-2.26z"/>
                <path class="cls-16" d="M398.49 407.82l1.3-2.86a1.56 1.56 0 0 1 2.2-.71l7.27 4.2a1.77 1.77 0 0 1 .73 2.26l-1.3 2.86a1.56 1.56 0 0 1-2.2.71l-7.27-4.2a1.77 1.77 0 0 1-.73-2.26z"/>
                <path class="cls-37" d="M395.17 415.89l1.3-2.86a1.56 1.56 0 0 1 2.2-.71l7.27 4.2a1.77 1.77 0 0 1 .73 2.26l-1.3 2.86a1.56 1.56 0 0 1-2.2.71l-7.27-4.2a1.77 1.77 0 0 1-.73-2.26z"/>
                <path class="cls-16" d="M681.58 203.83v77.56l53.96 31.21v-77.56l-53.96-31.21z"/>
                <path class="cls-38" d="M687.32 207.15v70.67l48.22 27.89v6.89l-53.95-31.21v-77.56l5.73 3.32zM763.73 218.65v97.31l-19.63 11.46V230.1l19.63-11.45z"/>
                <path class="cls-39" d="M692.66 177.56l-19.63 11.46 71.07 41.08 19.63-11.45-71.07-41.09z"/>
                <path class="cls-4" d="M707.38 247.22l8.53 4.93v32.83l-8.53-4.93v-32.83z"/>
                <path class="cls-4" d="M715.37 254.98l-3.11-24.58 17.43 37.1-4.66 7.7-9.66-20.22zM707.9 250.76l4.27-20.66-15.16 23.02 4.96 8.76 5.93-11.12z"/>
                <path class="cls-4" d="M715.37 254.98l-7.53-1.72-2.69-10.47 7.02-12.69 5.97 19.19-2.77 5.69z"/>
                <path class="cls-18" d="M735.54 235.04l8.56 4.94v77.56l-8.56-4.94v-77.56z"/>
                <path class="cls-18" d="M673.03 189.02v9.88l71.07 41.08v-9.88l-71.07-41.08zM673.03 276.46v9.88l71.07 41.08v-9.88l-71.07-41.08z"/>
                <path class="cls-18" d="M673.03 198.9l8.55 4.93v77.57l-8.55-4.94V198.9z"/>
                <path class="cls-39" d="M681.58 281.4l5.74-3.58 48.22 27.89v6.89l-53.96-31.2z"/>
                <path class="cls-40" d="M726 199.76v2.88c0 2.38-3.41 4.3-7.61 4.3s-7.61-1.92-7.61-4.3v-2.88z"/>
                <ellipse class="cls-41" cx="718.38" cy="199.76" rx="7.61" ry="4.3"/>
                <path class="cls-42" d="M720.23 87.91v111.91c0 .58-.83 1-1.86 1s-1.86-.47-1.86-1V87.91z"/>
                <ellipse class="cls-41" cx="718.38" cy="87.91" rx="1.86" ry="1.05"/>
                <path class="cls-17" d="M660.08 584.86l44.82 25.86v165.07l-44.82-25.87V584.86z"/>
                <path class="cls-18" d="M652.26 638.1l28.95 16.7v125.55l-28.95-16.71V638.1z"/>
                <path class="cls-19" d="M655.27 646.45l21.33 12.31v32.09l-21.33-12.31v-32.09z"/>
                <path class="cls-20" d="M696.96 636.18l-15.75 18.62v125.55l15.75-9.11V636.18z"/>
                <path class="cls-21" d="M668.02 619.47l-15.76 18.63 28.95 16.7 15.75-18.62-28.94-16.71z"/>
                <path class="cls-22" d="M701.27 464.23l61.29 35.37-57.66 111.12-44.82-25.86 41.19-120.63z"/>
                <path class="cls-23" d="M750.7 503.07l-44.49-25.68L670.9 580.8l30.38 17.53 49.42-95.26z"/>
                <path class="cls-24" d="M707.61 480.74l-34.59 101.28-2.12-1.22 35.31-103.41 44.49 25.68-1.01 1.95-42.08-24.28z"/>
                <path class="cls-25" d="M832.45 388.43l61.28 35.38 58.55 43.89-58.55 47.37-61.28-126.64z"/>
                <path class="cls-26" d="M762.53 499.63V756l131.2-75.87V423.81l-131.2 75.82z"/>
                <path class="cls-6" d="M832.45 388.43l-131.18 75.8 61.26 35.4 131.2-75.82-61.28-35.38z"/>
                <path class="cls-14" d="M852.6 420.67l-12.89-7.44a14.51 14.51 0 0 0-14.51 0l-82.8 47.85a3.63 3.63 0 0 0 0 6.29l12.88 7.44a14.51 14.51 0 0 0 14.52 0L852.6 427a3.63 3.63 0 0 0 0-6.33z"/>
                <path class="cls-27" d="M893.73 515.07v165.06l35.12-28.38 11.78-9.55 11.65-9.41V467.72l-58.55 47.35zM704.88 610.72v165.07L762.53 756V590.93l-57.65 19.79zM893.73 423.81v91.26l58.55-47.37-58.55-43.89z"/>
                <path class="cls-27" d="M762.53 499.63v91.3l-57.65 19.79 57.65-111.09z"/>
                <path class="cls-4" d="M663.32 664.13l3.73 2.16v14.37l-3.73-2.15v-14.38z"/>
                <path class="cls-4" d="M666.82 667.53l-1.36-10.76 7.63 16.24-2.04 3.38-4.23-8.86zM663.55 665.68l1.87-9.04-6.64 10.08 2.17 3.83 2.6-4.87z"/>
                <path class="cls-4" d="M666.82 667.53l-3.3-.75-1.17-4.58 3.07-5.56 2.61 8.4-1.21 2.49z"/>
                <path class="cls-21" d="M699.83 563.1l-10.48 23.49 10.98 6.33 10.47-23.49-10.97-6.33z"/>
                <path class="cls-35" d="M706.79 499.63l-17.44 47.18 25.14 14.45 21.24-44.93-28.94-16.7z"/>
                <path class="cls-36" d="M684 561.65l1.3-2.86a1.56 1.56 0 0 1 2.2-.71l7.27 4.2a1.77 1.77 0 0 1 .73 2.26l-1.3 2.86a1.56 1.56 0 0 1-2.2.71l-7.27-4.2a1.77 1.77 0 0 1-.73-2.26z"/>
                <path class="cls-16" d="M680.49 569.82l1.3-2.86a1.56 1.56 0 0 1 2.2-.71l7.27 4.2a1.77 1.77 0 0 1 .73 2.26l-1.3 2.86a1.56 1.56 0 0 1-2.2.71l-7.27-4.2a1.77 1.77 0 0 1-.73-2.26z"/>
                <path class="cls-37" d="M677.17 577.89l1.3-2.86a1.56 1.56 0 0 1 2.2-.71l7.27 4.2a1.77 1.77 0 0 1 .73 2.26l-1.3 2.86a1.56 1.56 0 0 1-2.2.71l-7.27-4.2a1.77 1.77 0 0 1-.73-2.26z"/>
                <path class="cls-14" d="M306.87 787.67c22.07 12.83 26 31.57 8.65 41.63s-49.54 7.81-71.61-5-26-31.57-8.65-41.63 49.54-7.83 71.61 5z"/>
                <path class="cls-43" d="M221.2 482.11c-8.06 17.1-11.7 44.54-13 68.36l23.36 2.53 22.36-57.64"/>
                <path class="cls-7" d="M226.37 600.8s.84 8.53 1.42 10.95c.37 1.54.6 2.59.89 3.71.4 1.55.5 2.31 0 2.69s-1.4.49-2.29-2.65a13.7 13.7 0 0 0 2.89 5.75c1.68 1.8 4.13 3.64 3.48 4.59s-2.45 0-2.45 0-.21 1.55-2.44.33c0 0-.26 1.25-2.52-.33 0 0-.89 1-3-1s-9.48-10.07-9.63-25z"/>
                <path class="cls-43" d="M208.2 550c-2.33 41.67 4.15 54.46 4.15 54.46l14.13.38 5.08-51.84"/>
                <circle class="cls-43" cx="219.97" cy="550.7" r="11.77"/>
                <circle class="cls-43" cx="237.07" cy="489.93" r="17.69"/>
                <path class="cls-8" d="M295.89 810.59c4.8-4.8 10.62-6.78 13-4.41s.4 8.19-4.4 13c-2 2-4.56 4.5-6.56 5.42a5.34 5.34 0 0 1-6.44-1c-1.43-1.43-1.32-7.27-1.32-8.71.83-1.5 3.83-2.39 5.72-4.3z"/>
                <path class="cls-7" d="M295.9 810.5c3.13-3 6.87-4.15 8.35-2.6s.14 5.23-3 8.21"/>
                <path class="cls-8" d="M256 787.71c4.8-4.8 10.62-6.78 13-4.41s.4 8.19-4.4 13c-2 2-4.56 4.5-6.56 5.42a5.34 5.34 0 0 1-6.43-1c-1.43-1.43-1.32-7.27-1.32-8.71.81-1.49 3.82-2.39 5.71-4.3z"/>
                <path class="cls-7" d="M256.11 787.19c3.13-3 6.87-4.15 8.35-2.6s.14 5.23-3 8.21a13 13 0 0 1-5.95 3.59"/>
                <path class="cls-7" d="M324.85 590.31l-98.77 3.37 19.34 122.48 5.33 75.29c.08 2.57 1.8 6.27 5.67 4.64 5.64-2.37 5.54-4.63 6-6.64 0 0 7-46 10.45-76.4a442.19 442.19 0 0 0 2.44-48.13L286 731.2l4.45 82.21v.26c0 2.55 1.41 6 5.9 4.92 5.51-1.37 6.13-3.81 6.28-6.22.56-2.79 12.63-61.35 15.6-86.35 3.01-25.59 10.45-127.69 6.62-135.71z"/>
                <path class="cls-9" d="M290.43 717.53a32.66 32.66 0 0 0 12.47.76c12.8-1.79 26.24-15.69 26.24-15.69v-16.32c0-17.31-.07-83.07-.07-83.07-.44-4.52-1-8.79-1.72-12.83-2.47-12.12-7.09-19.34-17.18-27.38a33.72 33.72 0 0 0-4.41-2.91c-12.86-7.25-37.45-12.89-53.43-6.74-21 8.08-21 33-21 32.9v94.41a214 214 0 0 0 25.76 19.66c13.48 8.68 30.15 16.37 33.34 17.21z"/>
                <path class="cls-6" d="M332.74 505.57c3.46 24.26 2.15 115.43 2.15 115.43 0 19.47-4.9 34.8-31.6 38.54a44.83 44.83 0 0 1-15-.91c-20.64-4.41-45.69-19.31-55.46-28.14-16.37-14.8-15.7-28.78-15.7-41v-89c0 .06 0-29.89 25.3-39.62 19.24-7.41 48.86-.62 64.34 8.12-.03.1 22.37 11.3 25.97 36.58z"/>
                <path class="cls-14" d="M330.81 497.42a14.21 14.21 0 0 0-10.42-4.82C305 492.61 306 510.1 306 510.1v98.17c0 37.76-8.56 48.24-14.14 51.06a40.8 40.8 0 0 0 11.42.26c26.7-3.74 31.6-19.07 31.6-38.54 0 0 1.31-91.21-2.15-115.48a46.21 46.21 0 0 0-1.92-8.15z"/>
                <path class="cls-6" d="M290.52 506.65l15 77.61 28.23-5.26s-.17-5.91-.34-13.42c-.73-31.93 2.08-55-3.68-71.63-2.74-7.92-43.54-4.53-39.21 12.68"/>
                <path class="cls-7" d="M324.5 643s5.59 15.12 5.49 18.23c-.08 2.6-.68 4.15.86 4.92 2.06 1 2.88-.52 2.88-.52a2.32 2.32 0 0 0 3.54-1.08s2 1.34 3-1.91c0 0 2.18 1.8 2.76-4.36.69-7.29-5-18.57-5.05-18.7z"/>
                <path class="cls-7" d="M331.23 666.29a5 5 0 0 1-2.84-3.22c-.82-2.54.52-4.86 2.91-4.81 0 .01 4.61 8.8-.07 8.03z"/>
                <path class="cls-6" d="M333.72 578.69l6.44 67.87-13.67 6.44s-13.86-33.76-21.34-70.13"/>
                <circle class="cls-6" cx="319.33" cy="580.08" r="14.45" transform="rotate(-29.16 319.262 580.015)"/>
                <circle class="cls-6" cx="310.98" cy="502.97" r="20.86" transform="rotate(-.22 306.358 498.02)"/>
                <path class="cls-7" d="M295.37 439.14c.15-14.62-8.82-26.56-20-26.68-6.83-.07-14.78 1.85-18.53 8.55-2.41 4.31-2 12-2.05 17.72a31.54 31.54 0 0 0 4.58 17.06V462c.06 2 1.42 4 4.08 5.55 5.42 3.13 14.18 3.13 19.57 0 2.6-1.51 3.93-3.47 4-5.46V460.19c4.98-4.75 8.26-12.4 8.35-21.05z"/>
                <path class="cls-44" d="M275.34 412.46c11.21.12 20.18 12.06 20 26.68-.09 8.88-3.53 16.71-8.73 21.46.03 0 4.13-37.45-11.27-48.14z"/>
                <path class="cls-12" d="M288.8 459.23c7.71 0 8.83-6.11 8.83-6.11-4.33 1.61-8.22-3.49-8.17-7.52.09-8 4.19-10.44 4.19-10.44s3 1.77 7-1c5.86-4 7.18-14.5-.87-24.12-11-13.18-22.82-22.36-31.73-14.35 0 0-6.54-4.14-14.07 5.17s-11.4 18.71-14.06 28.57c-2.86 10.61-2.86 26.61 12.48 25.61 4.33 10 17 5.56 17 5.56s2.38 3.37 9 3.44c8.06.13 10.4-4.81 10.4-4.81z"/>
                <path class="cls-45" d="M330.92 840.94l-62.54-35.62c-6.82-3.12-16.58-5.6-23.52-2-6.33 3.29-16.76 10-21.37 12.66-3.5 2-15.66 9.28-8.09 13.4 22.27 12.11 44.31 25.73 66.93 38 4.28 2.33 10.53 3.17 17.1 2.62a45.29 45.29 0 0 0 18.57-5.46l11-6.45c4.91-2.86 7.51-6.23 7.76-9.36s-1.66-5.88-5.84-7.79z"/>
                <path class="cls-46" d="M281.59 684.12a34 34 0 0 1 9.63 2.76l2.3 1q2.3 1 4.54 2.09c5.42 2.59 10.63 5.4 15.9 8.43l7.45 4.33c5 2.92 10.18 6.14 14.91 9.42 7.21 5 10.25 7.91 11.22 8.94a14.68 14.68 0 0 1 2.75 3.62 10.81 10.81 0 0 1 .32 7.39c-.11.42-.24.81-.38 1.22 0 0-.06.05-.15.05 1.92-5.19.58-9.54-3-9.7l-7.92-.36c-2.54-3.18-13.49-11.91-19.92-15.74-17.32-10.33-42.49-23.48-47.11-23.69 2.43-.39 6.87.05 9.46.24z"/>
                <path class="cls-47" d="M337.28 656.78a1.22 1.22 0 0 0-.88-.12 3.61 3.61 0 0 0-2 1.45 4.63 4.63 0 0 0-.77 1.57v.21a2.14 2.14 0 0 0 .1 1.31 1 1 0 0 0 .75.59 2 2 0 0 0 1.39-.36h.07a4.6 4.6 0 0 0 1.41-1.54 3.74 3.74 0 0 0 .55-2 1.3 1.3 0 0 0-.62-1.11z"/>
                <path class="cls-48" d="M325.28 649.49l10.8 7.08-.6.33-1.5-.19-9.41-6.03-1.39-1.05 1.18-.27.92.13z"/>
                <path class="cls-49" d="M315.68 656l-14.18 39.2-2-.14 14.07-39c1-2.78 3.12-4.58 5.34-4.73h2.07c-2.23.22-4.29 1.87-5.3 4.67zM318.66 648.38l2.1-.15a7.44 7.44 0 0 1 4.53 1.25l-2.1.14a11.21 11.21 0 0 0-4.53-1.24zM324.21 711.25l2.1-.15 14.08-38.92a14.63 14.63 0 0 0 .72-6.63c0-.11 0-.23-.05-.34-.46-3.28-2.11-6.77-5-8.64l-2.1.15c2.86 1.87 4.31 5.37 4.77 8.63a14.25 14.25 0 0 1-.78 6.88z"/>
                <path class="cls-50" d="M338.29 672.32l-13.55 37.75-2.74-1.33 13.62-37.82a10.73 10.73 0 0 0 .37-5.71 9.22 9.22 0 0 0-2.74-5 8 8 0 0 0-.77-.6l-10.8-7.08a5 5 0 0 0-3.5-.84 5.45 5.45 0 0 0-2.47 1.26 7.9 7.9 0 0 0-2.13 3.22l-14.08 38.88-2.31-2.42 13.72-37.91a10.76 10.76 0 0 1 2.93-4.43 7.67 7.67 0 0 1 3.16-1.69 7.82 7.82 0 0 1 6.14 1l10.8 7.08a12 12 0 0 1 4.66 7.3 14.53 14.53 0 0 1-.31 8.34z"/>
                <path class="cls-51" d="M337.29 656.79l-12.87-8.36c-.67-.46-1.6 0-2.19.51a4.6 4.6 0 0 0-1.06 1.28 4 4 0 0 0-.55 1.67 1.81 1.81 0 0 0 .18 1 1 1 0 0 0 .33.37l12.87 8.35c-.84-1.08-.09-3 1.05-4.15a2.33 2.33 0 0 1 2.24-.67z"/>
                <path class="cls-47" d="M337.28 656.78a1.22 1.22 0 0 0-.88-.12 3.61 3.61 0 0 0-2 1.45 4.62 4.62 0 0 0-.77 1.57v.21a2.14 2.14 0 0 0 .1 1.31 1 1 0 0 0 .75.59h.24c-.11-.17-.22-.33-.34-.49l1-3.58 1.88-.33q.36.32.68.67v-.21a1.3 1.3 0 0 0-.66-1.07z"/>
                <path class="cls-52" d="M313.7 835.61l-5.82-3.39c-2.58-1.5-5.85.5-7.88 2.45a16.83 16.83 0 0 0-3.53 4.95 14.67 14.67 0 0 0-1.57 6.24 6.62 6.62 0 0 0 .92 3.61 3.83 3.83 0 0 0 1.3 1.26l5.83 3.39c-1.08-2.14-.63-8.95 1.22-12.18 1.54-2.77 7.28-6.39 9.53-6.33z"/>
                <path class="cls-53" d="M314.53 834.19l-17-9.88a5.69 5.69 0 0 0-5.21.22 15.14 15.14 0 0 0-5.34 4.62l-.24.32a20.16 20.16 0 0 0-2.18 3.81 16.07 16.07 0 0 0-1.42 6.24c0 2.59.9 4.51 2.46 5.42l17 9.88a7.41 7.41 0 0 1-2.11-5.52c0-4.29 3.27-10.58 6.65-13.25l.22-.17c1.89-1.5 5.71-2.54 7.17-1.69z"/>
                <path class="cls-54" d="M308.5 834.75c-4.66 2.69-8.41 9.26-8.4 14.61 0 3.33 1.49 5.56 4 5.93l.91-2.19c-2-.3-3.14-2.07-3.14-4.73a14.8 14.8 0 0 1 6.71-11.63c2-1.13 3.83-1.23 5.12-.25l1.29-2c-1.67-1.25-3.99-1.16-6.49.26z"/>
                <path class="cls-55" d="M262.09 693.49v-.11a20.29 20.29 0 0 1 2.68-4.78 14 14 0 0 1 2.78-2.78 9.2 9.2 0 0 1 4.56-2c2.41-.35 6.83.09 9.44.29a34 34 0 0 1 9.63 2.76l2.3 1q2.27 1 4.48 2.06c.88.42-5.37-.07-1 2.5l30.68 17.92c2.43 1.42 3.82.86 6.27.19l2.34 1.59c7.21 5 10.25 7.91 11.22 8.94a14.68 14.68 0 0 1 2.75 3.62 10.81 10.81 0 0 1 .32 7.39c-.11.42-.24.81-.38 1.22L314 831.5l-.65 1.39c-8.17-.37-15.39 11.45-17.15 18.55a.35.35 0 0 1-.16.2 1.35 1.35 0 0 1-.41.1c-1 .14-4.84.37-5.28.35a18.85 18.85 0 0 1-3.86-.71 72.58 72.58 0 0 1-10.73-4.17c-3.88-1.87-7.46-3.64-11.22-5.65l-4.05-2.24-2.49-1.45c-7.87-4.57-15.67-9-23.1-14.27a91.41 91.41 0 0 1-8.84-6.85c-4.8-3.92-5.85-7.82-4.77-12.24a16 16 0 0 1 .7-2.21q20.01-54.4 40.1-108.81zm88.12 39.81s-.06.05-.15 0z"/>
                <path class="cls-56" d="M221.71 803c0 .13 0 .1 0 0-.14.39 3.76 3 6.06 4.46 9.21 6 18.87 11.48 28.36 17 6.66 3.86 13.35 7.65 20.12 11.31l.28.15c1.27.68 10.24 5.32 12.36 6-1.12 3-1.47 8.81 2.54 9.62.14 0 4.62-.06 4.77 0a.35.35 0 0 1-.16.2 1.35 1.35 0 0 1-.41.1c-1 .14-4.84.37-5.28.35a18.85 18.85 0 0 1-3.86-.71 72.58 72.58 0 0 1-10.73-4.17c-3.88-1.87-7.46-3.64-11.22-5.65l-4.05-2.24-2.49-1.55c-7.87-4.57-15.67-9-23.1-14.27a91.48 91.48 0 0 1-8.84-6.85c-4.8-3.92-5.85-7.82-4.77-12.24.1-.51.26-1.07.42-1.51z"/>
                <path class="cls-57" d="M288.16 846.75c.13 2.24 1 4.29 3.27 4.74.14 0 4.62-.06 4.77 0a.35.35 0 0 1-.16.2 1.35 1.35 0 0 1-.41.1c-1 .14-4.84.37-5.28.35a18.85 18.85 0 0 1-3.86-.71 72.58 72.58 0 0 1-10.73-4.17c-3.88-1.87-7.46-3.64-11.22-5.65l-4.05-2.24-2.49-1.5c-7.87-4.57-15.67-9-23.1-14.27a91.41 91.41 0 0 1-8.84-6.85c-4.33-3.55-5.61-7.07-5-11a15.62 15.62 0 0 0 3.94 4.51c1.72 1.56 6.64 5.49 11 8.53 7.43 5.24 15.23 9.7 23.1 14.27l2.49 1.43 4.05 2.24c3.76 2 7.34 3.77 11.22 5.65a72.53 72.53 0 0 0 10.73 4.17z"/>
                <path class="cls-56" d="M281.59 684.12a34 34 0 0 1 9.63 2.76l2.3 1c1.53.68 3.13 1.42 4.62 2.13l-.31.92c-.47.91-.91 1.46-.43 1.72l27.69 15.85c2 1 3.12.65 5.16-.31.79.53 5.3 3.43 6.07 4 7.21 5 10.25 7.91 11.22 8.94a14.68 14.68 0 0 1 2.75 3.62 10.81 10.81 0 0 1 .32 7.39c-.11.42-.24.81-.38 1.22 0 0-.06.05-.15.05 1.92-5.19.58-9.54-3-9.7l-7.92-.36c-2.54-3.18-13.49-11.91-19.92-15.74-17.32-10.33-42.49-23.48-47.11-23.69 2.43-.43 6.87.01 9.46.2z"/>
                <path class="cls-56" d="M288.9 841.87l40.38-109.49c1.91-5.19 6.35-9.27 9.9-9.11l7.92.36c3.55.16 4.89 4.51 3 9.7.08 0 .13 0 .15-.05L314 831.5l-.65 1.39c-8.17-.37-15.39 11.45-17.15 18.55-1.61 0-2.77.19-4.34.11-3.55-.15-4.86-4.55-2.96-9.68z"/>
                <path class="cls-58" d="M309.64 840.63a9.57 9.57 0 0 0-4.38 7.53c0 2.76 2 3.88 4.41 2.49a9.58 9.58 0 0 0 4.38-7.53c-.05-2.76-1.98-3.88-4.41-2.49z"/>
                <path class="cls-59" d="M310.41 840.5h.11a3.38 3.38 0 0 1 .65-.14h.25a2.43 2.43 0 0 1 .45 0h.17a2.07 2.07 0 0 1 .54.2h.05a2.07 2.07 0 0 1 .43.35l.06.06a2.39 2.39 0 0 1 .34.52l.05.11a3.42 3.42 0 0 1 .21.66v.13a4.56 4.56 0 0 1 .08.83 6.34 6.34 0 0 1-.07.88v.27c0 .09-.09.43-.15.65s-.06.24-.1.36-.11.31-.17.47-.16.43-.26.63-.2.42-.31.62l-.14.26a10.37 10.37 0 0 1-.57.87l-.07.09c-.18.24-.37.47-.57.68l-.21.22q-.25.25-.52.48l-.22.18a6.61 6.61 0 0 1-.76.53 4.69 4.69 0 0 1-.84.39c-.09 0-.18 0-.28.06a3.53 3.53 0 0 1-.51.11 2.41 2.41 0 0 1-.65 0h-.18a2 2 0 0 1-.37-.14 2.12 2.12 0 0 1-.34-.23 2 2 0 0 1-.23-.19 2.13 2.13 0 0 1-.16-.2 2.5 2.5 0 0 1-.24-.36l-.09-.19a3.19 3.19 0 0 1-.2-.62 4.65 4.65 0 0 1-.09-.91 6.24 6.24 0 0 1 .08-.94v-.15a8.13 8.13 0 0 1 .21-.91v-.14a9.27 9.27 0 0 1 .34-.93v-.07c.13-.29.27-.57.43-.85l.08-.15c.17-.28.35-.56.54-.82s.19-.24.29-.36.25-.32.39-.47a7.5 7.5 0 0 1 .54-.52l.27-.26a6.63 6.63 0 0 1 .88-.62 5 5 0 0 1 .77-.36zm5.5 0c0-.32 0-.62-.05-.91v-.08-.23c0-.08-.06-.37-.1-.55s0-.09 0-.13 0-.12-.06-.19-.09-.3-.14-.44v-.15l-.07-.14c-.06-.13-.12-.26-.19-.39s0-.11-.08-.16l-.06-.09a4.11 4.11 0 0 0-.24-.35c0-.05-.07-.11-.11-.15a3.83 3.83 0 0 0-.36-.36l-.09-.1a3.61 3.61 0 0 0-.55-.37h-.11a3.48 3.48 0 0 0-.51-.21H312.98a4 4 0 0 0-.67-.12h-.09a5.09 5.09 0 0 0-1 .05h-.24l-.49.12-.3.08c-.19.06-.37.14-.57.22l-.21.08a9.253 9.253 0 0 0-1.64.94l-.26.2-.53.4-.3.26-.46.41-.31.31-.42.44-.12.13-.09.11q-.56.63-1.06 1.32l-.06.07-.12.18q-.28.41-.55.84l-.12.18-.06.11c-.17.29-.33.58-.49.87l-.07.13q-.25.5-.47 1l-.1.27c-.09.23-.19.46-.27.69v.1c0 .1-.06.2-.09.3s-.13.39-.19.59v.15c0 .09 0 .18-.07.28s-.1.38-.14.56v.44c0 .08-.06.37-.09.55s0 .15 0 .22V850.1a7.59 7.59 0 0 0 .1.77v.12a6.24 6.24 0 0 0 .23.85v.08l.06.12a5.2 5.2 0 0 0 .32.68l.05.12a4.08 4.08 0 0 0 .6.75l.06.07.1.08.29.23.22.15a3.23 3.23 0 0 0 .33.17l.16.09h.06a3.78 3.78 0 0 0 .82.23h.18a4.67 4.67 0 0 0 .9 0l.4-.06h.3l.44-.12.29-.08c.16-.05.33-.13.5-.2l.26-.1c.26-.12.52-.25.78-.41a11.14 11.14 0 0 0 1-.69l.25-.19c.34-.26.67-.53 1-.83l.05-.05c.3-.29.6-.6.88-.92l.21-.24c.29-.34.58-.69.85-1.06l.05-.08c.27-.38.53-.77.78-1.17l.14-.23q.37-.63.69-1.28l.06-.1.12-.27.25-.56.17-.43c.07-.19.14-.37.21-.56s.06-.15.08-.23v-.13c.15-.47.28-.95.39-1.42v-.08-.18c.07-.34.12-.67.16-1v-.19-.11c0-.36.06-.72.05-1.08z"/>
                <path class="cls-7" d="M329 657.21s-2.25 4.92.12 7.75 6.12 1.35 6.12-.12-2.7-10.09-6.24-7.63z"/>
                <path class="cls-7" d="M325.26 655.32s-2.25 4.92.12 7.75 6.12 1.35 6.12-.12-2.74-10.09-6.24-7.63z"/>
                <path d="M99.17 910.21c22.07 12.83 26 31.57 8.65 41.63s-49.54 7.81-71.61-5-26-31.57-8.65-41.63 49.54-7.84 71.61 5z" class="cls-5"/>
                <path class="cls-8" d="M46.84 909.6c4.86-4.75 11.43-5.76 13.8-3.39s.4 8.19-4.4 13c-2 2-4.56 4.5-6.56 5.42a5.5 5.5 0 0 1-6.43-1c-1.37-1.49-1.19-6.93-1.19-8.38.66-1.74 2.46-3.39 4.78-5.65z"/>
                <ellipse class="cls-7" cx="49.96" cy="912.9" rx="8.22" ry="4.28" transform="rotate(-41.31 49.912 912.802)"/>
                <path class="cls-8" d="M86.9 932.14c4.86-4.75 11.43-5.76 13.8-3.39s.4 8.19-4.4 13c-2 2-4.55 4.5-6.56 5.42a5.5 5.5 0 0 1-6.43-1c-1.37-1.49-1.19-6.93-1.19-8.38.66-1.74 2.46-3.39 4.78-5.65z"/>
                <ellipse class="cls-7" cx="90.01" cy="935.44" rx="8.22" ry="4.27" transform="rotate(-41.31 90.057 935.54)"/>
                <path class="cls-7" d="M48.74 918.3c5.6-2.45 5.85-5.39 6-6.64 0 0 7-46 10.45-76.4a442.2 442.2 0 0 0 2.44-48.13l10.66 66.27 4.94 85.52c0 .09.54 3.58 4.91 2.06 4-1.41 5.92-3.13 6.76-6.41.56-2.79 12.63-61.35 15.6-86.35 3-25.6 10.49-127.7 6.65-135.72l-98.77 3.37 19.34 122.49L43.21 916s.34 2.2 1.79 2.6a6.2 6.2 0 0 0 3.74-.3z"/>
                <path class="cls-9" d="M82.73 839.73a32.66 32.66 0 0 0 12.47.76c12.8-1.79 26.24-15.69 26.24-15.69v-16.32c0-17.31-.07-83.07-.07-83.07-.44-4.52-1-8.79-1.72-12.83-2.47-12.12-7.09-19.34-17.18-27.38a33.8 33.8 0 0 0-4.41-2.91c-12.84-7.29-37.43-12.89-53.41-6.74-21 8.09-21 33-21 32.91v94.41a214 214 0 0 0 25.75 19.65c13.47 8.67 30.15 16.37 33.33 17.21z"/>
                <path class="cls-6" d="M13.5 604.31c-8.06 17.1-11.7 44.55-13 68.36l23.39 2.48 22.36-57.64"/>
                <path class="cls-7" d="M18.67 723s.84 8.53 1.42 10.95c.37 1.54.6 2.59.89 3.71.4 1.55.5 2.31 0 2.69s-1.4.49-2.29-2.65a13.7 13.7 0 0 0 2.89 5.75c1.68 1.81 4.13 3.64 3.48 4.59s-2.45 0-2.45 0-.21 1.55-2.44.33c0 0-.26 1.25-2.52-.33 0 0-.89 1-3-1S5.19 736.93 5 722z"/>
                <path class="cls-6" d="M.51 672.21c-2.33 41.67 4.15 54.46 4.15 54.46l14.13.38 5.07-51.89"/>
                <circle class="cls-6" cx="12.27" cy="672.9" r="11.77"/>
                <circle class="cls-6" cx="29.37" cy="612.13" r="17.69"/>
                <path class="cls-6" d="M125 627.77c3.46 24.26 2.15 115.48 2.15 115.48 0 19.47-4.9 34.8-31.6 38.54a44.83 44.83 0 0 1-15-.91c-20.64-4.41-45.69-19.31-55.46-28.14-16.37-14.8-15.7-28.78-15.7-41v-89c0 .06 0-29.89 25.3-39.62 19.24-7.41 48.86-.62 64.34 8.12-.03.05 22.41 11.24 25.97 36.53z"/>
                <path class="cls-10" d="M123.11 619.62a14.21 14.21 0 0 0-10.42-4.82c-15.44 0-14.39 17.5-14.39 17.5v98.17c0 37.76-8.56 48.24-14.14 51.06a40.8 40.8 0 0 0 11.42.26c26.7-3.74 31.6-19.07 31.6-38.54 0 0 1.31-91.21-2.15-115.48a46.2 46.2 0 0 0-1.92-8.15z"/>
                <path class="cls-6" d="M82.83 628.85l15 77.61 28.17-5.21s-.17-5.92-.34-13.42c-.73-31.93 2.08-55-3.68-71.63-2.74-7.92-43.54-4.53-39.21 12.68"/>
                <path class="cls-7" d="M116.8 765.18s5.59 15.12 5.49 18.23c-.08 2.6-.68 4.15.86 4.92 2.06 1 2.88-.52 2.88-.52a2.32 2.32 0 0 0 3.54-1.08s2 1.34 3-1.91c0 0 2.18 1.8 2.76-4.36.69-7.29-5-18.57-5.05-18.7z"/>
                <path class="cls-7" d="M123.53 788.49a5 5 0 0 1-2.84-3.22c-.82-2.54.52-4.86 2.91-4.81 0 .01 4.61 8.8-.07 8.03z"/>
                <path class="cls-6" d="M126 700.89l6.44 67.87-13.68 6.45s-13.86-33.76-21.34-70.13"/>
                <circle class="cls-6" cx="111.63" cy="702.28" r="14.45" transform="rotate(-29.16 111.597 702.193)"/>
                <circle class="cls-6" cx="103.28" cy="625.17" r="20.86" transform="rotate(-.22 102.989 617.431)"/>
                <path class="cls-7" d="M91.64 562.15c-.15 14.62-9.36 26.38-20.57 26.27s-20.19-12.06-20-26.69c.06-5.72-.36-13.41 2.05-17.72 3.75-6.69 11.7-8.62 18.53-8.54 11.17.12 20.14 12.06 19.99 26.68z"/>
                <path class="cls-44" d="M91.64 562.15c-.15 14.62-9.36 26.38-20.57 26.27s-20.19-12.06-20-26.69c.06-5.72-.36-13.41 2.05-17.72 3.75-6.69 11.7-8.62 18.53-8.54 11.17.12 20.14 12.06 19.99 26.68z"/>
                <path class="cls-7" d="M83.32 573.36H55.61V585c.06 2 1.42 4 4.08 5.55 5.42 3.13 14.18 3.13 19.57 0 2.6-1.51 3.93-3.47 4-5.46V585z"/>
                <path class="cls-12" d="M35.62 556.78c5.13-7.12 3.79-22.78 10.26-30.78s18.72-6.1 18.72-6.1c7.12-4.68 18.5 3.69 28 15 11.69 14-5.55 20-5.55 20s-6.45 13.69-.08 21.56c0 0 9.31 10.14 5.15 21.48-2.25 6.15-7.41 9.73-9.63 15.87-1.88 5.18-.43 15.06 8.72 17 0 0-9.29 9.92-34.79 7.38-13.58-1.35-30.16-9.23-25-27.12 6.82-24.07-13.87-29.26 4.2-54.29z"/>
            </g>
        </g>
    </g>
</svg>
