<svg width="511" height="374" viewBox="0 0 511 374" xmlns="http://www.w3.org/2000/svg">
    <defs>
        <linearGradient x1="73.082%" y1="19.086%" x2="97.391%" y2="51.98%" id="a">
            <stop stop-color="#FFF" offset="0%"/>
            <stop stop-color="#FAFAFA" stop-opacity=".48" offset="33.673%"/>
            <stop stop-color="#FDFDFD" stop-opacity=".22" offset="64.794%"/>
            <stop stop-color="#FFF" stop-opacity="0" offset="100%"/>
        </linearGradient>
        <linearGradient x1="63.52%" y1="21.141%" x2="96.714%" y2="28.779%" id="b">
            <stop stop-color="#FFF" offset="0%"/>
            <stop stop-color="#FAFAFA" stop-opacity=".48" offset="33.673%"/>
            <stop stop-color="#FBFBFB" stop-opacity=".352" offset="51.096%"/>
            <stop stop-color="#FDFDFD" stop-opacity=".22" offset="69.072%"/>
            <stop stop-color="#FFF" stop-opacity="0" offset="100%"/>
        </linearGradient>
    </defs>
    <g fill="none" fill-rule="evenodd">
        <path d="M164.69 78.267h176.292v191.185H164.69z" fill-rule="nonzero" fill="#EAEAEA"/>
        <g transform="translate(168.185 99.392)" fill-rule="nonzero">
            <path fill="#D8EAFF" d="M61.55 168.54v3.496H0v-3.495zM167.477 168.54v3.496h-61.55v-3.495z"/>
            <ellipse fill="#000" opacity=".08" cx="84.438" cy="12.784" rx="16.322" ry="7.733"/>
            <path d="M87.049 14.514c0 2.466 1.256 4.466 2.808 4.466 1.552 0 2.809-2 2.809-4.466 0-2.467-.093-4.467-2.809-4.467-2.992 0-2.808 2-2.808 4.467zM76.258 14.514c0 2.466 1.257 4.466 2.809 4.466 1.552 0 2.808-2 2.808-4.466 0-2.467-.092-4.467-2.808-4.467-2.993 0-2.809 2-2.809 4.467z" fill="#000"/>
            <path d="M96.87 11.398c.78 1.255-.016 2.167-1.092 2.836s-2.023.84-2.804-.415c-.781-1.255-.54-2.814.534-3.483s2.582-.193 3.361 1.062z" fill="#FFCFAE"/>
            <ellipse fill="#2B90FF" transform="rotate(-31.88 98.298 10.194)" cx="98.298" cy="10.194" rx="5.333" ry="3.038"/>
            <path d="M72.155 11.398c-.784 1.262.015 2.18 1.096 2.851 1.08.672 2.033.845 2.819-.416.786-1.262.544-2.83-.537-3.496-1.08-.665-2.594-.196-3.378 1.061z" fill="#FFCFAE"/>
            <ellipse fill="#2B90FF" transform="rotate(-58.12 70.725 10.217)" cx="70.725" cy="10.217" rx="3.053" ry="5.362"/>
            <path d="M72.284 1.368l4.6-.681A50.412 50.412 0 0 1 91.29.646l5.401.76c3.8.54 6.535 3.012 6.535 5.893 0 2.9-2.781 5.383-6.606 5.903l-6.921.938a45.427 45.427 0 0 1-13.032-.126l-4.465-.695c-3.8-.59-6.513-3.083-6.513-5.974.005-2.903 2.765-5.409 6.596-5.977z" fill="#2B90FF"/>
            <path d="M84.574 16.413a7.067 7.067 0 1 1 0-14.133 7.067 7.067 0 0 1 0 14.133" fill="#FFCFAE"/>
            <path d="M91.641 9.347c-.912 6.914-4.103 1.443-7.067 7.066-1.823 3.453-7.066-3.164-7.066-7.066a7.067 7.067 0 0 1 7.066-7.067c3.903 0 7.578 3.191 7.067 7.067z" fill="#263038"/>
            <ellipse fill="#000" opacity=".08" cx="84.485" cy="61.38" rx="16.322" ry="7.733"/>
            <path d="M81.874 59.65c0-2.466-1.257-4.466-2.809-4.466-1.551 0-2.808 2-2.808 4.466 0 2.467.093 4.467 2.808 4.467 2.993 0 2.809-2 2.809-4.467zM92.664 59.65c0-2.466-1.257-4.466-2.808-4.466-1.552 0-2.809 2-2.809 4.466 0 2.467.093 4.467 2.809 4.467 2.992 0 2.808-2 2.808-4.467z" fill="#000"/>
            <path d="M72.053 62.766c-.781-1.255.015-2.167 1.091-2.836s2.023-.84 2.804.415c.781 1.255.541 2.815-.533 3.483-1.075.669-2.582.193-3.362-1.062z" fill="#FFCFAE"/>
            <ellipse fill="#FFF" transform="rotate(-31.88 70.626 63.941)" cx="70.626" cy="63.941" rx="5.333" ry="3.038"/>
            <path d="M96.767 62.766c.785-1.261-.015-2.18-1.095-2.851-1.08-.672-2.034-.845-2.82.416-.785 1.262-.543 2.83.537 3.496 1.08.665 2.594.196 3.378-1.061z" fill="#FFCFAE"/>
            <ellipse fill="#FFF" transform="rotate(-58.055 98.793 64.073)" cx="98.793" cy="64.073" rx="3.058" ry="5.371"/>
            <path d="M96.638 72.796l-4.6.681a50.412 50.412 0 0 1-14.404.041l-5.401-.76c-3.8-.54-6.535-3.012-6.535-5.893 0-2.9 2.78-5.383 6.606-5.903l6.92-.938a45.427 45.427 0 0 1 13.033.126l4.465.695c3.8.59 6.512 3.084 6.512 5.974-.003 2.903-2.764 5.409-6.596 5.977z" fill="#FFF"/>
            <path d="M84.347 57.75a7.067 7.067 0 1 1 0 14.134 7.067 7.067 0 0 1 0-14.133" fill="#FFCFAE"/>
            <path d="M77.281 64.818c.912-6.915 4.103-1.444 7.067-7.067 1.824-3.453 7.067 3.164 7.067 7.067a7.067 7.067 0 0 1-7.068 7.066c-3.902 0-7.576-3.191-7.066-7.066z" fill="#263038"/>
            <ellipse fill="#000" opacity=".08" transform="rotate(-11.51 116.988 122.646)" cx="116.988" cy="122.646" rx="16.322" ry="7.733"/>
            <ellipse fill="#000" opacity=".08" cx="76.9" cy="206.061" rx="13.678" ry="16.322"/>
            <path d="M114.071 121.497c-.492-2.416-2.127-4.126-3.647-3.816-1.52.31-2.354 2.52-1.862 4.936.493 2.416.982 4.359 3.648 3.816 2.933-.597 2.352-2.52 1.861-4.936zM124.644 119.345c-.492-2.416-2.127-4.126-3.647-3.816-1.52.31-2.354 2.52-1.862 4.936.493 2.416.982 4.359 3.648 3.816 2.933-.597 2.354-2.52 1.861-4.936z" fill="#000"/>
            <path d="M105.068 126.51c-1.015-1.075-.418-2.129.503-2.998.921-.87 1.815-1.226 2.83-.152 1.015 1.075 1.091 2.65.172 3.52-.92.87-2.494.704-3.505-.37z" fill="#FFCFAE"/>
            <ellipse fill="#FFF" transform="rotate(-43.38 103.905 127.972)" cx="103.905" cy="127.972" rx="5.333" ry="3.038"/>
            <path d="M129.286 121.58c.516-1.392-.456-2.127-1.643-2.575-1.187-.449-2.161-.423-2.68.97-.518 1.394.03 2.888 1.225 3.324 1.195.437 2.581-.33 3.098-1.718z" fill="#FFCFAE"/>
            <ellipse fill="#FFF" transform="rotate(-69.63 130.927 122.452)" cx="130.927" cy="122.452" rx="3.053" ry="5.362"/>
            <path d="M131.155 131.432l-4.372 1.583a50.412 50.412 0 0 1-14.107 2.914l-5.445.325c-3.827.23-7.01-1.648-7.585-4.47-.58-2.84 1.652-5.83 5.296-7.102l6.594-2.299a45.427 45.427 0 0 1 12.797-2.476l4.514-.21c3.835-.177 6.99 1.724 7.572 4.56.589 2.848-1.617 5.855-5.264 7.175z" fill="#FFF"/>
            <ellipse fill="#000" opacity=".08" transform="rotate(-29.37 34.273 100.022)" cx="34.273" cy="100.022" rx="16.322" ry="7.733"/>
            <path d="M37.398 100.245c1.216 2.149 3.286 3.275 4.638 2.515 1.353-.76 1.467-3.12.257-5.27-1.21-2.148-2.27-3.846-4.638-2.514-2.608 1.468-1.467 3.12-.257 5.269zM27.995 105.538c1.216 2.149 3.286 3.275 4.639 2.515 1.352-.76 1.466-3.12.257-5.269-1.21-2.149-2.27-3.846-4.639-2.515-2.608 1.467-1.466 3.119-.257 5.269z" fill="#000"/>
            <path d="M44.429 92.713c1.296.711 1.05 1.896.44 3.006-.61 1.11-1.35 1.725-2.646 1.014-1.294-.712-1.852-2.187-1.243-3.298.61-1.111 2.152-1.432 3.449-.722z" fill="#FFCFAE"/>
            <ellipse fill="#2B90FF" transform="rotate(-61.25 45.089 90.965)" cx="45.089" cy="90.965" rx="5.333" ry="3.038"/>
            <path d="M22.894 104.839c-.066 1.485 1.082 1.892 2.354 1.947 1.272.054 2.187-.262 2.252-1.746.065-1.485-.912-2.736-2.185-2.79-1.274-.052-2.358 1.104-2.421 2.589z" fill="#FFCFAE"/>
            <ellipse fill="#2B90FF" transform="rotate(-87.49 21.066 104.517)" cx="21.066" cy="104.517" rx="3.053" ry="5.362"/>
            <path d="M18.085 96.032l3.675-2.85a50.412 50.412 0 0 1 12.532-7.1l5.083-1.976c3.572-1.392 7.178-.582 8.592 1.927 1.422 2.526.217 6.057-2.864 8.385l-5.571 4.214a45.427 45.427 0 0 1-11.416 6.277l-4.232 1.585c-3.595 1.346-7.188.506-8.604-2.012-1.432-2.538-.256-6.076 2.805-8.45z" fill="#2B90FF"/>
            <ellipse fill="#000" opacity=".08" transform="rotate(-33.59 47.112 118.293)" cx="47.112" cy="118.293" rx="16.322" ry="7.733"/>
            <path d="M43.976 118.315c-1.368-2.055-3.519-3.025-4.81-2.168-1.292.858-1.234 3.22.13 5.274 1.365 2.055 2.547 3.67 4.81 2.167 2.494-1.655 1.234-3.223-.13-5.273zM52.965 112.345c-1.368-2.055-3.518-3.024-4.81-2.167-1.292.857-1.234 3.219.13 5.273 1.365 2.055 2.548 3.67 4.81 2.168 2.493-1.662 1.233-3.22-.13-5.274z" fill="#000"/>
            <path d="M37.518 126.343c-1.345-.607-1.187-1.814-.66-2.966.525-1.152 1.215-1.824 2.564-1.205 1.35.618 2.008 2.045 1.482 3.191s-2.04 1.594-3.386.98z" fill="#FFCFAE"/>
            <ellipse fill="#FFF" transform="rotate(-65.46 36.99 128.14)" cx="36.99" cy="128.14" rx="5.333" ry="3.038"/>
            <path d="M58.103 112.667c-.044-1.485-1.215-1.807-2.49-1.769-1.276.038-2.162.421-2.118 1.906.045 1.485 1.113 2.658 2.385 2.62 1.272-.038 2.269-1.272 2.223-2.757z" fill="#FFCFAE"/>
            <ellipse fill="#FFF" transform="rotate(-1.71 59.965 112.867)" cx="59.965" cy="112.867" rx="5.362" ry="3.053"/>
            <path d="M63.546 121.097l-3.456 3.111a50.412 50.412 0 0 1-11.976 8.002l-4.924 2.35c-3.459 1.65-7.116 1.107-8.708-1.291-1.604-2.415-.661-6.023 2.238-8.571l5.247-4.61a45.427 45.427 0 0 1 10.927-7.105l4.103-1.89c3.488-1.607 7.13-1.034 8.73 1.367 1.61 2.434.697 6.045-2.181 8.637z" fill="#FFF"/>
            <path d="M44.985 115.363a7.067 7.067 0 1 1 7.821 11.772 7.067 7.067 0 0 1-7.821-11.772" fill="#FFCFAE"/>
            <path d="M43.01 125.16c-3.066-6.265 2.62-3.473 1.975-9.797-.394-3.883 7.637-1.273 9.796 1.976a7.067 7.067 0 0 1-1.976 9.796c-3.252 2.161-8.082 1.53-9.796-1.975z" fill="#263038"/>
            <path fill="#FFF" d="M124.164 43.465H44.529V27.66h79.635z"/>
            <path d="M69.036 202.28c2.467 0 4.467-1.257 4.467-2.809 0-1.552-2-2.808-4.467-2.808-2.466 0-4.466.092-4.466 2.808 0 2.99 1.995 2.809 4.466 2.809zM85.602 213.07c2.466 0 4.466-1.257 4.466-2.809 0-1.551-2-2.808-4.466-2.808-2.467 0-4.467.093-4.467 2.808 0 2.99 1.996 2.809 4.467 2.809z" fill="#000"/>
            <path d="M84.772 208.464c-1.576 0-2.853.059-2.853 1.793 0 1.912 1.277 1.793 2.853 1.793M79.597 192.454c1.256-.78 2.167.016 2.836 1.092s.84 2.022-.415 2.804c-1.255.78-2.814.54-3.483-.534s-.192-2.58 1.062-3.362z" fill="#FFCFAE"/>
            <ellipse fill="#FFF" transform="rotate(-31.88 78.415 191.007)" cx="78.415" cy="191.007" rx="3.038" ry="5.333"/>
            <ellipse fill="#DDD" transform="rotate(-83.83 69.22 199.62)" cx="69.22" cy="199.621" rx="4.076" ry="3.038"/>
            <ellipse fill="#DDD" transform="rotate(-83.83 83.273 210.21)" cx="83.273" cy="210.21" rx="3.919" ry="3.038"/>
            <path d="M79.603 217.173c1.262.784 2.18-.015 2.851-1.095.672-1.081.845-2.034-.416-2.82-1.261-.785-2.83-.544-3.495.537-.666 1.08-.203 2.59 1.06 3.378z" fill="#FFCFAE"/>
            <ellipse fill="#FFF" transform="rotate(-58.12 78.408 218.627)" cx="78.408" cy="218.627" rx="5.362" ry="3.053"/>
            <path d="M69.57 217.04l-.304-4.616c-.152-4.56-.304-9.27 0-14.286l.353-5.504c.54-3.8 3.012-6.535 5.893-6.535 2.9 0 5.383 2.78 5.903 6.606l.938 6.921a45.427 45.427 0 0 1-.127 13.032l-.694 4.465c-.59 3.8-3.084 6.512-5.974 6.512-2.914-.003-5.421-2.763-5.988-6.595z" fill="#FFF"/>
            <path d="M84.614 204.75a7.067 7.067 0 1 1-14.134 0 7.067 7.067 0 0 1 14.134 0" fill="#FFCFAE"/>
            <path d="M77.547 197.684c6.915.912 1.444 4.103 7.067 7.067 3.453 1.823-3.164 7.067-7.067 7.067a7.067 7.067 0 0 1-7.067-7.067c0-3.904 3.198-7.578 7.067-7.067z" fill="#263038"/>
            <ellipse fill="#000" opacity=".08" cx="17.173" cy="211.72" rx="13.678" ry="16.322"/>
            <path d="M25.036 215.502c-2.466 0-4.466 1.256-4.466 2.808 0 1.552 2 2.809 4.466 2.809 2.467 0 4.467-.093 4.467-2.809 0-2.99-1.995-2.808-4.467-2.808zM8.471 204.711c-2.466 0-4.466 1.257-4.466 2.809 0 1.551 2 2.814 4.466 2.814 2.467 0 4.467-.092 4.467-2.808 0-2.996-1.996-2.815-4.467-2.815z" fill="#000"/>
            <path d="M9.3 209.318c1.577 0 2.853-.06 2.853-1.794 0-1.912-1.276-1.793-2.852-1.793M14.476 225.327c-1.256.78-2.167-.015-2.836-1.091s-.84-2.023.415-2.804c1.255-.782 2.814-.541 3.483.533.669 1.075.191 2.58-1.062 3.362z" fill="#FFCFAE"/>
            <ellipse fill="#FFF" transform="rotate(-31.88 15.674 226.739)" cx="15.674" cy="226.739" rx="3.038" ry="5.333"/>
            <ellipse fill="#DDD" transform="rotate(-83.83 24.838 218.131)" cx="24.838" cy="218.131" rx="4.076" ry="3.038"/>
            <ellipse fill="#DDD" transform="rotate(-83.83 10.787 207.541)" cx="10.787" cy="207.541" rx="3.919" ry="3.038"/>
            <path d="M14.47 200.608c-1.262-.784-2.18.015-2.851 1.096-.672 1.08-.845 2.033.416 2.819s2.83.544 3.495-.537c.666-1.08.203-2.59-1.06-3.378z" fill="#FFCFAE"/>
            <ellipse fill="#FFF" transform="rotate(-58.12 15.664 199.194)" cx="15.664" cy="199.194" rx="5.362" ry="3.053"/>
            <path d="M24.503 200.742l.304 4.615c.152 4.56.304 9.27 0 14.286l-.353 5.504c-.54 3.8-3.012 6.535-5.893 6.535-2.9 0-5.383-2.78-5.903-6.606l-.938-6.921a45.427 45.427 0 0 1 .127-13.032l.694-4.465c.59-3.8 3.084-6.512 5.974-6.512 2.914.003 5.421 2.763 5.988 6.596z" fill="#FFF"/>
            <path d="M9.459 213.03a7.067 7.067 0 1 1 14.134 0 7.067 7.067 0 0 1-14.134 0" fill="#FFCFAE"/>
            <path d="M16.526 220.097c-6.915-.912-1.444-4.103-7.067-7.067-3.453-1.823 3.164-7.066 7.067-7.066a7.067 7.067 0 0 1 7.067 7.066c0 3.905-3.198 7.578-7.067 7.067z" fill="#263038"/>
            <ellipse fill="#000" opacity=".08" cx="146.809" cy="208.258" rx="13.678" ry="16.322"/>
            <path d="M154.395 214.792c1.809 0 3.275-.923 3.275-2.06 0-1.136-1.466-2.059-3.275-2.059-1.808 0-3.275.067-3.275 2.06 0 2.193 1.464 2.059 3.275 2.059z" fill="#000"/>
            <path d="M153.787 211.416c-1.155 0-2.092.043-2.092 1.317 0 1.4.936 1.316 2.092 1.316" fill="#FFCFAE"/>
            <ellipse fill="#FFCFAE" transform="rotate(-83.83 152.096 212.683)" cx="152.096" cy="212.683" rx="2.193" ry="2.155"/>
            <path d="M153.495 214.043c1.15 0 2.084-.587 2.084-1.31 0-.724-.933-1.31-2.084-1.31-1.15 0-2.083.042-2.083 1.31 0 1.4.933 1.31 2.083 1.31z" fill="#FFCFAE"/>
            <path d="M142.705 201.947c2.14 0 3.876-1.091 3.876-2.432 0-1.34-1.736-2.431-3.876-2.431-2.14 0-3.875.08-3.875 2.431-.003 2.591 1.73 2.432 3.875 2.432z" fill="#000"/>
            <ellipse fill="#DDD" cx="152.353" cy="206.921" rx="2.28" ry="13.45"/>
            <path d="M150.831 194.777c1.256-.782 2.167.015 2.836 1.09.669 1.077.84 2.024-.415 2.805-1.255.78-2.814.54-3.483-.534s-.191-2.58 1.062-3.361z" fill="#FFCFAE"/>
            <ellipse fill="#FFF" transform="rotate(-31.88 149.647 193.325)" cx="149.647" cy="193.325" rx="3.038" ry="5.333"/>
            <path d="M150.837 219.492c1.262.785 2.18-.015 2.851-1.095.672-1.08.845-2.034-.416-2.82-1.261-.785-2.83-.544-3.495.537-.666 1.08-.203 2.593 1.06 3.378z" fill="#FFCFAE"/>
            <ellipse fill="#FFF" transform="rotate(-58.12 149.646 220.952)" cx="149.646" cy="220.952" rx="5.362" ry="3.053"/>
            <path d="M140.804 219.362l-.304-4.616c-.152-4.56-.304-9.27 0-14.286l.353-5.504c.54-3.8 3.012-6.535 5.893-6.535 2.9 0 5.383 2.781 5.903 6.606l.938 6.921a45.427 45.427 0 0 1-.127 13.032l-.694 4.465c-.59 3.8-3.084 6.512-5.974 6.512-2.915-.003-5.421-2.762-5.988-6.595z" fill="#FFF"/>
            <path d="M155.848 207.073a7.067 7.067 0 1 1-7.064-7.073 7.067 7.067 0 0 1 7.067 7.067" fill="#FFCFAE"/>
            <path d="M148.784 200c6.915.912.467 2.354 3.876 7.75 3.647 5.776.027 6.384-3.876 6.384s-9.346-1.976-9.498-6.991c-.152-5.015 5.626-7.648 9.498-7.143z" fill="#263038"/>
            <ellipse fill="#263038" transform="rotate(-1.89 139.406 206.978)" cx="139.406" cy="206.978" rx="2.333" ry="3.503"/>
            <path d="M115.684 118.88a7.067 7.067 0 1 1 3.365 13.727 7.067 7.067 0 0 1-3.365-13.727" fill="#FFCFAE"/>
            <path d="M110.505 127.427c-.76-6.933 2.174-1.014 6.604-5.61 4.74-4.917 6.193-1.546 7.124 2.244.93 3.79.303 9.548-4.528 10.89-4.831 1.342-8.775-3.644-9.2-7.524z" fill="#263038"/>
            <ellipse fill="#263038" transform="rotate(-15.67 119.48 134.879)" cx="119.48" cy="134.879" rx="3.503" ry="2.333"/>
            <path d="M36.778 103.204a7.067 7.067 0 1 1-7.455-12.008 7.067 7.067 0 0 1 7.455 12.008" fill="#FFCFAE"/>
            <path d="M39.058 93.465c2.872 6.356-1.754 1.638-4.541 7.38-2.984 6.144-5.41 3.39-7.467.074-2.058-3.316-3.25-8.984.93-11.756 4.18-2.772 9.471.752 11.078 4.302z" fill="#263038"/>
            <ellipse fill="#263038" transform="rotate(-33.73 28.22 89.17)" cx="28.219" cy="89.171" rx="3.503" ry="2.333"/>
        </g>
        <g transform="translate(69.705 3.951)">
            <circle fill="#2B90FF" fill-rule="nonzero" opacity=".1" cx="183.757" cy="183.707" r="80.827"/>
            <circle fill="#2B90FF" fill-rule="nonzero" opacity=".08" cx="183.757" cy="183.707" r="120.629"/>
            <circle fill="#2B90FF" fill-rule="nonzero" opacity=".1" cx="183.757" cy="183.707" r="154.517"/>
            <circle fill="#2B90FF" fill-rule="nonzero" opacity=".06" cx="183.757" cy="183.707" r="183.707"/>
            <circle stroke="#2B90FF" stroke-width="4" opacity=".06" cx="183.757" cy="183.707" r="183.707"/>
        </g>
        <path d="M92.046 0h350v78.419h-350z" fill-rule="nonzero" fill="#FFF"/>
        <g fill-rule="nonzero">
            <path fill="url(#a)" d="M0 0h168v85.106H0z" transform="translate(.334 268.757)"/>
            <path fill="url(#b)" transform="matrix(-1 0 0 1 840.334 268.757)" d="M330 0h180v88.106H330z"/>
        </g>
        <g transform="translate(179.28 158.967)" fill-rule="nonzero">
            <circle fill="#2B90FF" cx="7.415" cy="184.24" r="7.327"/>
            <circle fill="#FFB522" cx="57.736" cy="70.305" r="7.327"/>
            <path d="M8.119 183.366l-.304 1.322 1.215 1.157.864 1.717a.444.444 0 1 1-.709.534l-.846-1.754-1.337-1.231-.342 1.308-1.084 1.589a.444.444 0 1 1-.81-.36l1.123-1.59.74-3.243-.865.384c0 .012-.304.986-.304.986a.378.378 0 0 1-.721-.22l.4-1.31 2.002-.84a.89.89 0 0 1 .54-.069.789.789 0 0 1 .289.132l1.206 1.704.784.041a.38.38 0 0 1-.039.76l-.99-.052c-.153-.007-.252-.129-.34-.258l-.472-.707zm-.095-1.89a.76.76 0 1 1 .002-.002l-.002.002z" fill="#FFF"/>
            <circle fill="#2B90FF" cx="64.102" cy="175.426" r="7.327"/>
            <path d="M64.805 174.552l-.303 1.322 1.215 1.156.864 1.718a.444.444 0 1 1-.709.533l-.846-1.754-1.338-1.23-.341 1.308-1.084 1.588a.444.444 0 1 1-.81-.36l1.123-1.59.74-3.243-.865.384c0 .013-.304.987-.304.987a.378.378 0 0 1-.721-.22l.4-1.31 2.002-.841a.89.89 0 0 1 .54-.068.789.789 0 0 1 .289.132l1.206 1.703.784.042a.38.38 0 1 1-.04.76l-.99-.052c-.152-.008-.25-.13-.339-.259l-.473-.706zm-.094-1.89a.76.76 0 1 1 .002-.002l-.002.001z" fill="#FFF"/>
            <circle fill="#2B90FF" cx="135.834" cy="178.465" r="7.327"/>
            <path d="M136.538 177.591l-.304 1.322 1.216 1.157.863 1.717a.444.444 0 1 1-.708.534l-.847-1.754-1.337-1.231-.342 1.308-1.084 1.589a.444.444 0 1 1-.81-.36l1.124-1.59.74-3.243-.865.384c0 .012-.304.986-.304.986a.378.378 0 0 1-.722-.22l.401-1.31 2.002-.84a.89.89 0 0 1 .54-.069.789.789 0 0 1 .288.132l1.207 1.704.784.041a.38.38 0 0 1-.04.76l-.99-.052c-.152-.007-.251-.129-.34-.258l-.472-.707zm-.094-1.89a.76.76 0 1 1 .001-.002l-.001.002zM61.55 69.094a.597.597 0 0 0-.463-.22h-.478l-1.857-2.292a.333.333 0 1 0-.53.404l.012.016 1.52 1.866h-4.116l1.52-1.866a.334.334 0 1 0-.49-.456l-.027.033-1.858 2.293h-.388a.6.6 0 0 0-.588.718l.77 3.875a.87.87 0 0 0 .852.698h4.633a.87.87 0 0 0 .851-.698l.77-3.875a.597.597 0 0 0-.133-.496zm-4.813 3.142a.334.334 0 0 1-.667 0v-1.368a.334.334 0 1 1 .667 0v1.368zm1.333 0a.334.334 0 1 1-.667 0v-1.368a.334.334 0 1 1 .667 0v1.368zm1.333 0a.334.334 0 0 1-.667 0v-1.368a.334.334 0 1 1 .667 0v1.368z" fill="#FFF"/>
            <circle fill="#FFB522" cx="137.894" cy="64.278" r="7.327"/>
            <path d="M141.705 63.07a.597.597 0 0 0-.463-.22h-.478l-1.858-2.294a.333.333 0 1 0-.53.404l.012.016 1.52 1.866h-4.118l1.52-1.866a.334.334 0 1 0-.49-.456l-.027.033-1.858 2.294h-.388a.6.6 0 0 0-.588.717l.77 3.875a.87.87 0 0 0 .852.698h4.633a.87.87 0 0 0 .851-.698l.77-3.875a.597.597 0 0 0-.13-.494zm-4.813 3.141a.334.334 0 1 1-.667 0v-1.368a.334.334 0 0 1 .667 0v1.368zm1.333 0a.334.334 0 0 1-.667 0v-1.368a.334.334 0 1 1 .667 0v1.368zm1.333 0a.334.334 0 0 1-.667 0v-1.368a.334.334 0 1 1 .667 0v1.368z" fill="#FFF"/>
            <circle fill="#FFB522" cx="102.179" cy="7.439" r="7.327"/>
            <path d="M105.99 6.231a.597.597 0 0 0-.463-.22h-.477l-1.859-2.294a.333.333 0 1 0-.53.405l.012.015 1.52 1.866h-4.117l1.52-1.866a.334.334 0 0 0-.49-.456l-.027.033-1.859 2.294h-.387a.6.6 0 0 0-.588.717l.77 3.875a.87.87 0 0 0 .851.698h4.634a.87.87 0 0 0 .851-.698l.77-3.875a.597.597 0 0 0-.13-.494zm-4.812 3.141a.334.334 0 0 1-.667 0V8.005a.334.334 0 0 1 .667 0v1.367zm1.333 0a.334.334 0 1 1-.668 0V8.005a.334.334 0 0 1 .668 0v1.367zm1.332 0a.334.334 0 0 1-.667 0V8.005a.334.334 0 1 1 .667 0v1.367z" fill="#FFF"/>
        </g>
        <g transform="translate(27 78.267)" fill-rule="nonzero">
            <path fill="#EAEAEA" d="M320.061 5.927h124.62v185.41h-124.62zM6.991 5.927h124.62v185.258H6.991z"/>
            <path fill="#FFF" d="M437.842 0H450v193.161h-12.158z"/>
            <path fill="#FFF" d="M317.174 12.158V0h132.219v12.158z"/>
            <path fill="#D8EAFF" d="M321.124 193.161v-3.495h61.55v3.495z"/>
            <ellipse fill="#000" opacity=".08" cx="376.809" cy="36.796" rx="16.322" ry="7.733"/>
            <path d="M374.198 38.526c0 2.466-1.257 4.466-2.809 4.466-1.552 0-2.808-2-2.808-4.466 0-2.467.092-4.467 2.808-4.467 2.992 0 2.809 2 2.809 4.467zM384.988 38.526c0 2.466-1.257 4.466-2.809 4.466-1.551 0-2.808-2-2.808-4.466 0-2.467.093-4.467 2.808-4.467 2.993 0 2.809 2 2.809 4.467z" fill="#000"/>
            <path d="M364.377 35.41c-.781 1.256.015 2.168 1.091 2.836 1.076.669 2.023.84 2.804-.415.781-1.255.541-2.814-.533-3.483-1.075-.669-2.582-.193-3.362 1.062z" fill="#FFCFAE"/>
            <ellipse fill="#2B90FF" transform="rotate(-58.12 362.961 34.237)" cx="362.961" cy="34.237" rx="3.038" ry="5.333"/>
            <path d="M389.091 35.41c.784 1.262-.015 2.18-1.096 2.851-1.08.672-2.033.845-2.819-.416-.785-1.261-.544-2.83.537-3.495 1.08-.666 2.594-.197 3.378 1.06z" fill="#FFCFAE"/>
            <ellipse fill="#2B90FF" transform="rotate(-31.88 390.521 34.198)" cx="390.521" cy="34.198" rx="5.362" ry="3.053"/>
            <path d="M388.962 25.38l-4.6-.68a50.412 50.412 0 0 0-14.405-.042l-5.4.76c-3.8.54-6.536 3.012-6.536 5.894 0 2.9 2.781 5.383 6.607 5.902l6.92.938c4.328.585 8.717.542 13.033-.126l4.465-.695c3.799-.59 6.512-3.083 6.512-5.974-.005-2.903-2.765-5.409-6.596-5.977z" fill="#2B90FF"/>
            <path d="M376.672 40.426a7.067 7.067 0 1 0 0-14.134 7.067 7.067 0 0 0 0 14.134" fill="#FFCFAE"/>
            <path d="M369.605 33.359c.912 6.915 4.103 1.443 7.067 7.067 1.823 3.452 7.067-3.165 7.067-7.067a7.067 7.067 0 0 0-7.067-7.067c-3.903 0-7.578 3.191-7.067 7.067z" fill="#263038"/>
            <ellipse fill="#000" opacity=".08" cx="376.761" cy="85.392" rx="16.322" ry="7.733"/>
            <path d="M379.372 83.663c0-2.467 1.257-4.467 2.809-4.467 1.552 0 2.808 2 2.808 4.467 0 2.466-.092 4.466-2.808 4.466-2.993 0-2.809-2-2.809-4.466zM368.582 83.663c0-2.467 1.257-4.467 2.809-4.467 1.551 0 2.808 2 2.808 4.467 0 2.466-.093 4.466-2.808 4.466-2.993 0-2.809-2-2.809-4.466z" fill="#000"/>
            <path d="M389.193 86.778c.781-1.255-.015-2.167-1.091-2.836-1.076-.668-2.023-.84-2.804.415-.781 1.255-.541 2.815.533 3.483 1.075.67 2.582.193 3.362-1.062z" fill="#FFCFAE"/>
            <ellipse fill="#FFF" transform="rotate(-58.12 390.635 87.988)" cx="390.635" cy="87.988" rx="3.038" ry="5.333"/>
            <path d="M364.479 86.778c-.784-1.261.015-2.18 1.095-2.85 1.081-.673 2.034-.846 2.82.415.785 1.262.544 2.83-.537 3.496-1.08.666-2.594.196-3.378-1.06z" fill="#FFCFAE"/>
            <ellipse fill="#FFF" transform="rotate(-31.945 363.655 87.413)" cx="363.655" cy="87.413" rx="5.371" ry="3.058"/>
            <path d="M364.608 96.809l4.6.68c4.775.703 9.626.717 14.404.041l5.402-.76c3.8-.539 6.535-3.012 6.535-5.893 0-2.9-2.782-5.383-6.607-5.903l-6.92-.938a45.427 45.427 0 0 0-13.033.127l-4.465.694c-3.8.59-6.512 3.084-6.512 5.974.003 2.903 2.765 5.41 6.596 5.978zM337.082 51.672h79.635v15.805h-79.635z" fill="#FFF"/>
            <ellipse fill="#000" opacity=".08" transform="rotate(-10.01 401.627 153.31)" cx="401.627" cy="153.31" rx="16.322" ry="13.678"/>
            <path d="M396.541 146.2c.429 2.432-.456 4.618-1.99 4.887-1.533.269-3.113-1.48-3.542-3.91-.428-2.43-.685-4.408 1.99-4.887 2.946-.52 3.112 1.479 3.542 3.91zM410.047 160.638c.429 2.432-.456 4.617-1.99 4.886-1.533.27-3.113-1.48-3.542-3.91-.428-2.43-.685-4.407 1.99-4.886 2.946-.52 3.112 1.479 3.542 3.91z" fill="#000"/>
            <path d="M405.37 160.622c-.273-1.552-.437-2.82 1.271-3.122 1.883-.333 1.988.945 2.263 2.497M388.705 158.31c-.55 1.368.392 2.128 1.567 2.603 1.175.476 2.138.476 2.688-.895.55-1.37.045-2.866-1.132-3.343-1.176-.477-2.571.263-3.123 1.635z" fill="#FFCFAE"/>
            <ellipse fill="#FFF" transform="rotate(-68.14 387.074 157.363)" cx="387.074" cy="157.363" rx="3.038" ry="5.333"/>
            <ellipse fill="#DDD" transform="rotate(-16.19 393.983 146.817)" cx="393.983" cy="146.817" rx="4.076" ry="3.038"/>
            <ellipse fill="#DDD" transform="rotate(-16.19 406.854 158.814)" cx="406.854" cy="158.814" rx="3.919" ry="3.038"/>
            <path d="M413.044 154.018c.992 1.107.363 2.15-.584 2.999-.946.85-1.855 1.185-2.848.079-.992-1.107-1.027-2.692-.08-3.541.947-.85 2.521-.643 3.512.463z" fill="#FFCFAE"/>
            <ellipse fill="#FFF" transform="rotate(-41.89 414.25 152.59)" cx="414.25" cy="152.59" rx="5.362" ry="3.053"/>
            <path d="M411.173 144.16l-4.597.501c-4.517.643-9.182 1.313-14.068 2.483l-5.36 1.304c-3.646 1.19-5.917 4.104-5.415 6.941.504 2.856 3.674 4.818 7.531 4.664l6.98-.28a45.427 45.427 0 0 0 12.81-2.39l4.277-1.46c3.634-1.242 5.877-4.17 5.376-7.016-.508-2.867-3.661-4.855-7.534-4.747z" fill="#FFF"/>
            <path d="M401.685 161.11a7.067 7.067 0 1 0-2.458-13.917 7.067 7.067 0 0 0 2.458 13.918" fill="#FFCFAE"/>
            <path d="M393.498 155.381c2.1 6.65 4.292.709 8.189 5.731 2.392 3.084 6.409-4.345 5.73-8.188a7.067 7.067 0 0 0-8.188-5.731c-3.845.68-6.907 4.467-5.73 8.188z" fill="#263038"/>
            <path fill="#FFF" d="M308.967 0h12.158v193.161h-12.158zM129.027 0h12.158v193.161h-12.158z"/>
            <ellipse fill="#000" opacity=".08" transform="rotate(-.72 57.44 150.247)" cx="57.44" cy="150.247" rx="7.733" ry="16.322"/>
            <path d="M59.19 152.839c2.467-.03 4.482 1.202 4.501 2.752.02 1.55-1.965 2.833-4.43 2.865-2.465.032-4.466-.037-4.501-2.752-.038-2.993 1.963-2.835 4.43-2.865zM59.055 142.05c2.466-.03 4.481 1.202 4.501 2.752.02 1.55-1.965 2.833-4.43 2.865-2.465.032-4.466-.036-4.501-2.752-.038-2.994 1.963-2.834 4.43-2.865z" fill="#000"/>
            <path d="M56.196 162.698c1.264.76 2.167-.043 2.822-1.127.655-1.083.815-2.033-.456-2.797-1.27-.765-2.82-.507-3.475.577-.655 1.084-.155 2.582 1.109 3.347z" fill="#FFCFAE"/>
            <ellipse fill="#FFF" transform="rotate(-58.84 55.026 164.14)" cx="55.026" cy="164.14" rx="5.333" ry="3.038"/>
            <path d="M55.892 137.985c1.252-.801 2.18-.012 2.865 1.064s.87 2.022-.382 2.823c-1.252.801-2.822.58-3.507-.492-.686-1.071-.227-2.594 1.024-3.395z" fill="#FFCFAE"/>
            <ellipse fill="#FFF" transform="rotate(-32.59 54.67 136.574)" cx="54.671" cy="136.574" rx="3.053" ry="5.362"/>
            <path d="M45.862 138.24l-.623 4.608a50.412 50.412 0 0 0 .14 14.403l.834 5.39c.586 3.79 3.094 6.503 5.974 6.467 2.9-.037 5.348-2.848 5.82-6.687l.85-6.932c.53-4.334.433-8.723-.289-13.03l-.75-4.456c-.639-3.786-3.166-6.474-6.055-6.438-2.91.046-5.382 2.836-5.901 6.675z" fill="#FFF"/>
            <ellipse fill="#000" opacity=".08" transform="rotate(-47.57 79.377 44.223)" cx="79.377" cy="44.223" rx="7.733" ry="16.322"/>
            <path d="M76.281 43.748c-1.672 1.823-3.942 2.448-5.086 1.4-1.145-1.046-.724-3.37.94-5.19 1.664-1.821 3.082-3.235 5.087-1.402 2.21 2.022.725 3.371-.94 5.192zM84.246 51.029c-1.672 1.824-3.942 2.448-5.086 1.401-1.145-1.047-.724-3.37.94-5.191 1.664-1.821 3.082-3.234 5.087-1.402 2.208 2.02.723 3.371-.94 5.192z" fill="#000"/>
            <path d="M71.135 34.822c-1.422.4-1.451 1.61-1.11 2.83.343 1.22.926 1.985 2.35 1.585 1.424-.4 2.3-1.711 1.956-2.932-.343-1.22-1.772-1.883-3.196-1.483z" fill="#FFCFAE"/>
            <ellipse fill="#2B90FF" transform="rotate(-15.69 70.886 32.979)" cx="70.886" cy="32.979" rx="3.038" ry="5.333"/>
            <path d="M89.374 51.502c-.272 1.46-1.482 1.597-2.736 1.367-1.254-.23-2.071-.749-1.8-2.21.273-1.46 1.509-2.455 2.76-2.221 1.25.234 2.048 1.603 1.776 3.064z" fill="#FFCFAE"/>
            <ellipse fill="#2B90FF" transform="rotate(-79.44 91.244 51.597)" cx="91.244" cy="51.597" rx="3.053" ry="5.362"/>
            <path d="M96.049 44.01l-2.937-3.607a50.412 50.412 0 0 0-10.603-9.75l-4.503-3.077c-3.164-2.163-6.86-2.19-8.804-.064-1.956 2.14-1.58 5.85.894 8.815l4.475 5.361a45.427 45.427 0 0 0 9.704 8.701l3.761 2.499c3.192 2.127 6.888 2.118 8.838-.014 1.965-2.15 1.618-5.862-.825-8.865z" fill="#2B90FF"/>
            <path d="M76.827 46.82a7.067 7.067 0 1 0 9.538-10.431 7.067 7.067 0 0 0-9.538 10.43" fill="#FFCFAE"/>
            <path d="M76.378 36.836c-3.992 5.719 2.055 3.834.447 9.983-.986 3.777 7.351 2.432 9.984-.447a7.067 7.067 0 0 0-.447-9.983c-2.88-2.634-7.75-2.754-9.984.447z" fill="#263038"/>
            <path fill="#FFF" d="M12.158 193.161H0V.001h12.158z"/>
            <path fill="#FFF" d="M.608 12.158V0h132.22v12.158z"/>
            <path fill="#D8EAFF" d="M67.325 193.16v-3.494h61.55v3.495z"/>
            <ellipse fill="#000" opacity=".08" cx="108.796" cy="149.635" rx="7.733" ry="16.322"/>
            <path d="M107.067 152.246c-2.467 0-4.467 1.257-4.467 2.809 0 1.551 2 2.808 4.467 2.808 2.466 0 4.466-.092 4.466-2.808 0-2.993-2-2.809-4.466-2.809zM107.067 141.456c-2.467 0-4.467 1.257-4.467 2.808 0 1.552 2 2.809 4.467 2.809 2.466 0 4.466-.093 4.466-2.809 0-2.992-2-2.808-4.466-2.808z" fill="#000"/>
            <path d="M110.182 162.067c-1.255.781-2.167-.015-2.835-1.091-.67-1.076-.84-2.023.414-2.804 1.256-.781 2.815-.541 3.484.533.668 1.075.193 2.582-1.063 3.362z" fill="#FFCFAE"/>
            <ellipse fill="#2B90FF" transform="rotate(-31.88 111.38 163.484)" cx="111.38" cy="163.484" rx="3.038" ry="5.333"/>
            <path d="M110.182 137.353c-1.261-.785-2.179.015-2.85 1.095-.672 1.08-.846 2.034.416 2.82 1.261.785 2.83.544 3.495-.537.666-1.08.196-2.594-1.06-3.378z" fill="#FFCFAE"/>
            <ellipse fill="#2B90FF" transform="rotate(-58.12 111.373 135.929)" cx="111.373" cy="135.929" rx="5.362" ry="3.053"/>
            <path d="M120.213 137.482l.68 4.6c.704 4.775.718 9.626.042 14.404l-.76 5.402c-.54 3.799-3.012 6.534-5.894 6.534-2.9 0-5.383-2.78-5.903-6.606l-.937-6.92a45.427 45.427 0 0 1 .126-13.033l.694-4.465c.59-3.8 3.084-6.512 5.975-6.512 2.902.005 5.408 2.764 5.977 6.596z" fill="#2B90FF"/>
            <path d="M105.167 149.772a7.067 7.067 0 1 1 14.134 0 7.067 7.067 0 0 1-14.134 0" fill="#FFCFAE"/>
            <path d="M112.234 156.839c-6.915-.912-1.444-4.103-7.067-7.067-3.453-1.824 3.164-7.067 7.067-7.067a7.067 7.067 0 0 1 7.067 7.067c0 3.903-3.192 7.578-7.067 7.067z" fill="#263038"/>
            <ellipse fill="#000" opacity=".08" transform="rotate(-52.28 64.13 61.115)" cx="64.13" cy="61.115" rx="7.733" ry="16.322"/>
            <path d="M63.125 58.144c1.509-1.951 1.737-4.302.51-5.25-1.226-.949-3.445-.137-4.954 1.814-1.51 1.952-2.66 3.59-.51 5.251 2.367 1.83 3.445.135 4.954-1.815zM71.66 64.742c1.509-1.952 1.737-4.303.51-5.251-1.226-.948-3.445-.137-4.954 1.814-1.51 1.952-2.66 3.589-.51 5.26 2.367 1.824 3.444.131 4.954-1.823z" fill="#000"/>
            <path d="M53.45 54.6c.152-1.47 1.339-1.705 2.597-1.576 1.258.13 2.114.573 1.964 2.043-.15 1.47-1.294 2.558-2.554 2.431-1.26-.126-2.158-1.427-2.007-2.898z" fill="#FFCFAE"/>
            <ellipse fill="#FFF" transform="rotate(-84.16 51.59 54.665)" cx="51.59" cy="54.665" rx="3.038" ry="5.333"/>
            <path d="M73.002 69.716c1.392-.518 1.32-1.733.876-2.927-.443-1.195-1.09-1.914-2.484-1.395-1.394.518-2.161 1.905-1.718 3.098.444 1.193 1.933 1.742 3.326 1.224z" fill="#FFCFAE"/>
            <ellipse fill="#FFF" transform="rotate(-20.4 73.398 71.552)" cx="73.398" cy="71.552" rx="3.053" ry="5.362"/>
            <path d="M66.761 77.573l-4.054-2.28a50.412 50.412 0 0 1-11.418-8.78l-3.8-3.91c-2.671-2.747-3.33-6.383-1.568-8.662 1.774-2.294 5.494-2.558 8.837-.626l6.049 3.495a45.427 45.427 0 0 1 10.233 8.073l3.106 3.281c2.64 2.789 3.264 6.424 1.497 8.71-1.783 2.305-5.503 2.596-8.882.699zM78.115 189.665V110.03H93.92v79.635z" fill="#FFF"/>
            <path d="M61.464 150.533a7.067 7.067 0 1 0-14.134 0 7.067 7.067 0 0 0 14.134 0" fill="#FFCFAE"/>
            <path d="M54.397 157.599c6.915-.912.466-2.354 3.875-7.751 3.647-5.775.027-6.383-3.875-6.383-3.903 0-9.347 1.976-9.499 6.99-.152 5.016 5.628 7.656 9.499 7.144z" fill="#263038"/>
            <ellipse fill="#263038" transform="rotate(-88.11 45.037 150.632)" cx="45.037" cy="150.632" rx="3.503" ry="2.333"/>
            <path d="M376.52 80.7a7.067 7.067 0 1 0 0 14.133 7.067 7.067 0 0 0 0-14.134" fill="#FFCFAE"/>
            <path d="M383.587 87.766c-.912-6.915-2.354-.467-7.751-3.875-5.775-3.648-6.383-.028-6.383 3.875s1.976 9.346 6.99 9.498c5.016.152 7.654-5.623 7.144-9.498z" fill="#263038"/>
            <ellipse fill="#263038" transform="rotate(-88.11 376.61 97.114)" cx="376.61" cy="97.114" rx="2.333" ry="3.503"/>
            <path d="M66.422 58.906a7.067 7.067 0 1 0-8.524 11.274 7.067 7.067 0 0 0 8.524-11.274" fill="#FFCFAE"/>
            <path d="M67.798 68.805c3.442-6.065-1.596-1.791-3.847-7.765-2.407-6.393-5.074-3.871-7.428-.76-2.354 3.11-4.058 8.649-.152 11.793 3.906 3.144 9.5.126 11.427-3.268z" fill="#263038"/>
            <ellipse fill="#263038" transform="rotate(-51.02 56.607 72.074)" cx="56.607" cy="72.074" rx="2.333" ry="3.503"/>
        </g>
        <path d="M345.693 78.268v12.158H156.027V78.268z" fill-rule="nonzero" fill="#FFF"/>
    </g>
</svg>
