<svg width="460" height="436" viewBox="0 0 460 436" xmlns="http://www.w3.org/2000/svg">
    <defs>
        <linearGradient x1="0%" y1="50%" y2="50%" id="a">
            <stop stop-color="#3394FF" stop-opacity=".6" offset="0%"/>
            <stop stop-color="#FFF" stop-opacity="0" offset="100%"/>
        </linearGradient>
    </defs>
    <g fill-rule="nonzero" fill="none">
        <path d="M0 238.708c0 5.55 3.61 11.106 10.875 15.32l247.214 143.54c14.546 8.454 38.362 8.454 52.909 0l138.03-80.156c7.23-4.206 10.848-9.726 10.848-15.259v-5.641c0-5.572-3.589-11.157-10.883-15.393l-247.12-143.554c-14.558-8.44-38.361-8.44-52.907 0L10.875 217.757C3.589 221.992 0 227.577 0 233.149v5.56z" fill="#000" opacity=".03"/>
        <path d="M2.73 172.547c0 5.507 3.58 11.014 10.784 15.189l245.213 142.382c14.43 8.384 38.054 8.384 52.483 0l136.919-79.51c7.173-4.17 10.745-9.647 10.775-15.133v-5.58c0-5.529-3.558-11.066-10.797-15.267l-245.14-142.43c-14.442-8.375-38.053-8.375-52.483 0L13.51 151.76c-7.225 4.205-10.81 9.743-10.788 15.271l.009 5.516z" fill="#FFF"/>
        <path d="M353.087 279.375c-4.686-2.734-4.686-7.195 0-9.916 4.687-2.721 12.381-2.721 17.06 0 4.677 2.72 4.69 7.195 0 9.916-4.692 2.72-12.364 2.7-17.06 0z" opacity=".1" fill="#B3B3B3"/>
        <path d="M97.272 124.113c-1.51-.868-1.51-2.33 0-3.199a6.075 6.075 0 0 1 5.507 0c1.51.868 1.51 2.318 0 3.199-1.73.88-3.777.88-5.507 0z" fill="#323234"/>
        <g opacity=".3" fill="#000">
            <path d="M448.133 250.616c7.174-4.17 10.745-9.647 10.776-15.132v-5.207c-.178 5.394-3.759 10.753-10.797 14.845l.021 5.494z" opacity=".5"/>
            <path d="M258.731 330.127c14.43 8.384 38.054 8.384 52.484 0v-5.499c-14.43 8.384-38.05 8.384-52.484 0v5.499z" opacity=".54"/>
        </g>
        <path fill="#000" opacity=".1" d="M311.215 324.628l136.918-79.506v5.494l-136.918 79.51zM13.518 182.246L258.73 324.628v5.499L13.518 187.744z"/>
        <path d="M13.518 187.744c-7.204-4.183-10.784-9.69-10.784-15.188v-5.173c.156 5.394 3.736 10.766 10.797 14.863l-.013 5.498z" fill="#000" opacity=".15"/>
        <path d="M112.344 206.977l3.706-2.143 104.08 60.099-3.697 2.148-104.09-60.104m-3.766-10.506l3.736-2.17 126.005 72.754-3.728 2.17-126.013-72.754m179.516 73.34l2.721-1.585 6.661 3.867-2.72 1.584-6.666-3.85m-18.717-10.796l4.37-2.56 6.666 3.849-4.37 2.547-6.666-3.85m-74.958-43.282l8.78-5.104 6.634 3.832-8.774 5.12-6.64-3.848m-93.687-54.098l10.888-6.336 6.635 3.832-10.901 6.336-6.627-3.832m149.903 86.55l12.099-7.031 6.665 3.84-12.094 7.04-6.666-3.85m-74.958-43.279l12.785-7.42 6.666 3.849-12.785 7.399-6.666-3.85m-56.197-32.45l18.226-10.59 6.635 3.832-18.226 10.589-6.627-3.832m37.451 21.633l25.456-14.794 6.657 3.858-25.443 14.807-6.666-3.85m-45.318-38.787l15.228-8.848 6.635 3.832-15.228 8.848-6.635-3.832m26.072 6.566l12.151-7.047 6.627 3.832-12.151 7.047-6.627-3.832m75.475 64.695l31.84-18.508 6.635 3.831-31.84 18.504-6.635-3.831m-9.981-15.931l26.38-15.306 6.635 3.832-26.354 15.31-6.635-3.832m-20.83-31.336l10.618-6.17 6.666 3.84-10.619 6.166-6.666-3.849m80.348 61.874l26.129-15.189 6.67 3.854-26.129 15.189-6.665-3.841m-124.547-57.895l41.964-24.388 6.661 3.85-41.964 24.388-6.665-3.85m106.828 24.793l11.066-6.427 6.626 3.831-11.053 6.427-6.635-3.831m-13.132 29.31l54.397-31.602 6.644 3.828-54.375 31.605-6.666-3.832m41.86 19.094l61.275-35.584 6.666 3.849-61.258 35.585-6.683-3.85m17.068 11.76l64.226-37.32 6.665 3.84-64.226 37.321-6.665-3.849m95.371-53.477c.157-.239.37-.436.62-.573a4.1 4.1 0 0 1 3.707 0c1.024.59 1.024 1.563 0 2.17a4.123 4.123 0 0 1-3.715 0c-.599-.351-.868-.837-.746-1.302l-24.77-3.632c-.162.225-.37.412-.613.547a4.1 4.1 0 0 1-3.706 0c-.716-.434-.933-1.016-.65-1.54l-21.148-5.395a2.17 2.17 0 0 1-.433.33 4.188 4.188 0 0 1-3.746 0c-1.015-.59-1.015-1.562 0-2.17.273-.15.565-.262.868-.33l-7.472-13.548a4.088 4.088 0 0 1-2.37-.434 1.345 1.345 0 0 1-.785-1.054l-29.284-1.42c-.134.35-.392.637-.725.808-1.165.6-2.549.6-3.714 0-.36-.18-.637-.49-.777-.868l-33.932.933a1.337 1.337 0 0 1-.763.985c-1.166.6-2.55.6-3.715 0a1.324 1.324 0 0 1-.755-1.003l-30.225-.95a1.567 1.567 0 0 1-.755.868 4.123 4.123 0 0 1-3.715 0c-1.016-.59-1.016-1.562 0-2.17a3.762 3.762 0 0 1 1.627-.434l.352-18.903a3.75 3.75 0 0 1-1.584-.434c-1.016-.586-1.016-1.562 0-2.17a4.036 4.036 0 0 1 2.37-.434l14.016-27.773a3.038 3.038 0 0 1-.868-.33 1.471 1.471 0 0 1-.716-.764l-36.756 2.318c-.03.49-.339.92-.794 1.102a4.166 4.166 0 0 1-3.706 0c-.59-.343-.838-.816-.747-1.263l-25.578-3.25c-.155.263-.38.478-.65.62a4.1 4.1 0 0 1-3.706 0c-1.016-.59-1.025-1.562 0-2.17a4.1 4.1 0 0 1 3.706 0c.59.343.867.803.768 1.242l25.603 3.228c.154-.243.368-.443.62-.581a4.07 4.07 0 0 1 3.707 0c.31.157.559.416.703.733l36.77-2.309c.037-.474.33-.89.763-1.084 1.162-.601 2.544-.601 3.706 0 1.016.59 1.055 1.54 0 2.17a4.027 4.027 0 0 1-2.33.433l-14.065 27.791c.304.064.596.172.868.321 1.046.612 1.085 1.567.043 2.17a3.81 3.81 0 0 1-1.657.434l-.33 18.89a3.71 3.71 0 0 1 1.593.434c.407.19.693.571.763 1.016l30.226.95c.117-.361.375-.66.716-.829 1.165-.6 2.549-.6 3.714 0 .348.175.618.474.755.838l33.923-.912a1.35 1.35 0 0 1 .768-1.002 4.04 4.04 0 0 1 3.737 0c.423.19.717.586.776 1.046l29.297 1.419c.138-.35.399-.637.733-.807a4.105 4.105 0 0 1 3.706 0c1.016.59 1.025 1.562 0 2.17a3.038 3.038 0 0 1-.828.32l7.433 13.562a3.966 3.966 0 0 1 2.413.395c.747.434.95 1.054.651 1.584l21.147 5.394a2.4 2.4 0 0 1 .434-.33 4.123 4.123 0 0 1 3.715 0c.629.36.868.868.755 1.302l24.735 3.65M202.96 82.392L30.377 182.672 258.64 314.473l162.154-94.226L192.53 88.445l10.454-6.075" fill="#FFF"/>
        <path d="M202.347 91.453l.777-.434 4.491 2.604-.764.455-4.504-2.604m1.78-1.037l.776-.434 4.491 2.604-.776.456-4.492-2.604m1.81-1.055l.746-.433 4.505 2.603-.747.434-4.504-2.604m222.187 124.799L202.833 83.16l-10.454 6.075 226.058 130.622 9.982-5.715" fill="#2B90FF" opacity=".1"/>
        <path fill="#E9E9E9" d="M238.318 267.055l-126.005-72.758-3.74 2.174 126.022 72.758 3.723-2.174M220.13 264.933l-104.08-60.1-3.706 2.144 104.094 60.104 3.693-2.148"/>
        <path fill="#2B90FF" d="M118.254 159.133l-6.635-3.832-10.892 6.336 6.626 3.828 10.901-6.332"/>
        <path fill="#2B90FF" opacity=".1" d="M133.482 150.28l-6.635-3.827-15.228 8.848 6.635 3.832 15.228-8.853"/>
        <path fill="#2B90FF" d="M144.326 165.695l-6.635-3.832-18.217 10.588 6.626 3.832 18.226-10.588"/>
        <path fill="#2B90FF" opacity=".1" d="M156.46 158.643l-6.627-3.828-12.142 7.048 6.635 3.832 12.134-7.052"/>
        <path fill="#2B90FF" d="M186.811 162.722l-6.665-3.85-41.964 24.39 6.665 3.849 41.964-24.389M189.046 183.149l-6.666-3.854-25.456 14.794 6.67 3.849 25.452-14.79"/>
        <path fill="#2B90FF" opacity=".1" d="M199.67 176.969l-6.67-3.84-10.62 6.166 6.666 3.854 10.623-6.18"/>
        <path fill="#2B90FF" d="M195.122 201.336l-6.666-3.854-12.785 7.425 6.666 3.85 12.785-7.421M209.833 214.459l-6.635-3.828-8.78 5.104 6.636 3.827 8.779-5.103"/>
        <path fill="#2B90FF" opacity=".1" d="M236.187 199.149l-6.635-3.828-26.354 15.31 6.635 3.828 26.354-15.31"/>
        <path fill="#2B90FF" d="M251.64 211.881l-6.635-3.827-31.84 18.508 6.636 3.827 31.84-18.508"/>
        <path fill="#2B90FF" opacity=".1" d="M262.698 205.454l-6.627-3.832-11.066 6.432 6.636 3.827 11.057-6.427"/>
        <path fill="#2B90FF" d="M292.945 209.594l-6.666-3.84-54.397 31.605 6.666 3.85 54.397-31.615M269.394 244.997l-6.666-3.841-12.103 7.03 6.67 3.85 12.099-7.04"/>
        <path fill="#2B90FF" opacity=".1" d="M295.523 229.821l-6.666-3.85-26.129 15.185 6.666 3.84 26.129-15.175"/>
        <path fill="#2B90FF" d="M280.408 260.315l-6.666-3.849-4.37 2.547 6.666 3.85 4.37-2.548"/>
        <path fill="#2B90FF" opacity=".1" d="M341.67 224.718l-6.67-3.85-61.258 35.598 6.666 3.85 61.262-35.598"/>
        <path fill="#2B90FF" d="M297.48 272.076l-6.67-3.85-2.721 1.584 6.665 3.85 2.726-1.584"/>
        <path fill="#2B90FF" opacity=".1" d="M361.719 234.738l-6.666-3.84-64.243 37.328 6.67 3.85 64.239-37.338"/>
        <path d="M159.815 131.13a4.1 4.1 0 0 0-3.706 0c-1.016.59-1.003 1.562 0 2.17a4.1 4.1 0 0 0 3.706 0c.27-.143.495-.358.65-.621l-2.547-.321.104-.29 2.543.29c.083-.434-.178-.898-.768-1.241M191.272 136.068l-2.66.165-2.556-.321c-.091.434.156.92.747 1.263 1.167.58 2.538.58 3.706 0 .447-.191.745-.621.768-1.107m-.768-1.046a4.07 4.07 0 0 0-3.706 0 1.692 1.692 0 0 0-.621.582l2.517.321 2.517-.165a1.532 1.532 0 0 0-.703-.733M230.225 133.616l-2.196.135c.137.334.392.605.716.764.27.153.563.265.868.33l.62-1.233m2.218-1.254a4.036 4.036 0 0 0-3.706 0c-.434.195-.727.61-.764 1.085l2.99-.183-.838 1.663a4.027 4.027 0 0 0 2.33-.434c1.047-.612 1.003-1.563 0-2.17M215.587 162.64a4.036 4.036 0 0 0-2.37.434c-1.002.59-1.002 1.566 0 2.17.49.26 1.031.408 1.585.433l.03-1.54.746-1.471m1.346.434a3.16 3.16 0 0 0-.868-.322l-.725 1.441-.03 1.493a3.81 3.81 0 0 0 1.657-.434c1.046-.607 1.003-1.562-.043-2.17M214.459 184.555a3.762 3.762 0 0 0-1.628.434c-1.002.59-1.002 1.562 0 2.17 1.169.589 2.547.589 3.715 0 .353-.184.623-.494.755-.869l-2.855-.09-.03-.135.03-1.523m2.122.434a3.71 3.71 0 0 0-1.593-.434v1.367l2.383.073a1.354 1.354 0 0 0-.764-1.015M252.782 187.276l-2.63.073-2.604-.09c.067.439.351.816.755 1.002 1.166.599 2.55.599 3.715 0 .402-.183.687-.551.764-.985m-.777-1.16c-1.165-.6-2.55-.6-3.715 0-.34.17-.598.468-.716.83l2.578.082 2.604-.074a1.55 1.55 0 0 0-.755-.837M291.93 186.399l-2.63-.126-2.604.074c.14.377.417.687.777.868 1.165.6 2.549.6 3.714 0 .333-.17.591-.458.725-.807m-.725-1.346a4.04 4.04 0 0 0-3.736 0 1.35 1.35 0 0 0-.768 1.003l2.651-.074 2.63.135a1.332 1.332 0 0 0-.777-1.046M323.617 187.93l-2.4-.112c.06.464.358.864.786 1.055.728.379 1.554.53 2.37.433l-.756-1.353m2.079-1.211a4.105 4.105 0 0 0-3.706 0c-.335.17-.596.457-.734.807l2.765.134.073.074.799 1.458c.29-.065.57-.174.829-.32 1.002-.591.994-1.563 0-2.17M331.845 202.837c-.304.068-.596.18-.868.33-1.002.59-1.002 1.562 0 2.17 1.179.59 2.566.59 3.745 0a2.17 2.17 0 0 0 .434-.33l-2.534-.646v-.079l-.799-1.449m2.886.308a3.966 3.966 0 0 0-2.413-.395l.764 1.398 2.3.581c.3-.53.091-1.15-.65-1.584M361.294 211.395l-2.54-.373-2.43-.62c-.277.529-.06 1.128.652 1.54a4.1 4.1 0 0 0 3.706 0c.241-.135.45-.322.612-.547m-.621-1.606a4.123 4.123 0 0 0-3.715 0 2.4 2.4 0 0 0-.434.33l2.391.612 2.504.36c.126-.434-.125-.941-.755-1.302M390.508 214.168a4.1 4.1 0 0 0-3.706 0c-.251.137-.464.334-.62.573l2.516.369-.104.29-2.526-.373c-.112.456.144.942.747 1.302 1.168.59 2.546.59 3.714 0 1.003-.59 1.003-1.562 0-2.17" fill="#2B90FF"/>
        <path d="M247.574 186.946l-30.225-.95a.785.785 0 0 1-.03.312l30.225.95a.798.798 0 0 1 .03-.312m-32.256-21.264h-.508l-.351 18.903c.176-.01.353-.01.53 0l.329-18.89m-29.15-30.091l-25.603-3.246a.963.963 0 0 1-.104.29l25.578 3.251c.023-.109.061-.214.113-.312m100.53 50.456l-33.922.911c.016.107.016.215 0 .322l33.931-.933a1.48 1.48 0 0 1-.03-.3m-56.54-51.112c-.179 0-.352-.052-.517-.082l-14.017 27.773c.164.02.326.05.486.091l14.047-27.803m91.132 52.596l-29.297-1.42c0 .098-.01.196-.03.291l29.284 1.42a.929.929 0 0 1 .043-.291m-93.301-54.076l-36.77 2.308a.868.868 0 0 1 .074.313l36.756-2.317a.742.742 0 0 1-.06-.3m158.23 81.311l-24.736-3.65c-.03.107-.075.207-.134.3l24.77 3.632a.907.907 0 0 1 .113-.286" fill="#2B90FF" opacity=".1"/>
        <path d="M160.565 132.358l-2.547-.321-.104.29 2.547.322a.963.963 0 0 0 .104-.291M191.199 135.756l-2.517.165-2.517-.321c-.052.098-.09.203-.113.312l2.556.321 2.66-.165a.868.868 0 0 0-.074-.312M227.968 133.451c0 .103.02.205.06.3l2.197-.135-.621 1.233c.165.03.343.06.516.082l.838-1.662M216.073 162.735a3.689 3.689 0 0 0-.486-.091l-.746 1.471-.03 1.54h.507l.03-1.492.725-1.44M214.988 184.555a4.617 4.617 0 0 0-.53 0l-.03 1.523.03.134 2.856.091a.785.785 0 0 0 .03-.312l-2.382-.074v-1.367M252.76 186.956l-2.604.085-2.577-.095c-.031.116-.041.239-.03.36l2.603.105 2.63-.085a1.467 1.467 0 0 0 0-.37M291.96 186.129l-2.63-.155-2.652.085c0 .116.01.231.03.345l2.605-.085 2.63.145c.02-.11.03-.223.03-.335" fill="#2B90FF"/>
        <path d="M356.533 210.124l-21.147-5.395c-.06.1-.13.193-.208.278l21.147 5.394c.059-.1.129-.193.208-.277m-31.644-20.917c-.17.04-.343.07-.517.09l7.473 13.549c.157-.039.317-.066.477-.082l-7.433-13.557" fill="#2B90FF" opacity=".1"/>
        <path d="M324.02 187.662l-2.764-.135a.929.929 0 0 0-.043.291l2.4.113.755 1.354c.174-.02.346-.051.516-.091l-.798-1.458-.074-.074M332.322 202.75c-.16.017-.32.044-.477.083l.799 1.45v.078l2.534.646c.079-.085.149-.178.208-.278l-2.3-.581-.764-1.397M361.428 211.096l-2.504-.36-2.391-.612c-.08.084-.15.177-.208.277l2.43.62 2.539.374c.06-.093.104-.193.134-.3M388.694 215.114l-2.517-.369a.907.907 0 0 0-.113.287l2.526.373.104-.29" fill="#2B90FF"/>
        <path fill="#FFF" d="M211.334 90.728l-4.504-2.595-.747.434 4.505 2.595.746-.434M209.542 91.765l-4.491-2.6-.777.456 4.491 2.6.777-.456M207.763 92.798l-4.492-2.59-.776.45 4.5 2.596.768-.456"/>
        <path d="M257.955 314.33l-.265-.151-226.445-131.52.79-.46 171.757-99.681.265.151 226.37 131.49-.806.439-171.666 99.732zM33.34 182.658l224.614 130.449 170.364-98.97L203.775 83.755 33.34 182.658z" fill="#2B90FF" opacity=".15"/>
        <path fill="url(#a)" opacity=".19" d="M33.341 182.658l170.434-99.524 224.574 131.008-170.394 98.965z"/>
        <path fill="#FFF" opacity=".4" d="M53.134 195.59l344.62-.269 23.435 13.561-339.687 1.554zM38.11 186.277l337.587-4.517 11.86 6.87-340.984 2.638z"/>
        <path d="M108.603 111.094s-.274 2.755-.477 3.537c-.122.477-.191.833-.287 1.197-.13.478-.16.747 0 .868.16.122.434.156.747-.868a4.426 4.426 0 0 1-.955 1.858c-.543.581-1.341 1.176-1.124 1.497.217.321.794 0 .794 0s.074.477.79.104c0 0 .087.404.811-.104 0 0 .287.334.955-.334.668-.669 3.064-3.242 3.112-8.09l-4.366.335z" fill="#FFCFAE"/>
        <path d="M114.474 94.681c.747 13.453-1.34 17.598-1.34 17.598l-4.557.13-1.64-16.773" fill="#FFF"/>
        <circle fill="#FFF" cx="110.673" cy="94.903" r="3.801"/>
        <path d="M82.67 175.268c-7.135 4.149-8.389 10.202-2.795 13.453 5.593 3.25 16.009 2.52 23.138-1.628 7.13-4.148 8.385-10.21 2.8-13.453-5.586-3.241-16.01-2.52-23.144 1.628zM198.103 165.504c-7.134 4.148-8.389 10.202-2.795 13.453 5.594 3.25 16.009 2.52 23.139-1.628 7.13-4.149 8.384-10.21 2.799-13.453-5.585-3.241-16.009-2.52-23.143 1.628z" fill="#000" opacity=".07"/>
        <path d="M110.274 72.75c2.603 5.523 3.78 14.398 4.209 22.092l-7.56.803-7.23-18.634" fill="#FFF"/>
        <circle fill="#FFF" cx="105.144" cy="75.266" r="5.715"/>
        <path d="M85.217 185.666c1.545 1.549 3.42 2.17 4.187 1.432.769-.738.135-2.643-1.432-4.192-1.566-1.55-3.42-2.17-4.187-1.433-.478.478-.434 1.676-.434 2.136a14.32 14.32 0 0 0 1.866 2.057z" fill="#081B2F"/>
        <ellipse fill="#FFCFAE" transform="rotate(-46.32 86.09 183.143)" cx="86.09" cy="183.143" rx="1.25" ry="2.534"/>
        <path d="M99.051 177.737c1.498 1.497 3.281 2.092 4.023 1.358.742-.733.13-2.538-1.358-4.022-1.489-1.485-3.285-2.092-4.032-1.359-.434.434-.412 1.606-.412 2.053a13.73 13.73 0 0 0 1.78 1.97z" fill="#081B2F"/>
        <ellipse fill="#FFCFAE" transform="rotate(-46.32 99.892 175.348)" cx="99.892" cy="175.348" rx="1.206" ry="2.43"/>
        <path d="M83.364 156.699s-3.906-21.98-5.863-36.093l30.186-5.737c.143 6.857.382 19.928-.386 29.38-1.163 14.246-6.075 30.693-6.075 30.693-.109.517-.682.912-1.832.912-1.276 0-2.17-.434-2.17-1.033l.517-22.87-2.495-19.45s-1.211 14.499-2.11 22.236c-.898 7.738-5.476 27.665-5.476 27.665 0 .812-.595 1.471-1.97 1.471-1.376 0-2.322-.599-2.33-1.397l.004-25.777z" fill="#9B9B9B"/>
        <path d="M74.758 81.476c-1.115 7.842-.694 37.32-.694 37.32 0 6.293 1.584 11.249 10.211 12.468 1.624.176 3.266.077 4.856-.295 6.692-1.432 14.755-6.231 17.923-9.078 5.29-4.774 5.073-9.3 5.073-13.236V79.849s0-9.665-8.176-12.802c-6.21-2.387-15.77-.2-20.787 2.604-.004.026-7.221 3.654-8.406 11.825z" fill="#FFF"/>
        <path d="M75.379 78.842a4.591 4.591 0 0 1 3.354-1.558c4.987 0 4.648 5.641 4.648 5.641v31.719c0 12.203 2.764 15.587 4.57 16.49-1.221.202-2.464.231-3.693.087-8.632-1.21-10.211-6.162-10.211-12.468 0 0-.434-29.474.694-37.32.135-.881.348-1.748.638-2.591z" fill="#D8D8D8"/>
        <path d="M79.415 125.953s.221 2.764.39 3.545c.109.477.178.842.26 1.206.122.5.148.747 0 .868-.147.122-.477.148-.72-.868.148.688.457 1.331.903 1.875.53.595 1.302 1.198 1.094 1.497-.209.3-.795 0-.795 0s-.078.478-.79.091c0 0-.09.404-.811-.121 0 0-.29.33-.955-.356-.664-.686-3.003-3.311-2.968-8.124l4.392.387z" fill="#FFCFAE"/>
        <path d="M80.504 106.728l-.746 22.366-4.383-.134s-3.346-8.796-4.166-22.848" fill="#FFF"/>
        <circle fill="#FFF" transform="rotate(-88.97 75.88 106.127)" cx="75.879" cy="106.127" r="4.674"/>
        <path d="M87.6 83.22l-7.278 24.359-9.113-1.52s-.144-2.26-.148-4.686c0-10.211 1.432-17.888 4.21-23.33" fill="#FFF"/>
        <circle fill="#FFF" transform="rotate(-90 80.964 80.682)" cx="80.964" cy="80.682" r="6.7"/>
        <path d="M96.543 48.73c2.344-.096 5.1.485 6.457 2.742.868 1.458.808 4.105.868 6.075.144 3.555-1.271 7.278-3.471 9.21v.94c-.022.747-.538 1.52-1.54 2.097-2.05 1.18-5.356 1.18-7.378 0-.98-.573-1.48-1.302-1.515-2.057v-9.283-.33c-.238-5.038 2.734-9.234 6.58-9.395z" fill="#FFCFAE"/>
        <path d="M90.633 60.997c-.077-.7-.201-1.395-.374-2.078-.347-1.58.868-1.736.868-1.736a1.146 1.146 0 0 1 1.211 1.028l.148 2.513.92.3s-.274-1.814-.274-2.33c0-2.87.664-3.039.664-3.039l.352-2.243s5.832.703 9.17-1.076c.328 1.285.507 2.605.533 3.931 0 0 .694-4.773-.408-7.685-1.102-2.912-2.938-4.318-6.028-4.318 0 0-9.304-.746-10.133 5.572 0 0-.924 7.09 2.687 13.075.004.013.66-1.948.664-1.914z" fill="#424242"/>
        <path d="M97.316 68.101a4.986 4.986 0 0 0 3.09-1.34v.937c-.022.746-.539 1.519-1.541 2.096-2.048 1.18-5.355 1.18-7.378 0-.98-.573-1.48-1.302-1.514-2.057v-9.283c.29 4.904 3.576 9.8 7.343 9.647z" fill="#3A2416" opacity=".08"/>
        <circle fill="#2B90FF" cx="94.642" cy="25.73" r="12.021"/>
        <path d="M100.948 30.03h-9.3a3.51 3.51 0 1 1 0-7.021h8.597a.412.412 0 0 1 0 .824h-8.597a2.686 2.686 0 0 0 0 5.368h9.291a.412.412 0 1 1 0 .825l.009.004z" fill="#FFF"/>
        <path d="M98.075 26.315a.412.412 0 0 1-.282-.711l2.33-2.17-2.33-2.17a.434.434 0 0 1 .564-.616l2.973 2.768-2.973 2.77a.434.434 0 0 1-.282.13z" fill="#FFF"/>
        <path d="M352.558 210.566c-6.045 3.51-4.687 10.05 3.038 14.53 7.724 4.478 18.95 5.263 24.991 1.735 6.041-3.528 4.687-10.05-3.037-14.529-7.725-4.478-18.947-5.247-24.992-1.736zM260.341 171.727c-6.045 3.51-4.686 10.05 3.038 14.529 7.725 4.478 18.951 5.264 24.992 1.736 6.04-3.529 4.687-10.051-3.038-14.53-7.724-4.478-18.947-5.246-24.992-1.735z" fill="#000" opacity=".07"/>
        <path d="M267.41 67.36l-7.81 20.118-8.163-.868c.464-8.31 1.735-17.892 4.547-23.868" fill="#FFF"/>
        <path d="M253.047 103.812c.052 5.207 2.63 8.015 3.363 8.74.733.725 1.041.36 1.041.36.786.547.868.113.868.113.777.434.868-.113.868-.113s.625.334.868 0-.625-.972-1.21-1.601a4.774 4.774 0 0 1-1.012-2.005c.313 1.093.625 1.054.799.924.173-.13.138-.395 0-.937-.1-.395-.178-.764-.309-1.302-.203-.842-.494-3.823-.494-3.823l-4.782-.356z" fill="#FFCFAE"/>
        <path d="M259.625 87.478l-1.77 18.109-4.943-.135s-2.26-4.465-1.45-19.007" fill="#FFF"/>
        <circle fill="#FFF" cx="255.568" cy="86.684" r="4.105"/>
        <circle fill="#FFF" cx="261.535" cy="65.48" r="6.175"/>
        <path d="M285.055 182.493c0-.499.035-1.81-.464-2.308-.829-.825-2.851-.13-4.522 1.531-1.67 1.663-2.352 3.693-1.523 4.522.829.83 2.855.144 4.522-1.527a16.087 16.087 0 0 0 1.987-2.218z" fill="#444549"/>
        <path d="M284.083 180.093c-.516-.542-1.822-.134-2.912.907-1.089 1.042-1.557 2.322-1.041 2.86.516.538 1.823.135 2.912-.907 1.09-1.041 1.562-2.3 1.041-2.86z" fill="#FFCFAE"/>
        <path d="M270.027 174.018c0-.482.035-1.736-.434-2.217-.794-.795-2.738-.14-4.34 1.466-1.6 1.606-2.26 3.55-1.466 4.34.794.79 2.738.134 4.34-1.467a14.95 14.95 0 0 0 1.9-2.122z" fill="#444549"/>
        <path d="M269.103 171.731c-.495-.52-1.736-.134-2.795.868s-1.497 2.23-1.002 2.751c.495.521 1.757.13 2.799-.868 1.041-.998 1.493-2.235.998-2.75z" fill="#FFCFAE"/>
        <path d="M285.051 181.252c0 .868-1.028 1.515-2.517 1.515-1.488 0-2.13-.712-2.13-1.589 0 0-4.94-21.498-5.915-29.86-.977-8.363-2.279-24.016-2.279-24.016l-2.695 21.004.56 24.7c0 .652-.963 1.116-2.343 1.116-1.237 0-1.858-.434-1.975-.985 0 0-5.303-17.762-6.557-33.15-.833-10.22-.573-24.337-.434-31.74l32.608 6.18c-2.1 15.232-6.332 38.978-6.332 38.978l.01 27.847z" fill="#2B90FF"/>
        <path d="M285.281 59.453c-5.403-3.038-15.735-5.416-22.453-2.834-8.827 3.393-8.827 13.847-8.827 13.826v31.04c0 4.254-.243 9.114 5.481 14.296 3.411 3.08 12.151 8.284 19.355 9.824 1.717.4 3.49.507 5.242.317 9.317-1.302 11.027-6.657 11.027-13.453 0 0 .46-31.835-.75-40.301-1.264-8.81-9.075-12.715-9.075-12.715z" fill="#FFF"/>
        <path d="M294.338 72.185c1.189 8.467.755 40.302.755 40.302 0 6.791-1.71 12.15-11.027 13.453a14.256 14.256 0 0 1-3.984-.092c1.953-.985 4.943-4.643 4.943-17.822V73.773s-.369-6.106 5.021-6.106a4.96 4.96 0 0 1 3.64 1.68c.303.924.52 1.874.652 2.838z" fill="#000" opacity=".1"/>
        <path d="M293.157 118.866c.03 5.208-2.49 8.063-3.202 8.8-.712.738-1.029.383-1.029.383-.776.564-.868.13-.868.13-.768.434-.867-.1-.867-.1s-.621.339-.868 0c-.248-.338.611-.985 1.184-1.623.481-.589.814-1.283.972-2.027-.29 1.103-.598 1.068-.78.938-.183-.13-.153-.395-.022-.938.095-.394.164-.763.286-1.301.187-.847.434-3.828.434-3.828l4.76-.434z" fill="#FFCFAE"/>
        <path d="M297.263 97.888c-.89 15.189-4.5 24.675-4.5 24.675l-4.73.148-.816-24.154" fill="#FFF"/>
        <circle fill="#FFF" transform="rotate(-1.03 292.21 97.901)" cx="292.21" cy="97.901" r="5.043"/>
        <path d="M292.862 67.559c2.986 5.876 4.548 14.169 4.548 25.196 0 2.603-.16 5.06-.16 5.06l-9.847 1.64-7.859-26.29" fill="#FFF"/>
        <circle fill="#FFF" transform="rotate(-.22 286.37 70.777)" cx="286.371" cy="70.777" r="7.234"/>
        <path d="M277.3 48.473v9.313c-.03.72-.516 1.44-1.466 1.992-1.966 1.141-5.164 1.141-7.143 0-.968-.56-1.467-1.302-1.489-2.027v-.902c-2.135-1.88-3.502-5.468-3.363-8.905.074-1.9 0-4.461.868-5.867 1.302-2.17 3.975-2.747 6.245-2.656 3.706.139 6.57 4.196 6.349 9.052z" fill="#FFCFAE"/>
        <path d="M277.3 48.799v8.978c-.03.72-.516 1.441-1.466 1.992-1.966 1.142-5.164 1.142-7.143 0-.968-.56-1.467-1.302-1.489-2.026v-.916a4.834 4.834 0 0 0 2.986 1.302c3.64.156 6.8-4.578 7.113-9.33z" fill="#3A2416" opacity=".04"/>
        <path d="M279.036 48.551a9.625 9.625 0 0 1-2.282 3.151c.25-.82.417-1.663.499-2.517 0-.032.009-.065.026-.1a1.241 1.241 0 1 0-2.43-.507l-.473-5.182s-6.024 1.992-10.099-.347a15.722 15.722 0 0 0-.412 3.675c-2.473-3.31-2.734-7.958-1.597-10.332.22.43.613.747 1.08.868a1.102 1.102 0 0 1 0-.764c.804 1.584 8.41-.108 10.85-.369 2.439-.26 3.037.907 3.037.907s1.736-.212 2.73 2.808c.76 2.252.773 5.073-.929 8.71z" fill="#10355D"/>
        <path fill="#2B90FF" d="M268.478 61.557l.755 2.851-3.445 24.202 3.979 9.278 3.91-4.721-3.211-28.02 1.154-2.757-1.766-1.12z"/>
        <path d="M266.63 56.272c.178.201.368.392.568.572.3 1.663 2.79 3.472 2.79 3.472 5.759-1.697 7.321-4.682 7.321-4.682.455.276.838.657 1.116 1.11.473 1.081-.547 2.383-.547 2.383l-4.726 5.642-3.285-3.524-3.38 1.783-.17-5.919c.02-.303.129-.595.312-.837z" fill="#DBDBDB"/>
        <path fill="#2B90FF" d="M276.988 75.973l6.227 3.62v-2.036l-6.227-3.619z"/>
        <circle fill="#2B90FF" cx="362.218" cy="59.44" r="11.847"/>
        <path d="M362.222 64.66a5.208 5.208 0 0 0 3.693-1.514.434.434 0 0 0-.59-.608 4.387 4.387 0 0 1-7.49-3.085c0-.183.012-.366.035-.547a.434.434 0 1 0-.83-.104 5.23 5.23 0 0 0 5.181 5.858zM367 60.407a.434.434 0 0 0 .434-.369 5.234 5.234 0 0 0-8.883-4.3.434.434 0 0 0 .59.59 4.392 4.392 0 0 1 7.451 3.615.434.434 0 0 0 .37.464H367z" fill="#FFF"/>
        <path d="M367.16 60.902l1.667-2.491a.434.434 0 1 0-.664-.508l-.03.044-1.124 1.683-1.489-1.345a.434.434 0 0 0-.56.608l2.2 2.009zM355.938 60.828a.434.434 0 0 0 .348-.186l1.124-1.684 1.492 1.336a.434.434 0 1 0 .56-.607l-2.209-1.996-1.666 2.49a.434.434 0 0 0 .347.652l.004-.005z" fill="#FFF"/>
        <path d="M361.055 95.64s2.82 4.227 0 7.439c-2.365 2.694-2.439 5.589-.98 8.245 1.023 1.857.915 4.027-.413 5.155-1.601 1.363-3.802 1.111-6.028-.104 0 0 3.355-1.34 1.155-4.448-1.385-1.957-4.51-5.012-1.12-10.736 3.038-5.108.69-7.903.495-10.984-.434-6.674 4.934-15.023 10.085-12.927 0 0-3.094 3.38-3.945 7.095-.85 3.715-1.805 7.599.75 11.265z" fill="#424242"/>
        <path d="M375.983 223.963c-1.636 1.636-3.62 2.308-4.43 1.497-.812-.812-.144-2.795 1.492-4.435 1.636-1.64 3.62-2.31 4.43-1.498.491.49.435 1.771.435 2.261a15.189 15.189 0 0 1-1.927 2.175z" fill="#444549"/>
        <ellipse fill="#FFCFAE" transform="rotate(-43.67 375.062 221.331)" cx="375.062" cy="221.331" rx="2.678" ry="1.328"/>
        <path d="M361.328 215.574c-1.57 1.571-3.471 2.218-4.257 1.436-.785-.78-.134-2.686 1.437-4.257 1.57-1.57 3.471-2.217 4.257-1.436.468.469.434 1.701.434 2.17a14.555 14.555 0 0 1-1.87 2.087z" fill="#444549"/>
        <ellipse fill="#FFCFAE" transform="rotate(-43.68 360.442 213.043)" cx="360.442" cy="213.043" rx="2.573" ry="1.276"/>
        <path d="M377.441 193.286s4.158-23.278 6.206-38.189l-31.957-6.075c-.152 7.26-.404 21.09.412 31.102 1.228 15.08 6.718 32.547 6.718 32.547.113.547.434.907 1.64.903a1.935 1.935 0 0 0 2.027-1.706l-.278-23.594 2.643-20.587s1.28 15.344 2.23 23.538c.951 8.193 6.462 29.77 6.462 29.77 0 .867.764 1.062 1.424 1.062 1.453 0 2.213-1.002 2.222-1.853l.251-26.918z" fill="#FFCFAE"/>
        <path d="M369.843 185.188c1.498.387 3.057.482 4.59.278 4.714-.66 9.66-5.772 9.66-5.772v-6.006c0-6.37-.025-30.568-.025-30.568a57.648 57.648 0 0 0-.634-4.721c-.907-4.462-2.604-7.117-6.323-10.077a12.498 12.498 0 0 0-1.623-1.072c-4.73-2.669-13.782-4.743-19.662-2.482-7.734 2.977-7.73 12.13-7.734 12.107v34.743a78.82 78.82 0 0 0 9.491 7.239c4.952 3.19 11.088 6.01 12.26 6.331z" fill="#9B9B9B"/>
        <path d="M347.91 104.42c-2.755 5.85-4 15.236-4.457 23.386l8.003.868 7.65-19.75" fill="#FFF"/>
        <path d="M349.68 145.02s.287 2.921.487 3.746c.126.525.204.868.304 1.271.134.53.169.79 0 .92-.17.13-.478.165-.782-.907.17.725.509 1.399.99 1.966.573.616 1.415 1.246 1.189 1.571-.226.326-.838 0-.838 0s-.073.53-.833.113c0 0-.09.434-.868-.113 0 0-.303.356-1.015-.356-.712-.711-3.246-3.445-3.294-8.566l4.66.356z" fill="#FFCFAE"/>
        <path d="M343.466 127.645c-.798 14.256 1.42 18.63 1.42 18.63l4.834.13 1.736-17.753" fill="#FFF"/>
        <circle fill="#FFF" cx="347.489" cy="127.879" r="4.023"/>
        <circle fill="#FFF" cx="353.339" cy="107.093" r="6.049"/>
        <path d="M385.509 113.663c1.18 8.28.716 39.525.716 39.525 0 6.661-1.676 11.903-10.81 13.184-1.718.186-3.456.08-5.138-.313-7.061-1.51-15.623-6.605-18.973-9.63-5.603-5.06-5.368-9.842-5.368-14.008v-30.46s0-10.223 8.653-13.556c6.583-2.535 16.712-.213 22.01 2.777.013.005 7.673 3.836 8.91 12.48z" fill="#FFF"/>
        <path d="M384.845 110.877a4.86 4.86 0 0 0-3.563-1.65c-5.282 0-4.921 5.985-4.921 5.985v33.58c0 12.919-2.93 16.49-4.839 17.467a13.96 13.96 0 0 0 3.906.091c9.113-1.28 10.81-6.51 10.81-13.184 0 0 .434-31.201-.734-39.49a15.8 15.8 0 0 0-.66-2.8z" fill="#000" opacity=".1"/>
        <path d="M371.904 115.516l7.707 25.773 9.651-1.615s.152-2.39.157-4.96c0-10.81-1.537-18.938-4.457-24.696" fill="#FFF"/>
        <circle fill="#FFF" transform="rotate(-.22 378.61 113.159)" cx="378.611" cy="113.159" r="7.091"/>
        <path d="M380.583 160.748s-.234 2.924-.434 3.753c-.117.53-.186.868-.282 1.276-.126.534-.156.794.022.92s.481.16.764-.92a4.687 4.687 0 0 1-.955 1.983c-.56.63-1.389 1.272-1.159 1.593.23.321.838 0 .838 0s.082.53.833.1c0 0 .1.434.868-.13 0 0 .308.347 1.007-.374.698-.72 3.18-3.506 3.141-8.622l-4.643.42z" fill="#FFCFAE"/>
        <path d="M379.424 140.4l.799 23.676 4.639-.143s3.532-9.313 4.4-24.198" fill="#FFF"/>
        <circle fill="#FFF" transform="rotate(-1.03 384.331 139.765)" cx="384.331" cy="139.765" r="4.943"/>
        <path d="M362.552 81.541c-2.222-.087-4.83.46-6.119 2.604-.829 1.38-.764 3.906-.842 5.754-.134 3.368 1.207 6.896 3.298 8.727v.868c.022.72.508 1.436 1.459 1.988 1.94 1.12 5.073 1.12 7 0 .928-.543 1.405-1.242 1.436-1.953V90.74v-.317c.225-4.76-2.582-8.74-6.232-8.883z" fill="#FFCFAE"/>
        <path d="M361.819 99.898a4.739 4.739 0 0 1-2.93-1.272v.868c.022.72.508 1.436 1.459 1.988 1.94 1.12 5.073 1.12 7 0 .928-.543 1.405-1.242 1.436-1.953V90.74c-.295 4.66-3.39 9.296-6.965 9.157z" fill="#3A2416" opacity=".08"/>
        <path d="M374.39 111.918c1.385-1.957 4.51-5.012 1.12-10.736-3.038-5.108-.69-7.902-.495-10.983.339-5.312-2.99-11.683-6.943-13.02a3.355 3.355 0 0 0-.933-.212 4.296 4.296 0 0 0-1.736.13c-3.038-2.408-7.85.99-11.539 5.394-2.755 3.294-1.814 6.653.191 8.007.46.313 1.002.485 1.558.495 0-.37-.026-.742 0-1.107.03-.764.04-1.632.096-2.49a9.638 9.638 0 0 0 4.816-1.472 4.196 4.196 0 0 1-.464.781 2.56 2.56 0 0 1-.955.664 9.573 9.573 0 0 0 3.715-.646 7.33 7.33 0 0 0 3.112-2.14l.473 5.945a1.21 1.21 0 0 1 2.4.24v3.749a9.404 9.404 0 0 1-.673 1.128s-2.821 4.227 0 7.438c2.365 2.695 2.439 5.59.98 8.245-1.024 1.858-.915 4.027.413 5.156 1.601 1.362 3.801 1.11 6.027-.105-.008-.013-3.363-1.354-1.163-4.46z" fill="#424242"/>
        <circle fill="#FFB522" cx="211.217" cy="12.55" r="12.55"/>
        <path d="M216.294 11.717l-1.861 1.736a.677.677 0 0 0-.191.577l.482 2.534a.625.625 0 0 1-.93.673l-2.247-1.25a.681.681 0 0 0-.612 0l-2.278 1.302a.634.634 0 0 1-.929-.673l.482-2.534a.62.62 0 0 0-.191-.577l-1.888-1.788a.655.655 0 0 1 .352-1.124l2.569-.321a.668.668 0 0 0 .512-.352l1.089-2.343a.642.642 0 0 1 1.154 0l1.09 2.343c.092.203.29.338.512.352l2.569.321a.647.647 0 0 1 .316 1.124zM227.152 58.585c2.708 5.745 3.932 14.967 4.379 22.97l-7.86.832-7.511-19.367" fill="#FFF"/>
        <path d="M225.416 98.448s-.282 2.869-.477 3.68c-.126.517-.2.868-.3 1.246-.134.52-.164.776 0 .902.165.126.47.165.769-.89a4.6 4.6 0 0 1-.972 1.932c-.565.607-1.39 1.224-1.168 1.545.222.32.825 0 .825 0s.073.52.82.108c0 0 .087.434.846-.108 0 0 .3.347.994-.347.694-.695 3.185-3.385 3.237-8.415l-4.574.347z" fill="#FFCFAE"/>
        <path d="M231.518 81.38c.78 14-1.393 18.3-1.393 18.3l-4.748.127-1.705-17.437" fill="#FFF"/>
        <circle fill="#FFF" cx="227.564" cy="81.615" r="3.953"/>
        <circle fill="#FFF" cx="221.819" cy="61.197" r="5.941"/>
        <path d="M199.583 175.984c1.605 1.606 3.554 2.265 4.34 1.471.785-.794.138-2.747-1.468-4.34-1.605-1.592-3.554-2.265-4.34-1.47-.48.481-.433 1.735-.433 2.221a14.898 14.898 0 0 0 1.9 2.118z" fill="#444549"/>
        <ellipse fill="#FFCFAE" transform="rotate(-46.33 200.494 173.346)" cx="200.494" cy="173.346" rx="1.302" ry="2.63"/>
        <path d="M213.977 167.743c1.545 1.545 3.415 2.17 4.18 1.41.763-.76.134-2.638-1.411-4.183s-3.416-2.17-4.18-1.415c-.464.46-.433 1.671-.433 2.135a14.32 14.32 0 0 0 1.844 2.053z" fill="#444549"/>
        <ellipse fill="#FFCFAE" transform="rotate(-46.32 214.85 165.212)" cx="214.85" cy="165.212" rx="1.254" ry="2.526"/>
        <path d="M198.146 145.854s-4.083-22.865-6.075-37.525l31.388-5.945c.148 7.13.4 20.717-.403 30.551-1.229 14.811-6.618 31.97-6.618 31.97-.113.538-.434.868-1.61.868a1.9 1.9 0 0 1-1.988-1.675l.274-23.174-2.604-20.222s-1.259 15.071-2.17 23.121c-.911 8.05-6.345 29.24-6.345 29.24 0 .842.04 1.046-1.397 1.046-1.436 0-2.17-.985-2.17-1.822l-.282-26.433z" fill="#FFCFAE"/>
        <path d="M205.61 137.904c-1.471.38-3.002.473-4.509.273-4.626-.646-9.486-5.672-9.486-5.672v-5.897c0-6.258.026-30.026.026-30.026.16-1.632.356-3.18.62-4.639.895-4.379 2.561-6.991 6.21-9.898a12.238 12.238 0 0 1 1.593-1.055c4.648-2.604 13.536-4.66 19.312-2.435 7.585 2.925 7.585 11.913 7.585 11.895v34.127a77.423 77.423 0 0 1-9.313 7.104c-4.86 3.133-10.888 5.915-12.038 6.223z" fill="#9B9B9B"/>
        <path d="M190.226 67.65c-1.163 8.15-.72 38.8-.72 38.8 0 6.54 1.65 11.691 10.62 12.95 1.687.182 3.393.078 5.046-.308 6.943-1.484 15.35-6.51 18.634-9.456 5.503-4.973 5.273-9.669 5.273-13.761V65.962s0-10.042-8.501-13.314c-6.466-2.487-16.417-.208-21.616 2.73 0 .017-7.525 3.775-8.736 12.272z" fill="#FFF"/>
        <path d="M190.877 64.912a4.774 4.774 0 0 1 3.498-1.619c5.208 0 4.834 5.88 4.834 5.88v32.981c0 12.69 2.878 16.209 4.752 17.155-1.268.208-2.56.237-3.836.086-8.97-1.258-10.619-6.41-10.619-12.949 0 0-.434-30.646.72-38.8.134-.93.352-1.844.651-2.734z" fill="#000" opacity=".1"/>
        <path d="M195.043 113.897s.23 2.873.408 3.689c.113.516.187.868.274 1.254.126.52.152.781-.022.903-.174.121-.473.156-.75-.903a4.6 4.6 0 0 0 .937 1.948c.55.617 1.367 1.246 1.141 1.563-.226.317-.825 0-.825 0s-.082.516-.82.095c0 0-.095.434-.846-.126 0 0-.304.343-.99-.369-.685-.711-3.124-3.44-3.085-8.47l4.578.416z" fill="#FFCFAE"/>
        <path d="M196.202 93.909l-.785 23.26-4.553-.143s-3.471-9.148-4.34-23.755" fill="#FFF"/>
        <circle fill="#FFF" transform="rotate(-88.97 191.386 93.286)" cx="191.386" cy="93.286" r="4.856"/>
        <path d="M203.58 69.468l-7.569 25.313-9.478-1.58s-.151-2.347-.151-4.873c0-10.614 1.505-18.6 4.378-24.258" fill="#FFF"/>
        <circle fill="#FFF" transform="rotate(-89.78 197.01 67.163)" cx="197.01" cy="67.163" r="6.965"/>
        <path d="M219.619 49.966a4.253 4.253 0 0 1-3.507 1.128c.27-.433.794-1.553 1.007-2.03.49.525 2.161.954 2.5.902z" fill="#A34848"/>
        <path d="M212.775 36.097c2.17-.087 4.748.434 6.01 2.56.812 1.354.751 3.819.825 5.642.13 3.306-1.185 6.774-3.237 8.57v.868c-.022.708-.5 1.41-1.433 1.953-1.905 1.098-4.981 1.098-6.873 0-.912-.53-1.38-1.22-1.41-1.918V45.132v-.308c-.226-4.674 2.512-8.584 6.118-8.727z" fill="#FFCFAE"/>
        <path d="M213.508 54.128a4.652 4.652 0 0 0 2.878-1.25v.868c-.022.707-.5 1.41-1.432 1.953-1.906 1.098-4.982 1.098-6.874 0-.912-.53-1.38-1.22-1.41-1.918V45.13c.273 4.583 3.319 9.136 6.838 8.997z" fill="#3A2416" opacity=".08"/>
        <path d="M207.433 48.664a2.079 2.079 0 0 0 2.504 1.176s-1.068 1.98-3.285 1.736v.595a3.966 3.966 0 0 1-.482-.14c-3.589.773-7.277-3.445-5.828-8.778a25.026 25.026 0 0 1 4.722-9.6c2.53-3.128 4.725-1.735 4.725-1.735 2.99-2.695 7.838.698 11.54 5.125 2.707 3.237 1.779 6.535-.192 7.863a2.795 2.795 0 0 1-1.531.486c0-.364.026-.724 0-1.089-.03-.75-.04-1.601-.092-2.443a9.469 9.469 0 0 1-4.773-1.467c.117.27.262.528.434.768.26.288.581.512.942.655a9.408 9.408 0 0 1-3.646-.638 7.195 7.195 0 0 1-3.037-2.1l-.465 5.841a1.19 1.19 0 0 0-2.356.226c.02 1.218.3 2.418.82 3.52z" fill="#424242"/>
        <path d="M30.707 392.669c-7.134 4.149-8.388 10.202-2.795 13.453 5.594 3.25 16.01 2.521 23.14-1.628 7.129-4.148 8.383-10.21 2.798-13.452-5.585-3.242-16.009-2.522-23.143 1.627z" fill="#000" opacity=".07"/>
        <path d="M33.102 402.212c1.589 1.588 3.511 2.239 4.301 1.453.79-.785.139-2.712-1.45-4.3-1.588-1.588-3.51-2.24-4.3-1.454-.477.473-.434 1.736-.434 2.196a14.72 14.72 0 0 0 1.883 2.105z" fill="#444549"/>
        <ellipse fill="#FFCFAE" transform="rotate(-46.33 34.025 399.6)" cx="34.025" cy="399.6" rx="1.289" ry="2.599"/>
        <path d="M47.328 394.07c1.523 1.528 3.372 2.17 4.131 1.394.76-.777.135-2.604-1.393-4.132-1.528-1.527-3.372-2.17-4.131-1.397-.456.456-.434 1.649-.434 2.109a14.13 14.13 0 0 0 1.827 2.027z" fill="#444549"/>
        <ellipse fill="#FFCFAE" transform="rotate(-46.32 48.208 391.569)" cx="48.208" cy="391.569" rx="1.237" ry="2.495"/>
        <path d="M31.21 372.446s-4.031-22.592-6.04-37.077l31.01-5.876c.148 7.043.391 20.466-.399 30.182-1.193 14.633-6.236 31.531-6.236 31.531-.113.53-.703.938-1.879.938-1.302 0-2.226-.434-2.226-1.06L46 367.59l-2.565-19.962s-1.241 14.89-2.17 22.844c-.928 7.954-5.641 28.407-5.641 28.407 0 .833-.608 1.51-2.027 1.51s-2.387-.616-2.395-1.44l.008-26.503z" fill="#9B9B9B"/>
        <path d="M57.135 325.609s-.278 2.834-.468 3.632c-.122.512-.2.868-.296 1.233-.13.512-.164.768 0 .89.165.12.465.16.76-.869a4.548 4.548 0 0 1-.96 1.91c-.555.599-1.37 1.206-1.154 1.523.217.317.816 0 .816 0s.07.512.807.109c0 0 .087.433.838-.109 0 0 .295.343.985-.343.69-.685 3.146-3.346 3.198-8.31l-4.526.334z" fill="#FFCFAE"/>
        <path d="M63.167 308.745c.773 13.83-1.657 18.088-1.657 18.088l-4.414.117-1.684-17.224" fill="#FFCFAE"/>
        <circle fill="#FFCFAE" cx="59.262" cy="308.975" r="3.906"/>
        <path d="M58.85 286.21c2.677 5.676 3.883 14.785 4.339 22.692l-7.764.824L48 290.593" fill="#FFF"/>
        <circle fill="#FFF" cx="53.581" cy="288.805" r="5.871"/>
        <path d="M53.269 308.98a1.658 1.658 0 0 0 1.8 1.501l7.855-.703a1.658 1.658 0 0 0 1.502-1.8l-.17-1.871a1.658 1.658 0 0 0-1.8-1.502l-7.864.712c-.91.085-1.582.89-1.501 1.801l.178 1.862z" fill="#FFF"/>
        <path d="M22.37 295.18c-1.15 8.054-.711 38.331-.711 38.331 0 6.462 1.627 11.552 10.489 12.794 1.667.18 3.353.077 4.986-.304 6.852-1.467 15.167-6.41 18.409-9.343 5.433-4.913 5.207-9.547 5.207-13.596V293.53s0-9.92-8.397-13.154c-6.388-2.456-16.217-.204-21.355 2.695.004 0-7.43 3.715-8.627 12.108z" fill="#FFF"/>
        <path d="M23 292.49c.88-1 2.14-1.582 3.472-1.602 5.125 0 4.773 5.806 4.773 5.806v32.586c0 12.533 2.843 16.013 4.696 16.95a13.57 13.57 0 0 1-3.793.088c-8.862-1.242-10.489-6.332-10.489-12.794 0 0-.434-30.277.712-38.331.127-.919.338-1.823.629-2.704z" fill="#000" opacity=".1"/>
        <path d="M44.646 264.008c2.17-.086 4.687.434 5.936 2.526.803 1.341.742 3.775.816 5.58.13 3.268-1.171 6.692-3.198 8.467v.868c-.022.699-.49 1.398-1.415 1.927-1.883 1.085-4.925 1.085-6.791 0-.903-.525-1.363-1.206-1.393-1.892v-8.545-.304c-.226-4.626 2.5-8.483 6.045-8.627z" fill="#FFCFAE"/>
        <path d="M45.358 281.822a4.6 4.6 0 0 0 2.842-1.232v.868c-.022.699-.49 1.397-1.415 1.927-1.883 1.085-4.925 1.085-6.791 0-.903-.525-1.363-1.207-1.393-1.892V272.939c.282 4.518 3.294 9.018 6.757 8.883z" fill="#3A2416" opacity=".08"/>
        <path d="M35.585 266.248c.178-1.116 1.44-4.457 4.556-5.993 3.116-1.537 8.185-1.302 9.248-1.007 1.458.434 1.775 1.384 1.445 2.109 0 0 2.743.72 1.801 2.643 1.08 2.256 1.016 4.565-1.271 7.108-.048-1.627-.122-3.472-.786-4.57a4.695 4.695 0 0 0-1.853-1.735 6.896 6.896 0 0 0-7.377 2.99l-.456 4.934a1.18 1.18 0 0 0-2.33.338v3.58a9.452 9.452 0 0 1-1.658-2.49c-1.588-3.46-1.614-6.02-1.32-7.907z" fill="#424242"/>
        <path d="M27.131 340.871s.226 2.839.404 3.641c.113.512.182.868.273 1.237.122.517.152.768-.022.89-.173.121-.468.156-.742-.894.15.706.468 1.367.925 1.927.542.607 1.35 1.232 1.128 1.544-.221.313-.816 0-.816 0s-.082.513-.811.096c0 0-.096.434-.834-.126 0 0-.299.339-.976-.364-.677-.703-3.094-3.39-3.05-8.376l4.521.425z" fill="#FFCFAE"/>
        <path d="M28.273 321.13l-.777 22.979L23 343.96s-3.437-9.04-4.279-23.468" fill="#FFCFAE"/>
        <circle fill="#FFCFAE" transform="rotate(-88.97 23.518 320.508)" cx="23.518" cy="320.508" r="4.8"/>
        <path d="M35.559 296.976l-7.477 25.022-9.365-1.562s-.148-2.321-.152-4.812c0-10.49 1.488-18.379 4.34-23.968" fill="#FFF"/>
        <circle fill="#FFF" transform="rotate(-89.78 29.063 294.706)" cx="29.063" cy="294.706" r="6.883"/>
        <path d="M17.814 320.753c-.112.91.535 1.74 1.445 1.853l7.833.968c.91.11 1.736-.537 1.849-1.445l.23-1.866a1.662 1.662 0 0 0-1.445-1.853l-7.833-.968a1.662 1.662 0 0 0-1.849 1.445l-.23 1.866z" fill="#FFF"/>
        <circle fill="#2B90FF" cx="44.268" cy="238.162" r="12.012"/>
        <path d="M45.423 236.73l-.5 2.17 1.988 1.896 1.415 2.816a.725.725 0 1 1-1.159.868l-1.389-2.873-2.191-2.018-.564 2.127-1.797 2.604a.725.725 0 1 1-1.302-.569l1.84-2.604 1.198-5.324-1.419.633-.49 1.615a.62.62 0 0 1-1.185-.36l.66-2.149 3.28-1.375c.271-.126.574-.165.868-.113.17.04.332.113.473.217l1.98 2.794 1.301.07a.62.62 0 0 1-.065 1.237l-1.627-.087c-.26 0-.413-.213-.556-.434l-.76-1.141zm-.152-3.103a1.237 1.237 0 1 1 1.237-1.237 1.237 1.237 0 0 1-1.237 1.241v-.004z" fill="#FFF"/>
        <path d="M405.883 417.435c-6.045 3.51-4.687 10.05 3.038 14.529 7.724 4.478 18.95 5.264 24.991 1.736 6.041-3.528 4.687-10.05-3.037-14.53-7.725-4.478-18.951-5.25-24.992-1.735z" fill="#000" opacity=".07"/>
        <circle fill="#2B90FF" cx="417.956" cy="262.108" r="11.391"/>
        <path d="M419.05 260.754l-.474 2.057 1.884 1.796 1.35 2.67a.69.69 0 1 1-1.103.828l-1.302-2.725-2.078-1.914-.534 2.03-1.684 2.47a.69.69 0 1 1-1.259-.56l1.736-2.469 1.15-5.043-1.345.6-.464 1.531a.588.588 0 1 1-1.124-.343l.625-2.035 3.111-1.302c.262-.12.554-.157.838-.104.156.039.304.108.434.204l1.874 2.647 1.22.065a.587.587 0 1 1-.061 1.172l-1.54-.083c-.248 0-.391-.2-.526-.403l-.729-1.09zm-.148-2.938a1.176 1.176 0 1 1 1.176-1.176 1.176 1.176 0 0 1-1.172 1.171l-.004.005zM400.98 310.021c-2.778 5.889-4.032 15.345-4.488 23.551l8.059.868 7.711-19.87" fill="#FFF"/>
        <path d="M402.776 350.909s.29 2.938.49 3.771c.126.53.204.894.304 1.28.139.534.174.799 0 .925-.174.125-.482.169-.785-.916.17.73.513 1.408.998 1.979.577.62 1.423 1.254 1.197 1.584-.225.33-.846 0-.846 0s-.074.533-.842.113c0 0-.09.433-.868-.113 0 0-.308.356-1.02-.356-.711-.712-3.267-3.472-3.32-8.627l4.692.36z" fill="#FFDFCA"/>
        <path d="M396.518 333.407c-.803 14.356 1.428 18.765 1.428 18.765l4.869.13 1.736-17.88" fill="#FFF"/>
        <circle fill="#FFF" cx="400.571" cy="333.646" r="4.053"/>
        <circle fill="#FFF" cx="406.464" cy="312.712" r="6.093"/>
        <path d="M429.265 430.406c-1.65 1.65-3.646 2.326-4.461 1.506-.816-.82-.144-2.816 1.505-4.466 1.65-1.649 3.646-2.326 4.462-1.51.494.49.455 1.784.46 2.279-.278.516-1.311 1.536-1.966 2.191z" fill="#444549"/>
        <ellipse fill="#FFDFCA" transform="rotate(-43.67 428.328 427.765)" cx="428.328" cy="427.765" rx="2.699" ry="1.337"/>
        <path d="M414.506 421.957c-1.584 1.584-3.502 2.235-4.288 1.45-.785-.786-.139-2.704 1.445-4.288s3.502-2.23 4.288-1.45c.473.473.434 1.714.434 2.17a14.66 14.66 0 0 1-1.88 2.118z" fill="#444549"/>
        <ellipse fill="#FFDFCA" transform="rotate(-43.68 413.605 419.422)" cx="413.605" cy="419.422" rx="2.591" ry="1.285"/>
        <path d="M430.736 399.512s4.188-23.433 6.249-38.474l-32.183-6.098c-.151 7.308-.408 21.243.434 31.324 1.237 15.188 6.766 32.781 6.766 32.781.117.551.434.911 1.653.911a1.953 1.953 0 0 0 2.04-1.736l-.295-23.75 2.66-20.735s1.302 15.454 2.248 23.707c.946 8.254 6.51 29.978 6.51 29.978 0 .868-.04 1.072 1.431 1.072s2.23-1.01 2.24-1.866l.247-27.114z" fill="#FFCFAE"/>
        <path d="M423.085 391.358c1.508.39 3.077.486 4.622.282 4.743-.664 9.725-5.815 9.725-5.815v-6.045c0-6.418-.026-30.785-.026-30.785-.165-1.675-.365-3.259-.638-4.773-.916-4.492-2.626-7.165-6.366-10.146a12.55 12.55 0 0 0-1.636-1.081c-4.774-2.686-13.887-4.774-19.802-2.5-7.785 2.995-7.78 12.216-7.785 12.195v34.99a79.415 79.415 0 0 0 9.547 7.286c5.008 3.229 11.174 6.084 12.36 6.392z" fill="#9B9B9B"/>
        <path d="M438.855 319.33c1.194 8.358.742 39.78.742 39.78 0 6.705-1.688 11.991-10.888 13.28a15.44 15.44 0 0 1-5.164-.313c-7.112-1.518-15.74-6.652-19.094-9.694-5.642-5.1-5.407-9.912-5.407-14.108v-30.66s0-10.297 8.714-13.648c6.63-2.551 16.829-.212 22.162 2.795-.022 0 7.694 3.858 8.935 12.568z" fill="#FFF"/>
        <path d="M438.191 316.522a4.895 4.895 0 0 0-3.589-1.662c-5.32 0-4.955 6.028-4.955 6.028v33.818c0 13.019-2.951 16.616-4.87 17.588 1.302.215 2.627.246 3.937.092 9.2-1.302 10.888-6.57 10.888-13.28 0 0 .434-31.423-.742-39.78a15.926 15.926 0 0 0-.669-2.804z" fill="#000" opacity=".1"/>
        <path d="M408.174 293.314a11.543 11.543 0 0 0 .317 4.161c.716 2.67-1.15 2.44-1.15 2.44s2.413.23 1.78-1.836a3.585 3.585 0 0 1 .112-2.7s-.256-2.022-1.059-2.065z" fill="#424242"/>
        <path d="M415.734 286.978c-2.24-.091-4.865.464-6.162 2.604-.834 1.388-.773 3.905-.868 5.793-.135 3.39 1.215 6.943 3.32 8.788v.868c.021.724.512 1.45 1.47 2 1.953 1.128 5.108 1.128 7.052 0 .938-.542 1.415-1.25 1.446-1.966V296.247v-.317c.251-4.795-2.574-8.805-6.258-8.952z" fill="#FFCFAE"/>
        <path d="M415 305.465a4.774 4.774 0 0 1-2.95-1.28v.867c.021.725.512 1.45 1.47 2 1.953 1.13 5.108 1.13 7.053 0 .937-.542 1.414-1.249 1.445-1.965v-8.84c-.3 4.691-3.424 9.36-7.018 9.218z" fill="#3A2416" opacity=".04"/>
        <path d="M420.043 296.043c.126-.594.243-1.037.868-.985a1.224 1.224 0 0 1 1.124 1.202 8.81 8.81 0 0 1-.799 3.607l.799 2.89c7.377-9.43 1.44-17.706 1.44-17.706-1.822-2.391-4.847-1.78-4.847-1.78-2.977-1.119-7.867-1.392-10.076 2.874 0 0-2.07 2.699-.75 7.234l.94 3.137c0-.373-.025-.746 0-1.115.031-.768.04-1.645.096-2.508 7.76.021 9.37-2.69 9.37-2.69s-.174 2.885.516 4.178c0 0-.087 1.975.434 3.077 0 0 .777 2.066-.174 2.782 0 0 1.38-.486.946-2.326a8.128 8.128 0 0 1 .113-1.87z" fill="#424242"/>
        <path d="M429.273 289.412c-1.193-4.213-3.471-4.148-5.207-3.345 2.125 4.08 2.2 8.922.204 13.066a9.855 9.855 0 0 0 4.535 3.081c-2.47-2.065-.573-3.788.516-6.717 1.09-2.93-.048-6.085-.048-6.085z" fill="#383838"/>
        <path d="M433.917 366.748s-.235 2.943-.434 3.78c-.117.53-.191.894-.282 1.302-.126.534-.156.799.021.924.178.126.487.161.773-.928a4.717 4.717 0 0 1-.96 2c-.563.634-1.4 1.28-1.166 1.602.234.32.846 0 .846 0s.082.53.842.1c0 0 .1.433.868-.13 0 0 .312.35 1.015-.378.703-.73 3.203-3.528 3.164-8.68l-4.687.408z" fill="#FFDFCA"/>
        <path d="M432.728 346.253l.798 23.846 4.67-.144s3.562-9.377 4.443-24.358" fill="#FFF"/>
        <circle fill="#FFF" transform="rotate(-1.03 437.668 345.611)" cx="437.668" cy="345.611" r="4.978"/>
        <path d="M425.168 321.191l7.76 25.977 9.716-1.623s.156-2.408.156-4.995c0-10.883-1.545-19.072-4.487-24.87" fill="#FFF"/>
        <circle fill="#FFF" transform="rotate(-.22 431.914 318.819)" cx="431.914" cy="318.819" r="7.143"/>
    </g>
</svg>
