<svg width="412" height="422" viewBox="0 0 412 422" xmlns="http://www.w3.org/2000/svg">
    <g fill="none" fill-rule="evenodd">
        <path d="M123.2 409.88h5.19c1.3-4.92 8.55-8.69 17.32-8.69 9.68 0 17.54 4.6 17.54 10.27s-7.86 10.27-17.54 10.27c-8.81 0-16.07-3.81-17.33-8.76h-5.21a1.545 1.545 0 1 1 0-3.09h.03z" fill="#D8D8D8" fill-rule="nonzero"/>
        <path d="M145.74 382.46c9.68 0 17.54 4.6 17.54 10.26a6.22 6.22 0 0 1-.29 1.83l-2.71 16.84c0 4.7-6.51 8.51-14.54 8.51s-14.54-3.81-14.54-8.51l-2.71-16.84a6.21 6.21 0 0 1-.29-1.83c0-5.66 7.85-10.26 17.54-10.26z" fill="#9ECCFF" fill-rule="nonzero"/>
        <ellipse fill="#7FB4DD" fill-rule="nonzero" cx="145.74" cy="392.73" rx="17.54" ry="10.27"/>
        <path d="M145.74 391.46c6.73 0 12 2.22 14.33 4.88-2.36 2.66-7.59 4.88-14.33 4.88s-12-2.22-14.33-4.88c2.36-2.65 7.6-4.88 14.33-4.88z" fill="#5E3B1A" fill-rule="nonzero"/>
        <path d="M128.08 396.42s-4.62-.47-6.11 3.06c-1.49 3.53 2.31 10.35 10.23 14.35 0 0 2.18-.82 1.41-1.86-.93-1.28-8.19-4.65-8.5-9.2-.31-4.55 4.59-3.15 5.47-2a3.14 3.14 0 0 0-2.5-4.35z" fill="#9ECCFF" fill-rule="nonzero"/>
        <path d="M145.74 384.56c9.24 0 15.44 4.22 15.44 8.17 0 4.43-7.07 8.18-15.44 8.18s-15.44-3.74-15.44-8.18c0-3.94 6.2-8.17 15.44-8.17zm0-2.1c-9.69 0-17.54 4.6-17.54 10.26S136.05 403 145.74 403s17.54-4.6 17.54-10.27-7.86-10.26-17.54-10.26v-.01z" fill="#FFF" fill-rule="nonzero"/>
        <path d="M348.11 300.77l-154 89.62a9.47 9.47 0 0 1-8.6 0l-94.92-55.21a2.65 2.65 0 0 1 0-5l154-89.57a9.47 9.47 0 0 1 8.6 0l94.87 55.16a2.65 2.65 0 0 1 0 5h.05z" fill="#000" fill-rule="nonzero" opacity=".15"/>
        <path d="M249.51 134.51a3.74 3.74 0 0 0-3.38.35l-154 89.58a7.07 7.07 0 0 0-3.12 7.33l27.19 110.69a3.94 3.94 0 0 0 1.49 2.33l1.88 1.1c.146.097.3.18.46.25a3.74 3.74 0 0 0 3.39-.35l154-89.57a7.06 7.06 0 0 0 3.11-7.33l-27.2-110.7a3.86 3.86 0 0 0-1.74-2.5l-2.08-1.18z" fill="#DBDDDD" fill-rule="nonzero"/>
        <path d="M280.53 248.89a7.06 7.06 0 0 1-3.11 7.33l-154.03 89.57a3.53 3.53 0 0 1-5.49-2.33L90.69 232.77a7.06 7.06 0 0 1 3.11-7.33l154-89.58a3.53 3.53 0 0 1 5.49 2.33l27.24 110.7z" fill="#171719" fill-rule="nonzero"/>
        <path d="M91.12 228.63a6.71 6.71 0 0 0-.42 4.15l27.19 110.69a3.74 3.74 0 0 0 2.1 2.68 15.55 15.55 0 0 1-2.34-1.35 3.94 3.94 0 0 1-1.49-2.33l-27.19-110.7a6.7 6.7 0 0 1 .43-4.15l1.72 1.01z" opacity=".2" fill-rule="nonzero" fill="#000"/>
        <path d="M89.39 227.63a6.71 6.71 0 0 1 2.69-3.19l1.72 1a7.06 7.06 0 0 0-3.11 7.33l-1.72-1a6.7 6.7 0 0 1 .42-4.14zM249.38 142.98l26.11 106.33-153.68 89.36-26.07-106.23z" fill="#FFF" fill-rule="nonzero"/>
        <path fill="#D3D3D3" fill-rule="nonzero" d="M215.17 191.45l.28 1.14-31.07 18.18-.29-1.13 31.08-18.19M215.71 193.64l.29 1.13-31.07 18.19-.29-1.13 31.07-18.19M216.27 195.82l.29 1.14-31.09 18.18-.28-1.13 31.08-18.19M216.82 198.01l.28 1.12-31.07 18.2-.28-1.13 31.07-18.19M217.36 200.2l.29 1.13-31.08 18.18-.28-1.13 31.07-18.18M217.91 202.38l.29 1.13-31.08 18.2-.28-1.13 31.07-18.2M218.47 204.55l.28 1.16-31.08 18.18-.29-1.13 31.09-18.21M219.02 206.75l.27 1.13-23.6 13.82-.28-1.14 23.61-13.81M249.43 171.4l.29 1.13-31.08 18.19-.28-1.13 31.07-18.19M249.98 173.59l.29 1.13-31.08 18.18-.29-1.12 31.08-18.19M250.52 175.76l.29 1.14-31.07 18.19-.29-1.13 31.07-18.2M251.07 177.96l.29 1.13-31.07 18.18-.28-1.13 31.06-18.18M251.63 180.13l.28 1.13-31.07 18.2-.28-1.13 31.07-18.2M252.18 182.33l.28 1.13-31.08 18.18-.28-1.13 31.08-18.18M252.72 184.51l.29 1.13-31.08 18.2-.28-1.14 31.07-18.19M253.27 186.69l.29 1.13-31.08 18.2-.27-1.14 31.06-18.19M247.54 163.86l.92 3.65-51.24 30-.91-3.65 51.23-30"/>
        <path d="M259.93 213.17c1.95 8.23-3 18.67-11.12 23.44l-.11.06c-8.1 4.68-16.27 1.93-18.43-6.13l29.66-17.37" fill="#2B90FF" fill-rule="nonzero"/>
        <path d="M231.84 217.44l12.75 4.3-14.41 8.43a20 20 0 0 1 1.66-12.72" fill="#9ECCFF" fill-rule="nonzero"/>
        <path d="M241.39 206.67c8.11-4.68 16.3-1.95 18.45 6.14l-14.72 8.61-13.1-4.42a24.16 24.16 0 0 1 9.28-10.3l.09-.05" fill="#10355D" fill-rule="nonzero"/>
        <path fill="#D3D3D3" fill-rule="nonzero" d="M222.37 220.1l.46 1.83-10.58 6.18-.45-1.83 10.57-6.18"/>
        <path fill="#E9E9E9" fill-rule="nonzero" d="M223.07 222.87l.28 1.13-12.76 7.46-.29-1.12 12.77-7.47M223.48 224.51l.29 1.14-12.77 7.46-.28-1.12 12.76-7.48"/>
        <path fill="#D3D3D3" fill-rule="nonzero" d="M224.92 230.27l.46 1.82-10.56 6.2-.46-1.83 10.56-6.19"/>
        <path fill="#E9E9E9" fill-rule="nonzero" d="M225.62 233.03l.28 1.14-12.75 7.47-.3-1.13 12.77-7.48M226.03 234.68l.29 1.13-12.76 7.48-.29-1.13 12.76-7.48"/>
        <path fill="#D3D3D3" fill-rule="nonzero" d="M227.48 240.45l.46 1.83-10.56 6.17-.46-1.82 10.56-6.18"/>
        <path fill="#E9E9E9" fill-rule="nonzero" d="M228.17 243.22l.29 1.13-12.76 7.46-.28-1.12 12.75-7.47M228.59 244.87l.28 1.13-12.75 7.46-.29-1.13 12.76-7.46"/>
        <path fill="#D3D3D3" fill-rule="nonzero" d="M137.93 236.67l.29 1.13-31.08 18.2-.29-1.13 31.08-18.2M138.48 238.87l.28 1.11-31.07 18.2-.29-1.13 31.08-18.18M139.03 241.04l.28 1.14-31.08 18.19-.27-1.15 31.07-18.18M139.58 243.22l.29 1.13-31.08 18.2-.28-1.13 31.07-18.2M140.13 245.41l.28 1.13-21.87 12.81-.29-1.14 21.88-12.8M172.19 216.62l.29 1.13-31.07 18.18-.29-1.13 31.07-18.18M172.74 218.8l.29 1.13-31.08 18.18-.28-1.11 31.07-18.2M173.29 220.99l.28 1.13-31.07 18.19-.29-1.13 31.08-18.19M173.84 223.16l.29 1.13-31.08 18.21-.28-1.15 31.07-18.19M174.39 225.35l.29 1.13-31.08 18.19-.28-1.13 31.07-18.19M170.29 209.09l.93 3.64-41.85 24.5-.91-3.65 41.83-24.49"/>
        <path fill="#E9E9E9" fill-rule="nonzero" d="M172.78 282.23l.28 1.13-37.61 22.02-.29-1.12 37.62-22.03M170.06 286.34l.28 1.12-31.08 18.19-.28-1.13 31.08-18.18"/>
        <path fill="#2B90FF" fill-rule="nonzero" d="M180.41 266.2l.83 3.3-1.99 1.17-.83-3.3 1.99-1.17"/>
        <path fill="#9ECCFF" fill-rule="nonzero" d="M179.25 261.59l1.16 4.61-1.99 1.17-1.16-4.6 1.99-1.18"/>
        <path fill="#2B90FF" fill-rule="nonzero" d="M174.25 267.25l1.39 5.53-1.99 1.16-1.38-5.51 1.98-1.18"/>
        <path fill="#9ECCFF" fill-rule="nonzero" d="M173.34 263.6l.91 3.65-1.98 1.18-.93-3.67 2-1.16"/>
        <path fill="#2B90FF" fill-rule="nonzero" d="M166.85 263.35l3.2 12.7-1.99 1.18-3.2-12.71 1.99-1.17M162.51 271.63l1.94 7.71-1.98 1.16-1.94-7.71 1.98-1.16"/>
        <path fill="#9ECCFF" fill-rule="nonzero" d="M161.71 268.41l.8 3.22-1.98 1.16-.81-3.22 1.99-1.16"/>
        <path fill="#2B90FF" fill-rule="nonzero" d="M157.88 278.74l.97 3.86-1.97 1.16-.98-3.86 1.98-1.16M152.6 283.22l.66 2.67-1.99 1.16-.66-2.66 1.99-1.17"/>
        <path fill="#9ECCFF" fill-rule="nonzero" d="M150.59 275.25l2.01 7.97-1.99 1.17-2.01-7.98 1.99-1.16"/>
        <path fill="#2B90FF" fill-rule="nonzero" d="M145.25 279.52l2.42 9.64-1.99 1.16-2.42-9.64 1.99-1.16"/>
        <path fill="#9ECCFF" fill-rule="nonzero" d="M144.41 276.16l.84 3.36-1.99 1.16-.85-3.36 2-1.16"/>
        <path fill="#2B90FF" fill-rule="nonzero" d="M137.94 275.97l4.13 16.46-1.98 1.16-4.15-16.46 2-1.16M135.55 292.04l.93 3.67-2 1.17-.91-3.67 1.98-1.17"/>
        <path fill="#9ECCFF" fill-rule="nonzero" d="M133.57 284.13l1.98 7.91-1.98 1.17-1.98-7.91 1.98-1.17"/>
        <path fill="#2B90FF" fill-rule="nonzero" d="M130.55 297.65l.34 1.33-2 1.17-.33-1.34 1.99-1.16"/>
        <path fill="#9ECCFF" fill-rule="nonzero" d="M125.89 279.12l4.66 18.53-1.99 1.16-4.66-18.53 1.99-1.16"/>
        <path fill="#2B90FF" fill-rule="nonzero" d="M125.08 301.43l.22.82-2 1.16-.2-.83 1.98-1.15"/>
        <path fill="#9ECCFF" fill-rule="nonzero" d="M120.2 281.99l4.88 19.44-1.98 1.15-4.9-19.42 2-1.17"/>
        <path d="M176 253.2a.44.44 0 0 1 .71.24.86.86 0 0 1-.42.87.42.42 0 0 1-.67-.25.59.59 0 0 1 0-.26h.54l.06-.17h-.55a1 1 0 0 1 .37-.45M169.13 253.28a.71.71 0 0 0-.05.47.43.43 0 0 0 .7.25 1 1 0 0 0 .38-.45h-.56l-.47-.23m.36-.42a.84.84 0 0 0-.27.25l.45.23h.53a.69.69 0 0 0 0-.27.44.44 0 0 0-.71-.24M162.31 249.81l-.11.52a.62.62 0 0 0 .22-.08 1 1 0 0 0 .27-.25l-.38-.19m-.16-.69a.89.89 0 0 0-.42.89.41.41 0 0 0 .36.32l.14-.63v-.14l.54.27a.75.75 0 0 0 0-.48.44.44 0 0 0-.69-.23M159.49 262.67l-.14.64-.3.66a.54.54 0 0 0 .37-.08.87.87 0 0 0 .42-.89.39.39 0 0 0-.35-.33m-.34.08a.87.87 0 0 0-.42.89.43.43 0 0 0 .22.29l.28-.61.14-.65a.63.63 0 0 0-.23.08M155.49 271.77l-.28.63v.08l-.55-.14a.74.74 0 0 0 0 .38.44.44 0 0 0 .7.22.85.85 0 0 0 .41-.88.39.39 0 0 0-.22-.28m-.47.05a.86.86 0 0 0-.33.35l.45.12.25-.55a.57.57 0 0 0-.37.08M147.77 270.49a.7.7 0 0 0 0 .44.43.43 0 0 0 .69.23.87.87 0 0 0 .33-.34l-.51-.13-.48-.19m.38-.45a.89.89 0 0 0-.3.28l.47.19.51.13a.69.69 0 0 0 0-.37c-.07-.31-.39-.41-.69-.23M140.59 267.67a.7.7 0 0 0 0 .35.43.43 0 0 0 .69.24.94.94 0 0 0 .3-.29l-.47-.2-.51-.11m.4-.53a.88.88 0 0 0-.33.36l.52.11.48.19a.71.71 0 0 0 0-.44.44.44 0 0 0-.71-.23M134.39 266.28l-.39.49c.155.1.355.1.51 0a.91.91 0 0 0 .34-.36l-.48-.11m-.14-.65a.86.86 0 0 0-.41.88.51.51 0 0 0 .09.18l.43-.55.54.12a.74.74 0 0 0 0-.37.44.44 0 0 0-.71-.23M129.95 271.9l-.43.56-.59.1a.66.66 0 0 0 0 .16.44.44 0 0 0 .7.23.88.88 0 0 0 .42-.89.51.51 0 0 0-.1-.18m-.59-.06a.9.9 0 0 0-.42.57l.55-.1.4-.51a.47.47 0 0 0-.5 0M122.77 273.57a.57.57 0 0 0 0 .24.44.44 0 0 0 .7.25.91.91 0 0 0 .42-.59l-.59.1h-.54m.44-.64a.88.88 0 0 0-.38.46h.57l.56-.1a.55.55 0 0 0 0-.14.43.43 0 0 0-.68-.24M116.76 272.86a.44.44 0 0 1 .71.23.71.71 0 0 1 0 .26h-.54l-.06.17h.52a.91.91 0 0 1-.38.46.42.42 0 0 1-.67-.25.85.85 0 0 1 .41-.88" fill="#2B90FF" fill-rule="nonzero"/>
        <path d="M148.83 270.64a.83.83 0 0 1-.08.17l5.86 1.52a.73.73 0 0 1 .07-.16l-5.85-1.53m10.13-6.71l-3.57 7.81h.1l3.57-7.81h-.1m11.24-10.56a.68.68 0 0 1 0 .18l5.43.27a.72.72 0 0 1 0-.17l-5.43-.28m-28.54 14.43a1.08 1.08 0 0 1-.09.17l6.19 2.52a1.33 1.33 0 0 1 .09-.17l-6.19-2.52m-6.77-1.57a1.33 1.33 0 0 1-.06.16l5.77 1.28a1 1 0 0 1 .07-.17l-5.77-1.27m27.19-15.9l-2.7 12.34h.11l2.7-12.34h-.12m.71-.5a.94.94 0 0 1-.1.17l6.45 3.28a.9.9 0 0 1 .09-.17l-6.44-3.28m-45.32 23.51a.77.77 0 0 1 0 .17l5.35.06a.84.84 0 0 1 0-.16l-5.34-.07" fill="#9ECCFF" fill-rule="nonzero"/>
        <path d="M175.63 253.65h.55l-.06.17h-.54a.72.72 0 0 1 0-.17M169.23 253.12l.45.23h.53a.68.68 0 0 1 0 .18h-.56l-.47-.23a.9.9 0 0 1 .09-.17M162.25 249.56l.54.27a.94.94 0 0 1-.1.17l-.38-.19-.11.52h-.12l.14-.63v-.14M159.39 262.67h.11l-.14.64-.3.66h-.1l.28-.61.14-.65M155.39 271.74h.1l-.28.63v.08l-.55-.14a.73.73 0 0 1 .07-.16l.45.12.25-.55M147.85 270.32l.47.19.51.13a.83.83 0 0 1-.08.17l-.51-.13-.48-.19a1.33 1.33 0 0 1 .09-.17M140.66 267.49l.52.11.48.19a1.08 1.08 0 0 1-.09.17l-.47-.2-.51-.11a1 1 0 0 1 .07-.17" fill="#2B90FF" fill-rule="nonzero"/>
        <path d="M123.92 273.32a.56.56 0 0 1 0 .16l5-.89a.76.76 0 0 1 0-.15l-5 .89m10-6.62l-4 5.12.08.07 4-5.12-.08-.08" fill="#9ECCFF" fill-rule="nonzero"/>
        <path d="M134.39 266.1l.54.12a1.33 1.33 0 0 1-.06.16l-.48-.11-.39.49-.08-.08.43-.55M129.87 271.82l.08.07-.43.56-.59.1a.76.76 0 0 1 0-.15l.55-.1.4-.51M122.81 273.41h.58l.56-.1a.56.56 0 0 1 0 .16l-.59.1h-.54a.84.84 0 0 1 0-.16M116.94 273.33h.54a.77.77 0 0 1 0 .17h-.55l.06-.17" fill="#2B90FF" fill-rule="nonzero"/>
        <path fill="#10355D" fill-rule="nonzero" d="M250.53 147.65L96.86 237.01l-1.12-4.57 153.64-89.46z"/>
        <path d="M245.54 149.25l-.09-.4 2.59-1.52.11.39-2.6 1.53m-.25-1l-.1-.41 2.61-1.52.1.4-2.61 1.53m-.25-1l-.1-.4 2.61-1.53.09.41-2.6 1.52" fill="#FFF" fill-rule="nonzero"/>
        <path d="M99.64 232.16a.63.63 0 0 1 1 .35 1.24 1.24 0 0 1-.59 1.27.63.63 0 0 1-1-.33 1.26 1.26 0 0 1 .6-1.28" fill="#9FE813" fill-rule="nonzero"/>
        <path d="M102.62 230.43a.61.61 0 0 1 1 .35 1.26 1.26 0 0 1-.6 1.27.63.63 0 0 1-1-.34 1.23 1.23 0 0 1 .6-1.27" fill="#FFE045" fill-rule="nonzero"/>
        <path d="M105.56 228.7a.62.62 0 0 1 1 .34 1.27 1.27 0 0 1-.6 1.28.63.63 0 0 1-1-.34 1.23 1.23 0 0 1 .59-1.27" fill="#FF4878" fill-rule="nonzero"/>
        <path d="M382.66 317.35a3 3 0 0 1-1.77 2.5l-154 89.62a9.46 9.46 0 0 1-8.6 0l-94.9-55.21a3 3 0 0 1-1.77-2.5v-3.44a3 3 0 0 1 1.78-2.5l154-89.57a9.47 9.47 0 0 1 8.6 0l94.87 55.16a3 3 0 0 1 1.77 2.5l.02 3.44z" fill="#DBDDDD" fill-rule="nonzero"/>
        <path d="M222.54 410.51a8.73 8.73 0 0 0 4.3-1l154-89.62a3 3 0 0 0 1.77-2.5v-3.44a3.05 3.05 0 0 1-1.77 2.51l-154 89.54a8.73 8.73 0 0 1-4.3 1v3.51z" fill="#000" fill-rule="nonzero" opacity=".2"/>
        <path d="M222.54 410.51a8.72 8.72 0 0 1-4.3-1l-94.85-55.25a3 3 0 0 1-1.77-2.5v-3.44a3 3 0 0 0 1.77 2.51L218.24 406a8.72 8.72 0 0 0 4.3 1" fill="#000" fill-rule="nonzero" opacity=".1"/>
        <path d="M296.45 331.08a6.32 6.32 0 0 0-5.73 0l-38.56 22.46c-1.58.92-1.58 2.42 0 3.34l22.07 12.86a6.31 6.31 0 0 0 5.73 0l38.6-22.45c1.57-.92 1.57-2.42 0-3.34l-22.11-12.87zM293.17 367.32a.87.87 0 0 1 0-1.66L311.52 355a3.19 3.19 0 0 1 2.87 0l.12.07-21.24 12.36-.1-.11z" opacity=".08" fill-rule="nonzero" fill="#000"/>
        <path d="M314.51 355v.16a3.2 3.2 0 0 1-1.43 2.49l-18.36 10.69c-.79.46-1.43.09-1.43-.83v-.17L314.51 355z" opacity=".08" fill-rule="nonzero" fill="#000"/>
        <path fill="#000" fill-rule="nonzero" opacity=".3" d="M124.18 352.42l3.23 1.87v1.26l-3.23-1.88zM128.37 354.84l3.23 1.88v1.25l-3.23-1.88zM132.47 357.55l6.12 3.54v.63l-6.12-3.55z"/>
        <path d="M241.66 269.54a9 9 0 0 1 8.13 0l5.8 3.34c2.23 1.3 2.23 3.42 0 4.72l-95.48 55.46a9 9 0 0 1-8.13 0l-5.8-3.33c-2.24-1.3-2.24-3.42 0-4.72l95.48-55.47z" fill="#171719" fill-rule="nonzero"/>
        <path d="M164.12 339.86c.58.34.6.88 0 1.22l-6.84 4a2.33 2.33 0 0 1-2.11 0l-2.63-1.52a.65.65 0 0 1 0-1.22l6.84-4a2.31 2.31 0 0 1 2.1 0l2.64 1.52z" fill="#515151" fill-rule="nonzero"/>
        <g fill-rule="nonzero">
            <path d="M325.74 302.95c.58.34.58.87 0 1.21l-6.3 3.66a2.29 2.29 0 0 1-2.1 0l-2.73-1.58 8.39-4.88 2.74 1.59zM256.52 308.73a.64.64 0 0 1 0 1.21l-6.3 3.66a2.31 2.31 0 0 1-2.1 0l-5.12-3a.65.65 0 0 1 0-1.22l6.3-3.66a2.32 2.32 0 0 1 2.11 0l5.11 3.01zM236.73 320.24a.64.64 0 0 1 0 1.21l-6.3 3.66a2.31 2.31 0 0 1-2.1 0l-5.13-3a.65.65 0 0 1 0-1.22l6.3-3.66a2.33 2.33 0 0 1 2.11 0l5.12 3.01zM216.92 331.75c.58.33.57.88 0 1.21l-6.3 3.66a2.32 2.32 0 0 1-2.1 0l-5.12-3a.65.65 0 0 1 0-1.22l6.3-3.66a2.33 2.33 0 0 1 2.11 0l5.11 3.01zM153.93 345.79a.65.65 0 0 1 0 1.22l-6.84 4a2.33 2.33 0 0 1-2.11 0l-2.59-1.54a.65.65 0 0 1 0-1.22l6.84-4a2.33 2.33 0 0 1 2.11 0l2.59 1.54zM234.19 356.16a.64.64 0 0 1 0 1.21l-8.16 4.74a2.29 2.29 0 0 1-2.09 0l-5.12-3c-.59-.34-.6-.88 0-1.21l8.16-4.74a2.33 2.33 0 0 1 2.11 0l5.1 3zM205 361.36a.64.64 0 0 1 0 1.22l-18.85 11a2.33 2.33 0 0 1-2.1 0l-5.12-3a.65.65 0 0 1 0-1.22l18.85-11a2.35 2.35 0 0 1 2.11 0l5.11 3zM212.53 368.74a.64.64 0 0 1 0 1.21l-6.3 3.66a2.31 2.31 0 0 1-2.1 0l-5.12-3a.64.64 0 0 1 0-1.22l6.3-3.66a2.33 2.33 0 0 1 2.11 0l5.11 3.01z" fill="#515151"/>
            <path d="M340.61 297.13c.58.34.6.88 0 1.22l-144.3 83.86a2.33 2.33 0 0 1-2.11 0l-56.71-32.74a.64.64 0 0 1 0-1.22l144.3-83.86a2.29 2.29 0 0 1 2.1 0l56.72 32.74zm-102.84 58.16L285 327.84c.58-.34.57-.87 0-1.21l-5.12-3a2.29 2.29 0 0 0-2.1 0l-47.23 27.45c-.58.34-.59.88 0 1.22l5.13 3a2.32 2.32 0 0 0 2.1 0l-.01-.01zm-51.62 18.25l18.85-11a.64.64 0 0 0 0-1.22l-5.13-3a2.35 2.35 0 0 0-2.11 0l-18.85 11a.65.65 0 0 0 0 1.22l5.12 3a2.33 2.33 0 0 0 2.1 0h.02zm121.74-70.77l17.7-10.29c.58-.34.59-.88 0-1.21l-5.13-3a2.33 2.33 0 0 0-2.11 0l-17.7 10.29c-.58.34-.57.88 0 1.22l5.12 3a2.31 2.31 0 0 0 2.09 0l.03-.01zm-131.55 65.1l13.92-8.09a.65.65 0 0 0 0-1.22l-5.13-3a2.33 2.33 0 0 0-2.11 0l-13.92 8.09a.65.65 0 0 0 0 1.22l5.12 3a2.33 2.33 0 0 0 2.11 0h.01zm126.59-73.57l12.87-7.48a.65.65 0 0 0 0-1.22l-5.12-3a2.33 2.33 0 0 0-2.11 0l-12.86 7.48c-.58.34-.57.88 0 1.22l5.12 3a2.32 2.32 0 0 0 2.1 0zm-17.71-12.38l11-6.39a.65.65 0 0 0 0-1.22l-5.13-3a2.33 2.33 0 0 0-2.11 0l-11 6.39a.65.65 0 0 0 0 1.22l5.12 3a2.33 2.33 0 0 0 2.11 0h.01zm-118.65 80.31l10.83-6.3c.59-.34.59-.88 0-1.22l-5.12-3a2.31 2.31 0 0 0-2.11 0l-10.84 6.3a.65.65 0 0 0 0 1.22l5.12 3a2.32 2.32 0 0 0 2.1 0h.02zm59.43-.11l8.16-4.74a.64.64 0 0 0 0-1.21l-5.12-3a2.33 2.33 0 0 0-2.11 0l-8.16 4.74c-.58.34-.57.87 0 1.21l5.12 3a2.29 2.29 0 0 0 2.09 0h.02zm62.39-36.23l8.15-4.74c.59-.34.59-.88 0-1.22l-5.15-2.93a2.29 2.29 0 0 0-2.11 0l-8.15 4.74c-.58.34-.59.88 0 1.22l5.12 3a2.3 2.3 0 0 0 2.1 0l.04-.07zm4.54-25.71l6.31-3.67a.65.65 0 0 0 0-1.22l-5.13-3a2.35 2.35 0 0 0-2.11 0l-6.31 3.67a.65.65 0 0 0 0 1.22l5.12 3a2.34 2.34 0 0 0 2.11 0h.01zm-86.77 27.74l6.3-3.66a.65.65 0 0 0 0-1.22l-5.07-3.04a2.33 2.33 0 0 0-2.11 0l-6.3 3.66a.65.65 0 0 0 0 1.22l5.13 3a2.35 2.35 0 0 0 2.11 0l-.06.04zm-19.77 11.44l6.3-3.66a.65.65 0 0 0 0-1.22l-5.12-3a2.31 2.31 0 0 0-2.11 0l-6.3 3.66a.65.65 0 0 0 0 1.22l5.12 3a2.33 2.33 0 0 0 2.11 0zm-19.8 11.5l6.3-3.66a.65.65 0 0 0 0-1.22l-5.13-3a2.33 2.33 0 0 0-2.11 0l-6.3 3.66a.65.65 0 0 0 0 1.22l5.12 3a2.33 2.33 0 0 0 2.11 0h.01zm98.99-57.53l6.3-3.66a.64.64 0 0 0 0-1.22l-5.12-3a2.31 2.31 0 0 0-2.11 0l-6.3 3.66a.65.65 0 0 0 0 1.22l5.12 3a2.35 2.35 0 0 0 2.11 0zm-49.5 28.77l6.3-3.66a.65.65 0 0 0 0-1.22l-5.12-3a2.33 2.33 0 0 0-2.11 0l-6.3 3.66a.65.65 0 0 0 0 1.22l5.12 3a2.35 2.35 0 0 0 2.11 0zm-39.6 23l6.3-3.66a.65.65 0 0 0 0-1.22l-5.13-3a2.33 2.33 0 0 0-2.11 0l-6.3 3.66a.65.65 0 0 0 0 1.22l5.13 3a2.33 2.33 0 0 0 2.11 0zm59.4-34.52l6.31-3.67a.65.65 0 0 0 0-1.22l-5.13-3a2.33 2.33 0 0 0-2.11 0l-6.31 3.67c-.58.33-.57.88 0 1.21l5.13 3a2.33 2.33 0 0 0 2.1 0l.01.01zm19.8-11.52l6.3-3.66a.65.65 0 0 0 0-1.22l-5.12-3a2.33 2.33 0 0 0-2.11 0l-6.36 3.72a.65.65 0 0 0 0 1.22l5.12 3a2.34 2.34 0 0 0 2.11 0l.06-.06zM156.7 356.6l6.3-3.66a.65.65 0 0 0 0-1.22l-5.12-3a2.33 2.33 0 0 0-2.11 0l-6.3 3.66a.65.65 0 0 0 0 1.22l5.12 3a2.33 2.33 0 0 0 2.11 0zm37.15 1.09l6.3-3.66a.65.65 0 0 0 0-1.22l-5.12-3a2.33 2.33 0 0 0-2.11 0l-6.3 3.66a.65.65 0 0 0 0 1.22l5.13 3a2.33 2.33 0 0 0 2.11 0h-.01zm79.24-46l6.3-3.66a.65.65 0 0 0 0-1.22l-5.12-3a2.32 2.32 0 0 0-2.11 0l-6.3 3.66a.65.65 0 0 0 0 1.22l5.12 3a2.34 2.34 0 0 0 2.11 0zm-29.69 17.26l6.29-3.66a.64.64 0 0 0 0-1.22l-5.12-3a2.32 2.32 0 0 0-2.11 0l-6.29 3.66a.65.65 0 0 0 0 1.23l5.12 3a2.36 2.36 0 0 0 2.12 0l-.01-.01zm19.8-11.49l6.3-3.66a.65.65 0 0 0 0-1.22l-5.12-3a2.33 2.33 0 0 0-2.11 0l-6.3 3.66c-.59.34-.57.88 0 1.22l5.12 3a2.33 2.33 0 0 0 2.11 0zm-29.7 17.26l6.3-3.66a.64.64 0 0 0 0-1.22l-5.12-3a2.31 2.31 0 0 0-2.11 0l-6.3 3.66a.65.65 0 0 0 0 1.22l5.12 3a2.35 2.35 0 0 0 2.11 0zm-9.9 5.75l6.3-3.66a.65.65 0 0 0 0-1.22l-5.13-3a2.33 2.33 0 0 0-2.11 0l-6.27 3.61a.65.65 0 0 0 0 1.22l5.13 3a2.35 2.35 0 0 0 2.11 0l-.03.05zm2.37-24.05l6.3-3.66a.64.64 0 0 0 0-1.22l-5.12-3a2.32 2.32 0 0 0-2.11 0l-6.3 3.66c-.58.33-.56.88 0 1.21l5.13 3a2.33 2.33 0 0 0 2.1 0v.01zm19.81-11.52l6.3-3.66c.58-.34.57-.88 0-1.21l-5.12-3a2.31 2.31 0 0 0-2.1 0l-6.3 3.66a.65.65 0 0 0 0 1.22l5.12 3a2.35 2.35 0 0 0 2.11 0l-.01-.01zm29.71-17.25l6.3-3.66c.58-.34.57-.88 0-1.21l-5.12-3a2.3 2.3 0 0 0-2.1 0l-6.3 3.66a.64.64 0 0 0 0 1.22l5.12 3a2.32 2.32 0 0 0 2.11 0l-.01-.01zm-79.19 46.01l6.3-3.66c.58-.34.57-.88 0-1.22l-5.12-3a2.31 2.31 0 0 0-2.1 0l-6.3 3.66c-.59.34-.57.89 0 1.22l5.13 3a2.33 2.33 0 0 0 2.11 0h-.02zm17.48 12.53l6.3-3.66c.58-.34.57-.88 0-1.22l-5.12-3a2.31 2.31 0 0 0-2.1 0l-6.3 3.66c-.59.34-.57.88 0 1.22l5.12 3a2.33 2.33 0 0 0 2.11 0h-.01zm-9.9 5.76l6.31-3.67c.58-.34.57-.88 0-1.22l-5.12-3a2.31 2.31 0 0 0-2.1 0l-6.31 3.67c-.58.33-.57.88 0 1.21l5.12 3a2.32 2.32 0 0 0 2.1 0v.01zm79.21-46.01l6.31-3.67a.64.64 0 0 0 0-1.21l-5.12-3a2.33 2.33 0 0 0-2.1 0l-6.31 3.67c-.58.34-.57.88 0 1.21l5.12 3a2.32 2.32 0 0 0 2.1 0zm-29.7 17.18l6.3-3.66c.58-.34.57-.88 0-1.22l-5.12-3a2.31 2.31 0 0 0-2.1 0l-6.3 3.66a.65.65 0 0 0 0 1.22l5.12 3a2.34 2.34 0 0 0 2.11 0h-.01zm34.54-8.71l6.3-3.66a.64.64 0 0 0 0-1.22l-5.12-3a2.33 2.33 0 0 0-2.11 0l-6.3 3.66a.65.65 0 0 0 0 1.22l5.12 3a2.32 2.32 0 0 0 2.1 0h.01zm-29.72 17.26l6.3-3.66a.64.64 0 0 0 0-1.22l-5.12-3a2.35 2.35 0 0 0-2.11 0l-6.3 3.66a.65.65 0 0 0 0 1.22l5.12 3a2.31 2.31 0 0 0 2.1 0h.01zm-39.61 23l6.3-3.66a.64.64 0 0 0 0-1.21l-5.12-3a2.35 2.35 0 0 0-2.11 0l-6.3 3.66a.65.65 0 0 0 0 1.22l5.12 3a2.31 2.31 0 0 0 2.1 0l.01-.01zm19.79-11.5l6.3-3.66a.64.64 0 0 0 0-1.22l-5.13-3a2.35 2.35 0 0 0-2.11 0l-6.3 3.66c-.59.34-.58.89 0 1.22l5.12 3a2.29 2.29 0 0 0 2.1 0h.02zm9.88-5.75l6.3-3.66a.64.64 0 0 0 0-1.22l-5.12-3a2.36 2.36 0 0 0-2.11 0l-6.3 3.66a.65.65 0 0 0 0 1.22l5.12 3a2.32 2.32 0 0 0 2.1 0h.01zm29.7-17.26l6.3-3.66a.64.64 0 0 0 0-1.22l-5.13-3a2.33 2.33 0 0 0-2.11 0l-6.3 3.66a.65.65 0 0 0 0 1.22l5.12 3a2.29 2.29 0 0 0 2.1 0h.02zm19.77-11.5l6.3-3.66a.64.64 0 0 0 0-1.22l-5.12-3a2.33 2.33 0 0 0-2.11 0l-6.3 3.66a.65.65 0 0 0 0 1.22l5.12 3a2.31 2.31 0 0 0 2.1 0h.01zm-29.71 17.26l6.31-3.67a.64.64 0 0 0 0-1.21l-5.12-3a2.34 2.34 0 0 0-2.1 0l-6.31 3.67a.65.65 0 0 0 0 1.22l5.12 3a2.31 2.31 0 0 0 2.1 0v-.01zm-87.18 28.01l6.3-3.66a.64.64 0 0 0 0-1.22l-5.13-3a2.33 2.33 0 0 0-2.11 0l-6.3 3.66a.65.65 0 0 0 0 1.22l5.12 3a2.31 2.31 0 0 0 2.1 0h.02zm25.31 19.72l6.3-3.66a.64.64 0 0 0 0-1.21l-5.12-3a2.33 2.33 0 0 0-2.11 0l-6.3 3.66a.64.64 0 0 0 0 1.22l5.12 3a2.31 2.31 0 0 0 2.1 0l.01-.01zm113.21-65.79l6.3-3.66c.58-.34.58-.87 0-1.21l-2.73-1.58-2.31-1.41a2.31 2.31 0 0 0-2.11 0l-6.3 3.66c-.59.34-.59.88 0 1.22l2.39 1.38 2.73 1.58a2.29 2.29 0 0 0 2.1 0l-.07.02zm-123.08 71.53l6.3-3.66a.64.64 0 0 0 0-1.22l-5.12-3a2.3 2.3 0 0 0-2.11 0l-6.3 3.66c-.58.33-.59.88 0 1.22l5.12 3a2.32 2.32 0 0 0 2.1 0h.01zm19.82-11.52l6.3-3.66a.64.64 0 0 0 0-1.21l-5.12-3a2.33 2.33 0 0 0-2.11 0l-6.3 3.66a.64.64 0 0 0 0 1.22l5.12 3a2.31 2.31 0 0 0 2.1 0l.01-.01zm63.79-71.51l6.3-3.66a.64.64 0 0 0 0-1.21l-5.12-3a2.36 2.36 0 0 0-2.11 0l-6.3 3.66a.64.64 0 0 0 0 1.22l5.12 3a2.29 2.29 0 0 0 2.1 0l.01-.01zm-29.71 17.27l6.3-3.66a.64.64 0 0 0 0-1.21l-5.12-3a2.32 2.32 0 0 0-2.11 0l-6.3 3.66a.65.65 0 0 0 0 1.22l5.12 3a2.31 2.31 0 0 0 2.1 0l.01-.01zm-19.8 11.49l6.3-3.66a.64.64 0 0 0 0-1.21l-5.12-3a2.33 2.33 0 0 0-2.11 0l-6.3 3.66a.65.65 0 0 0 0 1.22l5.13 3a2.31 2.31 0 0 0 2.1 0v-.01zm69.5-5.94l6.31-3.67a.64.64 0 0 0 0-1.22l-5.12-3a2.31 2.31 0 0 0-2.11 0l-6.28 3.71c-.57.33-.58.87 0 1.22l5.13 3a2.3 2.3 0 0 0 2.09 0l-.02-.04zm-10.08-28.53l6.3-3.66a.64.64 0 0 0 0-1.21l-5.12-3a2.35 2.35 0 0 0-2.11 0l-6.3 3.66a.65.65 0 0 0 0 1.22l5.12 3a2.31 2.31 0 0 0 2.1 0l.01-.01zm-69.32 40.29l6.3-3.66a.64.64 0 0 0 0-1.21l-5.12-3a2.34 2.34 0 0 0-2.11 0l-6.3 3.66a.65.65 0 0 0 0 1.22l5.12 3a2.32 2.32 0 0 0 2.1 0l.01-.01zm39.59-22.99l6.31-3.67a.64.64 0 0 0 0-1.21l-5.12-3a2.34 2.34 0 0 0-2.1 0l-6.31 3.67a.65.65 0 0 0 0 1.22l5.12 3a2.31 2.31 0 0 0 2.1 0v-.01zm-49.5 28.78l6.3-3.66c.58-.34.59-.88 0-1.21l-5.13-3a2.33 2.33 0 0 0-2.11 0l-6.3 3.66a.65.65 0 0 0 0 1.22l5.12 3a2.32 2.32 0 0 0 2.1 0l.02-.01zm-9.92 5.76l6.3-3.66a.64.64 0 0 0 0-1.21l-5.13-3a2.33 2.33 0 0 0-2.11 0l-6.3 3.66a.65.65 0 0 0 0 1.22l5.13 3a2.32 2.32 0 0 0 2.1 0l.01-.01zm7.92 18.08l6.3-3.66a.64.64 0 0 0 0-1.21l-5.12-3a2.31 2.31 0 0 0-2.1 0l-6.3 3.66c-.59.34-.57.88 0 1.22l5.13 3a2.31 2.31 0 0 0 2.1 0l-.01-.01zm19.83-11.51l6.31-3.67c.58-.34.57-.87 0-1.21l-5.12-3a2.33 2.33 0 0 0-2.1 0l-6.31 3.67c-.58.34-.57.88 0 1.22l5.13 3a2.28 2.28 0 0 0 2.09 0v-.01zm71.25-64.08l6.3-3.66a.64.64 0 0 0 0-1.21l-5.12-3a2.35 2.35 0 0 0-2.11 0l-6.3 3.66c-.58.34-.57.88 0 1.22l5.12 3a2.28 2.28 0 0 0 2.09 0l.02-.01zm-108.92 63.3l6.3-3.66a.64.64 0 0 0 0-1.21l-5.12-3a2.31 2.31 0 0 0-2.1 0l-6.23 3.59c-.59.34-.57.88 0 1.22l5.13 3a2.3 2.3 0 0 0 2.1 0l-.08.06zm79.27-46.06l6.31-3.67c.58-.33.58-.87 0-1.21l-5.12-3a2.32 2.32 0 0 0-2.1 0l-6.31 3.67c-.58.34-.57.88 0 1.21l5.12 3a2.29 2.29 0 0 0 2.09 0h.01zm-29.7 17.26l6.3-3.66c.58-.33.58-.87 0-1.21l-5.12-3a2.32 2.32 0 0 0-2.1 0l-6.3 3.66c-.59.34-.57.88 0 1.22l5.13 3a2.29 2.29 0 0 0 2.1 0l-.01-.01zM147.1 351l6.84-4a.65.65 0 0 0 0-1.22l-2.63-1.52a2.33 2.33 0 0 0-2.11 0l-6.84 4a.65.65 0 0 0 0 1.22l2.63 1.52a2.33 2.33 0 0 0 2.11 0zm40.81-23.72l6.83-4c.59-.34.58-.88 0-1.22l-2.63-1.52a2.31 2.31 0 0 0-2.11 0l-6.83 4a.65.65 0 0 0 0 1.22l2.63 1.52a2.33 2.33 0 0 0 2.11 0zm61.21-35.57l6.84-4c.58-.34.56-.88 0-1.22l-2.65-1.49a2.32 2.32 0 0 0-2.1 0l-6.82 4a.65.65 0 0 0 0 1.22l2.62 1.52a2.34 2.34 0 0 0 2.11 0v-.03zm-71.41 41.53l6.83-4a.65.65 0 0 0 0-1.22l-2.63-1.52a2.33 2.33 0 0 0-2.11 0l-6.83 4a.65.65 0 0 0 0 1.22l2.63 1.51a2.33 2.33 0 0 0 2.11 0v.01zm30.61-17.8l6.83-4a.65.65 0 0 0 0-1.22l-2.63-1.52a2.35 2.35 0 0 0-2.11 0l-6.83 4a.65.65 0 0 0 0 1.22l2.63 1.52a2.33 2.33 0 0 0 2.11 0zm10.19-5.92l6.84-4a.65.65 0 0 0 0-1.22l-2.63-1.52a2.33 2.33 0 0 0-2.11 0l-6.84 4c-.58.34-.57.88 0 1.22l2.63 1.52a2.31 2.31 0 0 0 2.1 0h.01zm-61.22 35.57l6.84-4c.58-.34.56-.88 0-1.22l-2.63-1.52a2.31 2.31 0 0 0-2.1 0l-6.84 4a.65.65 0 0 0 0 1.22l2.63 1.52a2.33 2.33 0 0 0 2.11 0h-.01zm122.43-71.14l6.83-4a.65.65 0 0 0 0-1.22l-2.63-1.52a2.33 2.33 0 0 0-2.11 0l-6.83 4a.65.65 0 0 0 0 1.22l2.63 1.52a2.35 2.35 0 0 0 2.11 0zm-10.2 5.93l6.83-4a.65.65 0 0 0 0-1.22l-2.63-1.52a2.33 2.33 0 0 0-2.11 0l-6.83 4a.65.65 0 0 0 0 1.22l2.63 1.52a2.33 2.33 0 0 0 2.11 0zm-10.2 5.93l6.83-4c.59-.34.57-.89 0-1.22l-2.63-1.52a2.31 2.31 0 0 0-2.11 0l-6.83 4a.65.65 0 0 0 0 1.22l2.63 1.52a2.33 2.33 0 0 0 2.11 0zm-30.61 17.79l6.84-4a.65.65 0 0 0 0-1.22l-2.63-1.52a2.33 2.33 0 0 0-2.11 0l-6.84 4a.64.64 0 0 0 0 1.21l2.63 1.52a2.33 2.33 0 0 0 2.1 0l.01.01zm-61.22 35.56l6.84-4a.65.65 0 0 0 0-1.22l-2.63-1.52a2.35 2.35 0 0 0-2.1 0l-6.84 4a.65.65 0 0 0 0 1.22l2.62 1.52a2.33 2.33 0 0 0 2.11 0zm30.61-17.79l6.83-4a.65.65 0 0 0 0-1.22l-2.63-1.52a2.33 2.33 0 0 0-2.11 0l-6.83 4a.65.65 0 0 0 0 1.22l2.63 1.52a2.35 2.35 0 0 0 2.11 0zm40.8-23.71l6.84-4c.58-.34.56-.88 0-1.22l-2.63-1.52a2.31 2.31 0 0 0-2.1 0l-6.84 4c-.58.34-.57.88 0 1.22l2.62 1.52a2.32 2.32 0 0 0 2.1 0h.01zm70.99 15.72l6.3-3.66c.58-.34.59-.88 0-1.21l-1.67-1a2.33 2.33 0 0 0-2.11 0l-6.3 3.66a.64.64 0 0 0 0 1.22l1.67 1a2.32 2.32 0 0 0 2.1 0l.01-.01zM329.45 302l6.3-3.66a.64.64 0 0 0 0-1.22l-1.67-1a2.33 2.33 0 0 0-2.11 0l-6.3 3.66c-.58.34-.58.87 0 1.21l1.67 1a2.31 2.31 0 0 0 2.09 0l.02.01z" fill="#000" opacity=".08"/>
            <path d="M286.54 268.72a.65.65 0 0 1 0 1.22l-6.83 4a2.35 2.35 0 0 1-2.11 0l-2.63-1.52a.65.65 0 0 1 0-1.22l6.83-4a2.33 2.33 0 0 1 2.11 0l2.63 1.52zM276.39 274.65a.65.65 0 0 1 0 1.22l-6.83 4a2.33 2.33 0 0 1-2.11 0l-2.63-1.52a.65.65 0 0 1 0-1.22l6.83-4a2.33 2.33 0 0 1 2.11 0l2.63 1.52zM296.21 274.3a.65.65 0 0 1 0 1.22l-11 6.39a2.33 2.33 0 0 1-2.11 0l-5.12-3a.65.65 0 0 1 0-1.22l11-6.39a2.33 2.33 0 0 1 2.11 0l5.12 3zM306.02 280a.64.64 0 0 1 0 1.21l-6.3 3.66a2.28 2.28 0 0 1-2.09 0l-5.12-3c-.58-.34-.6-.88 0-1.22l6.3-3.66a2.35 2.35 0 0 1 2.11 0l5.1 3.01zM266.14 280.58c.58.34.59.88 0 1.22l-6.83 4a2.33 2.33 0 0 1-2.11 0l-2.63-1.52a.65.65 0 0 1 0-1.22l6.83-4a2.31 2.31 0 0 1 2.11 0l2.63 1.52zM281.77 282.69c.58.33.6.88 0 1.21l-6.3 3.66a2.32 2.32 0 0 1-2.11 0l-5.12-3a.64.64 0 0 1 0-1.22l6.3-3.66a2.31 2.31 0 0 1 2.1 0l5.13 3.01zM296.13 285.72a.64.64 0 0 1 0 1.21l-6.3 3.66a2.31 2.31 0 0 1-2.1 0l-5.12-3a.65.65 0 0 1 0-1.22l6.3-3.66a2.35 2.35 0 0 1 2.11 0l5.11 3.01zM255.94 286.51c.58.34.6.88 0 1.22l-6.84 4a2.34 2.34 0 0 1-2.11 0l-2.6-1.55a.65.65 0 0 1 0-1.22l6.84-4a2.33 2.33 0 0 1 2.1 0l2.61 1.55zM271.87 288.45a.64.64 0 0 1 0 1.22l-6.3 3.66a2.35 2.35 0 0 1-2.11 0l-5.12-3a.65.65 0 0 1 0-1.22l6.3-3.66a2.31 2.31 0 0 1 2.11 0l5.12 3zM315.79 285.6a.65.65 0 0 1 0 1.22l-12.87 7.48a2.32 2.32 0 0 1-2.1 0l-5.12-3c-.58-.34-.6-.88 0-1.22l12.86-7.48a2.33 2.33 0 0 1 2.11 0l5.12 3zM286.23 291.47a.64.64 0 0 1 0 1.21l-6.3 3.66a2.29 2.29 0 0 1-2.1 0l-5.12-3a.64.64 0 0 1 0-1.22l6.3-3.66a2.36 2.36 0 0 1 2.11 0l5.11 3.01zM245.73 292.44c.58.34.6.88 0 1.22l-6.84 4a2.33 2.33 0 0 1-2.1 0l-2.62-1.52c-.58-.34-.6-.88 0-1.22l6.84-4a2.31 2.31 0 0 1 2.1 0l2.62 1.52zM261.97 294.2a.65.65 0 0 1 0 1.22l-6.3 3.66a2.34 2.34 0 0 1-2.11 0l-5.12-3a.65.65 0 0 1 0-1.22l6.3-3.66a2.33 2.33 0 0 1 2.11 0l5.12 3zM299.24 295.22a.65.65 0 0 1 0 1.22l-6.31 3.67a2.34 2.34 0 0 1-2.11 0l-5.12-3a.65.65 0 0 1 0-1.22l6.31-3.67a2.35 2.35 0 0 1 2.11 0l5.12 3zM335.75 297.13a.64.64 0 0 1 0 1.22l-6.3 3.66a2.31 2.31 0 0 1-2.09 0l-1.67-1c-.59-.34-.6-.88 0-1.21l6.3-3.66a2.33 2.33 0 0 1 2.11 0l1.65.99zM276.32 297.23c.58.34.58.87 0 1.21l-6.31 3.67a2.29 2.29 0 0 1-2.09 0l-5.12-3c-.58-.33-.6-.88 0-1.21l6.31-3.67a2.32 2.32 0 0 1 2.1 0l5.11 3zM325.6 291.27c.58.33.57.88 0 1.21l-17.7 10.29a2.31 2.31 0 0 1-2.09 0l-5.12-3c-.58-.34-.6-.88 0-1.22l17.7-10.24a2.33 2.33 0 0 1 2.11 0l5.1 2.96zM235.54 298.36a.65.65 0 0 1 0 1.22l-6.84 4a2.33 2.33 0 0 1-2.1 0l-2.62-1.58a.64.64 0 0 1 0-1.21l6.84-4a2.33 2.33 0 0 1 2.11 0l2.61 1.57zM252.06 300c.58.33.6.88 0 1.21l-6.3 3.66a2.35 2.35 0 0 1-2.11 0l-5.12-3a.65.65 0 0 1 0-1.22l6.3-3.66a2.31 2.31 0 0 1 2.1 0l5.13 3.01zM323.02 301.37l-8.4 4.88-2.39-1.38c-.59-.34-.6-.88 0-1.22l6.3-3.66a2.31 2.31 0 0 1 2.11 0l2.38 1.38zM289.33 301a.64.64 0 0 1 0 1.21l-6.31 3.67a2.32 2.32 0 0 1-2.1 0l-5.12-3c-.58-.33-.6-.88 0-1.21l6.31-3.67a2.33 2.33 0 0 1 2.1 0l5.12 3zM266.39 303a.64.64 0 0 1 0 1.21l-6.31 3.67a2.31 2.31 0 0 1-2.1 0l-5.12-3a.65.65 0 0 1 0-1.22l6.31-3.67a2.34 2.34 0 0 1 2.1 0l5.12 3.01zM304.08 303.78a.64.64 0 0 1 0 1.22l-6.3 3.66a2.31 2.31 0 0 1-2.1 0l-5.12-3a.65.65 0 0 1 0-1.22l6.3-3.66a2.33 2.33 0 0 1 2.11 0l5.11 3zM225.34 304.29a.65.65 0 0 1 0 1.22l-6.84 4a2.31 2.31 0 0 1-2.1 0l-2.62-1.51c-.58-.34-.59-.88 0-1.22l6.84-4a2.33 2.33 0 0 1 2.11 0l2.61 1.51zM242.18 305.7a.65.65 0 0 1 0 1.22l-6.31 3.67a2.33 2.33 0 0 1-2.1 0l-5.13-3c-.58-.34-.6-.88 0-1.21l6.31-3.67a2.33 2.33 0 0 1 2.11 0l5.12 2.99zM279.39 306.73a.65.65 0 0 1 0 1.22l-6.3 3.66a2.34 2.34 0 0 1-2.11 0l-5.12-3a.65.65 0 0 1 0-1.22l6.3-3.66a2.32 2.32 0 0 1 2.11 0l5.12 3zM316.25 308.46c.58.33.58.88 0 1.21l-6.3 3.66a2.32 2.32 0 0 1-2.1 0l-1.67-1a.64.64 0 0 1 0-1.22l6.3-3.66a2.33 2.33 0 0 1 2.11 0l1.66 1.01zM294.18 309.53a.64.64 0 0 1 0 1.22l-6.3 3.66a2.32 2.32 0 0 1-2.1 0l-5.12-3a.65.65 0 0 1 0-1.22l6.3-3.66a2.33 2.33 0 0 1 2.11 0l5.11 3zM215.13 310.22a.65.65 0 0 1 0 1.22l-6.83 4a2.33 2.33 0 0 1-2.11 0l-2.63-1.52a.65.65 0 0 1 0-1.22l6.83-4a2.35 2.35 0 0 1 2.11 0l2.63 1.52zM232.27 311.46a.64.64 0 0 1 0 1.22l-6.3 3.66a2.33 2.33 0 0 1-2.1 0l-5.13-3c-.58-.34-.6-.88 0-1.21l6.3-3.66a2.32 2.32 0 0 1 2.11 0l5.12 2.99zM269.54 312.48a.65.65 0 0 1 0 1.22l-6.3 3.66a2.33 2.33 0 0 1-2.11 0l-5.12-3c-.58-.34-.6-.88 0-1.22l6.3-3.66a2.33 2.33 0 0 1 2.11 0l5.12 3zM306.24 314.28a.64.64 0 0 1 0 1.22l-6.31 3.67a2.3 2.3 0 0 1-2.09 0l-5.13-3c-.59-.34-.59-.89 0-1.22l6.31-3.67a2.31 2.31 0 0 1 2.11 0l5.11 3zM246.61 314.49c.58.34.59.87 0 1.21l-6.3 3.66a2.29 2.29 0 0 1-2.1 0l-5.13-3a.64.64 0 0 1 0-1.22l6.3-3.66a2.32 2.32 0 0 1 2.1 0l5.13 3.01zM284.28 315.28a.64.64 0 0 1 0 1.22l-6.3 3.66a2.29 2.29 0 0 1-2.1 0l-5.12-3a.65.65 0 0 1 0-1.22l6.3-3.66a2.33 2.33 0 0 1 2.11 0l5.11 3zM204.93 316.15a.65.65 0 0 1 0 1.22l-6.83 4a2.35 2.35 0 0 1-2.11 0l-2.6-1.55a.65.65 0 0 1 0-1.22l6.83-4a2.33 2.33 0 0 1 2.11 0l2.6 1.55zM222.39 317.21a.65.65 0 0 1 0 1.22l-6.3 3.66a2.35 2.35 0 0 1-2.11 0l-5.12-3a.65.65 0 0 1 0-1.22l6.3-3.66a2.33 2.33 0 0 1 2.11 0l5.12 3zM259.63 318.24c.58.33.6.88 0 1.22l-6.3 3.66a2.34 2.34 0 0 1-2.11 0l-5.12-3a.65.65 0 0 1 0-1.22l6.3-3.66a2.31 2.31 0 0 1 2.1 0l5.13 3zM296.51 319.94c.58.34.59.87 0 1.22l-8.12 4.73a2.31 2.31 0 0 1-2.1 0l-5.12-3c-.59-.34-.59-.89 0-1.22l8.15-4.74a2.29 2.29 0 0 1 2.11 0l5.08 3.01zM274.39 321a.64.64 0 0 1 0 1.21l-6.31 3.67a2.31 2.31 0 0 1-2.1 0l-5.12-3a.65.65 0 0 1 0-1.22l6.31-3.67a2.34 2.34 0 0 1 2.1 0l5.12 3.01zM194.73 322.08c.58.34.6.88 0 1.22l-6.83 4a2.33 2.33 0 0 1-2.11 0l-2.63-1.52a.65.65 0 0 1 0-1.22l6.83-4a2.31 2.31 0 0 1 2.11 0l2.63 1.52zM212.47 323a.65.65 0 0 1 0 1.22l-6.3 3.66a2.35 2.35 0 0 1-2.11 0l-5.13-3a.65.65 0 0 1 0-1.22l6.3-3.66a2.33 2.33 0 0 1 2.11 0l5.13 3zM249.73 324a.64.64 0 0 1 0 1.22l-6.29 3.66a2.36 2.36 0 0 1-2.12 0l-5.12-3a.65.65 0 0 1 0-1.23l6.29-3.65a2.32 2.32 0 0 1 2.11 0l5.13 3zM226.82 326a.64.64 0 0 1 0 1.21l-6.3 3.66a2.32 2.32 0 0 1-2.1 0l-5.12-3a.65.65 0 0 1 0-1.22l6.3-3.66a2.34 2.34 0 0 1 2.11 0l5.11 3.01zM264.48 326.79a.64.64 0 0 1 0 1.22l-6.3 3.66a2.31 2.31 0 0 1-2.1 0l-5.12-3a.65.65 0 0 1 0-1.22l6.3-3.66a2.35 2.35 0 0 1 2.11 0l5.11 3zM184.53 328a.65.65 0 0 1 0 1.22l-6.83 4a2.33 2.33 0 0 1-2.11 0l-2.63-1.51a.65.65 0 0 1 0-1.22l6.83-4a2.33 2.33 0 0 1 2.11 0l2.63 1.51zM202.56 328.72c.58.34.6.88 0 1.22l-6.3 3.66a2.33 2.33 0 0 1-2.11 0l-5.13-3c-.58-.34-.59-.88 0-1.22l6.3-3.66a2.31 2.31 0 0 1 2.1 0l5.14 3zM239.83 329.74a.64.64 0 0 1 0 1.22l-6.3 3.66a2.35 2.35 0 0 1-2.11 0l-5.12-3a.65.65 0 0 1 0-1.22l6.3-3.66a2.31 2.31 0 0 1 2.11 0l5.12 3zM254.58 332.54a.64.64 0 0 1 0 1.22l-6.3 3.66a2.32 2.32 0 0 1-2.1 0l-5.12-3a.65.65 0 0 1 0-1.22l6.3-3.66a2.33 2.33 0 0 1 2.11 0l5.11 3zM174.32 333.93a.65.65 0 0 1 0 1.22l-6.84 4a2.33 2.33 0 0 1-2.11 0l-2.62-1.52a.65.65 0 0 1 0-1.22l6.84-4a2.35 2.35 0 0 1 2.1 0l2.63 1.52zM192.67 334.47a.65.65 0 0 1 0 1.22l-6.3 3.66a2.33 2.33 0 0 1-2.11 0l-5.12-3a.65.65 0 0 1 0-1.22l6.3-3.66a2.31 2.31 0 0 1 2.11 0l5.12 3zM229.93 335.5a.65.65 0 0 1 0 1.22l-6.3 3.66a2.35 2.35 0 0 1-2.11 0l-5.13-3a.65.65 0 0 1 0-1.22l6.3-3.66a2.33 2.33 0 0 1 2.11 0l5.13 3zM207.02 337.5a.64.64 0 0 1 0 1.21l-6.3 3.66a2.32 2.32 0 0 1-2.1 0l-5.13-3a.65.65 0 0 1 0-1.22l6.3-3.66a2.33 2.33 0 0 1 2.11 0l5.12 3.01zM244.68 338.29a.64.64 0 0 1 0 1.22l-6.3 3.66a2.29 2.29 0 0 1-2.1 0l-5.12-3c-.58-.33-.6-.88 0-1.22l6.3-3.66a2.35 2.35 0 0 1 2.11 0l5.11 3zM182.77 340.22a.65.65 0 0 1 0 1.22l-6.3 3.66a2.33 2.33 0 0 1-2.11 0l-5.13-3a.65.65 0 0 1 0-1.22l6.3-3.66a2.33 2.33 0 0 1 2.11 0l5.13 3zM220.03 341.25c.58.34.59.88 0 1.22l-6.3 3.66a2.33 2.33 0 0 1-2.11 0l-5.12-3c-.58-.34-.6-.88 0-1.22l6.3-3.66a2.31 2.31 0 0 1 2.1 0l5.13 3zM197.12 343.26a.64.64 0 0 1 0 1.21l-6.3 3.66a2.3 2.3 0 0 1-2.1 0l-5.13-3c-.58-.34-.6-.88 0-1.22l6.3-3.66a2.31 2.31 0 0 1 2.1 0l5.13 3.01zM234.77 344.05c.58.34.59.87 0 1.21l-6.31 3.67a2.28 2.28 0 0 1-2.09 0l-5.13-3c-.58-.34-.6-.88 0-1.22l6.31-3.67a2.32 2.32 0 0 1 2.1 0l5.12 3.01zM172.87 346a.65.65 0 0 1 0 1.22l-6.3 3.66a2.33 2.33 0 0 1-2.11 0l-5.12-3a.65.65 0 0 1 0-1.22l6.3-3.66a2.33 2.33 0 0 1 2.11 0l5.12 3zM210.13 347c.58.34.6.88 0 1.22l-6.31 3.67a2.32 2.32 0 0 1-2.1 0l-5.12-3c-.58-.34-.6-.88 0-1.21l6.31-3.67a2.31 2.31 0 0 1 2.1 0l5.12 2.99zM187.2 349a.64.64 0 0 1 0 1.22l-6.3 3.66a2.31 2.31 0 0 1-2.1 0l-5.12-3a.65.65 0 0 1 0-1.22l6.3-3.66a2.33 2.33 0 0 1 2.11 0l5.11 3zM224.88 349.8a.64.64 0 0 1 0 1.21l-6.3 3.66a2.31 2.31 0 0 1-2.1 0l-5.12-3a.65.65 0 0 1 0-1.22l6.3-3.66a2.35 2.35 0 0 1 2.11 0l5.11 3.01zM284.99 326.63c.58.34.58.87 0 1.21l-47.23 27.45a2.32 2.32 0 0 1-2.1 0l-5.13-3a.64.64 0 0 1 0-1.22l47.23-27.45a2.29 2.29 0 0 1 2.1 0l5.13 3.01zM163.06 351.68a.65.65 0 0 1 0 1.22l-6.3 3.66a2.33 2.33 0 0 1-2.11 0l-5.12-3a.65.65 0 0 1 0-1.22l6.3-3.66a2.33 2.33 0 0 1 2.11 0l5.12 3zM200.21 352.77a.65.65 0 0 1 0 1.22l-6.3 3.66a2.33 2.33 0 0 1-2.11 0l-5.13-3a.65.65 0 0 1 0-1.22l6.3-3.66a2.33 2.33 0 0 1 2.11 0l5.13 3zM214.95 355.58a.64.64 0 0 1 0 1.21l-6.3 3.66a2.31 2.31 0 0 1-2.1 0l-5.13-3c-.58-.34-.6-.88 0-1.22l6.3-3.66a2.31 2.31 0 0 1 2.1 0l5.13 3.01zM177.39 354.71c.58.34.59.87 0 1.22l-10.83 6.3a2.32 2.32 0 0 1-2.1 0l-5.12-3a.65.65 0 0 1 0-1.22l10.84-6.3a2.31 2.31 0 0 1 2.11 0l5.1 3zM222.39 363a.64.64 0 0 1 0 1.21l-6.3 3.66a2.31 2.31 0 0 1-2.1 0l-5.12-3a.64.64 0 0 1 0-1.22l6.3-3.66a2.33 2.33 0 0 1 2.11 0l5.11 3.01zM202.6 374.51a.64.64 0 0 1 0 1.22l-6.3 3.66a2.32 2.32 0 0 1-2.1 0l-5.12-3c-.59-.34-.59-.89 0-1.22l6.3-3.66a2.3 2.3 0 0 1 2.11 0l5.11 3z" fill="#515151"/>
        </g>
        <path d="M190.25 358.56a.65.65 0 0 1 0 1.22l-13.92 8.09a2.33 2.33 0 0 1-2.11 0l-5.12-3a.65.65 0 0 1 0-1.22l13.92-8.09a2.33 2.33 0 0 1 2.11 0l5.12 3z" fill="#515151" fill-rule="nonzero"/>
        <g fill-rule="nonzero">
            <path d="M21.72 242.23l-.13.08c-.51 2.87-1.05 6-1.63 8.77l-.51 2.53 4.5-2.6-.49-2c-.59-2.08-1.18-4.61-1.74-6.83m6.51-14.9l-.37.21v1l.37-.21a1 1 0 0 0 .58-.89c0-.36-.21-.37-.58-.15m-3.14 1.8a1.77 1.77 0 0 0-.71 1.59c0 .74.28 1 .72.79a1.82 1.82 0 0 0 .71-1.61c0-.73-.28-1-.71-.76m-12.71 38.73l6.54-28.08 5.73-3.31 6.68 20.45-5.06 2.92-1.31-5-6.45 3.72L17.2 265l-4.81 2.78m.68-29.69c0-.38-.09-.86-.09-1.29v-1.3l.69-.4v3.68l-.74.43-.84-1.35-.32-.62c0 .39.09.84.09 1.28v1.31l-.69.4v-3.68l.74-.43.84 1.34.32.63m1.37.25v-3.68l2-1.16v.7l-1.28.74v.74l1.09-.63v.69l-1.09.63v.85l1.33-.77v.7l-2 1.18m2.33-4.33v-.7l2.48-1.43v.7l-.91.43v3l-.73.42v-3l-.87.5m6.6-4.43l-.56 4-.91.52-.32-1.49c-.05-.25-.09-.53-.13-.78 0 .29-.07.62-.13.92l-.3 1.85-.89.52-.6-3.33.74-.43.22 1.59c0 .36.09.73.13 1.09.06-.43.12-.86.18-1.27l.34-1.92.61-.35.35 1.52c.06.34.13.7.19 1.06l.13-1.24.21-1.84.7-.4m3.8 1.49v-3.7l1.15-.66c.68-.39 1.23-.44 1.24.43a2 2 0 0 1-.57 1.38l.73 1.05-.81.47-.62-1-.4.23v1.33l-.72.42m5.48-6.85l-1 2 1.15 1.55-.79.45-.79-1.09-.37.77v1l-.72.42v-3.68l.72-.42v1.5l.95-2.05.8-.46m-7.53 8.09c-.87.5-1.46.12-1.46-1.08a3.1 3.1 0 0 1 1.45-2.73c.86-.5 1.45-.15 1.45 1a3.15 3.15 0 0 1-1.44 2.76m17.55-21.36l-41.63 24 .14 47.84 41.63-24-.14-47.84" fill="#9ECCFF"/>
            <path d="M13.64 235.09l-.69.4v1.3c0 .43.06.91.09 1.29l-.32-.63-.84-1.34-.74.43v3.68l.69-.4v-1.31c0-.43-.07-.89-.09-1.28l.32.62.84 1.35.74-.43v-3.68M16.39 233.5l-2.01 1.16.01 3.68 2.05-1.19v-.69l-1.33.76v-.85l1.09-.63v-.69l-1.09.63v-.74l1.28-.74v-.7M19.29 231.83l-2.47 1.43v.7l.87-.51.01 2.98.73-.42-.01-2.98.88-.51-.01-.69M23.39 229.49l-.7.4-.3 1.84-.08 1.27c-.07-.36-.13-.72-.19-1.06l-.35-1.52-.61.35-.34 1.92-.18 1.27c0-.37-.09-.74-.13-1.09l-.22-1.59-.74.43.6 3.33.89-.52.3-1.85c.05-.31.09-.63.13-.92 0 .25.08.53.13.78l.32 1.49.91-.52.56-4M25.09 231.51c-.44.25-.72 0-.72-.79a1.77 1.77 0 0 1 .71-1.59c.43-.25.71 0 .71.76a1.82 1.82 0 0 1-.71 1.61m0-3.09a3.1 3.1 0 0 0-1.45 2.73c0 1.2.59 1.58 1.46 1.08a3.15 3.15 0 0 0 1.44-2.76c0-1.2-.59-1.55-1.45-1M27.86 228.58v-1l.37-.21c.38-.22.58-.21.58.15a1 1 0 0 1-.58.89l-.37.21m.42-1.94l-1.15.66V231l.72-.42v-1.33l.4-.23.62 1 .81-.47-.73-1.05a2 2 0 0 0 .57-1.38c0-.87-.56-.82-1.24-.43M32.62 224.13l-.8.46-.95 2.06-.01.01-.01-1.5-.72.41.01 3.68.72-.42v-.99l.37-.77.79 1.09.78-.45-1.15-1.55.97-2.03M19.45 253.61l.51-2.53c.57-2.76 1.12-5.91 1.63-8.77l.13-.08c.56 2.21 1.15 4.75 1.74 6.83l.49 2-4.5 2.6m5.17-17.23l-5.73 3.31-6.5 28.04L17.2 265l1.28-6.51 6.45-3.72 1.31 5 5.06-2.92-6.68-20.45" fill="#FFF"/>
        </g>
        <g fill-rule="nonzero">
            <path d="M161.67 42.27l-2.8 1.62v6.52l2.8-1.62c2.7-1.56 4.08-3.44 4.08-5.78 0-2.34-1.36-2.33-4.09-.74m-.47-9.68L158.84 34v5.71l2.33-1.35c2.43-1.4 3.48-3.18 3.47-5-.01-1.82-1.12-2.07-3.46-.72m6.48-15.43l-.38.22v1.07l.38-.22a1.06 1.06 0 0 0 .61-.92c0-.37-.22-.38-.61-.15M164.39 19a1.86 1.86 0 0 0-.74 1.65c0 .77.29 1.09.74.83a1.9 1.9 0 0 0 .74-1.68c0-.76-.29-1.06-.74-.8m-10.45 38.7l-.07-25.3 7.52-4.35c4.56-2.63 8.11-3.24 8.13 1.61a11.1 11.1 0 0 1-2.86 7.13v.15c2.23-.63 4 .28 4 3.65 0 5.16-3.76 9.64-8.52 12.39l-8.17 4.72m-2.1-29.33c0-.39-.09-.89-.09-1.35v-1.36l.72-.41v3.83l-.77.45-.87-1.41-.33-.65c0 .41.09.89.09 1.34v1.36l-.72.41v-3.82l.77-.45.87 1.41.33.66m1.43.25V24.8l2.08-1.2v.73l-1.33.77v.76l1.14-.66v.73l-1.14.66v.88l1.39-.8v.73l-2.13 1.23m2.52-4.56v-.73l2.56-1.5v.73l-.91.53v3.1l-.75.43v-3.1l-.92.53m6.8-4.66l-.58 4.17-.94.55-.33-1.55c-.06-.26-.1-.55-.14-.81 0 .31-.08.64-.13 1l-.31 1.92-.93.54-.63-3.47.77-.45.23 1.66.14 1.13c.07-.44.13-.88.19-1.32l.35-2 .64-.37.35 1.6c.07.35.14.72.21 1.09l.13-1.29.22-1.92.72-.42m4 1.55v-3.88l1.2-.69c.71-.41 1.28-.45 1.29.45a2.11 2.11 0 0 1-.59 1.44l.76 1.09-.85.49-.64-1-.41.24v1.38l-.75.43m5.71-7.13l-1 2.11 1.2 1.61-.82.48-.82-1.15-.39.81v1l-.75.43v-3.8l.75-.43v1.57l1-2.14.83-.48m-7.9 8.43c-.9.52-1.52.12-1.52-1.13a3.22 3.22 0 0 1 1.52-2.84c.9-.52 1.52-.15 1.52 1.09a3.29 3.29 0 0 1-1.52 2.88M182.71 0l-43.4 25.06.14 49.87 43.4-25.06L182.71 0" fill="#10355D"/>
            <path d="M152.48 25.25l-.72.41V27c0 .45.06 1 .09 1.35l-.33-.66-.87-1.41-.77.45v3.83l.72-.41v-1.33c0-.45-.07-.92-.09-1.34l.33.65.87 1.41.77-.45v-3.84M155.34 23.59l-2.08 1.21.01 3.83 2.14-1.24-.01-.72-1.38.8-.01-.88 1.14-.66v-.73l-1.14.66v-.76l1.34-.77-.01-.74M158.38 21.84l-2.59 1.5v.73l.92-.53.01 3.1.75-.44v-3.1l.91-.52v-.74M162.59 19.41l-.72.42-.22 1.92-.13 1.25c-.07-.37-.14-.74-.21-1.09l-.36-1.58-.64.37-.35 2c-.06.44-.13.88-.19 1.32l-.14-1.13-.24-1.61-.77.45.63 3.47.93-.54.31-1.92c.05-.32.09-.66.13-1 0 .26.08.55.14.81l.33 1.55.94-.55.58-4.17M164.39 21.52c-.45.26-.74-.06-.74-.83a1.86 1.86 0 0 1 .74-1.69c.45-.26.74 0 .74.8a1.9 1.9 0 0 1-.74 1.68m0-3.22a3.22 3.22 0 0 0-1.51 2.84c0 1.25.62 1.65 1.52 1.13a3.29 3.29 0 0 0 1.51-2.88c0-1.25-.62-1.61-1.52-1.09M167.3 18.45v-1.07l.38-.22c.4-.23.61-.22.61.15a1.06 1.06 0 0 1-.61.92l-.38.22m.44-2l-1.2.69V21l.75-.43v-1.43l.41-.24.64 1 .85-.49-.76-1.09a2.11 2.11 0 0 0 .59-1.44c0-.91-.58-.86-1.29-.45M172.26 13.83l-.83.47-.98 2.15-.02.01-.01-1.57-.75.43.01 3.83.76-.43-.01-1.03.39-.81.81 1.14.83-.47-1.2-1.62 1-2.1M158.89 50.41v-6.52l2.8-1.62c2.74-1.58 4.09-1.46 4.09.74s-1.39 4.23-4.09 5.79l-2.8 1.62m0-10.75v-5.71l2.36-1.36c2.33-1.35 3.45-1.25 3.46.72.01 1.97-1 3.6-3.47 5l-2.33 1.35m2.48-11.62l-7.53 4.35.07 25.3 8.18-4.7c4.76-2.75 8.54-7.22 8.52-12.39 0-3.37-1.74-4.28-4-3.65v-.15a11.1 11.1 0 0 0 2.86-7.13c0-4.85-3.57-4.24-8.13-1.61" fill="#FFF"/>
        </g>
        <g fill-rule="nonzero">
            <path d="M305.33 102.72l-.36.21v1l.36-.21a1 1 0 0 0 .55-.84c0-.34-.2-.35-.56-.14m-3 1.73a1.69 1.69 0 0 0-.67 1.51c0 .7.26 1 .68.76a1.76 1.76 0 0 0 .68-1.55c0-.7-.27-1-.69-.73m-1.17 31.06c-5.12 3-9.42 1.33-9.44-6.48-.02-7.81 4.4-14.76 9.52-17.71 2.6-1.5 4.72-1.3 6.09-.48l-2.41 4.75a3.5 3.5 0 0 0-3.57.2c-2.76 1.59-5 5.68-4.94 10.35.06 4.67 1.94 6.45 4.92 4.73a11.47 11.47 0 0 0 3.93-4.45l2.43 1.88a17.35 17.35 0 0 1-6.53 7.2M290.77 113c0-.35-.09-.82-.09-1.23v-1.24l.66-.38v3.51l-.71.41-.8-1.29-.3-.6c0 .37.09.81.09 1.23v1.24l-.65.38v-3.51l.71-.41.8 1.29.3.6m1.32.23v-3.51l1.92-1.11v.67l-1.23.71v.7l1-.6v.66l-1 .6v.81l1.27-.73v.67l-2 1.13m2.32-4.18v-.67l2.37-1.37v.67l-.84.48V111l-.7.4v-2.84l-.84.48m6.24-4.27l-.53 3.82-.87.5-.3-1.42c-.05-.24-.09-.51-.12-.74 0 .28-.08.59-.13.89l-.28 1.75-.86.49-.58-3.18.71-.41.22 1.52c0 .34.09.69.12 1 .06-.41.12-.82.18-1.21l.32-1.83.59-.34.33 1.46c.06.32.12.66.19 1 0-.4.08-.8.12-1.18l.21-1.77.66-.38m3.64 1.41v-3.45l1.1-.64c.64-.37 1.18-.42 1.18.41a2 2 0 0 1-.54 1.33l.69 1-.77.45-.59-.92-.38.22v1.26l-.69.4m5.24-6.54l-.92 1.94 1.1 1.48-.75.43-.75-1.05-.36.75v.94l-.69.4V101l.69-.4v1.44l.91-2 .76-.44m-7.21 7.74c-.82.48-1.39.11-1.39-1a3 3 0 0 1 1.38-2.6c.82-.48 1.39-.14 1.39 1a3 3 0 0 1-1.38 2.63M319.13 87l-39.87 23 .13 45.81 39.87-23-.13-45.81" fill="#2B90FF"/>
            <path d="M291.39 110.16l-.66.38v1.24c0 .41.06.88.09 1.23l-.3-.6-.8-1.29-.71.41V115l.65-.38v-1.24c0-.42-.05-.86-.09-1.23l.3.6.8 1.29.71-.41v-3.51M293.99 108.64l-1.91 1.1.01 3.51 1.96-1.13v-.67l-1.27.73-.01-.8 1.04-.61v-.66l-1.04.61v-.71l1.23-.71-.01-.66M296.78 107.03l-2.37 1.37v.66l.84-.48v2.84l.7-.4-.01-2.84.84-.48v-.67M300.65 104.79l-.66.38-.21 1.77c0 .39-.09.78-.12 1.18-.06-.34-.12-.69-.19-1l-.33-1.46-.59.34-.32 1.83-.18 1.21c0-.35-.09-.7-.12-1l-.22-1.52-.71.41.58 3.18.86-.49.28-1.75c.05-.3.09-.61.13-.89 0 .24.07.5.12.74l.3 1.42.87-.5.53-3.82M302.32 106.72c-.41.24-.68-.06-.68-.76a1.69 1.69 0 0 1 .67-1.51c.42-.24.68 0 .69.73a1.76 1.76 0 0 1-.68 1.55m0-3a3 3 0 0 0-1.38 2.6c0 1.14.57 1.51 1.39 1a3 3 0 0 0 1.38-2.63c0-1.14-.57-1.48-1.39-1M304.98 103.91v-1l.36-.21c.36-.21.56-.2.56.14a1 1 0 0 1-.55.84l-.36.21m.41-1.85l-1.1.64v3.51l.69-.4v-1.26l.38-.22.59.92.77-.45-.69-1a2 2 0 0 0 .54-1.33c0-.84-.53-.79-1.18-.41M309.53 99.66l-.76.44-.9 1.97-.02.01-.01-1.44-.69.4.01 3.51.69-.4v-.94l.35-.75.76 1.05.75-.44-1.1-1.47.92-1.94M301.23 111.32c-5.12 3-9.55 10-9.52 17.71.03 7.71 4.32 9.43 9.44 6.48a17.35 17.35 0 0 0 6.53-7.2l-2.43-1.88a11.47 11.47 0 0 1-3.93 4.45c-3 1.72-4.91.05-4.92-4.73-.01-4.78 2.18-8.75 4.94-10.35a3.5 3.5 0 0 1 3.57-.2l2.41-4.75c-1.37-.82-3.48-1-6.09.48" fill="#FFF"/>
        </g>
        <path d="M20.65 285.28a.74.74 0 0 0-.35-.09c-.28 0-.5.13-.5.29v1.16a.25.25 0 0 0 .15.21.73.73 0 0 0 .36.08c.27 0 .5-.13.5-.29v-1.16a.25.25 0 0 0-.15-.2m0 3.47a.73.73 0 0 0-.36-.08c-.27 0-.49.13-.49.29v1.16a.25.25 0 0 0 .15.21.73.73 0 0 0 .36.08c.27 0 .5-.13.49-.29V289a.25.25 0 0 0-.15-.21m0 3.47a.7.7 0 0 0-.35-.08c-.28 0-.5.13-.5.29v1.16a.26.26 0 0 0 .15.2.71.71 0 0 0 .35.08c.28 0 .5-.13.5-.29v-1.16a.24.24 0 0 0-.14-.2m0 3.48a.74.74 0 0 0-.35-.09c-.28 0-.5.13-.5.29v1.16a.25.25 0 0 0 .15.21.73.73 0 0 0 .36.08c.27 0 .5-.13.49-.29v-1.16a.27.27 0 0 0-.15-.2m108 64.27a.77.77 0 0 0-.7 0l-1.41.82c-.2.11-.2.3 0 .41a.78.78 0 0 0 .71 0l1.41-.82c.2-.11.19-.29 0-.41m-108-60.8a.73.73 0 0 0-.36-.08c-.27 0-.5.13-.49.29v1.16a.25.25 0 0 0 .15.2.71.71 0 0 0 .35.09c.28 0 .5-.13.5-.29v-1.16a.25.25 0 0 0-.15-.21m103.8 63.25a.78.78 0 0 0-.71 0l-1.41.82c-.2.11-.2.3 0 .41a.78.78 0 0 0 .71 0l1.41-.82a.22.22 0 0 0 0-.41m-103.74-59.8a.74.74 0 0 0-.35-.09c-.28 0-.5.13-.5.29V304a.25.25 0 0 0 .15.21.73.73 0 0 0 .36.08c.27 0 .5-.13.5-.29v-1.16a.25.25 0 0 0-.15-.2m0 3.47a.73.73 0 0 0-.36-.11c-.27 0-.5.13-.49.29v1.16a.25.25 0 0 0 .15.21.73.73 0 0 0 .36.08c.27 0 .5-.13.49-.29v-1.16a.25.25 0 0 0-.15-.21m99.53 58.76a.78.78 0 0 0-.7 0l-1.41.82a.22.22 0 0 0 0 .41.78.78 0 0 0 .71 0l1.41-.82c.19-.11.19-.29 0-.41m-99.5-55.23a.7.7 0 0 0-.35-.08c-.28 0-.5.13-.5.29V311a.26.26 0 0 0 .15.2.71.71 0 0 0 .35.08c.28 0 .5-.13.5-.29v-1.16a.24.24 0 0 0-.14-.2m95.28 57.75a.77.77 0 0 0-.7 0l-1.41.82c-.2.11-.2.3 0 .41a.78.78 0 0 0 .71 0l1.41-.82c.2-.11.19-.29 0-.41m-95.29-54.3a.74.74 0 0 0-.35-.09c-.28 0-.5.13-.5.29v1.16a.25.25 0 0 0 .15.21.73.73 0 0 0 .36.08c.28 0 .5-.13.49-.29v-1.16a.27.27 0 0 0-.15-.2m0 3.47a.7.7 0 0 0-.35-.08c-.28 0-.5.13-.49.29v1.16a.25.25 0 0 0 .15.2.71.71 0 0 0 .35.09c.28 0 .5-.13.5-.29v-1.16a.25.25 0 0 0-.15-.21m91 53.25a.78.78 0 0 0-.71 0l-1.41.82c-.2.11-.2.3 0 .41a.78.78 0 0 0 .71 0l1.41-.82a.22.22 0 0 0 0-.41M20.84 320a.74.74 0 0 0-.35-.09c-.28 0-.5.13-.5.29v1.16a.25.25 0 0 0 .15.21.73.73 0 0 0 .36.08c.27 0 .5-.13.5-.29v-1.16a.25.25 0 0 0-.15-.2m86.77 52.23a.78.78 0 0 0-.7 0l-1.41.82a.22.22 0 0 0 0 .41.78.78 0 0 0 .71 0l1.41-.82c.19-.11.19-.29 0-.41m-86.77-48.72a.73.73 0 0 0-.36-.08c-.27 0-.5.13-.49.29v1.16a.25.25 0 0 0 .15.21.73.73 0 0 0 .36.08c.27 0 .5-.13.49-.29v-1.16a.25.25 0 0 0-.15-.21m0 3.47a.7.7 0 0 0-.35-.08c-.28 0-.5.13-.5.29v1.16a.26.26 0 0 0 .15.2.71.71 0 0 0 .35.08c.28 0 .5-.13.5-.29v-1.16a.24.24 0 0 0-.14-.2m82.52 47.74a.77.77 0 0 0-.7 0l-1.41.82c-.2.11-.2.3 0 .41a.78.78 0 0 0 .71 0l1.41-.82c.2-.11.19-.29 0-.41m-82.5-44.26a.74.74 0 0 0-.35-.09c-.28 0-.5.13-.5.29v1.16a.25.25 0 0 0 .15.21.73.73 0 0 0 .36.08c.27 0 .5-.13.49-.29v-1.16a.27.27 0 0 0-.15-.2m78.25 46.72a.78.78 0 0 0-.71 0l-1.41.82c-.2.11-.2.3 0 .41a.78.78 0 0 0 .71 0l1.41-.82a.22.22 0 0 0 0-.41m-78.23-43.25a.73.73 0 0 0-.36-.08c-.27 0-.5.13-.49.29v1.16a.25.25 0 0 0 .15.2.71.71 0 0 0 .35.09c.28 0 .5-.13.5-.29v-1.16a.25.25 0 0 0-.15-.21m74 45.7a.78.78 0 0 0-.7 0l-1.41.82a.22.22 0 0 0 0 .41.78.78 0 0 0 .71 0l1.41-.82c.19-.11.19-.29 0-.41m-74-42.23a.73.73 0 0 0-.35-.09c-.28 0-.5.13-.5.29v1.16a.25.25 0 0 0 .15.21.73.73 0 0 0 .36.08c.27 0 .5-.13.5-.29v-1.16a.25.25 0 0 0-.15-.2m0 3.47a.73.73 0 0 0-.36-.08c-.27 0-.5.13-.49.29v1.16a.25.25 0 0 0 .15.21.73.73 0 0 0 .36.08c.27 0 .5-.13.49-.29v-1.16a.25.25 0 0 0-.15-.21m69.75 41.23a.77.77 0 0 0-.7 0l-1.11.65-.29.16c-.2.1-.21.29 0 .41a.81.81 0 0 0 .7 0l.32-.18 1.11-.65c.2-.11.19-.29 0-.41m-69.71-37.72a.75.75 0 0 0-.38-.09c-.27 0-.49.14-.48.31.034.396.091.79.17 1.18a.28.28 0 0 0 .14.17.74.74 0 0 0 .41.08c.27 0 .47-.16.44-.32-.07-.38-.13-.76-.16-1.14a.26.26 0 0 0-.15-.19m64.84 39.7a.77.77 0 0 0-.45-.06 15.41 15.41 0 0 1-1.84.21c-.28 0-.48.15-.45.31a.26.26 0 0 0 .14.18.74.74 0 0 0 .4.08 15.71 15.71 0 0 0 2.05-.24c.27 0 .41-.21.33-.36a.32.32 0 0 0-.12-.12m-63.99-36.27a.78.78 0 0 0-.48-.08c-.27 0-.43.2-.36.35a12 12 0 0 0 .57 1.13.32.32 0 0 0 .12.11.79.79 0 0 0 .51.07c.25-.05.41-.21.32-.37-.21-.36-.39-.72-.55-1.09a.29.29 0 0 0-.13-.13m2.06 3.26a.79.79 0 0 0-.58-.04c-.25.07-.35.24-.23.39.3.35.61.7 1 1l.08.06a.78.78 0 0 0 .6 0c.24-.08.32-.25.18-.39-.32-.33-.63-.66-.92-1l-.1-.08m56 32.95a.63.63 0 0 0-.18-.07 12 12 0 0 1-1.7-.48.75.75 0 0 0-.69.09c-.13.12-.09.27.07.36h.09c.62.22 1.255.398 1.9.53a.63.63 0 0 0 .64-.18c.06-.11 0-.22-.12-.3M27.12 354a.78.78 0 0 0-.65 0c-.22.1-.27.28-.1.41.42.31.85.62 1.3.91a.78.78 0 0 0 .68 0c.21-.11.23-.29.05-.41-.44-.28-.86-.58-1.26-.88m48 28l-1.42-.82a.77.77 0 0 0-.71 0 .22.22 0 0 0 0 .41l1.42.82a.78.78 0 0 0 .71 0c.2-.11.19-.29 0-.41m-4.25-2.46l-1.42-.82a.77.77 0 0 0-.7 0 .22.22 0 0 0 0 .41l1.42.82a.78.78 0 0 0 .71 0c.2-.11.19-.29 0-.41m-4.26-2.46l-1.42-.82a.77.77 0 0 0-.71 0 .22.22 0 0 0 0 .41l1.42.82a.77.77 0 0 0 .71 0c.2-.11.2-.29 0-.41m-4.25-2.52l-1.42-.82a.77.77 0 0 0-.71 0 .22.22 0 0 0 0 .41l1.42.82a.78.78 0 0 0 .71 0c.2-.11.19-.29 0-.41m-4.25-2.46l-1.42-.82a.77.77 0 0 0-.7 0 .22.22 0 0 0 0 .41l1.42.82a.78.78 0 0 0 .71 0c.2-.11.19-.29 0-.41m-4.26-2.46l-1.42-.82a.77.77 0 0 0-.71 0 .22.22 0 0 0 0 .41l1.42.82a.77.77 0 0 0 .71 0c.2-.11.2-.29 0-.41m-4.26-2.46l-1.42-.82a.77.77 0 0 0-.71 0 .22.22 0 0 0 0 .41l1.42.82a.78.78 0 0 0 .71 0c.2-.11.19-.29 0-.41m-4.24-2.45l-1.42-.82a.77.77 0 0 0-.7 0 .22.22 0 0 0 0 .41l1.42.82a.78.78 0 0 0 .71 0c.2-.11.19-.29 0-.41m-4.26-2.46l-1.42-.82a.77.77 0 0 0-.71 0 .22.22 0 0 0 0 .41l1.42.82a.77.77 0 0 0 .71 0c.2-.11.2-.29 0-.41m-4.26-2.46l-1.49-.84a.77.77 0 0 0-.71 0 .22.22 0 0 0 0 .41l1.42.82a.78.78 0 0 0 .71 0c.2-.11.19-.29 0-.41m-4.25-2.46l-1.42-.82a.77.77 0 0 0-.7 0 .22.22 0 0 0 0 .41l1.42.82a.78.78 0 0 0 .71 0c.2-.11.19-.29 0-.41m-12-75.59a.73.73 0 0 0-.36-.08c-.27 0-.5.13-.49.29v1.16a.25.25 0 0 0 .15.2.71.71 0 0 0 .35.09c.28 0 .5-.13.5-.29V282a.25.25 0 0 0-.15-.21M302.8 152a.73.73 0 0 0-.36-.08c-.28 0-.5.13-.5.29v1.16a.26.26 0 0 0 .15.2.74.74 0 0 0 .35.09c.27 0 .5-.13.5-.29v-1.16a.25.25 0 0 0-.15-.21m0 3.48a.74.74 0 0 0-.35-.09c-.27 0-.5.13-.5.29v1.16a.24.24 0 0 0 .14.2.73.73 0 0 0 .36.08c.28 0 .5-.13.49-.29v-1.16a.27.27 0 0 0-.15-.2m0 3.48a.7.7 0 0 0-.35-.08c-.27 0-.5.13-.49.29v1.16a.27.27 0 0 0 .15.2.74.74 0 0 0 .35.09c.27 0 .5-.13.5-.29v-1.16a.24.24 0 0 0-.14-.2m0 3.48a.74.74 0 0 0-.35-.09c-.27 0-.5.13-.5.29v1.16a.25.25 0 0 0 .15.21.73.73 0 0 0 .36.08c.28 0 .5-.13.5-.29v-1.16a.27.27 0 0 0-.15-.2m0 3.47a.7.7 0 0 0-.35-.08c-.27 0-.5.13-.49.29v1.16a.24.24 0 0 0 .14.2.7.7 0 0 0 .35.08c.27 0 .5-.13.49-.29v-1.16a.25.25 0 0 0-.15-.21m0 3.48a.73.73 0 0 0-.36-.08c-.28 0-.5.13-.5.29v1.16a.27.27 0 0 0 .15.2.74.74 0 0 0 .35.09c.27 0 .5-.13.5-.29v-1.16a.25.25 0 0 0-.15-.21m0 3.48a.74.74 0 0 0-.35-.09c-.27 0-.5.13-.5.29v1.16a.24.24 0 0 0 .14.2.73.73 0 0 0 .36.08c.28 0 .5-.13.49-.29V173a.27.27 0 0 0-.15-.2m0 3.48a.73.73 0 0 0-.36-.08c-.28 0-.5.13-.49.29v1.16a.27.27 0 0 0 .15.2.74.74 0 0 0 .35.09c.27 0 .5-.13.5-.29v-1.16a.24.24 0 0 0-.14-.2m0 3.48a.74.74 0 0 0-.35-.09c-.27 0-.5.13-.5.29v1.16a.25.25 0 0 0 .15.21.73.73 0 0 0 .36.08c.28 0 .5-.13.5-.29V180a.26.26 0 0 0-.15-.2m0 3.48a.7.7 0 0 0-.35-.08c-.27 0-.5.13-.49.29v1.16a.24.24 0 0 0 .14.2.7.7 0 0 0 .35.08c.27 0 .5-.13.49-.29v-1.16a.24.24 0 0 0-.14-.2m0 3.47a.73.73 0 0 0-.36-.08c-.28 0-.5.13-.5.29v1.16a.27.27 0 0 0 .15.2.74.74 0 0 0 .35.09c.27 0 .5-.13.5-.29v-1.16a.25.25 0 0 0-.15-.21m0 3.48a.74.74 0 0 0-.35-.09c-.27 0-.5.13-.5.29v1.16a.24.24 0 0 0 .14.2.73.73 0 0 0 .36.08c.28 0 .5-.13.49-.29v-1.16a.26.26 0 0 0-.15-.2m0 3.48a.72.72 0 0 0-.36-.08c-.28 0-.5.13-.49.29V195a.27.27 0 0 0 .15.2.74.74 0 0 0 .35.09c.27 0 .5-.13.5-.29v-1.16a.24.24 0 0 0-.14-.2m0 3.48a.74.74 0 0 0-.35-.09c-.27 0-.5.13-.5.29v1.16a.25.25 0 0 0 .14.2.75.75 0 0 0 .37.09c.27 0 .5-.13.49-.29v-1.16a.27.27 0 0 0-.15-.2m.32 3.47a.76.76 0 0 0-.43-.08c-.27 0-.46.17-.42.33.096.393.212.78.35 1.16a.3.3 0 0 0 .14.15.76.76 0 0 0 .46.08c.27 0 .44-.18.39-.34-.13-.37-.25-.74-.34-1.12a.28.28 0 0 0-.14-.17m1.4 3.38a.77.77 0 0 0-.52-.07c-.26 0-.4.21-.31.36.22.37.46.74.71 1.1a.38.38 0 0 0 .11.09.79.79 0 0 0 .55.07c.26-.06.37-.23.27-.38-.25-.35-.48-.7-.69-1.07a.33.33 0 0 0-.12-.11m2.46 3.17a.79.79 0 0 0-.6 0c-.24.08-.32.25-.19.39.34.34.69.68 1.06 1h.06a.81.81 0 0 0 .63 0c.23-.09.3-.27.14-.4a9.44 9.44 0 0 1-1-1l-.08-.06m3.44 2.84a.8.8 0 0 0-.67 0c-.2.1-.23.29-.06.41.44.3.89.59 1.37.87a.78.78 0 0 0 .71 0 .21.21 0 0 0 0-.41c-.45-.28-.9-.56-1.33-.85m31.14 18.06l-1.42-.82a.78.78 0 0 0-.71 0 .22.22 0 0 0 0 .41l1.42.82a.78.78 0 0 0 .71 0 .22.22 0 0 0 0-.41m-4.25-2.45l-1.42-.82a.78.78 0 0 0-.71 0 .22.22 0 0 0 0 .41l1.42.82a.78.78 0 0 0 .71 0 .22.22 0 0 0 0-.41m-4.26-2.46l-1.42-.82a.78.78 0 0 0-.71 0 .22.22 0 0 0 0 .41l1.42.82a.78.78 0 0 0 .71 0 .22.22 0 0 0 0-.41m-4.26-2.46l-1.42-.82a.78.78 0 0 0-.71 0 .22.22 0 0 0 0 .41l1.42.82a.78.78 0 0 0 .71 0 .22.22 0 0 0 0-.41m-4.25-2.45l-1.42-.82a.78.78 0 0 0-.71 0 .22.22 0 0 0 0 .41l1.42.82a.78.78 0 0 0 .71 0 .22.22 0 0 0 0-.41m-4.26-2.46l-1.42-.82a.78.78 0 0 0-.71 0 .22.22 0 0 0 0 .41l1.42.82a.78.78 0 0 0 .71 0 .22.22 0 0 0 0-.41m-4.26-2.46l-1.42-.82a.78.78 0 0 0-.71 0 .22.22 0 0 0 0 .41l1.42.82a.78.78 0 0 0 .71 0 .22.22 0 0 0 0-.41m28.33 16.58a.78.78 0 0 0-.61 0c-.24.08-.32.26-.17.39a5.9 5.9 0 0 1 .83 1 .33.33 0 0 0 .12.11.78.78 0 0 0 .53.07c.25-.06.39-.22.29-.38a6.57 6.57 0 0 0-.91-1.09l-.07-.05m1.4 3.31a.7.7 0 0 0-.29-.08c-.27 0-.52.1-.55.25a2.29 2.29 0 0 1-.51 1c-.1.12 0 .25.11.34l.13.05a.71.71 0 0 0 .67-.13 2.66 2.66 0 0 0 .59-1.2c0-.09 0-.18-.14-.24m-3.17 2.82a.78.78 0 0 0-.71 0l-1.41.82c-.2.11-.19.29 0 .41a.76.76 0 0 0 .7 0l1.41-.82c.2-.11.2-.29 0-.41m-4.24 2.45a.78.78 0 0 0-.71 0l-1.41.82c-.19.11-.19.29 0 .41a.77.77 0 0 0 .7 0l1.41-.82a.21.21 0 0 0 0-.41m-4.22 2.45a.78.78 0 0 0-.71 0l-1.41.82a.22.22 0 0 0 0 .41.77.77 0 0 0 .71 0l1.41-.82c.2-.11.2-.29 0-.41m-4.23 2.46a.78.78 0 0 0-.71 0l-1.41.82c-.2.11-.19.29 0 .41a.76.76 0 0 0 .7 0l1.41-.82c.2-.11.2-.29 0-.41m-4.23 2.46a.78.78 0 0 0-.71 0l-1.41.82c-.19.11-.19.29 0 .41a.77.77 0 0 0 .7 0l1.41-.82a.21.21 0 0 0 0-.41m-4.22 2.45a.78.78 0 0 0-.71 0l-1.41.82a.22.22 0 0 0 0 .41.77.77 0 0 0 .71 0l1.41-.82c.2-.11.2-.29 0-.41m-4.23 2.46a.78.78 0 0 0-.71 0l-1.41.82c-.2.11-.19.29 0 .41a.76.76 0 0 0 .7 0l1.41-.82c.2-.11.2-.29 0-.41m-4.23 2.46a.78.78 0 0 0-.71 0l-1.41.82c-.19.11-.19.29 0 .41a.77.77 0 0 0 .7 0l1.41-.82a.21.21 0 0 0 0-.41m-4.22 2.45a.78.78 0 0 0-.71 0l-1.41.82a.22.22 0 0 0 0 .41.77.77 0 0 0 .71 0l1.41-.82c.2-.11.2-.29 0-.41m-4.23 2.46a.78.78 0 0 0-.71 0l-1.41.82c-.2.11-.19.29 0 .41a.76.76 0 0 0 .7 0l1.41-.82c.2-.11.2-.29 0-.41m-1.8-109.28a.73.73 0 0 0-.36-.08c-.28 0-.5.13-.5.29v.8a.24.24 0 0 0 .14.2.7.7 0 0 0 .35.08c.27 0 .5-.13.49-.29V149a.25.25 0 0 0-.15-.21" fill="#C4C4C4" fill-rule="nonzero"/>
        <path d="M161.08 71.74v107.92" stroke="#C4C4C4" stroke-dasharray="2"/>
        <path d="M392.02 244.47a28.63 28.63 0 0 0-14.13 3.35c-3.38 2-5.24 4.46-5.24 7s1.86 5.08 5.24 7a31.42 31.42 0 0 0 28.26 0c3.38-2 5.24-4.46 5.24-7s-1.86-5.08-5.24-7a28.62 28.62 0 0 0-14.14-3.36" fill="#D8D8D8" fill-rule="nonzero"/>
        <path d="M372.91 236l4.75 19.14a8.06 8.06 0 0 0 4.06 4.7c5.66 3.29 14.93 3.29 20.59 0a8.06 8.06 0 0 0 4.06-4.7l4.78-19.14c1-3.47-.81-7.15-5.39-9.81-7.55-4.39-19.9-4.39-27.45 0-4.58 2.66-6.36 6.34-5.39 9.81h-.01z" fill="#FFF" fill-rule="nonzero"/>
        <path d="M372.91 236c.63 2.25 2.42 4.41 5.39 6.14a30.27 30.27 0 0 0 27.45 0c3-1.73 4.76-3.89 5.39-6.14l-4.75 19.19a8.06 8.06 0 0 1-4.06 4.7c-5.66 3.29-14.93 3.29-20.59 0a8.06 8.06 0 0 1-4.06-4.7L372.89 236h.02z" fill="#9ECCFF" fill-rule="nonzero"/>
        <path d="M392.02 224.8a25.91 25.91 0 0 0-12.79 3c-3.06 1.77-4.74 4-4.74 6.37s1.68 4.6 4.74 6.38a28.46 28.46 0 0 0 25.59 0c3.06-1.78 4.74-4 4.74-6.38s-1.68-4.6-4.74-6.37a25.91 25.91 0 0 0-12.8-3" fill="#FFF1DC" fill-rule="nonzero"/>
        <path d="M392.02 224.8a25.91 25.91 0 0 0-12.79 3c-3.06 1.77-4.74 4-4.74 6.37s1.68 4.6 4.74 6.38a28.46 28.46 0 0 0 25.59 0c3.06-1.78 4.74-4 4.74-6.38s-1.68-4.6-4.74-6.37a25.91 25.91 0 0 0-12.8-3" fill="#FFF1DC" fill-rule="nonzero"/>
        <path d="M404.82 232a25.94 25.94 0 0 0-12.8-3 25.91 25.91 0 0 0-12.79 3 9.88 9.88 0 0 0-4.27 4.28 5.2 5.2 0 0 1-.47-2.09c0-2.33 1.68-4.6 4.74-6.37a25.91 25.91 0 0 1 12.79-3 25.91 25.91 0 0 1 12.8 3c3.06 1.78 4.74 4 4.74 6.37a5.18 5.18 0 0 1-.47 2.09 9.88 9.88 0 0 0-4.27-4.28z" fill="#2B90FF" fill-rule="nonzero"/>
        <path d="M404.82 232a25.94 25.94 0 0 0-12.8-3 25.91 25.91 0 0 0-12.79 3 9.88 9.88 0 0 0-4.27 4.28 5.2 5.2 0 0 1-.47-2.09c0-2.33 1.68-4.6 4.74-6.37a25.91 25.91 0 0 1 12.79-3 25.91 25.91 0 0 1 12.8 3c3.06 1.78 4.74 4 4.74 6.37a5.18 5.18 0 0 1-.47 2.09 9.88 9.88 0 0 0-4.27-4.28z" fill="#7FB4DD" fill-rule="nonzero"/>
        <path d="M387.67 233.73a7.27 7.27 0 0 0 6.59-.07 2.3 2.3 0 0 0 1.32-1.89c0-4.35-.14-23.44-1.72-36.37-.34-2.8-1.6-11.86-3.33-10.84-2.31 1.37-4.27 26.18-4.27 47.23a2.36 2.36 0 0 0 1.41 1.93" fill="#5CB947" fill-rule="nonzero"/>
        <path d="M393.71 238.15a7.26 7.26 0 0 0 6.59-.07 2.3 2.3 0 0 0 1.32-1.89c0-4.35-.14-23.44-1.72-36.36-.34-2.8-1.6-11.87-3.33-10.84-2.32 1.37-4.27 26.18-4.27 47.23a2.35 2.35 0 0 0 1.41 1.93" fill="#30A84A" fill-rule="nonzero"/>
        <path d="M382.79 236.8a4.47 4.47 0 0 0 4.05 0 1.42 1.42 0 0 0 .81-1.16c0-2.67-.09-14.4-1.06-22.34-.21-1.72-1-7.29-2-6.66-1.42.84-2.63 16.08-2.63 29 .052.525.385.981.87 1.19" fill="#089848" fill-rule="nonzero"/>
    </g>
</svg>
