<svg width="520" height="475" viewBox="0 0 520 475" xmlns="http://www.w3.org/2000/svg">
    <g fill-rule="nonzero" fill="none">
        <path d="M517.07 94.627L353.843.387c-1.556-.9-2.824-.178-2.829 1.612l-.594 209.4c0 1.789 1.253 3.968 2.81 4.868l163.23 94.24c1.556.899 2.82.175 2.826-1.614l.594-209.4c0-1.79-1.251-3.969-2.81-4.866" fill="#FFF"/>
        <path fill="#D3D3D3" d="M341.81 135.392l-14.143-8.163-.01 2.79 14.143 8.166.01-2.793"/>
        <path fill="#E9E9E9" d="M343.253 140.458l-17.067-9.857-.005 1.734 17.067 9.85.005-1.727M343.243 142.995l-17.067-9.856-.005 1.727 17.067 9.856.005-1.727"/>
        <path d="M334.76 120.894c-3.824-2.206-6.898-7.528-6.883-11.915.014-4.387 3.11-6.153 6.927-3.947 3.817 2.205 6.893 7.547 6.878 11.92-.014 4.373-3.105 6.155-6.922 3.944m.053-20.381v4.517c-3.817-2.206-6.912-.426-6.927 3.947l-3.944-2.28c-.02 6.888 4.81 15.277 10.823 18.734 6.013 3.456 10.86.68 10.86-6.208 0-6.889-4.825-15.254-10.824-18.715" fill="#9ECCFF"/>
        <path d="M334.816 100.512c-5.99-3.46-10.865-.704-10.884 6.184l3.945 2.28c.014-4.372 3.11-6.152 6.927-3.947v-4.517" fill="#2B90FF"/>
        <path fill="#D3D3D3" d="M370.751 152.108l-14.142-8.17-.01 2.795 14.143 8.165.01-2.79"/>
        <path fill="#E9E9E9" d="M372.194 157.169l-17.067-9.852-.005 1.725 17.068 9.856.004-1.73M372.185 159.704l-17.067-9.852-.005 1.722 17.067 9.86.005-1.73"/>
        <path d="M358.372 131.652v0m-1.563-5.97c0 1.925.572 4.005 1.548 5.937-.962-1.924-1.553-4.02-1.548-5.936m6.936-8.462v4.517c-3.817-2.205-6.912-.426-6.927 3.945.015-4.37 3.11-6.15 6.927-3.945 3.817 2.206 6.893 7.548 6.879 11.918-.015 4.37-3.105 6.155-6.922 3.95-1.908-1.098-3.627-2.976-4.868-5.129l-2.807 1.58c-.195-.341-.387-.69-.573-1.036 1.985 3.817 4.933 7.215 8.233 9.12 5.994 3.459 10.867.683 10.889-6.205.021-6.888-4.825-15.254-10.824-18.715" fill="#9ECCFF"/>
        <path d="M363.757 117.221c-5.989-3.46-10.864-.7-10.883 6.184 0 3.105.962 6.506 2.58 9.62.186.347.378.696.573 1.037l2.807-1.58c-.157-.27-.299-.534-.44-.806v-.019a.24.24 0 0 0-.015-.034c-.976-1.924-1.554-4.014-1.549-5.935.015-4.37 3.11-6.15 6.927-3.945v-4.517" fill="#2B90FF"/>
        <path d="M392.699 133.93v4.517c-3.803-2.196-6.913-.426-6.927 3.95.014-4.376 3.126-6.146 6.927-3.95 3.8 2.196 6.893 7.55 6.878 11.918 0 2.15-.762 3.663-1.96 4.404l2.831 4.783-2.83-4.783 2.83 4.783c-1.984 1.203-4.738 1.068-7.807-.702-5.994-3.46-10.823-11.85-10.823-18.739-.02 6.889 4.81 15.278 10.823 18.74 3.071 1.77 5.823 1.906 7.807.701 1.898-1.156 3.07-3.528 3.079-6.91.019-6.883-4.825-15.253-10.824-18.714" fill="#9ECCFF"/>
        <path fill="#D3D3D3" d="M399.693 168.817l-14.143-8.168-.01 2.79 14.143 8.17.01-2.792"/>
        <path fill="#E9E9E9" d="M401.15 173.887l-17.081-9.86-.005 1.726 17.082 9.868.004-1.734M401.146 176.425l-17.087-9.866-.005 1.727 17.087 9.863.005-1.724"/>
        <path d="M392.699 133.93c-5.99-3.461-10.865-.7-10.884 6.184-.02 6.883 4.81 15.277 10.823 18.739 3.072 1.77 5.823 1.907 7.808.702l-2.831-4.784c-1.25.767-3.016.669-4.962-.455-3.803-2.196-6.893-7.533-6.884-11.917.01-4.385 3.127-6.146 6.927-3.95v-4.517" fill="#2B90FF"/>
        <path fill="#2B90FF" d="M397.605 154.773l2.831 4.782-2.83-4.782"/>
        <path d="M450.803 343.542l.012-3.33 6.953 4.015v3.322l-6.975-4.01m-19.664-11.36l.012-5.31 7.003 4.053-.012 5.291-7.003-4.04M352.544 286.8l.027-10.66 7.003 4.053-.026 10.648-7.004-4.041m-98.237-56.726l.038-13.2 7.004 4.04-.038 13.215-7.004-4.053m157.205 90.77l.038-14.69 6.975 4.015-.05 14.7-6.953-4.028m-78.582-45.371l.038-15.51 6.975 4.015-.05 15.528-6.954-4.033m-58.977-34.031l.065-22.128 7.004 4.033-.065 22.128-7.004-4.04m39.29 22.68l.09-30.89 6.992 4.041-.077 30.89-7.004-4.04m-58.927-47.246l.05-18.52 7.004 4.053-.05 18.498-7.004-4.04m19.698 2.453l.039-14.693 7.004 4.04-.039 14.689-7.004-4.036m98.185 78.847l.103-38.644 6.975 4.009-.116 38.651-6.953-4.014m-19.64-22.012l.088-31.99 7.004 4.042-.089 32.005-7.004-4.052m-39.235-42.926l.026-12.865 7.004 4.04-.038 12.866-6.992-4.04m98.196 72.927l.089-31.66 6.975 4.017-.089 31.66-6.975-4.015m-117.914-53.364l.142-50.888 6.975 4.014-.154 50.889-6.953-4.015m78.685 6.735l.039-13.392 6.975 4.01-.039 13.391-6.975-4.009m19.525 49.97l.18-66.013 7.005 4.041-.18 66.013-7.005-4.041m39.303 17.382l.205-74.298 7.004 4.04-.205 74.32-7.004-4.052m19.665 13.341l.22-77.877 6.952 4.034-.218 77.858-6.954-4.015m1.982-112.742a3.127 3.127 0 0 1-.154-1.008c0-1.258.873-1.756 1.975-1.128 1.101.628 1.962 2.148 1.962 3.398 0 1.251-.897 1.763-1.974 1.128a4.156 4.156 0 0 1-1.566-1.77l-16.329 1.758c.105.315.16.643.166.974-.012 1.258-.897 1.759-1.936 1.155a4.255 4.255 0 0 1-1.732-2.194l-16.047-2.116c.04.194.062.391.065.59 0 1.202-.885 1.704-1.975 1.077-1.09-.628-1.974-2.141-1.974-3.348 0-.248.048-.493.141-.722l-16.174-19.075c-.347.384-.936.435-1.59.064a4.274 4.274 0 0 1-1.347-1.397l-16.716 6.62c.204.447.314.931.322 1.423 0 1.243-.885 1.758-1.974 1.128a3.993 3.993 0 0 1-1.143-1.09l-17.077 11.673a3.88 3.88 0 0 1 .481 1.744c-.012 1.202-.885 1.705-1.974 1.077a3.803 3.803 0 0 1-1.27-1.282l-16.805 7.632c.203.461.312.958.322 1.462 0 1.25-.847 1.77-1.939 1.143a4.33 4.33 0 0 1-1.981-3.385c-.033-.433.126-.86.435-1.166l-16.836-29.774a1.58 1.58 0 0 1-1.232-.24c-1.039-.597-1.924-2.066-1.924-3.322.012-.77.346-1.258.847-1.373l-17.702-47.863a1.645 1.645 0 0 1-.722-.24 3.646 3.646 0 0 1-1.051-.95l-17.267 14.726a4.01 4.01 0 0 1 .539 1.886c0 1.25-.885 1.758-1.936 1.142a4.161 4.161 0 0 1-1.513-1.683l-16.444 2.59c.123.337.188.692.192 1.051 0 1.258-.885 1.758-1.936 1.162a4.33 4.33 0 0 1-1.963-3.406c0-1.203.885-1.705 1.975-1.078a3.95 3.95 0 0 1 1.489 1.684l16.444-2.617a3.4 3.4 0 0 1-.204-1.104c.012-1.258.885-1.755 1.974-1.128.406.246.759.568 1.04.95l17.254-14.712a4.04 4.04 0 0 1-.565-1.912c.012-1.258.885-1.72 1.989-1.078 1.039.604 1.924 2.078 1.912 3.329 0 .75-.32 1.239-.808 1.373l17.702 47.863c.246.029.482.11.693.24 1.09.629 1.974 2.166 1.962 3.4 0 .538-.154.923-.423 1.142l16.867 29.774c.415-.1.852-.018 1.203.223.529.32.97.768 1.282 1.302l16.817-7.6a3.68 3.68 0 0 1-.346-1.456c0-1.258.885-1.758 1.936-1.154.452.275.841.642 1.142 1.077l17.099-11.622a3.935 3.935 0 0 1-.481-1.796c0-1.244.885-1.706 1.974-1.078a4.055 4.055 0 0 1 1.347 1.373l16.728-6.607a3.641 3.641 0 0 1-.334-1.411c0-1.258.897-1.759 1.975-1.129 1.077.63 1.936 2.13 1.924 3.387.008.247-.036.493-.13.722l16.163 19.041c.358-.397.962-.442 1.642-.05a4.394 4.394 0 0 1 1.732 2.205l16.048 2.117a2.46 2.46 0 0 1-.065-.597c0-1.262.885-1.763 1.974-1.135a4.187 4.187 0 0 1 1.54 1.797l16.304-1.778" fill="#FFF"/>
        <path fill="#2B90FF" d="M261.347 220.916l-7.004-4.04-.036 13.199 7.001 4.052.039-13.211"/>
        <path fill="#9ECCFF" d="M261.4 202.418l-7.004-4.053-.053 18.51 7.004 4.04.053-18.497"/>
        <path fill="#2B90FF" d="M281.038 223.352l-7.004-4.033-.062 22.12 7.001 4.04.065-22.127"/>
        <path fill="#9ECCFF" d="M281.077 208.664l-7.004-4.04-.039 14.695 7.004 4.033.039-14.688"/>
        <path fill="#2B90FF" d="M300.741 205.92l-6.965-4.015-.14 50.89 6.951 4.013.154-50.888M320.344 237.271l-6.992-4.04-.09 30.89 7.005 4.04.077-30.89"/>
        <path fill="#9ECCFF" d="M320.382 224.403l-7.004-4.038-.026 12.865 6.992 4.041.038-12.868"/>
        <path fill="#2B90FF" d="M339.931 263.978l-6.965-4.014-.039 15.509 6.954 4.033.05-15.528M359.584 280.206l-7.006-4.055-.024 10.66 7.004 4.043.026-10.648"/>
        <path fill="#9ECCFF" d="M359.673 248.2l-7.004-4.04-.091 31.99 7.006 4.056.09-32.006"/>
        <path fill="#2B90FF" d="M379.287 263.528l-6.965-4.007-.103 38.644 6.953 4.015.115-38.652"/>
        <path fill="#9ECCFF" d="M379.326 250.136l-6.966-4.007-.038 13.392 6.965 4.007.039-13.392"/>
        <path fill="#2B90FF" d="M399.029 247.52l-7.004-4.041-.18 66.012 7.004 4.041.18-66.012M418.513 310.172l-6.963-4.017-.04 14.689 6.953 4.029.05-14.7"/>
        <path fill="#9ECCFF" d="M418.605 278.513l-6.966-4.017-.089 31.66 6.963 4.016.092-31.66"/>
        <path fill="#2B90FF" d="M438.154 330.926l-7.004-4.052-.012 5.31 7.004 4.041.012-5.299"/>
        <path fill="#9ECCFF" d="M438.359 256.616l-7.004-4.04-.205 74.298 7.004 4.052.205-74.31"/>
        <path fill="#2B90FF" d="M457.768 344.23l-6.953-4.015-.012 3.329 6.965 4.007v-3.322"/>
        <path fill="#9ECCFF" d="M457.985 266.371l-6.951-4.036-.219 77.88 6.953 4.014.217-77.858"/>
        <path d="M258.013 164.459c-1.09-.628-1.974-.127-1.974 1.078a4.33 4.33 0 0 0 1.962 3.405c1.051.597 1.936.096 1.936-1.161a3.16 3.16 0 0 0-.192-1.051l-1.616.257-.24-.577 1.616-.258a3.95 3.95 0 0 0-1.49-1.683M279.102 162.804l-1.258 1.078-1.655.257c.34.69.863 1.273 1.513 1.684 1.051.615 1.936.108 1.936-1.143a4.01 4.01 0 0 0-.538-1.885m-1.386-1.501c-1.09-.628-1.962-.13-1.974 1.128a3.4 3.4 0 0 0 .204 1.104l1.614-.253 1.202-1.027a3.608 3.608 0 0 0-1.039-.95M297.381 147.219l-1.012.858c.285.383.642.705 1.05.95.22.136.466.218.722.24l-.757-2.05m.05-2.668c-1.104-.642-1.974-.18-1.989 1.077a4.04 4.04 0 0 0 .565 1.913l1.443-1.232.166.481.91 2.463c.48-.135.808-.623.808-1.373.012-1.251-.873-2.725-1.912-3.33M315.841 197.145c-.5.116-.835.604-.847 1.374 0 1.258.886 2.725 1.925 3.321.36.247.805.334 1.231.24l-1.388-2.445-.923-2.49m1.09.22a1.684 1.684 0 0 0-.693-.241l.9 2.431 1.334 2.348c.27-.219.423-.604.423-1.143.012-1.243-.873-2.77-1.962-3.398M334.994 231.857a1.486 1.486 0 0 0-.433 1.166 4.33 4.33 0 0 0 1.962 3.399c1.092.628 1.939.108 1.939-1.142a3.807 3.807 0 0 0-.322-1.463l-1.605.722-.166-.296-1.373-2.405m1.54.045a1.503 1.503 0 0 0-1.203-.223l1.202 2.104 1.282-.577a3.72 3.72 0 0 0-1.282-1.301M357.71 224.649l-1.296.873-1.474.666c.314.523.75.963 1.27 1.282 1.09.628 1.962.127 1.974-1.078a3.88 3.88 0 0 0-.48-1.743m-1.49-1.655c-1.05-.604-1.936-.104-1.936 1.154.015.504.133 1 .347 1.456l1.443-.662 1.282-.873a3.786 3.786 0 0 0-1.143-1.078M377.594 211.512l-1.527.589-1.27.873c.304.436.693.806 1.142 1.09 1.09.627 1.975.115 1.975-1.129a3.577 3.577 0 0 0-.322-1.423m-1.643-1.937c-1.09-.627-1.975-.166-1.975 1.078.015.629.18 1.245.481 1.797l1.309-.898 1.527-.603a4.055 4.055 0 0 0-1.347-1.374M395.669 204.356l-1.359.539a4.274 4.274 0 0 0 1.347 1.397c.654.373 1.243.32 1.59-.065l-1.578-1.873m0-2.552c-1.078-.628-1.975-.128-1.975 1.128.016.488.13.968.335 1.412l1.604-.635.13.173 1.705 2.02c.094-.228.138-.474.13-.721.012-1.258-.873-2.783-1.924-3.387M413.422 225.303c-.094.229-.142.474-.142.721 0 1.203.885 2.72 1.974 3.348 1.09.628 1.975.13 1.975-1.077a3.06 3.06 0 0 0-.065-.59l-1.912-.254-.127-.116-1.706-2.027m1.847-.412c-.68-.392-1.282-.346-1.642.05l1.628 1.925 1.744.24a4.394 4.394 0 0 0-1.732-2.205M436.718 229.882l-1.643.166-1.859-.24a4.255 4.255 0 0 0 1.732 2.193c1.039.604 1.924.104 1.936-1.154a3.247 3.247 0 0 0-.166-.974m-1.758-2.405c-1.09-.628-1.975-.128-1.975 1.135-.002.2.02.4.065.596l1.821.24 1.628-.18a4.187 4.187 0 0 0-1.539-1.796M454.625 225.368c-1.104-.628-1.975-.13-1.975 1.128-.004.342.048.682.154 1.008l1.684-.188.255.63-1.684.18c.34.73.884 1.345 1.566 1.77 1.077.636 1.962.13 1.974-1.127.012-1.258-.885-2.771-1.962-3.399" fill="#2B90FF"/>
        <path d="M318.47 201.905a.89.89 0 0 1-.32.18l16.836 29.774c.101-.084.22-.146.347-.18l-16.863-29.774m-42.524-38.37L259.5 166.16c.096.186.176.379.24.578l16.444-2.59a4.481 4.481 0 0 1-.24-.604m22.59-14.285c-.132.023-.265.03-.397.02l17.702 47.863a.895.895 0 0 1 .397-.02l-17.703-47.863m-2.527-1.712l-17.246 14.707c.128.176.244.36.347.551l17.267-14.727a5.443 5.443 0 0 1-.359-.538m156.79 79.953l-16.306 1.777c.092.194.166.396.22.604l16.328-1.758a5.862 5.862 0 0 1-.24-.623" fill="#9ECCFF"/>
        <path d="M259.5 166.16l-1.617.24.241.577 1.616-.257a3.735 3.735 0 0 0-.24-.577M278.76 162.253l-1.202 1.027-1.604.258c.065.207.145.408.24.604l1.655-.258 1.258-1.077a4.935 4.935 0 0 0-.347-.551M297.458 146.31l-1.443 1.231c.109.187.229.366.359.539l1.012-.859.758 2.052c.132.01.266.003.397-.02l-.91-2.462-.166-.481M316.238 197.126a.895.895 0 0 0-.397.02l.924 2.489 1.385 2.45a.89.89 0 0 0 .32-.18l-1.335-2.347-.9-2.432" fill="#2B90FF"/>
        <path d="M354.632 225.604l-16.817 7.6c.122.197.229.403.32.616l16.805-7.632a5.652 5.652 0 0 1-.308-.584m19.833-13.154l-17.098 11.621c.13.183.246.376.346.578l17.077-11.673a4.993 4.993 0 0 1-.335-.526m58.586 16.766l-16.048-2.116c.073.196.128.398.166.603l16.048 2.117a3.91 3.91 0 0 1-.166-.604m-39.015-24.874l-16.728 6.607c.112.181.21.37.296.565l16.716-6.62a4 4 0 0 1-.281-.55m3.437 1.559a1.037 1.037 0 0 1-.22.327l16.176 19.075a1.16 1.16 0 0 1 .204-.358l-16.163-19.042" fill="#9ECCFF"/>
        <path d="M335.337 231.679a.897.897 0 0 0-.346.18l1.373 2.406.166.295 1.605-.721a4.582 4.582 0 0 0-.32-.616l-1.282.577-1.203-2.104M357.364 224.071l-1.282.873-1.443.662c.091.2.194.396.308.584l1.474-.666 1.297-.873a4.305 4.305 0 0 0-.347-.577M377.298 210.949l-1.527.603-1.308.898c.103.18.218.358.334.526l1.27-.873 1.527-.589a4.606 4.606 0 0 0-.296-.565M395.63 203.707l-1.604.635a4 4 0 0 0 .282.55l1.359-.538 1.577 1.873c.094-.094.168-.205.22-.327l-1.706-2.02-.13-.173M413.626 224.942a1.16 1.16 0 0 0-.204.358l1.705 2.028.127.115 1.913.255a3.625 3.625 0 0 0-.166-.603l-1.744-.24-1.629-1.925M436.5 229.279l-1.629.18-1.82-.24c.038.205.094.407.165.603l1.86.24 1.642-.165a3.367 3.367 0 0 0-.219-.604M454.483 227.316l-1.684.188c.069.212.149.42.24.623l1.684-.18-.255-.631M453.968 181.68l-34.548-19.95c.094 10.926 7.747 24.113 17.219 29.583 9.471 5.47 17.17 1.14 17.317-9.638" fill="#2B90FF"/>
        <path d="M449.083 164.716l-11.9 6.766 16.783 9.695c-.039-5.337-1.905-11.217-4.885-16.458" fill="#9ECCFF"/>
        <path d="M436.75 151.6c-9.472-5.466-17.171-1.144-17.318 9.638l17.164 9.91 12.194-6.975c-3.105-5.292-7.338-9.876-12.026-12.582" fill="#10355D"/>
        <path fill="#D3D3D3" d="M472.887 173.596l-12.307-7.105-.01 2.43 12.31 7.105.007-2.43"/>
        <path fill="#E9E9E9" d="M475.437 178.765l-14.867-8.586-.002 1.503 14.864 8.584.005-1.501M475.432 180.956l-14.869-8.586-.005 1.5 14.87 8.59.004-1.504"/>
        <path fill="#D3D3D3" d="M472.849 187.133l-12.307-7.11-.008 2.417 12.308 7.105.007-2.412"/>
        <path fill="#E9E9E9" d="M475.398 192.287l-14.864-8.587-.004 1.501 14.864 8.587.004-1.501M475.394 194.478l-14.87-8.586-.004 1.5 14.871 8.59.003-1.504"/>
        <path fill="#D3D3D3" d="M472.813 200.655l-12.31-7.11-.007 2.43 12.307 7.109.01-2.43"/>
        <path fill="#E9E9E9" d="M475.36 205.806l-14.864-8.584-.005 1.501 14.864 8.587.005-1.504M475.355 207.998l-14.869-8.587-.005 1.503 14.872 8.587.002-1.503"/>
        <g fill="#D3D3D3">
            <path d="M498.851 116.002L367.59 40.217l-.015 5.09 131.263 75.784.014-5.09M498.82 127.515l-61.053-35.247-.005 2.28 61.05 35.248.008-2.28M498.806 132.492l-61.051-35.248-.007 2.275 61.05 35.248.008-2.275M498.791 137.463l-61.05-35.248-.008 2.278 61.053 35.248.005-2.278M498.777 142.437l-61.051-35.25-.007 2.278 61.053 35.25.005-2.278M498.762 147.411l-61.05-35.25-.008 2.277 61.053 35.248.005-2.275M498.75 152.383l-61.053-35.248-.007 2.275 61.053 35.248.007-2.275M432.774 89.384L371.72 54.136l-.008 2.278 61.054 35.247.007-2.277M432.76 94.358L371.705 59.11l-.007 2.277 61.053 35.248.007-2.277M432.745 99.332l-61.053-35.248-.005 2.277 61.05 35.248.008-2.277M432.73 104.303l-61.053-35.248-.004 2.278 61.05 35.248.007-2.278M432.716 109.277l-55.603-32.102-.005 2.278 55.6 32.102.008-2.278M432.702 114.25l-50.15-28.955-.008 2.275 50.153 28.956.005-2.275"/>
        </g>
        <path d="M107.613 245.944a19.482 19.482 0 0 0 10.02-17.474c-.22-10.022-8.231-18.387-18.239-19a19.482 19.482 0 0 0-20.725 19.445s-.784 23.458 29.362 23.165c0 0-2.32-1.138-2.153-3.497a3.343 3.343 0 0 1 1.735-2.639z" fill="#FFF"/>
        <path d="M108.577 226.727l-1.587-1.588v-2.244l-2.074-.858-.858-2.074h-2.244l-1.588-1.587-2.073.859-2.073-.86-1.588 1.588h-2.244l-.851 2.074-2.073.858v2.244l-1.588 1.588.859 2.073-.859 2.073 1.588 1.588v2.246l2.073.859.859 2.073H94.5l1.587 1.587 2.073-.858 2.073.858 1.588-1.587h2.244l.859-2.073 2.073-.859v-2.244l1.587-1.587-.858-2.074.851-2.075zm-9.724 7.805v1.219a.695.695 0 1 1-1.39 0v-1.23a3.48 3.48 0 0 1-2.78-3.402.695.695 0 1 1 1.39 0 2.088 2.088 0 0 0 2.085 2.085c1.226 0 2.085-.763 2.085-1.852 0-.904-.753-1.535-2.237-1.871-2.744-.628-3.319-2.1-3.319-3.226 0-1.626 1.155-2.886 2.78-3.182v-1.22a.695.695 0 1 1 1.39 0v1.23a3.461 3.461 0 0 1 2.733 2.824.696.696 0 1 1-1.37.24 2.078 2.078 0 0 0-2.057-1.736c-1.227 0-2.086.762-2.086 1.852 0 .336 0 1.358 2.237 1.87 2.886.653 3.322 2.303 3.322 3.226-.008 1.616-1.162 2.889-2.783 3.173z" fill="#FFB522"/>
        <g transform="translate(101.018 232.821)">
            <path d="M31.361 137.497c6.975 4.05 8.195 9.962 2.73 13.14-5.465 3.177-15.634 2.462-22.609-1.586-6.975-4.047-8.194-9.962-2.73-13.14 5.465-3.176 15.644-2.462 22.61 1.586z" fill="#D8D8D8"/>
            <path d="M4.33 41.129C1.784 46.523.636 55.187.215 62.705l7.382.782 7.057-18.193" fill="#FFF"/>
            <path d="M5.953 78.584s.264 2.694.447 3.457c.116.48.188.817.28 1.171.124.481.156.722 0 .847-.157.125-.441.154-.722-.837.156.668.47 1.29.914 1.813.529.57 1.303 1.15 1.096 1.443-.206.294-.774 0-.774 0s-.067.481-.77.104c0 0-.084.394-.793-.104 0 0-.282.327-.936-.327-.654-.654-2.992-3.18-3.04-7.9l4.298.333z" fill="#FFCFAE"/>
            <path d="M.221 62.554c-.733 13.15 1.309 17.19 1.309 17.19l4.459.12L7.59 63.487" fill="#FFF"/>
            <circle fill="#FFF" cx="3.935" cy="62.773" r="3.714"/>
            <circle fill="#FFF" cx="9.332" cy="43.594" r="5.582"/>
            <path d="M27.871 144.931c1.515-1.515 3.35-2.14 4.089-1.392.738.748.128 2.583-1.388 4.1-1.515 1.518-3.35 2.141-4.089 1.393-.452-.452-.416-2.292-.416-2.749.25-.467 1.2-.75 1.804-1.352z" fill="#444549"/>
            <path d="M27.9 144.768c.989-.943 2.165-1.309 2.646-.82.48.488.043 1.65-.943 2.59" fill="#FFCFAE"/>
            <path d="M15.311 137.574c1.516-1.515 3.35-2.14 4.09-1.393.738.748.124 2.583-1.391 4.101-1.515 1.518-3.35 2.14-4.089 1.393-.452-.452-.416-2.292-.416-2.75.255-.466 1.205-.747 1.806-1.351z" fill="#444549"/>
            <path d="M15.34 137.41c.989-.942 2.165-1.308 2.646-.82.481.488.043 1.65-.943 2.59" fill="#FFCFAE"/>
            <path d="M37.04 75.275L5.869 76.338l6.104 38.656 1.405 23.763c.026.81.743 1.467 2.068 1.467 1.325 0 1.804-.721 1.833-1.522 0 0 2.241-15.076 3.34-24.682.54-5.05.802-10.127.787-15.206l3.367 20.926 1.023 26.036v.081c0 .806.781 1.468 2.241 1.465 1.39 0 1.924-.676 1.982-1.443.176-.88 3.983-19.888 4.923-27.777.953-8.075 3.3-40.297 2.098-42.827z" fill="#9B9B9B"/>
            <path d="M39.527 48.532c1.092 7.658.678 36.445.678 36.445 0 6.143-1.547 10.982-9.974 12.163-1.443.2-3.127.058-4.74-.288-6.517-1.393-14.42-6.095-17.503-8.883-5.167-4.67-4.955-9.081-4.955-12.925V46.961c0 .02 0-9.433 7.983-12.507 6.073-2.338 15.42-.195 20.304 2.562 0 .002 7.07 3.535 8.207 11.516z" fill="#FFF"/>
            <path d="M38.916 45.96c-.861-.899-1.944-1.52-3.288-1.52-4.873 0-4.541 5.532-4.541 5.532v30.982c0 11.917-2.703 15.224-4.462 16.114a12.89 12.89 0 0 0 3.608.082c8.418-1.18 9.974-6.013 9.974-12.163 0 0 .414-28.788-.678-36.446a14.58 14.58 0 0 0-.613-2.58z" fill="#D8D8D8"/>
            <path d="M18.65 33.153a9.955 9.955 0 0 1-1.443-5.385c.019-1.806-.113-4.233.647-5.592 1.183-2.112 3.692-2.718 5.847-2.696 3.538.036 6.369 3.807 6.32 8.418-.028 2.73-1.058 5.144-2.626 6.655v.599c-.026.625-.445.676-1.265 1.152-1.7.988-4.467.988-6.177 0-.839-.481-1.267-1.119-1.286-1.754v-1.4" fill="#FFCFAE"/>
            <path d="M23.53 34.805c3.535-.382 4.43-2.27 5.007-5.05 5.306-4.763 3.288-11.945 3.065-12.471-.558.697-1.092.7-1.092.7.11-.22.137-.47.08-.708-.905 1.393-6.543-.767-8.777-1.248-2.235-.48-2.562.974-2.562.974s-1.626-.798-2.87 1.91c-.92 2.006-.8 7.155.08 9.68.957 2.745 2.02 6.76 7.069 6.213z" fill="#424242"/>
            <path d="M28.535 29.754c-.252 1.222-.568 2.271-1.142 3.096v1.696c1.524-1.465 2.537-3.786 2.619-6.42-.436.592-.93 1.138-1.477 1.628z" fill="#000" opacity=".08"/>
            <path d="M22.984 35.96c1.886.166 3.644-.24 4.596-.787 0 0 1.814.78 2.259.986 0 0-5.883 2.43-9.902.506-3.531-1.684-1.792-3.187-1.792-3.187l.505-.2v.878s.591 1.474 4.334 1.804z" fill="#DBDBDB"/>
            <path d="M26.202 48.87l4.731 24.495 8.914-1.652s-.056-1.867-.109-4.236c-.24-10.077.657-17.358-1.161-22.608-.866-2.5-13.744-1.429-12.377 4.002" fill="#FFF"/>
            <path d="M36.924 91.897s1.766 4.772 1.734 5.756c-.026.82-.214 1.308.272 1.551.652.327.91-.163.91-.163s.743.48 1.118-.342c0 0 .64.423.943-.604 0 0 .688.568.87-1.375.217-2.3-1.577-5.86-1.594-5.903l-4.253 1.08z" fill="#FFCFAE"/>
            <path d="M39.048 99.255a1.58 1.58 0 0 1-.897-1.015c-.26-.801.164-1.533.919-1.518 0 0 1.455 2.776-.022 2.533z" fill="#FFCFAE"/>
            <path d="M39.835 71.61l2.032 21.42-4.317 2.037s-4.375-10.655-6.735-22.127" fill="#FFF"/>
            <circle fill="#FFF" transform="rotate(-29.15 35.282 72.061)" cx="35.282" cy="72.061" r="4.563"/>
            <circle fill="#FFF" transform="rotate(-.22 32.67 47.705)" cx="32.671" cy="47.705" r="6.583"/>
            <path d="M73.967 125.471c6.975 4.05 8.194 9.962 2.73 13.14-5.465 3.177-15.634 2.462-22.61-1.585-6.974-4.048-8.194-9.963-2.73-13.14 5.465-3.177 15.644-2.463 22.61 1.585z" fill="#D8D8D8"/>
            <path d="M47.012 25.339c-2.545 5.394-3.692 14.058-4.113 21.574l7.381.782 7.057-18.193" fill="#FFF"/>
            <path d="M48.642 62.794s.265 2.694.448 3.454c.115.481.187.818.279 1.172.125.48.156.721 0 .846-.157.125-.44.154-.722-.837.157.669.47 1.29.914 1.814.53.57 1.304 1.147 1.097 1.443-.207.296-.775 0-.775 0s-.067.48-.77.103c0 0-.083.395-.793-.103 0 0-.281.327-.936-.327-.654-.654-2.992-3.18-3.04-7.901l4.298.336z" fill="#FFDFCA"/>
            <path d="M42.91 46.764c-.733 13.149 1.31 17.187 1.31 17.187l4.458.12 1.602-16.376" fill="#FFF"/>
            <circle fill="#FFF" cx="46.624" cy="46.983" r="3.714"/>
            <circle fill="#FFF" cx="52.019" cy="27.804" r="5.582"/>
            <path d="M72.908 135.614c-1.508 1.51-3.34 2.128-4.089 1.38-.748-.748-.132-2.578 1.379-4.089 1.51-1.51 3.34-2.128 4.088-1.383.453.453.419 1.634.421 2.088-.252.479-1.197 1.414-1.799 2.004z" fill="#081B2F"/>
            <path d="M72.899 134.053c-.989.943-2.165 1.31-2.646.82-.481-.49-.043-1.65.943-2.593.986-.943 2.164-1.308 2.645-.82.481.488.044 1.652-.942 2.593z" fill="#FFCFAE"/>
            <path d="M59.389 127.883c-1.443 1.444-3.209 2.047-3.928 1.326-.72-.722-.127-2.478 1.323-3.928 1.45-1.45 3.208-2.044 3.928-1.328.435.433.404 1.571.404 2.006-.243.452-1.15 1.35-1.727 1.924z" fill="#081B2F"/>
            <path d="M59.38 126.375c-.951.907-2.084 1.258-2.531.79-.448-.47-.043-1.583.907-2.49.95-.907 2.082-1.258 2.53-.787.447.472.038 1.583-.907 2.487z" fill="#FFCFAE"/>
            <path d="M74.258 107.324s3.836-21.476 5.724-35.248l-29.473-5.585c-.14 6.696-.373 19.46.38 28.696 1.135 13.914 6.198 30.032 6.198 30.032.106.505.394.834 1.513.834 1.248 0 1.869-.986 1.869-1.573l-.258-21.767 2.44-19s1.18 14.156 2.056 21.716c.875 7.56 5.957 27.467 5.957 27.467 0 .791-.036.981 1.313.981 1.35 0 2.042-.926 2.052-1.71l.229-24.843z" fill="#FFCFAE"/>
            <path d="M67.246 99.853c1.383.358 2.82.445 4.236.258 4.346-.609 8.9-5.325 8.9-5.325v-5.532c0-5.878-.023-28.203-.023-28.203a53.898 53.898 0 0 0-.582-4.356c-.839-4.115-2.405-6.566-5.832-9.296a11.494 11.494 0 0 0-1.499-.989c-4.365-2.463-12.713-4.377-18.14-2.29-7.13 2.745-7.13 11.19-7.13 11.173v32.054a72.72 72.72 0 0 0 8.754 6.657c4.572 2.949 10.234 5.566 11.316 5.85z" fill="#2B90FF"/>
            <path d="M81.694 33.875c1.092 7.658.679 36.443.679 36.443 0 6.143-1.547 10.982-9.975 12.163-1.443.202-3.126.058-4.74-.289-6.516-1.392-14.42-6.094-17.503-8.882-5.166-4.671-4.954-9.082-4.954-12.926V32.3c0 .02 0-9.433 7.982-12.507 6.073-2.338 15.42-.195 20.305 2.562.002.002 7.071 3.533 8.206 11.52z" fill="#FFF"/>
            <path d="M81.086 31.296c-.861-.9-1.944-1.52-3.288-1.52-4.873 0-4.541 5.532-4.541 5.532v30.981c0 11.918-2.703 15.225-4.462 16.115 1.193.196 2.408.224 3.608.082 8.418-1.181 9.974-6.013 9.974-12.163 0 0 .414-28.788-.678-36.444a14.59 14.59 0 0 0-.613-2.583z" fill="#000" opacity=".1"/>
            <path d="M77.17 77.307s-.214 2.697-.385 3.464c-.108.48-.173.82-.26 1.176-.117.48-.144.721.022.847.166.125.445.146.707-.85a4.33 4.33 0 0 1-.88 1.83c-.517.58-1.282 1.172-1.07 1.468.211.296.774-.014.774-.014s.077.48.77.091c0 0 .091.392.794-.118 0 0 .286.322.928-.344.642-.666 2.934-3.232 2.886-7.954l-4.286.404z" fill="#FFDFCA"/>
            <path d="M76.083 58.532l.738 21.844 4.277-.132s3.266-8.594 4.07-22.313" fill="#FFF"/>
            <circle fill="#FFF" transform="rotate(-1.03 80.608 57.947)" cx="80.608" cy="57.947" r="4.563"/>
            <path d="M69.156 35.575l7.11 23.778 8.899-1.487s.142-2.205.144-4.57c0-9.971-1.416-17.47-4.11-22.784" fill="#FFF"/>
            <circle fill="#FFF" transform="rotate(-.22 75.336 33.403)" cx="75.336" cy="33.403" r="6.542"/>
            <path d="M55.91 42.293a.315.315 0 0 1-.259-.258l-2.153-12.194c-.067-.279-1.585-6.881 2.519-10.181a9.214 9.214 0 0 1 5.7-2.131c2.405 0 4.387 1.162 5.419 3.184 1.16 2.278-.322 4.296-2.377 7.088a48.64 48.64 0 0 0-3.607 5.448l-4.916 8.883a.315.315 0 0 1-.277.163l-.048-.002zm.506-22.128c-3.79 3.047-2.316 9.476-2.297 9.56l2.001 11.336 4.49-8.115a49.152 49.152 0 0 1 3.65-5.517c1.99-2.709 3.304-4.498 2.323-6.427-.92-1.806-2.69-2.84-4.856-2.84a8.584 8.584 0 0 0-5.313 2.003h.002z" fill="#2B90FF"/>
            <path fill="#9ECCFF" d="M56.796 45.07l-.007 2.444-1.573-.906.007-2.446z"/>
            <path d="M56.192 44.022l1.53.883-.017 6.287-3.42-1.975.017-6.287 1.53.883.36.209zm-.962.14v2.446l1.573.909V45.07l-1.573-.91zm2.23 4.779v-.24l-2.886-1.67v.24l2.886 1.67zm0 .687v-.24l-2.886-1.67v.241l2.886 1.667v.002zm0 .686v-.24l-2.886-1.67v.24l2.886 1.67z" fill="#2B90FF"/>
            <path fill="#9ECCFF" d="M57.455 48.69l-.002.25-2.89-1.669v-.25z"/>
            <path fill="#D3D3D3" d="M56.789 41.516l-.267 1.756-.327-.188-.361-.21-.332-.19-.253-2.058z"/>
            <path fill="#9ECCFF" d="M57.45 50.066l-.002.25-2.889-1.669.003-.248zM57.453 49.38l-.003.248-2.888-1.669v-.247z"/>
            <path d="M66.142 4.827s4.893-5.05 6.785 1.63c0 0 1.052 2.887.053 5.576-.998 2.69-2.734 4.26-.48 6.155 0 0-6.156-1.578-6.786-9.731-.002 0-.37-2.894.428-3.63z" fill="#08253F"/>
            <path d="M53.587 10.034a10.583 10.583 0 0 0 .289 3.813c.657 2.446-1.051 2.236-1.051 2.236s2.21.21 1.63-1.683c-.456-1.494.107-2.473.107-2.473s-.239-1.84-.975-1.893z" fill="#10355D"/>
            <path d="M60.52 4.23c-2.052-.081-4.458.426-5.646 2.406-.765 1.272-.705 3.588-.774 5.308-.125 3.108 1.113 6.362 3.04 8.053v.827c.022.664.469 1.328 1.347 1.833 1.79 1.034 4.68 1.034 6.458 0 .858-.498 1.296-1.147 1.323-1.8V12.71c0-.096.014-.195.016-.291.193-4.382-2.398-8.053-5.765-8.187z" fill="#FFCFAE"/>
            <path d="M59.84 21.166a4.373 4.373 0 0 1-2.7-1.172v.828c.022.663.469 1.327 1.347 1.832 1.79 1.035 4.68 1.035 6.458 0 .858-.497 1.296-1.147 1.323-1.799V12.71c-.272 4.31-3.132 8.589-6.427 8.457z" fill="#EAB896"/>
            <path d="M64.459 12.533c.115-.543.224-.95.794-.904a1.12 1.12 0 0 1 1.027 1.102 8.072 8.072 0 0 1-.722 3.302l.722 2.646c6.753-8.64 1.32-16.22 1.32-16.22C65.928.268 63.16.826 63.16.826 60.435-.2 55.944-.447 53.929 3.46c0 0-1.898 2.47-.688 6.626l.864 2.886a8.053 8.053 0 0 1 0-1.022c.028-.702.036-1.506.086-2.297 7.103.014 8.584-2.475 8.584-2.475s-.159 2.646.481 3.827c0 0-.08 1.808.395 2.816 0 0 .721 1.89-.159 2.547 0 0 1.263-.447.868-2.13-.115-.417.099-1.704.099-1.704z" fill="#10355D"/>
            <path d="M72.918 6.456c-1.095-3.86-3.19-3.803-4.765-3.067a13.36 13.36 0 0 1 .188 11.973 9.029 9.029 0 0 0 4.156 2.824c-2.26-1.893-.527-3.471.481-6.155s-.06-5.575-.06-5.575z" fill="#3A2416" opacity=".08"/>
        </g>
        <g fill="#E2E2E2">
            <path d="M291.989 388.833c-10.838-6.253-28.35-6.253-39.118 0-10.768 6.254-10.71 16.401.128 22.657 10.837 6.256 28.35 6.254 39.117 0 10.768-6.253 10.71-16.4-.127-22.659"/>
        </g>
        <g>
            <path d="M286.37 397.778v-62.926c-.29 1.835-1.654 3.624-4.088 5.029-5.532 3.194-14.499 3.194-20.03 0-2.387-1.378-3.74-3.127-4.068-4.921v63.42l.087.05c-.077 2.138 1.294 4.289 4.12 5.922s6.551 2.422 10.255 2.378c3.507-.04 6.992-.832 9.67-2.378 2.39-1.38 3.742-3.127 4.054-4.938a4.748 4.748 0 0 0 0-1.636z" fill="#2B90FF"/>
            <path d="M282.284 328.32c-2.72-1.571-6.273-2.368-9.84-2.394-3.682-.026-7.379.77-10.19 2.393-2.386 1.378-3.74 3.127-4.068 4.921v1.722c.328 1.797 1.684 3.543 4.068 4.921 5.532 3.194 14.498 3.194 20.03 0 2.434-1.404 3.795-3.194 4.089-5.029.37-2.338-.994-4.748-4.089-6.535z" fill="#288BE5"/>
            <path d="M280.901 331.27v-52.49c-.178 1.12-1.01 2.215-2.497 3.071-3.367 1.95-8.855 1.95-12.235 0-1.457-.842-2.285-1.907-2.484-3.006v52.79l.053.032c-.046 1.306.791 2.62 2.515 3.608 1.725.988 4.003 1.48 6.254 1.443 2.143-.026 4.272-.51 5.907-1.443 1.46-.844 2.285-1.924 2.477-3.016a2.9 2.9 0 0 0 .01-.989z" fill="#CCC"/>
            <path d="M278.404 274.787c-1.662-.962-3.831-1.443-6.013-1.462-2.248-.017-4.507.48-6.224 1.462-1.458.842-2.285 1.907-2.485 3.007v1.05c.2 1.097 1.027 2.165 2.485 3.007 3.367 1.95 8.856 1.95 12.235 0 1.486-.859 2.319-1.95 2.497-3.071.228-1.429-.604-2.901-2.495-3.993z" stroke="#148CFF" stroke-width="5" fill="#F9F8F5"/>
            <path d="M214.213 138.789l24.14 7.629 35.597 13.228 28.862 39.205 16.115 48.344-15.028 46.935 12.988-7.5c11.617-6.566 18.816-20.829 18.816-41.191 0-40.443-28.381-89.62-63.417-109.842-17.635-10.181-33.586-11.08-45.083-4.3l-12.99 7.492z" fill="#CCC"/>
            <path d="M195.637 179.843c0 40.443 28.382 89.619 63.418 109.842 35.036 20.222 63.417 3.829 63.417-36.614s-28.381-89.62-63.417-109.843c-35.036-20.222-63.418-3.826-63.418 36.615zm13.693 6.886c0-32.276 22.66-45.355 50.607-29.219 27.949 16.137 50.608 55.382 50.608 87.657s-22.645 45.355-50.608 29.226c-27.962-16.13-50.607-55.39-50.607-87.664z" fill="#E8E8E8"/>
            <path d="M231.725 151.14c-5.424 6.176-8.59 15.556-8.59 27.618 0 32.275 22.66 71.518 50.608 87.657 10.446 6.032 20.153 7.98 28.213 6.37-9.087 10.343-24.516 11.707-42.02 1.6-27.952-16.136-50.608-55.381-50.608-87.656.002-20.211 8.89-32.896 22.397-35.59z" fill="#CCC"/>
            <g>
                <path d="M318.338 242.368c.105 32.272-22.51 45.429-50.51 29.384-27.998-16.045-50.792-55.218-50.898-87.491-.105-32.273 22.51-45.43 50.51-29.384 27.998 16.045 50.792 55.218 50.898 87.49z" opacity=".47" fill="#2B90FF"/>
                <g opacity=".49" fill="#FFF">
                    <path d="M230.72 231.98a122.78 122.78 0 0 0 10.943 16.441l59.35-59.737a119.196 119.196 0 0 0-11.162-14.984l-59.132 58.28zM257.595 264.71l54.138-54.711a120.5 120.5 0 0 0-5.934-13.034l-59.145 57.359a98.593 98.593 0 0 0 10.94 10.385z" opacity=".75"/>
                </g>
            </g>
            <path d="M195.637 179.843c0 40.443 28.382 89.619 63.418 109.842 35.036 20.222 63.417 3.829 63.417-36.614s-28.381-89.62-63.417-109.843c-35.036-20.222-63.418-3.826-63.418 36.615zm13.693 6.886c0-32.276 22.66-45.355 50.607-29.219 27.949 16.137 50.608 55.382 50.608 87.657s-22.645 45.355-50.608 29.226c-27.962-16.13-50.607-55.39-50.607-87.664z" fill="#E8E8E8"/>
        </g>
        <g transform="translate(368.955 293.432)">
            <path d="M36.52 18.421A18.24 18.24 0 0 0 17.12.22C7.752.8.253 8.637.043 18.017a18.238 18.238 0 0 0 9.38 16.355 3.127 3.127 0 0 1 1.622 2.463c.158 2.208-2.014 3.274-2.014 3.274 28.22.26 27.49-21.688 27.49-21.688z" fill="#FFF"/>
            <rect fill="#2B90FF" x="10.414" y="15.905" width="4.587" height="8.724" rx="2.293"/>
            <path d="M25.341 15.795a1.722 1.722 0 0 0-.907-.26h-3.167c.283-1.717.368-3.035.264-3.572a2.552 2.552 0 0 0-.736-1.498 1.595 1.595 0 0 0-.288-.229 1.133 1.133 0 0 0-.587-.17 1.15 1.15 0 0 0-1.148 1.147c.01.52-.047 1.039-.17 1.544a14.73 14.73 0 0 1-1.607 3.26c-.271.32-.617.567-1.008.72v6.86c.45.1.858.34 1.162.686a2.165 2.165 0 0 0 1.628.736h4.695a2.672 2.672 0 0 0 2.675-2.675v-5.101a1.72 1.72 0 0 0-.806-1.448z" fill="#2B90FF"/>
        </g>
        <g transform="translate(0 273.95)">
            <path d="M471.72 92.946s.263 2.66.463 3.41c.115.462.185.806.276 1.157.125.462.157.722 0 .84-.156.117-.433.151-.721-.825.16.662.475 1.276.92 1.792.523.562 1.292 1.132 1.083 1.443-.21.31-.765 0-.765 0s-.07.461-.76.1c0 0-.081.388-.784-.1 0 0-.276.322-.921-.323-.645-.644-2.954-3.126-3-7.802l4.21.308z" fill="#FFCFAE"/>
            <path d="M466.057 77.115c-.722 12.988 1.294 16.973 1.294 16.973l4.396.125 1.58-16.177" fill="#FFF"/>
            <circle fill="#FFF" cx="469.727" cy="77.327" r="3.668"/>
            <path d="M496.735 154.855c6.88 4 8.093 9.84 2.696 12.988-5.397 3.148-15.444 2.434-22.32-1.568-6.877-4.002-8.094-9.84-2.696-12.988 5.397-3.148 15.438-2.439 22.32 1.568z" fill="#D8D8D8"/>
            <path d="M470.11 55.961c-2.512 5.328-3.647 13.888-4.06 21.313l7.29.774 6.975-17.974" fill="#FFF"/>
            <circle fill="#FFF" cx="475.059" cy="58.386" r="5.513"/>
            <path d="M494.286 164.878c-1.489 1.493-3.3 2.102-4.038 1.383-.738-.72-.13-2.55 1.383-4.044 1.513-1.493 3.3-2.102 4.038-1.383.462.462.414 1.614.414 2.062a13.827 13.827 0 0 1-1.797 1.982z" fill="#081B2F"/>
            <ellipse fill="#FFCFAE" transform="rotate(-43.68 493.438 162.447)" cx="493.438" cy="162.447" rx="2.444" ry="1.207"/>
            <path d="M480.935 157.231c-1.443 1.444-3.165 2.018-3.88 1.309-.714-.71-.125-2.449 1.309-3.88 1.433-1.43 3.165-2.018 3.88-1.308.428.428.396 1.549.396 1.982a13.245 13.245 0 0 1-1.705 1.897z" fill="#081B2F"/>
            <ellipse fill="#FFCFAE" transform="rotate(-43.68 480.126 154.924)" cx="480.126" cy="154.924" rx="2.345" ry="1.162"/>
            <path d="M496.066 136.925s3.788-21.202 5.655-34.815l-29.12-5.532c-.137 6.614-.368 19.22.373 28.34 1.12 13.743 5.854 29.608 5.854 29.608.106.497.66.88 1.766.88 1.231 0 2.087-.414 2.087-.996l-.498-22.058 2.406-18.76s1.166 13.984 2.032 21.45c.866 7.465 5.291 26.675 5.291 26.675 0 .784.573 1.42 1.903 1.42s2.239-.578 2.249-1.35l.002-24.862z" fill="#9B9B9B"/>
            <path d="M504.366 64.377c1.078 7.564.669 35.996.669 35.996 0 6.07-1.53 10.85-9.85 12.026-1.565.17-3.148.072-4.682-.286-6.453-1.383-14.241-6.013-17.289-8.758-5.101-4.608-4.894-8.969-4.894-12.766V62.823s0-9.32 7.886-12.35c5.992-2.304 15.21-.193 20.052 2.53.005.005 6.983 3.492 8.108 11.374z" fill="#FFF"/>
            <path d="M503.767 61.837a4.428 4.428 0 0 0-3.225-1.503c-4.81 0-4.483 5.452-4.483 5.452v30.6c0 11.77-2.668 15.034-4.406 15.914a12.73 12.73 0 0 0 3.562.082c8.324-1.166 9.849-5.946 9.849-12.026 0 0 .411-28.431-.669-35.996a14.39 14.39 0 0 0-.628-2.523z" fill="#D8D8D8"/>
            <path d="M499.895 107.28s-.212 2.666-.378 3.42c-.105.463-.17.811-.252 1.163-.116.48-.142.721 0 .834.142.113.462.142.695-.84a4.267 4.267 0 0 1-.87 1.807c-.513.572-1.268 1.157-1.057 1.443.212.286.765 0 .765 0s.075.462.76.087c0 0 .087.387.784-.116 0 0 .282.318.922-.341.64-.66 2.898-3.194 2.862-7.836l-4.23.38z" fill="#FFCFAE"/>
            <path d="M498.822 88.734l.722 21.575 4.226-.13s3.225-8.486 4.019-22.039" fill="#FFF"/>
            <circle fill="#FFF" transform="rotate(-1.03 503.29 88.154)" cx="503.291" cy="88.154" r="4.507"/>
            <path d="M491.982 66.058L499 89.564l8.794-1.465s.137-2.179.142-4.521c0-9.85-1.383-17.255-4.06-22.506" fill="#FFF"/>
            <circle fill="#FFF" transform="rotate(-.22 498.081 63.913)" cx="498.081" cy="63.913" r="6.463"/>
            <path d="M483.355 32.795c-2.261-.092-4.919.469-6.227 2.645-.845 1.405-.78 3.96-.854 5.857-.14 3.427 1.226 7.018 3.353 8.882v.915c.021.72.517 1.464 1.484 2.02 1.974 1.14 5.164 1.14 7.126 0 .945-.551 1.429-1.263 1.46-1.985v-8.971c0-.108.015-.214.02-.32.218-4.837-2.646-8.894-6.362-9.043z" fill="#FFCFAE"/>
            <path d="M489.053 44.62c.073-.674.192-1.344.358-2.003.334-1.522-.83-1.66-.83-1.66-.63-.05-1.039.393-1.166.994l-.142 2.425-.888.288s.265-1.748.265-2.246c0-2.769-.642-2.918-.642-2.918l-.34-2.164s-5.625.678-8.843-1.037a16.596 16.596 0 0 0-.515 3.793s-.671-4.594.394-7.413c1.066-2.819 2.826-4.206 5.809-4.182 0 0 8.974-.722 9.775 5.375 0 0 .89 6.838-2.59 12.613-.003-.007-.64-1.893-.645-1.864z" fill="#424242"/>
            <path d="M482.607 51.478a4.81 4.81 0 0 1-2.98-1.292v.915c.021.721.517 1.464 1.484 2.02 1.974 1.14 5.164 1.14 7.126 0 .945-.551 1.429-1.263 1.46-1.984v-8.972c-.3 4.738-3.456 9.46-7.09 9.313z" fill="#3A2416" opacity=".08"/>
            <circle fill="#2B90FF" cx="484.213" cy="11.797" r="11.595"/>
            <path d="M484.993 10.414l-.481 2.093 1.924 1.83 1.366 2.718a.702.702 0 1 1-1.121.844l-1.34-2.775-2.116-1.948-.541 2.07-1.715 2.514a.702.702 0 1 1-1.282-.57l1.777-2.516 1.172-5.133-1.369.609c0 .02-.481 1.56-.481 1.56a.599.599 0 0 1-1.143-.348l.635-2.073 3.168-1.33a1.41 1.41 0 0 1 .854-.108c.165.038.32.109.457.209l1.91 2.696 1.24.065a.602.602 0 0 1-.062 1.202l-1.568-.081c-.24-.012-.397-.205-.536-.41l-.748-1.118zm-.15-2.992a1.203 1.203 0 1 1 1.203-1.202 1.203 1.203 0 0 1-1.2 1.198l-.003.004z" fill="#FFF"/>
            <path d="M12.663 170.176c-7.071 4.11-8.32 10.114-2.77 13.34 5.548 3.225 15.874 2.5 22.945-1.61s8.32-10.116 2.759-13.341c-5.561-3.226-15.862-2.502-22.934 1.611z" opacity=".15" fill="#050505"/>
            <path d="M15.01 180.485c1.533 1.532 3.392 2.164 4.152 1.402.76-.762.132-2.62-1.4-4.154-1.532-1.534-3.391-2.164-4.151-1.402-.46.457-.426 1.66-.426 2.119.255.476 1.217 1.419 1.826 2.035z" fill="#444549"/>
            <path d="M15.023 178.888c1.003.962 2.2 1.33 2.674.832.474-.498.046-1.684-.962-2.631-1.008-.948-2.2-1.33-2.674-.833-.474.498-.041 1.689.962 2.632z" fill="#FFCFAE"/>
            <path d="M28.737 172.627c1.472 1.472 3.257 2.078 3.988 1.347.731-.731.127-2.513-1.345-3.988-1.472-1.474-3.256-2.076-3.987-1.347-.44.44-.41 1.592-.41 2.035.246.457 1.158 1.369 1.754 1.953z" fill="#444549"/>
            <path d="M28.75 171.093c.961.918 2.113 1.277 2.568.8.454-.476.043-1.606-.919-2.527-.962-.922-2.114-1.278-2.569-.799-.454.479-.045 1.61.92 2.526z" fill="#FFCFAE"/>
            <path d="M13.183 151.752s-3.894-21.803-5.814-35.784l29.933-5.671c.142 6.797.38 19.756-.385 29.134-1.152 14.125-6.013 30.432-6.013 30.432-.106.513-.678.905-1.813.902-1.265 0-2.148-.425-2.148-1.024l.51-22.674-2.475-19.282s-1.203 14.373-2.09 22.048c-.888 7.675-5.429 27.42-5.429 27.42 0 .803-.587 1.457-1.958 1.457-1.37 0-2.301-.594-2.311-1.39l-.007-25.568z" fill="#9B9B9B"/>
            <path d="M38.206 106.545s-.27 2.734-.454 3.506c-.118.493-.19.83-.284 1.191-.128.495-.159.74 0 .861.159.12.447.156.721-.849a4.387 4.387 0 0 1-.926 1.842c-.536.578-1.322 1.167-1.113 1.472.21.306.786 0 .786 0s.068.496.782.106c0 0 .084.4.808-.106 0 0 .284.332.95-.332.666-.663 3.038-3.227 3.086-8.02l-4.356.329z" fill="#FFCFAE"/>
            <path d="M44.015 90.271c.745 13.351-1.6 17.457-1.6 17.457l-4.257.115-1.626-16.627" fill="#FFCFAE"/>
            <circle fill="#FFCFAE" cx="40.256" cy="90.49" r="3.769"/>
            <path d="M39.861 68.51c2.583 5.476 3.747 14.271 4.175 21.903l-7.494.794-7.165-18.47" fill="#FFF"/>
            <circle fill="#FFF" cx="34.777" cy="71.02" r="5.667"/>
            <path d="M34.473 90.505a1.602 1.602 0 0 0 1.742 1.443l7.588-.686a1.602 1.602 0 0 0 1.443-1.739l-.163-1.806a1.602 1.602 0 0 0-1.74-1.443l-7.588.685a1.602 1.602 0 0 0-1.443 1.742l.161 1.804z" fill="#FFF"/>
            <path d="M4.65 77.168c-1.11 7.773-.689 37.001-.689 37.001 0 6.237 1.57 11.15 10.126 12.348 1.455.205 3.173.058 4.81-.293 6.615-1.414 14.638-6.186 17.77-9.017 5.246-4.74 5.03-9.22 5.03-13.123V75.583c0 .019 0-9.578-8.106-12.697-6.167-2.372-15.653-.197-20.615 2.602.012 0-7.172 3.586-8.327 11.68z" fill="#FFF"/>
            <path d="M5.267 74.565c.876-.911 1.973-1.544 3.339-1.544 4.947 0 4.61 5.607 4.61 5.607v31.455c0 12.098 2.745 15.455 4.532 16.355-1.21.2-2.443.228-3.66.084-8.556-1.202-10.127-6.111-10.127-12.348 0 0-.42-29.225.688-37.001.127-.886.334-1.759.618-2.608z" fill="#000" opacity=".1"/>
            <path d="M26.15 47.086c2.082-.084 4.526.43 5.73 2.44.775 1.29.722 3.643.787 5.387.128 3.153-1.13 6.458-3.088 8.177v.842c-.022.674-.481 1.347-1.366 1.862-1.816 1.048-4.753 1.048-6.557 0-.87-.505-1.315-1.164-1.344-1.828V55.709c0-.099-.015-.197-.017-.296-.197-4.462 2.434-8.19 5.854-8.327z" fill="#FFCFAE"/>
            <path d="M26.837 64.28a4.44 4.44 0 0 0 2.744-1.19v.842c-.021.674-.48 1.347-1.366 1.862-1.816 1.048-4.752 1.048-6.556 0-.871-.505-1.316-1.164-1.345-1.828V55.709c.274 4.36 3.177 8.711 6.523 8.572z" fill="#3A2416" opacity=".08"/>
            <path d="M17.409 49.25c.17-1.077 1.387-4.3 4.396-5.786 3.053-1.508 7.901-1.268 8.928-.962 1.41.409 1.713 1.337 1.395 2.035 0 0 2.646.697 1.74 2.55 1.04 2.176.978 4.406-1.23 6.859-.045-1.57-.118-3.35-.755-4.414a4.531 4.531 0 0 0-1.79-1.683c-4.89-.98-7.107 2.886-7.107 2.886l-.44 4.762a1.14 1.14 0 0 0-2.251.327v3.454a9.125 9.125 0 0 1-1.6-2.405c-1.548-3.329-1.575-5.801-1.286-7.622z" fill="#424242"/>
            <path d="M9.243 121.276s.219 2.74.39 3.517c.108.495.178.832.262 1.202.118.498.144.744-.022.861-.166.118-.45.15-.721-.863.146.682.453 1.32.894 1.86.527.586 1.302 1.19 1.088 1.49-.214.301-.787-.014-.787-.014s-.077.495-.782.091c0 0-.091.397-.805-.12 0 0-.291.327-.943-.349-.652-.676-2.98-3.283-2.942-8.076l4.368.401z" fill="#FFCFAE"/>
            <path d="M10.342 102.218l-.75 22.178-4.344-.135s-3.31-8.726-4.125-22.657" fill="#FFCFAE"/>
            <circle fill="#FFCFAE" transform="rotate(-88.97 5.755 101.625)" cx="5.755" cy="101.625" r="4.632"/>
            <path d="M17.38 78.91l-7.216 24.138-9.038-1.508S.984 99.3.98 96.892c0-10.124 1.443-17.739 4.173-23.133" fill="#FFF"/>
            <circle fill="#FFF" transform="rotate(-89.78 11.11 76.72)" cx="11.11" cy="76.72" r="6.643"/>
            <path d="M.253 101.86a1.602 1.602 0 0 0 1.392 1.786l7.564.94a1.602 1.602 0 0 0 1.787-1.392l.224-1.799a1.602 1.602 0 0 0-1.392-1.787l-7.567-.943a1.602 1.602 0 0 0-1.78 1.393l-.228 1.801z" fill="#FFF"/>
            <circle fill="#2B90FF" cx="26.267" cy="23.823" r="11.595"/>
            <path d="M27.046 22.44l-.48 2.093 1.923 1.83 1.367 2.718a.702.702 0 1 1-1.121.844l-1.34-2.775-2.117-1.949-.54 2.071-1.723 2.514a.702.702 0 1 1-1.282-.57l1.778-2.516 1.171-5.133-1.369.609c0 .019-.48 1.56-.48 1.56a.599.599 0 0 1-1.143-.348l.635-2.073 3.168-1.33a1.41 1.41 0 0 1 .853-.109c.165.038.32.11.457.21l1.91 2.696 1.241.065a.602.602 0 0 1-.062 1.202l-1.569-.081c-.24-.012-.396-.205-.536-.41l-.74-1.118zm-.149-2.992a1.203 1.203 0 1 1 1.203-1.202 1.203 1.203 0 0 1-1.2 1.197l-.003.005z" fill="#FFF"/>
            <path d="M308.423 174.505c-6.991 4.065-8.223 9.999-2.739 13.188 5.484 3.19 15.691 2.473 22.68-1.592 6.99-4.065 8.224-9.999 2.74-13.188-5.483-3.189-15.691-2.472-22.68 1.592z" fill="#D8D8D8"/>
            <path d="M310.908 184.694c1.515 1.515 3.35 2.138 4.103 1.385.753-.753.133-2.588-1.383-4.105-1.515-1.518-3.35-2.139-4.103-1.388-.455.452-.42 1.64-.42 2.095.254.473 1.202 1.412 1.803 2.013z" fill="#081B2F"/>
            <path d="M310.92 183.118c.993.948 2.165 1.316 2.646.823.48-.493.045-1.655-.948-2.6-.993-.945-2.165-1.313-2.646-.823-.48.491-.04 1.655.948 2.6z" fill="#FFCFAE"/>
            <path d="M324.478 176.927c1.443 1.456 3.218 2.052 3.942 1.33.724-.721.125-2.486-1.327-3.942-1.453-1.455-3.219-2.054-3.943-1.332-.435.435-.404 1.575-.404 2.013.243.452 1.155 1.354 1.732 1.931z" fill="#081B2F"/>
            <path d="M324.49 175.412c.962.91 2.09 1.263 2.54.792.45-.472.043-1.59-.91-2.5-.952-.909-2.09-1.262-2.54-.788-.449.473-.042 1.59.91 2.496z" fill="#FFCFAE"/>
            <path d="M309.102 156.298s-5.465-21.925-7.362-35.746l33.23-5.91c.139 6.721-1.65 20.204-2.406 29.474-1.137 13.964-5.948 30.084-5.948 30.084-.106.505-.668.892-1.792.892-1.253 0-2.123-.423-2.123-1.012l.505-22.412-2.446-19.063s-1.186 14.207-2.066 21.796c-.88 7.588-5.366 27.104-5.366 27.104 0 .793-.58 1.443-1.924 1.443-1.345 0-2.276-.587-2.285-1.374l-.017-25.276z" fill="#2B90FF"/>
            <path d="M335.475 74.015c2.551 5.414 3.704 14.108 4.127 21.646l-7.408.784-7.083-18.257" fill="#FFF"/>
            <path d="M333.839 111.605s-.265 2.704-.45 3.468c-.118.481-.187.82-.281 1.177-.125.48-.159.721 0 .849.159.127.442.154.721-.84a4.33 4.33 0 0 1-.916 1.82c-.532.573-1.308 1.153-1.102 1.444.207.291.777 0 .777 0s.068.481.772.103c0 0 .085.395.799-.103 0 0 .281.33.938-.33.657-.658 3.004-3.191 3.05-7.937l-4.308.35z" fill="#FFCFAE"/>
            <path d="M339.59 95.517c.738 13.197-1.313 17.25-1.313 17.25l-4.476.12-1.607-16.437" fill="#FFF"/>
            <circle fill="#FFF" cx="335.864" cy="95.736" r="3.726"/>
            <circle fill="#FFF" cx="330.448" cy="76.49" r="5.602"/>
            <path d="M332.319 122.145c-3.067 2.828-11.028 7.516-17.558 8.913-1.62.347-3.319.481-4.757.289-8.457-1.186-10.008-6.042-10.008-12.206l.026-31.681c.039-11.718 8.9-16.447 8.9-16.447 4.904-2.766 14.281-4.916 20.376-2.571 8.012 3.083 8.01 12.57 8.012 12.55.002-.02.707 5.395-1.51 11.886-.018.01 4.952 21.5-3.481 29.267z" fill="#FFF"/>
            <path d="M301.626 79.462c1.417-1.188 3.036-1.51 4.705-1.3 3.625.451 2.804 4.69 2.804 4.69s-3.71 33.482 4.445 40.05c5.753 4.635 13.368 2.223 17.354.4-3.673 2.809-10.47 6.542-16.18 7.763-1.621.347-3.32.482-4.758.29-8.456-1.187-10.007-6.043-10.007-12.207l.026-31.681a20.107 20.107 0 0 1 1.611-8.005z" fill="#D8D8D8"/>
            <path fill="#2B90FF" d="M332.771 81.322v1.015l-6.241 1.488v-1.017z"/>
            <path d="M305.217 126.169s.217 2.705.388 3.475c.108.481.175.825.26 1.181.117.481.144.734-.022.849-.166.115-.445.147-.71-.851.144.673.447 1.303.883 1.837.52.58 1.287 1.176 1.075 1.475-.212.298-.777-.015-.777-.015s-.077.481-.772.091c0 0-.091.395-.796-.117 0 0-.286.322-.93-.347-.645-.668-2.947-3.244-2.909-7.983l4.31.405z" fill="#FFCFAE"/>
            <path d="M306.3 107.329l-.741 21.923-4.293-.132s-3.279-8.625-4.09-22.395" fill="#FFF"/>
            <circle fill="#FFF" transform="rotate(-88.854 302.411 107.442)" cx="302.411" cy="107.442" r="4.578"/>
            <path d="M313.25 84.287l-7.133 23.862-8.935-1.491s-.142-2.213-.145-4.592c0-10.008 1.422-17.534 4.125-22.866" fill="#FFF"/>
            <circle fill="#FFF" transform="rotate(-89.78 307.061 82.123)" cx="307.061" cy="82.123" r="6.566"/>
            <path fill="#2B90FF" d="M322.708 72.615l-1.585 1 1.036 2.47-2.874 25.084 3.497 4.226 3.565-8.305-3.086-21.664.676-2.556z"/>
            <path d="M325.878 68.91l-.15 5.292-3.018-1.597-2.941 3.156-4.24-5.051s-.912-1.169-.482-2.133c.128-.296.496-.638.994-.996 0 0 1.392 2.672 6.554 4.19 0 0 2.23-1.626 2.499-3.127 0 0 .226-.205.51-.512.166.226.262.498.274.779z" fill="#DBDBDB"/>
            <path d="M321.861 52.84c2.06-.082 4.474.425 5.667 2.405.767 1.277.71 3.607.777 5.327.125 3.127-1.119 6.386-3.052 8.08v.834c-.022.666-.481 1.33-1.352 1.84-1.797 1.036-4.697 1.036-6.482 0-.861-.5-1.301-1.15-1.328-1.807v-5.755c0-.096-.762-3.07-.767-3.168-.192-4.406 3.156-7.622 6.537-7.757z" fill="#FFCFAE"/>
            <path d="M322.535 69.834a4.385 4.385 0 0 0 2.71-1.176v.828c-.021.666-.48 1.33-1.351 1.84-1.797 1.036-4.698 1.036-6.482 0-.861-.5-1.302-1.15-1.328-1.807V61.356c.281 4.317 3.15 8.61 6.45 8.478z" fill="#EAB896"/>
            <path d="M316.074 61.5l.575 2.913-.575 1.823c-.51-.546-.743-1.808-1.233-2.864-1.533-3.3-1.17-5.835-.931-8.418.098-1.076.425-5.446 3.658-5.708 0 0 1.705-1.746 6.472.091 2.761 1.066 4.36-.084 4.36-.084s.241 1.1-.204 1.89c0 0 2.588 2.247.08 8.457-.046-1.551 0-2.763-.628-3.814-.445-.743-1.544-.924-2.335-1.03-.498-.038-1.383.299-1.383.299s-1.232-.37-1.732-.33c-3.51.277-3.463 1.715-3.463 1.715l-.152 1.623v5.561s.161 2.858 2.865 3.274c1.118.17 2.222-.982 2.222-.982h.82s.683 1.063 1.33.739a3.928 3.928 0 0 0 2.105-2.646c-.147.758-1.203 5.431-4.592 5.837-4.156.496-5.741-2.058-5.741-4.95v-5.108s.166-1-.933-1c-1.1 0-.844 1.505-.585 2.712z" fill="#10355D"/>
            <path d="M322.708 63.497h2.759s.781.721.781 1.412h-4.329c.007-.7.789-1.412.789-1.412z" fill="#10355D"/>
            <path d="M352.722 184.826c-7.288 4.238-8.572 10.424-2.855 13.748 5.717 3.324 16.355 2.578 23.645-1.66 7.29-4.237 8.573-10.424 2.855-13.747-5.717-3.324-16.357-2.576-23.645 1.66z" opacity=".15" fill="#000"/>
            <path d="M370 184.626c-1.603-1.568-3.773-1.9-4.569-1.118-.796.782-.132 2.703 1.443 4.29.65.65 1.503 1.487 2.165 1.79a1.816 1.816 0 0 0 2.124-.33c.452-.48.392-2.289.392-2.765-.195-.575-.787-1.119-1.554-1.867z" fill="#444549"/>
            <ellipse fill="#FFCFAE" transform="rotate(-48.69 368.97 185.77)" cx="368.969" cy="185.769" rx="1.412" ry="2.715"/>
            <path d="M356.775 192.068c-1.604-1.568-3.774-1.9-4.57-1.118-.796.781-.132 2.703 1.443 4.29.65.65 1.503 1.487 2.165 1.79a1.816 1.816 0 0 0 2.124-.33c.452-.48.392-2.29.392-2.765-.198-.573-.79-1.119-1.554-1.867z" fill="#444549"/>
            <ellipse fill="#FFCFAE" transform="rotate(-48.69 355.746 193.17)" cx="355.746" cy="193.17" rx="1.412" ry="2.715"/>
            <path d="M369.376 187.498c-1.85-.81-1.925-1.782-1.973-2.19 0 0-2.301-15.175-3.451-25.226a145.994 145.994 0 0 1-.806-15.894l-3.526 21.887-1.633 28.225c0 .029-.18 1.183-1.621.68-1.337-.466-1.955-1.031-2.232-2.116-.185-.921-4.168-20.256-5.15-28.51-1.005-8.453-3.463-42.166-2.195-44.814l32.611 1.111-6.388 40.458-1.81 25.62s-.112.721-.593.858c-.41.099-.841.067-1.233-.089z" fill="#FFCFAE"/>
            <path d="M358.15 161.558a10.782 10.782 0 0 1-4.12.24c-4.225-.59-8.658-5.177-8.658-5.177v-5.374c0-5.717.022-27.419.022-27.419a51.42 51.42 0 0 1 .567-4.238c.816-4.002 2.34-6.385 5.672-9.04.46-.359.947-.68 1.457-.963 4.245-2.405 12.365-4.257 17.642-2.225 6.937 2.67 6.934 10.881 6.937 10.865V149.4a70.69 70.69 0 0 1-8.507 6.494c-4.455 2.843-9.96 5.385-11.011 5.664z" fill="#9B9B9B"/>
            <path d="M381.01 83.825c2.662 5.645 3.862 14.708 4.302 22.573l-7.723.82-7.384-19.032" fill="#FFF"/>
            <path d="M379.297 123.015s-.277 2.817-.47 3.608c-.122.508-.196.856-.292 1.227-.133.51-.164.762 0 .887.163.125.461.161.755-.875-.165.7-.495 1.35-.962 1.897-.554.597-1.364 1.203-1.148 1.518.217.315.81 0 .81 0s.07.51.804.108c0 0 .087.412.832-.108 0 0 .294.342.98-.341.685-.683 3.126-3.327 3.179-8.267l-4.488.346z" fill="#FFCFAE"/>
            <path d="M385.31 106.242c.77 13.757-1.371 17.983-1.371 17.983l-4.666.125-1.684-17.134" fill="#FFF"/>
            <circle fill="#FFF" cx="381.416" cy="106.47" r="3.884"/>
            <circle fill="#FFF" cx="375.769" cy="86.406" r="5.84"/>
            <path d="M344.181 91.57c-1.142 8.012-.71 38.13-.71 38.13 0 6.426 1.62 11.489 10.434 12.725 1.501.21 3.27.06 4.96-.3 6.816-1.458 15.085-6.377 18.313-9.294 5.404-4.885 5.183-9.5 5.183-13.522v-29.38c0 .02 0-9.86-8.353-13.083-6.355-2.447-16.132-.205-21.243 2.679-.002.002-7.396 3.697-8.584 12.045z" fill="#FFF"/>
            <path d="M344.816 88.881c.902-.94 2.033-1.59 3.44-1.59 5.099 0 4.75 5.773 4.75 5.773v32.412c0 12.468 2.826 15.927 4.668 16.86a13.469 13.469 0 0 1-3.77.087c-8.816-1.237-10.435-6.3-10.435-12.726 0 0-.433-30.118.71-38.13.13-.912.344-1.812.637-2.686z" fill="#000" opacity=".1"/>
            <path d="M358.12 91.928l-4.95 25.625-9.328-1.727s.058-1.953.113-4.432c.24-10.542-.685-18.162 1.215-23.653.904-2.614 14.378-1.496 12.947 4.187" fill="#FFF"/>
            <path d="M346.902 136.941s-1.848 4.994-1.814 6.013c.027.857.224 1.369-.284 1.624-.68.341-.962-.171-.962-.171s-.78.51-1.169-.356c0 0-.67.445-.986-.632 0 0-.721.594-.911-1.444-.227-2.405 1.652-6.13 1.669-6.176l4.457 1.142z" fill="#FFCFAE"/>
            <path d="M344.68 144.64c.456-.195.8-.585.937-1.063.272-.837-.17-1.604-.962-1.587.007 0-1.52 2.905.024 2.65z" fill="#FFCFAE"/>
            <path d="M343.857 115.716l-2.127 22.411 4.517 2.131s4.57-11.146 7.045-23.157" fill="#FFF"/>
            <circle fill="#FFF" transform="rotate(-60.84 348.614 116.21)" cx="348.614" cy="116.21" r="4.772"/>
            <circle fill="#FFF" transform="rotate(-89.78 351.381 90.729)" cx="351.381" cy="90.729" r="6.886"/>
            <path d="M355.21 69.904c.047 4.827 3.09 8.712 6.791 8.673 3.702-.038 6.665-3.983 6.617-8.81-.02-1.89.12-4.428-.678-5.85-1.239-2.21-3.863-2.845-6.117-2.82-3.692.035-6.662 3.98-6.614 8.807z" fill="#FFCFAE"/>
            <path d="M355.21 69.904c.047 4.827 3.09 8.712 6.791 8.673 3.702-.038 6.665-3.983 6.617-8.81-.02-1.89.12-4.428-.678-5.85-1.239-2.21-3.863-2.845-6.117-2.82-3.692.035-6.662 3.98-6.614 8.807z" fill="#000" opacity=".08"/>
            <path d="M357.958 73.603l9.14.015v3.841c-.022.664-.47 1.327-1.347 1.835-1.79 1.034-4.683 1.034-6.463 0-.858-.5-1.296-1.147-1.323-1.801v-.032l-.007-3.858z" fill="#FFCFAE"/>
            <path d="M373.707 68.13c-1.683-2.35-1.253-7.522-3.386-10.163-2.134-2.64-6.182-2.015-6.182-2.015-2.35-1.547-6.106 1.22-9.233 4.957-3.848 4.61 1.83 6.61 1.83 6.61s2.129 4.521.027 7.116c0 0-3.074 3.35-1.703 7.093.746 2.03 2.448 3.213 3.182 5.24.618 1.711.14 4.975-2.886 5.615 0 0 3.066 3.275 11.49 2.436 4.485-.447 9.957-3.047 8.264-8.954-2.269-7.95 4.562-9.667-1.403-17.936z" fill="#424242"/>
        </g>
    </g>
</svg>
