<svg width="562" height="498" viewBox="0 0 562 498" xmlns="http://www.w3.org/2000/svg">
    <g transform="translate(0 -.16)" fill-rule="nonzero" fill="none">
        <path d="M518.202 321.023l-226.43-130.732c-6.406-3.7-16.761-3.7-23.126 0L43.686 321.023c-6.365 3.7-6.33 9.696.075 13.396l226.433 130.733c6.406 3.7 16.76 3.7 23.126 0l224.96-130.733c6.365-3.7 6.33-9.696-.075-13.396" fill="#2B90FF"/>
        <path d="M518.205 316.582L291.772 185.849c-6.406-3.7-16.761-3.7-23.126 0L43.682 316.585c-6.365 3.7-6.33 9.696.075 13.396L270.19 460.714c6.406 3.7 16.761 3.7 23.126 0L518.28 329.978c6.365-3.7 6.33-9.696-.075-13.396" fill="#F5F5F5"/>
        <path d="M139.41 347.938c7.54 4.383 8.883 10.785 2.955 14.222-5.927 3.437-16.925 2.669-24.465-1.708-7.54-4.376-8.882-10.786-2.955-14.222 5.928-3.437 16.922-2.672 24.465 1.708z" fill="#D8D8D8"/>
        <path d="M110.125 243.55c-2.754 5.841-3.998 15.216-4.442 23.354l7.991.847 7.64-19.692" fill="#FFF"/>
        <path d="M111.905 284.099s.287 2.914.485 3.74c.126.527.205.886.304 1.268.136.53.17.79 0 .92-.171.129-.478.167-.783-.906a4.68 4.68 0 0 0 .988 1.964c.574.615 1.41 1.244 1.189 1.568-.222.325-.837 0-.837 0s-.072.53-.834.113c0 0-.089.427-.86-.113 0 0-.305.342-1.026-.341-.72-.684-3.239-3.44-3.29-8.541l4.664.328z" fill="#FFCFAE"/>
        <path d="M105.683 266.747c-.796 14.236 1.418 18.606 1.418 18.606l4.828.13 1.732-17.728" fill="#FFF"/>
        <circle fill="#FFF" cx="109.718" cy="266.979" r="4.021"/>
        <circle fill="#FFF" cx="115.56" cy="246.221" r="6.044"/>
        <path d="M135.659 355.772c1.64-1.64 3.628-2.317 4.441-1.507.813.81.137 2.798-1.503 4.441-.683.684-1.558 1.538-2.241 1.852a1.824 1.824 0 0 1-2.2-.342c-.489-.488-.451-2.483-.451-2.975.273-.513 1.301-.817 1.954-1.47z" fill="#444549"/>
        <path d="M135.662 355.74c1.07-1.024 2.347-1.417 2.853-.887.506.53.048 1.786-1.025 2.804" fill="#FFCFAE"/>
        <path d="M122.034 347.955c1.64-1.64 3.629-2.316 4.442-1.507.813.81.136 2.798-1.504 4.442-.683.683-1.557 1.537-2.24 1.851a1.824 1.824 0 0 1-2.198-.341c-.488-.489-.45-2.484-.45-2.976.273-.51 1.315-.803 1.95-1.47z" fill="#444549"/>
        <path d="M122.082 347.777c1.07-1.025 2.347-1.418 2.853-.888.505.53.048 1.787-1.025 2.805a4.441 4.441 0 0 1-2.033 1.226" fill="#FFCFAE"/>
        <path d="M145.55 280.515l-33.744 1.144 6.607 41.845 1.82 25.722c.028.878.616 2.142 1.938 1.585 1.927-.81 1.893-1.582 2.05-2.269 0 0 2.391-15.715 3.57-26.1a151.07 151.07 0 0 0 .834-16.444l3.648 22.637 1.52 28.086v.09c0 .87.482 2.05 2.016 1.68 1.883-.468 2.095-1.302 2.146-2.125.191-.953 4.315-20.96 5.33-29.5 1.031-8.73 3.576-43.611 2.264-46.351z" fill="#FFCFAE"/>
        <path d="M133.794 323.978c1.39.36 2.836.449 4.26.26 4.373-.611 8.965-5.36 8.965-5.36v-5.576c0-5.914-.024-28.38-.024-28.38a55.898 55.898 0 0 0-.588-4.383c-.844-4.14-2.422-6.608-5.87-9.354a11.52 11.52 0 0 0-1.506-.995c-4.394-2.476-12.795-4.403-18.254-2.302-7.174 2.76-7.174 11.274-7.174 11.24v32.254a73.111 73.111 0 0 0 8.8 6.717c4.602 2.962 10.3 5.582 11.39 5.88z" fill="#9B9B9B"/>
        <path d="M148.248 251.564c1.183 8.288.735 39.453.735 39.453 0 6.652-1.674 11.889-10.796 13.167-1.713.185-3.446.08-5.125-.311-7.051-1.507-15.61-6.597-18.947-9.614-5.593-5.056-5.364-9.832-5.364-14.007v-30.406c0 .02 0-10.212 8.644-13.536 6.573-2.532 16.692-.212 21.981 2.774-.01.017 7.646 3.843 8.872 12.48z" fill="#FFF"/>
        <path d="M147.59 248.78a4.855 4.855 0 0 0-3.56-1.647c-5.276 0-4.917 5.975-4.917 5.975v33.54c0 12.9-2.925 16.48-4.83 17.444 1.289.212 2.602.242 3.9.088 9.122-1.277 10.797-6.515 10.797-13.166 0 0 .447-31.162-.735-39.453a15.787 15.787 0 0 0-.656-2.781z" fill="#D8D8D8"/>
        <path d="M133.824 251.937l5.125 26.514 9.651-1.786s-.058-2.02-.116-4.585c-.25-10.909.71-18.79-1.257-24.472-.936-2.706-14.875-1.548-13.396 4.332" fill="#FFF"/>
        <path d="M145.43 298.51s1.91 5.165 1.875 6.227c-.027.889-.232 1.418.294 1.681.704.342.984-.178.984-.178a.793.793 0 0 0 1.21-.369s.683.458 1.025-.652c0 0 .744.615.942-1.49.236-2.49-1.708-6.344-1.725-6.388l-4.605 1.168z" fill="#FFCFAE"/>
        <path d="M147.73 306.473a1.708 1.708 0 0 1-.971-1.1c-.28-.868.178-1.66.994-1.644 0 .004 1.575 3.01-.024 2.744z" fill="#FFCFAE"/>
        <path d="M148.583 276.535l2.2 23.187-4.673 2.204s-4.735-11.52-7.287-23.946" fill="#FFF"/>
        <circle fill="#FFF" transform="rotate(-29.16 143.675 276.99)" cx="143.675" cy="276.991" r="4.937"/>
        <circle fill="#FFF" transform="rotate(-.22 140.823 250.663)" cx="140.823" cy="250.663" r="7.127"/>
        <path d="M135.478 228.869c.051-4.995-3.013-9.074-6.833-9.115-2.333-.024-5.05.632-6.33 2.918-.824 1.472-.684 4.1-.7 6.053a10.775 10.775 0 0 0 1.564 5.829v2.115c.02.683.485 1.366 1.394 1.896 1.851 1.07 4.844 1.07 6.686 0 .888-.516 1.342-1.186 1.366-1.866v-.649c1.708-1.612 2.826-4.226 2.853-7.181z" fill="#FFCFAE"/>
        <path d="M128.635 219.754c3.83.041 6.894 4.12 6.833 9.115-.031 3.034-1.206 5.709-2.983 7.332.014.003 1.411-12.795-3.85-16.447z" fill="#000" opacity=".08"/>
        <path d="M133.237 235.733c2.634 0 3.016-2.088 3.016-2.088-1.479.55-2.808-1.192-2.79-2.569.03-2.733 1.43-3.567 1.43-3.567s1.026.605 2.392-.341c2.002-1.367 2.453-4.954-.297-8.24-3.758-4.504-7.796-7.64-10.84-4.903 0 0-2.235-1.415-4.807 1.766-2.573 3.18-3.895 6.392-4.804 9.76-.977 3.625-.977 9.092 4.264 8.75 1.48 3.416 5.808 1.9 5.808 1.9s.813 1.15 3.075 1.175c2.753.044 3.553-1.643 3.553-1.643z" fill="#424242"/>
        <path d="M185.532 320.285c7.54 4.384 8.882 10.786 2.955 14.223-5.928 3.437-16.925 2.668-24.465-1.708-7.54-4.377-8.883-10.786-2.955-14.223 5.927-3.437 16.921-2.675 24.465 1.708z" fill="#D8D8D8"/>
        <path d="M156.352 211.893c-2.753 5.842-3.997 15.216-4.441 23.354l7.99.848 7.62-19.69" fill="#FFF"/>
        <path d="M158.115 252.439s.287 2.914.485 3.74c.127.527.205.886.3 1.268.137.53.172.79 0 .92-.17.13-.477.167-.782-.906a4.68 4.68 0 0 0 .988 1.964c.574.615 1.41 1.244 1.189 1.568-.222.325-.837 0-.837 0s-.072.53-.834.113c0 0-.089.427-.86-.113 0 0-.305.342-1.026-.341-.72-.683-3.239-3.44-3.29-8.541l4.667.328z" fill="#FFCFAE"/>
        <path d="M151.91 235.087c-.795 14.236 1.419 18.606 1.419 18.606l4.827.13 1.732-17.728" fill="#FFF"/>
        <circle fill="#FFF" cx="155.929" cy="235.323" r="4.021"/>
        <circle fill="#FFF" cx="161.771" cy="214.561" r="6.044"/>
        <path d="M182.85 331.28c-1.633 1.636-3.615 2.305-4.441 1.496-.827-.81-.144-2.791 1.492-4.442 1.637-1.65 3.615-2.306 4.442-1.496.488.489.454 1.77.454 2.262-.273.516-1.298 1.53-1.947 2.18z" fill="#081B2F"/>
        <ellipse fill="#FFCFAE" transform="rotate(-43.68 181.92 328.614)" cx="181.919" cy="328.614" rx="2.675" ry="1.326"/>
        <path d="M168.204 322.899c-1.568 1.571-3.471 2.214-4.25 1.435-.78-.78-.137-2.682 1.431-4.254 1.568-1.571 3.471-2.213 4.25-1.438.472.468.437 1.708.437 2.17-.252.478-1.236 1.465-1.868 2.087z" fill="#081B2F"/>
        <ellipse fill="#FFCFAE" transform="rotate(-43.68 167.314 320.368)" cx="167.314" cy="320.368" rx="2.569" ry="1.274"/>
        <path d="M184.797 300.644s4.151-23.248 6.198-38.158l-31.917-6.047c-.15 7.25-.403 21.066.41 31.062 1.23 15.063 6.416 32.456 6.416 32.456.113.547.721.964 1.934.964 1.367 0 2.29-.455 2.29-1.093l-.544-24.175 2.637-20.56s1.278 15.326 2.228 23.508c.95 8.183 5.787 29.238 5.787 29.238 0 .858.626 1.554 2.088 1.554 1.462 0 2.456-.632 2.463-1.482l.01-27.267z" fill="#2B90FF"/>
        <path d="M193.899 221.124c1.182 8.288.734 39.453.734 39.453 0 6.651-1.674 11.889-10.796 13.167-1.713.185-3.446.08-5.124-.311-7.052-1.507-15.61-6.597-18.948-9.614-5.593-5.056-5.364-9.833-5.364-14.007v-30.407c0 .021 0-10.211 8.644-13.535 6.573-2.532 16.693-.212 21.981 2.774-.01.02 7.64 3.843 8.873 12.48z" fill="#FFF"/>
        <path d="M193.236 218.343a4.851 4.851 0 0 0-3.56-1.647c-5.275 0-4.916 5.979-4.916 5.979v33.539c0 12.9-2.925 16.48-4.831 17.444 1.29.212 2.603.242 3.901.089 9.122-1.278 10.796-6.515 10.796-13.167 0 0 .448-31.161-.734-39.453a15.774 15.774 0 0 0-.656-2.784z" fill="#D8D8D8"/>
        <path d="M166.724 230.584h-.058a.342.342 0 0 1-.28-.277l-2.333-13.218c-.069-.283-1.708-7.427 2.733-11a9.976 9.976 0 0 1 6.17-2.324c2.613 0 4.749 1.257 5.866 3.447 1.257 2.464-.342 4.65-2.573 7.674a52.613 52.613 0 0 0-3.905 5.896l-5.322 9.631a.342.342 0 0 1-.298.171zm6.232-26.136a9.293 9.293 0 0 0-5.743 2.156c-4.1 3.304-2.508 10.25-2.49 10.328l2.169 12.3 4.855-8.77a53.21 53.21 0 0 1 3.949-5.973c2.156-2.931 3.58-4.868 2.514-6.959-.994-1.95-2.91-3.082-5.254-3.082z" fill="#2B90FF"/>
        <path fill="#9ECCFF" d="M167.623 233.587l-.007 2.644-1.701-.984.007-2.644z"/>
        <path d="M166.97 232.463l1.657.957-.02 6.805-3.704-2.139.02-6.805 1.658.957.39.225zm-1.048.15v2.648l1.708.984v-2.648l-1.708-.984zm2.415 5.173v-.27l-3.126-1.807v.27l3.13 1.807h-.004zm.003.745v-.267l-3.13-1.807v.27l3.13 1.807v-.003zm0 .748v-.27l-3.13-1.807v.27l3.13 1.807z" fill="#2B90FF"/>
        <path fill="#9ECCFF" d="M168.337 237.502v.274l-3.13-1.808v-.27z"/>
        <path fill="#2B90FF" d="M167.08 231.435l-.003 1.018-.496-.226.004-1.018z"/>
        <path fill="#D3D3D3" d="M167.62 229.737l-.294 1.903-.352-.205-.39-.226-.358-.208-.277-2.228z"/>
        <path fill="#9ECCFF" d="M168.334 238.995l-.004.267-3.126-1.804v-.27zM168.334 238.25v.267l-3.13-1.804.004-.27z"/>
        <path d="M170.937 189.04c-2.22-.088-4.824.462-6.112 2.6-.827 1.367-.765 3.885-.84 5.747-.134 3.361 1.205 6.887 3.293 8.715v.881c.024.721.505 1.435 1.459 1.985 1.937 1.118 5.066 1.118 6.99 0 .929-.54 1.404-1.24 1.431-1.947v-8.787c0-.106 0-.208.017-.314.222-4.746-2.583-8.733-6.238-8.88z" fill="#FFCFAE"/>
        <path d="M170.254 207.373a4.732 4.732 0 0 1-2.925-1.271v.881c.024.721.506 1.435 1.459 1.985 1.937 1.118 5.066 1.118 6.99 0 .93-.54 1.404-1.24 1.431-1.947v-8.787c-.307 4.653-3.406 9.29-6.955 9.139z" fill="#EAB896"/>
        <path d="M179.413 190.028c-.974-1.685-1.599-3.56-2.6-4.288a2.976 2.976 0 0 0-3.17-.29s-1.24-1.613-3.895-.284c-3.416 1.708-6.491 2.586-8.22 5.162-1.667 2.484-.85 6.611 2.49 7.253v-.198c.035-.823.042-1.776.11-2.699 6.46.134 9.357-2.005 9.357-2.005l1.33 5.34a1.21 1.21 0 0 1 2.39.232v4.83c5.577-4.881 4.094-9.784 2.208-13.053z" fill="#10355D"/>
        <path d="M174.012 199.05c.024 1.063-.742 1.811-1.709 1.668l-.94-.14-.17-.035a2.31 2.31 0 0 1-1.633-2.148v-.171a.574.574 0 0 0-.393-.54h-.04l-.828-.12a.372.372 0 0 0-.406.424v.17c.024 1.063-.742 1.812-1.708 1.668l-.94-.14-.178-.034a2.31 2.31 0 0 1-1.63-2.15c-.023-1.065.746-1.81 1.709-1.67l.94.14.146.031c.228.06.443.16.636.294.33.212.688.38 1.062.499l.14.027 1.237.181c.323.053.654.03.967-.068.048-.031.202-.1.226-.116a.143.143 0 0 1 .075-.024c.22-.07.454-.09.683-.058l.94.14.167.034a2.316 2.316 0 0 1 1.647 2.138zm-7.944.161c.762.113 1.21-.324 1.19-1.158a1.445 1.445 0 0 0-1.08-1.486l-.174-.034-.738-.11c-.766-.112-1.213.233-1.193 1.07-.038.72.42 1.373 1.11 1.581l.147.028.742.11h-.004zm6.12.902c.765.113 1.209-.325 1.188-1.158a1.445 1.445 0 0 0-1.08-1.486l-.174-.034-.738-.113c-.765-.113-1.209.324-1.192 1.161a1.452 1.452 0 0 0 1.086 1.49l.168.034.738.11.003-.004z" fill="#2B90FF"/>
        <path d="M189 268.147s-.233 2.921-.417 3.759c-.117.526-.188.888-.28 1.274-.127.53-.154.792.023.915.178.123.482.158.766-.919a4.677 4.677 0 0 1-.954 1.982c-.56.625-1.387 1.267-1.158 1.589.23.32.837 0 .837 0s.082.526.834.099c0 0 .099.423.857-.127 0 0 .311.342 1.005-.372.693-.714 3.177-3.499 3.136-8.613l-4.65.413z" fill="#FFCFAE"/>
        <path d="M187.82 247.837l.8 23.645 4.63-.144s3.535-9.303 4.403-24.154" fill="#FFF"/>
        <circle fill="#FFF" transform="rotate(-1.03 192.72 247.187)" cx="192.72" cy="247.187" r="4.937"/>
        <path d="M180.322 222.972l7.697 25.74 9.638-1.61s.153-2.391.157-4.953c0-10.796-1.534-18.914-4.442-24.667" fill="#FFF"/>
        <circle fill="#FFF" transform="rotate(-.22 187.013 220.62)" cx="187.013" cy="220.62" r="7.082"/>
        <path d="M395.89 303.91c-7.54 4.384-8.882 10.786-2.955 14.223 5.928 3.437 16.925 2.668 24.465-1.708 7.54-4.377 8.883-10.786 2.956-14.223-5.928-3.437-16.922-2.675-24.465 1.708z" fill="#D8D8D8"/>
        <path d="M425.162 199.59c2.754 5.842 3.998 15.217 4.442 23.355l-7.991.847-7.63-19.685" fill="#FFF"/>
        <path d="M423.41 240.14s-.287 2.914-.485 3.74c-.127.527-.205.886-.304 1.268-.137.53-.171.79 0 .916.17.126.478.167.782-.906a4.68 4.68 0 0 1-.987 1.965c-.574.618-1.411 1.243-1.19 1.568.223.325.838 0 .838 0s.071.53.833.113c0 0 .09.427.861-.113 0 0 .304.342 1.025-.342.721-.683 3.239-3.44 3.29-8.54l-4.663.33z" fill="#FFCFAE"/>
        <path d="M429.6 222.784c.796 14.237-1.417 18.606-1.417 18.606l-4.828.13-1.732-17.728" fill="#FFF"/>
        <circle fill="#FFF" cx="425.579" cy="223.02" r="4.021"/>
        <circle fill="#FFF" cx="419.737" cy="202.259" r="6.044"/>
        <path d="M399.67 311.96c-1.64-1.64-3.63-2.317-4.442-1.507-.813.81-.137 2.798 1.503 4.441 1.64 1.644 3.628 2.317 4.441 1.51.489-.488.451-2.483.451-2.975-.273-.513-1.301-.817-1.954-1.47z" fill="#444549"/>
        <path d="M399.638 311.782c-1.069-1.025-2.347-1.418-2.852-.888-.506.53-.048 1.786 1.025 2.804" fill="#FFCFAE"/>
        <path d="M413.266 303.996c-1.64-1.64-3.628-2.316-4.44-1.507-.814.81-.138 2.798 1.502 4.442 1.64 1.643 3.629 2.316 4.442 1.51.488-.489.45-2.484.45-2.976-.273-.513-1.301-.817-1.954-1.47z" fill="#444549"/>
        <path d="M413.236 303.818c-1.07-1.025-2.347-1.418-2.853-.888-.506.53-.048 1.787 1.025 2.805" fill="#FFCFAE"/>
        <path d="M389.751 236.563l33.744 1.151-6.607 41.844-1.52 25.722c-.028.878-.807 1.59-2.238 1.59-1.432 0-1.954-.78-1.985-1.651 0 0-2.43-16.32-3.615-26.72a151.067 151.067 0 0 1-.86-16.45l-3.65 22.637-1.106 28.186v.089c0 .87-.848 1.588-2.426 1.585-1.507 0-2.094-.731-2.145-1.555-.192-.953-4.312-21.523-5.33-30.064-1.028-8.75-3.574-43.631-2.262-46.364z" fill="#9B9B9B"/>
        <path d="M387.052 207.605c-1.182 8.288-.734 39.453-.734 39.453 0 6.652 1.674 11.89 10.796 13.167 1.713.185 3.446.08 5.124-.311 7.052-1.507 15.61-6.597 18.948-9.614 5.592-5.056 5.363-9.832 5.363-14.007v-30.406c0 .02 0-10.212-8.643-13.536-6.573-2.528-16.693-.212-21.981 2.774.01.017-7.64 3.857-8.873 12.48z" fill="#FFF"/>
        <path d="M387.712 204.82a4.855 4.855 0 0 1 3.56-1.646c5.275 0 4.916 5.979 4.916 5.979v33.539c0 12.9 2.924 16.48 4.83 17.444-1.29.212-2.603.242-3.9.089-9.123-1.278-10.797-6.515-10.797-13.167 0 0-.447-31.161.735-39.453.134-.946.353-1.878.656-2.784z" fill="#D8D8D8"/>
        <path d="M409.652 190.95a10.775 10.775 0 0 0 1.565-5.828c-.02-1.954.123-4.582-.7-6.054-1.282-2.286-3.998-2.945-6.331-2.921-3.83.04-6.895 4.12-6.833 9.115.03 2.955 1.144 5.569 2.842 7.202v.649c.028.683.482.73 1.367 1.247 1.841 1.07 4.834 1.07 6.686 0 .908-.526 1.366-1.21 1.394-1.896v-1.517" fill="#FFCFAE"/>
        <path d="M404.37 192.747c-3.826-.413-4.783-2.456-5.422-5.466-5.743-5.155-3.556-12.928-3.317-13.498.605.755 1.182.758 1.182.758a1.117 1.117 0 0 1-.085-.765c.977 1.507 7.082-.83 9.5-1.367 2.42-.536 2.775 1.056 2.775 1.056s1.76-.864 3.105 2.067c.998 2.17.868 7.745-.085 10.481-1.035 2.98-2.19 7.322-7.653 6.734z" fill="#424242"/>
        <path d="M398.952 187.278c.273 1.322.615 2.456 1.236 3.351v1.838c-1.65-1.585-2.733-4.1-2.835-6.949.471.64 1.007 1.23 1.599 1.76z" fill="#000" opacity=".08"/>
        <path d="M404.961 193.994c-2.05.178-3.942-.273-4.974-.85 0 0-1.961.843-2.446 1.069 0 0 6.368 2.627 10.72.546 3.823-1.827 1.94-3.447 1.94-3.447l-.546-.215v.95s-.639 1.592-4.694 1.947z" fill="#DBDBDB"/>
        <path d="M401.476 207.974l-5.124 26.515-9.652-1.787s.058-2.019.117-4.585c.249-10.908-.711-18.79 1.257-24.471.936-2.706 14.875-1.548 13.396 4.332" fill="#FFF"/>
        <path d="M389.87 254.547s-1.909 5.165-1.875 6.228c.028.888.233 1.418-.294 1.68-.703.342-.984-.177-.984-.177a.793.793 0 0 1-1.209-.369s-.683.458-1.025-.652c0 0-.745.615-.943-1.49-.236-2.49 1.708-6.344 1.726-6.389l4.605 1.169z" fill="#FFCFAE"/>
        <path d="M387.572 262.527c.472-.202.828-.606.97-1.1.28-.867-.178-1.66-.994-1.643-.01-.01-1.575 2.993.024 2.743z" fill="#FFCFAE"/>
        <path d="M386.717 232.586l-2.2 23.187 4.674 2.204s4.735-11.534 7.29-23.96" fill="#FFF"/>
        <circle fill="#FFF" transform="rotate(-60.85 391.615 233.032)" cx="391.615" cy="233.032" r="4.937"/>
        <circle fill="#FFF" transform="rotate(-89.78 394.512 206.726)" cx="394.512" cy="206.726" r="7.127"/>
        <path d="M349.769 290.884c-7.54 4.383-8.883 10.785-2.955 14.222 5.927 3.437 16.925 2.668 24.465-1.708 7.54-4.376 8.882-10.786 2.955-14.223-5.928-3.436-16.922-2.668-24.465 1.709z" fill="#D8D8D8"/>
        <path d="M378.949 182.498c2.753 5.842 3.997 15.217 4.44 23.355l-7.99.847-7.629-19.675" fill="#FFF"/>
        <path d="M377.186 223.044s-.287 2.914-.485 3.74c-.127.527-.205.886-.304 1.268-.137.53-.171.79 0 .92.17.13.478.167.782-.906a4.68 4.68 0 0 1-.987 1.965c-.574.614-1.411 1.243-1.19 1.568.223.324.838 0 .838 0s.071.53.833.112c0 0 .09.427.861-.112 0 0 .304.341 1.025-.342.721-.683 3.239-3.44 3.29-8.541l-4.663.328z" fill="#FFDFCA"/>
        <path d="M383.39 205.692c.796 14.236-1.418 18.606-1.418 18.606l-4.827.13-1.732-17.728" fill="#FFF"/>
        <circle fill="#FFF" cx="379.369" cy="205.928" r="4.021"/>
        <circle fill="#FFF" cx="373.527" cy="185.166" r="6.044"/>
        <path d="M350.917 301.885c1.633 1.636 3.614 2.306 4.441 1.496s.144-2.791-1.493-4.441c-1.636-1.65-3.614-2.306-4.441-1.497-.489.489-.454 1.77-.454 2.262.273.52 1.294 1.53 1.947 2.18z" fill="#081B2F"/>
        <ellipse fill="#FFCFAE" transform="rotate(-46.33 351.832 299.18)" cx="351.832" cy="299.18" rx="1.326" ry="2.675"/>
        <path d="M365.553 293.504c1.568 1.572 3.47 2.214 4.25 1.435.779-.779.136-2.682-1.432-4.253-1.568-1.572-3.47-2.214-4.25-1.439-.471.468-.437 1.708-.437 2.17.26.492 1.244 1.465 1.869 2.087z" fill="#081B2F"/>
        <path d="M365.563 291.871c1.025.98 2.255 1.367 2.733.854.478-.512.045-1.708-.98-2.695-1.025-.988-2.255-1.367-2.733-.851-.479.516-.045 1.705.98 2.692z" fill="#FFCFAE"/>
        <path d="M349.458 271.25s-4.15-23.25-6.197-38.158l31.916-6.047c.15 7.25.403 21.065-.41 31.062-1.23 15.063-6.71 32.51-6.71 32.51-.113.547-.427.906-1.64.902a1.934 1.934 0 0 1-2.022-1.708l.276-23.573-2.637-20.56s-1.278 15.326-2.228 23.508c-.95 8.182-6.453 29.723-6.453 29.723 0 .857.04 1.062-1.421 1.062-1.463 0-2.21-1.004-2.221-1.851l-.253-26.87z" fill="#FFCFAE"/>
        <path d="M357.046 263.163a12.012 12.012 0 0 1-4.585.28c-4.704-.66-9.644-5.763-9.644-5.763v-6.003c0-6.361.023-30.53.023-30.53.161-1.66.363-3.231.633-4.714.908-4.441 2.606-7.106 6.313-10.065a12.443 12.443 0 0 1 1.623-1.069c4.725-2.665 13.765-4.738 19.637-2.477 7.722 2.972 7.718 12.115 7.722 12.094v34.697a78.721 78.721 0 0 1-9.467 7.226c-4.958 3.184-11.083 6.03-12.255 6.324z" fill="#2B90FF"/>
        <path d="M341.416 191.733c-1.182 8.288-.735 39.452-.735 39.452 0 6.652 1.674 11.89 10.796 13.167 1.714.186 3.446.08 5.125-.31 7.051-1.507 15.61-6.598 18.947-9.615 5.593-5.056 5.364-9.832 5.364-14.007v-30.406c0 .02 0-10.212-8.644-13.536-6.573-2.531-16.692-.212-21.98 2.774.01.017-7.653 3.84-8.873 12.48z" fill="#FFF"/>
        <path d="M342.065 188.948a4.851 4.851 0 0 1 3.56-1.647c5.275 0 4.916 5.976 4.916 5.976v33.539c0 12.9 2.925 16.48 4.83 17.444-1.289.212-2.602.242-3.9.089-9.122-1.278-10.797-6.515-10.797-13.167 0 0-.447-31.161.735-39.453.134-.945.354-1.876.656-2.78z" fill="#D8D8D8"/>
        <path d="M346.301 238.753s.233 2.92.417 3.758c.116.526.188.888.28 1.274.127.53.154.793-.024.916-.177.123-.481.157-.765-.92.156.727.483 1.407.953 1.982.56.625 1.387 1.268 1.158 1.589-.228.32-.837 0-.837 0s-.082.526-.833.099c0 0-.1.423-.858-.127 0 0-.31.342-1.004-.372s-3.177-3.498-3.136-8.613l4.65.414z" fill="#FFDFCA"/>
        <path d="M347.48 218.432l-.8 23.645-4.629-.144s-3.536-9.3-4.393-24.16" fill="#FFF"/>
        <circle fill="#FFF" transform="rotate(-88.97 342.583 217.796)" cx="342.583" cy="217.796" r="4.937"/>
        <path d="M354.979 193.577l-7.697 25.74-9.624-1.61s-.154-2.391-.154-4.953c0-10.796 1.534-18.914 4.441-24.667" fill="#FFF"/>
        <circle fill="#FFF" transform="rotate(-89.78 348.302 191.242)" cx="348.302" cy="191.242" r="7.082"/>
        <path d="M369.26 200.854a.342.342 0 0 1-.298-.177l-5.34-9.61a52.654 52.654 0 0 0-3.904-5.897c-2.225-3.024-3.83-5.21-2.573-7.674 1.117-2.19 3.256-3.447 5.866-3.447a9.976 9.976 0 0 1 6.17 2.306c4.441 3.57 2.798 10.718 2.733 11.022l-2.33 13.2a.342.342 0 0 1-.28.277h-.044zm-6.232-26.128c-2.347 0-4.26 1.12-5.258 3.074-1.066 2.091.359 4.025 2.515 6.96a53.21 53.21 0 0 1 3.95 5.972l4.854 8.773 2.166-12.272c.02-.089 1.616-7.048-2.487-10.348a9.293 9.293 0 0 0-5.74-2.16z" fill="#2B90FF"/>
        <path fill="#9ECCFF" d="M368.358 203.857l.007 2.648 1.704-.984-.01-2.648z"/>
        <path d="M369.403 202.498l1.657-.957.02 6.806-3.7 2.138-.02-6.805 1.657-.957.386-.225zm.66.375l-1.709.984v2.648l1.708-.984v-2.648zm-2.416 5.173l3.13-1.807v-.27l-3.13 1.807v.27zm0 .745l3.126-1.808v-.27l-3.13 1.808v.266l.004.004zm-.003.741l3.13-1.807v-.27l-3.127 1.807v.27h-.003z" fill="#2B90FF"/>
        <path fill="#9ECCFF" d="M367.644 207.776l.003.27 3.126-1.807v-.27z"/>
        <path fill="#2B90FF" d="M369.01 201.705v1.018l.5-.225-.004-1.018z"/>
        <path fill="#D3D3D3" d="M368.365 200.01l.29 1.9.355-.205.39-.225.358-.205.274-2.228z"/>
        <path fill="#9ECCFF" d="M367.65 209.266v.27l3.13-1.808-.003-.266zM367.647 208.524v.267l3.13-1.808v-.266z"/>
        <path d="M358.252 160.295s-5.296-5.467-7.345 1.766c0 0-1.138 3.133-.058 6.037 1.08 2.904 2.962 4.612.512 6.662 0 0 6.662-1.708 7.345-10.533 0-.003.4-3.136-.454-3.932z" fill="#08253F"/>
        <path d="M371.822 165.932c.147 1.383.04 2.782-.314 4.127-.711 2.648 1.137 2.419 1.137 2.419s-2.391.229-1.766-1.821c.495-1.62-.113-2.675-.113-2.675s.267-1.992 1.056-2.05z" fill="#10355D"/>
        <path d="M364.33 159.649c2.22-.089 4.824.461 6.112 2.603.826 1.367.765 3.885.84 5.747.133 3.361-1.206 6.887-3.293 8.715v.878c-.024.72-.506 1.435-1.456 1.985-1.937 1.117-5.066 1.117-6.99 0-.929-.54-1.404-1.24-1.431-1.947v-8.791c0-.106 0-.212-.017-.314-.215-4.756 2.586-8.733 6.235-8.876z" fill="#FFCFAE"/>
        <path d="M365.06 177.981a4.735 4.735 0 0 0 2.925-1.267v.878c-.024.72-.505 1.435-1.455 1.985-1.937 1.117-5.067 1.117-6.99 0-.93-.54-1.404-1.24-1.432-1.947v-8.791c.29 4.653 3.39 9.283 6.953 9.142z" fill="#EAB896"/>
        <path d="M360.06 168.638c-.127-.588-.243-1.025-.858-.978a1.213 1.213 0 0 0-1.114 1.193 8.74 8.74 0 0 0 .793 3.573l-.793 2.863c-7.311-9.35-1.432-17.557-1.432-17.557 1.808-2.37 4.807-1.762 4.807-1.762 2.952-1.11 7.803-1.367 9.993 2.845 0 0 2.05 2.675.745 7.175l-.933 3.112c.021-.369.028-.738 0-1.107-.03-.762-.037-1.63-.092-2.487-7.697.024-9.289-2.668-9.289-2.668s.17 2.863-.512 4.144c0 0 .085 1.958-.428 3.05 0 0-.768 2.05.171 2.758 0 0-1.366-.485-.94-2.306.117-.458-.119-1.848-.119-1.848z" fill="#10355D"/>
        <path d="M317.72 394.353c7.54 4.383 8.882 10.786 2.955 14.223-5.928 3.437-16.925 2.668-24.465-1.708-7.54-4.377-8.883-10.786-2.955-14.223 5.927-3.437 16.925-2.685 24.465 1.708z" fill="#D8D8D8"/>
        <path d="M315.041 405.334c-1.633 1.636-3.614 2.306-4.441 1.496s-.144-2.791 1.493-4.441c1.636-1.65 3.614-2.306 4.441-1.497.489.489.454 1.77.454 2.262-.276.53-1.298 1.544-1.947 2.18z" fill="#081B2F"/>
        <path d="M315.027 403.646c-1.069 1.025-2.347 1.418-2.852.888-.506-.53-.048-1.783 1.025-2.805 1.072-1.021 2.347-1.418 2.852-.888.506.53.041 1.783-1.025 2.805z" fill="#FFCFAE"/>
        <path d="M300.419 396.967c-1.568 1.571-3.471 2.214-4.25 1.435-.78-.78-.137-2.682 1.431-4.254 1.568-1.571 3.471-2.214 4.25-1.438.472.468.438 1.708.438 2.17-.277.491-1.261 1.465-1.87 2.087z" fill="#081B2F"/>
        <path d="M300.392 395.334c-1.025.98-2.255 1.366-2.734.854-.478-.513-.044-1.708.98-2.696 1.026-.987 2.256-1.366 2.734-.85.478.515.044 1.715-.98 2.692z" fill="#FFCFAE"/>
        <path d="M316.988 374.712s5.894-23.648 7.94-38.557l-35.845-6.375c-.15 7.25 1.78 21.793 2.597 31.793 1.23 15.063 6.416 32.456 6.416 32.456.112.546.72.963 1.933.963 1.367 0 2.29-.454 2.29-1.093l-.544-24.175 2.638-20.563s1.277 15.326 2.227 23.508c.95 8.183 5.788 29.238 5.788 29.238 0 .857.625 1.554 2.087 1.554 1.462 0 2.456-.632 2.463-1.482l.01-27.267z" fill="#9B9B9B"/>
        <path d="M288.54 285.96c-2.754 5.843-3.997 15.217-4.441 23.359l7.99.847 7.647-19.696" fill="#FFF"/>
        <path d="M290.306 326.507s.287 2.914.485 3.74c.127.527.205.885.301 1.268.137.53.17.79 0 .916s-.478.167-.782-.906a4.68 4.68 0 0 0 .987 1.965c.574.615 1.411 1.243 1.189 1.568-.222.324-.837 0-.837 0s-.072.53-.834.113c0 0-.088.427-.86-.113 0 0-.305.342-1.026-.342-.72-.683-3.238-3.44-3.29-8.54l4.667.33z" fill="#FFCFAE"/>
        <path d="M284.102 309.155c-.796 14.236 1.418 18.605 1.418 18.605l4.827.13 1.732-17.727" fill="#FFF"/>
        <circle fill="#FFF" cx="288.12" cy="309.39" r="4.021"/>
        <circle fill="#FFF" cx="293.962" cy="288.629" r="6.044"/>
        <path d="M291.946 337.887c3.307 3.05 11.896 8.107 18.948 9.613 1.678.392 3.41.497 5.124.311 9.122-1.277 10.796-6.515 10.796-13.166l-.027-34.165c-.041-12.64-9.59-17.741-9.59-17.741-5.289-2.983-15.405-5.302-21.981-2.774-8.644 3.324-8.64 13.56-8.644 13.54-.003-.021-.762 5.807 1.63 12.82.01-.01-5.35 23.164 3.744 31.562z" fill="#FFF"/>
        <path d="M325.051 291.837a6.344 6.344 0 0 0-5.073-1.404c-3.909.488-3.027 5.06-3.027 5.06s4.004 36.114-4.783 43.203c-6.208 4.999-14.42 2.392-18.719.43 3.96 3.031 11.292 7.056 17.455 8.374 1.678.392 3.411.497 5.124.311 9.122-1.277 10.796-6.515 10.796-13.166l-.027-34.165a21.69 21.69 0 0 0-1.746-8.643z" fill="#D8D8D8"/>
        <path d="M303.227 263.118c-2.22-.088-4.824.462-6.112 2.6-.827 1.367-.765 3.885-.84 5.747-.133 3.362 1.206 6.887 3.293 8.715v.878c.024.72.506 1.435 1.459 1.985 1.937 1.117 5.067 1.117 6.99 0 .93-.54 1.404-1.24 1.431-1.947v-6.191c0-.106.824-3.31.827-3.416.209-4.756-3.403-8.227-7.048-8.37z" fill="#FFCFAE"/>
        <path d="M302.493 281.451a4.732 4.732 0 0 1-2.925-1.268v.878c.024.721.506 1.435 1.459 1.985 1.937 1.118 5.067 1.118 6.99 0 .93-.54 1.404-1.24 1.431-1.947V272.31c-.293 4.653-3.389 9.282-6.955 9.142z" fill="#EAB896"/>
        <path d="M309.469 272.462l-.622 3.14.622 1.968c.55-.588.803-1.95 1.332-3.075 1.654-3.56 1.261-6.293 1.005-9.07-.106-1.159-.461-5.873-3.946-6.15 0 0-1.838-1.886-6.983.1-2.98 1.147-4.701-.093-4.701-.093s-.25 1.185.222 2.05c0 0-2.791 2.425-.086 9.122.048-1.675 0-2.983.684-4.1.481-.803 1.667-.998 2.521-1.11a4.752 4.752 0 0 1 1.493.32s1.329-.4 1.869-.341c3.785.297 3.734 1.852 3.734 1.852l.164 1.752v6s-.174 3.074-3.075 3.529c-1.206.184-2.391-1.06-2.391-1.06h-.885s-.738 1.149-1.435.797a4.236 4.236 0 0 1-2.269-2.86c.16.817 1.292 5.86 4.95 6.297 4.486.533 6.195-2.221 6.195-5.337v-5.572a.909.909 0 0 1 1.004-1.08c1.151 0 .878 1.62.598 2.921z" fill="#424242"/>
        <path d="M296.698 275.222c0-.105-.03-.17-.03-.17s-.01.07.03.17z" fill="#6B373E"/>
        <path d="M302.312 274.615h-2.976s-.844.768-.844 1.523h4.66c0-.755-.84-1.523-.84-1.523z" fill="#424242"/>
        <path d="M321.19 342.215s-.232 2.921-.416 3.758c-.116.526-.188.889-.28 1.275-.127.53-.154.792.024.915.177.123.481.157.765-.919a4.684 4.684 0 0 1-.953 1.982c-.56.625-1.387 1.267-1.158 1.588.228.322.837 0 .837 0s.082.527.833.1c0 0 .1.423.858-.127 0 0 .31.342 1.004-.372s3.177-3.499 3.136-8.613l-4.65.413z" fill="#FFCFAE"/>
        <path d="M320.012 321.894l.8 23.645 4.629-.143s3.536-9.303 4.403-24.154" fill="#FFF"/>
        <circle fill="#FFF" transform="rotate(-1.03 324.882 321.286)" cx="324.882" cy="321.286" r="4.937"/>
        <path d="M312.513 297.033l7.697 25.74 9.638-1.61s.154-2.391.157-4.953c0-10.796-1.534-18.914-4.441-24.667" fill="#FFF"/>
        <circle fill="#FFF" transform="rotate(-.22 319.205 294.685)" cx="319.205" cy="294.685" r="7.082"/>
        <path d="M238.896 281.963c-7.54 4.384-8.883 10.786-2.955 14.223 5.927 3.437 16.925 2.668 24.465-1.708 7.54-4.377 8.883-10.786 2.955-14.223-5.927-3.437-16.921-2.675-24.465 1.708z" fill="#D8D8D8"/>
        <path d="M254.96 164.818s-2.815 4.22 0 7.427c2.364 2.692 2.433 5.583.98 8.227-1.024 1.859-.915 4.021.41 5.149 1.6 1.366 3.796 1.11 6.02-.106 0 0-3.351-1.34-1.154-4.442 1.366-1.954 4.506-5.008 1.12-10.72-3.023-5.101-.683-7.892-.495-10.97.423-6.666-4.93-15.002-10.075-12.911 0 0 3.075 3.375 3.939 7.086.864 3.71 1.797 7.58-.745 11.26z" fill="#424242"/>
        <path d="M240.04 292.954c1.634 1.636 3.615 2.306 4.442 1.496s.143-2.79-1.493-4.44c-1.636-1.651-3.615-2.307-4.441-1.497-.489.488-.455 1.77-.455 2.261.274.52 1.299 1.53 1.948 2.18z" fill="#081B2F"/>
        <ellipse fill="#FFCFAE" transform="rotate(-46.33 240.963 290.255)" cx="240.963" cy="290.255" rx="1.326" ry="2.675"/>
        <path d="M254.677 284.577c1.568 1.572 3.47 2.214 4.25 1.435.778-.78.136-2.682-1.432-4.254-1.568-1.571-3.471-2.213-4.25-1.438-.471.468-.437 1.708-.437 2.17.26.492 1.243 1.465 1.869 2.087z" fill="#081B2F"/>
        <path d="M254.687 282.944c1.025.98 2.255 1.367 2.733.854.478-.512.044-1.708-.98-2.696-1.026-.987-2.255-1.366-2.734-.85-.478.516-.044 1.711.98 2.692z" fill="#FFCFAE"/>
        <path d="M238.582 262.32s-4.151-23.25-6.198-38.159l31.917-6.047c.15 7.25.403 21.066-.41 31.062-1.23 15.063-6.71 32.51-6.71 32.51-.113.547-.427.906-1.64.903a1.934 1.934 0 0 1-2.023-1.709l.277-23.573-2.637-20.56s-1.278 15.326-2.228 23.509c-.95 8.182-6.453 29.722-6.453 29.722 0 .858-.762 1.063-1.422 1.063-1.452 0-2.21-1.005-2.22-1.852l-.253-26.87z" fill="#FFCFAE"/>
        <path d="M246.17 254.236a12.009 12.009 0 0 1-4.585.28c-4.705-.66-9.645-5.764-9.645-5.764v-6.002c0-6.362.024-30.53.024-30.53.16-1.66.362-3.231.632-4.714.909-4.441 2.607-7.106 6.314-10.065a12.48 12.48 0 0 1 1.623-1.069c4.724-2.665 13.764-4.739 19.637-2.477 7.721 2.972 7.718 12.111 7.721 12.094v34.694a78.687 78.687 0 0 1-9.467 7.226c-4.957 3.184-11.083 6.016-12.254 6.327z" fill="#9B9B9B"/>
        <path d="M268.076 173.567c2.753 5.843 3.997 15.217 4.441 23.355l-7.97.85-7.64-19.691" fill="#FFF"/>
        <path d="M266.31 214.117s-.288 2.914-.486 3.74c-.126.527-.205.886-.304 1.268-.136.53-.17.79 0 .92.171.13.479.167.783-.906a4.677 4.677 0 0 1-.988 1.964c-.574.615-1.41 1.244-1.189 1.569.222.324.837 0 .837 0s.072.53.834.112c0 0 .089.427.86-.112 0 0 .305.341 1.026-.342.72-.683 3.239-3.44 3.29-8.541l-4.664.328z" fill="#FFCFAE"/>
        <path d="M272.514 196.765c.796 14.236-1.418 18.606-1.418 18.606l-4.828.13-1.721-17.728" fill="#FFF"/>
        <circle fill="#FFF" cx="268.493" cy="196.997" r="4.021"/>
        <circle fill="#FFF" cx="262.65" cy="176.239" r="6.044"/>
        <path d="M230.53 182.802c-1.183 8.288-.735 39.453-.735 39.453 0 6.652 1.674 11.889 10.796 13.167 1.713.185 3.446.08 5.124-.311 7.052-1.507 15.61-6.597 18.948-9.614 5.592-5.056 5.363-9.832 5.363-14.007v-30.406c0 .02 0-10.212-8.643-13.536-6.573-2.532-16.693-.212-21.981 2.774.007.017-7.653 3.843-8.873 12.48z" fill="#FFF"/>
        <path d="M231.189 180.018a4.851 4.851 0 0 1 3.56-1.647c5.275 0 4.916 5.975 4.916 5.975v33.54c0 12.9 2.924 16.48 4.83 17.443-1.29.213-2.603.243-3.9.09-9.123-1.279-10.797-6.516-10.797-13.168 0 0-.447-31.16.735-39.452.134-.945.353-1.876.656-2.781z" fill="#D8D8D8"/>
        <path d="M244.103 184.633l-7.697 25.74-9.638-1.61s-.154-2.391-.154-4.953c0-10.796 1.534-18.914 4.441-24.667" fill="#FFF"/>
        <circle fill="#FFF" transform="rotate(-89.78 237.428 182.31)" cx="237.428" cy="182.31" r="7.082"/>
        <path d="M235.425 229.826s.232 2.92.417 3.758c.116.526.188.888.28 1.274.126.53.154.793-.024.916s-.482.157-.765-.92c.156.727.482 1.407.953 1.982.56.625 1.387 1.268 1.158 1.589-.229.32-.837 0-.837 0s-.082.526-.833.099c0 0-.1.423-.858-.127 0 0-.31.342-1.004-.372s-3.188-3.512-3.137-8.637l4.65.438z" fill="#FFCFAE"/>
        <path d="M236.604 209.501l-.8 23.645-4.629-.143s-3.536-9.303-4.404-24.154" fill="#FFF"/>
        <circle fill="#FFF" transform="rotate(-88.97 231.707 208.868)" cx="231.707" cy="208.868" r="4.937"/>
        <path d="M253.453 150.718c2.221-.088 4.824.462 6.112 2.604.827 1.366.766 3.884.84 5.746.134 3.362-1.205 6.888-3.293 8.715v.882c-.023.72-.505 1.435-1.455 1.985-1.937 1.117-5.066 1.117-6.99 0-.93-.54-1.404-1.24-1.431-1.948v-8.794c0-.105 0-.208-.017-.314-.216-4.755 2.586-8.729 6.234-8.876z" fill="#FFCFAE"/>
        <path d="M254.188 169.051a4.732 4.732 0 0 0 2.924-1.27v.88c-.023.721-.505 1.435-1.455 1.985-1.937 1.118-5.066 1.118-6.99 0-.93-.54-1.404-1.24-1.431-1.947V159.91c.29 4.653 3.385 9.285 6.952 9.142z" fill="#EAB896"/>
        <path d="M241.63 181.056c-1.367-1.954-4.507-5.008-1.121-10.72 3.023-5.101.683-7.892.495-10.97-.342-5.306 2.986-11.664 6.949-12.983.3-.115.613-.186.933-.212a4.291 4.291 0 0 1 1.735.13c3.055-2.391 7.858.987 11.524 5.388 2.753 3.29 1.81 6.645-.192 7.994-.459.312-.999.483-1.554.492.02-.369.024-.738 0-1.107-.03-.762-.038-1.63-.092-2.487-3.037-.17-4.834-1.493-4.834-1.493.125.276.28.537.46.779.264.293.591.52.957.666a9.566 9.566 0 0 1-3.71-.645 7.318 7.318 0 0 1-3.109-2.136l-.464 5.941a1.21 1.21 0 0 0-2.392.24v3.758c.2.391.43.768.683 1.127 0 0 2.815 4.22 0 7.427-2.364 2.692-2.432 5.583-.977 8.227 1.025 1.859.916 4.021-.41 5.149-1.599 1.366-3.795 1.11-6.016-.106-.02-.014 3.331-1.353 1.134-4.459z" fill="#424242"/>
        <path d="M202.815 481.602c-7.54 4.383-8.882 10.785-2.955 14.222 5.928 3.437 16.925 2.668 24.465-1.708 7.54-4.377 8.883-10.786 2.955-14.223-5.927-3.437-16.925-2.675-24.465 1.709z" fill="#D8D8D8"/>
        <path d="M231.534 373.22c2.753 5.841 3.997 15.216 4.441 23.357l-7.984.83-7.64-19.692" fill="#FFF"/>
        <path d="M229.77 413.755s-.286 2.914-.484 3.741c-.127.526-.205.885-.304 1.267-.137.53-.171.79 0 .916.17.126.478.167.782-.905a4.677 4.677 0 0 1-.987 1.964c-.574.615-1.411 1.244-1.19 1.568.223.325.838 0 .838 0s.072.53.833.113c0 0 .09.427.861-.113 0 0 .304.342 1.025-.341.721-.684 3.239-3.44 3.29-8.541l-4.663.331z" fill="#FFCFAE"/>
        <path d="M235.975 396.4c.796 14.236-1.418 18.605-1.418 18.605l-4.827.13-1.74-17.728" fill="#FFF"/>
        <circle fill="#FFF" cx="231.954" cy="396.635" r="4.021"/>
        <circle fill="#FFF" cx="226.112" cy="375.874" r="6.044"/>
        <path d="M205.036 492.592c1.633 1.637 3.615 2.306 4.441 1.497.827-.81.144-2.792-1.493-4.442-1.636-1.65-3.614-2.306-4.44-1.496-.49.488-.455 1.77-.455 2.261.276.52 1.298 1.531 1.947 2.18z" fill="#081B2F"/>
        <path d="M205.05 490.89c1.07 1.026 2.347 1.419 2.852.889.506-.53.048-1.783-1.025-2.805-1.072-1.021-2.347-1.418-2.852-.888-.506.53-.045 1.787 1.025 2.805z" fill="#FFCFAE"/>
        <path d="M219.672 484.215c1.568 1.568 3.471 2.214 4.25 1.435.779-.779.137-2.682-1.431-4.253-1.569-1.572-3.472-2.214-4.25-1.439-.472.468-.438 1.708-.438 2.17.28.492 1.247 1.462 1.869 2.087z" fill="#081B2F"/>
        <path d="M219.686 482.579c1.025.98 2.254 1.366 2.733.854.478-.513.044-1.708-.98-2.696-1.026-.987-2.256-1.366-2.734-.85-.478.515-.044 1.715.98 2.692z" fill="#FFCFAE"/>
        <path d="M203.089 461.957s-4.138-23.249-6.187-38.154l31.916-6.047c.15 7.25.403 21.065-.41 31.062-1.23 15.063-6.416 32.456-6.416 32.456-.113.546-.721.963-1.934.963-1.367 0-2.289-.454-2.289-1.09l.543-24.174-2.637-20.56s-1.278 15.326-2.228 23.508c-.95 8.182-5.787 29.238-5.787 29.238 0 .857-.625 1.554-2.088 1.554-1.462 0-2.456-.632-2.463-1.483l-.02-27.273z" fill="#9B9B9B"/>
        <path d="M193.987 382.444c-1.182 8.288-.734 39.452-.734 39.452 0 6.652 1.674 11.89 10.796 13.167 1.713.186 3.446.08 5.124-.31 7.052-1.507 15.61-6.598 18.948-9.615 5.592-5.056 5.364-9.832 5.364-14.007v-30.406c0 .02 0-10.212-8.644-13.536-6.573-2.528-16.693-.212-21.981 2.774.01.014-7.64 3.837-8.873 12.48z" fill="#FFF"/>
        <path d="M194.65 379.656a4.855 4.855 0 0 1 3.56-1.647c5.275 0 4.916 5.979 4.916 5.979v33.539c0 12.9 2.925 16.48 4.831 17.444-1.29.212-2.603.242-3.901.089-9.122-1.278-10.796-6.515-10.796-13.167 0 0-.448-31.161.734-39.453.134-.946.354-1.878.656-2.784z" fill="#D8D8D8"/>
        <path d="M199.809 428.565s.232 2.921.417 3.758c.116.526.188.888.28 1.275.126.53.154.792-.024.915s-.482.157-.765-.919a4.68 4.68 0 0 0 .953 1.982c.56.625 1.387 1.267 1.158 1.588-.229.321-.837 0-.837 0s-.082.526-.834.1c0 0-.099.423-.857-.127 0 0-.311.342-1.005-.372-.693-.714-3.177-3.499-3.136-8.613l4.65.413z" fill="#FFCFAE"/>
        <path d="M201.001 408.255l-.8 23.645-4.628-.144s-3.536-9.303-4.404-24.154" fill="#FFF"/>
        <circle fill="#FFF" transform="rotate(-88.97 196.077 407.608)" cx="196.077" cy="407.608" r="4.937"/>
        <path d="M208.483 383.4l-7.697 25.74-9.638-1.61s-.153-2.391-.157-4.954c0-10.795 1.534-18.913 4.442-24.666" fill="#FFF"/>
        <circle fill="#FFF" transform="rotate(-89.78 201.806 381.068)" cx="201.806" cy="381.068" r="7.082"/>
        <path d="M216.915 350.357c2.22-.09 4.824.46 6.112 2.6.827 1.366.765 3.884.84 5.746.134 3.362-1.206 6.887-3.293 8.715v.878c-.024.721-.506 1.435-1.459 1.985-1.937 1.117-5.066 1.117-6.99 0-.93-.54-1.404-1.24-1.431-1.947V359.554c0-.106 0-.209-.017-.315-.216-4.762 2.59-8.735 6.238-8.882z" fill="#FFCFAE"/>
        <path d="M211.319 361.945a14.267 14.267 0 0 0-.342-1.964c-.341-1.493.813-1.627.813-1.627.619-.05 1.025.383 1.145.974l.143 2.392.868.283s-.256-1.708-.256-2.207c0-2.733.625-2.86.625-2.86l.342-2.131s5.52.666 8.677-1.025c.312 1.216.481 2.465.506 3.72 0 0 .66-4.51-.386-7.273-1.045-2.764-2.77-4.127-5.699-4.1 0 0-8.804-.714-9.59 5.272 0 0-.87 6.71 2.546 12.377-.017.007.604-1.83.608-1.83z" fill="#424242"/>
        <path d="M217.646 368.69a4.732 4.732 0 0 0 2.924-1.272v.878c-.023.721-.505 1.435-1.458 1.985-1.937 1.117-5.067 1.117-6.99 0-.93-.54-1.404-1.24-1.432-1.947V359.554c.294 4.646 3.393 9.279 6.956 9.135z" fill="#EAB896"/>
        <path d="M496.155 389.328c7.54 4.383 8.883 10.785 2.956 14.222-5.928 3.437-16.925 2.668-24.465-1.708-7.54-4.376-8.883-10.786-2.955-14.226 5.927-3.44 16.924-2.672 24.464 1.712z" fill="#D8D8D8"/>
        <path d="M466.887 284.94c-2.754 5.838-3.997 15.216-4.441 23.354l7.99.847 7.636-19.692" fill="#FFF"/>
        <path d="M468.65 325.485s.287 2.914.485 3.741c.126.526.205.885.304 1.268.137.53.17.789 0 .919s-.478.167-.782-.906a4.68 4.68 0 0 0 .987 1.965c.574.615 1.411 1.243 1.189 1.568-.222.324-.837 0-.837 0s-.072.53-.834.113c0 0-.088.427-.86-.113 0 0-.305.341-1.025-.342-.721-.683-3.24-3.44-3.29-8.54l4.663.327z" fill="#FFDFCA"/>
        <path d="M462.446 308.133c-.796 14.236 1.418 18.606 1.418 18.606l4.827.13 1.732-17.728" fill="#FFF"/>
        <circle fill="#FFF" cx="466.463" cy="308.365" r="4.021"/>
        <circle fill="#FFF" cx="472.305" cy="287.607" r="6.044"/>
        <path d="M492.404 397.158c1.64-1.64 3.628-2.316 4.442-1.507.813.81.136 2.798-1.504 4.442-.683.683-1.558 1.537-2.24 1.851a1.824 1.824 0 0 1-2.201-.341c-.489-.489-.45-2.484-.45-2.976.262-.512 1.287-.81 1.953-1.469z" fill="#444549"/>
        <path d="M492.421 397.134c1.07-1.025 2.347-1.418 2.853-.888.506.53.048 1.787-1.025 2.805" fill="#FFDFCA"/>
        <path d="M478.78 389.341c1.64-1.64 3.628-2.316 4.44-1.506.814.81.138 2.798-1.502 4.441-.684.683-1.558 1.537-2.241 1.852a1.824 1.824 0 0 1-2.197-.342c-.489-.488-.451-2.48-.451-2.976.273-.509 1.301-.816 1.95-1.469z" fill="#444549"/>
        <path d="M478.81 389.164c1.07-1.025 2.347-1.418 2.853-.889.506.53.048 1.787-1.025 2.805a4.441 4.441 0 0 1-2.033 1.227" fill="#FFDFCA"/>
        <path d="M502.295 321.901l-33.744 1.152 6.607 41.844 1.821 25.722c.027.878.615 2.142 1.937 1.585 1.927-.81 1.893-1.582 2.05-2.268 0 0 2.392-15.716 3.57-26.102a151.07 151.07 0 0 0 .834-16.443l3.649 22.637 1.52 28.087v.088c0 .872.482 2.05 2.016 1.681 1.882-.468 2.094-1.301 2.145-2.125.191-.953 4.315-20.96 5.33-29.5 1.035-8.736 3.577-43.618 2.265-46.358z" fill="#FFDFCA"/>
        <path d="M490.539 365.361c1.39.36 2.837.449 4.26.26 4.373-.611 8.965-5.36 8.965-5.36v-5.576c0-5.914-.024-28.38-.024-28.38a55.898 55.898 0 0 0-.588-4.383c-.844-4.14-2.422-6.608-5.87-9.354a11.52 11.52 0 0 0-1.506-.995c-4.393-2.476-12.794-4.403-18.254-2.302-7.174 2.76-7.174 11.274-7.174 11.24v32.254a73.142 73.142 0 0 0 8.8 6.717c4.606 2.965 10.301 5.596 11.39 5.88z" fill="#9B9B9B"/>
        <path d="M504.994 292.95c1.182 8.289.734 39.453.734 39.453 0 6.652-1.674 11.89-10.796 13.167-1.713.186-3.446.08-5.124-.31-7.052-1.507-15.61-6.598-18.948-9.614-5.592-5.057-5.363-9.833-5.363-14.008v-30.406c0 .02 0-10.212 8.643-13.536 6.573-2.531 16.693-.211 21.981 2.774-.01.018 7.643 3.844 8.873 12.48z" fill="#FFF"/>
        <path d="M504.334 290.166a4.855 4.855 0 0 0-3.56-1.646c-5.274 0-4.916 5.975-4.916 5.975v33.539c0 12.9-2.924 16.48-4.83 17.444 1.29.213 2.603.242 3.901.089 9.122-1.278 10.796-6.515 10.796-13.167 0 0 .447-31.161-.735-39.453a15.784 15.784 0 0 0-.656-2.78z" fill="#D8D8D8"/>
        <path d="M492.223 270.255c.051-4.994-3.013-9.074-6.833-9.115-2.333-.024-5.05.632-6.33 2.918-.824 1.472-.684 4.1-.7 6.054a10.775 10.775 0 0 0 1.564 5.828v2.115c.02.683.485 1.367 1.394 1.896 1.852 1.07 4.844 1.07 6.686 0 .888-.516 1.343-1.185 1.366-1.865v-.65c1.709-1.612 2.826-4.225 2.853-7.18z" fill="#FFDFCA"/>
        <path d="M493.467 266.463c.738-1.787.396-4.1-.721-5.87-2.05-3.22-3.502-4.25-5.75-4.741a7.116 7.116 0 0 0-3.895.283 4.373 4.373 0 0 0-3.573.598c-1.001.728-1.394 1.295-2.368 2.983-.888 1.54-1.004 3.758-.98 6.095-.417 6.72 3.642 10.502 3.642 10.502.524.335 1.09.6 1.684.785 1.49.451 5.944.786 7.782-3.214 0 0 .926-2.549.926-3.007 0-.458-.485-2.193.37-2.791.853-.598.939.598.939.598s.113 2.077-.4 2.99c-.512.911-.683 3.016.284 3.7 0 0-.796-1.596-.058-2.478.738-.881 2.688-3.245 2.118-6.433z" fill="#424242"/>
        <path d="M479.377 259.716s-5.295-5.467-7.345 1.766c0 0-1.137 3.133-.058 6.037 1.08 2.904 2.962 4.612.513 6.662 0 0 6.662-1.708 7.345-10.533.003-.003.4-3.136-.455-3.932z" fill="#F39F00"/>
        <path d="M479.377 259.716s-5.295-5.467-7.345 1.766c0 0-1.137 3.133-.058 6.037 1.08 2.904 2.962 4.612.513 6.662 0 0 6.662-1.708 7.345-10.533.003-.003.4-3.136-.455-3.932z" fill="#303030"/>
        <path d="M490.57 293.32l5.124 26.514 9.652-1.79s-.058-2.019-.117-4.585c-.249-10.908.711-18.79-1.257-24.471-.936-2.706-14.875-1.548-13.396 4.332" fill="#FFF"/>
        <path d="M502.179 339.896s1.91 5.165 1.875 6.228c-.027.888-.232 1.417.294 1.68.704.342.984-.177.984-.177a.793.793 0 0 0 1.21-.37s.683.459 1.024-.655c0 0 .745.615.943-1.49.236-2.49-1.708-6.344-1.725-6.388l-4.605 1.172z" fill="#FFDFCA"/>
        <path d="M504.474 347.86a1.708 1.708 0 0 1-.97-1.1c-.28-.869.178-1.661.994-1.644 0 .003 1.589 3.01-.024 2.743z" fill="#FFDFCA"/>
        <path d="M505.329 317.931l2.2 23.188-4.674 2.203s-4.735-11.534-7.29-23.96" fill="#FFF"/>
        <circle fill="#FFF" transform="rotate(-29.16 500.411 318.355)" cx="500.411" cy="318.355" r="4.937"/>
        <circle fill="#FFF" transform="rotate(-.22 497.57 292.033)" cx="497.571" cy="292.033" r="7.127"/>
        <path d="M368.112 30.379c-48.435-27.964-126.708-27.964-174.832 0-48.123 27.963-47.864 73.302.57 101.27 48.435 27.966 126.709 27.962 174.829 0 48.12-27.964 47.867-73.307-.567-101.27" opacity=".08" fill="#2B90FF"/>
        <path d="M411.018 31.643c-72.284-41.745-189.105-41.745-260.921.003-71.817 41.749-71.437 109.404.85 151.139 72.288 41.735 189.11 41.735 260.929 0 71.82-41.735 71.437-109.404-.85-151.139" opacity=".05" fill="#2B90FF"/>
        <path d="M447.55 64.307c-92.585-53.46-242.224-53.46-334.228 0-92.004 53.46-91.505 140.141 1.09 193.598 92.595 53.457 242.224 53.46 334.228 0 92.004-53.46 91.505-140.138-1.09-193.598" opacity=".05" fill="#2B90FF"/>
        <path d="M479.015 111.956c-110.087-63.545-288.003-63.545-397.366 0S-27.14 278.585 82.947 342.13c110.087 63.545 288.004 63.545 397.367 0 109.362-63.545 108.792-166.612-1.295-230.167" opacity=".05" fill="#2B90FF"/>
        <path d="M253.665 58.619l-.048 16.74a.39.39 0 0 1-.225.318 1.223 1.223 0 0 1-1.11 0 .396.396 0 0 1-.233-.342l.048-16.74c.007.148.097.28.232.342.35.177.762.177 1.11 0a.39.39 0 0 0 .226-.318z" fill="#D6D6D6"/>
        <path d="M253.433 58.294a.342.342 0 0 1 0 .643 1.223 1.223 0 0 1-1.11 0 .342.342 0 0 1 0-.646c.349-.177.762-.175 1.11.003z" fill="#EAEAEA"/>
        <path d="M253.272 47.14a.225.225 0 0 1 0 .423.813.813 0 0 1-.738 0 .225.225 0 0 1 0-.43.813.813 0 0 1 .738.007z" fill="#4C4C4C"/>
        <path d="M253.43 47.355l-.031 11.161a.256.256 0 0 1-.15.212.813.813 0 0 1-.738 0 .263.263 0 0 1-.154-.215l.03-11.162a.263.263 0 0 0 .154.216.813.813 0 0 0 .738 0 .256.256 0 0 0 .15-.212z" fill="#595959"/>
        <path d="M262.6 53.539l-.049 16.74a.39.39 0 0 1-.225.318 1.223 1.223 0 0 1-1.11 0 .396.396 0 0 1-.233-.342l.048-16.74c.007.148.097.28.232.341.35.178.762.178 1.11 0a.39.39 0 0 0 .226-.317z" fill="#D6D6D6"/>
        <path d="M262.367 53.217a.342.342 0 0 1 0 .643 1.223 1.223 0 0 1-1.11 0 .342.342 0 0 1 0-.646c.349-.177.762-.175 1.11.003z" fill="#EAEAEA"/>
        <path d="M262.213 42.063a.225.225 0 0 1 0 .424.813.813 0 0 1-.738 0 .225.225 0 0 1 0-.431.813.813 0 0 1 .738.007z" fill="#4C4C4C"/>
        <path d="M262.363 42.275l-.03 11.161a.256.256 0 0 1-.15.212.813.813 0 0 1-.739 0 .263.263 0 0 1-.153-.215l.03-11.162a.263.263 0 0 0 .154.216.813.813 0 0 0 .738 0 .256.256 0 0 0 .15-.212z" fill="#595959"/>
        <g opacity=".05">
            <path fill="#FFF" d="M238.954 85.632l8.23 4.78-.341.198-8.227-4.78z"/>
            <path fill="#000" opacity=".1" d="M238.954 85.632l8.23 4.78-.341.198-8.227-4.78z"/>
            <path fill="#FFF" d="M242.008 83.86l8.227 4.779-.338.198-8.23-4.78z"/>
            <path fill="#000" opacity=".1" d="M242.008 83.86l8.227 4.779-.338.198-8.23-4.78z"/>
            <path fill="#FFF" d="M245.05 82.093l8.23 4.78-.342.198-8.227-4.78z"/>
            <path fill="#000" opacity=".1" d="M245.05 82.093l8.23 4.78-.342.198-8.227-4.78z"/>
            <path fill="#FFF" d="M248.1 80.323l8.227 4.78-.339.198-8.23-4.78z"/>
            <path fill="#000" opacity=".1" d="M248.1 80.323l8.227 4.78-.339.198-8.23-4.78z"/>
            <path fill="#FFF" d="M251.144 78.557l8.23 4.78-.342.194-8.226-4.78z"/>
            <path fill="#000" opacity=".1" d="M251.144 78.557l8.23 4.78-.342.194-8.226-4.78z"/>
        </g>
        <path fill="#EAEAEA" d="M238.134 80.815v6.297l18.281 10.621 36.56-21.24v-6.3l-18.282-10.618"/>
        <path fill="#000" opacity=".1" d="M256.415 93.207l-18.28-10.622v-1.756l18.28 10.622zM256.415 93.207l36.56-21.24v-1.773l-36.56 21.24z"/>
        <path fill="#161616" opacity=".1" d="M256.415 93.207l36.56-21.24v.352l-36.56 21.24z"/>
        <path fill="#161616" opacity=".2" d="M256.415 93.207l-18.277-10.622v.355l18.277 10.618z"/>
        <path fill="#333" d="M248.38 83.094l-1.568.905 1.568.913 1.561-.913z"/>
        <path d="M248.582 84.254c.052-.023.088-.093.088-.172 0-.08-.036-.15-.088-.173a.327.327 0 0 0-.407 0c-.052.023-.088.093-.088.173 0 .08.036.15.088.172a.323.323 0 0 0 .407 0z" fill="#FFB522"/>
        <path fill="#333" d="M246.655 82.093l-1.568.905 1.568.91 1.561-.91z"/>
        <path d="M246.856 83.25c.049-.028.081-.096.081-.173 0-.076-.032-.145-.08-.172a.327.327 0 0 0-.407 0c-.049.027-.08.096-.08.172 0 .077.031.145.08.173a.325.325 0 0 0 .406 0z" fill="#FFB522"/>
        <path fill="#333" d="M244.93 81.089l-1.565.905 1.565.909 1.56-.91z"/>
        <path d="M245.134 82.245c.05-.027.081-.096.081-.172 0-.077-.032-.145-.08-.173a.327.327 0 0 0-.407 0c-.049.028-.08.096-.08.173 0 .076.031.145.08.172a.325.325 0 0 0 .406 0z" fill="#FFB522" opacity=".3"/>
        <path fill="#333" d="M243.208 80.084l-1.568.905 1.568.91 1.56-.91z"/>
        <path d="M243.41 81.248c.048-.028.08-.097.08-.173 0-.076-.032-.145-.08-.172a.327.327 0 0 0-.407 0c-.049.027-.081.096-.081.172 0 .076.032.145.08.173a.325.325 0 0 0 .407 0z" fill="#FFB522" opacity=".3"/>
        <path d="M241.684 80.223c.049-.028.08-.096.08-.173 0-.076-.031-.145-.08-.172a.327.327 0 0 0-.407 0c-.048.027-.08.096-.08.172 0 .077.032.145.08.173a.325.325 0 0 0 .407 0z" fill="#FFB522"/>
        <path fill="#000" opacity=".2" d="M292.975 70.197v6.296l-36.56 21.24v-6.3z"/>
        <path d="M486.5 245.596a1.216 1.216 0 1 1-1.216-1.24 1.247 1.247 0 0 1 1.217 1.24zm5.337-6.642a9.194 9.194 0 0 0-13.105 0 .342.342 0 0 0 0 .444l.574.574a.314.314 0 0 0 .444 0 7.803 7.803 0 0 1 11.113 0 .297.297 0 0 0 .445 0l.574-.574a.41.41 0 0 0-.045-.444zm-1.971 2.016a6.413 6.413 0 0 0-9.163 0 .342.342 0 0 0 0 .444l.574.574a.314.314 0 0 0 .444 0 4.97 4.97 0 0 1 7.127 0 .297.297 0 0 0 .444 0l.574-.574a.342.342 0 0 0 0-.444zm-4.582.909c-.973 0-1.905.39-2.59 1.083a.342.342 0 0 0 0 .444l.554.574a.314.314 0 0 0 .444 0c.419-.43.996-.67 1.596-.663a2.32 2.32 0 0 1 1.595.663.297.297 0 0 0 .444 0l.554-.574a.342.342 0 0 0 0-.444 3.645 3.645 0 0 0-2.597-1.087v.004zM219.228 337.19a1.216 1.216 0 1 1-1.216-1.24 1.247 1.247 0 0 1 1.216 1.24zm5.347-6.642a9.194 9.194 0 0 0-13.106 0 .342.342 0 0 0 0 .444l.574.574a.314.314 0 0 0 .444 0 7.803 7.803 0 0 1 11.114 0 .297.297 0 0 0 .444 0l.574-.574a.41.41 0 0 0-.044-.444zm-1.972 2.016a6.413 6.413 0 0 0-9.163 0 .342.342 0 0 0 0 .444l.574.574a.314.314 0 0 0 .445 0 4.97 4.97 0 0 1 7.126 0 .297.297 0 0 0 .444 0l.574-.574a.342.342 0 0 0 0-.444zm-4.581.909c-.973 0-1.906.39-2.59 1.083a.342.342 0 0 0 0 .444l.554.574a.314.314 0 0 0 .444 0c.418-.43.995-.67 1.595-.663a2.32 2.32 0 0 1 1.596.663.297.297 0 0 0 .444 0l.553-.574a.342.342 0 0 0 0-.444 3.645 3.645 0 0 0-2.606-1.083h.01z" fill="#9B9B9B"/>
        <path d="M305.321 251.78a1.216 1.216 0 1 1-1.216-1.24 1.247 1.247 0 0 1 1.216 1.24zm5.347-6.642a9.194 9.194 0 0 0-13.105 0 .342.342 0 0 0 0 .444l.574.574a.314.314 0 0 0 .444 0 7.803 7.803 0 0 1 11.113 0 .297.297 0 0 0 .445 0l.574-.574a.41.41 0 0 0-.045-.444zm-1.971 2.016a6.413 6.413 0 0 0-9.163 0 .342.342 0 0 0 0 .444l.574.574a.314.314 0 0 0 .444 0 4.97 4.97 0 0 1 7.127 0 .297.297 0 0 0 .444 0l.574-.574a.342.342 0 0 0 0-.444zm-4.582.908c-.973.001-1.905.391-2.59 1.083a.342.342 0 0 0 0 .444l.554.574a.314.314 0 0 0 .444 0c.419-.43.996-.67 1.596-.662a2.32 2.32 0 0 1 1.595.662.297.297 0 0 0 .444 0l.554-.574a.342.342 0 0 0 0-.444 3.645 3.645 0 0 0-2.607-1.083h.01zM130.401 203.608a1.216 1.216 0 1 1-1.216-1.24 1.247 1.247 0 0 1 1.216 1.24zm5.347-6.642a9.194 9.194 0 0 0-13.106 0 .342.342 0 0 0 0 .445l.574.574a.314.314 0 0 0 .444 0 7.803 7.803 0 0 1 11.114 0 .297.297 0 0 0 .444 0l.574-.574a.41.41 0 0 0-.044-.445zm-1.982 2.016a6.413 6.413 0 0 0-9.163 0 .342.342 0 0 0 0 .444l.574.574a.314.314 0 0 0 .445 0 4.97 4.97 0 0 1 7.126 0 .297.297 0 0 0 .444 0l.574-.574a.342.342 0 0 0 0-.444zm-4.581.909c-.973 0-1.906.39-2.59 1.083a.342.342 0 0 0 0 .444l.554.574a.314.314 0 0 0 .444 0c.418-.43.995-.67 1.595-.663a2.32 2.32 0 0 1 1.596.663.297.297 0 0 0 .444 0l.553-.574a.342.342 0 0 0 0-.444 3.645 3.645 0 0 0-2.596-1.083zM405.422 165.686a1.216 1.216 0 1 1-1.216-1.24 1.247 1.247 0 0 1 1.216 1.24zm5.347-6.642a9.194 9.194 0 0 0-13.105 0 .342.342 0 0 0 0 .444l.574.574a.314.314 0 0 0 .444 0 7.803 7.803 0 0 1 11.113 0 .297.297 0 0 0 .445 0l.573-.574a.41.41 0 0 0-.044-.444zm-1.971 2.016a6.413 6.413 0 0 0-9.163 0 .342.342 0 0 0 0 .444l.574.574a.314.314 0 0 0 .444 0 4.97 4.97 0 0 1 7.127 0 .297.297 0 0 0 .444 0l.574-.574a.342.342 0 0 0 0-.444zm-4.582.909c-.973 0-1.905.39-2.59 1.083a.342.342 0 0 0 0 .444l.554.574a.314.314 0 0 0 .444 0c.419-.43.996-.67 1.596-.663a2.32 2.32 0 0 1 1.595.663.297.297 0 0 0 .444 0l.554-.574a.342.342 0 0 0 0-.444 3.645 3.645 0 0 0-2.607-1.083h.01zM254.075 138.013a1.216 1.216 0 1 1-1.216-1.24 1.247 1.247 0 0 1 1.216 1.24zm5.347-6.642a9.194 9.194 0 0 0-13.105 0 .342.342 0 0 0 0 .444l.574.574a.314.314 0 0 0 .444 0 7.803 7.803 0 0 1 11.113 0 .297.297 0 0 0 .444 0l.574-.574a.41.41 0 0 0-.044-.444zm-1.971 2.016a6.413 6.413 0 0 0-9.163 0 .342.342 0 0 0 0 .444l.574.574a.314.314 0 0 0 .444 0 4.97 4.97 0 0 1 7.127 0 .297.297 0 0 0 .444 0l.574-.574a.342.342 0 0 0 0-.444zm-4.582.909c-.973 0-1.905.39-2.59 1.083a.342.342 0 0 0 0 .444l.554.574a.314.314 0 0 0 .444 0c.418-.43.995-.67 1.596-.663a2.32 2.32 0 0 1 1.595.663.297.297 0 0 0 .444 0l.554-.574a.342.342 0 0 0 0-.444 3.645 3.645 0 0 0-2.607-1.083h.01z" fill="#2B90FF"/>
    </g>
</svg>
