<svg width="137" height="351" viewBox="0 0 137 351" xmlns="http://www.w3.org/2000/svg">
    <g fill-rule="nonzero" fill="none">
        <path d="M60.865 75.915A40.502 40.502 0 0 0 81.69 39.592C81.2 18.76 64.582 1.4 43.785.084A40.502 40.502 0 0 0 .7 40.502s-1.631 48.79 61.026 48.153c0 0-4.823-2.366-4.473-7.266a6.951 6.951 0 0 1 3.612-5.474z" fill="#FFF"/>
        <path d="M42.875 34.398c0-1.806-1.19-2.8-2.947-2.8-1.631 0-2.8.833-4.004 2.023l-3.563-3.255a10.416 10.416 0 0 1 8.008-4.004c4.97 0 8.708 2.331 8.708 7.525 0 5.453-6.601 7.084-6.069 12.313h-5.677c-.875-5.999 5.544-8.505 5.544-11.802zm-2.73 14.385a4.074 4.074 0 1 1 .343 8.14 4.074 4.074 0 0 1-.343-8.14z" fill="#2B90FF"/>
        <path d="M64.603 320.096c-13.86 8.057-16.303 19.817-5.432 26.138 10.871 6.321 31.108 4.9 44.961-3.157 13.853-8.057 16.303-19.817 5.432-26.138-10.871-6.321-31.108-4.9-44.961 3.157z" fill-opacity=".15" fill="#000"/>
        <path d="M119.273 122.969c2.205 4.683 8.981 15.967 16.877 41.727l-23.233 1.701-13.706-35.336" fill="#FFF"/>
        <circle fill="#E9E9EA" cx="109.543" cy="127.764" r="10.843"/>
        <path d="M71.722 337.197c2.933 2.933 6.489 4.137 7.938 2.681 1.449-1.456.259-5.012-2.674-7.945-2.933-2.933-6.489-4.137-7.945-2.688-.882.875-.812 3.171-.812 4.053.497.917 2.331 2.702 3.493 3.899z" fill="#45464A"/>
        <path d="M71.75 334.145c1.918 1.827 4.2 2.541 5.117 1.589.917-.952.084-3.199-1.834-5.033-1.918-1.834-4.2-2.541-5.117-1.596-.917.945-.084 3.206 1.834 5.04z" fill="#FCCEAE"/>
        <path d="M98 322.161c2.8 2.8 6.23 3.976 7.63 2.576 1.4-1.4.245-4.809-2.569-7.63-2.814-2.821-6.23-3.976-7.63-2.576-.84.84-.784 3.045-.784 3.892.455.875 2.226 2.625 3.353 3.738z" fill="#45464A"/>
        <path d="M98 319.2c1.848 1.764 4.046 2.443 4.9 1.533.854-.91.084-3.073-1.757-4.837-1.841-1.764-4.046-2.443-4.9-1.526-.854.917-.077 3.122 1.757 4.83z" fill="#FCCEAE"/>
        <path d="M67.06 282.226s-6.86-41.72-10.535-68.467l57.575-10.85c.273 13.006.868 37.709-.588 55.65-2.212 27.041-11.382 58.142-11.382 58.142-.203 0-1.295 1.82-3.5 1.813-2.422 0-4.109-.777-4.109-1.918l.98-43.358-4.739-36.883s-2.296 27.503-3.997 42.189-10.388 52.5-10.388 52.5c0 1.54-1.12 3.143-3.745 3.143s-4.41-2.296-4.424-2.296h-1.169l.021-49.665z" fill="#10355D"/>
        <path d="M50.631 149.016c.329-3.332.7-6.489 1.267-9.471 1.827-8.946 5.236-14.28 12.677-20.216a25.025 25.025 0 0 1 3.255-2.149c9.492-5.355 27.58-9.52 39.375-4.977 15.505 5.971 15.442 24.332 15.442 24.29v54.551c0 7.462.476 16.037-9.555 25.102-5.985 5.446-21.336 14.546-33.936 17.248a27.3 27.3 0 0 1-9.191.56c-16.366-2.296-19.362-11.69-19.362-23.625-.021-12.775.028-61.313.028-61.313z" fill="#FFF"/>
        <path d="M50.631 149.016c.329-3.332.7-6.489 1.267-9.471a41.23 41.23 0 0 1 1.505-5.516A8.75 8.75 0 0 1 59.5 131.6c4.2 0 7.049 2.905 7.966 6.804l-.371 1.68v70.749c0 9.373.7 20.44 9.219 22.974-.175 0-.049.049-.231.07-.182.021-.182.042-.357.063l-.455.056-.518.049h-.455c-.329 0-.644-.378-.966-.371-.091 0-.168-.406-.252-.406h-.77c-.119 0-.238.399-.35.399-.238 0-.469.189-.7.168-.105 0-.21.091-.308.084a6.202 6.202 0 0 1-.959-.049c-16.366-2.296-19.376-11.669-19.376-23.604-.028-12.74.014-61.25.014-61.25z" fill="#000" opacity=".1"/>
        <path d="M75.32 233.996l.532-.056-.532.056z" fill="#FFF"/>
        <path d="M69.958 233.961zM71.232 234.08h.7-.7zM75.852 233.94l.504-.063-.504.063zM73.318 234.129c.322 0 .646-.014.973-.042l-.973.042zM74.76 234.052l.56-.049-.56.049z" fill="#000" opacity=".1"/>
        <path d="M107.8 81.956c2.331 4.9 1.778 9.87-4.837 15.533L101.5 86.744 85.743 88.9l1.225 9.1-2.674 9.38s-3.262-1.813-5.516-6.671C75.81 94.346 75.761 89.6 76.3 86.1c.329-2.065 2.66-8.232 8.4-11.074 5.74-2.842 15.12-2.422 17.08-1.855 2.695.784 3.276 2.555 2.667 3.892.028.014 5.096 1.337 3.353 4.893z" fill="#424242"/>
        <path d="M82.222 97.461l17.689 9.275v7.427h-.168c-.042 1.288-.77 3.5-2.478 4.452-3.5 2.009-9.352 1.113-12.803-.889-1.666-.966-2.345-2.226-2.394-3.5 0-.035.154-.056.154-.056V97.461z" fill="#FCCEAE"/>
        <path d="M82.222 96.852h17.689v17.311h-.168a6.167 6.167 0 0 1-2.716 4.557c-3.5 2.009-9.1 1.008-12.6-.994-1.666-.966-2.345-2.226-2.394-3.5 0-.035.154-.056.154-.056l.035-17.318z" fill="#392517" opacity=".08"/>
        <path d="M82.222 90.384l17.689 9.275v7.441h-.168c-.042 1.288-.987 2.576-2.695 3.563-3.5 2.009-9.1 2.009-12.6 0-1.666-.966-2.345-2.226-2.394-3.5 0-.035.154-.063.154-.063l.014-16.716z" fill="#683D1E" opacity=".05"/>
        <path d="M81.802 97.895c.343 8.533 6.006 17.234 12.551 16.968 6.545-.266 11.501-9.38 11.158-17.913-.133-3.339 0-7.84-1.505-10.311-2.31-3.843-7-4.83-10.969-4.669-6.545.266-11.578 7.392-11.235 15.925z" fill="#FCCEAE"/>
        <path d="M106.456 85.624c-13.489-7.147-19.488 3.339-19.488 3.339l-.812 9.142-5.943.623-1.274-14.861 27.076-4.438.441 6.195z" fill="#424242"/>
        <circle fill="#FCCEAE" transform="rotate(-4.61 84.005 98.525)" cx="84.005" cy="98.525" r="2.184"/>
        <path fill="#10355D" d="M99.47 154.259l1.099 7.749-12.362 8.918 1.064-9.317zM101.451 168.217l-2.352 5.495-8.505 6.125-2.996-3.619.343-3.017 12.901-9.296zM92.561 125.251l-.658-1.673 2.408-3.388 2.415.504-.511 1.918zM98.091 144.613l1.106 7.756-9.66 6.965 1.064-9.317zM96.719 134.967l1.106 7.756-6.965 5.019 1.071-9.317z"/>
        <path fill="#4C4C4C" d="M97.797 176.736l-3.339 7.777-2.786-3.367z"/>
        <path fill="#10355D" d="M93.191 126.875l2.352-1.687-.14.518 1.05 7.371-4.263 3.073 1.05-9.149z"/>
        <path d="M100.471 113.673l-.315 10.031-5.712-3.017-5.544 5.971-8.022-9.583s-1.729-2.212-.931-4.039a5.67 5.67 0 0 1 1.89-1.883s2.639 5.061 12.404 7.931c0 0 4.2-3.08 4.725-5.901 0 0 .427-.385.966-.966.32.42.508.928.539 1.456z" fill="#DBDBDA"/>
        <path fill="#10355D" d="M98.049 157.962l-1.582-1.323-6.062 35.07 1.582 1.316 24.899-9.24 6.055-35.084z"/>
        <path fill="#10355D" d="M122.941 148.701l-24.892 9.261-6.062 35.063 24.899-9.24z"/>
        <path fill="#FFF" d="M121.366 147.385l-24.899 9.254 1.582 1.323 24.892-9.261z"/>
        <path fill="#78BFFF" d="M99.715 163.156l-1.582-1.323-6.055 35.07 1.575 1.316 24.899-9.247 6.055-35.07z"/>
        <path fill="#2B90FF" d="M124.607 153.902l-24.892 9.254-6.062 35.063 24.899-9.247z"/>
        <path fill="#FFF" d="M123.032 152.572l-24.899 9.261 1.582 1.323 24.892-9.254z"/>
        <path d="M101.745 181.692s-6.013 1.904-7.812 2.212c-1.148.196-1.925.35-2.8.476-1.162.182-1.708.336-1.806.791-.098.455.077 1.085 2.457.777a10.073 10.073 0 0 1-4.725-.287c-1.708-.609-3.654-1.743-4.116-1.022-.462.721.7 1.652.7 1.652s-.98.595.483 1.743c0 0-.77.539.952 1.603 0 0-.441.903 1.561 1.701s9.555 3.5 19.712-.7l-4.606-8.946z" fill="#FCCEAE"/>
        <path d="M131.936 175.889c-20.3 12.6-28.616 16.317-28.616 16.317l-4.347-9.443 24.227-21.805" fill="#FFF"/>
        <circle fill="#FFF" transform="rotate(-23.19 128.057 168.126)" cx="128.057" cy="168.126" r="8.652"/>
        <path d="M52.787 135.247c-4.669 13.685-5.096 34.853-4.074 53.053l17.99-.105 12.089-45.724" fill="#FFF"/>
        <path d="M91.427 198.044l-4.312 9.394c.098.056 7.861 5.6 13.44 6.02 4.711.35 3.64-1.463 3.64-1.463 2.576-.294.539-2.905.539-2.905 2.1-.539.42-2.583.42-2.583a1.645 1.645 0 0 0 .784-1.946v-.161a5.383 5.383 0 0 0-2.394-2.17 2.863 2.863 0 0 0-3.437.343 71.477 71.477 0 0 1-8.68-4.529z" fill="#FCCEAE"/>
        <path fill="#F2F2F2" d="M111.804 195.482l-19.096 20.349.945-.392 19.096-20.356z"/>
        <path d="M111.804 195.482l-19.096 20.349.945-.392 19.096-20.356z" opacity=".2" fill="#000"/>
        <path fill="#F2F2F2" d="M110.446 194.558l-19.089 20.356 1.351.917 19.096-20.349z"/>
        <path d="M110.446 194.558l-19.089 20.356 1.351.917 19.096-20.349z" opacity=".1" fill="#000"/>
        <path fill="#F2F2F2" d="M110.047 193.242l-19.096 20.356.406 1.316 19.089-20.356z"/>
        <path fill="#9D9E9F" d="M110.446 194.558l1.358.924.945-.399-.399-1.309-1.351-.924-.952.392z"/>
        <path fill="#EF6696" d="M113.421 194.187l-4.753 5.103 1.12-.525 4.753-5.103z"/>
        <path fill="#EF6696" d="M111.741 193.144l-4.753 5.11 1.68 1.036 4.753-5.103z"/>
        <path fill="#EF6696" d="M111.188 191.583l-4.746 5.11.546 1.561 4.753-5.11z"/>
        <path fill="#EF6696" d="M111.741 193.144l1.68 1.043 1.12-.525-.553-1.561-1.666-1.036-1.134.518z"/>
        <path d="M113.421 194.187l-4.753 5.103 1.12-.525 4.753-5.103z" opacity=".2" fill="#000"/>
        <path d="M111.741 193.144l-4.753 5.11 1.68 1.036 4.753-5.103z" opacity=".1" fill="#000"/>
        <path d="M111.741 193.144l1.68 1.043 1.12-.525-.553-1.561-1.666-1.036-1.134.518z" opacity=".15" fill="#000"/>
        <path d="M104.881 204.211s-2.681.651-4.277-2.303c-.826-1.533-8.827 8.701-7.364 9.268 1.463.567 4.613 2.562 7.483.98l4.158-7.945z" fill="#FCCEAE"/>
        <path d="M96.327 200.851s5.838-2.191 6.363-2.457c.525-.266 1.743-.658-.07 1.834a9.275 9.275 0 0 1-4.564 3.234s-3.612.007-1.729-2.611zM66.052 185.304c23.59 9.429 28.574 14.7 28.574 14.7L90.58 210l-37.947-12.236" fill="#FCCEAE"/>
        <circle fill="#FFF" transform="rotate(-6.4 65.52 139.834)" cx="65.52" cy="139.834" r="13.531"/>
        <path d="M50.456 197.666a4.046 4.046 0 0 0 5.6 1.176l16.1-10.5a4.053 4.053 0 0 0 1.176-5.6l-2.45-3.85a4.046 4.046 0 0 0-5.6-1.183l-16.1 10.5a4.053 4.053 0 0 0-1.183 5.6l2.457 3.857z" fill="#FFF"/>
        <path fill="#2B90FF" d="M83.706 142.772v4.893l-12.152 2.898v-5.278z"/>
        <path fill="#FFF" d="M82.467 144.746l.063 1.568-9.772 2.254-.063-1.701z"/>
    </g>
</svg>
