<svg width="122" height="339" viewBox="0 0 122 339" xmlns="http://www.w3.org/2000/svg">
    <g fill-rule="nonzero" fill="none">
        <g transform="translate(17 14)">
            <path d="M10.875 8.398c0-1.806-1.19-2.8-2.947-2.8-1.631 0-2.8.833-4.004 2.023L.361 4.366A10.416 10.416 0 0 1 8.369.362c4.97 0 8.708 2.331 8.708 7.525 0 5.453-6.601 7.084-6.069 12.313H5.331c-.875-5.999 5.544-8.505 5.544-11.802zm-2.73 14.385a4.074 4.074 0 1 1 .343 8.14 4.074 4.074 0 0 1-.343-8.14z" fill="#2B90FF"/>
            <path d="M32.603 294.096c-13.86 8.057-16.303 19.817-5.432 26.138 10.871 6.321 31.108 4.9 44.961-3.157 13.853-8.057 16.303-19.817 5.432-26.138-10.871-6.321-31.108-4.9-44.961 3.157z" fill-opacity=".15" fill="#000"/>
            <path d="M87.273 96.969c2.205 4.683 8.981 15.967 16.877 41.727l-23.233 1.701-13.706-35.336" fill="#FFF"/>
            <circle fill="#E9E9EA" cx="77.543" cy="101.764" r="10.843"/>
            <path d="M39.722 311.197c2.933 2.933 6.489 4.137 7.938 2.681 1.449-1.456.259-5.012-2.674-7.945-2.933-2.933-6.489-4.137-7.945-2.688-.882.875-.812 3.171-.812 4.053.497.917 2.331 2.702 3.493 3.899z" fill="#45464A"/>
            <path d="M39.75 308.145c1.918 1.827 4.2 2.541 5.117 1.589.917-.952.084-3.199-1.834-5.033-1.918-1.834-4.2-2.541-5.117-1.596-.917.945-.084 3.206 1.834 5.04z" fill="#FCCEAE"/>
            <path d="M66 296.161c2.8 2.8 6.23 3.976 7.63 2.576 1.4-1.4.245-4.809-2.569-7.63-2.814-2.821-6.23-3.976-7.63-2.576-.84.84-.784 3.045-.784 3.892.455.875 2.226 2.625 3.353 3.738z" fill="#45464A"/>
            <path d="M66 293.2c1.848 1.764 4.046 2.443 4.9 1.533.854-.91.084-3.073-1.757-4.837-1.841-1.764-4.046-2.443-4.9-1.526-.854.917-.077 3.122 1.757 4.83z" fill="#FCCEAE"/>
            <path d="M35.06 256.226s-6.86-41.72-10.535-68.467l57.575-10.85c.273 13.006.868 37.709-.588 55.65C79.3 259.6 70.13 290.701 70.13 290.701c-.203 0-1.295 1.82-3.5 1.813-2.422 0-4.109-.777-4.109-1.918l.98-43.358-4.739-36.883s-2.296 27.503-3.997 42.189-10.388 52.5-10.388 52.5c0 1.54-1.12 3.143-3.745 3.143s-4.41-2.296-4.424-2.296h-1.169l.021-49.665z" fill="#10355D"/>
            <path d="M18.631 123.016c.329-3.332.7-6.489 1.267-9.471 1.827-8.946 5.236-14.28 12.677-20.216a25.025 25.025 0 0 1 3.255-2.149c9.492-5.355 27.58-9.52 39.375-4.977 15.505 5.971 15.442 24.332 15.442 24.29v54.551c0 7.462.476 16.037-9.555 25.102-5.985 5.446-21.336 14.546-33.936 17.248a27.3 27.3 0 0 1-9.191.56c-16.366-2.296-19.362-11.69-19.362-23.625-.021-12.775.028-61.313.028-61.313z" fill="#FFF"/>
            <path d="M18.631 123.016c.329-3.332.7-6.489 1.267-9.471a41.23 41.23 0 0 1 1.505-5.516A8.75 8.75 0 0 1 27.5 105.6c4.2 0 7.049 2.905 7.966 6.804l-.371 1.68v70.749c0 9.373.7 20.44 9.219 22.974-.175 0-.049.049-.231.07-.182.021-.182.042-.357.063l-.455.056-.518.049h-.455c-.329 0-.644-.378-.966-.371-.091 0-.168-.406-.252-.406h-.77c-.119 0-.238.399-.35.399-.238 0-.469.189-.7.168-.105 0-.21.091-.308.084a6.202 6.202 0 0 1-.959-.049c-16.366-2.296-19.376-11.669-19.376-23.604-.028-12.74.014-61.25.014-61.25z" fill="#000" opacity=".1"/>
            <path d="M43.32 207.996l.532-.056-.532.056z" fill="#FFF"/>
            <path d="M37.958 207.961zM39.232 208.08h.7-.7zM43.852 207.94l.504-.063-.504.063zM41.318 208.129c.322 0 .646-.014.973-.042l-.973.042zM42.76 208.052l.56-.049-.56.049z" fill="#000" opacity=".1"/>
            <path d="M75.8 55.956c2.331 4.9 1.778 9.87-4.837 15.533L69.5 60.744 53.743 62.9l1.225 9.1-2.674 9.38s-3.262-1.813-5.516-6.671C43.81 68.346 43.761 63.6 44.3 60.1c.329-2.065 2.66-8.232 8.4-11.074 5.74-2.842 15.12-2.422 17.08-1.855 2.695.784 3.276 2.555 2.667 3.892.028.014 5.096 1.337 3.353 4.893z" fill="#424242"/>
            <path d="M50.222 71.461l17.689 9.275v7.427h-.168c-.042 1.288-.77 3.5-2.478 4.452-3.5 2.009-9.352 1.113-12.803-.889-1.666-.966-2.345-2.226-2.394-3.5 0-.035.154-.056.154-.056V71.461z" fill="#FCCEAE"/>
            <path d="M50.222 70.852h17.689v17.311h-.168a6.167 6.167 0 0 1-2.716 4.557c-3.5 2.009-9.1 1.008-12.6-.994-1.666-.966-2.345-2.226-2.394-3.5 0-.035.154-.056.154-.056l.035-17.318z" fill="#392517" opacity=".08"/>
            <path d="M50.222 64.384l17.689 9.275V81.1h-.168c-.042 1.288-.987 2.576-2.695 3.563-3.5 2.009-9.1 2.009-12.6 0-1.666-.966-2.345-2.226-2.394-3.5 0-.035.154-.063.154-.063l.014-16.716z" fill="#683D1E" opacity=".05"/>
            <path d="M49.802 71.895c.343 8.533 6.006 17.234 12.551 16.968 6.545-.266 11.501-9.38 11.158-17.913-.133-3.339 0-7.84-1.505-10.311-2.31-3.843-7-4.83-10.969-4.669-6.545.266-11.578 7.392-11.235 15.925z" fill="#FCCEAE"/>
            <path d="M74.456 59.624c-13.489-7.147-19.488 3.339-19.488 3.339l-.812 9.142-5.943.623-1.274-14.861 27.076-4.438.441 6.195z" fill="#424242"/>
            <circle fill="#FCCEAE" transform="rotate(-4.61 52.005 72.525)" cx="52.005" cy="72.525" r="2.184"/>
            <path fill="#10355D" d="M67.47 128.259l1.099 7.749-12.362 8.918 1.064-9.317zM69.451 142.217l-2.352 5.495-8.505 6.125-2.996-3.619.343-3.017 12.901-9.296zM60.561 99.251l-.658-1.673 2.408-3.388 2.415.504-.511 1.918zM66.091 118.613l1.106 7.756-9.66 6.965 1.064-9.317zM64.719 108.967l1.106 7.756-6.965 5.019 1.071-9.317z"/>
            <path fill="#4C4C4C" d="M65.797 150.736l-3.339 7.777-2.786-3.367z"/>
            <path fill="#10355D" d="M61.191 100.875l2.352-1.687-.14.518 1.05 7.371-4.263 3.073 1.05-9.149z"/>
            <path d="M68.471 87.673l-.315 10.031-5.712-3.017-5.544 5.971-8.022-9.583s-1.729-2.212-.931-4.039a5.67 5.67 0 0 1 1.89-1.883s2.639 5.061 12.404 7.931c0 0 4.2-3.08 4.725-5.901 0 0 .427-.385.966-.966.32.42.508.928.539 1.456z" fill="#DBDBDA"/>
            <path fill="#10355D" d="M66.049 131.962l-1.582-1.323-6.062 35.07 1.582 1.316 24.899-9.24 6.055-35.084z"/>
            <path fill="#10355D" d="M90.941 122.701l-24.892 9.261-6.062 35.063 24.899-9.24z"/>
            <path fill="#FFF" d="M89.366 121.385l-24.899 9.254 1.582 1.323 24.892-9.261z"/>
            <path fill="#78BFFF" d="M67.715 137.156l-1.582-1.323-6.055 35.07 1.575 1.316 24.899-9.247 6.055-35.07z"/>
            <path fill="#2B90FF" d="M92.607 127.902l-24.892 9.254-6.062 35.063 24.899-9.247z"/>
            <path fill="#FFF" d="M91.032 126.572l-24.899 9.261 1.582 1.323 24.892-9.254z"/>
            <path d="M69.745 155.692s-6.013 1.904-7.812 2.212c-1.148.196-1.925.35-2.8.476-1.162.182-1.708.336-1.806.791-.098.455.077 1.085 2.457.777a10.073 10.073 0 0 1-4.725-.287c-1.708-.609-3.654-1.743-4.116-1.022-.462.721.7 1.652.7 1.652s-.98.595.483 1.743c0 0-.77.539.952 1.603 0 0-.441.903 1.561 1.701s9.555 3.5 19.712-.7l-4.606-8.946z" fill="#FCCEAE"/>
            <path d="M99.936 149.889c-20.3 12.6-28.616 16.317-28.616 16.317l-4.347-9.443L91.2 134.958" fill="#FFF"/>
            <circle fill="#FFF" transform="rotate(-23.19 96.057 142.126)" cx="96.057" cy="142.126" r="8.652"/>
            <path d="M20.787 109.247c-4.669 13.685-5.096 34.853-4.074 53.053l17.99-.105 12.089-45.724" fill="#FFF"/>
            <path d="M59.427 172.044l-4.312 9.394c.098.056 7.861 5.6 13.44 6.02 4.711.35 3.64-1.463 3.64-1.463 2.576-.294.539-2.905.539-2.905 2.1-.539.42-2.583.42-2.583a1.645 1.645 0 0 0 .784-1.946v-.161a5.383 5.383 0 0 0-2.394-2.17 2.863 2.863 0 0 0-3.437.343 71.477 71.477 0 0 1-8.68-4.529z" fill="#FCCEAE"/>
            <path fill="#F2F2F2" d="M79.804 169.482l-19.096 20.349.945-.392 19.096-20.356z"/>
            <path d="M79.804 169.482l-19.096 20.349.945-.392 19.096-20.356z" opacity=".2" fill="#000"/>
            <path fill="#F2F2F2" d="M78.446 168.558l-19.089 20.356 1.351.917 19.096-20.349z"/>
            <path d="M78.446 168.558l-19.089 20.356 1.351.917 19.096-20.349z" opacity=".1" fill="#000"/>
            <path fill="#F2F2F2" d="M78.047 167.242l-19.096 20.356.406 1.316 19.089-20.356z"/>
            <path fill="#9D9E9F" d="M78.446 168.558l1.358.924.945-.399-.399-1.309-1.351-.924-.952.392z"/>
            <path fill="#EF6696" d="M81.421 168.187l-4.753 5.103 1.12-.525 4.753-5.103z"/>
            <path fill="#EF6696" d="M79.741 167.144l-4.753 5.11 1.68 1.036 4.753-5.103z"/>
            <path fill="#EF6696" d="M79.188 165.583l-4.746 5.11.546 1.561 4.753-5.11z"/>
            <path fill="#EF6696" d="M79.741 167.144l1.68 1.043 1.12-.525-.553-1.561-1.666-1.036-1.134.518z"/>
            <path d="M81.421 168.187l-4.753 5.103 1.12-.525 4.753-5.103z" opacity=".2" fill="#000"/>
            <path d="M79.741 167.144l-4.753 5.11 1.68 1.036 4.753-5.103z" opacity=".1" fill="#000"/>
            <path d="M79.741 167.144l1.68 1.043 1.12-.525-.553-1.561-1.666-1.036-1.134.518z" opacity=".15" fill="#000"/>
            <path d="M72.881 178.211s-2.681.651-4.277-2.303c-.826-1.533-8.827 8.701-7.364 9.268 1.463.567 4.613 2.562 7.483.98l4.158-7.945z" fill="#FCCEAE"/>
            <path d="M64.327 174.851s5.838-2.191 6.363-2.457c.525-.266 1.743-.658-.07 1.834a9.275 9.275 0 0 1-4.564 3.234s-3.612.007-1.729-2.611zM34.052 159.304c23.59 9.429 28.574 14.7 28.574 14.7L58.58 184l-37.947-12.236" fill="#FCCEAE"/>
            <circle fill="#FFF" transform="rotate(-6.4 33.52 113.834)" cx="33.52" cy="113.834" r="13.531"/>
            <path d="M18.456 171.666a4.046 4.046 0 0 0 5.6 1.176l16.1-10.5a4.053 4.053 0 0 0 1.176-5.6l-2.45-3.85a4.046 4.046 0 0 0-5.6-1.183l-16.1 10.5a4.053 4.053 0 0 0-1.183 5.6l2.457 3.857zM50.467 118.746l.063 1.568-9.772 2.254-.063-1.701z" fill="#FFF"/>
        </g>
        <path d="M48.202 60.676c13.666-7.587 19.872-23.922 14.691-38.67C57.712 7.26 42.653-1.604 27.244 1.024 11.836 3.65.566 17.004.565 32.636c0 0-1.277 38.581 48.32 38.124 0 0-3.848-1.871-3.538-5.771a5.505 5.505 0 0 1 2.855-4.313z" fill="#FFF"/>
        <path d="M48.744 31.601h-3.453a1.187 1.187 0 0 0 0 2.369h3.448a1.187 1.187 0 0 0 0-2.369h.005zM19.975 31.601h-3.448a1.187 1.187 0 0 0 0 2.369h3.448a1.187 1.187 0 0 0 0-2.369zM32.636 21.314a1.187 1.187 0 0 0 1.181-1.187V16.68a1.184 1.184 0 1 0-2.368 0v3.447a1.181 1.181 0 0 0 1.175 1.187h.012zM44.861 20.557a1.181 1.181 0 0 0-1.695 0l-2.436 2.436a1.199 1.199 0 1 0 1.695 1.696l2.436-2.436a1.187 1.187 0 0 0 0-1.696zM24.525 23.004l-2.436-2.436a1.199 1.199 0 0 0-1.696 1.696l2.436 2.436a1.199 1.199 0 0 0 1.696-1.696zM32.63 24.304a8.478 8.478 0 0 0-4.934 15.374v2.956c0 .871.706 1.577 1.577 1.577h6.72c.871 0 1.577-.706 1.577-1.577v-2.95a8.478 8.478 0 0 0-4.934-15.38h-.006zM32.63 49.174a2.962 2.962 0 0 0 2.979-2.94h-5.935a2.962 2.962 0 0 0 2.956 2.94z" fill="#FFB522"/>
    </g>
</svg>
