<svg width="250" height="289" viewBox="0 0 250 289" xmlns="http://www.w3.org/2000/svg">
    <g transform="matrix(-1 0 0 1 250 0)" fill-rule="nonzero" fill="none">
        <path fill="#2B90FF" d="M227.46 119.888L77.32 32.64l-7.601 4.686-29.988 157.02 150.138 87.248 60.073-34.891z"/>
        <path fill="#FFF" d="M83.602 36.135l-8.009 4.683L51.626 166.34l138.2 80.27 24.02-125.527 7.947-4.686z"/>
        <path fill="#000" opacity=".2" d="M249.943 246.703L227.46 119.888l-7.54 4.687-30.05 157.02z"/>
        <path fill="#000" opacity=".2" d="M223.057 126.786l2.236-1.325 20.788 119.437-51.337 29.827z"/>
        <path fill="#000" opacity=".2" d="M246.061 244.788l-20.768-119.327-2.236 1.325-18.02 94.167z"/>
        <g fill="#D3D3D3">
            <path d="M89.467 99.695l-16.073-9.28-3.211 16.637 16.069 9.276 3.215-16.633"/>
            <path opacity=".4" d="M107.618 110.174l-16.073-9.28-3.216 16.633 16.073 9.28 3.216-16.633M125.764 120.648l-16.069-9.275-3.215 16.632 16.069 9.276 3.215-16.633M143.915 131.131l-16.07-9.28-3.215 16.633 16.07 9.276 3.215-16.629M162.065 141.606l-16.073-9.28-3.212 16.637 16.07 9.28 3.215-16.637M180.211 152.085l-16.069-9.28-3.215 16.633 16.073 9.28 3.211-16.633M198.362 162.564l-16.073-9.28-3.216 16.633 16.077 9.283 3.212-16.636"/>
            <path d="M85.841 118.437l-16.065-9.275-3.215 16.636 16.07 9.28 3.21-16.64"/>
            <path opacity=".4" d="M103.996 128.92l-16.073-9.28-3.216 16.637 16.073 9.28 3.216-16.637M122.138 139.395l-16.069-9.276-3.207 16.637 16.065 9.276 3.211-16.637M140.293 149.874l-16.073-9.28-3.216 16.637 16.073 9.28 3.216-16.637M158.439 160.352l-16.065-9.275-3.22 16.636 16.07 9.276 3.215-16.637M176.585 170.831l-16.065-9.276-3.22 16.633 16.074 9.28 3.211-16.637M194.736 181.31l-16.061-9.276-3.224 16.633 16.073 9.28 3.212-16.637"/>
            <path d="M82.224 137.184l-16.065-9.272-3.216 16.637 16.07 9.275 3.21-16.64"/>
            <path opacity=".4" d="M100.374 147.662l-16.07-9.275-3.21 16.64 16.06 9.272 3.22-16.637M118.52 158.141l-16.065-9.276-3.215 16.641 16.069 9.276 3.211-16.64M136.67 168.62l-16.064-9.276-3.216 16.637 16.07 9.28 3.21-16.641M154.821 179.099l-16.069-9.28-3.211 16.64 16.069 9.28 3.211-16.64M172.967 189.573l-16.065-9.275-3.215 16.64 16.073 9.28 3.207-16.645M191.118 200.052l-16.07-9.275-3.215 16.64 16.074 9.276 3.21-16.64"/>
            <path d="M78.598 155.93l-16.061-9.276-3.224 16.633 16.073 9.28 3.212-16.637"/>
            <path opacity=".4" d="M96.744 166.405l-16.065-9.276-3.216 16.637 16.07 9.28 3.21-16.641M114.894 176.883l-16.06-9.271-3.224 16.633 16.073 9.28 3.211-16.642M133.045 187.362l-16.065-9.275-3.22 16.636 16.073 9.28 3.212-16.64M151.191 197.841l-16.06-9.276-3.22 16.637 16.073 9.28 3.207-16.641M169.341 208.32l-16.065-9.276-3.22 16.633 16.074 9.28 3.211-16.637M187.492 218.799l-16.061-9.276-3.224 16.633 16.073 9.28 3.212-16.637"/>
        </g>
        <path d="M208.626 104.682a10.498 10.498 0 0 1-.752 3.658l3.341 1.947a10.36 10.36 0 0 0 .752-3.658c0-1.817-.646-3.093-1.682-3.69-1.037-.598-2.342-1.362-3.342-1.94 1.033.59 1.679 1.866 1.683 3.683z" fill="#8C8C8C"/>
        <path d="M206.943 100.991c-1.053-.617-2.52-.524-4.126.407-3.191 1.845-5.789 6.316-5.776 9.975 0 1.817.65 3.105 1.69 3.71l3.35 1.94c-1.044-.606-1.69-1.886-1.699-3.711 0-3.659 2.585-8.13 5.777-9.98 1.626-.926 3.073-1.011 4.126-.406l-3.342-1.935z" fill="#ADADAD"/>
        <path d="M195.191 96.858a10.437 10.437 0 0 1-.752 3.658l3.341 1.947c.468-1.165.723-2.404.753-3.658 0-1.817-.65-3.094-1.683-3.7-1.033-.605-2.342-1.353-3.342-1.938 1.033.606 1.679 1.878 1.683 3.69z" fill="#8C8C8C"/>
        <path d="M193.496 93.167c-1.061-.614-2.52-.528-4.13.406-3.183 1.834-5.785 6.305-5.777 9.971 0 1.821.659 3.106 1.7 3.711l3.341 1.939c-1.04-.606-1.683-1.886-1.691-3.711 0-3.658 2.577-8.13 5.768-9.975 1.626-.927 3.073-1.02 4.13-.406l-3.341-1.935z" fill="#ADADAD"/>
        <path d="M181.752 89.045a10.356 10.356 0 0 1-.752 3.659l3.35 1.938c.462-1.165.716-2.404.748-3.658 0-1.817-.65-3.093-1.691-3.69l-3.326-1.935c1.025.593 1.663 1.87 1.671 3.686z" fill="#8C8C8C"/>
        <path d="M180.081 85.359c-1.06-.61-2.52-.525-4.13.406-3.19 1.841-5.784 6.317-5.776 9.979 0 1.817.658 3.097 1.699 3.703l3.341 1.939c-1.044-.606-1.69-1.89-1.699-3.703 0-3.658 2.586-8.13 5.777-9.979 1.626-.927 3.073-1.012 4.126-.406l-3.338-1.94z" fill="#ADADAD"/>
        <path d="M168.317 81.22a10.356 10.356 0 0 1-.752 3.659l3.342 1.947c.468-1.164.723-2.403.752-3.658 0-1.817-.647-3.085-1.683-3.691-1.037-.606-2.342-1.354-3.342-1.939 1.033.594 1.659 1.87 1.683 3.683z" fill="#8C8C8C"/>
        <path d="M166.634 77.53c-1.053-.618-2.52-.528-4.126.407-3.19 1.84-5.788 6.316-5.776 9.978 0 1.817.65 3.106 1.69 3.711l3.35 1.94c-1.044-.606-1.69-1.89-1.699-3.712 0-3.658 2.586-8.13 5.777-9.979 1.626-.926 3.073-1.012 4.126-.406l-3.342-1.939z" fill="#ADADAD"/>
        <path d="M154.878 73.4a10.51 10.51 0 0 1-.748 3.659l3.342 1.938c.467-1.164.722-2.403.752-3.658 0-1.817-.65-3.093-1.683-3.699-1.033-.605-2.342-1.353-3.342-1.939 1.033.618 1.679 1.882 1.679 3.7z" fill="#8C8C8C"/>
        <path d="M153.2 69.71c-1.062-.61-2.521-.525-4.127.406-3.19 1.83-5.788 6.3-5.776 9.959 0 1.82.65 3.105 1.69 3.71l3.342 1.94c-1.04-.606-1.683-1.89-1.69-3.703 0-3.659 2.585-8.13 5.768-9.98 1.626-.926 3.073-1.02 4.13-.406l-3.338-1.926z" fill="#ADADAD"/>
        <path d="M141.443 65.584a10.356 10.356 0 0 1-.752 3.658l3.35 1.939c.462-1.166.716-2.404.748-3.658 0-1.817-.65-3.093-1.691-3.691l-3.338-1.947c1.037.61 1.675 1.886 1.683 3.699z" fill="#8C8C8C"/>
        <path d="M139.764 61.89c-1.06-.615-2.52-.53-4.13.406-3.19 1.84-5.784 6.316-5.776 9.978 0 1.817.658 3.098 1.699 3.703l3.341 1.94c-1.044-.606-1.69-1.887-1.699-3.704 0-3.658 2.586-8.13 5.777-9.979 1.626-.926 3.073-1.012 4.126-.406l-3.338-1.939z" fill="#ADADAD"/>
        <path d="M128.008 57.861a10.356 10.356 0 0 1-.752 3.658l3.342 1.947a10.36 10.36 0 0 0 .752-3.658c0-1.817-.647-3.093-1.683-3.69l-3.342-1.94c1.04.594 1.675 1.87 1.683 3.683z" fill="#8C8C8C"/>
        <path d="M126.325 54.17c-1.053-.618-2.52-.524-4.126.407-3.19 1.841-5.788 6.316-5.776 9.979 0 1.816.65 3.105 1.699 3.71l3.341 1.94c-1.044-.606-1.69-1.887-1.699-3.712 0-3.658 2.586-8.129 5.777-9.978 1.626-.927 3.073-1.013 4.126-.407l-3.342-1.939z" fill="#ADADAD"/>
        <path d="M114.573 50.138a10.446 10.446 0 0 1-.748 3.658l3.342 1.947c.467-1.164.722-2.403.752-3.658 0-1.817-.65-3.093-1.683-3.699-1.033-.605-2.342-1.353-3.342-1.939 1.029.606 1.675 1.878 1.68 3.691z" fill="#8C8C8C"/>
        <path d="M112.89 46.447c-1.053-.613-2.52-.528-4.126.407-3.19 1.837-5.788 6.308-5.776 9.975 0 1.82.65 3.105 1.69 3.71l3.342 1.94c-1.04-.606-1.683-1.887-1.69-3.708 0-3.658 2.585-8.129 5.768-9.974 1.626-.927 3.073-1.02 4.13-.407l-3.338-1.943z" fill="#ADADAD"/>
        <path d="M101.134 42.326a10.356 10.356 0 0 1-.752 3.658l3.35 1.939c.465-1.165.719-2.404.748-3.658 0-1.817-.65-3.094-1.691-3.691l-3.334-1.96c1.033.618 1.68 1.895 1.68 3.712z" fill="#8C8C8C"/>
        <path d="M99.455 38.615c-1.06-.61-2.52-.525-4.13.406-3.183 1.841-5.784 6.317-5.776 9.979 0 1.817.658 3.097 1.699 3.703l3.341 1.939c-1.04-.606-1.69-1.89-1.699-3.703 0-3.658 2.586-8.13 5.777-9.979 1.626-.927 3.073-1.012 4.126-.407l-3.338-1.938z" fill="#ADADAD"/>
        <g fill="#2B90FF">
            <path d="M96.488 112.625a85.745 85.745 0 0 0-5.212 1.41c-.72.22-.268 1.764.407 2.154.137.087.304.11.46.065a86.582 86.582 0 0 1 5.796-1.544c-.482-.697-.966-1.392-1.451-2.085m7.723-1.321a.675.675 0 0 0-.443-.098c-1.97.3-3.904.66-5.8 1.077.485.697.968 1.396 1.45 2.098a89.9 89.9 0 0 1 5.204-.952c.785-.121.305-1.703-.407-2.125"/>
            <path d="M91.87 103.942c-.711-.406-1.187.61-.427 1.647a408.755 408.755 0 0 1 6.496 9.12 386.83 386.83 0 0 1 5.472 8.13c.141.231.335.426.565.57.715.406 1.341-.236.662-1.269a449.335 449.335 0 0 0-6.662-9.845c-1.86-2.663-3.746-5.3-5.659-7.91a1.537 1.537 0 0 0-.451-.43"/>
        </g>
        <g fill="#2B90FF">
            <path d="M107.057 160.38a86.639 86.639 0 0 0-5.211 1.407c-.716.22-.265 1.764.406 2.154a.57.57 0 0 0 .46.07 86.902 86.902 0 0 1 5.792-1.545c-.482-.696-.966-1.392-1.451-2.085m7.723-1.321a.675.675 0 0 0-.443-.098c-1.967.301-3.9.661-5.796 1.081.485.697.968 1.395 1.45 2.094a89.9 89.9 0 0 1 5.204-.951c.789-.122.309-1.704-.406-2.126"/>
            <path d="M102.439 151.699c-.711-.407-1.187.61-.427 1.646a388.676 388.676 0 0 1 6.496 9.121c1.854 2.68 3.679 5.39 5.476 8.13.142.229.335.422.565.564.715.407 1.341-.231.662-1.268a425.148 425.148 0 0 0-6.666-9.845c-1.86-2.663-3.746-5.3-5.659-7.91a1.537 1.537 0 0 0-.451-.43"/>
        </g>
        <g fill="#2B90FF">
            <path d="M165.996 173.388a88.73 88.73 0 0 0-5.211 1.41c-.72.216-.269 1.76.406 2.15.137.087.304.11.46.066a86.582 86.582 0 0 1 5.796-1.545c-.482-.696-.966-1.392-1.451-2.085m7.724-1.321a.675.675 0 0 0-.448-.098 93.132 93.132 0 0 0-5.792 1.081c.485.697.969 1.395 1.45 2.094a89.9 89.9 0 0 1 5.204-.951c.789-.118.31-1.704-.406-2.122"/>
            <path d="M161.382 164.706c-.711-.407-1.187.61-.406 1.625a413.5 413.5 0 0 1 6.5 9.126 386.83 386.83 0 0 1 5.471 8.13c.143.23.338.425.57.568.715.407 1.34-.236.662-1.268a439.402 439.402 0 0 0-6.663-9.845c-1.859-2.663-3.745-5.3-5.658-7.91a1.54 1.54 0 0 0-.451-.435"/>
        </g>
        <path d="M2.724 158.235c.077 7.901 3.98 12.096 5.069 13.185 1.09 1.09 1.557.545 1.557.545 1.187.813 1.325.17 1.325.17 1.166.61 1.284-.17 1.284-.17s.94.525 1.293 0c.354-.524-.947-1.488-1.83-2.439a7.219 7.219 0 0 1-1.556-3.028c.488 1.65.955 1.594 1.22 1.394.264-.199.21-.638 0-1.418-.155-.594-.273-1.175-.468-1.955-.338-1.269-.78-5.764-.78-5.764l-7.114-.52z" fill="#FFCFAE"/>
        <path d="M12.553 133.558l-2.67 27.339-7.444-.211S-.955 153.95.264 132" fill="#FFF"/>
        <ellipse fill="#FFF" cx="6.463" cy="132.359" rx="6.199" ry="6.199"/>
        <path d="M14.386 260.734c-9.101 5.284-7.069 15.165 4.561 21.93 11.63 6.763 28.614 7.962 37.724 2.65 9.11-5.313 7.073-15.19-4.557-21.95s-28.622-7.914-37.728-2.63z" fill="#D8D8D8"/>
        <path d="M24.362 103.199l-11.789 30.375-12.321-1.309c.7-12.547 2.618-27.014 6.862-36.017" fill="#FFF"/>
        <ellipse fill="#FFF" cx="15.476" cy="100.345" rx="9.317" ry="9.316"/>
        <path d="M51 276.964c0-.756.081-2.703-.7-3.483-1.247-1.22-4.267-.187-6.824 2.337-2.557 2.524-3.586 5.618-2.338 6.833 1.248 1.215 4.31.187 6.825-2.337a23.369 23.369 0 0 0 3.037-3.35z" fill="#081B2F"/>
        <ellipse fill="#FFCFAE" transform="rotate(-43.68 46.538 276.202)" cx="46.538" cy="276.202" rx="4.13" ry="2.04"/>
        <path d="M28.309 264.185c0-.732.053-2.626-.67-3.35-1.22-1.219-4.151-.207-6.574 2.212-2.423 2.418-3.419 5.357-2.211 6.556 1.207 1.2 4.118.228 6.557-2.21a22.385 22.385 0 0 0 2.898-3.208z" fill="#081B2F"/>
        <ellipse fill="#FFCFAE" transform="rotate(-43.68 24.047 263.497)" cx="24.047" cy="263.497" rx="3.963" ry="1.963"/>
        <path d="M50.98 275.11c0 1.306-1.553 2.281-3.801 2.281s-3.216-1.073-3.216-2.398c0 0-7.48-32.465-8.943-45.082-1.463-12.616-3.435-36.248-3.435-36.248l-4.065 31.704.842 37.278c0 .983-1.447 1.682-3.529 1.682-1.87 0-2.805-.646-2.983-1.487 0 0-8-26.827-9.895-50.037-1.252-15.413-.862-36.716-.63-47.894l49.216 9.349c-3.155 23.006-9.557 58.836-9.557 58.836l-.004 42.017z" fill="#9B9B9B"/>
        <path d="M51.309 91.248c-8.183-4.6-23.764-8.17-33.89-4.276-13.33 5.122-13.33 20.873-13.33 20.873v46.93c0 6.419-.35 13.788 8.273 21.576 5.15 4.638 18.313 12.462 29.22 14.8a23.62 23.62 0 0 0 7.914.483c14.06-1.987 16.646-10.064 16.646-20.323 0 0 .691-48.057-1.13-60.84C63.11 97.145 51.317 91.235 51.31 91.247z" fill="#FFF"/>
        <path d="M65.04 110.442c1.826 12.783 1.13 60.832 1.13 60.832 0 10.276-2.577 18.352-16.646 20.324a21.518 21.518 0 0 1-6.028-.15c2.939-1.488 7.447-7.004 7.447-26.897v-51.695s-.536-9.206 7.594-9.206a7.484 7.484 0 0 1 5.467 2.536c.473 1.385.82 2.809 1.037 4.256z" fill="#D8D8D8"/>
        <path d="M64.606 182.334c.06 7.845-3.756 12.13-4.838 13.243-1.081 1.114-1.557.577-1.557.577-1.178.85-1.325.195-1.325.195-1.158.634-1.284-.146-1.284-.146s-.935.484-1.293 0c-.358-.484.919-1.471 1.784-2.439a7.21 7.21 0 0 0 1.472-3.052c-.406 1.658-.935 1.625-1.175 1.418-.24-.207-.195-.597 0-1.41.138-.594.248-1.183.427-1.964.28-1.276.638-5.78.638-5.78l7.15-.642z" fill="#FFCFAE"/>
        <path d="M70.797 150.63c-1.342 22.904-6.793 37.244-6.793 37.244l-7.142.22-1.22-36.46" fill="#FFF"/>
        <ellipse fill="#FFF" transform="rotate(-1.03 63.19 150.656)" cx="63.19" cy="150.656" rx="7.618" ry="7.617"/>
        <path d="M64.183 104.87c4.524 8.872 6.862 21.388 6.862 38.033 0 3.959-.24 7.641-.24 7.641l-14.862 2.476-11.862-39.704" fill="#FFF"/>
        <ellipse fill="#FFF" transform="rotate(-.22 54.384 109.688)" cx="54.384" cy="109.688" rx="10.923" ry="10.922"/>
        <path d="M40.244 72.404c0 .18-.033.358-.033.541v15.133c-.052 1.22-.87 2.439-2.467 3.353-3.317 1.927-8.707 1.927-12.045 0-1.626-.939-2.471-2.195-2.508-3.414v-1.545c-3.593-3.15-5.902-9.218-5.667-15.01.126-3.208 0-7.524 1.443-9.898 2.212-3.679 6.704-4.626 10.525-4.471 6.28.256 11.118 7.1 10.752 15.311z" fill="#FFCFAE"/>
        <path d="M40.215 80.225c5.883-9.755 4.378-21.315 4.378-21.315-1.353-10.304-16.52-9.085-16.52-9.085-5.036-.049-8.012 2.317-9.813 7.08-1.8 4.765-.667 12.528-.667 12.528.04-2.17.333-4.328.87-6.43 5.44 2.898 14.948 1.752 14.948 1.752l.573 3.658s1.085.252 1.085 4.93c0 .842-.447 3.797-.447 3.797l1.5-.488.24-4.097c.215-1.016.906-1.764 1.971-1.679 0 0 1.968.232 1.403 2.805a24.846 24.846 0 0 0-.606 3.386c.008-.033 1.081 3.154 1.085 3.158z" fill="#424242"/>
        <path d="M40.22 72.945v15.133c-.053 1.22-.87 2.439-2.468 3.353-3.317 1.927-8.707 1.927-12.045 0-1.626-.939-2.471-2.195-2.508-3.414v-1.528a8.13 8.13 0 0 0 5.037 2.182c6.142.248 11.475-7.73 11.984-15.726z" fill="#3A2416" opacity=".08"/>
        <ellipse fill="#2B90FF" cx="32.598" cy="19.596" rx="19.598" ry="19.596"/>
        <path d="M32.61 28.233a8.594 8.594 0 0 0 6.097-2.508.701.701 0 1 0-.98-1.004 7.257 7.257 0 0 1-12.381-5.13c0-.298.02-.597.056-.893a.692.692 0 0 0-1.374-.171 8.65 8.65 0 0 0 8.581 9.706zM40.508 21.193a.691.691 0 0 0 .687-.613A8.658 8.658 0 0 0 26.5 13.466a.693.693 0 1 0 .98.98A7.265 7.265 0 0 1 39.8 20.42a.691.691 0 0 0 .607.768l.101.004z" fill="#FFF"/>
        <path d="M40.772 22.01l2.756-4.125a.691.691 0 1 0-1.097-.842l-.049.078-1.866 2.796-2.46-2.236a.691.691 0 0 0-.93 1.017l3.646 3.312zM22.211 21.888a.691.691 0 0 0 .578-.304l1.861-2.789 2.468 2.211a.691.691 0 1 0 .93-1l-3.658-3.3-2.752 4.122a.69.69 0 0 0 .573 1.073v-.013z" fill="#FFF"/>
    </g>
</svg>
