<svg width="462" height="453" viewBox="0 0 462 453" xmlns="http://www.w3.org/2000/svg">
    <g fill="none" fill-rule="evenodd">
        <path d="M35.06 224.2a.73.73 0 0 0-.36-.08c-.28 0-.5.13-.5.29v1.16a.25.25 0 0 0 .15.21.73.73 0 0 0 .36.08c.27 0 .5-.13.5-.29v-1.17a.24.24 0 0 0-.14-.2m0 3.48a.73.73 0 0 0-.36-.08c-.27 0-.49.13-.49.29V229a.25.25 0 0 0 .15.21.73.73 0 0 0 .36.08c.27 0 .5-.13.49-.29v-1.16a.25.25 0 0 0-.15-.21m0 3.47a.7.7 0 0 0-.35-.08c-.28 0-.5.13-.5.29v1.16a.26.26 0 0 0 .15.2.71.71 0 0 0 .35.08c.28 0 .5-.13.5-.29v-1.16a.24.24 0 0 0-.14-.2m0 3.48a.74.74 0 0 0-.35-.09c-.28 0-.5.13-.5.29V236a.25.25 0 0 0 .15.21.73.73 0 0 0 .36.08c.27 0 .5-.13.5-.29v-1.16a.27.27 0 0 0-.15-.2m0 3.47a.73.73 0 0 0-.36-.08c-.27 0-.5.13-.49.29v1.16a.24.24 0 0 0 .14.2.73.73 0 0 0 .36.08c.27 0 .5-.13.49-.29v-1.17a.25.25 0 0 0-.15-.21m0 3.48a.73.73 0 0 0-.36-.08c-.28 0-.5.13-.5.29v1.16a.25.25 0 0 0 .15.21.73.73 0 0 0 .36.08c.27 0 .5-.13.5-.29v-1.16a.24.24 0 0 0-.14-.2m0 3.48a.73.73 0 0 0-.36-.08c-.27 0-.49.13-.49.29v1.16a.25.25 0 0 0 .15.21.73.73 0 0 0 .36.08c.27 0 .5-.13.49-.29v-1.16a.25.25 0 0 0-.15-.21m0 3.47a.7.7 0 0 0-.35-.08c-.28 0-.5.13-.5.29v1.16a.26.26 0 0 0 .15.2.71.71 0 0 0 .35.08c.28 0 .5-.13.5-.29v-1.16a.24.24 0 0 0-.14-.2m0 3.48a.74.74 0 0 0-.35-.09c-.28 0-.5.13-.5.29v1.16a.25.25 0 0 0 .15.21.73.73 0 0 0 .36.08c.27 0 .5-.13.5-.29v-1.16a.27.27 0 0 0-.15-.2m0 3.47a.7.7 0 0 0-.35-.08c-.27 0-.5.13-.49.29v1.16a.24.24 0 0 0 .14.2.7.7 0 0 0 .35.08c.27 0 .5-.13.49-.29v-1.16a.25.25 0 0 0-.15-.21m0 3.48a.73.73 0 0 0-.36-.08c-.28 0-.5.13-.5.29v1.16a.25.25 0 0 0 .15.21.73.73 0 0 0 .36.08c.27 0 .5-.13.5-.29v-1.16a.24.24 0 0 0-.14-.2m0 3.48a.73.73 0 0 0-.36-.08c-.27 0-.49.13-.49.29v1.16a.25.25 0 0 0 .15.21.73.73 0 0 0 .36.08c.27 0 .5-.13.49-.29v-1.16a.25.25 0 0 0-.15-.21m0 3.47a.7.7 0 0 0-.35-.08c-.28 0-.5.13-.5.29v1.16a.26.26 0 0 0 .15.2.71.71 0 0 0 .35.08c.28 0 .5-.13.5-.29v-1.16a.24.24 0 0 0-.14-.2m0 3.48a.74.74 0 0 0-.35-.09c-.28 0-.5.13-.5.29v1.16a.25.25 0 0 0 .15.21.73.73 0 0 0 .36.08c.28 0 .5-.13.49-.29v-1.16a.26.26 0 0 0-.15-.2m0 3.47a.7.7 0 0 0-.35-.08c-.27 0-.5.13-.49.29v1.16a.24.24 0 0 0 .14.2.7.7 0 0 0 .35.08c.27 0 .5-.13.49-.29v-1.16a.25.25 0 0 0-.15-.21m0 3.48a.73.73 0 0 0-.36-.08c-.28 0-.5.13-.5.29v1.16a.25.25 0 0 0 .15.21.73.73 0 0 0 .36.08c.27 0 .5-.13.5-.29v-1.16a.24.24 0 0 0-.14-.2m0 3.48a.73.73 0 0 0-.36-.08c-.27 0-.49.13-.49.29v1.16a.25.25 0 0 0 .15.21.73.73 0 0 0 .36.08c.27 0 .5-.13.49-.29V280a.25.25 0 0 0-.15-.21m0 3.47a.7.7 0 0 0-.35-.08c-.28 0-.5.13-.5.29v1.16a.26.26 0 0 0 .15.2.71.71 0 0 0 .35.08c.28 0 .5-.13.5-.29v-1.16a.24.24 0 0 0-.14-.2m0 3.48a.74.74 0 0 0-.35-.09c-.28 0-.5.13-.5.29v1.16a.25.25 0 0 0 .15.21.73.73 0 0 0 .36.08c.28 0 .5-.13.49-.29V287a.27.27 0 0 0-.15-.2m0 3.47a.7.7 0 0 0-.35-.08c-.27 0-.5.13-.49.29v1.16a.24.24 0 0 0 .14.2.7.7 0 0 0 .35.08c.27 0 .5-.13.49-.29v-1.16a.25.25 0 0 0-.15-.21m0 3.48a.73.73 0 0 0-.36-.08c-.28 0-.5.13-.5.29v1.16a.25.25 0 0 0 .15.21.73.73 0 0 0 .36.08c.27 0 .5-.13.5-.29V294a.25.25 0 0 0-.15-.21m0 3.48a.73.73 0 0 0-.36-.08c-.27 0-.49.13-.49.29v1.16a.25.25 0 0 0 .15.21.73.73 0 0 0 .36.08c.27 0 .5-.13.49-.29v-1.16a.25.25 0 0 0-.15-.21m0 3.47a.7.7 0 0 0-.35-.08c-.28 0-.5.13-.5.29V302a.26.26 0 0 0 .15.2.71.71 0 0 0 .35.08c.28 0 .5-.13.5-.29v-1.16a.24.24 0 0 0-.14-.2m0 3.48a.74.74 0 0 0-.35-.09c-.28 0-.5.13-.5.29v1.16a.25.25 0 0 0 .15.21.73.73 0 0 0 .36.08c.28 0 .5-.13.49-.29v-1.16a.27.27 0 0 0-.15-.2m0 3.47a.7.7 0 0 0-.35-.08c-.27 0-.5.13-.49.29V309a.25.25 0 0 0 .15.2.71.71 0 0 0 .35.09c.28 0 .5-.13.5-.29v-1.16a.25.25 0 0 0-.15-.21m0 3.48a.74.74 0 0 0-.35-.09c-.28 0-.5.13-.5.29v1.16a.25.25 0 0 0 .15.21.73.73 0 0 0 .36.08c.27 0 .5-.13.5-.29v-1.16a.27.27 0 0 0-.15-.2m0 3.47a.73.73 0 0 0-.36-.08c-.27 0-.49.13-.49.29V316a.24.24 0 0 0 .14.2.73.73 0 0 0 .36.08c.27 0 .5-.13.49-.29v-1.16a.25.25 0 0 0-.15-.21m0 3.47a.7.7 0 0 0-.35-.08c-.28 0-.5.13-.5.29v1.16a.26.26 0 0 0 .15.2.71.71 0 0 0 .35.08c.28 0 .5-.13.5-.29v-1.16a.24.24 0 0 0-.14-.2m0 3.48a.74.74 0 0 0-.35-.09c-.28 0-.5.13-.5.29v1.16a.25.25 0 0 0 .15.21.73.73 0 0 0 .36.08c.28 0 .5-.13.49-.29v-1.16a.26.26 0 0 0-.15-.2m0 3.47a.7.7 0 0 0-.35-.08c-.28 0-.5.13-.49.29v1.16a.25.25 0 0 0 .15.2.71.71 0 0 0 .35.09c.28 0 .5-.13.5-.29v-1.21a.25.25 0 0 0-.15-.21m108.05 64.28a.78.78 0 0 0-.71 0l-1.41.82c-.19.11-.19.29 0 .41.22.11.48.11.7 0l1.41-.82a.22.22 0 0 0 0-.41m-108-60.8a.74.74 0 0 0-.35-.09c-.28 0-.5.13-.5.29v1.16a.25.25 0 0 0 .15.21.73.73 0 0 0 .36.08c.27 0 .5-.13.5-.29v-1.16a.26.26 0 0 0-.15-.2m103.8 63.26a.78.78 0 0 0-.71 0l-1.41.82a.22.22 0 0 0 0 .41.78.78 0 0 0 .71 0l1.41-.82a.22.22 0 0 0 0-.41m-103.35-59.8a.73.73 0 0 0-.36-.08c-.27 0-.49.13-.49.29v1.16a.24.24 0 0 0 .14.2.73.73 0 0 0 .36.08c.27 0 .5-.13.49-.29v-1.16a.25.25 0 0 0-.15-.21m0 3.47a.7.7 0 0 0-.35-.08c-.28 0-.5.13-.5.29v1.16a.26.26 0 0 0 .15.2.71.71 0 0 0 .35.08c.28 0 .5-.13.5-.29v-1.16a.24.24 0 0 0-.14-.2m99.53 58.76a.78.78 0 0 0-.71 0l-1.41.82a.22.22 0 0 0 0 .41.78.78 0 0 0 .71 0l1.41-.82a.22.22 0 0 0 0-.41m-99.52-55.29a.74.74 0 0 0-.35-.09c-.27 0-.5.13-.5.29v1.16a.25.25 0 0 0 .15.21.73.73 0 0 0 .36.08c.28 0 .5-.13.49-.29v-1.16a.27.27 0 0 0-.15-.2m95.29 57.75a.78.78 0 0 0-.71 0l-1.41.82c-.19.11-.19.29 0 .41.22.11.48.11.7 0l1.41-.82a.22.22 0 0 0 0-.41m-95.27-54.27a.7.7 0 0 0-.35-.08c-.28 0-.5.13-.49.29v1.16a.25.25 0 0 0 .15.2.71.71 0 0 0 .35.09c.28 0 .5-.13.5-.29v-1.16a.25.25 0 0 0-.15-.21m0 3.48a.74.74 0 0 0-.35-.09c-.28 0-.5.13-.5.29v1.16a.25.25 0 0 0 .15.21.73.73 0 0 0 .36.08c.27 0 .5-.13.5-.29V346a.27.27 0 0 0-.15-.2m91 53.25a.78.78 0 0 0-.71 0l-1.41.82a.22.22 0 0 0 0 .41.78.78 0 0 0 .71 0l1.41-.82a.22.22 0 0 0 0-.41m-91-49.78a.73.73 0 0 0-.36-.08c-.27 0-.5.13-.49.29v1.16a.24.24 0 0 0 .14.2.73.73 0 0 0 .36.08c.27 0 .5-.13.49-.29v-1.16a.25.25 0 0 0-.15-.21m86.77 52.23a.78.78 0 0 0-.71 0l-1.41.82a.22.22 0 0 0 0 .41.78.78 0 0 0 .71 0l1.41-.82a.22.22 0 0 0 0-.41m-86.67-48.7a.73.73 0 0 0-.36-.08c-.28 0-.5.13-.5.29v1.16a.27.27 0 0 0 .15.2.74.74 0 0 0 .35.09c.27 0 .5-.13.5-.29V353a.24.24 0 0 0-.14-.2m0 3.48a.74.74 0 0 0-.35-.09c-.27 0-.5.13-.5.29v1.16a.25.25 0 0 0 .15.21.73.73 0 0 0 .36.08c.28 0 .5-.13.49-.29v-1.16a.26.26 0 0 0-.15-.2m82.5 47.72a.78.78 0 0 0-.71 0l-1.41.82c-.19.11-.19.29 0 .41.22.11.48.11.7 0l1.41-.82a.22.22 0 0 0 0-.41M35.8 359.73a.7.7 0 0 0-.35-.08c-.28 0-.5.13-.49.29v1.16a.25.25 0 0 0 .15.2.71.71 0 0 0 .35.09c.28 0 .5-.13.5-.29v-1.16a.25.25 0 0 0-.15-.21m78.25 46.73a.78.78 0 0 0-.71 0l-1.41.82a.22.22 0 0 0 0 .41.78.78 0 0 0 .71 0l1.41-.82a.22.22 0 0 0 0-.41m-78.23-43.25a.74.74 0 0 0-.35-.09c-.28 0-.5.13-.5.29v1.16a.25.25 0 0 0 .15.21.73.73 0 0 0 .36.08c.27 0 .5-.13.5-.29v-1.16a.26.26 0 0 0-.15-.2m74 45.7a.78.78 0 0 0-.71 0l-1.41.82a.22.22 0 0 0 0 .41.78.78 0 0 0 .71 0l1.41-.82a.22.22 0 0 0 0-.41m-74-42.23a.73.73 0 0 0-.36-.08c-.27 0-.5.13-.49.29v1.16a.24.24 0 0 0 .14.2.73.73 0 0 0 .36.08c.27 0 .5-.13.49-.29v-1.16a.25.25 0 0 0-.15-.21m0 3.48a.73.73 0 0 0-.36-.08c-.28 0-.5.13-.5.29v1.16a.26.26 0 0 0 .15.2.74.74 0 0 0 .35.09c.27 0 .5-.13.5-.29v-1.16a.24.24 0 0 0-.14-.2m69.73 41.21a.78.78 0 0 0-.71 0l-1.11.65-.29.16c-.2.11-.21.29 0 .41a.77.77 0 0 0 .68 0l.32-.18 1.11-.65a.22.22 0 0 0 0-.41m-69.69-37.74a.73.73 0 0 0-.38-.08c-.28 0-.49.14-.48.3.071.395.164.786.28 1.17a.27.27 0 0 0 .14.17.74.74 0 0 0 .41.08c.27 0 .47-.16.44-.32a9.61 9.61 0 0 1-.16-1.14.26.26 0 0 0-.15-.19m64.84 39.7a.79.79 0 0 0-.51-.07 14.37 14.37 0 0 1-1.85.22c-.27 0-.47.15-.45.31a.27.27 0 0 0 .14.18.74.74 0 0 0 .4.08 15.9 15.9 0 0 0 2.07-.24c.26 0 .41-.21.32-.36a.32.32 0 0 0-.12-.11M36.86 377a.77.77 0 0 0-.48-.08c-.26 0-.43.2-.35.35.168.387.358.765.57 1.13a.33.33 0 0 0 .12.12.78.78 0 0 0 .51.07c.27 0 .41-.21.32-.36a11.29 11.29 0 0 1-.55-1.1.31.31 0 0 0-.13-.13m2.06 3.26a.77.77 0 0 0-.57 0c-.25.07-.36.24-.23.39a9 9 0 0 0 .95 1l.08.06a.79.79 0 0 0 .6 0c.23-.08.32-.26.18-.39-.33-.33-.63-.67-.92-1l-.1-.08m56 33a.6.6 0 0 0-.18-.07 12.32 12.32 0 0 1-1.7-.48.75.75 0 0 0-.69.09c-.13.12-.08.27.08.36h.08a13.79 13.79 0 0 0 1.89.53.65.65 0 0 0 .64-.17c.06-.11 0-.23-.12-.31m-52.83-30a.79.79 0 0 0-.66 0c-.22.1-.25.28-.09.41.41.31.84.62 1.29.91a.79.79 0 0 0 .68 0c.21-.11.23-.29 0-.41-.43-.29-.85-.58-1.25-.88m48 28l-1.42-.82a.78.78 0 0 0-.71 0 .22.22 0 0 0 0 .41l1.42.82c.22.11.48.11.7 0a.22.22 0 0 0 0-.41m-4.26-2.46l-1.42-.82a.78.78 0 0 0-.71 0c-.19.11-.19.29 0 .41l1.42.82a.78.78 0 0 0 .71 0 .22.22 0 0 0 0-.41m-4.26-2.46l-1.42-.82a.77.77 0 0 0-.71 0 .21.21 0 0 0 0 .41l1.42.82a.78.78 0 0 0 .71 0 .22.22 0 0 0 0-.41m-4.24-2.43l-1.42-.82a.78.78 0 0 0-.71 0 .22.22 0 0 0 0 .41l1.42.82c.22.11.48.11.7 0a.22.22 0 0 0 0-.41m-4.26-2.46l-1.42-.82a.78.78 0 0 0-.71 0c-.19.11-.19.29 0 .41l1.42.82a.78.78 0 0 0 .71 0 .22.22 0 0 0 0-.41M68.8 399l-1.42-.82a.77.77 0 0 0-.71 0 .21.21 0 0 0 0 .41l1.42.82a.78.78 0 0 0 .71 0 .22.22 0 0 0 0-.41m-4.25-2.45l-1.42-.82a.78.78 0 0 0-.71 0 .22.22 0 0 0 0 .41l1.42.82c.22.11.48.11.7 0a.22.22 0 0 0 0-.41M60.29 394l-1.42-.82a.78.78 0 0 0-.71 0c-.19.11-.19.29 0 .41l1.42.82a.78.78 0 0 0 .71 0 .22.22 0 0 0 0-.41m-4.26-2.46l-1.42-.82a.77.77 0 0 0-.71 0 .21.21 0 0 0 0 .41l1.39.87a.78.78 0 0 0 .71 0 .22.22 0 0 0 0-.41m-4.25-2.45l-1.42-.82a.78.78 0 0 0-.71 0 .22.22 0 0 0 0 .41l1.42.82c.22.11.48.11.7 0a.22.22 0 0 0 0-.41m-4.26-2.46l-1.42-.82a.78.78 0 0 0-.71 0c-.19.11-.19.29 0 .41l1.42.82a.78.78 0 0 0 .71 0 .22.22 0 0 0 0-.41M35.04 221a.7.7 0 0 0-.35-.08c-.28 0-.5.13-.5.29v.9a.24.24 0 0 0 .14.2.73.73 0 0 0 .36.08c.27 0 .5-.13.49-.29v-.9a.24.24 0 0 0-.14-.2" fill="#BCBCBC" fill-rule="nonzero"/>
        <path d="M418.97 317.71L229.37 428a11.65 11.65 0 0 1-10.58 0l-116.77-67.94a3.26 3.26 0 0 1 0-6.16l189.6-110.24a11.65 11.65 0 0 1 10.59 0l116.77 67.89a3.26 3.26 0 0 1 0 6.16h-.01z" fill="#000" fill-rule="nonzero" opacity=".15"/>
        <path d="M297.62 113.08a4.61 4.61 0 0 0-4.17.43L103.87 223.76a8.7 8.7 0 0 0-3.84 9L133.5 369a4.85 4.85 0 0 0 1.83 2.86l2.31 1.36c.177.116.365.217.56.3a4.61 4.61 0 0 0 4.17-.43l189.6-110.21a8.7 8.7 0 0 0 3.83-9l-33.51-136.27a4.75 4.75 0 0 0-2.15-3.07l-2.52-1.46z" fill="#DBDDDD" fill-rule="nonzero"/>
        <path d="M335.8 253.86a8.7 8.7 0 0 1-3.83 9L142.38 373.12a4.34 4.34 0 0 1-6.76-2.87L102.15 234a8.69 8.69 0 0 1 3.83-9l189.59-110.26a4.34 4.34 0 0 1 6.75 2.87l33.48 136.25z" fill="#171719" fill-rule="nonzero"/>
        <path d="M102.68 228.92a8.26 8.26 0 0 0-.52 5.11l33.46 136.23a4.61 4.61 0 0 0 2.59 3.29 19.13 19.13 0 0 1-2.87-1.66 4.85 4.85 0 0 1-1.83-2.86l-33.47-136.24a8.24 8.24 0 0 1 .52-5.1l2.12 1.23z" opacity=".2" fill="#000" fill-rule="nonzero"/>
        <path d="M100.56 227.69a8.26 8.26 0 0 1 3.31-3.92l2.12 1.23a8.69 8.69 0 0 0-3.83 9l-2.12-1.23a8.24 8.24 0 0 1 .52-5.08z" fill="#FFF" fill-rule="nonzero"/>
        <path fill="#F5F5F5" fill-rule="nonzero" d="M297.46 123.51l32.13 130.87-189.14 109.98-32.09-130.75z"/>
        <path fill="#10355D" fill-rule="nonzero" d="M298.88 129.25L109.74 239.24l-1.38-5.63 189.1-110.1z"/>
        <path d="M292.73 131.22l-.11-.49 3.19-1.87.13.48-3.21 1.88m-.3-1.19l-.12-.5 3.21-1.87.12.49-3.21 1.85m-.3-1.2l-.12-.49 3.21-1.88.12.5-3.2 1.87" fill="#FFF" fill-rule="nonzero"/>
        <path d="M113.17 233.26a.77.77 0 0 1 1.23.43c.1.62-.19 1.24-.73 1.56a.78.78 0 0 1-1.24-.41 1.56 1.56 0 0 1 .74-1.58" fill="#9FE813" fill-rule="nonzero"/>
        <path d="M116.83 231.14a.76.76 0 0 1 1.2.43 1.55 1.55 0 0 1-.74 1.57.78.78 0 0 1-1.23-.42 1.52 1.52 0 0 1 .74-1.57" fill="#FFE045" fill-rule="nonzero"/>
        <path d="M120.45 229a.77.77 0 0 1 1.22.42 1.56 1.56 0 0 1-.74 1.57.78.78 0 0 1-1.23-.42 1.51 1.51 0 0 1 .73-1.56" fill="#FF4878" fill-rule="nonzero"/>
        <path d="M461.5 338.12a3.75 3.75 0 0 1-2.21 3.08L269.72 451.5a11.65 11.65 0 0 1-10.58 0l-116.77-68a3.75 3.75 0 0 1-2.18-3.08v-4.23a3.74 3.74 0 0 1 2.19-3.08l189.59-110.19a11.66 11.66 0 0 1 10.59 0l116.73 67.89a3.75 3.75 0 0 1 2.18 3.08l.03 4.23z" fill="#DBDDDD" fill-rule="nonzero"/>
        <path d="M264.43 452.77a10.74 10.74 0 0 0 5.29-1.27l189.57-110.3a3.75 3.75 0 0 0 2.18-3.08v-4.23a3.76 3.76 0 0 1-2.18 3.11l-189.6 110.3a10.74 10.74 0 0 1-5.29 1.27l.03 4.2z" fill="#000" fill-rule="nonzero" opacity=".2"/>
        <path d="M264.43 452.77a10.73 10.73 0 0 1-5.29-1.27l-116.77-68a3.75 3.75 0 0 1-2.18-3.08v-4.23a3.75 3.75 0 0 0 2.18 3.08l116.77 67.95a10.73 10.73 0 0 0 5.29 1.27" fill="#000" fill-rule="nonzero" opacity=".1"/>
        <path d="M355.4 355a7.78 7.78 0 0 0-7 0l-47.51 27.64c-1.94 1.13-1.94 3 0 4.11l27.17 15.83a7.76 7.76 0 0 0 7.06 0L382.61 375c1.94-1.13 1.94-3 0-4.11L355.4 355zM351.36 399.61a1.08 1.08 0 0 1 0-2l22.6-13.16a3.92 3.92 0 0 1 3.54 0l.15.09-26.14 15.21-.15-.14z" opacity=".08" fill="#000" fill-rule="nonzero"/>
        <path d="M377.62 384.49v.2a3.94 3.94 0 0 1-1.76 3.07l-22.57 13.16c-1 .56-1.77.11-1.77-1v-.21l26.1-15.22z" opacity=".08" fill="#000" fill-rule="nonzero"/>
        <path fill="#000" fill-rule="nonzero" opacity=".3" d="M143.36 381.27l3.98 2.31v1.55l-3.98-2.32zM148.52 384.25l3.99 2.32v1.54l-3.99-2.31zM153.57 387.59l7.53 4.36v.78l-7.53-4.37z"/>
        <path d="M287.96 279.27a11 11 0 0 1 10 0l7.14 4.11c2.75 1.6 2.75 4.21 0 5.81l-117.52 68.26a11 11 0 0 1-10 0l-7.13-4.09c-2.75-1.6-2.75-4.21 0-5.81l117.51-68.28z" fill="#171719" fill-rule="nonzero"/>
        <path d="M192.52 365.83a.79.79 0 0 1 0 1.5l-8.41 4.89a2.87 2.87 0 0 1-2.6 0l-3.22-1.87a.8.8 0 0 1 0-1.5l8.41-4.89a2.84 2.84 0 0 1 2.59 0l3.23 1.87zM391.44 320.39c.72.42.72 1.08 0 1.49l-7.76 4.5a2.81 2.81 0 0 1-2.58 0l-3.36-1.94 10.33-6 3.37 1.95zM306.29 327.51a.79.79 0 0 1 0 1.49l-7.75 4.51a2.85 2.85 0 0 1-2.59 0l-6.31-3.64a.79.79 0 0 1 0-1.5l7.75-4.51a2.86 2.86 0 0 1 2.6 0l6.3 3.65zM281.89 341.67a.79.79 0 0 1 0 1.49l-7.75 4.51a2.84 2.84 0 0 1-2.58 0l-6.27-3.67a.79.79 0 0 1 0-1.5l7.75-4.5a2.87 2.87 0 0 1 2.6 0l6.25 3.67zM257.51 355.84a.79.79 0 0 1 0 1.49l-7.76 4.51a2.85 2.85 0 0 1-2.58 0l-6.31-3.64a.79.79 0 0 1 0-1.5l7.76-4.51a2.87 2.87 0 0 1 2.6 0l6.29 3.65zM179.98 373.12a.8.8 0 0 1 0 1.5l-8.41 4.89a2.87 2.87 0 0 1-2.6 0l-3.23-1.87a.79.79 0 0 1 0-1.5l8.41-4.89a2.87 2.87 0 0 1 2.6 0l3.23 1.87zM278.76 385.88a.79.79 0 0 1 0 1.49l-10 5.84a2.82 2.82 0 0 1-2.57 0l-6.31-3.64c-.73-.42-.73-1.08 0-1.49l10-5.84a2.87 2.87 0 0 1 2.6 0l6.28 3.64zM242.83 392.28a.79.79 0 0 1 0 1.5l-23.2 13.48a2.86 2.86 0 0 1-2.58 0l-6.31-3.64a.79.79 0 0 1 0-1.5l23.2-13.49a2.89 2.89 0 0 1 2.6 0l6.29 3.65zM252.11 401.37a.79.79 0 0 1 0 1.49l-7.75 4.51a2.84 2.84 0 0 1-2.59 0l-6.31-3.64a.79.79 0 0 1 0-1.5l7.76-4.51a2.87 2.87 0 0 1 2.6 0l6.29 3.65z" fill="#515151" fill-rule="nonzero"/>
        <path d="M409.74 313.23c.72.41.73 1.08 0 1.5L232.16 417.94a2.87 2.87 0 0 1-2.6 0l-69.79-40.3a.79.79 0 0 1 0-1.5l177.6-103.21a2.81 2.81 0 0 1 2.59 0l69.78 40.3zm-126.57 71.58L341.29 351a.79.79 0 0 0 0-1.49l-6.31-3.64a2.82 2.82 0 0 0-2.58 0l-58.11 33.8a.79.79 0 0 0 0 1.5l6.31 3.64a2.85 2.85 0 0 0 2.58 0h-.01zm-63.53 22.45l23.2-13.48a.79.79 0 0 0 0-1.5l-6.31-3.64a2.89 2.89 0 0 0-2.6 0l-23.2 13.49a.79.79 0 0 0 0 1.5l6.31 3.64a2.86 2.86 0 0 0 2.58 0l.02-.01zm149.83-87.07l21.82-12.68a.79.79 0 0 0 0-1.49l-6.31-3.64a2.87 2.87 0 0 0-2.6 0L360.58 315a.8.8 0 0 0 0 1.5l6.31 3.64a2.84 2.84 0 0 0 2.57 0l.01.05zm-161.91 80.1l17.13-10a.8.8 0 0 0 0-1.5l-6.31-3.64a2.87 2.87 0 0 0-2.6 0l-17.13 10a.8.8 0 0 0 0 1.51l6.31 3.64a2.87 2.87 0 0 0 2.6 0v-.01zm155.8-90.53l15.83-9.2a.8.8 0 0 0 0-1.5l-6.31-3.64a2.87 2.87 0 0 0-2.6 0l-15.83 9.2c-.72.41-.7 1.08 0 1.5l6.31 3.64a2.85 2.85 0 0 0 2.58 0h.02zm-21.82-15.24l13.54-7.87a.8.8 0 0 0 0-1.51l-6.31-3.64a2.87 2.87 0 0 0-2.6 0l-13.54 7.87a.79.79 0 0 0 0 1.5l6.31 3.64a2.87 2.87 0 0 0 2.6 0v.01zm-146 98.83l13.33-7.75a.79.79 0 0 0 0-1.5l-6.31-3.64a2.84 2.84 0 0 0-2.6 0l-13.34 7.75a.79.79 0 0 0 0 1.5l6.31 3.64a2.85 2.85 0 0 0 2.59 0h.02zm73.16-.14l10-5.84a.79.79 0 0 0 0-1.49l-6.31-3.64a2.87 2.87 0 0 0-2.6 0l-10 5.84a.79.79 0 0 0 0 1.49l6.31 3.64a2.82 2.82 0 0 0 2.57 0h.03zm76.69-44.59l10-5.83c.73-.42.72-1.08 0-1.5l-6.31-3.64a2.82 2.82 0 0 0-2.6 0l-10 5.83a.8.8 0 0 0 0 1.51l6.31 3.64a2.84 2.84 0 0 0 2.59 0l.01-.01zm5.63-31.72l7.77-4.52a.8.8 0 0 0 0-1.5l-6.31-3.64a2.89 2.89 0 0 0-2.6 0l-7.77 4.52a.8.8 0 0 0 0 1.5l6.31 3.64a2.88 2.88 0 0 0 2.6 0zM244.29 351l7.76-4.51a.8.8 0 0 0 0-1.5l-6.31-3.64a2.87 2.87 0 0 0-2.6 0l-7.76 4.51a.79.79 0 0 0 0 1.5l6.31 3.64a2.89 2.89 0 0 0 2.6 0zm-24.38 14.2l7.76-4.5a.8.8 0 0 0 0-1.51l-6.31-3.64a2.84 2.84 0 0 0-2.6 0l-7.76 4.5a.8.8 0 0 0 0 1.51l6.29 3.64a2.87 2.87 0 0 0 2.6 0h.02zm-24.38 14.16l7.76-4.5a.8.8 0 0 0 0-1.51l-6.31-3.64a2.87 2.87 0 0 0-2.6 0l-7.76 4.51a.8.8 0 0 0 0 1.5l6.31 3.64a2.87 2.87 0 0 0 2.6 0zm121.85-70.81l7.75-4.51a.79.79 0 0 0 0-1.5l-6.31-3.64a2.85 2.85 0 0 0-2.6 0l-7.75 4.51a.79.79 0 0 0 0 1.5l6.31 3.64a2.9 2.9 0 0 0 2.6 0zM256.47 344l7.76-4.51a.79.79 0 0 0 0-1.5l-6.31-3.64a2.87 2.87 0 0 0-2.6 0l-7.75 4.51a.79.79 0 0 0 0 1.5l6.31 3.64a2.89 2.89 0 0 0 2.6 0h-.01zm-48.73 28.32l7.76-4.5a.8.8 0 0 0 0-1.51l-6.31-3.64a2.87 2.87 0 0 0-2.6 0l-7.76 4.51a.8.8 0 0 0 0 1.5l6.31 3.64a2.87 2.87 0 0 0 2.6 0zm73.11-42.48l7.77-4.52a.79.79 0 0 0 0-1.5l-6.33-3.68a2.87 2.87 0 0 0-2.6 0l-7.77 4.52a.79.79 0 0 0 0 1.49l6.31 3.64a2.86 2.86 0 0 0 2.58 0l.04.05zm24.34-14.22l7.75-4.51a.79.79 0 0 0 0-1.5l-6.29-3.61a2.87 2.87 0 0 0-2.6 0l-7.76 4.49a.79.79 0 0 0 0 1.5l6.31 3.64a2.88 2.88 0 0 0 2.6 0l-.01-.01zm-121.72 70.76l7.76-4.5a.8.8 0 0 0 0-1.51l-6.31-3.64a2.87 2.87 0 0 0-2.6 0l-7.75 4.5a.8.8 0 0 0 0 1.51l6.31 3.64a2.87 2.87 0 0 0 2.6 0h-.01zm45.73 1.34l7.76-4.5a.8.8 0 0 0 0-1.51l-6.31-3.64a2.87 2.87 0 0 0-2.6 0l-7.76 4.5a.8.8 0 0 0 0 1.51l6.31 3.64a2.87 2.87 0 0 0 2.6 0zm97.51-56.66l7.75-4.51a.79.79 0 0 0 0-1.5l-6.31-3.64a2.86 2.86 0 0 0-2.6 0l-7.75 4.51a.79.79 0 0 0 0 1.5l6.31 3.64a2.89 2.89 0 0 0 2.6 0zm-36.55 21.24l7.74-4.5a.79.79 0 0 0 0-1.5l-6.31-3.64a2.85 2.85 0 0 0-2.6 0l-7.74 4.5a.8.8 0 0 0 0 1.51l6.31 3.64a2.9 2.9 0 0 0 2.61 0l-.01-.01zm24.37-14.15l7.76-4.51a.79.79 0 0 0 0-1.5l-6.31-3.64a2.87 2.87 0 0 0-2.6 0l-7.77 4.5a.79.79 0 0 0 0 1.5l6.31 3.64a2.86 2.86 0 0 0 2.6 0l.01.01zm-36.57 21.24l7.75-4.51a.79.79 0 0 0 0-1.5l-6.31-3.64a2.85 2.85 0 0 0-2.6 0l-7.75 4.51a.79.79 0 0 0 0 1.5l6.31 3.64a2.89 2.89 0 0 0 2.6 0zm-12.18 7.08l7.76-4.51a.8.8 0 0 0 0-1.5l-6.31-3.64a2.87 2.87 0 0 0-2.6 0l-7.75 4.51a.8.8 0 0 0 0 1.5l6.31 3.64a2.89 2.89 0 0 0 2.6 0h-.01zm2.88-29.58l7.75-4.51a.79.79 0 0 0 0-1.5l-6.31-3.64a2.85 2.85 0 0 0-2.6 0l-7.75 4.51a.79.79 0 0 0 0 1.49l6.31 3.64a2.87 2.87 0 0 0 2.59 0l.01.01zm24.37-14.18l7.75-4.51a.79.79 0 0 0 0-1.49l-6.31-3.64a2.84 2.84 0 0 0-2.59 0l-7.76 4.51a.79.79 0 0 0 0 1.5l6.31 3.64a2.89 2.89 0 0 0 2.6 0v-.01zm36.56-21.24l7.76-4.51a.79.79 0 0 0 0-1.49l-6.31-3.64a2.83 2.83 0 0 0-2.58 0l-7.75 4.51a.79.79 0 0 0 0 1.5l6.31 3.64a2.85 2.85 0 0 0 2.6 0l-.03-.01zm-97.45 56.66l7.76-4.51a.8.8 0 0 0 0-1.5l-6.31-3.64a2.84 2.84 0 0 0-2.59 0l-7.81 4.52a.79.79 0 0 0 0 1.5l6.31 3.64a2.87 2.87 0 0 0 2.6 0l.04-.01zm21.45 15.43l7.75-4.51a.8.8 0 0 0 0-1.5l-6.31-3.64a2.84 2.84 0 0 0-2.59 0l-7.75 4.51a.79.79 0 0 0 0 1.5l6.31 3.64a2.86 2.86 0 0 0 2.6 0h-.01zm-12.19 7.08l7.77-4.51a.8.8 0 0 0 0-1.5l-6.33-3.63a2.85 2.85 0 0 0-2.59 0l-7.77 4.52a.79.79 0 0 0 0 1.49l6.31 3.64a2.86 2.86 0 0 0 2.59 0l.02-.01zM338.89 324l7.77-4.52a.79.79 0 0 0 0-1.49l-6.37-3.67a2.87 2.87 0 0 0-2.59 0l-7.77 4.52a.79.79 0 0 0 0 1.49l6.36 3.67a2.86 2.86 0 0 0 2.59 0h.01zm-36.6 21.21l7.76-4.51a.8.8 0 0 0 0-1.5l-6.31-3.64a2.84 2.84 0 0 0-2.59 0l-7.76 4.51a.79.79 0 0 0 0 1.5l6.31 3.64a2.88 2.88 0 0 0 2.6 0h-.01zm42.51-10.72l7.75-4.5a.79.79 0 0 0 0-1.5l-6.26-3.64a2.87 2.87 0 0 0-2.6 0l-7.75 4.5a.8.8 0 0 0 0 1.51l6.35 3.64a2.85 2.85 0 0 0 2.59 0l-.08-.01zm-36.51 21.25l7.76-4.5a.79.79 0 0 0 0-1.5l-6.31-3.64a2.9 2.9 0 0 0-2.6 0l-7.75 4.51a.8.8 0 0 0 0 1.5l6.31 3.64a2.84 2.84 0 0 0 2.59 0v-.01zm-48.74 28.34l7.75-4.51a.79.79 0 0 0 0-1.49l-6.31-3.64a2.9 2.9 0 0 0-2.6 0l-7.75 4.51a.79.79 0 0 0 0 1.5l6.31 3.64a2.84 2.84 0 0 0 2.58 0l.02-.01zm24.36-14.16l7.75-4.5a.79.79 0 0 0 0-1.5l-6.31-3.64a2.89 2.89 0 0 0-2.6 0l-7.75 4.51a.79.79 0 0 0 0 1.5l6.3 3.64a2.82 2.82 0 0 0 2.59 0l.02-.01zm12.16-7.07l7.76-4.51a.79.79 0 0 0 0-1.5l-6.31-3.64a2.9 2.9 0 0 0-2.6 0l-7.76 4.51a.8.8 0 0 0 0 1.51l6.31 3.64a2.85 2.85 0 0 0 2.59 0l.01-.01zm36.55-21.24l7.75-4.5a.79.79 0 0 0 0-1.5l-6.31-3.61a2.87 2.87 0 0 0-2.6 0l-7.76 4.5a.8.8 0 0 0 0 1.51l6.31 3.64a2.82 2.82 0 0 0 2.59 0l.02-.04zm24.34-14.12l7.76-4.5a.79.79 0 0 0 0-1.5l-6.31-3.64a2.87 2.87 0 0 0-2.6 0l-7.76 4.5a.8.8 0 0 0 0 1.51l6.31 3.64a2.84 2.84 0 0 0 2.58 0l.02-.01zm-36.58 21.26l7.77-4.51a.79.79 0 0 0 0-1.49l-6.23-3.75a2.88 2.88 0 0 0-2.58 0l-7.77 4.51a.8.8 0 0 0 0 1.51l6.31 3.64a2.84 2.84 0 0 0 2.59 0l-.09.09zM213.17 383.1l7.75-4.5a.79.79 0 0 0 0-1.5l-6.31-3.64a2.87 2.87 0 0 0-2.6 0l-7.72 4.54a.8.8 0 0 0 0 1.51l6.3 3.64a2.84 2.84 0 0 0 2.59 0l-.01-.05zm31.19 24.32l7.75-4.51a.79.79 0 0 0 0-1.49l-6.31-3.64a2.87 2.87 0 0 0-2.6 0l-7.76 4.51a.79.79 0 0 0 0 1.5l6.31 3.64a2.84 2.84 0 0 0 2.59 0l.02-.01zm139.33-80.99l7.76-4.5a.79.79 0 0 0 0-1.49l-3.36-1.94-2.93-1.71a2.84 2.84 0 0 0-2.6 0l-7.76 4.5a.8.8 0 0 0 0 1.51l3 1.7 3.36 1.94a2.81 2.81 0 0 0 2.58 0l-.05-.01zm-151.51 88.01l7.71-4.44a.79.79 0 0 0 0-1.5l-6.31-3.64a2.83 2.83 0 0 0-2.6 0l-7.76 4.51a.79.79 0 0 0 0 1.5l6.31 3.64a2.85 2.85 0 0 0 2.58 0l.07-.07zm24.33-14.11l7.76-4.51a.79.79 0 0 0 0-1.49l-6.31-3.64a2.86 2.86 0 0 0-2.6 0l-7.76 4.51a.79.79 0 0 0 0 1.5l6.31 3.64a2.84 2.84 0 0 0 2.59 0l.01-.01zm78.52-87.99l7.75-4.51a.79.79 0 0 0 0-1.49l-6.31-3.64a2.9 2.9 0 0 0-2.6 0l-7.76 4.51a.79.79 0 0 0 0 1.5l6.31 3.64a2.82 2.82 0 0 0 2.59 0l.02-.01zm-36.58 21.26l7.84-4.6a.79.79 0 0 0 0-1.49l-6.31-3.64a2.86 2.86 0 0 0-2.6 0l-7.75 4.51a.79.79 0 0 0 0 1.5l6.31 3.64a2.85 2.85 0 0 0 2.59 0l-.08.08zm-24.29 14.08l7.75-4.51a.79.79 0 0 0 0-1.49l-6.33-3.68a2.87 2.87 0 0 0-2.6 0l-7.76 4.51a.79.79 0 0 0 0 1.5l6.31 3.64a2.84 2.84 0 0 0 2.58 0l.05.03zm85.49-7.35l7.77-4.51a.79.79 0 0 0 0-1.5l-6.31-3.64a2.84 2.84 0 0 0-2.6 0l-7.77 4.51a.8.8 0 0 0 0 1.5l6.31 3.64a2.84 2.84 0 0 0 2.57 0h.03zm-12.46-35.16l7.75-4.51a.79.79 0 0 0 0-1.49l-6.31-3.64a2.89 2.89 0 0 0-2.6 0l-7.74 4.47a.79.79 0 0 0 0 1.5l6.31 3.64a2.84 2.84 0 0 0 2.59 0v.03zm-85.3 49.54l7.76-4.51a.79.79 0 0 0 0-1.49l-6.36-3.64a2.88 2.88 0 0 0-2.6 0l-7.75 4.51a.79.79 0 0 0 0 1.5l6.31 3.64a2.85 2.85 0 0 0 2.59 0l.05-.01zm48.69-28.32l7.77-4.52a.79.79 0 0 0 0-1.49l-6.31-3.64a2.88 2.88 0 0 0-2.59 0l-7.77 4.52a.79.79 0 0 0 0 1.5l6.31 3.64a2.84 2.84 0 0 0 2.59 0v-.01zm-60.92 35.42l7.76-4.51a.79.79 0 0 0 0-1.49l-6.31-3.64a2.87 2.87 0 0 0-2.6 0l-7.76 4.51a.79.79 0 0 0 0 1.5l6.31 3.64a2.85 2.85 0 0 0 2.58 0l.02-.01zm-12.2 7.09l7.76-4.51a.79.79 0 0 0 0-1.49l-6.31-3.64a2.87 2.87 0 0 0-2.6 0l-7.76 4.51a.8.8 0 0 0 0 1.5l6.31 3.64a2.85 2.85 0 0 0 2.58 0l.02-.01zm9.78 22.26l7.75-4.51a.78.78 0 0 0 0-1.49l-6.31-3.64a2.84 2.84 0 0 0-2.59 0l-7.66 4.48a.79.79 0 0 0 0 1.5l6.31 3.64a2.84 2.84 0 0 0 2.58 0l-.08.02zM271.72 377l7.77-4.51a.79.79 0 0 0 0-1.49l-6.31-3.64a2.87 2.87 0 0 0-2.59 0l-7.77 4.52a.8.8 0 0 0 0 1.5l6.31 3.64a2.81 2.81 0 0 0 2.57 0l.02-.02zm87.67-78.86l7.76-4.51a.79.79 0 0 0 0-1.49l-6.31-3.64a2.89 2.89 0 0 0-2.6 0l-7.72 4.5a.8.8 0 0 0 0 1.5l6.31 3.64a2.81 2.81 0 0 0 2.57 0h-.01zm-134 77.86l7.76-4.51a.79.79 0 0 0 0-1.49l-6.31-3.64a2.84 2.84 0 0 0-2.58 0l-7.76 4.51a.79.79 0 0 0 0 1.5l6.31 3.64a2.83 2.83 0 0 0 2.58 0V376zm97.47-56.63l7.77-4.52a.79.79 0 0 0 0-1.49l-6.34-3.65a2.85 2.85 0 0 0-2.59 0l-7.77 4.52a.79.79 0 0 0 0 1.49l6.31 3.64a2.82 2.82 0 0 0 2.57 0l.05.01zm-36.57 21.22l7.75-4.51a.79.79 0 0 0 0-1.49l-6.29-3.59a2.86 2.86 0 0 0-2.59 0l-7.75 4.51a.79.79 0 0 0 0 1.5l6.31 3.64a2.82 2.82 0 0 0 2.58 0l-.01-.06zm-114.72 38.92l8.41-4.89a.8.8 0 0 0 0-1.5l-3.23-1.87a2.87 2.87 0 0 0-2.6 0l-8.41 4.89a.79.79 0 0 0 0 1.5l3.23 1.87a2.87 2.87 0 0 0 2.6 0zm50.23-29.19l8.4-4.88a.79.79 0 0 0 0-1.5l-3.23-1.87a2.84 2.84 0 0 0-2.6 0l-8.4 4.88a.8.8 0 0 0 0 1.5l3.23 1.87a2.87 2.87 0 0 0 2.6 0zm75.33-43.78l8.41-4.89a.8.8 0 0 0 0-1.5l-3.25-1.86a2.85 2.85 0 0 0-2.59 0l-8.41 4.88a.8.8 0 0 0 0 1.51l3.23 1.87a2.88 2.88 0 0 0 2.6 0l.01-.01zm-87.84 51.08l8.4-4.88a.8.8 0 0 0 0-1.5l-3.23-1.87a2.87 2.87 0 0 0-2.6 0l-8.4 4.88a.8.8 0 0 0 0 1.5l3.23 1.86a2.87 2.87 0 0 0 2.6 0v.01zm37.67-21.9l8.4-4.88a.8.8 0 0 0 0-1.51l-3.23-1.87a2.9 2.9 0 0 0-2.6 0l-8.4 4.88a.8.8 0 0 0 0 1.51l3.23 1.87a2.87 2.87 0 0 0 2.6 0zm12.55-7.29l8.41-4.89a.79.79 0 0 0 0-1.5l-3.23-1.87a2.87 2.87 0 0 0-2.6 0l-8.41 4.89a.8.8 0 0 0 0 1.5l3.23 1.87a2.84 2.84 0 0 0 2.59 0h.01zm-75.34 43.78l8.41-4.89a.8.8 0 0 0 0-1.5l-3.29-1.82a2.84 2.84 0 0 0-2.59 0l-8.41 4.84a.8.8 0 0 0 0 1.5l3.23 1.87a2.87 2.87 0 0 0 2.6 0h.05zm150.63-87.56l8.4-4.88a.8.8 0 0 0 0-1.51l-3.23-1.87a2.87 2.87 0 0 0-2.6 0l-8.4 4.88a.8.8 0 0 0 0 1.51l3.23 1.87a2.89 2.89 0 0 0 2.6 0zM322.29 292l8.4-4.88a.79.79 0 0 0 0-1.5l-3.23-1.87a2.87 2.87 0 0 0-2.6 0l-8.4 4.88a.79.79 0 0 0 0 1.5l3.23 1.87a2.87 2.87 0 0 0 2.6 0zm-12.56 7.3l8.4-4.88a.79.79 0 0 0 0-1.5l-3.28-1.92a2.84 2.84 0 0 0-2.6 0l-8.4 4.88a.8.8 0 0 0 0 1.51l3.23 1.87a2.86 2.86 0 0 0 2.6 0l.05.04zm-37.72 21.85l8.42-4.89a.79.79 0 0 0 0-1.5l-3.23-1.87a2.86 2.86 0 0 0-2.6 0l-8.41 4.89a.79.79 0 0 0 0 1.49l3.23 1.87a2.86 2.86 0 0 0 2.58 0l.01.01zm-75.32 43.77l8.42-4.89a.79.79 0 0 0 0-1.5l-3.23-1.87a2.89 2.89 0 0 0-2.59 0l-8.41 4.89a.8.8 0 0 0 0 1.51l3.23 1.87a2.87 2.87 0 0 0 2.6 0l-.02-.01zM234.36 343l8.4-4.88a.8.8 0 0 0 0-1.51l-3.23-1.87a2.87 2.87 0 0 0-2.6 0l-8.4 4.88a.79.79 0 0 0 0 1.5l3.23 1.87a2.89 2.89 0 0 0 2.6 0v.01zm50.22-29.2l8.41-4.8a.8.8 0 0 0 0-1.5l-3.23-1.87a2.84 2.84 0 0 0-2.59 0l-8.41 4.89a.8.8 0 0 0 0 1.5l3.23 1.87a2.86 2.86 0 0 0 2.59 0v-.09zm87.43 19.44l7.76-4.51a.79.79 0 0 0 0-1.49l-2.06-1.24a2.86 2.86 0 0 0-2.6 0l-7.76 4.51a.79.79 0 0 0 0 1.5l2.06 1.19a2.85 2.85 0 0 0 2.58 0l.02.04zm23.98-14.04l7.75-4.51a.79.79 0 0 0 0-1.5l-2-1.24a2.87 2.87 0 0 0-2.6 0l-7.75 4.51a.79.79 0 0 0 0 1.49l2.06 1.19a2.84 2.84 0 0 0 2.57 0l-.03.06z" fill="#000" fill-rule="nonzero" opacity=".08"/>
        <path d="M343.2 278.26a.8.8 0 0 1 0 1.51l-8.4 4.88a2.89 2.89 0 0 1-2.6 0l-3.23-1.87a.8.8 0 0 1 0-1.51l8.4-4.88a2.87 2.87 0 0 1 2.6 0l3.23 1.87zM330.64 285.56a.79.79 0 0 1 0 1.5l-8.4 4.88a2.87 2.87 0 0 1-2.6 0l-3.23-1.87a.79.79 0 0 1 0-1.5l8.4-4.88a2.87 2.87 0 0 1 2.6 0l3.23 1.87zM355.1 285.13a.8.8 0 0 1 0 1.51l-13.54 7.87a2.87 2.87 0 0 1-2.6 0l-6.31-3.64a.8.8 0 0 1 0-1.51l13.54-7.87a2.87 2.87 0 0 1 2.6 0l6.31 3.64zM367.18 292.11a.79.79 0 0 1 0 1.49l-7.76 4.51a2.81 2.81 0 0 1-2.57 0l-6.31-3.64c-.72-.41-.73-1.08 0-1.5l7.75-4.51a2.89 2.89 0 0 1 2.6 0l6.29 3.65zM318.09 292.86a.79.79 0 0 1 0 1.5l-8.4 4.88a2.86 2.86 0 0 1-2.6 0l-3.23-1.87a.8.8 0 0 1 0-1.51l8.43-4.86a2.84 2.84 0 0 1 2.6 0l3.2 1.86zM337.29 295.46c.72.41.73 1.08 0 1.49l-7.76 4.51a2.85 2.85 0 0 1-2.6 0l-6.31-3.64a.79.79 0 0 1 0-1.5l7.75-4.51a2.84 2.84 0 0 1 2.58 0l6.34 3.65zM355 299.18a.79.79 0 0 1 0 1.49l-7.71 4.51a2.84 2.84 0 0 1-2.59 0l-6.31-3.64a.79.79 0 0 1 0-1.5l7.75-4.51a2.89 2.89 0 0 1 2.6 0l6.26 3.65zM305.53 300.15c.72.42.73 1.08 0 1.5l-8.41 4.89a2.88 2.88 0 0 1-2.6 0l-3.23-1.86a.8.8 0 0 1 0-1.51l8.41-4.89a2.87 2.87 0 0 1 2.59 0l3.24 1.87zM325.14 302.54a.79.79 0 0 1 0 1.5l-7.75 4.51a2.9 2.9 0 0 1-2.6 0l-6.31-3.64a.79.79 0 0 1 0-1.5l7.75-4.51a2.85 2.85 0 0 1 2.6 0l6.31 3.64zM379.19 299a.8.8 0 0 1 0 1.5l-15.83 9.2a2.85 2.85 0 0 1-2.58 0l-6.31-3.64c-.72-.41-.74-1.08 0-1.5l15.82-9.16a2.87 2.87 0 0 1 2.6 0l6.3 3.6zM342.81 306.26a.79.79 0 0 1 0 1.49l-7.76 4.51a2.82 2.82 0 0 1-2.59 0l-6.31-3.64a.79.79 0 0 1 0-1.5l7.76-4.51a2.9 2.9 0 0 1 2.6 0l6.3 3.65zM292.97 307.45c.72.41.73 1.08 0 1.5l-8.41 4.89a2.87 2.87 0 0 1-2.59 0l-3.21-1.84c-.72-.41-.73-1.08 0-1.5l8.41-4.89a2.84 2.84 0 0 1 2.59 0l3.21 1.84zM312.96 309.62a.79.79 0 0 1 0 1.5l-7.75 4.51a2.88 2.88 0 0 1-2.6 0l-6.32-3.63a.79.79 0 0 1 0-1.5l7.76-4.51a2.87 2.87 0 0 1 2.6 0l6.31 3.63zM358.83 310.88a.8.8 0 0 1 0 1.5l-7.77 4.52a2.88 2.88 0 0 1-2.6 0l-6.31-3.64a.8.8 0 0 1 0-1.5l7.77-4.52a2.89 2.89 0 0 1 2.6 0l6.31 3.64zM403.77 313.23a.79.79 0 0 1 0 1.5l-7.75 4.51a2.84 2.84 0 0 1-2.57 0l-2.07-1.24c-.73-.42-.73-1.08 0-1.49l7.75-4.51a2.87 2.87 0 0 1 2.6 0l2.04 1.23zM330.62 313.35a.78.78 0 0 1 0 1.49l-7.77 4.52a2.82 2.82 0 0 1-2.57 0l-6.31-3.64c-.72-.41-.73-1.08 0-1.49l7.77-4.52a2.85 2.85 0 0 1 2.59 0l6.29 3.64zM391.29 306a.79.79 0 0 1 0 1.49l-21.79 12.66a2.84 2.84 0 0 1-2.57 0l-6.31-3.64c-.72-.41-.73-1.08 0-1.5l21.79-12.66a2.87 2.87 0 0 1 2.6 0l6.28 3.65zM280.43 314.74a.79.79 0 0 1 0 1.5l-8.42 4.89a2.86 2.86 0 0 1-2.58 0l-3.23-1.87a.79.79 0 0 1 0-1.49l8.41-4.89a2.86 2.86 0 0 1 2.6 0l3.22 1.86zM300.76 316.71c.72.41.73 1.08 0 1.49l-7.75 4.51a2.89 2.89 0 0 1-2.6 0l-6.31-3.64a.79.79 0 0 1 0-1.5l7.76-4.51a2.84 2.84 0 0 1 2.59 0l6.31 3.65zM388.09 318.44l-10.34 6-3-1.7c-.73-.42-.73-1.08 0-1.51l7.76-4.5a2.84 2.84 0 0 1 2.6 0l2.98 1.71zM346.63 318a.79.79 0 0 1 0 1.49l-7.74 4.51a2.86 2.86 0 0 1-2.59 0l-6.31-3.64c-.72-.41-.73-1.08 0-1.49l7.77-4.52a2.87 2.87 0 0 1 2.59 0l6.28 3.65zM318.44 320.43a.79.79 0 0 1 0 1.49l-7.77 4.52a2.84 2.84 0 0 1-2.59 0l-6.31-3.64a.79.79 0 0 1 0-1.5l7.77-4.52a2.88 2.88 0 0 1 2.59 0l6.31 3.65zM364.78 321.41a.79.79 0 0 1 0 1.5l-7.76 4.5a2.84 2.84 0 0 1-2.58 0l-6.31-3.64a.8.8 0 0 1 0-1.51l7.76-4.5a2.87 2.87 0 0 1 2.6 0l6.29 3.65zM267.87 322a.79.79 0 0 1 0 1.5l-8.41 4.89a2.84 2.84 0 0 1-2.59 0l-3.23-1.87c-.72-.41-.73-1.08 0-1.5l8.41-4.89a2.87 2.87 0 0 1 2.6 0l3.22 1.87zM288.6 323.78a.79.79 0 0 1 0 1.5l-7.77 4.52a2.86 2.86 0 0 1-2.58 0l-6.31-3.64c-.72-.41-.73-1.08 0-1.49l7.77-4.52a2.87 2.87 0 0 1 2.6 0l6.29 3.63zM334.45 325a.79.79 0 0 1 0 1.5l-7.75 4.5a2.89 2.89 0 0 1-2.6 0l-6.31-3.64a.79.79 0 0 1 0-1.5l7.75-4.51a2.86 2.86 0 0 1 2.6 0l6.31 3.65zM379.77 327.18a.79.79 0 0 1 0 1.49l-7.76 4.51a2.85 2.85 0 0 1-2.58 0l-2.07-1.18a.79.79 0 0 1 0-1.5l7.76-4.51a2.86 2.86 0 0 1 2.6 0l2.05 1.19zM352.6 328.49a.79.79 0 0 1 0 1.5l-7.75 4.5a2.85 2.85 0 0 1-2.59 0l-6.31-3.64a.8.8 0 0 1 0-1.51l7.75-4.5a2.87 2.87 0 0 1 2.6 0l6.3 3.65zM255.29 329.34a.8.8 0 0 1 0 1.51l-8.4 4.88a2.87 2.87 0 0 1-2.6 0l-3.23-1.87a.8.8 0 0 1 0-1.51l8.4-4.88a2.9 2.9 0 0 1 2.6 0l3.23 1.87zM276.4 330.87a.79.79 0 0 1 0 1.5l-7.75 4.51a2.87 2.87 0 0 1-2.59 0l-6.31-3.64c-.72-.41-.73-1.08 0-1.49l7.75-4.51a2.85 2.85 0 0 1 2.6 0l6.3 3.63zM322.29 332.12a.79.79 0 0 1 0 1.5l-7.76 4.51a2.86 2.86 0 0 1-2.6 0l-6.31-3.64c-.72-.41-.73-1.08 0-1.5l7.76-4.51a2.87 2.87 0 0 1 2.6 0l6.31 3.64zM367.44 334.34a.79.79 0 0 1 0 1.5l-7.77 4.51a2.84 2.84 0 0 1-2.57 0l-6.31-3.64c-.73-.42-.72-1.09 0-1.5l7.77-4.51a2.84 2.84 0 0 1 2.6 0l6.28 3.64zM294.06 334.6a.78.78 0 0 1 0 1.49l-7.77 4.5a2.82 2.82 0 0 1-2.58 0l-6.29-3.59a.79.79 0 0 1 0-1.5l7.75-4.51a2.86 2.86 0 0 1 2.59 0l6.3 3.61zM340.42 335.57a.79.79 0 0 1 0 1.5l-7.75 4.5a2.82 2.82 0 0 1-2.59 0l-6.31-3.64a.8.8 0 0 1 0-1.51l7.76-4.5a2.87 2.87 0 0 1 2.6 0l6.29 3.65zM242.75 336.64a.8.8 0 0 1 0 1.51l-8.4 4.88a2.89 2.89 0 0 1-2.6 0l-3.23-1.87a.79.79 0 0 1 0-1.5l8.4-4.88a2.87 2.87 0 0 1 2.6 0l3.23 1.86zM264.22 338a.79.79 0 0 1 0 1.5l-7.75 4.5a2.89 2.89 0 0 1-2.6 0l-6.31-3.64a.79.79 0 0 1 0-1.5l7.73-4.56a2.87 2.87 0 0 1 2.6 0l6.33 3.7zM310.07 339.21c.72.41.73 1.08 0 1.5l-7.78 4.5a2.88 2.88 0 0 1-2.6 0l-6.31-3.64a.79.79 0 0 1 0-1.5l7.76-4.51a2.84 2.84 0 0 1 2.59 0l6.34 3.65zM355.47 341.3c.72.41.72 1.07 0 1.5l-10 5.83a2.85 2.85 0 0 1-2.59 0l-6.34-3.63c-.73-.42-.72-1.09 0-1.51l10-5.83a2.82 2.82 0 0 1 2.6 0l6.33 3.64zM328.22 342.65a.79.79 0 0 1 0 1.49l-7.77 4.51a2.84 2.84 0 0 1-2.59 0l-6.29-3.65a.8.8 0 0 1 0-1.51l7.72-4.49a2.88 2.88 0 0 1 2.58 0l6.35 3.65zM230.2 343.93c.72.41.73 1.08 0 1.5l-8.4 4.88a2.87 2.87 0 0 1-2.6 0l-3.23-1.87a.8.8 0 0 1 0-1.5l8.4-4.88a2.84 2.84 0 0 1 2.6 0l3.23 1.87zM252.04 345a.8.8 0 0 1 0 1.5l-7.75 4.5a2.89 2.89 0 0 1-2.6 0l-6.31-3.64a.79.79 0 0 1 0-1.5l7.76-4.51a2.87 2.87 0 0 1 2.6 0l6.3 3.65zM297.89 346.29a.79.79 0 0 1 0 1.5l-7.74 4.5a2.9 2.9 0 0 1-2.61 0l-6.25-3.63a.8.8 0 0 1 0-1.51l7.74-4.5a2.85 2.85 0 0 1 2.6 0l6.26 3.64zM269.7 348.76a.79.79 0 0 1 0 1.49l-7.76 4.51a2.85 2.85 0 0 1-2.59 0l-6.31-3.64a.79.79 0 0 1 0-1.5l7.75-4.51a2.88 2.88 0 0 1 2.6 0l6.31 3.65zM316.04 349.73a.79.79 0 0 1 0 1.5l-7.76 4.5a2.84 2.84 0 0 1-2.59 0l-6.31-3.64a.8.8 0 0 1 0-1.5l7.75-4.51a2.9 2.9 0 0 1 2.6 0l6.31 3.65zM217.64 351.23a.8.8 0 0 1 0 1.5l-8.4 4.88a2.87 2.87 0 0 1-2.6 0l-3.23-1.86a.8.8 0 0 1 0-1.5l8.4-4.88a2.87 2.87 0 0 1 2.6 0l3.23 1.86zM239.84 352.11c.72.42.73 1.08 0 1.5l-7.76 4.51a2.87 2.87 0 0 1-2.6 0l-6.31-3.64c-.72-.41-.73-1.08 0-1.5l7.76-4.51a2.84 2.84 0 0 1 2.59 0l6.32 3.64zM285.71 353.37a.79.79 0 0 1 0 1.5l-7.75 4.51a2.89 2.89 0 0 1-2.6 0l-6.31-3.64a.79.79 0 0 1 0-1.5l7.75-4.51a2.85 2.85 0 0 1 2.6 0l6.31 3.64zM303.86 356.81a.79.79 0 0 1 0 1.5l-7.76 4.51a2.85 2.85 0 0 1-2.59 0l-6.31-3.64a.8.8 0 0 1 0-1.51l7.76-4.5a2.87 2.87 0 0 1 2.6 0l6.3 3.64zM205.08 358.53a.79.79 0 0 1 0 1.5l-8.42 4.89a2.87 2.87 0 0 1-2.6 0l-3.23-1.87a.8.8 0 0 1 0-1.51l8.41-4.89a2.89 2.89 0 0 1 2.59 0l3.25 1.88zM227.66 359.19a.8.8 0 0 1 0 1.51l-7.76 4.5a2.87 2.87 0 0 1-2.6 0l-6.31-3.64a.8.8 0 0 1 0-1.51l7.76-4.5a2.84 2.84 0 0 1 2.6 0l6.31 3.64zM273.53 360.45a.8.8 0 0 1 0 1.5l-7.76 4.51a2.89 2.89 0 0 1-2.6 0l-6.31-3.64a.8.8 0 0 1 0-1.5l7.75-4.51a2.87 2.87 0 0 1 2.6 0l6.32 3.64zM245.29 362.92a.79.79 0 0 1 0 1.49l-7.76 4.51a2.85 2.85 0 0 1-2.58 0l-6.31-3.64a.8.8 0 0 1 0-1.5l7.76-4.51a2.87 2.87 0 0 1 2.6 0l6.29 3.65zM291.68 363.89a.79.79 0 0 1 0 1.5l-7.75 4.5a2.82 2.82 0 0 1-2.59 0l-6.3-3.64c-.72-.41-.74-1.08 0-1.5l7.75-4.51a2.89 2.89 0 0 1 2.6 0l6.29 3.65zM215.48 366.27a.8.8 0 0 1 0 1.51l-7.76 4.5a2.87 2.87 0 0 1-2.6 0l-6.31-3.64a.8.8 0 0 1 0-1.5l7.76-4.51a2.87 2.87 0 0 1 2.6 0l6.31 3.64zM261.29 367.53c.72.41.73 1.08 0 1.5l-7.75 4.51a2.86 2.86 0 0 1-2.6 0l-6.31-3.64c-.72-.41-.73-1.08 0-1.5l7.75-4.51a2.84 2.84 0 0 1 2.59 0l6.32 3.64zM233.14 370a.79.79 0 0 1 0 1.49l-7.75 4.51a2.83 2.83 0 0 1-2.58 0l-6.31-3.64a.79.79 0 0 1 0-1.5l7.76-4.51a2.84 2.84 0 0 1 2.58 0l6.3 3.65zM279.48 371a.78.78 0 0 1 0 1.49l-7.76 4.51a2.81 2.81 0 0 1-2.57 0l-6.31-3.64c-.72-.41-.73-1.08 0-1.5l7.77-4.51a2.86 2.86 0 0 1 2.59 0l6.28 3.65zM203.29 373.35a.8.8 0 0 1 0 1.51l-7.76 4.5a2.87 2.87 0 0 1-2.6 0l-6.31-3.64a.8.8 0 0 1 0-1.5l7.76-4.51a2.87 2.87 0 0 1 2.6 0l6.31 3.64zM249.15 374.61a.79.79 0 0 1 0 1.5l-7.77 4.51a2.86 2.86 0 0 1-2.59 0l-6.28-3.62c-.72-.41-.73-1.08 0-1.49l7.78-4.51a2.85 2.85 0 0 1 2.59 0l6.27 3.61zM220.93 377.1a.79.79 0 0 1 0 1.5l-7.75 4.5a2.84 2.84 0 0 1-2.59 0l-6.3-3.64a.8.8 0 0 1 0-1.51l7.75-4.5a2.87 2.87 0 0 1 2.6 0l6.29 3.65zM267.29 378.06a.79.79 0 0 1 0 1.49l-7.75 4.51a2.84 2.84 0 0 1-2.58 0l-6.31-3.64a.79.79 0 0 1 0-1.5l7.75-4.51a2.9 2.9 0 0 1 2.6 0l6.29 3.65zM341.29 349.54a.79.79 0 0 1 0 1.49l-58.13 33.78a2.85 2.85 0 0 1-2.58 0l-6.29-3.64a.79.79 0 0 1 0-1.5l58.13-33.78a2.82 2.82 0 0 1 2.58 0l6.29 3.65zM191.21 380.37a.8.8 0 0 1 0 1.51l-7.76 4.5a2.87 2.87 0 0 1-2.6 0l-6.31-3.64a.8.8 0 0 1 0-1.51l7.75-4.5a2.87 2.87 0 0 1 2.6 0l6.32 3.64zM236.94 381.71a.8.8 0 0 1 0 1.51l-7.76 4.5a2.87 2.87 0 0 1-2.6 0l-6.29-3.64a.8.8 0 0 1 0-1.51l7.76-4.5a2.87 2.87 0 0 1 2.6 0l6.29 3.64zM255.08 385.16a.78.78 0 0 1 0 1.49l-7.79 4.51a2.84 2.84 0 0 1-2.58 0l-6.31-3.64c-.72-.41-.73-1.08 0-1.5l7.76-4.51a2.84 2.84 0 0 1 2.59 0l6.33 3.65zM208.87 384.1c.72.41.72 1.08 0 1.5l-13.33 7.75a2.85 2.85 0 0 1-2.59 0l-6.31-3.64a.79.79 0 0 1 0-1.5l13.34-7.75a2.84 2.84 0 0 1 2.6 0l6.29 3.64zM264.29 394.29a.79.79 0 0 1 0 1.49l-7.76 4.51a2.84 2.84 0 0 1-2.59 0l-6.31-3.64a.79.79 0 0 1 0-1.5l7.76-4.51a2.86 2.86 0 0 1 2.6 0l6.3 3.65zM239.88 408.47a.79.79 0 0 1 0 1.5l-7.76 4.51a2.85 2.85 0 0 1-2.58 0l-6.31-3.64c-.73-.42-.72-1.09 0-1.5l7.76-4.51a2.83 2.83 0 0 1 2.6 0l6.29 3.64zM224.68 388.83a.8.8 0 0 1 0 1.5l-17.13 10a2.87 2.87 0 0 1-2.6 0l-6.31-3.64a.8.8 0 0 1 0-1.51l17.13-10a2.87 2.87 0 0 1 2.6 0l6.31 3.65z" fill="#515151" fill-rule="nonzero"/>
        <circle fill="#F5F5F5" fill-rule="nonzero" cx="35.11" cy="175.53" r="35.11"/>
        <circle fill="#F5F5F5" fill-rule="nonzero" cx="193.07" cy="35.11" r="35.11"/>
        <circle fill="#F5F5F5" fill-rule="nonzero" cx="364.55" cy="38.02" r="35.11"/>
        <path d="M364.79 90.92a.74.74 0 0 0-.35-.09c-.28 0-.5.13-.5.29v1.16a.25.25 0 0 0 .15.21.73.73 0 0 0 .36.08c.27 0 .5-.13.49-.29v-1.15a.27.27 0 0 0-.15-.2m0 3.47a.73.73 0 0 0-.36-.08c-.27 0-.5.13-.49.29v1.16a.24.24 0 0 0 .14.2.73.73 0 0 0 .36.08c.27 0 .5-.13.49-.29V94.6a.25.25 0 0 0-.15-.21m0 3.48a.74.74 0 0 0-.35-.09c-.28 0-.5.13-.5.29v1.16a.25.25 0 0 0 .15.21.73.73 0 0 0 .36.08c.27 0 .5-.13.5-.29v-1.16a.25.25 0 0 0-.15-.2m0 3.47a.73.73 0 0 0-.36-.08c-.27 0-.49.13-.49.29v1.16a.25.25 0 0 0 .15.21.73.73 0 0 0 .36.08c.27 0 .5-.13.49-.29v-1.16a.25.25 0 0 0-.15-.21m0 3.47a.7.7 0 0 0-.35-.08c-.28 0-.5.13-.5.29v1.16a.26.26 0 0 0 .15.2.71.71 0 0 0 .35.08c.28 0 .5-.13.5-.29V105a.24.24 0 0 0-.14-.2m0 3.48a.74.74 0 0 0-.35-.09c-.28 0-.5.13-.5.29v1.16a.25.25 0 0 0 .15.21.73.73 0 0 0 .36.08c.27 0 .5-.13.49-.29v-1.14a.27.27 0 0 0-.15-.2m0 3.47a.73.73 0 0 0-.36-.08c-.27 0-.5.13-.49.29v1.16a.25.25 0 0 0 .15.2.74.74 0 0 0 .35.09c.28 0 .5-.13.5-.29V112a.25.25 0 0 0-.15-.21m0 3.48a.74.74 0 0 0-.35-.09c-.28 0-.5.13-.5.29v1.16a.25.25 0 0 0 .15.21.73.73 0 0 0 .36.08c.27 0 .5-.13.5-.29v-1.16a.25.25 0 0 0-.15-.2m0 3.47a.73.73 0 0 0-.36-.08c-.27 0-.49.13-.49.29v1.16a.25.25 0 0 0 .15.21.73.73 0 0 0 .36.08c.27 0 .5-.13.49-.29V119a.25.25 0 0 0-.15-.21m0 3.47a.7.7 0 0 0-.35-.08c-.28 0-.5.13-.5.29v1.16a.26.26 0 0 0 .15.2.71.71 0 0 0 .35.08c.28 0 .5-.13.5-.29v-1.22a.24.24 0 0 0-.14-.2m0 3.48a.74.74 0 0 0-.35-.09c-.28 0-.5.13-.5.29V127a.25.25 0 0 0 .15.21.73.73 0 0 0 .36.08c.27 0 .5-.13.49-.29v-1.16a.27.27 0 0 0-.15-.2m0 3.47a.73.73 0 0 0-.36-.08c-.27 0-.5.13-.49.29v1.16a.25.25 0 0 0 .15.2.71.71 0 0 0 .35.09c.28 0 .5-.13.5-.29v-1.16a.25.25 0 0 0-.15-.21m0 3.48a.74.74 0 0 0-.35-.09c-.28 0-.5.13-.5.29V134a.25.25 0 0 0 .15.21.73.73 0 0 0 .36.08c.27 0 .5-.13.5-.29v-1.16a.25.25 0 0 0-.15-.2m0 3.47a.73.73 0 0 0-.36-.08c-.27 0-.5.13-.49.29v1.16a.25.25 0 0 0 .15.21.73.73 0 0 0 .36.08c.27 0 .5-.13.49-.29v-1.16a.25.25 0 0 0-.15-.21m0 3.47a.7.7 0 0 0-.35-.08c-.28 0-.5.13-.5.29V141a.26.26 0 0 0 .15.2.71.71 0 0 0 .35.08c.28 0 .5-.13.5-.29v-1.16a.24.24 0 0 0-.14-.2m0 3.48a.74.74 0 0 0-.35-.09c-.28 0-.5.13-.5.29v1.16a.25.25 0 0 0 .15.21.73.73 0 0 0 .36.08c.27 0 .5-.13.49-.29v-1.16a.27.27 0 0 0-.15-.2m0 3.47a.7.7 0 0 0-.35-.08c-.28 0-.5.13-.49.29v1.16a.25.25 0 0 0 .15.2.71.71 0 0 0 .35.09c.28 0 .5-.13.5-.29v-1.16a.25.25 0 0 0-.15-.21m0 3.48a.74.74 0 0 0-.35-.09c-.28 0-.5.13-.5.29v1.16a.25.25 0 0 0 .15.21.73.73 0 0 0 .36.08c.27 0 .5-.13.5-.29v-1.22a.25.25 0 0 0-.15-.2m0 3.47a.73.73 0 0 0-.36-.08c-.27 0-.5.13-.49.29v1.16a.25.25 0 0 0 .15.21.73.73 0 0 0 .36.08c.27 0 .5-.13.49-.29v-1.16a.25.25 0 0 0-.15-.21m0 3.47a.7.7 0 0 0-.35-.08c-.28 0-.5.13-.5.29v1.16a.26.26 0 0 0 .15.2.71.71 0 0 0 .35.08c.28 0 .5-.13.5-.29v-1.16a.24.24 0 0 0-.14-.2m0 3.48a.74.74 0 0 0-.35-.09c-.28 0-.5.13-.5.29v1.16a.25.25 0 0 0 .15.21.73.73 0 0 0 .36.08c.28 0 .5-.13.49-.29v-1.16a.27.27 0 0 0-.15-.2m0 3.47a.7.7 0 0 0-.35-.08c-.28 0-.5.13-.49.29v1.16a.25.25 0 0 0 .15.2.71.71 0 0 0 .35.09c.28 0 .5-.13.5-.29v-1.16a.25.25 0 0 0-.15-.21m0 3.48a.74.74 0 0 0-.35-.09c-.28 0-.5.13-.5.29v1.16a.25.25 0 0 0 .15.21.73.73 0 0 0 .36.08c.27 0 .5-.13.5-.29v-1.16a.25.25 0 0 0-.15-.2m0 3.47a.73.73 0 0 0-.36-.08c-.27 0-.5.13-.49.29v1.16a.25.25 0 0 0 .15.21.73.73 0 0 0 .36.08c.27 0 .5-.13.49-.29v-1.16a.25.25 0 0 0-.15-.21m0 3.47a.7.7 0 0 0-.35-.08c-.28 0-.5.13-.5.29v1.16a.26.26 0 0 0 .15.2.71.71 0 0 0 .35.08c.28 0 .5-.13.5-.29v-1.16a.24.24 0 0 0-.14-.2m0 3.48a.74.74 0 0 0-.35-.09c-.28 0-.5.13-.5.29v1.16a.25.25 0 0 0 .15.21.73.73 0 0 0 .36.08c.28 0 .5-.13.49-.29V178a.27.27 0 0 0-.15-.2m0 3.47a.7.7 0 0 0-.35-.08c-.28 0-.5.13-.49.29v1.16a.25.25 0 0 0 .15.2.71.71 0 0 0 .35.09c.28 0 .5-.13.5-.29v-1.16a.25.25 0 0 0-.15-.21m0 3.48a.74.74 0 0 0-.35-.09c-.28 0-.5.13-.5.29v1.16a.25.25 0 0 0 .15.21.73.73 0 0 0 .36.08c.27 0 .5-.13.5-.29V185a.27.27 0 0 0-.15-.2m0 3.47a.73.73 0 0 0-.36-.08c-.27 0-.5.13-.49.29v1.16a.25.25 0 0 0 .15.21.73.73 0 0 0 .36.08c.27 0 .5-.13.49-.29v-1.16a.25.25 0 0 0-.15-.21m0 3.47a.7.7 0 0 0-.35-.08c-.28 0-.5.13-.5.29v1.16a.25.25 0 0 0 .15.21.7.7 0 0 0 .35.08c.28 0 .5-.13.5-.29V192a.24.24 0 0 0-.14-.2m0 3.48a.73.73 0 0 0-.36-.08c-.27 0-.5.13-.49.29v1.16a.25.25 0 0 0 .15.21.73.73 0 0 0 .36.08c.27 0 .5-.13.49-.29v-1.16a.25.25 0 0 0-.15-.21m0 3.47a.7.7 0 0 0-.35-.08c-.28 0-.5.13-.49.29V200a.25.25 0 0 0 .15.2.71.71 0 0 0 .35.09c.28 0 .5-.13.5-.29v-1.16a.25.25 0 0 0-.15-.21m0 3.48a.74.74 0 0 0-.35-.09c-.28 0-.5.13-.5.29v1.16a.25.25 0 0 0 .15.21.73.73 0 0 0 .36.08c.27 0 .5-.13.5-.29v-1.16a.27.27 0 0 0-.15-.2m0 3.47a.73.73 0 0 0-.36-.08c-.27 0-.5.13-.49.29V207a.26.26 0 0 0 .15.2.73.73 0 0 0 .36.09c.27 0 .5-.13.49-.29v-1.15a.25.25 0 0 0-.15-.21m.32 3.47a.78.78 0 0 0 0-.11c-.27 0-.46.17-.42.33.096.393.212.78.35 1.16a.3.3 0 0 0 .14.15.76.76 0 0 0 .45.08c.27 0 .44-.18.39-.34-.13-.37-.24-.75-.33-1.12a.28.28 0 0 0-.14-.16m1.39 3.37a.76.76 0 0 0-.51-.07c-.26 0-.4.22-.31.36.22.38.46.74.71 1.1a.35.35 0 0 0 .11.1.8.8 0 0 0 .55.06c.25-.06.38-.23.27-.38-.25-.35-.48-.7-.7-1.07a.31.31 0 0 0-.12-.11m2.47 3.17a.81.81 0 0 0-.6 0c-.24.08-.32.25-.19.4.33.34.69.67 1.06 1h.06a.81.81 0 0 0 .63 0c.23-.09.29-.27.14-.4a9.44 9.44 0 0 1-1-1l-.08-.06m3.44 2.85a.77.77 0 0 0-.68 0c-.22.1-.23.28-.06.41.44.3.89.59 1.37.87a.76.76 0 0 0 .69 0c.2-.11.21-.29 0-.41-.46-.27-.9-.56-1.33-.85m31.14 18.07l-1.42-.82a.78.78 0 0 0-.7 0 .22.22 0 0 0 0 .41l1.42.82a.78.78 0 0 0 .71 0 .22.22 0 0 0 0-.41m-4.24-2.51l-1.42-.82a.78.78 0 0 0-.71 0 .22.22 0 0 0 0 .41l1.42.82a.78.78 0 0 0 .71 0c.19-.11.19-.29 0-.41m-4.26-2.46l-1.38-.74a.77.77 0 0 0-.7 0c-.2.11-.2.29 0 .41l1.42.82a.78.78 0 0 0 .71 0c.19-.11.19-.29 0-.41m-4.25-2.46l-1.42-.82a.78.78 0 0 0-.7 0 .22.22 0 0 0 0 .41l1.42.82a.78.78 0 0 0 .71 0 .22.22 0 0 0 0-.41m-4.26-2.46l-1.42-.82a.78.78 0 0 0-.71 0 .22.22 0 0 0 0 .41l1.42.82a.78.78 0 0 0 .71 0c.19-.11.19-.29 0-.41m-4.26-2.46l-1.42-.82a.77.77 0 0 0-.7 0c-.2.11-.2.29 0 .41l1.42.82a.78.78 0 0 0 .71 0c.19-.11.19-.29 0-.41m-4.25-2.46l-1.43-.78a.78.78 0 0 0-.7 0 .22.22 0 0 0 0 .41l1.42.82a.78.78 0 0 0 .71 0 .22.22 0 0 0 0-.41m28.09 16.51a.78.78 0 0 0-.6 0c-.24.08-.32.26-.17.39.313.302.59.637.83 1a.33.33 0 0 0 .12.11.78.78 0 0 0 .53.07c.25-.06.39-.22.28-.37a5.64 5.64 0 0 0-.91-1.09l-.08-.06m1.42 3.32a.69.69 0 0 0-.3-.08c-.28 0-.53.09-.56.25a2.36 2.36 0 0 1-.5 1c-.1.11 0 .25.09.33l.13.05a.71.71 0 0 0 .67-.13c.295-.345.5-.757.6-1.2a.24.24 0 0 0-.14-.24m-3.15 2.85a.77.77 0 0 0-.71 0l-1.41.82a.22.22 0 0 0 0 .41.77.77 0 0 0 .71 0l1.41-.82c.2-.11.2-.29 0-.41m-4.21 2.47a.78.78 0 0 0-.71 0l-1.41.82a.22.22 0 0 0 0 .41.77.77 0 0 0 .71 0l1.41-.82c.2-.11.2-.29 0-.41m-4.23 2.46a.78.78 0 0 0-.71 0l-1.41.82c-.19.11-.19.29 0 .41a.77.77 0 0 0 .7 0l1.41-.82a.21.21 0 0 0 0-.41m-4.33 2.38a.77.77 0 0 0-.71 0l-1.41.82a.22.22 0 0 0 0 .41.77.77 0 0 0 .71 0l1.41-.82c.2-.11.2-.29 0-.41m-4.22 2.46a.78.78 0 0 0-.71 0l-1.41.82a.22.22 0 0 0 0 .41.77.77 0 0 0 .71 0l1.41-.82c.2-.11.2-.29 0-.41m-4.23 2.46a.78.78 0 0 0-.71 0l-1.41.82c-.19.11-.19.29 0 .41a.77.77 0 0 0 .7 0l1.41-.82a.21.21 0 0 0 0-.41m-4.23 2.46a.77.77 0 0 0-.71 0l-1.41.82a.22.22 0 0 0 0 .41.77.77 0 0 0 .71 0l1.41-.82c.2-.11.2-.29 0-.41m-4.22 2.46a.78.78 0 0 0-.71 0l-1.41.82a.22.22 0 0 0 0 .41.77.77 0 0 0 .71 0l1.41-.82c.2-.11.2-.29 0-.41m-4.23 2.46a.78.78 0 0 0-.71 0l-1.41.82c-.19.11-.19.29 0 .41a.77.77 0 0 0 .7 0l1.41-.82a.21.21 0 0 0 0-.41m-4.23 2.46a.77.77 0 0 0-.71 0l-1.41.82a.22.22 0 0 0 0 .41.77.77 0 0 0 .71 0l1.41-.82c.2-.11.2-.29 0-.41m-2.14-179.15a.7.7 0 0 0-.35-.08c-.28 0-.5.13-.5.29v1.16a.26.26 0 0 0 .15.2.71.71 0 0 0 .35.08c.28 0 .5-.13.5-.29v-1.16a.24.24 0 0 0-.14-.2M193.07 156.72a.5.5 0 0 1-.5-.5v-1a.5.5 0 0 1 1 0v1a.5.5 0 0 1-.5.5zm0-4a.5.5 0 0 1-.5-.5v-1a.5.5 0 0 1 1 0v1a.5.5 0 0 1-.5.5zm0-4a.5.5 0 0 1-.5-.5v-1a.5.5 0 0 1 1 0v1a.5.5 0 0 1-.5.5zm0-4a.5.5 0 0 1-.5-.5v-1a.5.5 0 0 1 1 0v1a.5.5 0 0 1-.5.5zm0-4a.5.5 0 0 1-.5-.5v-1a.5.5 0 0 1 1 0v1a.5.5 0 0 1-.5.5zm0-4a.5.5 0 0 1-.5-.5v-1a.5.5 0 0 1 1 0v1a.5.5 0 0 1-.5.5zm0-4a.5.5 0 0 1-.5-.5v-1a.5.5 0 0 1 1 0v1a.5.5 0 0 1-.5.5zm0-4a.5.5 0 0 1-.5-.5v-1a.5.5 0 0 1 1 0v1a.5.5 0 0 1-.5.5zm0-4a.5.5 0 0 1-.5-.5v-1a.5.5 0 0 1 1 0v1a.5.5 0 0 1-.5.5zm0-4a.5.5 0 0 1-.5-.5v-1a.5.5 0 0 1 1 0v1a.5.5 0 0 1-.5.5zm0-4a.5.5 0 0 1-.5-.5v-1a.5.5 0 0 1 1 0v1a.5.5 0 0 1-.5.5zm0-4a.5.5 0 0 1-.5-.5v-1a.5.5 0 0 1 1 0v1a.5.5 0 0 1-.5.5zm0-4a.5.5 0 0 1-.5-.5v-1a.5.5 0 0 1 1 0v1a.5.5 0 0 1-.5.5zm0-4a.5.5 0 0 1-.5-.5v-1a.5.5 0 0 1 1 0v1a.5.5 0 0 1-.5.5zm0-4a.5.5 0 0 1-.5-.5v-1a.5.5 0 0 1 1 0v1a.5.5 0 0 1-.5.5zm0-4a.5.5 0 0 1-.5-.5v-1a.5.5 0 0 1 1 0v1a.5.5 0 0 1-.5.5zm0-4a.5.5 0 0 1-.5-.5v-1a.5.5 0 0 1 1 0v1a.5.5 0 0 1-.5.5zm0-4a.5.5 0 0 1-.5-.5v-1a.5.5 0 0 1 1 0v1a.5.5 0 0 1-.5.5zm0-4a.5.5 0 0 1-.5-.5v-1a.5.5 0 0 1 1 0v1a.5.5 0 0 1-.5.5zm0-4a.5.5 0 0 1-.5-.5v-1a.5.5 0 0 1 1 0v1a.5.5 0 0 1-.5.5z" fill="#C4C4C4" fill-rule="nonzero"/>
        <path fill="#E9E9E9" fill-rule="nonzero" d="M283 266.51l.78 3.08-102.2 59.81-.77-3.04L283 266.51M275.61 277.68l.77 3.04-84.44 49.43-.77-3.07 84.44-49.4"/>
        <path fill="#2B90FF" fill-rule="nonzero" d="M303.75 222.98l2.25 8.96-5.41 3.16-2.27-8.95 5.43-3.17"/>
        <path fill="#92CBFF" fill-rule="nonzero" d="M300.59 210.44l3.16 12.54-5.43 3.17-3.15-12.51 5.42-3.2"/>
        <path fill="#2B90FF" fill-rule="nonzero" d="M287 225.83l3.77 15.01-5.4 3.17-3.75-15 5.38-3.18"/>
        <path fill="#92CBFF" fill-rule="nonzero" d="M284.52 215.9l2.48 9.93-5.38 3.18-2.52-9.95 5.42-3.16"/>
        <path fill="#2B90FF" fill-rule="nonzero" d="M266.91 215.22l8.67 34.5-5.41 3.2-8.67-34.51 5.41-3.19M255.11 237.72l5.26 20.94-5.39 3.15-5.26-20.95 5.39-3.14"/>
        <path fill="#92CBFF" fill-rule="nonzero" d="M252.91 228.98l2.2 8.74-5.39 3.14-2.19-8.74 5.38-3.14"/>
        <path fill="#2B90FF" fill-rule="nonzero" d="M242.53 257.04l2.64 10.5-5.38 3.14-2.65-10.49 5.39-3.15M228.17 269.21l1.81 7.25-5.42 3.16-1.8-7.24 5.41-3.17"/>
        <path fill="#92CBFF" fill-rule="nonzero" d="M222.72 247.54l5.45 21.67-5.41 3.17-5.46-21.67 5.42-3.17"/>
        <path fill="#2B90FF" fill-rule="nonzero" d="M208.2 259.16l6.59 26.17-5.41 3.17-6.58-26.19 5.4-3.15"/>
        <path fill="#92CBFF" fill-rule="nonzero" d="M205.91 250.03l2.29 9.13-5.4 3.15-2.3-9.13 5.41-3.15"/>
        <path fill="#2B90FF" fill-rule="nonzero" d="M188.34 249.51l11.22 44.72-5.38 3.15-11.26-44.71 5.42-3.16M181.86 293.17l2.51 9.98-5.41 3.16-2.49-9.96 5.39-3.18"/>
        <path fill="#92CBFF" fill-rule="nonzero" d="M176.47 271.69l5.39 21.48-5.39 3.18-5.39-21.49 5.39-3.17"/>
        <path fill="#2B90FF" fill-rule="nonzero" d="M168.28 308.42l.9 3.61-5.41 3.17-.91-3.63 5.42-3.15"/>
        <path fill="#92CBFF" fill-rule="nonzero" d="M155.6 258.07l12.68 50.35-5.42 3.15-12.64-50.36 5.38-3.14"/>
        <path fill="#2B90FF" fill-rule="nonzero" d="M153.41 318.69l.59 2.23-5.42 3.15-.55-2.25 5.38-3.13"/>
        <path fill="#92CBFF" fill-rule="nonzero" d="M140.15 265.86l13.26 52.83-5.38 3.13-13.3-52.76 5.42-3.2"/>
        <path d="M291.74 187.64a1.2 1.2 0 0 1 1.92.65 2.34 2.34 0 0 1-1.14 2.38h-.06a1.13 1.13 0 0 1-1.82-.67 1.59 1.59 0 0 1 0-.71l1.46.07.16-.46-1.49-.08a2.69 2.69 0 0 1 1-1.22M273.09 187.87a1.94 1.94 0 0 0-.14 1.27 1.18 1.18 0 0 0 1.89.67 2.61 2.61 0 0 0 1-1.23l-1.51-.08-1.27-.64m1-1.13a2.29 2.29 0 0 0-.72.68l1.21.62 1.44.07a1.88 1.88 0 0 0 0-.72 1.19 1.19 0 0 0-1.92-.65M254.55 178.44l-.3 1.4a1.69 1.69 0 0 0 .59-.21 2.58 2.58 0 0 0 .73-.67l-1-.52m-.45-1.87a2.42 2.42 0 0 0-1.14 2.43c.111.473.515.82 1 .86l.37-1.71.1-.39 1.45.74a2 2 0 0 0 .13-1.3 1.19 1.19 0 0 0-1.88-.63M246.9 213.36l-.38 1.74-.82 1.78a1.46 1.46 0 0 0 1-.21 2.35 2.35 0 0 0 1.14-2.42 1.07 1.07 0 0 0-1-.9m-.92.22a2.37 2.37 0 0 0-1.14 2.43c.073.34.293.629.6.79l.76-1.66.39-1.77a1.71 1.71 0 0 0-.61.21M236.01 238.1l-.77 1.71-.1.2-1.5-.38a2 2 0 0 0-.06 1 1.2 1.2 0 0 0 1.91.61 2.32 2.32 0 0 0 1.11-2.4 1.07 1.07 0 0 0-.59-.77m-1.29.14a2.34 2.34 0 0 0-.9 1l1.23.32.68-1.5a1.55 1.55 0 0 0-1 .22M215.04 234.61a1.91 1.91 0 0 0-.1 1.19 1.17 1.17 0 0 0 1.88.63c.386-.222.7-.547.91-.94l-1.38-.36-1.3-.53m1-1.23a2.42 2.42 0 0 0-.81.77l1.29.53 1.37.36a1.89 1.89 0 0 0 0-1c-.18-.85-1-1.12-1.88-.64M195.54 227a1.91 1.91 0 0 0 0 1 1.18 1.18 0 0 0 1.89.64c.323-.194.6-.457.81-.77l-1.28-.53-1.39-.3m1.09-1.44a2.39 2.39 0 0 0-.91 1l1.42.31 1.3.53c.162-.375.2-.792.11-1.19a1.21 1.21 0 0 0-1.92-.61M178.57 223.19l-1.05 1.34a1.29 1.29 0 0 0 1.38 0 .12.12 0 0 0 .05 0c.398-.24.72-.586.93-1l-1.31-.29m-.39-1.75a2.33 2.33 0 0 0-1.11 2.4c.044.177.122.343.23.49l1.17-1.49.1-.13 1.48.33a2 2 0 0 0 .05-1 1.21 1.21 0 0 0-1.92-.61M166.64 238.44l-1.17 1.56-.07.07-1.6.28a1.79 1.79 0 0 0 0 .44 1.19 1.19 0 0 0 1.91.61 2.4 2.4 0 0 0 1.15-2.42 1.39 1.39 0 0 0-.26-.5m-1.6-.16h-.06a2.45 2.45 0 0 0-1.13 1.56l1.48-.26 1.08-1.38a1.27 1.27 0 0 0-1.37 0M147.14 243a1.54 1.54 0 0 0 0 .66 1.19 1.19 0 0 0 1.89.67 2.48 2.48 0 0 0 1.14-1.6l-1.59.28h-1.46m1.2-1.73h-.06a2.4 2.4 0 0 0-1 1.26h1.48l1.52-.27a1.5 1.5 0 0 0-.05-.38 1.17 1.17 0 0 0-1.86-.66M130.8 241.05a1.2 1.2 0 0 1 1.92.61 1.94 1.94 0 0 1 0 .7h-1.45l-.16.46h1.49a2.46 2.46 0 0 1-1 1.26h-.06a1.15 1.15 0 0 1-1.82-.67 2.32 2.32 0 0 1 1.11-2.4" fill="#2B90FF" fill-rule="nonzero"/>
        <path d="M217.93 235a2.26 2.26 0 0 1-.21.46l15.92 4.13a2 2 0 0 1 .18-.43L217.93 235m27.51-18.24L235.73 238c.096.02.19.05.28.09l9.7-21.21a1.36 1.36 0 0 1-.27-.09m30.55-28.69a1.86 1.86 0 0 1-.12.48l14.74.74a1.94 1.94 0 0 1 .13-.47L276 188.1m-77.55 39.21a2.92 2.92 0 0 1-.23.46l16.83 6.83a3.61 3.61 0 0 1 .23-.46l-16.83-6.84m-18.41-4.3a3.61 3.61 0 0 1-.17.44l15.67 3.56a2.77 2.77 0 0 1 .19-.47L180.04 223m73.88-43.19l-7.33 33.52a1.12 1.12 0 0 1 .31 0l7.39-33.49a1.83 1.83 0 0 1-.32 0m1.92-1.35a2.55 2.55 0 0 1-.28.46l17.52 8.92a2.46 2.46 0 0 1 .25-.45l-17.5-8.92m-123.15 63.87a2.1 2.1 0 0 1-.12.46l14.53.17a2.28 2.28 0 0 1 .11-.44l-14.52-.19" fill="#92CBFF" fill-rule="nonzero"/>
        <path d="M290.74 188.86l1.49.08-.16.46-1.46-.07a1.94 1.94 0 0 1 .13-.47M273.34 187.42l1.21.62 1.44.07a1.86 1.86 0 0 1-.12.48l-1.51-.08-1.27-.64a2.46 2.46 0 0 1 .25-.45M254.39 177.76l1.45.74a2.55 2.55 0 0 1-.28.46l-1-.52-.3 1.4a1.83 1.83 0 0 1-.32 0l.37-1.71.1-.39M246.59 213.37a1.12 1.12 0 0 1 .31 0l-.38 1.74-.82 1.78a1.36 1.36 0 0 1-.27-.09l.76-1.66.39-1.77M235.73 238c.096.02.19.05.28.09l-.77 1.71-.1.2-1.5-.38a2 2 0 0 1 .18-.43l1.23.32.68-1.5M215.29 234.16l1.29.53 1.37.36a2.26 2.26 0 0 1-.21.46l-1.38-.36-1.3-.53a3.61 3.61 0 0 1 .23-.46M195.72 226.48l1.42.31 1.3.53a2.92 2.92 0 0 1-.23.46l-1.28-.53-1.39-.3a2.77 2.77 0 0 1 .19-.47" fill="#2B90FF" fill-rule="nonzero"/>
        <path d="M150.29 242.3a1.52 1.52 0 0 1-.05.43l13.61-2.43a2.06 2.06 0 0 1 0-.42l-13.56 2.42m27.05-18l-10.88 13.92c.086.055.163.123.23.2l10.87-13.91a1.72 1.72 0 0 1-.22-.2" fill="#92CBFF" fill-rule="nonzero"/>
        <path d="M178.57 222.71l1.48.33a3.61 3.61 0 0 1-.17.44l-1.31-.29-1.05 1.34a1.72 1.72 0 0 1-.22-.2l1.17-1.49.1-.13M166.41 238.25c.086.055.163.123.23.2l-1.17 1.55-.07.07-1.6.28a2.06 2.06 0 0 1 0-.42l1.48-.26 1.08-1.38M147.29 242.55h1.48l1.52-.27a1.52 1.52 0 0 1-.05.43l-1.59.28h-1.46a2.28 2.28 0 0 1 .11-.44M131.29 242.35h1.45a2.1 2.1 0 0 1-.12.46h-1.49l.16-.46" fill="#2B90FF" fill-rule="nonzero"/>
        <path d="M18.38 188.35h30.74" stroke="#2B90FF"/>
        <path d="M18.38 163.48h1.74M23.23 163.48h1.75M28.08 163.48h1.75M32.94 163.48h1.75M37.79 163.48h1.75M42.65 163.48h1.75M47.5 163.48h1.75" stroke="#2B90FF" stroke-linecap="round"/>
        <path stroke="#2B90FF" d="M31.13 173.17h5.25v15.18h-5.25zM40 168.33h5.25v20.02H40zM21.5 177.83h5.25v10.52H21.5z"/>
        <path d="M365.84 22.16c-3.05 0-6.45 1.84-6.45 6.63v1.66c-1.4 0-1.35 1.74-1.35 2.18 0 .44.33 3.35 1.73 3.35a7.93 7.93 0 0 0 3.3 4.73" stroke="#2B90FF" stroke-linecap="round"/>
        <path d="M368.6 40.71a7.93 7.93 0 0 0 3.3-4.73c1.39 0 1.72-2.91 1.72-3.35 0-.44.05-2.15-1.34-2.17V28.8c0-4.79-3.39-6.63-6.45-6.63" stroke="#2B90FF" stroke-linecap="round"/>
        <path d="M372.12 44.26c-2.84-.88-2.61-2-2.61-2.75v-1.84M362.16 40v1.49c0 .92.46 2.3-4.61 3.22a6.71 6.71 0 0 0-5.35 5.07h17.89" stroke="#2B90FF"/>
        <path d="M361.24 43.55a9.77 9.77 0 0 0 9.2 0M359.39 29.53c5.53 0 5.53-3.69 9.21-3.69a3.55 3.55 0 0 1 3.69 3.25" stroke="#2B90FF" stroke-linecap="round" stroke-linejoin="round"/>
        <circle stroke="#2B90FF" stroke-linecap="round" stroke-linejoin="round" cx="376.6" cy="48.6" r="6.4"/>
        <path stroke="#2B90FF" stroke-linecap="round" stroke-linejoin="round" d="M374.75 49.27l1.36 1.36 3.09-4.17M373.61 24.22h8.35M357.76 24.22h-8.99M375.38 30.03h6.58M356.28 30.03h-7.51M374.91 35.83h7.05M356.37 35.83h-7.6"/>
        <path stroke="#2B90FF" d="M189.14 50.86l-12.15-12.15 15.94-15.95 11.4.75.75 11.4z"/>
        <circle stroke="#2B90FF" transform="rotate(-44.98 199.011 28.84)" cx="199.011" cy="28.839" r="1.07"/>
        <path d="M200.53 20.47c2.31-2.31 5.71-2.65 7.59-.76s1.55 5.29-.76 7.6c-2.31 2.31-5.71 2.65-7.59.76" stroke="#2B90FF" stroke-linecap="round"/>
    </g>
</svg>
