<svg width="448" height="423" viewBox="0 0 448 423" xmlns="http://www.w3.org/2000/svg">
    <g fill-rule="nonzero" fill="none">
        <path d="M446.165 375.289l-70.816-40.885a9.633 9.633 0 0 0-8.67 0l-70.349 40.885c-2.38 1.376-2.367 3.633 0 5.023l70.803 40.885a9.633 9.633 0 0 0 8.67 0l70.348-40.885c2.381-1.376 2.367-3.633 0-5.023" opacity=".07" fill="#000"/>
        <path d="M445.766 338.532l-70.83-40.844a9.633 9.633 0 0 0-8.67 0l-70.321 40.844c-2.38 1.376-2.367 3.633 0 5.023l70.803 40.885a9.633 9.633 0 0 0 8.67 0l70.348-40.885c2.38-1.376 2.367-3.633 0-5.023" fill="#FFF"/>
        <path d="M348.624 325.679c-8.752 5.078-6.785 14.546 4.362 21.027 11.147 6.482 27.427 7.624 36.165 2.533 8.739-5.092 6.785-14.546-4.362-21.028-11.147-6.482-27.427-7.569-36.165-2.532z" fill="#000" opacity=".07"/>
        <path d="M358.849 174.633l-11.299 29.12-11.82-1.253c.674-12.028 2.504-25.9 6.577-34.528" fill="#FFF"/>
        <path d="M338.069 227.394a17.656 17.656 0 0 0 4.858 12.647c1.06 1.046 1.5.523 1.5.523 1.142.798 1.266.165 1.266.165 1.128.62 1.224-.165 1.224-.165s.909.482 1.239 0c.33-.481-.908-1.376-1.748-2.325a6.88 6.88 0 0 1-1.458-2.904c.454 1.582.908 1.527 1.156 1.376.247-.151.206-.578 0-1.376-.152-.578-.262-1.101-.455-1.885-.289-1.225-.715-5.505-.715-5.505l-6.867-.55z" fill="#FFCFAE"/>
        <path d="M347.592 203.752l-2.56 26.147-7.156-.193s-3.275-6.467-2.092-27.523" fill="#FFF"/>
        <circle fill="#FFF" cx="341.716" cy="202.596" r="5.945"/>
        <circle fill="#FFF" cx="350.358" cy="171.908" r="8.931"/>
        <path d="M384.39 341.284c0-.729 0-2.614-.674-3.344-1.198-1.197-4.129-.192-6.55 2.216-2.423 2.408-3.4 5.353-2.203 6.55 1.198 1.198 4.129.207 6.55-2.215a23.284 23.284 0 0 0 2.877-3.207z" fill="#444549"/>
        <path d="M382.986 337.817c-.743-.785-2.642-.193-4.21 1.376-1.57 1.568-2.258 3.357-1.5 4.128.756.77 2.641.193 4.21-1.376s2.243-3.413 1.5-4.128z" fill="#FFCFAE"/>
        <path d="M362.633 328.995c0-.701 0-2.518-.647-3.206-1.156-1.156-3.963-.193-6.289 2.12-2.325 2.311-3.275 5.132-2.119 6.288 1.156 1.156 3.963.193 6.289-2.119a21.633 21.633 0 0 0 2.766-3.083z" fill="#444549"/>
        <path d="M361.298 325.679c-.715-.757-2.532-.193-4.046 1.252-1.513 1.445-2.174 3.234-1.445 3.977.73.743 2.546.193 4.046-1.266 1.5-1.459 2.16-3.206 1.445-3.963z" fill="#FFCFAE"/>
        <path d="M384.39 339.468c0 1.252-1.486 2.188-3.647 2.188-2.16 0-3.082-1.032-3.082-2.298 0 0-7.156-31.115-8.56-43.211-1.404-12.097-3.29-34.762-3.29-34.762l-3.907 30.358.812 35.78c0 .936-1.377 1.61-3.386 1.61-2.009 0-2.752-.62-2.862-1.376 0 0-7.679-25.707-9.482-47.973-1.21-14.793-.825-35.215-.605-45.935l47.188 8.945c-3.041 22.018-9.165 56.422-9.165 56.422l-.014 40.252z" fill="#D6E5F2"/>
        <path d="M384.706 163.197c-7.816-4.417-22.775-7.844-32.49-4.128-12.771 4.913-12.771 20.037-12.771 20.009v44.931c0 6.152-.358 13.211 7.927 20.642 4.94 4.46 17.587 11.987 28.018 14.216 2.484.577 5.047.73 7.582.454 13.487-1.885 15.964-9.633 15.964-19.472 0 0 .66-46.074-1.087-58.321-1.83-12.689-13.143-18.33-13.143-18.33z" fill="#FFF"/>
        <path d="M397.821 181.651c1.748 12.262 1.087 58.321 1.087 58.321 0 9.826-2.477 17.588-15.963 19.473-1.919.224-3.86.178-5.766-.138 2.821-1.376 7.156-6.715 7.156-25.789v-49.54s-.537-8.836 7.266-8.836a7.183 7.183 0 0 1 5.27 2.436c.438 1.327.756 2.69.95 4.073z" fill="#000" opacity=".05"/>
        <path d="M373.188 147.248v13.486a3.688 3.688 0 0 1-2.12 2.876 11.394 11.394 0 0 1-10.334 0 3.716 3.716 0 0 1-2.147-2.931v-1.376c-3.082-2.753-5.064-7.913-4.871-12.881.11-2.752 0-6.454 1.238-8.49 1.9-3.166 5.752-3.978 9.041-3.84 5.34.302 9.496 6.179 9.193 13.156z" fill="#FFCFAE"/>
        <path d="M373.147 147.77v12.991a3.688 3.688 0 0 1-2.12 2.877 11.394 11.394 0 0 1-10.334 0 3.716 3.716 0 0 1-2.147-2.932v-1.376a6.99 6.99 0 0 0 4.321 1.886c5.27.289 9.853-6.565 10.28-13.445z" fill="#3A2416" opacity=".04"/>
        <path d="M375.693 147.413a13.927 13.927 0 0 1-3.303 4.555c.364-1.188.608-2.41.73-3.647v-.151a1.803 1.803 0 1 0-3.51-.73l-.702-7.5s-8.71 2.89-14.614-.509a22.748 22.748 0 0 0-.592 5.326c-3.578-4.79-3.963-11.518-2.312-14.959.319.624.89 1.08 1.569 1.252a1.596 1.596 0 0 1 0-1.1c1.17 2.298 12.179-.152 15.688-.537 3.509-.385 4.417 1.376 4.417 1.376s2.491-.303 3.95 4.128c1.114 3.124 1.128 7.225-1.321 12.496z" fill="#424242"/>
        <path fill="#D6E5F2" d="M360.404 166.239l1.087 4.128-4.982 35.023 5.766 13.417 5.642-6.825-4.637-40.555 1.665-3.991-2.546-1.61z"/>
        <path d="M357.72 158.587c.26.29.535.566.826.826.426 2.408 4.046 5.037 4.046 5.037 8.34-2.45 10.596-6.771 10.596-6.771.657.4 1.21.953 1.61 1.61.688 1.569-.798 3.454-.798 3.454l-6.88 8.188-4.748-5.092-4.9 2.574-.247-8.574c.034-.458.206-.895.495-1.252z" fill="#F2F2F2"/>
        <path fill="#2B90FF" d="M372.72 187.1l9.014 5.23v-2.93l-9.014-5.244z"/>
        <path d="M381.294 174.069l-30.427 24.413 7.431 12.096s3.303-1.1 6.757-2.49c14.532-5.877 24.606-12.386 30.757-19.46" fill="#FFF"/>
        <circle fill="#FFF" transform="rotate(-22.3 388.116 181.8)" cx="388.116" cy="181.8" r="10.28"/>
        <path d="M355.422 211.761l-32.23 11.932-2.353-6.262s10.555-9.867 30.042-19.266" fill="#FFF"/>
        <circle fill="#FFF" transform="rotate(-21.23 353.585 204.812)" cx="353.585" cy="204.812" r="7.17"/>
        <path d="M323.674 215.16s-5.394.689-5.807-3.674c0 0-.936-2.38-1.638-.275a10.775 10.775 0 0 0 .702 3.88 76.225 76.225 0 0 0-10.28 6.62s.537 2.064 6.991-2.587c0 0-.84 1.376 1.019 2.202 0 0-1.074 1.857 1.018 2.202a1.583 1.583 0 0 0 1.459 2.16 61.39 61.39 0 0 1 6.495-2.188" fill="#FCCEAE"/>
        <path fill="#FFF" opacity=".2" d="M117.087 253.514l206.12 115.885-2.12 1.184L115.05 254.697z"/>
        <path fill="#FFF" d="M320.963 370.596l-206.05-115.899 206.05 115.886z"/>
        <path fill="#D6E5F2" opacity=".4" d="M114.913 87.936l2.05-1.005 206.065 116.092v166.569l-2.05 1.087-206.065-115.982V87.674"/>
        <g opacity=".5" fill="#FFF">
            <path opacity=".8" d="M310.794 198.11l-38.037-21.399-79.5 122.05 38.766 21.799zM169.147 285.206l12.605 7.074 78.18-122.78-13.528-7.61z"/>
        </g>
        <path fill="#D6E5F2" opacity=".4" d="M115.174.4l.812-.4 81.44 45.88.014 74.547-.825.44-81.44-45.853V.289"/>
        <g opacity=".5" fill="#FFF">
            <path opacity=".8" d="M192.596 43.94l-15.027-8.45-35.574 54.606 15.358 8.643zM132.583 84.812l4.926 2.766 34.982-54.95-5.34-3z"/>
        </g>
        <path fill="#D6E5F2" opacity=".4" d="M210.06 25.61l1.114-.55 111.578 62.862V190.06l-1.114.591-111.578-62.807V25.459"/>
        <g opacity=".5" fill="#FFF">
            <path opacity=".8" d="M316.12 85.252L295.531 73.68 246.79 148.5l21.041 11.835zM233.894 141.248l6.757 3.798 47.932-75.275-7.322-4.129z"/>
        </g>
        <g opacity=".5">
            <path d="M285.817 312.041v-2.408l5.064 2.931v2.422l-5.078-2.917m-14.34-8.257v-3.867l5.106 2.959v3.867l-5.106-2.945m-57.289-33.028v-7.775l5.106 2.959v7.761l-5.106-2.945m-71.56-41.353v-9.633l5.106 2.945v9.633l-5.105-2.959m114.591 66.152v-10.707l5.078 2.931v10.72l-5.064-2.93m-57.275-33.028V251.27l5.078 2.93v11.313l-5.064-2.945m-42.977-24.77v-16.13l5.105 2.946v16.128l-5.105-2.945m28.637 16.514v-22.514l5.106 2.945v22.514l-5.106-2.945m-42.95-34.404v-13.5l5.106 2.959v13.486l-5.105-2.945m14.284 1.652v-10.707l5.106 2.945v10.707l-5.106-2.945m71.56 57.468l.069-28.17 5.078 2.917-.083 28.17-5.064-2.931m-14.312-16.046v-23.326l5.105 2.945v23.395l-5.105-2.96m-28.596-31.293v-9.385l5.105 2.945v9.385l-5.105-2.945m71.56 53.147v-23.078l5.077 2.931v23.078l-5.078-2.93m-85.899-38.987l.096-37.156 5.078 2.931-.11 37.156-5.064-2.931m57.358 4.913v-9.757l5.078 2.917v9.757l-5.078-2.917m14.202 36.426l.124-48.165 5.105 2.945-.124 48.165-5.105-2.945m28.651 12.675l.151-54.152 5.106 2.945-.151 54.165-5.106-2.958m14.353 9.729l.165-56.766 5.065 2.945-.166 56.766-5.064-2.945m1.376-82.17a2.27 2.27 0 0 1-.11-.73c0-.921.66-1.279 1.376-.825a3.151 3.151 0 0 1 1.377 2.477c0 .922-.66 1.28-1.377.826a3.028 3.028 0 0 1-1.128-1.294l-11.904 1.28c.078.231.12.472.124.716 0 .922-.66 1.28-1.376.84a3.096 3.096 0 0 1-1.266-1.597l-11.697-1.541a2.23 2.23 0 0 1 0 .426c0 .881-.647 1.239-1.376.785a3.151 3.151 0 0 1-1.377-2.436c-.002-.179.031-.357.097-.523l-11.794-13.94a.894.894 0 0 1-1.156 0 3.11 3.11 0 0 1-.977-1.019l-12.179 4.83a2.6 2.6 0 0 1 .234 1.033c0 .908-.647 1.28-1.376.825a2.904 2.904 0 0 1-.826-.798l-12.454 8.519c.213.389.33.822.344 1.266 0 .88-.646 1.238-1.376.784a2.752 2.752 0 0 1-.922-.936l-12.248 5.505c.148.334.228.694.234 1.06 0 .908-.619 1.293-1.376.825a3.151 3.151 0 0 1-1.376-2.477 1.087 1.087 0 0 1 .317-.853l-12.482-21.564c-.31.065-.633 0-.895-.18a3.083 3.083 0 0 1-1.376-2.421c0-.565.248-.922.62-1.005l-12.909-34.899a1.197 1.197 0 0 1-.523-.179c-.3-.176-.561-.41-.77-.688l-12.647 10.72c.245.419.382.892.399 1.376 0 .909-.647 1.28-1.376.826a3.028 3.028 0 0 1-1.101-1.238l-12.083 1.926c.09.247.137.508.138.77 0 .923-.647 1.28-1.376.84a3.165 3.165 0 0 1-1.376-2.477c0-.88.647-1.238 1.376-.784.475.298.853.728 1.087 1.238l11.986-1.913a2.477 2.477 0 0 1-.151-.798c0-.922.647-1.28 1.376-.825.295.177.552.411.757.688l12.578-10.72a2.945 2.945 0 0 1-.413-1.377c0-.922.647-1.252 1.445-.784a3.096 3.096 0 0 1 1.376 2.422.936.936 0 0 1-.592 1.005l13.074 34.871c.18.021.355.082.509.179a3.138 3.138 0 0 1 1.376 2.477c.025.306-.085.608-.303.826l12.303 21.702a1.1 1.1 0 0 1 .867.165c.385.235.706.56.936.95l12.261-5.505a2.752 2.752 0 0 1-.247-1.06c0-.922.646-1.28 1.376-.84.327.202.608.469.825.785l12.468-8.477a2.862 2.862 0 0 1-.357-1.376c0-.908.646-1.239 1.376-.785.401.252.736.597.977 1.005l12.192-4.817a2.642 2.642 0 0 1-.247-1.032c0-.922.674-1.252 1.376-.825a3.124 3.124 0 0 1 1.376 2.463c.005.18-.028.357-.096.523l11.78 13.885a.922.922 0 0 1 1.197 0c.586.384 1.031.95 1.266 1.61l11.697 1.542a1.789 1.789 0 0 1 0-.44c0-.923.647-1.28 1.376-.826.505.336.897.815 1.129 1.376l11.89-1.294" fill="#FFF"/>
            <path fill="#2B90FF" d="M147.72 222.66l-.027 9.634-5.106-2.96.028-9.618 5.105 2.945"/>
            <path fill="#9ECCFF" d="M147.761 209.174l-.04 13.487-5.106-2.945.041-13.5 5.105 2.958"/>
            <path fill="#2B90FF" d="M162.073 224.436l-.04 16.128-5.106-2.945.04-16.128 5.106 2.945"/>
            <path fill="#9ECCFF" d="M162.1 213.73l-.027 10.706-5.105-2.945.027-10.707 5.106 2.945"/>
            <path fill="#2B90FF" d="M176.44 211.72l-.11 37.101-5.078-2.931.11-37.087 5.078 2.917M190.725 234.578l-.055 22.514-5.106-2.945.069-22.514 5.092 2.945"/>
            <path fill="#9ECCFF" d="M190.752 225.206l-.027 9.372-5.092-2.945.014-9.372 5.105 2.945"/>
            <path fill="#2B90FF" d="M204.995 254.05l-.027 11.312-5.064-2.93.027-11.313 5.064 2.931M219.321 265.872l-.014 7.761-5.105-2.945.014-7.761 5.105 2.945"/>
            <path fill="#9ECCFF" d="M219.39 242.546l-.069 23.326-5.105-2.945.068-23.326 5.106 2.945"/>
            <path fill="#2B90FF" d="M233.688 253.72l-.082 28.17-5.065-2.918.07-28.17 5.077 2.918"/>
            <path fill="#9ECCFF" d="M233.716 243.963l-.028 9.757-5.078-2.917.028-9.77 5.078 2.93"/>
            <path fill="#FFB522" d="M248.083 242.05l-.138 48.124-5.106-2.945.138-66.068 5.106 2.945"/>
            <path fill="#2B90FF" d="M262.284 287.725l-.04 10.706-5.065-2.931.027-10.706 5.078 2.93"/>
            <path fill="#9ECCFF" d="M262.353 264.647l-.069 23.078-5.078-2.931.07-23.078 5.077 2.93"/>
            <path fill="#2B90FF" d="M276.596 302.849v3.867l-5.119-2.945.014-3.881 5.105 2.959"/>
            <path fill="#9ECCFF" d="M276.748 248.683l-.152 54.166-5.105-2.96.151-54.15 5.106 2.944"/>
            <path fill="#2B90FF" d="M290.894 312.55v2.422l-5.077-2.93.013-2.423 5.064 2.931"/>
            <path fill="#9ECCFF" d="M291.06 255.798l-.166 56.752-5.064-2.93.152-56.767 5.078 2.945"/>
            <path d="M145.284 181.514c.476.298.854.728 1.088 1.238l-1.184.193.179.427 1.183-.193c.09.247.137.508.138.77 0 .923-.647 1.28-1.376.84a3.165 3.165 0 0 1-1.376-2.477c0-.88.647-1.239 1.376-.784M160.656 180.275l-.922.785-1.211.192c.245.507.626.936 1.1 1.239.771.454 1.377.082 1.377-.826a2.917 2.917 0 0 0-.4-1.376m-1.017-1.087c-.799-.454-1.377-.096-1.377.826.007.272.058.542.152.798l1.17-.193.88-.757a2.628 2.628 0 0 0-.757-.688M174.018 168.936l-.743.633c.208.283.47.521.77.702.159.1.338.16.524.179l-.55-1.5m0-1.955c-.799-.467-1.377-.123-1.446.785.022.486.164.958.413 1.376l1.06-.895.124.345.66 1.788a.936.936 0 0 0 .592-1.004 3.069 3.069 0 0 0-1.376-2.422M187.436 205.335c-.372.082-.62.426-.62 1.004.047.98.559 1.88 1.377 2.422.26.18.584.245.894.18l-1.004-1.79-.675-1.816m.798.165a1.225 1.225 0 0 0-.509-.179l.66 1.775.978 1.707c.219-.217.33-.52.303-.826a3.138 3.138 0 0 0-1.377-2.477M201.39 230.628c-.225.225-.34.537-.317.854.041.997.552 1.915 1.377 2.477.798.454 1.376.082 1.376-.826a2.752 2.752 0 0 0-.234-1.06l-1.17.537-.124-.22-1.004-1.748m1.128 0a1.1 1.1 0 0 0-.867-.165l.867 1.528.936-.427a2.752 2.752 0 0 0-.936-.95M217.959 225.372l-.95.633-1.073.481c.227.382.543.703.922.936.798.454 1.376.096 1.376-.784a2.821 2.821 0 0 0-.344-1.266m-1.087-1.211c-.77-.44-1.376-.07-1.376.839.01.366.095.726.247 1.06l1.06-.482.936-.633a2.752 2.752 0 0 0-.826-.784M232.45 215.807l-1.115.427-.922.633c.22.318.5.59.826.798.798.454 1.376.083 1.376-.826a2.6 2.6 0 0 0-.234-1.032m-1.184-1.376c-.798-.454-1.376-.124-1.376.785.002.481.125.954.358 1.376l.95-.66 1.114-.441a2.959 2.959 0 0 0-.977-1.005" fill="#2B90FF"/>
            <path d="M245.578 210.55l-.99.386c.243.41.577.758.976 1.018a.894.894 0 0 0 1.156 0l-1.156-1.376m0-1.885c-.784-.454-1.376-.097-1.376.825.012.358.096.709.248 1.032l1.17-.467.096.123 1.238 1.473c.07-.166.102-.344.097-.523a3.124 3.124 0 0 0-1.376-2.463" fill="#FFB522"/>
            <path d="M258.555 225.853a1.376 1.376 0 0 0-.096.523c.051.983.56 1.885 1.376 2.436.798.454 1.376.096 1.376-.784a2.23 2.23 0 0 0 0-.427l-1.376-.193-.096-.082-1.239-1.473m1.376-.289a.922.922 0 0 0-1.197 0l1.183 1.376 1.266.166a3.206 3.206 0 0 0-1.266-1.61M275.55 229.197l-1.197.124-1.376-.165c.23.66.676 1.222 1.266 1.596.757.44 1.376.07 1.376-.84a2.367 2.367 0 0 0-.124-.715m-1.28-1.747c-.798-.455-1.376-.097-1.376.825a1.789 1.789 0 0 0 0 .44l1.377.18 1.183-.124a3.055 3.055 0 0 0-1.128-1.377M288.596 225.908a3.151 3.151 0 0 1 1.376 2.477c0 .922-.66 1.28-1.376.826a3.028 3.028 0 0 1-1.128-1.294l1.238-.123-.192-.455-1.225.138a2.27 2.27 0 0 1-.11-.73c0-.921.633-1.28 1.376-.825" fill="#2B90FF"/>
            <path d="M189.349 208.803a.647.647 0 0 1-.234.124l12.275 21.701a.647.647 0 0 1 .248-.123l-12.303-21.702m-30.991-27.964l-11.986 1.913c.071.137.131.28.179.427l11.986-1.885c-.07-.143-.13-.29-.179-.44m16.514-10.404h-.29l12.91 34.899a.647.647 0 0 1 .288 0l-12.908-34.886m-1.83-1.266l-12.578 10.72c.09.128.173.261.247.4l12.592-10.734a3.977 3.977 0 0 1-.261-.386m114.289 58.28l-11.89 1.294c.069.14.124.288.165.44l11.903-1.28a4.266 4.266 0 0 1-.178-.454" fill="#9ECCFF"/>
            <path d="M146.372 182.739c.071.136.13.28.178.426l-1.183.193-.179-.427 1.184-.192M160.394 179.904c.092.127.174.26.248.399l-.922.784-1.21.193c-.071-.142-.13-.29-.18-.44l1.17-.193.88-.757M174.018 168.275l.124.344.66 1.79h-.288l-.55-1.5-.744.632a3.977 3.977 0 0 1-.261-.385l1.06-.895M187.78 205.335l.66 1.775.977 1.707a.647.647 0 0 1-.234.123l-1.004-1.789-.674-1.816a.647.647 0 0 1 .289 0" fill="#2B90FF"/>
            <path d="M215.716 226.073l-12.262 5.505c.09.145.168.297.234.454l12.248-5.504a4.128 4.128 0 0 1-.22-.427m14.463-9.633l-12.468 8.477c.094.135.176.278.248.427l12.454-8.519a4.046 4.046 0 0 1-.248-.371m42.66 12.22l-11.697-1.541c.054.142.096.29.124.44l11.698 1.541a2.849 2.849 0 0 1-.124-.44m-28.404-18.152l-12.193 4.817c.083.132.157.27.22.413l12.18-4.83a2.917 2.917 0 0 1-.207-.4m2.505 1.129a.757.757 0 0 1-.166.234l11.794 13.913a.84.84 0 0 1 .151-.262l-11.752-13.844" fill="#9ECCFF"/>
            <path d="M201.651 230.49l.867 1.528.936-.426c.09.145.168.297.234.454l-1.17.537-.124-.22-1.004-1.748a.647.647 0 0 1 .248-.124M217.711 224.959c.094.135.176.278.248.426l-.95.633-1.073.482a4.128 4.128 0 0 1-.22-.427l1.06-.481.935-.633M232.243 215.394c.083.133.157.27.22.413l-1.114.427-.922.633a4.046 4.046 0 0 1-.248-.372l.95-.66 1.114-.44" fill="#2B90FF"/>
            <path d="M245.578 210.11l.096.124 1.239 1.472a.757.757 0 0 1-.165.234l-1.156-1.376-.991.386a2.918 2.918 0 0 1-.207-.4l1.17-.467" fill="#FFB522"/>
            <path d="M258.706 225.592l1.184 1.376 1.266.165c.054.143.095.29.124.44l-1.376-.192-.097-.083-1.238-1.472a.84.84 0 0 1 .151-.262M275.385 228.757c.07.141.125.289.165.44l-1.197.124-1.376-.165a2.849 2.849 0 0 1-.124-.44l1.376.178 1.184-.123M288.486 227.326l.193.454-1.239.124a4.266 4.266 0 0 1-.179-.454l1.225-.138" fill="#2B90FF"/>
        </g>
        <path fill="#FFF" d="M242.826 287.23l.124-48.166 5.105 2.945-.124 48.165-5.105-2.945"/>
        <path fill="#FFB522" d="M248.083 242.05l-.138 48.124-5.106-2.945.138-66.068 5.106 2.945M245.578 210.55l-.99.386c.243.41.577.758.976 1.018a.894.894 0 0 0 1.156 0l-1.156-1.376m0-1.885c-.784-.454-1.376-.097-1.376.825.012.358.096.709.248 1.032l1.17-.467.096.123 1.238 1.473c.07-.166.102-.344.097-.523a3.124 3.124 0 0 0-1.376-2.463"/>
        <path d="M245.578 210.11l.096.124 1.239 1.472a.757.757 0 0 1-.165.234l-1.156-1.376-.991.386a2.918 2.918 0 0 1-.207-.4l1.17-.467" fill="#FFB522"/>
        <g opacity=".3">
            <path fill="#D3D3D3" d="M242.179 112.734l-.014 3.014-15.248-8.808.014-3 15.248 8.794"/>
            <path fill="#E9E9E9" d="M243.734 118.197l-.014 1.858-18.385-10.624v-1.858l18.399 10.624M243.72 120.922l-.014 1.858-18.385-10.624v-1.858l18.4 10.624"/>
            <path d="M234.569 97.1a16.321 16.321 0 0 1-7.418-12.839c0-4.72 3.358-6.633 7.473-4.252a16.321 16.321 0 0 1 7.417 12.84c0 4.734-3.344 6.633-7.458 4.252m0-22.018v4.871c-4.129-2.38-7.445-.454-7.473 4.252l-4.252-2.463c0 7.431 5.188 16.514 11.656 20.188 6.468 3.675 11.71.743 11.738-6.688.028-7.431-5.16-16.376-11.683-20.105" fill="#9ECCFF"/>
            <path d="M234.569 75.138v4.871c-4.129-2.38-7.445-.454-7.473 4.252l-4.252-2.463c0-7.431 5.27-10.39 11.725-6.66" fill="#2B90FF"/>
            <path fill="#D3D3D3" d="M273.376 130.748l-.014 3-15.247-8.794.013-3.014 15.248 8.808"/>
            <path fill="#E9E9E9" d="M274.917 136.197v1.872l-18.399-10.624.014-1.858 18.385 10.61M274.917 138.936l-.013 1.858-18.386-10.624v-1.858l18.4 10.624"/>
            <path d="M258.349 102.275a14.505 14.505 0 0 0 0 .042m7.458-9.11v4.871c-4.128-2.38-7.445-.454-7.472 4.252 0-4.706 3.358-6.619 7.472-4.252a16.307 16.307 0 0 1 7.418 12.84c0 4.733-3.344 6.632-7.459 4.252a15.138 15.138 0 0 1-5.243-5.505l-3.028 1.707-.619-1.115c2 4.029 5.07 7.428 8.876 9.826 6.468 3.729 11.711.729 11.739-6.689.027-7.417-5.202-16.43-11.656-20.174" fill="#9ECCFF"/>
            <path d="M265.821 93.151v4.872c-4.128-2.38-7.445-.454-7.472 4.252a14.505 14.505 0 0 0 1.679 6.44c.15.303.302.592.481.868l-3.027 1.706-.62-1.115a22.94 22.94 0 0 1-2.752-10.348c0-7.432 5.27-10.404 11.725-6.675" fill="#2B90FF"/>
            <path d="M297.032 111.165c6.454 3.73 11.684 12.757 11.656 20.174 0 3.647-1.28 6.207-3.316 7.445-2.037 1.239-5.106 1.156-8.409-.756-6.454-3.73-11.67-12.771-11.656-20.189 0 7.418 5.188 16.514 11.656 20.189 3.303 1.912 6.276 2.05 8.409.756l-3.055-5.16 3.055 5.16-3.055-5.16a5.298 5.298 0 0 0 2.105-4.762 16.349 16.349 0 0 0-7.417-12.84c-4.129-2.366-7.445-.453-7.473 4.253 0-4.72 3.372-6.619 7.473-4.252v-4.872" fill="#9ECCFF"/>
            <path fill="#D3D3D3" d="M304.56 148.761l-.014 3-15.234-8.807v-3l15.248 8.807"/>
            <path fill="#E9E9E9" d="M306.128 154.225v1.858l-18.412-10.624v-1.872l18.412 10.638M306.128 156.95v1.857l-18.426-10.624.014-1.857 18.412 10.624"/>
            <path d="M297.005 111.151v4.872c-4.129-2.367-7.46-.482-7.473 4.252a16.362 16.362 0 0 0 7.418 12.84c2.091 1.21 4.004 1.376 5.353.495l3.055 5.16c-2.147 1.308-5.106 1.157-8.408-.756-6.468-3.73-11.67-12.77-11.656-20.188.013-7.418 5.27-10.404 11.724-6.66M302.317 133.624l3.04 5.147-3.04-5.147" fill="#2B90FF"/>
        </g>
        <g opacity=".3">
            <path d="M165.761 71.56c-.15 10.128-7.39 14.201-16.28 9.055-8.89-5.147-16.045-17.56-16.142-27.826l32.422 18.77" fill="#2B90FF"/>
            <path d="M161.22 55.61a32.904 32.904 0 0 1 4.541 15.468l-15.729-9.151 11.188-6.358" fill="#9ECCFF"/>
            <path d="M149.633 43.28a33.028 33.028 0 0 1 11.312 11.766l-11.463 6.55-16.143-9.302c.152-10.129 7.39-14.188 16.28-9.055" fill="#10355D"/>
            <path fill="#D3D3D3" d="M183.596 63.936v2.298l-11.573-6.688.014-2.285 11.56 6.675"/>
            <path fill="#E9E9E9" d="M185.99 68.794v1.417l-13.967-8.064v-1.418l13.968 8.065M185.99 70.858v1.417l-13.98-8.078v-1.403l13.98 8.064"/>
            <path fill="#D3D3D3" d="M183.569 76.665l-.014 2.27-11.573-6.674.013-2.284 11.574 6.688"/>
            <path fill="#E9E9E9" d="M185.963 81.51l-.013 1.403-13.968-8.064V73.43l13.981 8.078M185.95 83.573v1.404l-13.968-8.064v-1.418l13.968 8.078"/>
            <path fill="#D3D3D3" d="M183.528 89.367l-.014 2.284-11.56-6.674v-2.284l11.574 6.674"/>
        </g>
        <path d="M149.66 347.133l-69.729-40.252a9.413 9.413 0 0 0-8.532 0L2.124 347.133c-2.353 1.376-2.34 3.578 0 4.94L71.88 392.34a9.413 9.413 0 0 0 8.532 0l69.275-40.252c2.353-1.376 2.34-3.592 0-4.954" opacity=".07" fill="#000"/>
        <path d="M149.66 311.367l-69.729-40.266a9.4 9.4 0 0 0-8.532 0L2.124 311.367c-2.353 1.376-2.34 3.578 0 4.94l69.73 40.253a9.413 9.413 0 0 0 8.531 0l69.276-40.253c2.353-1.376 2.325-3.578 0-4.94" fill="#FFF"/>
        <path d="M98.798 299.477c8.615 5.01 6.674 14.326-4.307 20.642-10.982 6.317-27.014 7.5-35.615 2.505-8.6-4.996-6.674-14.326 4.307-20.642 10.982-6.317 27-7.487 35.615-2.505z" fill="#000" opacity=".07"/>
        <path d="M88.697 150.73l11.12 28.678 11.628-1.238c-.66-11.849-2.477-25.5-6.482-34.005" fill="#FFF"/>
        <path d="M109.188 202.693a17.38 17.38 0 0 1-4.789 12.454c-1.046 1.032-1.486.509-1.486.509-1.115.784-1.252.165-1.252.165-1.101.606-1.211-.165-1.211-.165s-.895.468-1.225 0c-.33-.468.894-1.376 1.734-2.284a6.88 6.88 0 0 0 1.5-2.822c-.44 1.556-.895 1.5-1.142 1.377-.248-.124-.193-.565 0-1.377.15-.564.261-1.087.44-1.857.289-1.198.702-5.505.702-5.505l6.73-.495z" fill="#FFCFAE"/>
        <path d="M99.817 179.408l2.518 25.817 7.004-.18s3.22-6.37 2.065-27.082" fill="#FFF"/>
        <circle fill="#FFF" cx="105.61" cy="178.28" r="5.849"/>
        <circle fill="#FFF" cx="97.106" cy="148.06" r="8.794"/>
        <path d="M63.583 314.821c0-.715 0-2.573.66-3.289 1.184-1.17 4.129-.179 6.44 2.174 2.312 2.354 3.358 5.271 2.175 6.44-1.184 1.17-4.129.207-6.44-2.174a22.927 22.927 0 0 1-2.835-3.15z" fill="#444549"/>
        <path d="M64.959 311.422c.743-.77 2.6-.193 4.128 1.294 1.528 1.486 2.216 3.302 1.486 4.128-.729.826-2.6.193-4.128-1.294-1.528-1.486-2.23-3.357-1.486-4.128z" fill="#FFCFAE"/>
        <path d="M84.995 302.752c0-.688 0-2.477.633-3.165 1.129-1.128 3.895-.193 6.193 2.092 2.298 2.284 3.22 5.064 2.092 6.193-1.129 1.128-3.908.192-6.193-2.092a21.303 21.303 0 0 1-2.725-3.028z" fill="#444549"/>
        <path d="M86.317 299.477c.701-.743 2.49-.193 3.99 1.239 1.5 1.43 2.133 3.178 1.376 3.922-.756.743-2.504.179-3.99-1.239-1.487-1.417-2.092-3.179-1.376-3.922z" fill="#FFCFAE"/>
        <path d="M63.583 313.06c0 1.238 1.458 2.16 3.591 2.16s3.042-1.018 3.042-2.257c0 0 7.045-30.633 8.435-42.55 1.39-11.918 3.166-34.239 3.166-34.239l3.839 29.932-.73 35.27c0 .922 1.377 1.596 3.33 1.596 1.955 0 2.643-.605 2.753-1.376 0 0 7.555-25.32 9.344-47.243 1.184-14.573.812-34.679.592-45.234l-46.473 8.808c3 21.715 9.028 55.555 9.028 55.555l.083 39.578z" fill="#D6E5F2"/>
        <path d="M63.252 139.472c7.707-4.348 22.431-7.72 31.996-4.032 12.578 4.844 12.578 19.734 12.578 19.707v44.243c0 6.055.344 13.004-7.803 20.367-4.858 4.39-17.326 11.807-27.523 13.995-2.448.571-4.974.725-7.472.454-13.28-1.857-15.716-9.481-15.716-19.17 0 0-.647-45.412 1.073-57.44 1.734-12.564 12.867-18.124 12.867-18.124z" fill="#FFF"/>
        <path d="M50.344 157.61c-1.72 12.069-1.073 57.44-1.073 57.44 0 9.633 2.435 17.312 15.715 19.17 1.891.226 3.804.184 5.684-.124-2.753-1.376-7.046-6.619-7.046-25.403v-48.826s.523-8.697-7.156-8.697a7.073 7.073 0 0 0-5.188 2.394 23.023 23.023 0 0 0-.936 4.046z" fill="#000" opacity=".05"/>
        <path fill="#2B90FF" d="M75.073 163.005l-8.862 5.16v-2.89l8.862-5.16z"/>
        <path d="M66.679 150.179l29.904 24.041-7.308 11.904s-3.247-1.087-6.647-2.463c-14.311-5.794-24.234-12.207-30.275-19.17" fill="#FFF"/>
        <circle fill="#FFF" transform="rotate(-67.7 59.915 157.771)" cx="59.915" cy="157.771" r="10.128"/>
        <path d="M92.11 187.294l31.734 11.752 2.312-6.207s-10.39-9.715-29.587-18.922" fill="#FFF"/>
        <circle fill="#FFF" transform="rotate(-68.77 93.92 180.474)" cx="93.92" cy="180.474" r="7.06"/>
        <path d="M123.362 190.651a37.445 37.445 0 0 1 6.647 0 23.202 23.202 0 0 1 10.115 6.523s-.537 2.023-6.88-2.56c0 0 .825 1.377-1.005 2.175 0 0 1.06 1.83-1.005 2.16a1.555 1.555 0 0 1-1.486 2.161 60.468 60.468 0 0 0-6.386-2.16" fill="#FCCEAE"/>
        <path d="M93.39 129.95a5.821 5.821 0 0 1-4.803 1.54c.372-.577 1.087-2.118 1.376-2.751a6.578 6.578 0 0 0 3.427 1.21z" fill="#424242"/>
        <path d="M84.032 110.972c2.986-.123 6.496.62 8.257 3.496 1.115 1.858 1.032 5.23 1.128 7.734.18 4.527-1.623 9.261-4.43 11.725v1.21a3.372 3.372 0 0 1-1.955 2.67 10.362 10.362 0 0 1-9.399 0 3.344 3.344 0 0 1-1.927-2.614v-11.849-.427c-.357-6.399 3.358-11.738 8.326-11.945z" fill="#FFCFAE"/>
        <path d="M85.023 135.633a6.358 6.358 0 0 0 3.936-1.706v1.21a3.372 3.372 0 0 1-1.954 2.67 10.362 10.362 0 0 1-9.4 0 3.344 3.344 0 0 1-1.926-2.614v-11.849c.385 6.262 4.541 12.482 9.344 12.289z" fill="#3A2416" opacity=".08"/>
        <path d="M76.697 128.16a2.849 2.849 0 0 0 3.427 1.61 4.761 4.761 0 0 1-4.486 2.34v.812a5.422 5.422 0 0 1-.66-.193c-4.914 1.06-9.95-4.706-7.969-12.013a34.225 34.225 0 0 1 6.454-13.129c3.454-4.28 6.468-2.367 6.468-2.367 4.129-3.688 10.72.963 15.785 7.019 3.701 4.43 2.435 8.93-.262 10.747-.618.42-1.345.65-2.092.66v-1.485c0-1.019 0-2.189-.123-3.344a12.95 12.95 0 0 1-6.496-2.01c.168.37.376.72.62 1.046.352.393.79.699 1.28.895a12.867 12.867 0 0 1-4.982-.867 9.84 9.84 0 0 1-4.129-2.876l-.633 7.981a1.624 1.624 0 0 0-3.22.317c-.01 1.673.337 3.33 1.018 4.858z" fill="#424242"/>
        <circle fill="#FFB522" cx="82.339" cy="77.271" r="15.771"/>
        <path d="M89.62 76.486h-1.556a.537.537 0 0 0 0 1.074h1.555a.537.537 0 1 0 0-1.074zM76.6 76.486h-1.554a.537.537 0 0 0 0 1.074H76.6a.537.537 0 1 0 0-1.074zM82.34 71.835c.296 0 .536-.24.536-.537V69.73a.537.537 0 0 0-1.073 0v1.555a.537.537 0 0 0 .536.55zM87.872 71.49a.537.537 0 0 0-.757 0l-1.101 1.102a.537.537 0 1 0 .757.757l1.1-1.101a.537.537 0 0 0 0-.757zM78.665 72.592l-1.1-1.101a.537.537 0 1 0-.758.757l1.101 1.1a.537.537 0 0 0 .757-.756zM82.34 73.17a3.84 3.84 0 0 0-2.23 6.963v1.376a.716.716 0 0 0 .716.716h3.041a.716.716 0 0 0 .702-.757v-1.376a3.84 3.84 0 0 0-2.23-6.964v.042zM82.34 84.427c.76 0 1.376-.617 1.376-1.377H80.99c0 .75.6 1.362 1.348 1.377z" fill="#FFF"/>
        <path d="M413.11 117.812a16.514 16.514 0 1 0-24.413 14.38 2.821 2.821 0 0 1 1.376 2.216 3.289 3.289 0 0 1-1.816 2.945c25.514.262 24.853-19.541 24.853-19.541z" fill="#FFB522"/>
        <path d="M399.706 110.78a1.376 1.376 0 0 0-1.816.757l-4.129 10.004a1.392 1.392 0 1 0 2.574 1.06l4.128-10.005a1.376 1.376 0 0 0-.757-1.816zM394.01 124.128a1.486 1.486 0 0 0-1.804 1.046c-.11.38-.06.787.138 1.129.186.338.506.583.88.674.124.015.249.015.372 0a1.472 1.472 0 0 0 1.376-1.087c.11-.38.06-.786-.137-1.129a1.376 1.376 0 0 0-.826-.633z" fill="#FFF"/>
    </g>
</svg>
