<svg width="122" height="328" viewBox="0 0 122 328" xmlns="http://www.w3.org/2000/svg">
    <g transform="translate(0 -1)" fill-rule="nonzero" fill="none">
        <path d="M61.027 299.578c13.663 7.877 16.096 19.383 5.355 25.56-10.741 6.176-30.67 4.795-44.334-3.07-13.663-7.865-16.065-19.42-5.355-25.603s30.67-4.795 44.334 3.113z" fill-opacity=".15" fill="#000"/>
        <path d="M55.627 318.367c-2.94 2.996-6.506 4.221-7.994 2.74-1.488-1.483-.258-5.11 2.687-8.131 2.946-3.02 6.506-4.222 7.994-2.74.879.895.817 3.24.817 4.14-.467.951-2.311 2.803-3.504 3.99z" fill="#081B2F"/>
        <path d="M55.767 314.918c-2.017 1.792-4.426 2.479-5.379 1.553-.953-.926-.09-3.118 1.932-4.905 2.023-1.786 4.426-2.479 5.38-1.553.952.926.096 3.125-1.933 4.905z" fill="#FFCFAE"/>
        <path d="M29.03 303.78c-2.75 2.8-6.085 3.945-7.45 2.556-1.365-1.388-.24-4.754 2.527-7.58 2.766-2.824 6.084-3.945 7.45-2.563.825.835.766 3.045.766 3.866-.48.871-2.228 2.606-3.294 3.72z" fill="#081B2F"/>
        <path d="M30.195 300.917c-1.819 1.783-4.001 2.485-4.85 1.553-.849-.932-.079-3.106 1.74-4.901 1.818-1.796 4-2.485 4.85-1.547.848.938.078 3.143-1.74 4.895z" fill="#FFCFAE"/>
        <path d="M59.382 263.516s10.624-42.585 14.324-69.433l-64.691-11.48c-.271 13.055 3.213 39.245 4.686 57.252 2.22 27.125 11.58 58.446 11.58 58.446.204.984 1.302 1.735 3.49 1.735 2.467 0 4.132-.819 4.132-1.969l-.98-43.533 4.785-37.036s2.306 27.599 4.02 42.333c1.715 14.735 10.428 52.62 10.428 52.62 0 1.544 1.128 2.799 3.767 2.799 2.64 0 4.434-1.138 4.446-2.67l.013-49.064z" fill="#10355D"/>
        <path d="M8.063 102.603C3.075 113.146.823 130.08 0 144.75l14.473 1.53L28.31 110.72" fill="#FFF"/>
        <path d="M12.226 176.188s.506 5.15.855 6.61c.223.93.361 1.563.53 2.24.24.935.301 1.394 0 1.617-.301.223-.843.296-1.38-1.6a8.277 8.277 0 0 0 1.741 3.471c1.012 1.087 2.487 2.197 2.096 2.77-.392.574-1.476 0-1.476 0s-.126.937-1.469.2c0 0-.156.755-1.517-.2 0 0-.536.605-1.807-.603-1.27-1.207-5.709-6.078-5.799-15.09l8.226.585z" fill="#FFCFAE"/>
        <path d="M.307 144.603C-1.11 170.43 2.84 178.338 2.84 178.338l8.624.236 3.095-32.161" fill="#FFF"/>
        <circle fill="#FFF" cx="7.279" cy="145.882" r="7.279"/>
        <circle fill="#FFF" cx="18.919" cy="108.522" r="10.919"/>
        <path d="M13.904 197.089c5.965 5.506 21.456 14.632 34.175 17.351 3.027.706 6.152.896 9.243.561 16.453-2.306 19.472-11.758 19.472-23.763l-.05-61.66c-.073-22.814-17.296-32.02-17.296-32.02-9.54-5.383-27.785-9.57-39.647-5.007-15.59 6-15.584 24.473-15.59 24.436-.006-.037-1.374 10.482 2.94 23.14.018-.012-9.65 41.825 6.753 56.962z" fill="#FFF"/>
        <path d="M73.692 113.272a11.35 11.35 0 0 0-9.099-2.527c-7.009.879-5.428 9.105-5.428 9.105s7.18 64.994-8.596 77.72c-11.133 8.994-25.861 4.303-33.569.775 7.101 5.453 20.25 12.695 31.302 15.068a27.37 27.37 0 0 0 9.19.56c16.359-2.3 19.36-11.725 19.36-23.694l-.048-61.478a39.148 39.148 0 0 0-3.112-15.53z" fill="#D8D8D8"/>
        <path fill="#2B90FF" d="M39 129.603v1.97l12.132 2.883v-1.97z"/>
        <path d="M66.722 204.36s-.42 5.347-.753 6.879c-.21.963-.34 1.626-.507 2.333-.229.97-.278 1.45.043 1.676.321.225.871.288 1.384-1.682a8.618 8.618 0 0 1-1.724 3.627c-1.013 1.144-2.508 2.32-2.094 2.908.414.588 1.513 0 1.513 0s.149.963 1.508.181c0 0 .18.776 1.55-.231 0 0 .563.625 1.817-.682 1.255-1.307 5.747-6.404 5.672-15.766l-8.409.757z" fill="#FFCFAE"/>
        <path d="M65 167.776l1.47 42.503 8.366-.258s6.39-16.722 7.958-43.418" fill="#FFF"/>
        <circle fill="#FFF" transform="rotate(-1.03 74.056 166.658)" cx="74.056" cy="166.658" r="8.897"/>
        <path d="M52 123.556l13.88 46.665 17.38-2.918s.278-4.335.284-8.98c0-19.573-2.766-34.29-8.01-44.72" fill="#FFF"/>
        <circle fill="#FFF" transform="rotate(-.22 63.99 118.594)" cx="63.991" cy="118.594" r="12.941"/>
        <path d="M26.524 137.132h-.1a.62.62 0 0 1-.51-.5l-4.275-23.94c-.124-.514-3.107-13.446 4.972-19.915a18.198 18.198 0 0 1 11.223-4.174c4.754 0 8.638 2.276 10.67 6.24 2.287 4.459-.621 8.417-4.68 13.89a95.203 95.203 0 0 0-7.102 10.675l-9.651 17.409a.622.622 0 0 1-.547.315zM37.859 89.84a16.951 16.951 0 0 0-10.447 3.902c-7.457 5.98-4.56 18.554-4.53 18.696l3.946 22.264 8.83-15.876a96.284 96.284 0 0 1 7.19-10.822c3.922-5.307 6.514-8.813 4.575-12.598-1.809-3.538-5.276-5.566-9.564-5.566z" fill="#2B90FF"/>
        <path fill="#9ECCFF" d="M28.156 141.831l-.012 4.836-3.027-1.797.018-4.836z"/>
        <path d="M26.998 139.76l2.942 1.747-.037 12.429-6.57-3.906.031-12.435 2.942 1.747.692.418zm-1.863.274v4.836l3.033 1.797v-4.836l-3.033-1.797zm4.29 9.447v-.493l-5.558-3.282v.493l5.557 3.3v-.018zm0 1.379v-.487l-5.558-3.3v.492l5.557 3.3v-.005zm0 1.366v-.493l-5.558-3.3v.492l5.557 3.301z" fill="#2B90FF"/>
        <path fill="#9ECCFF" d="M29.424 148.988l-.006.493-5.55-3.3v-.494z"/>
        <path fill="#2B90FF" d="M27.004 137.9l-.006 1.86-.698-.412.006-1.86z"/>
        <path fill="#D3D3D3" d="M28.144 134.805l-.516 3.47-.624-.375-.698-.412-.63-.374-.492-4.068z"/>
        <path fill="#9ECCFF" d="M29.662 152.12v.527L24 149.123v-.52zM29.662 151.127v.52L24 148.123v-.52z"/>
        <path d="M34.452 61.619c-3.972-.16-8.629.826-10.932 4.657-1.48 2.448-1.37 6.958-1.504 10.293-.238 6.022 2.157 12.337 5.891 15.61v1.574c.043 1.29.904 2.57 2.61 3.555 3.464 2.001 9.062 2.001 12.502 0 1.662-.967 2.511-2.221 2.56-3.488V82.73c0-.19 1.473-5.93 1.48-6.12.372-8.518-6.087-14.729-12.607-14.992z" fill="#FFCFAE"/>
        <path d="M34.267 95.212A8.486 8.486 0 0 1 29 92.909v1.595c.043 1.31.91 2.607 2.627 3.606 3.489 2.03 9.125 2.03 12.59 0 1.673-.98 2.528-2.253 2.577-3.538V78.603c-.529 8.453-6.104 16.87-12.527 16.609z" fill="#EAB896"/>
        <path d="M47.063 78.63l-1.13 5.614 1.13 3.519c1-1.05 1.46-3.488 2.422-5.498 3.006-6.365 2.291-11.252 1.826-16.219-.193-2.07-.839-10.5-7.173-10.996 0 0-3.342-3.372-12.694.178-5.416 2.052-8.546-.165-8.546-.165s-.453 2.12.404 3.665c0 0-5.074 4.337-.155 16.31.086-2.993 0-5.333 1.242-7.33.875-1.436 3.03-1.784 4.583-1.985.93.046 1.847.24 2.714.574 0 0 2.416-.715 3.397-.611 6.881.531 6.788 3.31 6.788 3.31l.298 3.135v10.727s-.317 5.498-5.59 6.31c-2.192.33-4.347-1.894-4.347-1.894h-1.664s-1.36 1.943-2.602 1.314a7.599 7.599 0 0 1-4.124-5.113c.292 1.46 2.348 10.476 8.999 11.258 8.167.96 11.272-3.989 11.272-9.542v-9.853a1.607 1.607 0 0 1 .41-1.425c.362-.383.889-.57 1.416-.506 2.136 0 1.64 2.896 1.124 5.223z" fill="#424242"/>
        <path d="M23.049 83.878c0-.17-.049-.275-.049-.275s.008.105.049.275z" fill="#6B373E"/>
        <path d="M32.625 82.603h-5.161S26 83.827 26 85.029h8.088c0-1.202-1.463-2.426-1.463-2.426z" fill="#424242"/>
        <path d="M81.142 34.75c0-1.39-.922-2.132-2.283-2.132-1.255 0-2.183.624-3.099 1.559L73 31.683a8.084 8.084 0 0 1 6.198-3.08c3.851 0 6.743 1.796 6.743 5.792 0 4.196-5.112 5.45-4.705 9.484h-4.39c-.678-4.658 4.296-6.59 4.296-9.128zM79.01 45.825a3.127 3.127 0 0 1 3.136 3.117 3.127 3.127 0 0 1-3.136 3.118 3.127 3.127 0 0 1-3.137-3.118 3.127 3.127 0 0 1 3.137-3.117z" fill="#2B90FF"/>
        <g>
            <path d="M71.863 64.502c-14.3-7.988-20.795-25.19-15.376-40.724C61.906 8.246 77.66-1.09 93.782 1.677c16.121 2.767 27.912 16.832 27.91 33.295 0 0 1.343 40.63-50.544 40.149 0 0 4.027-1.97 3.701-6.078a5.8 5.8 0 0 0-2.986-4.541z" fill="#FFF"/>
            <path d="M106.076 31.585l-2.732-2.75v-3.887l-3.547-1.488-1.479-3.571h-3.873l-2.732-2.75-3.547 1.488-3.548-1.488-2.732 2.75h-3.909L76.5 23.46l-3.548 1.488v3.893l-2.75 2.744 1.479 3.572-1.478 3.57 2.72 2.799v3.898l3.548 1.488 1.478 3.572h3.867l2.732 2.75 3.548-1.488 3.547 1.488 2.732-2.75h3.867l1.479-3.572 3.547-1.488v-3.892l2.732-2.75-1.478-3.572 1.555-3.625zm-16.77 13.512v2.113c0 .666-.535 1.205-1.197 1.205-.66 0-1.197-.54-1.197-1.205v-2.125c-2.784-.576-4.783-3.043-4.784-5.905 0-.665.536-1.205 1.198-1.205.661 0 1.197.54 1.197 1.205.003 1.994 1.608 3.61 3.59 3.613 2.11 0 3.589-1.35 3.589-3.214 0-1.565-1.295-2.66-3.85-3.244-4.695-1.09-5.718-3.643-5.718-5.595.006-2.782 2.046-5.135 4.784-5.518v-2.09c0-.665.536-1.205 1.197-1.205.662 0 1.198.54 1.198 1.206v2.137a5.982 5.982 0 0 1 4.695 4.898c.07.426-.09.857-.42 1.131-.33.274-.781.35-1.183.2a1.205 1.205 0 0 1-.763-.932 3.555 3.555 0 0 0-3.547-3.012c-2.111 0-3.59 1.352-3.59 3.215 0 .595 0 2.38 3.85 3.244 4.979 1.137 5.718 3.994 5.718 5.595 0 2.765-2.013 5.113-4.73 5.518l-.036-.03z" fill="#FFB522"/>
        </g>
    </g>
</svg>
