<svg width="450" height="371" viewBox="0 0 450 371" xmlns="http://www.w3.org/2000/svg">
    <g fill="none" fill-rule="evenodd">
        <g fill-rule="nonzero" fill="#EAEAEA">
            <path d="M6.99 82.595h124.62v185.018H6.99zM320.06 82.443h124.62v185.17H320.06zM137.69 76.22h176.292v190.937H137.69z"/>
        </g>
        <g transform="translate(0 75.22)" fill-rule="nonzero">
            <path fill="#FFF" d="M129.027 1h12.158v192.91h-12.158zM308.967 1h12.158v192.91h-12.158zM437.842 1H450v192.91h-12.158z"/>
            <path fill="#FFF" d="M318.57.992V13.15H129.151V.992z"/>
            <path fill="#FFF" d="M317.26 13.15V.992h132.047V13.15z"/>
            <path fill="#D8EAFF" d="M202.695 190.417v3.495h-61.47v-3.495zM308.622 190.417v3.495h-61.47v-3.495zM321.165 193.913v-3.495h61.47v3.495z"/>
            <ellipse fill="#000" opacity=".08" cx="225.623" cy="34.865" rx="16.322" ry="7.722"/>
            <path d="M228.234 36.592c0 2.463 1.257 4.46 2.809 4.46 1.551 0 2.808-1.997 2.808-4.46s-.093-4.46-2.808-4.46c-2.993 0-2.809 1.997-2.809 4.46zM217.444 36.592c0 2.463 1.257 4.46 2.808 4.46 1.552 0 2.809-1.997 2.809-4.46s-.093-4.46-2.809-4.46c-2.992 0-2.808 1.997-2.808 4.46z" fill="#000"/>
            <path d="M238.055 33.48c.78 1.254-.015 2.165-1.091 2.833-1.076.668-2.023.84-2.804-.415-.782-1.253-.541-2.81.533-3.478 1.074-.668 2.582-.193 3.362 1.06z" fill="#FFCFAE"/>
            <ellipse fill="#2B90FF" transform="rotate(-31.88 239.482 32.278)" cx="239.482" cy="32.278" rx="5.333" ry="3.034"/>
            <path d="M213.34 33.48c-.784 1.26.016 2.177 1.096 2.848 1.08.67 2.034.844 2.82-.416.785-1.26.543-2.826-.537-3.49-1.08-.666-2.594-.197-3.379 1.059z" fill="#FFCFAE"/>
            <ellipse fill="#2B90FF" transform="rotate(-58.12 211.91 32.302)" cx="211.911" cy="32.302" rx="3.053" ry="5.355"/>
            <path d="M213.47 23.463l4.6-.68a50.477 50.477 0 0 1 14.404-.04l5.401.758c3.8.539 6.535 3.008 6.535 5.886 0 2.896-2.78 5.376-6.606 5.895l-6.921.937a45.485 45.485 0 0 1-13.032-.126l-4.465-.694c-3.8-.589-6.512-3.08-6.512-5.966.004-2.9 2.764-5.402 6.596-5.97z" fill="#2B90FF"/>
            <path d="M225.76 38.49a7.067 7.067 0 0 1-6.53-4.358 7.051 7.051 0 0 1 1.533-7.691 7.074 7.074 0 0 1 7.701-1.53 7.058 7.058 0 0 1 4.363 6.52c0 3.898-3.164 7.058-7.067 7.058" fill="#FFCFAE"/>
            <path d="M232.827 31.432c-.912 6.905-4.104 1.441-7.067 7.057-1.824 3.449-7.067-3.16-7.067-7.057 0-3.898 3.164-7.058 7.067-7.058s7.577 3.187 7.067 7.058z" fill="#263038"/>
            <ellipse fill="#000" opacity=".08" cx="225.67" cy="83.397" rx="16.322" ry="7.722"/>
            <path d="M223.06 81.67c0-2.463-1.258-4.46-2.81-4.46-1.55 0-2.808 1.997-2.808 4.46 0 2.464.093 4.46 2.809 4.46 2.992 0 2.808-1.996 2.808-4.46zM233.85 81.67c0-2.463-1.257-4.46-2.809-4.46-1.552 0-2.808 1.997-2.808 4.46 0 2.464.092 4.46 2.808 4.46 2.992 0 2.809-1.996 2.809-4.46z" fill="#000"/>
            <path d="M213.239 84.782c-.782-1.254.015-2.165 1.09-2.833 1.077-.667 2.024-.839 2.805.415.78 1.253.54 2.81-.534 3.479-1.074.667-2.582.192-3.361-1.061z" fill="#FFCFAE"/>
            <ellipse fill="#FFF" transform="rotate(-31.88 211.81 85.955)" cx="211.811" cy="85.955" rx="5.333" ry="3.034"/>
            <path d="M237.953 84.782c.784-1.26-.015-2.177-1.096-2.848-1.08-.67-2.033-.844-2.819.416s-.544 2.826.536 3.491c1.081.665 2.595.196 3.379-1.06z" fill="#FFCFAE"/>
            <ellipse fill="#FFF" transform="rotate(-58.12 239.396 85.987)" cx="239.396" cy="85.987" rx="3.053" ry="5.355"/>
            <path d="M237.824 94.799l-4.6.68a50.477 50.477 0 0 1-14.405.041l-5.401-.759c-3.8-.539-6.535-3.008-6.535-5.886 0-2.896 2.781-5.376 6.606-5.895l6.921-.936a45.485 45.485 0 0 1 13.032.126l4.465.693c3.8.59 6.512 3.08 6.512 5.967-.003 2.899-2.764 5.401-6.595 5.969z" fill="#FFF"/>
            <path d="M225.532 79.773c3.903 0 7.067 3.16 7.067 7.058 0 3.898-3.164 7.057-7.067 7.057s-7.067-3.16-7.067-7.057c0-3.898 3.164-7.058 7.067-7.058" fill="#FFCFAE"/>
            <path d="M218.467 86.83c.911-6.905 4.103-1.441 7.066-7.057 1.824-3.448 7.067 3.16 7.067 7.058a7.053 7.053 0 0 1-2.07 4.99 7.072 7.072 0 0 1-4.998 2.067c-3.901 0-7.576-3.187-7.065-7.057z" fill="#263038"/>
            <ellipse fill="#000" opacity=".08" transform="rotate(-.72 57.44 151.052)" cx="57.44" cy="151.052" rx="7.733" ry="16.301"/>
            <path d="M59.19 153.64c2.467-.03 4.482 1.201 4.501 2.75.02 1.547-1.965 2.828-4.43 2.86-2.465.032-4.466-.036-4.501-2.749-.038-2.988 1.963-2.83 4.43-2.86zM59.055 142.866c2.466-.03 4.481 1.2 4.501 2.748.02 1.549-1.965 2.83-4.43 2.861-2.465.032-4.466-.036-4.501-2.748-.038-2.99 1.963-2.831 4.43-2.861z" fill="#000"/>
            <path d="M56.196 163.486c1.264.76 2.167-.042 2.822-1.124.655-1.083.815-2.031-.456-2.795-1.27-.763-2.82-.505-3.475.577-.655 1.082-.155 2.579 1.109 3.342z" fill="#FFCFAE"/>
            <ellipse fill="#FFF" transform="rotate(-58.84 55.025 164.926)" cx="55.025" cy="164.926" rx="5.333" ry="3.034"/>
            <path d="M55.892 138.806c1.252-.8 2.18-.013 2.865 1.062s.87 2.02-.382 2.82c-1.252.8-2.822.578-3.507-.492-.686-1.07-.227-2.59 1.024-3.39z" fill="#FFCFAE"/>
            <ellipse fill="#FFF" transform="rotate(-32.59 54.67 137.396)" cx="54.67" cy="137.396" rx="3.053" ry="5.355"/>
            <path d="M45.862 139.06l-.623 4.603a50.282 50.282 0 0 0 .14 14.384l.834 5.383c.586 3.784 3.094 6.495 5.974 6.458 2.9-.036 5.348-2.844 5.82-6.678l.85-6.923a45.31 45.31 0 0 0-.289-13.013l-.75-4.45c-.639-3.781-3.166-6.466-6.055-6.43-2.91.046-5.382 2.833-5.901 6.667z" fill="#FFF"/>
            <path d="M61.058 151.145a7.058 7.058 0 0 0-4.444-6.465 7.073 7.073 0 0 0-7.682 1.626 7.05 7.05 0 0 0-1.435 7.71 7.067 7.067 0 0 0 6.584 4.275c3.902-.05 7.026-3.248 6.977-7.146" fill="#FFCFAE"/>
            <path d="M54.08 158.29c6.903-.996 1.393-4.115 6.978-7.145 3.43-1.86-3.253-7.018-7.155-6.968-3.903.05-7.026 3.248-6.977 7.146.048 3.897 3.291 7.526 7.155 6.968z" fill="#263038"/>
            <ellipse fill="#000" opacity=".08" transform="rotate(-11.51 258.173 144.584)" cx="258.173" cy="144.584" rx="16.322" ry="7.722"/>
            <ellipse fill="#000" opacity=".08" cx="214.742" cy="232.292" rx="13.678" ry="16.301"/>
            <path d="M255.257 143.436c-.493-2.413-2.128-4.12-3.648-3.81-1.52.309-2.354 2.516-1.861 4.929.492 2.413.981 4.353 3.647 3.811 2.933-.596 2.353-2.516 1.862-4.93zM265.83 141.287c-.493-2.413-2.128-4.12-3.648-3.811-1.52.31-2.354 2.517-1.861 4.93.492 2.413.981 4.353 3.647 3.811 2.933-.597 2.354-2.517 1.862-4.93z" fill="#000"/>
            <path d="M246.254 148.442c-1.015-1.073-.418-2.125.503-2.993.92-.868 1.814-1.225 2.83-.152 1.015 1.073 1.09 2.647.171 3.515-.92.869-2.494.703-3.504-.37z" fill="#FFCFAE"/>
            <ellipse fill="#FFF" transform="rotate(-43.38 245.092 149.904)" cx="245.092" cy="149.904" rx="5.333" ry="3.034"/>
            <path d="M270.471 143.52c.517-1.39-.456-2.125-1.643-2.573-1.187-.448-2.16-.422-2.68.97-.517 1.392.031 2.884 1.226 3.32 1.194.435 2.58-.331 3.097-1.717z" fill="#FFCFAE"/>
            <ellipse fill="#FFF" transform="rotate(-69.63 272.113 144.39)" cx="272.113" cy="144.39" rx="3.053" ry="5.355"/>
            <path d="M272.34 153.358l-4.372 1.582a50.469 50.469 0 0 1-14.106 2.91l-5.446.324c-3.826.23-7.01-1.645-7.585-4.464-.579-2.836 1.652-5.822 5.297-7.092l6.594-2.297a45.48 45.48 0 0 1 12.796-2.472l4.514-.21c3.836-.177 6.99 1.721 7.573 4.554.588 2.844-1.617 5.848-5.265 7.165z" fill="#FFF"/>
            <path d="M257.295 141.091c2.8-.569 5.67.603 7.268 2.969a7.05 7.05 0 0 1 .035 7.842 7.07 7.07 0 0 1-12.818-2.487 7.058 7.058 0 0 1 5.515-8.324" fill="#FFCFAE"/>
            <path d="M251.787 149.407c-.486-6.948 3.733-2.23 5.515-8.323 1.095-3.742 7.557 1.69 8.335 5.508a7.058 7.058 0 0 1-5.515 8.323c-3.826.779-8.063-1.62-8.335-5.508z" fill="#263038"/>
            <ellipse fill="#000" opacity=".08" transform="rotate(-29.37 175.458 121.99)" cx="175.458" cy="121.99" rx="16.322" ry="7.722"/>
            <path d="M178.584 122.212c1.215 2.146 3.285 3.27 4.638 2.512 1.352-.76 1.466-3.116.257-5.263-1.21-2.146-2.27-3.841-4.639-2.511-2.607 1.466-1.466 3.116-.256 5.262zM169.18 127.498c1.217 2.146 3.287 3.271 4.64 2.512 1.352-.759 1.466-3.116.256-5.262-1.21-2.146-2.27-3.842-4.638-2.512-2.608 1.465-1.467 3.114-.257 5.262z" fill="#000"/>
            <path d="M185.614 114.69c1.296.71 1.05 1.894.44 3.002-.609 1.108-1.35 1.722-2.645 1.012s-1.853-2.184-1.243-3.293c.61-1.11 2.152-1.43 3.448-.721z" fill="#FFCFAE"/>
            <ellipse fill="#2B90FF" transform="rotate(-61.25 186.274 112.945)" cx="186.274" cy="112.945" rx="5.333" ry="3.034"/>
            <path d="M164.079 126.8c-.065 1.483 1.082 1.89 2.354 1.944 1.272.055 2.187-.26 2.252-1.744.066-1.483-.911-2.732-2.185-2.785-1.274-.053-2.357 1.102-2.421 2.585z" fill="#FFCFAE"/>
            <ellipse fill="#2B90FF" transform="rotate(-87.709 161.829 125.564)" cx="161.829" cy="125.564" rx="3.056" ry="5.359"/>
            <path d="M159.27 118.004l3.675-2.845a50.43 50.43 0 0 1 12.532-7.092l5.084-1.973c3.571-1.39 7.178-.581 8.591 1.925 1.422 2.522.217 6.048-2.863 8.374l-5.572 4.208a45.445 45.445 0 0 1-11.416 6.269l-4.231 1.583c-3.596 1.345-7.189.505-8.605-2.01-1.432-2.534-.255-6.068 2.806-8.439z" fill="#2B90FF"/>
            <path d="M177.356 125.077a7.072 7.072 0 0 1-9.625-2.69 7.053 7.053 0 0 1 2.693-9.611 7.072 7.072 0 0 1 9.625 2.69 7.05 7.05 0 0 1-2.693 9.611" fill="#FFCFAE"/>
            <path d="M180.052 115.465c2.597 6.464-2.868 3.266-2.693 9.612.108 3.896-7.71.708-9.625-2.69a7.05 7.05 0 0 1 2.693-9.611c3.401-1.911 8.172-.928 9.625 2.69z" fill="#263038"/>
            <ellipse fill="#000" opacity=".08" transform="rotate(-47.57 79.376 45.166)" cx="79.376" cy="45.166" rx="7.733" ry="16.301"/>
            <path d="M76.281 44.69c-1.672 1.822-3.942 2.446-5.086 1.4-1.145-1.045-.724-3.366.94-5.184 1.664-1.819 3.082-3.23 5.087-1.4 2.21 2.019.725 3.367-.94 5.185zM84.246 51.963c-1.672 1.82-3.942 2.445-5.086 1.399-1.145-1.046-.724-3.366.94-5.185 1.664-1.818 3.082-3.23 5.087-1.4 2.208 2.018.723 3.367-.94 5.186z" fill="#000"/>
            <path d="M71.135 35.777c-1.422.4-1.451 1.607-1.11 2.826.343 1.219.926 1.982 2.35 1.583s2.3-1.709 1.956-2.928c-.343-1.218-1.772-1.88-3.196-1.481z" fill="#FFCFAE"/>
            <ellipse fill="#2B90FF" transform="rotate(-15.69 70.886 33.936)" cx="70.886" cy="33.936" rx="3.038" ry="5.326"/>
            <path d="M89.374 52.435c-.272 1.458-1.482 1.595-2.736 1.366-1.254-.23-2.071-.749-1.8-2.207.273-1.459 1.509-2.453 2.76-2.22 1.25.235 2.048 1.602 1.776 3.06z" fill="#FFCFAE"/>
            <ellipse fill="#2B90FF" transform="rotate(-79.44 91.245 52.529)" cx="91.245" cy="52.529" rx="3.053" ry="5.355"/>
            <path d="M96.049 44.952l-2.937-3.602a50.387 50.387 0 0 0-10.603-9.736l-4.503-3.074c-3.164-2.16-6.86-2.187-8.804-.064-1.956 2.137-1.58 5.842.894 8.804l4.475 5.354a45.407 45.407 0 0 0 9.704 8.69l3.761 2.495c3.192 2.125 6.888 2.116 8.838-.014 1.965-2.146 1.618-5.854-.825-8.853z" fill="#2B90FF"/>
            <path d="M76.827 47.758a7.074 7.074 0 0 0 7.762 1.185 7.057 7.057 0 0 0 4.067-6.709 7.059 7.059 0 0 0-4.65-6.319 7.073 7.073 0 0 0-7.626 1.873 7.051 7.051 0 0 0 .447 9.97" fill="#FFCFAE"/>
            <path d="M76.378 37.788c-3.992 5.711 2.055 3.83.447 9.97-.986 3.772 7.351 2.429 9.984-.446a7.051 7.051 0 0 0-.447-9.97c-2.88-2.63-7.75-2.75-9.984.446z" fill="#263038"/>
            <ellipse fill="#000" opacity=".08" transform="rotate(-33.53 187.034 140.203)" cx="187.034" cy="140.203" rx="16.252" ry="7.689"/>
            <path d="M185.161 140.258c-1.368-2.052-3.518-3.02-4.81-2.164-1.292.856-1.234 3.214.13 5.266 1.366 2.053 2.548 3.666 4.81 2.165 2.495-1.653 1.235-3.22-.13-5.267zM194.15 134.296c-1.367-2.052-3.518-3.02-4.81-2.164-1.291.856-1.234 3.215.131 5.267 1.365 2.052 2.547 3.665 4.81 2.164 2.493-1.659 1.233-3.215-.13-5.267z" fill="#000"/>
            <path d="M178.704 148.277c-1.345-.608-1.187-1.813-.661-2.963.525-1.15 1.215-1.821 2.565-1.204 1.35.618 2.008 2.043 1.482 3.188-.526 1.144-2.041 1.592-3.386.979z" fill="#FFCFAE"/>
            <ellipse fill="#FFF" transform="rotate(-65.46 178.175 150.07)" cx="178.175" cy="150.069" rx="5.333" ry="3.034"/>
            <path d="M199.289 134.618c-.044-1.483-1.216-1.805-2.491-1.767-1.275.038-2.161.42-2.117 1.904.044 1.483 1.112 2.654 2.384 2.616 1.272-.038 2.27-1.27 2.224-2.753z" fill="#FFCFAE"/>
            <ellipse fill="#FFF" transform="rotate(-1.71 201.15 134.817)" cx="201.149" cy="134.817" rx="5.362" ry="3.049"/>
            <path d="M204.731 143.037l-3.456 3.107a50.416 50.416 0 0 1-11.976 7.991l-4.924 2.347c-3.459 1.648-7.115 1.106-8.708-1.289-1.603-2.412-.66-6.015 2.239-8.56l5.246-4.604a45.433 45.433 0 0 1 10.927-7.095l4.103-1.888c3.488-1.605 7.131-1.032 8.73 1.366 1.61 2.43.697 6.036-2.181 8.625z" fill="#FFF"/>
            <path d="M186.17 137.31a7.075 7.075 0 0 1 7.853.021 7.054 7.054 0 0 1-2.582 12.784 7.07 7.07 0 0 1-7.246-3.02 7.052 7.052 0 0 1 1.975-9.784" fill="#FFCFAE"/>
            <path d="M184.195 147.094c-3.066-6.256 2.62-3.468 1.975-9.783-.393-3.878 7.637-1.272 9.797 1.973a7.052 7.052 0 0 1-1.976 9.783c-3.252 2.159-8.082 1.529-9.796-1.973z" fill="#263038"/>
            <path fill="#FFF" d="M265.35 65.506h-79.635V49.72h79.635z"/>
            <ellipse fill="#000" opacity=".08" cx="376.809" cy="37.749" rx="16.322" ry="7.722"/>
            <path d="M374.198 39.476c0 2.463-1.257 4.46-2.809 4.46-1.552 0-2.808-1.997-2.808-4.46 0-2.464.092-4.461 2.808-4.461 2.992 0 2.809 1.997 2.809 4.46zM384.988 39.476c0 2.463-1.257 4.46-2.809 4.46-1.551 0-2.808-1.997-2.808-4.46 0-2.464.093-4.461 2.808-4.461 2.993 0 2.809 1.997 2.809 4.46z" fill="#000"/>
            <path d="M364.377 36.364c-.781 1.254.015 2.165 1.091 2.833 1.076.667 2.023.839 2.804-.415.781-1.254.541-2.81-.533-3.479-1.075-.667-2.582-.192-3.362 1.061z" fill="#FFCFAE"/>
            <ellipse fill="#2B90FF" transform="rotate(-58.12 362.961 35.192)" cx="362.961" cy="35.192" rx="3.038" ry="5.326"/>
            <path d="M389.091 36.364c.784 1.26-.015 2.177-1.096 2.848-1.08.67-2.033.844-2.819-.416-.785-1.26-.544-2.826.537-3.491 1.08-.665 2.594-.196 3.378 1.06z" fill="#FFCFAE"/>
            <ellipse fill="#2B90FF" transform="rotate(-31.88 390.52 35.153)" cx="390.521" cy="35.153" rx="5.362" ry="3.049"/>
            <path d="M388.962 26.347l-4.6-.68a50.477 50.477 0 0 0-14.405-.041l-5.4.759c-3.8.539-6.536 3.008-6.536 5.886 0 2.896 2.781 5.376 6.607 5.895l6.92.936c4.328.584 8.717.542 13.033-.126l4.465-.693c3.799-.59 6.512-3.08 6.512-5.967-.005-2.899-2.765-5.401-6.596-5.969z" fill="#2B90FF"/>
            <path d="M376.672 41.373c3.903 0 7.067-3.16 7.067-7.058 0-3.898-3.164-7.057-7.067-7.057s-7.067 3.16-7.067 7.057c0 1.872.744 3.667 2.07 4.99a7.072 7.072 0 0 0 4.997 2.068" fill="#FFCFAE"/>
            <path d="M369.605 34.315c.912 6.906 4.103 1.442 7.067 7.058 1.823 3.448 7.067-3.16 7.067-7.058 0-3.898-3.164-7.057-7.067-7.057s-7.578 3.187-7.067 7.057z" fill="#263038"/>
            <ellipse fill="#000" opacity=".08" cx="376.761" cy="86.281" rx="16.322" ry="7.722"/>
            <path d="M379.372 84.554c0-2.463 1.257-4.46 2.809-4.46 1.552 0 2.808 1.997 2.808 4.46s-.092 4.46-2.808 4.46c-2.993 0-2.809-1.997-2.809-4.46zM368.582 84.554c0-2.463 1.257-4.46 2.809-4.46 1.551 0 2.808 1.997 2.808 4.46s-.093 4.46-2.808 4.46c-2.993 0-2.809-1.997-2.809-4.46z" fill="#000"/>
            <path d="M389.193 87.665c.781-1.253-.015-2.164-1.091-2.832-1.076-.668-2.023-.84-2.804.415-.781 1.253-.541 2.81.533 3.478 1.075.668 2.582.193 3.362-1.06z" fill="#FFCFAE"/>
            <ellipse fill="#FFF" transform="rotate(-58.12 390.635 88.873)" cx="390.635" cy="88.873" rx="3.038" ry="5.326"/>
            <path d="M364.479 87.665c-.784-1.26.015-2.176 1.095-2.847 1.081-.67 2.034-.844 2.82.416.785 1.26.544 2.826-.537 3.49-1.08.666-2.594.197-3.378-1.059z" fill="#FFCFAE"/>
            <ellipse fill="#FFF" transform="rotate(-31.88 363.04 88.833)" cx="363.039" cy="88.833" rx="5.362" ry="3.049"/>
            <path d="M364.608 97.683l4.6.68c4.775.702 9.626.716 14.404.04l5.402-.758c3.8-.539 6.535-3.008 6.535-5.886 0-2.896-2.782-5.376-6.607-5.895l-6.92-.937a45.485 45.485 0 0 0-13.033.126l-4.465.694c-3.8.589-6.512 3.08-6.512 5.966.003 2.9 2.765 5.402 6.596 5.97z" fill="#FFF"/>
            <path d="M376.9 82.657c-3.903 0-7.067 3.16-7.067 7.057 0 3.898 3.164 7.058 7.067 7.058s7.067-3.16 7.067-7.058a7.053 7.053 0 0 0-2.07-4.99 7.072 7.072 0 0 0-4.997-2.067" fill="#FFCFAE"/>
            <path d="M383.965 89.714c-.912-6.905-4.103-1.441-7.067-7.057-1.824-3.449-7.067 3.16-7.067 7.057 0 1.873.745 3.668 2.07 4.992a7.072 7.072 0 0 0 4.999 2.066c3.9 0 7.576-3.187 7.065-7.058z" fill="#263038"/>
            <path fill="#FFF" d="M337.082 52.605h79.635V68.39h-79.635z"/>
            <path d="M206.878 228.516c2.467 0 4.467-1.255 4.467-2.805 0-1.55-2-2.805-4.467-2.805-2.466 0-4.466.093-4.466 2.805 0 2.985 1.995 2.805 4.466 2.805zM223.444 239.292c2.466 0 4.466-1.255 4.466-2.805 0-1.55-2-2.805-4.466-2.805-2.467 0-4.467.093-4.467 2.805 0 2.986 1.996 2.805 4.467 2.805z" fill="#000"/>
            <path d="M222.614 234.692c-1.576 0-2.853.059-2.853 1.79 0 1.91 1.277 1.792 2.853 1.792M217.44 218.703c1.255-.78 2.166.015 2.835 1.09.669 1.075.84 2.02-.415 2.8-1.255.78-2.814.54-3.483-.532-.669-1.073-.192-2.578 1.062-3.358z" fill="#FFCFAE"/>
            <ellipse fill="#FFF" transform="rotate(-31.88 216.257 217.259)" cx="216.257" cy="217.259" rx="3.038" ry="5.326"/>
            <ellipse fill="#DDD" transform="rotate(-83.83 207.062 225.86)" cx="207.062" cy="225.86" rx="4.076" ry="3.034"/>
            <ellipse fill="#DDD" transform="rotate(-83.83 221.114 236.435)" cx="221.114" cy="236.435" rx="3.919" ry="3.034"/>
            <path d="M217.445 243.39c1.262.783 2.18-.015 2.851-1.094.672-1.08.845-2.031-.416-2.816-1.261-.785-2.83-.543-3.496.536-.665 1.08-.202 2.586 1.061 3.374z" fill="#FFCFAE"/>
            <ellipse fill="#FFF" transform="rotate(-58.12 216.25 244.84)" cx="216.251" cy="244.841" rx="5.362" ry="3.049"/>
            <path d="M207.412 243.256l-.304-4.61c-.152-4.552-.304-9.258 0-14.266l.352-5.498c.54-3.794 3.013-6.526 5.894-6.526 2.9 0 5.383 2.777 5.903 6.598l.938 6.912a45.31 45.31 0 0 1-.127 13.015l-.694 4.459c-.59 3.794-3.084 6.504-5.974 6.504-2.914-.003-5.421-2.76-5.988-6.588z" fill="#FFF"/>
            <path d="M222.456 230.984c0 3.897-3.164 7.057-7.067 7.057s-7.067-3.16-7.067-7.057c0-3.898 3.164-7.058 7.067-7.058s7.067 3.16 7.067 7.058" fill="#FFCFAE"/>
            <path d="M215.39 223.926c6.914.91 1.443 4.098 7.066 7.058 3.453 1.821-3.164 7.057-7.067 7.057s-7.067-3.16-7.067-7.057c0-3.9 3.198-7.568 7.067-7.058z" fill="#263038"/>
            <ellipse fill="#000" opacity=".08" transform="rotate(-10.01 401.627 154.11)" cx="401.627" cy="154.111" rx="16.322" ry="13.66"/>
            <path d="M396.541 147.01c.429 2.43-.456 4.612-1.99 4.88-1.533.27-3.113-1.478-3.542-3.905-.428-2.427-.685-4.401 1.99-4.88 2.946-.519 3.112 1.477 3.542 3.906zM410.047 161.43c.429 2.428-.456 4.61-1.99 4.88-1.533.268-3.113-1.479-3.542-3.906-.428-2.427-.685-4.401 1.99-4.88 2.946-.519 3.112 1.477 3.542 3.906z" fill="#000"/>
            <path d="M405.37 161.413c-.273-1.55-.437-2.815 1.271-3.118 1.883-.332 1.988.945 2.263 2.494M388.705 159.104c-.55 1.366.392 2.125 1.567 2.6 1.175.475 2.138.475 2.688-.894.55-1.369.045-2.862-1.132-3.339-1.176-.476-2.571.263-3.123 1.633z" fill="#FFCFAE"/>
            <ellipse fill="#FFF" transform="rotate(-68.14 387.073 158.159)" cx="387.073" cy="158.159" rx="3.038" ry="5.326"/>
            <ellipse fill="#DDD" transform="rotate(-16.19 393.983 147.627)" cx="393.983" cy="147.627" rx="4.076" ry="3.034"/>
            <ellipse fill="#DDD" transform="rotate(-16.19 406.854 159.606)" cx="406.854" cy="159.606" rx="3.919" ry="3.034"/>
            <path d="M413.044 154.818c.992 1.105.363 2.146-.584 2.995-.946.848-1.855 1.184-2.848.079-.992-1.105-1.027-2.688-.08-3.537.947-.848 2.521-.642 3.512.463z" fill="#FFCFAE"/>
            <ellipse fill="#FFF" transform="rotate(-41.89 414.251 153.39)" cx="414.251" cy="153.391" rx="5.362" ry="3.049"/>
            <path d="M411.173 144.972l-4.597.501c-4.517.642-9.182 1.312-14.068 2.48l-5.36 1.303c-3.646 1.188-5.917 4.098-5.415 6.931.504 2.852 3.674 4.812 7.531 4.658l6.98-.279a45.48 45.48 0 0 0 12.81-2.387l4.277-1.459c3.634-1.24 5.877-4.163 5.376-7.006-.508-2.864-3.661-4.85-7.534-4.742z" fill="#FFF"/>
            <path d="M401.685 161.902a7.058 7.058 0 0 0 5.73-8.178c-.678-3.838-4.344-6.4-8.187-5.723a7.058 7.058 0 0 0-5.731 8.177 7.057 7.057 0 0 0 2.907 4.556 7.074 7.074 0 0 0 5.281 1.168" fill="#FFCFAE"/>
            <path d="M393.498 156.18c2.1 6.642 4.292.707 8.189 5.723 2.392 3.08 6.409-4.34 5.73-8.178a7.057 7.057 0 0 0-2.906-4.555 7.074 7.074 0 0 0-5.282-1.168c-3.845.678-6.907 4.46-5.73 8.178z" fill="#263038"/>
            <path fill="#FFF" d="M12.158 193.91H0V1h12.158z"/>
            <path fill="#FFF" d="M.694 13.15V.992h132.047V13.15z"/>
            <path fill="#D8EAFF" d="M67.365 193.912v-3.495h61.47v3.495z"/>
            <ellipse fill="#000" opacity=".08" cx="108.796" cy="150.441" rx="7.733" ry="16.301"/>
            <path d="M107.067 153.048c-2.467 0-4.467 1.256-4.467 2.805 0 1.55 2 2.805 4.467 2.805 2.466 0 4.466-.092 4.466-2.805 0-2.988-2-2.805-4.466-2.805zM107.067 142.272c-2.467 0-4.467 1.255-4.467 2.805 0 1.55 2 2.805 4.467 2.805 2.466 0 4.466-.093 4.466-2.805 0-2.988-2-2.805-4.466-2.805z" fill="#000"/>
            <path d="M110.182 162.856c-1.255.78-2.167-.015-2.835-1.09-.67-1.074-.84-2.02.414-2.8 1.256-.78 2.815-.54 3.484.533.668 1.073.193 2.579-1.063 3.357z" fill="#FFCFAE"/>
            <ellipse fill="#2B90FF" transform="rotate(-31.945 111.917 164.266)" cx="111.917" cy="164.266" rx="3.043" ry="5.335"/>
            <path d="M110.182 138.174c-1.261-.783-2.179.015-2.85 1.095-.672 1.079-.846 2.03.416 2.815 1.261.785 2.83.543 3.495-.536.666-1.079.196-2.59-1.06-3.374z" fill="#FFCFAE"/>
            <ellipse fill="#2B90FF" transform="rotate(-58.12 111.373 136.753)" cx="111.373" cy="136.753" rx="5.362" ry="3.049"/>
            <path d="M120.213 138.303l.68 4.595c.704 4.768.718 9.613.042 14.385l-.76 5.394c-.54 3.795-3.012 6.527-5.894 6.527-2.9 0-5.383-2.778-5.903-6.598l-.937-6.912a45.31 45.31 0 0 1 .126-13.015l.694-4.46c.59-3.794 3.084-6.503 5.975-6.503 2.902.005 5.408 2.76 5.977 6.587z" fill="#2B90FF"/>
            <path d="M105.167 150.578c0-3.898 3.164-7.058 7.067-7.058s7.067 3.16 7.067 7.058c0 3.897-3.164 7.057-7.067 7.057s-7.067-3.16-7.067-7.057" fill="#FFCFAE"/>
            <path d="M112.234 157.635c-6.915-.91-1.444-4.098-7.067-7.057-3.453-1.822 3.164-7.058 7.067-7.058s7.067 3.16 7.067 7.058c0 3.897-3.192 7.567-7.067 7.057z" fill="#263038"/>
            <ellipse fill="#000" opacity=".08" transform="rotate(-52.28 64.13 62.035)" cx="64.131" cy="62.035" rx="7.733" ry="16.301"/>
            <path d="M63.125 59.069c1.509-1.949 1.737-4.297.51-5.244-1.226-.947-3.445-.137-4.954 1.812-1.51 1.949-2.66 3.585-.51 5.244 2.367 1.828 3.445.135 4.954-1.812zM71.66 65.658c1.509-1.95 1.737-4.297.51-5.244-1.226-.947-3.445-.137-4.954 1.812-1.51 1.949-2.66 3.583-.51 5.253 2.367 1.821 3.444.13 4.954-1.821z" fill="#000"/>
            <path d="M53.45 55.53c.152-1.468 1.339-1.704 2.597-1.575 1.258.13 2.114.573 1.964 2.04-.15 1.468-1.294 2.555-2.554 2.429-1.26-.126-2.158-1.425-2.007-2.895z" fill="#FFCFAE"/>
            <ellipse fill="#FFF" transform="rotate(-84.16 51.59 55.593)" cx="51.591" cy="55.594" rx="3.038" ry="5.326"/>
            <path d="M73.002 70.625c1.392-.517 1.32-1.73.876-2.923-.443-1.193-1.09-1.91-2.484-1.393-1.394.517-2.161 1.903-1.718 3.094.444 1.192 1.933 1.74 3.326 1.222z" fill="#FFCFAE"/>
            <ellipse fill="#FFF" transform="rotate(-20.4 73.397 72.458)" cx="73.397" cy="72.458" rx="3.053" ry="5.355"/>
            <path d="M66.761 78.472l-4.054-2.276a50.404 50.404 0 0 1-11.418-8.769l-3.8-3.905c-2.671-2.744-3.33-6.375-1.568-8.651 1.774-2.29 5.494-2.555 8.837-.626l6.049 3.491A45.418 45.418 0 0 1 71.04 65.8l3.106 3.277c2.64 2.785 3.264 6.415 1.497 8.698-1.783 2.303-5.503 2.592-8.882.698z" fill="#FFF"/>
            <path d="M66.243 59.08a7.052 7.052 0 0 1 1.268 9.9 7.073 7.073 0 0 1-9.914 1.266 7.052 7.052 0 0 1-1.267-9.9 7.069 7.069 0 0 1 9.913-1.267" fill="#FFCFAE"/>
            <path d="M56.33 60.345c4.951-4.905 4.129 1.366 9.913-1.266 3.552-1.616 3.648 6.818 1.268 9.901a7.073 7.073 0 0 1-9.912 1.266c-3.09-2.386-4.04-7.157-1.27-9.9z" fill="#263038"/>
            <path fill="#FFF" d="M78.126 190.47v-79.634H93.91v79.635z"/>
            <ellipse fill="#000" opacity=".08" cx="155.775" cy="239.007" rx="13.678" ry="16.301"/>
            <path d="M163.638 242.783c-2.466 0-4.466 1.255-4.466 2.805 0 1.55 2 2.805 4.466 2.805 2.467 0 4.467-.093 4.467-2.805 0-2.986-1.996-2.805-4.467-2.805zM147.073 232.007c-2.467 0-4.467 1.255-4.467 2.804 0 1.55 2 2.811 4.467 2.811 2.467 0 4.467-.092 4.467-2.804 0-2.992-1.996-2.811-4.467-2.811z" fill="#000"/>
            <path d="M147.903 236.607c1.576 0 2.852-.06 2.852-1.791 0-1.91-1.276-1.791-2.852-1.791M153.078 252.595c-1.256.78-2.168-.015-2.836-1.09-.67-1.074-.84-2.02.415-2.8 1.255-.78 2.814-.54 3.483.533s.191 2.577-1.062 3.357z" fill="#FFCFAE"/>
            <ellipse fill="#FFF" transform="rotate(-31.88 154.277 254.005)" cx="154.277" cy="254.005" rx="3.038" ry="5.326"/>
            <ellipse fill="#DDD" transform="rotate(-83.83 163.44 245.408)" cx="163.44" cy="245.408" rx="4.076" ry="3.034"/>
            <ellipse fill="#DDD" transform="rotate(-83.83 149.388 234.833)" cx="149.388" cy="234.833" rx="3.919" ry="3.034"/>
            <path d="M153.071 227.909c-1.261-.784-2.179.015-2.85 1.094-.672 1.08-.846 2.03.416 2.815 1.261.785 2.83.544 3.495-.535.666-1.08.202-2.587-1.06-3.374z" fill="#FFCFAE"/>
            <ellipse fill="#FFF" transform="rotate(-58.12 154.266 226.497)" cx="154.266" cy="226.497" rx="5.362" ry="3.049"/>
            <path d="M163.105 228.042l.304 4.61c.152 4.553.304 9.258 0 14.267l-.353 5.497c-.54 3.795-3.012 6.527-5.893 6.527-2.9 0-5.383-2.778-5.903-6.598l-.938-6.912a45.31 45.31 0 0 1 .126-13.015l.695-4.46c.59-3.794 3.083-6.503 5.974-6.503 2.913.003 5.421 2.76 5.988 6.587z" fill="#FFF"/>
            <path d="M148.06 240.315c0-3.898 3.165-7.058 7.068-7.058 3.903 0 7.067 3.16 7.067 7.058 0 3.898-3.164 7.058-7.067 7.058s-7.067-3.16-7.067-7.058" fill="#FFCFAE"/>
            <path d="M155.128 247.373c-6.915-.911-1.444-4.098-7.067-7.058-3.453-1.821 3.164-7.058 7.067-7.058s7.067 3.16 7.067 7.058c0 3.9-3.198 7.568-7.067 7.058z" fill="#263038"/>
            <ellipse fill="#000" opacity=".08" cx="272.796" cy="230.085" rx="13.678" ry="16.301"/>
            <path d="M280.383 236.61c1.808 0 3.275-.921 3.275-2.057 0-1.135-1.467-2.056-3.275-2.056-1.809 0-3.275.067-3.275 2.056 0 2.19 1.463 2.057 3.275 2.057z" fill="#000"/>
            <path d="M279.775 233.24c-1.155 0-2.093.042-2.093 1.313 0 1.4.937 1.315 2.093 1.315" fill="#FFCFAE"/>
            <ellipse fill="#FFCFAE" transform="rotate(-83.83 278.084 234.504)" cx="278.084" cy="234.504" rx="2.193" ry="2.152"/>
            <path d="M279.483 235.862c1.15 0 2.084-.586 2.084-1.309 0-.722-.933-1.308-2.084-1.308-1.15 0-2.083.043-2.083 1.308 0 1.4.933 1.309 2.083 1.309z" fill="#FFCFAE"/>
            <path d="M268.693 223.782c2.14 0 3.875-1.09 3.875-2.429 0-1.338-1.735-2.428-3.875-2.428-2.14 0-3.875.08-3.875 2.428-.003 2.588 1.73 2.429 3.875 2.429z" fill="#000"/>
            <ellipse fill="#DDD" cx="278.34" cy="228.749" rx="2.28" ry="13.432"/>
            <path d="M276.82 216.62c1.254-.78 2.166.016 2.835 1.09.669 1.075.84 2.02-.415 2.8-1.255.781-2.814.541-3.483-.532s-.192-2.577 1.062-3.357z" fill="#FFCFAE"/>
            <ellipse fill="#FFF" transform="rotate(-31.88 275.637 215.174)" cx="275.637" cy="215.174" rx="3.038" ry="5.326"/>
            <path d="M276.825 241.305c1.262.783 2.18-.016 2.851-1.095.672-1.079.845-2.03-.416-2.815-1.262-.785-2.83-.544-3.496.536-.665 1.079-.202 2.589 1.061 3.374z" fill="#FFCFAE"/>
            <ellipse fill="#FFF" transform="rotate(-58.12 275.633 242.76)" cx="275.633" cy="242.76" rx="5.362" ry="3.049"/>
            <path d="M266.792 241.174l-.304-4.61c-.152-4.553-.304-9.258 0-14.267l.352-5.497c.54-3.795 3.013-6.527 5.894-6.527 2.9 0 5.383 2.778 5.903 6.598l.937 6.912a45.31 45.31 0 0 1-.126 13.015l-.694 4.46c-.59 3.794-3.084 6.503-5.974 6.503-2.915-.003-5.421-2.76-5.988-6.587z" fill="#FFF"/>
            <path d="M281.836 228.901c-.003 3.898-3.17 7.055-7.072 7.052-3.903-.003-7.064-3.164-7.062-7.062.002-3.897 3.168-7.055 7.07-7.054 3.903 0 7.067 3.16 7.067 7.058" fill="#FFCFAE"/>
            <path d="M274.772 221.837c6.915.911.467 2.352 3.875 7.741 3.648 5.768.028 6.375-3.875 6.375s-9.346-1.973-9.498-6.982c-.152-5.009 5.626-7.637 9.498-7.134z" fill="#263038"/>
            <ellipse fill="#263038" transform="rotate(-1.89 265.394 228.805)" cx="265.394" cy="228.805" rx="2.333" ry="3.498"/>
        </g>
        <g transform="translate(42.705 2)">
            <ellipse fill="#2B90FF" fill-rule="nonzero" opacity=".1" cx="183.757" cy="183.468" rx="80.827" ry="80.722"/>
            <ellipse fill="#2B90FF" fill-rule="nonzero" opacity=".08" cx="183.757" cy="183.468" rx="120.629" ry="120.473"/>
            <ellipse fill="#2B90FF" fill-rule="nonzero" opacity=".1" cx="183.757" cy="183.468" rx="154.517" ry="154.316"/>
            <ellipse fill="#2B90FF" fill-rule="nonzero" opacity=".06" cx="183.757" cy="183.468" rx="183.707" ry="183.468"/>
            <ellipse stroke="#2B90FF" stroke-width="4" opacity=".06" cx="183.757" cy="183.468" rx="183.707" ry="183.468"/>
        </g>
        <g transform="translate(45.289 100.808)" fill-rule="nonzero">
            <ellipse fill="#FFB522" cx="61.298" cy="32.792" rx="7.327" ry="7.317"/>
            <path d="M65.11 31.584a.598.598 0 0 0-.464-.22h-.477l-1.859-2.29a.334.334 0 0 0-.53.404l.012.016 1.52 1.863h-4.117l1.52-1.863a.334.334 0 1 0-.49-.456l-.027.034-1.86 2.29h-.39a.6.6 0 0 0-.588.716l.77 3.87a.869.869 0 0 0 .852.697h4.634c.413 0 .769-.291.85-.696l.771-3.87a.596.596 0 0 0-.128-.495zm-4.814 3.137a.333.333 0 0 1-.667 0v-1.366a.333.333 0 0 1 .667 0v1.366zm1.333 0a.333.333 0 0 1-.667 0v-1.366a.333.333 0 0 1 .667 0v1.366zm1.333 0a.333.333 0 0 1-.667 0v-1.366a.333.333 0 0 1 .667 0v1.366z" fill="#FFF"/>
            <ellipse fill="#FFB522" cx="210.994" cy="62.98" rx="7.327" ry="7.317"/>
            <path d="M214.805 61.774a.598.598 0 0 0-.463-.22h-.477l-1.859-2.29a.334.334 0 0 0-.53.403l.012.015 1.52 1.864h-4.117l1.52-1.864a.334.334 0 1 0-.49-.455l-.027.033-1.859 2.29h-.388a.6.6 0 0 0-.588.717l.77 3.87a.869.869 0 0 0 .852.697h4.634c.413 0 .769-.292.85-.697l.771-3.87a.596.596 0 0 0-.13-.493zm-4.813 3.137a.333.333 0 0 1-.667 0v-1.366a.333.333 0 0 1 .667 0v1.366zm1.333 0a.333.333 0 0 1-.667 0v-1.366a.333.333 0 0 1 .667 0v1.366zm1.333 0a.333.333 0 0 1-.667 0v-1.366a.333.333 0 0 1 .667 0v1.366z" fill="#FFF"/>
            <ellipse fill="#FFB522" cx="169.657" cy="100.621" rx="7.327" ry="7.317"/>
            <path d="M173.468 99.415a.598.598 0 0 0-.463-.22h-.478l-1.858-2.29a.334.334 0 0 0-.53.403l.011.015 1.52 1.864h-4.117l1.52-1.864a.334.334 0 1 0-.49-.455l-.027.033-1.858 2.29h-.388a.6.6 0 0 0-.588.717l.77 3.87a.869.869 0 0 0 .851.697h4.634c.414 0 .77-.292.851-.697l.77-3.87a.596.596 0 0 0-.13-.493zm-4.813 3.137a.333.333 0 0 1-.667 0v-1.366a.333.333 0 0 1 .667 0v1.366zm1.333 0a.333.333 0 0 1-.667 0v-1.366a.333.333 0 0 1 .667 0v1.366zm1.333 0a.333.333 0 0 1-.668 0v-1.366a.333.333 0 0 1 .668 0v1.366z" fill="#FFF"/>
            <ellipse fill="#FFB522" cx="242.453" cy="118.076" rx="7.327" ry="7.317"/>
            <path d="M246.264 116.87a.598.598 0 0 0-.463-.22h-.477l-1.859-2.291a.334.334 0 0 0-.53.404l.012.015 1.52 1.864h-4.117l1.52-1.864a.334.334 0 1 0-.49-.456l-.027.034-1.86 2.29h-.387a.6.6 0 0 0-.588.717l.77 3.87a.869.869 0 0 0 .852.697h4.634c.413 0 .769-.292.85-.697l.771-3.87a.596.596 0 0 0-.13-.494zm-4.813 3.137a.333.333 0 0 1-.667 0v-1.366a.333.333 0 0 1 .667 0v1.366zm1.333 0a.333.333 0 0 1-.667 0v-1.366a.333.333 0 0 1 .667 0v1.366zm1.333 0a.333.333 0 0 1-.667 0v-1.366a.333.333 0 0 1 .667 0v1.366z" fill="#FFF"/>
            <ellipse fill="#FFB522" cx="228.319" cy="232.82" rx="7.327" ry="7.317"/>
            <path d="M232.13 231.614a.598.598 0 0 0-.463-.22h-.477l-1.859-2.29a.334.334 0 0 0-.53.403l.012.015 1.52 1.864h-4.117l1.52-1.864a.334.334 0 1 0-.49-.455l-.027.033-1.859 2.29h-.387a.6.6 0 0 0-.589.717l.771 3.87a.869.869 0 0 0 .851.697h4.634c.413 0 .77-.292.85-.697l.771-3.87a.596.596 0 0 0-.13-.493zm-4.812 3.137a.333.333 0 0 1-.668 0v-1.366a.333.333 0 0 1 .668 0v1.366zm1.332 0a.333.333 0 0 1-.667 0v-1.366a.333.333 0 0 1 .667 0v1.366zm1.333 0a.333.333 0 0 1-.667 0v-1.366a.333.333 0 0 1 .667 0v1.366z" fill="#FFF"/>
            <ellipse fill="#FFB522" cx="362.362" cy="7.445" rx="7.327" ry="7.317"/>
            <path d="M358.424 6.734l.77 3.87a.869.869 0 0 0 .852.697h4.633c.414 0 .77-.291.851-.696l.77-3.87a.599.599 0 0 0-.587-.717h-.388l-1.858-2.29-.028-.034a.335.335 0 0 0-.49.456l1.52 1.863h-4.12l1.52-1.863.012-.016a.333.333 0 1 0-.53-.403l-1.857 2.289h-.477a.608.608 0 0 0-.591.717l-.002-.003zm4.94 1.277a.333.333 0 0 1 .666 0v1.366a.333.333 0 0 1-.667 0V8.01zm-1.334 0a.333.333 0 0 1 .668 0v1.366a.333.333 0 0 1-.668 0V8.01zm-1.332 0a.333.333 0 0 1 .667 0v1.366a.333.333 0 0 1-.667 0V8.01z" fill="#FFF"/>
            <ellipse fill="#FFB522" cx="361.906" cy="67.094" rx="7.327" ry="7.317"/>
            <path d="M357.968 66.383l.77 3.87a.869.869 0 0 0 .852.697h4.633c.414 0 .77-.292.851-.696l.771-3.87a.599.599 0 0 0-.588-.717h-.388l-1.858-2.29-.028-.034a.335.335 0 0 0-.49.456l1.52 1.863h-4.12l1.52-1.863.013-.016a.333.333 0 1 0-.53-.403l-1.858 2.288h-.477a.608.608 0 0 0-.591.718l-.002-.003zm4.94 1.277a.333.333 0 0 1 .666 0v1.366a.333.333 0 0 1-.667 0V67.66zm-1.334 0a.333.333 0 0 1 .668 0v1.366a.333.333 0 0 1-.668 0V67.66zm-1.332 0a.333.333 0 0 1 .667 0v1.366a.333.333 0 0 1-.667 0V67.66z" fill="#FFF"/>
            <ellipse fill="#FFB522" cx="325.432" cy="130.385" rx="7.327" ry="7.317"/>
            <path d="M321.494 129.675l.77 3.87a.869.869 0 0 0 .852.697h4.633c.414 0 .77-.292.851-.697l.77-3.87a.599.599 0 0 0-.587-.717h-.388l-1.859-2.29-.027-.033a.335.335 0 0 0-.49.455l1.52 1.864h-4.12l1.52-1.864.012-.015a.333.333 0 1 0-.53-.404l-1.857 2.289h-.477a.608.608 0 0 0-.592.718l-.001-.003zm4.94 1.276a.333.333 0 0 1 .666 0v1.366a.333.333 0 0 1-.667 0v-1.366zm-1.334 0a.333.333 0 0 1 .667 0v1.366a.333.333 0 0 1-.667 0v-1.366zm-1.333 0a.333.333 0 0 1 .668 0v1.366a.333.333 0 0 1-.668 0v-1.366z" fill="#FFF"/>
            <ellipse fill="#FFB522" cx="168.289" cy="235.704" rx="7.327" ry="7.317"/>
            <path d="M172.1 234.498a.598.598 0 0 0-.463-.22h-.477l-1.86-2.29a.334.334 0 0 0-.53.403l.013.015 1.52 1.864h-4.118l1.52-1.864a.334.334 0 1 0-.49-.455l-.027.033-1.858 2.29h-.388a.6.6 0 0 0-.588.717l.77 3.87a.869.869 0 0 0 .852.697h4.633c.414 0 .77-.292.851-.697l.771-3.87a.596.596 0 0 0-.13-.493zm-4.813 3.137a.333.333 0 0 1-.667 0v-1.366a.333.333 0 0 1 .667 0v1.366zm1.333 0a.333.333 0 0 1-.667 0v-1.366a.333.333 0 0 1 .667 0v1.366zm1.333 0a.333.333 0 0 1-.667 0v-1.366a.333.333 0 0 1 .667 0v1.366z" fill="#FFF"/>
            <ellipse fill="#FFB522" cx="110.69" cy="243.748" rx="7.327" ry="7.317"/>
            <path d="M114.502 242.542a.598.598 0 0 0-.464-.22h-.477l-1.859-2.29a.334.334 0 0 0-.53.403l.012.015 1.52 1.864h-4.117l1.52-1.864a.334.334 0 1 0-.49-.455l-.027.033-1.859 2.29h-.388a.6.6 0 0 0-.588.717l.77 3.87a.869.869 0 0 0 .852.697h4.634c.413 0 .769-.292.85-.697l.771-3.87a.596.596 0 0 0-.13-.493zm-4.814 3.137a.333.333 0 0 1-.667 0v-1.366a.333.333 0 0 1 .667 0v1.366zm1.333 0a.333.333 0 0 1-.667 0v-1.366a.333.333 0 0 1 .667 0v1.366zm1.333 0a.333.333 0 0 1-.667 0v-1.366a.333.333 0 0 1 .667 0v1.366z" fill="#FFF"/>
            <ellipse fill="#FFB522" cx="7.347" cy="91.682" rx="7.327" ry="7.317"/>
            <path d="M11.158 90.474a.598.598 0 0 0-.463-.22h-.478l-1.858-2.29a.334.334 0 0 0-.53.404l.011.016 1.52 1.863H5.243l1.52-1.863a.334.334 0 1 0-.49-.456l-.027.034-1.858 2.29h-.391a.6.6 0 0 0-.588.716l.77 3.87a.869.869 0 0 0 .851.697h4.634c.414 0 .77-.292.851-.696l.77-3.87a.596.596 0 0 0-.127-.495zM6.345 93.61a.333.333 0 0 1-.667 0v-1.366a.333.333 0 0 1 .667 0v1.366zm1.333 0a.333.333 0 0 1-.667 0v-1.366a.333.333 0 0 1 .667 0v1.366zm1.333 0a.333.333 0 0 1-.668 0v-1.366a.333.333 0 0 1 .668 0v1.366z" fill="#FFF"/>
            <ellipse fill="#FFB522" cx="40.325" cy="56.166" rx="7.327" ry="7.317"/>
            <path d="M44.137 54.957a.598.598 0 0 0-.464-.22h-.477l-1.859-2.288a.334.334 0 0 0-.53.403l.012.015 1.52 1.864h-4.117l1.52-1.864a.334.334 0 1 0-.49-.455l-.027.033-1.859 2.29h-.39a.6.6 0 0 0-.588.717l.77 3.87a.869.869 0 0 0 .851.697h4.634c.413 0 .77-.292.85-.696l.771-3.87a.596.596 0 0 0-.127-.496zm-4.813 3.138a.333.333 0 0 1-.667 0v-1.366a.333.333 0 0 1 .667 0v1.366zm1.333 0a.333.333 0 0 1-.668 0v-1.366a.333.333 0 0 1 .668 0v1.366zm1.332 0a.333.333 0 0 1-.667 0v-1.366a.333.333 0 0 1 .667 0v1.366z" fill="#FFF"/>
            <ellipse fill="#FFB522" cx="69.353" cy="94.717" rx="7.327" ry="7.317"/>
            <path d="M73.164 93.51a.598.598 0 0 0-.463-.221h-.478L70.365 91a.334.334 0 0 0-.53.404l.012.015 1.52 1.864h-4.118l1.52-1.864a.334.334 0 1 0-.49-.455l-.027.033-1.858 2.29h-.391a.6.6 0 0 0-.588.717l.77 3.87a.869.869 0 0 0 .851.697h4.634c.414 0 .77-.292.851-.697l.77-3.87a.596.596 0 0 0-.127-.495zm-4.813 3.136a.333.333 0 0 1-.667 0V95.28a.333.333 0 0 1 .667 0v1.366zm1.333 0a.333.333 0 0 1-.667 0V95.28a.333.333 0 0 1 .667 0v1.366zm1.333 0a.333.333 0 0 1-.667 0V95.28a.333.333 0 0 1 .667 0v1.366z" fill="#FFF"/>
        </g>
    </g>
</svg>
