<svg xmlns="http://www.w3.org/2000/svg" viewBox="0 0 1041.5 988.4">
    <defs>
        <style>
            .cls-1{fill:none}.cls-2{fill:#2b90ff}.cls-3{fill:#4dabff}.cls-4{fill:#fff}.cls-5{fill:#dbdbdb}.cls-6{fill:#e2e2e2;opacity:.7}.cls-7{fill:#d6d6d6}.cls-47,.cls-8{fill:#10355d}.cls-9{fill:#d8eaff}.cls-10{fill:#2c2c2c}.cls-11{fill:#636363}.cls-12{fill:#217cbf}.cls-13{fill:#9eccff}.cls-14{fill:#eaeae5}.cls-15{fill:#bebebe}.cls-16,.cls-67{fill:#d8d8d8}.cls-16,.cls-41,.cls-42,.cls-43,.cls-44,.cls-45,.cls-46,.cls-47,.cls-48,.cls-49,.cls-50,.cls-51,.cls-52,.cls-53,.cls-54,.cls-55{fill-rule:evenodd}.cls-17{isolation:isolate}.cls-18{clip-path:url(#clip-path)}.cls-19{fill:gray}.cls-20{fill:#858585}.cls-21{fill:#898989}.cls-22{fill:#8d8d8d}.cls-23{fill:#929292}.cls-24{fill:#969696}.cls-25{fill:#9b9b9b}.cls-26{fill:#9f9f9f}.cls-27{fill:#7c7c7c}.cls-28{fill:#777}.cls-29{fill:#737373}.cls-30{clip-path:url(#clip-path-2)}.cls-31{fill:#6d6d6d}.cls-32{fill:#717171}.cls-33{fill:#757575}.cls-34{fill:#787878}.cls-35{fill:#848484}.cls-36{fill:#878787}.cls-37{fill:#696969}.cls-38{fill:#666}.cls-39{fill:#626262}.cls-40{fill:#a2a2a2}.cls-41{fill:#011d2e}.cls-42{fill:#050408}.cls-43{fill:#171526}.cls-44{fill:#343054}.cls-45{fill:#25223d}.cls-46{fill:#110f1c}.cls-48{fill:#003d63}.cls-49{fill:#1c4870}.cls-50{fill:#081b2f}.cls-51{fill:#001624}.cls-52{fill:#c4c4d8}.cls-53{fill:#eaeaf7}.cls-54{fill:#f5f5ff}.cls-55{fill:#fafaff}.cls-56{fill:#323232}.cls-57{fill:#494949}.cls-58{fill:#515151}.cls-59{clip-path:url(#clip-path-3)}.cls-60{clip-path:url(#clip-path-4)}.cls-61{opacity:.15}.cls-62{fill:#444549}.cls-63{fill:#ffcfae}.cls-64{opacity:.1}.cls-65{opacity:.08}.cls-66{fill:#424242}.cls-68{clip-path:url(#clip-path-5)}.cls-69{clip-path:url(#clip-path-6)}.cls-70{clip-path:url(#clip-path-7)}.cls-71{clip-path:url(#clip-path-8)}.cls-72{fill:#3a2416;opacity:.04}.cls-73{fill:#ffb522}
        </style>
        <clipPath id="clip-path">
            <path class="cls-1" d="M640.5 615.56V618c0 3.17-2.09 6.33-6.25 8.74-8.37 4.86-22 4.87-30.41 0-4.24-2.45-6.35-5.66-6.34-8.86v-2.45c0 3.21 2.11 6.42 6.34 8.86 8.43 4.87 22 4.86 30.41 0 4.16-2.4 6.24-5.56 6.25-8.73z"/>
        </clipPath>
        <clipPath id="clip-path-2">
            <path class="cls-1" d="M624.31 388.93l-.64 226.62a2.48 2.48 0 0 1-1.45 2 7.8 7.8 0 0 1-7.07 0 2.5 2.5 0 0 1-1.47-2.06l.64-226.62a2.5 2.5 0 0 0 1.47 2.06 7.8 7.8 0 0 0 7.07 0 2.48 2.48 0 0 0 1.45-2z"/>
        </clipPath>
        <clipPath id="clip-path-3">
            <path class="cls-1" d="M1041.5 845.56V848c0 3.17-2.09 6.33-6.25 8.74-8.37 4.87-22 4.86-30.41 0-4.24-2.45-6.36-5.66-6.35-8.87v-2.45c0 3.21 2.11 6.42 6.35 8.87 8.42 4.86 22 4.87 30.41 0 4.16-2.4 6.24-5.56 6.25-8.73z"/>
        </clipPath>
        <clipPath id="clip-path-4">
            <path class="cls-1" d="M1025.32 618.94l-.64 226.62a2.48 2.48 0 0 1-1.45 2 7.8 7.8 0 0 1-7.08 0 2.5 2.5 0 0 1-1.48-2.06l.64-226.62a2.5 2.5 0 0 0 1.48 2.06 7.8 7.8 0 0 0 7.08 0 2.48 2.48 0 0 0 1.45-2z"/>
        </clipPath>
        <clipPath id="clip-path-5">
            <path class="cls-1" d="M413.5 743.56V746c0 3.17-2.09 6.33-6.25 8.75-8.37 4.86-22 4.87-30.41 0-4.24-2.45-6.35-5.66-6.35-8.87v-2.45c0 3.21 2.11 6.42 6.35 8.87 8.43 4.87 22 4.86 30.41 0 4.16-2.41 6.24-5.57 6.25-8.74z"/>
        </clipPath>
        <clipPath id="clip-path-6">
            <path class="cls-1" d="M397.32 516.93l-.64 226.62a2.48 2.48 0 0 1-1.45 2 7.79 7.79 0 0 1-7.07 0 2.5 2.5 0 0 1-1.47-2.06l.64-226.62a2.5 2.5 0 0 0 1.47 2.06 7.79 7.79 0 0 0 7.07 0 2.48 2.48 0 0 0 1.45-2z"/>
        </clipPath>
        <clipPath id="clip-path-7">
            <path class="cls-1" d="M814.5 973.57V976c0 3.17-2.09 6.33-6.25 8.74-8.37 4.86-22 4.86-30.4 0-4.24-2.45-6.36-5.66-6.35-8.87v-2.45c0 3.21 2.11 6.42 6.35 8.87 8.42 4.86 22 4.87 30.4 0 4.16-2.4 6.24-5.56 6.25-8.72z"/>
        </clipPath>
        <clipPath id="clip-path-8">
            <path class="cls-1" d="M798.31 746.93l-.64 226.62a2.48 2.48 0 0 1-1.45 2 7.79 7.79 0 0 1-7.07 0 2.5 2.5 0 0 1-1.48-2.06l.64-226.62a2.5 2.5 0 0 0 1.48 2.06 7.79 7.79 0 0 0 7.07 0 2.48 2.48 0 0 0 1.45-2z"/>
        </clipPath>
    </defs>
    <title>
        Improve Safety
    </title>
    <g id="Layer_2" data-name="Layer 2">
        <g id="Layer_1-2" data-name="Layer 1">
            <path class="cls-2" d="M152.37 484.36L314 391.18v-15.02l-209.33 80.38 47.7 27.82z"/>
            <path class="cls-3" d="M152.37 469.34L314 376.16l-47.7-27.82-161.63 93.18 47.7 27.82z"/>
            <path class="cls-4" d="M126.04 116.38l146.15-84.39 27.31 175.79v168.76l-146.16 84.39V292.16l-27.3-175.78z"/>
            <path class="cls-5" d="M126.04 116.38l146.15-84.39-13.6-7.76-146.16 84.38 13.61 7.77z"/>
            <path class="cls-6" d="M126.04 116.38l146.15-84.39 27.31 175.79-146.16 84.38-27.3-175.78z"/>
            <path class="cls-7" d="M112.43 108.61l13.61 7.77 27.3 175.78v168.77l-40.91-23.7V108.61z"/>
            <path class="cls-8" d="M279.36 197.66l-109.9 63.46-21.91-141.03 97.64-56.4 34.17 133.97z"/>
            <path class="cls-9" d="M168.52 255.09l103.98-60.04-2.19-12.69-103.79 60.09 2 12.64z"/>
            <path class="cls-10" d="M245.19 63.69l-5.67 3.27 32.68 128.07-103.71 59.88.97 6.21 109.9-63.46-34.17-133.97z"/>
            <path class="cls-11" d="M279.36 197.66l-21.9-141.03-12.27 7.06 34.17 133.97z"/>
            <path class="cls-12" d="M104.67 441.52v15.02l47.7 27.82v-15.02l-47.7-27.82z"/>
            <path class="cls-13" d="M229.09 116.38l3.8 14.68-64.28 37.11-3.76-14.55 64.24-37.24zM235.09 139.79l3.8 14.68-64.28 37.12-3.75-14.56 64.23-37.24zM241.1 163.2l3.8 14.69L180.61 215l-3.75-14.55 64.24-37.25z"/>
            <path class="cls-14" d="M281.02 250.32v-13.85l-40.48 23.43v13.84l40.48-23.42z"/>
            <path class="cls-15" d="M269.24 254.39v-7.79l-16.92 9.79v7.79l16.92-9.79z"/>
            <path d="M245.24 262.68l31.07-17.98v3.12l-31.07 17.97v-3.11z"/>
            <path class="cls-13" d="M200.42 293.58v-4.84a7.49 7.49 0 0 0-11.22-6.49l-13.6 7.82a16.52 16.52 0 0 0-8.29 14.32v8.23z"/>
            <path class="cls-8" d="M172.41 298.5l22.92-13.2v1.76l-22.92 13.19v-1.75zM172.41 302.64l22.92-13.19v1.75l-22.92 13.2v-1.76z"/>
            <path class="cls-2" d="M252.13 293.92l-36.86 22.87c-8.86 5.18-10.15 11.78-10.19 22.14l-.21 58.56c0 8.22 4.92 11.62 11.95 7.51L251 384c8.86-5.18 12.42-9.94 12.45-20.3l.21-62.33c.02-8.21-4.51-11.56-11.53-7.45z"/>
            <path class="cls-8" d="M229.89 382.1l-8.47-45.89-.23.14q.46 5 .52 10l.49 40.31-7.3 4.34-.73-59.47 12-7.16L233.8 367l.23-.14 6.51-51 11.85-7.05.73 59.47-7.12 4.26-.49-39.91q-.06-4.89.4-11.06l-.31.19-7.26 55.34z"/>
            <path class="cls-16" d="M405.94 488.31l77.93-44.39c8.5-3.88 20.66-7 29.31-2.47 7.89 4.1 20.88 12.5 26.62 15.78 4.36 2.49 19.51 11.56 10.08 16.69-27.75 15.08-55.21 32.08-83.39 47.4-5.33 2.9-13.13 3.95-21.31 3.27a56.43 56.43 0 0 1-23.08-6.87l-13.82-8c-6.11-3.56-9.35-7.77-9.68-11.66s2.13-7.37 7.34-9.75z"/>
            <g class="cls-17">
                <path class="cls-15" d="M634.15 606.7c8.43 4.87 8.47 12.75.1 17.61s-22 4.87-30.41 0-8.46-12.75-.09-17.61 21.98-4.87 30.4 0z"/>
                <g class="cls-17 cls-18 cls-17">
                    <path class="cls-19" d="M640.5 615.56v2.63-2.45-.19"/>
                    <path class="cls-20" d="M640.5 615.75v2.45a7.35 7.35 0 0 1-.14 1.23V617a7.35 7.35 0 0 0 .14-1.23"/>
                    <path class="cls-21" d="M640.36 617v2.45a7.81 7.81 0 0 1-.35 1.21v-2.45a7.81 7.81 0 0 0 .35-1.21"/>
                    <path class="cls-22" d="M640 618.19v2.45a8.7 8.7 0 0 1-.57 1.22v-2.45a8.7 8.7 0 0 0 .57-1.22"/>
                    <path class="cls-23" d="M639.44 619.42v2.45a10.13 10.13 0 0 1-.87 1.28v-2.45a10.13 10.13 0 0 0 .87-1.28"/>
                    <path class="cls-24" d="M638.57 620.7v2.45a12.39 12.39 0 0 1-1.33 1.43v-2.45a12.39 12.39 0 0 0 1.33-1.43"/>
                    <path class="cls-25" d="M637.24 622.14v2.45a16.68 16.68 0 0 1-2.73 2v-2.45a16.68 16.68 0 0 0 2.73-2"/>
                    <path class="cls-26" d="M634.51 624.15v2.45l-.26.16a24.3 24.3 0 0 1-4.71 2.07v-2.45a24.3 24.3 0 0 0 4.71-2.07l.26-.16"/>
                    <path class="cls-25" d="M629.54 626.38v2.45a31.14 31.14 0 0 1-4.07 1v-2.45a31.14 31.14 0 0 0 4.07-1"/>
                    <path class="cls-24" d="M625.47 627.39v2.45c-.9.16-1.82.29-2.74.38v-2.45c.93-.09 1.84-.22 2.74-.38"/>
                    <path class="cls-23" d="M622.72 627.78v2.45q-1.18.12-2.38.16v-2.45q1.2 0 2.38-.16"/>
                    <path class="cls-22" d="M620.34 627.94v2.45h-2.2v-2.45h2.2"/>
                    <path class="cls-21" d="M618.14 627.95v2.45q-1.06 0-2.12-.11v-2.45q1.05.09 2.12.11"/>
                    <path class="cls-20" d="M616 627.83v2.45q-1.05-.09-2.09-.23v-2.45q1 .15 2.09.23"/>
                    <path class="cls-19" d="M613.93 627.6v2.4q-1.08-.15-2.13-.37v-2.45q1.05.22 2.13.37"/>
                    <path class="cls-27" d="M611.8 627.23v2.45q-1.14-.24-2.24-.55v-2.45q1.1.31 2.24.55"/>
                    <path class="cls-28" d="M609.56 626.68v2.45c-.9-.26-1.77-.55-2.61-.88v-2.45c.84.33 1.71.63 2.61.88"/>
                    <path class="cls-29" d="M606.94 625.8v2.45a23.37 23.37 0 0 1-3.1-1.49c-4.24-2.45-6.35-5.66-6.34-8.86v-2.45c0 3.21 2.11 6.42 6.34 8.86a23.37 23.37 0 0 0 3.1 1.49"/>
                </g>
            </g>
            <g class="cls-17">
                <g class="cls-17 cls-30 cls-17">
                    <path class="cls-31" d="M624.31 388.93l-.64 226.62.64-226.55"/>
                    <path class="cls-32" d="M624.31 389l-.64 226.62a1.71 1.71 0 0 1 0 .29l.64-226.62a1.71 1.71 0 0 0 0-.29"/>
                    <path class="cls-33" d="M624.28 389.26l-.64 226.62a1.82 1.82 0 0 1-.08.28l.64-226.62a1.82 1.82 0 0 0 .08-.28"/>
                    <path class="cls-34" d="M624.2 389.54l-.64 226.62a2 2 0 0 1-.13.28l.64-226.62a2 2 0 0 0 .13-.28"/>
                    <path class="cls-27" d="M624.07 389.83l-.64 226.62a2.36 2.36 0 0 1-.2.3l.64-226.62a2.36 2.36 0 0 0 .2-.3"/>
                    <path class="cls-19" d="M623.86 390.13l-.64 226.62a2.88 2.88 0 0 1-.31.33l.64-226.62a2.88 2.88 0 0 0 .31-.33"/>
                    <path class="cls-35" d="M623.55 390.46l-.64 226.62a3.88 3.88 0 0 1-.63.47l.64-226.62a3.88 3.88 0 0 0 .63-.47"/>
                    <path class="cls-36" d="M622.92 390.93l-.64 226.62h-.06a5.63 5.63 0 0 1-1.09.48l.64-226.62a5.63 5.63 0 0 0 1.09-.48h.06"/>
                    <path class="cls-35" d="M621.77 391.45l-.64 226.62a7.23 7.23 0 0 1-.95.24l.64-226.62a7.23 7.23 0 0 0 .95-.24"/>
                    <path class="cls-19" d="M620.82 391.68l-.64 226.62-.64.09.64-226.62.64-.09"/>
                    <path class="cls-27" d="M620.19 391.77l-.64 226.62h-.56l.64-226.62h.56"/>
                    <path class="cls-34" d="M619.63 391.81L619 618.42h-.51l.64-226.62h.51"/>
                    <path class="cls-33" d="M619.12 391.81l-.64 226.62h-.49l.64-226.62h.49"/>
                    <path class="cls-32" d="M618.63 391.78L618 618.4l-.49-.05.64-226.62.49.05"/>
                    <path class="cls-31" d="M618.14 391.73l-.64 226.62-.5-.09.64-226.62.5.09"/>
                    <path class="cls-37" d="M617.64 391.64L617 618.26l-.52-.13.64-226.62.52.13"/>
                    <path class="cls-38" d="M617.12 391.51l-.64 226.62c-.21-.06-.41-.13-.61-.21l.64-226.62c.2.08.4.15.61.21"/>
                    <path class="cls-39" d="M616.51 391.31l-.64 226.62a5.44 5.44 0 0 1-.72-.35 2.5 2.5 0 0 1-1.47-2.06l.64-226.62a2.5 2.5 0 0 0 1.47 2.06 5.44 5.44 0 0 0 .72.35"/>
                </g>
                <path class="cls-40" d="M622.84 386.87c2 1.13 2 3 0 4.1a7.8 7.8 0 0 1-7.07 0c-2-1.13-2-3 0-4.09a7.8 7.8 0 0 1 7.07-.01z"/>
            </g>
            <path class="cls-41" d="M511.67 450c-12-9.33-85.19 31.88-87.78 40.19s3.44 15.8 12 19.7c.83.47 3.58-.44 4.62-.8 15.56-5.33 62.25-32 74.35-42.91 5.14-4.59.65-12.12-3.19-16.18z"/>
            <path class="cls-42" d="M511.87 466.63a15.63 15.63 0 0 1-3.11-7.22c-.3-2.23 0-4.79 1.93-5.91l-17.76 10.2a4.74 4.74 0 0 0-2 3.65 13.52 13.52 0 0 0 1 6.12 9.5 9.5 0 0 0 2.3 3.4 165.75 165.75 0 0 0 17.64-10.24z"/>
            <path class="cls-42" d="M494.24 476.87l-.95 1.18 17.62-10.24.96-1.18-17.63 10.24z"/>
            <path class="cls-43" d="M508.09 462.31a9.92 9.92 0 0 1 4.54 7.81c0 2.86-2.07 4-4.57 2.59a9.93 9.93 0 0 1-4.54-7.81c0-2.9 2.05-4.03 4.57-2.59z"/>
            <path class="cls-44" d="M503.88 457.1l6-3.51c2.68-1.56 6.06.52 8.17 2.54a17.46 17.46 0 0 1 3.66 5.13 15.22 15.22 0 0 1 1.62 6.47 6.86 6.86 0 0 1-1 3.74 4 4 0 0 1-1.35 1.3l-6 3.51c1.12-2.22.66-9.28-1.26-12.64-1.55-2.85-7.51-6.64-9.84-6.54z"/>
            <path class="cls-45" d="M507.29 462.17h-.11a3.53 3.53 0 0 0-.67-.15h-.26a2.55 2.55 0 0 0-.46 0h-.18a2.15 2.15 0 0 0-.56.2H505a2.13 2.13 0 0 0-.45.36l-.06.06a2.48 2.48 0 0 0-.35.54l-.05.11a3.52 3.52 0 0 0-.22.68v.14a4.71 4.71 0 0 0-.08.87 6.61 6.61 0 0 0 .07.92v.28c0 .09.1.45.16.67s.06.25.1.37.12.32.18.49.17.44.27.66.21.44.33.65l.15.27c.18.31.38.61.59.9l.07.09c.19.25.39.48.59.71l.22.23c.17.18.35.34.54.5l.22.19a6.83 6.83 0 0 0 .79.55 4.84 4.84 0 0 0 .88.4c.1 0 .19 0 .29.06a3.61 3.61 0 0 0 .53.11 2.49 2.49 0 0 0 .67 0l.19-.05a2 2 0 0 0 .39-.14 2.23 2.23 0 0 0 .36-.23 2.07 2.07 0 0 0 .24-.19 2.12 2.12 0 0 0 .16-.2 2.46 2.46 0 0 0 .24-.37l.09-.19a3.31 3.31 0 0 0 .21-.65 4.85 4.85 0 0 0 .09-.94 6.5 6.5 0 0 0-.08-1v-.16a8.49 8.49 0 0 0-.22-.94v-.14a9.38 9.38 0 0 0-.36-1v-.08c-.13-.3-.28-.59-.44-.88l-.09-.16q-.26-.44-.56-.85c-.1-.13-.2-.25-.3-.38s-.26-.33-.4-.48-.37-.37-.56-.54-.19-.19-.28-.27a6.82 6.82 0 0 0-.91-.64 5.18 5.18 0 0 0-.8-.37zm-5.7 0c0-.33 0-.64.05-.94a.84.84 0 0 0 0-.09v-.23c0-.08.06-.38.1-.57s0-.09 0-.13 0-.13.06-.19.09-.31.14-.46v-.16l.07-.14c.06-.14.12-.27.19-.4s0-.12.08-.17l.06-.09a4.22 4.22 0 0 1 .25-.36c0-.05.07-.11.11-.16v-.05a3.91 3.91 0 0 1 .37-.37l.1-.1a3.72 3.72 0 0 1 .57-.39h.12a3.63 3.63 0 0 1 .53-.22h.22a4.2 4.2 0 0 1 .7-.12h.1a5.23 5.23 0 0 1 1 .06h.25l.5.12.31.09c.19.06.39.14.59.22l.21.08c.28.13.57.27.86.44s.57.35.84.54l.27.21.55.42.31.27.47.43.32.32.43.45.13.13.09.12q.58.65 1.1 1.37l.06.07.12.19q.29.43.57.87l.12.19.06.12c.18.3.34.6.5.91l.07.13q.26.52.49 1v.05l.11.28c.1.24.19.47.28.71v.11c0 .1.06.21.1.31s.13.41.19.61v.15c0 .1 0 .19.07.29s.1.39.14.58v.45c0 .09.07.38.09.57s0 .15 0 .23v2.2a7.89 7.89 0 0 1-.1.79v.12a6.4 6.4 0 0 1-.24.88v.08l-.06.13a5.41 5.41 0 0 1-.33.71l-.06.12a4.22 4.22 0 0 1-.62.78l-.06.07-.11.09-.3.24-.23.16a3.3 3.3 0 0 1-.34.18l-.16.09h-.06a4 4 0 0 1-.85.23h-.19a4.91 4.91 0 0 1-.94 0l-.42-.06h-.31l-.45-.13-.31-.09c-.17-.06-.34-.13-.52-.21l-.27-.11a7.82 7.82 0 0 1-.81-.42 11.77 11.77 0 0 1-1.08-.72l-.26-.19c-.35-.27-.69-.55-1-.86l-.05-.06c-.31-.3-.62-.62-.92-.95l-.22-.25c-.3-.35-.6-.72-.88-1.1l-.05-.08c-.28-.4-.55-.8-.81-1.22l-.15-.24q-.38-.65-.72-1.33l-.06-.11-.12-.28-.26-.58-.18-.44c-.08-.19-.15-.39-.22-.58s-.06-.16-.09-.24v-.14c-.16-.49-.29-1-.4-1.47v-.08-.19c-.07-.35-.13-.69-.17-1v-.2-.11c0-.38-.06-.75-.06-1.11z"/>
            <path class="cls-43" d="M498.14 468.15a9.93 9.93 0 0 1 4.54 7.81c0 2.86-2.07 4-4.57 2.59a9.93 9.93 0 0 1-4.54-7.81c0-2.88 2.05-4.04 4.57-2.59z"/>
            <path class="cls-44" d="M493.93 462.94l6-3.51c2.68-1.56 6.06.52 8.17 2.54a17.45 17.45 0 0 1 3.66 5.13 15.23 15.23 0 0 1 1.62 6.47 6.86 6.86 0 0 1-1 3.74 4 4 0 0 1-1.35 1.3l-6 3.51c1.12-2.22.66-9.28-1.26-12.64-1.55-2.85-7.5-6.61-9.84-6.54z"/>
            <path class="cls-45" d="M497.34 468h-.11a3.58 3.58 0 0 0-.67-.15h-.26a2.55 2.55 0 0 0-.46 0h-.18a2.15 2.15 0 0 0-.56.2h-.05a2.11 2.11 0 0 0-.45.36l-.06.06a2.46 2.46 0 0 0-.35.54l-.05.11a3.5 3.5 0 0 0-.22.68v.14a4.71 4.71 0 0 0-.08.87 6.61 6.61 0 0 0 .07.92v.28c0 .09.1.45.16.67s.06.25.1.37.12.32.18.49.17.44.27.66.21.43.33.65l.15.27c.18.31.38.61.59.9l.07.09c.19.25.38.48.59.71l.22.22c.17.18.35.34.53.5l.22.19a6.83 6.83 0 0 0 .79.55 4.88 4.88 0 0 0 .88.4c.1 0 .19 0 .29.06a3.61 3.61 0 0 0 .53.11 2.49 2.49 0 0 0 .67 0l.19-.05a2.12 2.12 0 0 0 .38-.14 2.24 2.24 0 0 0 .36-.23 2.12 2.12 0 0 0 .24-.19 2.38 2.38 0 0 0 .16-.2 2.49 2.49 0 0 0 .24-.37l.09-.19a3.29 3.29 0 0 0 .21-.65 4.83 4.83 0 0 0 .09-.94 6.5 6.5 0 0 0-.08-1v-.16a8.47 8.47 0 0 0-.22-.94v-.15a9.24 9.24 0 0 0-.36-1v-.08c-.13-.3-.28-.59-.44-.88l-.09-.16c-.17-.29-.36-.58-.56-.85s-.2-.25-.3-.38-.26-.33-.4-.48a7.72 7.72 0 0 0-.56-.54c-.09-.09-.19-.19-.28-.27a6.81 6.81 0 0 0-.91-.64 5.09 5.09 0 0 0-.8-.37zm-5.7 0c0-.33 0-.64.05-.94a.68.68 0 0 0 0-.09v-.23c0-.08.06-.38.1-.57s0-.09 0-.13 0-.13.06-.19.09-.31.14-.46v-.16l.07-.14c.06-.14.12-.27.19-.4s0-.12.08-.17l.06-.09a4.33 4.33 0 0 1 .25-.36c0-.05.07-.11.11-.16v-.05a3.91 3.91 0 0 1 .37-.37l.1-.1a3.8 3.8 0 0 1 .57-.39h.12a3.77 3.77 0 0 1 .53-.22h.22a4.13 4.13 0 0 1 .7-.12h.1a5.24 5.24 0 0 1 1 .06h.25l.5.12.31.09c.19.06.39.14.59.22l.21.08c.28.13.57.27.86.44s.57.35.84.54l.27.21.54.42.31.27.48.43.32.32.43.45.13.13.09.12q.58.65 1.1 1.37l.06.07.12.19q.29.43.57.87l.12.19.06.12c.18.3.34.6.5.91l.07.13q.26.52.49 1l.11.28c.1.24.19.47.28.71v.11c0 .1.06.21.1.31s.13.41.19.61v.15c0 .1 0 .19.07.29s.1.39.14.58v.45c0 .09.07.38.09.57s0 .15 0 .23v2.2a7.91 7.91 0 0 1-.1.8v.12a6.4 6.4 0 0 1-.24.88v.08l-.06.13a5.37 5.37 0 0 1-.33.7l-.06.12a4.23 4.23 0 0 1-.62.78l-.06.07-.11.09-.3.24-.23.16a3.3 3.3 0 0 1-.34.18l-.16.09h-.06a3.92 3.92 0 0 1-.85.23h-.19a4.86 4.86 0 0 1-.94 0l-.42-.06h-.31l-.45-.13-.31-.09c-.17-.06-.34-.13-.52-.21l-.27-.11a7.82 7.82 0 0 1-.81-.42 11.64 11.64 0 0 1-1.08-.72l-.26-.19c-.35-.27-.69-.55-1-.86l-.05-.05c-.31-.3-.62-.62-.92-.95l-.22-.25c-.3-.35-.6-.72-.88-1.09l-.05-.08c-.28-.39-.55-.8-.81-1.22l-.15-.24q-.38-.65-.72-1.33l-.06-.11-.12-.28-.26-.58-.18-.44c-.08-.19-.15-.39-.22-.58s-.06-.16-.09-.24v-.14c-.16-.49-.29-1-.4-1.47v-.08-.19c-.07-.35-.13-.7-.17-1v-.2-.11c0-.38-.06-.75-.06-1.12z"/>
            <path class="cls-46" d="M498 462.18l17.63-10.25c-1.85-1.06-4.25-1.75-6.23-.61l-17.6 10.26c1.66-.58 4.39-.08 6.2.6z"/>
            <path class="cls-45" d="M504.67 469.53l17.63-10.24a19.88 19.88 0 0 0-4.73-6h-.06a13 13 0 0 0-1.84-1.3L498 462.18a28.21 28.21 0 0 1 6.67 7.35z"/>
            <path class="cls-43" d="M498 462.18c-4.83-2.79-8.78-.54-8.8 5a18.77 18.77 0 0 0 4 10.85l.49-.6.47-.58a15 15 0 0 1-3.22-8.65c0-4.43 3.15-6.22 7-4a14.54 14.54 0 0 1 5.29 5.85l1.35-.55a18.31 18.31 0 0 0-6.58-7.32z"/>
            <path class="cls-42" d="M454.27 500.09a15.62 15.62 0 0 1-3.11-7.22c-.3-2.23 0-4.79 1.93-5.91l-17.76 10.2a4.74 4.74 0 0 0-2 3.65 13.52 13.52 0 0 0 1 6.12 9.49 9.49 0 0 0 2.3 3.4 165.92 165.92 0 0 0 17.64-10.24z"/>
            <path class="cls-42" d="M436.63 510.33l-.95 1.17 17.63-10.24.95-1.18-17.63 10.25z"/>
            <path class="cls-43" d="M450.48 495.77a9.93 9.93 0 0 1 4.54 7.81c0 2.86-2.07 4-4.57 2.59a9.93 9.93 0 0 1-4.54-7.81c0-2.88 2.09-4.03 4.57-2.59z"/>
            <path class="cls-44" d="M446.28 490.56l6-3.51c2.68-1.56 6.06.52 8.17 2.54a17.46 17.46 0 0 1 3.66 5.13 15.22 15.22 0 0 1 1.62 6.47 6.86 6.86 0 0 1-1 3.74 4 4 0 0 1-1.35 1.3l-6 3.51c1.12-2.22.66-9.28-1.26-12.64-1.55-2.85-7.51-6.61-9.84-6.54z"/>
            <path class="cls-45" d="M449.68 495.63h-.11a3.53 3.53 0 0 0-.67-.15h-.26a2.55 2.55 0 0 0-.46 0H448a2.15 2.15 0 0 0-.56.2h-.05a2.13 2.13 0 0 0-.45.36l-.06.06a2.48 2.48 0 0 0-.35.54l-.05.11a3.53 3.53 0 0 0-.22.68v.14a4.7 4.7 0 0 0-.08.86 6.61 6.61 0 0 0 .07.92v.28c0 .09.1.45.16.67s.06.25.1.37.12.32.18.49.17.44.27.66.21.43.33.65l.15.27c.18.31.38.61.59.9l.07.09c.19.25.38.48.59.71l.22.23c.17.18.35.34.53.5l.22.19a6.94 6.94 0 0 0 .79.55 4.84 4.84 0 0 0 .88.4c.1 0 .19 0 .29.06a3.69 3.69 0 0 0 .53.11 2.49 2.49 0 0 0 .67 0l.19-.05a2.09 2.09 0 0 0 .39-.14 2.22 2.22 0 0 0 .36-.23 2.07 2.07 0 0 0 .24-.19 2.22 2.22 0 0 0 .16-.2 2.46 2.46 0 0 0 .24-.37l.09-.19a3.31 3.31 0 0 0 .21-.65 4.85 4.85 0 0 0 .09-.94 6.5 6.5 0 0 0-.08-1v-.16a8.49 8.49 0 0 0-.22-.94v-.15a9.43 9.43 0 0 0-.36-1v-.08c-.13-.3-.28-.59-.44-.88l-.09-.16q-.26-.44-.56-.85c-.1-.13-.2-.25-.3-.38s-.26-.33-.4-.48-.37-.37-.56-.54-.19-.19-.28-.27a6.82 6.82 0 0 0-.91-.64 5.18 5.18 0 0 0-.8-.37zm-5.7 0c0-.33 0-.64.05-.94a.7.7 0 0 0 0-.09v-.23c0-.08.06-.38.1-.57s0-.09 0-.13 0-.13.06-.19.09-.31.14-.46v-.16l.07-.14c.06-.14.12-.27.19-.4s0-.12.08-.17l.06-.09a4.31 4.31 0 0 1 .25-.36c0-.05.07-.11.11-.16v-.05a3.91 3.91 0 0 1 .37-.37l.1-.1a3.74 3.74 0 0 1 .57-.39h.12a3.7 3.7 0 0 1 .53-.22h.22a4.2 4.2 0 0 1 .7-.12h.1a5.24 5.24 0 0 1 1 .06h.25l.5.12.31.09c.19.06.39.14.59.22l.21.08c.28.13.57.27.86.44s.57.35.84.54l.27.21.54.42.31.27.48.43.32.32.43.45.13.13.09.12q.58.65 1.1 1.37l.06.07.12.19q.29.43.57.87l.12.19.06.12c.18.3.34.6.5.91l.07.13q.26.52.49 1l.11.28c.1.24.19.47.28.71v.11c0 .1.06.21.1.31s.13.41.19.61v.15c0 .1 0 .19.07.29s.1.39.14.58v.45c0 .09.07.38.09.57s0 .15 0 .23v2.2a7.88 7.88 0 0 1-.1.8v.12a6.4 6.4 0 0 1-.24.88v.08l-.06.13a5.41 5.41 0 0 1-.33.71l-.06.12a4.22 4.22 0 0 1-.62.78l-.06.07-.11.09a3.57 3.57 0 0 1-.3.24l-.23.16a3.3 3.3 0 0 1-.34.18l.45.11h-.06a4 4 0 0 1-.85.23h-.19a4.86 4.86 0 0 1-.94 0h-.05l-.41-.06h-.31l-.45-.13-.31-.09c-.17-.06-.34-.13-.52-.21l-.27-.11a7.82 7.82 0 0 1-.81-.42 11.77 11.77 0 0 1-1.08-.72l-.26-.19c-.35-.27-.69-.55-1-.86l-.05-.05c-.31-.3-.62-.62-.92-.95l-.22-.25c-.3-.35-.6-.72-.88-1.1l-.05-.08c-.28-.4-.55-.8-.81-1.22l-.15-.24c-.26-.43-.5-.88-.72-1.33l-.06-.11-.12-.28c-.09-.19-.18-.38-.26-.58l-.18-.44c-.08-.19-.15-.39-.22-.58s-.06-.16-.09-.24v-.14c-.16-.49-.29-1-.4-1.47v-.08-.19c-.07-.35-.13-.69-.17-1v-.2-.11c0-.38-.06-.75-.06-1.11z"/>
            <path class="cls-43" d="M440.53 501.6a9.93 9.93 0 0 1 4.54 7.81c0 2.86-2.07 4-4.57 2.59a9.93 9.93 0 0 1-4.54-7.81c.04-2.87 2.04-4.03 4.57-2.59z"/>
            <path class="cls-44" d="M436.33 496.4l6-3.51c2.68-1.56 6.06.52 8.17 2.54a17.45 17.45 0 0 1 3.66 5.13 15.23 15.23 0 0 1 1.62 6.47 6.86 6.86 0 0 1-1 3.74 4 4 0 0 1-1.35 1.3l-6 3.51c1.12-2.22.66-9.28-1.26-12.64-1.55-2.86-7.51-6.61-9.84-6.54z"/>
            <path class="cls-45" d="M439.73 501.46h-.11a3.61 3.61 0 0 0-.67-.15h-.26a2.55 2.55 0 0 0-.46 0h-.18a2.15 2.15 0 0 0-.56.2h-.05a2.11 2.11 0 0 0-.45.36l-.06.06a2.46 2.46 0 0 0-.35.54l-.05.11a3.5 3.5 0 0 0-.22.68v.14a4.71 4.71 0 0 0-.08.87 6.61 6.61 0 0 0 .07.92v.28c0 .09.1.45.16.67s.06.25.1.37.12.32.18.49.17.44.27.66.21.43.33.65l.15.27c.18.31.38.61.59.9l.07.09c.19.25.38.48.59.71l.22.22c.17.18.35.34.53.5l.22.19a6.78 6.78 0 0 0 .79.55 4.84 4.84 0 0 0 .88.4c.1 0 .19 0 .29.06a3.61 3.61 0 0 0 .53.11 2.49 2.49 0 0 0 .67 0l.19-.05a2.12 2.12 0 0 0 .38-.14 2.24 2.24 0 0 0 .36-.23 2.06 2.06 0 0 0 .24-.19 2.27 2.27 0 0 0 .16-.2 2.54 2.54 0 0 0 .24-.37l.09-.19a3.3 3.3 0 0 0 .21-.65 4.79 4.79 0 0 0 .09-.94 6.5 6.5 0 0 0-.08-1v-.16a8.47 8.47 0 0 0-.22-.94v-.15a9.26 9.26 0 0 0-.36-1v-.08c-.13-.3-.28-.59-.44-.88l-.09-.16c-.17-.29-.36-.58-.56-.85s-.2-.25-.3-.38-.26-.33-.4-.48a7.72 7.72 0 0 0-.56-.54c-.09-.09-.19-.19-.28-.27a6.81 6.81 0 0 0-.91-.64 5.09 5.09 0 0 0-.8-.37zm-5.7 0c0-.33 0-.64.05-.94a.68.68 0 0 0 0-.09v-.23c0-.08.06-.38.1-.57s0-.09 0-.13 0-.13.06-.19.09-.31.14-.46v-.16l.07-.14c.06-.14.12-.27.19-.4s0-.12.08-.17l.06-.09a4.33 4.33 0 0 1 .25-.36c0-.05.07-.11.11-.16v-.05a3.91 3.91 0 0 1 .37-.37l.1-.1a3.76 3.76 0 0 1 .57-.39h.12a3.7 3.7 0 0 1 .53-.22h.22a4.07 4.07 0 0 1 .7-.12h.1a5.28 5.28 0 0 1 1 .06h.25l.5.12.31.09c.19.06.39.14.59.22l.21.08c.28.13.57.27.86.44s.57.35.84.54l.27.21.54.42.31.27.48.43.32.32.43.45.13.13.09.12q.58.65 1.1 1.37l.06.07.12.19q.29.43.57.87l.12.19.06.12c.18.3.34.6.5.91l.07.13q.26.52.49 1l.11.28c.1.24.19.47.28.71v.11c0 .1.06.21.1.31s.13.41.19.61v.15c0 .1 0 .19.07.29s.1.39.14.58v.45c0 .09.07.38.09.57s0 .15 0 .23v2.19a7.91 7.91 0 0 1-.1.8v.12a6.51 6.51 0 0 1-.24.88v.08l-.06.13a5.35 5.35 0 0 1-.33.7l-.06.12a4.22 4.22 0 0 1-.62.78l-.06.07-.11.09-.3.24-.23.16a3.3 3.3 0 0 1-.34.18l-.16.09h-.06a3.92 3.92 0 0 1-.85.23h-.19a4.86 4.86 0 0 1-.94 0h.6l-.41-.06h-.31l-.45-.13-.31-.09c-.17-.06-.34-.13-.52-.21l-.27-.11a7.82 7.82 0 0 1-.81-.42 11.53 11.53 0 0 1-1.08-.72l-.26-.19c-.35-.27-.69-.55-1-.86l-.05-.05c-.31-.3-.62-.62-.92-1l-.22-.25c-.3-.35-.6-.72-.88-1.09l-.05-.08c-.28-.39-.55-.8-.81-1.22l-.15-.24c-.26-.43-.5-.88-.72-1.33l-.06-.11-.12-.28-.26-.58-.18-.44c-.08-.19-.15-.39-.22-.58l-.09-.24v-.14c-.16-.49-.29-1-.4-1.47v-.08-.19c-.07-.35-.13-.7-.17-1v-.2-.11c0-.38-.06-.75-.06-1.12z"/>
            <path class="cls-46" d="M440.43 495.64l17.63-10.25c-1.85-1.06-4.25-1.75-6.23-.61L434.19 495c1.67-.57 4.4 0 6.24.64z"/>
            <path class="cls-45" d="M447.06 503l17.63-10.24a19.87 19.87 0 0 0-4.73-6h-.06a13 13 0 0 0-1.84-1.3l-17.63 10.25a28.2 28.2 0 0 1 6.63 7.29z"/>
            <path class="cls-43" d="M440.43 495.64c-4.83-2.79-8.78-.54-8.8 5a18.77 18.77 0 0 0 4 10.85l.49-.6.47-.58a15 15 0 0 1-3.22-8.65c0-4.43 3.15-6.22 7-4a14.54 14.54 0 0 1 5.29 5.85l1.35-.55a18.31 18.31 0 0 0-6.58-7.32z"/>
            <path class="cls-47" d="M527.3 449.36a6.65 6.65 0 0 0 .63-2.55q.14-53.48.3-107a4.66 4.66 0 0 0 0-.95 16.86 16.86 0 0 0-.7-3.79 22 22 0 0 0-4.88-8.42c-3.35-3.52-10.6-7-14.57-9.26l-.09-.05a12.56 12.56 0 0 0-1.93-.85 8.62 8.62 0 0 0-1.78-.41c-8.19-1-27.14 9.28-35.23 13.68-10.2 5.63-20.69 11.69-30.3 18.16a138.32 138.32 0 0 0-14.4 10.85 26.8 26.8 0 0 0-4.76 5.29c-.44.7-1.41 2.33-1.33 6l-.34 118.55c0 9.65 8.74 16.93 16.16 20.37a17.54 17.54 0 0 1-2.4-8.34c0-2.78 1-4.73 2.59-5.63 4.78-2.72 6.36-3.8 12.19-.71.18.1 4.12 2.78 12-.41 7.44-1.84 17.59-6.17 28.29-12.4l9-5.24q3.34-1.94 6.46-4c7.01-4.51 21.6-14.89 25.09-22.89z"/>
            <path class="cls-48" d="M526.06 342.63l-.31 109.44a16.51 16.51 0 0 0 1.55-2.71l.3-108.36a15.2 15.2 0 0 1-1.54 1.63zM528.09 362.81zm.14-23V446.8a6.65 6.65 0 0 1-.63 2.55V341a2.63 2.63 0 0 0 .63-1.15zM446.81 386.58l-.3 106.16a3.07 3.07 0 0 0 1.75 1.62l.31-107.77a3.18 3.18 0 0 1-1.76-.01z"/>
            <path class="cls-48" d="M448.57 386.59l-.31 107.77a7.41 7.41 0 0 0 2.29.49l.31-108.85a19.29 19.29 0 0 1-2.29.59z"/>
            <path class="cls-47" d="M446.51 491.1c.08-30.18.19-67.35.3-104.52 0-5.61-3.94-12.46-8.83-15.28l-10.9-6.3c-4.88-2.82-8.86-.55-8.88 5.06l-.34 118.55c0 9.65 8.74 16.93 16.16 20.37a17.54 17.54 0 0 1-2.4-8.34c0-2.78 1-4.74 2.61-5.64l3-1.62c2.39-1.3 5.71-.93 9.19.92.19.1 4.15 2.8 12-.44-7.78 2.28-11.91-.22-11.91-2.76z"/>
            <path class="cls-49" d="M528.2 338.9a16.86 16.86 0 0 0-.7-3.79 22 22 0 0 0-4.88-8.42 40.69 40.69 0 0 0-7.32-5.32c-2.31-1.34-4.94-2.61-7.25-3.94-.37-.27-1.3-.06-1.72 0-13.71 2.7-63.87 32.29-76.89 44.53l-.76.73c-.38.4-1.55 1.57-1.55 2.27L438 371.3c5 2.91 8.85 9.88 8.83 15.28.83.47 3.58-.44 4.62-.8 15.56-5.33 62.25-32 74.35-42.91a16.48 16.48 0 0 0 1.89-1.9 3.74 3.74 0 0 0 .44-.74 1.21 1.21 0 0 0 .11-.36 4.42 4.42 0 0 0-.04-.97z"/>
            <path class="cls-48" d="M506 316.53a8.62 8.62 0 0 0-1.78-.41c-8.19-1-27.14 9.28-35.23 13.68-10.2 5.63-20.69 11.69-30.3 18.16a138.35 138.35 0 0 0-14.4 10.85 26.86 26.86 0 0 0-4.76 5.29c-.44.7-1.41 2.33-1.33 6 0-5.55 4-7.88 8.88-5.06 0-.61 1-1.71 1.39-2.09 3.6-3.73 13.87-11 26.76-18.84 5.6-3.42 11.3-6.68 17-10a285.44 285.44 0 0 1 26.83-14s7.72-3.28 9-2.63a12.4 12.4 0 0 0-2.06-.95z"/>
            <path class="cls-50" d="M484.62 324.66l-38.3 22.42 4.61 2.71 39.42-22.8-5.73-2.33z"/>
            <path class="cls-51" d="M484.62 324.66l-2.39 1.45-3.16 7.38 11.28-6.5-5.73-2.33z"/>
            <path class="cls-52" d="M482.49 295.85v.76l.42 34.65 3.23-1.86.39-2.55-.2-29c0-5.9-2.87-6.46-7.45-6 2.76.37 3.5 2.07 3.61 4z"/>
            <path class="cls-53" d="M480.6 286.09a9.42 9.42 0 0 0-6.37 1.46l1.64 1.35 1.7.59c1.85-1.07 6.63-.77 8.78-.39a12.89 12.89 0 0 0-5.75-3.01z"/>
            <path class="cls-52" d="M451.21 317.73l-3.84-1.43.2 31.51-.01.01 3.34 1.94.42-2.38-.11-29.65z"/>
            <path class="cls-53" d="M455.84 305a23.4 23.4 0 0 1 6.6-6.53l-1.12-1.13-2.51-.94c-6.33 3.66-11.46 12.56-11.44 19.84l3.33 1.94a33.44 33.44 0 0 1 5.14-13.18z"/>
            <path class="cls-54" d="M458.81 296.45l3.34 1.94 6.59-3.41 8.82-5.48-3.34-1.95-15.4 8.89-.01.01z"/>
            <path class="cls-55" d="M489.1 296.07c0-7.28-5.19-10.23-11.53-6.57l-15.41 8.9c-6.34 3.6-11.48 12.6-11.46 19.83l.2 31.53L454 348l-.2-31.53c0-5.29 3.72-11.77 8.33-14.43l15.41-8.9c4.61-2.66 8.38-.52 8.39 4.77l.2 31.53 3.13-1.81z"/>
            <g class="cls-17">
                <path class="cls-56" d="M1017.7 624.57l-.05 14.67-396.56-228.95.04-14.68 396.57 228.96z"/>
                <path class="cls-57" d="M1017.7 624.57l.7-.41-.04 14.67-.71.41.05-14.67z"/>
                <path class="cls-58" d="M621.13 395.61l.71-.41 396.56 228.96-.7.41-396.57-228.96z"/>
            </g>
            <g class="cls-17">
                <path class="cls-15" d="M1035.15 836.69c8.42 4.86 8.47 12.75.1 17.61s-22 4.86-30.41 0-8.47-12.75-.1-17.61 21.99-4.86 30.41 0z"/>
                <g class="cls-17 cls-59 cls-17">
                    <path class="cls-19" d="M1041.5 845.56v2.63-2.45-.19"/>
                    <path class="cls-20" d="M1041.49 845.75v2.45a7.36 7.36 0 0 1-.14 1.23V847a7.36 7.36 0 0 0 .14-1.23"/>
                    <path class="cls-21" d="M1041.35 847v2.45a7.82 7.82 0 0 1-.35 1.21v-2.45a7.82 7.82 0 0 0 .35-1.21"/>
                    <path class="cls-22" d="M1041 848.19v2.45a8.71 8.71 0 0 1-.57 1.22v-2.45a8.71 8.71 0 0 0 .57-1.22"/>
                    <path class="cls-23" d="M1040.43 849.42v2.45a10.13 10.13 0 0 1-.87 1.28v-2.45a10.13 10.13 0 0 0 .87-1.28"/>
                    <path class="cls-24" d="M1039.57 850.7v2.45a12.39 12.39 0 0 1-1.33 1.43v-2.45a12.39 12.39 0 0 0 1.33-1.43"/>
                    <path class="cls-25" d="M1038.23 852.14v2.45a16.65 16.65 0 0 1-2.72 2v-2.45a16.65 16.65 0 0 0 2.72-2"/>
                    <path class="cls-26" d="M1035.51 854.15v2.45l-.26.15a24.31 24.31 0 0 1-4.71 2.07v-2.45a24.31 24.31 0 0 0 4.71-2.07l.26-.15"/>
                    <path class="cls-25" d="M1030.54 856.38v2.45a31.13 31.13 0 0 1-4.07 1v-2.45a31.13 31.13 0 0 0 4.07-1"/>
                    <path class="cls-24" d="M1026.47 857.39v2.45c-.9.16-1.82.29-2.74.38v-2.45c.92-.09 1.84-.22 2.74-.38"/>
                    <path class="cls-23" d="M1023.73 857.77v2.45q-1.18.12-2.38.16v-2.45q1.2 0 2.38-.16"/>
                    <path class="cls-22" d="M1021.34 857.93v2.45h-2.2v-2.45h2.2"/>
                    <path class="cls-21" d="M1019.14 857.94v2.45q-1.06 0-2.12-.11v-2.45q1.05.09 2.12.11"/>
                    <path class="cls-20" d="M1017 857.83v2.45q-1.05-.09-2.09-.23v-2.45q1 .15 2.09.23"/>
                    <path class="cls-19" d="M1014.93 857.6v2.4q-1.08-.15-2.13-.37v-2.45q1.05.22 2.13.37"/>
                    <path class="cls-27" d="M1012.8 857.22v2.45q-1.14-.24-2.24-.55v-2.45q1.1.31 2.24.55"/>
                    <path class="cls-28" d="M1010.56 856.67v2.45c-.9-.26-1.77-.55-2.61-.88v-2.45c.84.33 1.71.63 2.61.88"/>
                    <path class="cls-29" d="M1007.95 855.79v2.45a23.36 23.36 0 0 1-3.1-1.49c-4.24-2.45-6.36-5.66-6.35-8.87v-2.45c0 3.21 2.11 6.42 6.35 8.87a23.36 23.36 0 0 0 3.1 1.49"/>
                </g>
            </g>
            <g class="cls-17">
                <g class="cls-17 cls-60 cls-17">
                    <path class="cls-31" d="M1025.32 618.94l-.64 226.62.64-226.62"/>
                    <path class="cls-32" d="M1025.32 619l-.64 226.62a1.71 1.71 0 0 1 0 .29l.64-226.62a1.71 1.71 0 0 0 0-.29"/>
                    <path class="cls-33" d="M1025.29 619.27l-.64 226.62a1.81 1.81 0 0 1-.08.28l.64-226.62a1.81 1.81 0 0 0 .08-.28"/>
                    <path class="cls-34" d="M1025.21 619.55l-.64 226.62a2 2 0 0 1-.13.28l.64-226.62a2 2 0 0 0 .13-.28"/>
                    <path class="cls-27" d="M1025.07 619.83l-.64 226.62a2.35 2.35 0 0 1-.2.3l.64-226.62a2.35 2.35 0 0 0 .2-.3"/>
                    <path class="cls-19" d="M1024.87 620.13l-.64 226.62a2.88 2.88 0 0 1-.31.33l.64-226.62a2.88 2.88 0 0 0 .31-.33"/>
                    <path class="cls-35" d="M1024.56 620.46l-.64 226.62a3.87 3.87 0 0 1-.63.47l.64-226.62a3.87 3.87 0 0 0 .63-.47"/>
                    <path class="cls-36" d="M1023.93 620.93l-.64 226.62h-.06a5.65 5.65 0 0 1-1.1.48l.64-226.62a5.65 5.65 0 0 0 1.1-.48h.06"/>
                    <path class="cls-35" d="M1022.77 621.45l-.64 226.62a7.25 7.25 0 0 1-.95.24l.64-226.62a7.25 7.25 0 0 0 .95-.24"/>
                    <path class="cls-19" d="M1021.83 621.69l-.64 226.62-.64.09.64-226.62.64-.09"/>
                    <path class="cls-27" d="M1021.19 621.78l-.64 226.62h-.56l.64-226.62h.56"/>
                    <path class="cls-34" d="M1020.63 621.81l-.63 226.62h-.51l.64-226.62h.51"/>
                    <path class="cls-33" d="M1020.12 621.81l-.64 226.62h-.49l.64-226.62h.49"/>
                    <path class="cls-32" d="M1019.63 621.79L1019 848.4l-.49-.05.64-226.62.49.05"/>
                    <path class="cls-31" d="M1019.14 621.73l-.64 226.62-.5-.09.64-226.62.5.09"/>
                    <path class="cls-37" d="M1018.64 621.65l-.64 226.61-.52-.13.64-226.62.52.13"/>
                    <path class="cls-38" d="M1018.12 621.52l-.64 226.62c-.21-.06-.41-.13-.61-.21l.64-226.62c.2.08.4.15.61.21"/>
                    <path class="cls-39" d="M1017.51 621.31l-.64 226.62a5.44 5.44 0 0 1-.72-.35 2.5 2.5 0 0 1-1.48-2.06l.64-226.62a2.5 2.5 0 0 0 1.48 2.06 5.44 5.44 0 0 0 .72.35"/>
                </g>
                <path class="cls-40" d="M1023.84 616.87c2 1.13 2 3 0 4.1a7.8 7.8 0 0 1-7.08 0c-2-1.13-2-3 0-4.1a7.79 7.79 0 0 1 7.08 0z"/>
            </g>
            <path d="M526.86 699c-22.07 12.83-26 31.57-8.65 41.63s49.54 7.81 71.61-5 26-31.57 8.65-41.63-49.54-7.8-71.61 5z" class="cls-61"/>
            <path class="cls-62" d="M579.19 698.42c-4.86-4.75-11.43-5.76-13.81-3.39s-.4 8.19 4.4 13c2 2 4.56 4.5 6.56 5.42a5.5 5.5 0 0 0 6.43-1c1.37-1.49 1.19-6.93 1.19-8.38-.65-1.73-2.45-3.38-4.77-5.65z"/>
            <ellipse class="cls-63" cx="576.08" cy="701.73" rx="4.28" ry="8.22" transform="rotate(-48.69 576.162 701.763)"/>
            <path class="cls-62" d="M539.14 721c-4.86-4.75-11.43-5.76-13.81-3.39s-.4 8.19 4.4 13c2 2 4.56 4.5 6.56 5.42a5.5 5.5 0 0 0 6.43-1c1.37-1.49 1.19-6.93 1.19-8.38-.66-1.77-2.46-3.42-4.77-5.65z"/>
            <ellipse class="cls-63" cx="536.02" cy="724.27" rx="4.27" ry="8.22" transform="rotate(-48.69 536.034 724.278)"/>
            <path class="cls-63" d="M577.3 707.12c-5.6-2.45-5.85-5.39-6-6.64 0 0-7-46-10.45-76.4a442.17 442.17 0 0 1-2.42-48.08l-10.68 66.26-4.94 85.52c0 .09-.54 3.58-4.91 2.06-4-1.41-5.92-3.13-6.76-6.41-.56-2.79-12.62-61.35-15.6-86.35-3-25.6-10.49-127.7-6.65-135.72l98.77 3.37-19.35 122.45-5.48 77.59s-.34 2.2-1.79 2.6a6.2 6.2 0 0 1-3.74-.25z"/>
            <path class="cls-25" d="M543.3 628.56a32.66 32.66 0 0 1-12.47.76c-12.8-1.79-26.24-15.69-26.24-15.69v-16.32c0-17.31.07-83.07.07-83.07.44-4.52 1-8.79 1.72-12.83 2.47-12.12 7.09-19.34 17.18-27.38a33.84 33.84 0 0 1 4.41-2.91c12.86-7.25 37.45-12.89 53.43-6.74 21 8.08 21 33 21 32.91v94.41a214.09 214.09 0 0 1-25.76 19.66c-13.48 8.64-30.15 16.35-33.34 17.2z"/>
            <path class="cls-4" d="M612.53 393.14c8.06 17.1 11.7 44.55 13 68.36l-23.36 2.5-22.36-57.64"/>
            <path class="cls-63" d="M607.36 511.82s-.84 8.53-1.42 10.95c-.37 1.54-.6 2.59-.89 3.71-.4 1.55-.5 2.31 0 2.69s1.4.49 2.29-2.65a13.7 13.7 0 0 1-2.89 5.75c-1.68 1.81-4.13 3.64-3.48 4.59s2.45 0 2.45 0 .21 1.55 2.44.33c0 0 .26 1.25 2.52-.33 0 0 .89 1 3-1s9.48-10.07 9.63-25z"/>
            <path class="cls-4" d="M625.53 461c2.33 41.67-4.15 54.46-4.15 54.46l-14.13.38-5.08-51.84"/>
            <circle class="cls-4" cx="613.76" cy="461.72" r="11.77"/>
            <circle class="cls-4" cx="596.66" cy="400.95" r="17.69"/>
            <path class="cls-4" d="M501 416.59c-3.46 24.26-2.15 115.48-2.15 115.48 0 19.47 4.9 34.8 31.6 38.54a44.82 44.82 0 0 0 15-.91c20.64-4.41 45.69-19.31 55.46-28.14 16.37-14.8 15.7-28.78 15.7-41v-89c0 .06 0-29.89-25.3-39.62-19.24-7.41-48.86-.62-64.34 8.12.03.06-22.38 11.25-25.97 36.53z"/>
            <path class="cls-64" d="M502.92 408.45a14.2 14.2 0 0 1 10.42-4.82c15.44 0 14.39 17.5 14.39 17.5v98.17c0 37.76 8.56 48.24 14.14 51.06a40.81 40.81 0 0 1-11.42.26c-26.7-3.74-31.6-19.07-31.6-38.54 0 0-1.31-91.21 2.15-115.48a46.21 46.21 0 0 1 1.92-8.15z"/>
            <path class="cls-4" d="M543.21 417.67l-15 77.61-28.21-5.21s.17-5.92.34-13.42c.73-31.93-2.08-55 3.68-71.63 2.74-7.92 43.54-4.53 39.21 12.68"/>
            <path class="cls-63" d="M509.23 554s-5.59 15.12-5.49 18.23c.08 2.6.68 4.15-.86 4.92-2.06 1-2.88-.52-2.88-.52a2.32 2.32 0 0 1-3.54-1.08s-2 1.34-3-1.91c0 0-2.18 1.8-2.76-4.36-.69-7.29 5-18.57 5.05-18.7z"/>
            <path class="cls-63" d="M502.5 577.32a5 5 0 0 0 2.84-3.22c.82-2.54-.52-4.86-2.91-4.81 0 0-4.61 8.8.07 8.03z"/>
            <path class="cls-4" d="M500 489.72l-6.44 67.87 13.68 6.41s13.86-33.76 21.34-70.13"/>
            <circle class="cls-4" cx="514.4" cy="491.1" r="14.45" transform="rotate(-60.84 514.45 491.117)"/>
            <circle class="cls-4" cx="522.75" cy="413.99" r="20.86" transform="rotate(-89.78 522.774 413.99)"/>
            <path class="cls-63" d="M534.39 351c.15 14.62 9.36 26.38 20.57 26.27s20.19-12.06 20-26.69c-.06-5.72.36-13.41-2.05-17.72-3.75-6.69-11.7-8.62-18.53-8.54-11.17.09-20.14 12.03-19.99 26.68z"/>
            <path class="cls-65" d="M534.39 351c.15 14.62 9.36 26.38 20.57 26.27s20.19-12.06 20-26.69c-.06-5.72.36-13.41-2.05-17.72-3.75-6.69-11.7-8.62-18.53-8.54-11.17.09-20.14 12.03-19.99 26.68z"/>
            <path class="cls-63" d="M542.72 362.18h27.71v11.59c-.06 2-1.42 4-4.08 5.55-5.42 3.13-14.18 3.13-19.57 0-2.6-1.51-3.93-3.47-4-5.46v-.09z"/>
            <path class="cls-66" d="M590.42 345.6c-5.13-7.11-3.79-22.78-10.26-30.77s-18.72-6.1-18.72-6.1c-7.12-4.68-18.5 3.69-28 15-11.68 14 5.55 20 5.55 20s6.45 13.69.08 21.56c0 0-9.31 10.14-5.16 21.48 2.26 6.15 7.41 9.73 9.64 15.87 1.87 5.18.42 15.06-8.72 17 0 0 9.29 9.92 34.79 7.38 13.58-1.35 30.16-9.23 25-27.12-6.83-24.06 13.86-29.26-4.2-54.3z"/>
            <path class="cls-67" d="M320.86 511.81c-22.07 12.83-26 31.57-8.65 41.63s49.54 7.81 71.61-5 26-31.57 8.65-41.63-49.54-7.81-71.61 5z"/>
            <path class="cls-4" d="M406.53 206.46c8.06 17.1 11.7 44.54 13 68.36l-23.39 2.48-22.36-57.64"/>
            <path class="cls-63" d="M401.36 325.15s-.84 8.53-1.42 10.95c-.37 1.54-.6 2.59-.89 3.71-.4 1.55-.5 2.31 0 2.69s1.4.49 2.29-2.65a13.7 13.7 0 0 1-2.89 5.75c-1.68 1.81-4.13 3.64-3.48 4.59s2.45 0 2.45 0 .21 1.55 2.44.33c0 0 .26 1.25 2.52-.33 0 0 .89 1 3-1s9.48-10.07 9.63-25z"/>
            <path class="cls-4" d="M419.53 274.35c2.33 41.67-4.15 54.46-4.15 54.46l-14.13.38-5.07-51.89"/>
            <circle class="cls-4" cx="407.76" cy="275.04" r="11.77"/>
            <circle class="cls-4" cx="390.66" cy="214.28" r="17.69"/>
            <path class="cls-62" d="M331.92 535.37c-4.8-4.8-10.62-6.78-13-4.41s-.4 8.19 4.4 13 10.62 6.78 13 4.42c1.43-1.43 1.32-7.27 1.32-8.71-.8-1.5-3.81-2.39-5.72-4.3z"/>
            <path class="cls-63" d="M331.83 534.85c-3.13-3-6.87-4.15-8.35-2.6s-.14 5.23 3 8.21"/>
            <path class="cls-62" d="M371.71 512.06c-4.8-4.8-10.62-6.78-13-4.41s-.4 8.19 4.4 13 10.62 6.78 13 4.42c1.43-1.43 1.32-7.27 1.32-8.71-.8-1.5-3.81-2.36-5.72-4.3z"/>
            <path class="cls-63" d="M371.62 511.54c-3.13-3-6.87-4.15-8.35-2.6s-.14 5.23 3 8.21"/>
            <path class="cls-25" d="M302.88 314.65l98.78 3.35-19.35 122.51-4.45 75.29c-.08 2.57-2.36 4.65-6.55 4.65s-5.72-2.28-5.81-4.83-7.11-47.77-10.58-78.21a442.18 442.18 0 0 1-2.44-48.13l-10.68 66.26-3.29 82.46v.26c0 2.55-2.48 4.65-7.1 4.64-4.41 0-6.13-2.14-6.28-4.55-.56-2.79-12.62-63-15.6-88-3.04-25.57-10.53-127.68-6.65-135.7z"/>
            <path class="cls-4" d="M295 229.92c-3.46 24.26-2.15 115.48-2.15 115.48 0 19.47 4.9 34.8 31.6 38.54a44.85 44.85 0 0 0 15-.91c20.64-4.41 45.69-19.31 55.46-28.14 16.37-14.8 15.7-28.78 15.7-41v-89c0 .06 0-29.89-25.3-39.62-19.24-7.4-48.86-.62-64.34 8.12.03.05-22.38 11.24-25.97 36.53z"/>
            <path class="cls-67" d="M296.92 221.77a14.21 14.21 0 0 1 10.41-4.77c15.44 0 14.39 17.5 14.39 17.5v98.17c0 37.76 8.56 48.24 14.14 51.06a40.84 40.84 0 0 1-11.42.26c-26.7-3.74-31.6-19.07-31.6-38.54 0 0-1.31-91.21 2.15-115.48a46.2 46.2 0 0 1 1.93-8.2z"/>
            <path class="cls-63" d="M361.14 181.17a31.54 31.54 0 0 0 4.58-17.06c-.06-5.72.36-13.41-2.05-17.72-3.75-6.69-11.7-8.62-18.53-8.55-11.21.12-20.18 12.06-20 26.68.09 8.65 3.35 16.3 8.32 21.08v1.9c.08 2 1.41 2.14 4 3.65 5.39 3.13 14.15 3.13 19.57 0 2.66-1.54 4-3.54 4.08-5.55v-4.44"/>
            <path class="cls-66" d="M345.67 186.43c-11.2-1.21-14-7.19-15.87-16-16.81-15.09-10.41-37.84-9.71-39.51 1.77 2.21 3.46 2.22 3.46 2.22a3.27 3.27 0 0 1-.25-2.24c2.86 4.41 20.73-2.43 27.81-4s8.12 3.09 8.12 3.09 5.15-2.53 9.09 6.05c2.92 6.35 2.54 22.67-.25 30.68-3.07 8.72-6.4 21.43-22.4 19.71z"/>
            <path class="cls-65" d="M329.81 170.42c.8 3.87 1.8 7.19 3.62 9.81v5.38c-4.83-4.64-8-12-8.3-20.34a34.11 34.11 0 0 0 4.68 5.15z"/>
            <path class="cls-5" d="M347.4 190.08c-6 .52-11.54-.8-14.56-2.49 0 0-5.74 2.47-7.16 3.13 0 0 18.64 7.69 31.38 1.6 11.19-5.35 5.68-10.09 5.68-10.09l-1.6-.63v2.78s-1.87 4.62-13.74 5.7z"/>
            <path class="cls-4" d="M337.21 231l-15 77.61-28.21-5.22s.17-5.91.34-13.42c.73-31.93-2.08-55 3.68-71.63 2.74-7.92 43.54-4.53 39.21 12.68"/>
            <path class="cls-63" d="M303.23 367.32s-5.59 15.12-5.49 18.23c.08 2.6.68 4.15-.86 4.92-2.06 1-2.88-.52-2.88-.52a2.32 2.32 0 0 1-3.54-1.08s-2 1.34-3-1.91c0 0-2.18 1.8-2.76-4.36-.69-7.29 5-18.57 5.05-18.7z"/>
            <path class="cls-63" d="M296.5 390.64a5 5 0 0 0 2.84-3.22c.82-2.54-.52-4.86-2.91-4.81 0 .01-4.61 8.8.07 8.03z"/>
            <path class="cls-4" d="M294 303l-6.44 67.87 13.68 6.45s13.86-33.76 21.34-70.13"/>
            <circle class="cls-4" cx="308.4" cy="304.43" r="14.45" transform="rotate(-60.85 308.377 304.423)"/>
            <circle class="cls-4" cx="316.75" cy="227.32" r="20.86" transform="rotate(-89.78 316.765 227.32)"/>
            <path d="M644.86 766.41c-22.07 12.83-26 31.57-8.65 41.63s49.54 7.81 71.61-5 26-31.57 8.65-41.63-49.54-7.83-71.61 5z" class="cls-61"/>
            <path class="cls-4" d="M730.53 461.06c8.06 17.1 11.7 44.54 13 68.36l-23.39 2.48-22.36-57.64"/>
            <path class="cls-63" d="M725.36 579.74s-.84 8.53-1.42 10.95c-.37 1.54-.6 2.59-.89 3.71-.4 1.55-.5 2.31 0 2.69s1.4.49 2.29-2.65a13.7 13.7 0 0 1-2.89 5.75c-1.68 1.8-4.13 3.64-3.48 4.59s2.45 0 2.45 0 .21 1.55 2.44.33c0 0 .26 1.25 2.52-.33 0 0 .89 1 3-1s9.48-10.07 9.63-25z"/>
            <path class="cls-4" d="M743.53 528.95c2.33 41.67-4.15 54.46-4.15 54.46l-14.13.38-5.07-51.89"/>
            <circle class="cls-4" cx="731.76" cy="529.64" r="11.77"/>
            <circle class="cls-4" cx="714.66" cy="468.87" r="17.69"/>
            <path class="cls-62" d="M655.92 790c-4.8-4.8-10.62-6.78-13-4.41s-.4 8.19 4.4 13 10.62 6.78 13 4.42c1.43-1.43 1.32-7.27 1.32-8.71-.8-1.53-3.81-2.43-5.72-4.3z"/>
            <path class="cls-63" d="M655.83 789.45c-3.13-3-6.87-4.15-8.35-2.6s-.14 5.23 3 8.21"/>
            <path class="cls-62" d="M695.71 766.66c-4.8-4.8-10.62-6.78-13-4.41s-.4 8.19 4.4 13 10.62 6.78 13 4.42c1.43-1.43 1.32-7.27 1.32-8.71-.8-1.5-3.81-2.4-5.72-4.3z"/>
            <path class="cls-63" d="M695.62 766.14c-3.13-3-6.87-4.15-8.35-2.6s-.14 5.23 3 8.21"/>
            <path class="cls-25" d="M626.88 569.25l98.77 3.37-19.34 122.48-4.45 75.29c-.08 2.57-2.36 4.65-6.55 4.64s-5.72-2.29-5.81-4.83-7.11-47.77-10.58-78.21a442.16 442.16 0 0 1-2.44-48.13l-10.68 66.26-3.24 82.5v.26c0 2.55-2.48 4.65-7.1 4.64-4.41 0-6.13-2.14-6.28-4.55-.56-2.79-12.62-63-15.6-88-3.09-25.6-10.58-127.7-6.7-135.72z"/>
            <path class="cls-4" d="M619 484.51c-3.47 24.27-2.16 115.49-2.16 115.49 0 19.47 4.9 34.8 31.6 38.54a44.82 44.82 0 0 0 15-.91c20.64-4.41 45.69-19.31 55.46-28.14 16.37-14.8 15.7-28.78 15.7-41v-89c0 .06 0-29.89-25.3-39.62-19.24-7.41-48.86-.62-64.34 8.12.04.01-22.37 11.24-25.96 36.52z"/>
            <path class="cls-64" d="M620.92 476.37a14.2 14.2 0 0 1 10.42-4.82c15.44 0 14.39 17.49 14.39 17.49v98.17c0 37.76 8.56 48.24 14.14 51.06a40.81 40.81 0 0 1-11.42.26c-26.7-3.74-31.6-19.07-31.6-38.54 0 0-1.31-91.21 2.15-115.48a46.22 46.22 0 0 1 1.92-8.14z"/>
            <path class="cls-4" d="M661.21 485.59l-15 77.61L618 558s.17-5.91.34-13.42c.73-31.93-2.08-55 3.68-71.63 2.74-7.92 43.54-4.53 39.21 12.68"/>
            <path class="cls-63" d="M627.23 621.92s-5.59 15.12-5.49 18.23c.08 2.6.68 4.15-.86 4.92-2.06 1-2.88-.52-2.88-.52a2.32 2.32 0 0 1-3.54-1.08s-2 1.34-3-1.91c0 0-2.18 1.8-2.76-4.36-.69-7.29 5-18.57 5.05-18.7z"/>
            <path class="cls-63" d="M620.5 645.24a5 5 0 0 0 2.84-3.22c.82-2.54-.52-4.86-2.91-4.81 0 0-4.61 8.79.07 8.03z"/>
            <path class="cls-4" d="M618 557.64l-6.44 67.87 13.68 6.49s13.86-33.76 21.34-70.13"/>
            <circle class="cls-4" cx="632.4" cy="559.02" r="14.45" transform="rotate(-60.84 632.461 559.035)"/>
            <circle class="cls-4" cx="640.75" cy="481.91" r="20.86" transform="rotate(-89.78 640.776 481.91)"/>
            <path class="cls-63" d="M656.36 418.08c-.15-14.62 8.82-26.57 20-26.68 6.83-.07 14.78 1.85 18.53 8.55 2.41 4.3 2 12 2.05 17.72a31.54 31.54 0 0 1-4.58 17.06v6.19c-.06 2-1.42 4-4.08 5.55-5.42 3.13-14.18 3.13-19.57 0-2.6-1.51-3.93-3.47-4-5.46V439.11c-5-4.72-8.26-12.37-8.35-21.03z"/>
            <path class="cls-66" d="M656.91 416.13c-9.71-2.79-11.65-13.42-6.34-21.33 5.06-7.53 14.11-9.31 24.58-15.11 7.6-4.21 11.4.83 11.4.83s3.85-2.17 8.66 1.31c2.93 2.13 5.49 6.58 8.34 11.52a31.22 31.22 0 0 1 0 31.17c-2.25 4-8.87 11.91-16.77 14.22-4.5 1.32-20.35 2.76-23.48-8.13-1.69-6.02-2.22-13.29-6.39-14.48z"/>
            <path class="cls-65" d="M656.91 416.13c4.17 1.2 4.7 8.46 6.43 14.48a11 11 0 0 0 1.35 3v5.59c-5-4.78-8.23-12.43-8.32-21.08v-2.13c.21.01.37.09.54.14z"/>
            <path d="M785.86 838.49c-22.07 12.83-26 31.57-8.65 41.63s49.54 7.81 71.61-5 26-31.57 8.65-41.63-49.54-7.83-71.61 5z" class="cls-61"/>
            <path class="cls-63" d="M863.66 651.83s-.84 8.53-1.42 10.95c-.37 1.54-.6 2.59-.89 3.71-.4 1.55-.5 2.31 0 2.68s1.4.49 2.29-2.65a13.69 13.69 0 0 1-2.89 5.75c-1.68 1.8-4.13 3.64-3.48 4.59s2.45 0 2.45 0 .21 1.55 2.44.33c0 0 .27 1.25 2.52-.33 0 0 .89 1 3-1s9.48-10.07 9.63-25z"/>
            <path class="cls-63" d="M881.82 601c2.33 41.67-4.83 54.48-4.83 54.48l-13.45.36-5.07-51.84"/>
            <circle class="cls-63" cx="870.06" cy="601.72" r="11.77"/>
            <circle class="cls-4" cx="852.96" cy="540.96" r="17.69"/>
            <path class="cls-4" d="M868.83 533.14c8.06 17.1 11.7 44.54 13 68.36l-23.36 2.5-22.37-57.66"/>
            <path class="cls-4" d="M853.77 606.52a5 5 0 0 0 6 3.75l23.17-5.27a5 5 0 0 0 3.75-6l-1.27-5.52a5 5 0 0 0-6-3.75L856.26 595a5 5 0 0 0-3.75 6z"/>
            <path class="cls-62" d="M794.21 862.05c-4.8-4.81-10.62-6.78-13-4.41s-.4 8.19 4.4 13 10.62 6.78 13 4.42c1.43-1.43 1.32-7.27 1.32-8.71-.8-1.5-3.81-2.35-5.72-4.3z"/>
            <path class="cls-63" d="M794.12 861.53c-3.13-3-6.87-4.15-8.35-2.6s-.14 5.23 3 8.21"/>
            <path class="cls-62" d="M834 838.74c-4.8-4.81-10.62-6.78-13-4.41s-.4 8.19 4.4 13 10.62 6.78 13 4.42c1.43-1.43 1.32-7.27 1.32-8.71-.79-1.49-3.8-2.39-5.72-4.3z"/>
            <path class="cls-63" d="M833.92 838.22c-3.13-3-6.87-4.15-8.35-2.6s-.14 5.23 3 8.21"/>
            <path class="cls-25" d="M765.18 641.34L864 644.7l-19.39 122.49-4.45 75.29c-.08 2.57-2.36 4.65-6.55 4.64s-5.72-2.28-5.81-4.83-7.11-47.77-10.58-78.21a442.16 442.16 0 0 1-2.5-48.08L804 782.22l-3.24 82.5v.26c0 2.55-2.48 4.65-7.1 4.64-4.41 0-6.13-2.14-6.28-4.55-.56-2.79-12.62-63-15.6-88-2.99-25.61-10.44-127.71-6.6-135.73z"/>
            <path class="cls-4" d="M757.28 556.6c-3.46 24.26-2.15 115.48-2.15 115.48 0 19.47 4.9 34.8 31.6 38.54a44.82 44.82 0 0 0 15-.91c20.64-4.41 45.69-19.31 55.46-28.14 16.37-14.8 15.7-28.78 15.7-41v-89c0 .06 0-29.89-25.3-39.62-19.24-7.41-48.86-.62-64.34 8.12.03.05-22.36 11.24-25.97 36.53z"/>
            <path class="cls-4" d="M757.28 556.6c-3.46 24.26-2.15 115.48-2.15 115.48 0 19.47 4.9 34.8 31.6 38.54a44.82 44.82 0 0 0 15-.91c20.64-4.41 45.69-19.31 55.46-28.14 16.37-14.8 15.7-28.78 15.7-41v-89c0 .06 0-29.89-25.3-39.62-19.24-7.41-48.86-.62-64.34 8.12.03.05-22.36 11.24-25.97 36.53z"/>
            <path class="cls-64" d="M759.21 548.45a14.21 14.21 0 0 1 10.41-4.82c15.44 0 14.39 17.5 14.39 17.5v98.17c0 37.76 8.56 48.24 14.14 51.06a40.81 40.81 0 0 1-11.42.26c-26.7-3.74-31.6-19.07-31.6-38.54 0 0-1.31-91.21 2.15-115.48a46.19 46.19 0 0 1 1.93-8.15z"/>
            <path class="cls-63" d="M823.43 507.85a31.53 31.53 0 0 0 4.57-17.06c-.06-5.72.36-13.41-2.05-17.72-3.75-6.69-11.7-8.62-18.53-8.55-11.21.12-20.18 12.06-20 26.68.09 8.65 3.35 16.3 8.32 21.08v1.9c.08 2 1.41 2.14 4 3.65 5.39 3.13 14.15 3.13 19.57 0 2.66-1.54 4-3.54 4.08-5.55v-4.44"/>
            <path class="cls-66" d="M813.92 448.73c7 1.77 12.76 5.44 16.7 14 2.92 6.35 2.54 22.67-.25 30.68-3 8.69-6.41 21.41-22.4 19.68-11.2-1.21-14-7.19-15.87-16a31.32 31.32 0 0 1-8.86-35.27 3.35 3.35 0 0 1-1.28-3.51 3.82 3.82 0 0 1 2.71-2.76s-1.66-3.12 5.1-5.17c7.6-2.27 17.7-3.27 24.15-1.65z"/>
            <path class="cls-65" d="M792.11 497.11c.8 3.87 1.8 7.2 3.62 9.81v5.38c-4.83-4.64-8-12-8.3-20.34a34.09 34.09 0 0 0 4.68 5.15z"/>
            <path class="cls-5" d="M809.69 516.77c-6 .52-11.54-.8-14.56-2.49 0 0-5.74 2.47-7.16 3.13 0 0 18.64 7.69 31.38 1.6 11.19-5.35 5.68-10.09 5.68-10.09l-1.6-.63v2.78s-1.86 4.66-13.74 5.7z"/>
            <path class="cls-63" d="M766.44 693.73s-5.59 15.12-5.5 18.24c.08 2.6.68 4.15-.86 4.92-2.06 1-2.88-.52-2.88-.52a2.32 2.32 0 0 1-3.54-1.08s-2 1.34-3-1.91c0 0-2.18 1.8-2.76-4.36-.69-7.29 5-18.57 5.05-18.7z"/>
            <path class="cls-63" d="M758.8 717.32a5 5 0 0 0 2.84-3.22c.82-2.54-.52-4.86-2.91-4.81 0 .01-4.61 8.8.07 8.03zM756.3 629.72l-6.44 67.87 13 6.45s14.52-33.76 22-70.13"/>
            <circle class="cls-63" cx="770.69" cy="631.11" r="14.45" transform="rotate(-60.85 770.608 631.097)"/>
            <path class="cls-4" d="M753.58 631.85a5 5 0 0 0 4.35 5.58l23.6 2.92a5 5 0 0 0 5.58-4.35l.69-5.62a5 5 0 0 0-4.35-5.58l-23.6-2.92a5 5 0 0 0-5.58 4.35z"/>
            <path class="cls-4" d="M799.5 557.68l-15 77.61-28.25-5.23s.17-5.91.34-13.42c.73-31.93-2.08-55 3.68-71.63 2.74-7.92 43.54-4.53 39.21 12.68"/>
            <circle class="cls-4" cx="779.05" cy="554" r="20.86" transform="rotate(-89.78 779.08 553.993)"/>
            <g class="cls-17">
                <path class="cls-15" d="M407.15 734.7c8.43 4.87 8.47 12.75.1 17.61s-22 4.87-30.41 0-8.47-12.75-.1-17.61 21.99-4.87 30.41 0z"/>
                <g class="cls-17 cls-68 cls-17">
                    <path class="cls-19" d="M413.5 743.56v2.63-2.45-.19"/>
                    <path class="cls-20" d="M413.49 743.75v2.45a7.35 7.35 0 0 1-.14 1.23V745a7.35 7.35 0 0 0 .14-1.23"/>
                    <path class="cls-21" d="M413.35 745v2.45a7.82 7.82 0 0 1-.35 1.21v-2.46a7.82 7.82 0 0 0 .35-1.21"/>
                    <path class="cls-22" d="M413 746.2v2.45a8.71 8.71 0 0 1-.57 1.22v-2.45a8.71 8.71 0 0 0 .57-1.22"/>
                    <path class="cls-23" d="M412.43 747.42v2.45a10.14 10.14 0 0 1-.87 1.28v-2.45a10.14 10.14 0 0 0 .87-1.28"/>
                    <path class="cls-24" d="M411.57 748.7v2.45a12.39 12.39 0 0 1-1.33 1.43v-2.45a12.39 12.39 0 0 0 1.33-1.43"/>
                    <path class="cls-25" d="M410.23 750.14v2.45a16.66 16.66 0 0 1-2.72 2v-2.45a16.66 16.66 0 0 0 2.72-2"/>
                    <path class="cls-26" d="M407.51 752.15v2.45l-.26.16a24.3 24.3 0 0 1-4.71 2.07v-2.45a24.3 24.3 0 0 0 4.71-2.07l.26-.16"/>
                    <path class="cls-25" d="M402.54 754.38v2.45a31.14 31.14 0 0 1-4.07 1v-2.45a31.14 31.14 0 0 0 4.07-1"/>
                    <path class="cls-24" d="M398.47 755.39v2.45c-.9.16-1.82.29-2.74.38v-2.45c.93-.09 1.84-.22 2.74-.38"/>
                    <path class="cls-23" d="M395.72 755.78v2.45q-1.18.12-2.38.16v-2.45q1.2 0 2.38-.16"/>
                    <path class="cls-22" d="M393.34 755.93v2.45h-2.2v-2.45h2.2"/>
                    <path class="cls-21" d="M391.14 755.95v2.45q-1.06 0-2.12-.11v-2.45q1.05.09 2.12.11"/>
                    <path class="cls-20" d="M389 755.83v2.45q-1.05-.09-2.09-.23v-2.45q1 .15 2.09.23"/>
                    <path class="cls-19" d="M386.93 755.6v2.4q-1.08-.15-2.13-.37v-2.45q1.05.22 2.13.37"/>
                    <path class="cls-27" d="M384.8 755.23v2.45q-1.14-.24-2.24-.55v-2.45q1.1.31 2.24.55"/>
                    <path class="cls-28" d="M382.56 754.68v2.45c-.9-.26-1.77-.55-2.61-.88v-2.45c.84.33 1.71.63 2.61.88"/>
                    <path class="cls-29" d="M379.95 753.8v2.45a23.37 23.37 0 0 1-3.1-1.49c-4.24-2.45-6.35-5.66-6.35-8.87v-2.45c0 3.21 2.11 6.42 6.35 8.87a23.37 23.37 0 0 0 3.1 1.49"/>
                </g>
            </g>
            <g class="cls-17">
                <path class="cls-40" d="M395.84 514.87c2 1.13 2 3 0 4.1a7.79 7.79 0 0 1-7.07 0c-2-1.13-2-3 0-4.09a7.8 7.8 0 0 1 7.07-.01z"/>
                <g class="cls-17 cls-69 cls-17">
                    <path class="cls-31" d="M397.32 516.93l-.64 226.62.64-226.55"/>
                    <path class="cls-32" d="M397.32 517l-.64 226.62a1.71 1.71 0 0 1 0 .29l.64-226.62a1.71 1.71 0 0 0 0-.29"/>
                    <path class="cls-33" d="M397.28 517.26l-.64 226.62a1.82 1.82 0 0 1-.08.28l.64-226.62a1.82 1.82 0 0 0 .08-.28"/>
                    <path class="cls-34" d="M397.2 517.54l-.64 226.62a2 2 0 0 1-.13.28l.64-226.62a2 2 0 0 0 .13-.28"/>
                    <path class="cls-27" d="M397.07 517.83l-.64 226.62a2.36 2.36 0 0 1-.2.3l.64-226.62a2.36 2.36 0 0 0 .2-.3"/>
                    <path class="cls-19" d="M396.87 518.13l-.64 226.62a2.88 2.88 0 0 1-.31.33l.64-226.62a2.88 2.88 0 0 0 .31-.33"/>
                    <path class="cls-35" d="M396.56 518.46l-.64 226.62a3.88 3.88 0 0 1-.63.47l.64-226.62a3.88 3.88 0 0 0 .63-.47"/>
                    <path class="cls-36" d="M395.92 518.93l-.64 226.62h-.06a5.65 5.65 0 0 1-1.09.48l.64-226.62a5.65 5.65 0 0 0 1.09-.48h.06"/>
                    <path class="cls-35" d="M394.77 519.45l-.64 226.62a7.22 7.22 0 0 1-.94.24l.64-226.62a7.22 7.22 0 0 0 .94-.24"/>
                    <path class="cls-19" d="M393.82 519.68l-.64 226.62-.64.09.64-226.62.64-.09"/>
                    <path class="cls-27" d="M393.19 519.77l-.64 226.62H392l.64-226.62h.55"/>
                    <path class="cls-34" d="M392.63 519.81L392 746.42h-.51l.64-226.62h.51"/>
                    <path class="cls-33" d="M392.12 519.81l-.64 226.62h-.49l.64-226.62h.49"/>
                    <path class="cls-32" d="M391.63 519.78L391 746.4l-.49-.05.64-226.62.49.05"/>
                    <path class="cls-31" d="M391.14 519.73l-.64 226.62-.5-.09.64-226.62.5.09"/>
                    <path class="cls-37" d="M390.65 519.64L390 746.26l-.52-.13.64-226.62.52.13"/>
                    <path class="cls-38" d="M390.12 519.51l-.64 226.62c-.21-.06-.41-.13-.61-.21l.64-226.62c.2.08.4.15.61.21"/>
                    <path class="cls-39" d="M389.52 519.31l-.64 226.62a5.45 5.45 0 0 1-.72-.35 2.5 2.5 0 0 1-1.47-2.06l.64-226.62a2.5 2.5 0 0 0 1.47 2.06 5.45 5.45 0 0 0 .72.35"/>
                </g>
            </g>
            <g class="cls-17">
                <path class="cls-56" d="M790.69 752.58l-.04 14.67-396.56-228.96.04-14.67 396.56 228.96z"/>
                <path class="cls-57" d="M790.69 752.58l.7-.42-.04 14.68-.7.41.04-14.67z"/>
                <path class="cls-58" d="M394.13 523.62l.71-.41 396.55 228.95-.7.42-396.56-228.96z"/>
            </g>
            <g class="cls-17">
                <path class="cls-15" d="M808.15 964.7c8.42 4.86 8.47 12.75.1 17.61s-22 4.86-30.4 0-8.47-12.75-.11-17.61 21.98-4.87 30.41 0z"/>
                <g class="cls-17 cls-70 cls-17">
                    <path class="cls-19" d="M814.5 973.57v2.62-2.45-.19"/>
                    <path class="cls-20" d="M814.5 973.75v2.45a7.35 7.35 0 0 1-.14 1.23V975a7.35 7.35 0 0 0 .14-1.23"/>
                    <path class="cls-21" d="M814.35 975v2.45a7.81 7.81 0 0 1-.35 1.21v-2.46a7.81 7.81 0 0 0 .35-1.21"/>
                    <path class="cls-22" d="M814 976.2v2.45a8.7 8.7 0 0 1-.57 1.22v-2.45a8.7 8.7 0 0 0 .57-1.22"/>
                    <path class="cls-23" d="M813.43 977.42v2.45a10.13 10.13 0 0 1-.87 1.28v-2.45a10.13 10.13 0 0 0 .87-1.28"/>
                    <path class="cls-24" d="M812.57 978.7v2.45a12.39 12.39 0 0 1-1.33 1.43v-2.45a12.39 12.39 0 0 0 1.33-1.43"/>
                    <path class="cls-25" d="M811.24 980.14v2.45a16.67 16.67 0 0 1-2.72 2v-2.45a16.67 16.67 0 0 0 2.72-2"/>
                    <path class="cls-26" d="M808.51 982.15v2.45l-.26.16a24.28 24.28 0 0 1-4.71 2.07v-2.45a24.28 24.28 0 0 0 4.71-2.07l.26-.16"/>
                    <path class="cls-25" d="M803.54 984.38v2.45a31.11 31.11 0 0 1-4.07 1v-2.45a31.11 31.11 0 0 0 4.07-1"/>
                    <path class="cls-24" d="M799.47 985.39v2.45c-.9.16-1.82.29-2.74.38v-2.45c.92-.09 1.84-.22 2.74-.38"/>
                    <path class="cls-23" d="M796.73 985.77v2.45q-1.18.12-2.38.16v-2.45q1.2 0 2.38-.16"/>
                    <path class="cls-22" d="M794.35 985.93v2.45h-2.2v-2.45h2.2"/>
                    <path class="cls-21" d="M792.15 985.94v2.45q-1.06 0-2.12-.11v-2.45q1.05.09 2.12.11"/>
                    <path class="cls-20" d="M790 985.83v2.45q-1.05-.09-2.09-.23v-2.45q1 .15 2.09.23"/>
                    <path class="cls-19" d="M787.94 985.6v2.4q-1.08-.15-2.13-.37v-2.45q1.05.22 2.13.37"/>
                    <path class="cls-27" d="M785.81 985.23v2.45q-1.14-.24-2.24-.55v-2.45q1.1.31 2.24.55"/>
                    <path class="cls-28" d="M783.56 984.68v2.45c-.9-.26-1.77-.55-2.61-.88v-2.45c.84.33 1.71.63 2.61.88"/>
                    <path class="cls-29" d="M781 983.79v2.45a23.36 23.36 0 0 1-3.1-1.49c-4.24-2.45-6.36-5.66-6.35-8.87v-2.45c0 3.21 2.11 6.42 6.35 8.87a23.36 23.36 0 0 0 3.1 1.49"/>
                </g>
            </g>
            <g class="cls-17">
                <g class="cls-17 cls-71 cls-17">
                    <path class="cls-31" d="M798.31 746.93l-.64 226.62.64-226.55"/>
                    <path class="cls-32" d="M798.31 747l-.64 226.62a1.71 1.71 0 0 1 0 .29l.64-226.62a1.71 1.71 0 0 0 0-.29"/>
                    <path class="cls-33" d="M798.28 747.26l-.64 226.62a1.82 1.82 0 0 1-.08.28l.64-226.62a1.82 1.82 0 0 0 .08-.28"/>
                    <path class="cls-34" d="M798.2 747.54l-.64 226.62a2 2 0 0 1-.13.28l.64-226.62a2 2 0 0 0 .13-.28"/>
                    <path class="cls-27" d="M798.07 747.83l-.64 226.62a2.36 2.36 0 0 1-.2.3l.64-226.62a2.36 2.36 0 0 0 .2-.3"/>
                    <path class="cls-19" d="M797.87 748.13l-.64 226.62a2.88 2.88 0 0 1-.31.33l.64-226.62a2.88 2.88 0 0 0 .31-.33"/>
                    <path class="cls-35" d="M797.56 748.46l-.64 226.62a3.87 3.87 0 0 1-.63.47l.64-226.62a3.87 3.87 0 0 0 .63-.47"/>
                    <path class="cls-36" d="M796.92 748.93l-.64 226.62h-.06a5.67 5.67 0 0 1-1.1.48l.64-226.62a5.67 5.67 0 0 0 1.1-.48h.06"/>
                    <path class="cls-35" d="M795.76 749.45l-.64 226.62a7.26 7.26 0 0 1-.95.24l.64-226.62a7.26 7.26 0 0 0 .95-.24"/>
                    <path class="cls-19" d="M794.82 749.68l-.64 226.62-.64.09.64-226.62.64-.09"/>
                    <path class="cls-27" d="M794.18 749.77l-.64 226.62h-.55l.64-226.62h.55"/>
                    <path class="cls-34" d="M793.62 749.81L793 976.43h-.51l.64-226.62h.51"/>
                    <path class="cls-33" d="M793.11 749.81l-.64 226.62h-.49l.64-226.62h.49"/>
                    <path class="cls-32" d="M792.62 749.79L792 976.4l-.49-.05.64-226.62.49.05"/>
                    <path class="cls-31" d="M792.13 749.73l-.64 226.62-.49-.09.64-226.62.49.09"/>
                    <path class="cls-37" d="M791.64 749.65L791 976.26l-.52-.13.64-226.62.52.13"/>
                    <path class="cls-38" d="M791.12 749.52l-.64 226.62c-.21-.06-.41-.13-.61-.2l.64-226.62c.2.08.4.15.61.2"/>
                    <path class="cls-39" d="M790.51 749.31l-.64 226.62a5.43 5.43 0 0 1-.72-.35 2.5 2.5 0 0 1-1.48-2.06l.64-226.62a2.5 2.5 0 0 0 1.48 2.06 5.43 5.43 0 0 0 .72.35"/>
                </g>
                <path class="cls-40" d="M796.84 744.87c2 1.13 2 3 0 4.09a7.79 7.79 0 0 1-7.07 0c-2-1.13-2-3 0-4.1a7.8 7.8 0 0 1 7.07.01z"/>
            </g>
            <path class="cls-67" d="M34.69 543.15C12.56 556 8.66 574.8 26 584.89s49.67 7.83 71.8-5 26-31.65 8.67-41.74-49.65-7.87-71.78 5z"/>
            <path class="cls-4" d="M119 225.05c8.08 17.14 11.73 44.66 13.06 68.54l-23.45 2.49-22.45-57.79"/>
            <path class="cls-63" d="M113.79 344s-.84 8.56-1.42 11c-.37 1.54-.6 2.6-.89 3.72-.4 1.55-.5 2.32 0 2.69s1.4.49 2.29-2.66a13.73 13.73 0 0 1-2.9 5.76c-1.68 1.81-4.14 3.65-3.49 4.61s2.46 0 2.46 0 .21 1.55 2.44.33c0 0 .27 1.25 2.53-.33 0 0 .89 1 3-1s9.51-10.1 9.65-25.1z"/>
            <path class="cls-4" d="M132 293.12c2.33 41.77-4.16 54.6-4.16 54.6l-14.17.38-5.09-52"/>
            <circle class="cls-4" cx="120.2" cy="293.81" r="11.8"/>
            <circle class="cls-4" cx="103.05" cy="232.89" r="17.73"/>
            <path class="cls-62" d="M41.2 575.41c4.79 4.8 10.61 6.77 13 4.39s.42-8.19-4.38-13-10.61-6.77-13-4.39c-1.44 1.43-1.33 5.19-1.33 6.63.81 1.49 3.81 4.46 5.71 6.37z"/>
            <path class="cls-63" d="M41.24 570.41c3.14 3 6.89 4.16 8.37 2.61s.14-5.24-3-8.23-6.89-4.16-8.37-2.6-.13 5.23 3 8.22z"/>
            <path class="cls-62" d="M84.16 550.82c4.6 4.61 10.19 6.5 12.48 4.21s.4-7.87-4.2-12.48-10.19-6.5-12.47-4.22c-1.38 1.38-1.28 5-1.28 6.37.75 1.43 3.64 4.3 5.47 6.12z"/>
            <path class="cls-63" d="M84.19 546c3 2.88 6.61 4 8 2.5s.14-5-2.88-7.91-6.61-4-8-2.5-.13 5.06 2.88 7.91z"/>
            <path class="cls-2" d="M35.48 485.5s-12.18-68.23-18.19-112L111 355.78c.44 21.27 1.19 61.82-1.21 91.16-3.6 44.2-18.83 95.23-18.83 95.23-.33 1.6-2.12 2.83-5.67 2.83-4 0-6.72-1.34-6.72-3.2l1.6-70.95-7.74-60.34s-3.75 45-6.54 69-17 85.8-17 85.8c0 2.51-1.84 4.56-6.12 4.56s-7.21-1.86-7.23-4.35z"/>
            <path class="cls-4" d="M8.78 252.15c-3.47 24.33-2.15 115.78-2.15 115.78 0 19.52 4.92 34.89 31.68 38.64a44.94 44.94 0 0 0 15.06-.91c20.7-4.43 45.81-19.36 55.6-28.22 16.41-14.84 15.74-28.85 15.74-41.06v-89.21c0 .06 0-30-25.36-39.73-19.29-7.42-49-.62-64.5 8.14 0 0-22.45 11.22-26.07 36.57z"/>
            <path class="cls-64" d="M10.72 244a14.24 14.24 0 0 1 10.44-4.83c15.48 0 14.43 17.54 14.43 17.54v98.42c0 37.86 8.58 48.36 14.18 51.19a41 41 0 0 1-11.45.26c-26.77-3.75-31.68-19.12-31.68-38.64 0 0-1.31-91.45 2.15-115.77a46.4 46.4 0 0 1 1.93-8.17z"/>
            <path class="cls-63" d="M25.86 387.55s.68 8.57 1.22 11c.34 1.55.55 2.61.82 3.74.37 1.56.46 2.33-.07 2.69s-1.41.47-2.24-2.7a13.74 13.74 0 0 0 2.8 5.82c1.65 1.84 4.07 3.72 3.4 4.66s-2.46 0-2.46 0-.24 1.55-2.45.29c0 0-.29 1.25-2.52-.38 0 0-.91 1-2.95-1.09s-9.32-10.27-9.2-25.27z"/>
            <path class="cls-4" d="M29.32 327.91L27 397.3l-13.59-.42S3 369.58.46 326"/>
            <circle class="cls-4" cx="14.95" cy="326.05" r="14.49" transform="rotate(-88.97 14.94 326.044)"/>
            <path class="cls-4" d="M51.32 255l-22.58 75.5-28.28-4.71s-.45-7-.46-14.54c0-31.68 4.5-55.5 13.06-72.38"/>
            <circle class="cls-4" cx="31.71" cy="248.1" r="20.78" transform="rotate(-89.78 31.706 248.096)"/>
            <path class="cls-63" d="M76.06 158c6.52-.26 14.16 1.35 17.94 7.63 2.43 4 2.24 11.4 2.46 16.86.4 9.87-3.54 20.21-9.66 25.58v2.58c-.07 2.11-1.49 4.21-4.28 5.82-5.68 3.28-14.87 3.28-20.52 0-2.73-1.58-4.12-3.64-4.2-5.72V185c0-.31 0-.62-.05-.92-.62-13.99 7.6-25.65 18.31-26.08z"/>
            <path class="cls-72" d="M78.21 211.8a13.89 13.89 0 0 0 8.58-3.73v2.58c-.07 2.11-1.49 4.21-4.28 5.82-5.68 3.28-14.87 3.28-20.52 0-2.73-1.58-4.12-3.64-4.2-5.72V185c.87 13.63 9.96 27.22 20.42 26.8z"/>
            <path class="cls-8" d="M50.08 159.23c2.91-8.67 7.85-8.07 7.85-8.07s1.79-3.36 8.77-2.61 28.83 5.6 31.14 1.05a3.17 3.17 0 0 1 0 2.19s1.63-.18 3.11-2.49c3.27 6.83 2.51 20.18-4.59 29.69a45 45 0 0 0-1.18-10.56c-11.7 6.76-29 1-29 1l-1.38 14.9a3.57 3.57 0 1 0-6.91 1.75 37 37 0 0 0 1.43 7.23 27.63 27.63 0 0 1-6.56-9.05c-4.87-10.45-4.83-18.6-2.68-25.03z"/>
            <path class="cls-2" d="M79.16 220.8l-5.08 3.21 3.33 7.92-9.23 80.5 11.22 13.56 11.44-26.65-9.9-69.52 2.17-8.2-3.95-.82z"/>
            <path class="cls-5" d="M89.33 208.91l-.48 17-9.69-5.12-9.43 10.12-13.61-16.23s-2.93-3.75-1.57-6.85a9.61 9.61 0 0 1 3.2-3.19s4.47 8.58 21 13.45c0 0 7.16-5.22 8-10 0 0 .72-.65 1.64-1.64a4.52 4.52 0 0 1 .94 2.46z"/>
            <path class="cls-8" d="M58.66 257.2l-17.88 10.39v5.84l17.88-10.39v-5.84z"/>
            <path class="cls-73" d="M924.21 396.75a50 50 0 1 0-74.27 43.72 8.58 8.58 0 0 1 4.45 6.75c.44 6.05-5.52 9-5.52 9 77.35.73 75.34-59.47 75.34-59.47z"/>
            <path class="cls-4" d="M883.5 375.37a4.3 4.3 0 0 0-5.51 2.3l-12.65 30.42a4.23 4.23 0 0 0 7.81 3.22l12.65-30.42a4.24 4.24 0 0 0-2.3-5.52zM866.17 416a4.53 4.53 0 0 0-5.47 3.16 4.41 4.41 0 0 0 .41 3.43 4.35 4.35 0 0 0 2.7 2 4.78 4.78 0 0 0 1.14.14 4.48 4.48 0 0 0 4.33-3.31 4.43 4.43 0 0 0-.4-3.42 4.35 4.35 0 0 0-2.71-2z"/>
            <circle class="cls-2" cx="344.15" cy="46.5" r="46.5"/>
            <path class="cls-4" d="M346.82 38.54c0-2.23-1.47-3.42-3.64-3.42-2 0-3.48 1-4.94 2.5l-4.4-4a12.86 12.86 0 0 1 9.88-4.94c6.14 0 10.75 2.88 10.75 9.29 0 6.73-8.15 8.74-7.5 15.21h-7c-1.08-7.47 6.85-10.57 6.85-14.64zm-3.37 17.76a5 5 0 0 1 0 10 5 5 0 0 1 0-10z"/>
        </g>
    </g>
</svg>
