<svg width="608" height="305" viewBox="0 0 608 305" xmlns="http://www.w3.org/2000/svg">
    <g fill-rule="nonzero" fill="none">
        <path d="M59.95 77c12.14 7.16 25.9 22.56 36.72 36.68L83.28 125l-38-26.15" fill="#E9E9EA"/>
        <path d="M122.25 108.13s6.15-1.75 8-2c1.17-.17 2-.31 2.81-.42 1.18-.16 1.73-.3 1.86-.74.13-.44 0-1-2.43-.79a10.51 10.51 0 0 1 4.74.35c1.68.61 3.58 1.73 4.08 1s-.62-1.61-.62-1.61 1-.56-.39-1.69c0 0 .8-.51-.87-1.56 0 0 .49-.86-1.48-1.66-1.97-.8-9.41-3.5-19.86.44l4.16 8.68z" fill="#FFCFAE"/>
        <path d="M88.7 125c29.6-9.62 36.75-17.57 36.75-17.57l-3.55-9.93-37.45 10.43" fill="#E9E9EA"/>
        <path d="M82.83 108.42a8.78 8.78 0 1 0 6.356 16.37 8.78 8.78 0 0 0-6.356-16.37z" fill="#E9E9EA"/>
        <circle fill="#E9E9EA" cx="62.23" cy="93.59" r="10.28"/>
        <path d="M20.51 275.64c-13.08 7.61-15.39 18.71-5.13 24.68 10.26 5.97 29.37 4.63 42.45-3 13.08-7.63 15.4-18.7 5.17-24.66-10.23-5.96-29.41-4.66-42.49 2.98z" opacity=".15" fill="#000"/>
        <path d="M24.36 294.71c2.84 2.84 6.27 4 7.68 2.59 1.41-1.41.25-4.84-2.59-7.68s-6.27-4-7.68-2.6c-.85.85-.79 3.07-.79 3.92a26.32 26.32 0 0 0 3.38 3.77zM49.76 280.17c2.72 2.72 6 3.84 7.38 2.49 1.38-1.35.24-4.65-2.49-7.38-2.73-2.73-6-3.84-7.38-2.49-.81.81-.76 2.95-.76 3.77a25.37 25.37 0 0 0 3.25 3.61z" fill="#2D2D2D"/>
        <path d="M21.84 241.55s-7.63-40.34-11.18-66.21l55.17-10.49c.26 12.58.59 37.06-.82 54.41-2.13 26.14-11.24 56.82-11.24 56.82a5.91 5.91 0 0 1-3.35 1.16c-2.34 0-4-1-4-2.15l.95-42.09-4.58-35.74s-2.22 26.57-3.86 40.74c-1.64 14.17-10 50.71-10 50.71 0 1.49-1.09 2.29-3.62 2.29-2.53 0-4.26-.58-4.28-3l.45-1.68.36-44.77z" fill="#424242"/>
        <path d="M5.19 103.58C3.14 118 3.92 172 3.92 172c0 11.54 2.91 20.63 18.73 22.85a26.57 26.57 0 0 0 8.9-.54c12.24-2.62 27.48-11.45 33.28-16.68 9.7-8.77 9.7-17.06 9.7-24.28v-52.72s-.4-17.72-15.4-23.49C47.74 72.75 30 76.78 20.8 82c0 0-13.47 6.59-15.61 21.58z" fill="#FFF"/>
        <path d="M6.34 98.75a9.32 9.32 0 0 1 6.57-2.86c9.15 0 8.93 10.37 8.93 10.37v58.19c0 22.38 4.68 28.6 8 30.27-2.315.37-4.67.42-7 .15C7 192.66 4 183.57 4 172c0 0-.83-54.07 1.22-68.45a27.79 27.79 0 0 1 1.12-4.8z" fill="#000" opacity=".1"/>
        <path d="M45 47.91c3.85-.15 8.37.8 10.6 4.51 1.43 2.39 1.33 6.74 1.46 10 .23 5.83-2.09 11.95-5.71 15.12V79a4.35 4.35 0 0 1-2.53 3.44 13.37 13.37 0 0 1-12.13 0 4.32 4.32 0 0 1-2.49-3.38V63.86v-.55c-.42-8.25 4.44-15.15 10.8-15.4z" fill="#FFCFAE"/>
        <path d="M35.26 68a24.91 24.91 0 0 0-.6-3.41c-.57-2.59 1.41-2.82 1.41-2.82a1.88 1.88 0 0 1 2 1.69l.25 4.13 1.51.49s-.44-3-.44-3.83c0-4.71 1.09-5 1.09-5l.58-3.7s9.58 1.15 15.05-1.76a28.41 28.41 0 0 1 .89 6.53s1.14-7.82-.67-12.62c-1.81-4.8-4.81-7.16-9.89-7.12 0 0-15.28-1.24-16.64 9.15 0 0-1.51 11.64 4.41 21.47-.03.01 1.05-3.2 1.05-3.2z" fill="#424242"/>
        <path d="M45.71 79.72c1.85-.07 4.87-.89 4.87-2.2V79h.35a4.1 4.1 0 0 1-2.35 3.44 13.18 13.18 0 0 1-12 0c-1.61-.94-2.55-2.15-2.61-3.38l-.13-.06V63.86c-.03 8.07 5.68 16.14 11.87 15.86z" fill="#392517" opacity=".08"/>
        <path fill="#2B90FF" d="M46.8 85.04l-3 1.9 1.97 4.68-5.46 47.6 6.64 8.02 6.76-15.76-5.85-41.1 1.28-4.85z"/>
        <path d="M52.82 78l-.29 10.06L46.8 85l-5.58 6-8-9.6s-1.73-2.22-.93-4a5.69 5.69 0 0 1 1.89-1.89s2.64 5.07 12.44 7.95c0 0 4.23-3.08 4.74-5.92 0 0 .43-.39 1-1 .293.431.452.939.46 1.46z" fill="#DBDBDA"/>
        <path fill="#2B90FF" d="M36.86 145.05l1.69.36-20.1 22.16-1.7-.36L10 145.93l20.12-22.17z"/>
        <path fill="#000" opacity=".2" d="M30.12 123.76l6.74 21.29-20.11 22.16L10 145.93z"/>
        <path fill="#FFF" d="M31.81 124.13l6.74 21.28-1.69-.36-6.74-21.29z"/>
        <path fill="#1E85E2" d="M31.54 145.58l1.69.36-20.11 22.16-1.69-.36-6.76-21.29 20.12-22.17z"/>
        <path fill="#2B90FF" d="M24.79 124.28l6.75 21.3-20.11 22.16-6.76-21.29z"/>
        <path fill="#FFF" d="M26.48 124.65l6.75 21.29-1.69-.36-6.75-21.3z"/>
        <path d="M15.29 183.63s.4 5.07.72 6.5c.2.92.33 1.54.49 2.21.22.92.27 1.38 0 1.59-.27.21-.84.27-1.33-1.6a8.14 8.14 0 0 0 1.65 3.44c1 1.09 2.41 2.2 2 2.76-.41.56-1.46 0-1.46 0s-.14.91-1.45.17c0 0-.17.74-1.49-.22 0 0-.54.6-1.75-.65s-5.51-6.07-5.44-14.94l8.06.74z" fill="#FFCFAE"/>
        <path d="M17.33 148.37l-1.39 41-8-.25S1.78 173 .27 147.24" fill="#FFF"/>
        <circle fill="#FFF" transform="rotate(-88.97 8.835 147.269)" cx="8.835" cy="147.269" r="8.57"/>
        <path d="M30.34 105.25L17 149.91.27 147.12S0 143 0 138.52c0-18.73 2.66-32.82 7.72-42.8" fill="#FFF"/>
        <circle fill="#FFF" transform="rotate(-89.78 18.741 101.179)" cx="18.741" cy="101.179" r="12.29"/>
        <path fill="#FFF" d="M553.39 10.41l14.1 8.24L607.39 0z"/>
        <path fill="#E6E6E6" d="M567.49 18.65l3.68 14.42 3.58-10.19L607.39 0z"/>
        <path fill="#CCC" d="M574.75 22.88l-3.58 10.19 8.35-7.48z"/>
        <path fill="#FFF" d="M589.06 31.23l-14.31-8.35L607.39 0z"/>
        <path d="M162.47 107a.5.5 0 0 1 0-1h1a.48.48 0 0 1 .52.48.5.5 0 0 1-.48.52h-1.04zm6-.4a.5.5 0 0 1 0-1l1-.1a.502.502 0 0 1 .1 1l-1 .1h-.1zm5.94-.73a.501.501 0 0 1-.07-1l1-.15a.49.49 0 0 1 .57.41.5.5 0 0 1-.41.57l-1 .15-.09.02zm5.89-1a.502.502 0 0 1-.1-1l1-.21a.5.5 0 0 1 .59.38.5.5 0 0 1-.38.59l-1 .21-.11.03zm5.83-1.35a.504.504 0 0 1-.12-1l1-.25a.517.517 0 0 1 .26 1l-1 .25h-.14zm5.76-1.64a.506.506 0 0 1-.15-1l.94-.3a.523.523 0 0 1 .31 1l-1 .3h-.1zm5.68-1.92a.507.507 0 0 1-.17-1l.94-.34a.502.502 0 0 1 .35.94l-.94.35a.5.5 0 0 1-.21-.03l.03.08zm5.59-2.18a.509.509 0 0 1-.19-1l.92-.39a.5.5 0 1 1 .39.92l-.92.39a.5.5 0 0 1-.23 0l.03.08zm5.49-2.43a.51.51 0 0 1-.21-1l.9-.43a.5.5 0 1 1 .43.9l-.91.43a.49.49 0 0 1-.24.03l.03.07zM370.52 95h-1a.5.5 0 0 1 0-1h1a.5.5 0 0 1 0 1zm5-.05a.5.5 0 0 1 0-1h1a.5.5 0 0 1 0 1h-1zm-11 0h-1a.5.5 0 0 1 0-1h1a.5.5 0 0 1 0 1zm17-.18a.5.5 0 0 1 0-1h1a.51.51 0 0 1 .52.48.5.5 0 0 1-.48.52h-1.04zm-23 0h-1a.5.5 0 0 1-.48-.52.48.48 0 0 1 .52-.48h1a.5.5 0 0 1 0 1h-.04zm29-.31a.5.5 0 0 1 0-1l1-.06a.5.5 0 0 1 .06 1l-1 .06h-.06zm-35 0l-1-.07a.5.5 0 0 1-.47-.53.51.51 0 0 1 .53-.47l1 .07a.5.5 0 0 1 0 1h-.06zm41-.42a.5.5 0 0 1 0-1l1-.08a.49.49 0 0 1 .54.46.5.5 0 0 1-.46.54l-1 .08h-.08zm-46.94 0l-1-.09a.502.502 0 0 1 .08-1l1 .09a.5.5 0 0 1 0 1h-.08zm52.91-.52a.5.5 0 0 1-.05-1l1-.1a.503.503 0 0 1 .11 1l-1 .1h-.06zm-58.89 0h-.05l-1-.1a.502.502 0 0 1 .1-1l1 .1a.5.5 0 0 1-.05 1zm64.85-.63a.5.5 0 0 1-.06-1l1-.12a.504.504 0 0 1 .13 1l-1 .12h-.07zm-70.8 0h-.06l-1-.12a.5.5 0 0 1-.44-.55.49.49 0 0 1 .56-.44l1 .12a.5.5 0 0 1-.06 1v-.01zM214 92.61a.5.5 0 0 1-.23-.94l.88-.46a.5.5 0 0 1 .47.88l-.89.47a.5.5 0 0 1-.23.05zM328.67 92h-.07l-1-.13a.5.5 0 0 1-.43-.56.49.49 0 0 1 .56-.43l1 .13a.501.501 0 0 1-.07 1l.01-.01zm82.7 0a.501.501 0 0 1-.07-1l1-.14a.51.51 0 0 1 .57.42.5.5 0 0 1-.42.57l-1 .14-.08.01zm-88.65-.81h-.07l-1-.15a.506.506 0 0 1 .15-1l1 .15a.501.501 0 0 1-.07 1h-.01zm94.58-.09a.502.502 0 1 1-.08-1l1-.16a.506.506 0 0 1 .16 1l-1 .16h-.08zm-100.53-.83h-.08l-1-.16a.506.506 0 0 1 .16-1l1 .16a.502.502 0 0 1-.08 1zm106.44-.19a.502.502 0 0 1-.09-1l1-.18a.508.508 0 0 1 .18 1l-1 .18h-.09zm-204-.38a.5.5 0 0 1-.25-.93l.86-.5a.5.5 0 1 1 .5.86l-.87.5a.5.5 0 0 1-.19.09l-.05-.02zm91.58-.44h-.09l-1-.17a.508.508 0 0 1 .18-1l1 .17a.502.502 0 0 1-.09 1zM429.11 89a.502.502 0 0 1-.1-1l1-.2a.51.51 0 0 1 .2 1l-1 .2h-.1zm-124.18-.8h-.09l-1-.19a.5.5 0 0 1-.4-.59.51.51 0 0 1 .56-.42l1 .19a.502.502 0 0 1-.09 1l.02.01zm130-.47a.503.503 0 0 1-.11-1l1-.22a.512.512 0 0 1 .22 1l-1 .22h-.11zM299 87h-.1l-1-.2a.5.5 0 0 1-.39-.59.49.49 0 0 1 .59-.39l1 .2a.502.502 0 0 1-.1 1V87zm-74.65-.42a.5.5 0 0 1-.27-.92l.84-.54a.5.5 0 1 1 .54.84l-.85.54a.5.5 0 0 1-.22.11l-.04-.03zm216.44-.22a.504.504 0 0 1-.12-1l1-.23a.513.513 0 0 1 .23 1l-1 .23h-.11zm-147.66-.61h-.11l-1-.22a.512.512 0 0 1 .22-1l1 .22a.503.503 0 0 1-.11 1zM446.65 85a.504.504 0 0 1-.12-1l1-.25a.515.515 0 0 1 .25 1l-1 .25h-.13zm-159.34-.5h-.11l-1-.23a.513.513 0 0 1 .23-1l1 .23a.503.503 0 0 1-.11 1h-.01zm165.14-1a.504.504 0 0 1-.13-1l1-.27a.518.518 0 0 1 .27 1l-1 .27h-.14zm-223.06-.11a.5.5 0 0 1-.29-.91l.82-.57a.502.502 0 1 1 .58.82l-.82.58a.5.5 0 0 1-.29-.02v.1zm52.09-.39h-.12l-1-.25a.515.515 0 1 1 .25-1l1 .24a.504.504 0 0 1-.12 1l-.01.01zm176.74-1.28a.505.505 0 0 1-.14-1l1-.28a.52.52 0 0 1 .28 1l-1 .28h-.14zm-182.55-.23h-.13l-1-.26a.517.517 0 0 1 .26-1l1 .26a.504.504 0 1 1-.13 1zM464 80a.506.506 0 0 1-.15-1l1-.3a.49.49 0 0 1 .63.33.5.5 0 0 1-.33.63l-1 .3-.15.04zm-194.09-.08h-.14l-1-.28a.5.5 0 0 1-.34-.62.49.49 0 0 1 .62-.34l1 .27a.505.505 0 0 1-.14 1v-.03zm-35.63-.18a.5.5 0 0 1-.3-.9l.79-.61a.5.5 0 1 1 .61.79l-.8.61a.5.5 0 0 1-.33.13l.03-.02zm29.87-1.51h-.14l-1-.29a.52.52 0 0 1 .29-1l1 .29a.505.505 0 0 1-.14 1h-.01zm205.56-.06a.506.506 0 0 1-.16-1l.95-.31a.501.501 0 0 1 .32.95l-1 .31-.11.05zm-211.32-1.71h-.15l-1-.31a.523.523 0 0 1 .31-1l.95.31a.506.506 0 0 1-.15 1h.04zm217-.19a.506.506 0 0 1-.16-1l.94-.33a.5.5 0 0 1 .33.94l-.95.33-.16.06zM238.94 76a.5.5 0 0 1-.32-.88l.76-.64a.5.5 0 0 1 .65.76l-.77.65a.5.5 0 0 1-.32.11zm13.75-1.46h-.16l-.95-.33a.5.5 0 0 1 .33-.94l.94.33a.506.506 0 0 1-.16 1v-.06zM481 74.25a.507.507 0 0 1-.17-1l.94-.34a.502.502 0 0 1 .35.94l-.94.34a.5.5 0 0 1-.18.06zm-234-1.71a.49.49 0 0 1-.17 0l-.94-.35a.502.502 0 1 1 .35-.94l.93.35a.507.507 0 0 1-.17 1v-.06zm239.61-.39a.508.508 0 0 1-.18-1l.93-.36a.5.5 0 0 1 .36.93l-.93.36a.5.5 0 0 1-.14.08l-.04-.01zm-243.18-.09a.5.5 0 0 1-.34-.87l.73-.68a.5.5 0 0 1 .68.73l-.74.68a.5.5 0 0 1-.3.15l-.03-.01zm-2-1.68a.51.51 0 0 1-.19 0l-.93-.37a.502.502 0 1 1 .38-.93l.92.37a.509.509 0 0 1-.19 1l.01-.07zM492.24 70a.509.509 0 0 1-.19-1l.93-.37a.5.5 0 1 1 .37.93l-.93.37a.5.5 0 0 1-.18.07zm-256.35-1.91a.5.5 0 0 1-.2 0l-.92-.4a.502.502 0 0 1 .4-.92l.91.4a.51.51 0 0 1-.2 1l.01-.08zm11.9-.18a.5.5 0 0 1-.36-.85l.7-.71a.502.502 0 1 1 .72.7l-.7.72a.5.5 0 0 1-.36.13v.01zm250-.19a.509.509 0 0 1-.19-1l.92-.38a.5.5 0 0 1 .38.92l-.92.38a.51.51 0 0 1-.18.07l-.01.01zM230.42 65.6a.5.5 0 0 1-.21 0l-.91-.44a.5.5 0 1 1 .44-.9l.9.43a.512.512 0 0 1-.22 1v-.09zm272.9-.23a.51.51 0 0 1-.2-1L504 64a.502.502 0 0 1 .4.92l-.92.4a.49.49 0 0 1-.16.05zm-251.44-1.86a.5.5 0 0 1-.37-.83l.65-.75a.5.5 0 1 1 .76.65l-.66.76a.5.5 0 0 1-.38.17zm256.94-.56a.51.51 0 0 1-.21-1l.91-.41a.5.5 0 0 1 .41.91l-.91.41a.49.49 0 0 1-.2.09zm-283.76-.05a.5.5 0 0 1-.23-.06l-.88-.48a.501.501 0 0 1 .48-.88l.88.47a.5.5 0 0 1-.24.94l-.01.01zm289.22-2.44a.51.51 0 0 1-.21-1l.91-.42a.501.501 0 0 1 .42.91l-.91.42a.49.49 0 0 1-.21.09zm-294.43-.54a.5.5 0 0 1-.26-.07l-.85-.53a.5.5 0 0 1 .53-.85l.85.53a.5.5 0 0 1-.26.93l-.01-.01zm35.84-1a.5.5 0 0 1-.4-.8l.6-.79a.5.5 0 1 1 .8.6l-.61.8a.5.5 0 0 1-.39.14v.05zm264-1a.512.512 0 0 1-.22-1l.9-.43a.5.5 0 0 1 .44.9l-.9.43a.5.5 0 0 1-.2.07l-.02.03zm-304.82-1.35a.5.5 0 0 1-.3-.1l-.8-.61a.5.5 0 1 1 .61-.79l.79.6a.5.5 0 0 1-.3.9zm310.23-1.3a.5.5 0 0 1-.22-.95l.89-.44.44.9-.89.44a.5.5 0 0 1-.22.04v.01zM259.15 54a.5.5 0 0 1-.42-.77l.53-.84a.5.5 0 0 1 .85.53l-.54.85a.5.5 0 0 1-.42.23zm-48.84-1.3a.5.5 0 0 1-.35-.15l-.7-.73a.5.5 0 0 1 .73-.68l.68.71a.5.5 0 0 1-.35.85h-.01zm320.15-.11a.5.5 0 0 1-.23-.95l.89-.45a.5.5 0 1 1 .46.89l-.89.46a.5.5 0 0 1-.22.03l-.01.02zm5.34-2.75a.5.5 0 0 1-.23-.94l.89-.46a.5.5 0 1 1 .47.88l-.89.46a.5.5 0 0 1-.24.03v.03zm-273.66-1.08a.49.49 0 0 1-.22-.05.5.5 0 0 1-.22-.67l.43-.89a.503.503 0 1 1 .91.43l-.44.91a.5.5 0 0 1-.46.27zm-55.45-.81a.5.5 0 0 1-.44-.27 13.13 13.13 0 0 1-.45-.93.502.502 0 1 1 .92-.4c.127.287.267.573.42.86a.5.5 0 0 1-.21.68.49.49 0 0 1-.25.06h.01zM541.11 47a.5.5 0 0 1-.24-.94l.88-.47a.5.5 0 1 1 .47.88l-.88.47a.5.5 0 0 1-.23.06zm5.29-2.85a.5.5 0 0 1-.24-.94l.88-.48a.501.501 0 1 1 .48.88l-.88.48a.5.5 0 0 1-.24.07v-.01zm-282-.95h-.15a.5.5 0 0 1-.33-.63c.1-.313.193-.627.28-.94a.517.517 0 0 1 1 .26c-.087.32-.183.653-.29 1a.5.5 0 0 1-.5.33l-.01-.02zm-58.89-1h-.08a.5.5 0 0 1-.42-.57 8.48 8.48 0 0 1 .23-1 .52.52 0 0 1 1 .28 7.19 7.19 0 0 0-.2.91.5.5 0 0 1-.53.41v-.03zm346.17-.93a.5.5 0 0 1-.24-.94l.88-.47a.5.5 0 0 1 .47.88l-.88.47a.5.5 0 0 1-.22.09l-.01-.03zm5.32-2.78a.5.5 0 0 1-.23-.94l.9-.46a.5.5 0 1 1 .45.89l-.89.45a.49.49 0 0 1-.23.06zm-291.53-1.15a.5.5 0 0 1-.49-.51v-.45-.52a.5.5 0 0 1 .48-.52c.272 0 .5.209.52.48v1.03a.5.5 0 0 1-.51.49zM208.31 37a.5.5 0 0 1-.36-.85c.233-.24.48-.48.74-.72a.5.5 0 0 1 .67.74c-.247.22-.48.443-.7.67a.5.5 0 0 1-.35.16zm4.78-3.58a.5.5 0 0 1-.25-.93l.89-.49a.5.5 0 1 1 .47.88l-.86.48a.5.5 0 0 1-.25.09v-.03zm51.23-1.94a.5.5 0 0 1-.45-.28c-.14-.28-.293-.557-.46-.83a.5.5 0 1 1 .85-.53c.186.298.356.605.51.92a.5.5 0 0 1-.45.72zm-45.82-.65a.509.509 0 0 1-.19-1l.94-.37a.5.5 0 0 1 .36.93l-.92.36a.51.51 0 0 1-.19.12v-.04zm5.66-2a.506.506 0 0 1-.15-1l1-.29a.52.52 0 0 1 .29 1l-1 .29h-.14zm5.78-1.61a.504.504 0 0 1-.12-1l1-.24a.48.48 0 0 1 .62.29.52.52 0 0 1-.3.66L231 27l-.92.23-.14-.01zm30.33-.05a.5.5 0 0 1-.26-.07 12.48 12.48 0 0 0-.84-.46.5.5 0 0 1 .45-.89c.313.16.617.327.91.5a.5.5 0 0 1-.26.93v-.01zM235.79 26a.502.502 0 0 1-.1-1l1-.19a.508.508 0 0 1 .18 1l-1 .18-.08.01zm18.87-.8h-.1l-1-.17a.506.506 0 0 1 .16-1l1 .18a.502.502 0 0 1-.1 1l.04-.01zm-12.95-.2a.5.5 0 0 1-.06-1l1-.11a.502.502 0 0 1 .1 1l-1 .11h-.04zm6-.42a.5.5 0 0 1 0-1h1a.5.5 0 0 1 0 1h-1z" fill="#A3DEFF"/>
    </g>
</svg>
