<svg width="544" height="480" viewBox="0 0 544 480" xmlns="http://www.w3.org/2000/svg">
    <defs>
        <linearGradient x1="85.045%" y1="85.499%" x2="19.62%" y2="19.225%" id="a">
            <stop stop-color="#3394FF" stop-opacity=".6" offset="0%"/>
            <stop stop-color="#FFF" stop-opacity="0" offset="100%"/>
        </linearGradient>
        <linearGradient x1="14.955%" y1="85.494%" x2="96.991%" y2="2.397%" id="b">
            <stop stop-color="#3394FF" stop-opacity=".6" offset="0%"/>
            <stop stop-color="#3E9AFF" stop-opacity=".57" offset="12%"/>
            <stop stop-color="#5DAAFF" stop-opacity=".48" offset="32%"/>
            <stop stop-color="#90C5FF" stop-opacity=".33" offset="56%"/>
            <stop stop-color="#D5E9FF" stop-opacity=".12" offset="85%"/>
            <stop stop-color="#FFF" stop-opacity="0" offset="100%"/>
        </linearGradient>
    </defs>
    <g transform="translate(-15)" fill-rule="nonzero" fill="none">
        <path d="M457.364 214.53L294.577 120.55c-5.63-3.252-14.73-3.252-20.324 0L112.525 214.53c-5.596 3.251-5.566 8.52.063 11.773l162.788 93.978c5.63 3.252 14.73 3.252 20.324 0l161.727-93.978c5.594-3.252 5.564-8.522-.066-11.773" fill="#EAEAEA"/>
        <path d="M552.523 313.315l-250.77-144.78c-8.51-4.913-22.258-4.913-30.71 0L21.918 313.317c-8.452 4.913-8.407 12.878.1 17.787L272.771 475.9c8.51 4.912 22.258 4.912 30.71 0l249.14-144.785c8.452-4.912 8.407-12.877-.1-17.787" opacity=".05" fill="#050505"/>
        <path d="M552.52 267.977l-250.767-144.78c-8.51-4.913-22.255-4.913-30.707 0L21.903 267.98c-8.452 4.913-8.407 12.875.102 17.787l250.767 144.794c8.51 4.912 22.255 4.912 30.707 0l249.14-144.785c8.452-4.912 8.407-12.874-.102-17.787" fill="#D8EAFF"/>
        <path d="M462.688 213.86l-165.961-95.816c-5.63-3.252-14.73-3.252-20.325 0l-164.88 95.82c-5.593 3.25-5.563 8.52.066 11.772l165.958 95.816c5.63 3.252 14.73 3.252 20.324 0l164.884-95.819c5.593-3.252 5.563-8.521-.066-11.773" fill="#D1D1D1"/>
        <path d="M462.688 211.014l-165.961-95.817c-5.63-3.251-14.73-3.251-20.325 0l-164.88 95.817c-5.593 3.251-5.563 8.52.066 11.773l165.958 95.816c5.63 3.252 14.73 3.252 20.324 0l164.88-95.816c5.594-3.252 5.564-8.522-.066-11.773" fill="#FFF"/>
        <path d="M257.111 194.04c-8.824 5.132-10.382 12.611-3.459 16.65 6.924 4.038 19.817 3.122 28.635-2.01 8.819-5.13 10.383-12.61 3.46-16.648-6.924-4.039-19.808-3.123-28.636 2.009z" opacity=".15" fill="#050505"/>
        <circle fill="#FFB522" cx="274.799" cy="14.823" r="14.823"/>
        <path d="M280.798 13.85l-2.198 2.048a.799.799 0 0 0-.228.682l.568 3.002a.736.736 0 0 1-1.1.796l-2.654-1.477a.802.802 0 0 0-.72 0l-2.702 1.516a.748.748 0 0 1-1.1-.796l.568-3.002a.733.733 0 0 0-.228-.682l-2.237-2.083a.775.775 0 0 1 .417-1.328l3.033-.378a.79.79 0 0 0 .6-.417l1.313-2.771a.76.76 0 0 1 1.363 0l1.288 2.768c.108.239.338.4.6.417l3.033.378a.763.763 0 0 1 .384 1.328zM293.622 69.18c3.198 6.787 4.642 17.68 5.17 27.132l-9.284.97-8.875-22.877" fill="#FFF"/>
        <path d="M291.571 116.281s-.333 3.387-.561 4.345c-.147.6-.237 1.03-.352 1.474-.159.6-.198.919 0 1.066.199.147.556.192.901-1.054a5.435 5.435 0 0 1-1.147 2.282c-.666.718-1.64 1.444-1.38 1.823.257.378.972 0 .972 0s.084.6.967.129c0 0 .105.495 1-.13 0 0 .35.412 1.177-.41.825-.823 3.762-4 3.822-9.936l-5.399.411z" fill="#FFCFAE"/>
        <path d="M298.777 96.123c.925 16.534-1.645 21.618-1.645 21.618l-5.609.15-2.015-20.61" fill="#FFF"/>
        <circle fill="#FFF" cx="294.108" cy="96.396" r="4.669"/>
        <circle fill="#FFF" cx="287.323" cy="72.283" r="7.02"/>
        <path d="M261.054 207.864c1.897 1.898 4.203 2.678 5.14 1.736.937-.943.165-3.243-1.733-5.144-1.897-1.9-4.203-2.678-5.14-1.738-.567.567-.528 2.053-.528 2.624.324.591 1.507 1.768 2.26 2.522z" fill="#444549"/>
        <path d="M261.069 205.885c1.243 1.186 2.726 1.649 3.302 1.033.577-.615.057-2.074-1.186-3.26-1.243-1.186-2.726-1.646-3.302-1.03-.577.615-.054 2.074 1.186 3.257z" fill="#FFCFAE"/>
        <path d="M278.057 198.13c1.822 1.822 4.032 2.573 4.939 1.666.907-.906.16-3.113-1.663-4.939-1.823-1.825-4.033-2.573-4.937-1.67-.546.544-.507 1.973-.507 2.523.3.567 1.444 1.696 2.168 2.42z" fill="#444549"/>
        <path d="M278.069 196.232c1.2 1.138 2.618 1.583 3.183.991.564-.591.054-1.99-1.138-3.128-1.192-1.138-2.619-1.583-3.18-.991-.562.591-.054 1.99 1.135 3.128z" fill="#FFCFAE"/>
        <path d="M259.36 172.275s-4.822-27.007-7.206-44.323l37.075-7.023c.177 8.407.469 24.47-.477 36.084-1.426 17.496-7.807 37.763-7.807 37.763-.132.634-.495 1.051-1.903 1.051-1.57 0-2.351-1.24-2.351-1.979l.321-27.374-3.05-23.885s-1.487 17.802-2.589 27.323c-1.102 9.521-7.506 34.53-7.506 34.53 0 .993.045 1.233-1.651 1.233-1.697 0-2.57-1.165-2.58-2.15l-.276-31.25z" fill="#FFCFAE"/>
        <path d="M268.176 162.883c-1.738.45-3.547.56-5.327.325-5.464-.766-11.205-6.696-11.205-6.696v-6.972c0-7.392.027-35.462.027-35.462.186-1.928.42-3.757.732-5.48 1.054-5.173 3.027-8.257 7.336-11.689a14.454 14.454 0 0 1 1.882-1.243c5.489-3.095 15.988-5.503 22.82-2.88 8.968 3.454 8.965 14.07 8.968 14.05v40.305a91.448 91.448 0 0 1-10.998 8.407c-5.756 3.687-12.875 6.975-14.235 7.335z" fill="#9B9B9B"/>
        <path d="M250.007 79.906c-1.372 9.629-.852 45.827-.852 45.827 0 7.726 1.945 13.812 12.541 15.295 1.802.252 3.93.072 5.96-.363 8.191-1.75 18.132-7.666 22.012-11.17 6.497-5.872 6.23-11.41 6.23-16.252v-35.31c0 .024 0-11.863-10.04-15.724-7.639-2.94-19.39-.243-25.522 3.222-.018-.003-8.9 4.44-10.329 14.475z" fill="#FFF"/>
        <path d="M250.773 76.672c1.084-1.129 2.441-1.912 4.134-1.912 6.129 0 5.705 6.941 5.705 6.941v38.961c0 14.986 3.4 19.144 5.612 20.264a16.214 16.214 0 0 1-4.534.105c-10.596-1.486-12.541-7.57-12.541-15.295 0 0-.52-36.198.852-45.827.159-1.1.417-2.183.772-3.237z" fill="#000" opacity=".1"/>
        <path d="M255.697 134.528s.27 3.393.484 4.353c.135.6.219 1.033.324 1.48.147.616.18.922-.027 1.066-.207.145-.559.184-.901-1.068.18.844.56 1.634 1.108 2.302.652.727 1.612 1.475 1.345 1.847-.267.372-.973-.018-.973-.018s-.096.6-.97.114c0 0-.114.493-.996-.15 0 0-.36.405-1.168-.432-.808-.838-3.69-4.066-3.642-10.005l5.416.51z" fill="#FFCFAE"/>
        <path d="M257.063 110.922l-.927 27.47-5.378-.168s-4.107-10.81-5.104-28.059" fill="#FFF"/>
        <circle fill="#FFF" transform="rotate(-88.97 251.377 110.184)" cx="251.377" cy="110.184" r="5.738"/>
        <path d="M265.774 82.053l-8.939 29.896-11.196-1.868s-.177-2.774-.18-5.756c0-12.538 1.78-21.969 5.17-28.653" fill="#FFF"/>
        <circle fill="#FFF" transform="rotate(-89.78 258.016 79.33)" cx="258.016" cy="79.33" r="8.227"/>
        <path d="M284.72 59.017a5.023 5.023 0 0 1-4.144 1.33c.318-.498.937-1.834 1.201-2.401.573.627 2.561 1.134 2.942 1.071z" fill="#A34848"/>
        <path d="M276.637 42.636c2.579-.102 5.605.534 7.1 3.023.961 1.6.901 4.504.976 6.675.157 3.903-1.402 7.999-3.825 10.124v1.039c-.027.835-.6 1.67-1.693 2.306-2.25 1.3-5.885 1.3-8.107 0-1.078-.627-1.63-1.441-1.663-2.264V53.313c0-.123-.018-.244-.021-.367-.262-5.524 2.996-10.14 7.233-10.31z" fill="#FFCFAE"/>
        <path d="M277.49 63.933a5.495 5.495 0 0 0 3.395-1.48v1.038c-.027.835-.6 1.67-1.693 2.306-2.25 1.3-5.885 1.3-8.107 0-1.078-.627-1.63-1.441-1.663-2.264V53.313c.327 5.404 3.924 10.785 8.067 10.62z" fill="#3A2416" opacity=".08"/>
        <path d="M270.307 57.48c.931 2.024 2.958 1.39 2.958 1.39s-1.264 2.34-3.88 2.054v.7a4.684 4.684 0 0 1-.567-.163c-4.24.901-8.6-4.068-6.882-10.37 1.066-3.903 2.592-7.645 5.579-11.34 2.988-3.697 5.585-2.051 5.585-2.051 3.534-3.171 9.256.831 13.64 6.062 3.198 3.822 2.102 7.716-.222 9.286a3.303 3.303 0 0 1-1.802.574c.024-.43.03-.859 0-1.285-.036-.886-.045-1.895-.108-2.889-3.525-.198-5.614-1.732-5.614-1.732.146.319.326.62.537.9.306.34.686.604 1.111.772a11.11 11.11 0 0 1-4.309-.75c-2.483-.958-3.603-2.48-3.603-2.48l-.546 6.905a1.405 1.405 0 0 0-2.783.27c.006 1.431.315 2.844.906 4.147z" fill="#424242"/>
        <path fill="#FFF" d="M200.721 140.563l72.475 42.302-.123 64.107-38.73 22.429-72.49-42.3.13-64.106z"/>
        <path fill="#000" opacity=".2" d="M161.983 162.995l72.483 42.302-.123 64.104-72.49-42.303z"/>
        <path fill="#000" opacity=".1" d="M273.196 182.865l-38.73 22.432-.123 64.104 38.73-22.43z"/>
        <path fill="#FFF" d="M273.196 182.865l-38.73 22.432-72.405-42.173.003-2.81 38.73-22.433 72.408 42.174z"/>
        <path fill="#000" opacity=".2" d="M234.466 205.297l-72.405-42.173.003-2.81 72.405 42.17z"/>
        <path fill="#000" opacity=".1" d="M234.466 205.297l38.73-22.432.006-2.81-38.733 22.429z"/>
        <path fill="#FFF" opacity=".2" d="M121.422 218.826l165.46 93.027v.003l-1.7.952-165.397-93.027z"/>
        <path fill="#CECECE" d="M121.353 218.826l-1.637.952.003-151.558-.006-.003 1.634-.955z"/>
        <path fill="#FFF" opacity=".5" d="M121.353 218.826l-1.637.952.003-151.558-.006-.003 1.634-.955z"/>
        <path fill="#FFF" d="M285.083 312.811l-165.397-93.033 165.397 93.03z"/>
        <path fill="#D6E5F2" opacity=".4" d="M119.677 68.22l1.652-.805 165.405 93.18h.006l.003 151.414-1.651.874-165.415-93.105V68.004"/>
        <path fill="#000" opacity=".2" d="M286.746 311.86l-1.636.948.003-151.558-.006-.003 1.636-.952z"/>
        <path fill="#FFF" d="M121.347 67.265l165.396 93.027v.003l-1.636.952L119.713 68.22z"/>
        <path fill="#E8E8E8" d="M119.713 68.22l1.634-.955 165.396 93.027v.003l.003 151.564-1.636.949.003-151.558-.006-.003z"/>
        <path fill="#FFF" opacity=".2" d="M286.746 311.86l-1.636.948.003-151.558-.006-.003 1.636-.952z"/>
        <path fill="#FFF" opacity=".08" d="M121.347 67.265l165.396 93.027v.003l-1.636.952L119.713 68.22z"/>
        <g opacity=".3" fill="#FFF">
            <path d="M245.585 127.757L158.71 264.239l19.273 16.25 96.82-132.072z"/>
            <path d="M233.887 125.986L149.105 251.94l6.768 7.731 87.436-128.264zM280.042 146.445l-90.247 130.36v3.816l92.97-123.68z"/>
        </g>
        <path fill="#FFF" d="M371.249 141.764l-72.478 42.302.126 64.107 38.73 22.429 72.49-42.3-.133-64.106z"/>
        <path fill="#000" opacity=".2" d="M409.984 164.196l-72.483 42.302.126 64.104 72.49-42.303z"/>
        <path fill="#000" opacity=".1" d="M298.771 184.066l38.73 22.432.126 64.104-38.73-22.43z"/>
        <path fill="#FFF" d="M298.771 184.066l38.73 22.432 72.405-42.173-.003-2.81-38.73-22.433-72.405 42.174z"/>
        <path fill="#000" opacity=".2" d="M337.5 206.498l72.406-42.173-.003-2.81-72.405 42.17z"/>
        <path fill="#000" opacity=".1" d="M337.5 206.498l-38.729-22.432-.003-2.81 38.73 22.429z"/>
        <path d="M199.037 314.664l-162.905-94.06c-8.233-4.753-21.543-4.753-29.725 0-8.181 4.753-8.136 12.463.096 17.216l162.905 94.054c8.233 4.753 21.54 4.753 29.725 0 8.185-4.753 8.14-12.463-.096-17.216" fill="url(#a)"/>
        <path d="M291.142 368.409l162.904-94.054c8.233-4.753 21.543-4.753 29.725 0 8.182 4.753 8.137 12.463-.096 17.216l-162.904 94.054c-8.233 4.753-21.54 4.753-29.725 0-8.185-4.753-8.14-12.463.096-17.216" fill="url(#b)"/>
        <path fill="#FFF" opacity=".2" d="M450.275 219.427l-165.46 93.027v.003l1.7.951 165.393-93.026z"/>
        <path fill="#CECECE" d="M450.344 219.427l1.637.952-.003-151.558.006-.003-1.637-.955z"/>
        <path fill="#FFF" opacity=".5" d="M450.344 219.427l1.637.952-.003-151.558.006-.003-1.637-.955z"/>
        <path fill="#FFF" d="M286.614 313.411l165.397-93.032-165.397 93.03z"/>
        <path fill="#D6E5F2" opacity=".4" d="M452.02 68.82l-1.655-.804-165.402 93.18h-.006l-.006 151.414 1.654.874 165.415-93.105V68.604"/>
        <path fill="#000" opacity=".2" d="M284.948 312.46l1.636.948-.003-151.557.006-.003-1.633-.952z"/>
        <path fill="#FFF" d="M450.347 67.866l-165.393 93.027v.003l1.633.952L451.984 68.82z"/>
        <path fill="#E8E8E8" d="M451.984 68.82l-1.637-.954-165.393 93.027v.003l-.006 151.564 1.636.948-.003-151.557.006-.003z"/>
        <path fill="#FFF" opacity=".2" d="M284.948 312.46l1.636.948-.003-151.557.006-.003-1.633-.952z"/>
        <path fill="#FFF" opacity=".08" d="M450.347 67.866l-165.393 93.027v.003l1.633.952L451.984 68.82z"/>
        <g opacity=".3" fill="#FFF">
            <path d="M325.058 131.36l87.926 133.48-19.273 16.25-97.867-129.07zM336.306 126.784l86.283 125.758-6.765 7.731-88.94-128.066zM301.464 160.055l80.438 117.35v3.817l-83.164-110.667z"/>
        </g>
        <path d="M204.916 239.685s-.328 3.32-.577 4.257c-.144.577-.231 1.006-.345 1.445-.156.576-.195.9 0 1.047.195.148.54.19.9-1.03a5.332 5.332 0 0 1-1.15 2.237c-.65.703-1.612 1.415-1.35 1.802.26.387.954 0 .954 0s.087.576.95.126c0 0 .101.483.978-.126 0 0 .345.402 1.15-.402.805-.805 3.687-3.904 3.744-9.74l-5.254.384z" fill="#FFCFAE"/>
        <path d="M211.978 219.922c.9 16.214-1.616 21.189-1.616 21.189l-5.488.156-1.973-20.195" fill="#FFF"/>
        <circle fill="#FFF" cx="207.408" cy="220.186" r="4.579"/>
        <path d="M206.93 193.512c3.135 6.65 4.552 17.337 5.069 26.605l-9.101.967-8.707-22.438" fill="#FFF"/>
        <circle fill="#FFF" cx="200.751" cy="196.539" r="6.882"/>
        <path d="M176.746 329.478c1.859 1.864 4.12 2.624 5.041 1.726.922-.897.162-3.182-1.726-5.047-1.889-1.864-4.12-2.624-5.041-1.726-.577.576-.517 2.014-.517 2.573a17.261 17.261 0 0 0 2.243 2.474z" fill="#081B2F"/>
        <ellipse fill="#FFCFAE" transform="rotate(-46.32 177.805 326.442)" cx="177.805" cy="326.442" rx="1.507" ry="3.051"/>
        <path d="M193.413 319.933c1.801 1.801 3.951 2.52 4.843 1.633.892-.885.156-3.056-1.633-4.843-1.79-1.786-3.952-2.519-4.843-1.633-.535.534-.496 1.934-.496 2.474.632.856 1.345 1.65 2.129 2.369z" fill="#081B2F"/>
        <ellipse fill="#FFCFAE" transform="rotate(-46.32 194.425 317.056)" cx="194.425" cy="317.056" rx="1.45" ry="2.927"/>
        <path d="M174.524 294.586s-4.729-26.461-7.059-43.465l36.352-6.905c.17 8.256.46 23.993-.466 35.378-1.399 17.157-7.308 36.961-7.308 36.961-.132.622-.823 1.099-2.204 1.099-1.537 0-2.606-.516-2.606-1.243l.628-27.533-3.003-23.42s-1.456 17.457-2.537 26.777c-1.08 9.32-6.605 33.3-6.605 33.3 0 .98-.715 1.772-2.375 1.772-1.66 0-2.796-.72-2.808-1.684l-.009-31.037z" fill="#9B9B9B"/>
        <path d="M164.162 204.018c-1.345 9.443-.825 44.935-.825 44.935 0 7.579 1.91 13.545 12.295 15.013 1.955.211 3.931.09 5.846-.357 8.056-1.727 17.778-7.507 21.582-10.932 6.368-5.753 6.11-11.197 6.11-15.938v-34.67s0-11.635-9.845-15.418c-7.48-2.876-18.988-.24-25.032 3.159-.015.015-8.725 4.372-10.13 14.208z" fill="#FFF"/>
        <path d="M164.91 200.85a5.528 5.528 0 0 1 4.026-1.876c6.006 0 5.597 6.806 5.597 6.806v38.195c0 14.695 3.33 18.769 5.5 19.868-1.47.242-2.966.277-4.446.102-10.392-1.456-12.295-7.422-12.295-15.013 0 0-.514-35.492.834-44.935.166-1.07.429-2.124.784-3.147z" fill="#D8D8D8"/>
        <path d="M169.744 257.577s.264 3.327.472 4.27c.132.576.213 1.011.315 1.45.144.6.177.9 0 1.041-.177.142-.577.178-.868-1.047.178.827.55 1.6 1.087 2.254.64.715 1.582 1.445 1.318 1.802s-.955 0-.955 0-.093.576-.948.108c0 0-.109.483-.98-.144 0 0-.35.396-1.15-.426-.798-.823-3.617-3.988-3.572-9.783l5.281.475z" fill="#FFCFAE"/>
        <path d="M171.086 234.427l-.9 26.933-5.276-.162s-4.026-10.593-5.017-27.512" fill="#FFF"/>
        <circle fill="#FFF" transform="rotate(-88.97 165.506 233.704)" cx="165.506" cy="233.704" r="5.627"/>
        <path d="M179.622 206.12l-8.76 29.343-10.978-1.828s-.171-2.72-.177-5.645c0-12.295 1.726-21.54 5.068-28.095" fill="#FFF"/>
        <circle fill="#FFF" transform="rotate(-89.78 172.008 203.437)" cx="172.008" cy="203.437" r="8.068"/>
        <path d="M190.392 164.592c2.823-.114 6.14.585 7.774 3.303 1.054 1.753.973 4.942 1.066 7.31.174 4.28-1.531 8.762-4.186 11.089v1.141c-.027.9-.645 1.829-1.852 2.522-2.465 1.423-6.447 1.423-8.897 0-1.18-.687-1.783-1.576-1.822-2.477v-11.193c0-.135-.018-.268-.024-.4-.264-6.053 3.303-11.109 7.941-11.295z" fill="#FFCFAE"/>
        <path d="M183.28 179.358a18.355 18.355 0 0 0-.448-2.5c-.417-1.901 1.036-2.073 1.036-2.073.787-.063 1.297.49 1.456 1.24l.177 3.027 1.108.36s-.33-2.183-.33-2.804c0-3.456.802-3.642.802-3.642l.423-2.702s7.023.846 11.04-1.294c.396 1.548.612 3.137.643 4.734 0 0 .838-5.734-.493-9.253-1.33-3.52-3.53-5.258-7.248-5.23 0 0-11.202-.901-12.202 6.71 0 0-1.11 8.536 3.234 15.745.003-.003.795-2.357.801-2.318z" fill="#424242"/>
        <path d="M191.326 187.915a6.005 6.005 0 0 0 3.72-1.612v1.141c-.027.9-.645 1.829-1.852 2.522-2.465 1.423-6.447 1.423-8.897 0-1.18-.687-1.783-1.576-1.822-2.477v-11.202c.378 5.92 4.314 11.812 8.851 11.628z" fill="#3A2416" opacity=".08"/>
        <path d="M314.468 383.19c-1.912 1.913-4.233 2.702-5.182 1.75-.949-.951-.165-3.27 1.747-5.185 1.913-1.916 4.234-2.702 5.183-1.75.573.57.531 2.071.531 2.645-.321.594-1.519 1.78-2.279 2.54z" fill="#444549"/>
        <path d="M314.453 381.2c-1.252 1.2-2.747 1.66-3.338 1.038-.592-.621-.057-2.102 1.2-3.285 1.259-1.183 2.748-1.66 3.34-1.038.59.621.047 2.092-1.202 3.284z" fill="#FFCFAE"/>
        <path d="M297.33 373.38c-1.838 1.838-4.065 2.595-4.978 1.682-.913-.913-.16-3.138 1.678-4.978 1.838-1.84 4.066-2.591 4.978-1.681.55.549.51 1.987.51 2.54-.305.57-1.455 1.708-2.188 2.438z" fill="#444549"/>
        <path d="M297.318 371.468c-1.201 1.147-2.64 1.594-3.207 1-.567-.595-.054-2.006 1.147-3.156 1.201-1.15 2.64-1.594 3.207-.997.567.598.054 2.006-1.147 3.153z" fill="#FFCFAE"/>
        <path d="M316.75 347.325s4.861-27.218 7.257-44.672l-37.369-7.082c-.177 8.485-.474 24.662.48 36.369 1.439 17.634 7.507 37.99 7.507 37.99.132.64.846 1.13 2.264 1.127 1.579 0 2.68-.532 2.68-1.28l-.636-28.304 3.09-24.071s1.501 17.943 2.61 27.524c1.107 9.58 6.776 34.229 6.776 34.229 0 1.002.732 1.82 2.444 1.82 1.711 0 2.873-.743 2.885-1.736l.012-31.914z" fill="#9B9B9B"/>
        <path d="M285.51 290.887s.335 3.413.567 4.377c.147.616.237 1.036.354 1.487.159.618.198.924 0 1.074-.198.15-.559.196-.9-1.06a5.477 5.477 0 0 0 1.155 2.3c.67.721 1.651 1.457 1.39 1.838-.261.381-.982 0-.982 0s-.084.619-.975.132c0 0-.105.499-1.01-.132 0 0-.354.414-1.185-.414-.832-.829-3.792-4.03-3.852-10.014l5.437.412z" fill="#FFCFAE"/>
        <path d="M278.246 270.572c-.93 16.667 1.997 21.792 1.997 21.792l5.314.144 2.03-20.756" fill="#FFCFAE"/>
        <circle fill="#FFCFAE" cx="282.951" cy="270.848" r="4.705"/>
        <path d="M283.437 243.417c-3.224 6.837-4.678 17.817-5.212 27.344l9.356.99 8.944-23.056" fill="#FFF"/>
        <circle fill="#FFF" cx="289.791" cy="246.542" r="7.074"/>
        <path d="M290.169 270.863a2 2 0 0 1-2.174 1.801l-9.473-.855a2 2 0 0 1-1.801-2.171l.204-2.255a2 2 0 0 1 2.17-1.802l9.474.856a2 2 0 0 1 1.801 2.174l-.201 2.252z" fill="#FFF"/>
        <path d="M327.403 254.226c1.384 9.704.859 46.19.859 46.19 0 7.786-1.96 13.92-12.64 15.416-1.817.255-3.961.072-6.006-.367-8.257-1.765-18.273-7.722-22.182-11.256-6.549-5.918-6.279-11.509-6.279-16.382v-35.589c0 .024 0-11.956 10.119-15.85 7.698-2.96 19.54-.246 25.734 3.249-.006 0 8.951 4.467 10.395 14.589z" fill="#FFF"/>
        <path d="M326.629 250.968c-1.093-1.138-2.463-1.927-4.168-1.927-6.176 0-5.756 6.998-5.756 6.998v39.264c0 15.103-3.426 19.294-5.656 20.417 1.51.25 3.049.285 4.57.106 10.68-1.502 12.64-7.63 12.64-15.415 0 0 .525-36.484-.859-46.191a18.529 18.529 0 0 0-.771-3.252z" fill="#000" opacity=".1"/>
        <path d="M300.552 216.664c-2.6-.105-5.651.538-7.155 3.045-.967 1.612-.901 4.549-.982 6.726-.16 3.936 1.411 8.061 3.855 10.208v1.051c.027.84.6 1.681 1.706 2.324 2.266 1.31 5.933 1.31 8.184 0 1.087-.63 1.643-1.453 1.679-2.282v-10.308c0-.123.018-.246.02-.369.256-5.573-3.026-10.223-7.307-10.395z" fill="#FFCFAE"/>
        <path d="M299.702 238.126a5.543 5.543 0 0 1-3.426-1.486v1.051c.027.84.6 1.681 1.706 2.324 2.266 1.31 5.933 1.31 8.184 0 1.087-.63 1.643-1.453 1.679-2.282v-10.308c-.342 5.447-3.967 10.87-8.143 10.701z" fill="#3A2416" opacity=".08"/>
        <path d="M311.472 219.364c-.213-1.345-1.733-5.369-5.489-7.224-3.81-1.883-9.863-1.583-11.145-1.201-1.76.51-2.138 1.67-1.742 2.54 0 0-3.302.87-2.17 3.182-1.3 2.718-1.222 5.501 1.534 8.564.057-1.961.147-4.183.943-5.51a5.657 5.657 0 0 1 2.234-2.102 8.313 8.313 0 0 1 8.872 3.603l.55 5.945a1.423 1.423 0 0 1 2.81.409v4.311a11.392 11.392 0 0 0 1.997-3.002c1.933-4.156 1.966-7.24 1.606-9.515z" fill="#424242"/>
        <path d="M321.665 309.28s-.273 3.42-.486 4.39c-.135.618-.222 1.039-.327 1.501-.147.621-.18.928.027 1.075.207.147.561.186.9-1.078a5.477 5.477 0 0 1-1.116 2.32c-.658.734-1.625 1.487-1.358 1.862.268.376.982-.018.982-.018s.096.619.976.115c0 0 .114.495 1.006-.15 0 0 .363.408 1.177-.436.814-.844 3.72-4.098 3.672-10.082l-5.453.501z" fill="#FFCFAE"/>
        <path d="M320.287 285.485l.937 27.686 5.423-.168s4.137-10.89 5.158-28.28" fill="#FFCFAE"/>
        <circle fill="#FFCFAE" transform="rotate(-1.03 326.023 284.742)" cx="326.023" cy="284.742" r="5.783"/>
        <path d="M311.51 256.388l9.008 30.133 11.284-1.883s.177-2.795.18-5.8c0-12.638-1.801-22.144-5.21-28.879" fill="#FFF"/>
        <circle fill="#FFF" transform="rotate(-.22 319.34 253.636)" cx="319.34" cy="253.636" r="8.293"/>
        <path d="M332.889 285.038a2 2 0 0 1-1.739 2.23l-9.44 1.166a2 2 0 0 1-2.23-1.739l-.28-2.246a2 2 0 0 1 1.739-2.23l9.44-1.166a2 2 0 0 1 2.23 1.739l.28 2.246z" fill="#FFF"/>
        <path d="M396.728 270.605c-8.824 5.13-10.382 12.61-3.459 16.649 6.924 4.038 19.817 3.122 28.635-2.01 8.819-5.13 10.383-12.61 3.46-16.648-6.925-4.038-19.808-3.123-28.636 2.009z" opacity=".15" fill="#050505"/>
        <path d="M419.151 269.46c-1.943-1.897-4.573-2.302-5.522-1.353-.948.948-.159 3.272 1.76 5.197.787.787 1.822 1.801 2.621 2.165a2.2 2.2 0 0 0 2.573-.4c.55-.6.475-2.774.475-3.347-.256-.697-.973-1.358-1.907-2.261z" fill="#444549"/>
        <ellipse fill="#FFCFAE" transform="rotate(-48.69 417.92 270.82)" cx="417.921" cy="270.821" rx="1.708" ry="3.288"/>
        <path d="M403.139 278.471c-1.943-1.897-4.573-2.303-5.522-1.354-.949.949-.16 3.273 1.76 5.197.786.787 1.822 1.802 2.62 2.165a2.2 2.2 0 0 0 2.574-.4c.546-.6.474-2.773.474-3.347-.261-.693-.979-1.354-1.906-2.26z" fill="#444549"/>
        <ellipse fill="#FFCFAE" transform="rotate(-48.69 401.894 279.802)" cx="401.894" cy="279.802" rx="1.708" ry="3.288"/>
        <path d="M418.397 272.929c-2.24-.982-2.342-2.156-2.402-2.655 0 0-2.789-18.375-4.18-30.547-.674-6.393-1-12.818-.975-19.246l-4.272 26.497-1.976 34.198c0 .037-.216 1.433-1.964.823-1.618-.564-2.369-1.249-2.702-2.561-.225-1.117-5.047-24.53-6.236-34.529-1.216-10.235-4.204-51.06-2.66-54.267l39.495 1.345-7.735 48.977-2.192 31.028s-.135.877-.717 1.039a2.477 2.477 0 0 1-1.484-.102z" fill="#FFCFAE"/>
        <path d="M404.805 241.522c-1.628.42-3.32.522-4.987.3-5.104-.717-10.509-6.272-10.509-6.272v-6.521c0-6.924.027-33.214.027-33.214.177-1.802.393-3.516.688-5.131.987-4.846 2.834-7.732 6.87-10.947a13.532 13.532 0 0 1 1.762-1.165c5.14-2.9 14.973-5.156 21.366-2.703 8.407 3.234 8.407 13.178 8.407 13.157v37.754a85.605 85.605 0 0 1-10.302 7.86c-5.38 3.46-12.049 6.546-13.322 6.882z" fill="#9B9B9B"/>
        <path d="M432.488 147.39c3.222 6.837 4.678 17.811 5.21 27.323l-9.353.991-8.942-23.05" fill="#FFF"/>
        <path d="M430.42 194.848s-.337 3.411-.568 4.378c-.147.6-.237 1.036-.354 1.483-.16.619-.198.925 0 1.075.198.15.558.195.9-1.06a5.477 5.477 0 0 1-1.156 2.3c-.67.72-1.65 1.456-1.39 1.838.262.38.982 0 .982 0s.084.618.973.132c0 0 .105.498 1.006-.132 0 0 .354.414 1.186-.415.831-.828 3.792-4.03 3.849-10.01l-5.429.411z" fill="#FFCFAE"/>
        <path d="M437.683 174.536c.93 16.661-1.66 21.777-1.66 21.777l-5.652.154-2.03-20.75" fill="#FFF"/>
        <circle fill="#FFF" cx="432.978" cy="174.812" r="4.705"/>
        <circle fill="#FFF" cx="426.141" cy="150.513" r="7.071"/>
        <path d="M387.886 156.77c-1.384 9.701-.859 46.176-.859 46.176 0 7.782 1.96 13.914 12.638 15.412 1.816.255 3.96.072 6.005-.363 8.254-1.766 18.267-7.723 22.176-11.254 6.546-5.918 6.276-11.505 6.276-16.376V154.78c0 .024 0-11.953-10.116-15.845-7.695-2.96-19.534-.246-25.725 3.246 0 .003-8.954 4.477-10.395 14.59z" fill="#FFF"/>
        <path d="M388.658 153.513c1.092-1.138 2.462-1.928 4.164-1.928 6.176 0 5.753 6.996 5.753 6.996v39.252c0 15.1 3.423 19.288 5.654 20.417-1.51.249-3.048.284-4.567.105-10.677-1.501-12.638-7.627-12.638-15.412 0 0-.525-36.475.859-46.176.16-1.106.418-2.195.775-3.254z" fill="#000" opacity=".1"/>
        <path d="M404.766 157.2l-6.005 31.03-11.295-2.101s.069-2.366.138-5.366c.3-12.766-.832-21.993 1.47-28.644 1.097-3.167 17.415-1.801 15.68 5.072" fill="#FFF"/>
        <path d="M391.18 211.713s-2.237 6.044-2.198 7.29c.033 1.04.27 1.658-.346 1.967-.825.414-1.152-.207-1.152-.207s-.943.618-1.418-.432c0 0-.81.537-1.2-.766 0 0-.871.717-1.103-1.745-.273-2.912 2-7.425 2.021-7.479l5.396 1.372z" fill="#FFCFAE"/>
        <path d="M388.492 221.036a2.003 2.003 0 0 0 1.135-1.285c.328-1.015-.207-1.943-1.165-1.922 0-.003-1.843 3.513.03 3.207z" fill="#FFCFAE"/>
        <path d="M387.493 186.009l-2.57 27.137 5.47 2.579s5.543-13.512 8.53-28.044" fill="#FFF"/>
        <circle fill="#FFF" transform="rotate(-60.84 393.267 186.588)" cx="393.267" cy="186.588" r="5.78"/>
        <circle fill="#FFF" transform="rotate(-89.78 396.606 155.738)" cx="396.606" cy="155.738" r="8.341"/>
        <path d="M401.244 130.528c.06 5.846 3.744 10.551 8.227 10.51 4.483-.043 8.07-4.826 8.01-10.672-.023-2.288.145-5.362-.819-7.086-1.501-2.675-4.678-3.444-7.407-3.417-4.486.045-8.071 4.822-8.011 10.665z" fill="#FFCFAE"/>
        <path d="M401.244 130.528c.06 5.846 3.744 10.551 8.227 10.51 4.483-.043 8.07-4.826 8.01-10.672-.023-2.288.145-5.362-.819-7.086-1.501-2.675-4.678-3.444-7.407-3.417-4.486.045-8.071 4.822-8.011 10.665z" fill="#000" opacity=".08"/>
        <path d="M404.57 135.011l11.08.018v4.651c-.027.805-.567 1.606-1.63 2.222-2.168 1.252-5.672 1.252-7.825 0-1.039-.6-1.57-1.39-1.603-2.18v-.036l-.021-4.675z" fill="#FFCFAE"/>
        <path d="M423.655 128.382c-2.054-2.844-1.516-9.107-4.102-12.31-2.585-3.204-7.485-2.442-7.485-2.442-2.846-1.873-7.395 1.477-11.181 6.005-4.672 5.585 2.219 8.005 2.219 8.005s2.579 5.476.03 8.62c0 0-3.723 4.057-2.063 8.59.9 2.46 2.963 3.904 3.852 6.345.75 2.071.168 6.023-3.486 6.797 0 0 3.714 3.967 13.914 2.949 5.431-.54 12.058-3.69 10.01-10.845-2.768-9.623 5.498-11.704-1.708-21.714z" fill="#424242"/>
        <circle fill="#2B90FF" cx="189.324" cy="138.383" r="14.475"/>
        <path d="M190.714 136.656l-.6 2.613 2.401 2.285 1.706 3.392a.877.877 0 1 1-1.4 1.054l-1.672-3.465-2.642-2.432-.676 2.586-2.14 3.137a.877.877 0 1 1-1.6-.711l2.218-3.141 1.462-6.407-1.717.747c0 .024-.6 1.949-.6 1.949a.748.748 0 0 1-1.427-.436l.793-2.588 3.954-1.66a1.76 1.76 0 0 1 1.066-.135c.206.047.4.136.57.261l2.384 3.366 1.55.08a.752.752 0 1 1-.078 1.502l-1.958-.102c-.3-.015-.495-.255-.67-.51l-.924-1.385zm-.186-3.735a1.501 1.501 0 1 1 1.5-1.5 1.501 1.501 0 0 1-1.497 1.497l-.003.003z" fill="#FFF"/>
        <circle fill="#2B90FF" cx="301.017" cy="185.522" r="14.475"/>
        <path d="M302.407 183.796l-.6 2.612 2.402 2.285 1.705 3.393a.877.877 0 1 1-1.399 1.054l-1.672-3.465-2.643-2.432-.675 2.585-2.14 3.138a.877.877 0 1 1-1.601-.712l2.219-3.14 1.462-6.408-1.718.748c0 .024-.6 1.948-.6 1.948a.748.748 0 0 1-1.426-.435l.792-2.588 3.955-1.66a1.76 1.76 0 0 1 1.066-.136c.205.048.4.137.57.261l2.384 3.366 1.55.081a.752.752 0 0 1-.079 1.502l-1.957-.102c-.3-.015-.496-.256-.67-.51l-.925-1.385zm-.186-3.735a1.501 1.501 0 1 1 1.501-1.501 1.501 1.501 0 0 1-1.498 1.498l-.003.003z" fill="#FFF"/>
        <circle fill="#FFB522" cx="411.735" cy="89.949" r="14.475"/>
        <path d="M403.955 88.544l1.523 7.657c.161.8.864 1.377 1.681 1.378h9.155a1.717 1.717 0 0 0 1.681-1.378l1.522-7.657a1.186 1.186 0 0 0-1.162-1.417h-.765l-3.672-4.53-.054-.067a.66.66 0 0 0-.967.9l3.002 3.688h-8.13l3.002-3.687.024-.03a.659.659 0 0 0-1.048-.799l-3.669 4.528h-.943a1.201 1.201 0 0 0-1.168 1.42l-.012-.006zm9.758 2.525a.66.66 0 0 1 1.319 0v2.703a.66.66 0 0 1-1.319 0v-2.703zm-2.633 0a.66.66 0 1 1 1.318 0v2.703a.66.66 0 0 1-1.318 0v-2.703zm-2.633 0a.66.66 0 0 1 1.318 0v2.703a.66.66 0 1 1-1.318 0v-2.703z" fill="#FFF"/>
    </g>
</svg>
