<svg id="Layer_1" data-name="Layer 1" xmlns="http://www.w3.org/2000/svg" xmlns:xlink="http://www.w3.org/1999/xlink" viewBox="0 0 806.23 230.16"><defs><style>.cls-1{fill:#198bff;}.cls-2{fill:#f58233;}.cls-11,.cls-3{fill:#02519d;}.cls-4{fill:url(#linear-gradient);}.cls-5{fill:url(#linear-gradient-2);}.cls-6{fill:url(#linear-gradient-3);}.cls-7{fill:#3cf;stroke:#3cf;stroke-width:4.7px;}.cls-10,.cls-11,.cls-7,.cls-8{stroke-miterlimit:10;}.cls-8{fill:#5f6d6f;stroke-width:4.88px;}.cls-10,.cls-11,.cls-8{stroke:#fff;}.cls-9{opacity:0.5;}.cls-10{fill:none;stroke-width:0.7px;}.cls-11{stroke-width:3.49px;}</style><linearGradient id="linear-gradient" x1="402.82" y1="89.16" x2="609.29" y2="89.16" gradientUnits="userSpaceOnUse"><stop offset="0" stop-color="#02519d"/><stop offset="1" stop-color="#44c8f5"/></linearGradient><linearGradient id="linear-gradient-2" x1="609.29" y1="116.23" x2="402.82" y2="116.23" gradientUnits="userSpaceOnUse"><stop offset="0" stop-color="#44c8f5"/><stop offset="0.11" stop-color="#49c5ef"/><stop offset="0.26" stop-color="#58bedf"/><stop offset="0.43" stop-color="#71b2c3"/><stop offset="0.61" stop-color="#93a19d"/><stop offset="0.8" stop-color="#be8c6d"/><stop offset="1" stop-color="#f37232"/></linearGradient><linearGradient id="linear-gradient-3" x1="402.82" y1="144.27" x2="609.29" y2="144.27" gradientUnits="userSpaceOnUse"><stop offset="0" stop-color="#198bff"/><stop offset="1" stop-color="#44c8f5"/></linearGradient></defs><title>Illustration</title><path class="cls-1" d="M115.57,212.66a5.47,5.47,0,0,1-3.16-.82c-1.9-1.26-2.35-3.7-2.63-5.16-1.71-9.14-4.44-9.54-11-10.53L96,195.72l-.24-.07c-7.1-2.66-14.41-2.87-27,4.79-7.21,4.39-14.34,5.2-19.58,2.22-8.32-4.72-9-16.43-9.58-25a163.87,163.87,0,0,0-1.86-16.53,51.87,51.87,0,0,1-9.78-13.23c-6.44-12.63-6.29-30.94,4.5-41.27a15.7,15.7,0,0,1-4.68-2c-7.29-4.74-8.3-15.27-4.93-23.21a11.62,11.62,0,0,1-1.74-3.77c-.7-2.91.06-5.9.91-8.45A63.3,63.3,0,0,1,46.25,37.1,19.19,19.19,0,0,1,49.56,35a58.23,58.23,0,0,1,23-7.93c12-1.41,24.09.95,35.43,3.49q4.31,1,8.69,2a20.39,20.39,0,0,1,2.22-4.2c4.58-6.56,13.53-9.77,22.81-8.2,7.89,1.34,14.73,5.39,22.22,10.16,8.51,5.41,17.28,12.31,17.78,22.47a25,25,0,0,1-2.44,11c.94,1,1.85,2,2.75,3a18.37,18.37,0,0,1,8.93-2c5.33.32,14.79,8.49,17.83,11.85C213,81.31,214.45,90,212.52,98.4c-1.78,7.76-6,13.4-11.52,15.47a4.47,4.47,0,0,0-2.73,2.07c-.67,1.53.26,4,1.25,6.63,1.6,4.27,3.59,9.57.42,14.76-2.23,3.63-4.47,7-6.75,10.17,3.31,5.73,4.62,12.31,2.5,18.74l-.35,1.08c-1.46,4.54-3.28,10.2-8,11.07-20.82,3.78-31.71,12.51-41.32,20.21-8.8,7-16.4,13.13-29.24,14C116.35,212.64,116,212.66,115.57,212.66ZM96.53,193c.91.16,1.78.29,2.6.41,6.76,1,11.23,1.68,13.32,12.78.26,1.38.58,2.76,1.43,3.33a4.52,4.52,0,0,0,2.68.33c12-.83,19.31-6.67,27.76-13.44,9.86-7.9,21-16.85,42.51-20.75,3.17-.58,4.7-5.35,5.94-9.19l.35-1.09c1.69-5.14.75-10.52-1.78-15.35a96.07,96.07,0,0,1-17.59,18.13,66.48,66.48,0,0,1-19.56,10.59,37.4,37.4,0,0,1-9.78,6.48C120.71,196,95.12,191,76.46,184.07c-3.79,1.11-8.29,2.23-12.62,1.27-7.5-1.65-11.58-8.18-13.78-14.39a84.42,84.42,0,0,1-9.13-6.83c.63,4.44,1.09,8.91,1.37,13.38.51,8.34,1.15,18.71,8.16,22.69,6.22,3.53,13.89-.35,16.91-2.18C81.57,189.36,89.79,190.45,96.53,193ZM81,182.7c17.78,6.08,40.92,9.69,62.33-.11a36,36,0,0,0,3.82-2,49.7,49.7,0,0,1-10.67.91c-9.69-.25-20.59-4.82-23.73-14.45-1.47.27-3,.47-4.48.6C101.07,176,90.36,179.83,81,182.7Zm-26.88-9.25c2.3,4.56,5.66,8.11,10.29,9.13a17.85,17.85,0,0,0,7.62-.26c-4-1.65-7.62-3.35-10.71-4.93Q57.5,175.44,54.11,173.45Zm-1.8-4.38q4.65,3,10.19,5.78a143.4,143.4,0,0,0,14.06,6.25l.38-.11c8.9-2.67,19.79-5.92,27.35-13.19h-.14a49.86,49.86,0,0,1-11-1.23C78.67,163.32,65.91,154.42,56.41,147l-.69-.54a8.79,8.79,0,0,0-3.88,2.93c-2,2.75-1.86,6.7-1.51,10.2A45.18,45.18,0,0,0,52.31,169.07Zm63.11-2.64c2.86,8.12,12.5,12,21.11,12.22a49,49,0,0,0,16.32-2.46c4.23-4.1,6.93-9.24,6-14.71-.84-5-4.61-9.15-8.08-12.66q-2.36-2.37-4.76-4.73c-1.08-1.07-2.17-2.14-3.26-3.23a45.35,45.35,0,0,1-10,16A37.5,37.5,0,0,1,115.42,166.43ZM143.81,138c1.35,1.36,2.71,2.7,4.07,4,1.61,1.59,3.21,3.17,4.79,4.76,3.77,3.82,7.87,8.37,8.86,14.2a17.69,17.69,0,0,1-3.36,13.17,66,66,0,0,0,14-8.32,94.75,94.75,0,0,0,17.69-18.43,33.13,33.13,0,0,0-13.06-11.33c-6.9-3.28-14.61-4.72-22.07-6.12-2.64-.49-5.34-1-8-1.59C145.82,131.63,144.9,134.86,143.81,138ZM40.25,159.74a72.1,72.1,0,0,0,8.56,7,50.31,50.31,0,0,1-1.18-6.82c-.41-4-.49-8.65,2-12.19a11,11,0,0,1,3.72-3.22,15.09,15.09,0,0,1-4-5.46c-1.55-3.9-.82-8.24-.23-11.72,1.13-6.72,2.28-13.54,3.79-20.27l-.67-.4a54.33,54.33,0,0,1-7.13.93C41,111.17,37.09,115,35.22,120c-2.75,7.36-.58,15.66,1.52,23.69.2.74.39,1.48.58,2.22C38.49,150.49,39.46,155.1,40.25,159.74ZM59,145.51c9.17,7.06,21.24,15.27,34.76,18.31a47.61,47.61,0,0,0,13.19,1.08,29.71,29.71,0,0,0,4.63-8.34l-.06-.81a38.87,38.87,0,0,0-5.75-17c-3.68,1.63-7.77,2.1-11.27,2.51L63,144.9C61.68,145.06,60.31,145.24,59,145.51Zm52.87,17c-.39.69-.81,1.38-1.24,2,.49-.07,1-.15,1.46-.24C112,163.68,111.91,163.08,111.86,162.48Zm2.45-5.51c0,.59,0,1.18.07,1.76a39.62,39.62,0,0,0,.37,5,34.65,34.65,0,0,0,16.16-8.85c4.53-4.52,7.5-10,9.75-16.1-6.43-6.55-12.54-13.55-16.55-22-.69-1.45-1.47-3.59-.31-5.42l.18-.27c-2.89,2.12-5.87,4.11-8.91,6,1.08,5.16.67,10.84-1.95,15.29a15.17,15.17,0,0,1,1.93,4.53A34.32,34.32,0,0,1,114.31,157ZM36,107.28c-11.47,9-11.87,27.05-5.6,39.32a47.42,47.42,0,0,0,6.48,9.54q-.93-4.77-2.13-9.46c-.19-.73-.38-1.47-.58-2.21-2.21-8.47-4.5-17.22-1.44-25.45,1.72-4.6,4.83-8.2,8.32-11.43C39.32,107.53,37.63,107.47,36,107.28Zm72.24,30.17a44.63,44.63,0,0,1,5.07,12.1,30.62,30.62,0,0,0-.82-11.91,14.32,14.32,0,0,0-1.08-2.89,16.54,16.54,0,0,1-1.18,1.19A17.67,17.67,0,0,1,108.19,137.45Zm39.18-11.8c2.6.57,5.23,1.06,7.8,1.54,7.62,1.43,15.5,2.9,22.72,6.33A36,36,0,0,1,191.58,145q3.07-4.31,6.06-9.2c2.44-4,.87-8.16-.65-12.21-1.2-3.19-2.33-6.21-1.19-8.82a6.93,6.93,0,0,1,4.28-3.56c4.66-1.75,8.23-6.66,9.8-13.48,1.72-7.49.5-15.16-3-19.07-3.38-3.73-12-10.72-16-11a15.33,15.33,0,0,0-6.9,1.37q1.37,1.7,2.64,3.49a25.17,25.17,0,0,1,4.09,7.89,30.47,30.47,0,0,1,.59,8.85c-.43,12.47-2.23,26-12.26,31.89-6.66,3.91-15.33,3.39-26.51-1.57l-3.22-1.47c-.37,1.45-.73,2.89-1.09,4.33C147.9,123.53,147.64,124.59,147.37,125.65ZM55.45,108.5c-1.41,6.42-2.5,12.91-3.59,19.32-.52,3.12-1.18,7,.08,10.15a14.05,14.05,0,0,0,4.3,5.36,35.66,35.66,0,0,1,6.5-1.24l31.45-3.64a39.23,39.23,0,0,0,10-2.11,69.42,69.42,0,0,0-7.55-9.2l-.91-.36A120.9,120.9,0,0,1,79.94,132l-1.08.27-.47-1.05a22.27,22.27,0,0,1-1.59-12.11A218.22,218.22,0,0,1,55.45,108.5Zm74.16,3.6c-.49,0-1,0-1.49.05-1.11.08-1.79.32-2.05.72s-.13,1.35.48,2.64c3.64,7.68,9.19,14.2,15.13,20.32.86-2.61,1.61-5.31,2.34-8.06-1.21-.3-2.42-.62-3.61-1-5.14-1.5-6.38-4.11-6.51-6a8,8,0,0,1,1.48-4.65c.58-1,1.18-1.93,1.81-2.87A27.38,27.38,0,0,0,129.61,112.1Zm-27.22,17.25a68,68,0,0,1,4.31,5.73,11.64,11.64,0,0,0,1.7-1.28,10.77,10.77,0,0,0,1.2-1.24,14.75,14.75,0,0,0-3.66-1.83Zm-2.9-4.14,2.74,1.07,4.67,1.81a16.68,16.68,0,0,1,4.25,2.15,18.69,18.69,0,0,0,1.44-11.72A130.23,130.23,0,0,1,99.49,125.21Zm-20.09-5a19.53,19.53,0,0,0,1,8.74q5.82-1.53,11.49-3.65C87.72,123.62,83.55,121.94,79.4,120.18Zm60.51-6q-1.17,1.71-2.22,3.48a5.52,5.52,0,0,0-1.08,2.95c.13,2,2.9,3,4.54,3.52,1.17.34,2.36.66,3.57,1q.41-1.62.81-3.27c.4-1.58.79-3.18,1.21-4.78C144.48,116,142.21,115,139.91,114.14ZM82,110.83c2.23,1.63,4.35,3.31,6.35,5,2.68,2.2,5.59,4.72,8.47,7.54a127.49,127.49,0,0,0,15.12-7.64,22.65,22.65,0,0,0-1.06-2.79c-2.94-6.43-8.2-11.53-13.28-16.46l-1.65-1.61-.16-.16c-1.23.26-2.45.54-3.68.83l-.06.08c-2.19,2.77-4.45,5.63-6.41,8.59A44.6,44.6,0,0,0,82,110.83Zm-2.13,6.49c3.82,1.63,7.67,3.19,11.53,4.72-1.62-1.45-3.22-2.8-4.73-4-1.81-1.49-3.72-3-5.72-4.49A30,30,0,0,0,79.85,117.32ZM150,115.39c1.19.56,2.38,1.11,3.57,1.63,10.35,4.6,18.24,5.16,24.1,1.71,8.87-5.2,10.48-17.84,10.88-29.53a27.7,27.7,0,0,0-.49-8,22.62,22.62,0,0,0-3.65-7q-1.44-2-3-3.91a40.05,40.05,0,0,0-3.87,2.53,68.55,68.55,0,0,0-8.47,7.35c-2.05,2.58-4.21,5.08-6.41,7.53-.57.77-1.13,1.56-1.68,2.36,8,3.72,12.87,6.17,12.29,9.38-.46,2.57-4.06,4.48-20,5.43l-.1.24C151.93,108.44,150.91,111.9,150,115.39Zm-93.63-9.61a210.12,210.12,0,0,0,21,10.44,35.89,35.89,0,0,1,1.31-4.37,59.85,59.85,0,0,0-15.19-8C61,104.59,58.64,105.23,56.34,105.78ZM99.08,94l.36.35c5.26,5.11,10.71,10.4,13.87,17.31a22.89,22.89,0,0,1,1,2.55,130.86,130.86,0,0,0,19.71-15C124,92.14,111.73,91.78,99.08,94Zm42.5,17.74c1.66.62,3.29,1.32,4.92,2a54.47,54.47,0,0,0-2.9-4.73C142.91,110,142.24,110.85,141.58,111.76Zm3.81-4.93c1,1.4,2,2.9,2.88,4.52.71-2.45,1.48-4.87,2.36-7.22q1.22-3.25,2.75-6.38C150.65,100.7,147.94,103.71,145.39,106.83Zm-15.76,2.44a30.8,30.8,0,0,1,9.23,1.55c1-1.38,2-2.73,3-4.06a38.79,38.79,0,0,0-5.64-5.84,133.89,133.89,0,0,1-10.59,8.89,7.26,7.26,0,0,1,2.27-.48C128.51,109.29,129.07,109.27,129.63,109.27Zm-61.75-6.71a67,67,0,0,1,11.83,6.65,47.51,47.51,0,0,1,3.68-6.65c1.35-2,2.83-4,4.32-6-5,1.33-9.95,2.88-14.81,4.39ZM40,104.73l1.32,0,.82,0c.65,0,1.32,0,2,0l1.76-1.47.52-.44-.35-.24A26.58,26.58,0,0,0,40,104.73ZM138.28,99a40.87,40.87,0,0,1,5.39,5.57c3.52-4.26,7.28-8.29,11-12.25L156,90.86a26.56,26.56,0,0,1-6.65-4.07A130.79,130.79,0,0,1,138.28,99ZM24.8,84c-2.18,6.52-1.16,14.67,4.41,18.29a14.92,14.92,0,0,0,6,2.1,26.67,26.67,0,0,1,7.8-3.8A104.47,104.47,0,0,1,24.82,84Zm26.27,18.64c.57.37,1.16.74,1.75,1.09l1-.21c.11-.46.23-.93.35-1.39-.84,0-1.67-.06-2.49,0Zm5.85-.24c0,.14-.07.28-.1.42l1.06-.27C57.56,102.44,57.24,102.4,56.92,102.35Zm102.5-9.88a71.49,71.49,0,0,0-5,9.54c14.42-1,16-2.72,16.16-3.08-.26-1.38-7.13-4.58-10.82-6.29ZM57.67,99.61a39.58,39.58,0,0,1,5.41,1.21l.39.12c2.82-.83,5.72-1.73,8.65-2.64C78,96.46,84.25,94.52,90.55,93l1.59-2c-4.47-4.83-8.37-10.21-10-16.58a11.24,11.24,0,0,1,.11-7c1.09-2.7,3.57-4.31,5.34-5.29a30,30,0,0,1,2.85-1.39l-.15-.21-3.88-2.75C78,62.46,70.37,70.48,64.92,80.88A96.3,96.3,0,0,0,57.67,99.61ZM26,81.1c.27.34.55.66.83,1a103.68,103.68,0,0,0,19.82,17.6,31.71,31.71,0,0,1,3.93-.44c4.81-4.58,9.54-11,8.28-18-1-5.3-5-9.16-9.29-13.24-1.32-1.26-2.65-2.52-3.9-3.85l-.73.43c-6.8,4.08-14.5,8.7-18.72,16.12ZM54.47,99.27l.45,0c.07-.25.14-.51.22-.77Zm57.23-9.21c8.73,0,17.08,1.93,24.38,7.22a127.68,127.68,0,0,0,11.39-12.55c-6.13-6.65-14.07-14.25-23.7-19.09,2.78,5.76,4.85,11.52,2.51,16.57-.64,1.37-3.61,5.61-15.13,2.46a10.28,10.28,0,0,1-5.66-3.82l-2.22-3c-.35.91-.74,1.81-1.16,2.69a59.63,59.63,0,0,1-6.35,10.17l.9.91A78.62,78.62,0,0,1,111.7,90.06ZM92.22,63a27.66,27.66,0,0,0-3.3,1.56c-2.23,1.23-3.54,2.47-4.12,3.89a8.53,8.53,0,0,0,0,5.18c1.46,5.86,5.07,10.78,9,15a56.82,56.82,0,0,0,5.85-9.39,40.7,40.7,0,0,0,1.64-4.07Zm58.86,21.54.07.08c1,1.14,3.84,2.61,6.86,4,.86-.93,1.72-1.87,2.57-2.82A75.23,75.23,0,0,1,167,78.32a77.37,77.37,0,0,0,9-13.87,91,91,0,0,0-22.21-15.7c3.69,3.82,6.54,8.6,6.77,14.36.28,7-3.44,13.15-7.12,18.29C152.66,82.48,151.88,83.54,151.08,84.58Zm-46.72-9.86,3.28,4.41a7.66,7.66,0,0,0,4.2,2.81c10,2.73,11.81-.57,12-1,2.18-4.69-.89-11-4-17.11a43.07,43.07,0,0,0-4.49-1.51,23.82,23.82,0,0,1-.92,2.52,9.23,9.23,0,0,1-4,4.87,6.8,6.8,0,0,1-5,.41A42,42,0,0,1,104.36,74.72Zm17.41-13.09,1.16.51C133.72,67,142.5,75.29,149.19,82.52c.7-.93,1.39-1.86,2.06-2.8,3.39-4.75,6.83-10.42,6.59-16.5-.35-8.68-7.89-15-14.15-18.83-.49-.31-1-.59-1.46-.87-3.76-1.5-7.6-2.85-11.46-4.07l-.31,0c-4.92-.35-9.53,1.54-12,4.95C115.31,48.71,118.39,55,121.77,61.63Zm-73.65,1c1.05,1.08,2.17,2.15,3.31,3.23,4.42,4.22,9,8.57,10.12,14.8,0,.19.07.38.1.57.28-.59.58-1.16.88-1.74C68,69.14,75.48,61,84,56l-.29-.21c-4.24-3-8.43-5.68-12.77-5.29-2.91.27-5.71,2-8.19,3.43Zm-8-17A60,60,0,0,0,24.57,70.12c-.75,2.26-1.37,4.66-.84,6.85a7.19,7.19,0,0,0,.59,1.58C29,70.89,37.06,66,43.61,62.12l.2-.13a19.26,19.26,0,0,1-4.35-8.88A15,15,0,0,1,40.09,45.67Zm57.55,20L102.29,72c.23-.93.42-1.87.58-2.81a25.41,25.41,0,0,1-3.15-2Zm80.38.82q-1.11,2.17-2.37,4.26l.31-.23c1-.76,2.25-1.59,3.58-2.38C179,67.61,178.53,67.06,178,66.52Zm-72.15.84a4.44,4.44,0,0,0,3.37-.14,6.61,6.61,0,0,0,2.7-3.49c.28-.66.53-1.34.75-2a40.59,40.59,0,0,0-6.58-.84A42.78,42.78,0,0,1,105.87,67.36Zm-9.12-5.71,4.5,3.19a24,24,0,0,0,2,1.32,39.5,39.5,0,0,0,.13-5.33A34.56,34.56,0,0,0,96.75,61.65ZM143.37,41c12.44,5,24.18,11.57,33.84,20.82A21.17,21.17,0,0,0,179,53c-.44-8.84-8.58-15.18-16.49-20.2C155.3,28.14,148.7,24.22,141.3,23,133,21.55,125.11,24.33,121.13,30a17,17,0,0,0-1.75,3.22c4,1,8,2.15,11.92,3.41A31.94,31.94,0,0,1,143.37,41ZM47.64,39.51c-3.79,3.11-6.39,8-5.5,13.1a16.81,16.81,0,0,0,4.06,8l15.16-9.09c2.71-1.63,5.79-3.48,9.3-3.8,5.11-.46,9.61,2.29,14.14,5.49A60.39,60.39,0,0,0,73.39,41.44c-6.64-4.88-14-6.65-20.31-4.84a13.85,13.85,0,0,0-2.26.87Q49.2,38.44,47.64,39.51ZM116,59.63c.66.18,1.32.38,2,.59-.53-1.1-1-2.2-1.51-3.29C116.37,57.83,116.22,58.74,116,59.63Zm-23.8-1.2,1.54,1.1a36.44,36.44,0,0,1,9.4-1.51c-.13-1.1-.3-2.19-.52-3.27a2.9,2.9,0,0,0-.55-1.42,2.73,2.73,0,0,0-1.48-.13,35.78,35.78,0,0,0-10.3,2.68l.5.66Zm13.68-.4a43.14,43.14,0,0,1,7.48.95,68.55,68.55,0,0,0,1-10.88,58.9,58.9,0,0,1,1.44-12.84c-2.81-.7-5.61-1.35-8.38-2-11.12-2.49-22.94-4.81-34.56-3.45a54,54,0,0,0-13.22,3.3,29.55,29.55,0,0,1,15.29,6c5.39,4,9.65,9.17,13.63,14.43a38.41,38.41,0,0,1,11.77-3.17,4.46,4.46,0,0,1,3.35.66,4.86,4.86,0,0,1,1.6,3.11C105.57,55.45,105.77,56.73,105.91,58Zm12.55-22.1a34.09,34.09,0,0,0-.93,5.27,15.29,15.29,0,0,1,6.33-3.82C122.06,36.88,120.26,36.39,118.46,35.93Z"/><path class="cls-2" d="M124.64,211.06a28.8,28.8,0,0,1-9.52-1.66c-7.28-2.56-12.3-7.42-13.78-13.34a4.56,4.56,0,0,0-1.73-3c-1.4-.84-3.87-.11-6.47.67-4.24,1.26-9.51,2.83-14.19-.93q-4.9-3.94-9.12-7.92c-5.8,2.9-12.24,3.64-18.2.87l-1-.46c-4.22-1.93-9.48-4.34-9.87-9.35-1.71-21.87-9.07-33.94-15.57-44.59-5.94-9.75-11.08-18.17-10.74-31.53a7.35,7.35,0,0,1,1.14-4.41c1.38-1.84,3.76-2.09,5.19-2.24,8.92-.93,9.56-3.71,11.11-10.44.21-.89.42-1.84.68-2.83l.08-.25c3.21-7.09,4.08-14.63-2.1-28.35C27,43.43,26.89,36,30.22,30.84c5.3-8.17,16.59-7.84,24.84-7.6a147.74,147.74,0,0,0,16-.4A50,50,0,0,1,84.67,14c12.69-5.5,30.24-3.66,39.15,8.46a16.72,16.72,0,0,1,2.36-4.65c5.22-7.11,15.41-7.18,22.71-3a10.84,10.84,0,0,1,3.78-1.45c2.85-.47,5.65.6,8,1.71a62.34,62.34,0,0,1,28.53,28A19.9,19.9,0,0,1,191,46.73a64,64,0,0,1,5.48,24.54c.25,12.56-3.13,24.83-6.61,36.32-.88,2.91-1.8,5.85-2.77,8.79a19.3,19.3,0,0,1,3.82,2.69c5.87,5.34,8.13,14.89,5.76,24.34-2,8-6.53,14.74-11.79,22.05-6,8.3-13.4,16.73-23.18,16.31a22.7,22.7,0,0,1-10.36-3.54c-1,.88-2.06,1.73-3.12,2.56a20.45,20.45,0,0,1,1,9.42c-.8,5.49-9.51,14.51-13,17.35C133.38,209.87,129.21,211.06,124.64,211.06ZM98,189.85a5.69,5.69,0,0,1,2.94.74c1.44.86,2.43,2.42,3,4.76,1.24,5,5.62,9.13,12,11.38,7,2.47,14.49,1.91,18.56-1.4,3.89-3.15,11.4-11.45,12-15.54a17.05,17.05,0,0,0-.68-7.26c-1.16.83-2.36,1.64-3.58,2.41a23.4,23.4,0,0,1-7.94,3.49,26.58,26.58,0,0,1-8.55-.21c-11.91-1.59-24.72-4.69-29.44-15.61-3.13-7.24-1.84-16.16,4-27.27.56-1.06,1.13-2.13,1.71-3.2l-4-1.52-3-1.11c-.79,2.64-1.5,5.31-2.2,7.93-2.07,7.75-4.21,15.76-8.16,22.9a36.72,36.72,0,0,1-12.28,13.11q3.84,3.56,8.26,7.11c3.59,2.89,7.75,1.65,11.77.45A20.86,20.86,0,0,1,98,189.85Zm6.57-46.71c-.64,1.19-1.28,2.37-1.89,3.55-5.36,10.28-6.62,18.38-3.86,24.76,4.17,9.65,16.14,12.48,27.31,14a25,25,0,0,0,7.71.23,21.29,21.29,0,0,0,7-3.13c1.38-.87,2.71-1.78,4-2.74a43,43,0,0,0-2.07-4.23,70.85,70.85,0,0,0-6.26-9.44c-2.29-2.36-4.49-4.82-6.63-7.32-.69-.67-1.39-1.32-2.11-2-4.31,7.92-7.11,12.73-10.13,11.84-2.42-.71-3.92-4.62-3.36-21.18l-.22-.12A102.46,102.46,0,0,0,104.59,143.14ZM35.16,80.72c-.23.94-.43,1.82-.63,2.66C32.94,90.28,31.89,94.84,21.05,96c-1.34.14-2.7.35-3.32,1.17a5,5,0,0,0-.57,2.74c-.31,12.5,4.62,20.59,10.33,30,6.66,10.92,14.21,23.3,16,45.87.26,3.34,4.69,5.37,8.25,7l1,.47c4.77,2.23,10,1.75,14.88-.42a97.12,97.12,0,0,1-15.76-19.87,71.16,71.16,0,0,1-8.35-21.2A39.53,39.53,0,0,1,38.2,131C30,105.45,37.13,79.44,45.54,60.79c-.72-4-1.38-8.78-.07-13.17C47.75,40,54.39,36.4,60.55,34.7a85.28,85.28,0,0,1,7.38-8.82q-6.47.38-13,.18c-8-.23-18-.52-22.5,6.35-4,6.11-.95,14.41.53,17.69C40,65.59,38.19,74,35.16,80.72ZM47.48,146.2a70.24,70.24,0,0,0,6.7,15.2,95.32,95.32,0,0,0,16,20,33.42,33.42,0,0,0,12.07-12.46c3.78-6.84,5.88-14.68,7.9-22.26.72-2.69,1.45-5.43,2.27-8.15-3-1.18-6-2.43-9-3.84-1.43,1.27-2.85,2.56-4.26,3.84-1.66,1.51-3.32,3-5,4.5-4,3.55-8.75,7.38-14.43,7.86C55.17,151.29,51,149.38,47.48,146.2Zm106,30.06a19.16,19.16,0,0,0,8.29,2.69h.58c8.25,0,14.89-7.65,20.31-15.19,5.09-7.07,9.45-13.53,11.34-21.07,2.11-8.43.18-16.87-4.92-21.5a16.16,16.16,0,0,0-2.93-2.12c-1.35,4-2.8,8-4.36,12a34.66,34.66,0,0,1-5.23,12.09C170.66,155.59,163.25,167.13,153.49,176.26ZM145,173.82l.19.34c.63,1.15,1.32,2.47,1.95,3.92.58-.46,1.16-.94,1.73-1.42Q146.88,175.31,145,173.82Zm-6.43-9.62A75.2,75.2,0,0,0,151,174.75a94.1,94.1,0,0,0,17.11-21.52c-4,3.46-8.87,6-14.39,5.68-6.69-.35-12.29-4.77-16.89-9-1-.89-1.9-1.8-2.83-2.73l-.08.07c-1.19,1-2.86,3.73-4.52,6.71.82,1,1.64,2,2.47,2.92A74,74,0,0,1,138.57,164.2ZM117,149c-.42,15,1.13,16.79,1.45,17,1.35-.15,5-7,7-10.61l.19-.35A68.41,68.41,0,0,0,117,149Zm19.17-3.62c.82.81,1.65,1.6,2.49,2.39,4.24,4,9.36,8,15.2,8.33,8.36.44,15.15-6.77,19.37-12.89.34-.48.66-1,1-1.43,1.79-3.76,3.44-7.6,5-11.48,0-.1,0-.21,0-.31.8-5.07-.59-10-3.63-12.87-3.87-3.66-10.16-1-16.86,1.83l-.59,1.15C152.48,130.8,143.73,139.12,136.19,145.37Zm-20.64-7.74c3.76,4,7.28,8.29,10.74,12.48.42.52.84,1,1.27,1.54a27.86,27.86,0,0,1,4.51-6.5,132.93,132.93,0,0,1-10.68-12.59A40.36,40.36,0,0,1,115.55,137.63Zm-6.92,4.13c2.28,1,4.53,2,6.7,3.11q3,1.56,5.87,3.42c-2.58-3.09-5.21-6.16-8-9.1A51.44,51.44,0,0,1,108.63,141.76ZM46,140.51c3.54,4.76,8.22,8,13.54,7.57,4.87-.42,9.21-3.93,12.89-7.19q2.49-2.22,5-4.49c1.12-1,2.25-2.05,3.39-3.07A43.87,43.87,0,0,1,66.4,121.55a40.13,40.13,0,0,1-7.55-18.84c-8.06,2.2-12.66,11.82-13.67,20.7A55.09,55.09,0,0,0,46,140.51Zm77.2-10.06a128.65,128.65,0,0,0,11,12.94c6.94-5.73,15-13.25,20.49-22.75-5.78,2.34-11.49,4-16.11,1.07-1.26-.79-5-4.26-1-15.88a10.63,10.63,0,0,1,4.18-5.5l3.06-2c-.84-.45-1.67-.93-2.48-1.45a58.34,58.34,0,0,1-9.16-7.5l-.95.84C133.58,104.93,132.23,119.41,123.24,130.45Zm-14.39,4.35c-.74,1.66-1.57,3.29-2.41,4.9a51.46,51.46,0,0,0,4.8-2.56C110.46,136.34,109.66,135.56,108.85,134.8Zm-13,2L98.89,138l4.47,1.68c1.2-2.23,2.36-4.5,3.36-6.8-1-.9-2.06-1.78-3.13-2.62a5.21,5.21,0,0,0-2.73-1.39h0c-1.87,0-3.16,2.74-3.76,4.38C96.63,134.4,96.22,135.6,95.83,136.82Zm-10.07-4.14c2.43,1.13,4.94,2.16,7.52,3.16.39-1.22.81-2.43,1.25-3.63,1.91-5.18,4.52-6.24,6.38-6.19a7.37,7.37,0,0,1,4.32,2c.88.69,1.74,1.4,2.59,2.13a29.08,29.08,0,0,0,1.9-9.27c0-1.15-.14-1.89-.5-2.19s-1.29-.26-2.57.25C99,122,92.18,127.11,85.76,132.68Zm24.24-.6q1.86,1.71,3.61,3.52a38.44,38.44,0,0,0,6.12-5.3,138.36,138.36,0,0,1-7.54-11.77,8.1,8.1,0,0,1,.25,2.39A32.6,32.6,0,0,1,110,132.08ZM46.42,65.6C39,83.43,33.36,107,40.78,130.06a38.15,38.15,0,0,0,1.6,4.15,55.1,55.1,0,0,1,.11-11.13c1.13-10,6.52-20.85,16-23.2-.12-1.54-.18-3.11-.17-4.68C51,87,48.31,75.55,46.42,65.6Zm15.11,36.66a37.19,37.19,0,0,0,7,17.53,41.78,41.78,0,0,0,14.54,11.57c6.87-6.05,14.14-11.72,22.62-15.09,1.45-.57,3.57-1.18,5.23.18a2.39,2.39,0,0,1,.23.22q-2.64-4.78-4.91-9.77c-5,.64-10.45-.31-14.48-3.43a13.68,13.68,0,0,1-4.52,1.58A30.8,30.8,0,0,1,68,102.43c-.57,0-1.14-.06-1.69-.09A36.94,36.94,0,0,0,61.53,102.26ZM109,106.38a137.49,137.49,0,0,0,12.58,21.77c7.71-9.77,9.18-22.38,8.2-35.66l-.36.33c-5.39,5-11,10.12-17.88,12.76A23.45,23.45,0,0,1,109,106.38Zm69.72,10.06a16.2,16.2,0,0,1,3.07,6.9q1-2.72,1.9-5.45A30.4,30.4,0,0,0,178.72,116.44ZM147.8,99.73l-4.53,3a7.89,7.89,0,0,0-3.09,4.09c-3.53,10-.54,12.27-.18,12.49,4.29,2.68,10.6.09,16.77-2.56a48.1,48.1,0,0,0,1.87-4.5A23.38,23.38,0,0,1,156.3,111a9.17,9.17,0,0,1-4.3-4.55,7.58,7.58,0,0,1,.06-5.21A38.77,38.77,0,0,1,147.8,99.73Zm14.26,10.79a62,62,0,0,0,10.34,2,53,53,0,0,1,12.17,2.67c.93-2.84,1.82-5.68,2.67-8.48,3.41-11.27,6.72-23.29,6.49-35.42a59.75,59.75,0,0,0-1.95-14,31.88,31.88,0,0,1-7.16,15.27c-4.31,5.21-9.68,9.13-15.09,12.76a42.76,42.76,0,0,1,2,12.47,5.12,5.12,0,0,1-1,3.4,4.6,4.6,0,0,1-3.13,1.37,36.32,36.32,0,0,1-3.75.25A48.57,48.57,0,0,1,162.06,110.52Zm-.87,2.67q-.36,1-.75,2c1.1-.45,2.21-.88,3.3-1.26C162.88,113.7,162,113.47,161.19,113.19ZM154.72,102a5,5,0,0,0-.19,3.5,6.66,6.66,0,0,0,3.1,3.11,20.75,20.75,0,0,0,1.88,1,46.26,46.26,0,0,0,1.42-6.72A39.3,39.3,0,0,1,154.72,102Zm-60.78-.34A16.91,16.91,0,0,0,105,104.2,139.64,139.64,0,0,1,99.84,90c-.43.91-.85,1.83-1.28,2.74L96.4,97.43A17.92,17.92,0,0,1,93.94,101.63Zm8-14.21a135,135,0,0,0,5.93,16.34,19.69,19.69,0,0,0,2.77-.83c6.43-2.45,11.81-7.42,17-12.22l1.69-1.56.17-.15c-.13-1.29-.29-2.58-.46-3.88l-.07-.07c-2.45-2.52-5-5.11-7.64-7.42a43,43,0,0,0-6.06-4.37c-1.77,2.15-3.58,4.19-5.34,6.11C107.55,81.93,104.87,84.71,101.9,87.42ZM75.23,102a27.37,27.37,0,0,0,11.5.25,13.13,13.13,0,0,0,2.87-.85,12.51,12.51,0,0,1-1-1.34A16.6,16.6,0,0,1,87.3,97.9,40.89,40.89,0,0,1,75.23,102Zm88.11-11.85a40.74,40.74,0,0,1,.58,9.86q1.59,0,3.18-.24c.37,0,1.15-.13,1.41-.44a3,3,0,0,0,.26-1.51A40,40,0,0,0,167.16,87l-.68.45-1.95,1.28Zm-7.24,9.2a36.44,36.44,0,0,0,5.1.63,39,39,0,0,0-.17-6.94l-3.48,4.35C157.06,98,156.56,98.69,156.1,99.38Zm-66.39-2.8a12.73,12.73,0,0,0,2.14,3.23A15.49,15.49,0,0,0,94,96.2l1.65-3.55A63.48,63.48,0,0,1,89.71,96.58Zm-21,3,.78,0a35.27,35.27,0,0,0,16.84-4.38c-1.23-4-1.3-8.23-1.37-11.88l-.6-32.86c0-1.43-.07-2.87-.21-4.25-7.62,8.83-16.6,20.56-20.76,34.26A52.75,52.75,0,0,0,61.1,94.08,28.06,28.06,0,0,0,68.67,99.63Zm-7.55-1.72c0,.52.06,1,.1,1.54.58,0,1.17-.06,1.75-.06C62.33,98.92,61.72,98.43,61.12,97.91Zm89.53-.07c.87.32,1.75.61,2.63.86a28.63,28.63,0,0,1,2.18-3.08l1.61-2ZM135.34,87.55a55.51,55.51,0,0,0,8.47,6.91,36.09,36.09,0,0,0,3.75,2.08l12.55-8.29a28.59,28.59,0,0,0-1.19-3.56c-1-2.42-2-3.88-3.35-4.61a7.6,7.6,0,0,0-5-.46C144.86,80.58,139.8,83.87,135.34,87.55ZM86.46,43.63A40.49,40.49,0,0,1,87,50.47l.6,32.86a43.28,43.28,0,0,0,1.09,10.58,68.2,68.2,0,0,0,9.52-7l.42-.91A134.93,134.93,0,0,1,95.18,69.2L95,68.05l1-.38a19.9,19.9,0,0,1,11.76-.53A231,231,0,0,1,119.92,46c-6-2.05-12.14-3.78-18.19-5.49-2.94-.83-6.61-1.87-9.74-.86A13.68,13.68,0,0,0,86.46,43.63ZM48.37,61.16c0,.14.05.27.07.4,1.73,9.46,3.85,21,10.12,29.51a56.45,56.45,0,0,1,2.2-11.38C65.22,65,74.93,52.61,82.89,43.47c.19-.23.39-.45.58-.67A9.08,9.08,0,0,0,81,38.53C78.57,36.24,74.78,36,71.38,36a40.16,40.16,0,0,0-9.25,1.18c-2.17,3-4.32,6.35-6.48,10A154.27,154.27,0,0,0,48.37,61.16Zm104.3,15.45a8.5,8.5,0,0,1,4.18,1c2.49,1.38,3.8,4.09,4.58,6,.4,1,.76,2,1.07,3.08l.21-.14,3-3.76C162,73.55,155,65,145.53,58.37a89.26,89.26,0,0,0-17.29-9.23,43.1,43.1,0,0,1-1.66,5.49l-.15.4c.53,3,1.13,6.06,1.73,9.19,1.22,6.27,2.5,12.88,3.39,19.54.6.61,1.21,1.22,1.81,1.84,5-4.19,10.56-7.72,16.81-8.77A16.28,16.28,0,0,1,152.67,76.61ZM98,70q.93,6.15,2.44,12.22c2-4.18,4-8.34,6-12.46A17.45,17.45,0,0,0,98,70Zm11.18.49c-1.92,3.79-3.77,7.63-5.6,11.48,1.55-1.55,3-3.07,4.32-4.52,1.59-1.74,3.22-3.57,4.83-5.5A29.35,29.35,0,0,0,109.22,70.46Zm57.52-29.58,7.31,16.52c1.32,3,2.8,6.31,2.79,10,0,5.32-3.09,9.73-6.57,14.12a59.29,59.29,0,0,0,12.29-10.72c5.29-6.41,7.67-13.91,6.52-20.56a14.75,14.75,0,0,0-.63-2.41c-.52-1.18-1.08-2.34-1.67-3.49-2.63-4.2-7.06-7.34-12-6.89A15.69,15.69,0,0,0,166.74,40.88ZM117,71.06a44.17,44.17,0,0,1,6,4.41c1.84,1.59,3.6,3.3,5.31,5-.82-5.28-1.85-10.56-2.85-15.72-.35-1.79-.69-3.58-1-5.34A69.54,69.54,0,0,1,117,71.06ZM145.46,55q.79.52,1.59,1.08a59.1,59.1,0,0,1,20.6,24.33l.22-.28c3.28-4.11,6.23-8.18,6.25-12.72,0-3-1.34-6.09-2.53-8.78l-7.05-15.91c-1.14,1-2.26,2-3.41,3.13-4.44,4.19-9,8.52-15.12,9.11Zm-35,13a33.26,33.26,0,0,1,4.07,1.76,62.85,62.85,0,0,0,9-15c-.45-2.57-.85-5.09-1.17-7.52A228.86,228.86,0,0,0,110.5,67.93ZM57.77,38.66c-4.58,2-8.29,5.1-9.7,9.8a19.76,19.76,0,0,0-.45,7.9c2-4,3.92-7.57,5.71-10.63Q55.55,42,57.77,38.66Zm71.46,3.21c4,5.39,9.72,10.89,16.53,10.23,5.17-.5,9.24-4.33,13.55-8.39,1.33-1.25,2.67-2.51,4.05-3.68l-.34-.79c-3.29-7.41-7-15.81-13.74-20.85l-.37-.27c-.35.25-.69.51-1,.77a104.13,104.13,0,0,0-18.7,18.88A35,35,0,0,1,129.23,41.87ZM125.29,48c0,.38.11.75.16,1.13.08-.33.16-.65.23-1Zm3.5-1.64.72.3c-.22-.26-.44-.51-.65-.77C128.83,46,128.81,46.17,128.79,46.33Zm-3.9-1.51,1.3.49c.13-.86.22-1.72.28-2.57-.17-.24-.33-.47-.48-.7l-1.21,1.71C124.82,44.1,124.85,44.46,124.89,44.82Zm-30-8.38a28.18,28.18,0,0,1,7.59,1.38c6.33,1.79,12.76,3.61,19.08,5.79L122,43a59.85,59.85,0,0,1-.24-7.47c-3-4.63-6.37-9-11-11.45-6.81-3.51-15-2-22.86-.6l-2.18.39Q79,25,72.2,25.58a72.91,72.91,0,0,0-7.5,8.21,46.86,46.86,0,0,1,6.64-.59c3.92,0,8.35.29,11.5,3.23a11.19,11.19,0,0,1,2.74,4.14A14.67,14.67,0,0,1,91.19,37,11.91,11.91,0,0,1,94.86,36.44ZM151.51,16.6c6.91,5.51,10.82,14.33,14,21.46l.1.22a17.87,17.87,0,0,1,8.92-3.67,13.42,13.42,0,0,1,7.08,1.33,58.2,58.2,0,0,0-22-18.31c-2.1-1-4.34-1.84-6.49-1.5A6.75,6.75,0,0,0,151.51,16.6Zm-27,18.09c.42.65.84,1.3,1.25,2,.12.19.25.38.37.58l.26-.34A28.69,28.69,0,0,0,125,30.43c-.06.45-.11.9-.17,1.35l-.1.85C124.6,33.3,124.54,34,124.5,34.69Zm1.28-9.18a28.92,28.92,0,0,1,2.91,8.43,105.16,105.16,0,0,1,17.58-17.32l0,0c-6.06-2.86-14-2.55-17.95,2.87A16.31,16.31,0,0,0,125.78,25.51ZM100.71,19a24,24,0,0,1,11.23,2.48c4.25,2.19,7.41,5.74,10.19,9.65.21-1.73.43-3.48.76-5.19-7.59-12.7-24.84-14.77-37.18-9.43A45.42,45.42,0,0,0,76,22.38q4.67-.52,9.27-1.33l2.17-.39A76,76,0,0,1,100.71,19Z"/><path class="cls-3" d="M91.42,211.08a26.5,26.5,0,0,1-3.19-.19c-7.94-.91-15-4.59-22.7-8.94-8.77-4.95-17.88-11.37-18.88-21.48a25,25,0,0,1,1.88-11.15c-1-.92-2-1.87-2.89-2.84a18.74,18.74,0,0,1-8.83,2.43c-5.34,0-15.19-7.69-18.39-10.87-4.38-4.35-6.31-13-4.8-21.43,1.39-7.85,5.3-13.71,10.73-16.08A4.46,4.46,0,0,0,27,118.32c.59-1.57-.46-4-1.58-6.56-1.81-4.17-4.06-9.36-1.15-14.71q3-5.62,6.23-10.52C26.88,81,25.24,74.48,27,68l.29-1.09c1.23-4.62,2.76-10.37,7.48-11.49,20.6-4.91,31-14.22,40.25-22.42,8.44-7.52,15.72-14,28.5-15.59a6.74,6.74,0,0,1,4.36.54c2,1.16,2.54,3.57,2.88,5,2.17,9,4.92,9.29,11.55,9.91.88.09,1.81.17,2.8.29l.24.05c7.22,2.28,14.53,2.08,26.71-6.24,7-4.77,14.07-6,19.45-3.28,8.54,4.26,9.85,15.92,10.81,24.43q.93,8.27,2.68,16.41a51.55,51.55,0,0,1,10.44,12.68c7.06,12.26,7.83,30.56-2.43,41.46a15.61,15.61,0,0,1,4.78,1.76c7.51,4.34,9.05,14.8,6.09,22.91a11.68,11.68,0,0,1,1.92,3.67c.85,2.87.23,5.9-.48,8.49a63.68,63.68,0,0,1-22.6,33.37,18.69,18.69,0,0,1-3.21,2.3,58.33,58.33,0,0,1-22.6,9.17c-11.93,2.06-24.11.36-35.56-1.57-2.9-.48-5.83-1-8.77-1.57a20.33,20.33,0,0,1-2,4.31C106.84,207.48,99.53,211.08,91.42,211.08Zm-40.7-39.8a21.18,21.18,0,0,0-1.37,8.9c.88,8.81,9.32,14.69,17.47,19.29,7.47,4.21,14.26,7.76,21.71,8.62,8.33,1,16.1-2.25,19.78-8.16a17.4,17.4,0,0,0,1.6-3.31c-4-.81-8.06-1.72-12.08-2.76a31.68,31.68,0,0,1-12.28-3.63C72.88,186,60.83,180,50.72,171.28Zm62.63,23.15c2.84.55,5.67,1,8.46,1.52,11.23,1.88,23.16,3.56,34.69,1.57a54.41,54.41,0,0,0,13-4A29.38,29.38,0,0,1,154,188.34c-5.58-3.67-10.09-8.63-14.33-13.67A38.49,38.49,0,0,1,128,178.48a4.43,4.43,0,0,1-3.38-.49,4.88,4.88,0,0,1-1.76-3c-.32-1.26-.58-2.54-.78-3.82a43.68,43.68,0,0,1-7.52-.54,68.1,68.1,0,0,0-.46,10.91A58.87,58.87,0,0,1,113.35,194.43Zm-8.13-1.68q2.73.6,5.46,1.16a32.78,32.78,0,0,0,.67-5.32A15.27,15.27,0,0,1,105.22,192.75Zm-7-1.69h.3c4.93.07,9.45-2,11.75-5.59,2.92-4.5-.47-10.59-4.17-17.06l-1.19-.44c-11.07-4.31-20.28-12.15-27.33-19-.6,1-1.21,2-1.83,3-3.16,4.92-6.3,10.77-5.75,16.83.78,8.65,8.62,14.59,15.06,18.05l1.5.78C90.4,188.9,94.3,190,98.22,191.06Zm45.22-16.18a59.83,59.83,0,0,0,12,11.08c6.87,4.52,14.36,5.88,20.53,3.74a14,14,0,0,0,2.21-1c1.05-.71,2.07-1.44,3.07-2.21,3.63-3.31,6-8.33,4.84-13.38a16.73,16.73,0,0,0-4.45-7.72l-14.68,9.9c-2.64,1.77-5.62,3.78-9.11,4.29C152.76,180.33,148.12,177.83,143.44,174.88ZM51.8,168.53a90.93,90.93,0,0,0,23,14.48c-3.87-3.61-7-8.23-7.48-14-.63-6.93,2.78-13.32,6.2-18.66.7-1.1,1.39-2.23,2.08-3.41-1.11-1.07-4-2.37-7-3.64l-2.43,3a73.94,73.94,0,0,1-6.06,7.91A78.52,78.52,0,0,0,51.8,168.53Zm132.13-4.69a19.15,19.15,0,0,1,4.79,8.64,15,15,0,0,1-.25,7.46,60.43,60.43,0,0,0,14.27-25.25c.63-2.31,1.13-4.73.49-6.89a7.3,7.3,0,0,0-.66-1.55c-4.27,7.9-12.11,13.18-18.44,17.46ZM144.14,172l.29.19c4.39,2.78,8.69,5.22,13,4.59,2.89-.43,5.6-2.25,8-3.87l14.13-9.53c-1.1-1-2.27-2-3.46-3.05-4.64-4-9.43-8.07-10.86-14.23l-.12-.56c-.26.59-.52,1.19-.8,1.78C159.44,158,152.35,166.53,144.14,172Zm-19.29-1c.18,1.08.41,2.17.68,3.24.1.37.3,1.15.63,1.38a2.53,2.53,0,0,0,1.47.05,35.8,35.8,0,0,0,10.16-3.23l-.53-.63-1.5-1.82-1.6-1A36.26,36.26,0,0,1,124.85,171Zm-14.92-1.4c.59,1.07,1.16,2.14,1.67,3.21.08-.91.18-1.82.32-2.72C111.26,170,110.59,169.8,109.93,169.62Zm27.61-1.78,4,2.54c8.26-5.16,15.43-13.58,20.35-24.26a96.76,96.76,0,0,0,6.31-19.1,39,39,0,0,1-5.47-.91l-.4-.1c-2.77,1-5.62,2-8.51,3.1-5.8,2.16-11.92,4.43-18.13,6.3l-1.49,2.13c4.71,4.58,8.87,9.74,10.77,16a11.21,11.21,0,0,1,.24,7c-1,2.76-3.35,4.5-5.07,5.57a30,30,0,0,1-2.78,1.55Zm-22.38,0a40.15,40.15,0,0,0,6.61.49,42.75,42.75,0,0,1-.08-6.5,4.43,4.43,0,0,0-3.37.32,6.69,6.69,0,0,0-2.52,3.63A20.49,20.49,0,0,0,115.16,167.85Zm9.19-5a39.5,39.5,0,0,0,.14,5.33,34.57,34.57,0,0,0,6.58-1.17l-4.65-3C125.77,163.68,125.07,163.26,124.35,162.89Zm-16.43,3.19a44.19,44.19,0,0,0,4.56,1.27,23.93,23.93,0,0,1,.79-2.58A9.23,9.23,0,0,1,117,159.7a6.79,6.79,0,0,1,5-.69,42.5,42.5,0,0,1,.86-4.61l-3.49-4.22A7.58,7.58,0,0,0,115,147.6c-10.08-2.19-11.77,1.21-11.93,1.6C101.13,154,104.5,160.12,107.92,166.08ZM48.07,165c.53.53,1.06,1.06,1.6,1.57q1-2.24,2.15-4.38l-.29.24C50.53,163.25,49.36,164.15,48.07,165ZM32.19,88.93q-2.83,4.45-5.59,9.51c-2.23,4.1-.45,8.2,1.27,12.16,1.36,3.13,2.64,6.08,1.63,8.75a7,7,0,0,1-4.1,3.78c-4.56,2-7.88,7.1-9.11,14-1.34,7.58.26,15.16,4,18.88,3.57,3.54,12.56,10.06,16.54,10.09h.08a15.36,15.36,0,0,0,6.74-1.74q-1.44-1.62-2.81-3.34a24.63,24.63,0,0,1-4.47-7.66,29.88,29.88,0,0,1-1-8.81c-.19-12.47.92-26.08,10.64-32.51,6.46-4.26,15.14-4.21,26.55.14q1.65.63,3.3,1.29l.87-4.38q.3-1.6.63-3.21c-2.63-.43-5.28-.78-7.87-1.12-7.68-1-15.63-2.06-23-5.09A36,36,0,0,1,32.19,88.93Zm93.64,64.77,9.7,11.71a27.73,27.73,0,0,0,3.22-1.74c2.17-1.35,3.41-2.65,3.91-4.11a8.42,8.42,0,0,0-.27-5.16c-1.75-5.77-5.61-10.5-9.76-14.55a57.4,57.4,0,0,0-5.36,9.7A38.42,38.42,0,0,0,125.83,153.7ZM79,146.48c6.49,6.37,14.9,13.68,24.88,18-3.06-5.6-5.42-11.24-3.33-16.41.56-1.4,3.33-5.8,15-3.28a10.28,10.28,0,0,1,5.85,3.51l2.36,2.85c.31-.93.65-1.85,1-2.75a60,60,0,0,1,5.84-10.5l-1-.86c-15.08,3.77-30.34,4.26-42.76-5.74-.5,1-1,1.94-1.48,2.92C83.25,138.53,81.16,142.65,79,146.48Zm45.58,13.42a26,26,0,0,1,3.25,1.79l2.15,1.36-5-6C124.85,158,124.7,159,124.59,159.9ZM57.27,111.69a17.45,17.45,0,0,0-9.84,2.72c-8.59,5.68-9.56,18.39-9.38,30.08a27.75,27.75,0,0,0,.89,8,22.43,22.43,0,0,0,4,6.75c1,1.3,2.08,2.54,3.18,3.74a39.79,39.79,0,0,0,3.73-2.73,70.06,70.06,0,0,0,8.1-7.79c1.92-2.7,3.95-5.31,6-7.87.53-.81,1-1.63,1.56-2.45-8.18-3.29-13.16-5.47-12.75-8.71.33-2.59,3.84-4.69,19.7-6.5,0-.08,0-.16.08-.25,1.06-3.35,1.92-6.86,2.68-10.4-1.22-.49-2.44-1-3.65-1.43A40.94,40.94,0,0,0,57.27,111.69Zm118,15.31c-4.57,4.83-9,11.55-7.37,18.45,1.22,5.25,5.46,8.88,10,12.72,1.38,1.19,2.77,2.38,4.09,3.64l.7-.47c6.59-4.44,14-9.48,17.89-17.12l.2-.42c-.29-.32-.58-.64-.88-1a102.81,102.81,0,0,0-20.68-16.5A33,33,0,0,1,175.28,127ZM70.43,141.08A29.54,29.54,0,0,1,77,144.51c2-3.63,4-7.53,6-11.57.58-1.15,1.17-2.3,1.76-3.45-.92-.86-1.82-1.78-2.7-2.77-3.3,4.45-6.86,8.68-10.35,12.83ZM182.76,125.3a104,104,0,0,1,19,15.57l0,0c1.86-6.64.42-14.72-5.31-18a15.1,15.1,0,0,0-6.13-1.76A26.89,26.89,0,0,1,182.76,125.3ZM71.45,129.86c-14.35,1.74-15.83,3.58-16,3.95.33,1.36,7.35,4.18,11.12,5.7l.36.14A71.6,71.6,0,0,0,71.45,129.86Zm16.74-1.05c11.18,9.29,24.87,9.31,38.94,6l-.37-.32c-5.52-4.82-11.22-9.81-14.73-16.54-2.9-5.56-3.94-13-1.55-19.1A46.3,46.3,0,0,0,99.13,110.3c.65,1,1.28,2.11,1.86,3.2.76,1.41,1.65,3.5.59,5.4s-3.29,2.12-4,2.21a25.25,25.25,0,0,1-5.28.1C90.87,123.69,89.52,126.24,88.19,128.81Zm-11-8.61c-.59,2.48-1.24,4.94-2,7.34q-1,3.31-2.42,6.52c2.57-3.09,5.12-6.24,7.52-9.5A53.39,53.39,0,0,1,77.14,120.2Zm36.12-20.87c-2.43,5.28-1.51,12.2,1.16,17.31,3.26,6.26,8.76,11.07,14.09,15.72l1.73,1.52.16.14c1.21-.32,2.43-.66,3.64-1l.06-.08c2-2.88,4.15-5.86,6-8.93a44.8,44.8,0,0,0,3.3-6.85c-2.31-1.51-4.51-3.08-6.59-4.61a120.69,120.69,0,0,1-10.28-8.38l-4.12-1.35-4.75-1.55A17,17,0,0,1,113.26,99.33Zm32.45,19.3a47.67,47.67,0,0,1-3.34,6.84c-1.25,2.12-2.62,4.17-4,6.18,4.9-1.61,9.79-3.42,14.56-5.19l4.94-1.83A66.33,66.33,0,0,1,145.71,118.63ZM171,127.18l-.18.78.63-.78Zm-87.24-2.75c.77.89,1.56,1.72,2.36,2.49,1.06-2,2.14-4.08,3.25-6.1-.93-.16-1.86-.36-2.78-.6C85.65,121.65,84.7,123.05,83.73,124.43Zm87.84-.06c.83,0,1.67,0,2.49-.09.19-.2.39-.4.59-.59l-1.8-1-1,.27Zm-3.72-.22,1,.1.09-.43Zm11.41-1,.37.22a26.46,26.46,0,0,0,5.94-2.39l-1.32,0h-.82c-.65,0-1.31.05-2,.11l-1.67,1.56Zm-32.6-7.2a59.15,59.15,0,0,0,15.57,7.14c2.38-.84,4.72-1.61,7-2.28a208.36,208.36,0,0,0-21.47-9.29A35.4,35.4,0,0,1,146.66,115.93Zm-67.88,1.72a51.44,51.44,0,0,0,3.14,4.57c.64-.92,1.27-1.85,1.88-2.79C82.11,118.9,80.44,118.29,78.78,117.65Zm93.73,1.68.69.37a51.62,51.62,0,0,1,7.08-1.32c4-3.8,7.71-7.86,9.32-13,2.37-7.51-.21-15.68-2.71-23.58l-.69-2.19q-2.08-6.7-3.61-13.61a72.49,72.49,0,0,0-8.91-6.52,49.46,49.46,0,0,1,1.52,6.74c.62,4,.93,8.62-1.42,12.28A10.82,10.82,0,0,1,170.23,82a14.9,14.9,0,0,1,4.23,5.24c1.75,3.82,1.23,8.18.82,11.69C174.49,105.65,173.68,112.52,172.51,119.33Zm-78.68-.86a22.7,22.7,0,0,0,3.39-.16c1.1-.14,1.78-.42,2-.83s.06-1.36-.61-2.61c-.38-.72-.79-1.42-1.21-2.12C96.18,114.58,95,116.5,93.83,118.47Zm-5.72-.78c.9.21,1.81.38,2.71.51,1.59-2.75,3.24-5.42,5-7.94A88.88,88.88,0,0,0,82.49,95.39c-.72,2.66-1.35,5.39-1.93,8.18,1.22.23,2.44.49,3.65.77,5.2,1.22,6.58,3.75,6.81,5.67a8.08,8.08,0,0,1-1.25,4.72C89.24,115.73,88.68,116.72,88.11,117.69Zm98.75.43c.89,0,1.77,0,2.64.07,11-9.62,10.5-27.65,3.63-39.57a46.83,46.83,0,0,0-6.95-9.18c.78,3.14,1.65,6.26,2.6,9.34l.69,2.17c2.63,8.34,5.36,17,2.71,25.34-1.48,4.69-4.4,8.45-7.73,11.86Zm-38.74-9.48A215,215,0,0,1,170,118c1.09-6.48,1.86-13,2.61-19.48.37-3.15.84-7.06-.57-10.14a14,14,0,0,0-4.57-5.11A35.71,35.71,0,0,1,161,84.87l-31.23,5.34c-1.88.33-3.69.66-5.38,1.09,6-.32,12.92,1.07,20.87,4.69l.43.2.23.43A22.2,22.2,0,0,1,148.12,108.64Zm-69.73,5.84c2.3.91,4.62,1.78,7,2.48q1.07-1.77,2-3.6a5.46,5.46,0,0,0,.93-3c-.23-1.94-3-2.88-4.71-3.27-1.19-.28-2.4-.53-3.61-.76-.22,1.1-.44,2.2-.65,3.31C79,111.24,78.72,112.86,78.39,114.48Zm55-8c1.69,1.36,3.35,2.62,4.92,3.78,1.88,1.38,3.87,2.8,5.94,4.17a31.45,31.45,0,0,0,.88-3.86Q139.33,108.41,133.42,106.45Zm-50.06-14a97.06,97.06,0,0,1,14.16,15.47,47.05,47.05,0,0,1,12.67-12.13A19.93,19.93,0,0,1,109,92.93a34.43,34.43,0,0,1-.27-20.13c-.06-.59-.11-1.17-.15-1.75a42.35,42.35,0,0,0-.62-5,35,35,0,0,0-15.7,9.72C88,80.58,85.31,86.24,83.36,92.42Zm44.51,9.22c5.87,1.93,11.77,3.9,17.6,6a19.23,19.23,0,0,0-1.73-9.28c-8.83-3.95-16.23-5-22.57-3.85A72,72,0,0,0,127.87,101.64Zm-94-15.21A33.15,33.15,0,0,0,47.45,97c7,2.9,14.83,3.92,22.34,4.91,2.67.35,5.38.71,8.09,1.15.69-3.29,1.44-6.56,2.38-9.76Q78.13,91.42,76,89.53c-1.68-1.5-3.36-3-5-4.5-4-3.6-8.29-7.93-9.56-13.69A17.72,17.72,0,0,1,64.1,58a65.83,65.83,0,0,0-13.52,9.07A94.84,94.84,0,0,0,33.83,86.43Zm80.86,10.49a14.25,14.25,0,0,0,3.75,1.64l3.61,1.18c-1.34-1.44-2.63-2.94-3.85-4.51a26,26,0,0,0-3,1.1C115,96.52,114.84,96.72,114.69,96.92Zm-4.5-16.76A30.41,30.41,0,0,0,111.6,92a16.16,16.16,0,0,0,1,2.41c.33-.17.68-.33,1-.49l.34-.35A15.22,15.22,0,0,1,115.86,92,44,44,0,0,1,110.19,80.16Zm1.33-7.1c0,.27.06.55.1.81a38.92,38.92,0,0,0,6.59,16.68c3.6-1.83,7.66-2.53,11.13-3.12l31.23-5.34c1.35-.24,2.71-.49,4-.84-9.51-6.55-22-14.1-35.63-16.39a46.81,46.81,0,0,0-13.23-.37A30,30,0,0,0,111.52,73.06ZM69.32,55.7c-4,4.32-6.46,9.6-5.26,15,1.09,5,5.06,8.9,8.7,12.21,1.64,1.5,3.32,3,5,4.47,1.14,1,2.28,2,3.41,3.05a45.89,45.89,0,0,1,9.15-16.54,37.6,37.6,0,0,1,16.87-10.47c-3.26-8-13.08-11.31-21.7-11.06A49.12,49.12,0,0,0,69.32,55.7Zm35.89-35.64a10.82,10.82,0,0,0-1.34.11c-12,1.47-19,7.71-27.05,14.92-9.45,8.42-20.16,18-41.41,23-3.14.74-4.43,5.59-5.47,9.49l-.3,1.11C28.21,74,29.42,79.26,32.18,84A97.43,97.43,0,0,1,48.84,64.89a67,67,0,0,1,19-11.63,37.43,37.43,0,0,1,9.44-7c23.12-12.12,48.93-8.53,67.91-2.57,3.73-1.32,8.16-2.68,12.54-2,7.58,1.25,12,7.55,14.48,13.63a83.75,83.75,0,0,1,9.47,6.32q-1.29-6.6-2-13.28c-.93-8.3-2.1-18.63-9.29-22.22-6.39-3.19-13.86,1.1-16.78,3.1-13.75,9.4-22,8.76-28.87,6.62-.92-.11-1.79-.19-2.61-.27-6.81-.64-11.3-1.06-13.94-12-.33-1.36-.72-2.73-1.6-3.25A2.62,2.62,0,0,0,105.21,20.06ZM121,61.37a50.92,50.92,0,0,1,8.37.7c14.65,2.47,27.84,10.66,37.69,17.52l.72.51A8.82,8.82,0,0,0,171.52,77c1.83-2.86,1.53-6.8,1-10.28a44.29,44.29,0,0,0-2.45-9.33c-3.19-1.8-6.67-3.53-10.47-5.22a146.21,146.21,0,0,0-14.35-5.48l-.37.14c-8.76,3.14-19.47,7-26.65,14.65C119.15,61.39,120.08,61.37,121,61.37Zm-10.4,4c.13.59.23,1.18.31,1.78q.54-1.08,1.14-2.1C111.59,65.16,111.1,65.27,110.62,65.39ZM86.34,49.52c9.46,0,20,4,23.49,13.17a43.3,43.3,0,0,1,4.43-.85c6.77-8.72,17.28-13.16,26.49-16.54-18.07-5.1-41.35-7.46-62.24,3.49A38.51,38.51,0,0,0,74.79,51a50,50,0,0,1,10.62-1.49Zm63.38-4.32c4.09,1.44,7.78,2.94,10.95,4.35q3.9,1.73,7.38,3.54c-2.52-4.43-6.06-7.79-10.73-8.56A17.73,17.73,0,0,0,149.72,45.2Z"/><path class="cls-3" d="M252,81.3c-5.47,0-8.25-3.49-10.7-6.56s-4.43-5.54-8.62-5.54a13.79,13.79,0,0,1-7.21-1.87,11,11,0,0,0-6-1.57c-3.83,0-6.52-2.61-8.88-4.91-2.2-2.13-4.27-4.15-7-4.15-4.43,0-8.76-6.26-13.36-12.88-3.8-5.49-8.11-11.71-11.15-11.71V29.29c4.43,0,8.77,6.26,13.36,12.88,3.8,5.49,8.11,11.71,11.15,11.71,3.84,0,6.53,2.61,8.89,4.91,2.2,2.13,4.27,4.14,7,4.14a13.8,13.8,0,0,1,7.22,1.87,11,11,0,0,0,6,1.58c5.47,0,8.25,3.48,10.71,6.55s4.42,5.54,8.61,5.54Z"/><path class="cls-3" d="M175.94,94.19a7.54,7.54,0,0,1-5.11-2,5,5,0,0,0-3.49-1.39V88a7.57,7.57,0,0,1,5.12,2,4.9,4.9,0,0,0,3.48,1.39c2.82,0,5.71-7.41,8-13.36,3-7.78,5.9-15.13,10.55-15.13,4.35,0,7.85,4.22,11.24,8.29,3,3.6,6.07,7.31,9.18,7.31,4.42,0,5.06,3.48,5.49,5.77.48,2.63.81,3.48,2.82,3.48,2.64,0,3.67-1.33,5-3s3.13-4.07,7.09-4.07c5.4,0,7.36,2.1,9.09,4,1.55,1.66,2.89,3.09,7.15,3.09v2.82c-5.41,0-7.37-2.1-9.1-4-1.55-1.66-2.89-3.1-7.14-3.1-2.65,0-3.68,1.33-5,3s-3.14,4.07-7.09,4.07c-4.43,0-5.07-3.47-5.49-5.77-.49-2.63-.81-3.47-2.82-3.47-4.36,0-7.86-4.22-11.24-8.3-3-3.59-6.07-7.31-9.18-7.31-2.82,0-5.71,7.41-8,13.37C183.46,86.84,180.59,94.19,175.94,94.19Z"/><path class="cls-3" d="M213.31,116.46c-4.81,0-7-5.06-9.1-10-1.84-4.26-3.57-8.29-6.62-8.29V95.39c4.81,0,7,5.06,9.1,10,1.83,4.26,3.57,8.29,6.62,8.29,3.5,0,5.16-1.18,7.09-2.55a13.28,13.28,0,0,1,8.62-3c5.21,0,7.82-2.51,10.57-5.18s6.14-5.93,12.42-5.93v2.82c-5.21,0-7.81,2.51-10.57,5.18s-6.14,5.93-12.42,5.93c-3.51,0-5.17,1.19-7.09,2.55A13.22,13.22,0,0,1,213.31,116.46Z"/><path class="cls-2" d="M191.05,154.93v-2.82c2.92,0,7.45-3.72,11.83-7.32,6.17-5,12-9.82,16.43-7.57,2.22,1.12,3.43.67,5.61-.14,2.82-1.06,6.68-2.5,14.4-.76,1,.21,2-2.4,2.77-4.5,1.42-3.67,3.35-8.69,8-7.72,3.12.65,7.29.35,12.57,0a138.25,138.25,0,0,1,25.26,0l-.26,2.81a136.23,136.23,0,0,0-24.82,0c-5.48.39-9.81.7-13.29,0-2.24-.47-3.41,2.08-4.93,6-1.26,3.25-2.68,6.93-5.87,6.21-7-1.57-10.25-.34-12.9.65-2.29.86-4.47,1.67-7.72,0-2.91-1.48-8.56,3.17-13.55,7.26S194.91,154.93,191.05,154.93Z"/><path class="cls-2" d="M224.05,133.43a6.35,6.35,0,0,1-2.27-.45c-7.58-2.87-12.46-2.86-20.51-2.86h-1a11.51,11.51,0,0,1-5.53-1.27,9,9,0,0,0-4.43-1V125a11.65,11.65,0,0,1,5.53,1.26,8.91,8.91,0,0,0,4.43,1h1c8.07,0,13.41,0,21.44,3,3.15,1.19,5.1-2,7.93-7.5,2.44-4.73,5.22-10.09,10.17-10.09,6.91,0,6.91,0,14.74-4.54l1.35-.78c4.16-2.41,7.32.61,9.62,2.82,2.72,2.59,3.92,3.42,5.79,1.8,2.4-2.09,3.93-2.89,5.3-2.74s2.13,1.14,2.87,2.11c1.16,1.52,2.6,3.41,7.3,3.41v2.82c-6,0-8.15-2.8-9.43-4.47-.39-.51-.79-1-1-1.07s-1,.13-3.27,2.1c-3.88,3.37-7.06.33-9.38-1.89-2.49-2.38-4.13-3.77-6.46-2.43l-1.34.78c-8.29,4.81-8.45,4.91-16.07,4.91-3.33,0-5.59,4.37-7.78,8.6C230.76,128.55,228.23,133.43,224.05,133.43Z"/><path class="cls-2" d="M270.79,123.59a18.74,18.74,0,0,1-8.31-2.11,16.22,16.22,0,0,0-7.22-1.88,4.16,4.16,0,0,1-3.31-1.28c-1.24-1.42-1-3.53-.85-5.4.12-1.22.27-2.73-.16-3.22a1.9,1.9,0,0,0-1.28-.35c-4.79,0-5.85-4.24-6.63-7.34-.91-3.63-1.57-5.22-4-5.22-3.38,0-6.37,1.74-9.53,3.58-3.33,1.94-6.77,3.94-10.86,3.94-2.63,0-6.1-3.93-11.54-10.35-3.18-3.75-8-9.4-9.51-9.4V81.74c2.63,0,6.1,3.93,11.54,10.35,3.18,3.74,8,9.4,9.51,9.4,3.38,0,6.37-1.74,9.53-3.58C231.5,96,234.94,94,239,94c4.79,0,5.85,4.24,6.63,7.33.91,3.64,1.56,5.23,4,5.23a4.18,4.18,0,0,1,3.3,1.27c1.24,1.43,1,3.54.85,5.41-.12,1.21-.27,2.73.16,3.22a1.93,1.93,0,0,0,1.29.35,18.66,18.66,0,0,1,8.3,2.11,16.27,16.27,0,0,0,7.23,1.88c4,0,5.51-3.16,7.28-6.82,1.89-3.93,4-8.38,9.71-8.38v2.82c-4,0-5.51,3.16-7.28,6.82C278.6,119.14,276.46,123.59,270.79,123.59Z"/><path class="cls-1" d="M187.41,185.88l-.47-2.78c2.82-.51,7-3.3,11.44-6.25,8.62-5.74,18.39-12.25,26.87-9.18,5.67,2.06,7.2-.19,10-4.27,3.25-4.77,7.7-11.29,21.39-11.29v2.82c-12.29,0-16,5.36-19.17,10.1-2.83,4.15-5.49,8.06-13.1,5.3-7.23-2.61-16.4,3.5-24.5,8.89C195,182.47,190.77,185.27,187.41,185.88Z"/><path class="cls-1" d="M209,158.83a8.46,8.46,0,0,1-4.86-1.72l1.52-2.34c4.38,3.06,7.39,0,11.81-5.41,2.73-3.34,5.32-6.5,8.58-6.5h28.87v2.82H226c-2,0-4.29,2.8-6.51,5.51C216.67,154.69,213.28,158.83,209,158.83Z"/><path class="cls-1" d="M251.56,136.41c-6.11,0-9.28-2.9-12.08-5.46s-5.21-4.76-10.29-4.76c-3.76,0-5.59.16-7.53.32s-3.88.33-7.76.33c-4.3,0-6.53-1.86-8.49-3.5s-3.45-2.89-6.8-2.89c-3.59,0-5.41,2.84-7.52,6.13-2.21,3.46-4.72,7.38-9.78,7.38v-2.82c3.6,0,5.42-2.84,7.52-6.12,2.22-3.46,4.73-7.39,9.78-7.39,4.3,0,6.53,1.86,8.5,3.51s3.45,2.88,6.79,2.88c3.77,0,5.6-.16,7.54-.32s3.87-.33,7.75-.33c6.11,0,9.28,2.9,12.08,5.46s5.21,4.76,10.29,4.76Z"/><rect class="cls-3" x="250.65" y="96.97" width="197.41" height="2.82"/><rect class="cls-3" x="249.81" y="87.72" width="197.41" height="2.82"/><rect class="cls-3" x="250.65" y="78.47" width="197.41" height="2.82"/><polygon class="cls-2" points="471.11 126.89 287.46 126.89 287.78 124.07 471.11 124.07 471.11 126.89"/><rect class="cls-2" x="285.87" y="114.82" width="185.24" height="2.82"/><rect class="cls-2" x="285.87" y="105.57" width="185.24" height="2.82"/><rect class="cls-1" x="252.79" y="152.11" width="195.27" height="2.82"/><rect class="cls-1" x="252.79" y="142.86" width="195.27" height="2.82"/><rect class="cls-1" x="251.56" y="133.61" width="196.5" height="2.82"/><path class="cls-4" d="M606.57,100.24h-201a2.76,2.76,0,0,1-2.71-2.82V80.9a2.77,2.77,0,0,1,2.71-2.82h201a2.78,2.78,0,0,1,2.72,2.82V97.42A2.77,2.77,0,0,1,606.57,100.24Z"/><path class="cls-5" d="M606.57,127.31h-201a2.76,2.76,0,0,1-2.71-2.82V108a2.76,2.76,0,0,1,2.71-2.82h201a2.77,2.77,0,0,1,2.72,2.82v16.52A2.77,2.77,0,0,1,606.57,127.31Z"/><path class="cls-6" d="M606.57,155.35h-201a2.76,2.76,0,0,1-2.71-2.82V136a2.76,2.76,0,0,1,2.71-2.82h201a2.77,2.77,0,0,1,2.72,2.82v16.52A2.77,2.77,0,0,1,606.57,155.35Z"/><circle class="cls-7" cx="696.07" cy="118.96" r="97.04"/><circle class="cls-8" cx="696.07" cy="118.96" r="83.08"/><g class="cls-9"><line class="cls-10" x1="696.07" y1="35.89" x2="696.07" y2="202.04"/><line class="cls-10" x1="754.82" y1="60.22" x2="637.33" y2="177.71"/><line class="cls-10" x1="779.15" y1="118.96" x2="613" y2="118.96"/><line class="cls-10" x1="754.81" y1="177.71" x2="637.33" y2="60.22"/></g><g class="cls-9"><line class="cls-10" x1="664.41" y1="42.16" x2="727.74" y2="195.77"/><line class="cls-10" x1="727.99" y1="42.27" x2="664.15" y2="195.66"/><line class="cls-10" x1="772.88" y1="87.3" x2="619.27" y2="150.63"/><line class="cls-10" x1="772.77" y1="150.88" x2="619.37" y2="87.05"/></g><circle class="cls-11" cx="696.07" cy="72.01" r="12.38" transform="translate(83.86 410.98) rotate(-34.88)"/><path class="cls-11" d="M706,85.22H686.11A12.33,12.33,0,0,0,673.8,98.28l1.66,27.86a7.91,7.91,0,0,0,7.91,7.45h0l1.92,42.22a4.85,4.85,0,0,0,4.84,4.61H702a4.86,4.86,0,0,0,4.85-4.61l1.92-42.22h0a7.92,7.92,0,0,0,7.91-7.45l1.66-27.86A12.34,12.34,0,0,0,706,85.22Z"/></svg>