<svg xmlns="http://www.w3.org/2000/svg" viewBox="0 0 350 303">
    <defs>
        <style>
            .a{fill:#2b90ff}.b{fill:#d8d8d8}.c{fill:#fff}.d{fill:#ffcfae}.e{fill:#444549}.f,.g,.m{isolation:isolate}.f{opacity:.1}.g,.m{fill:#3a2416}.g{opacity:.04}.h{fill:#10355d}.i{fill:#dbdbdb}.j{fill:#081b2f}.k{fill:#9b9b9b}.l{fill:#424242}.m{opacity:.08}
        </style>
    </defs>
    <title>
        illust__repeat_customers
    </title>
    <path class="a" d="M342.23 198l-.14-.08L176 103.38a23 23 0 0 0-6.7-2.4 37.67 37.67 0 0 0-12.08-.41 30.21 30.21 0 0 0-11.29 3.56l-.11.06L6.78 186c-4.3 2.54-6.44 5.85-6.4 9.17s2.25 6.61 6.61 9.11l.11.06L64.48 237l1.86-1.09L9 203.24l-.1-.06C5 201 3.07 198.05 3 195.14s1.84-5.83 5.64-8.06l139-81.8.09-.06a29.15 29.15 0 0 1 13.62-3.42 31.79 31.79 0 0 1 7 .61 19.77 19.77 0 0 1 5.73 2L340.22 199l.13.07c4.44 2.59 6.63 5.62 6.81 8.59s-1.67 5.84-5.44 8.05l-139.6 82.14-.1.06a30.46 30.46 0 0 1-27.55.05l-41.6-23.54a2.07 2.07 0 0 0-1.9 0 .58.58 0 0 0 0 1.08l41.61 23.5a32.24 32.24 0 0 0 15.7 3.71 31.91 31.91 0 0 0 15.6-3.77l.11-.06 139.64-82.13c4.27-2.51 6.4-5.81 6.2-9.18s-2.7-6.8-7.59-9.62"/>
    <path class="a" d="M70.14 234.5a1.5 1.5 0 0 0-1.37 0l-2.44 1.44-1.86 1.06-2.28 1.34a.42.42 0 0 0 0 .79 1.31 1.31 0 0 0 .54.16l7.88.66c.65.05 1.2-.27 1.09-.64l-1.3-4.56a.54.54 0 0 0-.27-.3"/>
    <path class="b" d="M182.46 225.92c-8.82 5.13-6.83 14.67 4.4 21.21s27.65 7.69 36.47 2.56 6.83-14.67-4.4-21.21-27.66-7.68-36.47-2.56z"/>
    <path class="c" d="M192.77 73.6L181.38 103l-11.91-1.26c.68-12.13 2.53-26.12 6.64-34.82"/>
    <path class="d" d="M171.81 126.82c.08 7.62 3.84 11.7 4.9 12.75s1.52.53 1.52.53c1.14.8 1.28.17 1.28.17 1.14.62 1.24-.17 1.24-.17s.91.49 1.25 0-.91-1.42-1.77-2.34a7 7 0 0 1-1.47-2.93c.46 1.6.91 1.54 1.17 1.35s.2-.58 0-1.37c-.15-.58-.26-1.12-.45-1.9-.3-1.23-.72-5.58-.72-5.58z"/>
    <path class="c" d="M181.41 103l-2.59 26.43-7.21-.19s-3.3-6.52-2.11-27.74"/>
    <circle class="c" cx="175.49" cy="101.81" r="5.99"/>
    <circle class="c" cx="184.2" cy="70.86" r="9.01"/>
    <path class="e" d="M218.51 241.64c0-.73.05-2.66-.68-3.37-1.21-1.2-4.18-.19-6.6 2.23s-3.42 5.39-2.22 6.6 4.18.21 6.6-2.23a24.52 24.52 0 0 0 2.9-3.23z"/>
    <path class="d" d="M217.1 238.17c-.76-.79-2.66-.2-4.25 1.32s-2.28 3.39-1.52 4.18 2.66.19 4.25-1.33 2.27-3.34 1.52-4.17z"/>
    <path class="e" d="M196.58 229.28c0-.7.05-2.54-.65-3.24-1.16-1.16-4-.2-6.34 2.14s-3.3 5.18-2.14 6.34 4 .2 6.34-2.14a21.82 21.82 0 0 0 2.79-3.1z"/>
    <path class="d" d="M195.24 225.92c-.72-.76-2.55-.19-4.08 1.27s-2.19 3.29-1.46 4 2.57.19 4.08-1.27 2.22-3.24 1.46-4z"/>
    <path class="a" d="M218.51 239.83c0 1.27-1.52 2.21-3.67 2.21s-3.11-1-3.11-2.32c0 0-7.21-31.37-8.63-43.58s-3.32-35.05-3.32-35.05l-3.93 30.65.82 36.07c0 .95-1.4 1.63-3.42 1.63-1.81 0-2.71-.62-2.88-1.44s-7.74-25.93-9.57-48.38c-1.21-14.92-.84-35.52-.61-46.32l47.58 9c-3.07 22.23-9.24 56.89-9.24 56.89z"/>
    <path class="c" d="M218.86 62.07c-7.88-4.45-23-7.91-32.76-4.13-12.88 4.94-12.88 20.21-12.88 20.18v45.31c0 6.2-.36 13.32 8 20.86 5 4.5 17.73 12.09 28.24 14.34a22.86 22.86 0 0 0 7.65.46c13.59-1.9 16.09-9.72 16.09-19.63 0 0 .67-46.46-1.09-58.82-1.87-12.87-13.25-18.57-13.25-18.57z"/>
    <path class="f" d="M232.06 80.65c1.76 12.36 1.09 58.82 1.09 58.82 0 9.91-2.49 17.73-16.09 19.63a20.79 20.79 0 0 1-5.82-.13c2.85-1.44 7.21-6.78 7.21-26V83s-.53-9 7.33-9a7.24 7.24 0 0 1 5.31 2.45 23.58 23.58 0 0 1 .97 4.2z"/>
    <path class="d" d="M230.34 148.78c0 7.62-3.64 11.77-4.67 12.84s-1.52.55-1.52.55c-1.14.82-1.28.19-1.28.19-1.14.64-1.25-.14-1.25-.14s-.91.49-1.25 0 .89-1.44 1.73-2.37a7 7 0 0 0 1.42-3c-.42 1.61-.87 1.56-1.14 1.37s-.22-.57 0-1.37c.14-.57.24-1.11.42-1.9.27-1.23.62-5.59.62-5.59z"/>
    <path class="c" d="M236.32 118.16c-1.3 22.14-6.57 36-6.57 36l-6.9.21-1.19-35.26"/>
    <circle class="c" cx="228.95" cy="118.19" r="7.36" transform="rotate(-1.03 228.688 118.322)"/>
    <path class="c" d="M229.91 73.9c4.36 8.58 6.64 20.68 6.64 36.77 0 3.82-.23 7.39-.23 7.39l-14.36 2.4-11.49-38.38"/>
    <circle class="c" cx="220.43" cy="78.59" r="10.56" transform="rotate(-.22 221.22 78.556)"/>
    <path class="d" d="M207.22 46v13.64a3.74 3.74 0 0 1-2.14 2.9 11.48 11.48 0 0 1-10.42 0 3.76 3.76 0 0 1-2.17-3v-1.29c-3.11-2.74-5.11-8-4.91-13 .11-2.78 0-6.51 1.25-8.57 1.9-3.19 5.8-4 9.11-3.88 5.41.2 9.58 6.2 9.28 13.2z"/>
    <path class="g" d="M207.19 46.52v13.1a3.74 3.74 0 0 1-2.14 2.9 11.48 11.48 0 0 1-10.42 0 3.76 3.76 0 0 1-2.17-3v-1.3a7.05 7.05 0 0 0 4.36 1.9c5.31.25 9.93-6.67 10.37-13.6z"/>
    <path class="h" d="M209.75 46.16a14 14 0 0 1-3.33 4.6 18.8 18.8 0 0 0 .73-3.67 1.41 1.41 0 0 0 0-.15 1.81 1.81 0 1 0-3.55-.76l-.72-7.55s-8.79 2.91-14.73-.51a23 23 0 0 0-.6 5.37c-3.61-4.83-4-11.62-2.33-15.08a2.48 2.48 0 0 0 1.58 1.26 1.61 1.61 0 0 1 0-1.11c1.17 2.31 12.27-.16 15.82-.54s4.45 1.33 4.45 1.33 2.51-.31 4 4.1c1.13 3.26 1.15 7.4-1.32 12.71z"/>
    <path class="a" d="M194.33 65.14l1.1 4.16-5.03 35.32 5.81 13.54 5.7-6.89-4.68-40.89 1.68-4.03-2.58-1.63-2 .42z"/>
    <path class="i" d="M191.63 57.43a10.47 10.47 0 0 0 .83.84c.44 2.43 4.07 5.08 4.07 5.08 8.4-2.48 10.68-6.83 10.68-6.83a4.87 4.87 0 0 1 1.62 1.62c.69 1.58-.8 3.48-.8 3.48l-6.9 8.25-4.79-5.14-4.93 2.6-.25-8.64a2.28 2.28 0 0 1 .47-1.26z"/>
    <path class="a" d="M206.74 86.18l9.09 5.28v-2.97l-9.09-5.28v2.97z"/>
    <path class="d" d="M127.84 148.3s-.41 4.2-.73 5.38c-.18.73-.29 1.27-.44 1.83-.2.73-.25 1.14 0 1.33s.68.24 1.14-1.3a6.74 6.74 0 0 1-1.45 2.83c-.82.89-2 1.79-1.71 2.28s1.21 0 1.21 0 .11.73 1.2.16c0 0 .13.61 1.24-.16 0 0 .44.51 1.45-.51s4.66-4.94 4.73-12.32z"/>
    <path class="c" d="M136.78 123.31c1.14 20.5-2 26.8-2 26.8l-6.94.2-2.49-25.54"/>
    <circle class="c" cx="131" cy="123.64" r="5.79"/>
    <path class="b" d="M88.37 246c-10.86 6.31-12.77 15.53-4.26 20.5s24.37 3.84 35.23-2.48 12.76-15.55 4.26-20.48-24.37-3.84-35.23 2.46z"/>
    <path class="c" d="M130.41 89.91c4 8.41 5.75 21.92 6.41 33.65l-11.51 1.22-11-28.37"/>
    <circle class="c" cx="122.58" cy="93.74" r="8.7"/>
    <path class="j" d="M92.24 261.85c2.35 2.36 5.21 3.32 6.37 2.18s.2-4-2.18-6.38-5.21-3.32-6.37-2.18c-.73.73-.65 2.55-.65 3.25a21.83 21.83 0 0 0 2.84 3.13z"/>
    <ellipse class="d" cx="93.57" cy="258.01" rx="1.91" ry="3.86" transform="rotate(-46.32 93.572 258.001)"/>
    <path class="j" d="M113.3 249.78c2.28 2.28 5 3.19 6.12 2.07s.2-3.87-2.07-6.12-5-3.19-6.14-2.07c-.68.68-.63 2.45-.63 3.13a20.91 20.91 0 0 0 2.72 2.99z"/>
    <ellipse class="d" cx="114.58" cy="246.14" rx="1.83" ry="3.7" transform="rotate(-46.32 114.572 246.147)"/>
    <path class="k" d="M89.41 217.74s-6-33.47-8.92-55l46-8.73c.22 10.44.58 30.34-.59 44.74-1.77 21.7-9.24 46.74-9.24 46.74-.17.79-1 1.39-2.79 1.39-1.94 0-3.3-.65-3.3-1.57l.79-34.82-3.8-29.62s-1.84 22.08-3.21 33.86S96 256.88 96 256.88c0 1.24-.9 2.24-3 2.24s-3.53-.91-3.55-2.13z"/>
    <path class="c" d="M76.32 103.19c-1.7 11.95-1.05 56.81-1.05 56.81 0 9.58 2.41 17.13 15.55 19a22.05 22.05 0 0 0 7.39-.45c10.18-2.18 22.48-9.49 27.29-13.82 8.05-7.28 7.73-14.16 7.73-20.15v-43.84s0-14.71-12.45-19.5c-9.46-3.64-24-.3-31.65 4-.02-.01-11.03 5.51-12.81 17.95z"/>
    <path class="b" d="M77.26 99.19a7 7 0 0 1 5.11-2.36c7.59 0 7.08 8.61 7.08 8.61v48.29c0 18.58 4.21 23.74 7 25.12a20.09 20.09 0 0 1-5.62.13c-13.14-1.84-15.55-9.39-15.55-19 0 0-.65-44.88 1.06-56.83a22.72 22.72 0 0 1 .92-3.96z"/>
    <path class="d" d="M83.38 170.93s.33 4.21.6 5.4c.17.73.27 1.28.4 1.83.18.76.22 1.14 0 1.32s-.73.22-1.1-1.33a6.74 6.74 0 0 0 1.37 2.85c.81.9 2 1.83 1.67 2.28s-1.21 0-1.21 0-.12.73-1.2.14c0 0-.14.61-1.24-.18 0 0-.44.5-1.45-.54s-4.57-5-4.52-12.37z"/>
    <path class="c" d="M85.07 141.63l-1.14 34.06-6.67-.19s-5.09-13.4-6.34-34.79"/>
    <circle class="c" cx="78.02" cy="140.73" r="7.11" transform="rotate(-88.97 78.021 140.731)"/>
    <path class="c" d="M95.86 105.85l-11.07 37.09-13.88-2.31s-.22-3.44-.22-7.14c0-15.57 2.18-27.24 6.41-35.53"/>
    <circle class="c" cx="86.25" cy="102.46" r="10.2" transform="rotate(-89.78 86.242 102.462)"/>
    <path class="d" d="M109.48 53.33c3.57-.14 7.76.74 9.83 4.18 1.33 2.22 1.23 6.25 1.35 9.25.22 5.41-1.94 11.08-5.29 14v1.41a4 4 0 0 1-2.37 3.24 12.39 12.39 0 0 1-11.25 0 4 4 0 0 1-2.3-3.13V68.14v-.5c-.34-7.64 4.18-14.07 10.03-14.31z"/>
    <path class="l" d="M100.49 72a23.22 23.22 0 0 0-.57-3.16c-.53-2.4 1.31-2.62 1.31-2.62a1.75 1.75 0 0 1 1.84 1.57l.22 3.83 1.4.46s-.42-2.76-.42-3.55c0-4.37 1-4.61 1-4.61l.54-3.42s8.88 1.07 13.95-1.66a26.2 26.2 0 0 1 .81 6s1.06-7.25-.62-11.7-4.46-6.66-9.16-6.61c0 0-14.16-1.14-15.43 8.49 0 0-1.4 10.79 4.09 19.91.03.01 1.03-2.93 1.04-2.93z"/>
    <path class="m" d="M110.67 82.83a7.59 7.59 0 0 0 4.7-2v1.4a4 4 0 0 1-2.37 3.18 12.39 12.39 0 0 1-11.25 0 4 4 0 0 1-2.3-3.13V68.14c.5 7.47 5.48 14.92 11.22 14.69z"/>
    <ellipse class="a" cx="106.59" cy="18.31" rx="18.3" ry="18.31"/>
    <path class="c" d="M106.58 26.37a8 8 0 0 1-5.69-2.37.66.66 0 0 1 .91-.94 6.78 6.78 0 0 0 11.56-4.79 6.9 6.9 0 0 0 0-.84.65.65 0 1 1 1.28-.16 8.28 8.28 0 0 1 .06 1 8.08 8.08 0 0 1-8.12 8.1zM99.2 19.8a.65.65 0 0 1-.64-.57 8.09 8.09 0 0 1 13.72-6.65.65.65 0 1 1-.91.92 6.78 6.78 0 0 0-11.51 5.59.65.65 0 0 1-.58.72z"/>
    <path class="c" d="M99 20.56l-2.57-3.85a.65.65 0 1 1 1-.79v.07l1.74 2.61 2.3-2.08a.65.65 0 0 1 .87.94zM116.29 20.45a.65.65 0 0 1-.54-.28L114 17.56l-2.3 2.07a.65.65 0 1 1-.87-.94l3.42-3.08 2.57 3.85a.65.65 0 0 1-.54 1z"/>
</svg>
