<svg width="450" height="378" viewBox="0 0 450 378" xmlns="http://www.w3.org/2000/svg">
    <g fill-rule="nonzero" fill="none">
        <path d="M407.005 245.425L235.31 146.417c-5.938-3.425-15.536-3.425-21.436 0L43.296 245.425c-5.9 3.426-5.868 8.977.07 12.403l171.693 99.007c5.938 3.426 15.537 3.426 21.436 0l170.58-99.007c5.899-3.426 5.867-8.977-.07-12.403" fill="#EAEAEA"/>
        <path d="M412.62 244.72L237.577 143.788c-5.937-3.426-15.536-3.426-21.435 0L42.242 244.723c-5.9 3.425-5.868 8.977.07 12.402L217.348 358.07c5.938 3.426 15.536 3.426 21.436 0l173.9-100.947c5.904-3.425 5.872-8.977-.066-12.403" fill="#D1D1D1"/>
        <path d="M412.616 241.72L237.578 140.775c-5.937-3.426-15.536-3.426-21.435 0L42.242 241.721c-5.9 3.425-5.865 8.977.073 12.4l175.037 100.943c5.938 3.426 15.533 3.426 21.433 0l173.9-100.944c5.9-3.425 5.869-8.977-.069-12.402" fill="#FFF"/>
        <g transform="translate(165.306 65.478)">
            <path d="M133.249 161.009c8.93 5.184 10.504 12.757 3.483 16.825-7.02 4.068-20.042 3.163-28.97-2.03-8.927-5.195-10.504-12.758-3.483-16.826 7.02-4.068 20.055-3.17 28.97 2.031z" fill="#D8D8D8"/>
            <path d="M130.082 174.01c-1.935 1.932-4.282 2.726-5.241 1.768-.96-.959-.168-3.302 1.767-5.235 1.935-1.933 4.282-2.727 5.241-1.772.58.58.538 2.091.538 2.673-.316.601-1.53 1.797-2.305 2.566z" fill="#081B2F"/>
            <path d="M130.082 171.998c-1.267 1.208-2.78 1.676-3.376 1.05-.595-.626-.057-2.11 1.21-3.318 1.267-1.208 2.78-1.677 3.376-1.05.595.626.057 2.113-1.21 3.318z" fill="#FFCFAE"/>
            <path d="M112.757 164.1c-1.86 1.856-4.117 2.619-5.036 1.698-.918-.92-.161-3.163 1.698-5.03 1.859-1.866 4.117-2.618 5.035-1.698.557.554.516 2.009.516 2.568-.31.573-1.472 1.724-2.213 2.461z" fill="#081B2F"/>
            <path d="M112.744 162.167c-1.216 1.16-2.67 1.61-3.243 1.009-.573-.601-.054-2.028 1.162-3.189 1.216-1.16 2.67-1.61 3.243-1.006.573.605.054 2.028-1.162 3.186z" fill="#FFCFAE"/>
            <path d="M132.397 137.779s6.967-27.972 9.402-45.604l-42.435-7.538c-.18 8.576 2.11 25.777 3.075 37.604 1.454 17.815 7.6 38.382 7.6 38.382.137.633.855 1.139 2.29 1.139 1.583 0 2.71-.538 2.71-1.29l-.633-28.596 3.126-24.318s1.514 18.125 2.638 27.804c1.124 9.68 6.853 34.58 6.853 34.58 0 1.012.74 1.838 2.47 1.838 1.729 0 2.907-.75 2.92-1.753l-.016-32.248z" fill="#2B90FF"/>
            <path d="M98.712 32.802c-3.262 6.918-4.731 17.99-5.27 27.624l9.463 1.003 9.044-23.29" fill="#FFF"/>
            <path d="M100.802 80.762s.339 3.448.573 4.429c.149.632.24 1.047.358 1.5.161.632.203.948 0 1.084-.203.136-.564.196-.925-1.072.2.857.602 1.654 1.172 2.325.678.73 1.672 1.47 1.406 1.856-.266.386-.991 0-.991 0s-.086.633-.985.133c0 0-.108.503-1.02-.133 0 0-.36.418-1.197-.417-.836-.835-3.835-4.071-3.895-10.122l5.504.417z" fill="#FFCFAE"/>
            <path d="M93.455 60.236c-.95 16.838 1.678 22.01 1.678 22.01l5.716.155 2.052-20.969" fill="#FFF"/>
            <ellipse fill="#FFF" cx="98.215" cy="60.515" rx="4.76" ry="4.754"/>
            <ellipse fill="#FFF" cx="105.131" cy="35.959" rx="7.154" ry="7.146"/>
            <path d="M102.743 94.218c3.917 3.61 14.086 9.588 22.437 11.388 1.99.465 4.045.59 6.077.37 10.802-1.512 12.784-7.709 12.784-15.572l-.025-40.435c-.048-14.95-11.353-20.985-11.353-20.985-6.264-3.53-18.244-6.272-26.028-3.28C96.4 29.639 96.403 41.741 96.4 41.716c-.003-.025-.902 6.883 1.929 15.164-.01 0-6.356 27.419 4.414 37.338z" fill="#FFF"/>
            <path d="M141.945 39.755c-1.812-1.515-3.88-1.927-6.017-1.66-4.63.578-3.582 5.984-3.582 5.984s4.75 42.703-5.675 51.098c-7.35 5.915-17.075 2.847-22.167.51 4.69 3.583 13.37 8.344 20.666 9.903 1.99.465 4.045.59 6.077.37 10.802-1.512 12.785-7.708 12.785-15.572l-.016-40.42a25.628 25.628 0 0 0-2.071-10.213z" fill="#D8D8D8"/>
            <path fill="#2B90FF" d="M102.167 42.12v1.298l7.97 1.898v-1.294z"/>
            <path d="M137.366 99.343s-.276 3.454-.494 4.428c-.14.633-.222 1.05-.317 1.506-.149.633-.184.949.025 1.085.21.136.57.187.906-1.088a5.536 5.536 0 0 1-1.127 2.347c-.665.74-1.644 1.5-1.372 1.879.273.38.992-.016.992-.016s.098.633.988.114c0 0 .117.503 1.016-.152 0 0 .367.411 1.19-.44.824-.85 3.763-4.14 3.715-10.185l-5.522.522z" fill="#FFCFAE"/>
            <path d="M135.975 75.303l.95 27.968 5.485-.17s4.187-11.002 5.216-28.57" fill="#FFF"/>
            <ellipse fill="#FFF" transform="rotate(-1.03 141.76 74.579)" cx="141.76" cy="74.579" rx="5.846" ry="5.839"/>
            <path d="M127.099 45.907l9.114 30.443 11.4-1.898s.18-2.825.184-5.858c0-12.767-1.815-22.37-5.27-29.174" fill="#FFF"/>
            <ellipse fill="#FFF" transform="rotate(-.22 135.017 43.125)" cx="135.017" cy="43.125" rx="8.386" ry="8.376"/>
            <path fill="#2B90FF" d="M115.018 31.015l2.023 1.278-1.324 3.15 3.67 32.002-4.464 5.39-4.554-10.593 3.942-27.64-.861-3.261z"/>
            <path d="M110.97 26.29l.19 6.762 3.858-2.037 3.759 4.024 5.415-6.46s1.165-1.49.633-2.723c-.161-.377-.633-.813-1.267-1.265 0 0-1.78 3.41-8.373 5.345 0 0-2.85-2.075-3.192-3.979 0 0-.288-.262-.652-.655a1.811 1.811 0 0 0-.37.987z" fill="#DBDBDB"/>
            <path d="M116.1 5.785c-2.628-.104-5.7.545-7.235 3.078-.979 1.63-.906 4.596-.995 6.795-.158 3.979 1.428 8.145 3.898 10.309v1.06c.026.85.599 1.698 1.726 2.346 2.293 1.322 6.001 1.322 8.278 0 1.1-.632 1.663-1.467 1.698-2.306V19.73c0-.124.972-3.916.978-4.04.25-5.627-4.028-9.73-8.347-9.904z" fill="#FFCFAE"/>
            <path d="M115.233 27.47a5.605 5.605 0 0 1-3.465-1.503v1.06c.026.85.599 1.698 1.726 2.346 2.293 1.322 6.001 1.322 8.278 0 1.1-.632 1.663-1.467 1.698-2.306V16.654c-.355 5.504-4.016 10.983-8.237 10.815z" fill="#EAB896"/>
            <path d="M123.492 16.838l-.735 3.713.735 2.328c.652-.696.95-2.306 1.583-3.653 1.957-4.21 1.492-7.446 1.188-10.727-.127-1.372-.545-6.959-4.671-7.275 0 0-2.179-2.214-8.269.117-3.524 1.36-5.567-.107-5.567-.107s-.294 1.4.263 2.41c0 0-3.306 2.866-.101 10.79.057-1.98 0-3.527.8-4.869.57-.948 1.974-1.18 2.984-1.312.633-.05 1.767.38 1.767.38s1.583-.472 2.217-.421c4.484.35 4.433 2.189 4.433 2.189l.193 2.071v7.095s-.205 3.648-3.657 4.176c-1.428.218-2.85-1.265-2.85-1.265h-1.045s-.874 1.357-1.7.949a5.012 5.012 0 0 1-2.69-3.382c.19.968 1.527 6.93 5.865 7.446 5.311.633 7.332-2.625 7.332-6.326v-6.516s-.213-1.266 1.19-1.266 1.067 1.914.735 3.455z" fill="#10355D"/>
            <path d="M108.373 20.124l-.04-.215s.01.08.04.215z" fill="#6B373E"/>
            <path d="M115.018 19.38h-3.525s-1 .909-1 1.8h5.522c.003-.888-.997-1.8-.997-1.8z" fill="#10355D"/>
            <path d="M41.846 202.013c9.307 5.406 10.95 13.286 3.648 17.54-7.303 4.255-20.9 3.29-30.202-2.116-9.3-5.406-10.95-13.285-3.648-17.54 7.303-4.254 20.901-3.283 30.202 2.116z" opacity=".15" fill="#000"/>
            <path d="M19.773 201.757c2.05-1.999 4.823-2.426 5.824-1.426 1 1 .168 3.447-1.856 5.475-.83.829-1.922 1.898-2.764 2.28-.9.467-1.999.297-2.714-.42-.58-.633-.5-2.923-.5-3.527.275-.734 1.032-1.427 2.01-2.382z" fill="#444549"/>
            <ellipse fill="#FFCFAE" transform="rotate(-41.31 21.09 203.114)" cx="21.091" cy="203.114" rx="3.468" ry="1.8"/>
            <path d="M36.662 211.25c2.049-2 4.823-2.426 5.824-1.427 1 1 .167 3.448-1.856 5.476-.83.828-1.922 1.898-2.765 2.28-.9.467-1.998.297-2.714-.42-.576-.633-.5-2.923-.5-3.527.279-.731 1.039-1.427 2.01-2.382z" fill="#444549"/>
            <ellipse fill="#FFCFAE" transform="rotate(-41.31 37.983 212.635)" cx="37.983" cy="212.635" rx="3.468" ry="1.8"/>
            <path d="M20.575 205.423c2.362-1.034 2.47-2.27 2.533-2.796 0 0 2.942-19.359 4.408-32.182a186.057 186.057 0 0 0 1.03-20.276l4.506 27.915 2.083 36.028c0 .038.228 1.51 2.072.867 1.706-.594 2.498-1.316 2.85-2.698.237-1.177 5.323-25.843 6.577-36.377 1.283-10.783 4.434-53.793 2.806-57.17L7.784 120.15l8.158 51.598 2.311 32.688s.143.924.757 1.095c.52.125 1.066.087 1.565-.108z" fill="#FFCFAE"/>
            <path d="M34.91 172.324c1.717.442 3.503.55 5.26.316 5.384-.756 11.084-6.608 11.084-6.608v-6.87c0-7.295-.028-34.991-.028-34.991-.187-1.898-.415-3.704-.725-5.406-1.042-5.106-2.99-8.145-7.246-11.533a14.274 14.274 0 0 0-1.859-1.228c-5.421-3.055-15.793-5.43-22.535-2.846-8.867 3.406-8.867 13.883-8.867 13.86v39.778a90.277 90.277 0 0 0 10.866 8.28c5.668 3.651 12.705 6.897 14.05 7.248z" fill="#9B9B9B"/>
            <path d="M5.713 73.155C2.315 80.357.779 91.919.219 101.94l9.864 1.044 9.43-24.284" fill="#FFF"/>
            <path d="M7.892 123.152s.354 3.593.598 4.612c.155.633.25 1.091.374 1.563.168.651.209.974 0 1.132-.21.158-.59.206-.95-1.117.2.892.611 1.724 1.197 2.427.706.759 1.742 1.534 1.466 1.935-.275.402-1.035 0-1.035 0s-.09.652-1.027.14c0 0-.11.525-1.06-.14 0 0-.374.437-1.251-.436-.877-.873-3.997-4.251-4.06-10.552l5.748.436z" fill="#FFCFAE"/>
            <path d="M.244 101.753c-.982 17.553 1.751 22.943 1.751 22.943l5.96.161 2.128-21.873" fill="#FFF"/>
            <ellipse fill="#FFF" cx="5.194" cy="102.044" rx="4.962" ry="4.957"/>
            <ellipse fill="#FFF" cx="12.404" cy="76.445" rx="7.458" ry="7.449"/>
            <path d="M52.755 83.037c1.46 10.22.906 48.646.906 48.646 0 8.2-2.068 14.658-13.329 16.237-1.916.269-4.177.076-6.333-.383-8.706-1.86-19.267-8.136-23.39-11.856-6.904-6.234-6.619-12.12-6.619-17.252V80.94c0 .026 0-12.592 10.669-16.692 8.117-3.119 20.603-.259 27.133 3.42 0 .003 9.437 4.716 10.963 15.37z" fill="#FFF"/>
            <path d="M51.942 79.605c-1.153-1.2-2.597-2.031-4.393-2.031-6.514 0-6.067 7.37-6.067 7.37v41.352c0 15.908-3.61 20.32-5.963 21.51 1.592.262 3.214.3 4.816.11 11.261-1.581 13.33-8.034 13.33-16.236 0 0 .554-38.426-.906-48.647a19.448 19.448 0 0 0-.817-3.428z" fill="#000" opacity=".1"/>
            <path d="M34.949 83.489l6.333 32.691 11.914-2.214s-.073-2.492-.146-5.652c-.317-13.45.877-23.17-1.552-30.177-1.156-3.337-18.367-1.898-16.537 5.342" fill="#FFF"/>
            <path d="M49.278 140.92s2.36 6.367 2.318 7.68c-.034 1.094-.285 1.746.365 2.072.87.436 1.216-.219 1.216-.219s.994.652 1.494-.455c0 0 .855.566 1.267-.807 0 0 .918.756 1.162-1.837.288-3.069-2.109-7.823-2.131-7.88l-5.69 1.446z" fill="#FFCFAE"/>
            <path d="M52.116 150.748a2.11 2.11 0 0 1-1.197-1.354c-.345-1.07.218-2.047 1.228-2.025 0-.01 1.932 3.695-.031 3.379z" fill="#FFCFAE"/>
            <path d="M53.17 113.84l2.717 28.592-5.77 2.717s-5.845-14.234-8.996-29.544" fill="#FFF"/>
            <ellipse fill="#FFF" transform="rotate(-29.16 47.102 114.391)" cx="47.102" cy="114.391" rx="6.096" ry="6.089"/>
            <ellipse fill="#FFF" transform="rotate(-.22 43.583 81.924)" cx="43.583" cy="81.924" rx="8.797" ry="8.787"/>
            <path d="M38.666 55.394c-.063 6.158-3.949 11.115-8.677 11.07-4.728-.044-8.528-5.089-8.449-11.244.026-2.41-.152-5.65.865-7.465 1.583-2.819 4.934-3.629 7.812-3.6 4.732.047 8.513 5.08 8.45 11.239z" fill="#FFCFAE"/>
            <path d="M38.666 55.394c-.063 6.158-3.949 11.115-8.677 11.07-4.728-.044-8.528-5.089-8.449-11.244.026-2.41-.152-5.65.865-7.465 1.583-2.819 4.934-3.629 7.812-3.6 4.732.047 8.513 5.08 8.45 11.239z" fill="#000" opacity=".08"/>
            <path d="M35.158 60.113l-11.686.02v4.912c.029.847.599 1.692 1.72 2.34 2.286 1.32 5.982 1.32 8.252 0 1.096-.632 1.657-1.464 1.691-2.296v-.038l.023-4.938z" fill="#FFCFAE"/>
            <path d="M15.04 53.129c2.165-2.996 1.598-9.594 4.325-12.97 2.726-3.374 7.895-2.57 7.895-2.57 3.002-1.975 7.8 1.555 11.793 6.325 4.927 5.884-2.34 8.433-2.34 8.433s-2.72 5.77-.032 9.082c0 0 3.927 4.273 2.175 9.05-.95 2.59-3.125 4.112-4.063 6.684-.791 2.182-.177 6.345 3.677 7.161 0 0-3.917 4.179-14.675 3.106-5.728-.57-12.718-3.887-10.558-11.425 2.91-10.138-5.814-12.33 1.802-22.876z" fill="#424242"/>
        </g>
        <path fill="#FFF" opacity=".2" d="M52.683 249.948l174.512 98.008v.003l-1.793 1.003-174.445-98.005z"/>
        <path fill="#CECECE" d="M52.61 249.951l-1.726 1.003.003-140.689-.006-.006 1.722-1.003z"/>
        <path fill="#FFF" opacity=".5" d="M52.61 249.951l-1.726 1.003.003-140.689-.006-.006 1.722-1.003z"/>
        <path fill="#FFF" d="M225.298 348.965L50.852 250.951l174.446 98.011z"/>
        <path fill="#D6E5F2" opacity=".4" d="M50.843 110.265l1.741-.847 174.455 98.166h.007l.006 140.537-1.745.92-174.464-98.09V110.038"/>
        <path fill="#000" opacity=".2" d="M227.055 347.96l-1.729 1.002.003-140.689-.006-.003 1.726-1.003z"/>
        <path fill="#FFF" d="M52.603 109.26l174.446 98.004v.003l-1.726 1.003-174.442-98.005z"/>
        <path fill="#E8E8E8" d="M50.88 110.265l1.723-1.006 174.446 98.005v.003l.006 140.692-1.729 1.003.003-140.689-.006-.003z"/>
        <path fill="#FFF" opacity=".2" d="M227.055 347.96l-1.729 1.002.003-140.689-.006-.003 1.726-1.003z"/>
        <path fill="#FFF" opacity=".08" d="M52.603 109.26l174.446 98.004v.003l-1.726 1.003-174.442-98.005z"/>
        <path fill="#FFF" opacity=".2" d="M399.528 250.58L225.016 348.59v.003l1.792 1.003 174.446-98.005z"/>
        <path fill="#CECECE" d="M399.6 250.584l1.727 1.003-.004-140.69.007-.005-1.726-1.003z"/>
        <path fill="#FFF" opacity=".5" d="M399.6 250.584l1.727 1.003-.004-140.69.007-.005-1.726-1.003z"/>
        <path fill="#FFF" d="M226.913 349.598l174.445-98.014-174.445 98.01z"/>
        <path fill="#D6E5F2" opacity=".4" d="M401.368 110.898l-1.745-.848-174.452 98.166h-.006l-.007 140.537 1.745.92 174.465-98.09V110.67"/>
        <path fill="#000" opacity=".2" d="M225.155 348.592l1.726 1.003-.003-140.69.006-.002-1.722-1.003z"/>
        <path fill="#FFF" d="M399.604 109.892l-174.442 98.005v.003l1.722 1.003 174.446-98.005z"/>
        <path fill="#E8E8E8" d="M401.33 110.898l-1.726-1.006-174.442 98.005v.003l-.007 140.692 1.726 1.003-.003-140.69.006-.002z"/>
        <path fill="#FFF" opacity=".2" d="M225.155 348.592l1.726 1.003-.003-140.69.006-.002-1.722-1.003z"/>
        <path fill="#FFF" opacity=".08" d="M399.604 109.892l-174.442 98.005v.003l1.722 1.003 174.446-98.005z"/>
        <g transform="translate(72.203 175.873)">
            <path d="M47.958 100.798s-.345 3.498-.608 4.485c-.152.608-.244 1.06-.364 1.522-.165.607-.206.949 0 1.104.205.155.57.199.95-1.085a5.616 5.616 0 0 1-1.213 2.356c-.687.74-1.7 1.49-1.425 1.898.275.408 1.007 0 1.007 0s.092.608 1 .133c0 0 .108.51 1.033-.133 0 0 .364.424 1.213-.424.848-.847 3.888-4.112 3.949-10.261l-5.542.405z" fill="#FFCFAE"/>
            <path d="M55.416 79.978c.95 17.081-1.704 22.322-1.704 22.322l-5.79.165-2.076-21.276" fill="#FFF"/>
            <ellipse fill="#FFF" cx="50.586" cy="80.256" rx="4.829" ry="4.824"/>
            <path d="M15.026 182.209c-9.06 5.26-10.656 12.94-3.55 17.08 7.107 4.141 20.334 3.202 29.388-2.062 9.054-5.263 10.656-12.94 3.55-17.08-7.106-4.141-20.327-3.199-29.388 2.062z" fill="#D8D8D8"/>
            <path d="M50.083 52.155c3.306 7.006 4.8 18.264 5.345 28.028l-9.598 1.019-9.184-23.638" fill="#FFF"/>
            <ellipse fill="#FFF" cx="43.565" cy="55.343" rx="7.258" ry="7.25"/>
            <path d="M18.247 195.396c1.96 1.964 4.345 2.765 5.317 1.819.972-.946.171-3.353-1.82-5.318-1.993-1.964-4.346-2.764-5.318-1.818-.608.607-.545 2.122-.545 2.71a18.193 18.193 0 0 0 2.366 2.607z" fill="#081B2F"/>
            <ellipse fill="#FFCFAE" transform="rotate(-46.32 19.364 192.199)" cx="19.364" cy="192.199" rx="1.59" ry="3.214"/>
            <path d="M35.829 185.34c1.9 1.898 4.167 2.654 5.108 1.721.94-.933.165-3.22-1.723-5.102-1.887-1.882-4.167-2.654-5.108-1.721-.563.563-.522 2.037-.522 2.606a17.426 17.426 0 0 0 2.245 2.496z" fill="#081B2F"/>
            <ellipse fill="#FFCFAE" transform="rotate(-46.32 36.892 182.308)" cx="36.892" cy="182.308" rx="1.53" ry="3.084"/>
            <path d="M15.907 158.637s-4.988-27.884-7.445-45.787l38.34-7.276c.18 8.699.484 25.277-.491 37.272-1.476 18.074-7.708 38.939-7.708 38.939-.14.655-.868 1.158-2.324 1.158-1.622 0-2.75-.545-2.75-1.31l.656-29.01-3.166-24.672s-1.536 18.39-2.676 28.209c-1.14 9.818-6.967 35.083-6.967 35.083 0 1.03-.754 1.866-2.505 1.866s-2.948-.76-2.961-1.775l-.003-32.697z" fill="#9B9B9B"/>
            <path d="M4.978 63.222c-1.419 9.949-.88 47.34-.88 47.34 0 7.984 2.014 14.27 12.968 15.817a18.42 18.42 0 0 0 6.166-.377c8.496-1.819 18.75-7.908 22.762-11.517 6.717-6.06 6.445-11.796 6.445-16.79V61.182s0-12.257-10.384-16.243c-7.889-3.03-20.027-.253-26.402 3.328-.01-.006-9.196 4.593-10.675 14.955z" fill="#FFF"/>
            <path d="M5.767 59.885a5.833 5.833 0 0 1 4.246-1.977c6.334 0 5.903 7.171 5.903 7.171v40.242c0 15.48 3.512 19.773 5.802 20.931a16.78 16.78 0 0 1-4.69.108c-10.96-1.535-12.968-7.82-12.968-15.816 0 0-.542-37.392.88-47.34.175-1.13.452-2.24.827-3.319z" fill="#D8D8D8"/>
            <path d="M10.862 119.65s.279 3.505.497 4.498c.14.608.225 1.066.333 1.528.152.633.187.95 0 1.098-.187.149-.608.187-.915-1.104.187.872.58 1.686 1.146 2.376.674.752 1.669 1.521 1.39 1.897-.279.377-1.007 0-1.007 0s-.098.608-1 .114c0 0-.115.51-1.033-.152 0 0-.37.418-1.213-.449-.842-.866-3.816-4.2-3.768-10.305l5.57.5z" fill="#FFCFAE"/>
            <path d="M12.278 95.26l-.95 28.373-5.564-.17S1.517 112.302.472 94.477" fill="#FFF"/>
            <ellipse fill="#FFF" transform="rotate(-88.97 6.392 94.496)" cx="6.392" cy="94.496" rx="5.935" ry="5.928"/>
            <path d="M21.28 65.437L12.04 96.34.462 94.415s-.18-2.866-.186-5.947c0-12.953 1.82-22.693 5.345-29.598" fill="#FFF"/>
            <ellipse fill="#FFF" transform="rotate(-89.78 13.253 62.61)" cx="13.253" cy="62.61" rx="8.509" ry="8.499"/>
            <path d="M32.643 21.69c2.977-.12 6.476.617 8.199 3.48 1.112 1.847 1.026 5.206 1.124 7.702.184 4.507-1.615 9.23-4.414 11.681v1.177.025c-.029.95-.681 1.927-1.954 2.657-2.6 1.5-6.8 1.5-9.383 0-1.245-.724-1.881-1.66-1.923-2.61V34.008c0-.142-.019-.281-.025-.42-.272-6.377 3.48-11.704 8.376-11.897z" fill="#FFCFAE"/>
            <path d="M25.138 37.243a19.317 19.317 0 0 0-.472-2.635c-.44-2.002 1.093-2.182 1.093-2.182.83-.067 1.368.515 1.536 1.306l.186 3.189 1.169.38s-.348-2.3-.348-2.955c0-3.641.845-3.837.845-3.837l.447-2.847s7.407.892 11.644-1.363c.418 1.63.645 3.305.678 4.988 0 0 .883-6.042-.52-9.749-1.403-3.707-3.718-5.542-7.644-5.51 0 0-11.816-.95-12.87 7.07 0 0-1.172 8.992 3.41 16.587.02-.003.84-2.495.846-2.442z" fill="#424242"/>
            <path d="M33.625 46.258a6.337 6.337 0 0 0 3.924-1.698v1.17.025c-.029.95-.681 1.927-1.954 2.657-2.6 1.5-6.8 1.5-9.384 0-1.244-.724-1.88-1.66-1.922-2.61V34.008c.4 6.238 4.554 12.444 9.336 12.251z" fill="#3A2416" opacity=".08"/>
            <path d="M313.214 168.518c9.31 5.406 10.954 13.302 3.648 17.543-7.306 4.242-20.9 3.29-30.211-2.116-9.31-5.406-10.954-13.3-3.648-17.543 7.306-4.242 20.9-3.29 30.21 2.116z" opacity=".15" fill="#050505"/>
            <path d="M310.126 182.063c-2.017 2.015-4.465 2.847-5.466 1.844-1-1.002-.174-3.444 1.844-5.463 2.017-2.018 4.465-2.846 5.465-1.844.605.601.56 2.183.56 2.787-.338.642-1.601 1.889-2.403 2.676z" fill="#444549"/>
            <path d="M310.11 179.979c-1.32 1.265-2.897 1.749-3.521 1.094-.624-.655-.06-2.214 1.267-3.46 1.327-1.247 2.897-1.75 3.521-1.095.624.655.05 2.205-1.267 3.46z" fill="#FFCFAE"/>
            <path d="M292.053 171.742c-1.938 1.936-4.287 2.733-5.25 1.771-.963-.962-.168-3.305 1.77-5.244 1.938-1.94 4.288-2.73 5.25-1.772.58.579.54 2.094.54 2.676-.327.601-1.54 1.8-2.31 2.569z" fill="#444549"/>
            <path d="M292.038 169.727c-1.267 1.208-2.784 1.68-3.382 1.053-.599-.626-.057-2.113 1.21-3.324 1.266-1.212 2.783-1.68 3.381-1.05.599.629.057 2.112-1.21 3.32z" fill="#FFCFAE"/>
            <path d="M312.533 144.292s5.127-28.675 7.654-47.062l-39.41-7.459c-.187 8.94-.5 25.982.506 38.316 1.517 18.577 7.917 40.023 7.917 40.023.14.674.893 1.19 2.388 1.187 1.666 0 2.828-.56 2.828-1.348l-.671-29.82 3.258-25.358s1.584 18.903 2.752 28.996c1.169 10.094 7.148 36.06 7.148 36.06 0 1.057.772 1.918 2.577 1.918s3.03-.782 3.044-1.829l.01-33.624z" fill="#9B9B9B"/>
            <path d="M279.586 84.836s.355 3.597.598 4.612c.156.649.25 1.092.374 1.566.168.652.21.974 0 1.133-.209.158-.589.205-.95-1.117a5.767 5.767 0 0 0 1.22 2.423c.705.76 1.741 1.534 1.465 1.936-.275.402-1.035 0-1.035 0s-.089.651-1.03.139c0 0-.11.525-1.063-.14 0 0-.374.437-1.251-.436-.877-.873-4-4.245-4.063-10.549l5.735.433z" fill="#FFCFAE"/>
            <path d="M271.922 63.444c-.981 17.559 2.106 22.958 2.106 22.958l5.605.152 2.141-21.867" fill="#FFCFAE"/>
            <ellipse fill="#FFCFAE" cx="276.885" cy="63.722" rx="4.962" ry="4.957"/>
            <path d="M277.404 34.823c-3.401 7.203-4.934 18.77-5.498 28.808l9.868 1.043 9.434-24.29" fill="#FFF"/>
            <ellipse fill="#FFF" cx="284.099" cy="38.113" rx="7.461" ry="7.452"/>
            <path d="M284.498 63.738a2.108 2.108 0 0 1-2.293 1.898l-9.991-.902a2.107 2.107 0 0 1-1.9-2.287l.215-2.375a2.108 2.108 0 0 1 2.29-1.898l9.99.902a2.107 2.107 0 0 1 1.9 2.29l-.211 2.372z" fill="#FFF"/>
            <path d="M323.769 46.21c1.46 10.224.906 48.663.906 48.663 0 8.202-2.068 14.665-13.333 16.24-1.916.269-4.177.076-6.333-.386-8.709-1.86-19.273-8.136-23.396-11.859-6.907-6.234-6.622-12.124-6.622-17.258V44.117c0 .025 0-12.596 10.672-16.699 8.12-3.118 20.61-.259 27.142 3.423 0 0 9.444 4.716 10.964 15.37z" fill="#FFF"/>
            <path d="M322.94 42.779c-1.154-1.199-2.598-2.03-4.396-2.03-6.514 0-6.071 7.372-6.071 7.372V89.49c0 15.91-3.613 20.326-5.966 21.51 1.593.261 3.216.299 4.82.11 11.264-1.582 13.332-8.038 13.332-16.24 0 0 .554-38.436-.906-48.662a19.501 19.501 0 0 0-.814-3.43z" fill="#000" opacity=".1"/>
            <path d="M295.46 6.64c-2.741-.111-5.959.566-7.546 3.207-1.02 1.699-.95 4.792-1.035 7.086-.168 4.146 1.488 8.493 4.066 10.754v1.107c.029.886.633 1.772 1.799 2.449 2.39 1.379 6.257 1.379 8.632 0 1.147-.665 1.733-1.531 1.77-2.404V17.98c0-.13.02-.26.023-.39.256-5.87-3.205-10.767-7.708-10.95z" fill="#FFCFAE"/>
            <path d="M294.555 29.25a5.85 5.85 0 0 1-3.6-1.55v1.107c.028.886.633 1.771 1.798 2.448 2.391 1.38 6.258 1.38 8.633 0 1.146-.664 1.732-1.53 1.77-2.404V17.992c-.377 5.722-4.199 11.435-8.6 11.258z" fill="#3A2416" opacity=".08"/>
            <path d="M306.969 9.486c-.225-1.417-1.827-5.655-5.789-7.61C297.162-.108 290.777.209 289.425.61c-1.856.538-2.255 1.76-1.837 2.677 0 0-3.483.917-2.29 3.353-1.37 2.862-1.288 5.794 1.619 9.02.06-2.065.155-4.405.994-5.804a5.963 5.963 0 0 1 2.356-2.214c6.438-1.287 9.358 3.796 9.358 3.796l.58 6.263a1.5 1.5 0 0 1 2.964.43v4.543a12 12 0 0 0 2.106-3.164c2.04-4.38 2.07-7.626 1.694-10.024z" fill="#424242"/>
            <path d="M317.72 104.211s-.288 3.603-.513 4.625c-.142.651-.234 1.094-.345 1.581-.155.655-.19.978.029 1.133.218.155.592.196.95-1.136a5.767 5.767 0 0 1-1.178 2.445c-.694.772-1.714 1.566-1.432 1.961.282.396 1.036-.019 1.036-.019s.101.652 1.029.12c0 0 .12.522 1.06-.158 0 0 .384.43 1.242-.458.858-.89 3.924-4.318 3.873-10.622l-5.75.528z" fill="#FFCFAE"/>
            <path d="M316.264 79.143l.988 29.167 5.719-.177s4.364-11.473 5.44-29.794" fill="#FFCFAE"/>
            <ellipse fill="#FFCFAE" transform="rotate(-1.03 322.313 78.358)" cx="322.313" cy="78.358" rx="6.099" ry="6.092"/>
            <path d="M307.007 48.488l9.5 31.746 11.901-1.983s.187-2.945.19-6.112c0-13.313-1.9-23.328-5.494-30.423" fill="#FFF"/>
            <ellipse fill="#FFF" transform="rotate(-.22 315.267 45.583)" cx="315.267" cy="45.583" rx="8.747" ry="8.737"/>
            <path d="M329.555 78.671a2.105 2.105 0 0 1-1.834 2.35l-9.956 1.228a2.11 2.11 0 0 1-2.353-1.831l-.295-2.367a2.105 2.105 0 0 1 1.834-2.35l9.956-1.227a2.11 2.11 0 0 1 2.353 1.831l.295 2.366z" fill="#FFF"/>
        </g>
        <g fill="#2B90FF">
            <path d="M328.924 46.12c-57.873-33.376-151.404-33.376-208.9 0-57.496 33.374-57.192 87.486.681 120.864s151.404 33.378 208.9 0c57.496-33.378 57.192-87.49-.68-120.868" opacity=".05"/>
            <path d="M358.17 43.272c-74.132-42.75-193.931-42.75-267.594 0-73.662 42.75-73.247 112.069.871 154.819 74.119 42.75 193.934 42.75 267.593 0 73.66-42.75 73.258-112.065-.874-154.819" opacity=".05"/>
            <path d="M383.504 38.123c-88.138-50.83-230.57-50.826-318.132 0-87.562 50.826-87.087 133.236 1.039 184.065 88.125 50.83 230.567 50.83 318.132 0 87.564-50.83 87.086-133.236-1.04-184.065" opacity=".05"/>
            <path d="M294.571 52.892c-38.777-22.364-101.445-22.361-139.972 0-38.527 22.36-38.318 58.62.453 80.977 38.771 22.357 101.445 22.364 139.972 0 38.527-22.364 38.318-58.62-.456-80.977" opacity=".08"/>
        </g>
        <g transform="translate(87.403 24.673)">
            <ellipse fill="#FFB522" cx="192.559" cy="15.474" rx="15.267" ry="15.25"/>
            <path d="M200.505 12.956a1.245 1.245 0 0 0-.966-.458h-.994l-3.86-4.77a.695.695 0 0 0-1.106.841l.026.032 3.166 3.884h-8.575l3.166-3.884a.695.695 0 1 0-1.02-.95l-.056.07-3.899 4.796h-.807a1.251 1.251 0 0 0-1.226 1.493l1.606 8.066a1.81 1.81 0 0 0 1.773 1.452h9.656a1.81 1.81 0 0 0 1.773-1.452l1.606-8.066a1.242 1.242 0 0 0-.263-1.054zm-10.03 6.539a.695.695 0 0 1-1.39 0v-2.847a.695.695 0 0 1 1.39 0v2.847zm2.778 0a.695.695 0 0 1-1.39 0v-2.847a.695.695 0 0 1 1.39 0v2.847zm2.777 0a.695.695 0 0 1-1.39 0v-2.847a.695.695 0 0 1 1.39 0v2.847z" fill="#FFF"/>
            <ellipse fill="#FFB522" cx="278.696" cy="129.032" rx="15.267" ry="15.25"/>
            <path d="M286.641 126.515a1.245 1.245 0 0 0-.965-.46h-.995l-3.86-4.77a.695.695 0 0 0-1.105.842l.025.032 3.167 3.884h-8.576l3.167-3.884a.695.695 0 1 0-1.02-.95l-.057.07-3.898 4.796h-.808a1.251 1.251 0 0 0-1.225 1.493l1.605 8.066a1.81 1.81 0 0 0 1.774 1.452h9.655a1.81 1.81 0 0 0 1.774-1.452l1.605-8.066a1.242 1.242 0 0 0-.263-1.053zm-10.029 6.538a.695.695 0 0 1-1.39 0v-2.847a.695.695 0 0 1 1.39 0v2.847zm2.778 0a.695.695 0 0 1-1.39 0v-2.847a.695.695 0 0 1 1.39 0v2.847zm2.777 0a.695.695 0 0 1-1.39 0v-2.847a.695.695 0 0 1 1.39 0v2.847z" fill="#FFF"/>
            <ellipse fill="#FFB522" cx="15.536" cy="145.797" rx="15.267" ry="15.25"/>
            <path d="M23.482 143.28a1.245 1.245 0 0 0-.966-.46h-.995l-3.86-4.77a.695.695 0 0 0-1.105.842l.025.032 3.167 3.884h-8.595l3.167-3.884a.695.695 0 1 0-1.02-.95l-.057.07-3.879 4.796h-.807a1.251 1.251 0 0 0-1.226 1.493l1.606 8.066a1.81 1.81 0 0 0 1.773 1.452h9.656a1.81 1.81 0 0 0 1.773-1.452l1.606-8.066a1.242 1.242 0 0 0-.263-1.054zm-10.03 6.538a.695.695 0 0 1-1.39 0v-2.847a.695.695 0 0 1 1.39 0v2.847zm2.778 0a.695.695 0 0 1-1.39 0v-2.847a.695.695 0 0 1 1.39 0v2.847zm2.777 0a.695.695 0 0 1-1.39 0v-2.847a.695.695 0 0 1 1.39 0v2.847z" fill="#FFF"/>
            <ellipse fill="#FFB522" cx="105.473" cy="56.279" rx="15.267" ry="15.25"/>
            <path d="M113.418 53.761a1.245 1.245 0 0 0-.966-.458h-.994l-3.86-4.77a.695.695 0 0 0-1.105.841l.025.032 3.167 3.884h-8.595l3.167-3.884a.695.695 0 1 0-1.02-.95l-.057.07-3.88 4.796h-.807a1.251 1.251 0 0 0-1.225 1.493l1.605 8.066a1.81 1.81 0 0 0 1.774 1.452h9.655a1.81 1.81 0 0 0 1.774-1.452l1.605-8.066a1.242 1.242 0 0 0-.263-1.054zM103.39 60.3a.695.695 0 0 1-1.39 0v-2.847a.695.695 0 0 1 1.39 0V60.3zm2.777 0a.695.695 0 0 1-1.39 0v-2.847a.695.695 0 0 1 1.39 0V60.3zm2.778 0a.695.695 0 0 1-1.39 0v-2.847a.695.695 0 0 1 1.39 0V60.3z" fill="#FFF"/>
        </g>
    </g>
</svg>
