<svg width="250" height="358" viewBox="0 0 250 358" xmlns="http://www.w3.org/2000/svg">
    <g fill-rule="nonzero" fill="none">
        <path d="M108.659 37.734L6.59 96.674C3.228 98.602.5 103.31.5 107.178L.894 239.24c0 3.867 2.75 5.421 6.112 3.477L109.07 183.79c3.362-1.944 6.086-6.648 6.07-10.515l-.369-132.058c0-3.867-2.75-5.426-6.112-3.482" fill="#FFF"/>
        <path fill="#D3D3D3" d="M107.963 126.658l9.568-5.52.01 1.887-9.568 5.525-.01-1.892"/>
        <path fill="#E9E9E9" d="M106.99 130.088l11.544-6.668.006 1.17-11.55 6.663v-1.165M106.996 131.804l11.549-6.669v1.17L107 132.973l-.005-1.17"/>
        <path d="M112.734 116.85c-2.599 1.497-4.678.302-4.678-2.671s2.08-6.575 4.678-8.067c2.599-1.491 4.678-.286 4.678 2.672 0 2.957-2.08 6.57-4.678 8.061m-.036-13.789c-4.055 2.344-7.334 8-7.319 12.661.016 4.662 3.311 6.539 7.365 4.2 4.054-2.339 7.329-8.015 7.318-12.677l-2.671 1.56c0-2.958-2.08-4.159-4.678-2.672v-3.056" fill="#9ECCFF"/>
        <path d="M112.698 103.061c4.054-2.344 7.349-.478 7.364 4.184l-2.671 1.56c0-2.958-2.08-4.158-4.678-2.672v-3.056" fill="#2B90FF"/>
        <path fill="#D3D3D3" d="M88.384 137.968l9.568-5.525.005 1.892-9.568 5.525-.005-1.892"/>
        <path fill="#E9E9E9" d="M87.406 141.393l11.55-6.663.004 1.164-11.548 6.668-.006-1.17M87.417 143.108l11.543-6.663.006 1.164-11.55 6.669v-1.17"/>
        <path d="M93.113 114.37599999999999c-4.054 2.344-7.333 8.004-7.318 12.661.016 4.657 3.311 6.539 7.365 4.2 2.235-1.289 4.226-3.586 5.572-6.17-.125.234-.255.468-.385.702l-1.897-1.07a9.47 9.47 0 0 1-3.295 3.471c-2.599 1.492-4.678.297-4.678-2.671s2.08-6.57 4.678-8.067c2.599-1.496 4.678-.285 4.678 2.672 0-2.957-2.08-4.158-4.678-2.672v-3.087" fill="#9ECCFF"/>
        <path d="M93.113 114.345c4.054-2.344 7.35-.473 7.365 4.184a14.418 14.418 0 0 1-1.746 6.528c-.125.234-.255.468-.385.702l-1.897-1.07c.104-.183.203-.36.296-.52a9.06 9.06 0 0 0 1.04-4.018c0-2.958-2.08-4.158-4.678-2.672v-3.134" fill="#2B90FF"/>
        <path d="M73.534 125.67v3.057c2.6-1.487 4.678-.286 4.678 2.671 0-2.962-2.115-4.158-4.678-2.671-2.562 1.486-4.677 5.109-4.677 8.066 0 1.455.52 2.48 1.325 2.978l-1.913 3.238 1.913-3.238-1.913 3.238c1.341.816 3.207.723 5.28-.473 4.055-2.344 7.33-8.02 7.319-12.676 0 4.677-3.259 10.338-7.318 12.676-2.08 1.196-3.94 1.29-5.28.473-1.342-.816-2.08-2.385-2.08-4.677 0-4.678 3.264-10.323 7.318-12.662" fill="#9ECCFF"/>
        <path fill="#D3D3D3" d="M68.805 149.272l9.568-5.525.005 1.887-9.568 5.53-.005-1.892"/>
        <path fill="#E9E9E9" d="M67.817 152.703l11.56-6.669v1.165l-11.555 6.678-.005-1.174M67.822 154.423l11.56-6.679v1.17l-11.56 6.673v-1.164"/>
        <path d="M73.534 125.67c4.054-2.344 7.35-.472 7.365 4.184.016 4.657-3.259 10.338-7.318 12.677-2.079 1.196-3.94 1.29-5.28.473l1.912-3.238c.847.52 2.043.452 3.358-.307 2.598-1.486 4.677-5.098 4.677-8.066 0-2.968-2.115-4.158-4.677-2.672v-3.056" fill="#2B90FF"/>
        <path fill="#2B90FF" d="M70.213 139.771L68.3 143.01l1.913-3.238"/>
        <path d="M26.086 267.49l-4.714 2.713v-2.25l4.704-2.72v2.251m13.305-7.687l-4.74 2.734v-3.586l4.74-2.708v3.591m53.176-30.722l-4.74 2.734v-7.204l4.74-2.744v7.214m66.466-38.384l-4.74 2.745v-8.94l4.74-2.734v8.93M52.672 252.13l-4.704 2.723-.037-9.948 4.715-2.718.026 9.938m53.165-30.712l-4.704 2.728-.036-10.504 4.714-2.718v10.494m39.89-23.025l-4.713 2.754-.042-14.974 4.74-2.728.042 14.969m-26.586 15.343l-4.74 2.733-.052-20.899 4.73-2.734.062 20.9m39.865-31.965l-4.74 2.723-.036-12.515 4.74-2.744.036 12.526m-13.32 1.652l-4.741 2.729v-9.938l4.74-2.733v9.942m-66.434 53.358l-4.704 2.718-.078-26.148 4.714-2.714.068 26.144m13.29-14.89l-4.725 2.738-.062-21.653 4.74-2.734.062 21.648m26.539-29.038l-4.73 2.734-.042-8.712 4.74-2.733v8.705m-66.418 49.35l-4.715 2.719-.062-21.43 4.714-2.718.063 21.42m79.776-36.108l-4.704 2.719-.104-34.429 4.714-2.718.094 34.428m-53.238 4.553l-4.714 2.713v-9.059l4.714-2.713.026 9.06m-13.212 33.783l-4.74 2.734-.12-44.662 4.74-2.734.12 44.662M39.38 256.237l-4.74 2.744-.14-50.275 4.74-2.734.14 50.265m-13.305 9.028l-4.704 2.718-.145-52.676 4.703-2.729.146 52.692m-1.341-76.289l11.029 1.2c.222-.496.583-.918 1.04-1.215.738-.426 1.335-.089 1.335.769.003.136-.01.272-.041.405l10.857-1.434a2.973 2.973 0 0 1 1.17-1.492.852.852 0 0 1 1.112.037l10.915-12.885a1.18 1.18 0 0 1-.089-.483 2.9 2.9 0 0 1 1.305-2.293c.728-.426 1.336-.088 1.336.764-.01.331-.086.656-.224.957l11.315 4.47c.224-.379.536-.698.91-.93.738-.427 1.336-.115 1.336.727-.01.426-.123.843-.328 1.216l11.57 7.864c.204-.294.468-.542.774-.728.712-.405 1.31-.067 1.31.78a2.49 2.49 0 0 1-.234.988l11.398 5.13c.212-.36.51-.663.868-.879a1.04 1.04 0 0 1 .806-.15l11.434-20.146a.951.951 0 0 1-.286-.775 2.91 2.91 0 0 1 1.326-2.302c.142-.087.302-.142.468-.161l11.954-32.391a.863.863 0 0 1-.546-.93 2.848 2.848 0 0 1 1.294-2.251c.749-.437 1.336-.12 1.346.728-.018.456-.15.901-.384 1.294l11.673 9.953c.19-.259.428-.478.702-.644.738-.427 1.325-.089 1.336.764a2.303 2.303 0 0 1-.14.748l11.127 1.772a2.672 2.672 0 0 1 1.009-1.143c.738-.426 1.335-.088 1.335.728a2.937 2.937 0 0 1-1.33 2.302c-.712.406-1.31.062-1.31-.785.003-.243.047-.484.13-.712l-11.128-1.751c-.233.47-.593.866-1.04 1.143-.711.416-1.31.073-1.31-.774.015-.448.14-.886.365-1.274l-11.684-9.963c-.193.26-.435.478-.712.644-.148.093-.315.15-.489.167l-11.954 32.39c.338.078.566.406.572.93a2.859 2.859 0 0 1-1.305 2.246 1.07 1.07 0 0 1-.832.166l-11.377 20.156c.21.208.318.496.296.79a2.921 2.921 0 0 1-1.325 2.303c-.738.426-1.31.073-1.31-.775.008-.34.082-.675.218-.987l-11.392-5.166c-.213.353-.507.65-.858.867-.738.427-1.325.089-1.336-.727.012-.413.123-.818.322-1.18l-11.559-7.9c-.206.295-.47.546-.774.738-.738.426-1.336.078-1.336-.764.006-.332.08-.66.218-.962l-11.31-4.48a2.89 2.89 0 0 1-.914.951.832.832 0 0 1-1.076-.041L51.377 187.49c.062.155.094.32.094.488a2.921 2.921 0 0 1-1.336 2.25c-.738.427-1.336.089-1.336-.727.001-.134.015-.268.042-.4l-10.858 1.434a2.88 2.88 0 0 1-1.17 1.487c-.7.405-1.298.067-1.309-.78.004-.224.043-.447.115-.66l-11.05-1.19c-.225.49-.586.905-1.04 1.195-.728.432-1.325.089-1.336-.764a2.952 2.952 0 0 1 1.326-2.302c.748-.426 1.335-.089 1.335.764.003.23-.032.46-.103.68" fill="#FFF"/>
        <path fill="#2B90FF" d="M154.267 184.522l4.74-2.734.026 8.93-4.74 2.744-.026-8.94"/>
        <path fill="#9ECCFF" d="M154.23 172.006l4.74-2.739.037 12.52-4.74 2.735-.036-12.516"/>
        <path fill="#2B90FF" d="M140.946 186.17l4.74-2.73.042 14.97-4.74 2.733-.042-14.974"/>
        <path fill="#9ECCFF" d="M140.92 176.232l4.74-2.729.026 9.938-4.74 2.728-.026-9.937"/>
        <path fill="#2B90FF" d="M127.614 174.376l4.714-2.718.094 34.433-4.704 2.719-.104-34.434M114.35 195.587l4.735-2.734.057 20.9-4.735 2.733-.057-20.899"/>
        <path fill="#9ECCFF" d="M114.33 186.881l4.734-2.728.021 8.7-4.735 2.734-.02-8.706"/>
        <path fill="#2B90FF" d="M101.102 213.659l4.709-2.718.026 10.494-4.704 2.728-.031-10.504M87.801 224.636l4.74-2.739.021 7.209-4.74 2.734-.02-7.204"/>
        <path fill="#9ECCFF" d="M87.744 202.983l4.74-2.734.058 21.648-4.74 2.74-.058-21.654"/>
        <path fill="#2B90FF" d="M74.47 213.352l4.714-2.708.073 26.144-4.704 2.718-.083-26.154"/>
        <path fill="#9ECCFF" d="M74.45 204.293l4.708-2.713.026 9.064-4.714 2.708-.02-9.059"/>
        <path fill="#2B90FF" d="M61.117 202.52l4.735-2.733.125 44.662-4.74 2.734-.12-44.662M47.931 244.912l4.715-2.719.026 9.938-4.704 2.729-.037-9.948"/>
        <path fill="#9ECCFF" d="M47.874 223.493l4.71-2.719.062 21.42-4.715 2.718-.057-21.42"/>
        <path fill="#2B90FF" d="M34.647 258.955l4.734-2.744.01 3.591-4.74 2.734-.004-3.58"/>
        <path fill="#9ECCFF" d="M34.506 208.675l4.74-2.734.135 50.27-4.734 2.744-.14-50.28"/>
        <path fill="#2B90FF" d="M21.377 267.952l4.699-2.713.01 2.25-4.709 2.714v-2.25"/>
        <path fill="#9ECCFF" d="M21.227 215.275l4.703-2.728.146 52.692-4.699 2.713-.15-52.677"/>
        <path d="M156.523 146.325c.738-.426 1.336-.088 1.336.728a2.937 2.937 0 0 1-1.33 2.303c-.713.405-1.31.062-1.31-.785.002-.243.046-.484.13-.712l1.09.171.167-.39-1.091-.171a2.672 2.672 0 0 1 1.008-1.144M142.256 145.208c-.225.388-.35.825-.364 1.273 0 .847.598 1.19 1.31.775a2.817 2.817 0 0 0 1.04-1.144l-1.118-.171-.853-.728m.936-1.04a2.443 2.443 0 0 0-.702.645l.816.697 1.086.171c.088-.24.136-.493.14-.748 0-.853-.597-1.19-1.335-.764M129.886 134.662l-.52 1.388c.174-.016.34-.073.488-.166.278-.167.52-.386.713-.645l-.687-.582m-.036-1.804a2.848 2.848 0 0 0-1.294 2.25c-.058.4.168.787.546.931l.613-1.668.114-.328.983.832c.234-.392.366-.837.384-1.294 0-.853-.597-1.164-1.346-.728M117.396 168.44l-.624 1.685-.935 1.658c.288.061.589.001.831-.167a2.859 2.859 0 0 0 1.305-2.245c0-.52-.234-.852-.572-.93m-.738.145a2.91 2.91 0 0 0-1.325 2.303.951.951 0 0 0 .286.774l.904-1.59.608-1.643a1.138 1.138 0 0 0-.468.161M104.45 191.928l-.931 1.622-.115.197-1.086-.52c-.137.312-.21.648-.218.988 0 .847.572 1.196 1.31.775a2.921 2.921 0 0 0 1.325-2.303 1.008 1.008 0 0 0-.296-.79m-1.04.031a2.516 2.516 0 0 0-.868.879l.868.39.806-1.425a1.04 1.04 0 0 0-.806.151M89.07 187.048c-.2.362-.31.766-.323 1.18 0 .816.598 1.153 1.336.727.35-.217.645-.514.858-.868l-.993-.457-.878-.593m1.008-1.117c-.306.186-.57.434-.774.728l.868.592.982.447a2.49 2.49 0 0 0 .234-.987c0-.853-.598-1.19-1.31-.78M75.619 178.16c-.138.302-.213.63-.219.962 0 .842.598 1.19 1.336.764.305-.192.568-.443.774-.738l-.857-.593-1.04-.4m1.113-1.31a2.744 2.744 0 0 0-.91.93l1.04.406.883.608c.205-.373.317-.79.328-1.216 0-.842-.598-1.154-1.336-.728M63.389 173.321l-1.066 1.268a.832.832 0 0 0 1.066.047 2.89 2.89 0 0 0 .91-.946l-.92-.364m0-1.725a2.9 2.9 0 0 0-1.305 2.292c-.005.165.025.33.088.483l1.154-1.367.088-.12 1.087.432c.138-.3.214-.626.223-.956 0-.853-.608-1.19-1.336-.764M51.377 187.49l-1.154 1.372-.088.078-1.294.171c-.027.132-.04.266-.042.4 0 .816.598 1.154 1.336.728a2.921 2.921 0 0 0 1.336-2.266 1.31 1.31 0 0 0-.094-.489m-1.247-.275c-.542.356-.953.88-1.17 1.492l1.18-.156 1.102-1.305a.852.852 0 0 0-1.112-.036M35.613 190.587c-.071.213-.11.436-.114.66 0 .853.608 1.19 1.31.78a2.88 2.88 0 0 0 1.17-1.486l-1.259.155-1.112-.114m1.19-1.622c-.456.298-.817.72-1.04 1.217l1.103.12 1.232-.167c.03-.133.044-.27.041-.405 0-.853-.598-1.196-1.336-.77M23.498 187.536c.748-.426 1.336-.088 1.336.764.002.232-.033.462-.104.681l-1.139-.124-.171.426 1.143.12c-.224.49-.585.904-1.04 1.195-.727.431-1.324.088-1.335-.764a2.952 2.952 0 0 1 1.326-2.303" fill="#2B90FF"/>
        <path d="M115.619 171.663l-11.435 20.146a.608.608 0 0 1 .234.12l11.393-20.146a.603.603 0 0 1-.218-.12m28.773-25.956a3.03 3.03 0 0 1-.166.405l11.127 1.752c.045-.135.1-.265.167-.39l-11.128-1.772m-15.286-9.662l-11.954 32.39a.608.608 0 0 1 .27 0l11.954-32.39c-.09.01-.18.01-.27 0m1.71-1.16a3.68 3.68 0 0 1-.244.364l11.684 9.964c.07-.13.147-.255.234-.374l-11.674-9.954M24.735 188.981a3.966 3.966 0 0 1-.166.421l11.05 1.19c.035-.139.084-.275.145-.405l-11.03-1.206" fill="#9ECCFF"/>
        <path d="M155.515 147.474l1.091.172-.166.39-1.092-.172c.045-.135.1-.265.167-.39M142.49 144.834l.816.696 1.086.172a3.03 3.03 0 0 1-.166.405l-1.118-.171-.852-.728c.07-.13.147-.255.234-.374M129.834 134.044l.982.831a3.68 3.68 0 0 1-.244.364l-.686-.582-.52 1.388c-.09.01-.18.01-.27 0l.613-1.669.114-.327M117.131 168.43a.608.608 0 0 1 .27 0l-.623 1.684-.936 1.658a.603.603 0 0 1-.218-.12l.904-1.59.608-1.642" fill="#2B90FF"/>
        <path d="M91.154 187.698a3.825 3.825 0 0 1-.208.395l11.367 5.166c.062-.144.135-.283.218-.416l-11.377-5.14m-13.42-8.909c-.068.12-.146.244-.224.354l11.56 7.9a2.91 2.91 0 0 1 .234-.39l-11.57-7.864M38.098 190.14a2.646 2.646 0 0 1-.115.406l10.853-1.43c.026-.138.064-.273.114-.405l-10.857 1.435m26.403-16.83c-.054.13-.119.255-.192.374l11.31 4.48c.056-.13.122-.257.197-.379l-11.315-4.47m-2.323 1.04l-10.915 12.884a.785.785 0 0 1 .14.245l10.946-12.906a.702.702 0 0 1-.145-.223" fill="#9ECCFF"/>
        <path d="M104.205 191.788a.608.608 0 0 1 .234.12l-.93 1.621-.115.198-1.086-.52c.062-.144.135-.283.218-.416l.868.39.806-1.424M89.304 186.658l.868.593.982.447a3.825 3.825 0 0 1-.208.395l-.998-.463-.878-.593a2.91 2.91 0 0 1 .234-.39M75.816 177.755l1.04.405.883.608c-.067.12-.145.244-.223.354l-.858-.593-1.04-.4c.058-.13.124-.258.198-.38M63.415 172.88l1.086.43c-.054.13-.119.255-.192.375l-.92-.364-1.066 1.268a.702.702 0 0 1-.145-.223l1.154-1.367.088-.12M51.237 187.25a.785.785 0 0 1 .14.245l-1.154 1.372-.088.078-1.294.171c.026-.138.065-.273.114-.405l1.18-.156 1.102-1.304M35.764 190.182l1.102.12 1.232-.167a2.646 2.646 0 0 1-.115.406l-1.257.155-1.113-.114c.036-.14.085-.275.146-.405M23.597 188.851l1.138.125a3.966 3.966 0 0 1-.166.421l-1.144-.12.172-.426M32.079 157.978l23.389-13.513c-.063 7.39-5.245 16.315-11.648 20.015-6.403 3.7-11.616.8-11.741-6.502" fill="#2B90FF"/>
        <path d="M35.385 146.507l8.05 4.58-11.356 6.553c0-3.612 1.289-7.588 3.306-11.133" fill="#9ECCFF"/>
        <path d="M43.732 137.625c6.408-3.7 11.616-.775 11.725 6.517l-11.61 6.705-8.25-4.714c2.08-3.576 4.964-6.679 8.14-8.513" fill="#10355D"/>
        <path d="M242.536 286.804l-80.42-46.43c-9.746-5.629-25.5-5.629-35.183 0l-79.896 46.43c-9.683 5.628-9.636 14.75.115 20.369l80.42 46.429c9.746 5.629 25.495 5.624 35.177 0l79.897-46.43c9.682-5.628 9.636-14.75-.11-20.374" fill="#2B90FF"/>
        <path d="M242.536 282.744l-80.42-46.44c-9.746-5.628-25.5-5.628-35.183 0l-79.896 46.44c-9.683 5.63-9.63 14.75.115 20.38l80.42 46.429c9.746 5.629 25.495 5.624 35.177 0l79.897-46.43c9.682-5.628 9.636-14.75-.11-20.374M230.93 54.111c0-12.256-8.836-22.727-20.918-24.788-12.082-2.06-23.89 4.89-27.951 16.454-4.063 11.564.804 24.371 11.52 30.32a4.314 4.314 0 0 1 2.235 3.394c.218 3.045-2.775 4.511-2.775 4.511 38.898.38 37.89-29.89 37.89-29.89z" fill="#FFF"/>
        <path d="M131.07 276.351c-11.101 6.456-13.055 15.879-4.35 20.941 8.706 5.062 24.917 3.924 36.014-2.526 11.097-6.45 13.056-15.873 4.35-20.94-8.706-5.068-24.917-3.925-36.013 2.525z" fill="#D8D8D8"/>
        <path d="M154.72 103.888s-4.159 6.237 0 10.914c3.476 3.961 3.58 8.218 1.439 12.11-1.502 2.735-1.346 5.92.603 7.584 2.354 2.006 5.587 1.637 8.836-.156 0 0-4.933-1.975-1.7-6.544 2.032-2.874 6.632-7.37 1.648-15.785-4.45-7.51-1.04-11.621-.728-16.148.624-9.813-7.276-22.084-14.828-19.002 0 0 4.547 4.969 5.795 10.431 1.247 5.463 2.671 11.2-1.066 16.596z" fill="#424242"/>
        <path d="M132.755 292.536c2.406 2.407 5.322 3.394 6.517 2.199 1.196-1.195.208-4.111-2.193-6.518-2.401-2.406-5.322-3.394-6.518-2.203-.722.717-.67 2.598-.67 3.326.4.748 1.907 2.24 2.864 3.196z" fill="#081B2F"/>
        <ellipse fill="#FFCFAE" transform="rotate(-46.33 134.133 288.59)" cx="134.133" cy="288.589" rx="1.949" ry="3.94"/>
        <path d="M154.298 280.198c2.308 2.312 5.11 3.258 6.237 2.115 1.128-1.144.203-3.945-2.11-6.237-2.313-2.292-5.109-3.259-6.237-2.116-.691.692-.644 2.5-.644 3.197.39.696 1.84 2.126 2.754 3.04z" fill="#081B2F"/>
        <path d="M154.32 277.796c1.512 1.445 3.315 2.006 4.032 1.258.718-.748.068-2.52-1.445-3.966-1.512-1.445-3.316-2.006-4.033-1.252-.717.753-.088 2.515 1.445 3.96z" fill="#FFCFAE"/>
        <path d="M130.608 247.438s-6.112-34.226-9.122-56.17l46.986-8.903c.223 10.67.598 31.008-.603 45.738-1.809 22.172-9.875 47.853-9.875 47.853-.167.806-.63 1.33-2.412 1.33a2.848 2.848 0 0 1-2.978-2.51l.41-34.688-3.882-30.265s-1.881 22.557-3.28 34.605c-1.398 12.048-9.495 43.763-9.495 43.763 0 1.263-1.123 1.56-2.08 1.56-2.136 0-3.253-1.477-3.269-2.73l-.4-39.583z" fill="#FFCFAE"/>
        <path d="M141.778 235.535c-2.205.571-4.5.71-6.757.41-6.928-.971-14.2-8.487-14.2-8.487v-8.835c0-9.356.037-44.943.037-44.943.239-2.443.52-4.756.93-6.944 1.336-6.554 3.836-10.463 9.293-14.813a18.368 18.368 0 0 1 2.386-1.56c6.954-3.923 20.27-6.974 28.908-3.637 11.367 4.376 11.362 17.827 11.367 17.801v51.076a115.832 115.832 0 0 1-13.94 10.634c-7.276 4.673-16.299 8.841-18.024 9.298z" fill="#9B9B9B"/>
        <path d="M174.023 116.788c4.054 8.597 5.883 22.401 6.554 34.381l-11.762 1.248-11.247-28.987" fill="#F5F5F5"/>
        <path d="M171.424 176.476s-.42 4.293-.712 5.504c-.187.775-.301 1.305-.447 1.866-.197.78-.25 1.164 0 1.352.25.187.702.244 1.149-1.336a6.887 6.887 0 0 1-1.456 2.89c-.842.91-2.079 1.83-1.746 2.312.333.484 1.232 0 1.232 0s.109.78 1.226.167c0 0 .136.629 1.269-.167 0 0 .447.52 1.491-.52 1.045-1.039 4.766-5.067 4.844-12.593l-6.85.525z" fill="#FFCFAE"/>
        <path d="M180.561 150.936c1.17 20.956-2.079 27.39-2.079 27.39l-7.11.193-2.552-26.097" fill="#F5F5F5"/>
        <circle fill="#F5F5F5" cx="174.641" cy="151.279" r="5.915"/>
        <circle fill="#F5F5F5" cx="166.045" cy="120.717" r="8.893"/>
        <path d="M118.753 130.385c-1.742 12.203-1.081 58.077-1.081 58.077 0 9.792 2.463 17.5 15.893 19.381 2.526.274 5.079.12 7.552-.457 10.395-2.22 22.979-9.714 27.89-14.153 8.233-7.443 7.895-14.47 7.895-20.598V127.86c0 .03 0-15.032-12.723-19.928-9.678-3.726-24.569-.311-32.355 4.086.006.02-11.263 5.65-13.071 18.368z" fill="#FFF"/>
        <path d="M119.725 126.3a7.141 7.141 0 0 1 5.239-2.423c7.765 0 7.235 8.8 7.235 8.8v49.376c0 18.992 4.308 24.262 7.11 25.68a20.525 20.525 0 0 1-5.744.13c-13.43-1.88-15.893-9.594-15.893-19.38 0 0-.66-45.874 1.08-58.078.2-1.395.525-2.77.973-4.106z" fill="#D8D8D8"/>
        <path d="M138.753 133.103l-11.347 37.895-14.189-2.365s-.223-3.513-.228-7.276c0-15.89 2.255-27.838 6.554-36.31" fill="#FFF"/>
        <circle fill="#FFF" transform="rotate(-89.78 128.902 129.65)" cx="128.902" cy="129.65" r="10.426"/>
        <path d="M125.967 199.584s.343 4.299.613 5.52c.172.774.276 1.31.41 1.876.188.78.23 1.17-.03 1.352-.26.182-.707.233-1.128-1.352.23 1.07.71 2.07 1.403 2.916.826.92 2.043 1.866 1.705 2.339-.338.473-1.232 0-1.232 0s-.12.774-1.227.145c0 0-.145.624-1.263-.187 0 0-.457.52-1.481-.55-1.024-1.071-4.678-5.151-4.615-12.677l6.845.618z" fill="#FFCFAE"/>
        <path d="M127.698 169.683l-1.175 34.823-6.82-.244s-5.197-13.69-6.486-35.556" fill="#FFF"/>
        <circle fill="#FFF" transform="rotate(-88.97 120.493 168.756)" cx="120.493" cy="168.756" r="7.271"/>
        <path d="M152.5 83.16c3.27-.13 7.105.676 8.997 3.83 1.216 2.028 1.123 5.718 1.237 8.457.197 4.948-1.778 10.135-4.844 12.827v1.295c-.031 1.04-.743 2.115-2.147 2.92-2.853 1.648-7.458 1.648-10.29 0-1.368-.795-2.08-1.829-2.111-2.868V96.674c0-.156 0-.307-.026-.463-.312-6.99 3.815-12.843 9.184-13.05z" fill="#FFCFAE"/>
        <path d="M153.581 110.14a6.965 6.965 0 0 0 4.304-1.87v1.293c-.032 1.04-.744 2.116-2.147 2.921-2.853 1.648-7.458 1.648-10.291 0-1.367-.795-2.079-1.83-2.11-2.869V96.674c.436 6.86 4.995 13.674 10.244 13.466z" fill="#EAB896"/>
        <path d="M135.114 127.812c-2.032-2.874-6.632-7.37-1.647-15.785 4.449-7.51 1.04-11.622.727-16.149-.52-7.796 4.397-17.151 10.23-19.116.44-.17.901-.274 1.371-.312a6.315 6.315 0 0 1 2.552.192c4.496-3.54 11.544 1.45 16.96 7.932 4.054 4.844 2.666 9.782-.286 11.767a4.19 4.19 0 0 1-2.292.722c.026-.52.036-1.086 0-1.626-.047-1.123-.057-2.402-.14-3.639-4.47-.254-7.116-2.193-7.116-2.193.185.406.413.792.68 1.149.389.43.87.764 1.41.977a14.075 14.075 0 0 1-5.458-.951 10.77 10.77 0 0 1-4.574-3.119l-.691 8.742a1.783 1.783 0 0 0-3.524.354v5.514c.29.577.62 1.133.988 1.664 0 0 4.158 6.237 0 10.914-3.478 3.96-3.582 8.218-1.44 12.11 1.502 2.734 1.346 5.92-.603 7.584-2.355 2.006-5.587 1.637-8.836-.156-.031-.031 4.901-2.007 1.69-6.575z" fill="#424242"/>
        <rect fill="#2B90FF" x="194.943" y="50.639" width="6.32" height="12.027" rx="2.86"/>
        <path d="M215.52 50.489a2.375 2.375 0 0 0-1.248-.36h-4.366c.39-2.37.52-4.157.364-4.921a3.519 3.519 0 0 0-1.04-2.08 2.199 2.199 0 0 0-.394-.311 1.56 1.56 0 0 0-.811-.234 1.56 1.56 0 0 0-1.56 1.56 8.28 8.28 0 0 1-.233 2.125 20.307 20.307 0 0 1-2.214 4.49c-.376.44-.854.78-1.393.988v9.455a2.968 2.968 0 0 1 1.6.946 2.989 2.989 0 0 0 2.246 1.04h6.47a3.685 3.685 0 0 0 3.691-3.686v-7.006a2.37 2.37 0 0 0-1.112-2.006z" fill="#2B90FF"/>
        <path d="M168.378 49.23c11.086-6.137 16.129-19.376 11.935-31.334C176.12 5.938 163.914-1.252 151.423.878c-12.492 2.13-21.626 12.958-21.62 25.63 0 0-1.04 31.283 39.157 30.893 0 0-3.118-1.517-2.869-4.678a4.46 4.46 0 0 1 2.287-3.492z" fill="#FFF"/>
        <path d="M169.688 23.597l-2.115-2.116v-2.993l-2.765-1.144-1.144-2.791h-2.994l-2.12-2.079-2.765 1.143-2.765-1.143-2.116 2.079h-2.993l-1.144 2.765-2.765 1.144v2.993l-2.13 2.142 1.143 2.765-1.144 2.744 2.115 2.115v2.994l2.766 1.144 1.143 2.765h2.994l2.115 2.115 2.765-1.143 2.765 1.143 2.116-2.115h2.993l1.144-2.765 2.765-1.144v-2.968l2.136-2.141-1.143-2.765 1.143-2.744zm-12.994 10.395v1.627a.928.928 0 0 1-1.855 0v-1.622a4.641 4.641 0 0 1-3.706-4.543.928.928 0 0 1 1.856 0 2.786 2.786 0 0 0 2.796 2.77c1.637 0 2.78-1.039 2.78-2.473 0-1.206-1.003-2.048-2.983-2.495-3.638-.837-4.428-2.802-4.428-4.304a4.298 4.298 0 0 1 3.71-4.241v-1.616a.928.928 0 0 1 1.856 0v1.616a4.615 4.615 0 0 1 3.639 3.768.928.928 0 0 1-1.83.307 2.77 2.77 0 0 0-2.744-2.318c-1.637 0-2.78 1.04-2.78 2.474 0 .447 0 1.814 2.983 2.495 3.856.873 4.428 3.071 4.428 4.303a4.293 4.293 0 0 1-3.7 4.267l-.022-.015z" fill="#FFB522"/>
        <path fill="#D3D3D3" d="M19.283 152.505l8.326-4.802.005 1.642-8.326 4.808-.005-1.648"/>
        <path fill="#E9E9E9" d="M17.557 156.003l10.057-5.805v1.013l-10.057 5.81v-1.018M17.557 157.49l10.063-5.811.005 1.013-10.063 5.811-.005-1.013"/>
        <path fill="#D3D3D3" d="M19.309 161.668l8.326-4.812.005 1.637-8.326 4.807-.005-1.632"/>
        <path fill="#E9E9E9" d="M17.583 165.15l10.057-5.805.006 1.014-10.063 5.81v-1.018M17.583 166.637l10.063-5.81.005 1.013-10.063 5.81-.005-1.013"/>
        <path fill="#D3D3D3" d="M19.335 170.816l8.326-4.813.005 1.648-8.326 4.807-.005-1.642"/>
        <path fill="#E9E9E9" d="M17.61 174.304l10.056-5.811v1.013l-10.057 5.811v-1.013M17.61 175.785l10.062-5.811.005 1.019-10.063 5.81-.005-1.018"/>
        <g fill="#D3D3D3">
            <path d="M105.005 62.266l-88.81 51.274.01 3.445 88.81-51.273-.01-3.446M57.526 97.484l-41.31 23.847.005 1.543 41.31-23.851-.005-1.539M57.536 100.847L16.226 124.7l.006 1.538 41.31-23.846-.006-1.544M57.547 104.215l-41.31 23.846.005 1.544 41.305-23.851v-1.539M57.552 107.578l-41.305 23.846.006 1.544 41.304-23.852-.005-1.538M57.562 110.946l-41.304 23.846.005 1.539 41.305-23.847-.006-1.538M57.573 114.309l-41.305 23.846v1.538l41.31-23.846-.005-1.538M102.214 71.684l-41.31 23.851.006 1.539 41.304-23.852v-1.538M102.22 75.052L60.914 98.898l.005 1.544 41.305-23.852-.006-1.538M102.23 78.415L60.925 102.26v1.544l41.31-23.852-.005-1.538M102.24 81.778l-41.31 23.846.006 1.543 41.31-23.851-.006-1.538M98.565 87.271l-37.624 21.72.005 1.544 37.62-21.72v-1.544M94.88 92.765l-33.929 19.59.005 1.543 33.93-19.59-.006-1.543"/>
        </g>
    </g>
</svg>
