<svg xmlns="http://www.w3.org/2000/svg" viewBox="0 0 1145.56 1074.31">
    <defs>
        <style>
            .cls-1,.cls-26{fill:#d8d8d8}.cls-1,.cls-36,.cls-37,.cls-38,.cls-39,.cls-40,.cls-41,.cls-42,.cls-43,.cls-44,.cls-45,.cls-46,.cls-47,.cls-48,.cls-49,.cls-50,.cls-56,.cls-57,.cls-58,.cls-59,.cls-60,.cls-61,.cls-62,.cls-63,.cls-64,.cls-65,.cls-66,.cls-67,.cls-68,.cls-69{fill-rule:evenodd}.cls-2{fill:#2b90ff}.cls-3{fill:#4dabff}.cls-4{fill:#fff}.cls-5{fill:#dbdbdb}.cls-6{fill:#e2e2e2;opacity:.7}.cls-7{fill:#d6d6d6}.cls-42,.cls-8{fill:#10355d}.cls-9{fill:#d8eaff}.cls-10{fill:#2c2c2c}.cls-11{fill:#636363}.cls-12{fill:#217cbf}.cls-13,.cls-66{fill:#9eccff}.cls-14{fill:#eaeae5}.cls-15{fill:#bebebe}.cls-16{fill:#dedede}.cls-17{fill:#b4b4b4}.cls-18{fill:#a6a6a6}.cls-19{fill:#898989}.cls-20{fill:#d2d9dd}.cls-21{fill:#eaeaea}.cls-22{fill:#999}.cls-23{fill:#cecece}.cls-24{fill:#b7b7b7}.cls-25{fill:#e8e8e8}.cls-27{fill:#515151}.cls-28{fill:#6a6a6a}.cls-29{opacity:.15}.cls-30{fill:#ffcfae}.cls-31{fill:#444549}.cls-32{fill:#9b9b9b}.cls-33{opacity:.1}.cls-34{fill:#424242}.cls-35,.cls-54{opacity:.08}.cls-36{fill:#011d2e}.cls-37{fill:#050408}.cls-38{fill:#171526}.cls-39{fill:#343054}.cls-40{fill:#25223d}.cls-41{fill:#110f1c}.cls-43{fill:#003d63}.cls-44{fill:#1c4870}.cls-45,.cls-51{fill:#081b2f}.cls-46{fill:#001624}.cls-47{fill:#c4c4d8}.cls-48{fill:#eaeaf7}.cls-49{fill:#f5f5ff}.cls-50{fill:#fafaff}.cls-52{fill:#eab896}.cls-53{fill:#6b373e}.cls-54,.cls-70{fill:#3a2416}.cls-55{fill:#f5f5f5}.cls-56{fill:#66ade2}.cls-57{fill:#b0aaad}.cls-58{fill:#b3adb0}.cls-59{fill:#a69fa3}.cls-60{fill:#bdb6b9}.cls-61{fill:#cfc9cb}.cls-62{fill:#4d4948}.cls-63{fill:#4e8aaf}.cls-64{fill:#3a7593}.cls-65{fill:#a9d6ff}.cls-67{fill:#93bee5}.cls-68{fill:#254d66}.cls-69{fill:#396a8e}.cls-70{opacity:.04}
        </style>
    </defs>
    <title>
        Develop Infrastructure
    </title>
    <g id="Layer_2" data-name="Layer 2">
        <g id="Layer_1-2" data-name="Layer 1">
            <path class="cls-1" d="M7.37 755.36L85.3 711c8.5-3.88 20.66-7 29.31-2.47 7.89 4.1 20.88 12.5 26.62 15.78 4.36 2.49 19.51 11.56 10.08 16.69-27.75 15.07-55.21 32-83.39 47.37-5.33 2.9-13.13 3.95-21.31 3.27a56.43 56.43 0 0 1-23.08-6.87l-13.82-8C3.59 773.16.35 769 0 765.06s2.16-7.32 7.37-9.7z"/>
            <path class="cls-2" d="M1097.86 620.88L936.23 527.7v-15.02l209.33 80.37-47.7 27.83z"/>
            <path class="cls-3" d="M1097.86 605.86l-161.63-93.18 47.69-27.83 161.64 93.18-47.7 27.83z"/>
            <path class="cls-4" d="M1124.19 252.89l-146.16-84.38-27.3 175.79v168.76l146.15 84.38V428.68l27.31-175.79z"/>
            <path class="cls-5" d="M1124.19 252.89l-146.16-84.38 13.61-7.77 146.15 84.39-13.6 7.76z"/>
            <path class="cls-6" d="M1124.19 252.89l-146.16-84.38-27.3 175.78 146.15 84.39 27.31-175.79z"/>
            <path class="cls-7" d="M1137.79 245.13l-13.6 7.76-27.31 175.79v168.76l40.91-23.7V245.13z"/>
            <path class="cls-8" d="M970.86 334.18l109.91 63.46 21.9-141.03-97.63-56.4-34.18 133.97z"/>
            <path class="cls-9" d="M1081.7 391.61l-103.98-60.04 2.19-12.7 103.79 60.09-2 12.65z"/>
            <path class="cls-10" d="M1005.04 200.21l5.66 3.27-32.67 128.07 103.7 59.87-.96 6.22-109.91-63.46 34.18-133.97z"/>
            <path class="cls-11" d="M970.86 334.18l21.91-141.03 12.27 7.06-34.18 133.97z"/>
            <path class="cls-12" d="M1145.56 578.03v15.02l-47.7 27.83v-15.02l47.7-27.83z"/>
            <path class="cls-13" d="M1021.13 252.89l-3.8 14.68 64.29 37.12 3.75-14.55-64.24-37.25zM1015.13 276.31l-3.8 14.68 64.29 37.11 3.75-14.55-64.24-37.24zM1009.13 299.72l-3.8 14.68 64.28 37.12 3.76-14.56-64.24-37.24z"/>
            <path class="cls-14" d="M969.21 386.83v-13.84l40.48 23.42v13.84l-40.48-23.42z"/>
            <path class="cls-15" d="M980.99 390.9v-7.78l16.92 9.79v7.78l-16.92-9.79z"/>
            <path d="M1004.98 399.19l-31.06-17.97v3.11l31.06 17.98v-3.12z"/>
            <path class="cls-13" d="M1049.8 430.1v-4.84a7.49 7.49 0 0 1 11.22-6.49l13.6 7.82a16.52 16.52 0 0 1 8.29 14.32v8.23z"/>
            <path class="cls-8" d="M1077.82 435.01l-22.92-13.19v1.75l22.92 13.2v-1.76zM1077.82 439.16l-22.92-13.2v1.76l22.92 13.2v-1.76z"/>
            <path class="cls-2" d="M998.09 430.43L1035 453.3c8.86 5.18 10.15 11.78 10.19 22.14l.21 58.56c0 8.22-4.92 11.62-11.95 7.51l-34.17-21c-8.86-5.18-12.42-9.94-12.45-20.3l-.21-62.33c-.07-8.2 4.45-11.56 11.47-7.45z"/>
            <path class="cls-8" d="M1011.91 513.61l-7.26-55.34-.31-.19q.46 6.18.4 11.06l-.49 39.91-7.14-4.26.73-59.47 11.85 7.05 6.51 51 .23.14 7.61-42.56 12 7.16-.73 59.47-7.31-4.38.49-40.31q.06-5 .52-10l-.23-.14-8.47 45.89z"/>
            <path class="cls-16" d="M120.14 528.35l174.85-100.63 126.79 73.14L246.94 601.5l-126.8-73.15z"/>
            <path class="cls-17" d="M201.94 539.16l63.31-38.3-5.93-52.62-107.61 61.94 50.23 28.98z"/>
            <path class="cls-18" d="M246.94 601.5l174.84-100.64v6.87L246.96 608.37l-.02-6.87z"/>
            <path class="cls-19" d="M120.16 535.21l-.02-6.86 126.8 73.15.02 6.87-126.8-73.16z"/>
            <path class="cls-20" d="M298.29 300.3l.05 40.84-26.5 15.35a11.11 11.11 0 0 1-11 .08L215.7 331a11 11 0 0 1 4.67-5.45l61.21-36.07a10.89 10.89 0 0 1 11.08-.08c.2.1.38.2.58.33l12.92 7.67s-5.27 2.04-7.87 2.9z"/>
            <path class="cls-21" d="M332.29 245.75l.37 247.3-.01.01-103.86 61.21-.37-247.31v-.01l103.86-61.2h.01z"/>
            <path class="cls-22" d="M305.2 230.69l-76.78 234.48.37 89.1-27.09-15.06-.37-247.31 103.86-61.21h.01z"/>
            <path class="cls-23" d="M179.85 87.35L321.45 3.9a27.72 27.72 0 0 1 28.67.19l29.41 17.51-28.23 86.67.5 224.32a56.52 56.52 0 0 1-27.8 48.77l-120.35 70.92-11.11 34.1-24.74-14.26a27.75 27.75 0 0 1-14.53-24.47L152.65 135a55.25 55.25 0 0 1 27.2-47.65z"/>
            <path class="cls-24" d="M153.28 447.31v.32a27.75 27.75 0 0 0 14.53 24.47l24.74 14.26 4.52-13.88z"/>
            <path class="cls-25" d="M179.85 87.35L321.45 3.9a27.72 27.72 0 0 1 28.67.19l29.41 17.51-6.21 19.05-140.84 81.6a13 13 0 0 1-13 .07l-49.1-27.58a54.8 54.8 0 0 1 9.47-7.39z"/>
            <path class="cls-26" d="M152.65 135a55 55 0 0 1 17.85-40.37l42.35 23.74a12.38 12.38 0 0 1 .12 21.48l-8.53 28.63a12.38 12.38 0 0 1-12.31.07l-39.46-22.11z"/>
            <path class="cls-4" d="M389.7 43l.64 311.87a56.53 56.53 0 0 1-27.83 48.78l-141 83.08a28.05 28.05 0 0 1-42.3-24.11L178.6 150a55.25 55.25 0 0 1 27.2-47.69l141.6-83.45A28.05 28.05 0 0 1 389.7 43z"/>
            <path class="cls-16" d="M345.9 54.17L225 123.8a38.63 38.63 0 0 0-19.35 33.47v282.57a14.59 14.59 0 0 0 21.87 12.64l120.89-69.63a38.63 38.63 0 0 0 19.35-33.47V66.81a14.59 14.59 0 0 0-21.86-12.64z"/>
            <path class="cls-19" d="M356.14 52.61a14.29 14.29 0 0 1 3.86 9.75v282.56a38.63 38.63 0 0 1-19.35 33.47L219.74 448a14.28 14.28 0 0 1-10.25 1.56 14.49 14.49 0 0 0 18 2.89l120.89-69.63a38.63 38.63 0 0 0 19.35-33.47V66.81a14.49 14.49 0 0 0-11.59-14.2z"/>
            <path class="cls-13" d="M247.31 312.1l-4.81-5.25 27.31-25.03 11.92-26.72 28.05-31.25 16.47-50.35 6.77 2.21-17.44 52.34-28.16 31.38-12.24 27.14-27.87 25.53z"/>
            <path class="cls-9" d="M216.79 319.06l-1.31-7 17.99-3.35 55.39-14.34 58.15 15.8-1.86 6.87-56.34-15.3-53.8 13.92-18.22 3.4z"/>
            <path class="cls-8" d="M291.86 355.99h-7.12v-54.88l-33.23-40.32v-65.13h7.13v62.57l33.22 40.32v57.44z"/>
            <path class="cls-2" d="M320.65 305.73l-11.14-78.83-24.25-39.77 6.08-3.71 25.12 41.76 11.24 79.55-7.05 1z"/>
            <path class="cls-9" d="M256 304.35a15.44 15.44 0 0 1-7.05 12.07c-3.89 2.24-7.05.48-7.05-4a15.44 15.44 0 0 1 7.05-12.07c3.87-2.19 7.05-.42 7.05 4z"/>
            <path class="cls-16" d="M253.5 305.78a10 10 0 0 1-4.58 7.84c-2.53 1.46-4.58.31-4.58-2.56a10 10 0 0 1 4.58-7.84c2.53-1.46 4.58-.32 4.58 2.56z"/>
            <path class="cls-9" d="M226.84 310.15a15.44 15.44 0 0 1-7.05 12.07c-3.9 2.24-7.05.48-7.05-4a15.44 15.44 0 0 1 7.05-12.07c3.89-2.15 7.05-.42 7.05 4z"/>
            <path class="cls-16" d="M224.36 311.58a10 10 0 0 1-4.58 7.84c-2.53 1.46-4.58.31-4.58-2.56a10 10 0 0 1 4.58-7.84c2.53-1.46 4.58-.32 4.58 2.56z"/>
            <path class="cls-8" d="M295.34 294.45a15.44 15.44 0 0 1-7.05 12.07c-3.9 2.24-7.05.48-7.05-4a15.44 15.44 0 0 1 7.05-12.07c3.89-2.19 7.05-.45 7.05 4z"/>
            <path class="cls-16" d="M292.86 295.88a10 10 0 0 1-4.58 7.84c-2.53 1.46-4.58.31-4.58-2.56a10 10 0 0 1 4.58-7.84c2.54-1.46 4.58-.32 4.58 2.56z"/>
            <path class="cls-8" d="M295.34 349.49a15.44 15.44 0 0 1-7.05 12.07c-3.9 2.24-7.05.47-7.05-4a15.44 15.44 0 0 1 7.05-12.08c3.89-2.18 7.05-.41 7.05 4.01z"/>
            <path class="cls-16" d="M292.86 350.92a10 10 0 0 1-4.58 7.84c-2.53 1.46-4.58.31-4.58-2.56a10 10 0 0 1 4.58-7.84c2.54-1.46 4.58-.36 4.58 2.56z"/>
            <path class="cls-8" d="M279.86 278.28a15.44 15.44 0 0 1-7.05 12.07c-3.89 2.24-7.05.48-7.05-4a15.44 15.44 0 0 1 7.05-12.07c3.9-2.19 7.05-.43 7.05 4z"/>
            <path class="cls-16" d="M277.39 279.71a10 10 0 0 1-4.58 7.84c-2.53 1.46-4.58.31-4.58-2.56a10 10 0 0 1 4.58-7.84c2.53-1.47 4.58-.32 4.58 2.56z"/>
            <path class="cls-8" d="M263 254.09a15.44 15.44 0 0 1-7 12.08c-3.9 2.24-7.05.48-7.05-4a15.44 15.44 0 0 1 7.05-12.03c3.87-2.24 7-.47 7 3.95z"/>
            <path class="cls-16" d="M260.55 255.52a10 10 0 0 1-4.58 7.84c-2.53 1.46-4.58.31-4.58-2.56A10 10 0 0 1 256 253c2.5-1.5 4.55-.36 4.55 2.52z"/>
            <path class="cls-8" d="M263 192.48a15.44 15.44 0 0 1-7 12.08c-3.9 2.24-7.05.47-7.05-4a15.44 15.44 0 0 1 7.05-12.03c3.87-2.24 7-.47 7 3.95z"/>
            <path class="cls-16" d="M260.55 193.91a10 10 0 0 1-4.58 7.84c-2.53 1.46-4.58.31-4.58-2.56a10 10 0 0 1 4.58-7.84c2.53-1.46 4.58-.35 4.58 2.56z"/>
            <path class="cls-13" d="M295.89 248.09a15.44 15.44 0 0 1-7.05 12.07c-3.9 2.24-7.05.48-7.05-4a15.44 15.44 0 0 1 7.05-12.07c3.89-2.2 7.05-.43 7.05 4z"/>
            <path class="cls-16" d="M293.41 249.51a10 10 0 0 1-4.58 7.84c-2.53 1.46-4.58.31-4.58-2.56a10 10 0 0 1 4.58-7.84c2.53-1.46 4.58-.31 4.58 2.56z"/>
            <path class="cls-2" d="M320 220.86a15.44 15.44 0 0 1-7 12.08c-3.9 2.24-7.05.48-7.05-4a15.44 15.44 0 0 1 7.05-12.03c3.86-2.24 7-.48 7 3.95z"/>
            <path class="cls-16" d="M317.55 222.29a10 10 0 0 1-4.58 7.84c-2.53 1.46-4.58.31-4.58-2.56a10 10 0 0 1 4.58-7.84c2.53-1.46 4.58-.32 4.58 2.56z"/>
            <path class="cls-13" d="M335.86 172.22a15.44 15.44 0 0 1-7.05 12.07c-3.9 2.24-7.05.47-7.05-4a15.44 15.44 0 0 1 7.05-12.07c3.9-2.22 7.05-.42 7.05 4z"/>
            <path class="cls-16" d="M333.39 173.65a10 10 0 0 1-4.58 7.84c-2.53 1.46-4.58.31-4.58-2.56a10 10 0 0 1 4.58-7.84c2.53-1.46 4.58-.32 4.58 2.56z"/>
            <path class="cls-2" d="M295.89 183.5a15.44 15.44 0 0 1-7.05 12.07c-3.9 2.24-7.05.48-7.05-4a15.44 15.44 0 0 1 7.05-12.07c3.89-2.2 7.05-.43 7.05 4z"/>
            <path class="cls-16" d="M293.41 184.92a10 10 0 0 1-4.58 7.84c-2.53 1.46-4.58.31-4.58-2.56a10 10 0 0 1 4.58-7.84c2.53-1.46 4.58-.36 4.58 2.56z"/>
            <path class="cls-2" d="M325.06 259.92A15.44 15.44 0 0 1 318 272c-3.9 2.24-7.05.48-7.05-4a15.44 15.44 0 0 1 7.05-12c3.9-2.27 7.06-.5 7.06 3.92z"/>
            <path class="cls-16" d="M322.59 261.35a10 10 0 0 1-4.58 7.84c-2.53 1.46-4.58.31-4.58-2.56a10 10 0 0 1 4.58-7.84c2.53-1.46 4.58-.31 4.58 2.56z"/>
            <path class="cls-9" d="M329.64 301.17a15.44 15.44 0 0 1-7.05 12.07c-3.89 2.24-7.05.48-7.05-4a15.44 15.44 0 0 1 7.05-12.07c3.89-2.17 7.05-.43 7.05 4z"/>
            <path class="cls-16" d="M327.16 302.59a10 10 0 0 1-4.58 7.84c-2.53 1.46-4.58.31-4.58-2.56a10 10 0 0 1 4.58-7.84c2.53-1.46 4.58-.31 4.58 2.56z"/>
            <path class="cls-9" d="M353.13 309.27a15.44 15.44 0 0 1-7.05 12.07c-3.9 2.24-7.05.48-7.05-4a15.44 15.44 0 0 1 7.05-12.07c3.92-2.19 7.05-.42 7.05 4z"/>
            <path class="cls-16" d="M350.65 310.7a10 10 0 0 1-4.58 7.84c-2.53 1.46-4.58.31-4.58-2.56a10 10 0 0 1 4.58-7.84c2.54-1.46 4.58-.32 4.58 2.56z"/>
            <path class="cls-27" d="M229.52 148.07v12.13a13.16 13.16 0 0 1-1.19 5.8 8.64 8.64 0 0 1-3.45 3.77q-2.21 1.28-3.36.2c-.77-.71-1.15-2.22-1.15-4.5V153.4l2.73-1.59v12.34c0 2.38.62 3.22 1.87 2.49a3.27 3.27 0 0 0 1.34-1.7 7.62 7.62 0 0 0 .48-2.86v-12.42zM242.44 159.3l-3.36 2-4.58-10.92-.13.08a18.31 18.31 0 0 1 .25 3.19v10.25l-2.55 1.48v-18.79l3.37-2 4.54 10.8.12-.07a21.05 21.05 0 0 1-.19-3.1V142l2.53-1.47zM254.48 142.75a19.34 19.34 0 0 1-1.5 8 10.5 10.5 0 0 1-4.3 5l-3.63 2.11V139l4-2.3q2.58-1.5 4 .07c.95 1.1 1.43 3.07 1.43 5.98zm-2.83 1.75q0-6.28-2.74-4.69l-1.1.64v12.68l.89-.52a5.22 5.22 0 0 0 2.23-2.89 15.83 15.83 0 0 0 .72-5.22zM263.3 147.17l-6.67 3.88v-18.74l6.67-3.88v3l-3.92 2.28v4.46l3.63-2.11v3l-3.63 2.11v5.19l3.92-2.28zM268.21 137v7.3l-2.76 1.6v-18.73l3.6-2.09c1.53-.89 2.65-1.09 3.38-.59s1.09 1.68 1.09 3.56a9.81 9.81 0 0 1-1.89 6.07l2.85 6.56-2.95 1.72-2.34-5.94zm0-3l.71-.41a3.29 3.29 0 0 0 1.4-1.51 5.76 5.76 0 0 0 .42-2.33c0-1-.15-1.55-.45-1.78s-.77-.16-1.39.21l-.69.4zM280.3 126.88l4.53-2.63v9.62a17 17 0 0 1-4.09 3.41q-2.59 1.51-4-.18t-1.39-6.36a19 19 0 0 1 1.6-8 11 11 0 0 1 4.45-5.15 5.25 5.25 0 0 1 3.38-.81l-.87 3.35a3.45 3.45 0 0 0-2.34.44 6.12 6.12 0 0 0-2.48 3.22 14.4 14.4 0 0 0-.92 5.38 10.52 10.52 0 0 0 .67 4.45 1.21 1.21 0 0 0 1.93.56 8.11 8.11 0 0 0 1.36-1v-4.28l-1.83 1.1zM289.84 124.44v7.3l-2.76 1.6v-18.75l3.6-2.09c1.52-.89 2.65-1.09 3.38-.59s1.09 1.68 1.09 3.56a9.81 9.81 0 0 1-1.89 6.07l2.84 6.56-2.94 1.72-2.34-5.94zm0-3l.71-.41a3.24 3.24 0 0 0 1.39-1.51 5.64 5.64 0 0 0 .43-2.33c0-1-.15-1.55-.45-1.78s-.77-.16-1.4.21l-.68.4zM307.63 112a20.58 20.58 0 0 1-1.38 7.95 9.51 9.51 0 0 1-3.94 4.79q-2.57 1.5-4-.2c-.91-1.13-1.38-3.26-1.38-6.39a20.58 20.58 0 0 1 1.38-7.93 9.64 9.64 0 0 1 4-4.79c1.7-1 3-.92 3.92.22s1.4 3.23 1.4 6.35zm-7.83 4.55a11.26 11.26 0 0 0 .64 4.51 1.18 1.18 0 0 0 1.87.59q2.49-1.45 2.49-8t-2.47-5.13a4.62 4.62 0 0 0-1.89 2.77 18.07 18.07 0 0 0-.63 5.25zM318.89 96.09v12.13a13.12 13.12 0 0 1-1.19 5.8 8.61 8.61 0 0 1-3.46 3.77q-2.2 1.29-3.36.21c-.77-.72-1.15-2.22-1.15-4.5v-12.08l2.74-1.59v12.34c0 2.38.62 3.22 1.86 2.49a3.3 3.3 0 0 0 1.35-1.69 7.63 7.63 0 0 0 .47-2.86V97.68zM331.81 107.32l-3.36 2-4.58-10.92-.13.08a17.62 17.62 0 0 1 .26 3.18v10.25l-2.55 1.49V94.61l3.38-2 4.54 10.8.11-.07a21.09 21.09 0 0 1-.19-3.09v-10.2l2.53-1.48zM343.84 90.77a19.24 19.24 0 0 1-1.5 8 10.51 10.51 0 0 1-4.29 5l-3.63 2.11V87.06l4-2.3c1.73-1 3.06-1 4 .08s1.42 3.02 1.42 5.93zM341 92.52q0-6.28-2.73-4.69l-1.1.64v12.68l.88-.52a5.16 5.16 0 0 0 2.23-2.89 15.79 15.79 0 0 0 .72-5.22z"/>
            <path class="cls-28" d="M219 184.07l77.86-44.82v3.06l-77.85 44.81-.01-3.05zM219 190.59l77.86-44.82v3.06l-77.85 44.81-.01-3.05zM268.25 329.87v2.67l-31.41 18.1v-2.67l31.41-18.1z"/>
            <path class="cls-13" d="M228.75 348.49v12.89l-8.97 5.19v-12.9l8.97-5.18z"/>
            <path class="cls-2" d="M228.75 370.64v12.9l-8.97 5.19v-12.9l8.97-5.19z"/>
            <path class="cls-8" d="M228.75 392.8v12.9l-8.97 5.19v-12.9l8.97-5.19z"/>
            <path class="cls-9" d="M228.75 414.96v12.9l-8.97 5.18v-12.89l8.97-5.19z"/>
            <path class="cls-28" d="M251.38 344.81l-14.54 8.38v2.61l14.54-8.35v-2.64zM268.25 351.83v2.67l-31.41 18.11v-2.68l31.41-18.1zM251.38 366.78l-14.54 8.37v2.62l14.54-8.35v-2.64zM268.25 373.79v2.68l-31.41 18.1v-2.68l31.41-18.1zM251.38 388.74l-14.54 8.38v2.61l14.54-8.35v-2.64zM268.25 395.76v2.67l-31.41 18.1v-2.67l31.41-18.1zM251.38 410.7l-14.54 8.38v2.62l14.54-8.35v-2.65z"/>
            <path d="M372.83 610.36c-22.07 12.83-26 31.57-8.65 41.63s49.54 7.81 71.61-5 26-31.57 8.65-41.63-49.53-7.83-71.61 5z" class="cls-29"/>
            <path class="cls-30" d="M450.64 423.69s-.84 8.53-1.42 10.95c-.37 1.54-.6 2.59-.89 3.71-.4 1.55-.5 2.31 0 2.68s1.4.49 2.29-2.65a13.69 13.69 0 0 1-2.89 5.75c-1.68 1.8-4.13 3.64-3.48 4.59s2.45 0 2.45 0 .21 1.55 2.44.33c0 0 .27 1.25 2.52-.33 0 0 .89 1 3-1s9.48-10.07 9.63-25z"/>
            <path class="cls-30" d="M468.8 372.9c2.33 41.67-4.83 54.48-4.83 54.48l-13.45.36-5.07-51.89"/>
            <circle class="cls-30" cx="457.03" cy="373.59" r="11.77"/>
            <circle class="cls-4" cx="439.93" cy="312.82" r="17.69"/>
            <path class="cls-4" d="M455.8 305c8.06 17.1 11.7 44.54 13 68.36l-23.39 2.48-22.36-57.64"/>
            <path class="cls-4" d="M440.75 378.39a5 5 0 0 0 6 3.75l23.18-5.32a5 5 0 0 0 3.75-6l-1.27-5.52a5 5 0 0 0-6-3.75l-23.18 5.32a5 5 0 0 0-3.75 6z"/>
            <path class="cls-31" d="M381.19 633.92c-4.8-4.81-10.62-6.78-13-4.41s-.4 8.19 4.4 13 10.62 6.78 13 4.42c1.43-1.43 1.32-7.27 1.32-8.71-.8-1.5-3.81-2.39-5.72-4.3z"/>
            <path class="cls-30" d="M381.1 633.4c-3.13-3-6.87-4.15-8.35-2.6s-.14 5.23 3 8.21"/>
            <path class="cls-31" d="M421 610.61c-4.8-4.81-10.62-6.78-13-4.41s-.4 8.19 4.4 13 10.62 6.78 13 4.42c1.43-1.43 1.32-7.27 1.32-8.71-.82-1.5-3.83-2.39-5.72-4.3z"/>
            <path class="cls-30" d="M420.89 610.09c-3.13-3-6.87-4.15-8.35-2.6s-.14 5.23 3 8.21"/>
            <path class="cls-32" d="M352.15 413.2l98.77 3.37-19.34 122.48-4.45 75.29c-.08 2.57-2.36 4.65-6.55 4.64s-5.72-2.28-5.81-4.83-7.15-47.75-10.63-78.15a442.16 442.16 0 0 1-2.44-48.13L391 554.09l-3.24 82.5v.26c0 2.55-2.48 4.65-7.1 4.64-4.41 0-6.13-2.14-6.28-4.55-.56-2.79-12.62-63-15.6-88-3.02-25.61-10.46-127.72-6.63-135.74z"/>
            <path class="cls-4" d="M344.26 328.47c-3.46 24.26-2.15 115.48-2.15 115.48 0 19.47 4.9 34.8 31.6 38.54a44.82 44.82 0 0 0 15-.91c20.64-4.41 45.69-19.31 55.46-28.14 16.37-14.8 15.7-28.78 15.7-41v-89c0 .06 0-29.89-25.3-39.62-19.24-7.41-48.86-.62-64.34 8.12.03.06-22.37 11.24-25.97 36.53z"/>
            <path class="cls-4" d="M344.26 328.47c-3.46 24.26-2.15 115.48-2.15 115.48 0 19.47 4.9 34.8 31.6 38.54a44.82 44.82 0 0 0 15-.91c20.64-4.41 45.69-19.31 55.46-28.14 16.37-14.8 15.7-28.78 15.7-41v-89c0 .06 0-29.89-25.3-39.62-19.24-7.41-48.86-.62-64.34 8.12.03.06-22.37 11.24-25.97 36.53z"/>
            <path class="cls-33" d="M346.19 320.32a14.21 14.21 0 0 1 10.41-4.82C372 315.5 371 333 371 333v98.17c0 37.76 8.56 48.24 14.14 51.06a40.81 40.81 0 0 1-11.42.26c-26.7-3.74-31.6-19.07-31.6-38.54 0 0-1.31-91.21 2.15-115.48a46.19 46.19 0 0 1 1.92-8.15z"/>
            <path class="cls-30" d="M410.41 279.72a31.53 31.53 0 0 0 4.59-17.06c-.06-5.72.36-13.41-2.05-17.72-3.75-6.69-11.7-8.62-18.53-8.55-11.21.12-20.18 12.06-20 26.68.09 8.65 3.35 16.3 8.32 21.08v1.9c.08 2 1.41 2.14 4 3.65 5.39 3.13 14.15 3.13 19.57 0 2.66-1.54 4-3.54 4.08-5.55v-4.44"/>
            <path class="cls-34" d="M400.89 220.6c7 1.77 12.76 5.44 16.7 14 2.92 6.35 2.54 22.67-.25 30.68-3 8.69-6.41 21.41-22.4 19.68-11.2-1.21-14-7.19-15.87-16a31.32 31.32 0 0 1-8.86-35.27 3.35 3.35 0 0 1-1.28-3.51 3.82 3.82 0 0 1 2.71-2.76s-1.66-3.12 5.1-5.17c7.61-2.25 17.71-3.25 24.15-1.65z"/>
            <path class="cls-35" d="M379.08 269c.8 3.87 1.8 7.2 3.62 9.81v5.38c-4.83-4.64-8-12-8.3-20.34a34.09 34.09 0 0 0 4.68 5.15z"/>
            <path class="cls-5" d="M396.67 288.63c-6 .52-11.54-.8-14.56-2.49 0 0-5.74 2.47-7.16 3.13 0 0 18.64 7.69 31.38 1.6 11.19-5.35 5.68-10.09 5.68-10.09l-1.6-.63v2.78s-1.87 4.66-13.74 5.7z"/>
            <path class="cls-30" d="M353.41 465.6s-5.59 15.12-5.5 18.24c.08 2.6.68 4.15-.86 4.92-2.06 1-2.88-.52-2.88-.52a2.32 2.32 0 0 1-3.54-1.08s-2 1.34-3-1.91c0 0-2.18 1.8-2.76-4.36-.69-7.29 5-18.57 5.05-18.7z"/>
            <path class="cls-30" d="M345.77 489.19a5 5 0 0 0 2.84-3.22c.82-2.54-.52-4.86-2.91-4.81 0 0-4.61 8.84.07 8.03zM343.28 401.59l-6.44 67.87 13 6.45s14.52-33.76 22-70.13"/>
            <circle class="cls-30" cx="357.67" cy="402.98" r="14.45" transform="rotate(-60.85 357.624 402.962)"/>
            <path class="cls-4" d="M340.56 403.71a5 5 0 0 0 4.35 5.58l23.6 2.92a5 5 0 0 0 5.58-4.35l.69-5.62a5 5 0 0 0-4.35-5.58l-23.6-2.92a5 5 0 0 0-5.58 4.35z"/>
            <path class="cls-4" d="M386.48 329.55l-15 77.61-28.25-5.23s.17-5.91.34-13.42c.73-31.93-2.08-55 3.68-71.63 2.74-7.92 43.54-4.53 39.21 12.68"/>
            <circle class="cls-4" cx="366.02" cy="325.87" r="20.86" transform="rotate(-89.78 366.039 325.865)"/>
            <path d="M951.46 651.15c22.07 12.83 26 31.57 8.65 41.63s-49.54 7.81-71.61-5-26-31.57-8.65-41.63 49.54-7.83 71.61 5z" class="cls-29"/>
            <path class="cls-31" d="M899.13 650.54c4.86-4.75 11.43-5.76 13.8-3.39s.4 8.19-4.4 13c-2 2-4.56 4.5-6.56 5.42a5.5 5.5 0 0 1-6.43-1c-1.37-1.49-1.19-6.93-1.19-8.38.65-1.73 2.46-3.38 4.78-5.65z"/>
            <ellipse class="cls-30" cx="902.24" cy="653.85" rx="8.22" ry="4.28" transform="rotate(-41.31 902.119 653.813)"/>
            <path class="cls-31" d="M939.18 673.08c4.86-4.75 11.43-5.76 13.8-3.39s.4 8.19-4.4 13c-2 2-4.55 4.5-6.56 5.42a5.5 5.5 0 0 1-6.43-1c-1.37-1.49-1.19-6.93-1.19-8.38.67-1.73 2.46-3.38 4.78-5.65z"/>
            <ellipse class="cls-30" cx="942.3" cy="676.39" rx="8.22" ry="4.27" transform="rotate(-41.31 942.43 676.432)"/>
            <path class="cls-30" d="M901 659.25c5.6-2.45 5.85-5.39 6-6.64 0 0 7-46 10.45-76.4a442.2 442.2 0 0 0 2.44-48.13l10.68 66.26 4.94 85.52c0 .09.54 3.58 4.91 2.06 4-1.41 5.92-3.13 6.76-6.41.56-2.79 12.63-61.35 15.6-86.35 3-25.6 10.49-127.7 6.65-135.72l-98.77 3.37L890 579.31l5.49 77.59s.34 2.2 1.79 2.6a6.2 6.2 0 0 0 3.72-.25z"/>
            <path class="cls-32" d="M935 580.68a32.66 32.66 0 0 0 12.47.76c12.8-1.79 26.24-15.69 26.24-15.69v-16.32c0-17.31-.07-83.07-.07-83.07-.44-4.52-1-8.79-1.72-12.83-2.47-12.12-7.09-19.34-17.18-27.38a33.8 33.8 0 0 0-4.41-2.91c-12.86-7.25-37.45-12.89-53.43-6.74-21 8.08-21 33-21 32.91v94.41a214 214 0 0 0 25.76 19.66c13.5 8.66 30.17 16.36 33.34 17.2z"/>
            <path class="cls-4" d="M865.79 345.26c-8.06 17.1-11.7 44.55-13 68.36l23.39 2.48 22.36-57.64"/>
            <path class="cls-30" d="M871 463.95s.84 8.53 1.42 10.95c.37 1.54.6 2.59.89 3.71.4 1.55.5 2.31 0 2.69s-1.4.49-2.29-2.65a13.7 13.7 0 0 0 2.89 5.75c1.68 1.81 4.13 3.64 3.48 4.59s-2.45 0-2.45 0-.21 1.55-2.44.33c0 0-.26 1.25-2.52-.33 0 0-.89 1-3-1s-9.48-10.07-9.63-25z"/>
            <path class="cls-4" d="M852.79 413.15c-2.33 41.67 4.15 54.46 4.15 54.46l14.13.38 5.07-51.89"/>
            <circle class="cls-4" cx="864.56" cy="413.84" r="11.77"/>
            <circle class="cls-4" cx="881.66" cy="353.08" r="17.69"/>
            <path class="cls-4" d="M977.33 368.72c3.46 24.26 2.15 115.48 2.15 115.48 0 19.47-4.9 34.8-31.6 38.54a44.83 44.83 0 0 1-15-.91c-20.64-4.41-45.69-19.31-55.46-28.14-16.37-14.8-15.7-28.78-15.7-41v-89c0 .06 0-29.89 25.3-39.62 19.24-7.41 48.86-.62 64.34 8.12-.03.05 22.37 11.24 25.97 36.53z"/>
            <path class="cls-33" d="M975.4 360.57a14.21 14.21 0 0 0-10.4-4.82c-15.44 0-14.39 17.5-14.39 17.5v98.17c0 37.76-8.56 48.24-14.14 51.06a40.8 40.8 0 0 0 11.42.26c26.7-3.74 31.6-19.07 31.6-38.54 0 0 1.31-91.21-2.15-115.48a46.2 46.2 0 0 0-1.94-8.15z"/>
            <path class="cls-4" d="M935.11 369.8l15 77.61 28.25-5.23s-.17-5.92-.34-13.42c-.73-31.93 2.08-55-3.68-71.63-2.74-7.92-43.54-4.53-39.21 12.68"/>
            <path class="cls-30" d="M969.09 506.12s5.59 15.12 5.49 18.23c-.08 2.6-.68 4.15.86 4.92 2.06 1 2.88-.52 2.88-.52a2.32 2.32 0 0 0 3.54-1.08s2 1.34 3-1.91c0 0 2.18 1.8 2.76-4.36.69-7.29-5-18.57-5.05-18.7z"/>
            <path class="cls-30" d="M975.81 529.44a5 5 0 0 1-2.84-3.22c-.82-2.54.52-4.86 2.91-4.81.01.01 4.62 8.8-.07 8.03z"/>
            <path class="cls-4" d="M978.31 441.84l6.44 67.87-13.68 6.45s-13.86-33.75-21.33-70.16"/>
            <circle class="cls-4" cx="963.92" cy="443.23" r="14.45" transform="rotate(-29.16 963.796 443.2)"/>
            <circle class="cls-4" cx="955.57" cy="366.12" r="20.86" transform="rotate(-.22 944.69 361.215)"/>
            <path class="cls-30" d="M943.93 303.1c-.15 14.62-9.36 26.38-20.57 26.27s-20.19-12.06-20-26.69c.06-5.72-.36-13.41 2.05-17.72 3.75-6.69 11.7-8.62 18.53-8.54 11.17.11 20.14 12.06 19.99 26.68z"/>
            <path class="cls-35" d="M943.93 303.1c-.15 14.62-9.36 26.38-20.57 26.27s-20.19-12.06-20-26.69c.06-5.72-.36-13.41 2.05-17.72 3.75-6.69 11.7-8.62 18.53-8.54 11.17.11 20.14 12.06 19.99 26.68z"/>
            <path class="cls-30" d="M935.6 314.3h-27.71v11.59c.06 2 1.42 4 4.08 5.55 5.42 3.13 14.18 3.13 19.57 0 2.6-1.51 3.93-3.47 4-5.46v-.09z"/>
            <path class="cls-34" d="M887.9 297.72c5.13-7.11 3.79-22.78 10.26-30.77s18.72-6.1 18.72-6.1c7.12-4.68 18.5 3.69 28 15 11.69 14-5.55 20-5.55 20s-6.45 13.69-.08 21.56c0 0 9.31 10.14 5.15 21.48-2.25 6.15-7.41 9.73-9.63 15.87-1.88 5.18-.43 15.06 8.72 17 0 0-9.29 9.92-34.79 7.38-13.58-1.35-30.16-9.23-25-27.12 6.83-24.02-13.86-29.26 4.2-54.3z"/>
            <path class="cls-36" d="M117.43 718.5c-12-9.33-85.19 31.88-87.78 40.19s3.44 15.8 12 19.7c.83.47 3.58-.44 4.62-.8 15.56-5.33 62.25-32 74.35-42.91 5.1-4.61.64-12.14-3.19-16.18z"/>
            <path class="cls-37" d="M117.62 735.11a15.63 15.63 0 0 1-3.11-7.22c-.3-2.23 0-4.79 1.93-5.91l-17.76 10.2a4.74 4.74 0 0 0-2 3.65 13.52 13.52 0 0 0 1 6.12 9.5 9.5 0 0 0 2.3 3.4 165.75 165.75 0 0 0 17.64-10.24z"/>
            <path class="cls-37" d="M99.99 745.35l-.95 1.18 17.63-10.24.95-1.18-17.63 10.24z"/>
            <path class="cls-38" d="M113.84 730.79a9.92 9.92 0 0 1 4.54 7.81c0 2.86-2.07 4-4.57 2.59a9.93 9.93 0 0 1-4.54-7.81c0-2.87 2.05-4.03 4.57-2.59z"/>
            <path class="cls-39" d="M109.63 725.59l6-3.51c2.68-1.56 6.06.52 8.17 2.54a17.46 17.46 0 0 1 3.66 5.13 15.22 15.22 0 0 1 1.62 6.47 6.86 6.86 0 0 1-1 3.74 4 4 0 0 1-1.35 1.3l-6 3.51c1.12-2.22.66-9.28-1.26-12.64-1.55-2.86-7.47-6.61-9.84-6.54z"/>
            <path class="cls-40" d="M113 730.65h-.11a3.53 3.53 0 0 0-.67-.15H112a2.55 2.55 0 0 0-.46 0h-.18a2.15 2.15 0 0 0-.56.2h-.05a2.13 2.13 0 0 0-.45.36l-.06.06a2.48 2.48 0 0 0-.35.54l-.05.11a3.52 3.52 0 0 0-.22.68v.14a4.71 4.71 0 0 0-.08.87 6.61 6.61 0 0 0 .07.92v.28c0 .09.1.45.16.67s.06.25.1.37.12.32.18.49.17.44.27.66.21.44.33.65l.15.27c.18.31.38.61.59.9l.07.09c.19.25.39.48.59.71l.22.23c.17.18.35.34.54.5l.22.19a6.83 6.83 0 0 0 .79.55 4.84 4.84 0 0 0 .88.4c.1 0 .19 0 .29.06a3.61 3.61 0 0 0 .53.11 2.49 2.49 0 0 0 .67 0l.19-.05a2 2 0 0 0 .39-.14 2.23 2.23 0 0 0 .36-.23 2.07 2.07 0 0 0 .24-.19 2.12 2.12 0 0 0 .16-.2 2.46 2.46 0 0 0 .24-.37l.09-.19a3.31 3.31 0 0 0 .21-.65 4.85 4.85 0 0 0 .09-.94 6.5 6.5 0 0 0-.08-1v-.16a8.49 8.49 0 0 0-.22-.94v-.14a9.38 9.38 0 0 0-.36-1v-.08c-.13-.3-.28-.59-.44-.88l-.09-.16q-.26-.44-.56-.85c-.1-.13-.2-.25-.3-.38s-.26-.33-.4-.48-.37-.37-.56-.54-.19-.19-.28-.27a6.82 6.82 0 0 0-.91-.64 5.18 5.18 0 0 0-.8-.37zm-5.7 0c0-.33 0-.64.05-.94a.84.84 0 0 0 0-.09v-.23c0-.08.06-.38.1-.57s0-.09 0-.13 0-.13.06-.19.09-.31.14-.46v-.16l.07-.14c.06-.14.12-.27.19-.4s0-.12.08-.17l.06-.09a4.22 4.22 0 0 1 .25-.36c0-.05.07-.11.11-.16v-.05a3.91 3.91 0 0 1 .37-.37l.1-.1a3.72 3.72 0 0 1 .57-.39h.12a3.63 3.63 0 0 1 .53-.22h.22a4.2 4.2 0 0 1 .7-.12h.1a5.23 5.23 0 0 1 1 .06h.25l.5.12.31.09c.19.06.39.14.59.22l.21.08c.28.13.57.27.86.44s.57.35.84.54l.27.21.55.42.31.27.47.43.32.32.43.45.13.13.09.12q.58.65 1.1 1.37l.06.07.12.19q.29.43.57.87l.12.19.06.12c.18.3.34.6.5.91l.07.13q.26.52.49 1v.05l.11.28c.1.24.19.47.28.71v.11c0 .1.06.21.1.31s.13.41.19.61v.15c0 .1 0 .19.07.29s.1.39.14.58v.45c0 .09.07.38.09.57s0 .15 0 .23v2.2a7.89 7.89 0 0 1-.1.79v.12a6.4 6.4 0 0 1-.24.88v.08l-.06.13a5.41 5.41 0 0 1-.33.71l-.06.12a4.22 4.22 0 0 1-.62.78l-.06.07-.11.09-.3.24-.23.16a3.3 3.3 0 0 1-.34.18l-.16.09h-.06a4 4 0 0 1-.85.23h-.19a4.91 4.91 0 0 1-.94 0l-.42-.06h-.31l-.45-.13-.31-.09c-.17-.06-.34-.13-.52-.21l-.27-.11a7.82 7.82 0 0 1-.81-.42 11.77 11.77 0 0 1-1.08-.72l-.26-.19c-.35-.27-.69-.55-1-.86l-.05-.06c-.31-.3-.62-.62-.92-.95l-.22-.25c-.3-.35-.6-.72-.88-1.1l-.05-.08c-.28-.4-.55-.8-.81-1.22l-.15-.24q-.38-.65-.72-1.33l-.06-.11-.12-.28-.26-.58-.18-.44c-.08-.19-.15-.39-.22-.58s-.06-.16-.09-.24v-.14c-.16-.49-.29-1-.4-1.47v-.08-.19c-.07-.35-.13-.69-.17-1v-.2-.11c0-.38-.06-.75-.06-1.11z"/>
            <path class="cls-38" d="M103.89 736.63a9.93 9.93 0 0 1 4.54 7.81c0 2.86-2.07 4-4.57 2.59a9.93 9.93 0 0 1-4.54-7.81c0-2.88 2.06-4.03 4.57-2.59z"/>
            <path class="cls-39" d="M99.69 731.42l6-3.51c2.68-1.56 6.06.52 8.17 2.54a17.45 17.45 0 0 1 3.66 5.13 15.23 15.23 0 0 1 1.62 6.47 6.86 6.86 0 0 1-1 3.74 4 4 0 0 1-1.35 1.3l-6 3.51c1.12-2.22.66-9.28-1.26-12.64-1.53-2.85-7.53-6.61-9.84-6.54z"/>
            <path class="cls-40" d="M103.09 736.49h-.11a3.58 3.58 0 0 0-.67-.15H102a2.55 2.55 0 0 0-.46 0h-.18a2.15 2.15 0 0 0-.56.2h-.05a2.11 2.11 0 0 0-.45.36l-.06.06a2.46 2.46 0 0 0-.35.54l-.05.11a3.5 3.5 0 0 0-.22.68v.14a4.71 4.71 0 0 0-.08.87 6.61 6.61 0 0 0 .07.92v.28c0 .09.1.45.16.67s.06.25.1.37.12.32.18.49.17.44.27.66.21.43.33.65l.15.27c.18.31.38.61.59.9l.07.09c.19.25.38.48.59.71l.22.22c.17.18.35.34.53.5l.22.19a6.83 6.83 0 0 0 .79.55 4.88 4.88 0 0 0 .88.4c.1 0 .19 0 .29.06a3.61 3.61 0 0 0 .53.11 2.49 2.49 0 0 0 .67 0l.19-.05a2.12 2.12 0 0 0 .38-.14 2.24 2.24 0 0 0 .36-.23 2.12 2.12 0 0 0 .24-.19 2.38 2.38 0 0 0 .16-.2 2.49 2.49 0 0 0 .24-.37l.09-.19a3.29 3.29 0 0 0 .21-.65 4.83 4.83 0 0 0 .09-.94 6.5 6.5 0 0 0-.08-1v-.16a8.47 8.47 0 0 0-.22-.94v-.15a9.24 9.24 0 0 0-.36-1v-.08c-.13-.3-.28-.59-.44-.88l-.09-.16c-.17-.29-.36-.58-.56-.85s-.2-.25-.3-.38-.26-.33-.4-.48a7.72 7.72 0 0 0-.56-.54c-.09-.09-.19-.19-.28-.27a6.81 6.81 0 0 0-.91-.64 5.09 5.09 0 0 0-.8-.37zm-5.7 0c0-.33 0-.64.05-.94a.68.68 0 0 0 0-.09v-.23c0-.08.06-.38.1-.57s0-.09 0-.13 0-.13.06-.19.09-.31.14-.46v-.16l.07-.14c.06-.14.12-.27.19-.4s0-.12.08-.17l.06-.09a4.33 4.33 0 0 1 .25-.36c0-.05.07-.11.11-.16v-.05a3.91 3.91 0 0 1 .37-.37l.1-.1a3.8 3.8 0 0 1 .57-.39h.12a3.77 3.77 0 0 1 .53-.22h.22a4.13 4.13 0 0 1 .7-.12h.1a5.24 5.24 0 0 1 1 .06h.25l.5.12.31.09c.19.06.39.14.59.22l.21.08c.28.13.57.27.86.44s.57.35.84.54l.27.21.54.42.31.27.48.43.32.32.43.45.13.13.09.12q.58.65 1.1 1.37l.06.07.12.19q.29.43.57.87l.12.19.06.12c.18.3.34.6.5.91l.07.13q.26.52.49 1l.11.28c.1.24.19.47.28.71v.11c0 .1.06.21.1.31s.13.41.19.61v.15c0 .1 0 .19.07.29s.1.39.14.58v.45c0 .09.07.38.09.57s0 .15 0 .23v2.2a7.91 7.91 0 0 1-.1.8v.12a6.4 6.4 0 0 1-.24.88v.08l-.06.13a5.37 5.37 0 0 1-.33.7l-.06.12a4.23 4.23 0 0 1-.62.78l-.06.07-.11.09-.3.24-.23.16a3.3 3.3 0 0 1-.34.18l-.16.09h-.06a3.92 3.92 0 0 1-.85.23h-.19a4.86 4.86 0 0 1-.94 0h-.05l-.41-.06h-.31l-.45-.13-.31-.09c-.17-.06-.34-.13-.52-.21l-.27-.11a7.82 7.82 0 0 1-.81-.42 11.64 11.64 0 0 1-1.08-.72l-.26-.19c-.35-.27-.69-.55-1-.86l-.05-.05c-.31-.3-.62-.62-.92-.95l-.22-.25c-.3-.35-.6-.72-.88-1.09l-.05-.08c-.28-.39-.55-.8-.81-1.22l-.15-.24q-.38-.65-.72-1.33l-.06-.11-.12-.28-.26-.58-.18-.44c-.08-.19-.15-.39-.22-.58s-.06-.16-.09-.24v-.14c-.16-.49-.29-1-.4-1.47v-.08-.19c-.07-.35-.13-.7-.17-1v-.2-.11c0-.38-.06-.75-.06-1.12z"/>
            <path class="cls-41" d="M103.79 730.66l17.63-10.25c-1.85-1.06-4.25-1.75-6.23-.61l-17.64 10.26c1.67-.6 4.4-.06 6.24.6z"/>
            <path class="cls-40" d="M110.42 738L128 727.77a19.88 19.88 0 0 0-4.73-6h-.06a13 13 0 0 0-1.84-1.3l-17.63 10.25a28.21 28.21 0 0 1 6.68 7.28z"/>
            <path class="cls-38" d="M103.79 730.66c-4.83-2.79-8.78-.54-8.8 5a18.77 18.77 0 0 0 4 10.85l.49-.6.47-.58a15 15 0 0 1-3.22-8.65c0-4.43 3.15-6.22 7-4a14.54 14.54 0 0 1 5.29 5.85l1.35-.55a18.31 18.31 0 0 0-6.58-7.32z"/>
            <path class="cls-37" d="M60 768.57a15.62 15.62 0 0 1-3.11-7.22c-.3-2.23 0-4.79 1.93-5.91l-17.76 10.2a4.74 4.74 0 0 0-2 3.65 13.52 13.52 0 0 0 1 6.12 9.49 9.49 0 0 0 2.3 3.4A165.92 165.92 0 0 0 60 768.57z"/>
            <path class="cls-37" d="M42.39 778.81l-.96 1.18 17.63-10.24.96-1.18-17.63 10.24z"/>
            <path class="cls-38" d="M56.24 764.25a9.93 9.93 0 0 1 4.54 7.81c0 2.86-2.07 4-4.57 2.59a9.93 9.93 0 0 1-4.54-7.81c0-2.84 2.05-4.03 4.57-2.59z"/>
            <path class="cls-39" d="M52 759l6-3.51c2.68-1.56 6.06.52 8.17 2.54a17.46 17.46 0 0 1 3.66 5.13 15.22 15.22 0 0 1 1.62 6.47 6.86 6.86 0 0 1-1 3.74 4 4 0 0 1-1.35 1.3l-6 3.51c1.12-2.22.66-9.28-1.26-12.64-1.52-2.81-7.48-6.54-9.84-6.54z"/>
            <path class="cls-40" d="M55.44 764.11h-.11a3.53 3.53 0 0 0-.67-.15h-.26a2.55 2.55 0 0 0-.46 0h-.18a2.15 2.15 0 0 0-.56.2h-.05a2.13 2.13 0 0 0-.45.36l-.06.06a2.48 2.48 0 0 0-.35.54l-.05.11a3.53 3.53 0 0 0-.22.68v.14a4.7 4.7 0 0 0-.08.86 6.61 6.61 0 0 0 .07.92v.28c0 .09.1.45.16.67s.06.25.1.37.12.32.18.49.17.44.27.66.21.43.33.65l.15.27c.18.31.38.61.59.9l.07.09c.19.25.38.48.59.71l.22.23c.17.18.35.34.53.5l.22.19a6.94 6.94 0 0 0 .79.55 4.84 4.84 0 0 0 .88.4c.1 0 .19 0 .29.06a3.69 3.69 0 0 0 .53.11 2.49 2.49 0 0 0 .67 0l.19-.05a2.09 2.09 0 0 0 .39-.14 2.22 2.22 0 0 0 .36-.23 2.07 2.07 0 0 0 .24-.19 2.22 2.22 0 0 0 .16-.2 2.46 2.46 0 0 0 .24-.37l.09-.19a3.31 3.31 0 0 0 .21-.65 4.85 4.85 0 0 0 .09-.94 6.5 6.5 0 0 0-.08-1v-.16a8.49 8.49 0 0 0-.22-.94v-.15a9.43 9.43 0 0 0-.36-1v-.08c-.13-.3-.28-.59-.44-.88l-.09-.16q-.26-.44-.56-.85c-.1-.13-.2-.25-.3-.38s-.26-.33-.4-.48-.37-.37-.56-.54-.19-.19-.28-.27a6.82 6.82 0 0 0-.91-.64 5.18 5.18 0 0 0-.8-.37zm-5.7 0c0-.33 0-.64.05-.94a.7.7 0 0 0 0-.09v-.23c0-.08.06-.38.1-.57s0-.09 0-.13 0-.13.06-.19.09-.31.14-.46v-.16l.07-.14c.06-.14.12-.27.19-.4s0-.12.08-.17l.06-.09a4.31 4.31 0 0 1 .25-.36c0-.05.07-.11.11-.16v-.05a3.91 3.91 0 0 1 .37-.37l.1-.1a3.74 3.74 0 0 1 .57-.39h.12a3.7 3.7 0 0 1 .53-.22h.22a4.2 4.2 0 0 1 .7-.12h.1a5.24 5.24 0 0 1 1 .06H55.14l.5.12.31.09c.19.06.39.14.59.22l.21.08c.28.13.57.27.86.44s.57.35.84.54l.27.21.54.42.31.27.48.43.32.32.43.45.13.13.09.12q.58.65 1.1 1.37l.06.07.12.19q.29.43.57.87l.12.19.06.12c.18.3.34.6.5.91l.07.13q.26.52.49 1l.11.28c.1.24.19.47.28.71v.11c0 .1.06.21.1.31s.13.41.19.61v.15c0 .1 0 .19.07.29s.1.39.14.58v.45c0 .09.07.38.09.57s0 .15 0 .23v2.2a7.88 7.88 0 0 1-.1.8v.12a6.4 6.4 0 0 1-.24.88v.08l.25.11a5.41 5.41 0 0 1-.33.71l-.06.12a4.22 4.22 0 0 1-.62.78l-.06.07-.11.09a3.57 3.57 0 0 1-.3.24l-.23.16a3.3 3.3 0 0 1-.34.18l-.16.09h-.06a4 4 0 0 1-.85.23h-.19a4.86 4.86 0 0 1-.94 0h-.05l-.41-.06h-.31l-.45-.13-.31-.09c-.17-.06-.34-.13-.52-.21l-.27-.11a7.82 7.82 0 0 1-.81-.42 11.77 11.77 0 0 1-1.12-.65l-.26-.19c-.35-.27-.69-.55-1-.86l-.05-.05c-.31-.3-.62-.62-.92-.95l-.22-.25c-.3-.35-.6-.72-.88-1.1l-.05-.08c-.28-.4-.55-.8-.81-1.22l-.15-.24c-.26-.43-.5-.88-.72-1.33l-.06-.11-.12-.28c-.09-.19-.18-.38-.26-.58l-.18-.44c-.08-.19-.15-.39-.22-.58s-.06-.16-.09-.24v-.14c-.16-.49-.29-1-.4-1.47v-.08-.19c-.07-.35-.13-.69-.17-1v-.2-.11c0-.38-.06-.75-.06-1.11z"/>
            <path class="cls-38" d="M46.29 770.08a9.93 9.93 0 0 1 4.54 7.81c0 2.86-2.07 4-4.57 2.59a9.93 9.93 0 0 1-4.54-7.81c0-2.87 2.05-4.03 4.57-2.59z"/>
            <path class="cls-39" d="M42.08 764.88l6-3.51c2.68-1.56 6.06.52 8.17 2.54A17.45 17.45 0 0 1 60 769a15.23 15.23 0 0 1 1.62 6.47 6.86 6.86 0 0 1-1 3.74 4 4 0 0 1-1.35 1.3l-6 3.51c1.12-2.22.66-9.28-1.26-12.64-1.64-2.81-7.6-6.57-9.93-6.5z"/>
            <path class="cls-40" d="M45.49 769.94h-.11a3.61 3.61 0 0 0-.67-.15h-.26a2.55 2.55 0 0 0-.46 0h-.18a2.15 2.15 0 0 0-.56.2h-.05a2.11 2.11 0 0 0-.45.36l-.06.06a2.46 2.46 0 0 0-.35.54l-.05.11a3.5 3.5 0 0 0-.22.68v.14a4.71 4.71 0 0 0-.08.87 6.61 6.61 0 0 0 .07.92v.28c0 .09.1.45.16.67s.06.25.1.37.12.32.18.49.17.44.27.66.21.43.33.65l.15.27c.18.31.38.61.59.9l.07.09c.19.25.38.48.59.71l.22.22c.17.18.35.34.53.5l.22.19a6.78 6.78 0 0 0 .79.55 4.84 4.84 0 0 0 .88.4c.1 0 .19 0 .29.06a3.61 3.61 0 0 0 .53.11 2.49 2.49 0 0 0 .67 0l.19-.05a2.12 2.12 0 0 0 .38-.14 2.24 2.24 0 0 0 .36-.23 2.06 2.06 0 0 0 .24-.19 2.27 2.27 0 0 0 .2-.18 2.54 2.54 0 0 0 .24-.37l.09-.19a3.3 3.3 0 0 0 .21-.65 4.79 4.79 0 0 0 .09-.94 6.5 6.5 0 0 0-.08-1v-.16a8.47 8.47 0 0 0-.22-.94v-.15a9.26 9.26 0 0 0-.36-1v-.08c-.13-.3-.28-.59-.44-.88l-.09-.16c-.17-.29-.36-.58-.56-.85s-.2-.25-.3-.38-.26-.33-.4-.48a7.72 7.72 0 0 0-.56-.54c-.09-.09-.19-.19-.28-.27a6.81 6.81 0 0 0-.91-.64 5.09 5.09 0 0 0-.8-.37zm-5.7 0c0-.33 0-.64.05-.94a.68.68 0 0 0 0-.09v-.23c0-.08.06-.38.1-.57s0-.09 0-.13 0-.13.06-.19.09-.31.14-.46v-.16l.07-.14c.06-.14.12-.27.19-.4s0-.12.08-.17l.06-.09a4.33 4.33 0 0 1 .25-.36c0-.05.07-.11.11-.16v-.05a3.91 3.91 0 0 1 .37-.37l.1-.1a3.76 3.76 0 0 1 .57-.39h.12a3.7 3.7 0 0 1 .53-.22h.22a4.07 4.07 0 0 1 .7-.12h.1a5.28 5.28 0 0 1 1 .06h.53l.5.12.31.09c.19.06.39.14.59.22l.21.08c.28.13.57.27.86.44s.57.35.84.54l.27.21.54.42.31.27.48.43.32.32.43.45.13.13.09.12q.58.65 1.1 1.37l.06.07.12.19q.29.43.57.87l.12.19.06.12c.18.3.34.6.5.91l.07.13q.26.52.49 1l.11.28c.1.24.19.47.28.71v.11c0 .1.06.21.1.31s.13.41.19.61v.15c0 .1 0 .19.07.29s.1.39.14.58v.45c0 .09.07.38.09.57s0 .15 0 .23v2.19a7.91 7.91 0 0 1-.1.8v.12a6.51 6.51 0 0 1-.24.88v.08l-.06.13a5.35 5.35 0 0 1-.33.7l-.06.12a4.22 4.22 0 0 1-.62.78l-.06.07-.11.09-.3.24-.23.16a3.3 3.3 0 0 1-.34.18l-.16.09h-.06a3.92 3.92 0 0 1-.85.23h-.19a4.86 4.86 0 0 1-.94 0h-.05l-.41-.06h-.31l-.45-.13-.31-.09c-.17-.06-.34-.13-.52-.21l-.27-.11a7.82 7.82 0 0 1-.81-.42 11.53 11.53 0 0 1-1.08-.72l-.26-.19c-.35-.27-.69-.55-1-.86l-.05-.05c-.31-.3-.62-.62-.92-1l-.22-.25c-.3-.35-.6-.72-.88-1.09l-.05-.08c-.28-.39-.55-.8-.81-1.22l-.15-.24c-.26-.43-.5-.88-.72-1.33l-.06-.11-.12-.28-.26-.58-.18-.44c-.08-.19-.15-.39-.22-.58l-.09-.24v-.14c-.16-.49-.29-1-.4-1.47v-.08-.19c-.07-.35-.13-.7-.17-1v-.2-.11c0-.38-.06-.75-.06-1.12z"/>
            <path class="cls-41" d="M46.18 764.12l17.63-10.25c-1.85-1.06-4.25-1.75-6.23-.61l-17.63 10.26c1.66-.6 4.39-.08 6.23.6z"/>
            <path class="cls-40" d="M52.82 771.47l17.63-10.24a19.87 19.87 0 0 0-4.73-6h-.06a13 13 0 0 0-1.84-1.3l-17.64 10.19a28.2 28.2 0 0 1 6.64 7.35z"/>
            <path class="cls-38" d="M46.18 764.12c-4.83-2.79-8.78-.54-8.8 5a18.77 18.77 0 0 0 4 10.85l.49-.6.47-.58a15 15 0 0 1-3.22-8.65c0-4.43 3.15-6.22 7-4a14.54 14.54 0 0 1 5.34 5.86l1.35-.55a18.31 18.31 0 0 0-6.63-7.33z"/>
            <path class="cls-42" d="M133.05 717.84a6.65 6.65 0 0 0 .63-2.55q.14-53.48.3-107a4.66 4.66 0 0 0 0-.95 16.86 16.86 0 0 0-.7-3.79 22 22 0 0 0-4.88-8.42c-3.35-3.52-10.6-7-14.57-9.26l-.09-.05a12.56 12.56 0 0 0-1.93-.85 8.62 8.62 0 0 0-1.78-.41c-8.19-1-27.14 9.28-35.23 13.68-10.2 5.63-20.69 11.69-30.3 18.16a138.32 138.32 0 0 0-14.4 10.85 26.8 26.8 0 0 0-4.76 5.29c-.44.7-1.41 2.33-1.33 6l-.34 118.55c0 9.65 8.74 16.93 16.16 20.37a17.54 17.54 0 0 1-2.4-8.34c0-2.78 1-4.73 2.59-5.63 4.78-2.72 6.36-3.8 12.19-.71.18.1 4.12 2.78 12-.41 7.44-1.84 17.59-6.17 28.29-12.4l9-5.24q3.34-1.94 6.46-4c7.04-4.5 21.6-14.89 25.09-22.89z"/>
            <path class="cls-43" d="M131.81 611.11l-.31 109.44a16.51 16.51 0 0 0 1.55-2.71l.31-108.33a15.2 15.2 0 0 1-1.55 1.6zM133.84 631.3zm.14-23V715.31a6.65 6.65 0 0 1-.63 2.55l.31-108.33a2.63 2.63 0 0 0 .34-1.2zM52.56 655.06l-.3 106.16a3.07 3.07 0 0 0 1.74 1.62l.31-107.77a3.18 3.18 0 0 1-1.75-.01z"/>
            <path class="cls-43" d="M54.32 655.08L54 762.84a7.41 7.41 0 0 0 2.29.49l.31-108.88a19.29 19.29 0 0 1-2.28.63z"/>
            <path class="cls-42" d="M52.27 759.59c.08-30.18.19-67.35.3-104.52 0-5.61-3.94-12.46-8.83-15.28l-10.9-6.29c-4.84-2.83-8.84-.56-8.84 5.05l-.34 118.55c0 9.65 8.74 16.93 16.16 20.37a17.54 17.54 0 0 1-2.4-8.34c0-2.78 1-4.74 2.61-5.64l3-1.62c2.39-1.3 5.71-.93 9.19.92.19.1 4.15 2.8 12-.44-7.82 2.27-11.96-.23-11.95-2.76z"/>
            <path class="cls-44" d="M134 607.39a16.86 16.86 0 0 0-.7-3.79 22 22 0 0 0-4.88-8.42 40.69 40.69 0 0 0-7.32-5.32c-2.31-1.34-4.94-2.61-7.25-3.94-.37-.27-1.3-.06-1.72 0-13.71 2.7-63.87 32.29-76.89 44.53l-.76.73c-.38.4-1.55 1.57-1.55 2.27l10.9 6.29c5 2.91 8.85 9.88 8.83 15.28.83.47 3.58-.44 4.62-.8 15.56-5.33 62.25-32 74.35-42.91a16.48 16.48 0 0 0 1.89-1.9 3.74 3.74 0 0 0 .44-.74 1.21 1.21 0 0 0 .11-.36 4.42 4.42 0 0 0-.07-.92z"/>
            <path class="cls-43" d="M111.77 585a8.62 8.62 0 0 0-1.78-.41c-8.19-1-27.14 9.28-35.23 13.68-10.2 5.63-20.69 11.69-30.3 18.16a138.35 138.35 0 0 0-14.4 10.85 26.86 26.86 0 0 0-4.76 5.29c-.44.7-1.41 2.33-1.33 6 0-5.55 4-7.88 8.88-5.06 0-.61 1-1.71 1.39-2.09 3.6-3.73 13.87-11 26.76-18.84 5.6-3.42 11.3-6.68 17-10a285.44 285.44 0 0 1 26.83-14s7.72-3.28 9-2.63a12.4 12.4 0 0 0-2.06-.95z"/>
            <path class="cls-45" d="M90.38 593.14l-38.3 22.42 4.61 2.71 39.41-22.8-5.72-2.33z"/>
            <path class="cls-46" d="M90.38 593.14l-2.4 1.45-3.15 7.38 11.27-6.5-5.72-2.33z"/>
            <path class="cls-47" d="M88.24 564.34v.76l.42 34.65 3.23-1.86.39-2.55-.2-29c0-5.9-2.87-6.46-7.45-6 2.76.37 3.51 2.06 3.61 4z"/>
            <path class="cls-48" d="M86.36 554.57A9.42 9.42 0 0 0 80 556l1.64 1.35 1.7.59c1.85-1.07 6.63-.77 8.78-.39a12.89 12.89 0 0 0-5.76-2.98z"/>
            <path class="cls-47" d="M56.96 586.22l-3.84-1.44.2 31.52h-.01l3.34 1.95.42-2.39-.11-29.64z"/>
            <path class="cls-48" d="M61.6 573.53a23.4 23.4 0 0 1 6.6-6.53l-1.12-1.13-2.51-.94c-6.33 3.66-11.46 12.56-11.44 19.84l3.33 1.94a33.44 33.44 0 0 1 5.14-13.18z"/>
            <path class="cls-49" d="M64.56 564.93l3.35 1.94 6.59-3.4 8.82-5.49-3.35-1.95-15.4 8.89-.01.01z"/>
            <path class="cls-50" d="M94.85 564.55c0-7.28-5.19-10.23-11.53-6.57l-15.41 8.9c-6.33 3.66-11.47 12.57-11.45 19.84l.2 31.53 3.13-1.81-.2-31.53c0-5.29 3.72-11.77 8.33-14.43l15.41-8.9c4.61-2.66 8.38-.52 8.39 4.77l.2 31.53 3.08-1.8z"/>
            <path class="cls-26" d="M206.58 763.6c22.07 12.83 26 31.57 8.65 41.63s-49.54 7.81-71.61-5-26-31.57-8.65-41.63 49.54-7.83 71.61 5z"/>
            <path class="cls-51" d="M198.73 795.77c-4.78 4.79-10.58 6.75-13 4.38s-.42-8.17 4.37-13 10.58-6.75 13-4.38c1.43 1.43 1.33 5.18 1.33 6.62-.8 1.52-3.8 4.48-5.7 6.38z"/>
            <path class="cls-30" d="M198.69 790.79c-3.13 3-6.87 4.15-8.35 2.6s-.14-5.22 3-8.21 6.87-4.15 8.35-2.6.13 5.23-3 8.21z"/>
            <path class="cls-51" d="M155.89 771.25c-4.59 4.6-10.16 6.48-12.44 4.2s-.4-7.85 4.19-12.45 10.16-6.48 12.44-4.21c1.38 1.37 1.28 5 1.28 6.35-.77 1.44-3.65 4.28-5.47 6.11z"/>
            <path class="cls-30" d="M155.85 766.47c-3 2.87-6.6 4-8 2.5s-.13-5 2.87-7.89 6.6-4 8-2.49.14 5.01-2.87 7.88z"/>
            <path class="cls-32" d="M204.44 706.1s17.25-69.22 23.24-112.86l-104.92-18.66c-.44 21.22 5.21 63.79 7.6 93.06 3.6 44.09 18.78 95 18.78 95 .33 1.6 2.11 2.82 5.66 2.82 4 0 6.7-1.33 6.7-3.2l-1.59-70.76 7.72-60.19s3.74 44.86 6.52 68.81 16.94 85.58 16.94 85.58c0 2.51 1.83 4.55 6.11 4.55s7.19-1.85 7.21-4.34z"/>
            <path class="cls-4" d="M121.17 446.32c-8.06 17.1-11.7 44.54-13 68.37l23.39 2.48 22.36-57.64"/>
            <path class="cls-30" d="M126.34 565s.84 8.53 1.42 10.95c.37 1.54.6 2.59.88 3.71.4 1.55.5 2.31 0 2.68s-1.4.49-2.29-2.65a13.7 13.7 0 0 0 2.89 5.75c1.68 1.8 4.13 3.64 3.48 4.59s-2.45 0-2.45 0-.21 1.55-2.44.33c0 0-.26 1.25-2.52-.33 0 0-.89 1-3-1s-9.48-10.07-9.63-25z"/>
            <path class="cls-4" d="M108.17 514.22c-2.33 41.67 4.15 54.46 4.15 54.46l14.13.38 5.07-51.89"/>
            <circle class="cls-4" cx="119.94" cy="514.91" r="11.77"/>
            <circle class="cls-4" cx="137.04" cy="454.14" r="17.69"/>
            <path class="cls-4" d="M131.13 598.31c9.68 8.93 34.82 23.73 55.46 28.14a44.82 44.82 0 0 0 15 .91c26.7-3.74 31.6-19.07 31.6-38.54l-.08-100c-.12-37-28.07-51.93-28.07-51.93-15.48-8.73-45.09-15.52-64.34-8.12-25.3 9.73-25.29 39.69-25.3 39.63s-2.23 17 4.77 37.53c.03-.02-15.66 67.83 10.96 92.38z"/>
            <path class="cls-26" d="M228 463.53a18.57 18.57 0 0 0-14.85-4.11c-11.44 1.43-8.86 14.81-8.86 14.81s11.72 105.71-14 126.46c-18.17 14.63-42.21 7-54.79 1.26 11.59 8.87 33.05 20.65 51.09 24.51a44.82 44.82 0 0 0 15 .91c26.7-3.74 31.6-19.07 31.6-38.54l-.08-100a63.49 63.49 0 0 0-5.11-25.3z"/>
            <path class="cls-30" d="M164.15 379.46c-6.5-.26-14.12 1.35-17.89 7.61-2.42 4-2.24 11.37-2.46 16.82-.39 9.84 3.53 20.16 9.64 25.51v2.6c.07 2.11 1.48 4.2 4.27 5.81 5.67 3.27 14.83 3.27 20.46 0 2.72-1.58 4.11-3.63 4.19-5.7V414c0-.31 2.41-9.69 2.42-10 .62-14-9.95-24.11-20.63-24.54z"/>
            <path class="cls-52" d="M162 433.12a13.85 13.85 0 0 1-8.56-3.71V432c.07 2.11 1.48 4.2 4.27 5.81 5.67 3.27 14.83 3.27 20.46 0 2.72-1.58 4.11-3.63 4.19-5.7v-25.75c-.85 13.64-9.92 27.18-20.36 26.76z"/>
            <path class="cls-34" d="M182.42 406.81l-1.81 9.19 1.82 5.76c1.61-1.72 2.35-5.71 3.9-9 4.84-10.42 3.69-18.42 2.94-26.55-.31-3.39-1.35-17.19-11.55-18 0 0-5.38-5.52-20.44.29-8.72 3.36-13.76-.27-13.76-.27s-.73 3.47.65 6c0 0-8.17 7.1-.25 26.7.14-4.9 0-8.73 2-12 1.41-2.35 4.88-2.92 7.38-3.25a13.91 13.91 0 0 1 4.37.94s3.89-1.17 5.47-1c11.08.87 10.93 5.42 10.93 5.42l.48 5.13v17.56s-.51 9-9 10.33c-3.53.54-7-3.1-7-3.1h-2.59s-2.16 3.36-4.2 2.33a12.4 12.4 0 0 1-6.64-8.37c.47 2.39 3.78 17.15 14.49 18.43 13.13 1.56 18.13-6.5 18.13-15.62v-16.31a2.66 2.66 0 0 1 2.94-3.16c3.32 0 2.56 4.74 1.74 8.55z"/>
            <path class="cls-53" d="M145 414.75z"/>
            <path class="cls-34" d="M161.48 413.11h-8.71s-2.47 2.25-2.47 4.46h13.65c0-2.21-2.47-4.46-2.47-4.46z"/>
            <path class="cls-30" d="M216.73 611s-.68 8.55-1.22 11c-.34 1.54-.55 2.6-.82 3.73-.37 1.55-.45 2.32.07 2.68s1.41.46 2.24-2.69a13.71 13.71 0 0 1-2.79 5.8c-1.64 1.83-4.06 3.71-3.39 4.65s2.45 0 2.45 0 .24 1.54 2.44.29c0 0 .29 1.24 2.51-.37 0 0 .91 1 2.94-1.09s9.3-10.24 9.18-25.21z"/>
            <path class="cls-4" d="M213.28 551.5l2.34 69.21 13.55-.42s10.35-27.23 12.89-70.7"/>
            <circle class="cls-4" cx="227.62" cy="549.65" r="14.45" transform="rotate(-1.03 228.687 551.68)"/>
            <path class="cls-4" d="M191.34 478.76l22.53 75.34 28.21-4.71s.45-7 .46-14.5c0-31.6-4.49-55.36-13-72.2"/>
            <circle class="cls-4" cx="210.9" cy="471.9" r="20.73" transform="rotate(-.22 210.052 469.188)"/>
            <path class="cls-26" d="M739.06 941.1c22.38 13 26.32 32 8.77 42.21s-50.22 7.91-72.6-5.1-26.32-32-8.77-42.21 50.22-7.91 72.6 5.1z"/>
            <path class="cls-8" d="M691.39 593.45s8.35 12.52 0 22c-7 8-7.22 16.57-2.9 24.41 3 5.51 2.71 11.93-1.22 15.28-4.75 4-11.26 3.3-17.86-.31 0 0 9.94-4 3.43-13.19-4.1-5.8-13.37-14.86-3.32-31.81 9-15.14 2-23.42 1.47-32.55-1.26-19.78 14.63-44.52 29.89-38.31 0 0-9.17 10-11.68 21s-5.35 22.61 2.19 33.48z"/>
            <path class="cls-31" d="M735.66 973.71c-4.85 4.85-10.73 6.84-13.13 4.44s-.42-8.28 4.43-13.14 10.73-6.84 13.13-4.44c1.45 1.45 1.35 5.25 1.35 6.71-.81 1.5-3.85 4.51-5.78 6.43z"/>
            <ellipse class="cls-30" cx="732.91" cy="965.82" rx="7.94" ry="3.93" transform="rotate(-43.67 733.014 965.88)"/>
            <path class="cls-31" d="M692.23 948.85c-4.65 4.66-10.3 6.57-12.61 4.26s-.4-8 4.25-12.62 10.3-6.57 12.61-4.26c1.39 1.39 1.29 5 1.3 6.44-.78 1.45-3.7 4.33-5.55 6.18z"/>
            <path class="cls-30" d="M692.2 944c-3.05 2.91-6.69 4-8.13 2.53s-.14-5.08 2.91-8 6.69-4 8.13-2.53.13 5.1-2.91 8z"/>
            <path class="cls-30" d="M740 882.81s12.32-69 18.39-113.22l-94.71-17.94c-.45 21.51-1.2 62.51 1.22 92.17 3.65 44.69 19.91 96.46 19.91 96.46.34 1.62 1.27 2.68 4.86 2.68 4 0 6-3.17 6-5.06l-.81-69.9 7.83-61s3.79 45.47 6.61 69.76S728.45 965 728.45 965c0 2.54 2.26 3.15 4.22 3.15 4.31 0 6.56-3 6.59-5.5z"/>
            <path class="cls-2" d="M717.47 858.82a35.63 35.63 0 0 0 13.6.83c14-2 28.62-17.11 28.62-17.11v-17.8c0-18.88-.07-90.59-.07-90.59-.48-4.93-1.08-9.59-1.87-14-2.69-13.22-7.73-21.09-18.73-29.86a37 37 0 0 0-4.81-3.18c-14-7.91-40.84-14.06-58.27-7.35C653 688.58 653 715.7 653 715.65v103A233.58 233.58 0 0 0 681.12 840c14.69 9.5 32.88 17.9 36.35 18.82z"/>
            <path class="cls-4" d="M652.47 619.46c-8.17 17.33-11.86 45.16-13.21 69.3l23.74 2.52 22.67-58.43"/>
            <path class="cls-30" d="M657.71 739.78s.85 8.65 1.44 11.1c.37 1.56.6 2.63.9 3.76.4 1.57.5 2.34 0 2.72s-1.42.49-2.32-2.69a13.89 13.89 0 0 0 2.93 5.83c1.7 1.83 4.19 3.69 3.52 4.66s-2.48 0-2.48 0-.22 1.57-2.47.33c0 0-.27 1.27-2.55-.33 0 0-.9 1.05-3-1.05s-9.61-10.21-9.76-25.38z"/>
            <path class="cls-4" d="M639.3 688.29c-2.36 42.24 4.21 55.21 4.21 55.21l14.33.39 5.16-52.61"/>
            <circle class="cls-4" cx="651.23" cy="688.99" r="11.93"/>
            <circle class="cls-4" cx="668.56" cy="627.38" r="17.93"/>
            <path class="cls-4" d="M763.88 646.86c3.51 24.6 2.18 117.06 2.18 117.06 0 19.73-5 35.28-32 39.07a45.44 45.44 0 0 1-15.23-.92c-20.93-4.47-46.32-19.58-56.22-28.53-16.6-15-15.91-29.17-15.91-41.52v-90.2c0 .06 0-30.3 25.64-40.17 19.51-7.51 49.53-.62 65.22 8.23-.03 0 22.67 11.35 26.32 36.98z"/>
            <path class="cls-33" d="M761.93 638.6a14.4 14.4 0 0 0-10.56-4.88c-15.66 0-14.59 17.73-14.59 17.73V751c0 38.28-8.68 48.9-14.33 51.76A41.37 41.37 0 0 0 734 803c27.07-3.79 32-19.34 32-39.07 0 0 1.33-92.47-2.18-117.06a46.82 46.82 0 0 0-1.89-8.27z"/>
            <path class="cls-8" d="M719.83 691.27l-18.08-10.52v-5.9l18.08 10.51v5.91z"/>
            <path class="cls-4" d="M723.61 652.34l22.83 76.37 28.6-4.77s.45-7.09.46-14.7c0-32-4.55-56.12-13.21-73.19"/>
            <circle class="cls-4" cx="743.44" cy="645.39" r="21.02" transform="rotate(-.22 738.406 642.09)"/>
            <path class="cls-30" d="M749.35 786.39s-.69 8.66-1.24 11.12c-.35 1.56-.56 2.64-.83 3.78-.37 1.58-.46 2.35.07 2.72s1.43.47 2.27-2.73a13.88 13.88 0 0 1-2.83 5.88c-1.66 1.86-4.12 3.76-3.44 4.72s2.49 0 2.49 0 .24 1.56 2.47.29c0 0 .29 1.26 2.55-.38 0 0 .92 1 3-1.11s9.43-10.38 9.3-25.55z"/>
            <path class="cls-4" d="M745.86 726.08l2.37 70.17 13.74-.43s10.49-27.6 13.07-71.67"/>
            <circle class="cls-4" cx="760.39" cy="724.2" r="14.65" transform="rotate(-1.03 760.074 723.902)"/>
            <path class="cls-30" d="M695.86 551.66c-6.59-.26-14.32 1.36-18.13 7.72-2.45 4.09-2.27 11.53-2.49 17-.4 10 3.58 20.43 9.77 25.86v2.61c.07 2.13 1.5 4.26 4.32 5.89 5.75 3.32 15 3.32 20.75 0 2.76-1.6 4.16-3.68 4.25-5.78v-26.1c0-.31 0-.62.06-.93.61-14.05-7.71-25.84-18.53-26.27z"/>
            <path class="cls-54" d="M693.68 606.06a14 14 0 0 1-8.68-3.77v2.61c.07 2.13 1.5 4.26 4.32 5.89 5.75 3.32 15 3.32 20.75 0 2.76-1.6 4.16-3.68 4.25-5.78v-26.1c-.87 13.83-10.06 27.57-20.64 27.15z"/>
            <path class="cls-8" d="M730.94 641.68c4.1-5.8 13.37-14.86 3.32-31.81-9-15.14-2-23.42-1.47-32.55 1-15.74-8.86-34.61-20.62-38.53a9.94 9.94 0 0 0-2.76-.63 12.74 12.74 0 0 0-5.14.39c-9.07-7.14-23.27 2.93-34.19 16-8.17 9.76-5.37 19.71.57 23.72a8.44 8.44 0 0 0 4.62 1.46c-.06-1.1-.07-2.19 0-3.28.09-2.26.12-4.84.28-7.38 9-.51 14.34-4.43 14.34-4.43a12.44 12.44 0 0 1-1.37 2.32 7.58 7.58 0 0 1-2.84 2 28.37 28.37 0 0 0 11-1.92 21.72 21.72 0 0 0 9.23-6.34l1.4 17.62a3.59 3.59 0 0 1 7.11.71v11.07a27.87 27.87 0 0 1-2 3.35s-8.35 12.52 0 22c7 8 7.22 16.57 2.9 24.41-3 5.51-2.72 11.93 1.22 15.28 4.75 4 11.26 3.3 17.86-.31-.03.04-9.97-3.94-3.46-13.15z"/>
            <path class="cls-26" d="M593.18 995.14c21.17 12.31 24.9 30.27 8.29 39.93s-47.51 7.49-68.68-4.82-24.9-30.27-8.29-39.93 47.5-7.49 68.68 4.82z"/>
            <path class="cls-55" d="M511 702.11c-7.73 16.39-11.22 42.72-12.49 65.56l22.49 2.38 21.45-55.28"/>
            <path class="cls-30" d="M516 815.93s.8 8.18 1.36 10.5c.35 1.48.57 2.49.85 3.56.38 1.48.48 2.22 0 2.58s-1.38.43-2.21-2.57a13.14 13.14 0 0 0 2.77 5.51c1.61 1.73 4 3.49 3.33 4.41s-2.35 0-2.35 0-.21 1.48-2.34.31c0 0-.25 1.2-2.42-.31 0 0-.85 1-2.84-1s-9.09-9.66-9.24-24z"/>
            <path class="cls-55" d="M498.56 767.22c-2.23 40 4 52.23 4 52.23l13.55.37 4.89-49.77"/>
            <circle class="cls-55" cx="509.84" cy="767.88" r="11.28"/>
            <circle class="cls-55" cx="526.24" cy="709.61" r="16.96"/>
            <path class="cls-31" d="M582.65 1017.12c4.6-4.61 10.18-6.51 12.46-4.23s.38 7.85-4.22 12.46c-1.89 1.89-4.37 4.32-6.29 5.19a5.12 5.12 0 0 1-6.17-1c-1.37-1.37-1.27-7-1.26-8.35.76-1.38 3.65-2.24 5.48-4.07z"/>
            <path class="cls-30" d="M582.66 1017c3-2.86 6.59-4 8-2.49s.13 5-2.86 7.87"/>
            <path class="cls-31" d="M544.41 995.18c4.6-4.61 10.18-6.51 12.46-4.23s.38 7.85-4.22 12.46c-1.89 1.89-4.37 4.32-6.29 5.19a5.12 5.12 0 0 1-6.17-1c-1.37-1.37-1.27-7-1.26-8.35.76-1.38 3.65-2.25 5.48-4.07z"/>
            <path class="cls-30" d="M544.5 994.68c3-2.86 6.59-4 8-2.49s.14 5-2.86 7.87a12.46 12.46 0 0 1-5.7 3.44"/>
            <path class="cls-30" d="M610.42 805.87l-94.72 3.23 18.55 117.46 5.11 72.21c.08 2.46 1.73 6 5.44 4.45 5.41-2.27 5.31-4.44 5.73-6.36 0 0 6.69-44.07 10-73.26a424.06 424.06 0 0 0 2.34-46.16L573.15 941l4.26 78.84v.25c0 2.45 1.35 5.79 5.66 4.72 5.28-1.31 5.87-3.65 6-6 .54-2.68 12.11-58.83 15-82.81 2.93-24.52 10.03-122.44 6.35-130.13z"/>
            <path class="cls-32" d="M577.41 927.88a31.32 31.32 0 0 0 12 .73c12.28-1.72 25.17-15 25.17-15v-15.7c0-16.6-.06-79.66-.06-79.66-.42-4.33-.95-8.43-1.65-12.31-2.37-11.62-6.8-18.54-16.47-26.26a32.34 32.34 0 0 0-4.23-2.79c-12.33-7-35.91-12.36-51.24-6.46-20.15 7.75-20.14 31.6-20.15 31.56v90.54a205.25 205.25 0 0 0 24.71 18.85c12.87 8.31 28.86 15.69 31.92 16.5z"/>
            <path class="cls-4" d="M618 724.61c3.32 23.27 2.06 110.74 2.06 110.74 0 18.67-4.7 33.37-30.31 37a43 43 0 0 1-14.41-.87c-19.8-4.23-43.81-18.52-53.19-27-15.7-14.19-15.05-27.6-15.05-39.27v-85.37c0 .06 0-28.66 24.26-38 18.45-7.1 46.85-.59 61.7 7.78 0 .01 21.47 10.74 24.94 34.99z"/>
            <path class="cls-26" d="M616.14 716.8a13.62 13.62 0 0 0-10-4.62c-14.81 0-13.8 16.78-13.8 16.78v94.14c0 36.21-8.21 46.26-13.56 49a39.13 39.13 0 0 0 11 .25c25.6-3.59 30.31-18.29 30.31-37 0 0 1.26-87.47-2.06-110.74a44.32 44.32 0 0 0-1.89-7.81z"/>
            <path class="cls-4" d="M577.5 725.64l14.38 74.43 27.09-5s-.17-5.67-.33-12.87c-.7-30.62 2-52.75-3.53-68.69-2.63-7.6-41.76-4.34-37.61 12.16"/>
            <path class="cls-30" d="M610.08 856.38s5.36 14.5 5.27 17.49c-.08 2.49-.65 4 .83 4.72 2 1 2.76-.5 2.76-.5a2.22 2.22 0 0 0 3.4-1s1.95 1.29 2.87-1.84c0 0 2.09 1.72 2.65-4.18.66-7-4.8-17.81-4.85-17.94z"/>
            <path class="cls-30" d="M616.53 878.74a4.8 4.8 0 0 1-2.73-3.08c-.79-2.43.5-4.66 2.79-4.61.01-.05 4.41 8.43-.06 7.69z"/>
            <path class="cls-4" d="M618.93 794.73l6.18 65.09L612 866s-13.29-32.37-20.46-67.26"/>
            <circle class="cls-4" cx="605.13" cy="796.06" r="13.86" transform="rotate(-29.16 605.028 795.977)"/>
            <circle class="cls-4" cx="597.12" cy="722.11" r="20" transform="rotate(-.22 589.823 712.123)"/>
            <path class="cls-30" d="M582.15 660.9c.14-14-8.46-25.48-19.21-25.59-6.55-.07-14.17 1.78-17.77 8.19-2.31 4.13-1.91 11.5-2 17a30.24 30.24 0 0 0 4.39 16.36v5.94c.06 1.93 1.36 3.85 3.91 5.33 5.2 3 13.6 3 18.77 0 2.49-1.45 3.77-3.33 3.85-5.23v-1.82c4.84-4.54 7.97-11.88 8.06-20.18z"/>
            <path class="cls-35" d="M562.94 635.32c10.75.11 19.35 11.57 19.21 25.59-.09 8.52-3.38 16-8.37 20.58 0 0 3.92-35.92-10.84-46.17z"/>
            <path class="cls-34" d="M575.85 680.17c7.39 0 8.46-5.86 8.46-5.86-4.15 1.54-7.88-3.35-7.84-7.21.09-7.69 4-10 4-10s2.85 1.7 6.72-.91c5.62-3.79 6.89-13.9-.84-23.14-10.54-12.64-21.85-21.45-30.35-13.77 0 0-6.28-4-13.49 5s-10.93 17.95-13.48 27.4c-2.74 10.18-2.74 25.52 12 24.56 4.15 9.58 16.31 5.33 16.31 5.33s2.29 3.23 8.63 3.3c7.64.04 9.88-4.7 9.88-4.7z"/>
            <path class="cls-1" d="M616.24 1046.23l-60-34.16c-6.54-3-15.9-5.37-22.56-1.9-6.07 3.16-16.07 9.62-20.49 12.15-3.36 1.92-15 8.9-7.75 12.85 21.36 11.61 42.5 24.68 64.19 36.47 4.1 2.23 10.1 3 16.4 2.51a43.44 43.44 0 0 0 17.76-5.29l10.64-6.19c4.7-2.74 7.2-6 7.45-9s-1.63-5.61-5.64-7.44z"/>
            <path class="cls-56" d="M568.93 895.84a32.57 32.57 0 0 1 9.23 2.65l2.21.92q2.21 1 4.36 2c5.2 2.48 10.19 5.18 15.25 8.08l7.14 4.15c4.75 2.8 9.77 5.89 14.29 9 6.91 4.77 9.83 7.58 10.76 8.57a14.07 14.07 0 0 1 2.64 3.47 10.37 10.37 0 0 1 .3 7.09c-.11.4-.23.78-.37 1.17 0 0-.06.05-.14 0 1.84-5 .56-9.15-2.85-9.3l-7.6-.35c-2.43-3-12.93-11.42-19.1-15.1-16.61-9.9-40.75-22.52-45.18-22.72 2.33-.24 6.56.19 9.06.37z"/>
            <path class="cls-57" d="M622.34 869.62a1.17 1.17 0 0 0-.84-.11 3.46 3.46 0 0 0-1.92 1.39 4.44 4.44 0 0 0-.74 1.5v.2a2.06 2.06 0 0 0 .09 1.26 1 1 0 0 0 .72.57 1.9 1.9 0 0 0 1.33-.35h.07a4.41 4.41 0 0 0 1.35-1.47 3.59 3.59 0 0 0 .53-1.93 1.25 1.25 0 0 0-.59-1.06z"/>
            <path class="cls-58" d="M610.84 862.63l10.35 6.78-.57.33-1.44-.19-9.03-5.78-1.33-1.01 1.13-.26.89.13z"/>
            <path class="cls-59" d="M601.63 868.85L588 906.46l-1.92-.14L599.6 869c1-2.67 3-4.39 5.12-4.54h2c-2.15.14-4.13 1.73-5.09 4.39zM604.48 861.56l2-.14a7.14 7.14 0 0 1 4.34 1.2l-2 .14a10.75 10.75 0 0 0-4.34-1.2zM609.8 921.85l2-.14 13.51-37.33A14 14 0 0 0 626 878v-.32c-.44-3.14-2-6.49-4.77-8.29l-2 .14c2.74 1.8 4.13 5.15 4.57 8.27a13.67 13.67 0 0 1-.75 6.6z"/>
            <path class="cls-60" d="M623.31 884.52l-13 36.2-2.63-1.28 13.06-36.27a10.29 10.29 0 0 0 .36-5.47 8.85 8.85 0 0 0-2.63-4.84 7.63 7.63 0 0 0-.74-.58l-10.35-6.79a4.76 4.76 0 0 0-3.36-.81 5.22 5.22 0 0 0-2.37 1.21 7.58 7.58 0 0 0-2 3.09l-13.51 37.33-2.25-2.31L597 867.64a10.32 10.32 0 0 1 2.81-4.25 7.36 7.36 0 0 1 3.08-1.62 7.49 7.49 0 0 1 5.89 1l10.35 6.79a11.54 11.54 0 0 1 4.47 7 13.94 13.94 0 0 1-.29 7.96z"/>
            <path class="cls-61" d="M622.35 869.63l-12.34-8c-.65-.44-1.54 0-2.1.49a4.41 4.41 0 0 0-1 1.22 3.85 3.85 0 0 0-.53 1.6 1.73 1.73 0 0 0 .17 1 1 1 0 0 0 .31.35l12.34 8c-.81-1-.09-2.92 1-4a2.23 2.23 0 0 1 2.15-.66z"/>
            <path class="cls-57" d="M622.34 869.62a1.17 1.17 0 0 0-.84-.11 3.46 3.46 0 0 0-1.92 1.39 4.43 4.43 0 0 0-.74 1.5v.2a2.06 2.06 0 0 0 .09 1.26 1 1 0 0 0 .72.57h.23c-.1-.16-.21-.32-.33-.47l.92-3.43 1.8-.31q.34.3.66.64v-.2a1.25 1.25 0 0 0-.59-1.04z"/>
            <path class="cls-62" d="M599.73 1041.12l-5.59-3.25c-2.48-1.44-5.61.48-7.55 2.35a16.14 16.14 0 0 0-3.38 4.74 14.07 14.07 0 0 0-1.5 6 6.35 6.35 0 0 0 .88 3.46 3.68 3.68 0 0 0 1.25 1.21l5.59 3.25c-1-2.05-.61-8.58 1.17-11.68 1.46-2.67 6.97-6.14 9.13-6.08z"/>
            <path class="cls-63" d="M600.52 1039.75l-16.3-9.47a5.46 5.46 0 0 0-5 .21 14.52 14.52 0 0 0-5.12 4.43l-.23.31a19.33 19.33 0 0 0-2.09 3.65 15.41 15.41 0 0 0-1.36 6c0 2.49.87 4.33 2.36 5.19l16.3 9.47a7.1 7.1 0 0 1-2-5.29c0-4.12 3.13-10.15 6.38-12.7l.21-.16c1.79-1.45 5.45-2.46 6.85-1.64z"/>
            <path class="cls-64" d="M594.74 1040.29c-4.47 2.58-8.07 8.88-8.06 14 0 3.2 1.43 5.33 3.79 5.69l.87-2.1c-1.88-.29-3-2-3-4.54a14.2 14.2 0 0 1 6.44-11.15c1.88-1.09 3.67-1.18 4.91-.24l1.24-1.95c-1.57-1.16-3.83-1.07-6.19.29z"/>
            <path class="cls-65" d="M550.24 904.82v-.1a19.46 19.46 0 0 1 2.57-4.58 13.42 13.42 0 0 1 2.67-2.67 8.83 8.83 0 0 1 4.38-1.9c2.31-.34 6.55.09 9.05.27a32.57 32.57 0 0 1 9.23 2.65l2.21.92q2.17 1 4.29 2c.84.4-5.15-.07-.93 2.4L613.16 921c2.33 1.36 3.67.82 6 .18l2.24 1.53c6.91 4.77 9.83 7.58 10.76 8.57a14.07 14.07 0 0 1 2.64 3.47 10.37 10.37 0 0 1 .3 7.09c-.11.4-.23.78-.37 1.17L600 1037.17l-.62 1.34c-7.83-.36-14.76 11-16.44 17.79a.33.33 0 0 1-.15.19 1.29 1.29 0 0 1-.39.1c-1 .14-4.64.35-5.06.33a18.08 18.08 0 0 1-3.71-.68 69.6 69.6 0 0 1-10.29-4c-3.72-1.8-7.16-3.49-10.76-5.42l-3.89-2.15-2.39-1.37c-7.55-4.39-15-8.66-22.16-13.68a87.67 87.67 0 0 1-8.47-6.57c-4.6-3.76-5.61-7.5-4.57-11.73a15.37 15.37 0 0 1 .67-2.11Q531 957 550.24 904.82zM634.75 943h-.14z"/>
            <path class="cls-66" d="M511.51 1009.81c0 .13 0 .09 0 0-.14.37 3.61 2.86 5.81 4.28 8.83 5.71 18.1 11 27.2 16.3 6.38 3.7 12.8 7.33 19.3 10.85l.27.14c1.21.65 9.82 5.1 11.86 5.75-1.08 2.91-1.41 8.45 2.43 9.23.13 0 4.43-.06 4.58 0a.33.33 0 0 1-.15.19 1.29 1.29 0 0 1-.39.1c-1 .14-4.64.35-5.06.33a18.08 18.08 0 0 1-3.71-.68 69.6 69.6 0 0 1-10.29-4c-3.72-1.8-7.16-3.49-10.76-5.42l-3.89-2.15-2.39-1.37c-7.55-4.39-15-8.66-22.16-13.68a87.73 87.73 0 0 1-8.47-6.57c-4.6-3.76-5.61-7.5-4.57-11.73.08-.6.23-1.12.39-1.57z"/>
            <path class="cls-67" d="M575.24 1051.8c.12 2.15 1 4.11 3.13 4.55.13 0 4.43-.06 4.58 0a.33.33 0 0 1-.15.19 1.29 1.29 0 0 1-.39.1c-1 .14-4.64.35-5.06.33a18.08 18.08 0 0 1-3.71-.68 69.6 69.6 0 0 1-10.29-4c-3.72-1.8-7.16-3.49-10.76-5.42l-3.89-2.15-2.39-1.37c-7.55-4.39-15-8.66-22.16-13.68a87.67 87.67 0 0 1-8.47-6.57c-4.16-3.4-5.38-6.78-4.81-10.52a15 15 0 0 0 3.78 4.32c1.65 1.49 6.37 5.27 10.54 8.18 7.13 5 14.61 9.3 22.16 13.68l2.39 1.37 3.89 2.15c3.6 1.92 7 3.62 10.76 5.42a69.56 69.56 0 0 0 10.29 4z"/>
            <path class="cls-66" d="M568.93 895.84a32.57 32.57 0 0 1 9.23 2.65l2.21.92c1.47.65 3 1.36 4.43 2l-.29.88c-.45.87-.87 1.4-.42 1.65l26.55 15.2c1.89 1 3 .63 5-.3.76.51 5.08 3.29 5.82 3.8 6.91 4.77 9.83 7.58 10.76 8.57a14.07 14.07 0 0 1 2.64 3.47 10.37 10.37 0 0 1 .3 7.09c-.11.4-.23.78-.37 1.17 0 0-.06.05-.14 0 1.84-5 .56-9.15-2.85-9.3l-7.6-.35c-2.43-3-12.93-11.42-19.1-15.1-16.61-9.9-40.75-22.52-45.18-22.72 2.28-.24 6.51.19 9.01.37z"/>
            <path class="cls-66" d="M575.94 1047.12l38.73-105c1.83-5 6.09-8.89 9.49-8.73l7.6.35c3.41.15 4.69 4.32 2.85 9.3h.14L600 1037.17l-.62 1.34c-7.83-.36-14.76 11-16.44 17.79-1.55 0-2.66.18-4.16.11-3.4-.16-4.67-4.32-2.84-9.29z"/>
            <path class="cls-68" d="M595.84 1045.93a9.18 9.18 0 0 0-4.2 7.22c0 2.65 1.91 3.72 4.23 2.39a9.18 9.18 0 0 0 4.2-7.22c-.01-2.65-1.91-3.72-4.23-2.39z"/>
            <path class="cls-69" d="M596.58 1045.8h.1a3.24 3.24 0 0 1 .62-.14h.24a2.33 2.33 0 0 1 .43 0h.16a2 2 0 0 1 .52.19h.05a2 2 0 0 1 .41.34l.06.06a2.29 2.29 0 0 1 .32.5v.1a3.28 3.28 0 0 1 .2.63v.13a4.37 4.37 0 0 1 .08.8 6.08 6.08 0 0 1-.07.85v.26c0 .09-.09.42-.14.62s-.06.23-.09.34-.11.3-.17.45-.15.41-.25.61l-.3.6-.14.25a9.94 9.94 0 0 1-.54.83l-.07.08c-.17.23-.36.45-.54.65l-.2.21q-.24.24-.49.46l-.21.18a6.34 6.34 0 0 1-.73.51 4.5 4.5 0 0 1-.81.37c-.09 0-.17 0-.26.06a3.38 3.38 0 0 1-.49.11 2.31 2.31 0 0 1-.62 0h-.17a1.93 1.93 0 0 1-.36-.13 2 2 0 0 1-.33-.22 2 2 0 0 1-.22-.18 2 2 0 0 1-.15-.19 2.4 2.4 0 0 1-.23-.34l-.08-.18a3.06 3.06 0 0 1-.19-.6 4.46 4.46 0 0 1-.08-.87 6 6 0 0 1 .07-.9v-.14a7.79 7.79 0 0 1 .2-.87v-.13a8.89 8.89 0 0 1 .33-.89v-.07c.12-.28.26-.55.41-.81l.08-.15c.16-.27.33-.54.52-.79s.19-.23.28-.35.24-.31.37-.45a7.2 7.2 0 0 1 .52-.5l.26-.25a6.36 6.36 0 0 1 .84-.59 4.76 4.76 0 0 1 .74-.34zm5.27 0c0-.3 0-.59-.05-.87v-.08-.22c0-.08-.06-.35-.09-.52s0-.08 0-.12 0-.12-.06-.18-.08-.29-.13-.43v-.15l-.06-.13c-.06-.13-.11-.25-.18-.37s0-.11-.07-.16l-.06-.09a3.94 3.94 0 0 0-.23-.33s-.06-.1-.1-.15a3.68 3.68 0 0 0-.34-.34l-.09-.09a3.46 3.46 0 0 0-.53-.36h-.11a3.33 3.33 0 0 0-.49-.2h-.2a3.82 3.82 0 0 0-.65-.11h-.09a4.88 4.88 0 0 0-1 .05h-.45l-.47.11-.29.08c-.18.06-.36.13-.54.21l-.2.07c-.26.12-.53.25-.79.41s-.53.32-.78.5l-.25.19-.5.39-.29.25-.44.4-.3.29-.4.42-.12.12-.09.11q-.53.6-1 1.27l-.05.07-.12.18q-.27.4-.52.8l-.11.17-.06.11c-.16.28-.32.56-.47.84l-.07.12q-.24.48-.45 1l-.1.26c-.09.22-.18.44-.26.66v.1c0 .1-.06.19-.09.29s-.12.38-.18.57v.14c0 .09 0 .18-.06.27s-.09.36-.13.54v.42c0 .08-.06.35-.09.53s0 .14 0 .21v2.03a7.28 7.28 0 0 0 .1.74v.11a6 6 0 0 0 .22.82v.08l.05.12a5 5 0 0 0 .31.65l.05.11a3.91 3.91 0 0 0 .57.72l.06.07.1.08.27.22.21.14.32.17.15.08h.06a3.63 3.63 0 0 0 .79.22h.18a4.48 4.48 0 0 0 .87 0l.38-.06h.29l.42-.12.28-.08.48-.19.25-.1c.25-.11.5-.24.75-.39a10.68 10.68 0 0 0 1-.67l.24-.18c.32-.25.64-.51.94-.8v-.05c.29-.28.57-.57.85-.88l.21-.23c.28-.33.55-.66.81-1v-.07c.26-.37.51-.74.74-1.13l.14-.22q.36-.6.66-1.23l.05-.1.11-.26.24-.53.17-.41c.07-.18.14-.36.2-.54s.06-.15.08-.22v-.13c.15-.45.27-.91.37-1.36v-.08-.17c.06-.32.12-.64.15-1v-.18-.1c0-.35.05-.69.05-1z"/>
            <path class="cls-30" d="M614.44 870s-2.16 4.72.12 7.43 5.87 1.3 5.87-.12-2.63-9.64-5.99-7.31z"/>
            <path class="cls-30" d="M610.81 868.21s-2.16 4.72.12 7.43 5.87 1.3 5.87-.12-2.63-9.66-5.99-7.31z"/>
            <path class="cls-26" d="M591.68 436.43c-22.13 12.87-26 31.65-8.67 41.74s49.67 7.83 71.8-5 26-31.65 8.67-41.74-49.67-7.86-71.8 5z"/>
            <path class="cls-4" d="M676 118.34c8 17.14 11.68 44.66 13 68.54l-23.45 2.49-22.42-57.79"/>
            <path class="cls-30" d="M670.78 237.33s-.84 8.56-1.42 11c-.37 1.54-.6 2.6-.89 3.72-.4 1.55-.5 2.32 0 2.69s1.4.49 2.29-2.66a13.73 13.73 0 0 1-2.9 5.76c-1.68 1.81-4.14 3.65-3.49 4.61s2.46 0 2.46 0 .21 1.55 2.44.33c0 0 .27 1.25 2.53-.33 0 0 .89 1 3-1s9.51-10.1 9.65-25.1z"/>
            <path class="cls-4" d="M689 186.41c2.33 41.77-4.16 54.6-4.16 54.6l-14.17.38-5.09-52"/>
            <circle class="cls-4" cx="677.19" cy="187.1" r="11.8"/>
            <circle class="cls-4" cx="660.05" cy="126.17" r="17.73"/>
            <path class="cls-31" d="M598.2 468.69c4.79 4.8 10.61 6.77 13 4.39s.42-8.19-4.38-13-10.61-6.77-13-4.39c-1.44 1.43-1.33 5.19-1.33 6.63.8 1.49 3.8 4.46 5.71 6.37z"/>
            <path class="cls-30" d="M598.23 463.7c3.14 3 6.89 4.16 8.37 2.61s.14-5.24-3-8.23-6.89-4.16-8.37-2.6-.13 5.23 3 8.22z"/>
            <path class="cls-31" d="M641.15 444.1c4.6 4.61 10.19 6.5 12.48 4.21s.4-7.87-4.2-12.48-10.19-6.5-12.47-4.22c-1.38 1.38-1.28 5-1.28 6.37.75 1.44 3.64 4.29 5.47 6.12z"/>
            <path class="cls-30" d="M641.18 439.31c3 2.88 6.61 4 8 2.5s.14-5-2.88-7.91-6.61-4-8-2.5-.13 5.03 2.88 7.91z"/>
            <path class="cls-2" d="M592.48 378.79s-12.18-68.23-18.19-112L668 249.07c.44 21.27 1.19 61.82-1.21 91.16-3.6 44.2-18.83 95.23-18.83 95.23-.33 1.6-2.12 2.83-5.67 2.83-4 0-6.72-1.34-6.72-3.2l1.6-70.95-7.74-60.34s-3.75 45-6.54 69-17 85.8-17 85.8c0 2.51-1.84 4.56-6.12 4.56s-7.21-1.86-7.23-4.35z"/>
            <path class="cls-4" d="M565.77 145.44c-3.47 24.32-2.15 115.77-2.15 115.77 0 19.52 4.92 34.89 31.68 38.64a44.94 44.94 0 0 0 15.06-.91c20.7-4.43 45.81-19.36 55.6-28.22 16.41-14.84 15.74-28.85 15.74-41.06v-89.21c0 .06 0-30-25.36-39.73-19.29-7.42-49-.62-64.5 8.14 0 0-22.45 11.23-26.07 36.58z"/>
            <path class="cls-33" d="M567.71 137.27a14.24 14.24 0 0 1 10.44-4.83c15.48 0 14.43 17.54 14.43 17.54v98.42c0 37.86 8.58 48.36 14.18 51.19a41 41 0 0 1-11.45.26c-26.77-3.75-31.68-19.12-31.68-38.64 0 0-1.31-91.45 2.15-115.77a46.4 46.4 0 0 1 1.93-8.17z"/>
            <path class="cls-30" d="M582.85 280.83s.68 8.57 1.22 11c.34 1.55.55 2.61.82 3.74.37 1.56.46 2.33-.07 2.69s-1.41.47-2.24-2.7a13.74 13.74 0 0 0 2.8 5.82c1.65 1.84 4.07 3.72 3.4 4.66s-2.46 0-2.46 0-.24 1.55-2.45.29c0 0-.29 1.25-2.52-.38 0 0-.91 1-2.95-1.09s-9.32-10.27-9.2-25.27z"/>
            <path class="cls-4" d="M586.31 221.19L584 290.58l-13.59-.42s-10.37-27.3-12.93-70.89"/>
            <circle class="cls-4" cx="571.94" cy="219.33" r="14.49" transform="rotate(-88.97 571.925 219.34)"/>
            <path class="cls-4" d="M608.31 148.26l-22.58 75.53-28.28-4.72s-.45-7-.46-14.54c0-31.68 4.5-55.5 13.06-72.38"/>
            <circle class="cls-4" cx="588.7" cy="141.38" r="20.78" transform="rotate(-89.78 588.703 141.374)"/>
            <path class="cls-30" d="M633 51.28c6.52-.26 14.16 1.35 17.94 7.63 2.43 4 2.24 11.4 2.46 16.86.4 9.87-3.54 20.21-9.66 25.58v2.58c-.07 2.11-1.49 4.21-4.28 5.82-5.68 3.28-14.87 3.28-20.52 0-2.73-1.58-4.12-3.64-4.2-5.72V78.26c0-.31 0-.62-.05-.92-.57-13.96 7.66-25.63 18.31-26.06z"/>
            <path class="cls-70" d="M635.2 105.08a13.89 13.89 0 0 0 8.58-3.73v2.58c-.07 2.11-1.49 4.21-4.28 5.82-5.68 3.28-14.87 3.28-20.52 0-2.73-1.58-4.12-3.64-4.2-5.72V78.26c.87 13.65 9.96 27.24 20.42 26.82z"/>
            <path class="cls-8" d="M607.08 52.52c2.91-8.67 7.85-8.07 7.85-8.07s1.79-3.36 8.77-2.61 28.83 5.6 31.14 1.05a3.17 3.17 0 0 1 0 2.19s1.63-.18 3.11-2.49c3.27 6.83 2.51 20.18-4.59 29.69a45 45 0 0 0-1.18-10.56c-11.7 6.76-29 1-29 1l-1.38 14.9a3.57 3.57 0 1 0-6.91 1.75 37 37 0 0 0 1.43 7.23 27.63 27.63 0 0 1-6.56-9.05c-4.88-10.45-4.84-18.61-2.68-25.03z"/>
            <path class="cls-2" d="M636.15 114.09l-5.07 3.21 3.32 7.92-9.23 80.49 11.22 13.57 11.44-26.66-9.89-69.51 2.16-8.21-3.95-.81z"/>
            <path class="cls-5" d="M646.32 102.19l-.48 17-9.69-5.12-9.43 10.12L613.11 108s-2.93-3.75-1.57-6.85a9.61 9.61 0 0 1 3.2-3.19s4.47 8.58 21 13.45c0 0 7.16-5.22 8-10 0 0 .72-.65 1.64-1.64a4.52 4.52 0 0 1 .94 2.42z"/>
            <path class="cls-8" d="M615.66 150.48l-17.89 10.4v5.84l17.89-10.4v-5.84z"/>
        </g>
    </g>
</svg>
