<svg width="350" height="277" viewBox="0 0 350 277" xmlns="http://www.w3.org/2000/svg">
    <g fill-rule="nonzero" fill="none">
        <g transform="translate(140.625 .391)">
            <path d="M65.762 150.762c-.075 7.605-3.825 11.643-4.871 12.691-1.047 1.049-1.496.525-1.496.525-1.141.782-1.274.164-1.274.164-1.121.587-1.234-.164-1.234-.164s-.903.504-1.242 0c-.34-.505.91-1.432 1.757-2.348a6.952 6.952 0 0 0 1.496-2.914c-.468 1.588-.918 1.533-1.171 1.341-.254-.191-.204-.614 0-1.365.148-.571.261-1.13.449-1.882.324-1.22.75-5.548.75-5.548l6.836-.5z" fill="#FFCFAE"/>
            <path d="M56.316 127.01l2.567 26.314 7.14-.203s3.274-6.483 2.102-27.61" fill="#FFF"/>
            <ellipse fill="#FFF" cx="62.168" cy="125.855" rx="5.957" ry="5.966"/>
            <path d="M54.555 249.421c8.75 5.086 6.785 14.598-4.383 21.108s-27.484 7.672-36.25 2.55c-8.766-5.12-6.797-14.62 4.379-21.126 11.176-6.507 27.504-7.618 36.254-2.532z" fill="#D8D8D8"/>
            <path d="M44.969 97.787l11.328 29.238 11.84-1.26c-.672-12.078-2.516-26.002-6.594-34.668" fill="#FFF"/>
            <ellipse fill="#FFF" cx="53.508" cy="95.041" rx="8.953" ry="8.967"/>
            <path d="M19.371 265.044c0-.728-.078-2.602.672-3.353 1.2-1.174 4.102-.18 6.559 2.25 2.457 2.429 3.445 5.406 2.246 6.576-1.2 1.17-4.141.18-6.559-2.25a22.48 22.48 0 0 1-2.918-3.223z" fill="#081B2F"/>
            <ellipse fill="#FFCFAE" transform="rotate(-46.32 23.657 264.31)" cx="23.657" cy="264.311" rx="1.961" ry="3.975"/>
            <path d="M41.176 252.743c0-.704-.051-2.527.644-3.224 1.172-1.174 3.989-.2 6.317 2.128 2.328 2.328 3.285 5.157 2.125 6.311-1.16 1.154-3.957.22-6.301-2.128a21.534 21.534 0 0 1-2.785-3.087z" fill="#081B2F"/>
            <ellipse fill="#FFCFAE" transform="rotate(-46.32 45.271 252.08)" cx="45.271" cy="252.08" rx="1.887" ry="3.815"/>
            <path d="M19.39 263.26c0 1.255 1.493 2.194 3.653 2.194s3.09-1.032 3.09-2.308c0 0 7.187-31.248 8.594-43.393 1.406-12.144 3.3-34.89 3.3-34.89l3.907 30.516-.809 35.881c0 .947 1.39 1.62 3.39 1.62 1.797 0 2.696-.622 2.868-1.432 0 0 7.687-25.822 9.508-48.162 1.203-14.836.828-35.341.605-46.1l-47.293 8.998c3.031 22.145 9.184 56.633 9.184 56.633l.004 40.443z" fill="#9B9B9B"/>
            <path d="M19.074 86.285c7.88-4.43 22.836-7.864 32.567-4.124 12.812 4.938 12.812 20.098 12.812 20.098v45.173c0 6.178.336 13.271-7.95 20.767-4.948 4.464-17.597 11.996-28.077 14.245a22.66 22.66 0 0 1-7.606.466c-13.511-1.913-15.996-9.687-15.996-19.562 0 0-.664-46.257 1.086-58.561 1.824-12.821 13.156-18.514 13.164-18.502z" fill="#FFF"/>
            <path d="M5.86 104.76c-1.755 12.304-1.087 58.553-1.087 58.553 0 9.89 2.477 17.664 15.997 19.562 1.925.227 3.872.182 5.785-.133-2.825-1.432-7.157-6.741-7.157-25.889v-49.77s.547-8.881-7.265-8.881a7.187 7.187 0 0 0-5.254 2.441 23.439 23.439 0 0 0-1.02 4.116z" fill="#D8D8D8"/>
            <path d="M6.297 173.958c-.059 7.551 3.61 11.675 4.648 12.747 1.04 1.072 1.496.556 1.496.556 1.133.817 1.274.187 1.274.187 1.113.61 1.234-.14 1.234-.14s.899.465 1.242 0c.344-.466-.882-1.417-1.714-2.348a6.945 6.945 0 0 1-1.415-2.938c.391 1.596.899 1.565 1.13 1.365.23-.2.187-.575 0-1.357-.133-.572-.239-1.139-.41-1.89-.27-1.229-.614-5.563-.614-5.563l-6.871-.619z" fill="#FFCFAE"/>
            <path d="M.348 143.441c1.289 22.047 6.527 35.85 6.527 35.85l6.863.211 1.172-35.094" fill="#FFF"/>
            <ellipse fill="#FFF" transform="rotate(-88.97 7.654 143.47)" cx="7.654" cy="143.469" rx="7.32" ry="7.332"/>
            <path d="M6.703 99.395C2.355 107.936.11 119.982.11 136.004c0 3.81.23 7.355.23 7.355l14.282 2.383 11.399-38.217" fill="#FFF"/>
            <ellipse fill="#FFF" transform="rotate(-89.78 16.117 104.03)" cx="16.117" cy="104.031" rx="10.496" ry="10.513"/>
            <path d="M29.688 68.147c0 .172.03.344.03.52v14.566c.052 1.174.837 2.347 2.372 3.228 3.187 1.854 8.367 1.854 11.574 0 1.563-.904 2.375-2.113 2.41-3.287v-1.486c3.453-3.033 5.672-8.874 5.446-14.449-.122-3.087 0-7.242-1.387-9.527-2.125-3.54-6.442-4.452-10.113-4.303-6.012.246-10.665 6.842-10.333 14.738z" fill="#FFCFAE"/>
            <path d="M29.734 75.674c-5.652-9.39-4.207-20.517-4.207-20.517 1.301-9.918 15.875-8.744 15.875-8.744 4.84-.047 7.7 2.23 9.43 6.816 1.73 4.585.64 12.058.64 12.058a27.036 27.036 0 0 0-.835-6.17c-5.227 2.79-14.364 1.686-14.364 1.686l-.55 3.521s-1.043.243-1.043 4.746c0 .81.43 3.654.43 3.654l-1.442-.47-.23-3.943c-.208-.978-.872-1.698-1.895-1.616 0 0-1.89.223-1.348 2.7a23.95 23.95 0 0 1 .582 3.259c-.007-.051-1.039 3.016-1.043 3.02z" fill="#424242"/>
            <path d="M29.73 68.667v14.566c.051 1.174.836 2.347 2.372 3.228 3.187 1.854 8.367 1.854 11.574 0 1.562-.904 2.375-2.113 2.41-3.287V81.703a7.807 7.807 0 0 1-4.84 2.101c-5.902.239-11.027-7.441-11.516-15.137z" fill="#3A2416" opacity=".08"/>
            <ellipse fill="#FFB522" cx="37.414" cy="19.222" rx="18.832" ry="18.862"/>
            <path d="M27.29 17.39l1.98 9.997a2.235 2.235 0 0 0 2.187 1.796h11.902a2.235 2.235 0 0 0 2.188-1.796l1.98-9.977a1.547 1.547 0 0 0-1.511-1.846h-.996L40.234 9.64l-.07-.086a.859.859 0 0 0-1.45.335.862.862 0 0 0 .192.839l3.907 4.804h-10.57l3.905-4.804.032-.04a.86.86 0 0 0-.573-1.371.856.856 0 0 0-.79.331l-4.782 5.892H28.81a1.562 1.562 0 0 0-1.52 1.85zm12.694 3.291a.858.858 0 1 1 1.715 0v3.521a.858.858 0 1 1-1.715 0v-3.52zm-3.425 0a.858.858 0 1 1 1.714 0v3.521a.858.858 0 1 1-1.714 0v-3.52zm-3.426 0a.858.858 0 1 1 1.715 0v3.521a.858.858 0 1 1-1.715 0v-3.52z" fill="#FFF"/>
            <ellipse fill="#10355D" cx="178.371" cy="19.441" rx="18.832" ry="18.862"/>
            <path fill="#FFF" d="M182.889 12.465l2.459 2.458-11.49 11.49-2.458-2.46z"/>
            <path fill="#FFF" d="M185.347 23.958l-2.459 2.459-11.489-11.49 2.459-2.458z"/>
            <path d="M158.527 250.845c-11.43 6.652-13.445 16.374-4.48 21.597 8.965 5.223 25.656 4.05 37.09-2.606 11.433-6.655 13.445-16.373 4.48-21.596-8.965-5.223-25.656-4.05-37.09 2.605z" fill="#D8D8D8"/>
            <path d="M202.066 86.265c4.176 8.87 6.059 23.107 6.746 35.462l-12.109 1.288-11.586-29.9" fill="#FFF"/>
            <path d="M199.39 147.831s-.433 4.425-.734 5.681c-.191.782-.308 1.346-.457 1.925-.207.802-.258 1.197 0 1.393.258.195.723.254 1.172-1.377a7.11 7.11 0 0 1-1.48 3c-.868.935-2.141 1.886-1.801 2.383.34.497 1.27 0 1.27 0s.109.802 1.261.172c0 0 .137.646 1.305-.172 0 0 .46.54 1.535-.54 1.074-1.08 4.91-5.227 4.988-12.99l-7.058.525z" fill="#FFCFAE"/>
            <path d="M208.797 121.485c1.207 21.612-2.149 28.251-2.149 28.251l-7.32.2-2.629-26.917" fill="#FFF"/>
            <ellipse fill="#FFF" cx="202.703" cy="121.841" rx="6.094" ry="6.103"/>
            <ellipse fill="#FFF" cx="193.844" cy="90.322" rx="9.16" ry="9.175"/>
            <path d="M161.895 267.536c2.476 2.48 5.468 3.501 6.71 2.269 1.243-1.232.215-4.237-2.261-6.722-2.477-2.484-5.469-3.501-6.711-2.273-.742.744-.688 2.684-.688 3.432.43.77 1.965 2.308 2.95 3.294z" fill="#444549"/>
            <path d="M161.914 264.954c1.621 1.565 3.559 2.151 4.324 1.35.766-.803.075-2.708-1.562-4.261s-3.559-2.152-4.324-1.346c-.766.806-.055 2.707 1.562 4.257z" fill="#FFCFAE"/>
            <path d="M184.082 254.817c2.379 2.382 5.266 3.36 6.445 2.179 1.18-1.182.207-4.073-2.172-6.456-2.378-2.382-5.265-3.36-6.445-2.183-.71.712-.66 2.578-.66 3.294.39.74 1.887 2.219 2.832 3.166z" fill="#444549"/>
            <path d="M184.102 252.352c1.562 1.49 3.418 2.07 4.152 1.295.734-.775.07-2.602-1.488-4.093-1.559-1.49-3.418-2.065-4.153-1.29-.734.774-.066 2.585 1.489 4.088z" fill="#FFCFAE"/>
            <path d="M158.941 221.021s-6.293-35.302-9.394-57.935l48.383-9.179c.23 11.006.613 31.984-.625 47.164-1.864 22.869-9.727 49.27-9.727 49.27-.172.83-1.094 1.463-2.93 1.463-2.046 0-3.472-.693-3.472-1.659L182 213.44l-4-31.222s-1.953 23.268-3.375 35.694c-1.422 12.425-8.773 44.39-8.773 44.39 0 1.299-.95 2.347-3.165 2.347-2.214 0-3.722-.958-3.734-2.25l-.012-41.377z" fill="#2B90FF"/>
            <path d="M145.148 100.287c-1.793 12.587-1.113 59.9-1.113 59.9 0 10.098 2.54 18.052 16.367 19.992 2.344.329 5.13.094 7.782-.473 10.691-2.29 23.66-10.016 28.722-14.601 8.48-7.677 8.13-14.926 8.13-21.245V97.693c0 .032 0-15.505-13.102-20.556-9.965-3.842-25.301-.32-33.32 4.21-.02.032-11.598 5.822-13.466 18.94z" fill="#FFF"/>
            <path d="M146.148 96.062c1.415-1.479 3.188-2.5 5.395-2.5 7.996 0 7.453 9.077 7.453 9.077v50.92c0 19.586 4.434 25.04 7.324 26.487-1.956.323-3.948.37-5.918.137-13.828-1.956-16.367-9.895-16.367-19.992 0 0-.68-47.317 1.113-59.9.205-1.437.54-2.853 1-4.23z" fill="#000" opacity=".1"/>
            <path fill="#2B90FF" d="M168.39 152.08l1.919-.657-6.809 34.468-1.918.658-19.648-17.329 6.808-34.476z"/>
            <path fill="#000" opacity=".2" d="M148.742 134.744l19.649 17.336-6.809 34.469-19.648-17.329z"/>
            <path fill="#FFF" d="M150.66 134.087l19.649 17.336-1.918.657-19.649-17.336z"/>
            <path d="M153.969 170.34s.355 4.432.633 5.692c.175.782.285 1.35.425 1.933.192.806.235 1.205-.035 1.392-.27.188-.726.243-1.172-1.396a7.114 7.114 0 0 0 1.446 3.008c.851.951 2.105 1.925 1.757 2.414-.347.49-1.27-.023-1.27-.023s-.124.782-1.265.149c0 0-.148.645-1.3-.196 0 0-.47.528-1.524-.567-1.055-1.096-4.789-5.31-4.742-13.072l7.047.665z" fill="#FFCFAE"/>
            <path d="M155.754 139.482l-1.211 35.904-7.031-.219s-5.36-14.124-6.676-36.675" fill="#FFF"/>
            <ellipse fill="#FFF" transform="rotate(-88.97 148.324 138.512)" cx="148.324" cy="138.512" rx="7.484" ry="7.496"/>
            <path d="M167.121 101.747l-11.652 39.08-14.61-2.44s-.23-3.627-.234-7.524c0-16.39 2.324-28.717 6.746-37.45" fill="#FFF"/>
            <ellipse fill="#FFF" transform="rotate(-89.78 156.997 98.191)" cx="156.997" cy="98.191" rx="10.738" ry="10.755"/>
            <path d="M179.898 51.574c3.368-.133 7.317.696 9.266 3.951 1.254 2.093 1.172 5.896 1.274 8.725.203 5.106-1.829 10.458-4.993 13.232v1.361c-.035 1.092-.78 2.18-2.21 3.013-2.938 1.698-7.68 1.698-10.598 0-1.407-.818-2.13-1.886-2.172-2.958V65.545c0-.16-.024-.317-.028-.477-.316-7.238 3.934-13.271 9.461-13.494z" fill="#FFCFAE"/>
            <path d="M181.012 79.422a7.17 7.17 0 0 0 4.433-1.956v1.362c-.035 1.091-.78 2.179-2.21 3.012-2.938 1.698-7.68 1.698-10.598 0-1.407-.818-2.13-1.886-2.172-2.958V65.53c.45 7.062 5.14 14.097 10.547 13.893z" fill="#3A2416" opacity=".04"/>
            <path d="M166.484 52.211c1.504-4.487 4.055-4.174 4.055-4.174s.922-1.737 4.527-1.35c3.606.387 14.895 2.9 16.086.544.134.365.134.766 0 1.13 0 0 .84-.09 1.606-1.287 1.687 3.522 1.297 10.439-2.367 15.36-.055-1.858-.149-3.869-.61-5.477-6.047 3.494-14.984.517-14.984.517l-.715 7.707a1.842 1.842 0 1 0-3.116-.943 1.849 1.849 0 0 0-.454 1.847c.122 1.268.37 2.521.742 3.74a14.3 14.3 0 0 1-3.39-4.695c-2.516-5.375-2.497-9.593-1.38-12.919z" fill="#10355D"/>
            <path fill="#2B90FF" d="M181.504 84.066l-2.625 1.663 1.719 4.096-4.766 41.648 5.797 7.02 5.91-13.792-5.117-35.967 1.117-4.245z"/>
            <path d="M186.758 77.912l-.25 8.803-5.004-2.649-4.875 5.24-7.031-8.405s-1.512-1.956-.813-3.544c.215-.49.824-1.06 1.653-1.651 0 0 2.308 4.436 10.867 6.956 0 0 3.699-2.7 4.14-5.18 0 0 .39-.337.848-.85.278.372.44.817.465 1.28z" fill="#DBDBDB"/>
        </g>
        <g>
            <ellipse fill="#10355D" cx="32.195" cy="18.862" rx="18.832" ry="18.862"/>
            <path fill="#FFF" d="M36.71 11.89l2.458 2.458-11.489 11.49-2.459-2.46z"/>
            <path fill="#FFF" d="M39.172 23.38l-2.459 2.459-11.489-11.49 2.459-2.458z"/>
            <path d="M50.281 250.943c11.219 6.534 13.2 16.072 4.399 21.198-8.801 5.125-25.184 3.975-36.407-2.575-11.222-6.549-13.195-16.04-4.394-21.182 8.8-5.14 25.184-3.975 36.402 2.56z" fill="#D8D8D8"/>
            <path d="M46.293 267.325c-2.43 2.437-5.379 3.435-6.586 2.226-1.207-1.21-.21-4.16 2.219-6.597 2.43-2.437 5.379-3.435 6.586-2.23.726.728.675 2.637.675 3.369-.406.755-1.921 2.265-2.894 3.232z" fill="#081B2F"/>
            <path d="M46.273 264.79c-1.593 1.521-3.492 2.112-4.242 1.322s-.07-2.66 1.52-4.183c1.59-1.522 3.492-2.112 4.242-1.322s.07 2.664-1.52 4.182z" fill="#FFCFAE"/>
            <path d="M24.512 254.836c-2.344 2.348-5.168 3.298-6.325 2.14-1.156-1.158-.218-3.994 2.125-6.338 2.344-2.343 5.168-3.302 6.325-2.144.699.7.648 2.531.648 3.236-.379.727-1.844 2.187-2.773 3.106z" fill="#081B2F"/>
            <path d="M24.496 252.403c-1.531 1.463-3.355 2.03-4.074 1.271-.719-.759-.07-2.555 1.457-4.018 1.527-1.463 3.355-2.03 4.074-1.268.719.763.07 2.555-1.457 4.015z" fill="#FFCFAE"/>
            <path d="M49.191 221.667s8.77-35.248 11.817-57.466l-53.336-9.5c-.227 10.803 2.648 32.474 3.863 47.384 1.828 22.45 9.559 48.361 9.559 48.361.168.814 1.074 1.436 2.875 1.436 2.008 0 3.406-.68 3.406-1.627l-.813-36.03 3.926-30.646s1.903 22.84 3.313 35.036c1.41 12.195 8.594 43.573 8.594 43.573 0 1.275.93 2.316 3.105 2.316 2.176 0 3.652-.943 3.668-2.207l.023-40.63z" fill="#2B90FF"/>
            <path d="M6.863 89.395C2.766 98.1.918 112.087.223 124.215l11.89 1.264L23.48 96.136" fill="#FFF"/>
            <path d="M9.488 149.846s.426 4.347.723 5.575c.187.783.305 1.319.45 1.89.202.782.253 1.174 0 1.365-.255.192-.712.25-1.173-1.35a6.98 6.98 0 0 0 1.469 2.927c.852.92 2.102 1.855 1.766 2.348-.336.493-1.246 0-1.246 0s-.11.782-1.239.168c0 0-.133.634-1.281-.168 0 0-.453.528-1.508-.529-1.054-1.056-4.812-5.152-4.886-12.774l6.925.548z" fill="#FFCFAE"/>
            <path d="M.258 123.965c-1.172 21.214 2.11 27.732 2.11 27.732l7.183.195 2.578-26.424" fill="#FFF"/>
            <ellipse fill="#FFF" cx="6.238" cy="124.317" rx="5.98" ry="5.99"/>
            <ellipse fill="#FFF" cx="14.93" cy="93.374" rx="8.992" ry="9.006"/>
            <path d="M11.93 166.783c4.922 4.546 17.699 12.082 28.195 14.331 2.602.56 5.328.783 7.637.466 13.574-1.906 16.066-9.71 16.066-19.625l-.039-50.928c-.062-18.838-14.27-26.44-14.27-26.44-7.874-4.449-22.93-7.903-32.722-4.136C3.949 85.408 3.953 100.66 3.949 100.628c-.004-.032-1.136 8.67 2.422 19.092 0 0-7.976 34.567 5.559 47.063z" fill="#FFF"/>
            <path d="M61.191 98.155c-2.273-1.91-4.875-2.426-7.55-2.093-5.817.728-4.504 7.54-4.504 7.54s5.941 53.83-7.13 64.39c-9.234 7.434-21.456 3.572-27.855.642 5.895 4.518 16.797 10.516 25.973 12.48 2.602.56 5.328.783 7.637.466 13.574-1.906 16.066-9.71 16.066-19.625l-.039-50.928a32.369 32.369 0 0 0-2.598-12.872z" fill="#D8D8D8"/>
            <path fill="#2B90FF" d="M32.402 110.96v1.636l10.016 2.39v-1.631z"/>
            <path d="M55.441 173.238s-.347 4.351-.62 5.587c-.173.783-.282 1.327-.419 1.898-.187.782-.23 1.174.035 1.365.266.192.715.235 1.137-1.369a6.984 6.984 0 0 1-1.418 2.954c-.836.931-2.066 1.89-1.726 2.367.34.477 1.246-.024 1.246-.024s.12.783 1.242.145c0 0 .145.634 1.277-.191 0 0 .461.52 1.496-.556 1.036-1.076 4.727-5.215 4.668-12.833l-6.918.657z" fill="#FFCFAE"/>
            <path d="M53.691 142.948l1.172 35.244 6.89-.216s5.263-13.865 6.556-35.994" fill="#FFF"/>
            <ellipse fill="#FFF" transform="rotate(-1.03 60.968 142.012)" cx="60.968" cy="142.012" rx="7.348" ry="7.359"/>
            <path d="M42.535 105.91l11.45 38.341 14.34-2.398s.226-3.556.23-7.383c0-16.088-2.282-28.17-6.64-36.777" fill="#FFF"/>
            <ellipse fill="#FFF" transform="rotate(-.22 52.482 102.417)" cx="52.482" cy="102.417" rx="10.539" ry="10.556"/>
            <path d="M21.79 117.056h-.087a.508.508 0 0 1-.418-.415l-3.473-19.703c-.101-.422-2.546-11.072 4.063-16.393a14.83 14.83 0 0 1 9.18-3.435c3.886 0 7.066 1.874 8.73 5.137 1.867 3.674-.52 6.929-3.828 11.436a78.42 78.42 0 0 0-5.8 8.78l-7.923 14.33a.508.508 0 0 1-.445.263zm9.273-38.937a13.815 13.815 0 0 0-8.543 3.213c-6.114 4.921-3.73 15.305-3.707 15.391l3.226 18.302 7.227-13.071a79.312 79.312 0 0 1 5.859-8.9c3.207-4.371 5.324-7.258 3.742-10.369-1.465-2.895-4.316-4.566-7.804-4.566z" fill="#2B90FF"/>
            <path fill="#9ECCFF" d="M23.133 121.532l-.012 3.944-2.535-1.468.012-3.943z"/>
            <path d="M22.156 119.842l2.453 1.424v10.14l-5.507-3.184.027-10.141 2.465 1.424.562.337zm-1.562.223v3.943l2.535 1.468v-3.944l-2.535-1.467zm3.593 7.707v-.391l-4.656-2.704v.392l4.653 2.691.003.012zm-.003 1.1v-.392l-4.653-2.688v.392l4.657 2.691-.004-.003zm.003 1.115v-.392l-4.656-2.695v.39l4.657 2.693v.004z" fill="#2B90FF"/>
            <path fill="#9ECCFF" d="M24.191 127.37v.402l-4.656-2.692.004-.403z"/>
            <path fill="#2B90FF" d="M22.16 118.324l-.004 1.518-.578-.337.004-1.518z"/>
            <path fill="#D3D3D3" d="M23.121 115.796l-.433 2.833-.528-.305-.578-.337-.535-.305-.406-3.322z"/>
            <path fill="#9ECCFF" d="M24.184 129.591v.4l-4.657-2.688.004-.403zM24.188 128.484v.4l-4.657-2.693.004-.399z"/>
            <path d="M28.715 55.353c-3.305-.133-7.18.685-9.094 3.877-1.23 2.054-1.137 5.79-1.25 8.565-.2 5.011 1.793 10.262 4.899 12.989v1.334c.035 1.072.753 2.14 2.168 2.958 2.882 1.666 7.539 1.666 10.402 0 1.383-.806 2.09-1.85 2.133-2.903v-9.249c0-.157 1.222-4.934 1.23-5.086.313-7.098-5.062-12.282-10.488-12.485z" fill="#FFCFAE"/>
            <path d="M27.625 82.674a7.026 7.026 0 0 1-4.352-1.89v1.334c.036 1.072.754 2.14 2.168 2.958 2.883 1.666 7.54 1.666 10.403 0 1.383-.806 2.09-1.85 2.133-2.903V69.05c-.442 6.933-5.047 13.839-10.352 13.624z" fill="#3A2416" opacity=".08"/>
            <path d="M38 69.281l-.922 4.695.922 2.93c.82-.876 1.195-2.906 1.98-4.604 2.458-5.306 1.875-9.39 1.497-13.518-.16-1.729-.684-8.752-5.86-9.174 0 0-2.734-2.81-10.39.148-4.43 1.714-6.997-.137-6.997-.137s-.37 1.765.329 3.04c0 0-4.153 3.611-.13 13.596.071-2.492 0-4.445 1.005-6.135.714-1.193 2.476-1.486 3.75-1.655.78-.062 2.222.478 2.222.478s1.977-.595 2.782-.532c5.632.442 5.558 2.758 5.558 2.758l.238 2.602v8.94s-.257 4.597-4.597 5.262c-1.793.274-3.57-1.565-3.57-1.565h-1.32s-1.099 1.71-2.138 1.173a6.313 6.313 0 0 1-3.375-4.264c.239 1.22 1.918 8.732 7.368 9.39 6.671.782 9.214-3.31 9.214-7.954v-8.216s-.265-1.608 1.496-1.608c1.762 0 1.356 2.41.938 4.35z" fill="#10355D"/>
            <path d="M18.993 73.367l-.04-.22s.01.085.04.22z" fill="#6B373E"/>
            <path d="M27.344 72.486h-4.418s-1.258 1.146-1.258 2.269h6.941c0-1.123-1.265-2.27-1.265-2.27z" fill="#10355D"/>
        </g>
    </g>
</svg>
