<svg width="537" height="526" viewBox="0 0 537 526" xmlns="http://www.w3.org/2000/svg">
    <g fill="none" fill-rule="evenodd">
        <path d="M41.296 260.072a.848.848 0 0 0-.418-.093c-.325 0-.58.151-.58.337v1.345a.313.313 0 0 0 .174.232.86.86 0 0 0 .406.105c.314 0 .58-.151.58-.337v-1.357a.29.29 0 0 0-.173-.244m0 4.037a.86.86 0 0 0-.407-.104c-.313 0-.58.15-.58.336v1.311c.008.101.07.19.162.232.13.066.273.098.418.093.325 0 .58-.151.57-.337v-1.345a.313.313 0 0 0-.175-.232m0 4.037a.848.848 0 0 0-.418-.093c-.325 0-.58.15-.569.336v1.346c.015.102.08.19.174.232a.86.86 0 0 0 .407.104c.313 0 .58-.15.58-.336v-1.346a.278.278 0 0 0-.162-.232m0 4.037a.848.848 0 0 0-.407-.104c-.313 0-.58.15-.58.336v1.392a.29.29 0 0 0 .174.244c.129.066.273.098.418.092.325 0 .58-.15.58-.336v-1.346a.302.302 0 0 0-.174-.232m0 4.037a.813.813 0 0 0-.406-.093c-.314 0-.58.151-.57.337v1.345c.009.102.071.19.163.232a.813.813 0 0 0 .407.093c.313 0 .58-.15.569-.336v-1.369a.278.278 0 0 0-.163-.232m0 4.025a.848.848 0 0 0-.418-.093c-.325 0-.58.151-.58.337v1.345a.313.313 0 0 0 .174.232.86.86 0 0 0 .406.105c.314 0 .58-.151.58-.337v-1.345a.29.29 0 0 0-.173-.244m0 4.037a.86.86 0 0 0-.407-.104c-.313 0-.58.15-.58.336v1.346c.008.1.07.19.162.232.13.066.273.098.418.092.325 0 .58-.15.57-.336v-1.346a.313.313 0 0 0-.175-.232m0 4.037a.848.848 0 0 0-.418-.093c-.325 0-.58.151-.569.337v1.345a.313.313 0 0 0 .174.232.86.86 0 0 0 .407.105c.313 0 .58-.151.58-.337v-1.345a.278.278 0 0 0-.162-.232m0 4.037a.86.86 0 0 0-.407-.105c-.313 0-.58.151-.58.337v1.345a.29.29 0 0 0 .174.244c.129.066.273.098.418.093.325 0 .58-.151.58-.337v-1.357a.313.313 0 0 0-.174-.232m0 4.037a.813.813 0 0 0-.406-.093c-.314 0-.58.15-.57.336v1.346a.29.29 0 0 0 .175.244.813.813 0 0 0 .406.092c.314 0 .581-.15.57-.336V296.6a.278.278 0 0 0-.163-.232m0 4.026a.848.848 0 0 0-.418-.093c-.325 0-.58.15-.58.336v1.346a.313.313 0 0 0 .173.232.86.86 0 0 0 .407.104c.313 0 .58-.15.58-.336v-1.346a.29.29 0 0 0-.174-.243m0 4.036a.86.86 0 0 0-.406-.104c-.314 0-.58.15-.58.336v1.346c.007.101.07.19.162.232.129.066.273.098.418.093.325 0 .58-.151.569-.337v-1.345a.302.302 0 0 0-.174-.232m0 4.037a.848.848 0 0 0-.418-.093c-.325 0-.58.15-.57.336v1.346c.015.102.081.19.175.232a.86.86 0 0 0 .406.104c.314 0 .58-.15.58-.336v-1.369a.278.278 0 0 0-.162-.232m0 4.037a.86.86 0 0 0-.406-.105c-.314 0-.58.151-.58.337v1.345a.29.29 0 0 0 .173.244c.13.066.273.098.418.093.326 0 .581-.151.581-.337v-1.345a.313.313 0 0 0-.174-.232m0 4.037a.813.813 0 0 0-.407-.093c-.313 0-.58.15-.568.336v1.346a.29.29 0 0 0 .174.243.813.813 0 0 0 .406.093c.314 0 .58-.15.569-.336v-1.346a.278.278 0 0 0-.163-.232m0 4.025a.848.848 0 0 0-.418-.092c-.325 0-.58.15-.58.336v1.346a.313.313 0 0 0 .174.232.86.86 0 0 0 .406.104c.314 0 .581-.15.581-.336v-1.346a.29.29 0 0 0-.174-.244m0 4.037a.825.825 0 0 0-.407-.093c-.325 0-.58.151-.58.337v1.345c.008.102.07.19.162.232a.813.813 0 0 0 .407.093c.325 0 .58-.15.569-.336V324.8a.302.302 0 0 0-.174-.232m0 4.037a.848.848 0 0 0-.418-.093c-.325 0-.58.15-.57.336v1.346a.313.313 0 0 0 .175.232.86.86 0 0 0 .406.104c.314 0 .58-.15.58-.336v-1.346a.278.278 0 0 0-.162-.232m0 4.037a.86.86 0 0 0-.406-.104c-.314 0-.58.15-.58.336v1.346a.29.29 0 0 0 .173.243c.13.067.273.099.418.093.326 0 .581-.15.581-.336v-1.311a.313.313 0 0 0-.174-.232m0 4.037a.813.813 0 0 0-.407-.093c-.313 0-.58.15-.568.336v1.346a.29.29 0 0 0 .174.244.813.813 0 0 0 .406.092c.314 0 .58-.15.569-.336v-1.346a.278.278 0 0 0-.163-.232m0 4.026a.848.848 0 0 0-.418-.093c-.325 0-.58.15-.58.336v1.346a.313.313 0 0 0 .174.232.86.86 0 0 0 .406.104c.326 0 .581-.15.581-.336v-1.346a.29.29 0 0 0-.174-.243m0 4.036a.813.813 0 0 0-.407-.092c-.325 0-.58.15-.58.336v1.346c.008.1.07.19.162.232a.813.813 0 0 0 .407.092c.313 0 .58-.15.569-.336v-1.346a.302.302 0 0 0-.174-.232m0 4.037a.848.848 0 0 0-.418-.093c-.325 0-.58.151-.57.337v1.241c.015.102.081.19.175.232a.86.86 0 0 0 .406.104c.314 0 .58-.15.58-.336v-1.346a.29.29 0 0 0-.173-.243m0 4.037a.86.86 0 0 0-.407-.105c-.313 0-.58.151-.58.337v1.345a.29.29 0 0 0 .174.244c.129.066.273.098.418.093.325 0 .58-.151.58-.337V353a.313.313 0 0 0-.174-.232m0 4.036a.813.813 0 0 0-.406-.092c-.314 0-.58.15-.57.336v1.392a.29.29 0 0 0 .175.244.813.813 0 0 0 .406.092c.314 0 .581-.15.57-.336v-1.346a.278.278 0 0 0-.163-.232m0 4.026a.848.848 0 0 0-.418-.093c-.325 0-.58.15-.58.336v1.346a.313.313 0 0 0 .173.232.86.86 0 0 0 .407.104c.325 0 .58-.15.58-.336v-1.346a.29.29 0 0 0-.174-.243m0 4.036a.825.825 0 0 0-.406-.092c-.325 0-.58.15-.58.336v1.346c.007.1.07.19.162.232a.813.813 0 0 0 .406.092c.314 0 .58-.15.57-.336v-1.346a.302.302 0 0 0-.175-.232m0 4.037a.848.848 0 0 0-.418-.093c-.325 0-.58.151-.569.337v1.345a.313.313 0 0 0 .174.232.86.86 0 0 0 .407.105c.313 0 .58-.151.58-.337v-1.345a.29.29 0 0 0-.174-.244m0 4.037a.86.86 0 0 0-.406-.104c-.314 0-.58.15-.58.336v1.346a.29.29 0 0 0 .173.243c.13.066.273.098.418.093.325 0 .58-.15.58-.336v-1.346a.313.313 0 0 0-.173-.232m0 4.037a.813.813 0 0 0-.407-.093c-.313 0-.58.15-.569.336v1.346a.29.29 0 0 0 .174.244.813.813 0 0 0 .407.092c.313 0 .58-.15.569-.336v-1.346a.278.278 0 0 0-.163-.232M166.691 451.6a.906.906 0 0 0-.824 0l-1.638.95c-.22.128-.22.337 0 .476a.906.906 0 0 0 .825 0l1.637-.95a.255.255 0 0 0 0-.476M41.296 381.072a.848.848 0 0 0-.418-.093c-.325 0-.58.15-.58.336v1.346a.29.29 0 0 0 .174.243c.129.067.273.099.418.093.325 0 .58-.15.58-.336v-1.346a.29.29 0 0 0-.174-.243m120.507 73.381a.906.906 0 0 0-.825 0l-1.637.951a.255.255 0 0 0 0 .476.906.906 0 0 0 .825 0l1.637-.951c.22-.128.22-.337 0-.476M41.993 385.04a.813.813 0 0 0-.407-.093c-.313 0-.58.15-.568.336v1.346c.007.101.07.19.162.232a.813.813 0 0 0 .406.093c.314 0 .581-.151.57-.337v-1.345a.29.29 0 0 0-.175-.244m0 4.037a.848.848 0 0 0-.418-.093c-.325 0-.58.151-.569.337v1.345a.313.313 0 0 0 .174.232.86.86 0 0 0 .407.105c.313 0 .58-.151.58-.337v-1.345a.29.29 0 0 0-.174-.244m115.56 68.162a.906.906 0 0 0-.824 0l-1.637.95a.255.255 0 0 0 0 .476.906.906 0 0 0 .825 0l1.637-.95a.255.255 0 0 0 0-.476m-115.55-64.137a.86.86 0 0 0-.406-.104c-.313 0-.58.15-.58.336v1.346c.008.1.07.19.162.232.13.066.273.098.418.093.326 0 .581-.151.581-.337v-1.345a.313.313 0 0 0-.174-.232m110.637 66.978a.906.906 0 0 0-.824 0l-1.637.951c-.22.128-.22.337 0 .476a.906.906 0 0 0 .824 0l1.637-.951a.255.255 0 0 0 0-.476M42.028 397.103a.813.813 0 0 0-.407-.093c-.313 0-.58.15-.569.336v1.346a.29.29 0 0 0 .175.244.813.813 0 0 0 .406.092c.313 0 .58-.15.569-.336v-1.346a.278.278 0 0 0-.163-.232m0 4.026a.848.848 0 0 0-.418-.093c-.313 0-.58.15-.58.336v1.346a.29.29 0 0 0 .174.243c.129.067.273.099.418.093.325 0 .58-.15.58-.336v-1.369a.29.29 0 0 0-.174-.244m105.657 61.77a.906.906 0 0 0-.824 0l-1.638.952a.255.255 0 0 0 0 .475.906.906 0 0 0 .825 0l1.637-.951c.22-.128.22-.336 0-.476M42.039 405.142a.813.813 0 0 0-.406-.093c-.314 0-.58.15-.569.336v1.346c.008.1.07.19.163.232a.813.813 0 0 0 .406.093c.313 0 .58-.151.569-.337v-1.345a.29.29 0 0 0-.174-.244m100.745 60.587a.906.906 0 0 0-.824 0l-1.637.951a.255.255 0 0 0 0 .476.906.906 0 0 0 .824 0l1.637-.952a.255.255 0 0 0 0-.475m-100.63-56.48a.848.848 0 0 0-.417-.093c-.325 0-.58.15-.58.336v1.346a.313.313 0 0 0 .173.232.86.86 0 0 0 .407.104c.313 0 .58-.15.58-.336v-1.346a.29.29 0 0 0-.174-.244m0 4.037a.86.86 0 0 0-.406-.104c-.314 0-.58.15-.58.336v1.346c.007.1.07.19.162.232.129.066.273.098.418.093.325 0 .58-.151.58-.337v-1.345a.302.302 0 0 0-.174-.232m95.8 55.378a.906.906 0 0 0-.825 0l-1.637.951c-.22.128-.22.337 0 .476a.906.906 0 0 0 .824 0l1.637-.951a.255.255 0 0 0 0-.476m-95.764-51.342a.848.848 0 0 0-.418-.092c-.313 0-.58.15-.569.336v1.346a.29.29 0 0 0 .174.243c.13.066.273.098.418.093.314 0 .57-.15.57-.336v-1.346a.278.278 0 0 0-.163-.232m90.853 54.195a.906.906 0 0 0-.825 0l-1.637.951a.255.255 0 0 0 0 .476.906.906 0 0 0 .825 0l1.637-.951c.22-.128.22-.337 0-.476m-90.83-50.17a.848.848 0 0 0-.418-.093c-.314 0-.58.151-.58.337v1.345a.29.29 0 0 0 .173.244c.13.066.273.098.418.093.326 0 .581-.151.581-.337v-1.345a.29.29 0 0 0-.174-.244m85.918 53.012a.906.906 0 0 0-.824 0l-1.637.951a.255.255 0 0 0 0 .476.906.906 0 0 0 .824 0l1.637-.951a.255.255 0 0 0 0-.476M42.202 425.36a.813.813 0 0 0-.407-.092c-.313 0-.58.15-.568.336v1.276c.007.101.07.19.162.232a.813.813 0 0 0 .406.093c.314 0 .581-.151.57-.337v-1.345a.278.278 0 0 0-.163-.232m0 4.025a.848.848 0 0 0-.418-.093c-.325 0-.58.151-.58.337v1.345a.313.313 0 0 0 .173.232.86.86 0 0 0 .407.105c.313 0 .58-.151.58-.337v-1.345a.29.29 0 0 0-.174-.244m80.961 47.804a.906.906 0 0 0-.824 0l-1.29.754-.336.185c-.232.128-.244.337 0 .476.25.122.54.122.79 0l.371-.197 1.29-.754a.255.255 0 0 0 0-.476M42.247 433.33a.848.848 0 0 0-.44-.105c-.314 0-.57.163-.547.348.072.481.173.958.302 1.427a.313.313 0 0 0 .163.197.86.86 0 0 0 .476.093c.325 0 .557-.186.51-.371a10.095 10.095 0 0 1-.185-1.323.313.313 0 0 0-.174-.22m75.283 46.052a.906.906 0 0 0-.592-.081c-.714.125-1.436.206-2.16.243-.313 0-.545.174-.522.36.026.091.09.167.174.209a.883.883 0 0 0 .464.104 19.302 19.302 0 0 0 2.392-.278c.302 0 .476-.244.383-.418a.383.383 0 0 0-.139-.139m-74.25-42.073a.895.895 0 0 0-.557-.093c-.302 0-.5.232-.407.406.198.448.418.886.662 1.31a.36.36 0 0 0 .14.128.906.906 0 0 0 .592.082c.302 0 .464-.244.371-.418-.238-.408-.45-.83-.638-1.264a.383.383 0 0 0-.163-.151m2.392 3.781a.906.906 0 0 0-.662-.07c-.29.082-.418.28-.267.453.337.406.708.812 1.161 1.16l.093.07a.918.918 0 0 0 .697 0c.278-.093.371-.29.209-.453a24.262 24.262 0 0 1-1.069-1.16l-.104-.092m65.02 38.222a.732.732 0 0 0-.21-.082c-.67-.138-1.33-.324-1.973-.556a.871.871 0 0 0-.801.104c-.151.14-.093.313.092.418h.093c.72.256 1.458.46 2.206.614a.755.755 0 0 0 .743-.208c.082-.128 0-.267-.139-.348m-61.35-34.8a.93.93 0 0 0-.767 0c-.255.116-.29.324-.104.475.487.36.975.72 1.498 1.056.249.12.54.12.789 0 .244-.128.267-.337 0-.476-.5-.336-.987-.673-1.451-1.02m55.73 32.48l-1.648-.952a.906.906 0 0 0-.824 0 .255.255 0 0 0 0 .476l1.648.951a.895.895 0 0 0 .825 0 .244.244 0 0 0 0-.476m-4.946-2.853l-1.65-.951a.906.906 0 0 0-.824 0 .255.255 0 0 0 0 .475l1.65.951a.906.906 0 0 0 .824 0c.22-.127.22-.336 0-.475m-4.935-2.854l-1.649-.951a.906.906 0 0 0-.812 0 .255.255 0 0 0 0 .476l1.648.95a.906.906 0 0 0 .825 0 .255.255 0 0 0 0-.475m-5.016-2.726l-1.649-.951a.906.906 0 0 0-.824 0 .255.255 0 0 0 0 .476l1.649.95a.895.895 0 0 0 .824 0 .244.244 0 0 0 0-.475m-4.946-2.853l-1.649-.952a.906.906 0 0 0-.824 0 .255.255 0 0 0 0 .476l1.648.951a.906.906 0 0 0 .825 0c.22-.127.22-.336 0-.475m-4.9-2.796l-1.649-.951a.906.906 0 0 0-.812 0 .255.255 0 0 0 0 .475l1.648.952a.906.906 0 0 0 .825 0 .255.255 0 0 0 0-.476m-4.946-2.854l-1.65-.95a.906.906 0 0 0-.824 0 .255.255 0 0 0 0 .475l1.65.951a.895.895 0 0 0 .824 0 .244.244 0 0 0 0-.476m-4.958-2.946l-1.649-.951a.906.906 0 0 0-.824 0 .255.255 0 0 0 0 .475l1.648.952a.906.906 0 0 0 .825 0c.22-.128.22-.337 0-.476m-4.935-2.854l-1.648-.95a.906.906 0 0 0-.813 0 .255.255 0 0 0 0 .475l1.59 1.009a.906.906 0 0 0 .825 0 .255.255 0 0 0 0-.476m-4.946-2.853l-1.649-.951a.906.906 0 0 0-.824 0 .255.255 0 0 0 0 .475l1.648.951a.895.895 0 0 0 .825 0 .244.244 0 0 0 0-.475m-4.946-2.854l-1.65-.951a.906.906 0 0 0-.823 0 .255.255 0 0 0 0 .476l1.648.95a.906.906 0 0 0 .825 0c.22-.127.22-.336 0-.475M41.285 256.36a.848.848 0 0 0-.418-.093c-.325 0-.58.151-.58.337v1.044c.007.1.07.19.162.232a.813.813 0 0 0 .406.092c.313 0 .58-.15.569-.336v-1.044a.29.29 0 0 0-.174-.244" fill="#BCBCBC" fill-rule="nonzero"/>
        <path d="M487.04 368.544L266.914 496.48a13.537 13.537 0 0 1-12.284 0l-135.59-78.81a3.782 3.782 0 0 1 0-7.146l220.138-127.878a13.537 13.537 0 0 1 12.296 0l135.577 78.752a3.782 3.782 0 0 1 0 7.146h-.011z" fill="#000" fill-rule="nonzero" opacity=".15"/>
        <path d="M346.145 131.173a5.357 5.357 0 0 0-4.842.499l-220.114 127.89a10.088 10.088 0 0 0-4.459 10.44l38.861 158.038a5.625 5.625 0 0 0 2.125 3.318l2.682 1.577c.206.135.424.252.65.348 1.6.62 3.401.434 4.842-.499l220.137-127.843a10.088 10.088 0 0 0 4.447-10.44l-38.907-158.073a5.51 5.51 0 0 0-2.496-3.562l-2.926-1.693z" fill="#DBDDDD" fill-rule="nonzero"/>
        <path d="M390.474 294.478c.801 4.061-.962 8.2-4.447 10.44L165.901 432.819a5.043 5.043 0 0 1-4.844.5 5.035 5.035 0 0 1-3.004-3.829l-38.85-158.05A10.077 10.077 0 0 1 123.65 261l220.114-127.902a5.043 5.043 0 0 1 4.836-.49 5.035 5.035 0 0 1 3.002 3.82l38.872 158.05z" fill="#171719" fill-rule="nonzero"/>
        <path d="M119.807 265.547a9.574 9.574 0 0 0-.604 5.928l38.85 158.027a5.348 5.348 0 0 0 3.007 3.816 22.216 22.216 0 0 1-3.332-1.926 5.625 5.625 0 0 1-2.125-3.317l-38.861-158.039a9.55 9.55 0 0 1 .604-5.916l2.461 1.427z" opacity=".2" fill-rule="nonzero" fill="#000"/>
        <path d="M117.346 264.12a9.584 9.584 0 0 1 3.843-4.547L123.65 261a10.077 10.077 0 0 0-4.447 10.44l-2.461-1.427a9.55 9.55 0 0 1 .604-5.893z" fill="#FFF" fill-rule="nonzero"/>
        <path fill="#F5F5F5" fill-rule="nonzero" d="M345.959 143.272l37.305 151.809L163.66 422.658l-37.259-151.67z"/>
        <path fill="#10355D" fill-rule="nonzero" d="M347.608 149.93L128.004 277.518l-1.602-6.53L345.96 143.272z"/>
        <path d="M340.479 152.215l-.128-.568 3.704-2.17.15.557-3.726 2.181m-.349-1.38l-.139-.58 3.727-2.17.14.569-3.74 2.146m-.348-1.392l-.139-.568 3.727-2.181.14.58-3.716 2.169" fill="#FFF" fill-rule="nonzero"/>
        <path d="M131.987 270.582a.895.895 0 0 1 1.428.498c.116.72-.22 1.438-.848 1.81a.906.906 0 0 1-1.44-.476 1.809 1.809 0 0 1 .86-1.832" fill="#9FE813" fill-rule="nonzero"/>
        <path d="M136.236 268.122a.883.883 0 0 1 1.394.5 1.797 1.797 0 0 1-.86 1.82.906.906 0 0 1-1.428-.487 1.763 1.763 0 0 1 .86-1.821" fill="#FFE045" fill-rule="nonzero"/>
        <path d="M140.44 265.64a.895.895 0 0 1 1.416.487c.11.725-.23 1.444-.86 1.821a.906.906 0 0 1-1.428-.487 1.751 1.751 0 0 1 .848-1.81" fill="#FF4878" fill-rule="nonzero"/>
        <path d="M536.42 392.22a4.35 4.35 0 0 1-2.566 3.572L313.75 523.74a13.537 13.537 0 0 1-12.284 0L165.89 444.918a4.35 4.35 0 0 1-2.531-3.573v-4.907a4.339 4.339 0 0 1 2.542-3.572l220.126-127.879a13.549 13.549 0 0 1 12.296 0l135.53 78.753a4.35 4.35 0 0 1 2.532 3.572l.034 4.907z" fill="#DBDDDD" fill-rule="nonzero"/>
        <path d="M307.609 525.213c2.14.044 4.255-.463 6.142-1.473l220.103-127.948a4.35 4.35 0 0 0 2.53-3.573v-4.907a4.362 4.362 0 0 1-2.53 3.608L313.716 518.868a12.479 12.479 0 0 1-6.142 1.473l.035 4.872z" fill="#000" fill-rule="nonzero" opacity=".2"/>
        <path d="M307.609 525.213a12.467 12.467 0 0 1-6.142-1.473L165.89 444.918a4.35 4.35 0 0 1-2.531-3.573v-4.907a4.35 4.35 0 0 0 2.53 3.573l135.578 78.822a12.467 12.467 0 0 0 6.142 1.473" fill="#000" fill-rule="nonzero" opacity=".1"/>
        <path d="M413.23 411.8a9.04 9.04 0 0 0-8.185 0l-55.104 32.062c-2.252 1.311-2.252 3.48 0 4.768l31.546 18.363a9.017 9.017 0 0 0 8.197 0L444.824 435c2.252-1.31 2.252-3.48 0-4.768L413.23 411.8zM408.54 463.548a1.253 1.253 0 0 1 0-2.32l26.24-15.266a4.555 4.555 0 0 1 4.11 0l.174.104-30.35 17.644-.174-.162z" opacity=".08" fill-rule="nonzero" fill="#000"/>
        <path d="M439.03 446.008v.232a4.57 4.57 0 0 1-2.044 3.562l-26.205 15.265c-1.161.65-2.055.128-2.055-1.16v-.243l30.304-17.656z" opacity=".08" fill-rule="nonzero" fill="#000"/>
        <path fill="#000" fill-rule="nonzero" opacity=".3" d="M167.04 442.273l4.62 2.68v1.798l-4.62-2.691zM173.03 445.73l4.633 2.691v1.787l-4.633-2.68zM178.894 449.604l8.742 5.058v.905l-8.742-5.07z"/>
        <path d="M334.929 323.953a12.782 12.782 0 0 1 11.61 0l8.29 4.768c3.193 1.856 3.193 4.883 0 6.74l-136.448 79.181a12.782 12.782 0 0 1-11.61 0l-8.279-4.744c-3.193-1.856-3.193-4.884 0-6.74l136.437-79.205z" fill="#171719" fill-rule="nonzero"/>
        <path d="M224.129 424.363c.824.475.847 1.253 0 1.74l-9.765 5.672a3.335 3.335 0 0 1-3.019 0l-3.75-2.169a.928.928 0 0 1 0-1.74l9.765-5.672a3.3 3.3 0 0 1 3.007 0l3.762 2.169z" fill="#515151" fill-rule="nonzero"/>
        <g fill-rule="nonzero">
            <path d="M455.087 371.652c.836.488.836 1.253 0 1.729l-9.01 5.22a3.265 3.265 0 0 1-2.995 0l-3.901-2.25 11.993-6.96 3.913 2.261zM356.211 379.912a.916.916 0 0 1 0 1.728l-8.998 5.232a3.312 3.312 0 0 1-3.007 0l-7.327-4.223a.916.916 0 0 1 0-1.74l8.999-5.231a3.323 3.323 0 0 1 3.018 0l7.315 4.234zM327.881 396.337a.916.916 0 0 1 0 1.729l-8.998 5.231a3.3 3.3 0 0 1-2.996 0l-7.338-4.257a.916.916 0 0 1 0-1.74l8.999-5.22a3.335 3.335 0 0 1 3.018 0l7.315 4.257zM299.574 412.774c.836.476.825 1.253 0 1.729l-9.01 5.231a3.312 3.312 0 0 1-2.995 0l-7.326-4.222a.916.916 0 0 1 0-1.74l9.01-5.232a3.335 3.335 0 0 1 3.018 0l7.303 4.234zM209.557 432.82a.928.928 0 0 1 0 1.74l-9.764 5.672a3.335 3.335 0 0 1-3.019 0l-3.75-2.17a.916.916 0 0 1 0-1.74l9.764-5.672a3.335 3.335 0 0 1 3.02 0l3.75 2.17zM324.247 447.62a.916.916 0 0 1 0 1.73l-11.61 6.774c-.937.479-2.048.479-2.985 0l-7.326-4.223c-.847-.487-.847-1.253 0-1.728l11.61-6.775a3.335 3.335 0 0 1 3.02 0l7.291 4.223zM282.542 455.045a.916.916 0 0 1 0 1.74l-26.937 15.637a3.323 3.323 0 0 1-2.996 0l-7.326-4.223a.916.916 0 0 1 0-1.74l26.937-15.648a3.358 3.358 0 0 1 3.019 0l7.303 4.234zM293.305 465.59a.916.916 0 0 1 0 1.728l-8.999 5.231a3.3 3.3 0 0 1-3.007 0l-7.326-4.222a.916.916 0 0 1 0-1.74l9.01-5.232a3.335 3.335 0 0 1 3.019 0l7.303 4.234z" fill="#515151"/>
            <path d="M476.323 363.347c.836.475.847 1.253 0 1.74L270.142 484.81a3.335 3.335 0 0 1-3.02 0l-81.03-46.748a.916.916 0 0 1 0-1.74L392.297 316.6a3.265 3.265 0 0 1 3.007 0l81.019 46.748zM329.367 446.38l67.481-39.22c.825-.476.825-1.253 0-1.728l-7.326-4.223a3.277 3.277 0 0 0-2.996 0l-67.469 39.208c-.824.476-.836 1.253 0 1.74l7.326 4.223a3.312 3.312 0 0 0 2.996 0h-.012zm-73.762 26.042l26.937-15.637a.916.916 0 0 0 0-1.74l-7.327-4.223a3.358 3.358 0 0 0-3.018 0l-26.937 15.649a.916.916 0 0 0 0 1.74l7.326 4.222a3.323 3.323 0 0 0 2.996 0l.023-.011zM429.567 371.42l25.334-14.708c.825-.476.836-1.253 0-1.729l-7.326-4.222a3.335 3.335 0 0 0-3.019 0l-25.31 14.639c-.825.487-.814 1.253 0 1.74l7.325 4.222a3.3 3.3 0 0 0 2.984 0l.012.058zm-187.988 92.916l19.89-11.6a.928.928 0 0 0 0-1.74l-7.327-4.222a3.335 3.335 0 0 0-3.019 0l-19.889 11.6a.928.928 0 0 0 0 1.752l7.327 4.222c.948.481 2.07.481 3.018 0v-.012zm180.894-105.014l18.38-10.672a.928.928 0 0 0 0-1.74l-7.327-4.223a3.335 3.335 0 0 0-3.019 0l-18.38 10.672c-.835.476-.812 1.253 0 1.74l7.327 4.223a3.312 3.312 0 0 0 2.996 0h.023zm-25.335-17.679l15.721-9.129a.928.928 0 0 0 0-1.752l-7.326-4.222a3.335 3.335 0 0 0-3.019 0l-15.72 9.13a.916.916 0 0 0 0 1.74l7.326 4.222c.948.481 2.07.481 3.018 0v.011zM227.623 456.286l15.477-8.99c.836-.487.836-1.253 0-1.74l-7.326-4.222a3.3 3.3 0 0 0-3.019 0l-15.488 8.99a.916.916 0 0 0 0 1.74l7.326 4.222a3.312 3.312 0 0 0 3.007 0h.023zm84.944-.162l11.61-6.775a.916.916 0 0 0 0-1.728l-7.326-4.223a3.335 3.335 0 0 0-3.019 0l-11.61 6.775c-.825.475-.825 1.253 0 1.728l7.326 4.223c.937.479 2.047.479 2.984 0h.035zm89.042-51.725l11.61-6.763c.848-.487.836-1.252 0-1.74l-7.326-4.222a3.277 3.277 0 0 0-3.019 0l-11.61 6.763c-.825.475-.836 1.253 0 1.751l7.326 4.223a3.3 3.3 0 0 0 3.007 0l.012-.012zm6.536-36.795l9.022-5.243a.928.928 0 0 0 0-1.74l-7.327-4.223a3.358 3.358 0 0 0-3.018 0l-9.022 5.244a.928.928 0 0 0 0 1.74l7.327 4.222c.949.48 2.07.48 3.018 0zm-123.92 39.556l9.01-5.232a.928.928 0 0 0 0-1.74l-7.326-4.222a3.335 3.335 0 0 0-3.019 0l-9.01 5.232a.916.916 0 0 0 0 1.74l7.326 4.222c.95.478 2.07.478 3.02 0zm-28.306 16.472l9.01-5.22a.928.928 0 0 0 0-1.752l-7.327-4.222a3.3 3.3 0 0 0-3.019 0l-9.01 5.22a.928.928 0 0 0 0 1.752l7.304 4.222c.948.481 2.07.481 3.018 0h.024zm-28.307 16.426l9.01-5.22a.928.928 0 0 0 0-1.752l-7.327-4.222a3.335 3.335 0 0 0-3.018 0l-9.01 5.231a.928.928 0 0 0 0 1.74l7.326 4.223c.949.481 2.07.481 3.019 0zm141.475-82.14l8.998-5.232a.916.916 0 0 0 0-1.74l-7.326-4.222a3.312 3.312 0 0 0-3.019 0l-8.998 5.232a.916.916 0 0 0 0 1.74l7.326 4.222a3.37 3.37 0 0 0 3.02 0zm-70.72 41.122l9.01-5.232a.916.916 0 0 0 0-1.74l-7.327-4.222a3.335 3.335 0 0 0-3.018 0l-8.999 5.232a.916.916 0 0 0 0 1.74l7.327 4.222c.95.478 2.07.478 3.019 0h-.012zm-56.579 32.851l9.01-5.22a.928.928 0 0 0 0-1.751l-7.326-4.223a3.335 3.335 0 0 0-3.019 0l-9.01 5.232a.928.928 0 0 0 0 1.74l7.327 4.222c.948.482 2.07.482 3.018 0zm84.886-49.277l9.021-5.243a.916.916 0 0 0 0-1.74l-7.35-4.269a3.335 3.335 0 0 0-3.018 0l-9.022 5.244c-.824.475-.812 1.252 0 1.728l7.327 4.222a3.323 3.323 0 0 0 2.995 0l.047.058zm28.26-16.495l8.998-5.231a.916.916 0 0 0 0-1.74l-7.291-4.188a3.335 3.335 0 0 0-3.02 0l-9.02 5.208a.916.916 0 0 0 0 1.74l7.326 4.223c.949.48 2.07.48 3.018 0l-.011-.012zm-141.325 82.082l9.01-5.22a.928.928 0 0 0 0-1.752l-7.326-4.222a3.335 3.335 0 0 0-3.019 0l-8.998 5.22a.928.928 0 0 0 0 1.751l7.326 4.223c.949.481 2.07.481 3.019 0h-.012zm53.096 1.554l9.01-5.22a.928.928 0 0 0 0-1.751l-7.327-4.223a3.335 3.335 0 0 0-3.018 0l-9.01 5.22a.928.928 0 0 0 0 1.752l7.326 4.222c.949.482 2.07.482 3.019 0zM379.92 384.03l8.998-5.232a.916.916 0 0 0 0-1.74l-7.326-4.222a3.323 3.323 0 0 0-3.019 0l-8.998 5.231a.916.916 0 0 0 0 1.74l7.326 4.223c.95.477 2.07.477 3.019 0zm-42.437 24.638l8.987-5.22a.916.916 0 0 0 0-1.74l-7.327-4.222a3.312 3.312 0 0 0-3.018 0l-8.987 5.22a.928.928 0 0 0 0 1.751l7.326 4.223a3.37 3.37 0 0 0 3.03 0l-.01-.012zm28.295-16.414l9.01-5.232a.916.916 0 0 0 0-1.74l-7.326-4.222a3.335 3.335 0 0 0-3.019 0l-9.021 5.22c-.836.487-.825 1.264 0 1.74l7.326 4.222c.948.484 2.07.484 3.019 0l.011.012zm-42.46 24.638l8.998-5.231a.916.916 0 0 0 0-1.74l-7.326-4.223a3.312 3.312 0 0 0-3.019 0l-8.998 5.232a.916.916 0 0 0 0 1.74l7.326 4.222c.95.478 2.07.478 3.02 0zm-14.142 8.213l9.01-5.231a.928.928 0 0 0 0-1.74l-7.326-4.223a3.335 3.335 0 0 0-3.019 0l-8.998 5.232a.928.928 0 0 0 0 1.74l7.326 4.222c.95.478 2.07.478 3.019 0h-.012zm3.344-34.313l8.999-5.231a.916.916 0 0 0 0-1.74l-7.327-4.223a3.312 3.312 0 0 0-3.019 0l-8.998 5.232c-.824.476-.8 1.253 0 1.728l7.327 4.223a3.335 3.335 0 0 0 3.007 0l.011.011zm28.295-16.448l8.999-5.232c.824-.476.812-1.253 0-1.728l-7.327-4.223a3.3 3.3 0 0 0-3.007 0l-9.01 5.232a.916.916 0 0 0 0 1.74l7.327 4.222c.949.478 2.069.478 3.018 0v-.011zm42.449-24.639l9.01-5.231c.824-.476.812-1.253 0-1.729l-7.327-4.222a3.288 3.288 0 0 0-2.995 0l-8.998 5.231a.916.916 0 0 0 0 1.74l7.326 4.223a3.312 3.312 0 0 0 3.019 0l-.035-.012zm-113.146 65.726l9.01-5.232c.824-.475.813-1.253 0-1.74l-7.326-4.222a3.3 3.3 0 0 0-3.007 0l-9.057 5.243c-.836.487-.824 1.264 0 1.74l7.327 4.222c.948.482 2.07.482 3.018 0l.035-.011zm24.917 17.899l8.998-5.232c.824-.476.813-1.253 0-1.74l-7.326-4.222a3.3 3.3 0 0 0-3.008 0l-8.998 5.231c-.847.487-.824 1.265 0 1.74l7.327 4.223c.948.483 2.07.483 3.018 0h-.011zm-14.154 8.212l9.022-5.231c.824-.476.813-1.253 0-1.74l-7.35-4.211a3.312 3.312 0 0 0-3.007 0l-9.021 5.243c-.825.476-.813 1.253 0 1.729l7.326 4.222c.945.48 2.062.48 3.007 0l.023-.012zm113.18-65.702l9.022-5.243a.916.916 0 0 0 0-1.729l-7.396-4.257a3.335 3.335 0 0 0-3.007 0l-9.021 5.243c-.825.476-.813 1.253 0 1.729l7.384 4.257c.945.48 2.062.48 3.007 0h.012zm-42.448 24.638l9.01-5.231c.824-.487.813-1.265 0-1.74l-7.326-4.223a3.3 3.3 0 0 0-3.007 0l-9.01 5.232a.916.916 0 0 0 0 1.74l7.326 4.222c.95.48 2.07.48 3.019 0h-.012zm49.357-12.435l8.998-5.22a.916.916 0 0 0 0-1.74l-7.314-4.257a3.335 3.335 0 0 0-3.02 0l-8.997 5.22a.928.928 0 0 0 0 1.752l7.372 4.222a3.312 3.312 0 0 0 3.007 0l-.046.023zm-42.437 24.615l9.01-5.22a.916.916 0 0 0 0-1.74l-7.326-4.222a3.37 3.37 0 0 0-3.02 0l-8.997 5.232a.928.928 0 0 0 0 1.74l7.326 4.222a3.3 3.3 0 0 0 3.007 0v-.012zm-56.59 32.875l8.998-5.232a.916.916 0 0 0 0-1.728l-7.326-4.223a3.37 3.37 0 0 0-3.019 0l-8.998 5.232a.916.916 0 0 0 0 1.74l7.326 4.222a3.3 3.3 0 0 0 2.996 0l.023-.011zm28.283-16.426l8.999-5.22a.916.916 0 0 0 0-1.74l-7.327-4.222a3.358 3.358 0 0 0-3.018 0l-8.999 5.231c-.847.488-.824 1.265 0 1.74l7.315 4.223a3.277 3.277 0 0 0 3.007 0l.023-.012zm14.119-8.201l9.01-5.232a.916.916 0 0 0 0-1.74l-7.326-4.222a3.37 3.37 0 0 0-3.02 0l-9.01 5.232a.928.928 0 0 0 0 1.751l7.327 4.223a3.312 3.312 0 0 0 3.007 0l.012-.012zm42.437-24.638l8.998-5.22a.916.916 0 0 0 0-1.74l-7.326-4.223a3.335 3.335 0 0 0-3.019 0l-9.01 5.22a.928.928 0 0 0 0 1.752l7.326 4.222a3.277 3.277 0 0 0 3.008 0l.023-.011zm28.26-16.414l9.01-5.22a.916.916 0 0 0 0-1.74l-7.326-4.223a3.335 3.335 0 0 0-3.02 0l-9.009 5.22a.928.928 0 0 0 0 1.752l7.326 4.222a3.3 3.3 0 0 0 2.996 0l.023-.011zm-42.472 24.661l9.022-5.231a.916.916 0 0 0 0-1.729l-7.234-4.315a3.347 3.347 0 0 0-2.995 0l-9.022 5.232a.928.928 0 0 0 0 1.751l7.327 4.223a3.3 3.3 0 0 0 3.007 0l-.105.07zm-124.477 39.881l8.998-5.22a.916.916 0 0 0 0-1.74l-7.326-4.222a3.335 3.335 0 0 0-3.019 0l-8.963 5.266a.928.928 0 0 0 0 1.752l7.314 4.222a3.3 3.3 0 0 0 3.008 0l-.012-.058zm36.213 28.211l8.999-5.231a.916.916 0 0 0 0-1.729l-7.327-4.222a3.335 3.335 0 0 0-3.018 0l-9.01 5.231a.916.916 0 0 0 0 1.74l7.326 4.223a3.3 3.3 0 0 0 3.007 0l.023-.012zm161.771-93.948l9.01-5.22c.824-.476.824-1.241 0-1.729l-3.901-2.25-3.402-1.984a3.3 3.3 0 0 0-3.019 0l-9.01 5.22c-.836.488-.836 1.265 0 1.752l3.426 1.972 3.9 2.25c.94.485 2.057.485 2.996 0v-.011zm-175.97 102.126l9.01-5.231a.916.916 0 0 0 0-1.74l-7.327-4.223a3.288 3.288 0 0 0-3.019 0l-9.01 5.232c-.824.475-.835 1.253 0 1.74l7.327 4.222a3.312 3.312 0 0 0 2.995 0h.024zm28.306-16.449l9.01-5.231a.916.916 0 0 0 0-1.729l-7.326-4.222a3.323 3.323 0 0 0-3.019 0l-9.01 5.232a.916.916 0 0 0 0 1.74l7.327 4.222a3.3 3.3 0 0 0 3.007 0l.011-.012zm91.167-102.068l8.998-5.232a.916.916 0 0 0 0-1.728l-7.326-4.222a3.37 3.37 0 0 0-3.019 0l-9.01 5.231a.916.916 0 0 0 0 1.74l7.327 4.223a3.277 3.277 0 0 0 3.007 0l.023-.012zm-42.472 24.662l9.103-5.29a.916.916 0 0 0 0-1.728l-7.326-4.223a3.323 3.323 0 0 0-3.019 0l-8.998 5.232a.916.916 0 0 0 0 1.74l7.326 4.222a3.312 3.312 0 0 0 3.007 0l-.093.047zm-28.202 16.379l8.998-5.232a.916.916 0 0 0 0-1.728l-7.338-4.269a3.335 3.335 0 0 0-3.018 0l-9.01 5.232a.916.916 0 0 0 0 1.74l7.326 4.222a3.3 3.3 0 0 0 2.996 0l.046.035zm99.27-8.526l9.022-5.232a.916.916 0 0 0 0-1.74l-7.326-4.222a3.3 3.3 0 0 0-3.019 0l-9.021 5.231c-.813.476-.824 1.253 0 1.74l7.326 4.223a3.3 3.3 0 0 0 2.984 0h.035zm-14.466-40.786l8.998-5.231a.916.916 0 0 0 0-1.729l-7.326-4.222a3.358 3.358 0 0 0-3.019 0L393.365 348a.916.916 0 0 0 0 1.74l7.326 4.222a3.3 3.3 0 0 0 3.007 0l.012.035zm-99.05 57.467l9.01-5.232a.916.916 0 0 0 0-1.728l-7.327-4.223a3.347 3.347 0 0 0-3.018 0l-8.999 5.232a.916.916 0 0 0 0 1.74l7.327 4.222a3.312 3.312 0 0 0 3.007 0v-.011zm56.59-32.852l9.022-5.243a.916.916 0 0 0 0-1.728l-7.327-4.223a3.347 3.347 0 0 0-3.007 0l-9.021 5.244a.916.916 0 0 0 0 1.74l7.326 4.222a3.3 3.3 0 0 0 3.007 0v-.012zM290.518 419.7l9.01-5.232c.824-.476.836-1.253 0-1.728l-7.326-4.223a3.335 3.335 0 0 0-3.02 0l-9.009 5.232a.916.916 0 0 0 0 1.74l7.326 4.222a3.312 3.312 0 0 0 2.996 0l.023-.011zm-14.165 8.224l9.01-5.232a.916.916 0 0 0 0-1.728l-7.326-4.222a3.335 3.335 0 0 0-3.019 0l-9.01 5.231a.928.928 0 0 0 0 1.74l7.326 4.223a3.312 3.312 0 0 0 2.996 0l.023-.012zm11.355 25.822l8.999-5.232a.905.905 0 0 0 0-1.728l-7.327-4.223a3.3 3.3 0 0 0-3.007 0l-8.952 5.197c-.836.487-.824 1.264 0 1.74l7.327 4.222a3.3 3.3 0 0 0 2.995 0l-.035.024zm28.377-16.426l9.021-5.232c.825-.475.825-1.252 0-1.728l-7.326-4.222a3.335 3.335 0 0 0-3.007 0l-9.022 5.243c-.824.475-.812 1.253 0 1.74l7.327 4.222a3.265 3.265 0 0 0 2.984 0l.023-.023zm101.79-91.478l9.01-5.231a.916.916 0 0 0 0-1.729l-7.326-4.222a3.358 3.358 0 0 0-3.02 0l-8.974 5.22c-.825.476-.813 1.253 0 1.74l7.326 4.222a3.265 3.265 0 0 0 2.984 0zM262.281 436.16l9.01-5.232a.916.916 0 0 0 0-1.728l-7.326-4.222a3.3 3.3 0 0 0-2.996 0l-9.01 5.231c-.836.487-.824 1.265 0 1.74l7.327 4.223c.94.48 2.055.48 2.995 0v-.012zm113.169-65.69l9.021-5.244c.825-.476.825-1.241 0-1.728l-7.36-4.234a3.312 3.312 0 0 0-3.008 0l-9.021 5.243c-.825.475-.813 1.253 0 1.728l7.326 4.223c.937.479 2.047.479 2.984 0l.058.011zm-42.46 24.614l8.998-5.231c.824-.476.824-1.241 0-1.729l-7.303-4.164a3.323 3.323 0 0 0-3.007 0l-8.998 5.232c-.836.487-.825 1.264 0 1.74l7.326 4.222c.94.483 2.055.483 2.995 0l-.011-.07zm-133.197 45.148l9.764-5.673a.928.928 0 0 0 0-1.74l-3.75-2.169a3.335 3.335 0 0 0-3.019 0l-9.764 5.672a.916.916 0 0 0 0 1.74l3.75 2.17c.949.481 2.07.481 3.019 0zm58.32-33.86l9.753-5.662c.836-.487.824-1.264 0-1.74l-3.75-2.169a3.3 3.3 0 0 0-3.02 0l-9.752 5.661a.928.928 0 0 0 0 1.74l3.75 2.17c.949.48 2.07.48 3.019 0zm87.463-50.786l9.764-5.672c.825-.476.801-1.253 0-1.74l-3.773-2.158a3.312 3.312 0 0 0-3.007 0l-9.765 5.661a.928.928 0 0 0 0 1.752l3.75 2.169c.95.48 2.07.48 3.02 0l.01-.012zM243.588 414.84l9.753-5.66a.928.928 0 0 0 0-1.74l-3.75-2.17a3.335 3.335 0 0 0-3.019 0l-9.753 5.661a.928.928 0 0 0 0 1.74l3.75 2.158c.949.481 2.07.481 3.019 0v.011zm43.737-25.404l9.753-5.66a.928.928 0 0 0 0-1.752l-3.75-2.17a3.37 3.37 0 0 0-3.019 0l-9.753 5.661a.928.928 0 0 0 0 1.752l3.75 2.17c.949.48 2.07.48 3.02 0zm14.572-8.456l9.764-5.673a.916.916 0 0 0 0-1.74l-3.75-2.169a3.335 3.335 0 0 0-3.019 0l-9.764 5.673c-.825.475-.813 1.252 0 1.74l3.75 2.169a3.3 3.3 0 0 0 3.007 0h.012zm-87.475 50.785l9.765-5.673c.824-.475.8-1.253 0-1.74l-3.82-2.111a3.3 3.3 0 0 0-3.007 0l-9.765 5.614a.928.928 0 0 0 0 1.74l3.75 2.17c.949.481 2.07.481 3.02 0h.057zm174.89-101.57l9.754-5.66a.928.928 0 0 0 0-1.752l-3.75-2.17a3.335 3.335 0 0 0-3.02 0l-9.752 5.661a.928.928 0 0 0 0 1.752l3.75 2.169c.95.478 2.07.478 3.019 0zm-14.524 8.468l9.753-5.66a.916.916 0 0 0 0-1.74l-3.75-2.17a3.335 3.335 0 0 0-3.019 0l-9.753 5.66a.916.916 0 0 0 0 1.74l3.75 2.17c.949.481 2.07.481 3.019 0zm-14.583 8.468l9.753-5.66c.836-.488.824-1.265 0-1.74l-3.797-2.17a3.3 3.3 0 0 0-3.018 0l-9.753 5.66a.928.928 0 0 0 0 1.752l3.75 2.17c.948.483 2.07.483 3.019 0l.046-.012zm-43.784 25.404l9.777-5.672a.916.916 0 0 0 0-1.74l-3.75-2.17a3.323 3.323 0 0 0-3.02 0l-9.764 5.673a.916.916 0 0 0 0 1.728l3.75 2.17a3.323 3.323 0 0 0 2.996 0l.011.011zm-87.462 50.773l9.776-5.672a.916.916 0 0 0 0-1.74l-3.75-2.17a3.358 3.358 0 0 0-3.008 0l-9.764 5.673a.928.928 0 0 0 0 1.752l3.75 2.169c.949.481 2.07.481 3.019 0l-.023-.012zm43.737-25.427l9.753-5.66a.928.928 0 0 0 0-1.752l-3.75-2.17a3.335 3.335 0 0 0-3.02 0l-9.752 5.661a.916.916 0 0 0 0 1.74l3.75 2.17c.95.477 2.07.477 3.019 0v.011zm58.308-33.872l9.765-5.568c.824-.476.801-1.253 0-1.74l-3.75-2.17a3.3 3.3 0 0 0-3.007 0l-9.765 5.673c-.824.476-.813 1.253 0 1.74l3.75 2.17c.945.479 2.062.479 3.007 0v-.105zm101.512 22.55l9.01-5.231c.824-.476.836-1.253 0-1.729l-2.392-1.438a3.323 3.323 0 0 0-3.019 0l-9.01 5.232a.916.916 0 0 0 0 1.74l2.392 1.38a3.312 3.312 0 0 0 2.996 0l.023.046zm27.842-16.228l8.999-5.232a.916.916 0 0 0 0-1.74L467 361.92a3.335 3.335 0 0 0-3.02 0l-8.997 5.232c-.825.475-.825 1.252 0 1.728l2.391 1.38a3.3 3.3 0 0 0 2.984 0v.07z" fill="#000" opacity=".08"/>
            <path d="M399.066 322.782a.928.928 0 0 1 0 1.751l-9.753 5.661c-.95.478-2.07.478-3.019 0l-3.75-2.17a.928.928 0 0 1 0-1.75l9.753-5.662a3.335 3.335 0 0 1 3.019 0l3.75 2.17zM384.495 331.25a.916.916 0 0 1 0 1.74l-9.753 5.66a3.335 3.335 0 0 1-3.02 0l-3.75-2.169a.916.916 0 0 1 0-1.74l9.754-5.66a3.335 3.335 0 0 1 3.018 0l3.75 2.169zM412.882 330.75a.928.928 0 0 1 0 1.752l-15.72 9.13a3.335 3.335 0 0 1-3.02 0l-7.325-4.223a.928.928 0 0 1 0-1.751l15.72-9.13a3.335 3.335 0 0 1 3.02 0l7.325 4.223zM426.908 338.848a.916.916 0 0 1 0 1.728l-9.01 5.232a3.265 3.265 0 0 1-2.984 0l-7.326-4.223c-.836-.475-.848-1.253 0-1.74l8.998-5.231a3.358 3.358 0 0 1 3.019 0l7.303 4.234zM369.912 339.718c.824.475.847 1.252 0 1.74l-9.753 5.66a3.323 3.323 0 0 1-3.02 0l-3.75-2.169a.928.928 0 0 1 0-1.751l9.788-5.638a3.3 3.3 0 0 1 3.02 0l3.715 2.158zM392.204 342.734c.836.475.848 1.252 0 1.728l-9.01 5.232a3.312 3.312 0 0 1-3.019 0l-7.326-4.223a.916.916 0 0 1 0-1.74l8.998-5.231a3.3 3.3 0 0 1 2.996 0l7.361 4.234zM412.766 347.049a.916.916 0 0 1 0 1.728l-8.998 5.232a3.3 3.3 0 0 1-3.007 0l-7.326-4.223a.916.916 0 0 1 0-1.74l8.998-5.231a3.358 3.358 0 0 1 3.019 0l7.314 4.234zM355.329 348.174c.836.487.847 1.253 0 1.74l-9.765 5.672c-.949.48-2.07.48-3.019 0l-3.75-2.157a.928.928 0 0 1 0-1.752l9.765-5.672a3.335 3.335 0 0 1 3.007 0l3.762 2.169zM378.097 350.946a.916.916 0 0 1 0 1.74l-8.998 5.232a3.37 3.37 0 0 1-3.019 0l-7.326-4.222a.916.916 0 0 1 0-1.74l8.998-5.232a3.312 3.312 0 0 1 3.019 0l7.326 4.222zM440.852 346.84a.928.928 0 0 1 0 1.74l-18.38 10.672a3.312 3.312 0 0 1-2.995 0l-7.326-4.222c-.836-.476-.86-1.253 0-1.74l18.368-10.626a3.335 3.335 0 0 1 3.019 0l7.314 4.176zM398.625 355.262a.916.916 0 0 1 0 1.728l-9.01 5.232a3.277 3.277 0 0 1-3.007 0l-7.327-4.223a.916.916 0 0 1 0-1.74l9.01-5.231a3.37 3.37 0 0 1 3.019 0l7.315 4.234zM340.746 356.642c.836.476.847 1.253 0 1.74l-9.765 5.672a3.335 3.335 0 0 1-3.007 0l-3.727-2.134c-.836-.476-.848-1.253 0-1.74l9.765-5.672a3.3 3.3 0 0 1 3.007 0l3.727 2.134zM363.955 359.16a.916.916 0 0 1 0 1.74l-8.998 5.23c-.949.48-2.07.48-3.019 0l-7.338-4.21a.916.916 0 0 1 0-1.74l9.01-5.232a3.335 3.335 0 0 1 3.019 0l7.326 4.211zM417.213 360.62a.928.928 0 0 1 0 1.74l-9.021 5.244c-.95.48-2.07.48-3.019 0l-7.326-4.222a.928.928 0 0 1 0-1.74l9.021-5.244a3.358 3.358 0 0 1 3.019 0l7.326 4.223zM469.391 363.347a.916.916 0 0 1 0 1.74l-8.998 5.231a3.3 3.3 0 0 1-2.984 0l-2.403-1.438c-.848-.487-.848-1.253 0-1.728l8.998-5.232a3.335 3.335 0 0 1 3.019 0l2.368 1.427zM384.46 363.486c.836.476.836 1.253 0 1.728l-9.022 5.244c-.937.479-2.047.479-2.984 0l-7.326-4.223c-.836-.475-.848-1.253 0-1.728l9.021-5.243a3.312 3.312 0 0 1 3.008 0l7.303 4.222zM454.901 354.96c.825.476.825 1.253 0 1.728l-25.3 14.686a3.3 3.3 0 0 1-2.983 0l-7.326-4.222c-.836-.476-.848-1.253 0-1.74l25.3-14.686a3.335 3.335 0 0 1 3.018 0l7.291 4.234zM326.186 365.098a.916.916 0 0 1 0 1.74l-9.776 5.673a3.323 3.323 0 0 1-2.996 0l-3.75-2.17a.916.916 0 0 1 0-1.728l9.765-5.672a3.323 3.323 0 0 1 3.018 0l3.739 2.157zM349.79 367.384c.836.475.848 1.252 0 1.728l-8.998 5.232c-.95.477-2.07.477-3.019 0l-7.326-4.223a.916.916 0 0 1 0-1.74l9.01-5.231a3.3 3.3 0 0 1 3.007 0l7.326 4.234zM451.198 369.39l-12.006 6.96-3.425-1.972c-.848-.487-.848-1.252 0-1.751l9.01-5.22a3.3 3.3 0 0 1 3.019 0l3.402 1.983zM403.06 368.88a.916.916 0 0 1 0 1.728l-8.998 5.232c-.945.48-2.063.48-3.007 0l-7.327-4.222c-.836-.476-.847-1.253 0-1.729l9.022-5.243a3.335 3.335 0 0 1 3.007 0l7.303 4.234zM370.318 371.699a.916.916 0 0 1 0 1.728l-9.022 5.243a3.3 3.3 0 0 1-3.007 0l-7.326-4.222a.916.916 0 0 1 0-1.74l9.021-5.243a3.347 3.347 0 0 1 3.008 0l7.326 4.234zM424.133 372.836a.916.916 0 0 1 0 1.74l-9.01 5.22a3.3 3.3 0 0 1-2.995 0l-7.327-4.223a.928.928 0 0 1 0-1.751l9.01-5.22a3.335 3.335 0 0 1 3.02 0l7.302 4.234zM311.603 373.52a.916.916 0 0 1 0 1.74l-9.764 5.672a3.3 3.3 0 0 1-3.008 0l-3.75-2.169c-.836-.475-.847-1.253 0-1.74l9.765-5.672a3.335 3.335 0 0 1 3.018 0l3.739 2.169zM335.672 375.585a.916.916 0 0 1 0 1.74l-9.022 5.243a3.323 3.323 0 0 1-2.995 0l-7.326-4.222c-.836-.476-.848-1.253 0-1.729l9.021-5.243a3.335 3.335 0 0 1 3.019 0l7.303 4.21zM388.907 377a.916.916 0 0 1 0 1.74l-8.999 5.232c-.95.477-2.069.477-3.018 0l-7.327-4.223a.916.916 0 0 1 0-1.74l8.998-5.231a3.323 3.323 0 0 1 3.02 0l7.326 4.222zM441.526 379.529c.836.475.824 1.253 0 1.728l-9.01 5.232a3.312 3.312 0 0 1-2.996 0l-2.403-1.369a.916.916 0 0 1 0-1.74l9.01-5.232a3.323 3.323 0 0 1 3.019 0l2.38 1.38zM409.98 381.048a.916.916 0 0 1 0 1.74l-8.998 5.22a3.312 3.312 0 0 1-3.008 0l-7.326-4.222a.928.928 0 0 1 0-1.752l8.998-5.22a3.335 3.335 0 0 1 3.02 0l7.314 4.234zM296.997 382.034a.928.928 0 0 1 0 1.752l-9.753 5.66a3.335 3.335 0 0 1-3.019 0l-3.75-2.168a.928.928 0 0 1 0-1.752l9.753-5.66a3.37 3.37 0 0 1 3.019 0l3.75 2.168zM321.507 383.81a.916.916 0 0 1 0 1.74l-8.998 5.23a3.335 3.335 0 0 1-3.007 0l-7.327-4.222c-.836-.475-.847-1.252 0-1.728l8.998-5.232a3.312 3.312 0 0 1 3.02 0l7.314 4.211zM374.788 385.26a.916.916 0 0 1 0 1.74l-9.01 5.23a3.323 3.323 0 0 1-3.019 0l-7.326-4.222c-.836-.475-.847-1.252 0-1.74l9.01-5.231a3.335 3.335 0 0 1 3.019 0l7.326 4.222zM427.21 387.834a.916.916 0 0 1 0 1.74l-9.021 5.232a3.3 3.3 0 0 1-2.984 0l-7.327-4.222c-.847-.488-.836-1.265 0-1.74l9.022-5.232a3.3 3.3 0 0 1 3.019 0l7.291 4.222zM342.011 388.136c.836.476.836 1.253 0 1.728l-9.021 5.22a3.277 3.277 0 0 1-2.996 0l-7.303-4.164a.916.916 0 0 1 0-1.74l8.998-5.232a3.323 3.323 0 0 1 3.008 0l7.314 4.188zM395.838 389.261a.916.916 0 0 1 0 1.74l-8.998 5.22a3.277 3.277 0 0 1-3.007 0L376.506 392a.928.928 0 0 1 0-1.752l9.01-5.22a3.335 3.335 0 0 1 3.019 0l7.303 4.234zM282.449 390.502a.928.928 0 0 1 0 1.752l-9.753 5.66c-.95.479-2.07.479-3.019 0l-3.75-2.168a.916.916 0 0 1 0-1.74l9.753-5.661a3.335 3.335 0 0 1 3.019 0l3.75 2.157zM307.365 392.022a.916.916 0 0 1 0 1.74l-8.998 5.278c-.95.478-2.07.478-3.019 0l-7.326-4.222a.916.916 0 0 1 0-1.74l8.975-5.29a3.335 3.335 0 0 1 3.019 0l7.35 4.234zM360.6 393.484c.836.475.847 1.252 0 1.74l-9.01 5.231c-.949.48-2.07.48-3.019 0l-7.326-4.222a.916.916 0 0 1 0-1.74l9.01-5.232a3.3 3.3 0 0 1 3.007 0l7.338 4.223zM413.312 395.908c.836.476.836 1.241 0 1.74l-11.61 6.763a3.312 3.312 0 0 1-3.008 0l-7.36-4.211c-.848-.487-.837-1.264 0-1.752l11.61-6.762a3.277 3.277 0 0 1 3.019 0l7.35 4.222zM381.685 397.474a.916.916 0 0 1 0 1.728l-9.022 5.232a3.3 3.3 0 0 1-3.007 0l-7.303-4.234a.928.928 0 0 1 0-1.752l8.952-5.208a3.347 3.347 0 0 1 2.995 0l7.385 4.234zM267.866 398.959c.836.475.847 1.253 0 1.74l-9.753 5.66a3.335 3.335 0 0 1-3.019 0l-3.75-2.169a.928.928 0 0 1 0-1.74l9.753-5.66a3.3 3.3 0 0 1 3.019 0l3.75 2.169zM293.223 400.2a.928.928 0 0 1 0 1.74l-8.998 5.22c-.95.478-2.07.478-3.019 0l-7.326-4.222a.916.916 0 0 1 0-1.74l9.01-5.232a3.335 3.335 0 0 1 3.019 0l7.314 4.234zM346.458 401.696a.916.916 0 0 1 0 1.74l-8.986 5.22a3.37 3.37 0 0 1-3.03 0l-7.258-4.21a.928.928 0 0 1 0-1.752l8.987-5.22a3.312 3.312 0 0 1 3.019 0l7.268 4.222zM313.728 404.562a.916.916 0 0 1 0 1.728l-9.01 5.232a3.312 3.312 0 0 1-3.007 0l-7.327-4.223a.916.916 0 0 1 0-1.74l8.999-5.231c.949-.48 2.07-.48 3.018 0l7.327 4.234zM367.531 405.687a.916.916 0 0 1 0 1.74l-9.01 5.22a3.3 3.3 0 0 1-3.007 0l-7.326-4.223a.928.928 0 0 1 0-1.74l8.998-5.231a3.37 3.37 0 0 1 3.02 0l7.325 4.234zM253.283 407.427a.928.928 0 0 1 0 1.74l-9.753 5.66a3.335 3.335 0 0 1-3.019 0l-3.75-2.157a.928.928 0 0 1 0-1.74l9.753-5.66a3.335 3.335 0 0 1 3.019 0l3.75 2.157zM279.058 408.448c.836.487.848 1.252 0 1.74l-9.01 5.231a3.335 3.335 0 0 1-3.018 0l-7.326-4.222c-.836-.476-.848-1.253 0-1.74l9.01-5.232a3.3 3.3 0 0 1 3.007 0l7.337 4.223zM332.316 409.91a.916.916 0 0 1 0 1.74l-8.998 5.23c-.95.479-2.07.479-3.019 0l-7.326-4.222a.916.916 0 0 1 0-1.74l8.998-5.231a3.312 3.312 0 0 1 3.02 0l7.325 4.222zM353.39 413.9a.916.916 0 0 1 0 1.74l-9.01 5.231a3.312 3.312 0 0 1-3.007 0l-7.327-4.222a.928.928 0 0 1 0-1.752l9.01-5.22a3.335 3.335 0 0 1 3.019 0l7.315 4.223zM238.7 415.895a.916.916 0 0 1 0 1.74l-9.776 5.672a3.335 3.335 0 0 1-3.019 0l-3.75-2.169a.928.928 0 0 1 0-1.752l9.764-5.672a3.358 3.358 0 0 1 3.008 0l3.773 2.18zM264.917 416.66a.928.928 0 0 1 0 1.752l-9.01 5.22a3.335 3.335 0 0 1-3.019 0l-7.326-4.222a.928.928 0 0 1 0-1.752l9.01-5.22a3.3 3.3 0 0 1 3.018 0l7.327 4.222zM318.175 418.122a.928.928 0 0 1 0 1.74l-9.01 5.232c-.95.477-2.07.477-3.019 0l-7.326-4.223a.928.928 0 0 1 0-1.74l8.998-5.231a3.335 3.335 0 0 1 3.019 0l7.338 4.222zM285.386 420.987a.916.916 0 0 1 0 1.729l-9.01 5.231a3.312 3.312 0 0 1-2.995 0l-7.326-4.222a.928.928 0 0 1 0-1.74l9.01-5.232a3.335 3.335 0 0 1 3.018 0l7.303 4.234zM339.248 422.112a.916.916 0 0 1 0 1.74l-8.998 5.22a3.277 3.277 0 0 1-3.007 0l-7.315-4.222c-.836-.476-.86-1.253 0-1.74l8.998-5.232a3.358 3.358 0 0 1 3.019 0l7.303 4.234zM250.775 424.873a.928.928 0 0 1 0 1.752l-9.01 5.22a3.335 3.335 0 0 1-3.019 0l-7.326-4.223a.928.928 0 0 1 0-1.74l9.01-5.231a3.335 3.335 0 0 1 3.019 0l7.326 4.222zM303.963 426.335c.836.475.848 1.253 0 1.74l-8.998 5.231a3.323 3.323 0 0 1-3.019 0l-7.326-4.222c-.836-.476-.848-1.253 0-1.74l8.998-5.232a3.3 3.3 0 0 1 3.007 0l7.338 4.223zM271.28 429.2a.916.916 0 0 1 0 1.728l-8.999 5.232a3.288 3.288 0 0 1-2.995 0l-7.327-4.222c-.824-.476-.847-1.253 0-1.74l9.01-5.232a3.3 3.3 0 0 1 2.996 0l7.314 4.234zM325.083 430.36c.836.476.836 1.253 0 1.728l-8.998 5.232a3.265 3.265 0 0 1-2.984 0l-7.326-4.222c-.836-.476-.848-1.253 0-1.74l9.021-5.232a3.323 3.323 0 0 1 3.007 0l7.28 4.234zM236.622 433.086a.928.928 0 0 1 0 1.752l-9.01 5.22a3.335 3.335 0 0 1-3.019 0l-7.326-4.223a.928.928 0 0 1 0-1.74l9.01-5.231a3.335 3.335 0 0 1 3.018 0l7.327 4.222zM289.868 434.548c.824.475.848 1.252 0 1.74l-9.021 5.231c-.945.48-2.063.48-3.008 0l-7.291-4.199c-.836-.476-.848-1.253 0-1.728l9.033-5.232a3.312 3.312 0 0 1 3.007 0l7.28 4.188zM257.103 437.436a.916.916 0 0 1 0 1.74l-8.998 5.22a3.3 3.3 0 0 1-3.008 0l-7.314-4.222a.928.928 0 0 1 0-1.752l8.998-5.22a3.335 3.335 0 0 1 3.019 0l7.303 4.234zM310.93 438.55a.916.916 0 0 1 0 1.728l-8.999 5.232a3.3 3.3 0 0 1-2.995 0l-7.326-4.223a.916.916 0 0 1 0-1.74l8.998-5.231a3.37 3.37 0 0 1 3.019 0l7.303 4.234zM396.848 405.466c.825.476.836 1.253 0 1.729l-67.492 39.185a3.312 3.312 0 0 1-2.996 0l-7.303-4.223a.916.916 0 0 1 0-1.74l67.493-39.185a3.277 3.277 0 0 1 2.995 0l7.303 4.234zM222.608 441.23a.928.928 0 0 1 0 1.75l-9.01 5.22a3.335 3.335 0 0 1-3.019 0l-7.326-4.222a.928.928 0 0 1 0-1.751l8.998-5.22a3.335 3.335 0 0 1 3.019 0l7.338 4.222zM275.691 442.784a.928.928 0 0 1 0 1.751l-9.01 5.22a3.335 3.335 0 0 1-3.018 0l-7.303-4.222a.928.928 0 0 1 0-1.752l9.01-5.22a3.335 3.335 0 0 1 3.018 0l7.303 4.223zM296.753 446.786a.905.905 0 0 1 0 1.728l-9.045 5.232a3.3 3.3 0 0 1-2.995 0l-7.326-4.223c-.836-.475-.848-1.253 0-1.74l9.01-5.231a3.3 3.3 0 0 1 3.007 0l7.35 4.234zM243.1 445.556c.836.476.836 1.253 0 1.74l-15.477 8.99a3.312 3.312 0 0 1-3.007 0l-7.326-4.222a.916.916 0 0 1 0-1.74l15.489-8.99a3.3 3.3 0 0 1 3.018 0l7.303 4.222zM307.446 457.376a.916.916 0 0 1 0 1.729l-9.01 5.231a3.3 3.3 0 0 1-3.007 0l-7.326-4.222a.916.916 0 0 1 0-1.74l9.01-5.232a3.323 3.323 0 0 1 3.019 0l7.314 4.234zM279.117 473.825a.916.916 0 0 1 0 1.74l-9.01 5.232a3.312 3.312 0 0 1-2.996 0l-7.326-4.223c-.848-.487-.836-1.264 0-1.74l9.01-5.231a3.288 3.288 0 0 1 3.018 0l7.304 4.222z" fill="#515151"/>
        </g>
        <path d="M261.468 451.043a.928.928 0 0 1 0 1.74l-19.889 11.6a3.335 3.335 0 0 1-3.018 0l-7.327-4.223a.928.928 0 0 1 0-1.751l19.89-11.6a3.335 3.335 0 0 1 3.018 0l7.326 4.234z" fill="#515151" fill-rule="nonzero"/>
        <ellipse fill="#F5F5F5" fill-rule="nonzero" cx="41.354" cy="203.615" rx="40.765" ry="40.728"/>
        <path stroke="#2B90FF" stroke-width="1.5" stroke-linecap="round" d="M50.12 185.507h4.807v4.791"/>
        <path stroke="#2B90FF" stroke-width="1.5" stroke-linecap="round" stroke-linejoin="round" d="M27.781 201.318l10.183-9.036 6.78 3.387 10.183-10.162"/>
        <path stroke="#2B90FF" stroke-width="1.5" d="M52.663 219.39v-22.584h4.517v22.585M43.618 219.39v-11.286h4.517v11.287M34.574 219.39v-14.673h4.516v14.674M25.529 219.39v-6.762h4.517v6.763"/>
        <path d="M58.317 219.39H24.391" stroke="#2B90FF" stroke-width="1.5" stroke-linecap="round" stroke-linejoin="round"/>
        <ellipse fill="#F5F5F5" fill-rule="nonzero" cx="224.756" cy="40.728" rx="40.765" ry="40.728"/>
        <ellipse fill="#F5F5F5" fill-rule="nonzero" cx="423.855" cy="44.103" rx="40.765" ry="40.728"/>
        <path d="M424.133 105.467a.86.86 0 0 0-.406-.104c-.314 0-.58.15-.58.336v1.346a.29.29 0 0 0 .173.243c.13.067.273.099.418.093.326 0 .58-.15.58-.336v-1.346a.313.313 0 0 0-.173-.232m0 4.037a.813.813 0 0 0-.407-.093c-.313 0-.58.151-.569.337v1.345a.29.29 0 0 0 .175.244.813.813 0 0 0 .406.093c.314 0 .58-.151.569-.337v-1.357a.278.278 0 0 0-.163-.232m0 4.025a.848.848 0 0 0-.418-.093c-.325 0-.58.151-.58.337v1.345a.29.29 0 0 0 .174.244c.13.066.273.098.418.093.314 0 .58-.151.58-.337v-1.345a.29.29 0 0 0-.174-.244m0 4.037a.848.848 0 0 0-.418-.093c-.313 0-.569.151-.569.337v1.345c.008.101.07.19.163.232.13.066.273.098.418.093.314 0 .58-.15.569-.336v-1.346a.29.29 0 0 0-.174-.244m0 4.037a.848.848 0 0 0-.418-.093c-.325 0-.58.151-.58.337v1.345c.014.102.08.19.173.232a.86.86 0 0 0 .407.105c.313 0 .58-.151.58-.337v-1.38a.278.278 0 0 0-.162-.232m0 4.037a.86.86 0 0 0-.407-.105c-.313 0-.58.151-.58.337v1.345a.29.29 0 0 0 .174.244c.13.066.273.098.418.093.325 0 .58-.151.58-.337v-1.322a.313.313 0 0 0-.174-.232m0 4.037a.813.813 0 0 0-.406-.093c-.313 0-.58.15-.569.336v1.346a.29.29 0 0 0 .174.244.813.813 0 0 0 .407.092c.313 0 .58-.15.569-.336v-1.334a.278.278 0 0 0-.163-.232m0 4.025a.848.848 0 0 0-.418-.093c-.325 0-.58.151-.58.337v1.345a.29.29 0 0 0 .174.244c.129.066.273.098.418.093.325 0 .58-.151.58-.337v-1.345a.29.29 0 0 0-.174-.244m0 4.037a.813.813 0 0 0-.406-.093c-.314 0-.58.151-.57.337v1.345c.009.101.07.19.163.232a.813.813 0 0 0 .407.093c.313 0 .58-.15.569-.336v-1.346a.29.29 0 0 0-.175-.244m0 4.037a.848.848 0 0 0-.418-.093c-.325 0-.58.151-.58.337v1.345a.313.313 0 0 0 .174.232.86.86 0 0 0 .406.105c.314 0 .58-.151.58-.337v-1.345a.29.29 0 0 0-.173-.244m0 4.037a.86.86 0 0 0-.407-.104c-.313 0-.58.15-.58.336v1.276a.29.29 0 0 0 .174.244c.13.066.273.098.418.092.325 0 .58-.15.58-.336v-1.346a.313.313 0 0 0-.174-.232m0 4.037a.813.813 0 0 0-.406-.093c-.313 0-.58.151-.569.337v1.345a.29.29 0 0 0 .174.244.813.813 0 0 0 .407.093c.313 0 .58-.151.569-.337v-1.345a.278.278 0 0 0-.163-.232m0 4.025a.848.848 0 0 0-.418-.093c-.325 0-.58.151-.58.337v1.38a.29.29 0 0 0 .174.244c.129.066.273.098.418.092.325 0 .58-.15.58-.336v-1.346a.29.29 0 0 0-.174-.243m0 4.037a.813.813 0 0 0-.406-.093c-.314 0-.58.15-.57.336v1.346c.009.1.07.19.163.232a.813.813 0 0 0 .407.093c.313 0 .58-.151.569-.337v-1.345a.29.29 0 0 0-.175-.244m0 4.037a.848.848 0 0 0-.418-.093c-.325 0-.58.15-.58.336v1.346a.313.313 0 0 0 .174.232.86.86 0 0 0 .406.104c.314 0 .58-.15.58-.336v-1.346a.29.29 0 0 0-.173-.243m0 4.037a.86.86 0 0 0-.407-.105c-.313 0-.58.151-.58.337v1.345a.29.29 0 0 0 .174.244c.13.066.273.098.418.093.325 0 .58-.151.58-.337v-1.345a.313.313 0 0 0-.174-.232m0 4.036a.813.813 0 0 0-.406-.092c-.313 0-.58.15-.569.336v1.346a.29.29 0 0 0 .174.243.813.813 0 0 0 .407.093c.313 0 .58-.15.569-.336v-1.346a.278.278 0 0 0-.163-.232m0 4.025a.848.848 0 0 0-.418-.093c-.325 0-.58.151-.58.337v1.345a.29.29 0 0 0 .174.244c.129.066.273.098.418.093.325 0 .58-.151.58-.337v-1.345a.29.29 0 0 0-.174-.244m0 4.037a.813.813 0 0 0-.406-.093c-.314 0-.58.151-.57.337v1.345c.009.101.07.19.163.232a.813.813 0 0 0 .407.093c.313 0 .58-.15.569-.336v-1.346a.29.29 0 0 0-.175-.244m0 4.037a.848.848 0 0 0-.418-.093c-.325 0-.58.151-.58.337v1.345a.313.313 0 0 0 .174.232.86.86 0 0 0 .406.105c.314 0 .58-.151.58-.337v-1.345a.29.29 0 0 0-.173-.244m0 4.037a.86.86 0 0 0-.407-.104c-.313 0-.58.15-.58.336v1.346c.008.1.07.19.162.232.13.066.273.098.418.092.326 0 .58-.15.57-.336v-1.346a.302.302 0 0 0-.175-.232m0 4.037a.813.813 0 0 0-.406-.093c-.314 0-.58.151-.57.337v1.345c.015.102.081.19.175.232a.825.825 0 0 0 .406.093c.326 0 .58-.15.58-.336v-1.346a.278.278 0 0 0-.162-.232m0 4.037a.86.86 0 0 0-.406-.104c-.313 0-.58.15-.58.336v1.346a.29.29 0 0 0 .174.243c.129.066.273.098.418.093.325 0 .58-.15.58-.336v-1.346a.313.313 0 0 0-.174-.232m0 4.025a.813.813 0 0 0-.406-.093c-.314 0-.58.151-.57.337v1.345c.009.102.07.19.163.232a.813.813 0 0 0 .407.093c.313 0 .58-.15.569-.336v-1.346a.29.29 0 0 0-.175-.243m0 4.036a.848.848 0 0 0-.418-.092c-.325 0-.58.15-.58.336v1.346a.313.313 0 0 0 .174.232.86.86 0 0 0 .406.104c.314 0 .58-.15.58-.336v-1.346a.29.29 0 0 0-.173-.244m0 4.037a.86.86 0 0 0-.407-.104c-.313 0-.58.15-.58.336v1.346c.008.1.07.19.162.232.13.066.273.098.418.093.326 0 .58-.151.57-.337v-1.357a.302.302 0 0 0-.175-.232m0 4.037a.848.848 0 0 0-.418-.093c-.313 0-.58.15-.569.336v1.346a.313.313 0 0 0 .174.232.86.86 0 0 0 .407.104c.313 0 .58-.15.58-.336v-1.346a.278.278 0 0 0-.162-.232m0 4.037a.86.86 0 0 0-.407-.104c-.313 0-.58.15-.58.336v1.346a.29.29 0 0 0 .174.243c.13.067.273.099.418.093.325 0 .58-.15.58-.336V214.6a.313.313 0 0 0-.174-.232m0 4.037a.813.813 0 0 0-.406-.093c-.313 0-.58.15-.569.336v1.346c.008.101.07.19.163.232a.813.813 0 0 0 .406.093c.314 0 .58-.151.569-.337v-1.345a.278.278 0 0 0-.163-.232m0 4.025a.848.848 0 0 0-.418-.093c-.325 0-.58.151-.58.337v1.345a.313.313 0 0 0 .174.232.86.86 0 0 0 .406.105c.314 0 .58-.151.58-.337v-1.345a.29.29 0 0 0-.173-.244m0 4.037a.848.848 0 0 0-.407-.105c-.313 0-.58.151-.58.337v1.345c.008.102.07.19.162.232.13.067.273.099.418.093.326 0 .58-.15.57-.336v-1.346a.302.302 0 0 0-.175-.232m0 4.037a.848.848 0 0 0-.418-.093c-.325 0-.58.151-.569.337V232c.015.102.08.19.174.232a.86.86 0 0 0 .407.104c.313 0 .58-.15.58-.336v-1.346a.278.278 0 0 0-.162-.232m0 4.037a.86.86 0 0 0-.407-.104c-.313 0-.58.15-.58.336v1.346a.29.29 0 0 0 .174.243c.13.067.273.099.418.093.325 0 .58-.15.58-.336v-1.346a.313.313 0 0 0-.174-.232m0 4.037a.813.813 0 0 0-.406-.093c-.313 0-.58.151-.569.337V240.085a.313.313 0 0 0 .174.232c.129.067.273.1.418.093.314 0 .58-.15.57-.336v-1.334a.278.278 0 0 0-.163-.232m.371 4.025a.871.871 0 0 0-.487-.093c-.326 0-.535.197-.5.371.116.453.244.905.407 1.346.032.075.09.137.162.174.16.084.343.116.523.093.313 0 .51-.21.452-.395-.162-.429-.278-.87-.394-1.31a.325.325 0 0 0-.163-.186m1.614 3.909a.906.906 0 0 0-.592-.081c-.29.058-.465.255-.36.417.255.441.534.859.836 1.288.034.044.078.08.128.104a.918.918 0 0 0 .627.07c.29-.07.44-.267.325-.44a13.368 13.368 0 0 1-.813-1.242.383.383 0 0 0-.14-.14m2.868 3.678a.941.941 0 0 0-.708-.058c-.278.093-.371.29-.22.464.383.394.8.777 1.23 1.16h.07a.918.918 0 0 0 .731 0c.268-.104.337-.313.163-.464-.418-.371-.813-.742-1.161-1.16l-.093-.07m3.994 3.306a.906.906 0 0 0-.79 0c-.255.116-.266.325-.057.476.499.336 1.033.684 1.59 1.01a.918.918 0 0 0 .813 0c.232-.128.232-.337 0-.476a31.679 31.679 0 0 1-1.533-.975m36.144 20.95l-1.649-.951a.906.906 0 0 0-.824 0 .255.255 0 0 0 0 .475l1.649.951a.895.895 0 0 0 .824 0 .244.244 0 0 0 0-.475m-4.946-2.854l-1.649-.951a.906.906 0 0 0-.824 0 .255.255 0 0 0 0 .476l1.649.95a.906.906 0 0 0 .824 0c.22-.127.22-.336 0-.475m-4.934-2.853l-1.65-.952a.906.906 0 0 0-.812 0 .255.255 0 0 0 0 .476l1.649.951a.906.906 0 0 0 .824 0 .255.255 0 0 0 0-.475m-4.946-2.854l-1.649-.951a.906.906 0 0 0-.824 0 .255.255 0 0 0 0 .475l1.649.952a.895.895 0 0 0 .824 0 .244.244 0 0 0 0-.476m-4.946-2.854l-1.649-.95a.906.906 0 0 0-.824 0 .255.255 0 0 0 0 .475l1.649.951a.906.906 0 0 0 .824 0c.22-.128.22-.336 0-.476m-4.935-2.853l-1.648-.951a.906.906 0 0 0-.813 0 .255.255 0 0 0 0 .475l1.649.951a.906.906 0 0 0 .824 0 .255.255 0 0 0 0-.475m-4.946-2.854l-.94-.777a.906.906 0 0 0-.825 0 .255.255 0 0 0 0 .476l1.649.95a.895.895 0 0 0 .824 0 .244.244 0 0 0 0-.475m32.626 19.163a.918.918 0 0 0-.708 0c-.267.093-.36.302-.198.453.363.35.686.739.964 1.16a.395.395 0 0 0 .14.127c.189.099.406.128.615.082.302-.07.453-.256.336-.43a6.834 6.834 0 0 0-1.056-1.264l-.093-.07m1.637 3.852a.802.802 0 0 0-.348-.093c-.314 0-.604.104-.65.29a2.632 2.632 0 0 1-.581 1.16c-.116.127-.058.29.105.383l.15.058a.825.825 0 0 0 .778-.151c.342-.4.582-.878.697-1.392a.278.278 0 0 0-.163-.279m-3.645 3.295a.906.906 0 0 0-.825 0l-1.637.951c-.232.128-.232.348 0 .476a.906.906 0 0 0 .825 0l1.637-.952a.255.255 0 0 0 0-.475m-4.912 2.853a.906.906 0 0 0-.824 0l-1.637.952c-.232.127-.22.336 0 .475a.895.895 0 0 0 .824 0l1.637-.951a.255.255 0 0 0 0-.476m-4.91 2.854a.906.906 0 0 0-.814 0l-1.637.951a.255.255 0 0 0 0 .476.906.906 0 0 0 .825 0l1.637-.951c.22-.128.22-.337 0-.476m-4.9 2.842a.906.906 0 0 0-.824 0l-1.637.951c-.233.128-.233.348 0 .476a.906.906 0 0 0 .824 0l1.637-.951a.255.255 0 0 0 0-.476m-4.911 2.854a.906.906 0 0 0-.825 0l-1.637.95c-.232.128-.22.337 0 .476a.895.895 0 0 0 .825 0l1.637-.95a.255.255 0 0 0 0-.476m-4.911 2.853a.906.906 0 0 0-.813 0l-1.637.951a.255.255 0 0 0 0 .476.906.906 0 0 0 .824 0l1.637-.951c.22-.128.22-.337 0-.476m-4.9 2.842a.906.906 0 0 0-.824 0l-1.637.951c-.232.128-.232.348 0 .476a.906.906 0 0 0 .824 0l1.637-.951a.255.255 0 0 0 0-.476m-4.91 2.854a.906.906 0 0 0-.825 0l-1.637.951c-.233.128-.22.336 0 .476a.895.895 0 0 0 .824 0l1.637-.952a.255.255 0 0 0 0-.475m-4.911 2.853a.906.906 0 0 0-.813 0l-1.637.952a.255.255 0 0 0 0 .475.906.906 0 0 0 .824 0l1.637-.951c.221-.128.221-.336 0-.476m-4.9 2.842a.906.906 0 0 0-.824 0l-1.637.952c-.232.127-.232.348 0 .475a.906.906 0 0 0 .825 0l1.637-.951a.255.255 0 0 0 0-.476m-2.647-207.872a.848.848 0 0 0-.418-.092c-.326 0-.581.15-.581.336v1.346a.313.313 0 0 0 .174.232.86.86 0 0 0 .407.104c.313 0 .58-.15.58-.336v-1.346a.278.278 0 0 0-.162-.232" fill="#C4C4C4" fill-rule="nonzero"/>
        <path d="M214.41 48.488h-5.433a2.321 2.321 0 0 1-2.322-2.32v-6.96c0-1.281 1.04-2.32 2.322-2.32h5.434v11.6zM235.1 48.488h5.434a2.321 2.321 0 0 0 2.323-2.32v-6.96c0-1.281-1.04-2.32-2.323-2.32h-5.433v11.6z" stroke="#2B90FF" stroke-width="1.5" stroke-linecap="round" stroke-linejoin="round"/>
        <path d="M211.821 36.853v-2.587c0-7.134 5.144-12.922 12.296-12.922h1.289c7.14 0 12.295 5.8 12.295 12.922v2.587M229.934 57.536a2.586 2.586 0 0 0-2.6-2.587h-2.59a2.586 2.586 0 1 0 0 5.174h2.59c1.43 0 2.588-1.158 2.588-2.587h.012zM229.934 57.536s7.767 0 7.767-9.048" stroke="#2B90FF" stroke-width="1.5"/>
        <path d="M224.756 181.795a.58.58 0 0 1-.58-.58v-1.16a.58.58 0 0 1 1.16 0v1.16c0 .32-.26.58-.58.58zm0-4.64a.58.58 0 0 1-.58-.58v-1.16a.58.58 0 0 1 1.16 0v1.16c0 .32-.26.58-.58.58zm0-4.64a.58.58 0 0 1-.58-.58v-1.16a.58.58 0 0 1 1.16 0v1.16c0 .32-.26.58-.58.58zm0-4.64a.58.58 0 0 1-.58-.58v-1.16a.58.58 0 0 1 1.16 0v1.16c0 .32-.26.58-.58.58zm0-4.64a.58.58 0 0 1-.58-.58v-1.16a.58.58 0 0 1 1.16 0v1.16c0 .32-.26.58-.58.58zm0-4.64a.58.58 0 0 1-.58-.58v-1.16a.58.58 0 0 1 1.16 0v1.16c0 .32-.26.58-.58.58zm0-4.64a.58.58 0 0 1-.58-.58v-1.16a.58.58 0 0 1 1.16 0v1.16c0 .32-.26.58-.58.58zm0-4.64a.58.58 0 0 1-.58-.58v-1.16a.58.58 0 0 1 1.16 0v1.16c0 .32-.26.58-.58.58zm0-4.64a.58.58 0 0 1-.58-.58v-1.16a.58.58 0 0 1 1.16 0v1.16c0 .32-.26.58-.58.58zm0-4.64a.58.58 0 0 1-.58-.58v-1.16a.58.58 0 0 1 1.16 0v1.16c0 .32-.26.58-.58.58zm0-4.64a.58.58 0 0 1-.58-.58v-1.16a.58.58 0 0 1 1.16 0v1.16c0 .32-.26.58-.58.58zm0-4.64a.58.58 0 0 1-.58-.58v-1.16a.58.58 0 0 1 1.16 0v1.16c0 .32-.26.58-.58.58zm0-4.64a.58.58 0 0 1-.58-.58v-1.16a.58.58 0 0 1 1.16 0v1.16c0 .32-.26.58-.58.58zm0-4.64a.58.58 0 0 1-.58-.58v-1.16a.58.58 0 0 1 1.16 0v1.16c0 .32-.26.58-.58.58zm0-4.64a.58.58 0 0 1-.58-.58v-1.16a.58.58 0 0 1 1.16 0v1.16c0 .32-.26.58-.58.58zm0-4.64a.58.58 0 0 1-.58-.58v-1.16a.58.58 0 0 1 1.16 0v1.16c0 .32-.26.58-.58.58zm0-4.64a.58.58 0 0 1-.58-.58v-1.16a.58.58 0 0 1 1.16 0v1.16c0 .32-.26.58-.58.58zm0-4.64a.58.58 0 0 1-.58-.58v-1.16a.58.58 0 0 1 1.16 0v1.16c0 .32-.26.58-.58.58zm0-4.64a.58.58 0 0 1-.58-.58v-1.16a.58.58 0 0 1 1.16 0v1.16c0 .32-.26.58-.58.58zm0-4.64a.58.58 0 0 1-.58-.58v-1.16a.58.58 0 0 1 1.16 0v1.16c0 .32-.26.58-.58.58z" fill="#C4C4C4" fill-rule="nonzero"/>
        <path stroke="#2B90FF" stroke-width="1.5" stroke-linecap="round" d="M416.946 47.12l6.05 6.82 6.06-6.82M423.007 27.469v25.705M407.867 60.738h30.269"/>
        <g fill-rule="nonzero">
            <path d="M237.887 315.926l-1.463-5.94a.719.719 0 0 1 .279-.765c.232-.127.476 0 .546.29l1.463 5.94.603-1.984a.638.638 0 0 1 .279-.371.337.337 0 0 1 .29 0 .568.568 0 0 1 .232.719l-1.044 3.48a.8.8 0 0 1 0 .127l-.186.592-2.729-1.844a.65.65 0 0 1-.14-.766c.05-.11.131-.203.233-.267.11-.07.25-.07.36 0l1.312.893m.464-7.783a.349.349 0 0 1-.301 0 .58.58 0 0 1-.221-.708l1.254-4.153 2.74 1.856a.65.65 0 0 1 .128.766.58.58 0 0 1-.232.278.325.325 0 0 1-.36 0l-1.29-.974 1.464 5.94a.707.707 0 0 1-.29.753c-.233.128-.465 0-.535-.278l-1.463-5.951-.603 1.995a.626.626 0 0 1-.267.371m-8.894-8.34a11.095 11.095 0 0 1 2.95-9.361c.42-.41.887-.769 1.392-1.067 2.752-1.59 5.806-.65 7.385 2.494.116.24.22.487.313.742l.198-.116c3.192-1.844 6.594 0 7.593 4.014a10.307 10.307 0 0 1-3.24 10.196v.07l-2.147 1.24c-.233.128-.476 0-.546-.29a.719.719 0 0 1 .29-.753l1.451-.835.256-.163a8.742 8.742 0 0 0 3.1-8.967 5.37 5.37 0 0 0-2.554-3.619 3.986 3.986 0 0 0-3.96.174c-.177.1-.348.213-.51.337l-.418.301-.163-.533a6.411 6.411 0 0 0-.418-1.068 4.387 4.387 0 0 0-6.386-2.157 6.71 6.71 0 0 0-1.16.916 9.61 9.61 0 0 0-2.474 8.596l.128.603-.488.174a5.622 5.622 0 0 0-.731.348 7.251 7.251 0 0 0-2.996 3.805 8.982 8.982 0 0 0-.348 5.208c.836 3.387 3.646 4.895 6.304 3.48l.407-.22 1.428-.824a.36.36 0 0 1 .546.279.719.719 0 0 1-.29.765l-2.242 1.3c-2.984 1.357-6.037-.43-6.966-4.211-.987-4.002.766-8.712 3.913-10.533l.406-.209m1.94-19.87c-10.044 5.8-15.64 20.88-12.494 33.64 3.147 12.76 13.852 18.42 23.895 12.62 10.043-5.8 15.65-20.88 12.493-33.64-3.158-12.76-13.852-18.42-23.906-12.62" fill="#FFF"/>
            <path d="M239.49 304.93l-.256.846 1.463 5.95c.07.29.302.418.534.28a.707.707 0 0 0 .29-.755l-1.416-5.939-.57-.383" fill="#2B90FF"/>
            <path d="M239.083 303.305l-1.3 4.153a.58.58 0 0 0 .22.708.349.349 0 0 0 .302 0 .626.626 0 0 0 .267-.372l.604-1.995.255-.847.57.383 1.311.882c.11.072.251.072.36 0a.58.58 0 0 0 .232-.279.65.65 0 0 0-.127-.765l-2.74-1.856M239.072 317.214v.127a.8.8 0 0 0 0-.127m-2.323-7.993a.719.719 0 0 0-.278.766l1.463 5.939.557.383.267-.859-1.463-5.939c-.07-.29-.313-.417-.546-.29" fill="#2B90FF"/>
            <path d="M239.582 313.096a.638.638 0 0 0-.278.37l-.604 1.984-.267.859-.557-.383-1.312-.893a.337.337 0 0 0-.36 0 .615.615 0 0 0-.233.267.65.65 0 0 0 .14.765l2.728 1.845.186-.592v-.128l1.045-3.48a.568.568 0 0 0-.232-.719.337.337 0 0 0-.29 0M233.812 289.374a7.349 7.349 0 0 0-1.393 1.067 11.095 11.095 0 0 0-2.95 9.361l-.406.209c-3.146 1.821-4.9 6.53-3.913 10.533.93 3.781 3.983 5.568 6.967 4.21l2.24-1.299a.719.719 0 0 0 .29-.765.36.36 0 0 0-.545-.279l-1.428.824-.406.22c-2.66 1.473-5.469 0-6.305-3.48a8.982 8.982 0 0 1 .348-5.208 7.251 7.251 0 0 1 2.996-3.805c.235-.133.48-.25.731-.348l.488-.174-.128-.603a9.61 9.61 0 0 1 2.473-8.596 6.71 6.71 0 0 1 1.161-.916 4.392 4.392 0 0 1 6.386 2.157c.171.343.311.7.418 1.068l.163.533.418-.301c.162-.124.333-.236.51-.337a3.986 3.986 0 0 1 3.96-.174 5.37 5.37 0 0 1 2.554 3.62 8.742 8.742 0 0 1-3.1 8.966l-.255.163-1.452.835a.719.719 0 0 0-.29.754c.07.29.314.417.546.29l2.148-1.241v-.07a10.307 10.307 0 0 0 3.24-10.196c-1-4.06-4.401-5.8-7.594-4.014l-.197.116a7.903 7.903 0 0 0-.314-.742c-1.556-3.132-4.644-4.072-7.384-2.494" fill="#2B90FF"/>
        </g>
        <g fill-rule="nonzero">
            <path d="M338.203 248.646a1.554 1.554 0 0 0-.604 1.624c.151.615.662.882 1.161.603a1.53 1.53 0 0 0 .604-1.624l.406-.232.418-.243-.418.243-.406.232a.789.789 0 0 0-1.161-.615m.813 3.283c-.94.545-1.94 0-2.241-1.16a2.98 2.98 0 0 1 1.16-3.155c.941-.545 1.94 0 2.242 1.16a2.968 2.968 0 0 1-1.161 3.155m-1.057-7.83l-1.567.905.22.893a.765.765 0 0 1-.15.65c-.325.384-.59.814-.79 1.276a.615.615 0 0 1-.244.278.337.337 0 0 1-.22 0l-.662-.093-.116.743v.058l-.221 1.392.639.093c.185 0 .313.197.336.429.027.274.073.545.14.812.057.234.134.463.232.684a.753.753 0 0 1 0 .522.707.707 0 0 1-.105.197l-.487.778 1.16 1.287.5-.812a.557.557 0 0 1 .186-.185.337.337 0 0 1 .313 0c.368.149.766.209 1.161.174.2-.008.371.138.395.336l.22.893 1.568-.905-.22-.893a.742.742 0 0 1 .15-.65c.344-.406.622-.864.825-1.357a.615.615 0 0 1 .244-.29.36.36 0 0 1 .22 0l.743.105.349-2.193-.778-.116a.418.418 0 0 1-.325-.429 5.726 5.726 0 0 0-.128-.73 4.637 4.637 0 0 0-.244-.731.788.788 0 0 1 .058-.673l.464-.743-1.16-1.299-.477.754a.545.545 0 0 1-.185.197.325.325 0 0 1-.302 0 2.533 2.533 0 0 0-1.161-.162.371.371 0 0 1-.395-.336l-.22-.894m-10.74-8.734a6.962 6.962 0 0 0-2.52 2.772.522.522 0 0 1-.209.232 1.033 1.033 0 0 0-.36.336c-.088.142-.147.3-.174.464a4.196 4.196 0 0 0 .128 1.613c.212.803.512 1.581.894 2.32a.719.719 0 0 1 0 .487.65.65 0 0 1-.279.394.406.406 0 0 0-.174.163.776.776 0 0 0 0 .255c-.004.247.027.493.093.73v.082c.075.246.168.487.278.72.122.296.308.562.546.776.116.07.151.058.197 0a.337.337 0 0 1 .488.151 4.073 4.073 0 0 0 1.881 1.914.43.43 0 0 1 .232.313l.163.673c.066.23.105.468.116.708a2.84 2.84 0 0 1-.186 1.079 7.216 7.216 0 0 1-2.183 2.726 5.544 5.544 0 0 0-1.915 3.132 4.52 4.52 0 0 0-.082.962l10.369-5.974-.082-.29c0-.208-.093-.406-.127-.614l-.778-.116c-.233 0-.372-.314-.325-.627l.22-1.334c-.395 0-.777-.14-1.08-.394a1.844 1.844 0 0 1-.545-1.01v-.173l-.163-.662a.73.73 0 0 1 0-.464c.43-1.064.631-2.206.592-3.352a.696.696 0 0 1 .302-.615l.105-.127c.053-.134.088-.275.104-.418a6.038 6.038 0 0 0 0-1.16 1.34 1.34 0 0 0-.07-.44 3.246 3.246 0 0 0-.162-.511.58.58 0 0 0-.244-.29h-.209a.325.325 0 0 1-.395 0 .58.58 0 0 1-.162-.464c.054-.723-.001-1.45-.163-2.158a2.726 2.726 0 0 0-1.579-2.065 2.951 2.951 0 0 0-2.554.337m-3.112 2.041a7.96 7.96 0 0 1 2.856-3.085 3.3 3.3 0 0 1 5.214 2.32c.148.635.218 1.285.209 1.937h.197c.213.088.395.237.522.43.188.312.325.653.407 1.008.07.352.117.71.14 1.068a5.239 5.239 0 0 1-.14 1.658 1.902 1.902 0 0 1-.383.743 9.678 9.678 0 0 1-.616 3.387l.105.43v.173a.823.823 0 0 0 .255.499c.206.166.467.249.732.232l.14-.858c.02-.15.089-.289.196-.395l.105-.081a.337.337 0 0 1 .22 0l.802.104c.17-.333.367-.651.592-.95l-.267-1.056a.811.811 0 0 1 0-.441.65.65 0 0 1 .255-.325l2.322-1.369a.36.36 0 0 1 .337 0 .487.487 0 0 1 .209.313l.267 1.068c.29-.004.58.035.86.116l.568-.905a.534.534 0 0 1 .186-.197h.104a.314.314 0 0 1 .314.104l1.846 1.972a.695.695 0 0 1 0 .789l-.557.893c.068.19.126.384.174.58 0 .174.081.348.104.534l.918.127c.232 0 .383.313.325.615l-.534 3.34a.719.719 0 0 1-.198.395l-.104.081a.314.314 0 0 1-.22 0l-.883-.127c-.181.363-.395.708-.639 1.032l.267 1.067a.753.753 0 0 1 0 .441.626.626 0 0 1-.255.337l-2.322 1.368a.337.337 0 0 1-.337 0 .452.452 0 0 1-.21-.301l-.266-1.056c-.31.007-.62-.036-.917-.127l-.593.962a.534.534 0 0 1-.185.198h-.116a.337.337 0 0 1-.314-.105l-1.846-1.972a.568.568 0 0 1-.14-.44l-9.938 5.73c-.1.06-.225.06-.325 0a.418.418 0 0 1-.22-.29 5.551 5.551 0 0 1 0-2.053 6.854 6.854 0 0 1 2.321-4.014 7.856 7.856 0 0 0 1.65-1.821c.167-.256.26-.553.266-.859a2.225 2.225 0 0 0-.081-.417l-.105-.441a4.805 4.805 0 0 1-1.915-1.914.813.813 0 0 1-.395 0 1.52 1.52 0 0 1-.534-.418 5.078 5.078 0 0 1-.836-1.717v-.08a4.068 4.068 0 0 1 .046-.917 2.434 2.434 0 0 1 .21-1.16c.041-.093.092-.183.15-.267a11.802 11.802 0 0 1-.754-2.076 5.992 5.992 0 0 1-.198-1.694c.008-.544.16-1.076.441-1.543.156-.24.357-.45.593-.614m1.88-14.338c-10.054 5.8-15.64 20.88-12.493 33.64 3.147 12.76 13.852 18.42 23.907 12.62 10.054-5.8 15.64-20.88 12.493-33.64-3.147-12.76-13.887-18.42-23.907-12.62" fill="#FFF"/>
            <path d="M335.544 252.799a.661.661 0 0 1-.07.139.707.707 0 0 0 .105-.197m-8.603-18.421a7.96 7.96 0 0 0-2.857 3.086 2.217 2.217 0 0 0-.592.614c-.28.467-.433 1-.441 1.543a5.992 5.992 0 0 0 .197 1.694c.186.714.44 1.41.755 2.076a1.658 1.658 0 0 0-.15.267 2.434 2.434 0 0 0-.21 1.16c.016.27.059.539.128.8v.082a5.078 5.078 0 0 0 .836 1.716c.144.178.327.32.534.418.13.032.265.032.395 0a4.805 4.805 0 0 0 1.915 1.914l.105.44c.04.137.067.277.081.418a1.623 1.623 0 0 1-.267.859 7.856 7.856 0 0 1-1.649 1.821 6.854 6.854 0 0 0-2.322 4.014 5.551 5.551 0 0 0 0 2.053.418.418 0 0 0 .22.29c.1.06.226.06.326 0l9.939-5.73a.742.742 0 0 1 .116-.349l.615-.986-.07-.232-10.368 5.974a4.52 4.52 0 0 1 .081-.962 5.544 5.544 0 0 1 1.916-3.132 7.216 7.216 0 0 0 2.183-2.726 2.84 2.84 0 0 0 .186-1.08 3.083 3.083 0 0 0-.116-.707l-.163-.673a.43.43 0 0 0-.232-.313 4.073 4.073 0 0 1-1.881-1.914.337.337 0 0 0-.488-.15h-.197a2.134 2.134 0 0 1-.546-.778 5.16 5.16 0 0 1-.278-.719v-.081a2.585 2.585 0 0 1-.093-.731.777.777 0 0 1 0-.255.406.406 0 0 1 .174-.163.65.65 0 0 0 .279-.394.719.719 0 0 0 0-.487 11.35 11.35 0 0 1-.894-2.32 4.196 4.196 0 0 1-.128-1.613c.027-.164.086-.322.174-.464.091-.14.215-.255.36-.336a.522.522 0 0 0 .209-.232 6.962 6.962 0 0 1 2.52-2.772 2.951 2.951 0 0 1 2.554-.337 2.726 2.726 0 0 1 1.579 2.065c.161.707.216 1.434.162 2.158a.58.58 0 0 0 .163.464.325.325 0 0 0 .395 0c.116-.07.162-.058.209 0a.58.58 0 0 1 .243.29c.069.165.123.336.163.51 0 0 0 .22.07.44.037.387.037.775 0 1.16a1.623 1.623 0 0 1-.105.418l-.104.128a.696.696 0 0 0-.302.615 8.218 8.218 0 0 1-.592 3.352.73.73 0 0 0 0 .464l.162.661v.174c.07.386.261.74.546 1.01.302.254.685.393 1.08.394l.185-1.16a1.057 1.057 0 0 1-.731-.232.823.823 0 0 1-.255-.499v-.174l-.105-.429a9.678 9.678 0 0 0 .615-3.387c.182-.216.312-.47.384-.743a5.239 5.239 0 0 0 .139-1.658 7.777 7.777 0 0 0-.14-1.068 3.478 3.478 0 0 0-.406-1.009 1.16 1.16 0 0 0-.522-.429h-.198a7.985 7.985 0 0 0-.209-1.937 3.3 3.3 0 0 0-5.213-2.32M337.948 247.59a2.98 2.98 0 0 0-1.162 3.156c.302 1.16 1.3 1.728 2.241 1.16a2.968 2.968 0 0 0 1.161-3.156l-.418.244-.406.232a1.53 1.53 0 0 1-.604 1.624c-.476.278-.998 0-1.16-.603a1.554 1.554 0 0 1 .603-1.624.79.79 0 0 1 1.161.615l.406-.232.418-.244c-.29-1.16-1.3-1.728-2.24-1.16" fill="#2B90FF"/>
            <path d="M335.428 248.1a.615.615 0 0 0 .244-.278c.2-.461.465-.891.79-1.276a.765.765 0 0 0 .15-.65l-.22-.892 1.567-.905.22.893c.02.2.194.35.396.336.394-.037.792.019 1.16.163.095.05.208.05.302 0a.545.545 0 0 0 .186-.197l.476-.754 1.161 1.299-.464.742a.788.788 0 0 0-.058.673c.101.236.183.48.244.73.058.241.1.485.127.732a.418.418 0 0 0 .325.429l.778.116-.348 2.192-.743-.104a.36.36 0 0 0-.22 0 .615.615 0 0 0-.244.29c-.203.492-.481.95-.825 1.357a.742.742 0 0 0-.15.65l.22.893-1.568.905-.22-.894a.383.383 0 0 0-.395-.336 2.498 2.498 0 0 1-1.161-.174.337.337 0 0 0-.313 0 .557.557 0 0 0-.186.186l-.5.812-1.16-1.288.487-.777a.753.753 0 0 0 .07-.661 4.08 4.08 0 0 1-.232-.685 5.598 5.598 0 0 1-.14-.812c0-.232-.15-.417-.336-.429l-.64-.093.222-1.392v-.058l.116-.742.661.093c.072.024.15.024.221 0m2.682-5.29l-2.322 1.369a.65.65 0 0 0-.255.325.811.811 0 0 0 0 .44l.267 1.056c-.225.3-.423.618-.593.951l-.8-.104a.337.337 0 0 0-.221 0l-.105.081a.684.684 0 0 0-.197.394l-.14.859-.185 1.16-.22 1.334c0 .313.092.591.324.626l.778.116c0 .209.07.418.128.615l.081.29.07.232-.616.986a.742.742 0 0 0-.116.348c-.018.16.033.32.14.44l1.846 1.973a.337.337 0 0 0 .313.104h.116a.534.534 0 0 0 .186-.197l.592-.963c.297.092.607.135.917.128l.268 1.055c.023.126.1.235.209.302.104.06.232.06.336 0l2.322-1.369a.626.626 0 0 0 .256-.336.753.753 0 0 0 0-.441l-.267-1.067c.244-.324.457-.67.638-1.033l.883.128c.07.027.15.027.22 0l.105-.081a.719.719 0 0 0 .197-.395l.534-3.34c0-.314-.093-.592-.325-.615l-.917-.128c0-.174-.07-.36-.105-.533a5.796 5.796 0 0 0-.174-.58l.558-.894a.695.695 0 0 0 0-.788l-1.846-1.972a.314.314 0 0 0-.314-.105h-.104a.534.534 0 0 0-.186.197l-.57.905c-.278-.08-.568-.12-.858-.116l-.267-1.067a.487.487 0 0 0-.21-.313.36.36 0 0 0-.336 0" fill="#2B90FF"/>
        </g>
        <g fill-rule="nonzero">
            <path d="M284.04 270.72a3.745 3.745 0 0 0-1.475 3.968c.371 1.508 1.637 2.18 2.821 1.496a3.745 3.745 0 0 0 1.475-3.967c-.372-1.508-1.637-2.18-2.822-1.496m1.603 6.507c-1.637.94-3.39 0-3.901-2.064a5.183 5.183 0 0 1 2.043-5.487c1.637-.94 3.39 0 3.901 2.065a5.183 5.183 0 0 1-2.043 5.486m-1.684-15.752l-3.901 2.25.65 2.656-.244.279a11.239 11.239 0 0 0-1.683 2.691l-.163.371-2.032-.278-.882 5.475 1.985.278v.406c.05.579.143 1.153.28 1.717.122.5.285.989.487 1.462l.14.325-1.522 2.447 3.03 3.225 1.498-2.424.279.116c.798.336 1.67.464 2.531.37h.302l.65 2.657 3.901-2.25-.65-2.657.244-.278a11.03 11.03 0 0 0 1.753-2.865l.163-.371 2.206.313.882-5.475-2.24-.314v-.394a11.277 11.277 0 0 0-.268-1.543 9.807 9.807 0 0 0-.522-1.543l-.14-.336 1.405-2.32-3.03-3.225-1.428 2.32-.279-.104a5.09 5.09 0 0 0-2.45-.337h-.302l-.65-2.656m-5.747 7.03c.404-.85.902-1.652 1.486-2.39l-.731-2.97 5.55-3.201.73 2.97a5.81 5.81 0 0 1 2.172.301l1.602-2.598 4.308 4.57-1.58 2.552c.18.454.327.919.442 1.392.11.447.19.9.244 1.357l2.496.348-1.254 7.772-2.45-.336a12.63 12.63 0 0 1-1.567 2.552l.731 2.97-5.55 3.201-.73-2.97a5.648 5.648 0 0 1-2.253-.324l-1.684 2.702-4.296-4.57 1.695-2.714a10.77 10.77 0 0 1-.406-1.3c-.125-.5-.218-1.007-.279-1.52l-2.229-.312 1.254-7.772 2.322.324m.79-18.177c-10.055 5.8-15.64 20.88-12.493 33.64 3.146 12.76 13.851 18.433 23.906 12.633 10.055-5.8 15.64-20.88 12.481-33.64-3.158-12.76-13.851-18.421-23.894-12.621" fill="#FFF"/>
            <path d="M285.386 276.184c-1.16.685-2.45 0-2.821-1.496a3.745 3.745 0 0 1 1.474-3.967c1.161-.685 2.45 0 2.822 1.496a3.745 3.745 0 0 1-1.475 3.967m-1.602-6.507a5.183 5.183 0 0 0-2.043 5.487c.51 2.076 2.322 3.004 3.9 2.064a5.183 5.183 0 0 0 2.044-5.486c-.51-2.077-2.322-3.005-3.901-2.065" fill="#2B90FF"/>
            <path d="M278.617 269.735l.163-.371c.43-.972.998-1.879 1.683-2.692l.244-.278-.65-2.656 3.901-2.25.65 2.656h.302a5.09 5.09 0 0 1 2.45.336l.279.104 1.428-2.32 3.03 3.225-1.405 2.32.14.337c.216.499.391 1.015.522 1.542.125.508.214 1.023.267 1.543v.395l2.241.313-.882 5.475-2.206-.313-.163.371a11.03 11.03 0 0 1-1.753 2.865l-.244.279.65 2.656-3.878 2.192-.65-2.656h-.302a5.113 5.113 0 0 1-2.53-.371l-.28-.116-1.497 2.424-3.03-3.225 1.52-2.447-.14-.325a9.448 9.448 0 0 1-.487-1.462 11.405 11.405 0 0 1-.278-1.716v-.406l-1.986-.279.883-5.475 2.031.278m5.91-9.778L279 263.11l.732 2.97a12.491 12.491 0 0 0-1.486 2.39l-2.322-.325-1.254 7.772 2.229.313c.061.512.154 1.02.279 1.52.107.44.243.875.406 1.299l-1.695 2.714 4.296 4.57 1.683-2.702c.721.26 1.488.37 2.253.324l.731 2.97 5.55-3.202-.731-2.97a12.63 12.63 0 0 0 1.567-2.551l2.45.336 1.254-7.772-2.496-.348c-.054-.457-.135-.91-.244-1.357a10.827 10.827 0 0 0-.442-1.392l1.58-2.552-4.308-4.57-1.602 2.598a5.81 5.81 0 0 0-2.171-.302l-.732-2.97" fill="#2B90FF"/>
        </g>
        <g fill-rule="nonzero">
            <path d="M182.412 342.826l-.383 4.56 2.577-3.4-2.183-1.16m8.128-11.692l-1.94 5.22 2.102 1.16.767-2.065.766.406-.778 2.065 1.695.904.999-2.68.766.407-.999 2.68 1.928 1.032 1.962-5.255-7.268-3.851m-.395-9.559l-7.466 20.08 2.531 1.346 7.466-20.08-2.531-1.334m-11.042 3.48l-1.915 5.15 2.031 1.08.755-2.03.755.405-.755 2.042 1.835.974 1.103-2.958.766.406-1.103 2.97 1.962 1.044 1.939-5.197-7.361-3.886m12.388-7.146l-.952 2.552 2.531 1.334.953-2.552-2.532-1.334m-4.644 9.965l4.064-10.904a.592.592 0 0 1 .255-.325.325.325 0 0 1 .325 0l3.298 1.74c.112.063.19.174.209.302a.707.707 0 0 1 0 .44l-4.052 10.904 7.663 4.037a.487.487 0 0 1 .209.313c.04.145.04.297 0 .441l-2.322 6.334a.603.603 0 0 1-.256.313.325.325 0 0 1-.325 0l-7.64-4.083-2.415 6.507-.104.174-3.89 5.15-.15.128c-.1.06-.226.06-.326 0a.533.533 0 0 1-.232-.533l.592-6.879v-.209l2.427-6.53-7.733-4.13a.626.626 0 0 1-.186-.743l2.322-6.217a.603.603 0 0 1 .256-.313.325.325 0 0 1 .325 0l7.744 4.094m-5.027-18.42c-10.055 5.8-15.64 20.88-12.493 33.64 3.146 12.76 13.851 18.42 23.906 12.62 10.055-5.8 15.64-20.88 12.493-33.64-3.146-12.76-13.851-18.432-23.895-12.632" fill="#FFF"/>
            <path d="M190.899 330.066l-.395 1.068 7.269 3.85-1.963 5.256-1.927-1.033-.186.499-.766-.406.186-.499-1.695-.905-.082.21-.766-.407.081-.209-2.101-1.16-.395 1.08 7.64 4.082c.1.058.224.058.325 0a.603.603 0 0 0 .255-.313l2.322-6.333a.811.811 0 0 0 0-.441.487.487 0 0 0-.209-.313l-7.663-4.037M178.766 323.837a.603.603 0 0 0-.255.313l-2.323 6.218a.626.626 0 0 0 .186.742l7.733 4.13.395-1.079-1.963-1.044-.08.209-.767-.406.081-.22-1.834-.975-.093.244-.767-.406.093-.244-2.032-1.079 1.916-5.15 7.361 3.886.395-1.067-7.744-4.095a.325.325 0 0 0-.325 0" fill="#2B90FF"/>
            <path fill="#2B90FF" d="M194.127 336.122l-.999 2.668-.185.51.754.406.198-.499.986-2.68-.754-.405M182.876 329.753l-1.103 2.97-.081.209.766.406.081-.21 1.103-2.969-.766-.406M191.433 335.414l-.766 2.065-.081.209.766.406.07-.21.777-2.064-.766-.406M179.927 329.3l-.755 2.03-.081.244.755.406.093-.243.754-2.03-.766-.406M190.504 320.496l.952-2.552 2.531 1.334-.952 2.552.384.198-.395 1.078-.383-.208-7.466 20.08.383.196-.406 1.08-.558-.29-2.542 3.421.383-4.559-.557-.29.406-1.078.383.208 7.466-20.08-.383-.196.394-1.08.384.21m.638-3.817a.592.592 0 0 0-.255.325l-4.064 10.904-.395 1.067-1.939 5.197-.395 1.079-2.426 6.53v.21l-.592 6.878a.533.533 0 0 0 .232.534c.1.06.225.06.325 0l.15-.128 3.89-5.15.105-.174 2.415-6.508.395-1.079 1.939-5.22.394-1.067 4.053-10.904a.707.707 0 0 0 0-.44.418.418 0 0 0-.21-.302l-3.297-1.74a.325.325 0 0 0-.325 0"/>
            <path fill="#2B90FF" d="M190.121 320.3l-.395 1.078.372.197 2.543 1.334.383.209.395-1.079-.384-.197-2.53-1.346-.384-.197M182.25 341.446l-.396 1.079.558.301 2.182 1.149.558.301.395-1.09-.372-.197-2.543-1.334-.383-.209"/>
        </g>
    </g>
</svg>
