<svg xmlns="http://www.w3.org/2000/svg" viewBox="0 0 1292.65 1518.55">
    <defs>
        <style>
            .cls-1{fill:none}.cls-14,.cls-2{fill:#d8d8d8}.cls-2,.cls-21,.cls-22,.cls-23,.cls-24,.cls-25,.cls-26,.cls-27,.cls-28,.cls-29,.cls-30,.cls-31,.cls-32,.cls-33,.cls-34,.cls-35,.cls-36,.cls-37,.cls-38,.cls-39,.cls-40,.cls-41,.cls-42,.cls-43,.cls-44,.cls-45,.cls-46,.cls-47,.cls-48,.cls-49{fill-rule:evenodd}.cls-3{isolation:isolate}.cls-4{clip-path:url(#clip-path)}.cls-5{fill:#2b90ff}.cls-6{clip-path:url(#clip-path-2)}.cls-7{fill:#f5f5f5}.cls-8{fill:#d3d3d3}.cls-9{fill:#e9e9e9}.cls-10,.cls-31{fill:#9eccff}.cls-11,.cls-41{fill:#10355d}.cls-12{clip-path:url(#clip-path-3)}.cls-13{fill:#d8eaff}.cls-15{fill:#ffcfae}.cls-16{fill:#444549}.cls-17{fill:#9b9b9b}.cls-18{fill:#fff}.cls-19,.cls-57{opacity:.08}.cls-20{fill:#424242}.cls-21{fill:#66ade2}.cls-22{fill:#b0aaad}.cls-23{fill:#b3adb0}.cls-24{fill:#a69fa3}.cls-25{fill:#bdb6b9}.cls-26{fill:#cfc9cb}.cls-27{fill:#4d4948}.cls-28{fill:#4e8aaf}.cls-29{fill:#3a7593}.cls-30{fill:#a9d6ff}.cls-32{fill:#93bee5}.cls-33{fill:#254d66}.cls-34{fill:#396a8e}.cls-35{fill:#011d2e}.cls-36{fill:#050408}.cls-37{fill:#171526}.cls-38{fill:#343054}.cls-39{fill:#25223d}.cls-40{fill:#110f1c}.cls-42{fill:#003d63}.cls-43{fill:#1c4870}.cls-44,.cls-50{fill:#081b2f}.cls-45{fill:#001624}.cls-46{fill:#c4c4d8}.cls-47{fill:#eaeaf7}.cls-48{fill:#f5f5ff}.cls-49{fill:#fafaff}.cls-51{fill:#eab896}.cls-52{fill:#6b373e}.cls-53{clip-path:url(#clip-path-4)}.cls-54{clip-path:url(#clip-path-5)}.cls-55{opacity:.15}.cls-56{opacity:.1}.cls-57{fill:#3a2416}.cls-58{fill:#dbdbdb}.cls-59{clip-path:url(#clip-path-6)}.cls-60{clip-path:url(#clip-path-7)}
        </style>
        <clipPath id="clip-path" transform="translate(-148.97 -9.76)">
            <path class="cls-1" d="M761.3 814.9l260.94-151.64 191.71 110.69-260.94 151.64L761.3 814.9z"/>
        </clipPath>
        <clipPath id="clip-path-2" transform="translate(-148.97 -9.76)">
            <path class="cls-1" d="M158.36 1117.36l-2.08-735.28L818.05 0l2.09 735.28-661.78 382.08z"/>
        </clipPath>
        <clipPath id="clip-path-3" transform="translate(-148.97 -9.76)">
            <path class="cls-1" d="M273.88 742.3l-.63-224.31 623.67-360.08.63 224.31L273.88 742.3z"/>
        </clipPath>
        <clipPath id="clip-path-4" transform="translate(-148.97 -9.76)">
            <path class="cls-1" d="M578.98 1478.15l410.26-238.42 33.43 19.31-410.26 238.41-33.43-19.3z"/>
        </clipPath>
        <clipPath id="clip-path-5" transform="translate(-148.97 -9.76)">
            <path class="cls-1" d="M539.2 1187.47L775.75 1050l33.12 19.13-236.55 137.47-33.12-19.13z"/>
        </clipPath>
        <clipPath id="clip-path-6" transform="translate(-148.97 -9.76)">
            <path class="cls-1" d="M1142.35 1151.05l166.91-97 230.03 132.81-166.91 97-230.03-132.81z"/>
        </clipPath>
        <clipPath id="clip-path-7" transform="translate(-148.97 -9.76)">
            <path class="cls-1" d="M0 1261.69l166.92-97 357.72 206.53-166.92 97L0 1261.69z"/>
        </clipPath>
    </defs>
    <title>
        Demand Driven Timetables
    </title>
    <g id="Layer_2" data-name="Layer 2">
        <g id="Layer_1-2" data-name="Layer 1">
            <path class="cls-2" d="M923.34 1175.88l77.93-44.39c8.5-3.88 20.66-7 29.31-2.47 7.89 4.1 20.88 12.5 26.62 15.78 4.36 2.49 19.51 11.56 10.08 16.69-27.75 15.09-55.22 32.06-83.4 47.39-5.33 2.9-13.13 3.95-21.31 3.27a56.43 56.43 0 0 1-23.08-6.87l-13.82-8c-6.11-3.56-9.35-7.77-9.68-11.66s2.14-7.36 7.35-9.74z" transform="translate(-148.97 -9.76)"/>
            <g class="cls-3 cls-4">
                <path class="cls-5" d="M1136.86 741.37L1037.42 684l-4.93 2.87 99.44 57.41c17.25 10 27.53 22 30.25 33.36a23.53 23.53 0 0 1-1.55 16.1c-2.42 5-6.71 9.39-13 13L950.51 921.29c-1.36.79-1.36 2.08 0 2.87a5.45 5.45 0 0 0 5 0l197.15-114.57c7.14-4.15 12-9.22 14.73-14.78 4.05-8.34 3.23-17.75-2-27s-14.83-18.48-28.53-26.4" transform="translate(-148.97 -9.76)"/>
                <path class="cls-5" d="M1044.76 676.27a6.41 6.41 0 0 0-2.15-.74l-30.42-5c-2.49-.41-4.3.64-3.58 2.08l8.79 17.6a3.17 3.17 0 0 0 1.29 1.25c1.52.88 3.86 1.17 5.18.41l8.62-5 4.93-2.87 8.07-4.69c1.31-.76.8-2.12-.73-3" transform="translate(-148.97 -9.76)"/>
            </g>
            <path class="cls-3 cls-6 cls-7" d="M795.87 12.81L184.13 366c-12.25 7.07-22.15 24.22-27.78 43.21l1.94 684.29c5.71 9.17 15.68 14.85 27.92 7.78L798 748.09c12.25-7.07 22.15-24.22 22.11-38.3l-1.98-684.3c0-14.08-10-19.76-22.25-12.69" transform="translate(-148.97 -9.76)"/>
            <path class="cls-8" d="M678.14 635.85l54.99-31.74.03 10.85-54.98 31.74-.04-10.85"/>
            <path class="cls-9" d="M672.53 655.54l66.35-38.32.02 6.74-66.35 38.29-.02-6.71M672.57 665.4l66.35-38.32.02 6.71-66.35 38.32-.02-6.71"/>
            <path class="cls-10" d="M854.51 589.24c-14.84 8.59-26.88 1.73-26.91-15.34s11.9-37.77 26.74-46.34 26.88-1.65 26.93 15.35-11.9 37.76-26.76 46.33M854.3 510c-23.3 13.46-42.14 46-42.06 72.76s19 37.59 42.33 24.12 42.12-46.05 42-72.83l-15.34 8.87c-.06-17-12.09-23.92-26.93-15.35v-17.56" transform="translate(-148.97 -9.76)"/>
            <path class="cls-5" d="M854.3 510c23.28-13.46 42.23-2.74 42.31 24l-15.34 8.87c-.06-17-12.09-23.92-26.93-15.35v-17.56" transform="translate(-148.97 -9.76)"/>
            <path class="cls-8" d="M565.62 700.83l54.99-31.76.03 10.86-54.98 31.75-.04-10.85"/>
            <path class="cls-9" d="M560.01 720.5l66.36-38.29.01 6.7-66.35 38.32-.02-6.73M560.05 730.37l66.35-38.31.02 6.7-66.35 38.33-.02-6.72"/>
            <path class="cls-10" d="M762.67 631.07v0m6.08-23.21c0 7.45-2.24 15.57-6 23.07 3.8-7.51 6-15.6 6-23.07m-27-32.9c-23.3 13.46-42.14 46-42.06 72.76s19 37.58 42.33 24.13c12.83-7.4 24.29-20.61 32-35.46-.72 1.35-1.46 2.7-2.22 4l-10.91-6.14c-4.79 8.4-11.48 15.75-18.89 19.97-14.84 8.57-26.88 1.71-26.91-15.36s11.9-37.77 26.74-46.34 26.88-1.65 26.93 15.34c-.06-17-12.09-23.91-26.93-15.34v-17.56" transform="translate(-148.97 -9.76)"/>
            <path class="cls-5" d="M741.78 575c23.28-13.46 42.23-2.72 42.31 24 0 12.07-3.74 25.3-10 37.39-.72 1.35-1.46 2.7-2.22 4l-10.91-6.14c.61-1 1.16-2.07 1.71-3.14v-.08a.91.91 0 0 1 .06-.13c3.8-7.51 6-15.6 6-23.07-.06-17-12.09-23.91-26.93-15.34v-17.56" transform="translate(-148.97 -9.76)"/>
            <path class="cls-10" d="M629.26 639.93v17.56c14.79-8.53 26.88-1.65 26.93 15.36-.06-17-12.14-23.89-26.93-15.36s-26.8 29.36-26.74 46.34c0 8.36 3 14.25 7.62 17.13l-11 18.6 11-18.6-11 18.6c7.72 4.69 18.42 4.15 30.35-2.73 23.3-13.46 42.12-46.07 42-72.85.08 26.78-18.74 59.4-42 72.85-11.94 6.88-22.64 7.41-30.35 2.73-7.37-4.49-11.94-13.71-12-26.87-.08-26.76 18.76-59.3 42.06-72.76" transform="translate(-148.97 -9.76)"/>
            <path class="cls-8" d="M453.1 765.8l54.98-31.76.04 10.85-54.98 31.76-.04-10.85"/>
            <path class="cls-9" d="M447.43 785.51l66.41-38.34.02 6.71-66.41 38.37-.02-6.74M447.45 795.37l66.43-38.35.02 6.7-66.43 38.36-.02-6.71"/>
            <path class="cls-5" d="M629.26 639.93c23.28-13.46 42.23-2.72 42.31 24s-18.74 59.4-42 72.85c-11.94 6.88-22.64 7.41-30.35 2.73l11-18.6c4.87 3 11.73 2.6 19.29-1.77 14.79-8.53 26.8-29.29 26.76-46.34s-12.18-23.8-26.97-15.31v-17.56" transform="translate(-148.97 -9.76)"/>
            <path class="cls-5" d="M461.21 711.19l-11 18.6 11-18.6"/>
            <path class="cls-5" d="M391.05 825.57L525.37 748c-.36 42.48-30.12 93.76-66.94 115s-66.76 4.43-67.37-37.47" transform="translate(-148.97 -9.76)"/>
            <path class="cls-10" d="M410 759.65L456.31 786l-65.26 37.69c.15-20.75 7.41-43.61 19-64" transform="translate(-148.97 -9.76)"/>
            <path class="cls-11" d="M458 708.62c36.82-21.26 66.76-4.45 67.37 37.47l-66.73 38.52-47.41-27.08c12.08-20.53 28.54-38.39 46.77-48.91" transform="translate(-148.97 -9.76)"/>
            <path class="cls-8" d="M168.53 784.37l47.85-27.62.04 9.44-47.86 27.63-.03-9.45"/>
            <path class="cls-9" d="M158.62 804.47l57.8-33.38.01 5.84-57.79 33.38-.02-5.84M158.64 812.99l57.81-33.38.02 5.84-57.82 33.39-.01-5.85"/>
            <path class="cls-8" d="M168.68 837l47.85-27.63.03 9.39-47.85 27.62-.03-9.38"/>
            <path class="cls-9" d="M158.77 857.04l57.79-33.38.02 5.84-57.79 33.38-.02-5.84M158.79 865.56l57.81-33.39.01 5.84-57.81 33.39-.01-5.84"/>
            <path class="cls-8" d="M168.83 889.57l47.85-27.64.03 9.45-47.85 27.64-.03-9.45"/>
            <path class="cls-9" d="M158.92 909.61l57.79-33.38.02 5.83-57.79 33.38-.02-5.83M158.94 918.12l57.81-33.38.01 5.84-57.81 33.39-.01-5.85"/>
            <g class="cls-3 cls-12">
                <path class="cls-10" d="M219.25 503.1l-94.83 54.75.07 25.81 94.83-54.76-.07-25.8"/>
                <path class="cls-8" d="M325.02 442.04l-94.83 54.75.07 25.8 94.83-54.75-.07-25.8"/>
                <path class="cls-10" d="M430.79 380.97l-94.84 54.75.08 25.8 94.83-54.75-.07-25.8"/>
                <path class="cls-13" d="M536.55 319.91l-94.83 54.75.08 25.8 94.83-54.75-.08-25.8"/>
                <path class="cls-10" d="M642.32 258.84l-94.83 54.75.08 25.8 94.83-54.75-.08-25.8"/>
                <path class="cls-8" d="M748.09 197.78l-94.83 54.75.07 25.8 94.83-54.75-.07-25.8"/>
                <path class="cls-10" d="M219.39 552.73l-94.83 54.75.07 25.8 94.83-54.75-.07-25.8"/>
                <path class="cls-13" d="M325.16 491.66l-94.83 54.75.07 25.8 94.83-54.75-.07-25.8"/>
                <path class="cls-10" d="M430.93 430.6l-94.83 54.75.07 25.8L431 456.4l-.07-25.8"/>
                <path class="cls-8" d="M536.7 369.53l-94.84 54.75.08 25.8 94.83-54.75-.07-25.8"/>
                <path class="cls-13" d="M642.46 308.46l-94.83 54.76.08 25.8 94.83-54.75-.08-25.81"/>
                <path class="cls-10" d="M748.23 247.4l-94.83 54.75.07 25.8 94.83-54.75-.07-25.8"/>
                <path class="cls-13" d="M219.53 602.36l-94.83 54.75.07 25.8 94.83-54.75-.07-25.8"/>
                <path class="cls-10" d="M325.3 541.29l-94.83 54.75.07 25.81 94.83-54.76-.07-25.8"/>
                <path class="cls-8" d="M431.07 480.23l-94.83 54.75.07 25.8 94.83-54.75-.07-25.8"/>
                <path class="cls-10" d="M536.84 419.16L442 473.91l.08 25.8 94.83-54.75-.07-25.8M642.61 358.1l-94.84 54.75.08 25.8 94.83-54.75-.07-25.8"/>
                <path class="cls-13" d="M748.37 297.03l-94.83 54.75.08 25.8 94.83-54.75-.08-25.8"/>
                <path class="cls-10" d="M219.67 651.98l-94.83 54.75.07 25.8 94.84-54.75-.08-25.8M325.44 590.92l-94.83 54.75.07 25.8 94.83-54.75-.07-25.8"/>
                <path class="cls-13" d="M431.21 529.85l-94.83 54.75.07 25.8 94.83-54.75-.07-25.8"/>
                <path class="cls-10" d="M536.98 468.79l-94.83 54.75.07 25.8 94.83-54.75-.07-25.8M642.75 407.72l-94.84 54.75.08 25.8 94.83-54.75-.07-25.8"/>
                <path class="cls-8" d="M748.51 346.65l-94.83 54.75.07 25.81 94.84-54.75-.08-25.81"/>
                <path class="cls-10" d="M746.08 149.22l-621.8 359 .07 25.8 621.8-358.99-.07-25.81"/>
            </g>
            <path class="cls-14" d="M499.4 1222.72c22.07 12.83 26 31.57 8.65 41.63s-49.54 7.81-71.61-5-26-31.57-8.65-41.63 49.54-7.84 71.61 5z" transform="translate(-148.97 -9.76)"/>
            <path class="cls-7" d="M413.73 917.16c-8.06 17.1-11.7 44.54-13 68.36l23.36 2.48 22.36-57.64" transform="translate(-148.97 -9.76)"/>
            <path class="cls-15" d="M418.9 1035.84s.84 8.53 1.42 10.95c.37 1.54.6 2.59.89 3.71.4 1.55.5 2.31 0 2.69s-1.4.49-2.29-2.65a13.7 13.7 0 0 0 2.89 5.75c1.68 1.8 4.13 3.64 3.48 4.59s-2.45 0-2.45 0-.21 1.55-2.44.33c0 0-.26 1.25-2.52-.33 0 0-.89 1-3-1s-9.48-10.07-9.63-25z" transform="translate(-148.97 -9.76)"/>
            <path class="cls-7" d="M400.74 985.05c-2.33 41.67 4.15 54.46 4.15 54.46l14.13.38 5.07-51.89" transform="translate(-148.97 -9.76)"/>
            <circle class="cls-7" cx="263.54" cy="975.98" r="11.77"/>
            <circle class="cls-7" cx="280.64" cy="915.21" r="17.69"/>
            <path class="cls-16" d="M488.43 1245.63c4.8-4.8 10.62-6.78 13-4.41s.4 8.19-4.4 13c-2 2-4.56 4.5-6.56 5.42a5.34 5.34 0 0 1-6.44-1c-1.43-1.43-1.32-7.27-1.32-8.71.8-1.49 3.81-2.39 5.72-4.3z" transform="translate(-148.97 -9.76)"/>
            <path class="cls-15" d="M488.44 1245.55c3.13-3 6.87-4.15 8.35-2.6s.14 5.23-3 8.21" transform="translate(-148.97 -9.76)"/>
            <path class="cls-16" d="M448.55 1222.76c4.8-4.8 10.62-6.78 13-4.41s.4 8.19-4.4 13c-2 2-4.56 4.5-6.56 5.42a5.34 5.34 0 0 1-6.43-1c-1.43-1.43-1.32-7.27-1.32-8.71.79-1.5 3.8-2.39 5.71-4.3z" transform="translate(-148.97 -9.76)"/>
            <path class="cls-15" d="M448.64 1222.24c3.13-3 6.87-4.15 8.35-2.6s.14 5.23-3 8.21a13 13 0 0 1-5.95 3.59" transform="translate(-148.97 -9.76)"/>
            <path class="cls-15" d="M517.38 1025.35l-98.77 3.37L438 1151.2l5.33 75.29c.08 2.57 1.8 6.27 5.67 4.64 5.64-2.37 5.54-4.63 6-6.64 0 0 7-46 10.45-76.4a442.19 442.19 0 0 0 2.44-48.13l10.68 66.26 4.45 82.21v.26c0 2.55 1.41 6 5.9 4.92 5.51-1.37 6.13-3.81 6.28-6.22.56-2.79 12.63-61.35 15.6-86.35 2.97-25.56 10.42-127.67 6.58-135.69z" transform="translate(-148.97 -9.76)"/>
            <path class="cls-17" d="M483 1152.58a32.66 32.66 0 0 0 12.47.76c12.8-1.79 26.24-15.69 26.24-15.69v-16.32c0-17.31-.07-83.07-.07-83.07-.44-4.52-1-8.79-1.72-12.83-2.47-12.12-7.09-19.34-17.18-27.38a33.72 33.72 0 0 0-4.41-2.91c-12.86-7.25-37.45-12.89-53.43-6.74-21 8.08-21 33-21 32.9v94.41a214 214 0 0 0 25.76 19.66c13.44 8.63 30.12 16.37 33.34 17.21z" transform="translate(-148.97 -9.76)"/>
            <path class="cls-18" d="M525.27 940.62c3.46 24.26 2.15 115.48 2.15 115.48 0 19.47-4.9 34.8-31.6 38.54a44.83 44.83 0 0 1-15-.91c-20.64-4.41-45.69-19.31-55.46-28.14-16.37-14.8-15.7-28.78-15.7-41v-89c0 .06 0-29.89 25.3-39.62 19.24-7.41 48.86-.62 64.34 8.12-.02.05 22.37 11.24 25.97 36.53z" transform="translate(-148.97 -9.76)"/>
            <path class="cls-14" d="M523.34 932.47a14.21 14.21 0 0 0-10.42-4.82c-15.44 0-14.39 17.49-14.39 17.49v98.17c0 37.76-8.56 48.24-14.14 51.06a40.8 40.8 0 0 0 11.42.26c26.7-3.74 31.6-19.07 31.6-38.54 0 0 1.31-91.21-2.15-115.48a46.21 46.21 0 0 0-1.92-8.14z" transform="translate(-148.97 -9.76)"/>
            <path class="cls-18" d="M483.06 941.7l15 77.61 28.25-5.23s-.17-5.91-.34-13.42c-.73-31.93 2.08-55-3.68-71.63-2.74-7.92-43.54-4.53-39.21 12.68" transform="translate(-148.97 -9.76)"/>
            <path class="cls-15" d="M517 1078s5.59 15.12 5.49 18.23c-.08 2.6-.68 4.15.86 4.92 2.06 1 2.88-.52 2.88-.52a2.32 2.32 0 0 0 3.54-1.08s2 1.34 3-1.91c0 0 2.18 1.8 2.76-4.36.69-7.29-5-18.57-5.05-18.7z" transform="translate(-148.97 -9.76)"/>
            <path class="cls-15" d="M523.76 1101.34a5 5 0 0 1-2.84-3.22c-.82-2.54.52-4.86 2.91-4.81 0 0 4.61 8.8-.07 8.03z" transform="translate(-148.97 -9.76)"/>
            <path class="cls-18" d="M526.26 1013.74l6.44 67.87-13.7 6.45s-13.86-33.76-21.34-70.13" transform="translate(-148.97 -9.76)"/>
            <circle class="cls-18" cx="511.87" cy="1015.13" r="14.45" transform="rotate(-29.16 418.506 1296.48)"/>
            <circle class="cls-18" cx="503.51" cy="938.02" r="20.86" transform="rotate(-.22 -2120.675 39717.628)"/>
            <path class="cls-15" d="M487.9 874.19c.15-14.62-8.82-26.56-20-26.68-6.83-.07-14.78 1.85-18.53 8.55-2.41 4.31-2 12-2.05 17.72a31.54 31.54 0 0 0 4.58 17.06V897c.06 2 1.42 4 4.08 5.55 5.42 3.13 14.18 3.13 19.57 0 2.6-1.51 3.93-3.47 4-5.46V895.19c5-4.7 8.26-12.35 8.35-21z" transform="translate(-148.97 -9.76)"/>
            <path class="cls-19" d="M467.87 847.51c11.21.12 20.18 12.06 20 26.68-.09 8.88-3.53 16.71-8.73 21.46.03 0 4.13-37.46-11.27-48.14z" transform="translate(-148.97 -9.76)"/>
            <path class="cls-20" d="M481.34 894.28c7.71 0 8.83-6.11 8.83-6.11-4.33 1.61-8.22-3.49-8.17-7.52.09-8 4.19-10.44 4.19-10.44s3 1.77 7-1c5.86-4 7.18-14.5-.87-24.12-11-13.18-22.82-22.36-31.73-14.35 0 0-6.54-4.14-14.07 5.17s-11.4 18.71-14.06 28.57c-2.86 10.61-2.86 26.61 12.48 25.61 4.33 10 17 5.56 17 5.56s2.38 3.37 9 3.44c8.06.13 10.4-4.81 10.4-4.81z" transform="translate(-148.97 -9.76)"/>
            <path class="cls-2" d="M523.45 1276l-62.54-35.62c-6.82-3.12-16.58-5.6-23.52-2-6.33 3.29-16.76 10-21.37 12.66-3.5 2-15.66 9.28-8.09 13.4 22.27 12.11 44.31 25.73 66.93 38 4.28 2.33 10.53 3.17 17.1 2.62a45.29 45.29 0 0 0 18.52-5.52l11.09-6.46c4.91-2.86 7.51-6.23 7.76-9.36s-1.69-5.82-5.88-7.72z" transform="translate(-148.97 -9.76)"/>
            <path class="cls-21" d="M474.12 1119.17a34 34 0 0 1 9.63 2.76l2.3 1q2.3 1 4.54 2.09c5.42 2.59 10.63 5.4 15.9 8.43l7.45 4.33c5 2.92 10.18 6.14 14.91 9.42 7.21 5 10.25 7.91 11.22 8.94a14.68 14.68 0 0 1 2.75 3.62 10.81 10.81 0 0 1 .32 7.39c-.11.42-.24.81-.38 1.22 0 0-.06.05-.15.05 1.92-5.19.58-9.54-3-9.7l-7.92-.36c-2.54-3.18-13.49-11.91-19.92-15.74-17.32-10.33-42.49-23.48-47.11-23.69 2.44-.4 6.85.07 9.46.24z" transform="translate(-148.97 -9.76)"/>
            <path class="cls-22" d="M529.81 1091.82a1.22 1.22 0 0 0-.88-.12 3.61 3.61 0 0 0-2 1.45 4.63 4.63 0 0 0-.77 1.57v.21a2.14 2.14 0 0 0 .1 1.31 1 1 0 0 0 .75.59 2 2 0 0 0 1.39-.36h.07a4.6 4.6 0 0 0 1.41-1.54 3.74 3.74 0 0 0 .55-2 1.3 1.3 0 0 0-.62-1.11z" transform="translate(-148.97 -9.76)"/>
            <path class="cls-23" d="M368.85 1074.77l10.8 7.08-.6.34-1.5-.2-9.42-6.03-1.38-1.05 1.18-.27.92.13z"/>
            <path class="cls-24" d="M508.22 1091L494 1130.24l-2-.14 14.07-39c1-2.78 3.12-4.58 5.34-4.73h2.07c-2.2.22-4.26 1.88-5.26 4.63zM511.19 1083.43l2.1-.15a7.44 7.44 0 0 1 4.53 1.25l-2.1.14a11.21 11.21 0 0 0-4.53-1.24zM516.74 1146.29l2.1-.15 14.08-38.92a14.63 14.63 0 0 0 .72-6.63c0-.11 0-.23-.05-.34-.46-3.28-2.11-6.77-5-8.64l-2.1.15c2.86 1.87 4.31 5.37 4.77 8.63a14.25 14.25 0 0 1-.78 6.88z" transform="translate(-148.97 -9.76)"/>
            <path class="cls-25" d="M530.82 1107.37l-13.55 37.75-2.74-1.33 13.62-37.79a10.73 10.73 0 0 0 .37-5.71 9.22 9.22 0 0 0-2.74-5 8 8 0 0 0-.77-.6l-10.8-7.08a5 5 0 0 0-3.5-.84 5.45 5.45 0 0 0-2.47 1.26 7.9 7.9 0 0 0-2.13 3.22L492 1130.1l-2.31-2.42 13.72-37.91a10.76 10.76 0 0 1 2.93-4.43 7.67 7.67 0 0 1 3.21-1.69 7.82 7.82 0 0 1 6.14 1l10.8 7.08a12 12 0 0 1 4.66 7.3 14.53 14.53 0 0 1-.33 8.34z" transform="translate(-148.97 -9.76)"/>
            <path class="cls-26" d="M529.83 1091.83l-12.83-8.35c-.67-.46-1.6 0-2.19.51a4.6 4.6 0 0 0-1.06 1.28 4 4 0 0 0-.55 1.67 1.81 1.81 0 0 0 .18 1 1 1 0 0 0 .33.37l12.87 8.36c-.84-1.08-.09-3 1.05-4.15a2.33 2.33 0 0 1 2.2-.69z" transform="translate(-148.97 -9.76)"/>
            <path class="cls-22" d="M529.81 1091.82a1.22 1.22 0 0 0-.88-.12 3.61 3.61 0 0 0-2 1.45 4.62 4.62 0 0 0-.77 1.57v.21a2.14 2.14 0 0 0 .1 1.31 1 1 0 0 0 .75.59h.24c-.11-.17-.22-.33-.34-.49l1-3.58 1.88-.33q.36.32.68.67v-.21a1.3 1.3 0 0 0-.66-1.07z" transform="translate(-148.97 -9.76)"/>
            <path class="cls-27" d="M506.23 1270.66l-5.82-3.39c-2.58-1.5-5.85.5-7.88 2.45a16.83 16.83 0 0 0-3.53 4.95 14.67 14.67 0 0 0-1.57 6.24 6.62 6.62 0 0 0 .92 3.61 3.83 3.83 0 0 0 1.3 1.26l5.83 3.39c-1.08-2.14-.63-8.95 1.22-12.18 1.54-2.77 7.3-6.4 9.53-6.33z" transform="translate(-148.97 -9.76)"/>
            <path class="cls-28" d="M507.06 1269.23l-17-9.88a5.69 5.69 0 0 0-5.21.22 15.14 15.14 0 0 0-5.34 4.62l-.24.32a20.16 20.16 0 0 0-2.18 3.81 16.07 16.07 0 0 0-1.42 6.24c0 2.59.9 4.51 2.46 5.42l17 9.88a7.41 7.41 0 0 1-2.11-5.52c0-4.29 3.27-10.58 6.65-13.25l.22-.17c1.89-1.49 5.71-2.54 7.17-1.69z" transform="translate(-148.97 -9.76)"/>
            <path class="cls-29" d="M501 1269.8c-4.66 2.69-8.41 9.26-8.4 14.61 0 3.33 1.49 5.56 4 5.93l.91-2.19c-2-.3-3.14-2.07-3.14-4.73a14.8 14.8 0 0 1 6.71-11.63c2-1.13 3.83-1.23 5.12-.25l1.29-2c-1.63-1.26-4-1.17-6.49.26z" transform="translate(-148.97 -9.76)"/>
            <path class="cls-30" d="M454.63 1128.53v-.11a20.29 20.29 0 0 1 2.68-4.78 14 14 0 0 1 2.78-2.78 9.2 9.2 0 0 1 4.56-2c2.41-.35 6.83.09 9.44.29a34 34 0 0 1 9.63 2.76l2.3 1q2.27 1 4.48 2.06c.88.42-5.37-.07-1 2.5l30.68 17.92c2.43 1.42 3.82.86 6.27.19l2.34 1.59c7.21 5 10.25 7.91 11.22 8.94a14.68 14.68 0 0 1 2.75 3.62 10.81 10.81 0 0 1 .32 7.39c-.11.42-.24.81-.38 1.22l-36.22 98.21-.65 1.39c-8.17-.37-15.39 11.45-17.15 18.55a.35.35 0 0 1-.16.2 1.35 1.35 0 0 1-.41.1c-1 .14-4.84.37-5.28.35a18.85 18.85 0 0 1-3.86-.71 72.58 72.58 0 0 1-10.73-4.17c-3.88-1.87-7.46-3.64-11.22-5.65l-4.05-2.24-2.49-1.43c-7.87-4.57-15.67-9-23.1-14.27a91.42 91.42 0 0 1-8.84-6.85c-4.8-3.92-5.85-7.82-4.77-12.24a16 16 0 0 1 .7-2.21l40.14-108.82zm88.12 39.81s-.06.05-.15 0z" transform="translate(-148.97 -9.76)"/>
            <path class="cls-31" d="M414.25 1238c0 .13 0 .1 0 0-.14.39 3.76 3 6.06 4.46 9.21 6 18.87 11.48 28.36 17 6.66 3.86 13.35 7.65 20.12 11.31l.28.15c1.27.68 10.24 5.32 12.36 6-1.12 3-1.47 8.81 2.54 9.62.14 0 4.62-.06 4.77 0a.35.35 0 0 1-.16.2 1.35 1.35 0 0 1-.41.1c-1 .14-4.84.37-5.28.35a18.85 18.85 0 0 1-3.86-.71 72.58 72.58 0 0 1-10.73-4.17c-3.88-1.87-7.46-3.64-11.22-5.65l-4.05-2.24-2.49-1.43c-7.87-4.57-15.67-9-23.1-14.27a91.48 91.48 0 0 1-8.84-6.85c-4.8-3.92-5.85-7.82-4.77-12.24.09-.63.25-1.15.42-1.63z" transform="translate(-148.97 -9.76)"/>
            <path class="cls-32" d="M480.7 1281.79c.13 2.24 1 4.29 3.27 4.74.14 0 4.62-.06 4.77 0a.35.35 0 0 1-.16.2 1.35 1.35 0 0 1-.41.1c-1 .14-4.84.37-5.28.35a18.85 18.85 0 0 1-3.86-.71 72.58 72.58 0 0 1-10.73-4.17c-3.88-1.87-7.46-3.64-11.22-5.65l-4.05-2.24-2.49-1.43c-7.87-4.57-15.67-9-23.1-14.27a91.42 91.42 0 0 1-8.84-6.85c-4.33-3.55-5.61-7.07-5-11a15.62 15.62 0 0 0 3.94 4.51c1.72 1.56 6.64 5.49 11 8.53 7.43 5.24 15.23 9.7 23.1 14.27l2.49 1.43 4.05 2.24c3.76 2 7.34 3.77 11.22 5.65a72.53 72.53 0 0 0 10.73 4.17z" transform="translate(-148.97 -9.76)"/>
            <path class="cls-31" d="M474.12 1119.17a34 34 0 0 1 9.63 2.76l2.3 1c1.53.68 3.13 1.42 4.62 2.13l-.31.92c-.47.91-.91 1.46-.43 1.72l27.69 15.85c2 1 3.12.65 5.16-.31.79.53 5.3 3.43 6.07 4 7.21 5 10.25 7.91 11.22 8.94a14.68 14.68 0 0 1 2.75 3.62 10.81 10.81 0 0 1 .32 7.39c-.11.42-.24.81-.38 1.22 0 0-.06.05-.15.05 1.92-5.19.58-9.54-3-9.7l-7.92-.36c-2.54-3.18-13.49-11.91-19.92-15.74-17.32-10.33-42.49-23.48-47.11-23.69 2.44-.44 6.85.03 9.46.2z" transform="translate(-148.97 -9.76)"/>
            <path class="cls-31" d="M481.43 1276.91l40.38-109.49c1.91-5.19 6.35-9.27 9.9-9.11l7.92.36c3.55.16 4.89 4.51 3 9.7.08 0 .13 0 .15-.05l-36.22 98.21-.65 1.39c-8.17-.37-15.39 11.45-17.15 18.55-1.61 0-2.77.19-4.34.11-3.57-.14-4.9-4.48-2.99-9.67z" transform="translate(-148.97 -9.76)"/>
            <path class="cls-33" d="M502.18 1275.68a9.57 9.57 0 0 0-4.38 7.53c0 2.76 2 3.88 4.41 2.49a9.58 9.58 0 0 0 4.38-7.53c-.01-2.77-1.99-3.88-4.41-2.49z" transform="translate(-148.97 -9.76)"/>
            <path class="cls-34" d="M502.95 1275.54h.11a3.38 3.38 0 0 1 .65-.14h.29a2.43 2.43 0 0 1 .45 0h.17a2.07 2.07 0 0 1 .54.2h.05a2.07 2.07 0 0 1 .43.35l.06.06a2.39 2.39 0 0 1 .34.52l.05.11a3.42 3.42 0 0 1 .21.66v.13a4.56 4.56 0 0 1 .08.83 6.34 6.34 0 0 1-.07.88v.27c0 .09-.09.43-.15.65s-.06.24-.1.36-.11.31-.17.47-.16.43-.26.63-.2.42-.31.62l-.14.26a10.37 10.37 0 0 1-.57.87l-.07.09c-.18.24-.37.47-.57.68l-.21.22q-.25.25-.52.48l-.22.18a6.61 6.61 0 0 1-.76.53 4.69 4.69 0 0 1-.84.39c-.09 0-.18 0-.28.06a3.53 3.53 0 0 1-.51.11 2.41 2.41 0 0 1-.65 0h-.18a2 2 0 0 1-.37-.14 2.12 2.12 0 0 1-.34-.23 2 2 0 0 1-.23-.19 2.13 2.13 0 0 1-.16-.2 2.5 2.5 0 0 1-.24-.36l-.09-.19a3.19 3.19 0 0 1-.2-.62 4.65 4.65 0 0 1-.09-.91 6.24 6.24 0 0 1 .08-.94v-.15a8.13 8.13 0 0 1 .21-.91v-.14a9.27 9.27 0 0 1 .34-.93v-.07c.13-.29.27-.57.43-.85l.08-.15c.17-.28.35-.56.54-.82s.19-.24.29-.36.25-.32.39-.47a7.5 7.5 0 0 1 .54-.52l.27-.26a6.63 6.63 0 0 1 .88-.62 5 5 0 0 1 .77-.36zm5.5 0c0-.32 0-.62-.05-.91v-.08-.23c0-.08-.06-.37-.1-.55s0-.09 0-.13 0-.12-.06-.19-.09-.3-.14-.44v-.15l-.07-.14c-.06-.13-.12-.26-.19-.39s0-.11-.08-.16l-.06-.09a4.11 4.11 0 0 0-.24-.35c0-.05-.07-.11-.11-.15a3.83 3.83 0 0 0-.36-.36l-.09-.1a3.61 3.61 0 0 0-.55-.37h-.11a3.48 3.48 0 0 0-.51-.21H505.52a4 4 0 0 0-.67-.12h-.09a5.09 5.09 0 0 0-1 .05h-.24l-.49.12-.3.08c-.19.06-.37.14-.57.22l-.21.08a9.253 9.253 0 0 0-1.64.94l-.26.2-.53.4-.3.26-.46.41-.31.31-.42.44-.12.13-.09.11q-.56.63-1.06 1.32l-.06.07-.12.18q-.28.41-.55.84l-.12.18-.06.11c-.17.29-.33.58-.49.87l-.07.13q-.25.5-.47 1l-.1.27c-.09.23-.19.46-.27.69v.1c0 .1-.06.2-.09.3s-.13.39-.19.59v.15c0 .09 0 .18-.07.28s-.1.38-.14.56v.44c0 .08-.06.37-.09.55s0 .15 0 .22V1285.14a7.59 7.59 0 0 0 .1.77v.12a6.24 6.24 0 0 0 .23.85v.08l.06.12a5.2 5.2 0 0 0 .32.68l.05.12a4.08 4.08 0 0 0 .6.75l.06.07.1.08.29.23.22.15a3.23 3.23 0 0 0 .33.17l.16.09h.06a3.78 3.78 0 0 0 .82.23h.18a4.67 4.67 0 0 0 .9 0h.05l.4-.06h.3l.44-.12.29-.08c.16-.05.33-.13.5-.2l.26-.1c.26-.12.52-.25.78-.41a11.14 11.14 0 0 0 1-.69l.25-.19c.34-.26.67-.53 1-.83l.05-.05c.3-.29.6-.6.88-.92l.21-.24c.29-.34.58-.69.85-1.06l.05-.08c.27-.38.53-.77.78-1.17l.14-.23q.37-.63.69-1.28l.06-.1.12-.27.25-.56.17-.43c.07-.19.14-.37.21-.56s.06-.15.08-.23v-.13c.15-.47.28-.95.39-1.42v-.08-.18c.07-.34.12-.67.16-1v-.19-.11c0-.36.06-.72.05-1.08z" transform="translate(-148.97 -9.76)"/>
            <path class="cls-15" d="M521.58 1092.26s-2.25 4.92.12 7.75 6.12 1.35 6.12-.12-2.74-10.09-6.24-7.63z" transform="translate(-148.97 -9.76)"/>
            <path class="cls-15" d="M517.79 1090.36s-2.25 4.92.12 7.75 6.12 1.35 6.12-.12-2.74-10.09-6.24-7.63z" transform="translate(-148.97 -9.76)"/>
            <path class="cls-35" d="M1029.25 1136c-12-9.33-85.19 31.88-87.78 40.19s3.44 15.8 12 19.7c.83.47 3.58-.44 4.62-.8 15.56-5.33 62.25-32 74.35-42.91 5.1-4.57.64-12.1-3.19-16.18z" transform="translate(-148.97 -9.76)"/>
            <path class="cls-36" d="M1029.44 1152.65a15.63 15.63 0 0 1-3.11-7.22c-.3-2.23 0-4.79 1.93-5.91l-17.76 10.2a4.74 4.74 0 0 0-2 3.65 13.52 13.52 0 0 0 1 6.12 9.5 9.5 0 0 0 2.3 3.4 165.75 165.75 0 0 0 17.64-10.24z" transform="translate(-148.97 -9.76)"/>
            <path class="cls-36" d="M862.85 1153.13l-.96 1.18 17.63-10.24.96-1.18-17.63 10.24z"/>
            <path class="cls-37" d="M1025.66 1148.33a9.92 9.92 0 0 1 4.54 7.81c0 2.86-2.07 4-4.57 2.59a9.93 9.93 0 0 1-4.54-7.81c0-2.92 2.05-4.03 4.57-2.59z" transform="translate(-148.97 -9.76)"/>
            <path class="cls-38" d="M1021.45 1143.13l6-3.51c2.68-1.56 6.06.52 8.17 2.54a17.46 17.46 0 0 1 3.66 5.13 15.22 15.22 0 0 1 1.62 6.47 6.86 6.86 0 0 1-1 3.74 4 4 0 0 1-1.35 1.3l-6 3.51c1.12-2.22.66-9.28-1.26-12.64-1.55-2.85-7.5-6.61-9.84-6.54z" transform="translate(-148.97 -9.76)"/>
            <path class="cls-39" d="M1024.86 1148.19h-.11a3.53 3.53 0 0 0-.67-.15h-.26a2.55 2.55 0 0 0-.46 0h-.18a2.15 2.15 0 0 0-.56.2h-.05a2.13 2.13 0 0 0-.45.36l-.06.06a2.48 2.48 0 0 0-.35.54l-.05.11a3.52 3.52 0 0 0-.22.68v.14a4.71 4.71 0 0 0-.08.87 6.61 6.61 0 0 0 .07.92v.28c0 .09.1.45.16.67s.06.25.1.37.12.32.18.49.17.44.27.66.21.44.33.65l.15.27c.18.31.38.61.59.9l.07.09c.19.25.39.48.59.71l.22.23c.17.18.35.34.54.5l.22.19a6.83 6.83 0 0 0 .79.55 4.84 4.84 0 0 0 .88.4c.1 0 .19 0 .29.06a3.61 3.61 0 0 0 .53.11 2.49 2.49 0 0 0 .67 0l.19-.05a2 2 0 0 0 .39-.14 2.23 2.23 0 0 0 .36-.23 2.07 2.07 0 0 0 .24-.19 2.12 2.12 0 0 0 .16-.2 2.46 2.46 0 0 0 .24-.37l.09-.19a3.31 3.31 0 0 0 .21-.65 4.85 4.85 0 0 0 .09-.94 6.5 6.5 0 0 0-.08-1v-.16a8.49 8.49 0 0 0-.22-.94v-.14a9.38 9.38 0 0 0-.36-1v-.08c-.13-.3-.28-.59-.44-.88l-.09-.16q-.26-.44-.56-.85c-.1-.13-.2-.25-.3-.38s-.26-.33-.4-.48-.37-.37-.56-.54-.19-.19-.28-.27a6.82 6.82 0 0 0-.91-.64 5.18 5.18 0 0 0-.8-.37zm-5.7 0c0-.33 0-.64.05-.94a.84.84 0 0 0 0-.09v-.23c0-.08.06-.38.1-.57s0-.09 0-.13 0-.13.06-.19.09-.31.14-.46v-.16l.07-.14c.06-.14.12-.27.19-.4s0-.12.08-.17l.06-.09a4.22 4.22 0 0 1 .25-.36c0-.05.07-.11.11-.16v-.05a3.91 3.91 0 0 1 .37-.37l.1-.1a3.72 3.72 0 0 1 .57-.39h.12a3.63 3.63 0 0 1 .53-.22h.22a4.2 4.2 0 0 1 .7-.12h.1a5.23 5.23 0 0 1 1 .06h.25l.5.12.31.09c.19.06.39.14.59.22l.21.08c.28.13.57.27.86.44s.57.35.84.54l.27.21.55.42.31.27.47.43.32.32.43.45.13.13.09.12q.58.65 1.1 1.37l.06.07.12.19q.29.43.57.87l.12.19.06.12c.18.3.34.6.5.91l.07.13q.26.52.49 1v.05l.11.28c.1.24.19.47.28.71v.11c0 .1.06.21.1.31s.13.41.19.61v.15c0 .1 0 .19.07.29s.1.39.14.58v.45c0 .09.07.38.09.57s0 .15 0 .23v2.2a7.89 7.89 0 0 1-.1.79v.12a6.4 6.4 0 0 1-.24.88v.08l-.06.13a5.41 5.41 0 0 1-.33.71l-.06.12a4.22 4.22 0 0 1-.62.78l-.06.07-.11.09-.3.24-.23.16a3.3 3.3 0 0 1-.34.18l-.16.09h-.06a4 4 0 0 1-.85.23h-.19a4.91 4.91 0 0 1-.94 0l-.42-.06h-.31l-.45-.13-.31-.09c-.17-.06-.34-.13-.52-.21l-.27-.11a7.82 7.82 0 0 1-.81-.42 11.77 11.77 0 0 1-1.08-.72l-.26-.19c-.35-.27-.69-.55-1-.86l-.05-.06c-.31-.3-.62-.62-.92-.95l-.22-.25c-.3-.35-.6-.72-.88-1.1l-.05-.08c-.28-.4-.55-.8-.81-1.22l-.15-.24q-.38-.65-.72-1.33l-.06-.11-.12-.28-.26-.58-.18-.44c-.08-.19-.15-.39-.22-.58s-.06-.16-.09-.24v-.14c-.16-.49-.29-1-.4-1.47v-.08-.19c-.07-.35-.13-.69-.17-1v-.2-.11c0-.38-.06-.75-.06-1.11z" transform="translate(-148.97 -9.76)"/>
            <path class="cls-37" d="M1015.71 1154.17a9.93 9.93 0 0 1 4.54 7.81c0 2.86-2.07 4-4.57 2.59a9.93 9.93 0 0 1-4.54-7.81c0-2.88 2.06-4.03 4.57-2.59z" transform="translate(-148.97 -9.76)"/>
            <path class="cls-38" d="M1011.51 1149l6-3.51c2.68-1.56 6.06.52 8.17 2.54a17.45 17.45 0 0 1 3.66 5.13 15.23 15.23 0 0 1 1.62 6.47 6.86 6.86 0 0 1-1 3.74 4 4 0 0 1-1.35 1.3l-6 3.51c1.12-2.22.66-9.28-1.26-12.64-1.55-2.89-7.51-6.65-9.84-6.54z" transform="translate(-148.97 -9.76)"/>
            <path class="cls-39" d="M1014.91 1154h-.11a3.58 3.58 0 0 0-.67-.15h-.26a2.55 2.55 0 0 0-.46 0h-.18a2.15 2.15 0 0 0-.56.2h-.05a2.11 2.11 0 0 0-.45.36l-.06.06a2.46 2.46 0 0 0-.35.54l-.05.11a3.5 3.5 0 0 0-.22.68v.14a4.71 4.71 0 0 0-.08.87 6.61 6.61 0 0 0 .07.92v.28c0 .09.1.45.16.67s.06.25.1.37.12.32.18.49.17.44.27.66.21.43.33.65l.15.27c.18.31.38.61.59.9l.07.09c.19.25.38.48.59.71l.22.22c.17.18.35.34.53.5l.22.19a6.83 6.83 0 0 0 .79.55 4.88 4.88 0 0 0 .88.4c.1 0 .19 0 .29.06a3.61 3.61 0 0 0 .53.11 2.49 2.49 0 0 0 .67 0l.19-.05a2.12 2.12 0 0 0 .38-.14 2.24 2.24 0 0 0 .36-.23 2.12 2.12 0 0 0 .24-.19 2.38 2.38 0 0 0 .16-.2 2.49 2.49 0 0 0 .24-.37l.09-.19a3.29 3.29 0 0 0 .21-.65 4.83 4.83 0 0 0 .09-.94 6.5 6.5 0 0 0-.08-1v-.16a8.47 8.47 0 0 0-.22-.94v-.15a9.24 9.24 0 0 0-.36-1v-.08c-.13-.3-.28-.59-.44-.88l-.09-.16c-.17-.29-.36-.58-.56-.85s-.2-.25-.3-.38-.26-.33-.4-.48a7.72 7.72 0 0 0-.56-.54c-.09-.09-.19-.19-.28-.27a6.81 6.81 0 0 0-.91-.64 5.09 5.09 0 0 0-.8-.37zm-5.7 0c0-.33 0-.64.05-.94a.68.68 0 0 0 0-.09v-.23c0-.08.06-.38.1-.57s0-.09 0-.13 0-.13.06-.19.09-.31.14-.46v-.16l.07-.14c.06-.14.12-.27.19-.4s0-.12.08-.17l.06-.09a4.33 4.33 0 0 1 .25-.36c0-.05.07-.11.11-.16v-.05a3.91 3.91 0 0 1 .37-.37l.1-.1a3.8 3.8 0 0 1 .57-.39h.12a3.77 3.77 0 0 1 .53-.22h.22a4.13 4.13 0 0 1 .7-.12h.1a5.24 5.24 0 0 1 1 .06h.25l.5.12.31.09c.19.06.39.14.59.22l.21.08c.28.13.57.27.86.44s.57.35.84.54l.27.21.54.42.31.27.48.43.32.32.43.45.13.13.09.12q.58.65 1.1 1.37l.06.07.12.19q.29.43.57.87l.12.19.06.12c.18.3.34.6.5.91l.07.13q.26.52.49 1l.11.28c.1.24.19.47.28.71v.11c0 .1.06.21.1.31s.13.41.19.61v.15c0 .1 0 .19.07.29s.1.39.14.58v.45c0 .09.07.38.09.57s0 .15 0 .23v2.2a7.91 7.91 0 0 1-.1.8v.12a6.4 6.4 0 0 1-.24.88v.08l-.06.13a5.37 5.37 0 0 1-.33.7l-.06.12a4.23 4.23 0 0 1-.62.78l-.06.07-.11.09-.3.24-.23.16a3.3 3.3 0 0 1-.34.18l-.16.09h-.06a3.92 3.92 0 0 1-.85.23h-.19a4.86 4.86 0 0 1-.94 0h-.05l-.41-.06h-.31l-.45-.13-.31-.09c-.17-.06-.34-.13-.52-.21l-.27-.11a7.82 7.82 0 0 1-.81-.42 11.64 11.64 0 0 1-1.08-.72l-.26-.19c-.35-.27-.69-.55-1-.86l-.05-.05c-.31-.3-.62-.62-.92-.95l-.22-.25c-.3-.35-.6-.72-.88-1.09l-.05-.08c-.28-.39-.55-.8-.81-1.22l-.15-.24q-.38-.65-.72-1.33l-.06-.11-.12-.28-.26-.58-.18-.44c-.08-.19-.15-.39-.22-.58s-.06-.16-.09-.24v-.14c-.16-.49-.29-1-.4-1.47v-.08-.19c-.07-.35-.13-.7-.17-1v-.2-.11c0-.38-.06-.75-.06-1.12z" transform="translate(-148.97 -9.76)"/>
            <path class="cls-40" d="M1015.61 1148.21l17.63-10.25c-1.85-1.06-4.25-1.75-6.23-.61l-17.63 10.24c1.62-.59 4.39-.07 6.23.62z" transform="translate(-148.97 -9.76)"/>
            <path class="cls-39" d="M1022.24 1155.55l17.63-10.24a19.88 19.88 0 0 0-4.73-6h-.06a13 13 0 0 0-1.84-1.3l-17.63 10.25a28.21 28.21 0 0 1 6.63 7.29z" transform="translate(-148.97 -9.76)"/>
            <path class="cls-37" d="M1015.61 1148.21c-4.83-2.79-8.78-.54-8.8 5a18.77 18.77 0 0 0 4 10.85l.49-.6.47-.58a15 15 0 0 1-3.22-8.65c0-4.43 3.15-6.22 7-4a14.54 14.54 0 0 1 5.29 5.85l1.35-.55a18.31 18.31 0 0 0-6.58-7.32z" transform="translate(-148.97 -9.76)"/>
            <path class="cls-36" d="M971.84 1186.11a15.62 15.62 0 0 1-3.11-7.22c-.3-2.23 0-4.79 1.93-5.91l-17.76 10.2a4.74 4.74 0 0 0-2 3.65 13.52 13.52 0 0 0 1 6.12 9.49 9.49 0 0 0 2.3 3.4 165.92 165.92 0 0 0 17.64-10.24z" transform="translate(-148.97 -9.76)"/>
            <path class="cls-36" d="M805.24 1186.59l-.95 1.17 17.62-10.24.96-1.17-17.63 10.24z"/>
            <path class="cls-37" d="M968.06 1181.79a9.93 9.93 0 0 1 4.54 7.81c0 2.86-2.07 4-4.57 2.59a9.93 9.93 0 0 1-4.54-7.81c0-2.87 2.05-4.03 4.57-2.59z" transform="translate(-148.97 -9.76)"/>
            <path class="cls-38" d="M963.85 1176.58l6-3.51c2.68-1.56 6.06.52 8.17 2.54a17.46 17.46 0 0 1 3.66 5.13 15.22 15.22 0 0 1 1.62 6.47 6.86 6.86 0 0 1-1 3.74 4 4 0 0 1-1.35 1.3l-6 3.51c1.12-2.22.66-9.28-1.26-12.64-1.55-2.85-7.51-6.6-9.84-6.54z" transform="translate(-148.97 -9.76)"/>
            <path class="cls-39" d="M967.26 1181.65h-.11a3.53 3.53 0 0 0-.67-.15h-.26a2.55 2.55 0 0 0-.46 0h-.18a2.15 2.15 0 0 0-.56.2h-.05a2.13 2.13 0 0 0-.45.36l-.06.06a2.48 2.48 0 0 0-.35.54l-.05.11a3.53 3.53 0 0 0-.22.68v.14a4.7 4.7 0 0 0-.08.86 6.61 6.61 0 0 0 .07.92v.28c0 .09.1.45.16.67s.06.25.1.37.12.32.18.49.17.44.27.66.21.43.33.65l.15.27c.18.31.38.61.59.9l.07.09c.19.25.38.48.59.71l.22.23c.17.18.35.34.53.5l.22.19a6.94 6.94 0 0 0 .79.55 4.84 4.84 0 0 0 .88.4c.1 0 .19 0 .29.06a3.69 3.69 0 0 0 .53.11 2.49 2.49 0 0 0 .67 0l.19-.05a2.09 2.09 0 0 0 .39-.14 2.22 2.22 0 0 0 .36-.23 2.07 2.07 0 0 0 .24-.19 2.22 2.22 0 0 0 .16-.2 2.46 2.46 0 0 0 .24-.37l.09-.19a3.31 3.31 0 0 0 .21-.65 4.85 4.85 0 0 0 .09-.94 6.5 6.5 0 0 0-.08-1v-.16a8.49 8.49 0 0 0-.22-.94v-.15a9.43 9.43 0 0 0-.36-1v-.08c-.13-.3-.28-.59-.44-.88l-.09-.16q-.26-.44-.56-.85c-.1-.13-.2-.25-.3-.38s-.26-.33-.4-.48-.37-.37-.56-.54-.19-.19-.28-.27a6.82 6.82 0 0 0-.91-.64 5.18 5.18 0 0 0-.8-.37zm-5.7 0c0-.33 0-.64.05-.94a.7.7 0 0 0 0-.09v-.23c0-.08.06-.38.1-.57s0-.09 0-.13 0-.13.06-.19.09-.31.14-.46v-.16l.07-.14c.06-.14.12-.27.19-.4s0-.12.08-.17l.06-.09a4.31 4.31 0 0 1 .25-.36c0-.05.07-.11.11-.16v-.05a3.91 3.91 0 0 1 .37-.37l.1-.1a3.74 3.74 0 0 1 .57-.39h.12a3.7 3.7 0 0 1 .53-.22h.22a4.2 4.2 0 0 1 .7-.12h.1a5.24 5.24 0 0 1 1 .06h.25l.5.12.31.09c.19.06.39.14.59.22l.21.08c.28.13.57.27.86.44s.57.35.84.54l.27.21.54.42.31.27.48.43.32.32.43.45.13.13.09.12q.58.65 1.1 1.37l.06.07.12.19q.29.43.57.87l.12.19.06.12c.18.3.34.6.5.91l.07.13q.26.52.49 1l.11.28c.1.24.19.47.28.71v.11c0 .1.06.21.1.31s.13.41.19.61v.15c0 .1 0 .19.07.29s.1.39.14.58v.45c0 .09.07.38.09.57s0 .15 0 .23v2.2a7.88 7.88 0 0 1-.1.8v.12a6.4 6.4 0 0 1-.24.88v.08l-.06.13a5.41 5.41 0 0 1-.33.71l-.06.12a4.22 4.22 0 0 1-.62.78l-.06.07-.11.09a3.57 3.57 0 0 1-.3.24l-.23.16a3.3 3.3 0 0 1-.34.18l-.16.09h-.06a4 4 0 0 1-.85.23h-.19a4.86 4.86 0 0 1-.94 0h-.05l-.41-.06h-.31l-.45-.13.29-.04c-.17-.06-.34-.13-.52-.21l-.27-.11a7.82 7.82 0 0 1-.81-.42 11.77 11.77 0 0 1-1.08-.72l-.26-.19c-.35-.27-.69-.55-1-.86l-.05-.05c-.31-.3-.62-.62-.92-.95l-.22-.25c-.3-.35-.6-.72-.88-1.1l-.05-.08c-.28-.4-.55-.8-.81-1.22l-.15-.24c-.26-.43-.5-.88-.72-1.33l-.06-.11-.12-.28c-.09-.19-.18-.38-.26-.58l-.18-.44c-.08-.19-.15-.39-.22-.58s-.06-.16-.09-.24v-.14c-.16-.49-.29-1-.4-1.47v-.08-.19c-.07-.35-.13-.69-.17-1v-.2-.11c0-.38-.06-.75-.06-1.11z" transform="translate(-148.97 -9.76)"/>
            <path class="cls-37" d="M958.11 1187.63a9.93 9.93 0 0 1 4.54 7.81c0 2.86-2.07 4-4.57 2.59a9.93 9.93 0 0 1-4.54-7.81c0-2.88 2.05-4.04 4.57-2.59z" transform="translate(-148.97 -9.76)"/>
            <path class="cls-38" d="M953.9 1182.42l6-3.51c2.68-1.56 6.06.52 8.17 2.54a17.45 17.45 0 0 1 3.66 5.13 15.23 15.23 0 0 1 1.62 6.47 6.86 6.86 0 0 1-1 3.74 4 4 0 0 1-1.35 1.3l-6 3.51c1.12-2.22.66-9.28-1.26-12.64-1.55-2.85-7.51-6.61-9.84-6.54z" transform="translate(-148.97 -9.76)"/>
            <path class="cls-39" d="M957.31 1187.48h-.11a3.61 3.61 0 0 0-.67-.15h-.26a2.55 2.55 0 0 0-.46 0h-.18a2.15 2.15 0 0 0-.56.2h-.05a2.11 2.11 0 0 0-.45.36l-.06.06a2.46 2.46 0 0 0-.35.54l-.05.11a3.5 3.5 0 0 0-.22.68v.14a4.71 4.71 0 0 0-.08.87 6.61 6.61 0 0 0 .07.92v.28c0 .09.1.45.16.67s.06.25.1.37.12.32.18.49.17.44.27.66.21.43.33.65l.15.27c.18.31.38.61.59.9l.07.09c.19.25.38.48.59.71l.22.22c.17.18.35.34.53.5l.22.19a6.78 6.78 0 0 0 .79.55 4.84 4.84 0 0 0 .88.4c.1 0 .19 0 .29.06a3.61 3.61 0 0 0 .53.11 2.49 2.49 0 0 0 .67 0l.19-.05a2.12 2.12 0 0 0 .38-.14 2.24 2.24 0 0 0 .36-.23 2.06 2.06 0 0 0 .24-.19 2.27 2.27 0 0 0 .16-.2 2.54 2.54 0 0 0 .24-.37l.09-.19a3.3 3.3 0 0 0 .21-.65 4.79 4.79 0 0 0 .09-.94 6.5 6.5 0 0 0-.08-1v-.16a8.47 8.47 0 0 0-.22-.94v-.15a9.26 9.26 0 0 0-.36-1v-.08c-.13-.3-.28-.59-.44-.88l-.09-.16c-.17-.29-.36-.58-.56-.85s-.2-.25-.3-.38-.26-.33-.4-.48a7.72 7.72 0 0 0-.56-.54c-.09-.09-.19-.19-.28-.27a6.81 6.81 0 0 0-.91-.64 5.09 5.09 0 0 0-.8-.37zm-5.7 0c0-.33 0-.64.05-.94a.68.68 0 0 0 0-.09v-.23c0-.08.06-.38.1-.57s0-.09 0-.13 0-.13.06-.19.09-.31.14-.46v-.16l.07-.14c.06-.14.12-.27.19-.4s0-.12.08-.17l.06-.09a4.33 4.33 0 0 1 .25-.36c0-.05.07-.11.11-.16v-.05a3.91 3.91 0 0 1 .37-.37l.1-.1a3.76 3.76 0 0 1 .57-.39h.12a3.7 3.7 0 0 1 .53-.22h.22a4.07 4.07 0 0 1 .7-.12h.1a5.28 5.28 0 0 1 1 .06h.25l.5.12.31.09c.19.06.39.14.59.22l.21.08c.28.13.57.27.86.44s.57.35.84.54l.27.21.54.42.31.27.48.43.32.32.43.45.13.13.09.12q.58.65 1.1 1.37l.06.07.12.19q.29.43.57.87l.12.19.06.12c.18.3.34.6.5.91l.07.13q.26.52.49 1l.11.28c.1.24.19.47.28.71v.11c0 .1.06.21.1.31s.13.41.19.61v.15c0 .1 0 .19.07.29s.1.39.14.58v.45c0 .09.07.38.09.57s0 .15 0 .23v2.19a7.91 7.91 0 0 1-.1.8v.12a6.51 6.51 0 0 1-.24.88v.08l-.06.13a5.35 5.35 0 0 1-.33.7l-.06.12a4.22 4.22 0 0 1-.62.78l-.06.07-.11.09-.3.24-.23.16a3.3 3.3 0 0 1-.34.18l-.16.09h-.06a3.92 3.92 0 0 1-.85.23h-.19a4.86 4.86 0 0 1-.94 0l-.42-.06h-.31l-.45-.13-.31-.09c-.17-.06-.34-.13-.52-.21l-.27-.11a7.82 7.82 0 0 1-.81-.42 11.53 11.53 0 0 1-1.08-.72l-.26-.19c-.35-.27-.69-.55-1-.86l-.05-.05c-.31-.3-.62-.62-.92-1l-.22-.25c-.3-.35-.6-.72-.88-1.09l-.05-.08c-.28-.39-.55-.8-.81-1.22l-.15-.24c-.26-.43-.5-.88-.72-1.33l-.06-.11-.12-.28-.26-.58-.18-.44c-.08-.19-.15-.39-.22-.58l-.09-.24v-.14c-.16-.49-.29-1-.4-1.47v-.08-.19c-.07-.35-.13-.7-.17-1v-.2-.11c0-.38-.06-.75-.06-1.12z" transform="translate(-148.97 -9.76)"/>
            <path class="cls-40" d="M958 1181.66l17.63-10.25c-1.85-1.06-4.25-1.75-6.23-.61l-17.63 10.24c1.66-.58 4.39-.04 6.23.62z" transform="translate(-148.97 -9.76)"/>
            <path class="cls-39" d="M964.64 1189l17.63-10.24a19.87 19.87 0 0 0-4.73-6h-.06a13 13 0 0 0-1.84-1.3l-17.64 10.2a28.2 28.2 0 0 1 6.64 7.34z" transform="translate(-148.97 -9.76)"/>
            <path class="cls-37" d="M958 1181.66c-4.83-2.79-8.78-.54-8.8 5a18.77 18.77 0 0 0 4 10.85l.49-.6.47-.58a15 15 0 0 1-3.22-8.65c0-4.43 3.15-6.22 7-4a14.54 14.54 0 0 1 5.29 5.85l1.35-.55a18.31 18.31 0 0 0-6.58-7.32z" transform="translate(-148.97 -9.76)"/>
            <path class="cls-41" d="M1044.87 1135.38a6.65 6.65 0 0 0 .63-2.55q.14-53.48.3-107a4.66 4.66 0 0 0 0-.95 16.86 16.86 0 0 0-.7-3.79 22 22 0 0 0-4.88-8.42c-3.35-3.52-10.6-7-14.57-9.26l-.09-.05a12.56 12.56 0 0 0-1.93-.85 8.62 8.62 0 0 0-1.78-.41c-8.19-1-27.14 9.28-35.23 13.68-10.2 5.63-20.69 11.69-30.3 18.16a138.32 138.32 0 0 0-14.4 10.85 26.8 26.8 0 0 0-4.76 5.29c-.44.7-1.41 2.33-1.33 6l-.34 118.55c0 9.65 8.74 16.93 16.16 20.37a17.54 17.54 0 0 1-2.4-8.34c0-2.78 1-4.73 2.59-5.63 4.78-2.72 6.36-3.8 12.19-.71.18.1 4.12 2.78 12-.41 7.44-1.84 17.59-6.17 28.29-12.4l9-5.24q3.34-1.94 6.46-4c7.02-4.5 21.6-14.89 25.09-22.89z" transform="translate(-148.97 -9.76)"/>
            <path class="cls-42" d="M1043.63 1028.66l-.31 109.44a16.51 16.51 0 0 0 1.55-2.71l.31-108.33a15.2 15.2 0 0 1-1.55 1.6zM1045.66 1048.84zm.14-23V1132.85a6.65 6.65 0 0 1-.63 2.55l.31-108.33a2.63 2.63 0 0 0 .32-1.2zM964.38 1072.6l-.3 106.16a3.07 3.07 0 0 0 1.75 1.62l.31-107.77a3.18 3.18 0 0 1-1.76-.01zM966.14 1072.62l-.31 107.77a7.41 7.41 0 0 0 2.29.49l.31-108.88a19.29 19.29 0 0 1-2.29.62z" transform="translate(-148.97 -9.76)"/>
            <path class="cls-41" d="M964.09 1177.13c.08-30.18.19-67.35.3-104.52 0-5.61-3.94-12.46-8.83-15.28l-10.9-6.29c-4.88-2.82-8.86-.55-8.88 5.06l-.34 118.55c0 9.65 8.74 16.93 16.16 20.37a17.54 17.54 0 0 1-2.4-8.34c0-2.78 1-4.74 2.61-5.64l3-1.62c2.39-1.3 5.71-.93 9.19.92.19.1 4.15 2.8 12-.44-7.78 2.26-11.92-.23-11.91-2.77z" transform="translate(-148.97 -9.76)"/>
            <path class="cls-43" d="M1045.77 1024.93a16.86 16.86 0 0 0-.7-3.79 22 22 0 0 0-4.88-8.42 40.69 40.69 0 0 0-7.32-5.32c-2.31-1.34-4.94-2.61-7.25-3.94-.37-.27-1.3-.06-1.72 0-13.71 2.7-63.87 32.29-76.89 44.53l-.76.73c-.38.4-1.55 1.57-1.55 2.27l10.9 6.29c5 2.91 8.85 9.88 8.83 15.28.83.47 3.58-.44 4.62-.8 15.56-5.33 62.25-32 74.35-42.91a16.48 16.48 0 0 0 1.89-1.9 3.74 3.74 0 0 0 .44-.74 1.21 1.21 0 0 0 .11-.36 4.42 4.42 0 0 0-.07-.92z" transform="translate(-148.97 -9.76)"/>
            <path class="cls-42" d="M1023.59 1002.56a8.62 8.62 0 0 0-1.78-.41c-8.19-1-27.14 9.28-35.23 13.68-10.2 5.63-20.69 11.69-30.3 18.16a138.35 138.35 0 0 0-14.4 10.85 26.86 26.86 0 0 0-4.76 5.29c-.44.7-1.41 2.33-1.33 6 0-5.55 4-7.88 8.88-5.06 0-.61 1-1.71 1.39-2.09 3.6-3.73 13.87-11 26.76-18.84 5.6-3.42 11.3-6.68 17-10a285.44 285.44 0 0 1 26.83-14s7.72-3.28 9-2.63a12.4 12.4 0 0 0-2.06-.95z" transform="translate(-148.97 -9.76)"/>
            <path class="cls-44" d="M853.23 1000.92l-38.3 22.42 4.61 2.7 39.41-22.79-5.72-2.33z"/>
            <path class="cls-45" d="M853.23 1000.92l-2.39 1.45-3.16 7.38 11.27-6.5-5.72-2.33z"/>
            <path class="cls-46" d="M1000.06 981.88v.76l.42 34.65 3.23-1.86.39-2.55-.2-29c0-5.9-2.87-6.46-7.45-6 2.76.37 3.55 2.06 3.61 4z" transform="translate(-148.97 -9.76)"/>
            <path class="cls-47" d="M998.18 972.11a9.42 9.42 0 0 0-6.37 1.46l1.64 1.35 1.7.59c1.85-1.07 6.63-.77 8.78-.39a12.89 12.89 0 0 0-5.75-3.01z" transform="translate(-148.97 -9.76)"/>
            <path class="cls-46" d="M819.81 993.99l-3.83-1.43.19 31.51-.01.01 3.35 1.94.42-2.38-.12-29.65z"/>
            <path class="cls-47" d="M973.42 991.07a23.4 23.4 0 0 1 6.6-6.53l-1.12-1.13-2.51-.94c-6.33 3.66-11.46 12.56-11.44 19.84l3.33 1.94a33.44 33.44 0 0 1 5.14-13.18z" transform="translate(-148.97 -9.76)"/>
            <path class="cls-48" d="M827.42 972.71l3.34 1.94 6.59-3.41 8.82-5.49-3.34-1.94-15.4 8.89-.01.01z"/>
            <path class="cls-49" d="M1006.67 982.09c0-7.28-5.19-10.23-11.53-6.57l-15.41 8.9c-6.33 3.66-11.47 12.57-11.45 19.84l.2 31.53 3.13-1.81-.2-31.53c0-5.29 3.72-11.77 8.33-14.43l15.41-8.9c4.61-2.66 8.38-.52 8.39 4.77l.2 31.53 3.13-1.81z" transform="translate(-148.97 -9.76)"/>
            <path class="cls-14" d="M1094.4 1193.14c22.07 12.83 26 31.57 8.65 41.63s-49.54 7.81-71.61-5-26-31.57-8.65-41.63 49.53-7.83 71.61 5z" transform="translate(-148.97 -9.76)"/>
            <path class="cls-50" d="M1086.55 1225.32c-4.78 4.79-10.58 6.75-13 4.38s-.42-8.17 4.37-13 10.58-6.75 13-4.38c1.43 1.43 1.33 5.18 1.33 6.62-.81 1.51-3.8 4.48-5.7 6.38z" transform="translate(-148.97 -9.76)"/>
            <path class="cls-15" d="M1086.51 1220.34c-3.13 3-6.87 4.15-8.35 2.6s-.14-5.22 3-8.21 6.87-4.15 8.35-2.6.13 5.22-3 8.21z" transform="translate(-148.97 -9.76)"/>
            <path class="cls-50" d="M1043.71 1200.79c-4.59 4.6-10.16 6.48-12.44 4.2s-.4-7.85 4.19-12.45 10.16-6.48 12.44-4.21c1.38 1.37 1.28 5 1.28 6.35-.77 1.44-3.65 4.32-5.47 6.11z" transform="translate(-148.97 -9.76)"/>
            <path class="cls-15" d="M1043.67 1196c-3 2.87-6.6 4-8 2.5s-.13-5 2.87-7.89 6.6-4 8-2.49.13 5.02-2.87 7.88z" transform="translate(-148.97 -9.76)"/>
            <path class="cls-17" d="M1092.25 1135.65s17.25-69.22 23.24-112.86l-104.92-18.66c-.44 21.22 5.21 63.79 7.6 93.06 3.6 44.09 18.78 95 18.78 95 .33 1.6 2.11 2.82 5.66 2.82 4 0 6.7-1.33 6.7-3.2l-1.59-70.76 7.72-60.19s3.74 44.86 6.52 68.81 16.94 85.58 16.94 85.58c0 2.51 1.83 4.55 6.11 4.55s7.19-1.85 7.21-4.34z" transform="translate(-148.97 -9.76)"/>
            <path class="cls-18" d="M1009 875.86c-8.06 17.1-11.7 44.54-13 68.37l23.39 2.48 22.36-57.64" transform="translate(-148.97 -9.76)"/>
            <path class="cls-15" d="M1014.15 994.55s.84 8.53 1.42 10.95c.37 1.54.6 2.59.88 3.71.4 1.55.5 2.31 0 2.68s-1.4.49-2.29-2.65a13.7 13.7 0 0 0 2.84 5.76c1.68 1.8 4.13 3.64 3.48 4.59s-2.45 0-2.45 0-.21 1.55-2.44.33c0 0-.26 1.25-2.52-.33 0 0-.89 1-3-1s-9.48-10.07-9.63-25z" transform="translate(-148.97 -9.76)"/>
            <path class="cls-18" d="M996 943.76c-2.33 41.67 4.15 54.46 4.15 54.46l14.13.38 5.07-51.89" transform="translate(-148.97 -9.76)"/>
            <circle class="cls-18" cx="858.79" cy="934.68" r="11.77"/>
            <circle class="cls-18" cx="875.89" cy="873.92" r="17.69"/>
            <path class="cls-18" d="M1019 1027.85c9.68 8.93 34.82 23.73 55.46 28.14a44.82 44.82 0 0 0 15 .91c26.7-3.74 31.6-19.07 31.6-38.54l-.08-100c-.12-37-28.07-51.93-28.07-51.93-15.48-8.73-45.09-15.52-64.34-8.12-25.3 9.73-25.29 39.69-25.3 39.63s-2.23 17 4.77 37.53c-.04-.02-15.71 67.84 10.96 92.38z" transform="translate(-148.97 -9.76)"/>
            <path class="cls-14" d="M1115.86 893.07A18.57 18.57 0 0 0 1101 889c-11.44 1.43-8.86 14.81-8.86 14.81s11.72 105.71-14 126.46c-18.17 14.63-42.21 7-54.79 1.26 11.59 8.87 33.05 20.65 51.09 24.51a44.82 44.82 0 0 0 15 .91c26.7-3.74 31.6-19.07 31.6-38.54l-.08-100a63.49 63.49 0 0 0-5.1-25.34z" transform="translate(-148.97 -9.76)"/>
            <path class="cls-15" d="M1052 809c-6.5-.26-14.12 1.35-17.89 7.61-2.42 4-2.24 11.37-2.46 16.82-.39 9.84 3.53 20.16 9.64 25.51v2.57c.07 2.11 1.48 4.2 4.27 5.81 5.67 3.27 14.83 3.27 20.46 0 2.72-1.58 4.11-3.63 4.19-5.7V843.51c0-.31 2.41-9.69 2.42-10 .59-13.92-9.98-24.08-20.63-24.51z" transform="translate(-148.97 -9.76)"/>
            <path class="cls-51" d="M1049.82 862.66a13.85 13.85 0 0 1-8.56-3.71v2.57c.07 2.11 1.48 4.2 4.27 5.81 5.67 3.27 14.83 3.27 20.46 0 2.72-1.58 4.11-3.63 4.19-5.7V835.91c-.86 13.61-9.92 27.17-20.36 26.75z" transform="translate(-148.97 -9.76)"/>
            <path class="cls-20" d="M1070.24 836.36l-1.82 9.19 1.82 5.76c1.61-1.72 2.35-5.71 3.9-9 4.84-10.42 3.69-18.42 2.94-26.55-.31-3.39-1.35-17.19-11.55-18 0 0-5.38-5.52-20.44.29-8.72 3.36-13.76-.27-13.76-.27s-.73 3.47.65 6c0 0-8.17 7.1-.25 26.7.14-4.9 0-8.73 2-12 1.41-2.35 4.88-2.92 7.38-3.25a13.91 13.91 0 0 1 4.37.94s3.89-1.17 5.47-1c11.08.87 10.93 5.42 10.93 5.42l.48 5.13v17.56s-.51 9-9 10.33c-3.53.54-7-3.1-7-3.1h-2.59s-2.16 3.36-4.2 2.33a12.4 12.4 0 0 1-6.64-8.37c.47 2.39 3.78 17.15 14.49 18.43 13.13 1.56 18.13-6.5 18.13-15.62V831a2.66 2.66 0 0 1 2.94-3.16c3.37-.03 2.57 4.7 1.75 8.52z" transform="translate(-148.97 -9.76)"/>
            <path class="cls-52" d="M1032.83 844.29c0-.21-.06-.34-.06-.34s.02.13.06.34z" transform="translate(-148.97 -9.76)"/>
            <path class="cls-20" d="M1049.29 842.65h-8.71s-2.47 2.25-2.47 4.46h13.65c0-2.21-2.47-4.46-2.47-4.46z" transform="translate(-148.97 -9.76)"/>
            <path class="cls-15" d="M1104.55 1040.53s-.68 8.55-1.22 11c-.34 1.54-.55 2.6-.82 3.73-.37 1.55-.45 2.32.07 2.68s1.41.46 2.24-2.69a13.71 13.71 0 0 1-2.79 5.8c-1.64 1.83-4.06 3.71-3.39 4.65s2.45 0 2.45 0 .24 1.54 2.44.29c0 0 .29 1.24 2.51-.37 0 0 .91 1 2.94-1.09s9.3-10.24 9.18-25.21z" transform="translate(-148.97 -9.76)"/>
            <path class="cls-18" d="M1101.1 981l2.34 69.21 13.55-.42s10.35-27.23 12.89-70.7" transform="translate(-148.97 -9.76)"/>
            <circle class="cls-18" cx="1115.44" cy="979.19" r="14.45" transform="rotate(-1.03 501.955 9264.12)"/>
            <path class="cls-18" d="M1079.15 908.3l22.53 75.34 28.21-4.71s.45-7 .46-14.5c0-31.6-4.49-55.36-13-72.2" transform="translate(-148.97 -9.76)"/>
            <circle class="cls-18" cx="1098.72" cy="901.44" r="20.73" transform="rotate(-.22 -1526.823 39687.515)"/>
            <g class="cls-3 cls-53">
                <path class="cls-5" d="M1005.75 1249.27a5.45 5.45 0 0 0-5 0l-383.05 222.6 5 2.87 383.05-222.6c1.36-.79 1.36-2.08 0-2.87" transform="translate(-148.97 -9.76)"/>
                <path class="cls-5" d="M634.59 1481.59l-11.87-6.85-5-2.87-11.16-6.44c-2.35-1.36-6.36-.6-6.85 1.3l-5 19.14a1.86 1.86 0 0 0 1.15 2 6.07 6.07 0 0 0 3.49.66l33-3c3.27-.29 4.57-2.62 2.21-4" transform="translate(-148.97 -9.76)"/>
            </g>
            <g class="cls-3 cls-54">
                <path class="cls-5" d="M769.7 1075.17l-5-2.87L555.39 1194c-1.36.79-1.36 2.08 0 2.87a5.45 5.45 0 0 0 5 0l209.31-121.7" transform="translate(-148.97 -9.76)"/>
                <path class="cls-5" d="M792.31 1059.57a6.07 6.07 0 0 0-3.49-.66l-33 3c-3.28.29-4.57 2.62-2.22 4l11.16 6.44 5 2.87 11.87 6.85c2.36 1.36 6.36.6 6.86-1.29l5-19.15a1.86 1.86 0 0 0-1.15-2" transform="translate(-148.97 -9.76)"/>
            </g>
            <path d="M1402.84 1010.64c22.07 12.83 26 31.57 8.65 41.63s-49.54 7.81-71.61-5-26-31.57-8.65-41.63 49.54-7.83 71.61 5z" transform="translate(-148.97 -9.76)" class="cls-55"/>
            <path class="cls-16" d="M1395.52 1042.82c-4.78 4.79-10.58 6.75-13 4.38s-.42-8.17 4.37-13 10.58-6.75 13-4.38c1.43 1.43 1.33 5.18 1.33 6.62-.8 1.56-3.8 4.47-5.7 6.38z" transform="translate(-148.97 -9.76)"/>
            <path class="cls-15" d="M1395.48 1037.83c-3.13 3-6.87 4.15-8.35 2.6s-.14-5.22 3-8.21 6.87-4.15 8.35-2.6.13 5.23-3 8.21z" transform="translate(-148.97 -9.76)"/>
            <path class="cls-16" d="M1352.68 1018.29c-4.59 4.6-10.16 6.48-12.44 4.2s-.4-7.85 4.19-12.45 10.16-6.48 12.44-4.21c1.38 1.37 1.28 5 1.28 6.35-.77 1.44-3.65 4.29-5.47 6.11z" transform="translate(-148.97 -9.76)"/>
            <path class="cls-15" d="M1352.64 1013.51c-3 2.87-6.6 4-8 2.5s-.13-5 2.87-7.89 6.6-4 8-2.49.14 5.01-2.87 7.88z" transform="translate(-148.97 -9.76)"/>
            <path class="cls-17" d="M1401.22 953.14s12.15-68.05 18.14-111.69l-93.42-17.7c-.44 21.22-1.18 61.66 1.2 90.92 3.6 44.09 18.78 95 18.78 95 .33 1.6 2.11 2.82 5.66 2.82 4 0 6.7-1.33 6.7-3.2l-1.59-70.76 7.72-60.18s3.74 44.86 6.52 68.81 16.94 85.58 16.94 85.58c0 2.51 1.83 4.55 6.11 4.55s7.19-1.85 7.21-4.34z" transform="translate(-148.97 -9.76)"/>
            <path class="cls-15" d="M1323.13 812s.84 8.53 1.42 10.95c.37 1.54.6 2.59.89 3.71.4 1.55.5 2.31 0 2.69s-1.4.49-2.29-2.65a13.69 13.69 0 0 0 2.89 5.75c1.68 1.8 4.13 3.64 3.48 4.59s-2.45 0-2.45 0-.21 1.55-2.44.33c0 0-.26 1.25-2.52-.33 0 0-.89 1-3-1s-9.48-10.07-9.63-25z" transform="translate(-148.97 -9.76)"/>
            <path class="cls-15" d="M1305 761.26c-2.33 41.67 5 54.49 5 54.49l13.29.36 5.07-51.89" transform="translate(-148.97 -9.76)"/>
            <circle class="cls-15" cx="1167.76" cy="752.18" r="11.77"/>
            <path class="cls-18" d="M1318 693.36c-8.06 17.1-11.7 44.55-13 68.36l23.39 2.48 22.36-57.64" transform="translate(-148.97 -9.76)"/>
            <circle class="cls-18" cx="1184.86" cy="691.42" r="17.69"/>
            <path class="cls-18" d="M1334.77 762a5 5 0 0 1-5.43 4.53l-23.69-2.14a5 5 0 0 1-4.53-5.43l.51-5.64a5 5 0 0 1 5.43-4.53l23.69 2.14a5 5 0 0 1 4.53 5.43z" transform="translate(-148.97 -9.76)"/>
            <path class="cls-18" d="M1427.86 720.39c3.46 24.26 2.15 115.48 2.15 115.48 0 19.47-4.9 34.8-31.6 38.54a44.87 44.87 0 0 1-15-.91c-20.64-4.42-45.69-19.31-55.46-28.14-16.37-14.8-15.7-28.78-15.7-41v-89c0 .06 0-29.89 25.3-39.62 19.24-7.4 48.86-.62 64.34 8.12-.03.05 22.36 11.25 25.97 36.53z" transform="translate(-148.97 -9.76)"/>
            <path class="cls-56" d="M1425.93 712.25a14.21 14.21 0 0 0-10.42-4.82c-15.44 0-14.39 17.49-14.39 17.49v98.17c0 37.76-8.56 48.24-14.14 51.06a40.88 40.88 0 0 0 11.42.26c26.7-3.74 31.6-19.07 31.6-38.54 0 0 1.31-91.21-2.15-115.48a46.32 46.32 0 0 0-1.92-8.14z" transform="translate(-148.97 -9.76)"/>
            <path class="cls-15" d="M1360.76 626.48c-6.5-.26-14.12 1.35-17.89 7.61-2.42 4-2.24 11.37-2.46 16.82-.39 9.84 3.53 20.16 9.64 25.51V679c.07 2.11 1.48 4.2 4.27 5.81 5.67 3.27 14.83 3.27 20.46 0 2.72-1.58 4.11-3.63 4.19-5.7v-25.73c0-.31 0-.61.05-.92.62-13.92-7.59-25.55-18.26-25.98z" transform="translate(-148.97 -9.76)"/>
            <path class="cls-57" d="M1358.61 680.14a13.86 13.86 0 0 1-8.56-3.71V679c.07 2.11 1.48 4.2 4.27 5.81 5.67 3.27 14.83 3.27 20.46 0 2.72-1.58 4.11-3.63 4.19-5.7v-25.73c-.86 13.62-9.97 27.18-20.36 26.76z" transform="translate(-148.97 -9.76)"/>
            <path class="cls-20" d="M1388 633.24c-.53-3.37-4.34-13.42-13.72-18.06s-24.66-4-27.86-3c-4.4 1.28-5.34 4.17-4.35 6.35 0 0-8.27 2.18-5.43 8-3.25 6.8-3.05 13.75 3.84 21.41.14-4.9.37-10.45 2.36-13.77a14.14 14.14 0 0 1 5.58-5.22 20.78 20.78 0 0 1 22.18 9l1.38 14.86a3.56 3.56 0 0 1 7 1V664.59a28.48 28.48 0 0 0 5-7.5c4.87-10.46 4.95-18.17 4.02-23.85z" transform="translate(-148.97 -9.76)"/>
            <path class="cls-20" d="M1200.28 734.93l-1.8 12.65 20.17 14.53-1.74-15.2-16.63-11.98zM1197.04 757.69l3.85 8.97 13.87 9.99 4.88-5.9-.56-4.92-21.04-15.17-1 7.03zM1211.64 687.61l2.12-5.05-5.07-3.2-3.93.81.82 3.13 6.06 4.31zM1202.52 719.2l-1.8 12.64 15.77 11.36-1.74-15.2-12.23-8.8zM1204.76 703.46l-1.8 12.65 11.36 8.19-1.74-15.2-7.82-5.64zM1203.01 771.59l5.44 12.69 4.55-5.49-9.99-7.2zM1210.52 690.26l-3.83-2.76.22.85-1.71 12.03 6.95 5.01-1.71-14.93.08-.2z"/>
            <path class="cls-58" d="M1347.51 677.26l.48 17 9.66-5.11 9.41 10.1 13.57-16.2s2.92-3.74 1.57-6.83a9.58 9.58 0 0 0-3.2-3.22s-4.46 8.55-21 13.41c0 0-7.14-5.21-8-10 0 0-.72-.65-1.64-1.64a4.51 4.51 0 0 0-.85 2.49z" transform="translate(-148.97 -9.76)"/>
            <path class="cls-15" d="M1413.52 858s-.68 8.55-1.22 11c-.34 1.54-.55 2.6-.82 3.73-.37 1.55-.45 2.32.07 2.68s1.41.46 2.24-2.69a13.69 13.69 0 0 1-2.79 5.8c-1.64 1.83-4.06 3.71-3.39 4.65s2.45 0 2.45 0 .24 1.54 2.44.29c0 0 .29 1.24 2.51-.37 0 0 .91 1 2.94-1.09s9.3-10.24 9.18-25.21z" transform="translate(-148.97 -9.76)"/>
            <path class="cls-15" d="M1410.07 798.54l2.34 69.21 13.55-.42s10.35-27.23 12.89-70.7" transform="translate(-148.97 -9.76)"/>
            <circle class="cls-15" cx="1424.41" cy="796.69" r="14.45" transform="rotate(-1.03 806.258 9077.713)"/>
            <path class="cls-18" d="M1388.13 725.8l22.53 75.34 28.21-4.71s.45-7 .45-14.5c0-31.6-4.49-55.36-13-72.2" transform="translate(-148.97 -9.76)"/>
            <circle class="cls-18" cx="1407.69" cy="718.94" r="20.73" transform="rotate(-.22 -1219.16 39505.8)"/>
            <path class="cls-18" d="M1441.58 797.42a5 5 0 0 1-4.35 5.58l-23.6 2.92a5 5 0 0 1-5.58-4.35l-.69-5.62a5 5 0 0 1 4.35-5.58l23.6-2.92a5 5 0 0 1 5.58 4.35z" transform="translate(-148.97 -9.76)"/>
            <path d="M882.3 954.79c22.07 12.83 26 31.57 8.65 41.63s-49.54 7.81-71.61-5-26-31.57-8.65-41.63 49.54-7.79 71.61 5z" transform="translate(-148.97 -9.76)" class="cls-55"/>
            <path class="cls-16" d="M830 954.18c4.86-4.75 11.43-5.76 13.8-3.39s.4 8.19-4.4 13c-2 2-4.56 4.5-6.56 5.42a5.5 5.5 0 0 1-6.43-1c-1.37-1.49-1.19-6.93-1.19-8.38.63-1.73 2.43-3.38 4.78-5.65z" transform="translate(-148.97 -9.76)"/>
            <ellipse class="cls-15" cx="833.09" cy="957.49" rx="8.22" ry="4.28" transform="rotate(-41.31 745.518 1150.122)"/>
            <path class="cls-16" d="M870 976.72c4.86-4.75 11.43-5.76 13.8-3.39s.4 8.19-4.4 13c-2 2-4.55 4.5-6.56 5.42a5.5 5.5 0 0 1-6.43-1c-1.37-1.49-1.19-6.93-1.19-8.38.69-1.73 2.49-3.37 4.78-5.65z" transform="translate(-148.97 -9.76)"/>
            <ellipse class="cls-15" cx="873.14" cy="980.03" rx="8.22" ry="4.27" transform="rotate(-41.4 783.658 1173.583)"/>
            <path class="cls-15" d="M831.87 962.88c5.6-2.45 5.85-5.39 6-6.64 0 0 7-46 10.45-76.4a442.2 442.2 0 0 0 2.44-48.13L861.42 898l4.94 85.52c0 .09.54 3.58 4.91 2.06 4-1.41 5.92-3.13 6.76-6.41.56-2.79 12.63-61.35 15.6-86.35 3-25.6 10.49-127.7 6.65-135.72l-98.77 3.37 19.34 122.48 5.49 77.59s.34 2.2 1.79 2.6a6.2 6.2 0 0 0 3.74-.26z" transform="translate(-148.97 -9.76)"/>
            <path class="cls-17" d="M865.86 884.32a32.66 32.66 0 0 0 12.47.76c12.8-1.79 26.24-15.69 26.24-15.69v-16.32c0-17.31-.07-83.07-.07-83.07-.44-4.52-1-8.79-1.72-12.83-2.47-12.12-7.09-19.34-17.18-27.38a33.8 33.8 0 0 0-4.41-2.91c-12.86-7.25-37.45-12.89-53.43-6.74-21 8.09-21 33-21 32.91v94.41a214 214 0 0 0 25.76 19.66c13.48 8.65 30.16 16.36 33.34 17.2z" transform="translate(-148.97 -9.76)"/>
            <path class="cls-18" d="M796.63 648.9c-8.06 17.1-11.7 44.55-13 68.36l23.37 2.48 22.36-57.64" transform="translate(-148.97 -9.76)"/>
            <path class="cls-15" d="M801.8 767.58s.84 8.53 1.42 10.95c.37 1.54.6 2.59.89 3.71.4 1.55.5 2.31 0 2.69s-1.4.49-2.29-2.65a13.7 13.7 0 0 0 2.89 5.75c1.68 1.81 4.13 3.64 3.48 4.59s-2.45 0-2.45 0-.21 1.55-2.44.33c0 0-.26 1.25-2.52-.33 0 0-.89 1-3-1s-9.48-10.07-9.63-25z" transform="translate(-148.97 -9.76)"/>
            <path class="cls-18" d="M783.64 716.79c-2.33 41.67 4.15 54.46 4.15 54.46l14.13.38 5.08-51.89" transform="translate(-148.97 -9.76)"/>
            <circle class="cls-18" cx="646.43" cy="707.72" r="11.77"/>
            <circle class="cls-18" cx="663.53" cy="646.95" r="17.69"/>
            <path class="cls-18" d="M908.17 672.36c3.46 24.26 2.15 115.48 2.15 115.48 0 19.47-4.9 34.8-31.6 38.54a44.83 44.83 0 0 1-15-.91c-20.66-4.47-45.72-19.32-55.48-28.15-16.37-14.8-15.7-28.78-15.7-41v-89c0 .06 0-29.89 25.3-39.62 19.24-7.41 48.86-.62 64.34 8.12 0 .06 22.39 11.25 25.99 36.54z" transform="translate(-148.97 -9.76)"/>
            <path class="cls-56" d="M906.24 664.21a14.21 14.21 0 0 0-10.42-4.82c-15.44 0-14.39 17.5-14.39 17.5v98.17c0 37.76-8.56 48.24-14.14 51.06a40.8 40.8 0 0 0 11.42.26c26.7-3.74 31.6-19.07 31.6-38.54 0 0 1.31-91.21-2.15-115.48a46.2 46.2 0 0 0-1.92-8.15z" transform="translate(-148.97 -9.76)"/>
            <path class="cls-18" d="M866 673.43l15 77.61 28.25-5.23s-.17-5.92-.34-13.42c-.73-31.93 2.08-55-3.68-71.63-2.74-7.92-43.54-4.53-39.21 12.68" transform="translate(-148.97 -9.76)"/>
            <path class="cls-15" d="M899.93 809.76s5.59 15.12 5.49 18.23c-.08 2.6-.68 4.15.86 4.92 2.06 1 2.88-.52 2.88-.52a2.32 2.32 0 0 0 3.54-1.08s2 1.34 3-1.91c0 0 2.18 1.8 2.76-4.36.69-7.29-5-18.57-5.05-18.7z" transform="translate(-148.97 -9.76)"/>
            <path class="cls-15" d="M906.66 833.08a5 5 0 0 1-2.84-3.22c-.82-2.54.52-4.86 2.91-4.81 0 0 4.61 8.8-.07 8.03z" transform="translate(-148.97 -9.76)"/>
            <path class="cls-18" d="M909.15 745.48l6.44 67.87-13.68 6.45s-13.86-33.8-21.33-70.13" transform="translate(-148.97 -9.76)"/>
            <circle class="cls-18" cx="894.77" cy="746.86" r="14.45" transform="rotate(-29.16 801.374 1028.269)"/>
            <circle class="cls-18" cx="886.41" cy="669.75" r="20.86" transform="rotate(-.22 -1742.534 39452.709)"/>
            <path class="cls-15" d="M874.77 606.73c-.15 14.62-9.36 26.38-20.57 26.27s-20.19-12.06-20-26.69c.06-5.72-.36-13.41 2.05-17.72 3.75-6.69 11.7-8.62 18.53-8.54 11.22.12 20.14 12.07 19.99 26.68z" transform="translate(-148.97 -9.76)"/>
            <path class="cls-19" d="M874.77 606.73c-.15 14.62-9.36 26.38-20.57 26.27s-20.19-12.06-20-26.69c.06-5.72-.36-13.41 2.05-17.72 3.75-6.69 11.7-8.62 18.53-8.54 11.22.12 20.14 12.07 19.99 26.68z" transform="translate(-148.97 -9.76)"/>
            <path class="cls-15" d="M866.45 617.94h-27.71v11.59c.06 2 1.42 4 4.08 5.55 5.42 3.13 14.18 3.13 19.57 0 2.6-1.51 3.93-3.47 4-5.46v-.09z" transform="translate(-148.97 -9.76)"/>
            <path class="cls-20" d="M818.75 601.36c5.13-7.11 3.79-22.78 10.26-30.77s18.72-6.1 18.72-6.1c7.12-4.68 18.5 3.69 28 15 11.69 14-5.55 20-5.55 20s-6.45 13.69-.08 21.56c0 0 9.31 10.14 5.15 21.48-2.25 6.15-7.41 9.73-9.63 15.87-1.88 5.18-.43 15.06 8.72 17 0 0-9.29 9.92-34.79 7.38-13.58-1.35-30.16-9.23-25-27.12 6.82-24.06-13.87-29.26 4.2-54.3z" transform="translate(-148.97 -9.76)"/>
            <g class="cls-3 cls-59">
                <path class="cls-5" d="M1311.75 1055.48a5.45 5.45 0 0 0-5 0l-85.57 49.73c-17.92 10.41-26.85 24.08-26.76 37.73s9.15 27.32 27.19 37.74l139.77 80.7 4.93-2.87-139.77-80.7c-16.68-9.63-25.05-22.24-25.12-34.87s8.16-25.23 24.73-34.86l85.57-49.73c1.36-.79 1.36-2.08 0-2.87M1383.89 1251.65a6.31 6.31 0 0 0-5.74 0l-11.8 6.86-4.93 2.87-11.09 6.44c-1.69 1-1.46 2.46 0 3.32a5.48 5.48 0 0 0 2.24.65l33.07 3c2.71.25 5-1.11 4.61-2.68l-5.25-19.15a2.26 2.26 0 0 0-1.13-1.29" transform="translate(-148.97 -9.76)"/>
            </g>
            <g class="cls-3 cls-60">
                <path class="cls-5" d="M445.33 1341.6l-267.46-154.43-4.93 2.87 267.46 154.42c16.68 9.63 25.05 22.24 25.13 34.86s-8.16 25.23-24.74 34.86l-85.57 49.73c-1.36.79-1.36 2.08 0 2.87a5.46 5.46 0 0 0 5 0l85.57-49.73c17.93-10.42 26.85-24.08 26.77-37.73s-9.16-27.32-27.19-37.73M188.94 1177.4a5.48 5.48 0 0 0-2.24-.65l-33.07-3c-2.71-.24-5 1.11-4.61 2.68l5.26 19.14a2.26 2.26 0 0 0 1.13 1.29 6.31 6.31 0 0 0 5.74 0l11.79-6.85 4.93-2.87 11.09-6.45c1.69-1 1.46-2.46 0-3.32" transform="translate(-148.97 -9.76)"/>
            </g>
            <path d="M303.58 1480.38c22.07 12.83 26 31.57 8.65 41.63s-49.54 7.81-71.61-5-26-31.57-8.65-41.63 49.54-7.83 71.61 5z" transform="translate(-148.97 -9.76)" class="cls-55"/>
            <path class="cls-18" d="M217.91 1175c-8.06 17.1-11.7 44.54-13 68.36l23.39 2.48 22.36-57.64" transform="translate(-148.97 -9.76)"/>
            <path class="cls-15" d="M223.08 1293.72s.84 8.53 1.42 10.95c.37 1.54.6 2.59.89 3.71.4 1.55.5 2.31 0 2.69s-1.4.49-2.29-2.65a13.7 13.7 0 0 0 2.89 5.75c1.68 1.8 4.13 3.64 3.48 4.59s-2.45 0-2.45 0-.21 1.55-2.44.33c0 0-.26 1.25-2.52-.33 0 0-.89 1-3-1s-9.48-10.07-9.63-25z" transform="translate(-148.97 -9.76)"/>
            <path class="cls-18" d="M204.91 1242.92c-2.33 41.67 4.15 54.46 4.15 54.46l14.13.38 5.07-51.89" transform="translate(-148.97 -9.76)"/>
            <circle class="cls-18" cx="67.71" cy="1233.85" r="11.77"/>
            <circle class="cls-18" cx="84.81" cy="1173.08" r="17.69"/>
            <path class="cls-16" d="M292.52 1503.94c4.8-4.8 10.62-6.78 13-4.41s.4 8.19-4.4 13-10.62 6.78-13 4.42c-1.43-1.43-1.32-7.27-1.32-8.71.81-1.5 3.81-2.39 5.72-4.3z" transform="translate(-148.97 -9.76)"/>
            <path class="cls-15" d="M292.61 1503.42c3.13-3 6.87-4.15 8.35-2.6s.14 5.23-3 8.21" transform="translate(-148.97 -9.76)"/>
            <path class="cls-16" d="M252.73 1480.63c4.8-4.81 10.62-6.79 13-4.41s.4 8.19-4.4 13-10.62 6.78-13 4.42c-1.43-1.43-1.32-7.27-1.32-8.71.8-1.5 3.81-2.39 5.72-4.3z" transform="translate(-148.97 -9.76)"/>
            <path class="cls-15" d="M252.82 1480.11c3.13-3 6.87-4.15 8.35-2.6s.14 5.23-3 8.21" transform="translate(-148.97 -9.76)"/>
            <path class="cls-17" d="M321.56 1283.23l-98.77 3.37 19.34 122.48 4.45 75.29c.08 2.57 2.36 4.65 6.55 4.64s5.72-2.28 5.81-4.82 7.11-47.77 10.58-78.21a442.19 442.19 0 0 0 2.44-48.13l10.68 66.26 3.24 82.5v.26c0 2.55 2.48 4.65 7.1 4.64 4.41 0 6.13-2.14 6.28-4.55.56-2.79 12.63-63 15.6-88 3.09-25.61 10.53-127.71 6.7-135.73z" transform="translate(-148.97 -9.76)"/>
            <path class="cls-18" d="M329.45 1198.49c3.46 24.26 2.15 115.48 2.15 115.48 0 19.47-4.9 34.8-31.6 38.54a44.88 44.88 0 0 1-15-.91c-20.64-4.41-45.69-19.31-55.46-28.14-16.37-14.8-15.7-28.77-15.7-41v-89c0 .06 0-29.89 25.3-39.62 19.24-7.41 48.86-.62 64.34 8.12-.02.04 22.37 11.24 25.97 36.53z" transform="translate(-148.97 -9.76)"/>
            <path class="cls-56" d="M327.52 1190.34a14.21 14.21 0 0 0-10.42-4.82c-15.44 0-14.39 17.49-14.39 17.49v98.17c0 37.76-8.56 48.24-14.14 51.06a40.81 40.81 0 0 0 11.42.26c26.7-3.74 31.6-19.08 31.6-38.54 0 0 1.31-91.21-2.15-115.48a46.23 46.23 0 0 0-1.92-8.14z" transform="translate(-148.97 -9.76)"/>
            <path class="cls-15" d="M263.3 1149.74v4.44c.06 2 1.42 4 4.08 5.55 5.42 3.13 14.18 3.13 19.57 0 2.6-1.51 3.93-1.67 4-3.65v-1.9c5-4.78 7.05-12.53 8.32-21.08 3.94-26.63-8.82-26.56-20-26.68-6.83-.07-14.78 1.85-18.53 8.55 0 0-1.4 12.69 1.85 23.69z" transform="translate(-148.97 -9.76)"/>
            <path class="cls-58" d="M277 1158.66c6 .52 11.54-.8 14.56-2.49 0 0 5.75 2.47 7.16 3.13 0 0-18.64 7.69-31.38 1.6-11.19-5.35-5.68-10.1-5.68-10.1l1.6-.63v2.78s1.91 4.67 13.74 5.71z" transform="translate(-148.97 -9.76)"/>
            <path class="cls-20" d="M263.63 1150.9s3 5.29 19.62 2.6c0 0 6.57-7.17 8.81-12.55 0 0-1.79-10.61.45-11.35 0 0 2.24-1.64 2.24 4.18 0 0 0 5.53-.3 6.28l1.34.75s.3-10 .9-11.36c0 0 1.56-4.58 3.35-5.18 0 0 1.73-8 1.43-12.6s-3.1-11.89-9.71-14c-6.31-2.05-23.27-4.66-31.64 4.9s-.82 44 3.51 48.33z" transform="translate(-148.97 -9.76)"/>
            <path class="cls-18" d="M287.23 1199.57l15 77.61 28.25-5.23s-.17-5.91-.34-13.42c-.73-31.93 2.08-55-3.68-71.63-2.74-7.92-43.54-4.53-39.21 12.68" transform="translate(-148.97 -9.76)"/>
            <path class="cls-15" d="M321.21 1335.9s5.59 15.12 5.49 18.23c-.08 2.6-.68 4.15.86 4.92 2.06 1 2.88-.52 2.88-.52a2.32 2.32 0 0 0 3.54-1.08s2 1.34 3-1.91c0 0 2.18 1.8 2.76-4.36.69-7.29-5-18.57-5.05-18.7z" transform="translate(-148.97 -9.76)"/>
            <path class="cls-15" d="M327.94 1359.21a5 5 0 0 1-2.84-3.22c-.82-2.54.52-4.86 2.91-4.81-.01.01 4.61 8.82-.07 8.03z" transform="translate(-148.97 -9.76)"/>
            <path class="cls-18" d="M330.43 1271.61l6.44 67.87-13.68 6.45s-13.86-33.76-21.34-70.13" transform="translate(-148.97 -9.76)"/>
            <circle class="cls-18" cx="316.04" cy="1273" r="14.45" transform="rotate(-29.16 222.697 1554.323)"/>
            <circle class="cls-18" cx="307.69" cy="1195.89" r="20.86" transform="rotate(-.22 -2313.887 39972.484)"/>
        </g>
    </g>
</svg>
