<svg width="350" height="273" viewBox="0 0 350 273" xmlns="http://www.w3.org/2000/svg">
    <g fill-rule="nonzero" fill="none">
        <g transform="translate(145.01)">
            <circle fill="#FFB522" cx="17.239" cy="17.01" r="17.01"/>
            <path d="M24.122 15.877l-2.522 2.35a.917.917 0 0 0-.261.783l.652 3.437a.847.847 0 0 1-1.263.913l-3.045-1.697a.92.92 0 0 0-.825 0l-3.098 1.754a.857.857 0 0 1-1.263-.914l.667-3.45a.84.84 0 0 0-.261-.784l-2.569-2.392a.89.89 0 0 1 .48-1.52l3.479-.435a.907.907 0 0 0 .705-.48l1.479-3.175a.871.871 0 0 1 1.566 0l1.479 3.176c.126.28.399.464.705.48l3.48.433a.875.875 0 0 1 .415 1.521z" fill="#FFF"/>
        </g>
        <g transform="translate(194.405 9.173)">
            <path d="M12.48 184.173c-8.197 4.763-6.351 13.633 4.092 19.706 10.444 6.072 25.7 7.14 33.896 2.378 8.196-4.764 6.35-13.634-4.093-19.706-10.444-6.072-25.7-7.127-33.896-2.378z" fill="#D8D8D8"/>
            <path d="M22.062 42.646L11.477 69.929.406 68.755c.631-11.273 2.353-24.268 6.167-32.358" fill="#FFF"/>
            <path d="M2.586 92.087c.07 7.084 3.567 10.87 4.559 11.851.991.98 1.41.49 1.41.49 1.06.745 1.193.156 1.193.156 1.059.578 1.154-.156 1.154-.156s.85.452 1.161 0c.31-.451-.85-1.32-1.644-2.173a6.481 6.481 0 0 1-1.37-2.72c.424 1.485.848 1.432 1.084 1.256.236-.177.187-.536 0-1.27-.138-.537-.243-1.038-.42-1.764-.275-1.144-.67-5.183-.67-5.183l-6.457-.487z" fill="#FFCFAE"/>
            <path d="M11.51 69.93L9.105 94.49l-6.703-.18S-.663 88.251.437 68.531" fill="#FFF"/>
            <circle fill="#FFF" cx="6.005" cy="68.857" r="5.568"/>
            <circle fill="#FFF" cx="14.099" cy="40.098" r="8.372"/>
            <path d="M45.994 198.787c0-.677.05-2.47-.628-3.13-1.122-1.118-3.881-.176-6.132 2.075-2.251 2.251-3.176 5.01-2.068 6.132 1.108 1.122 3.881.194 6.132-2.07.9-.904 2.318-2.315 2.696-3.007z" fill="#444549"/>
            <path d="M44.678 195.559c-.706-.734-2.47-.183-3.952 1.228-1.482 1.411-2.117 3.147-1.411 3.88.706.735 2.47.18 3.952-1.23 1.481-1.412 2.113-3.144 1.41-3.878z" fill="#FFCFAE"/>
            <path d="M25.611 187.3c0-.653.05-2.357-.603-3.007-1.08-1.08-3.712-.187-5.889 1.99-2.176 2.177-3.066 4.816-1.986 5.892 1.08 1.077 3.715.184 5.889-1.99.864-.864 2.226-2.212 2.59-2.886z" fill="#444549"/>
            <path d="M24.345 184.173c-.67-.705-2.371-.18-3.793 1.179-1.422 1.358-2.018 3.055-1.344 3.76.674.707 2.385.177 3.796-1.181s2.025-3.052 1.34-3.758z" fill="#FFCFAE"/>
            <path d="M45.99 197.108c0 1.178-1.41 2.053-3.415 2.053-2.004 0-2.89-.966-2.89-2.152 0 0-6.703-29.154-8.023-40.493-1.32-11.34-3.083-32.57-3.083-32.57l-3.66 28.473.76 33.518c0 .883-1.306 1.514-3.176 1.514-1.68 0-2.52-.579-2.678-1.334 0 0-7.19-24.094-8.887-44.96-1.13-13.862-.777-33.003-.569-43.044l44.22 8.38C51.738 127.15 46 159.352 46 159.352l-.01 37.755z" fill="#2B90FF"/>
            <path d="M46.297 31.927c-7.328-4.135-21.342-7.346-30.452-3.842C3.881 32.689 3.881 46.865 3.881 46.837v42.099c0 5.765-.353 12.38 7.41 19.38 4.625 4.181 16.48 11.234 26.25 13.323 2.423.519 4.96.73 7.109.43 12.648-1.757 14.977-9.025 14.977-18.237 0 0 .621-43.171-1.016-54.656-1.715-11.953-12.314-17.25-12.314-17.25z" fill="#FFF"/>
            <path d="M58.569 49.19c1.637 11.485 1.016 54.656 1.016 54.656 0 9.212-2.318 16.477-14.956 18.241-1.8.212-3.619.17-5.406-.123 2.65-1.337 6.704-6.298 6.704-24.169v-46.46s-.487-8.29 6.824-8.29c2.025 0 3.648.93 4.939 2.279.41 1.26.703 2.554.879 3.867z" fill="#000" opacity=".1"/>
            <path d="M56.984 112.501c.043 7.081-3.38 10.938-4.343 11.932-.963.995-1.411.516-1.411.516-1.059.765-1.19.176-1.19.176-1.058.596-1.156-.134-1.156-.134s-.844.459-1.161.021c-.318-.437.829-1.334 1.605-2.202a6.485 6.485 0 0 0 1.32-2.748c-.392 1.492-.812 1.447-1.059 1.274-.247-.173-.208-.533-.032-1.27.127-.533.226-1.034.389-1.765.254-1.146.578-5.193.578-5.193l6.46-.607z" fill="#FFCFAE"/>
            <path d="M62.538 84.05c-1.207 20.576-6.104 33.465-6.104 33.465l-6.414.197-1.108-32.76" fill="#FFF"/>
            <circle fill="#FFF" transform="rotate(-1.03 55.695 84.069)" cx="55.695" cy="84.069" r="6.841"/>
            <path d="M56.582 42.92c4.05 7.971 6.167 19.216 6.167 34.172 0 3.553-.215 6.862-.215 6.862l-13.35 2.226L38.52 50.52" fill="#FFF"/>
            <circle fill="#FFF" transform="rotate(-.22 47.775 47.276)" cx="47.775" cy="47.276" r="9.812"/>
            <path d="M35.494 17.038c0 .148-.025.293-.025.437V29.67c-.042.977-.705 1.951-1.986 2.699-2.664 1.549-7.004 1.549-9.685 0-1.313-.759-1.987-1.764-2.018-2.749v-1.241c-2.893-2.548-4.75-7.41-4.562-12.074.102-2.58 0-6.051 1.16-7.96 1.765-2.963 5.392-3.726 8.468-3.602 5.05.198 8.934 5.709 8.648 12.296z" fill="#FFCFAE"/>
            <path d="M35.466 17.475v12.162c-.043.977-.706 1.951-1.987 2.7-2.663 1.548-7.003 1.548-9.685 0-1.312-.76-1.986-1.765-2.018-2.75v-1.241a6.555 6.555 0 0 0 4.05 1.764c4.94.233 9.23-6.189 9.64-12.635z" fill="#3A2416" opacity=".04"/>
            <path d="M37.85 17.14a13.054 13.054 0 0 1-3.097 4.273c.34-1.114.566-2.26.677-3.419a1.685 1.685 0 1 0-3.26-.843l-.66-7.032s-8.167 2.703-13.692-.473c-.42 1.457-.509 3.292-.558 4.986-3.352-4.488-3.708-10.793-2.166-14.015.705 1.09 1.467 1.175 1.467 1.175a1.496 1.496 0 0 1 0-1.033C17.651 2.907 27.968.614 31.264.26c3.295-.353 4.138 1.231 4.138 1.231s2.329-.289 3.705 3.807c1.016 3.06 1.034 6.909-1.256 11.841z" fill="#10355D"/>
            <path fill="#2B90FF" d="M23.516 34.778l1.02 3.87-4.672 32.82 5.398 12.581 5.3-6.403-4.354-38 1.566-3.74-2.395-1.516z"/>
            <path d="M21.004 27.612c.242.273.5.532.772.776.406 2.255 3.786 4.724 3.786 4.724 7.811-2.3 9.928-6.35 9.928-6.35.755.54 1.316 1.058 1.51 1.506.64 1.468-.744 3.232-.744 3.232l-6.41 7.663-4.443-4.773-4.586 2.416-.23-8.03c.02-.42.165-.826.417-1.164z" fill="#DBDBDB"/>
            <path fill="#2B90FF" d="M35.053 54.328l8.443 4.907V56.48l-8.443-4.908z"/>
        </g>
        <g transform="translate(0 43.75)">
            <path d="M16.43 186.943c-10.093 5.867-11.872 14.434-3.954 19.052 7.917 4.619 22.655 3.571 32.742-2.3 10.087-5.87 11.862-14.448 3.958-19.035-7.903-4.586-22.65-3.584-32.745 2.283z" fill="#D8D8D8"/>
            <path d="M17.412 160.668s-5.557-31.101-8.295-51.07l42.716-8.116c.201 9.703.54 28.194-.547 41.573-1.644 20.16-8.594 43.433-8.594 43.433-.156.73-.967 1.291-2.59 1.291-1.807 0-3.063-.607-3.063-1.46l.73-32.358-3.528-27.52s-1.71 20.513-2.98 31.465c-1.271 10.951-7.763 39.131-7.763 39.131 0 1.15-.84 2.082-2.79 2.082-1.952 0-3.286-.847-3.3-1.98l.004-36.47z" fill="#9B9B9B"/>
            <path d="M5.236 54.229c-1.58 11.096-.981 52.81-.981 52.81 0 8.906 2.244 15.916 14.448 17.641 2.297.249 4.62.107 6.87-.42 9.466-2.028 20.89-8.82 25.36-12.846 7.484-6.76 7.18-13.156 7.18-18.728V51.95s0-13.672-11.569-18.118c-8.788-3.38-22.312-.282-29.414 3.712-.008-.01-10.243 5.123-11.894 16.685z" fill="#FFF"/>
            <path d="M53.124 96.14s-.384 3.903-.677 5.004c-.17.677-.272 1.182-.406 1.697-.183.677-.229 1.058 0 1.231.23.173.635.222 1.059-1.21a6.266 6.266 0 0 1-1.352 2.628c-.765.826-1.894 1.662-1.587 2.117.307.456 1.122 0 1.122 0s.102.678 1.115.149c0 0 .12.568 1.15-.149 0 0 .406.473 1.351-.472.946-.946 4.333-4.587 4.4-11.446l-6.175.452z" fill="#FFCFAE"/>
            <path d="M61.433 72.918c1.059 19.052-1.898 24.899-1.898 24.899l-6.45.183-2.317-23.73" fill="#FFF"/>
            <path d="M6.114 50.503a6.495 6.495 0 0 1 4.746-2.202c7.056 0 6.576 7.999 6.576 7.999v44.882c0 17.268 3.913 22.055 6.464 23.347a18.675 18.675 0 0 1-5.225.12c-12.211-1.712-14.441-8.722-14.441-17.641 0 0-.603-41.708.98-52.804a21.11 21.11 0 0 1 .9-3.701z" fill="#D8D8D8"/>
            <circle fill="#FFF" cx="56.053" cy="73.228" r="5.381"/>
            <path d="M55.488 41.884c3.684 7.815 5.35 20.372 5.956 31.263L50.75 74.283 40.518 47.917" fill="#FFF"/>
            <circle fill="#FFF" cx="48.231" cy="45.44" r="8.087"/>
            <path d="M20.033 201.656c2.184 2.19 4.841 3.083 5.924 2.028 1.083-1.054.19-3.74-2.029-5.93-2.219-2.191-4.84-3.084-5.934-2.03-.677.678-.607 2.368-.607 3.024a20.284 20.284 0 0 0 2.646 2.908z" fill="#081B2F"/>
            <ellipse fill="#FFCFAE" transform="rotate(-46.32 21.268 198.086)" cx="21.268" cy="198.086" rx="1.771" ry="3.585"/>
            <path d="M39.608 190.44c2.117 2.116 4.643 2.96 5.69 1.919 1.049-1.041.184-3.592-1.918-5.691-2.103-2.1-4.647-2.96-5.706-1.92-.628.629-.582 2.273-.582 2.908a19.43 19.43 0 0 0 2.516 2.784z" fill="#081B2F"/>
            <ellipse fill="#FFCFAE" transform="rotate(-46.32 40.79 187.057)" cx="40.79" cy="187.057" rx="1.704" ry="3.44"/>
            <path d="M11.795 117.165s.31 3.91.554 5.017c.155.678.25 1.19.37 1.705.17.705.208 1.058 0 1.224-.208.166-.677.208-1.02-1.231a6.26 6.26 0 0 0 1.278 2.65c.751.839 1.86 1.696 1.549 2.116-.31.42-1.122 0-1.122 0s-.11.678-1.115.127c0 0-.127.568-1.15-.17 0 0-.413.467-1.352-.5-.938-.967-4.251-4.686-4.198-11.495l6.206.557z" fill="#FFCFAE"/>
            <path d="M13.368 89.97l-1.058 31.648-6.2-.19S1.38 108.968.216 89.087" fill="#FFF"/>
            <circle fill="#FFF" transform="rotate(-88.97 6.819 89.113)" cx="6.819" cy="89.113" r="6.612"/>
            <path d="M23.403 56.699L13.107 91.162.208 89.014S0 85.817 0 82.38c0-14.466 2.029-25.312 5.956-33.014" fill="#FFF"/>
            <circle fill="#FFF" transform="rotate(-89.78 14.457 53.548)" cx="14.457" cy="53.548" r="9.48"/>
            <path d="M36.058 7.896c3.317-.134 7.216.688 9.135 3.881 1.238 2.06 1.143 5.808 1.253 8.591.204 5.028-1.8 10.296-4.919 13.03v1.341c-.032 1.058-.758 2.149-2.177 2.964-2.896 1.672-7.575 1.672-10.454 0-1.386-.808-2.096-1.853-2.141-2.911V21.656c0-.159-.022-.314-.029-.469-.31-7.127 3.892-13.072 9.332-13.29z" fill="#FFCFAE"/>
            <path d="M27.7 25.252c-.11-.991-.287-1.973-.533-2.94-.49-2.233 1.218-2.434 1.218-2.434.924-.074 1.524.575 1.71 1.457l.209 3.557 1.302.423s-.388-2.565-.388-3.295c0-4.061.942-4.28.942-4.28l.497-3.175s8.27.994 12.98-1.51c.466 1.819.72 3.686.756 5.563 0 0 .984-6.738-.579-10.874-1.563-4.135-4.146-6.188-8.517-6.146 0 0-13.164-1.058-14.339 7.886 0 0-1.305 10.03 3.8 18.502.004-.014.935-2.78.942-2.734z" fill="#424242"/>
            <path d="M37.156 35.307a7.056 7.056 0 0 0 4.371-1.895v1.327c-.032 1.058-.758 2.149-2.177 2.964-2.896 1.672-7.575 1.672-10.454 0-1.386-.808-2.096-1.853-2.141-2.911V21.656c.44 6.923 5.07 13.866 10.4 13.651z" fill="#3A2416" opacity=".08"/>
            <path d="M331.72 205.9c10.373 6.03 12.204 14.819 4.065 19.568-8.14 4.749-23.287 3.67-33.66-2.36-10.372-6.03-12.204-14.837-4.068-19.568 8.137-4.732 23.287-3.67 33.663 2.36z" opacity=".15" fill="#050505"/>
            <path d="M328.277 221.022c-2.248 2.248-4.975 3.176-6.09 2.057-1.115-1.118-.194-3.842 2.057-6.093s4.975-3.176 6.09-2.057c.674.67.624 2.434.624 3.108-.363.713-1.775 2.093-2.681 2.985z" fill="#444549"/>
            <path d="M328.26 218.683c-1.472 1.411-3.23 1.951-3.924 1.22-.695-.73-.067-2.469 1.411-3.86 1.478-1.39 3.228-1.95 3.923-1.22.695.73.06 2.456-1.41 3.86z" fill="#FFCFAE"/>
            <path d="M308.141 209.495c-2.156 2.16-4.791 3.038-5.85 1.98-1.058-1.059-.187-3.687 1.973-5.85 2.159-2.163 4.777-3.045 5.85-1.976.645.646.6 2.336.6 2.985-.36.667-1.719 2.018-2.573 2.861z" fill="#444549"/>
            <path d="M308.127 207.24c-1.411 1.349-3.101 1.874-3.768 1.176-.667-.699-.064-2.357 1.348-3.708 1.41-1.352 3.101-1.874 3.768-1.172.667.702.063 2.364-1.348 3.705z" fill="#FFCFAE"/>
            <path d="M330.948 178.881s5.712-31.983 8.527-52.493l-43.887-8.327c-.208 9.971-.558 28.981.564 42.738 1.69 20.721 8.82 44.643 8.82 44.643.156.751.996 1.326 2.661 1.323 1.856 0 3.15-.625 3.15-1.503L310.037 172l3.623-28.268s1.764 21.085 3.066 32.343c1.302 11.259 7.964 40.222 7.964 40.222 0 1.178.86 2.138 2.871 2.138 2.012 0 3.377-.871 3.391-2.04l-.003-37.515z" fill="#9B9B9B"/>
            <path d="M294.254 112.55s.395 4.012.667 5.145c.173.705.279 1.217.416 1.764.187.726.233 1.086 0 1.263-.233.176-.656.23-1.058-1.246a6.435 6.435 0 0 0 1.358 2.703c.787.847 1.94 1.711 1.634 2.16-.307.447-1.154 0-1.154 0s-.099.726-1.147.154c0 0-.123.586-1.185-.155 0 0-.417.487-1.412-.487-.994-.973-4.456-4.735-4.526-11.766l6.407.465z" fill="#FFCFAE"/>
            <path d="M285.709 88.693c-1.094 19.585 2.346 25.607 2.346 25.607l6.245.17 2.385-24.39" fill="#FFCFAE"/>
            <circle fill="#FFCFAE" cx="291.248" cy="89.01" r="5.529"/>
            <path d="M291.823 56.773c-3.79 8.033-5.497 20.936-6.125 32.131l10.994 1.165 10.51-27.094" fill="#FFF"/>
            <circle fill="#FFF" cx="299.285" cy="60.446" r="8.313"/>
            <path d="M299.726 89.028a2.35 2.35 0 0 1-2.554 2.117l-11.132-1.006a2.35 2.35 0 0 1-2.117-2.55l.24-2.65a2.35 2.35 0 0 1 2.551-2.117l11.132 1.005a2.35 2.35 0 0 1 2.117 2.555l-.237 2.646z" fill="#FFF"/>
            <path d="M343.476 69.478c1.627 11.403 1.01 54.278 1.01 54.278 0 9.149-2.305 16.357-14.854 18.114-2.117.3-4.654.085-7.057-.43-9.699-2.075-21.476-9.075-26.07-13.231-7.695-6.954-7.377-13.524-7.377-19.25V67.142c0 .028 0-14.05 11.89-18.625 9.046-3.48 22.961-.29 30.24 3.817 0 0 10.525 5.257 12.218 17.144z" fill="#FFF"/>
            <path d="M342.57 65.65c-1.285-1.338-2.894-2.265-4.898-2.265-7.257 0-6.763 8.224-6.763 8.224v46.138c0 17.747-4.026 22.673-6.647 23.992 1.775.293 3.583.334 5.37.124 12.55-1.764 14.853-8.965 14.853-18.114 0 0 .618-42.871-1.009-54.278a21.773 21.773 0 0 0-.906-3.821z" fill="#000" opacity=".1"/>
            <path d="M311.938 25.34c-3.056-.124-6.64.631-8.408 3.577-1.136 1.895-1.059 5.346-1.154 7.904-.187 4.625 1.658 9.473 4.53 11.996v1.234c.032.988.706 1.976 2.004 2.731 2.664 1.539 6.972 1.539 9.618 0 1.277-.74 1.93-1.707 1.973-2.681V37.988c0-.144.02-.289.024-.434.29-6.548-3.567-12.017-8.587-12.214z" fill="#FFCFAE"/>
            <path d="M310.928 50.56a6.513 6.513 0 0 1-4.022-1.736v1.234c.032.988.706 1.976 2.004 2.731 2.664 1.539 6.972 1.539 9.618 0 1.277-.74 1.93-1.707 1.973-2.681V37.995c-.406 6.39-4.665 12.762-9.573 12.564z" fill="#3A2416" opacity=".08"/>
            <path d="M324.76 28.512c-.251-1.581-2.037-6.309-6.45-8.49-4.478-2.212-11.59-1.859-13.097-1.41-2.068.6-2.512 1.961-2.047 2.984 0 0-3.88 1.023-2.55 3.74-1.528 3.193-1.437 6.464 1.802 10.063.067-2.304.173-4.915 1.108-6.475a6.647 6.647 0 0 1 2.625-2.47c7.173-1.435 10.426 4.235 10.426 4.235l.646 6.985a1.672 1.672 0 0 1 3.302.48v5.067a13.386 13.386 0 0 0 2.346-3.528c2.273-4.884 2.311-8.51 1.888-11.181z" fill="#424242"/>
            <path d="M336.737 134.171s-.32 4.019-.571 5.159c-.159.726-.261 1.22-.385 1.764-.173.73-.211 1.09.032 1.263.243.173.66.219 1.058-1.267a6.435 6.435 0 0 1-1.312 2.728c-.773.86-1.909 1.764-1.595 2.187.314.423 1.154-.021 1.154-.021s.113.727 1.147.134c0 0 .134.582 1.182-.176 0 0 .426.48 1.383-.512.956-.991 4.371-4.816 4.315-11.848l-6.408.59z" fill="#FFCFAE"/>
            <path d="M335.104 106.2l1.1 32.533 6.373-.197s4.876-12.808 6.072-33.233" fill="#FFCFAE"/>
            <circle fill="#FFCFAE" transform="rotate(-1.03 341.857 105.337)" cx="341.857" cy="105.337" r="6.795"/>
            <path d="M324.801 72.018l10.585 35.41 13.26-2.213s.207-3.285.21-6.816c0-14.85-2.116-26.021-6.12-33.935" fill="#FFF"/>
            <circle fill="#FFF" transform="rotate(-.22 334.006 68.787)" cx="334.006" cy="68.787" r="9.745"/>
            <path d="M349.922 105.684a2.35 2.35 0 0 1-2.039 2.633l-11.093 1.368a2.35 2.35 0 0 1-2.621-2.042l-.328-2.64a2.35 2.35 0 0 1 2.043-2.62l11.092-1.37a2.35 2.35 0 0 1 2.622 2.043l.324 2.628z" fill="#FFF"/>
            <path d="M177.117 185.504c10.362 6.022 12.19 14.818 4.06 19.546-8.128 4.728-23.25 3.666-33.616-2.36-10.366-6.027-12.19-14.819-4.061-19.547s23.255-3.666 33.617 2.36z" fill="#D8D8D8"/>
            <path d="M136.895 42.078c-3.782 8.03-5.493 20.911-6.118 32.106l10.938 1.165 10.539-27.062" fill="#FFF"/>
            <path d="M139.323 97.781s.395 4.001.666 5.14c.177.724.28 1.215.413 1.744.187.723.237 1.087 0 1.263-.236.176-.656.226-1.058-1.246a6.428 6.428 0 0 0 1.355 2.696c.783.843 1.937 1.687 1.633 2.156-.303.469-1.154 0-1.154 0s-.102.723-1.146.151c0 0-.127.59-1.179-.151 0 0-.42.49-1.39-.49-.97-.981-4.449-4.728-4.523-11.753l6.383.49z" fill="#FFCFAE"/>
            <path d="M130.798 73.941c-1.097 19.557 1.944 25.555 1.944 25.555l6.63.176 2.385-24.344" fill="#FFF"/>
            <circle fill="#FFF" cx="136.324" cy="74.269" r="5.525"/>
            <circle fill="#FFF" cx="144.354" cy="45.74" r="8.298"/>
            <path d="M171.962 196.261c2.251-2.258 4.99-3.175 6.1-2.071 1.112 1.104.187 3.842-2.064 6.1a13.59 13.59 0 0 1-3.076 2.527c-1 .54-2.237.346-3.024-.473-.674-.674-.624-3.37-.614-4.086.367-.677 1.786-1.104 2.678-1.997z" fill="#444549"/>
            <path d="M171.97 196.219c1.463-1.412 3.228-1.948 3.916-1.221.688.727.067 2.452-1.412 3.85" fill="#FFCFAE"/>
            <path d="M153.248 185.518c2.251-2.258 4.99-3.176 6.1-2.071 1.112 1.104.188 3.842-2.063 6.1a13.59 13.59 0 0 1-3.077 2.526 2.526 2.526 0 0 1-3.016-.473c-.674-.674-.625-3.37-.614-4.085.363-.681 1.77-1.094 2.67-1.997z" fill="#444549"/>
            <path d="M153.29 185.281c1.465-1.411 3.23-1.947 3.917-1.22.688.726.067 2.452-1.411 3.849a6.1 6.1 0 0 1-2.787 1.686" fill="#FFCFAE"/>
            <path d="M185.55 92.863l-46.337 1.584 9.082 57.493 2.526 35.384c0 1.203.843 2.94 2.664 2.18 2.646-1.11 2.604-2.173 2.822-3.118 0 0 3.278-21.576 4.905-35.865a207.565 207.565 0 0 0 1.086-22.662l5.056 31.105 2.089 38.595v.117c0 1.196.667 2.822 2.773 2.307 2.586-.638 2.872-1.785 2.95-2.925.26-1.316 5.899-28.797 7.32-40.532 1.37-11.978 4.863-59.898 3.063-63.663z" fill="#FFCFAE"/>
            <path d="M169.4 152.578c1.926.5 3.93.62 5.9.353 5.998-.843 12.317-7.363 12.317-7.363V98.92c-.179-2.02-.46-4.03-.843-6.023-1.165-5.687-3.327-9.074-8.062-12.857a15.831 15.831 0 0 0-2.071-1.365c-6.034-3.37-17.582-6.047-25.083-3.175-9.879 3.792-9.857 15.467-9.879 15.443v44.314c3.79 3.391 7.832 6.49 12.092 9.269 6.301 4.04 14.13 7.656 15.63 8.051z" fill="#9B9B9B"/>
            <path d="M189.258 53.09c1.626 11.388 1.012 54.203 1.012 54.203 0 9.142-2.3 16.336-14.836 18.09-2.36.255-4.745.11-7.056-.43-9.689-2.072-21.442-9.065-26.032-13.21-7.684-6.944-7.37-13.482-7.37-19.226v-41.77s0-14.029 11.869-18.601c9.032-3.48 22.933-.286 30.201 3.807.011.007 10.525 5.264 12.212 17.136z" fill="#FFF"/>
            <path d="M188.354 49.261a6.672 6.672 0 0 0-4.911-2.283c-7.247 0-6.739 8.214-6.739 8.214v46.086c0 17.694-4.019 22.647-6.64 23.967 1.772.293 3.576.336 5.36.127 12.535-1.764 14.836-8.955 14.836-18.09 0 0-1.795-11.631-1.906-24.398-.095-11.016.893-23.61.893-29.805 0-1.477-.48-2.575-.893-3.818z" fill="#D8D8D8"/>
            <path d="M169.443 53.594l7.035 36.429 13.26-2.47s-.085-2.78-.16-6.301c-.352-14.988.978-25.824-1.728-33.624-1.288-3.716-20.44-2.117-18.407 5.948" fill="#FFF"/>
            <path d="M185 118.609s2.629 7.095 2.58 8.56c0 1.22-.322 1.947.405 2.307.97.49 1.355-.244 1.355-.244a1.087 1.087 0 0 0 1.686-.504s.953.631 1.411-.903c0 0 1.02.843 1.299-2.047.321-3.419-2.35-8.711-2.375-8.778L185 118.609z" fill="#FFCFAE"/>
            <path d="M188.548 128.523a2.35 2.35 0 0 1-1.33-1.507c-.388-1.189.244-2.283 1.366-2.258 0 0 2.166 4.128-.036 3.765z" fill="#FFCFAE"/>
            <path d="M189.72 87.419l2.992 31.835-6.422 3.034a210.032 210.032 0 0 1-10.016-32.915" fill="#FFF"/>
            <circle fill="#FFF" transform="rotate(-29.16 182.992 88.033)" cx="182.992" cy="88.033" r="6.781"/>
            <circle fill="#FFF" transform="rotate(-.22 179.067 51.858)" cx="179.067" cy="51.858" r="9.791"/>
            <path d="M171.715 21.9c.067-6.866-4.135-12.47-9.403-12.518-3.2 0-6.932.843-8.693 4.011-1.13 2.022-.935 5.645-.96 8.316-.06 2.821.684 5.6 2.149 8.013v2.939a3.295 3.295 0 0 0 1.912 2.604 10.108 10.108 0 0 0 9.174 0 3.27 3.27 0 0 0 1.877-2.527v-.885a13.961 13.961 0 0 0 3.944-9.953z" fill="#FFCFAE"/>
            <path d="M162.298 9.378c5.264.05 9.47 5.645 9.403 12.518a13.859 13.859 0 0 1-4.096 10.109s1.937-17.613-5.307-22.627z" fill="#000" opacity=".08"/>
            <path d="M168.65 31.334c3.612 0 4.145-2.865 4.145-2.865-2.029.759-3.86-1.633-3.832-3.528.043-3.765 1.972-4.894 1.972-4.894a3.144 3.144 0 0 0 3.296-.448c2.755-1.852 3.37-6.806-.413-11.322-5.172-6.185-10.715-10.496-14.896-6.739 0 0-3.077-1.947-6.605 2.428a34.76 34.76 0 0 0-6.598 13.407c-1.34 4.978-1.34 12.493 5.9 12.02 2.028 4.693 7.977 2.612 7.977 2.612s1.122 1.584 4.212 1.615c3.73.032 4.841-2.286 4.841-2.286z" fill="#424242"/>
        </g>
    </g>
</svg>
