<svg width="366" height="315" viewBox="0 0 366 315" xmlns="http://www.w3.org/2000/svg" xmlns:xlink="http://www.w3.org/1999/xlink">
    <defs>
        <path id="a" d="M38.694 22.666H.28V.286h38.414v22.38z"/>
        <path id="c" d="M9.192.232v20.719H.197V.232h8.995z"/>
    </defs>
    <g fill="none" fill-rule="evenodd">
        <path d="M37.387 296.084c8.32 4.847 9.788 11.925 3.26 15.728-6.527 3.803-18.676 2.948-26.996-1.899-8.321-4.847-9.789-11.925-3.26-15.728 6.527-3.803 18.675-2.949 26.996 1.899" fill="#D8D8D8"/>
        <path d="M5.09 180.654C2.05 187.113.68 197.482.177 206.48l8.817.937 8.43-21.776" fill="#FFF"/>
        <path d="M7.037 225.49s.316 3.223.535 4.135c.14.582.225.98.334 1.403.15.584.187.874-.007 1.015-.187.135-.526.183-.862-1.003 0 0 .27 1.288 1.091 2.173.632.681 1.557 1.374 1.31 1.735-.246.36-.924 0-.924 0s-.08.584-.918.124c0 0-.1.471-.95-.124 0 0-.335.392-1.117-.392-.782-.783-3.574-3.805-3.63-9.458l5.138.392z" fill="#FFCFAE"/>
        <path d="M.19 206.302c-.878 15.74 1.565 20.574 1.565 20.574l5.328.144 1.912-19.603" fill="#FFF"/>
        <path d="M9.062 206.562a4.44 4.44 0 0 0-4.436-4.444 4.44 4.44 0 0 0-4.435 4.444 4.44 4.44 0 0 0 4.435 4.445 4.44 4.44 0 0 0 4.436-4.445M17.74 183.607c0-3.69-2.985-6.682-6.667-6.682-3.683 0-6.669 2.992-6.669 6.682 0 3.69 2.986 6.681 6.669 6.681 3.682 0 6.667-2.991 6.667-6.681" fill="#FFF"/>
        <path d="M33.248 304.741c1.81-1.815 4.003-2.562 4.898-1.667.893.896.15 3.093-1.66 4.91-.741.744-1.717 1.7-2.471 2.046-1.088.498-1.898.15-2.426-.378-.54-.54-.498-2.745-.497-3.29.302-.562 1.437-.9 2.156-1.62" fill="#444549"/>
        <path d="M33.252 304.709c1.18-1.128 2.59-1.567 3.147-.981.557.586.052 1.975-1.127 3.101" fill="#FFCFAE"/>
        <path d="M18.216 296.1c1.81-1.815 4.003-2.563 4.897-1.667.894.896.15 3.093-1.66 4.91-.74.743-1.717 1.7-2.47 2.045-1.088.5-1.898.15-2.426-.377-.54-.54-.498-2.745-.498-3.29.303-.562 1.438-.9 2.157-1.621" fill="#444549"/>
        <path d="M18.25 295.903c1.18-1.127 2.59-1.567 3.146-.98.558.586.053 1.974-1.126 3.1 0 0-.792.941-2.242 1.356" fill="#FFCFAE"/>
        <path d="M44.164 221.526l-37.236 1.272 7.292 46.27 2.01 28.444h.005c.032.971.68 2.37 2.138 1.755 2.125-.895 2.09-1.75 2.251-2.507 0 0 2.63-17.361 3.941-28.86 1.026-8.999.922-18.183.922-18.183l4.026 25.032 1.676 31.058c0 .033-.003.065-.003.098 0 .965.532 2.282 2.224 1.86 2.076-.516 2.31-1.439 2.366-2.35.211-1.056 4.76-23.174 5.88-32.619 1.148-9.669 3.954-48.24 2.508-51.27" fill="#FFCFAE"/>
        <path d="M31.19 269.587c1.584.42 3.28.487 4.702.288 4.826-.679 9.894-5.927 9.894-5.927v-6.165c-.004-6.541-.026-31.38-.026-31.38a59.775 59.775 0 0 0-.647-4.848c-.931-4.578-2.672-7.305-6.476-10.343a12.665 12.665 0 0 0-1.663-1.1c-4.848-2.74-14.118-4.871-20.143-2.547-7.92 3.054-7.917 12.45-7.92 12.43v35.665s4.242 3.898 9.712 7.426c5.079 3.274 11.365 6.184 12.566 6.501" fill="#9B9B9B"/>
        <path d="M47.14 189.516c1.304 9.165.81 43.623.81 43.623 0 7.354-1.848 13.146-11.913 14.56-1.713.24-3.733.069-5.664-.345-7.781-1.668-17.223-7.295-20.908-10.632-6.171-5.59-5.917-10.87-5.917-15.471v-33.614c.002.023 0-11.29 9.536-14.968 7.255-2.798 18.419-.233 24.255 3.066 0 0 8.443 4.229 9.801 13.78" fill="#FFF"/>
        <path d="M46.413 186.438c-1.03-1.076-2.32-1.82-3.927-1.82-5.822 0-5.425 6.609-5.425 6.609v37.084c0 14.265-3.228 18.223-5.33 19.289 1.496.224 2.991.283 4.306.098 10.065-1.413 11.913-7.205 11.913-14.56 0 0 .495-34.457-.81-43.622a17.474 17.474 0 0 0-.727-3.078" fill="#D8D8D8"/>
        <path d="M31.224 189.924l-.005.008 5.65 29.317 10.65-1.977s-.065-2.234-.13-5.07c-.275-12.062.783-20.778-1.387-27.06-1.034-2.992-16.416-1.71-14.783 4.79" fill="#FFF"/>
        <path d="M44.032 241.423s2.109 5.712 2.072 6.888c-.03.981-.256 1.567.325 1.858.778.391 1.086-.196 1.086-.196s.889.584 1.335-.408c0 0 .765.508 1.126-.723 0 0 .821.679 1.04-1.648.258-2.752-1.886-7.013-1.905-7.065l-5.079 1.294z" fill="#FFCFAE"/>
        <path d="M46.569 250.231s-.762-.257-1.072-1.215c-.309-.958.196-1.835 1.098-1.816 0 0 1.739 3.323-.026 3.031" fill="#FFCFAE"/>
        <path d="M47.51 217.14l2.428 25.639-5.156 2.437s-5.227-12.752-8.044-26.493" fill="#FFF"/>
        <path d="M37.327 220.324a5.466 5.466 0 0 1 2.103-7.43 5.444 5.444 0 0 1 7.414 2.11 5.465 5.465 0 0 1-2.104 7.427 5.442 5.442 0 0 1-7.413-2.107M46.798 188.503c-.017-4.351-3.55-7.865-7.893-7.848-4.343.016-7.848 3.557-7.832 7.908.017 4.352 3.55 7.867 7.892 7.85 4.343-.017 7.85-3.558 7.833-7.91" fill="#FFF"/>
        <path d="M33.05 164.42c.057-5.522-3.324-10.034-7.551-10.078-2.573-.026-5.57.7-6.985 3.228-.91 1.627-.75 4.532-.773 6.694-.025 2.447.626 4.695 1.725 6.445v2.34l.008.017c.025.76.534 1.518 1.538 2.098 2.044 1.182 5.348 1.182 7.378 0 .98-.57 1.48-1.312 1.512-2.06a.621.621 0 0 0 .011-.035v-.683c1.874-1.806 3.104-4.697 3.137-7.965" fill="#FFCFAE"/>
        <path d="M25.499 154.342c4.227.044 7.608 4.556 7.551 10.079-.034 3.356-1.329 6.314-3.289 8.108 0 0 1.543-14.15-4.262-18.187" fill="#000"/>
        <path d="M30.576 172.01c2.906 0 3.328-2.307 3.328-2.307-1.631.608-3.098-1.319-3.081-2.84.034-3.03 1.581-3.943 1.581-3.943s1.12.668 2.642-.36c2.211-1.493 2.708-5.476-.33-9.114-4.154-4.978-8.603-8.448-11.96-5.42 0 0-2.467-1.565-5.304 1.951-2.839 3.517-4.298 7.07-5.3 10.794-1.08 4.008-1.08 10.053 4.705 9.675 1.63 3.774 6.41 2.101 6.41 2.101s.9 1.273 3.391 1.299c3.036.031 3.918-1.835 3.918-1.835" fill="#424242"/>
        <path d="M88.28 265.505c8.321 4.847 9.789 11.925 3.261 15.728-6.527 3.803-18.676 2.948-26.997-1.899-8.32-4.848-9.788-11.925-3.26-15.728 6.527-3.803 18.676-2.949 26.997 1.899" fill="#D8D8D8"/>
        <path d="M56.082 145.648c-3.04 6.458-4.41 16.827-4.912 25.825l8.818.937 8.43-21.775" fill="#FFF"/>
        <path d="M58.03 190.483s.316 3.224.535 4.135c.139.582.224.98.333 1.403.15.585.188.874-.007 1.015-.187.135-.526.183-.861-1.002 0 0 .27 1.287 1.09 2.172.633.682 1.558 1.374 1.311 1.735-.246.36-.924 0-.924 0s-.081.585-.919.124c0 0-.1.472-.949-.124 0 0-.335.392-1.117-.392-.782-.783-3.575-3.805-3.63-9.457l5.138.391z" fill="#FFCFAE"/>
        <path d="M51.183 171.295c-.878 15.74 1.564 20.574 1.564 20.574l5.328.144 1.913-19.603" fill="#FFF"/>
        <path d="M60.054 171.556a4.44 4.44 0 0 0-4.436-4.445 4.44 4.44 0 0 0-4.435 4.445A4.44 4.44 0 0 0 55.618 176a4.44 4.44 0 0 0 4.436-4.444M68.733 148.6c0-3.69-2.986-6.681-6.668-6.681-3.683 0-6.668 2.99-6.668 6.68 0 3.69 2.985 6.682 6.668 6.682 3.682 0 6.668-2.991 6.668-6.681" fill="#FFF"/>
        <path d="M85.322 277.659c-1.802 1.807-3.99 2.549-4.884 1.652-.894-.895-.157-3.087 1.646-4.896 1.802-1.808 3.989-2.548 4.884-1.654.54.54.5 1.956.501 2.499-.301.561-1.43 1.68-2.147 2.399" fill="#071B2F"/>
        <path d="M85.308 275.777c-1.181 1.129-2.59 1.568-3.147.982-.559-.585-.053-1.974 1.127-3.102s2.59-1.568 3.146-.981c.558.586.053 1.975-1.126 3.101" fill="#FFCFAE"/>
        <path d="M69.171 268.394c-1.731 1.736-3.832 2.448-4.69 1.587-.86-.86-.151-2.965 1.58-4.702s3.832-2.449 4.69-1.589c.52.519.482 1.878.483 2.4-.29.54-1.375 1.615-2.063 2.304" fill="#071B2F"/>
        <path d="M69.158 266.587c-1.135 1.084-2.488 1.505-3.023.943-.536-.562-.05-1.895 1.082-2.98 1.133-1.083 2.487-1.505 3.022-.942.537.563.051 1.896-1.081 2.979" fill="#FFCFAE"/>
        <path d="M87.473 243.784s4.58-25.708 6.839-42.192l-35.22-6.686c-.167 8.015-.446 23.293.454 34.348 1.356 16.655 7.08 35.881 7.08 35.881h.005c.126.604.796 1.066 2.133 1.065 1.49-.001 2.527-.503 2.527-1.207l-.601-26.732 2.912-22.736s1.41 16.946 2.458 25.995c1.046 9.047 6.386 32.33 6.386 32.33 0 .947.69 1.718 2.302 1.718 1.603-.003 2.71-.7 2.72-1.638h.007l-.002-30.146z" fill="#2B90FF"/>
        <path d="M97.513 155.858c1.304 9.165.81 43.623.81 43.623 0 7.354-1.848 13.146-11.913 14.56-1.713.24-3.733.069-5.664-.345-7.781-1.667-17.223-7.295-20.908-10.632-6.171-5.59-5.917-10.87-5.917-15.471v-33.614c.003.023 0-11.29 9.536-14.968 7.255-2.798 18.419-.233 24.255 3.067 0 0 8.442 4.228 9.801 13.78" fill="#FFF"/>
        <path d="M96.785 152.78c-1.03-1.076-2.32-1.82-3.926-1.82-5.822 0-5.426 6.61-5.426 6.61v37.083c0 14.265-3.227 18.223-5.33 19.289 1.497.224 2.992.283 4.307.099 10.065-1.414 11.913-7.206 11.913-14.56 0 0 .494-34.458-.81-43.623a17.458 17.458 0 0 0-.728-3.077" fill="#D8D8D8"/>
        <path d="M74.404 137.428c-2.177 0-4.427.846-6.336 2.384-4.534 3.653-2.766 11.344-2.748 11.42l2.394 13.59 5.358-9.697c1.479-2.676 3.01-4.763 4.36-6.603 2.377-3.242 3.949-5.384 2.774-7.694-1.098-2.161-3.213-3.4-5.802-3.4m-6.875 28.888a.377.377 0 0 1-.372-.312l-2.575-14.618c-.075-.312-1.888-8.214 3.014-12.163 2.041-1.645 4.46-2.55 6.808-2.55 2.883 0 5.242 1.39 6.474 3.812 1.386 2.725-.387 5.14-2.839 8.484-1.337 1.823-2.852 3.889-4.307 6.522l-5.874 10.63a.377.377 0 0 1-.33.195" fill="#2B90FF"/>
        <path fill="#9ECCFF" d="M68.523 169.637l-.008 2.926-1.88-1.087.008-2.927z"/>
        <path d="M69.304 175.915v-.297l-3.451-1.997-.001.297 3.452 1.997zm.002-.824v-.296l-3.45-1.997-.002.297 3.452 1.996zm.002-.823v-.299l-3.45-1.997-.002.3 3.452 1.996zm-2.665-5.719l-.008 2.927 1.88 1.087.008-2.926-1.88-1.088zm1.158-.166l1.827 1.057-.021 7.525-4.085-2.364.021-7.524 1.827 1.056.431.25z" fill="#2B90FF"/>
        <path fill="#9ECCFF" d="M69.309 173.969v.3l-3.452-1.998v-.299z"/>
        <path fill="#2B90FF" d="M67.805 167.258l-.004 1.125-.43-.25.002-1.125z"/>
        <path fill="#D3D3D3" d="M68.516 165.382l-.322 2.101-.39-.225-.43-.25-.395-.228-.304-2.463z"/>
        <path fill="#9ECCFF" d="M69.304 175.618v.297l-3.452-1.997v-.297zM69.307 174.795l-.001.296-3.452-1.996.001-.297z"/>
        <path d="M72.188 120.382c-2.45-.098-5.325.508-6.745 2.876-.912 1.523-.843 4.295-.925 6.354-.149 3.718 1.33 7.615 3.632 9.637v.973l.01.018c.025.796.559 1.588 1.607 2.195 2.138 1.236 5.592 1.236 7.715 0 1.025-.597 1.549-1.373 1.58-2.155l.013-.036v-9.7c.008-.115.016-.232.02-.348.21-5.259-2.883-9.652-6.907-9.814" fill="#FFCFAE"/>
        <path d="M71.407 140.653c-1.18-.048-2.274-.566-3.228-1.404v.973l.01.018c.024.796.559 1.588 1.607 2.195 2.138 1.236 5.592 1.236 7.715 0 1.025-.597 1.549-1.373 1.581-2.155l.011-.036v-9.7c-.345 5.146-3.761 10.267-7.696 10.109" fill="#EBB896"/>
        <path d="M81.53 121.473c-1.074-1.864-1.763-3.937-2.868-4.74-1.814-1.318-3.5-.32-3.5-.32s-1.37-1.782-4.297-.312c-3.778 1.896-7.163 2.861-9.07 5.707-1.84 2.746-.938 7.307 2.749 8.02.002-.072 0-.144.002-.217.037-.912.044-1.964.12-2.985 7.129.148 10.326-2.22 10.326-2.22l1.466 5.907a1.338 1.338 0 0 1 1.417-1.073c.7.056 1.222.64 1.228 1.33v5.34c6.146-5.403 4.508-10.822 2.427-14.437" fill="#10355D"/>
        <path d="M73.56 132.624c.843.126 1.336-.358 1.312-1.28-.019-.856-.461-1.46-1.191-1.644a2.005 2.005 0 0 0-.19-.038l-.817-.123c-.843-.123-1.335.358-1.315 1.283.022.856.467 1.46 1.2 1.645.06.015.122.028.185.037l.816.12m-6.749-1c.842.127 1.335-.357 1.312-1.28-.02-.856-.462-1.458-1.192-1.644a1.893 1.893 0 0 0-.19-.037l-.816-.12c-.843-.126-1.338.257-1.318 1.182.022.865.48 1.558 1.227 1.748.053.013.106.024.16.032l.817.12m8.765-.177c.028 1.176-.817 2.001-1.891 1.842l-1.036-.155a2.022 2.022 0 0 1-.19-.039c-.987-.25-1.776-1.272-1.803-2.378a18.625 18.625 0 0 1-.002-.188c-.008-.28-.196-.538-.433-.599a.388.388 0 0 0-.046-.008l-.91-.135c-.256-.038-.458.173-.451.47 0 .005.01.119.012.19.028 1.176-.82 2.001-1.891 1.843l-1.035-.156a1.884 1.884 0 0 1-.195-.038c-.985-.25-1.772-1.274-1.798-2.378-.028-1.18.82-2.004 1.89-1.846l1.039.153c.055.01.11.02.163.034.248.063.483.177.7.324-.008-.015.608.408 1.172.55.052.014.103.025.153.032l1.365.201c.032.005.634.1 1.065-.077.054-.034.224-.108.248-.127a.16.16 0 0 1 .083-.028c.254-.079.5-.1.762-.063l1.038.153c.063.01.125.022.186.038.986.25 1.778 1.273 1.805 2.385" fill="#2B90FF"/>
        <path d="M92.108 207.853s-.258 3.229-.46 4.145c-.129.583-.208.982-.309 1.408-.139.587-.171.877.025 1.014.19.132.53.175.844-1.017 0 0-.247 1.292-1.052 2.192-.62.693-1.532 1.403-1.28 1.757.254.357.926-.016.926-.016s.09.583.92.109c0 0 .108.469.948-.142 0 0 .341.385 1.109-.412.767-.798 3.505-3.87 3.46-9.522l-5.131.484z" fill="#FFCFAE"/>
        <path d="M90.808 185.38l.882 26.147 5.11-.158s3.901-10.286 4.861-26.71" fill="#FFF"/>
        <path d="M101.66 184.582a5.454 5.454 0 0 0-5.546-5.362 5.455 5.455 0 0 0-5.35 5.558 5.453 5.453 0 0 0 5.546 5.361 5.456 5.456 0 0 0 5.35-5.557" fill="#FFF"/>
        <path d="M82.534 157.9l8.492 28.46 10.635-1.778s.168-2.64.171-5.478c.014-11.936-1.691-20.913-4.911-27.273" fill="#FFF"/>
        <path d="M97.726 155.278c-.017-4.325-3.53-7.817-7.846-7.801-4.317.016-7.801 3.537-7.785 7.861.017 4.325 3.529 7.819 7.845 7.802 4.316-.016 7.803-3.536 7.786-7.862" fill="#FFF"/>
        <g transform="translate(320.064 291.574)">
            <mask id="b" fill="#fff">
                <use xlink:href="#a"/>
            </mask>
            <path d="M7.618 4.561C-.702 9.41-2.169 16.487 4.358 20.29c6.527 3.803 18.676 2.948 26.998-1.9 8.32-4.846 9.787-11.924 3.26-15.727C28.088-1.14 15.94-.286 7.618 4.56" fill="#D8D8D8" mask="url(#b)"/>
        </g>
        <path d="M359.98 180.784c3.04 6.458 4.41 16.827 4.912 25.825l-8.817.937-8.43-21.775" fill="#FFF"/>
        <path d="M358.033 225.619s-.316 3.224-.535 4.136c-.14.58-.225.979-.334 1.402-.15.585-.187.874.007 1.015.187.135.527.184.862-1.002 0 0-.27 1.288-1.092 2.172-.631.682-1.557 1.375-1.31 1.736.246.36.925 0 .925 0s.08.584.918.123c0 0 .1.472.95-.123 0 0 .334.391 1.117-.392.782-.784 3.574-3.806 3.63-9.459l-5.138.392z" fill="#FFCFAE"/>
        <g transform="translate(355.878 206.199)">
            <mask id="d" fill="#fff">
                <use xlink:href="#c"/>
            </mask>
            <path d="M9.002.232c.877 15.74-1.565 20.575-1.565 20.575l-5.328.144L.197 1.347" fill="#FFF" mask="url(#d)"/>
        </g>
        <path d="M356.008 206.692a4.441 4.441 0 0 1 4.436-4.445 4.44 4.44 0 0 1 4.436 4.445 4.44 4.44 0 0 1-4.436 4.445 4.44 4.44 0 0 1-4.436-4.445M347.33 183.736c0-3.69 2.985-6.682 6.667-6.682 3.683 0 6.668 2.992 6.668 6.682 0 3.69-2.985 6.682-6.668 6.682-3.682 0-6.668-2.992-6.668-6.682" fill="#FFF"/>
        <path d="M331.852 305.034c-1.81-1.815-4.003-2.562-4.897-1.666-.894.895-.151 3.092 1.659 4.91 1.81 1.814 4.003 2.562 4.897 1.667.54-.54.498-2.745.498-3.29-.303-.562-1.438-.9-2.157-1.62" fill="#444549"/>
        <path d="M331.818 304.838c-1.18-1.127-2.59-1.567-3.147-.98-.557.585-.053 1.974 1.127 3.1" fill="#FFCFAE"/>
        <path d="M346.854 296.23c-1.81-1.816-4.003-2.563-4.897-1.667-.894.895-.15 3.092 1.66 4.909 1.81 1.815 4.002 2.562 4.897 1.668.54-.54.498-2.745.497-3.29-.303-.562-1.438-.9-2.157-1.62" fill="#444549"/>
        <path d="M346.82 296.033c-1.18-1.127-2.59-1.567-3.146-.98-.558.585-.053 1.973 1.126 3.1" fill="#FFCFAE"/>
        <path d="M320.907 221.656l37.235 1.272-7.292 46.27-1.677 28.444h-.006c-.031.97-.888 1.757-2.47 1.755-1.562-.001-2.155-.863-2.189-1.823h-.014s-2.678-18.045-3.99-29.544c-1.025-9-.92-18.184-.92-18.184l-4.028 25.033-1.22 31.166.002.097c0 .965-.934 1.756-2.678 1.753-1.662 0-2.31-.808-2.366-1.72-.211-1.054-4.759-23.805-5.88-33.25-1.148-9.668-3.954-48.24-2.507-51.27" fill="#9B9B9B"/>
        <path d="M317.93 189.645c-1.305 9.166-.81 43.624-.81 43.624 0 7.353 1.848 13.145 11.913 14.56 1.712.24 3.733.068 5.663-.346 7.782-1.668 17.223-7.295 20.908-10.632 6.172-5.59 5.918-10.87 5.918-15.471v-33.613c-.003.023 0-11.291-9.537-14.969-7.255-2.797-18.418-.233-24.255 3.067 0 0-8.441 4.228-9.8 13.78" fill="#FFF"/>
        <path d="M318.658 186.568c1.028-1.076 2.32-1.82 3.926-1.82 5.822 0 5.425 6.608 5.425 6.608v37.085c0 14.264 3.228 18.222 5.33 19.288-1.496.224-2.991.283-4.306.099-10.066-1.414-11.913-7.206-11.913-14.56 0 0-.495-34.457.81-43.623.156-1.096.408-2.12.728-3.077" fill="#D8D8D8"/>
        <path d="M342.868 171.23c1.099-1.75 1.75-3.998 1.725-6.445-.022-2.162.136-5.067-.773-6.693-1.415-2.53-4.412-3.255-6.985-3.229-4.227.044-7.609 4.556-7.551 10.079.033 3.268 1.262 6.158 3.137 7.964l.01.719c.032.748.532.809 1.512 1.38 2.031 1.182 5.335 1.182 7.378 0 1.004-.58 1.514-1.338 1.538-2.099l.009-1.676" fill="#FFCFAE"/>
        <path d="M337.038 173.216c-4.222-.456-5.293-2.717-5.98-6.046-6.337-5.7-3.927-14.296-3.662-14.927.666.836 1.303.837 1.303.837-.126-.276-.183-.71-.095-.847 1.08 1.668 7.816-.919 10.485-1.495 2.669-.578 3.061 1.167 3.061 1.167s1.943-.956 3.427 2.286c1.1 2.4.958 8.566-.095 11.59-1.144 3.283-2.415 8.088-8.444 7.435" fill="#424242"/>
        <path d="M331.057 167.17c.302 1.462.679 2.718 1.364 3.706v2.03c-1.82-1.754-3.03-4.531-3.13-7.684a12.897 12.897 0 0 0 1.766 1.948" fill="#000"/>
        <path d="M337.688 174.598c-2.253.197-4.351-.303-5.489-.941 0 0-2.166.931-2.698 1.18 0 0 7.027 2.906 11.829.603 4.218-2.021 2.14-3.812 2.14-3.812l-.602-.238-.006 1.05s-.697 1.764-5.174 2.158" fill="#DBDBDB"/>
        <path d="M333.845 190.053l.007.008-5.652 29.318-10.649-1.977s.065-2.235.13-5.07c.275-12.063-.784-20.779 1.387-27.06 1.033-2.992 16.416-1.711 14.784 4.79" fill="#FFF"/>
        <path d="M321.037 241.552s-2.108 5.712-2.071 6.889c.03.98.256 1.566-.325 1.858-.778.39-1.086-.196-1.086-.196s-.889.583-1.335-.408c0 0-.765.507-1.127-.724 0 0-.82.68-1.039-1.647-.258-2.753 1.886-7.014 1.905-7.066l5.078 1.294z" fill="#FFCFAE"/>
        <path d="M318.501 250.36s.762-.256 1.071-1.214c.31-.958-.195-1.835-1.098-1.817 0 0-1.738 3.323.027 3.032" fill="#FFCFAE"/>
        <path d="M317.56 217.268l-2.428 25.64 5.156 2.438s5.226-12.753 8.044-26.493" fill="#FFF"/>
        <path d="M327.744 220.453a5.466 5.466 0 0 0-2.104-7.429 5.443 5.443 0 0 0-7.414 2.109 5.465 5.465 0 0 0 2.104 7.427 5.442 5.442 0 0 0 7.414-2.107M318.271 188.633c.017-4.352 3.552-7.866 7.893-7.85 4.344.017 7.85 3.559 7.833 7.91-.016 4.352-3.55 7.866-7.893 7.85-4.342-.018-7.85-3.559-7.833-7.91" fill="#FFF"/>
        <path d="M276.79 281.74c-8.321 4.848-9.789 11.926-3.261 15.728 6.527 3.804 18.676 2.95 26.997-1.898 8.32-4.848 9.788-11.926 3.26-15.728-6.527-3.804-18.676-2.95-26.997 1.898" fill="#D8D8D8"/>
        <path d="M308.988 161.884c3.039 6.458 4.41 16.827 4.911 25.825l-8.817.937-8.43-21.776" fill="#FFF"/>
        <path d="M307.04 206.719s-.316 3.223-.534 4.135c-.14.582-.226.98-.334 1.403-.15.584-.188.874.006 1.015.187.134.527.183.862-1.003 0 0-.27 1.288-1.09 2.173-.633.681-1.558 1.374-1.311 1.735.246.36.924 0 .924 0s.08.584.919.124c0 0 .1.471.949-.124 0 0 .335.392 1.117-.392.782-.783 3.574-3.805 3.63-9.458l-5.138.392z" fill="#FFDFCA"/>
        <path d="M313.887 187.531c.878 15.74-1.564 20.574-1.564 20.574l-5.328.144-1.913-19.603" fill="#FFF"/>
        <path d="M305.016 187.791a4.44 4.44 0 0 1 4.436-4.444 4.44 4.44 0 0 1 4.435 4.444 4.44 4.44 0 0 1-4.435 4.445 4.44 4.44 0 0 1-4.436-4.445M296.337 164.836c0-3.69 2.986-6.682 6.668-6.682s6.668 2.992 6.668 6.682c0 3.69-2.986 6.681-6.668 6.681s-6.668-2.991-6.668-6.681" fill="#FFF"/>
        <path d="M278.052 293.894c1.803 1.808 3.99 2.55 4.884 1.653.894-.896.157-3.087-1.645-4.896-1.803-1.808-3.99-2.549-4.884-1.654-.54.54-.5 1.956-.502 2.499.302.561 1.431 1.68 2.147 2.398" fill="#071B2F"/>
        <path d="M278.066 292.013c1.181 1.129 2.59 1.568 3.147.982.56-.585.053-1.974-1.126-3.102-1.18-1.128-2.59-1.568-3.146-.981-.559.586-.053 1.974 1.125 3.1" fill="#FFCFAE"/>
        <path d="M294.203 284.63c1.73 1.736 3.831 2.448 4.69 1.586.86-.859.152-2.964-1.58-4.702-1.731-1.736-3.832-2.448-4.69-1.588-.52.519-.482 1.878-.483 2.4.29.54 1.375 1.614 2.063 2.303" fill="#071B2F"/>
        <path d="M294.216 282.823c1.135 1.084 2.487 1.505 3.023.942.537-.56.05-1.894-1.082-2.979-1.133-1.083-2.487-1.505-3.022-.942-.536.563-.05 1.896 1.08 2.979" fill="#FFCFAE"/>
        <path d="M276.443 260.02s-4.581-25.708-6.84-42.192l35.22-6.686c.167 8.015.446 23.292-.454 34.348-1.355 16.655-7.404 35.947-7.404 35.947h-.005c-.126.603-.472 1-1.808.999-1.49-.001-2.233-1.18-2.233-1.884l.307-26.055-2.913-22.736s-1.41 16.945-2.458 25.995c-1.046 9.047-7.12 32.873-7.12 32.873 0 .947.044 1.174-1.568 1.174-1.603-.003-2.44-1.109-2.45-2.047h-.007l-.267-29.737z" fill="#FFCFAE"/>
        <path d="M284.817 251.078c-1.705.451-3.53.523-5.06.309-5.19-.73-10.643-6.375-10.643-6.375v-6.633l.027-33.758c.178-1.835.4-3.574.697-5.215 1.002-4.925 2.874-7.858 6.966-11.127.502-.4 1.107-.798 1.79-1.184 5.214-2.948 15.187-5.24 21.669-2.74 8.52 3.286 8.517 13.394 8.52 13.373v38.367s-4.564 4.194-10.449 7.989c-5.463 3.522-12.225 6.653-13.517 6.994" fill="#2B90FF"/>
        <path d="M267.557 172.094c-1.304 9.165-.81 43.623-.81 43.623 0 7.353 1.848 13.145 11.914 14.56 1.712.24 3.733.068 5.663-.346 7.782-1.667 17.223-7.294 20.908-10.631 6.172-5.59 5.918-10.87 5.918-15.472v-33.613c-.003.023 0-11.29-9.537-14.968-7.255-2.798-18.418-.233-24.255 3.066 0 0-8.442 4.229-9.8 13.78" fill="#FFF"/>
        <path d="M268.285 169.016c1.029-1.076 2.32-1.82 3.926-1.82 5.822 0 5.426 6.609 5.426 6.609v37.084c0 14.265 3.227 18.223 5.33 19.289-1.497.224-2.992.283-4.307.098-10.065-1.413-11.913-7.205-11.913-14.56 0 0-.494-34.457.81-43.623.156-1.096.409-2.119.728-3.077" fill="#D8D8D8"/>
        <path d="M272.962 224.089s.257 3.229.46 4.145c.128.583.208.982.309 1.408.14.587.17.876-.025 1.013-.19.132-.53.176-.844-1.016 0 0 .247 1.292 1.052 2.192.619.693 1.532 1.402 1.28 1.757-.254.357-.925-.016-.925-.016s-.092.583-.921.109c0 0-.109.469-.947-.142 0 0-.342.385-1.11-.413-.767-.797-3.505-3.87-3.46-9.521l5.131.484z" fill="#FFDFCA"/>
        <path d="M274.262 201.616l-.883 26.147-5.11-.158s-3.9-10.286-4.86-26.71" fill="#FFF"/>
        <path d="M263.41 200.818a5.455 5.455 0 0 1 5.546-5.362 5.455 5.455 0 0 1 5.35 5.558 5.453 5.453 0 0 1-5.546 5.361 5.456 5.456 0 0 1-5.35-5.557" fill="#FFF"/>
        <path d="M282.536 174.136l-8.492 28.46-10.635-1.778s-.168-2.64-.17-5.479c-.015-11.935 1.69-20.912 4.91-27.272" fill="#FFF"/>
        <path d="M267.344 171.514c.017-4.325 3.53-7.818 7.846-7.801 4.317.016 7.8 3.537 7.785 7.861-.017 4.325-3.529 7.819-7.845 7.802-4.317-.016-7.803-3.537-7.786-7.862" fill="#FFF"/>
        <path d="M291.42 153.294c-2.59 0-4.704 1.24-5.803 3.4-1.174 2.31.397 4.452 2.775 7.694 1.35 1.84 2.881 3.927 4.36 6.603l5.357 9.698 2.39-13.568c.023-.1 1.785-7.795-2.743-11.443-1.909-1.537-4.16-2.384-6.337-2.384m6.876 28.889a.378.378 0 0 1-.33-.195l-5.873-10.631c-1.455-2.633-2.97-4.7-4.308-6.521-2.452-3.344-4.224-5.76-2.838-8.485 1.232-2.423 3.59-3.812 6.473-3.812 2.349 0 4.767.905 6.809 2.55 4.902 3.949 3.089 11.85 3.009 12.185l-2.57 14.597a.377.377 0 0 1-.372.312" fill="#2B90FF"/>
        <path fill="#9ECCFF" d="M297.3 185.503l.008 2.926 1.88-1.087-.008-2.927z"/>
        <path d="M296.52 191.78l3.452-1.996-.002-.297-3.45 1.997v.297zm-.002-.823l3.45-1.996v-.297l-3.451 1.997v.296zm-.003-.822l3.452-1.998v-.299l-3.453 1.997.001.3zm2.666-5.72l-1.88 1.088.008 2.926 1.88-1.087-.008-2.927zm-.728-.415l1.827-1.057.022 7.524-4.085 2.364-.021-7.525 1.826-1.057.431-.25z" fill="#2B90FF"/>
        <path fill="#9ECCFF" d="M296.515 189.835v.3l3.452-1.997-.001-.3z"/>
        <path fill="#2B90FF" d="M298.02 183.124l.003 1.125.43-.25-.003-1.124z"/>
        <path fill="#D3D3D3" d="M297.307 181.248l.322 2.102.39-.226.43-.25.396-.227.304-2.464z"/>
        <path fill="#9ECCFF" d="M296.52 191.484v.297l3.452-1.997-.002-.297zM296.517 190.661v.296l3.452-1.996v-.297z"/>
        <path d="M286.147 137.333s-5.843-6.044-8.105 1.952c0 0-1.256 3.462-.062 6.673 1.193 3.211 3.267 5.1.565 7.367 0 0 7.351-1.89 8.105-11.648 0 0 .44-3.463-.503-4.344" fill="#07253F"/>
        <path d="M301.133 143.566s.304 2.141-.346 4.564c-.785 2.928 1.257 2.677 1.257 2.677s-2.639.251-1.948-2.015c.545-1.79-.126-2.96-.126-2.96s.283-2.203 1.163-2.266" fill="#10355D"/>
        <path d="M292.853 136.617c2.45-.098 5.325.509 6.745 2.877.912 1.524.843 4.295.926 6.354.148 3.718-1.332 7.615-3.633 9.637v.973l-.01.018c-.024.795-.559 1.588-1.607 2.194-2.138 1.237-5.592 1.237-7.715 0-1.025-.597-1.548-1.372-1.58-2.154a.798.798 0 0 1-.013-.036v-9.7c-.007-.115-.015-.231-.02-.347-.21-5.26 2.883-9.654 6.907-9.816" fill="#FFCFAE"/>
        <path d="M293.663 156.888c1.18-.047 2.274-.565 3.228-1.403v.972l-.01.019c-.024.795-.558 1.588-1.608 2.194-2.136 1.237-5.591 1.237-7.714 0-1.025-.597-1.549-1.372-1.581-2.154l-.011-.036v-9.7c.345 5.146 3.761 10.266 7.696 10.108" fill="#EBB896"/>
        <path d="M288.142 146.557c-.138-.652-.267-1.137-.947-1.082a1.34 1.34 0 0 0-1.228 1.32s-.068 1.897.874 3.952l-.874 3.167c-8.068-10.34-1.579-19.414-1.579-19.414 1.996-2.62 5.305-1.95 5.305-1.95 3.256-1.23 8.61-1.527 11.027 3.147 0 0 2.266 2.958.821 7.932l-1.03 3.443c.022-.408.029-.817.012-1.224-.033-.842-.043-1.803-.103-2.749-8.492.026-10.251-2.949-10.251-2.949s.188 3.164-.566 4.58c0 0 .094 2.165-.471 3.372 0 0-.848 2.264.188 3.05 0 0-1.507-.534-1.036-2.55.118-.505-.142-2.045-.142-2.045" fill="#10355D"/>
        <path d="M269.016 18.888c0-10.83-9.096-19.532-20.05-18.85-9.68.6-17.43 8.71-17.642 18.426-.158 7.28 3.796 13.65 9.693 16.939.938.522 1.599 1.483 1.677 2.55.164 2.288-2.081 3.39-2.081 3.39 29.16.284 28.403-22.455 28.403-22.455" fill="#FFF"/>
        <path d="M249.677 23.6c1.044 0 1.822.821 1.822 1.909 0 1.067-.778 1.887-1.822 1.887s-1.802-.82-1.802-1.887c0-1.088.758-1.908 1.802-1.908m1.27-6.708c0-.841-.554-1.293-1.372-1.293-.758 0-1.31.39-1.864.944l-1.658-1.518c.921-1.108 2.211-1.867 3.726-1.867 2.314 0 4.054 1.087 4.054 3.508 0 2.544-3.071 3.303-2.826 5.744h-2.64c-.41-2.81 2.58-3.98 2.58-5.518" fill="#9B9B9B"/>
        <path d="M242.092 182.921c8.321 4.848 9.788 11.925 3.26 15.728-6.527 3.804-18.675 2.95-26.996-1.898-8.321-4.848-9.789-11.926-3.26-15.728 6.527-3.804 18.676-2.95 26.996 1.898" fill="#D8D8D8"/>
        <path d="M239.134 195.075c-1.803 1.808-3.99 2.55-4.884 1.653-.894-.896-.157-3.087 1.645-4.895 1.803-1.809 3.99-2.55 4.884-1.655.54.54.5 1.956.502 2.498-.302.562-1.431 1.682-2.147 2.4" fill="#071B2F"/>
        <path d="M239.12 193.194c-1.181 1.129-2.59 1.568-3.147.982-.56-.585-.053-1.973 1.126-3.103 1.18-1.127 2.59-1.567 3.146-.98.559.586.054 1.974-1.125 3.1" fill="#FFCFAE"/>
        <path d="M222.983 185.811c-1.731 1.736-3.832 2.448-4.691 1.587-.859-.86-.15-2.965 1.58-4.702 1.732-1.737 3.832-2.449 4.692-1.59.518.52.48 1.88.481 2.4-.29.54-1.374 1.615-2.062 2.305" fill="#071B2F"/>
        <path d="M222.97 184.003c-1.135 1.085-2.488 1.506-3.023.944-.537-.562-.05-1.896 1.082-2.98 1.133-1.083 2.487-1.505 3.022-.941.536.562.051 1.896-1.081 2.977" fill="#FFCFAE"/>
        <path d="M241.284 161.201s6.505-26.15 8.762-42.634l-39.552-7.05c-.168 8.016 1.964 24.098 2.864 35.155 1.356 16.655 7.08 35.88 7.08 35.88h.005c.126.604.796 1.066 2.133 1.066 1.49-.003 2.527-.504 2.527-1.207l-.601-26.733 2.912-22.736s1.41 16.946 2.458 25.995c1.046 9.048 6.386 32.329 6.386 32.329 0 .947.69 1.718 2.302 1.718 1.603-.002 2.71-.7 2.72-1.638h.007l-.003-30.145z" fill="#9B9B9B"/>
        <path d="M209.893 63.064c-3.038 6.459-4.409 16.828-4.91 25.826l8.816.937 8.43-21.776" fill="#FFF"/>
        <path d="M211.842 107.9s.316 3.223.534 4.136c.14.58.225.98.334 1.403.15.584.188.873-.007 1.014-.187.135-.526.184-.861-1.002 0 0 .27 1.288 1.09 2.172.633.682 1.558 1.375 1.31 1.736-.246.36-.923 0-.923 0s-.081.584-.92.124c0 0-.098.471-.948-.124 0 0-.335.391-1.117-.392-.782-.784-3.575-3.806-3.631-9.459l5.139.392z" fill="#FFCFAE"/>
        <path d="M204.994 88.712c-.877 15.74 1.565 20.575 1.565 20.575l5.328.144 1.912-19.604" fill="#FFF"/>
        <path d="M213.866 88.973a4.441 4.441 0 0 0-4.436-4.445 4.441 4.441 0 0 0-4.435 4.445 4.44 4.44 0 0 0 4.435 4.445 4.44 4.44 0 0 0 4.436-4.445M222.545 66.017c0-3.69-2.986-6.681-6.668-6.681-3.683 0-6.668 2.991-6.668 6.681s2.985 6.681 6.668 6.681c3.682 0 6.668-2.99 6.668-6.68" fill="#FFF"/>
        <path d="M213.65 120.481c3.651 3.374 13.126 8.965 20.908 10.632 1.93.414 3.95.585 5.663.345 10.066-1.414 11.914-7.206 11.914-14.56l-.03-37.786c-.046-13.977-10.581-19.617-10.581-19.617-5.837-3.3-17-5.864-24.255-3.067-9.536 3.677-9.533 14.992-9.536 14.969 0 0-.843 6.434 1.796 14.178 0 0-5.915 25.632 4.121 34.906" fill="#FFF"/>
        <path d="M250.183 69.563c-1.687-1.417-3.614-1.8-5.6-1.551-4.313.54-3.338 5.594-3.338 5.594s4.418 39.935-5.29 47.772c-6.849 5.528-15.913 2.65-20.656.476 4.37 3.351 12.46 7.802 19.26 9.26 1.93.413 3.95.584 5.662.344 10.065-1.414 11.914-7.206 11.914-14.56l-.03-37.786c-.013-3.775-.794-6.937-1.922-9.549" fill="#D8D8D8"/>
        <path d="M226.099 37.807c-2.45-.098-5.325.509-6.744 2.876-.913 1.524-.844 4.296-.926 6.354-.149 3.718 1.33 7.615 3.632 9.637v.973c.003.006.008.012.01.018.025.795.559 1.588 1.608 2.194 2.137 1.237 5.591 1.237 7.714 0 1.025-.597 1.549-1.372 1.581-2.154a.798.798 0 0 0 .012-.036v-6.827c.007-.116.907-3.662.912-3.778.21-5.26-3.775-9.095-7.8-9.257" fill="#FFCFAE"/>
        <path d="M225.289 58.077c-1.18-.047-2.274-.565-3.228-1.403v.972l.01.019c.024.796.559 1.588 1.608 2.194 2.137 1.237 5.591 1.237 7.714 0 1.025-.596 1.549-1.372 1.581-2.154a1.1 1.1 0 0 0 .012-.036v-9.7c-.346 5.145-3.762 10.266-7.697 10.108" fill="#EBB896"/>
        <path d="M232.986 48.14l-.685 3.473.685 2.175c.607-.65.886-2.156 1.468-3.416 1.823-3.935 1.391-6.96 1.109-10.029-.119-1.282-.508-6.494-4.354-6.807 0 0-2.03-2.084-7.704.11-3.286 1.27-5.19-.103-5.19-.103s-.274 1.31.245 2.255c0 0-3.08 2.68-.095 10.088.053-1.85-.005-3.298.746-4.551.53-.886 1.838-1.103 2.78-1.228.593-.047 1.647.355 1.647.355s1.466-.441 2.063-.394c4.177.329 4.122 2.047 4.122 2.047l.18 1.937v6.632s-.192 3.41-3.41 3.903c-1.33.205-2.647-1.17-2.647-1.17h-.975s-.814 1.267-1.584.881a4.684 4.684 0 0 1-2.504-3.161c.176.904 1.423 6.479 5.464 6.961 4.948.59 6.833-2.455 6.833-5.903v-6.092s-.198-1.194 1.11-1.194 1.005 1.79.696 3.23" fill="#424242"/>
        <path d="M218.883 51.137l-.024-.128s.007.048.024.128" fill="#6B373E"/>
        <path d="M225.09 50.518h-3.285s-.931.85-.931 1.683h5.147c0-.833-.932-1.683-.932-1.683" fill="#424242"/>
        <path d="M245.92 125.27s-.258 3.23-.46 4.145c-.129.584-.208.982-.31 1.408-.138.588-.17.876.026 1.013.19.133.53.176.843-1.017 0 0-.246 1.293-1.051 2.193-.62.692-1.532 1.402-1.28 1.758.254.356.925-.016.925-.016s.091.582.92.108c0 0 .11.469.948-.142 0 0 .342.385 1.11-.412.767-.798 3.505-3.87 3.46-9.522l-5.131.484z" fill="#FFCFAE"/>
        <path d="M244.62 102.798l.882 26.147 5.11-.159s3.9-10.286 4.86-26.709" fill="#FFF"/>
        <path d="M255.472 101.999a5.454 5.454 0 0 0-5.546-5.361c-3.009.053-5.404 2.543-5.35 5.557a5.453 5.453 0 0 0 5.546 5.361 5.455 5.455 0 0 0 5.35-5.557" fill="#FFF"/>
        <path d="M236.346 75.317l8.492 28.46 10.634-1.778s.17-2.64.172-5.478c.013-11.937-1.691-20.912-4.911-27.273" fill="#FFF"/>
        <path d="M251.538 72.696c-.017-4.325-3.53-7.819-7.846-7.802-4.317.017-7.801 3.537-7.785 7.862.016 4.325 3.528 7.818 7.845 7.802 4.316-.017 7.803-3.537 7.786-7.862M126.62 46.079c5.898-3.29 9.85-9.659 9.694-16.939-.213-9.716-7.962-17.825-17.643-18.427-10.954-.68-20.05 8.022-20.05 18.852 0 0-.758 22.739 28.404 22.455 0 0-2.246-1.103-2.082-3.39.079-1.069.74-2.03 1.677-2.551" fill="#FFF"/>
        <path d="M116.977 33.423c1.044 0 1.822.82 1.822 1.908 0 1.067-.778 1.887-1.822 1.887-1.045 0-1.802-.82-1.802-1.887 0-1.088.757-1.908 1.802-1.908m1.269-6.709c0-.84-.553-1.292-1.372-1.292-.757 0-1.31.39-1.863.944l-1.658-1.518c.921-1.108 2.211-1.867 3.726-1.867 2.313 0 4.054 1.087 4.054 3.508 0 2.543-3.071 3.303-2.826 5.744h-2.64c-.41-2.81 2.579-3.98 2.579-5.519" fill="#9B9B9B"/>
        <path d="M134.664 190.026c-8.32 4.848-9.788 11.926-3.26 15.729 6.527 3.803 18.676 2.948 26.997-1.9 8.32-4.847 9.788-11.924 3.26-15.727-6.528-3.804-18.677-2.95-26.997 1.898" fill="#D8D8D8"/>
        <path d="M152.392 60.478s-3.106 4.666 0 8.211c2.608 2.976 2.686 6.174 1.08 9.097-1.126 2.054-1.01 4.448.453 5.695 1.766 1.506 4.188 1.229 6.64-.117 0 0-3.697-1.482-1.273-4.914 1.524-2.16 4.97-5.537 1.235-11.855-3.336-5.64-.76-8.728-.545-12.128.466-7.37-5.44-16.59-11.117-14.274 0 0 3.41 3.732 4.345 7.834.934 4.1 1.985 8.399-.818 12.45" fill="#424242"/>
        <path d="M135.927 202.18c1.803 1.808 3.99 2.55 4.884 1.653.893-.895.157-3.087-1.645-4.896-1.803-1.808-3.99-2.548-4.885-1.654-.54.54-.5 1.956-.501 2.499.301.561 1.43 1.68 2.147 2.399" fill="#071B2F"/>
        <path d="M135.941 200.3c1.181 1.128 2.59 1.567 3.147.981.559-.585.053-1.974-1.127-3.102s-2.589-1.568-3.146-.981c-.558.586-.053 1.975 1.126 3.101" fill="#FFCFAE"/>
        <path d="M152.078 192.916c1.73 1.736 3.83 2.448 4.69 1.587.86-.86.151-2.965-1.58-4.702s-3.832-2.449-4.69-1.589c-.52.519-.483 1.878-.483 2.4.29.54 1.374 1.615 2.063 2.304" fill="#071B2F"/>
        <path d="M152.09 191.109c1.135 1.084 2.488 1.505 3.024.943.536-.562.05-1.895-1.082-2.98-1.134-1.083-2.488-1.505-3.022-.942-.536.563-.051 1.896 1.08 2.979" fill="#FFCFAE"/>
        <path d="M134.317 168.306s-4.58-25.708-6.838-42.192l35.219-6.686c.167 8.015.446 23.293-.454 34.348-1.356 16.655-7.405 35.947-7.405 35.947h-.004c-.126.604-.472 1-1.809 1-1.49-.002-2.232-1.181-2.232-1.885l.307-26.055-2.913-22.736s-1.41 16.946-2.458 25.995c-1.046 9.047-7.12 32.873-7.12 32.873 0 .947-.842 1.175-1.568 1.175-1.603 0-2.44-1.11-2.45-2.048h-.008l-.267-29.736z" fill="#FFCFAE"/>
        <path d="M142.691 159.365c-1.705.45-3.529.522-5.058.307-5.192-.728-10.644-6.374-10.644-6.374v-6.633l.026-33.758c.179-1.836.4-3.573.697-5.215 1.002-4.925 2.875-7.859 6.967-11.127a13.72 13.72 0 0 1 1.79-1.184c5.214-2.948 15.187-5.24 21.669-2.74 8.52 3.286 8.516 13.394 8.52 13.373v38.367s-4.564 4.194-10.45 7.988c-5.462 3.523-12.224 6.654-13.517 6.996" fill="#9B9B9B"/>
        <path d="M166.863 70.17c3.038 6.458 4.41 16.827 4.911 25.825l-8.817.937-8.43-21.775" fill="#FFF"/>
        <path d="M164.915 115.005s-.316 3.224-.535 4.135c-.139.582-.225.98-.334 1.403-.15.585-.187.874.007 1.015.187.135.526.183.862-1.002 0 0-.27 1.287-1.091 2.172-.632.682-1.558 1.374-1.31 1.735.246.36.924 0 .924 0s.08.585.919.124c0 0 .099.472.949-.124 0 0 .335.392 1.117-.392.781-.783 3.574-3.805 3.63-9.458l-5.138.392z" fill="#FFCFAE"/>
        <path d="M171.762 95.817c.877 15.74-1.564 20.574-1.564 20.574l-5.328.144-1.913-19.603" fill="#FFF"/>
        <path d="M162.89 96.078a4.44 4.44 0 0 1 4.437-4.445 4.44 4.44 0 0 1 4.435 4.445 4.44 4.44 0 0 1-4.435 4.444 4.44 4.44 0 0 1-4.437-4.444M154.212 73.122c0-3.69 2.985-6.681 6.668-6.681 3.682 0 6.668 2.99 6.668 6.68 0 3.69-2.986 6.682-6.668 6.682-3.683 0-6.668-2.991-6.668-6.681" fill="#FFF"/>
        <path d="M125.432 80.38c-1.304 9.165-.81 43.623-.81 43.623 0 7.354 1.848 13.146 11.913 14.56 1.713.24 3.733.069 5.663-.345 7.782-1.668 17.224-7.295 20.908-10.632 6.172-5.59 5.918-10.87 5.918-15.472V78.501c-.003.023 0-11.291-9.537-14.969-7.254-2.797-18.418-.232-24.254 3.067 0 0-8.442 4.229-9.801 13.78" fill="#FFF"/>
        <path d="M126.16 77.302c1.028-1.076 2.32-1.82 3.926-1.82 5.822 0 5.425 6.609 5.425 6.609v37.084c0 14.265 3.228 18.223 5.33 19.288-1.496.225-2.991.284-4.306.1-10.066-1.414-11.913-7.206-11.913-14.56 0 0-.495-34.458.81-43.624a17.5 17.5 0 0 1 .727-3.077" fill="#D8D8D8"/>
        <path d="M140.41 82.422l-8.491 28.46-10.635-1.778s-.168-2.64-.171-5.478c-.014-11.936 1.691-20.913 4.91-27.273" fill="#FFF"/>
        <path d="M125.219 79.8c.017-4.325 3.53-7.817 7.846-7.801 4.316.016 7.8 3.537 7.785 7.861-.017 4.325-3.529 7.819-7.845 7.802-4.317-.016-7.803-3.536-7.786-7.862" fill="#FFF"/>
        <path d="M130.837 132.375s.257 3.229.46 4.145c.128.583.208.982.309 1.408.139.587.17.877-.025 1.014-.19.131-.531.175-.844-1.017 0 0 .247 1.292 1.052 2.192.618.693 1.532 1.403 1.279 1.757-.254.357-.925-.016-.925-.016s-.091.583-.92.109c0 0-.11.469-.948-.142 0 0-.341.385-1.109-.412-.768-.798-3.505-3.87-3.46-9.522l5.131.484z" fill="#FFCFAE"/>
        <path d="M132.136 109.902l-.882 26.147-5.11-.158s-3.9-10.286-4.86-26.71" fill="#FFF"/>
        <path d="M121.284 109.104a5.455 5.455 0 0 1 5.547-5.362 5.456 5.456 0 0 1 5.35 5.558 5.454 5.454 0 0 1-5.546 5.361 5.457 5.457 0 0 1-5.351-5.557" fill="#FFF"/>
        <path d="M150.728 44.904c2.45-.099 5.325.508 6.744 2.876.912 1.524.843 4.295.926 6.354.148 3.718-1.331 7.615-3.633 9.637v.973l-.009.018c-.025.796-.56 1.588-1.608 2.194-2.137 1.237-5.591 1.237-7.715 0-1.024-.596-1.548-1.372-1.58-2.154l-.012-.036v-9.7c-.007-.115-.016-.231-.02-.347-.211-5.26 2.883-9.654 6.907-9.815" fill="#FFCFAE"/>
        <path d="M151.538 65.175c1.18-.048 2.274-.566 3.228-1.404v.973l-.01.018c-.025.796-.559 1.588-1.608 2.195-2.137 1.236-5.591 1.236-7.714 0-1.025-.597-1.55-1.373-1.581-2.155a3.428 3.428 0 0 1-.012-.036v-9.7c.346 5.145 3.762 10.266 7.697 10.109" fill="#EBB896"/>
        <path d="M137.682 78.45c-1.525-2.16-4.971-5.537-1.235-11.855 3.335-5.64.76-8.728.545-12.128-.372-5.867 3.295-12.898 7.67-14.358.37-.141.715-.212 1.027-.236a4.72 4.72 0 0 1 1.913.145c3.371-2.66 8.654 1.09 12.714 5.956 3.038 3.637 1.999 7.346-.211 8.84-.6.404-1.204.533-1.718.543.021-.408.027-.817.011-1.223-.034-.842-.043-1.803-.103-2.749-3.35-.19-5.333-1.65-5.333-1.65s.275.599.51.864c.472.531 1.055.735 1.055.735-.814.067-2.501-.101-4.093-.715-2.358-.91-3.43-2.361-3.43-2.361l-.52 6.566a1.339 1.339 0 0 0-1.415-1.063 1.34 1.34 0 0 0-1.228 1.328v4.14c.21.42.453.835.74 1.249 0 0 3.106 4.665 0 8.212-2.608 2.975-2.685 6.173-1.08 9.097 1.126 2.053 1.009 4.447-.453 5.694-1.766 1.507-4.188 1.228-6.64-.117 0 0 3.697-1.482 1.274-4.914" fill="#424242"/>
    </g>
</svg>
