<svg xmlns="http://www.w3.org/2000/svg" viewBox="0 0 543 332">
    <defs>
        <style>
            .a{fill:#d8d8d8}.b{fill:#fff}.c{fill:#ffcfae}.d{fill:#081b2f}.e{fill:#2b90ff}.f{fill:#9eccff}.g{fill:#d3d3d3}.h{fill:#eab896}.i{fill:#10355d}.j{fill:#969696}.k,.m{opacity:.35}.ac,.k,.l,.m,.n,.r{isolation:isolate}.l,.n{opacity:.15}.m{fill:#353535}.n{fill:#5b5b5b}.o{fill:#fffcee}.p{fill:#eae6d8}.q{fill:#d8d4c7}.r{opacity:.1}.s{fill:#9b9b9b}.t{fill:#f5f5f5}.u{fill:#cccdce}.v{fill:#f39f00}.w{fill:#424242}.x{fill:#303030}.y{fill:#dbdddd}.z{fill:#c1c1c1}.aa{fill:#ccc}.ab{fill:#515151}.ac{opacity:.3}.ad{fill:#b5b5b5}.ae{fill:#ffb522}.af{fill:#fff1dc}.ag{fill:#7fb4dd}.ah{fill:#5cb947}.ai{fill:#30a84a}.aj{fill:#089848}.ak{fill:#5e3b1a}.al{fill:#444549}
        </style>
    </defs>
    <title>
        illust__roi
    </title>
    <path class="a" d="M527.48 196.84c9.5 5.52 11.17 13.58 3.72 17.91s-21.32 3.36-30.82-2.16-11.12-13.57-3.71-17.91 21.33-3.35 30.81 2.16z"/>
    <path class="b" d="M490.72 60.36c-3.47 7.35-5 19.16-5.61 29.41l10.07 1.07L504.8 66"/>
    <path class="c" d="M493 111.41s.36 3.67.64 4.71c.16.64.25 1.11.38 1.6.17.64.22 1 0 1.16s-.6.21-1-1.14a5.89 5.89 0 0 0 1.27 2.47c.72.78 1.78 1.56 1.5 2s-1.06 0-1.06 0-.1.64-1 .14c0 0-.11.53-1.08-.14 0 0-.38.45-1.27-.45a15.07 15.07 0 0 1-4.23-10.76z"/>
    <path class="b" d="M485.13 89.56c-1 17.92 1.79 23.43 1.79 23.43l6.08.17 2.18-22.33"/>
    <circle class="b" cx="490.19" cy="89.86" r="5.07"/>
    <circle class="b" cx="497.56" cy="63.72" r="7.61"/>
    <path class="d" d="M524.11 210.68c-2.06 2.06-4.56 2.9-5.57 1.91s-.18-3.52 1.91-5.58 4.56-2.9 5.57-1.91c.64.64.57 2.23.57 2.84a19.09 19.09 0 0 1-2.48 2.74z"/>
    <ellipse class="c" cx="522.94" cy="207.32" rx="3.37" ry="1.67" transform="rotate(-43.68 522.947 207.329)"/>
    <path class="d" d="M505.67 200.14c-2 2-4.37 2.79-5.36 1.81s-.17-3.38 1.81-5.36 4.37-2.79 5.36-1.81c.59.59.55 2.14.55 2.74a18.28 18.28 0 0 1-2.35 2.62z"/>
    <ellipse class="c" cx="504.56" cy="196.95" rx="3.24" ry="1.6" transform="rotate(-43.68 504.563 196.949)"/>
    <path class="e" d="M526.56 172.11s5.24-29.28 7.79-48.06l-40.21-7.63c-.19 9.13-.51 26.52.52 39.11 1.55 19 8.08 40.86 8.08 40.86.15.69.91 1.21 2.44 1.21 1.7 0 2.88-.57 2.88-1.37l-.69-30.44 3.32-25.89s1.61 19.3 2.81 29.6 7.29 36.81 7.29 36.81c0 1.08.79 2 2.63 2s3.09-.8 3.11-1.86z"/>
    <path class="b" d="M538 72c1.49 10.44.92 49.68.92 49.68 0 8.38-2.11 15-13.6 16.58a19.3 19.3 0 0 1-6.47-.39C510 136 499.21 129.58 495 125.8c-7-6.36-6.76-12.38-6.76-17.62V69.85s0-12.86 10.89-17c8.27-3.18 21-.27 27.69 3.49 0 0 9.65 4.74 11.2 15.68z"/>
    <path class="a" d="M537.2 68.48a6.12 6.12 0 0 0-4.45-2.07c-6.64 0-6.19 7.52-6.19 7.52v42.23c0 16.24-3.68 20.75-6.08 22a17.59 17.59 0 0 0 4.92.11c11.49-1.61 13.6-8.21 13.6-16.58 0 0 .57-39.24-.92-49.68a19.85 19.85 0 0 0-.87-3.5z"/>
    <path class="e" d="M503.81 83.9h-.07a.43.43 0 0 1-.35-.35l-2.94-16.65c-.08-.36-2.16-9.36 3.44-13.85a12.57 12.57 0 0 1 7.77-2.91 8 8 0 0 1 7.39 4.34c1.58 3.1-.44 5.85-3.24 9.66a66.24 66.24 0 0 0-4.92 7.43l-6.71 12.09a.43.43 0 0 1-.38.24zm7.85-32.9a11.71 11.71 0 0 0-7.24 2.72c-5.16 4.14-3.16 12.89-3.16 13L504 82.2l6.12-11a67 67 0 0 1 5-7.53c2.72-3.69 4.51-6.13 3.18-8.76a7.13 7.13 0 0 0-6.66-3.91z"/>
    <path class="f" d="M504.92 87.68V91l-2.15-1.24v-3.33z"/>
    <path class="e" d="M504.1 86.25l2.09 1.2V96l-4.66-2.69v-8.55l2.09 1.2zm-1.32.19v3.33l2.15 1.23v-3.32l-2.14-1.24zm3 6.51v-.34l-3.93-2.27v.34l3.94 2.32zm0 .94v-.37l-3.94-2.25v.34l3.94 2.27zm0 .92v-.34l-3.94-2.27v.34l3.94 2.28z"/>
    <path class="f" d="M505.82 92.61v.34l-3.94-2.27v-.35z"/>
    <path class="e" d="M504.11 85v1.29l-.49-.29v-1.32z"/>
    <path class="g" d="M504.92 82.83l-.37 2.4-.44-.27-.49-.28-.46-.26-.34-2.8 2.1 1.21z"/>
    <path class="f" d="M505.82 94.49v.33l-3.94-2.27v-.34zm0-.94v.34l-3.94-2.28v-.34z"/>
    <path class="c" d="M509.11 31.59c-2.8-.11-6.08.58-7.7 3.28-1 1.74-1 4.89-1.06 7.24-.17 4.24 1.52 8.67 4.15 11v1.11a3.1 3.1 0 0 0 1.83 2.5 9.71 9.71 0 0 0 8.81 0 3.14 3.14 0 0 0 1.86-2.46v-11.5c.26-5.99-3.29-10.99-7.89-11.17z"/>
    <path class="h" d="M508.26 54.67a6 6 0 0 1-3.68-1.6v1.11a3.1 3.1 0 0 0 1.83 2.5 9.72 9.72 0 0 0 8.81 0 3.14 3.14 0 0 0 1.78-2.46V43.16c-.39 5.84-4.29 11.69-8.74 11.51z"/>
    <path class="i" d="M519.78 32.83c-1.23-2.12-2-4.45-3.28-5.4a3.75 3.75 0 0 0-4-.36s-1.56-2-4.88-.33c-4.36 2.15-8.17 3.28-10.36 6.49s-1.07 8.32 3.14 9.13v-.24c0-1 0-2.24.13-3.4 8.14.17 11.79-2.54 11.79-2.54L514 42.9a1.53 1.53 0 0 1 3 .29v6.08c7-6.15 5.17-12.33 2.8-16.44z"/>
    <path class="e" d="M513 44.19a1.91 1.91 0 0 1-2.16 2.1l-1.18-.18h-.22a2.91 2.91 0 0 1-2.06-2.71v-.22a.73.73 0 0 0-.5-.68l-1-.15a.47.47 0 0 0-.52.53V43a1.91 1.91 0 0 1-2.16 2.1L502 45h-.22a2.91 2.91 0 0 1-2.06-2.71 1.91 1.91 0 0 1 2.16-2.1l1.18.17h.18a2.55 2.55 0 0 1 .8.37 5.67 5.67 0 0 0 1.34.64h.18l1.56.23a2.66 2.66 0 0 0 1.21-.1l.29-.15h.1a2 2 0 0 1 .87-.07l1.18.17h.21a2.91 2.91 0 0 1 2.02 2.69zm-10 .2c1 .15 1.53-.41 1.5-1.46a1.82 1.82 0 0 0-1.39-1.93h-.22l-.93-.13c-1-.15-1.53.29-1.5 1.35a2 2 0 0 0 1.4 2h.14l.93.13zm7.71 1.14c1 .15 1.53-.41 1.5-1.46a1.82 1.82 0 0 0-1.37-1.88h-.22l-.92-.15c-1-.14-1.53.41-1.5 1.46a1.83 1.83 0 0 0 1.37 1.89h.21l.93.13z"/>
    <path class="c" d="M531.85 131.19s-.29 3.68-.52 4.72c-.15.64-.24 1.12-.35 1.6-.16.67-.2 1 0 1.15s.64.2 1-1.16a5.89 5.89 0 0 1-1.2 2.49c-.71.79-1.75 1.6-1.46 2s1.06 0 1.06 0 .1.64 1 .12c0 0 .12.53 1.08-.16 0 0 .39.44 1.27-.47a15 15 0 0 0 4-10.81z"/>
    <path class="b" d="M530.37 105.61l1 29.77 5.84-.18s4.45-11.71 5.55-30.42"/>
    <circle class="b" cx="536.55" cy="104.8" r="6.22" transform="rotate(-1.03 536.442 104.956)"/>
    <path class="b" d="M520.92 74.31l9.69 32.44 12.14-2s.19-3 .2-6.24c0-13.59-1.91-23.81-5.61-31.06"/>
    <circle class="b" cx="529.34" cy="71.34" r="8.92" transform="rotate(-.22 528.548 71.332)"/>
    <path class="j" d="M200 323.6l1.91 1.11 1.9-1.11V251l-1.9 1.11L200 251z"/>
    <path class="k" d="M201.87 324.71l1.9-1.11V251l-1.9 1.11z"/>
    <path class="l" d="M200 251l1.91 1.11v72.55L200 323.6V251z"/>
    <path class="j" d="M165.9 303.83l1.9 1.1 1.91-1.1v-72.55l-1.91 1.1-1.9-1.1v72.55z"/>
    <path class="k" d="M167.8 304.93l1.91-1.1v-72.55l-1.91 1.1v72.55z"/>
    <path class="l" d="M165.9 231.28l1.9 1.1v72.55l-1.9-1.1z"/>
    <path class="j" d="M248.1 171.93a24.6 24.6 0 0 0-11-19.13l-14-8.08c-3-1.76-5.78-1.91-7.77-.78l-1.87 1.06c-2 1.14-3.23 3.61-3.23 7.1v125.84l1.91 1.11 1.91-1.11V174.69l30.21 17.51v105.49l1.91 1.11 1.91-1.11zM214 151a7.55 7.55 0 0 1 1.11-4.36 4 4 0 0 1 .3-.38 4.15 4.15 0 0 1 .88-.1 6.31 6.31 0 0 1 1.91.32 10.33 10.33 0 0 1 2.06.93l14 8.08a22.71 22.71 0 0 1 10 17.51v1.56L214 157.05zm0 19.22v-8.78L244.26 179v8.78z"/>
    <path class="m" d="M244.87 161a22.66 22.66 0 0 1 3.23 10.86v125.83l-1.91 1.11V173a22.66 22.66 0 0 0-3.19-10.84z"/>
    <path class="n" d="M234.26 155.57a22.72 22.72 0 0 1 10 17.45v124.67l1.91 1.11V173a24.6 24.6 0 0 0-11-19.13l-13.91-8c-3-1.76-5.78-1.91-7.77-.78s-3.23 3.61-3.23 7.1v125.75l1.91 1.11V152.16a7.55 7.55 0 0 1 1.11-4.36 3.6 3.6 0 0 1 3.07-1.57 6.31 6.31 0 0 1 1.91.32 10.33 10.33 0 0 1 2.06.93z"/>
    <path class="l" d="M212.14 158.18v2.21L244.29 179v-2.2zm0 13.19v2.2l32.15 18.63V190z"/>
    <path class="k" d="M214 161.49l-1.9-1.1v11l1.9-1.1v-8.78zm-1.9 12.08V279l1.9-1.1V174.67l-1.9-1.1zM214 151a7.55 7.55 0 0 1 1.11-4.36 4 4 0 0 1 .3-.38 4.15 4.15 0 0 1 .88-.1 3.6 3.6 0 0 0-3.07 1.57 7.55 7.55 0 0 0-1.11 4.36v6l1.91-1.09z"/>
    <path class="o" d="M254.71 212.58v-44.34a24.6 24.6 0 0 0-11-19.13l-29.07-16.89c-3-1.76-5.78-1.91-7.77-.78l-2 1.19c-2 1.14-3.23 3.61-3.23 7.1V184l51.07 29.7z"/>
    <path class="p" d="M201.65 184l51.07 29.68v-44.25a22.59 22.59 0 0 0-3.23-10.86 22.86 22.86 0 0 0-7.77-8.27l-29.07-16.89c-3-1.76-5.78-1.91-7.77-.78s-3.23 3.61-3.23 7.1z"/>
    <path class="q" d="M251.47 157.38a22.66 22.66 0 0 1 3.23 10.86v44.34l-2 1.15v-44.3a22.59 22.59 0 0 0-3.23-10.86z"/>
    <path class="o" d="M159 235c0 2.32 1.51 4.64 4.54 6.39l29.05 16.86a24.25 24.25 0 0 0 22 0L254.72 235v-2.64l-51.07-29.67-40.09 23.23c-3 1.76-4.54 4.08-4.54 6.39z"/>
    <path class="q" d="M203.65 260.93a22.35 22.35 0 0 0 11-2.64l40.1-23.29v-2.64l-40.09 23.29a22.4 22.4 0 0 1-11 2.64z"/>
    <path class="r" d="M203.65 260.93a22.36 22.36 0 0 1-11-2.64l-29.07-16.89c-3-1.76-4.54-4.08-4.54-6.39v-2.64c0 2.32 1.51 4.64 4.54 6.39l29 16.89a22.33 22.33 0 0 0 11 2.64z"/>
    <path class="s" d="M184.89 268.21c20.75-7.19 42.23-20.53 50.5-27.55 10-8.5 1.86-27.19 1.86-27.19s-10.82-34.35-60.12-7.74c-4.66 2.92-26.5 14.24-37.34 25.51-.02 0 19.8-.4 45.1 36.97z"/>
    <path class="b" d="M240.14 142.76c2.2 15.43 1.37 73.45 1.37 73.45 0 12.38-3.12 22.13-20.11 24.51a28.54 28.54 0 0 1-9.55-.58c-13.13-2.8-29.08-12.28-35.29-17.9-10.42-9.41-10-18.31-10-26.08v-56.6s0-19 16.1-25.2c12.24-4.71 31.09-.39 40.94 5.16 0 0 14.24 7.16 16.54 23.24z"/>
    <path class="a" d="M238.91 137.59a9 9 0 0 0-6.65-3.07c-9.83 0-9.16 11.12-9.16 11.12v62.44c0 24-5.45 30.68-9 32.48a26 26 0 0 0 7.27.17c17-2.38 20.11-12.13 20.11-24.51 0 0 .83-58-1.37-73.45a29.37 29.37 0 0 0-1.2-5.18z"/>
    <path class="t" d="M304.51 271.63L104.84 157.88 0 217.55 199.66 331.3z"/>
    <path class="u" d="M202.65 211.26l-13.11 6.29a2.19 2.19 0 0 0-.6 3.53l1 1a5.78 5.78 0 0 0 7 .88l13.32-7.89z"/>
    <path class="c" d="M201.93 207.86s-4.72 2.74-6.18 3.35l-2.25.92c-1 .37-1.37.6-1.38 1s.27.9 2.22.19a8.72 8.72 0 0 1-4 .64c-1.55-.19-3.42-.78-3.67-.08s.91 1.27.91 1.27-.72.69.74 1.38c0 0-.55.6 1.11 1.18 0 0-.2.85 1.64 1.14s8.73 1.14 16.51-4.35z"/>
    <path class="b" d="M231.77 184.48l-35.33 26.34 5.14 6.93s18-4.45 41.64-18.92"/>
    <ellipse class="b" cx="237.95" cy="191.25" rx="9.2" ry="9.19" transform="rotate(-35.82 237.949 191.247)"/>
    <path class="b" d="M214.86 146.2l14.34 47.92 18-3s.29-4.45.29-9.22c0-20.1-2.86-35.21-8.27-45.92"/>
    <circle class="b" cx="227.31" cy="141.83" r="13.19" transform="rotate(-.22 226.308 141.07)"/>
    <path class="v" d="M208.65 84.48s9.86-10.18 13.68 3.29c0 0 2.12 5.83.11 11.24s-5.52 8.59-1 12.4c0 0-12.41-3.18-13.68-19.61.04-.01-.7-5.8.89-7.32z"/>
    <path class="w" d="M183.35 95a21.32 21.32 0 0 0 .59 7.68c1.32 4.93-2.12 4.5-2.12 4.5s4.45.43 3.29-3.39a6.61 6.61 0 0 1 .21-5s-.48-3.71-1.97-3.79z"/>
    <path class="c" d="M197.33 83.27c-4.14-.17-9 .86-11.38 4.85-1.54 2.54-1.43 7.23-1.57 10.7-.25 6.26 2.25 12.82 6.13 16.23v1.63c0 1.34.94 2.67 2.72 3.7a14.36 14.36 0 0 0 13 0c1.73-1 2.62-2.31 2.67-3.63v-16.37a3.61 3.61 0 0 1 0-.59c.45-8.85-4.78-16.25-11.57-16.52z"/>
    <path class="h" d="M196 117.4a8.82 8.82 0 0 1-5.45-2.36v1.63c0 1.34.94 2.67 2.72 3.7a14.36 14.36 0 0 0 13 0c1.73-1 2.62-2.31 2.67-3.63v-16.36c-.57 8.62-6.34 17.31-12.94 17.02z"/>
    <path class="w" d="M205.26 100c.24-1.09.45-1.91 1.6-1.82a2.26 2.26 0 0 1 2.07 2.22 16.26 16.26 0 0 1-1.48 6.65l1.48 5.33c13.62-17.38 2.67-32.67 2.67-32.67-3.37-4.41-9-3.28-9-3.28-5.5-2.07-14.53-2.54-18.61 5.3 0 0-3.82 5-1.39 13.36l1.74 5.79a17.13 17.13 0 0 1 0-2.06c.06-1.42.07-3 .17-4.63 14.34 0 17.3-5 17.3-5s-.32 5.33 1 7.72c0 0-.16 3.64.8 5.68 0 0 1.43 3.82-.32 5.13 0 0 2.55-.9 1.75-4.29a14.23 14.23 0 0 1 .22-3.43z"/>
    <path class="x" d="M222.33 87.76c-2.21-7.78-6.43-7.63-9.6-6.18a26.92 26.92 0 0 1 .38 24.13 18.21 18.21 0 0 0 8.38 5.69c-4.56-3.82-1.06-7 1-12.4s-.16-11.24-.16-11.24z"/>
    <path class="a" d="M69.81 225.25l58.67 34.11a3.64 3.64 0 0 0 3.3 0l36.41-21.17a1 1 0 0 0 0-1.91l-58.67-34.1a3.64 3.64 0 0 0-3.3 0l-36.41 21.15a1 1 0 0 0 0 1.91z"/>
    <path class="y" d="M86.39 213.73a1.16 1.16 0 0 0 .68 1L146.19 249a3.64 3.64 0 0 0 3.3 0l36.41-21.17a1.16 1.16 0 0 0 .68-1v-1.32a1.16 1.16 0 0 0-.68-1l-59.11-34.35a3.65 3.65 0 0 0-3.3 0l-36.41 21.18a1.16 1.16 0 0 0-.68 1z"/>
    <path class="z" d="M147.84 249.44a3.37 3.37 0 0 1-1.65-.39L87.07 214.7a1.16 1.16 0 0 1-.68-1v-1.28a1.16 1.16 0 0 0 .68 1l59.12 34.35a3.37 3.37 0 0 0 1.65.39zM147.84 249.44a3.37 3.37 0 0 0 1.65-.39l36.41-21.17a1.16 1.16 0 0 0 .68-1v-1.32a1.16 1.16 0 0 1-.68 1l-36.41 21.17a3.37 3.37 0 0 1-1.65.39"/>
    <path class="aa" d="M145 204.14a2.43 2.43 0 0 1 2.2 0l14.8 8.61a.68.68 0 0 1 0 1.27l-8.52 4.98a2.43 2.43 0 0 1-2.2 0l-14.81-8.61a.68.68 0 0 1 0-1.27zm25.31 27.4a.25.25 0 0 1 0 .47l-21.64 12.56a.89.89 0 0 1-.81 0l-55.74-32.18a.25.25 0 0 1 0-.47l21.64-12.56a.89.89 0 0 1 .81 0z"/>
    <path class="ab" d="M141.84 233.68a.25.25 0 0 1 0 .46l-1.95 1.13a.89.89 0 0 1-.8 0l-2.46-1.4a.24.24 0 0 1 0-.46l2-1.13a.88.88 0 0 1 .81 0zm-4.07 1.92a.25.25 0 0 1 0 .46l-1 .59a.88.88 0 0 1-.8 0l-2.64-1.53a.24.24 0 0 1 0-.46l1-.59a.88.88 0 0 1 .8 0zm-3.95-2.28c.22.13.23.34 0 .46l-1 .59a.88.88 0 0 1-.81 0l-2.63-1.52c-.23-.13-.23-.34 0-.46l1-.59a.88.88 0 0 1 .81 0zm-7.88-4.54c.22.13.23.34 0 .46l-1 .59a.89.89 0 0 1-.81 0l-2.63-1.52c-.23-.13-.23-.34 0-.46l1-.59a.88.88 0 0 1 .81 0zm-22.28-17.13a.25.25 0 0 1 0 .47l-1.95 1.13a.88.88 0 0 1-.81 0l-4.26-2.46a.24.24 0 0 1 0-.46l1.95-1.13a.88.88 0 0 1 .81 0zm-5.3 1.21a.24.24 0 0 1 0 .46l-1 .59a.88.88 0 0 1-.8 0l-2.64-1.53a.24.24 0 0 1 0-.46l1-.59a.88.88 0 0 1 .8 0zm14.9 0a.25.25 0 0 1 0 .47l-2 1.14a.88.88 0 0 1-.81 0L108 213c-.22-.13-.23-.34 0-.46l2-1.13a.9.9 0 0 1 .81 0zm-3.85-2.2a.25.25 0 0 1 0 .46l-2 1.13a.88.88 0 0 1-.8 0l-2.35-1.4c-.22-.13-.23-.34 0-.46l2-1.13a.9.9 0 0 1 .81 0zm-2 3.18a.25.25 0 0 1 0 .47l-2 1.13a.88.88 0 0 1-.81 0l-2.4-1.4a.25.25 0 0 1 0-.47l1.95-1.13a.89.89 0 0 1 .81 0zm-5.15 1.31a.24.24 0 0 1 0 .46l-1 .59a.88.88 0 0 1-.8 0l-2.64-1.53a.25.25 0 0 1 0-.46l1-.59a.88.88 0 0 1 .8 0zm31.93 14.14a.25.25 0 0 1 0 .47l-1.93 1.13a.89.89 0 0 1-.81 0l-2.45-1.43c-.23-.13-.23-.34 0-.47l1.95-1.13a.88.88 0 0 1 .81 0zm-7.65-4.42c.23.13.23.34 0 .47l-1.95 1.13a.88.88 0 0 1-.81 0l-2.43-1.47a.25.25 0 0 1 0-.47l1.95-1.13a.89.89 0 0 1 .81 0zm17.28 5.64a.25.25 0 0 1 0 .47l-2 1.14a.89.89 0 0 1-.81 0l-2.43-1.41c-.22-.13-.23-.34 0-.46l2-1.13a.9.9 0 0 1 .81 0zm-3.34-10.57a.24.24 0 0 1 0 .46l-1.95 1.14a.88.88 0 0 1-.8 0l-2.47-1.43a.24.24 0 0 1 0-.46l2-1.14a.89.89 0 0 1 .8 0zm-3.86-2.2c.23.13.22.34 0 .46l-1.91 1.14a.88.88 0 0 1-.81 0l-2.43-1.41a.24.24 0 0 1 0-.46l2-1.17a.88.88 0 0 1 .8 0zm31.73 13.82a.25.25 0 0 1 0 .47l-2 1.13a.88.88 0 0 1-.81 0l-2.43-1.41a.25.25 0 0 1 0-.47l2-1.13a.9.9 0 0 1 .81 0zm-3.83-2.23a.24.24 0 0 1 0 .46l-2 1.13a.88.88 0 0 1-.81 0l-2.43-1.41a.25.25 0 0 1 0-.47l2-1.13a.89.89 0 0 1 .81 0zm-3.83-2.22a.25.25 0 0 1 0 .46l-2 1.14a.89.89 0 0 1-.81 0l-2.44-1.41a.25.25 0 0 1 0-.46l2-1.13a.88.88 0 0 1 .81 0zm-3.82-2.19a.25.25 0 0 1 0 .47l-2 1.14a.89.89 0 0 1-.81 0l-3.15-1.82a.25.25 0 0 1 0-.47l2-1.13a.89.89 0 0 1 .81 0zm-31.7-13.81a.25.25 0 0 1 0 .46l-2 1.14a.88.88 0 0 1-.8 0l-2.43-1.41c-.22-.13-.23-.34 0-.46l2-1.14a.89.89 0 0 1 .81 0zm-.72-4.9a.25.25 0 0 1 0 .47l-.64.37a.89.89 0 0 1-.81 0l-2.44-1.41a.25.25 0 0 1 0-.46l.64-.37a.89.89 0 0 1 .81 0zm3.87 2.23a.25.25 0 0 1 0 .47l-2 1.13a.9.9 0 0 1-.81 0l-2.43-1.38a.25.25 0 0 1 0-.47l2-1.13a.89.89 0 0 1 .81 0zm4.49 2.6a.25.25 0 0 1 0 .47l-2 1.13a.9.9 0 0 1-.81 0l-3.18-1.82a.25.25 0 0 1 0-.47l2-1.13a.89.89 0 0 1 .81 0zm19.52 11.26a.25.25 0 0 1 0 .47l-2 1.16a.89.89 0 0 1-.81 0l-18.24-10.56a.25.25 0 0 1 0-.47l2-1.14a.9.9 0 0 1 .81 0zm-8.07-.15a.25.25 0 0 1 0 .46l-2 1.14a.89.89 0 0 1-.81 0l-2.45-1.43c-.22-.13-.23-.34 0-.46l2-1.13a.89.89 0 0 1 .81 0zm-11.45-6.62a.24.24 0 0 1 0 .46l-1.91 1.14a.88.88 0 0 1-.81 0l-2.44-1.41a.24.24 0 0 1 0-.46l2-1.14a.88.88 0 0 1 .8 0zM129 213.3a.25.25 0 0 1 0 .46l-1.91 1.14a.89.89 0 0 1-.81 0l-2.44-1.41c-.22-.13-.23-.34 0-.46l2-1.14a.9.9 0 0 1 .81 0zm-9.25-8.15l-.91.53a.9.9 0 0 1-.81 0l-2.43-1.41a.25.25 0 0 1 0-.47l.91-.53zm1.61 3.74c.23.13.22.34 0 .46l-2 1.14a.88.88 0 0 1-.81 0l-2.43-1.41a.24.24 0 0 1 0-.46l2-1.14a.89.89 0 0 1 .8 0zm-3.9-2.25a.25.25 0 0 1 0 .46l-2 1.14a.88.88 0 0 1-.8 0l-6.84-3.95a.24.24 0 0 1 0-.46l2-1.14a.88.88 0 0 1 .8 0zm-11.87 1.79a.25.25 0 0 1 0 .46l-2 1.13a.88.88 0 0 1-.8 0l-2.44-1.38a.24.24 0 0 1 0-.46l2-1.14a.89.89 0 0 1 .81 0zm10.1 1.57c.22.13.23.34 0 .46l-2 1.14a.89.89 0 0 1-.81 0l-2.4-1.41a.25.25 0 0 1 0-.47l2-1.14a.88.88 0 0 1 .81 0zm3.83 2.2c.23.13.23.34 0 .46l-1.95 1.11a.89.89 0 0 1-.81 0l-2.41-1.38a.25.25 0 0 1 0-.46l2-1.13a.88.88 0 0 1 .8 0zm3.83 2.21a.24.24 0 0 1 0 .46l-2 1.14a.89.89 0 0 1-.81 0l-2.42-1.41a.25.25 0 0 1 0-.47l2-1.14a.88.88 0 0 1 .81 0zM111.26 216a.24.24 0 0 1 0 .46l-2 1.14a.88.88 0 0 1-.81 0l-2.37-1.41a.25.25 0 0 1 0-.47l1.95-1.13a.89.89 0 0 1 .81 0zm-5 1.38a.25.25 0 0 1 0 .46l-1 .59a.88.88 0 0 1-.8 0l-2.64-1.53c-.22-.13-.23-.34 0-.46l1-.59a.88.88 0 0 1 .81 0zm3.92 2.28a.25.25 0 0 1 0 .46l-1 .59a.88.88 0 0 1-.8 0l-2.64-1.53c-.22-.13-.23-.34 0-.46l1-.55a.89.89 0 0 1 .81 0zm8.71.76a.25.25 0 0 1 0 .47l-1.95 1.11a.89.89 0 0 1-.81 0l-2.42-1.41a.25.25 0 0 1 0-.47l1.95-1.12a.89.89 0 0 1 .81 0zm15.93.58c.22.13.23.34 0 .46l-2 1.13a.9.9 0 0 1-.81 0l-2.43-1.4a.25.25 0 0 1 0-.47l2-1.14a.88.88 0 0 1 .81 0zm-20.7.93c.22.13.23.34 0 .46l-1 .59a.89.89 0 0 1-.81 0l-2.63-1.52c-.22-.13-.23-.34 0-.46l1-.59a.89.89 0 0 1 .81 0zm24.52 1.25a.25.25 0 0 1 0 .46l-2 1.13a.88.88 0 0 1-.81 0l-2.44-1.41a.25.25 0 0 1 0-.46l2-1.13a.88.88 0 0 1 .8 0zm-20.57 1a.25.25 0 0 1 0 .46l-1 .59a.88.88 0 0 1-.8 0l-2.64-1.53c-.22-.13-.23-.34 0-.46l1-.59a.88.88 0 0 1 .81 0zm14.28-.36a.25.25 0 0 1 0 .47l-2 1.14a.88.88 0 0 1-.81 0l-2.43-1.41c-.22-.13-.23-.34 0-.46l2-1.14a.9.9 0 0 1 .81 0zm10.12 1.53a.24.24 0 0 1 0 .46l-2 1.13a.88.88 0 0 1-.81 0l-2.44-1.4a.25.25 0 0 1 0-.47l2-1.13a.88.88 0 0 1 .81 0zM122 226.5c.22.13.23.34 0 .46l-1 .59a.88.88 0 0 1-.81 0l-2.66-1.55c-.22-.13-.23-.34 0-.46l1-.59a.88.88 0 0 1 .81 0zm14.19-.42a.24.24 0 0 1 0 .46l-2 1.14a.88.88 0 0 1-.8 0l-2.44-1.41a.24.24 0 0 1 0-.46l2-1.14a.88.88 0 0 1 .81 0zm15.77.46a.24.24 0 0 1 0 .46l-2 1.14a.88.88 0 0 1-.81 0l-2.44-1.41c-.22-.13-.23-.34 0-.46l2-1.14a.89.89 0 0 1 .81 0zm-5.69 1.07c.22.13.23.34 0 .46l-2 1.13a.89.89 0 0 1-.81 0l-2.46-1.4a.25.25 0 0 1 0-.47l2-1.13a.88.88 0 0 1 .81 0zm-6.26.68a.24.24 0 0 1 0 .46l-2 1.14a.88.88 0 0 1-.8 0l-2.43-1.41c-.22-.13-.23-.34 0-.46l2-1.14a.9.9 0 0 1 .81 0zm15.78.47a.25.25 0 0 1 0 .46l-2 1.14a.88.88 0 0 1-.81 0l-2.37-1.41c-.22-.13-.23-.34 0-.46l1.91-1.14a.89.89 0 0 1 .81 0zm-5.67 1c.22.13.23.34 0 .46l-2 1.13a.89.89 0 0 1-.81 0l-2.46-1.4a.25.25 0 0 1 0-.47l2-1.13a.88.88 0 0 1 .81 0zM129.88 231c.22.13.23.34 0 .46l-1 .59a.89.89 0 0 1-.81 0l-2.64-1.52a.25.25 0 0 1 0-.46l1-.59a.88.88 0 0 1 .8 0zm21.6 3.89a.25.25 0 0 1 0 .47l-2 1.13a.88.88 0 0 1-.81 0l-2.41-1.4c-.22-.13-.23-.34 0-.46l2-1.13a.9.9 0 0 1 .81 0zm-5.82 1a.25.25 0 0 1 0 .47l-1.95 1.13a.89.89 0 0 1-.81 0l-2.46-1.41a.24.24 0 0 1 0-.46l1.95-1.13a.88.88 0 0 1 .81 0zm15.08.06c.23.13.23.34 0 .46l-2 1.14a.89.89 0 0 1-.81 0l-5.38-3.1a.25.25 0 0 1 0-.46l2-1.13a.88.88 0 0 1 .8 0zm-3.74 2.16a.25.25 0 0 1 0 .47l-1.91 1.13a.88.88 0 0 1-.81 0l-4.19-2.42a.24.24 0 0 1 0-.46l2-1.13a.88.88 0 0 1 .81 0zm-7.51 0a.24.24 0 0 1 0 .46l-1.95 1.13a.88.88 0 0 1-.81 0l-2.46-1.4a.25.25 0 0 1 0-.47l1.95-1.13a.88.88 0 0 1 .81 0zm-3.84 2c.23.13.23.34 0 .46l-1 .59a.88.88 0 0 1-.81 0l-2.63-1.52c-.22-.13-.23-.34 0-.46l1-.59a.88.88 0 0 1 .81 0zm7.62.14c.23.13.23.34 0 .47l-1.95 1.13a.88.88 0 0 1-.81 0l-2.44-1.43a.25.25 0 0 1 0-.47l1.95-1.13a.88.88 0 0 1 .81 0zm-3.67 2.14c.23.13.23.34 0 .46l-1 .59a.88.88 0 0 1-.81 0l-2.63-1.52c-.22-.13-.23-.34 0-.46l1-.59a.88.88 0 0 1 .81 0zm-32.7-40.55a.25.25 0 0 1 0 .46l-.64.37a.88.88 0 0 1-.81 0l-2.45-1.41a.25.25 0 0 1 0-.46l.64-.37a.88.88 0 0 1 .81 0z"/>
    <path class="ab" d="M120.78 204.07a.25.25 0 0 1 0 .47l-1 .64-3.25-1.88 1-.64a.89.89 0 0 1 .81 0zm-8.94 3.66a.24.24 0 0 1 0 .46l-1.95 1.13a.9.9 0 0 1-.81 0l-5-2.87a.25.25 0 0 1 0-.46l2-1.16a.88.88 0 0 1 .8 0zm5.22 7.29a.25.25 0 0 1 0 .47l-2 1.13a.88.88 0 0 1-.81 0l-2.43-1.41c-.22-.13-.23-.34 0-.46l2-1.14a.9.9 0 0 1 .81 0zm10.11 1.56c.22.13.23.34 0 .46l-1.91 1.15a.9.9 0 0 1-.81 0l-2.45-1.41a.25.25 0 0 1 0-.47l2-1.14a.88.88 0 0 1 .81 0zm-6.29.68a.25.25 0 0 1 0 .46l-2 1.14a.88.88 0 0 1-.8 0l-2.44-1.41c-.22-.13-.23-.34 0-.46l2-1.14a.9.9 0 0 1 .81 0zm-5.82 1a.24.24 0 0 1 0 .46l-1.95 1.13a.88.88 0 0 1-.81 0l-2.41-1.4a.24.24 0 0 1 0-.46l1.95-1.13a.88.88 0 0 1 .81 0zm15.93.55c.22.13.23.34 0 .46l-2 1.14a.9.9 0 0 1-.81 0l-2.37-1.41a.25.25 0 0 1 0-.47l2-1.13a.88.88 0 0 1 .81 0zm-6.29.68a.25.25 0 0 1 0 .47l-2 1.14a.88.88 0 0 1-.81 0l-2.43-1.41c-.22-.13-.23-.34 0-.46l2-1.14a.9.9 0 0 1 .81 0zm3.83 2.21a.25.25 0 0 1 0 .47l-2 1.14a.88.88 0 0 1-.81 0l-2.43-1.41c-.22-.13-.23-.34 0-.46l2-1.14a.9.9 0 0 1 .81 0zm-5.82 1a.25.25 0 0 1 0 .47l-1.95 1.13a.89.89 0 0 1-.81 0l-2.42-1.4a.25.25 0 0 1 0-.47l1.91-1.13a.89.89 0 0 1 .81 0zm25.41 1.7a.24.24 0 0 1 0 .46l-2 1.14a.89.89 0 0 1-.81 0l-2.42-1.39a.24.24 0 0 1 0-.46l2-1.14a.88.88 0 0 1 .8 0zm-17.76 2.75a.25.25 0 0 1 0 .46l-1.95 1.13a.88.88 0 0 1-.81 0l-2.44-1.43c-.23-.13-.23-.34 0-.47l1.95-1.13a.88.88 0 0 1 .81 0zM154 232c.22.13.23.34 0 .46l-2 1.13a.89.89 0 0 1-.81 0l-2.44-1.41a.25.25 0 0 1 0-.47l2-1.14a.89.89 0 0 1 .81 0zm-6.3.68a.25.25 0 0 1 0 .47l-2 1.13a.88.88 0 0 1-.81 0l-2.44-1.41a.25.25 0 0 1 0-.46l2-1.13a.88.88 0 0 1 .81 0zm16.83 1.07c.23.13.22.34 0 .46l-2 1.13a.88.88 0 0 1-.81 0l-7.27-4.19c-.22-.13-.23-.34 0-.46l2-1.14a.89.89 0 0 1 .81 0zm-22.77 4.13a.25.25 0 0 1 0 .46l-1 .59a.88.88 0 0 1-.8 0l-2.65-1.55a.24.24 0 0 1 0-.46l1-.59a.88.88 0 0 1 .8 0zm-3.7-6.43a.25.25 0 0 1 0 .47l-1.95 1.13a.89.89 0 0 1-.81 0l-2.45-1.41a.25.25 0 0 1 0-.47l1.95-1.13a.88.88 0 0 1 .81 0z"/>
    <path class="aa" d="M152.18 205.09a.34.34 0 0 0 0 .64l7 4.1a1.23 1.23 0 0 0 1.1 0h.05l-8.07-4.74z"/>
    <path class="ac" d="M154.81 245.06l-1.78 1v.48l1.78-1zm-2.14 1.23l-1.24.72v.49l1.24-.72zm-1.61.93l-1.24.73v.48l1.24-.72v-.49z"/>
    <path class="y" d="M146.07 248.08c-.2.1-.58 0-1.11-.3L87 214.07a11.27 11.27 0 0 1-3.47-3.49L69 185.33c-.35-.64-.42-1-.25-1.18l.64-.38c.17-.17.58-.1 1.18.25l58 33.71a11.24 11.24 0 0 1 3.47 3.49l14.46 25.24c.35.64.41 1 .25 1.18z"/>
    <path class="ad" d="M87 214a11.27 11.27 0 0 1-3.47-3.49L69 185.28c-.35-.64-.42-1-.25-1.18s.58-.1 1.18.25l58 33.71a11.29 11.29 0 0 1 3.47 3.49l14.44 25.23c.35.64.42 1 .25 1.18s-.58.1-1.18-.25z"/>
    <path class="z" d="M130.55 219.27a10 10 0 0 1 1.54 1.91l14.46 25.24c.35.64.41 1 .25 1.18l-.73.43h.06c.17-.17.1-.58-.25-1.18l-14.46-25.25a10 10 0 0 0-1.54-1.91z"/>
    <path class="b" d="M128.62 217.72a11.24 11.24 0 0 1 3.47 3.49l-.64.38a11.29 11.29 0 0 0-3.45-3.49z"/>
    <path class="u" d="M133.1 193.94l-7.17 3.94c-1.37.64-3 2.41-1.91 3.48.57.57 1.32.34 2.09.13 4.12-1.16 3.54-1.18 9.58-1.53l5.18-1.56z"/>
    <path class="b" d="M170.2 125.57c-5.13 10.88-7.45 28.33-8.27 43.48l14.88 1.58L191 134"/>
    <path class="c" d="M142.79 187.19s-4.61 2.92-5.81 3.94c-.77.64-1.27 1.08-1.86 1.56-.76.67-1.17.94-1.53.76s-.67-.64.85-2.06a8.7 8.7 0 0 0-2.44 3.29c-.55 1.47-.88 3.39-1.62 3.29s-.71-1.41-.71-1.41-.94.32-.88-1.27c0 0-.78.21-.53-1.53 0 0-.85-.21-.26-2s3-8.27 11.45-12.64z"/>
    <path class="b" d="M166.44 162.32c-24.34 10.62-29.75 18-29.75 18l3.82 8.14 30.93-12"/>
    <circle class="b" cx="169.42" cy="169.21" r="7.49" transform="rotate(-26.78 169.432 169.216)"/>
    <ellipse class="b" cx="180.3" cy="130.54" rx="11.26" ry="11.25"/>
    <path class="e" d="M395.52 266.57l-2.16-1.27a3.24 3.24 0 0 0-1.65.38l-57.13 33.18C324 305 310.2 308 296.33 308s-27.74-3-38.33-9.16l-84.27-48.59a3.47 3.47 0 0 0-3.18 0 1 1 0 0 0 0 1.83l84.26 48.63c11.47 6.63 26.47 10 41.47 10s30-3.31 41.4-9.94l57.13-33.18a1.08 1.08 0 0 0 .64-1M404 260.13a2.41 2.41 0 0 0-1.38-.26L389.55 261c-1.27.11-1.81 1-.88 1.57l4.69 2.7 2.16 1.27 4.24 2.44c.93.53 2.55.24 2.72-.52l2-7.58a.74.74 0 0 0-.46-.8"/>
    <path class="u" d="M154.57 185.79l-20.69 8.6 8.27 4.81 19.21-9.48-6.79-3.93z"/>
    <path class="b" d="M102 160.79A31.81 31.81 0 1 0 54.71 133s-1.27 38.28 47.94 37.81c0 0-3.82-1.86-3.51-5.72a5.46 5.46 0 0 1 2.86-4.29z"/>
    <path class="ae" d="M102.51 132h-3.43a1.18 1.18 0 0 0 0 2.35h3.42a1.18 1.18 0 0 0 0-2.35zM74 132h-3.46a1.18 1.18 0 0 0 0 2.35H74a1.18 1.18 0 0 0 0-2.35zm12.56-10.21a1.18 1.18 0 0 0 1.17-1.18v-3.42a1.18 1.18 0 0 0-2.35 0v3.42a1.17 1.17 0 0 0 1.16 1.18zm12.09-.79a1.17 1.17 0 0 0-1.65 0l-2.42 2.42a1.17 1.17 0 0 0 1.66 1.66l2.42-2.42a1.18 1.18 0 0 0-.01-1.66zm-20.18 2.39L76.05 121a1.18 1.18 0 0 0-1.66 1.66l2.42 2.42a1.18 1.18 0 1 0 1.66-1.66zm8 1.28A8.41 8.41 0 0 0 81.63 140v2.93a1.57 1.57 0 0 0 1.57 1.56h6.66a1.57 1.57 0 0 0 1.57-1.56V140a8.41 8.41 0 0 0-4.89-15.27zm0 24.68a2.94 2.94 0 0 0 2.94-2.89h-5.82a2.94 2.94 0 0 0 2.93 2.91z"/>
    <path class="a" d="M52.26 215.71a13.83 13.83 0 0 0-6.82 1.62c-1.63.95-2.55 2.16-2.55 3.4s.9 2.46 2.55 3.4a15.18 15.18 0 0 0 13.66 0c1.63-.95 2.55-2.16 2.55-3.4s-.9-2.45-2.55-3.4a13.83 13.83 0 0 0-6.83-1.62"/>
    <path class="b" d="M43.08 211.64l2.29 9.24a3.89 3.89 0 0 0 2 2.27 11 11 0 0 0 9.95 0 3.89 3.89 0 0 0 2-2.27l2.28-9.24c.47-1.67-.39-3.45-2.6-4.73a14.63 14.63 0 0 0-13.26 0c-2.21 1.27-3.07 3.06-2.6 4.73z"/>
    <path class="f" d="M43.08 211.64a5.24 5.24 0 0 0 2.6 3 14.64 14.64 0 0 0 13.26 0 5.24 5.24 0 0 0 2.59-3l-2.3 9.24a3.89 3.89 0 0 1-2 2.27 11 11 0 0 1-9.95 0 3.89 3.89 0 0 1-2-2.27L43 211.64z"/>
    <path class="af" d="M52.26 206.2a12.52 12.52 0 0 0-6.18 1.47c-1.48.86-2.29 2-2.29 3.08s.81 2.22 2.29 3.08a13.75 13.75 0 0 0 12.36 0c1.48-.86 2.29-2 2.29-3.08s-.81-2.22-2.29-3.08a12.52 12.52 0 0 0-6.19-1.47"/>
    <path class="af" d="M52.26 206.2a12.52 12.52 0 0 0-6.18 1.47c-1.48.86-2.29 2-2.29 3.08s.81 2.22 2.29 3.08a13.75 13.75 0 0 0 12.36 0c1.48-.86 2.29-2 2.29-3.08s-.81-2.22-2.29-3.08a12.52 12.52 0 0 0-6.19-1.47"/>
    <path class="ae" d="M58.47 209.7a12.53 12.53 0 0 0-6.19-1.47 12.52 12.52 0 0 0-6.18 1.47 4.77 4.77 0 0 0-2.1 2.07 2.54 2.54 0 0 1-.23-1c0-1.13.81-2.22 2.29-3.08a12.52 12.52 0 0 1 6.18-1.47 12.52 12.52 0 0 1 6.19 1.47c1.48.86 2.29 2 2.29 3.08a2.5 2.5 0 0 1-.23 1 4.77 4.77 0 0 0-2.02-2.07z"/>
    <path class="ag" d="M58.47 209.7a12.53 12.53 0 0 0-6.19-1.47 12.52 12.52 0 0 0-6.18 1.47 4.77 4.77 0 0 0-2.1 2.07 2.54 2.54 0 0 1-.23-1c0-1.13.81-2.22 2.29-3.08a12.52 12.52 0 0 1 6.18-1.47 12.52 12.52 0 0 1 6.19 1.47c1.48.86 2.29 2 2.29 3.08a2.5 2.5 0 0 1-.23 1 4.77 4.77 0 0 0-2.02-2.07z"/>
    <path class="ah" d="M50.19 210.52a3.51 3.51 0 0 0 3.18 0 1.11 1.11 0 0 0 .64-.91c0-2.1-.07-11.32-.83-17.56-.17-1.35-.77-5.72-1.61-5.23-1.12.64-2.06 12.64-2.06 22.8a1.14 1.14 0 0 0 .68.93"/>
    <path class="ai" d="M53.1 212.65a3.51 3.51 0 0 0 3.18 0 1.11 1.11 0 0 0 .64-.91c0-2.1-.07-11.32-.83-17.56-.17-1.35-.77-5.72-1.61-5.23-1.12.64-2.06 12.64-2.06 22.8a1.14 1.14 0 0 0 .68.93"/>
    <path class="aj" d="M47.83 212a2.16 2.16 0 0 0 2 0 .69.69 0 0 0 .39-.56 97.09 97.09 0 0 0-.51-10.81c-.1-.83-.47-3.52-1-3.22-.69.41-1.27 7.77-1.27 14a.7.7 0 0 0 .42.57"/>
    <path class="a" d="M194 242.12h2.37c.59-2.24 3.89-3.95 7.88-3.95 4.4 0 8 2.09 8 4.67s-3.58 4.67-8 4.67c-4 0-7.31-1.73-7.88-4H194a.71.71 0 0 1 0-1.41z"/>
    <path class="f" d="M204.21 229.64c4.4 0 8 2.09 8 4.67a2.83 2.83 0 0 1-.13.83l-1.23 7.63c0 2.14-3 3.87-6.61 3.87s-6.61-1.74-6.61-3.87l-1.23-7.63a2.82 2.82 0 0 1-.13-.83c-.01-2.57 3.53-4.67 7.94-4.67z"/>
    <ellipse class="ag" cx="204.21" cy="234.32" rx="7.98" ry="4.67"/>
    <path class="ak" d="M204.21 233.74c3.06 0 5.44 1 6.52 2.22-1.08 1.21-3.46 2.22-6.52 2.22s-5.45-1-6.49-2.19c1.04-1.23 3.42-2.25 6.49-2.25z"/>
    <path class="f" d="M196.17 236s-2.1-.22-2.78 1.39 1 4.71 4.65 6.53c0 0 1-.38.64-.85s-3.73-2.11-3.87-4.18 2.09-1.43 2.49-.92a1.43 1.43 0 0 0-1.13-2z"/>
    <path class="b" d="M204.21 230.61c4.2 0 7 1.91 7 3.71 0 2-3.22 3.71-7 3.71s-7-1.7-7-3.71c0-1.79 2.79-3.71 7-3.71zm0-1c-4.41 0-8 2.09-8 4.67s3.58 4.67 8 4.67 8-2.09 8-4.67-3.58-4.69-8-4.69z"/>
    <path class="a" d="M447 240.38c9.5 5.52 11.17 13.58 3.72 17.91s-21.32 3.36-30.82-2.16-11.17-13.58-3.72-17.91 21.33-3.36 30.82 2.16z"/>
    <path class="b" d="M410.1 108.93c-3.47 7.35-5 19.16-5.61 29.4l10.07 1.07 9.62-24.81"/>
    <path class="c" d="M412.33 160s.36 3.67.64 4.71c.16.64.25 1.11.38 1.6s.22 1 0 1.16-.6.21-1-1.14a5.9 5.9 0 0 0 1.27 2.47c.72.78 1.78 1.56 1.5 2s-1.06 0-1.06 0-.09.64-1 .14c0 0-.11.53-1.08-.14 0 0-.38.45-1.27-.45a15.07 15.07 0 0 1-4.14-10.77z"/>
    <path class="b" d="M404.53 138.14c-1 17.92 1.79 23.43 1.79 23.43l6.08.17 2.18-22.33"/>
    <circle class="b" cx="409.57" cy="138.44" r="5.07"/>
    <circle class="b" cx="416.94" cy="112.3" r="7.61"/>
    <path class="al" d="M442.26 250.24c2.07-2.07 4.57-2.92 5.59-1.91s.17 3.52-1.91 5.59a12.46 12.46 0 0 1-2.82 2.33 2.3 2.3 0 0 1-2.77-.43c-.64-.64-.57-3.12-.57-3.75.35-.63 1.66-1.05 2.48-1.83z"/>
    <path class="c" d="M442.26 250.2c1.35-1.27 3-1.79 3.59-1.12s.06 2.25-1.27 3.53"/>
    <path class="al" d="M425.09 240.39c2.07-2.07 4.57-2.92 5.59-1.91s.17 3.52-1.91 5.59a12.46 12.46 0 0 1-2.77 2.33 2.3 2.3 0 0 1-2.77-.43c-.64-.64-.57-3.12-.57-3.75.38-.62 1.65-1 2.48-1.83z"/>
    <path class="c" d="M425.13 240.17c1.35-1.27 3-1.79 3.59-1.12s.06 2.25-1.27 3.53a5.59 5.59 0 0 1-2.55 1.55"/>
    <path class="c" d="M454.71 155.47l-42.51 1.45 8.32 52.69 2.3 32.41c0 1.11.78 2.7 2.44 2 2.42-1 2.39-2 2.55-2.86 0 0 3-19.77 4.5-32.86a190.12 190.12 0 0 0 1-20.7l4.59 28.51 1.91 35.36v.11c0 1.1.64 2.6 2.55 2.12 2.37-.59 2.63-1.64 2.7-2.68.24-1.2 5.43-26.39 6.71-37.15 1.39-11 4.59-54.94 2.94-58.4z"/>
    <path class="s" d="M439.9 210.2a14.06 14.06 0 0 0 5.36.35c5.51-.77 11.3-6.75 11.3-6.75v-42.72q-.26-2.77-.74-5.52c-1.06-5.22-3-8.32-7.39-11.78a14.51 14.51 0 0 0-1.91-1.27c-5.54-3.12-16.12-5.55-23-2.9-9 3.48-9 14.18-9 14.15v40.61a92.14 92.14 0 0 0 11.06 8.43 85.35 85.35 0 0 0 14.32 7.4z"/>
    <path class="b" d="M458.11 119c1.49 10.44.92 49.68.92 49.68 0 8.38-2.11 15-13.6 16.58a19.3 19.3 0 0 1-6.47-.39c-8.91-1.91-19.66-8.31-23.87-12.09-7-6.36-6.76-12.38-6.76-17.62v-38.3s0-12.86 10.89-17c8.27-3.18 21-.27 27.69 3.49 0 0 9.65 4.78 11.2 15.65z"/>
    <path class="a" d="M457.26 115.52a6.12 6.12 0 0 0-4.45-2.07c-6.64 0-6.19 7.52-6.19 7.52v42.23c0 16.24-3.68 20.75-6.08 22a17.55 17.55 0 0 0 4.92.11c11.49-1.61 13.6-8.21 13.6-16.58 0 0 .57-39.24-.92-49.68a19.87 19.87 0 0 0-.88-3.53z"/>
    <path class="c" d="M442 90.45c.06-6.29-3.82-11.45-8.62-11.45-2.94 0-6.36.8-8 3.68-1 1.85-.86 5.16-.88 7.63a13.56 13.56 0 0 0 2 7.34v2.68a3 3 0 0 0 1.73 2.39 9.29 9.29 0 0 0 8.43 0 3 3 0 0 0 1.72-2.35v-.81a12.79 12.79 0 0 0 3.6-9.11z"/>
    <path class="w" d="M443.59 85.67a8.4 8.4 0 0 0-.91-7.39c-2.55-4.05-4.41-5.35-7.24-6a9 9 0 0 0-4.91.36 5.51 5.51 0 0 0-4.5.75c-1.27.92-1.76 1.63-3 3.76-1.12 1.94-1.27 4.74-1.23 7.67A17.35 17.35 0 0 0 426.41 98a8.87 8.87 0 0 0 2.12 1c1.88.57 7.49 1 9.81-4.05a30.65 30.65 0 0 0 1.16-3.78c0-.57-.64-2.76.46-3.51s1.18.75 1.18.75a9.32 9.32 0 0 1-.5 3.77c-.65 1.16-.86 3.82.36 4.66 0 0-1-2-.07-3.12s3.33-4.02 2.66-8.05z"/>
    <path class="v" d="M425.84 77.17s-6.67-6.88-9.25 2.23a12.35 12.35 0 0 0-.07 7.6c1.36 3.66 3.73 5.81.64 8.39 0 0 8.39-2.15 9.25-13.26.01-.01.51-3.95-.57-4.96z"/>
    <path class="x" d="M425.84 77.17s-6.67-6.88-9.25 2.23a12.35 12.35 0 0 0-.07 7.6c1.36 3.66 3.73 5.81.64 8.39 0 0 8.39-2.15 9.25-13.26.01-.01.51-3.95-.57-4.96z"/>
    <path class="b" d="M439.94 119.49l6.45 33.39 12.15-2.25s-.08-2.54-.15-5.78c-.31-13.73.89-23.66-1.58-30.82-1.18-3.41-18.74-1.95-16.88 5.46"/>
    <path class="c" d="M454.56 178.12s2.41 6.51 2.37 7.84c0 1.12-.29 1.78.37 2.12.89.45 1.24-.22 1.24-.22a1 1 0 0 0 1.52-.46s.87.58 1.27-.83c0 0 .94.78 1.19-1.88.29-3.14-2.15-8-2.18-8z"/>
    <path class="c" d="M457.46 188.16a2.15 2.15 0 0 1-1.22-1.39c-.35-1.09.22-2.09 1.27-2.07 0 0 2 3.8 0 3.46z"/>
    <path class="b" d="M458.53 150.48l2.73 29.19-5.87 2.78a192.41 192.41 0 0 1-9.13-30.16"/>
    <circle class="b" cx="452.34" cy="151.04" r="6.22" transform="rotate(-29.16 452.333 151.026)"/>
    <ellipse class="b" cx="448.74" cy="117.88" rx="8.98" ry="8.97" transform="rotate(-.22 447.723 118.056)"/>
    <path class="b" d="M401.26 59.63A31.81 31.81 0 1 0 354 31.82s-1.26 38.28 48 37.81c0 0-3.82-1.86-3.51-5.72a5.46 5.46 0 0 1 2.77-4.28z"/>
    <path class="ae" d="M402.84 28.26l-2.58-2.59V22l-3.35-1.4-1.43-3.42h-3.66l-2.6-2.54-3.4 1.36-3.39-1.4-2.6 2.54h-3.67l-1.4 3.38-3.37 1.48v3.66l-2.59 2.59 1.4 3.38-1.4 3.37 2.59 2.59v3.66l3.39 1.4 1.4 3.38h3.67l2.59 2.59 3.39-1.4 3.39 1.4 2.6-2.56h3.67l1.4-3.38 3.39-1.4v-3.66l2.56-2.6-1.4-3.38zM386.93 41v2a1.14 1.14 0 0 1-2.27 0v-2a5.68 5.68 0 0 1-4.54-5.56 1.14 1.14 0 0 1 2.27 0 3.41 3.41 0 0 0 3.43 3.39 3.11 3.11 0 0 0 3.39-2.8v-.2c0-1.48-1.23-2.51-3.65-3-4.45-1-5.42-3.43-5.42-5.27a5.26 5.26 0 0 1 4.53-5.19v-2a1.14 1.14 0 0 1 2.27 0v2a5.65 5.65 0 0 1 4.45 4.61 1.14 1.14 0 0 1-2.24.38 3.39 3.39 0 0 0-3.36-2.84 3.11 3.11 0 0 0-3.39 2.8v.2c0 .55 0 2.22 3.65 3 4.72 1.07 5.42 3.76 5.42 5.27A5.25 5.25 0 0 1 387 41z"/>
</svg>
