<svg xmlns="http://www.w3.org/2000/svg" viewBox="0 0 757.21 1036.06">
    <defs>
        <style>
            .cls-1,.cls-35{fill:none}.cls-2{fill:#d8d8d8}.cls-3{fill:#10355d}.cls-4{fill:#ffdfca}.cls-5{fill:#fff}.cls-6{fill:#081b2f}.cls-7{fill:#ffcfae}.cls-8{fill:#2b90ff}.cls-9{opacity:.1}.cls-10{fill:#08253f}.cls-11{fill:#eab896}.cls-12{fill:#3a2416;opacity:.08}.cls-13{clip-path:url(#clip-path)}.cls-14{fill:#dbdbdb}.cls-15{fill:#dbdddd}.cls-16{opacity:.2}.cls-16,.cls-17,.cls-27,.cls-34{isolation:isolate}.cls-17,.cls-18{opacity:.1}.cls-19{fill:#171719}.cls-20{fill:#ededed}.cls-21{fill:#d3d3d3}.cls-22{fill:#9eccff}.cls-23{fill:#e9e9e9}.cls-24{fill:#9fe813}.cls-25{fill:#ffe045}.cls-26{fill:#ff4878}.cls-27{opacity:.15}.cls-28{fill:#444549}.cls-29{fill:#9b9b9b}.cls-30{fill:#424242}.cls-31{fill:#f39f00}.cls-32{fill:#303030}.cls-33{fill:#6b373e}.cls-34{opacity:.08}.cls-35{stroke:#fff;stroke-miterlimit:10;stroke-width:2.5px}
        </style>
        <clipPath id="clip-path">
            <path class="cls-1" d="M629.35 735.2l-3.67 2.31 2.4 5.71-6.65 58.03 8.09 9.77 8.25-19.21-7.14-50.11 1.56-5.91-2.84-.59z"/>
        </clipPath>
    </defs>
    <title>
        Improve Customer Experience
    </title>
    <g id="Layer_2" data-name="Layer 2">
        <g id="Layer_1-2" data-name="Layer 1">
            <path class="cls-2" d="M598.5 951.61c-14.76 8.58-17.36 21.1-5.78 27.83s33.12 5.22 47.87-3.36S658 955 646.38 948.25s-33.12-5.25-47.88 3.36z"/>
            <path class="cls-3" d="M655.6 739.51c5.39 11.43 7.82 29.78 8.71 45.7l-15.64 1.66-14.95-38.53"/>
            <path class="cls-4" d="M652.15 818.85s-.56 5.7-.95 7.32c-.25 1-.4 1.73-.59 2.48-.27 1-.33 1.55 0 1.8s.93.33 1.53-1.77a9.16 9.16 0 0 1-1.93 3.84c-1.12 1.21-2.76 2.43-2.32 3.07s1.64 0 1.64 0 .14 1 1.63.22c0 0 .18.83 1.68-.22 0 0 .59.69 2-.69s6.34-6.73 6.44-16.74z"/>
            <path class="cls-3" d="M664.29 784.89c1.56 27.85-2.77 36.41-2.77 36.41l-9.45.25-3.39-34.69"/>
            <circle class="cls-1" cx="656.42" cy="785.35" r="7.87"/>
            <circle class="cls-5" cx="644.99" cy="744.73" r="11.82"/>
            <path class="cls-6" d="M600.74 973.12c3.2 3.2 7.07 4.51 8.66 2.92s.28-5.46-2.92-8.66-7.07-4.51-8.66-2.93c-1 1-.89 3.46-.89 4.42a29.64 29.64 0 0 0 3.81 4.25z"/>
            <ellipse class="cls-7" cx="602.56" cy="967.92" rx="2.59" ry="5.24" transform="rotate(-46.33 602.471 967.848)"/>
            <path class="cls-6" d="M629.38 956.72c3.07 3.07 6.79 4.33 8.32 2.81s.27-5.25-2.8-8.32-6.79-4.33-8.32-2.81c-.92.92-.85 3.32-.86 4.25a28.49 28.49 0 0 0 3.66 4.07z"/>
            <ellipse class="cls-7" cx="631.13" cy="951.73" rx="2.49" ry="5.03" transform="rotate(-46.32 631.05 951.673)"/>
            <path class="cls-7" d="M597.89 913.17s-8.12-45.49-12.13-74.66l62.45-11.83c.3 14.18.79 41.22-.8 60.78-2.4 29.47-13.13 63.61-13.13 63.61-.22 1.07-.84 1.77-3.21 1.77a3.79 3.79 0 0 1-4-3.33l.54-46.11-5.16-40.23s-2.5 30-4.36 46-12.63 58.17-12.63 58.17c0 1.68.08 2.08-2.78 2.08s-4.33-2-4.35-3.62z"/>
            <path class="cls-8" d="M612.74 897.35a23.5 23.5 0 0 1-9 .55c-9.21-1.29-18.87-11.28-18.87-11.28v-11.74-59.74c.32-3.25.71-6.32 1.24-9.23 1.78-8.72 5.1-13.91 12.35-19.69a24.35 24.35 0 0 1 3.17-2.1c9.25-5.22 26.93-9.27 38.43-4.85 15.11 5.81 15.1 23.7 15.11 23.66v67.9A154 154 0 0 1 636.71 885c-9.71 6.21-21.71 11.75-23.97 12.35z"/>
            <path class="cls-3" d="M582.13 757.57c-2.31 16.22-1.44 77.2-1.44 77.2 0 13 3.28 23.26 21.13 25.77a30 30 0 0 0 10-.61c13.8-3 30.54-12.91 37.08-18.82 10.94-9.89 10.49-19.24 10.49-27.38v-59.48s0-20-16.91-26.49c-12.86-5-32.66-.41-43 5.43.03 0-14.94 7.48-17.35 24.38z"/>
            <path class="cls-9" d="M583.42 752.13a9.5 9.5 0 0 1 7-3.22c10.32 0 9.62 11.7 9.62 11.7v65.63c0 25.24 5.72 32.25 9.45 34.13a27.28 27.28 0 0 1-7.64.17C584 858 580.7 847.79 580.7 834.77c0 0-.88-61 1.44-77.2a30.91 30.91 0 0 1 1.28-5.44z"/>
            <path class="cls-4" d="M591.72 849.59s.46 5.71.81 7.34c.23 1 .37 1.74.55 2.49.25 1 .3 1.55 0 1.79s-.94.31-1.5-1.8a9.15 9.15 0 0 0 1.87 3.88c1.1 1.23 2.72 2.48 2.27 3.11s-1.64 0-1.64 0-.16 1-1.63.19c0 0-.19.83-1.68-.25 0 0-.61.68-2-.73s-6.22-6.85-6.14-16.85z"/>
            <path class="cls-3" d="M594 809.82l-1.56 46.27-9.06-.28s-6.92-18.2-8.62-47.27"/>
            <circle class="cls-3" cx="584.44" cy="808.58" r="9.66" transform="rotate(-88.97 584.442 808.577)"/>
            <path class="cls-3" d="M608.69 761.19l-15.06 50.36-18.86-3.15s-.3-4.67-.3-9.69c0-21.12 3-37 8.71-48.26"/>
            <circle class="cls-3" cx="595.61" cy="756.6" r="13.86" transform="rotate(-89.78 595.63 756.609)"/>
            <path class="cls-5" d="M612.3 729.31s7.56 11.78 15.22 26.38c4.68 8.91 5.35 5.13 6 1.11 0 0 2.53-30 1.82-30.63-1.63-1.55-4.99-5.1-23.04 3.14z"/>
            <path class="cls-10" d="M615.1 696.06s-10.36-10.7-14.37 3.45c0 0-2.23 6.13-.11 11.81s5.79 9 1 13c0 0 13-3.34 14.37-20.61.01.04.78-6.09-.89-7.65z"/>
            <path class="cls-3" d="M641.67 707.09a22.4 22.4 0 0 1-.61 8.08c-1.39 5.18 2.23 4.74 2.23 4.74s-4.68.45-3.45-3.57a7 7 0 0 0-.22-5.24s.49-3.9 2.05-4.01z"/>
            <path class="cls-7" d="M627 694.79c4.34-.17 9.44.9 12 5.09 1.62 2.7 1.5 7.6 1.64 11.24.26 6.58-2.36 13.48-6.44 17.05v1.72c0 1.41-1 2.81-2.85 3.88a15.07 15.07 0 0 1-13.68 0c-1.82-1.06-2.75-2.43-2.8-3.81v-17.18-.62c-.5-9.3 4.98-17.08 12.13-17.37z"/>
            <path class="cls-11" d="M628.43 730.67a9.26 9.26 0 0 0 5.72-2.48v1.72c0 1.41-1 2.81-2.85 3.88a15.07 15.07 0 0 1-13.68 0c-1.82-1.06-2.75-2.43-2.8-3.81v-17.2c.57 9.11 6.63 18.17 13.61 17.89z"/>
            <path class="cls-3" d="M618.64 712.38c-.24-1.15-.47-2-1.68-1.91a2.38 2.38 0 0 0-2.18 2.33 17.1 17.1 0 0 0 1.55 7l-1.55 5.61C600.47 707.1 612 691 612 691c3.54-4.64 9.41-3.45 9.41-3.45 5.77-2.18 15.27-2.7 19.55 5.57 0 0 4 5.23 1.46 14l-1.83 6.09c0-.72.05-1.45 0-2.17-.06-1.49-.08-3.19-.18-4.86-15.06 0-18.18-5.22-18.18-5.22s.33 5.6-1 8.11c0 0 .17 3.83-.84 6 0 0-1.5 4 .33 5.4 0 0-2.67-.95-1.84-4.51a15.74 15.74 0 0 0-.24-3.58z"/>
            <path class="cls-12" d="M600.73 699.51c2.32-8.18 6.76-8.05 10.09-6.49a28.3 28.3 0 0 0-.4 25.36 19.13 19.13 0 0 1-8.8 6c4.79-4 1.11-7.35-1-13s.11-11.87.11-11.87z"/>
            <path class="cls-8" d="M619 758.3l.26 2.26-13.5 4.93-.26-2.26 13.5-4.93z"/>
            <path class="cls-13 cls-8" d="M612.3 729.31s7.56 11.78 15.22 26.38c4.68 8.91 5.35 5.13 6 1.11 0 0 2.53-30 1.82-30.63-1.63-1.55-4.99-5.1-23.04 3.14z"/>
            <path class="cls-14" d="M635.83 727.73l-.33 12.14-6.57-3.65-6.4 7.22-9.23-11.59s-2-2.68-1.06-4.88a5.84 5.84 0 0 1 2-2.34c.06 0 3.6 5.78 14.48 9.66 0 0 4.89-2.67 5.47-6.09 0 0 .95-.88 1.57-1.59a3.53 3.53 0 0 1 .07 1.12z"/>
            <path class="cls-15" d="M243.37 459.92L337 405.39v7.25l-30.08 147.52L458 624c5.5 2.33 8.28 5.73 8.3 9.24v7.4c0 3.22-2.37 6.56-7.08 9.3l-150.9 87.73c-10 5.81-25.53 4.66-34.55-2.54l-108.44-86.5v-7.25z"/>
            <path class="cls-16" d="M308.3 730.49l150.9-87.66c4.61-2.69 7-5.93 7.12-9.11v7.06c0 3.22-2.37 6.56-7.08 9.3l-150.9 87.73a30.85 30.85 0 0 1-17.27 3.6v-7.28a30.85 30.85 0 0 0 17.23-3.64z"/>
            <path class="cls-17" d="M243.37 459.92v7.25l-75.7 176.08L273.79 728a31.17 31.17 0 0 0 17.27 6.17v7.25a31.17 31.17 0 0 1-17.27-6.17l-108.46-86.59v-7.25z"/>
            <path d="M243.38 467.17l-75.7 176.09 139.24-83.1 30.13-147.52-93.67 54.53z" class="cls-18"/>
            <path class="cls-15" d="M14.57 786.15zM570.92 18.38c0-5.85-2.09-9.87-5.45-11.78l-9.29-5.43c-3.28-1.85-7.79-1.57-12.75 1.3L18.16 307.89c-10 5.8-18.16 20-18.16 31.55V769c0 5.71 2 9.75 5.24 11.66l9.32 5.44c3.29 2 7.88 1.73 12.93-1.23l525.27-305.33c10-5.81 18.14-20 18.14-31.54z"/>
            <path class="cls-19" d="M9.36 741.09v-396.2c0-11.55 8.17-25.74 18.15-31.54L552.76 7.94c10-5.81 18.14-1.11 18.14 10.44v396.19z"/>
            <path class="cls-16" d="M570.92 400v48c0 11.54-8.17 25.74-18.14 31.54L27.51 784.94c-10 5.8-18.15 1.1-18.15-10.44v-48z"/>
            <path class="cls-5" d="M549.93 402.54V33.87L30.35 335.97v368.65l519.58-302.08z"/>
            <path class="cls-3" d="M545.81 45.25l-5.39 3.1v-1l5.38-3.11v1m0-2.31L540.42 46v-.93L545.8 42v.93M48.95 331.26c-.91.53-1.65.11-1.67-.94a3.63 3.63 0 0 1 1.64-2.86c.91-.53 1.65-.1 1.67.94a3.63 3.63 0 0 1-1.64 2.86m-6.1 3.52c-.93.53-1.68.12-1.69-.93a3.7 3.7 0 0 1 1.68-2.85c.9-.52 1.65-.1 1.67.94a3.7 3.7 0 0 1-1.64 2.86m-6.17 3.53c-.91.53-1.67.11-1.67-.94a3.62 3.62 0 0 1 1.64-2.86c.91-.53 1.65-.1 1.67 1a3.62 3.62 0 0 1-1.64 2.85M545.8 40.71l-5.38 3v-.93l5.38-3.11v1M30.2 334v12.5l519.66-300 .64 228.1-.68-240.6L30.2 334"/>
            <path class="cls-20" d="M433.51 471L293.1 552.1l-.46-158.89 140.44-81.05.46 158.89m-144.49 83.43l-140.45 81-.44-158.89 140.41-81.06.43 158.93m144.08-246.74l-140.45 81.07-.48-170.65 140.41-81.08.52 170.65m-144.52 83.41L148.15 472.2l-.48-170.65 140.42-81.08.47 170.65M30.24 346.46l1 356.83 519.63-300-.36-128.74-.64-228.1-519.63 300"/>
            <path class="cls-5" d="M359.8 323.73l-23.89 13.79v-2.47l23.89-13.79v2.47m0-3.52L335.93 334v-2.47l23.87-13.79v2.47m0-4.42l-19.74 11.41v-3.95l19.74-11.41v4m0-13.78l-23.95 13.78v-2.47l23.89-13.79v2.47m8.64-10.49l55.52-32.06c-.15 17.55-12.45 38.73-27.65 47.52s-27.58 1.83-27.84-15.47m-8.64 7l-23.87 13.74v-2.47l23.81-13.71v2.47m0-4.43L340 305.57v-3.87l19.74-11.41v3.89m0-13.76l-23.89 13.79v-2.47l23.89-13.79v2.47m0-3.52l-23.87 13.79v-2.47l23.87-13.79v2.47m35.56-1.75l-27 15.57c0-8.58 3.06-18 7.85-26.43l19.11 10.86m-35.62-2.83l-19.74 11.41v-3.9l19.74-11.41v3.9m64.16-13.65l-27.56 15.92-19.57-11.19c4.94-8.49 11.78-15.85 19.32-20.21 15.21-8.78 27.58-1.84 27.84 15.47m-.15-53.34l-58.15 33.57v-2.47l58.15-33.57v2.47m-64.09 37l-44.18 25.53v-2.45l44.16-25.49v2.47m64.07-41.65l-58.15 33.57v-2.47l58.15-33.57v2.47m-64.09 37l-58.15 33.58v-2.47l58.15-33.57v2.47m64.07-41.68l-58.15 33.56v-2.47l58.15-33.57V196m-64.09 37l-58.13 33.63v-2.47l58.14-33.57V233m64.07-41.67L365.46 225v-2.47l58.15-33.57v2.47m-64.09 37L301.39 262v-2.5l58.14-33.57v2.47m64.07-41.65l-58.15 33.57v-2.47l58.15-33.57v2.47m-64.09 37l-58.15 33.57v-2.47l58.15-33.57v2.47m64.07-41.68l-58.15 33.57v-2.47l58.14-33.54v2.47m-64.09 37l-58.14 33.6v-2.47l58.15-33.57v2.47m64.07-41.68L365.43 211v-2.47l58.15-33.59v2.47m-64.09 37L301.34 248v-2.47L359.49 212v2.47m64.06-41.69l-58.15 33.53v-2.47l58.15-33.57v2.47m-64.09 37l-58.15 33.57v-2.47l58.15-33.57v2.47M423.53 162l-95.86 55.35v-7.77l95.83-55.39V162m-131.35 56.14l.48 170.65 140.45-81.08-.48-170.65-140.45 81.08"/>
            <path class="cls-21" d="M301.32 240.88l58.15-33.57.01 2.4-58.15 33.58-.01-2.41M301.33 245.56l58.15-33.59.01 2.42-58.15 33.57-.01-2.4M301.35 250.22l58.14-33.57.01 2.4-58.15 33.58v-2.41M301.37 254.86l58.13-33.57.02 2.44-58.15 33.57v-2.44M301.38 259.54l58.14-33.58v2.42l-58.14 33.57v-2.41M301.39 264.21l58.14-33.57v2.4l-58.13 33.58-.01-2.41M301.4 268.85l58.14-33.57.01 2.44-58.15 33.57v-2.44M315.39 265.45l44.16-25.5.01 2.41-44.15 25.5-.02-2.41M365.4 203.88l58.15-33.58v2.41l-58.14 33.57-.01-2.4M365.41 208.54l58.15-33.57.02 2.4-58.15 33.59-.02-2.42M365.43 213.22l58.15-33.58.01 2.41-58.15 33.57-.01-2.4M365.45 217.86l58.14-33.58.01 2.45-58.15 33.57v-2.44M365.46 222.53l58.14-33.57.01 2.42-58.15 33.57v-2.42M365.48 227.2l58.13-33.58.02 2.42-58.15 33.58v-2.42M365.49 231.85l58.15-33.57v2.44l-58.15 33.57v-2.44M365.5 236.52l58.15-33.57v2.41l-58.14 33.57-.01-2.41M327.66 209.56l95.85-55.33.02 7.77-95.86 55.35-.01-7.79"/>
            <path class="cls-8" d="M368.31 291.54l55.52-32.08c-.15 17.55-12.45 38.73-27.65 47.52s-27.58 1.83-27.84-15.47"/>
            <path class="cls-22" d="M376.16 264.31l19.11 10.83-27 15.57c0-8.58 3.06-18 7.85-26.43"/>
            <path class="cls-3" d="M396 243.22c15.21-8.78 27.58-1.84 27.84 15.47l-27.56 15.92-19.58-11.19c4.94-8.49 11.78-15.85 19.32-20.21"/>
            <path class="cls-21" d="M339.87 279.86l19.77-11.42.01 3.92-19.76 11.41-.02-3.91"/>
            <path class="cls-23" d="M335.78 288.16l23.87-13.78v2.41l-23.87 13.79v-2.42M335.78 291.68l23.88-13.79.02 2.41-23.89 13.8-.01-2.42"/>
            <path class="cls-21" d="M339.92 301.6l19.78-11.42.01 3.89-19.76 11.41-.03-3.88"/>
            <path class="cls-23" d="M335.84 309.88l23.87-13.79v2.41l-23.87 13.79v-2.41M335.84 313.39l23.89-13.78.01 2.41-23.89 13.79-.01-2.42"/>
            <path class="cls-21" d="M340 323.32l19.76-11.42.01 3.9-19.76 11.42-.01-3.9"/>
            <path class="cls-23" d="M335.9 331.59l23.87-13.78v2.41l-23.87 13.79v-2.42M335.9 335.12l23.89-13.79.01 2.4-23.89 13.8-.01-2.41"/>
            <path class="cls-5" d="M403.54 411.32c-5.34 3.08-9.64 10.55-9.61 16.66s4.34 8.64 9.67 5.52a21.15 21.15 0 0 0 9.62-16.66c0-6.17-4.34-8.64-9.69-5.52m-40.46 23.36c-5.34 3.08-9.64 10.55-9.61 16.66s4.34 8.64 9.67 5.53a19.57 19.57 0 0 0 6.81-7.17c.22-.37.42-.74.62-1.12a18.83 18.83 0 0 0 2.17-8.29c0-6.17-4.34-8.64-9.69-5.52m-40.44 23.35c-5.34 3.08-9.64 10.55-9.61 16.66 0 3 1.06 5.12 2.74 6.17s4.22.94 6.93-.64c5.32-3.07 9.64-10.52 9.62-16.66s-4.37-8.64-9.69-5.52m93-5l-23.84 13.68v-2.47l23.85-13.78V453m-40.46 23.36l-23.85 13.78v-2.44l23.8-13.7v2.47m-40.4 23.26L310.8 513.5V511l23.89-13.79v2.47m80.89-50.25l-23.85 13.77v-2.47L415.58 447v2.47m-40.49 23.42l-23.81 13.77v-2.47l23.81-13.72v2.47m-40.46 23.36L310.8 510v-2.47l23.87-13.78v2.47m78.84-49.95l-19.74 11.41v-3.9l19.74-11.41v3.9m-40.46 23.36L353.32 481v-3.9l19.74-11.41v3.91M332.61 493l-19.74 11.41v-3.9l19.74-11.41v3.9m86.11-79.31c0 9.62-6.74 21.36-15.11 26.18s-15.19 1-15.21-8.64 6.75-21.32 15.13-26.16 15.19-1 15.21 8.64m-40.46 23.36a29.78 29.78 0 0 1-3.6 13.44 31.7 31.7 0 0 1-11.51 12.75c-8.38 4.84-15.19 1-15.21-8.64s6.75-21.32 15.13-26.16 15.19-1 15.21 8.64m-40.46 23.27c0 9.62-6.74 21.36-15.11 26.19-4.29 2.47-8.14 2.67-10.91 1s-4.29-4.94-4.31-9.66c0-9.62 6.75-21.32 15.13-26.16s15.19-1 15.21 8.64m86.29-89.27L366 404.7v-2.47l58.15-33.57v2.47m-64.09 37l-49.28 28.45v-2.47L360 405.67v2.47m64.07-41.69L366 400v-2.47L424.1 364v2.47m-64.09 37L301.86 437v-2.47L360 401v2.47m64.07-41.65l-58.15 33.57v-2.47l58.15-33.57v2.47m-64.09 37l-58.13 33.58v-2.47L360 396.36v2.47m64.07-41.68l-58.15 33.57v-2.47l58.15-33.57v2.47m-64.09 37l-58.15 33.57v-2.47L360 391.69v2.47m64.07-41.68l-58.15 33.57v-2.47L424.06 350v2.47M360 389.5l-58.15 33.57v-2.47L360 387v2.47m64-41.64l-58.11 33.57v-2.47L424 345.36v2.47m-64.09 37l-58.15 33.57v-2.47L360 382.38v2.47m64-47.72L311.74 402v-7.79L424 329.35v7.77m-131.36 56.14l.46 158.89 140.41-81.08-.43-158.92-140.41 81.08"/>
            <path class="cls-21" d="M301.81 415.94l58.15-33.58v2.42l-58.14 33.58-.01-2.42M301.82 420.61l58.15-33.57v2.41l-58.14 33.57-.01-2.41M301.83 425.28l58.16-33.58.01 2.42-58.15 33.57-.02-2.41M301.86 429.93L360 396.36l.01 2.44-58.15 33.57v-2.44M301.87 434.61l58.14-33.58.01 2.41-58.15 33.57v-2.4M310.74 434.15l49.28-28.45.01 2.41-49.28 28.46-.01-2.42M365.91 378.95l58.14-33.59.01 2.42-58.15 33.57v-2.4M365.92 383.61l58.14-33.57.01 2.4-58.15 33.58v-2.41M365.92 388.27l58.15-33.57.01 2.42-58.15 33.57-.01-2.42M365.93 392.93l58.15-33.58.02 2.45-58.16 33.57-.01-2.44M365.96 397.6l58.14-33.57.01 2.41-58.15 33.57v-2.41M365.97 402.27l58.14-33.58.01 2.42-58.15 33.57v-2.41M311.7 394.13L424 329.3l.02 7.77-112.29 64.84-.03-7.78M393.74 453.77l19.77-11.42.01 3.91-19.77 11.42-.01-3.91"/>
            <path class="cls-23" d="M391.73 460.85l23.85-13.77.01 2.42-23.86 13.77v-2.42M391.74 464.4l23.85-13.78.02 2.42-23.87 13.77v-2.41"/>
            <path class="cls-22" d="M403.6 433.51c-5.34 3.08-9.66.62-9.67-5.52s4.28-13.57 9.61-16.66 9.66-.59 9.69 5.52a21.15 21.15 0 0 1-9.62 16.66m-.14-28.51c-8.38 4.84-15.15 16.53-15.13 26.16s6.84 13.57 15.21 8.64 15.14-16.56 15.11-26.18l-5.52 3.18c0-6.17-4.34-8.64-9.69-5.52V405"/>
            <path class="cls-8" d="M403.47 405c8.37-4.84 15.19-1 15.21 8.64l-5.52 3.18c0-6.17-4.34-8.64-9.69-5.52V405"/>
            <path class="cls-21" d="M353.29 477.13l19.77-11.42.02 3.91-19.78 11.41-.01-3.9"/>
            <path class="cls-23" d="M351.27 484.2l23.85-13.76.02 2.41-23.87 13.77v-2.42M351.29 487.76l23.85-13.78.01 2.41-23.85 13.78-.01-2.41"/>
            <path class="cls-22" d="M372.75 440.21000000000004a18.83 18.83 0 0 1-2.17 8.29 18.72 18.72 0 0 0 2.17-8.29m-9.7-11.83c-8.38 4.84-15.15 16.53-15.13 26.16s6.84 13.51 15.21 8.64a31.7 31.7 0 0 0 11.51-12.75c-.26.48-.53 1-.8 1.44l-3.92-2.21a19.57 19.57 0 0 1-6.81 7.17c-5.34 3.08-9.66.62-9.67-5.53s4.28-13.57 9.61-16.66 9.66-.59 9.69 5.52c0-6.17-4.34-8.64-9.69-5.52v-6.32"/>
            <path class="cls-8" d="M363.07 428.37c8.37-4.84 15.19-1 15.21 8.64a29.78 29.78 0 0 1-3.6 13.44c-.26.48-.53 1-.8 1.44l-3.88-2.21c.22-.37.42-.74.62-1.12a18.72 18.72 0 0 0 2.17-8.29c0-6.17-4.34-8.64-9.69-5.52v-6.32"/>
            <path class="cls-22" d="M322.61 451.73V458c5.32-3.07 9.66-.59 9.69 5.52 0-6.17-4.37-8.64-9.69-5.52S313 468.6 313 474.7c0 3 1.06 5.12 2.74 6.17l-4 6.69 4-6.69-4 6.69c2.78 1.69 6.63 1.49 10.91-1 8.38-4.84 15.14-16.56 15.11-26.19 0 9.62-6.74 21.36-15.11 26.19-4.29 2.47-8.14 2.67-10.91 1s-4.29-4.94-4.31-9.66c0-9.62 6.75-21.32 15.13-26.16"/>
            <path class="cls-21" d="M312.84 500.49l19.77-11.42.01 3.91-19.77 11.41-.01-3.9"/>
            <path class="cls-23" d="M310.8 507.57l23.88-13.78v2.42L310.8 510v-2.43M310.8 511.13l23.89-13.8v2.42l-23.87 13.78-.02-2.4"/>
            <path class="cls-8" d="M322.61 451.73c8.37-4.84 15.19-1 15.21 8.64s-6.74 21.36-15.11 26.19c-4.29 2.47-8.14 2.67-10.91 1l4-6.69c1.75 1.07 4.22.94 6.93-.64 5.32-3.07 9.64-10.52 9.62-16.66s-4.37-8.64-9.69-5.52v-6.32M315.75 480.86l-3.96 6.69 3.96-6.69"/>
            <path class="cls-5" d="M247.38 402.06l-58.13 33.56v-2.38l58.13-33.56v2.38m6.11-8.18l-70.33 40.64v-2.47l70.33-40.63v2.47m-85.69 32.57l-3.7 2.13v-1.76l3.7-2.13v1.78m10.48-6l-3.7 2.15v-2.83l3.7-2.16v2.83m41.86-24.17l-3.7 2.15v-5.68l3.7-2.16v5.68M272.48 366l-3.7 2.16v-7l3.7-2.15v7m-83.74 48.35l-3.7 2.15v-7.83l3.7-2.13v7.82m41.86-24.17l-3.7 2.15v-8.27l3.7-2.13v8.27m31.4-18.13l-3.7 2.15v-11.79l3.7-2.15v11.78m-21 12.08l-3.7 2.15v-16.46l3.7-2.15v16.46M272.43 359l-3.7 2.15v-9.87l3.7-2.16V359m-10.49 1.25l-3.7 2.15v-7.8l3.7-2.15v7.82m-52.3 42l-3.7 2.13v-20.63l3.7-2.13v20.58m10.46-11.72l-3.7 2.16V375.6l3.7-2.15v17m20.9-22.77l-3.7 2.15V363l3.7-2.15v6.86m-52.31 38.85l-3.7 2.13V391.8l3.7-2.13v16.87m62.81-28.38l-3.7 2.13-.09-27.14 3.7-2.13.07 27.14m-42 3.58l-3.7 2.13v-7.13l3.7-2.13v7.13m-10.4 26.61l-3.7 2.15-.1-35.16 3.7-2.15.1 35.16m-21 9.25l-3.7 2.16-.11-39.58L178 378l.11 39.58m-10.35 7.07l-3.7 2.13-.06-41.44 3.7-2.15.11 41.49m-1.06-60l8.64 1a2.23 2.23 0 0 1 .81-1c.58-.33 1-.07 1 .6a1.31 1.31 0 0 1 0 .32l8.55-1.12a2.34 2.34 0 0 1 .93-1.23.67.67 0 0 1 .88 0l8.64-10.14a.93.93 0 0 1-.07-.38 2.28 2.28 0 0 1 1-1.8c.58-.33 1-.07 1 .6a1.94 1.94 0 0 1-.17.75l8.91 3.52a2.16 2.16 0 0 1 .72-.73c.58-.33 1-.09 1 .58a2.1 2.1 0 0 1-.26 1l9.11 6.17a2 2 0 0 1 .6-.58.65.65 0 0 1 1 .62 2 2 0 0 1-.19.78l9 4a2 2 0 0 1 .68-.69.8.8 0 0 1 .64-.12l9-15.85a.75.75 0 0 1-.22-.6 2.29 2.29 0 0 1 1-1.81.9.9 0 0 1 .37-.12l9.43-25.5a.68.68 0 0 1-.43-.73 2.25 2.25 0 0 1 1-1.78c.59-.35 1-.1 1.06.58a2.15 2.15 0 0 1-.3 1l9.19 7.83a1.92 1.92 0 0 1 .56-.51c.58-.33 1-.07 1 .6a1.81 1.81 0 0 1-.11.59l8.76 1.39a2.11 2.11 0 0 1 .79-.9c.58-.33 1-.07 1 .58a2.31 2.31 0 0 1-1 1.81.65.65 0 0 1-1-.62 1.68 1.68 0 0 1 .1-.56l-8.76-1.38a2.22 2.22 0 0 1-.8.9.64.64 0 0 1-1-.6 2.13 2.13 0 0 1 .28-1l-9.19-7.85a1.94 1.94 0 0 1-.56.51.88.88 0 0 1-.38.14l-9.43 25.5c.27 0 .44.32.46.73a2.25 2.25 0 0 1-1 1.76.84.84 0 0 1-.65.14l-9 15.9a.79.79 0 0 1 .23.62 2.29 2.29 0 0 1-1 1.81.64.64 0 0 1-1-.6 2 2 0 0 1 .17-.78l-9-4.07a2 2 0 0 1-.68.68c-.58.33-1 .07-1-.58a2.06 2.06 0 0 1 .26-.93l-9.11-6.17a2.12 2.12 0 0 1-.6.58.65.65 0 0 1-1-.6 1.9 1.9 0 0 1 .17-.75l-8.91-3.53a2.27 2.27 0 0 1-.72.74.65.65 0 0 1-.85 0l-8.64 10.17a1 1 0 0 1 .07.38 2.29 2.29 0 0 1-1 1.79c-.58.33-1 .07-1-.58a1.63 1.63 0 0 1 0-.31l-8.61 1.15a2.27 2.27 0 0 1-.93 1.17c-.56.32-1 0-1-.62a1.73 1.73 0 0 1 .09-.52l-8.7-.94a2.21 2.21 0 0 1-.84.94c-.58.33-1 .07-1-.6a2.32 2.32 0 0 1 1-1.81c.59-.33 1-.07 1 .6a1.67 1.67 0 0 1-.09.53m112.39-89.84l-58.11 33.56V306l58.11-33.56v2.47m-64.09 37l-40.9 23.62V333l40.9-23.6v2.47m64.12-41.69L221 303.77v-2.47l58.11-33.56v2.47m-64.09 37l-58.13 33.56v-2.47L215 304.76v2.47m64.07-41.68l-58.13 33.55v-2.47l58.13-33.56v2.47m-64.09 37l-58.13 33.56v-2.47L215 300.09v2.47m64.07-41.68l-58.13 33.56V292l58.13-33.56v2.47M215 297.9l-58.13 33.56V329L215 295.43v2.47m64-41.67l-58.13 33.56v-2.47L279 253.76v2.47m-64.09 37l-58.08 33.57v-2.47L215 290.78v2.47m64-47.72l-78.27 45.2V283L279 237.76v7.77m-131.35 56l.48 170.65 140.41-81.09-.48-170.65-140.39 81.12"/>
            <path class="cls-21" d="M156.83 324.3l58.13-33.56.01 2.4-58.12 33.57-.02-2.41M156.85 328.98l58.12-33.56.01 2.4-58.12 33.56-.01-2.4M156.86 333.64l58.12-33.56.02 2.41-58.13 33.56-.01-2.41M156.87 338.29L215 304.73l.01 2.43-58.13 33.56-.01-2.43M174.12 333.01l40.89-23.6.01 2.4-40.9 23.62v-2.42M220.93 287.3l58.12-33.56.01 2.4-58.13 33.56v-2.4M220.94 291.96l58.13-33.56v2.42l-58.13 33.56v-2.42M220.96 296.64l58.12-33.56v2.42l-58.12 33.56v-2.42M220.97 301.29l58.11-33.56.01 2.43-58.12 33.56v-2.43M220.98 305.95l58.11-33.55.02 2.41-58.13 33.56v-2.42M200.73 282.87l78.28-45.21.01 7.78-78.26 45.2-.03-7.77"/>
            <path class="cls-23" d="M183.1 432.11l70.38-40.64v2.42l-70.38 40.63v-2.41M189.25 433.24l58.12-33.56.01 2.39-58.12 33.55-.01-2.38"/>
            <path class="cls-8" d="M268.69 361.13l3.74-2.15.01 7.04-3.72 2.16-.03-7.05"/>
            <path class="cls-22" d="M268.67 351.28l3.74-2.15.02 9.85-3.74 2.15-.02-9.85"/>
            <path class="cls-8" d="M258.21 362.44l3.73-2.15.03 11.78-3.73 2.15-.03-11.78"/>
            <path class="cls-22" d="M258.19 354.62l3.73-2.16.02 7.83-3.73 2.15-.02-7.82"/>
            <path class="cls-8" d="M247.71 353.15l3.71-2.14.07 27.11-3.7 2.13-.08-27.1M237.27 369.85l3.72-2.16.05 16.46-3.72 2.15-.05-16.45"/>
            <path class="cls-22" d="M237.25 362.99l3.73-2.14.01 6.84-3.72 2.16-.02-6.86"/>
            <path class="cls-8" d="M226.84 384.08l3.7-2.15.03 8.27-3.7 2.15-.03-8.27M216.37 392.72l3.72-2.16.03 5.69-3.74 2.14-.01-5.67"/>
            <path class="cls-22" d="M216.32 375.68l3.74-2.16.03 17.04-3.72 2.16-.05-17.04"/>
            <path class="cls-8" d="M205.87 383.83l3.71-2.13.06 20.59-3.71 2.14-.06-20.6"/>
            <path class="cls-22" d="M205.85 376.7l3.71-2.13.02 7.13-3.71 2.13-.02-7.13"/>
            <path class="cls-8" d="M195.35 375.31l3.73-2.15.1 35.16-3.73 2.15-.1-35.16M184.98 408.68l3.71-2.13.01 7.82-3.7 2.15-.02-7.84"/>
            <path class="cls-22" d="M184.93 391.81l3.71-2.13.05 16.87-3.71 2.13-.05-16.87"/>
            <path class="cls-8" d="M174.51 419.74l3.73-2.16.01 2.84-3.74 2.14v-2.82"/>
            <path class="cls-22" d="M174.4 380.16l3.73-2.16.11 39.58-3.73 2.16-.11-39.58"/>
            <path class="cls-8" d="M164.06 426.83l3.7-2.14.02 1.77-3.72 2.14v-1.77"/>
            <path class="cls-22" d="M163.95 385.35l3.7-2.15.11 41.49-3.7 2.14-.11-41.48"/>
            <path class="cls-8" d="M270.47 331.06c.58-.33 1-.07 1 .58a2.31 2.31 0 0 1-1 1.81.65.65 0 0 1-1-.62 1.68 1.68 0 0 1 .1-.56l.86.14.14-.31-.86-.14a2.11 2.11 0 0 1 .79-.9M259.24 330.19a2.13 2.13 0 0 0-.28 1c0 .67.47.94 1 .6a2.22 2.22 0 0 0 .8-.9l-.88-.14-.67-.58m.74-.8a1.92 1.92 0 0 0-.56.51l.64.54.85.14a1.81 1.81 0 0 0 .12-.56c0-.67-.47-.94-1-.6M249.51 321.88l-.41 1.1a.88.88 0 0 0 .38-.14 1.94 1.94 0 0 0 .56-.51l-.54-.46m0-1.42a2.25 2.25 0 0 0-1 1.78.68.68 0 0 0 .43.73l.48-1.31.09-.26.78.65a2.15 2.15 0 0 0 .3-1c0-.67-.47-.91-1.06-.58M239.67 348.47l-.49 1.32-.74 1.31a.84.84 0 0 0 .65-.14 2.25 2.25 0 0 0 1-1.76c0-.41-.19-.67-.46-.73m-.58.11a2.29 2.29 0 0 0-1 1.81.75.75 0 0 0 .22.6l.72-1.23.48-1.23a.9.9 0 0 0-.37.12M229.49 367l-.73 1.23-.09.16-.85-.39a2 2 0 0 0-.17.78c0 .67.46.94 1 .6a2.29 2.29 0 0 0 1-1.81.79.79 0 0 0-.23-.62m-.81 0a2 2 0 0 0-.68.69l.68.31.64-1.12a.8.8 0 0 0-.64.12M217.37 363.13a2.06 2.06 0 0 0-.26.93c0 .64.47.91 1 .58a2 2 0 0 0 .68-.68l-.79-.36-.69-.47m.79-.88a2 2 0 0 0-.6.58l.68.47.78.36a2 2 0 0 0 .19-.78c0-.67-.47-.94-1-.62M206.78 356.13a1.9 1.9 0 0 0-.17.75c0 .67.47.94 1 .6a2.12 2.12 0 0 0 .6-.58l-.68-.47-.81-.31m.88-1a2.16 2.16 0 0 0-.72.73l.81.32.69.48a2.1 2.1 0 0 0 .26-1c0-.67-.47-.91-1-.58M197.14 352.32l-.84 1a.65.65 0 0 0 .85 0 2.27 2.27 0 0 0 .72-.74l-.73-.28m0-1.36a2.28 2.28 0 0 0-1 1.8.93.93 0 0 0 .07.38l.91-1.07.07-.09.85.33a1.94 1.94 0 0 0 .17-.75c0-.67-.48-.94-1-.6M187.69 363.47l-.91 1.09h-.07l-1 .14a1.63 1.63 0 0 0 0 .31c0 .64.47.91 1 .58a2.29 2.29 0 0 0 1-1.79 1 1 0 0 0-.07-.38m-1-.22a2.34 2.34 0 0 0-.93 1.23l.93-.12.86-1a.67.67 0 0 0-.88 0M175.28 365.92a1.73 1.73 0 0 0-.09.52c0 .67.48.94 1 .62a2.27 2.27 0 0 0 .93-1.17l-1 .12-.88-.09m.94-1.23a2.23 2.23 0 0 0-.81 1l.86.1 1-.14a1.31 1.31 0 0 0 0-.32c0-.68-.47-.94-1-.6M165.74 363.51c.59-.33 1-.07 1 .6a1.67 1.67 0 0 1-.09.53l-.9-.1-.14.33.9.1a2.21 2.21 0 0 1-.84.94c-.58.33-1 .07-1-.6a2.32 2.32 0 0 1 1-1.81"/>
            <path class="cls-22" d="M238.27 351l-9 15.85a.48.48 0 0 1 .19.1l9-15.85a.47.47 0 0 1-.17-.1m22.65-20.44a2.38 2.38 0 0 1-.14.32l8.76 1.38a2 2 0 0 1 .14-.31l-8.76-1.39m-12-7.61l-9.43 25.5a.48.48 0 0 1 .21 0L249.1 323h-.21m1.34-.91a2.9 2.9 0 0 1-.2.28l9.19 7.85a2.63 2.63 0 0 1 .19-.3l-9.18-7.92m-83.53 42.62a3.12 3.12 0 0 1-.14.33l8.7.94a1.79 1.79 0 0 1 .11-.32l-8.64-1"/>
            <path class="cls-8" d="M269.68 332l.86.14-.14.31-.86-.14a2 2 0 0 1 .14-.31M259.43 329.89l.64.54.85.14a2.38 2.38 0 0 1-.14.32l-.88-.14-.67-.58a2.63 2.63 0 0 1 .19-.3M249.46 321.39l.78.65a2.9 2.9 0 0 1-.2.28l-.54-.46-.41 1.1h-.21l.48-1.31.09-.26M239.46 348.46a.48.48 0 0 1 .21 0l-.49 1.32-.74 1.31a.47.47 0 0 1-.17-.1l.72-1.23.48-1.23"/>
            <path class="cls-22" d="M219 363.63a3 3 0 0 1-.16.31l9 4.07a2.47 2.47 0 0 1 .17-.33l-9-4m-10.57-7.06l-.17.28 9.11 6.17a2.3 2.3 0 0 1 .19-.31l-9.11-6.17m-31.2 8.93a2.09 2.09 0 0 1-.09.32l8.55-1.12a1.92 1.92 0 0 1 .09-.32l-8.55 1.12M198 352.23a2.13 2.13 0 0 1-.15.3l8.91 3.53a2.47 2.47 0 0 1 .16-.3l-8.91-3.52m-1.83.83l-8.64 10.14a.62.62 0 0 1 .11.2l8.64-10.17a.56.56 0 0 1-.11-.17"/>
            <path class="cls-8" d="M229.28 366.87a.48.48 0 0 1 .19.1l-.73 1.23-.09.16-.85-.39a2.47 2.47 0 0 1 .17-.33l.68.31.64-1.12M217.55 362.82l.68.47.78.36a3 3 0 0 1-.16.31l-.79-.36-.69-.47a2.3 2.3 0 0 1 .19-.31M206.93 355.82l.81.32.69.48-.17.28-.68-.47-.81-.31a2.47 2.47 0 0 1 .16-.3M197.17 352l.85.33a2.13 2.13 0 0 1-.15.3l-.73-.28-.84 1a.56.56 0 0 1-.11-.17l.91-1.07.07-.09M187.54 363.28a.62.62 0 0 1 .11.2l-.91 1.09h-.07l-1 .14a1.92 1.92 0 0 1 .09-.32l.93-.12.86-1M175.39 365.6l.86.1 1-.14a2.09 2.09 0 0 1-.09.32l-1 .12-.88-.09a1.79 1.79 0 0 1 .11-.32M165.82 364.55l.9.1a3.12 3.12 0 0 1-.14.33l-.9-.1.14-.33"/>
            <path class="cls-5" d="M168.3 610.75l-3.7 2.13v-1.76l3.7-2.13v1.76m52.34-30.22l-3.7 2.15V577l3.7-2.15v5.68m-21 12.08l-3.7 2.15v-6.47l3.7-2.16v6.48m-10.48 6l-3.7 2.15V593l3.7-2.13v7.82m21-12.08l-3.7 2.13V579l3.7-2.13v9.74m31.4-18.14l-3.7 2.16v-12l3.7-2.16v12m-21 6.4l-3.7 2.15V565.9l3.7-2.15v11.1m20.94-18.4l-3.7 2.16v-6.85l3.7-2.16v6.85M168.3 609l-3.7 2.13v-17l3.7-2.15V609m20.91-18.14l-3.7 2.13v-16.84l3.7-2.13v16.87m73.29-34.49l-3.7 2.16-.07-25 3.7-2.16.07 25m-52.38 20.49l-3.7 2.13v-15.63l3.7-2.15v15.63m42-14.44l-3.7 2.13-.09-31.29 3.7-2.13.09 31.29m10.4-31l-3.7 2.16v-7.83l3.7-2.15v7.82M273 550.29l-3.7 2.16-.11-39.94 3.7-2.16.11 39.94m-41.9 24.18l-3.7 2.15-.13-41.62 3.7-2.15.11 41.64m-52.41-7.76l.1 38-3.7 2.15V604l-.07-39.58 3.7-2.15v4.44m94.19-56.37l-3.7 2.16v-9.87l3.7-2.16v9.87m-95.38 30.08l9.2 7.66a1.9 1.9 0 0 1 .56-.49c.51-.3.93-.12 1 .37l8.4-5.6a2.29 2.29 0 0 1 1-1.73c.58-.35 1-.07 1 .58a2.1 2.1 0 0 1-.23.9l9.06 5.54a2 2 0 0 1 .63-.62c.39-.22.73-.17.91.09l8.55-9a1 1 0 0 1 0-.3 2.31 2.31 0 0 1 1-1.81.69.69 0 0 1 .76 0l8.76-11.94a1 1 0 0 1-.11-.49 2.22 2.22 0 0 1 1-1.76c.58-.33 1-.09 1 .58a2.12 2.12 0 0 1-.35 1.09l9.3 9.94a2 2 0 0 1 .51-.43c.47-.27.86-.12 1 .31l8.43-6.38a2.31 2.31 0 0 1 1-1.78.81.81 0 0 1 .67-.11l8.92-14.71a.86.86 0 0 1-.2-.59 2.27 2.27 0 0 1 1-1.76.85.85 0 0 1 .62-.14l9-16.21a.76.76 0 0 1-.23-.6 2.29 2.29 0 0 1 1-1.8c.58-.33 1-.07 1 .6a2.29 2.29 0 0 1-1 1.79.78.78 0 0 1-.62.11l-9 16.21a.74.74 0 0 1 .25.62 2.28 2.28 0 0 1-1 1.81.73.73 0 0 1-.67.09l-8.92 14.7a.74.74 0 0 1 .21.58 2.31 2.31 0 0 1-1 1.81c-.46.27-.86.14-1-.3l-8.48 6.26a2.25 2.25 0 0 1-1 1.79c-.58.35-1 .1-1-.57a2.16 2.16 0 0 1 .35-1.1l-9.32-9.93a1.9 1.9 0 0 1-.49.43.69.69 0 0 1-.78 0l-8.66 12a.93.93 0 0 1 .11.48 2.29 2.29 0 0 1-1 1.78c-.39.22-.73.19-.91-.07l-8.55 9a1 1 0 0 1 0 .31 2.25 2.25 0 0 1-1 1.79c-.58.33-1 .09-1-.58a2 2 0 0 1 .25-.91l-9.07-5.53a1.91 1.91 0 0 1-.63.62c-.49.28-.91.11-1-.39l-8.4 5.6a2.25 2.25 0 0 1-1 1.75c-.59.35-1.06.1-1.06-.58a2.12 2.12 0 0 1 .31-1l-9.19-7.65a2 2 0 0 1-.58.53.75.75 0 0 1-.67.09l-8.91 14.61a.83.83 0 0 1 .2.59 2.29 2.29 0 0 1-1 1.81c-.58.33-1 .07-1-.6a2.29 2.29 0 0 1 1-1.81.78.78 0 0 1 .68-.1l8.91-14.61a.83.83 0 0 1-.2-.59 2.25 2.25 0 0 1 1-1.76c.58-.33 1-.1 1 .57a2.11 2.11 0 0 1-.28 1m102.16-76.5l-55 31.75v-2.53l55-31.75v2.47m-64.09 37l-49.83 28.77v-2.47l49.83-28.77v2.47m64.07-41.68l-58.19 33.58v-2.47l58.13-33.56v2.47m-64.09 37l-58.13 33.56v-2.47l58.13-33.56v2.47m64.07-41.65l-58.13 33.56v-2.47l58.13-33.56v2.47m-64.09 37l-58.12 33.58v-2.47l58.13-33.56v2.47M279.6 450l-58.13 33.56v-2.47l58.13-33.59v2.5m-64.09 37l-58.13 33.56v-2.47l58.13-33.56V487m64.07-41.65l-58.13 33.56v-2.47l58.13-33.56v2.47m-64.09 37l-58.13 33.4v-2.47l58.13-33.56v2.47m64.07-41.68l-58.13 33.56v-2.47l58.15-33.6v2.47m-64.09 37l-58.11 33.56v-2.47L215.49 475v2.47m64.07-41.68l-58.12 33.61v-2.47l58.13-33.56v2.47m-64.09 37l-58.11 33.56v-2.47l58.11-33.56v2.47m64.07-41.67l-58.13 33.56v-2.47l58.13-33.56v2.47m-64.09 37l-58.13 33.56v-2.43l58.13-33.56v2.47m64.06-47.71l-95.76 55.3V468l95.76-55.29v7.77m-131.36 56.15l.44 158.89L289 554.45l-.46-158.89-140.38 81.06"/>
            <path class="cls-21" d="M157.34 499.37l58.11-33.57.02 2.41-58.13 33.56v-2.4M157.35 504.03l58.12-33.56v2.41l-58.12 33.56v-2.41M157.36 508.71l58.12-33.56.01 2.41-58.13 33.56v-2.41M157.36 513.35l58.13-33.56.01 2.44-58.12 33.56-.02-2.44M221.41 462.37l58.13-33.58.01 2.42-58.12 33.56-.02-2.4M221.44 467.03l58.11-33.56.01 2.41-58.12 33.56v-2.41M221.45 471.71l58.13-33.56v2.4l-58.13 33.56v-2.4M221.46 476.35l58.13-33.55v2.43l-58.13 33.56v-2.44M157.38 518.02l58.12-33.56.01 2.42-58.12 33.56-.01-2.42M221.47 481.02l58.13-33.56v2.42l-58.13 33.55v-2.41M157.39 522.69l58.12-33.56.02 2.42-58.13 33.56-.01-2.42M221.49 485.69l58.12-33.56v2.41l-58.12 33.56v-2.41M157.41 527.34l58.13-33.56v2.42l-58.13 33.55v-2.41M221.5 490.34l58.13-33.56v2.41l-58.12 33.55-.01-2.4M165.72 527.23l49.83-28.77v2.4l-49.83 28.79v-2.42M224.66 493.19l54.97-31.74.01 2.41-54.97 31.75-.01-2.42M183.73 468.02l95.76-55.29.04 7.77-95.77 55.3-.03-7.78"/>
            <path class="cls-8" d="M269.13 512.57l3.73-2.16.12 39.94-3.74 2.16-.11-39.94"/>
            <path class="cls-22" d="M269.1 502.71l3.73-2.16.03 9.86-3.73 2.16-.03-9.86"/>
            <path class="cls-8" d="M258.69 533.58l3.74-2.16.07 24.98-3.74 2.16-.07-24.98"/>
            <path class="cls-22" d="M258.67 525.75l3.73-2.16.03 7.83-3.74 2.16-.02-7.83"/>
            <path class="cls-8" d="M248.22 533.3l3.71-2.14.08 31.3-3.7 2.13-.09-31.29M237.81 558.68l3.71-2.16.04 11.97-3.72 2.15-.03-11.96"/>
            <path class="cls-22" d="M237.78 551.83l3.73-2.17.01 6.86-3.71 2.16-.03-6.85"/>
            <path class="cls-8" d="M227.26 535.04l3.71-2.15.12 41.64-3.71 2.15-.12-41.64M216.88 577.05l3.74-2.16.01 5.68-3.73 2.16-.02-5.68"/>
            <path class="cls-22" d="M216.85 565.91l3.74-2.16.03 11.14-3.74 2.16-.03-11.14"/>
            <path class="cls-8" d="M206.42 579.03l3.7-2.14.04 9.72-3.71 2.15-.03-9.73"/>
            <path class="cls-22" d="M206.37 563.4l3.72-2.14.03 15.63-3.7 2.14-.05-15.63"/>
            <path class="cls-8" d="M195.96 588.34l3.73-2.16.01 6.48-3.73 2.15-.01-6.47M185.5 593.02l3.71-2.15.01 7.84-3.7 2.14-.02-7.83"/>
            <path class="cls-22" d="M185.46 576.15l3.7-2.13.05 16.85-3.71 2.15-.04-16.87"/>
            <path class="cls-8" d="M178.67 566.77l.1 37.97-3.73 2.16-.01-2.83 3.73-2.16-.09-35.14"/>
            <path class="cls-22" d="M174.92 564.49l3.73-2.16.02 4.44-3.74 2.16.1 35.14-.11-39.58"/>
            <path class="cls-8" d="M174.93 568.93l3.74-2.16.09 35.14-3.73 2.16-.1-35.14M164.58 611.15l3.72-2.13v1.76l-3.71 2.15-.01-1.78"/>
            <path class="cls-22" d="M164.53 594.12l3.72-2.15.05 17.05-3.72 2.13-.05-17.03"/>
            <path class="cls-8" d="M270.91 489.1c.58-.33 1-.07 1 .6a2.29 2.29 0 0 1-1 1.79.78.78 0 0 1-.62.11l.7-1.23-.19-.07-.7 1.23a.76.76 0 0 1-.23-.6 2.29 2.29 0 0 1 1-1.8M261.28 507.82l-.72 1.23-.75 1.23a.73.73 0 0 0 .67-.09 2.28 2.28 0 0 0 1-1.81.74.74 0 0 0-.25-.62m-.8 0a2.27 2.27 0 0 0-1 1.76.86.86 0 0 0 .2.59l.74-1.23.7-1.23a.85.85 0 0 0-.62.14M250.9 525l-.74 1.23-1 .79c.12.43.53.57 1 .3a2.31 2.31 0 0 0 1-1.81.74.74 0 0 0-.21-.58m-.84 0a2.31 2.31 0 0 0-1 1.78l1-.72.73-1.23a.81.81 0 0 0-.67.11M238.91 533.65a2.16 2.16 0 0 0-.35 1.1c0 .67.47.91 1 .57a2.23 2.23 0 0 0 1-1.76l-1 .78-.64-.68m.7-.72a2 2 0 0 0-.51.43l.56.59.94-.72c-.12-.43-.53-.58-1-.31M229.06 523.15l-.75 1a.69.69 0 0 0 .78 0 1.9 1.9 0 0 0 .49-.43l-.52-.56m0-1.41a2.22 2.22 0 0 0-1 1.76 1 1 0 0 0 .11.49l.84-1.16.11-.16.67.72a2.12 2.12 0 0 0 .35-1.09c0-.67-.47-.91-1-.58M219.62 536.13l-.86 1.23-1 1c.17.26.52.3.91.07a2.29 2.29 0 0 0 1-1.78.93.93 0 0 0-.11-.48m-.91-.14a2.31 2.31 0 0 0-1 1.81 1 1 0 0 0 0 .3l.93-1 .85-1.17a.69.69 0 0 0-.76 0M207.38 547.92a2 2 0 0 0-.25.91c0 .67.47.91 1 .58a2.25 2.25 0 0 0 1-1.79 1 1 0 0 0 0-.31l-1 1h-.07l-.78-.48m.8-.9a2 2 0 0 0-.63.62l.65.41.88-.94c-.17-.26-.52-.31-.91-.09M197.64 542l-1 .64c.1.49.52.67 1 .39a1.91 1.91 0 0 0 .63-.62l-.68-.41m0-1.36a2.29 2.29 0 0 0-1 1.73l1-.68h.07l.75.46a2.1 2.1 0 0 0 .23-.9c0-.64-.47-.91-1-.58M186.48 548.36a2.12 2.12 0 0 0-.31 1c0 .67.47.91 1.06.58a2.25 2.25 0 0 0 1-1.75l-1 .7-.69-.58m.74-.78a1.9 1.9 0 0 0-.56.49l.62.52 1-.63c-.1-.49-.52-.67-1-.37M176.71 540.23l-.67 1.1a.75.75 0 0 0 .67-.09 2 2 0 0 0 .58-.53l-.58-.48m0-1.38a2.25 2.25 0 0 0-1 1.76.83.83 0 0 0 .2.59l.76-1.23.09-.16.74.62a2.11 2.11 0 0 0 .28-1c0-.67-.47-.91-1-.57M166.28 555.93a.78.78 0 0 1 .68-.1l-.78 1.23.19.1.75-1.23a.83.83 0 0 1 .2.59 2.29 2.29 0 0 1-1 1.81c-.58.33-1 .07-1-.6a2.29 2.29 0 0 1 1-1.81"/>
            <path class="cls-22" d="M249 526.85l-8.43 6.39a.93.93 0 0 1 0 .25l8.45-6.35a1 1 0 0 1 0-.27m10.62-16.63l-8.92 14.71a.47.47 0 0 1 .17.11l8.92-14.7a.42.42 0 0 1-.16-.11m-29.86 13.19a1.78 1.78 0 0 1-.21.3l9.32 9.93.2-.28-9.3-9.94m-1.62.6L219.45 536a.49.49 0 0 1 .15.16l8.75-12a.47.47 0 0 1-.14-.16m42-32.5l-9 16.21a.57.57 0 0 1 .19.09l9-16.21a.56.56 0 0 1-.17-.09m-92.7 48.9a2.06 2.06 0 0 1-.19.28l9.19 7.65a2.6 2.6 0 0 1 .2-.28l-9.2-7.65m-1.59.79L167 555.82a.53.53 0 0 1 .17.11l8.91-14.61a.6.6 0 0 1-.16-.11"/>
            <path class="cls-8" d="M270.83 490.26l.19.07-.7 1.23a.56.56 0 0 1-.17-.09l.7-1.23M261.09 507.72a.57.57 0 0 1 .19.09l-.72 1.23-.75 1.23a.42.42 0 0 1-.16-.11l.74-1.23.7-1.23M250.73 524.92a.47.47 0 0 1 .17.11l-.74 1.23-1 .79a1 1 0 0 1 0-.27l1-.73.73-1.23M239.11 533.36l.56.59.94-.72a.93.93 0 0 1 0 .25l-1 .78-.64-.68.2-.28M229.14 522.7l.67.72a1.78 1.78 0 0 1-.21.3l-.52-.56-.75 1a.47.47 0 0 1-.14-.16l.84-1.16.11-.16"/>
            <path class="cls-22" d="M217.65 538.1l-8.55 9a.58.58 0 0 1 .1.21l8.55-9a.6.6 0 0 1-.1-.21m-19.15 4a2.47 2.47 0 0 1-.19.3l9.07 5.53a1.69 1.69 0 0 1 .17-.28l-9.06-5.54m-1.85.26l-8.4 5.6a.8.8 0 0 1 0 .23l8.4-5.6a1.15 1.15 0 0 1 0-.22"/>
            <path class="cls-8" d="M219.41 536a.49.49 0 0 1 .15.16l-.86 1.23-1 1a.6.6 0 0 1-.1-.21l.93-1 .85-1.17M207.56 547.64l.65.41.88-.94a.58.58 0 0 1 .1.21l-1 1h-.07l-.78-.48a1.69 1.69 0 0 1 .17-.28M197.67 541.65h.07l.75.46a2.47 2.47 0 0 1-.19.3l-.68-.41-1 .64a1.15 1.15 0 0 1 0-.22l1-.69M186.68 548.08l.62.52 1-.63a.8.8 0 0 1 0 .23l-1 .7-.69-.58a2.6 2.6 0 0 1 .2-.28M176.74 539.81l.74.62a2.06 2.06 0 0 1-.19.28l-.58-.48-.67 1.1a.6.6 0 0 1-.16-.11l.76-1.23.09-.16M167 555.82a.53.53 0 0 1 .17.11l-.75 1.23-.19-.1.78-1.23"/>
            <path class="cls-24" d="M36.72 334.52c.91-.53 1.65-.1 1.67 1a3.62 3.62 0 0 1-1.64 2.85c-.91.53-1.67.11-1.67-.94a3.62 3.62 0 0 1 1.64-2.86"/>
            <path class="cls-25" d="M42.84 331c.9-.52 1.65-.1 1.67.94a3.7 3.7 0 0 1-1.64 2.86c-.93.53-1.68.12-1.69-.93a3.7 3.7 0 0 1 1.67-2.87"/>
            <path class="cls-26" d="M48.93 327.46c.91-.53 1.65-.1 1.67.94a3.63 3.63 0 0 1-1.6 2.86c-.91.53-1.65.11-1.67-.94a3.63 3.63 0 0 1 1.64-2.86"/>
            <path class="cls-17" d="M14.73 327a37.32 37.32 0 0 0-5.37 18V774.56c0 5.7 2 9.72 5.22 11.65l-9.32-5.44C2 778.8 0 774.76 0 769V339.44a37.37 37.37 0 0 1 5.35-18zM14.57 786.15z"/>
            <path class="cls-5" d="M27.51 313.39A37.29 37.29 0 0 0 14.73 327a37.32 37.32 0 0 0-5.37 18L0 339.44a37.37 37.37 0 0 1 5.35-18 37.27 37.27 0 0 1 12.8-13.54z"/>
            <path class="cls-27" d="M414.14 605.49l156.81-91.18-9.37-5.44-158.26 92.04-34.38-14.47-157.63 91.65 27.61 22.05 168-97.7 7.22 3.05zM231.04 701.1l7.88 6.29L9.35 840.9 0 835.46 231.04 701.1z"/>
            <path class="cls-2" d="M692.06 581.81c15.66 9.11 18.42 22.39 6.17 29.54s-35.14 5.54-50.8-3.57-18.42-22.39-6.17-29.54 35.14-5.53 50.8 3.57z"/>
            <path class="cls-5" d="M631.29 365.07c-5.71 12.13-8.29 31.6-9.24 48.49l16.6 1.76 15.87-40.89"/>
            <path class="cls-4" d="M635 449.25s.59 6.06 1 7.76c.26 1.09.42 1.84.63 2.63.28 1.1.36 1.64 0 1.9s-1 .35-1.62-1.88a9.72 9.72 0 0 0 2 4.08c1.23 1.23 2.94 2.58 2.47 3.26s-1.74 0-1.74 0-.15 1.1-1.73.23c0 0-.19.89-1.79-.23 0 0-.63.74-2.1-.74s-6.72-7.14-6.84-17.75z"/>
            <path class="cls-5" d="M622.08 413.22c-1.65 29.61 2.95 38.63 2.95 38.63l10 .27 3.6-36.81"/>
            <circle class="cls-5" cx="630.42" cy="413.72" r="8.34"/>
            <circle class="cls-5" cx="642.55" cy="370.62" r="12.55"/>
            <path class="cls-28" d="M684.27 598.06c3.41-3.41 7.53-4.81 9.22-3.13s.28 5.81-3.12 9.22a20.54 20.54 0 0 1-4.65 3.84 3.79 3.79 0 0 1-4.57-.7c-1-1-.94-5.16-.94-6.17.57-1.07 2.71-1.7 4.06-3.06z"/>
            <path class="cls-4" d="M684.29 598c2.22-2.12 4.87-2.94 5.92-1.84s.1 3.7-2.12 5.82"/>
            <path class="cls-28" d="M656 581.84c3.41-3.41 7.53-4.81 9.22-3.13s.28 5.81-3.12 9.22a20.53 20.53 0 0 1-4.65 3.84 3.79 3.79 0 0 1-4.57-.7c-1-1-.94-5.16-.94-6.17.56-1.07 2.7-1.7 4.06-3.06z"/>
            <path class="cls-4" d="M656.06 581.47c2.22-2.12 4.87-2.94 5.92-1.84s.1 3.7-2.12 5.82a9.22 9.22 0 0 1-4.22 2.54"/>
            <path class="cls-4" d="M704.81 441.81l-70.06 2.37 13.72 86.89 3.78 53.41c0 1.83 1.23 4.45 4 3.29 4-1.68 3.94-3.28 4.23-4.71 0 0 4.94-32.6 7.4-54.19a313.65 313.65 0 0 0 1.76-34.1l7.58 47 3.16 58.31v.19c0 1.81 1 4.28 4.18 3.49 3.91-1 4.34-2.7 4.45-4.42.39-2 9-43.52 11.1-61.25 2.14-18.17 7.42-90.59 4.7-96.28z"/>
            <path class="cls-29" d="M680.4 532.05a23.16 23.16 0 0 0 8.85.54c9.08-1.23 18.62-11.1 18.62-11.1V451c-.31-3.21-.7-6.23-1.23-9.11-1.75-8.64-5-13.72-12.19-19.42a23.91 23.91 0 0 0-3.13-2.06c-9.12-5.15-26.56-9.14-37.9-4.77C638.5 421.37 638.51 439 638.5 439v66.9a151.86 151.86 0 0 0 18.27 13.94c9.5 6.16 21.37 11.62 23.63 12.21z"/>
            <path class="cls-5" d="M710.41 381.71c2.47 17.21 1.53 81.91 1.53 81.91 0 13.81-3.48 24.68-22.42 27.34a31.8 31.8 0 0 1-10.66-.64c-14.65-3.13-32.4-13.7-39.33-20-11.61-10.5-11.1-20.41-11.1-29v-63.14s0-21.2 17.94-28.11c13.65-5.26 34.66-.43 45.65 5.76-.02.01 15.83 7.94 18.39 25.88z"/>
            <path class="cls-2" d="M709 375.92a10.08 10.08 0 0 0-7.4-3.42c-11 0-10.2 12.41-10.2 12.41v69.64c0 26.79-6.07 34.21-10 36.21a28.92 28.92 0 0 0 8.11.19c18.94-2.65 22.42-13.57 22.42-27.34 0 0 .93-64.7-1.53-81.91a32.77 32.77 0 0 0-1.4-5.78z"/>
            <path class="cls-4" d="M683.9 334.59c.11-10.36-6.26-18.84-14.21-18.93-4.84 0-10.48 1.31-13.14 6.06-1.72 3.06-1.42 8.51-1.46 12.57a22.37 22.37 0 0 0 3.25 12.1v4.43a4.94 4.94 0 0 0 2.9 3.94 15.3 15.3 0 0 0 13.88 0 4.94 4.94 0 0 0 2.85-3.87v-1.3a21.1 21.1 0 0 0 5.93-15z"/>
            <path class="cls-30" d="M686.48 326.71a13.84 13.84 0 0 0-1.48-12.19c-4.22-6.69-7.27-8.82-11.93-9.87a14.81 14.81 0 0 0-8.08.58 9.08 9.08 0 0 0-7.4 1.23c-2.09 1.51-2.89 2.69-4.94 6.17-1.85 3.2-2.09 7.82-2 12.66a28.59 28.59 0 0 0 7.56 21.8 14.61 14.61 0 0 0 3.49 1.63c3.1.94 12.34 1.63 16.16-6.68a50.58 50.58 0 0 0 1.92-6.24c0-1-1-4.55.76-5.8s1.95 1.23 1.95 1.23.23 4.32-.83 6.17-1.42 6.27.59 7.69c0 0-1.65-3.31-.12-5.15s5.54-6.61 4.35-13.23z"/>
            <path class="cls-31" d="M657.23 312.7s-11-11.35-15.25 3.7c0 0-2.37 6.5-.12 12.54s6.17 9.57 1.06 13.83c0 0 13.83-3.54 15.25-21.88.01-.03.83-6.54-.94-8.19z"/>
            <path class="cls-32" d="M657.23 312.7s-11-11.35-15.25 3.7c0 0-2.37 6.5-.12 12.54s6.17 9.57 1.06 13.83c0 0 13.83-3.54 15.25-21.88.01-.03.83-6.54-.94-8.19z"/>
            <path class="cls-5" d="M680.46 382.49l10.64 55.05 20-3.7s-.12-4.2-.25-9.53c-.52-22.65 1.47-39-2.62-50.81-1.95-5.61-30.85-3.21-27.81 9"/>
            <path class="cls-4" d="M704.52 479.17s4 10.72 3.9 12.93c0 1.84-.48 2.94.62 3.49 1.47.74 2-.37 2-.37a1.64 1.64 0 0 0 2.47-.76s1.44 1 2.12-1.36c0 0 1.54 1.23 2-3.1.48-5.17-3.55-13.17-3.59-13.26z"/>
            <path class="cls-4" d="M709.33 495.72a3.55 3.55 0 0 1-2-2.28c-.58-1.8.37-3.44 2.07-3.41-.02-.03 3.25 6.23-.07 5.69z"/>
            <path class="cls-5" d="M711.11 433.58l4.57 48.12-9.7 4.58a317.38 317.38 0 0 1-15.14-49.75"/>
            <circle class="cls-5" cx="700.91" cy="434.49" r="10.25" transform="rotate(-29.16 700.917 434.505)"/>
            <circle class="cls-5" cx="694.99" cy="379.83" r="14.79" transform="rotate(-.22 694.637 378.966)"/>
            <path class="cls-33" d="M299.08 717.46v-.23a.58.58 0 0 0 0 .23z"/>
            <path class="cls-2" d="M240 995c15.18 8.82 17.85 21.7 5.95 28.63s-34.05 5.37-49.23-3.45-17.85-21.7-5.95-28.63 34.02-5.38 49.23 3.45z"/>
            <path class="cls-5" d="M181.07 784.94c-5.54 11.76-8 30.62-9 47l16 1.7L203.58 794"/>
            <path class="cls-7" d="M184.62 866.52s.58 5.86 1 7.53c.26 1.06.41 1.78.6 2.55.27 1.06.35 1.59 0 1.85s-1 .33-1.57-1.83a9.41 9.41 0 0 0 2 3.95c1.15 1.23 2.84 2.47 2.39 3.16s-1.69 0-1.69 0-.15 1.06-1.68.22c0 0-.19.86-1.73-.22 0 0-.62.72-2-.72s-6.51-6.92-6.63-17.21z"/>
            <path class="cls-5" d="M172.13 831.61C170.53 860.24 175 869 175 869l9.71.26 3.49-35.67"/>
            <circle class="cls-5" cx="180.23" cy="832.09" r="8.09"/>
            <circle class="cls-5" cx="191.99" cy="790.31" r="12.15"/>
            <path class="cls-28" d="M232.42 1010.75c3.29-3.31 7.3-4.66 8.93-3s.27 5.63-3 8.93a19.9 19.9 0 0 1-4.5 3.7 3.7 3.7 0 0 1-4.43-.69c-1-1-.91-4.94-.9-6 .48-1.02 2.59-1.64 3.9-2.94z"/>
            <path class="cls-7" d="M232.43 1010.68c2.15-2 4.73-2.85 5.74-1.79s.1 3.59-2 5.64"/>
            <path class="cls-28" d="M205 995c3.29-3.31 7.3-4.66 8.93-3s.27 5.63-3 8.93a19.9 19.9 0 0 1-4.5 3.7 3.7 3.7 0 0 1-4.42-.69c-1-1-.91-4.94-.9-6 .52-1 2.58-1.61 3.89-2.94z"/>
            <path class="cls-7" d="M205.08 994.67c2.15-2 4.73-2.85 5.74-1.79s.1 3.59-2 5.64a8.93 8.93 0 0 1-4.08 2.47"/>
            <path class="cls-7" d="M252.32 859.32l-67.86 2.32 13.3 84.2 3.7 51.82c0 1.76 1.23 4.31 3.9 3.2 3.87-1.63 3.81-3.18 4.11-4.57 0 0 4.8-31.6 7.18-52.52a304 304 0 0 0 1.62-33.19l7.4 45.55 3.06 56.52v.17c0 1.75 1 4.15 4.06 3.38 3.79-.94 4.21-2.62 4.32-4.28.38-1.92 8.64-42.17 10.72-59.36 2.01-17.56 7.17-87.73 4.49-93.24z"/>
            <path class="cls-29" d="M228.67 946.77a22.44 22.44 0 0 0 8.64.52c8.8-1.23 18-10.78 18-10.78v-68.32a87.37 87.37 0 0 0-1.23-8.82c-1.7-8.33-4.87-13.29-11.81-18.83a23.19 23.19 0 0 0-3-2c-8.83-4.94-25.75-8.86-36.73-4.64-14.45 5.55-14.44 22.65-14.45 22.62v64.9a147.13 147.13 0 0 0 17.7 13.58c9.21 5.9 20.68 11.19 22.88 11.77z"/>
            <path class="cls-5" d="M257.75 801.07c2.38 16.68 1.48 79.39 1.48 79.39 0 13.39-3.37 23.92-21.73 26.49a30.85 30.85 0 0 1-10.33-.63C213 903.28 195.77 893 189 887c-11.25-10.17-10.8-19.74-10.8-28.16v-61.2s0-20.54 17.38-27.24c13.23-5.1 33.59-.42 44.23 5.58.07.02 15.47 7.7 17.94 25.09z"/>
            <path class="cls-2" d="M256.43 795.47a9.77 9.77 0 0 0-7.19-3.34c-10.61 0-9.87 12-9.87 12v67.49c0 25.91-5.89 33.17-9.72 35.1a28 28 0 0 0 7.85.19c18.36-2.58 21.73-13.12 21.73-26.49 0 0 .9-62.7-1.48-79.39a31.77 31.77 0 0 0-1.32-5.56z"/>
            <path class="cls-5" d="M228.73 801.81L239 855.16l19.42-3.6s-.12-4.07-.23-9.23c-.51-21.95 1.43-37.82-2.53-49.24-1.89-5.44-29.93-3.11-27 8.71"/>
            <path class="cls-7" d="M252.09 895.52s3.85 10.39 3.78 12.54c0 1.79-.47 2.85.59 3.38 1.42.72 2-.36 2-.36a1.59 1.59 0 0 0 2.47-.74s1.39.93 2-1.32c0 0 1.49 1.23 1.9-3 .47-5-3.44-12.76-3.48-12.86z"/>
            <path class="cls-7" d="M256.71 911.55a3.44 3.44 0 0 1-1.95-2.21c-.57-1.74.36-3.34 2-3.31 0-.03 3.17 6.05-.05 5.52z"/>
            <path class="cls-5" d="M258.43 851.35l4.38 46.65-9.4 4.44a307.6 307.6 0 0 1-14.67-48.21"/>
            <circle class="cls-5" cx="248.57" cy="852.24" r="9.93" transform="rotate(-29.16 248.577 852.24)"/>
            <circle class="cls-5" cx="242.83" cy="799.27" r="14.34" transform="rotate(-.22 243.274 800.006)"/>
            <path class="cls-7" d="M232.06 755.39c.1-10.06-6.06-18.26-13.77-18.33-4.69 0-10.15 1.23-12.73 5.87-1.65 3-1.37 8.24-1.41 12.18a21.68 21.68 0 0 0 3.15 11.73v4.31a4.82 4.82 0 0 0 2.8 3.81 14.81 14.81 0 0 0 13.45 0 4.79 4.79 0 0 0 2.75-3.7V770a20.44 20.44 0 0 0 5.76-14.61z"/>
            <path class="cls-34" d="M218.29 737.06c7.71.07 13.87 8.29 13.77 18.33a20.3 20.3 0 0 1-6 14.81s2.82-25.8-7.77-33.14z"/>
            <path class="cls-30" d="M227.54 769.21c5.29 0 6.07-4.2 6.07-4.2-3 1.11-5.65-2.39-5.61-5.17.06-5.52 2.89-7.17 2.89-7.17a4.6 4.6 0 0 0 4.82-.65c4-2.71 4.94-10-.6-16.58-7.58-9.06-15.69-15.37-21.81-9.87 0 0-4.5-2.85-9.67 3.55a50.91 50.91 0 0 0-9.63 19.65c-2 7.29-2 18.3 8.64 17.61 3 6.87 11.68 3.82 11.68 3.82s1.64 2.32 6.17 2.37c5.45.03 7.05-3.36 7.05-3.36z"/>
            <path class="cls-2" d="M689 1003.11c-15.18 8.82-17.85 21.7-5.95 28.63s34.05 5.37 49.23-3.45 17.85-21.7 5.95-28.63-34.03-5.36-49.23 3.45z"/>
            <path class="cls-5" d="M747.93 793.21c5.54 11.76 8 30.62 9 47l-16 1.7-15.37-39.63"/>
            <path class="cls-7" d="M744.38 874.79s-.58 5.86-1 7.53c-.26 1.06-.41 1.78-.6 2.55-.27 1.06-.35 1.59 0 1.85s1 .33 1.57-1.83a9.41 9.41 0 0 1-2 3.95c-1.15 1.23-2.84 2.47-2.39 3.16s1.69 0 1.69 0 .15 1.06 1.68.22c0 0 .19.86 1.73-.22 0 0 .62.72 2-.72s6.51-6.92 6.63-17.27z"/>
            <path class="cls-5" d="M756.86 839.87c1.6 28.64-2.85 37.45-2.85 37.45l-9.71.26-3.49-35.67"/>
            <circle class="cls-5" cx="748.78" cy="840.35" r="8.09"/>
            <circle class="cls-5" cx="737.02" cy="798.58" r="12.15"/>
            <path class="cls-28" d="M696.64 1019.31c-3.31-3.31-7.3-4.66-8.93-3s-.27 5.63 3 8.93 7.3 4.66 8.93 3c1-1 .91-4.94.9-6-.54-1.01-2.59-1.61-3.9-2.93z"/>
            <path class="cls-7" d="M696.58 1019c-2.15-2-4.73-2.85-5.74-1.79s-.1 3.59 2 5.64"/>
            <path class="cls-28" d="M724 1003.29c-3.29-3.31-7.3-4.66-8.93-3s-.27 5.63 3 8.93 7.3 4.66 8.93 3c1-1 .91-4.94.9-6-.53-1-2.6-1.62-3.9-2.93z"/>
            <path class="cls-7" d="M723.93 1002.94c-2.15-2-4.73-2.85-5.74-1.79s-.1 3.59 2 5.64"/>
            <path class="cls-29" d="M676.67 867.58l67.86 2.32-13.3 84.2-3.06 51.82c0 1.76-1.62 3.2-4.5 3.2s-3.94-1.57-4-3.32-4.92-32.8-7.26-53.8a304 304 0 0 1-1.71-33.15l-7.4 45.55-2.23 56.76v.17c0 1.75-1.7 3.2-4.94 3.2s-4.21-1.47-4.32-3.13c-.38-1.92-8.64-43.32-10.72-60.46-1.94-17.66-7.09-87.84-4.42-93.36z"/>
            <path class="cls-5" d="M671.21 809.33c-2.38 16.68-1.48 79.39-1.48 79.39 0 13.39 3.37 23.92 21.73 26.49a30.85 30.85 0 0 0 10.33-.63c14.19-3 31.41-13.28 38.13-19.35 11.25-10.17 10.8-19.74 10.8-28.16v-61.15s0-20.54-17.38-27.24c-13.23-5.1-33.59-.42-44.23 5.58.01-.01-15.43 7.69-17.9 25.07z"/>
            <path class="cls-2" d="M672.58 803.73a9.76 9.76 0 0 1 7.16-3.32c10.61 0 9.87 12 9.87 12v67.49c0 25.91 5.89 33.17 9.72 35.1a28.08 28.08 0 0 1-7.85.19c-18.36-2.58-21.73-13.12-21.73-26.49 0 0-.9-62.7 1.48-79.39a31.76 31.76 0 0 1 1.35-5.58z"/>
            <path class="cls-7" d="M716.72 775.82a21.68 21.68 0 0 0 3.15-11.73c0-3.94.25-9.22-1.41-12.18-2.58-4.6-8-5.92-12.73-5.87-7.71.07-13.87 8.29-13.77 18.33a20.44 20.44 0 0 0 5.73 14.5v1.31c0 1.36 1 1.47 2.75 2.47a14.81 14.81 0 0 0 13.45 0 4.82 4.82 0 0 0 2.8-3.81v-3"/>
            <path class="cls-30" d="M706.09 779.44c-7.7-.83-9.65-4.94-10.91-11-11.56-10.38-7.16-26-6.68-27.14a3.43 3.43 0 0 0 2.38 1.53 2.25 2.25 0 0 1-.17-1.54c2 3 14.25-1.67 19.12-2.73s5.58 2.12 5.58 2.12 3.54-1.74 6.24 4.16c2 4.37 1.75 15.58-.17 21.09-2.08 5.94-4.4 14.69-15.39 13.51z"/>
            <path class="cls-34" d="M695.18 768.43a18.17 18.17 0 0 0 2.47 6.75v3.7a20.32 20.32 0 0 1-5.7-14 23.44 23.44 0 0 0 3.23 3.55z"/>
            <path class="cls-14" d="M707.27 781.94a18.68 18.68 0 0 1-10-1.72s-3.95 1.69-4.94 2.15c0 0 12.81 5.29 21.57 1.1 7.69-3.7 3.9-6.93 3.9-6.93l-1.1-.43V778s-1.26 3.23-9.43 3.94z"/>
            <path class="cls-5" d="M700.27 810.07L690 863.43l-19.42-3.6s.12-4.06.23-9.23c.51-21.95-1.43-37.82 2.53-49.24 1.89-5.44 29.93-3.11 27 8.71"/>
            <path class="cls-7" d="M676.91 903.78s-3.85 10.39-3.78 12.54c0 1.79.47 2.85-.59 3.38-1.42.72-2-.36-2-.36a1.59 1.59 0 0 1-2.47-.74s-1.39.93-2-1.32c0 0-1.49 1.23-1.9-3-.47-5 3.44-12.76 3.48-12.86z"/>
            <path class="cls-7" d="M672.29 919.81a3.44 3.44 0 0 0 1.95-2.21c.57-1.74-.36-3.34-2-3.31 0-.02-3.17 6.05.05 5.52z"/>
            <path class="cls-5" d="M670.58 859.6l-4.43 46.65 9.4 4.43a307.63 307.63 0 0 0 14.67-48.23"/>
            <circle class="cls-5" cx="680.45" cy="860.49" r="9.93" transform="rotate(-60.85 680.454 860.49)"/>
            <circle class="cls-5" cx="686.25" cy="807.58" r="14.34" transform="rotate(-89.78 686.247 807.578)"/>
            <path class="cls-2" d="M360 944c15.25 8.87 17.94 21.81 6 28.77s-34.23 5.39-49.48-3.47-17.94-21.81-6-28.77 34.24-5.37 49.48 3.47z"/>
            <path class="cls-6" d="M354.59 966.26c-3.3 3.31-7.31 4.66-9 3s-.29-5.65 3-9 7.31-4.66 9-3c1 1 .92 3.58.92 4.57a30.64 30.64 0 0 1-3.92 4.43z"/>
            <ellipse class="cls-7" cx="352.71" cy="960.88" rx="5.41" ry="2.68" transform="rotate(-43.67 352.794 960.976)"/>
            <path class="cls-6" d="M325 949.32c-3.17 3.18-7 4.48-8.6 2.9s-.28-5.42 2.9-8.6 7-4.48 8.6-2.91c.95.95.88 3.44.88 4.39a29.44 29.44 0 0 1-3.78 4.22z"/>
            <ellipse class="cls-7" cx="323.19" cy="944.15" rx="5.2" ry="2.58" transform="rotate(-43.68 323.241 944.211)"/>
            <path class="cls-8" d="M358.53 904.31s11.92-47.83 16.06-78l-72.49-12.87c-.31 14.66 3.6 44.07 5.25 64.29 2.48 30.46 13 65.62 13 65.62.23 1.1 1.46 1.95 3.91 1.95 2.73 0 4.63-.92 4.63-2.21l-1.1-48.89 5.34-41.58s2.59 31 4.5 47.54 11.7 59.13 11.7 59.13c0 1.73 1.27 3.14 4.22 3.14s5-1.28 5-3z"/>
            <path class="cls-5" d="M301 724.82c-5.57 11.81-8.08 30.78-9 47.23l16.16 1.71 15.45-39.83"/>
            <path class="cls-7" d="M304.57 806.82s.58 5.9 1 7.56c.26 1.06.41 1.79.61 2.57.28 1.07.34 1.6 0 1.85s-1 .34-1.58-1.83a9.47 9.47 0 0 0 2 4c1.16 1.25 2.86 2.51 2.4 3.17s-1.69 0-1.69 0-.15 1.07-1.68.23c0 0-.18.86-1.74-.23 0 0-.61.72-2-.72s-6.55-7-6.65-17.3z"/>
            <path class="cls-5" d="M292 771.73c-1.61 28.79 2.87 37.63 2.87 37.63l9.76.26 3.51-35.85"/>
            <circle class="cls-5" cx="300.15" cy="772.21" r="8.13"/>
            <circle class="cls-5" cx="311.97" cy="730.22" r="12.22"/>
            <path class="cls-5" d="M307.89 829.83c6.69 6.17 24.06 16.4 38.32 19.45a31 31 0 0 0 10.38.63c18.45-2.59 21.83-13.18 21.83-26.63l-.06-69.11c-.08-25.56-19.39-35.88-19.39-35.88-10.7-6-31.16-10.73-44.45-5.61C297 719.41 297 740.1 297 740.06a63 63 0 0 0 3.33 25.94s-10.84 46.87 7.56 63.83z"/>
            <path class="cls-2" d="M374.84 736.71a12.83 12.83 0 0 0-10.26-2.84c-7.91 1-6.12 10.23-6.12 10.23s8.1 73-9.69 87.37c-12.55 10.11-29.16 4.85-37.86.87 8 6.13 22.84 14.27 35.3 16.94a31 31 0 0 0 10.38.63c18.45-2.59 21.83-13.18 21.83-26.63l-.06-69.11a43.86 43.86 0 0 0-3.52-17.46z"/>
            <path class="cls-8" d="M306.9 740.76v2.22l13.61 3.24V744l-13.61-3.24z"/>
            <path class="cls-7" d="M367 838.59s-.47 5.91-.84 7.58c-.24 1.07-.38 1.8-.57 2.58-.26 1.07-.31 1.6 0 1.85s1 .32 1.55-1.86a9.47 9.47 0 0 1-1.93 4c-1.13 1.27-2.81 2.56-2.34 3.21s1.69 0 1.69 0 .17 1.07 1.69.2c0 0 .2.86 1.74-.26 0 0 .63.7 2-.75s6.42-7.08 6.34-17.42z"/>
            <path class="cls-5" d="M364.64 797.49l1.62 47.82 9.36-.29s7.15-18.81 8.91-48.85"/>
            <circle class="cls-5" cx="374.55" cy="796.21" r="9.99" transform="rotate(-1.03 376.11 798.89)"/>
            <path class="cls-5" d="M349.48 747.23L365 799.28l19.53-3.28s.31-4.83.31-10c0-21.83-3.1-38.25-9-49.88"/>
            <circle class="cls-5" cx="363" cy="742.49" r="14.32" transform="rotate(-.22 360.59 737.726)"/>
            <path class="cls-8" d="M328.85 721.77l3.46 2.18-2.26 5.39 6.27 54.72-7.63 9.21-7.78-18.11 6.73-47.26-1.47-5.57 2.68-.56z"/>
            <path class="cls-14" d="M321.94 713.69l.33 11.57 6.59-3.48 6.42 6.88 9.25-11s2-2.55 1.07-4.65a6.51 6.51 0 0 0-2.17-2.17s-3 5.83-14.3 9.14c0 0-4.87-3.55-5.45-6.8 0 0-.49-.45-1.11-1.12a3.1 3.1 0 0 0-.63 1.63z"/>
            <path class="cls-7" d="M330.7 678.63c-4.49-.18-9.76.93-12.36 5.26-1.67 2.79-1.55 7.86-1.7 11.62-.27 6.8 2.44 13.93 6.66 17.63v1.78c0 1.45 1 2.9 2.95 4a15.58 15.58 0 0 0 14.14 0c1.88-1.09 2.84-2.51 2.9-3.94v-12.51c0-.21 1.66-6.7 1.67-6.91.42-9.62-6.88-16.64-14.26-16.93z"/>
            <path class="cls-11" d="M329.22 715.7a9.57 9.57 0 0 1-5.92-2.57v1.78c0 1.45 1 2.9 2.95 4a15.58 15.58 0 0 0 14.14 0c1.88-1.09 2.84-2.51 2.9-3.94v-17.76c-.6 9.41-6.86 18.79-14.07 18.49z"/>
            <path class="cls-3" d="M343.32 697.53l-1.25 6.35 1.25 4c1.11-1.19 1.62-3.94 2.69-6.25 3.34-7.2 2.55-12.73 2-18.34-.22-2.35-.93-11.88-8-12.45 0 0-3.72-3.81-14.12.2-6 2.32-9.51-.19-9.51-.19a6.92 6.92 0 0 0 .45 4.12s-5.64 4.9-.17 18.45c.1-3.38 0-6 1.37-8.32 1-1.62 3.37-2 5.1-2.25a9.61 9.61 0 0 1 3 .65 16.36 16.36 0 0 1 3.78-.72c7.66.6 7.55 3.74 7.55 3.74l.33 3.54v12.13s-.35 6.24-6.25 7.14c-2.44.37-4.85-2.14-4.85-2.14H325s-1.49 2.32-2.9 1.61a8.57 8.57 0 0 1-4.59-5.78c.32 1.65 2.61 11.85 10 12.73 9.07 1.08 12.52-4.49 12.52-10.8V693.8a1.84 1.84 0 0 1 2-2.18c2.41 0 1.86 3.27 1.29 5.91z"/>
            <path class="cls-33" d="M317.48 703v-.23s-.03.09 0 .23z"/>
            <path class="cls-3" d="M328.85 701.88h-6s-1.71 1.55-1.71 3.08h9.43c-.01-1.53-1.72-3.08-1.72-3.08z"/>
            <circle class="cls-8" cx="215.95" cy="648.64" r="46.5"/>
            <circle class="cls-35" cx="215.95" cy="650.39" r="21.5"/>
            <path class="cls-35" d="M215.95 629.38v-7.98M209.88 621.4h12.14M215.95 636.38v14.71"/>
            <circle class="cls-5" cx="215.95" cy="651.22" r="3.5"/>
            <circle class="cls-8" cx="704.06" cy="663.34" r="46.5"/>
            <path class="cls-5" d="M704 680.57a17.13 17.13 0 0 1-12.18-5 1.38 1.38 0 0 1 1.95-2 14.47 14.47 0 0 0 24.71-10.23 14.73 14.73 0 0 0-.11-1.8 1.38 1.38 0 1 1 2.74-.34 17.67 17.67 0 0 1 .13 2.14A17.25 17.25 0 0 1 704 680.57zM688.26 666.52a1.38 1.38 0 0 1-1.37-1.22A17.24 17.24 0 0 1 704 646.11a17.12 17.12 0 0 1 12.18 5 1.38 1.38 0 0 1-1.95 1.95 14.47 14.47 0 0 0-24.71 10.24 14.59 14.59 0 0 0 .09 1.65 1.38 1.38 0 0 1-1.21 1.53z"/>
            <path class="cls-5" d="M687.73 668.19l-5.49-8.19a1.38 1.38 0 0 1 2.29-1.53l3.71 5.56 4.91-4.44a1.38 1.38 0 1 1 1.85 2zM724.74 667.92a1.38 1.38 0 0 1-1.15-.61l-3.71-5.56-4.88 4.43a1.38 1.38 0 0 1-1.85-2l7.28-6.58 5.49 8.22a1.38 1.38 0 0 1-1.14 2.14z"/>
            <circle class="cls-8" cx="666.36" cy="228.82" r="46.5"/>
            <path class="cls-5" d="M686.49 242.25h-30.2a11.41 11.41 0 0 1 0-22.82h28a1.34 1.34 0 1 1 0 2.68h-28a8.72 8.72 0 0 0 0 17.45h30.2a1.34 1.34 0 0 1 0 2.68z"/>
            <path class="cls-5" d="M677.09 230.17a1.34 1.34 0 0 1-.92-2.32l7.57-7.07-7.57-7.07a1.34 1.34 0 1 1 1.83-2l9.66 9-9.66 9a1.34 1.34 0 0 1-.91.46z"/>
        </g>
    </g>
</svg>
