<svg xmlns="http://www.w3.org/2000/svg" viewBox="0 0 1275.21 1229.04">
    <defs>
        <style>
            .cls-1{fill:none}.cls-2{fill:#d8d8d8}.cls-3{fill:#081b2f}.cls-4{fill:#ffcfae}.cls-25,.cls-5{fill:#2b90ff}.cls-23,.cls-24,.cls-26,.cls-29,.cls-6{fill:#fff}.cls-7{isolation:isolate}.cls-8{fill:#9eccff}.cls-9{fill:#d3d3d3}.cls-10{fill:#eab896}.cls-11{fill:#10355d}.cls-12{fill:#6b373e}.cls-13{clip-path:url(#clip-path)}.cls-14{clip-path:url(#clip-path-2)}.cls-15,.cls-23,.cls-25{opacity:.2}.cls-16{opacity:.1}.cls-17{opacity:.15}.cls-18{fill:#444549}.cls-19{fill:#9b9b9b}.cls-20,.cls-35{opacity:.08}.cls-21{fill:#424242}.cls-22{clip-path:url(#clip-path-3)}.cls-24,.cls-27{opacity:.5}.cls-26{opacity:.6}.cls-28{clip-path:url(#clip-path-4)}.cls-29{opacity:.3}.cls-30{clip-path:url(#clip-path-5)}.cls-31{clip-path:url(#clip-path-6)}.cls-32{clip-path:url(#clip-path-7)}.cls-33{fill:#fcfcfc}.cls-34{clip-path:url(#clip-path-8)}.cls-35{fill:#3a2416}.cls-36{fill:#dbdbdb}.cls-37{fill:#ffdec7}.cls-38{fill:#ffb522}
        </style>
        <clipPath id="clip-path" transform="translate(-48.83)">
            <path class="cls-1" d="M0 1003.77l260.93-151.64 191.72 110.69-260.93 151.64L0 1003.77z"/>
        </clipPath>
        <clipPath id="clip-path-2" transform="translate(-48.83)">
            <path class="cls-1" d="M917.27 710.7l255.2-148.32 33.44 19.31L950.7 730l-33.43-19.3z"/>
        </clipPath>
        <clipPath id="clip-path-3" transform="translate(-48.83)">
            <path class="cls-1" d="M262.07 758.4l334.26-194.25 196.07 113.2L458.14 871.6 262.07 758.4z"/>
        </clipPath>
        <clipPath id="clip-path-4" transform="translate(-48.83)">
            <path class="cls-1" d="M483.69 260.63l.02.01-.02 484.68L193 581.83V97.15l290.69 163.48z"/>
        </clipPath>
        <clipPath id="clip-path-5" transform="translate(-48.83)">
            <path class="cls-1" d="M484.59 954.43L839.98 747.9l330.85 191.01-355.4 206.54-330.84-191.02z"/>
        </clipPath>
        <clipPath id="clip-path-6" transform="translate(-48.83)">
            <path class="cls-1" d="M1186.78 670.63h.03l-.03 484.68-290.69-163.49V507.15l290.69 163.48z"/>
        </clipPath>
        <clipPath id="clip-path-7" transform="translate(-48.83)">
            <path class="cls-1" d="M322.82 441.66l.37-129.51 112.7 65.08-.36 129.51-112.71-65.08z"/>
        </clipPath>
        <clipPath id="clip-path-8" transform="translate(-48.83)">
            <path class="cls-1" d="M1030.82 847.61l.37-129.51 112.7 65.07-.37 129.51-112.7-65.07z"/>
        </clipPath>
    </defs>
    <title>
        Increase Conversion Rates
    </title>
    <g id="Layer_2" data-name="Layer 2">
        <g id="Layer_1-2" data-name="Layer 1">
            <path class="cls-2" d="M872.3 620.76c22.07 12.83 26 31.57 8.65 41.63s-49.54 7.81-71.61-5-26-31.57-8.65-41.63 49.53-7.83 71.61 5z" transform="translate(-48.83)"/>
            <path class="cls-3" d="M864.45 652.94c-4.78 4.79-10.58 6.75-13 4.38s-.42-8.17 4.37-13 10.58-6.75 13-4.38c1.43 1.43 1.33 5.18 1.33 6.62-.81 1.52-3.8 4.44-5.7 6.38z" transform="translate(-48.83)"/>
            <path class="cls-4" d="M864.41 648c-3.13 3-6.87 4.15-8.35 2.6s-.14-5.22 3-8.21 6.87-4.15 8.35-2.6.13 5.21-3 8.21z" transform="translate(-48.83)"/>
            <path class="cls-3" d="M821.61 628.42c-4.59 4.6-10.16 6.48-12.44 4.2s-.4-7.85 4.19-12.45 10.16-6.48 12.44-4.21c1.38 1.37 1.28 5 1.28 6.35-.77 1.43-3.65 4.28-5.47 6.11z" transform="translate(-48.83)"/>
            <path class="cls-4" d="M821.57 623.63c-3 2.87-6.6 4-8 2.5s-.13-5 2.87-7.89 6.6-4 8-2.49.14 5.02-2.87 7.88z" transform="translate(-48.83)"/>
            <path class="cls-5" d="M870.15 563.27S887.41 494 893.4 450.41l-104.92-18.66c-.44 21.22 5.21 63.79 7.6 93.06 3.6 44.09 18.78 95 18.78 95 .33 1.6 2.11 2.82 5.66 2.82 4 0 6.7-1.33 6.7-3.2l-1.59-70.76 7.72-60.19s3.74 44.86 6.52 68.81 16.94 85.58 16.94 85.58c0 2.51 1.83 4.55 6.11 4.55s7.19-1.85 7.21-4.34z" transform="translate(-48.83)"/>
            <path class="cls-6" d="M786.89 303.49c-8.06 17.1-11.7 44.55-13 68.37l23.39 2.48 22.36-57.64" transform="translate(-48.83)"/>
            <path class="cls-4" d="M792.05 422.17s.84 8.53 1.42 10.95c.37 1.54.6 2.59.88 3.71.4 1.55.5 2.31 0 2.68s-1.4.49-2.29-2.65a13.7 13.7 0 0 0 2.89 5.75c1.68 1.8 4.13 3.64 3.48 4.59s-2.45 0-2.45 0-.21 1.55-2.44.33c0 0-.26 1.25-2.52-.33 0 0-.89 1-3-1s-9.48-10.07-9.63-25z" transform="translate(-48.83)"/>
            <path class="cls-6" d="M773.89 371.38C771.56 413 778 425.84 778 425.84l14.13.38 5.07-51.89" transform="translate(-48.83)"/>
            <circle class="cls-6" cx="736.82" cy="372.07" r="11.77"/>
            <circle class="cls-6" cx="753.92" cy="311.3" r="17.69"/>
            <path class="cls-6" d="M796.85 455.48c9.68 8.93 34.82 23.73 55.46 28.14a44.82 44.82 0 0 0 15 .91c26.7-3.74 31.6-19.07 31.6-38.54l-.08-100c-.12-37-28.07-51.93-28.07-51.93-15.48-8.73-45.09-15.52-64.34-8.12-25.3 9.73-25.29 39.69-25.3 39.63s-2.23 17 4.77 37.53c.03-.02-15.66 67.83 10.96 92.38z" transform="translate(-48.83)"/>
            <path class="cls-2" d="M893.76 320.69a18.57 18.57 0 0 0-14.85-4.11C867.46 318 870 331.39 870 331.39s11.72 105.71-14 126.46c-18.17 14.63-42.21 7-54.79 1.26 11.59 8.87 33.05 20.65 51.09 24.51a44.82 44.82 0 0 0 15 .91c26.7-3.74 31.6-19.07 31.6-38.54l-.08-100a63.49 63.49 0 0 0-5.06-25.3z" transform="translate(-48.83)"/>
            <path class="cls-5" d="M788.29 345.84v3.21l19.71 4.7v-3.21l-19.71-4.7z"/>
            <path class="cls-4" d="M882.45 468.16s-.68 8.55-1.22 11c-.34 1.54-.55 2.6-.82 3.73-.37 1.55-.45 2.32.07 2.68s1.41.46 2.24-2.69a13.71 13.71 0 0 1-2.79 5.8c-1.64 1.83-4.06 3.71-3.39 4.65s2.45 0 2.45 0 .24 1.54 2.44.29c0 0 .29 1.24 2.51-.37 0 0 .91 1 2.94-1.09s9.3-10.24 9.18-25.21z" transform="translate(-48.83)"/>
            <path class="cls-6" d="M879 408.67l2.34 69.21 13.55-.42s10.35-27.23 12.89-70.7" transform="translate(-48.83)"/>
            <circle class="cls-6" cx="893.34" cy="406.81" r="14.45" transform="rotate(-1.03 872.005 3124.785)"/>
            <path class="cls-6" d="M857.05 335.92l22.53 75.34 28.21-4.71s.45-7 .46-14.5c0-31.6-4.49-55.36-13-72.2" transform="translate(-48.83)"/>
            <circle class="cls-6" cx="876.62" cy="329.06" r="20.73" transform="rotate(-.22 847.417 13044.262)"/>
            <path class="cls-5" d="M816.25 357.81h-.17a1 1 0 0 1-.82-.81l-6.83-38.7c-.2-.83-5-21.74 8-32.2a29.2 29.2 0 0 1 18.06-6.75c7.65 0 13.9 3.68 17.17 10.09 3.68 7.21-1 13.61-7.53 22.46a154 154 0 0 0-11.43 17.26l-15.58 28.14a1 1 0 0 1-.87.51zm18.24-76.47a27.2 27.2 0 0 0-16.81 6.31c-12 9.67-7.34 30-7.29 30.23l6.35 36 14.26-25.7a155.75 155.75 0 0 1 11.56-17.48c6.31-8.58 10.48-14.25 7.36-20.37-2.92-5.71-8.57-8.99-15.43-8.99z" transform="translate(-48.83)"/>
            <g class="cls-7">
                <path class="cls-8" d="M770.05 366.6l-.02 7.75-4.98-2.88.02-7.75 4.98 2.88z"/>
                <path class="cls-5" d="M817 363.28l4.85 2.8-.09 19.92-10.83-6.26.06-19.92 4.85 2.8zm-3.07.44v7.75l5 2.88v-7.75l-5-2.88m7.07 15.14v-.79l-9.15-5.29v.79l9.16 5.29m0 2.18v-.78l-9.2-5.26v.79L821 381m0 2.18v-.79l-9.16-5.29v.79l9.16 5.29" transform="translate(-48.83)"/>
                <path class="cls-8" d="M772.14 378.07v.79l-9.16-5.29.01-.79 9.15 5.29z"/>
                <path class="cls-5" d="M768.15 360.3l-.01 2.98-1.14-.66v-2.98l1.15.66z"/>
                <path class="cls-9" d="M770.04 355.34l-.86 5.56-1.03-.6-1.15-.66-1.04-.6-.81-6.52 4.89 2.82z"/>
            </g>
            <path class="cls-8" d="M772.13 382.43v.79l-9.16-5.29v-.78l9.16 5.28zM772.13 380.25v.79l-9.15-5.29v-.78l9.15 5.28z"/>
            <path class="cls-4" d="M829.87 236.63c-6.5-.26-14.12 1.35-17.89 7.61-2.42 4-2.24 11.37-2.46 16.82-.39 9.84 3.53 20.16 9.64 25.51v2.57c.07 2.11 1.48 4.2 4.27 5.81 5.67 3.27 14.83 3.27 20.46 0 2.72-1.58 4.11-3.63 4.19-5.7v-18.12c0-.31 2.41-9.69 2.42-10 .62-13.92-9.95-24.07-20.63-24.5z" transform="translate(-48.83)"/>
            <path class="cls-10" d="M827.72 290.29a13.85 13.85 0 0 1-8.56-3.71v2.57c.07 2.11 1.48 4.2 4.27 5.81 5.67 3.27 14.83 3.27 20.46 0 2.72-1.58 4.11-3.63 4.19-5.7v-25.73c-.86 13.62-9.92 27.17-20.36 26.76z" transform="translate(-48.83)"/>
            <path class="cls-11" d="M848.14 264l-1.82 9.19 1.82 5.76c1.61-1.72 2.35-5.71 3.9-9 4.83-10.42 3.69-18.42 2.94-26.55-.31-3.39-1.35-17.19-11.55-18 0 0-5.38-5.52-20.44.29-8.72 3.36-13.76-.27-13.76-.27s-.73 3.47.65 6c0 0-8.17 7.1-.25 26.7.14-4.9 0-8.73 2-12 1.41-2.35 4.88-2.92 7.38-3.25a13.91 13.91 0 0 1 4.37.94s3.89-1.17 5.47-1c11.08.87 10.93 5.42 10.93 5.42l.48 5.13v17.56s-.51 9-9 10.33c-3.53.54-7-3.1-7-3.1h-2.59s-2.16 3.36-4.2 2.33a12.4 12.4 0 0 1-6.64-8.37c.47 2.39 3.78 17.15 14.49 18.43 13.13 1.56 18.13-6.5 18.13-15.62v-16.33a2.66 2.66 0 0 1 2.94-3.16c3.37 0 2.61 4.74 1.75 8.57z" transform="translate(-48.83)"/>
            <path class="cls-12" d="M810.73 271.91c0-.21-.06-.34-.06-.34s.02.13.06.34z" transform="translate(-48.83)"/>
            <path class="cls-11" d="M827.19 270.28h-8.71s-2.47 2.25-2.47 4.46h13.65c0-2.21-2.47-4.46-2.47-4.46z" transform="translate(-48.83)"/>
            <g class="cls-7 cls-13">
                <path class="cls-5" d="M375.55 930.24l-99.44-57.41-4.93 2.87 99.44 57.41c17.24 10 27.5 22 30.23 33.35a23.48 23.48 0 0 1-1.56 16.1c-2.41 5-6.69 9.39-13 13l-197.08 114.6c-1.36.79-1.35 2.07 0 2.86a5.45 5.45 0 0 0 4.94 0l197.18-114.56c7.15-4.15 12-9.23 14.73-14.78 4.06-8.34 3.23-17.76-2-27s-14.82-18.48-28.53-26.39M283.46 865.14a6.43 6.43 0 0 0-2.15-.74l-30.42-5c-2.49-.42-4.3.64-3.58 2.08L256.1 879a3.17 3.17 0 0 0 1.29 1.25c1.52.88 3.85 1.17 5.17.41l8.62-5 4.93-2.87 8.07-4.69c1.31-.76.8-2.11-.72-3" transform="translate(-48.83)"/>
            </g>
            <g class="cls-7 cls-14">
                <path class="cls-5" d="M1189 571.92a5.45 5.45 0 0 0-5 0l-228 132.5 5 2.87 228-132.5c1.36-.79 1.36-2.08 0-2.87" transform="translate(-48.83)"/>
                <path class="cls-5" d="M972.88 714.14L961 707.29l-5-2.87-11.12-6.42c-2.36-1.36-6.36-.6-6.86 1.29l-5 19.15a1.86 1.86 0 0 0 1.15 2 6.07 6.07 0 0 0 3.49.66l33-3c3.28-.29 4.57-2.62 2.22-4" transform="translate(-48.83)"/>
            </g>
            <path class="cls-6" d="M383.13 398.83l156.8 91.53-.27 158.18-83.79 48.53-156.83-91.52.27-158.19 83.82-48.53z"/>
            <path class="cls-15" d="M299.31 447.36l156.83 91.53-.27 158.18-156.83-91.53.27-158.18z"/>
            <path class="cls-16" d="M539.93 490.36l-83.79 48.53-.27 158.18 83.79-48.53.27-158.18z"/>
            <path class="cls-6" d="M539.93 490.36l-83.79 48.53-156.66-91.25.01-6.08 83.8-48.53 156.65 91.24-.01 6.09z"/>
            <path class="cls-15" d="M456.14 538.89l-156.66-91.25.01-6.08 156.66 91.24-.01 6.09z"/>
            <path class="cls-16" d="M456.14 538.89l83.79-48.53.01-6.09-83.79 48.53-.01 6.09z"/>
            <path class="cls-6" d="M981.13 742.77l156.8 91.53-.27 158.18-83.79 48.53-156.84-91.52.29-158.18 83.81-48.54z"/>
            <path class="cls-15" d="M897.32 791.31l156.82 91.52-.27 158.18-156.84-91.52.29-158.18z"/>
            <path class="cls-16" d="M1137.93 834.3l-83.79 48.53-.27 158.18 83.79-48.53.27-158.18z"/>
            <path class="cls-6" d="M1137.93 834.3l-83.79 48.53-156.66-91.24.01-6.09 83.8-48.53 156.65 91.25-.01 6.08z"/>
            <path class="cls-15" d="M1054.14 882.83l-156.66-91.24.01-6.09 156.66 91.25-.01 6.08z"/>
            <path class="cls-16" d="M1054.14 882.83l83.79-48.53.01-6.08-83.79 48.53-.01 6.08z"/>
            <path d="M148 1140.66c22.07 12.83 26 31.57 8.65 41.63s-49.54 7.81-71.61-5-26-31.57-8.65-41.63 49.54-7.83 71.61 5z" transform="translate(-48.83)" class="cls-17"/>
            <path class="cls-18" d="M95.67 1140.05c4.86-4.75 11.43-5.76 13.8-3.39s.4 8.19-4.4 13c-2 2-4.56 4.5-6.56 5.42a5.5 5.5 0 0 1-6.43-1c-1.37-1.49-1.19-6.93-1.19-8.38.67-1.7 2.46-3.38 4.78-5.65z" transform="translate(-48.83)"/>
            <ellipse class="cls-4" cx="98.79" cy="1143.36" rx="8.22" ry="4.28" transform="rotate(-41.31 74.314 1208.004)"/>
            <path class="cls-18" d="M135.73 1162.59c4.86-4.75 11.43-5.76 13.8-3.39s.4 8.19-4.4 13c-2 2-4.55 4.5-6.56 5.42a5.5 5.5 0 0 1-6.43-1c-1.37-1.49-1.19-6.93-1.19-8.38.66-1.73 2.46-3.38 4.78-5.65z" transform="translate(-48.83)"/>
            <ellipse class="cls-4" cx="138.85" cy="1165.9" rx="8.22" ry="4.27" transform="rotate(-41.31 114.49 1230.784)"/>
            <path class="cls-4" d="M97.57 1148.75c5.6-2.45 5.85-5.39 6-6.64 0 0 7-46 10.45-76.4a442.2 442.2 0 0 0 2.44-48.13l10.68 66.26 4.94 85.52c0 .09.54 3.58 4.91 2.06 4-1.41 5.92-3.13 6.76-6.41.56-2.79 12.63-61.35 15.6-86.35 3-25.6 10.49-127.7 6.65-135.72l-98.77 3.37 19.34 122.48 5.43 77.62s.34 2.2 1.79 2.6a6.2 6.2 0 0 0 3.78-.26z" transform="translate(-48.83)"/>
            <path class="cls-19" d="M131.56 1070.19a32.66 32.66 0 0 0 12.47.76c12.8-1.79 26.24-15.69 26.24-15.69v-16.32c0-17.31-.07-83.07-.07-83.07-.44-4.52-1-8.79-1.72-12.83-2.47-12.12-7.09-19.34-17.18-27.38a33.8 33.8 0 0 0-4.41-2.91c-12.86-7.25-37.45-12.89-53.43-6.74-21 8.09-21 33-21 32.91v94.41A214 214 0 0 0 98.23 1053c13.47 8.64 30.15 16.35 33.33 17.19z" transform="translate(-48.83)"/>
            <path class="cls-6" d="M62.33 834.77c-8.06 17.1-11.7 44.55-13 68.36l23.39 2.48L95.06 848" transform="translate(-48.83)"/>
            <path class="cls-4" d="M67.5 953.46s.84 8.53 1.42 10.95c.37 1.54.6 2.59.89 3.71.4 1.55.5 2.31 0 2.69s-1.4.49-2.29-2.65a13.7 13.7 0 0 0 2.89 5.75c1.68 1.81 4.13 3.64 3.48 4.59s-2.45 0-2.45 0-.21 1.55-2.44.33c0 0-.26 1.25-2.52-.33 0 0-.89 1-3-1s-9.48-10.07-9.63-25z" transform="translate(-48.83)"/>
            <path class="cls-6" d="M49.34 902.66c-2.33 41.67 4.15 54.46 4.15 54.46l14.13.38 5.07-51.89" transform="translate(-48.83)"/>
            <circle class="cls-6" cx="12.27" cy="903.35" r="11.77"/>
            <circle class="cls-6" cx="29.37" cy="842.58" r="17.69"/>
            <path class="cls-6" d="M173.88 858.23C177.34 882.49 176 973.7 176 973.7c0 19.47-4.9 34.8-31.6 38.54a44.83 44.83 0 0 1-15-.91c-20.64-4.41-45.69-19.31-55.46-28.14-16.37-14.8-15.7-28.78-15.7-41v-89c0 .06 0-29.89 25.3-39.62 19.24-7.41 48.86-.62 64.34 8.12 0 .06 22.39 11.25 26 36.54z" transform="translate(-48.83)"/>
            <path class="cls-16" d="M171.95 850.08a14.21 14.21 0 0 0-10.42-4.82c-15.44 0-14.39 17.5-14.39 17.5v98.17c0 37.76-8.56 48.24-14.14 51.06a40.8 40.8 0 0 0 11.42.26c26.7-3.74 31.6-19.07 31.6-38.54 0 0 1.31-91.21-2.15-115.48a46.2 46.2 0 0 0-1.92-8.15z" transform="translate(-48.83)"/>
            <path class="cls-6" d="M131.66 859.31l15 77.61 28.25-5.23s-.17-5.92-.34-13.42c-.73-31.93 2.08-55-3.68-71.63-2.74-7.92-43.54-4.53-39.21 12.68" transform="translate(-48.83)"/>
            <path class="cls-4" d="M165.63 995.63s5.59 15.12 5.49 18.23c-.08 2.6-.68 4.15.86 4.92 2.06 1 2.88-.52 2.88-.52a2.32 2.32 0 0 0 3.54-1.08s2 1.34 3-1.91c0 0 2.18 1.8 2.76-4.36.69-7.29-5-18.57-5.05-18.7z" transform="translate(-48.83)"/>
            <path class="cls-4" d="M172.36 1019a5 5 0 0 1-2.84-3.22c-.82-2.54.52-4.86 2.91-4.81 0-.05 4.57 8.75-.07 8.03z" transform="translate(-48.83)"/>
            <path class="cls-6" d="M174.86 931.35l6.44 67.87-13.68 6.45s-13.86-33.76-21.34-70.13" transform="translate(-48.83)"/>
            <circle class="cls-6" cx="160.47" cy="932.74" r="14.45" transform="rotate(-29.16 135.999 1026.488)"/>
            <circle class="cls-6" cx="152.11" cy="855.63" r="20.86" transform="rotate(-.22 125.012 13563.747)"/>
            <path class="cls-4" d="M140.47 792.61c-.15 14.62-9.36 26.38-20.57 26.27s-20.19-12.06-20-26.69c.06-5.72-.36-13.41 2.05-17.72 3.75-6.69 11.7-8.62 18.53-8.54 11.17.07 20.14 12.07 19.99 26.68z" transform="translate(-48.83)"/>
            <path class="cls-20" d="M140.47 792.61c-.15 14.62-9.36 26.38-20.57 26.27s-20.19-12.06-20-26.69c.06-5.72-.36-13.41 2.05-17.72 3.75-6.69 11.7-8.62 18.53-8.54 11.17.07 20.14 12.07 19.99 26.68z" transform="translate(-48.83)"/>
            <path class="cls-4" d="M132.15 803.81h-27.71v11.59c.06 2 1.42 4 4.08 5.55 5.42 3.13 14.18 3.13 19.57 0 2.6-1.51 3.93-3.47 4-5.46v-.09z" transform="translate(-48.83)"/>
            <path class="cls-21" d="M84.45 787.23c5.13-7.11 3.79-22.78 10.26-30.77s18.72-6.1 18.72-6.1c7.12-4.68 18.5 3.69 28 15 11.69 14-5.55 20-5.55 20s-6.45 13.69-.08 21.56c0 0 9.31 10.14 5.15 21.48-2.25 6.15-7.41 9.73-9.63 15.87-1.88 5.18-.43 15.06 8.72 17 0 0-9.29 9.92-34.79 7.38-13.58-1.35-30.16-9.23-25-27.12 6.82-24.06-13.86-29.26 4.2-54.3z" transform="translate(-48.83)"/>
            <g class="cls-7 cls-22">
                <path class="cls-5" d="M753.94 683.8l-5-2.87-244.56 142.14c-16.57 9.63-38.31 14.44-60.11 14.44s-43.59-4.81-60.27-14.44L269.49 757a5.46 5.46 0 0 0-5 0c-1.36.79-1.35 2.08 0 2.87L379 825.98c18 10.41 41.66 15.63 65.22 15.63s47.14-5.21 65.06-15.63L753.94 683.8M775.84 667.79a6.07 6.07 0 0 0-3.49-.66l-33 3c-3.27.29-4.57 2.62-2.22 4l11.87 6.81 5 2.87 11.16 6.44c2.35 1.36 6.35.6 6.85-1.3l5-19.15a1.85 1.85 0 0 0-1.14-2" transform="translate(-48.83)"/>
            </g>
            <path class="cls-23" d="M147.23 580.16L438 743.64l-2.98 1.68-290.66-163.48 2.87-1.68z"/>
            <path class="cls-5" d="M250.13 640.05l-2.87 1.67V155.04l-.01-.01 2.87-1.67.01 486.69z"/>
            <path class="cls-24" d="M250.13 640.05l-2.87 1.67V155.04l-.01-.01 2.87-1.67.01 486.69z"/>
            <path class="cls-5" d="M147.11 580.16l-2.87 1.67V97.15h-.01l2.87-1.68.01 484.69z"/>
            <path class="cls-24" d="M147.11 580.16l-2.87 1.67V97.15h-.01l2.87-1.68.01 484.69z"/>
            <path class="cls-6" d="M434.84 745.32L144.18 581.83l290.66 163.49z"/>
            <path class="cls-25" d="M144.17 97.15l2.9-1.41 290.68 163.75.01 484.42-2.9 1.54-290.69-163.62V96.77"/>
            <path class="cls-15" d="M437.77 743.65l-2.88 1.67.01-484.68-.01-.01 2.87-1.67.01 484.69z"/>
            <path class="cls-6" d="M147.1 95.47l290.66 163.49-2.87 1.67L144.23 97.15l2.87-1.68z"/>
            <path class="cls-5" d="M144.23 97.15l2.87-1.68 290.66 163.49.01 484.69-2.88 1.67.01-484.68-.01-.01L144.23 97.15z"/>
            <path class="cls-23" d="M437.77 743.65l-2.88 1.67.01-484.68-.01-.01 2.87-1.67.01 484.69z"/>
            <path class="cls-26" d="M147.1 95.47l290.66 163.49-2.87 1.67L144.23 97.15l2.87-1.68z"/>
            <g class="cls-27 cls-28">
                <path class="cls-29" d="M361.21 198.61L212.76 659.97l33.87 28.55 165.93-453.6-51.35-36.31zM337.49 182.13L195.88 638.35l11.9 13.59 146.27-460.28-16.56-9.53z"/>
                <path class="cls-29" d="M408.75 225.83L267.39 682.05v6.7l146.14-444.48-4.78-18.44z"/>
            </g>
            <g class="cls-7 cls-30">
                <path class="cls-5" d="M833.93 773.07l-5-2.87-265.69 154.42c-17.92 10.41-26.85 24.09-26.77 37.73s9.16 27.32 27.2 37.73L813 1144a5.45 5.45 0 0 0 4.94 0c1.36-.79 1.36-2.08 0-2.86L568.6 997.22c-16.68-9.63-25.05-22.24-25.13-34.86s8.16-25.23 24.74-34.86l265.72-154.43M856.54 757.46a6.07 6.07 0 0 0-3.49-.66l-33 3c-3.28.29-4.57 2.62-2.22 4l11.17 6.4 5 2.87 11.87 6.85c2.36 1.36 6.36.6 6.86-1.29l5-19.15a1.86 1.86 0 0 0-1.15-2" transform="translate(-48.83)"/>
            </g>
            <path class="cls-2" d="M185.32 699.79c-21.78 12.66-25.61 31.14-8.53 41.07s48.87 7.7 70.65-5 25.62-31.14 8.53-41.07-48.88-7.66-70.65 5z" transform="translate(-48.83)"/>
            <path class="cls-3" d="M193.06 731.53c4.72 4.72 10.44 6.66 12.78 4.32s.41-8.06-4.31-12.78-10.44-6.66-12.78-4.32c-1.41 1.41-1.31 5.11-1.31 6.53.79 1.46 3.75 4.38 5.62 6.25z" transform="translate(-48.83)"/>
            <ellipse class="cls-4" cx="195.74" cy="723.85" rx="3.83" ry="7.73" transform="rotate(-46.33 171.278 780.848)"/>
            <path class="cls-3" d="M235.33 707.34c4.53 4.53 10 6.39 12.28 4.14s.39-7.74-4.14-12.28-10-6.4-12.28-4.15c-1.36 1.35-1.26 4.91-1.26 6.27.76 1.41 3.59 4.22 5.4 6.02z" transform="translate(-48.83)"/>
            <path class="cls-4" d="M235.36 702.62c3 2.83 6.51 3.93 7.91 2.46s.13-5-2.83-7.78-6.51-3.93-7.91-2.46-.13 4.96 2.83 7.78z" transform="translate(-48.83)"/>
            <path class="cls-19" d="M187.43 643.07s-17-68.29-22.93-111.34L268 513.32c.44 20.93-5.14 62.93-7.5 91.81-3.5 43.49-18.5 93.7-18.5 93.7-.33 1.58-2.08 2.78-5.58 2.78-3.9 0-6.61-1.32-6.61-3.15l1.57-69.81-7.62-59.38s-3.69 44.25-6.43 67.89-16.71 84.43-16.71 84.43c0 2.47-1.81 4.49-6 4.49s-7.09-1.83-7.12-4.28z" transform="translate(-48.83)"/>
            <path class="cls-6" d="M269.58 386.78c8 16.87 11.54 43.95 12.85 67.45l-23.07 2.45-22.06-56.87" transform="translate(-48.83)"/>
            <path class="cls-4" d="M264.48 503.87s-.83 8.42-1.4 10.8c-.36 1.52-.59 2.56-.87 3.66-.39 1.53-.49 2.28 0 2.65s1.38.48 2.25-2.61a13.52 13.52 0 0 1-2.85 5.67c-1.66 1.78-4.08 3.59-3.43 4.53s2.42 0 2.42 0 .21 1.53 2.4.32c0 0 .26 1.23 2.48-.32 0 0 .88 1 2.92-1s9.35-9.94 9.5-24.7z" transform="translate(-48.83)"/>
            <path class="cls-6" d="M282.4 453.76c2.3 41.11-4.09 53.73-4.09 53.73l-13.94.38-5-51.2" transform="translate(-48.83)"/>
            <circle class="cls-6" cx="221.96" cy="454.45" r="11.61"/>
            <circle class="cls-6" cx="205.09" cy="394.5" r="17.45"/>
            <path class="cls-6" d="M259.75 536.73c-9.55 8.81-34.35 23.41-54.71 27.77a44.22 44.22 0 0 1-14.82.9c-26.34-3.69-31.18-18.82-31.18-38l.08-98.68c.12-36.5 27.69-51.23 27.69-51.23 15.27-8.62 44.49-15.31 63.47-8 25 9.6 24.95 39.15 25 39.09s2.2 16.8-4.7 37c-.05-.01 15.42 66.93-10.83 91.15z" transform="translate(-48.83)"/>
            <path class="cls-2" d="M164.15 403.76a18.32 18.32 0 0 1 14.65-4.05c11.29 1.41 8.74 14.61 8.74 14.61S176 518.61 201.38 539.07c17.92 14.44 41.64 6.92 54.06 1.24-11.44 8.76-32.61 20.38-50.44 24.19a44.22 44.22 0 0 1-14.82.9c-26.34-3.69-31.18-18.82-31.18-38l.08-98.68a62.63 62.63 0 0 1 5.07-24.96z" transform="translate(-48.83)"/>
            <path class="cls-4" d="M227.17 320.82c6.41-.26 13.93 1.33 17.65 7.51 2.39 4 2.21 11.22 2.42 16.59.39 9.71-3.48 19.89-9.51 25.17v2.54c-.07 2.08-1.46 4.15-4.21 5.73-5.59 3.23-14.63 3.23-20.19 0-2.68-1.56-4.05-3.58-4.14-5.63v-17.87c0-.3-2.37-9.56-2.39-9.87-.59-13.73 9.84-23.74 20.37-24.17z" transform="translate(-48.83)"/>
            <path class="cls-10" d="M229.29 373.76a13.66 13.66 0 0 0 8.45-3.66v2.54c-.07 2.08-1.46 4.15-4.21 5.73-5.59 3.23-14.63 3.23-20.19 0-2.68-1.56-4.05-3.58-4.14-5.63v-25.38c.85 13.44 9.8 26.81 20.09 26.4z" transform="translate(-48.83)"/>
            <path class="cls-21" d="M209.15 347.81l1.79 9.07-1.79 5.68c-1.59-1.7-2.32-5.63-3.84-8.92-4.77-10.28-3.64-18.18-2.9-26.19.31-3.35 1.33-17 11.39-17.78 0 0 5.31-5.44 20.16.29 8.6 3.32 13.58-.27 13.58-.27s.72 3.42-.64 5.89c0 0 8.06 7 .25 26.34-.14-4.83 0-8.61-2-11.88-1.39-2.31-4.81-2.88-7.28-3.21a13.73 13.73 0 0 0-4.31.93s-3.83-1.15-5.4-1c-10.93.86-10.79 5.35-10.79 5.35l-.47 5.06v17.32s.5 8.9 8.92 10.19c3.48.53 6.93-3.06 6.93-3.06h2.55s2.13 3.31 4.14 2.3a12.23 12.23 0 0 0 6.55-8.26c-.46 2.36-3.72 16.92-14.3 18.18-12.95 1.54-17.88-6.41-17.88-15.41v-15.94a2.63 2.63 0 0 0-2.9-3.12c-3.36 0-2.57 4.63-1.76 8.44z" transform="translate(-48.83)"/>
            <path class="cls-12" d="M246.05 355.64c0-.21.06-.33.06-.33s-.01.12-.06.33z" transform="translate(-48.83)"/>
            <path class="cls-21" d="M229.81 354h8.59s2.44 2.22 2.44 4.4h-13.46c0-2.16 2.43-4.4 2.43-4.4z" transform="translate(-48.83)"/>
            <path class="cls-4" d="M175.3 549.24s.67 8.43 1.2 10.82c.34 1.52.54 2.57.81 3.68.36 1.53.45 2.29-.07 2.65s-1.39.46-2.21-2.66a13.52 13.52 0 0 0 2.75 5.73c1.62 1.81 4 3.66 3.35 4.59s-2.42 0-2.42 0-.24 1.52-2.41.28c0 0-.28 1.23-2.48-.37 0 0-.89 1-2.9-1.08s-9.17-10.11-9.06-24.87z" transform="translate(-48.83)"/>
            <path class="cls-6" d="M178.7 490.55l-2.31 68.28-13.39-.41s-10.21-26.86-12.72-69.75" transform="translate(-48.83)"/>
            <circle class="cls-6" cx="164.56" cy="488.72" r="14.26" transform="rotate(-88.97 140.125 513.57)"/>
            <path class="cls-6" d="M200.36 418.78l-22.22 74.32-27.83-4.64s-.44-6.89-.45-14.3c0-31.17 4.43-54.61 12.85-71.23" transform="translate(-48.83)"/>
            <circle class="cls-6" cx="181.05" cy="412.02" r="20.45" transform="rotate(-89.78 156.648 436.53)"/>
            <path class="cls-23" d="M850.33 990.15l290.77 163.48v.01l-2.99 1.67-290.66-163.48 2.88-1.68z"/>
            <path class="cls-5" d="M953.22 1050.04l-2.87 1.67V565.03h-.01l2.88-1.68v486.69z"/>
            <path class="cls-24" d="M953.22 1050.04l-2.87 1.67V565.03h-.01l2.88-1.68v486.69z"/>
            <path class="cls-5" d="M850.2 990.15l-2.87 1.68V507.15l-.01-.01 2.88-1.68v484.69z"/>
            <path class="cls-24" d="M850.2 990.15l-2.87 1.68V507.15l-.01-.01 2.88-1.68v484.69z"/>
            <path class="cls-6" d="M1137.93 1155.32l-290.66-163.5 290.66 163.49v.01z"/>
            <path class="cls-25" d="M847.26 507.15l2.9-1.42 290.68 163.75h.01l.01 484.43-2.91 1.54-290.69-163.63V506.77"/>
            <path class="cls-15" d="M1140.86 1153.64l-2.88 1.67.01-484.68h-.01l2.87-1.68.01 484.69z"/>
            <path class="cls-6" d="M850.2 505.47l290.65 163.48-2.87 1.68-290.66-163.48 2.88-1.68z"/>
            <path class="cls-5" d="M847.32 507.15l2.88-1.68 290.65 163.48.01 484.69-2.88 1.67.01-484.68h-.01L847.32 507.15z"/>
            <path class="cls-23" d="M1140.86 1153.64l-2.88 1.67.01-484.68h-.01l2.87-1.68.01 484.69z"/>
            <path class="cls-26" d="M850.2 505.47l290.65 163.48-2.87 1.68-290.66-163.48 2.88-1.68z"/>
            <g class="cls-27 cls-31">
                <path class="cls-29" d="M1064.3 608.61l-148.44 461.35 33.87 28.56 165.92-453.61-51.35-36.3zM1040.58 592.13l-141.6 456.22 11.89 13.58 146.27-460.27-16.56-9.53z"/>
                <path class="cls-29" d="M1111.84 635.82l-141.36 456.22v6.71l146.15-444.48-4.79-18.45z"/>
            </g>
            <g class="cls-7 cls-32">
                <path class="cls-11" d="M377.27 412.1c-3.24-1.37-4.31-.91-4.31.46a3.14 3.14 0 0 0 1.78 2.72 2.2 2.2 0 0 0 2.53-.06v-3.12m23.89 7.9c-1.44-.83-2.68-.44-3 1.64l5.59 3.23a5.3 5.3 0 0 0-2.58-4.86m-30.4-15.76l-1.64-4.43a10.48 10.48 0 0 1 6.62 1.49c4 2.29 6.14 6.13 6.13 11.58v10.18l-3.75-2.16-.3-2-.13-.07a4.65 4.65 0 0 1-4.5-.34 9.67 9.67 0 0 1-4.6-8c0-3.73 2.6-4.28 8.72-1.47a4.56 4.56 0 0 0-2.43-4 6.47 6.47 0 0 0-4.09-.75m30.79 30.64a16.3 16.3 0 0 1-7.8-13.84c0-5.77 3.61-7.25 7.32-5.11 4.41 2.54 6.58 7.5 6.56 12.34a11.11 11.11 0 0 1-.2 2.22l-9.26-5.35a8.17 8.17 0 0 0 4 6.09 5.12 5.12 0 0 0 3.34.75l1.52 4.08a8.22 8.22 0 0 1-5.5-1.16m-42.92-29.34c1.9 1.1 2.84.78 2.85-.62s-1.15-2.6-2.93-4.49l-2.65-2.82c-2.09-2.18-4.08-5.34-4.07-8.75 0-3.87 3-5.22 7.26-2.77a19.17 19.17 0 0 1 6.55 6.87l-2.35 2a13.21 13.21 0 0 0-4.21-4.3c-1.59-.92-2.59-.7-2.59.63s1.34 2.71 3.08 4.54l2.61 2.73c2.46 2.57 4 5.38 4 8.67 0 3.87-2.83 5.63-7.7 2.81a22.46 22.46 0 0 1-7.51-7.72l2.63-2.1a17 17 0 0 0 5 5.34m31.28 22.63c-3.15-1.82-4.21-4.8-4.2-8.39l.06-19.61 4.58 2.65-.06 19.83a2.15 2.15 0 0 0 .81 1.94 2.1 2.1 0 0 0 .56.25l.55 4.23a6.06 6.06 0 0 1-2.31-.9m-10.38-83.45c-31.12-18-56.43-3.54-56.53 32.22s25 79.32 56.17 97.29 56.44 3.54 56.54-32.21-25-79.33-56.17-97.3" transform="translate(-48.83)"/>
                <path class="cls-33" d="M359.09 386.06c-4.24-2.45-7.25-1.1-7.26 2.77 0 3.4 2 6.57 4.07 8.75l2.65 2.82c1.78 1.89 2.93 3 2.93 4.49s-.94 1.72-2.85.62a17 17 0 0 1-5-5.34l-2.63 2.1a22.46 22.46 0 0 0 7.51 7.72c4.87 2.81 7.69 1.06 7.7-2.81 0-3.29-1.55-6.1-4-8.67l-2.61-2.73c-1.75-1.83-3.09-3.11-3.08-4.54s1-1.55 2.59-.63a13.21 13.21 0 0 1 4.21 4.3l2.35-2a19.17 19.17 0 0 0-6.55-6.87M374.73 415.27a3.14 3.14 0 0 1-1.78-2.72c0-1.36 1.07-1.82 4.31-.46v3.12a2.2 2.2 0 0 1-2.53.06m1-14a10.48 10.48 0 0 0-6.62-1.49l1.64 4.43a6.47 6.47 0 0 1 4.09.75 4.56 4.56 0 0 1 2.43 4c-6.12-2.81-8.71-2.27-8.72 1.47a9.67 9.67 0 0 0 4.6 8 4.65 4.65 0 0 0 4.5.34l.13.07.3 2 3.75 2.16v-10.18c0-5.45-2.16-9.29-6.13-11.58M390.36 402.78l-4.58-2.65-.06 19.61c0 3.59 1 6.57 4.2 8.39a6.06 6.06 0 0 0 2.31.9l-.55-4.23a2.1 2.1 0 0 1-.56-.25 2.15 2.15 0 0 1-.81-1.94l.06-19.83M398.15 421.61c.32-2.08 1.57-2.47 3-1.64a5.3 5.3 0 0 1 2.58 4.86l-5.59-3.23m2.92-5.71c-3.71-2.14-7.31-.66-7.32 5.11a16.3 16.3 0 0 0 7.8 13.84 8.22 8.22 0 0 0 5.5 1.16l-1.52-4.08a5.12 5.12 0 0 1-3.34-.75 8.17 8.17 0 0 1-4-6.09l9.26 5.35a11.11 11.11 0 0 0 .2-2.22c0-4.83-2.16-9.79-6.56-12.34" transform="translate(-48.83)"/>
            </g>
            <g class="cls-7 cls-34">
                <path class="cls-11" d="M1085.27 818c-3.24-1.37-4.31-.91-4.31.46a3.14 3.14 0 0 0 1.77 2.71 2.21 2.21 0 0 0 2.53-.05V818m23.89 7.86c-1.44-.83-2.69-.44-3 1.65l5.58 3.22a5.3 5.3 0 0 0-2.58-4.87m-30.4-15.75l-1.65-4.44a10.49 10.49 0 0 1 6.63 1.49c4 2.29 6.14 6.13 6.13 11.58v10.18l-3.75-2.16-.31-2-.12-.07a4.66 4.66 0 0 1-4.5-.34 9.68 9.68 0 0 1-4.61-8c0-3.73 2.61-4.28 8.73-1.46a4.57 4.57 0 0 0-2.43-4 6.45 6.45 0 0 0-4.09-.75m30.79 30.64a16.31 16.31 0 0 1-7.81-13.85c0-5.77 3.61-7.25 7.33-5.11 4.4 2.54 6.57 7.5 6.56 12.33a11.33 11.33 0 0 1-.19 2.23l-9.27-5.35a8.19 8.19 0 0 0 4 6.09 5.12 5.12 0 0 0 3.34.75L1115 842a8.18 8.18 0 0 1-5.5-1.16m-42.92-29.35c1.91 1.1 2.84.78 2.85-.62s-1.15-2.6-2.92-4.49l-2.65-2.82c-2.09-2.17-4.08-5.34-4.07-8.74 0-3.87 3-5.23 7.26-2.77a19.17 19.17 0 0 1 6.55 6.87l-2.35 2a13.28 13.28 0 0 0-4.21-4.3c-1.59-.92-2.59-.7-2.6.62s1.34 2.71 3.08 4.54l2.62 2.73c2.46 2.57 4 5.37 4 8.67 0 3.87-2.83 5.63-7.69 2.82a22.44 22.44 0 0 1-7.51-7.72l2.63-2.1a17 17 0 0 0 5 5.33m31.28 22.63c-3.15-1.82-4.21-4.8-4.2-8.39l.06-19.61 4.59 2.65-.06 19.83a1.88 1.88 0 0 0 1.37 2.19l.55 4.23a6.1 6.1 0 0 1-2.31-.9m-10.37-83.44c-31.13-18-56.43-3.54-56.53 32.22s25 79.32 56.17 97.29 56.43 3.54 56.53-32.22-25-79.32-56.17-97.29" transform="translate(-48.83)"/>
                <path class="cls-33" d="M1067.09 792c-4.25-2.45-7.25-1.1-7.26 2.77 0 3.4 2 6.57 4.07 8.74l2.65 2.82c1.77 1.88 2.93 3 2.92 4.49s-.94 1.72-2.85.62a17 17 0 0 1-5-5.33l-2.63 2.1a22.44 22.44 0 0 0 7.51 7.72c4.87 2.81 7.68 1.06 7.69-2.82 0-3.29-1.54-6.09-4-8.67l-2.62-2.73c-1.75-1.83-3.09-3.11-3.08-4.54s1-1.54 2.6-.62a13.28 13.28 0 0 1 4.21 4.3l2.35-2a19.17 19.17 0 0 0-6.55-6.87M1082.73 821.22a3.14 3.14 0 0 1-1.77-2.71c0-1.36 1.07-1.83 4.31-.46v3.12a2.21 2.21 0 0 1-2.53.05m1-14a10.49 10.49 0 0 0-6.63-1.49l1.65 4.44a6.45 6.45 0 0 1 4.09.75 4.57 4.57 0 0 1 2.43 4c-6.12-2.81-8.72-2.27-8.73 1.46a9.68 9.68 0 0 0 4.61 8 4.66 4.66 0 0 0 4.5.34l.12.07.31 2 3.75 2.16v-10.18c0-5.45-2.17-9.3-6.13-11.58M1098.36 808.73l-4.59-2.65-.06 19.61c0 3.59 1 6.57 4.2 8.39a6.1 6.1 0 0 0 2.31.9l-.55-4.23a1.88 1.88 0 0 1-1.37-2.19l.06-19.83M1106.15 827.56c.31-2.08 1.57-2.48 3-1.65a5.3 5.3 0 0 1 2.58 4.87l-5.58-3.22m2.92-5.71c-3.72-2.15-7.31-.67-7.33 5.11a16.31 16.31 0 0 0 7.81 13.85A8.18 8.18 0 0 0 1115 842l-1.52-4.07a5.12 5.12 0 0 1-3.34-.75 8.19 8.19 0 0 1-4-6.09l9.27 5.35a11.33 11.33 0 0 0 .19-2.23c0-4.83-2.16-9.79-6.56-12.33" transform="translate(-48.83)"/>
            </g>
            <path d="M1285.27 521.9c22.07 12.83 26 31.57 8.65 41.63s-49.54 7.81-71.61-5-26-31.57-8.65-41.63 49.53-7.83 71.61 5z" transform="translate(-48.83)" class="cls-17"/>
            <path class="cls-18" d="M1277.94 554.08c-4.78 4.79-10.58 6.75-13 4.38s-.42-8.17 4.37-13 10.58-6.75 13-4.38c1.43 1.43 1.33 5.18 1.33 6.62-.8 1.51-3.8 4.48-5.7 6.38z" transform="translate(-48.83)"/>
            <path class="cls-4" d="M1277.91 549.1c-3.13 3-6.87 4.15-8.35 2.6s-.14-5.22 3-8.21 6.87-4.15 8.35-2.6.09 5.22-3 8.21z" transform="translate(-48.83)"/>
            <path class="cls-18" d="M1235.1 529.55c-4.59 4.6-10.16 6.48-12.44 4.2s-.4-7.85 4.19-12.45 10.16-6.48 12.44-4.21c1.38 1.37 1.28 5 1.28 6.35-.77 1.44-3.64 4.29-5.47 6.11z" transform="translate(-48.83)"/>
            <path class="cls-4" d="M1235.07 524.77c-3 2.87-6.6 4-8 2.5s-.13-5 2.87-7.89 6.6-4 8-2.49.13 5.01-2.87 7.88z" transform="translate(-48.83)"/>
            <path class="cls-19" d="M1283.65 464.4s12.15-68.05 18.14-111.69L1208.37 335c-.44 21.22-1.18 61.66 1.2 90.92 3.6 44.09 18.78 95 18.78 95 .33 1.6 2.11 2.82 5.66 2.82 4 0 6.7-1.33 6.7-3.2l-1.59-70.76 7.72-60.18s3.74 44.86 6.52 68.81 16.95 85.59 16.95 85.59c0 2.51 1.83 4.55 6.11 4.55s7.19-1.85 7.21-4.34z" transform="translate(-48.83)"/>
            <path class="cls-4" d="M1205.55 323.31s.84 8.53 1.42 10.95c.37 1.54.6 2.59.89 3.71.4 1.55.5 2.31 0 2.69s-1.4.49-2.29-2.65a13.69 13.69 0 0 0 2.89 5.75c1.68 1.8 4.13 3.64 3.48 4.59s-2.45 0-2.45 0-.21 1.55-2.44.33c0 0-.26 1.25-2.52-.33 0 0-.89 1-3-1s-9.48-10.07-9.63-25z" transform="translate(-48.83)"/>
            <path class="cls-4" d="M1187.39 272.52c-2.33 41.67 5 54.49 5 54.49l13.29.36 5.07-51.89" transform="translate(-48.83)"/>
            <circle class="cls-4" cx="1150.32" cy="273.21" r="11.77"/>
            <path class="cls-6" d="M1200.38 204.63c-8.06 17.1-11.7 44.55-13 68.36l23.39 2.48 22.36-57.64" transform="translate(-48.83)"/>
            <circle class="cls-6" cx="1167.42" cy="212.44" r="17.69"/>
            <path class="cls-6" d="M1217.2 273.25a5 5 0 0 1-5.43 4.53l-23.69-2.14a5 5 0 0 1-4.53-5.43l.51-5.64a5 5 0 0 1 5.43-4.53l23.69 2.14a5 5 0 0 1 4.53 5.43z" transform="translate(-48.83)"/>
            <path class="cls-6" d="M1310.28 231.65c3.46 24.26 2.15 115.48 2.15 115.48 0 19.47-4.9 34.8-31.6 38.54a44.87 44.87 0 0 1-15-.91c-20.64-4.42-45.69-19.31-55.46-28.14-16.37-14.8-15.7-28.78-15.7-41v-89c0 .06 0-29.89 25.3-39.62 19.24-7.4 48.86-.62 64.34 8.12-.03.06 22.37 11.25 25.97 36.53z" transform="translate(-48.83)"/>
            <path class="cls-16" d="M1308.35 223.51a14.21 14.21 0 0 0-10.42-4.82c-15.44 0-14.39 17.49-14.39 17.49v98.17c0 37.76-8.56 48.24-14.14 51.06a40.88 40.88 0 0 0 11.42.26c26.7-3.74 31.6-19.07 31.6-38.54 0 0 1.31-91.21-2.15-115.48a46.32 46.32 0 0 0-1.92-8.14z" transform="translate(-48.83)"/>
            <path class="cls-4" d="M1243.18 137.74c-6.5-.26-14.12 1.35-17.89 7.61-2.42 4-2.24 11.37-2.46 16.82-.39 9.84 3.53 20.16 9.64 25.51v2.57c.07 2.11 1.48 4.2 4.27 5.81 5.67 3.27 14.83 3.27 20.46 0 2.72-1.58 4.11-3.63 4.19-5.7v-25.71c0-.31 0-.61.05-.92.62-13.93-7.59-25.56-18.26-25.99z" transform="translate(-48.83)"/>
            <path class="cls-35" d="M1241 191.4a13.86 13.86 0 0 1-8.56-3.71v2.57c.07 2.11 1.48 4.2 4.27 5.81 5.67 3.27 14.83 3.27 20.46 0 2.72-1.58 4.11-3.63 4.19-5.7V164.65c-.83 13.61-9.89 27.17-20.36 26.75z" transform="translate(-48.83)"/>
            <path class="cls-21" d="M1270.46 144.5c-.53-3.37-4.34-13.42-13.72-18.06s-24.66-4-27.86-3c-4.4 1.28-5.34 4.17-4.35 6.35 0 0-8.27 2.18-5.43 8-3.25 6.79-3.05 13.75 3.84 21.41.14-4.9.37-10.45 2.36-13.77a14.14 14.14 0 0 1 5.58-5.22 20.78 20.78 0 0 1 22.18 9l1.38 14.86a3.56 3.56 0 0 1 7 1V175.85a28.48 28.48 0 0 0 5-7.5c4.84-10.46 4.92-18.17 4.02-23.85z" transform="translate(-48.83)"/>
            <path class="cls-4" d="M1295.94 369.29s-.68 8.55-1.22 11c-.34 1.54-.55 2.6-.82 3.73-.37 1.55-.45 2.32.07 2.68s1.41.46 2.24-2.69a13.69 13.69 0 0 1-2.79 5.8c-1.64 1.83-4.06 3.71-3.39 4.65s2.45 0 2.45 0 .24 1.54 2.44.29c0 0 .29 1.24 2.51-.37 0 0 .91 1 2.94-1.09s9.3-10.24 9.18-25.21z" transform="translate(-48.83)"/>
            <path class="cls-4" d="M1292.5 309.8l2.34 69.21 13.55-.42s10.35-27.23 12.89-70.7" transform="translate(-48.83)"/>
            <circle class="cls-4" cx="1306.83" cy="307.95" r="14.45" transform="rotate(-1.03 1281.787 3024.44)"/>
            <path class="cls-6" d="M1270.55 237.06l22.53 75.34 28.21-4.71s.45-7 .45-14.5c0-31.6-4.49-55.36-13-72.2" transform="translate(-48.83)"/>
            <circle class="cls-6" cx="1290.11" cy="230.2" r="20.73" transform="rotate(-.22 1256.49 12946.082)"/>
            <path class="cls-6" d="M1324 308.69a5 5 0 0 1-4.35 5.58l-23.6 2.92a5 5 0 0 1-5.58-4.35l-.69-5.62a5 5 0 0 1 4.35-5.58l23.6-2.92a5 5 0 0 1 5.58 4.35z" transform="translate(-48.83)"/>
            <path class="cls-2" d="M935 1178.75c23.16 13.46 27.25 33.13 9.07 43.69s-52 8.19-75.15-5.27-27.25-33.13-9.08-43.7 52.04-8.19 75.16 5.28z" transform="translate(-48.83)"/>
            <path class="cls-4" d="M885.74 977.31s3.12 8.44 4.35 10.74c.78 1.46 1.29 2.47 1.88 3.53.82 1.47 1.12 2.21.7 2.73s-1.29.87-3-2.08a14.34 14.34 0 0 0 4.47 5.07c2.19 1.39 5.16 2.6 4.75 3.74s-2.49.65-2.49.65.19 1.63-2.39 1c0 0 .07 1.34-2.64.34 0 0-.62 1.29-3.28-.27s-12.31-7.71-16.44-22.86z" transform="translate(-48.83)"/>
            <path class="cls-4" d="M853.79 930.57c8.71 42.92 19.39 54 19.39 54l13.75-3.21-8.65-54" transform="translate(-48.83)"/>
            <path class="cls-4" d="M877.86 925a12.35 12.35 0 1 0-8.86 15.09 12.34 12.34 0 0 0 8.86-15.09z" transform="translate(-48.83)"/>
            <path class="cls-6" d="M885.08 857.2a18.56 18.56 0 1 0-13.25 22.66 18.56 18.56 0 0 0 13.25-22.66z" transform="translate(-48.83)"/>
            <path class="cls-6" d="M848.93 858.19c-3.63 19.5 0 48.33 5 72.87l24.4-3.7 7.38-64.47" transform="translate(-48.83)"/>
            <path class="cls-6" d="M883.72 928.68a5.24 5.24 0 0 1-5.09 5.41l-24.95.76a5.24 5.24 0 0 1-5.4-5.08l-.18-5.94a5.24 5.24 0 0 1 5.08-5.4l25-.76a5.23 5.23 0 0 1 5.4 5.08z" transform="translate(-48.83)"/>
            <path class="cls-18" d="M926.27 1203.47c5-5 11.14-7.12 13.63-4.63s.43 8.59-4.61 13.64-11.15 7.12-13.63 4.64c-1.51-1.5-1.39-7.63-1.39-9.14.84-1.57 4-2.51 6-4.51z" transform="translate(-48.83)"/>
            <path class="cls-4" d="M926.37 1202.92c3.29-3.13 7.21-4.35 8.76-2.72s.15 5.49-3.14 8.61" transform="translate(-48.83)"/>
            <path class="cls-18" d="M884.51 1179c5-5 11.15-7.12 13.63-4.63s.41 8.59-4.62 13.64-11.15 7.12-13.63 4.64c-1.5-1.5-1.39-7.63-1.38-9.14.85-1.56 4-2.51 6-4.51z" transform="translate(-48.83)"/>
            <path class="cls-4" d="M884.6 1178.46c3.29-3.13 7.21-4.35 8.76-2.72s.15 5.48-3.13 8.61" transform="translate(-48.83)"/>
            <path class="cls-19" d="M956.75 971.83l-103.66 3.53 20.3 128.55 4.67 79c.08 2.69 2.47 4.88 6.87 4.88s6-2.39 6.09-5.06 7.46-50.13 11.11-82.08a463.2 463.2 0 0 0 2.56-50.51l11.31 69.55 3.4 86.58v.27c0 2.68 2.6 4.88 7.45 4.87 4.63 0 6.43-2.24 6.59-4.78.59-2.93 13.25-66.14 16.37-92.38 3.19-26.85 10.96-134 6.94-142.42z" transform="translate(-48.83)"/>
            <path class="cls-6" d="M965 882.9c3.62 25.47 2.25 121.19 2.25 121.19 0 20.43-5.14 36.52-33.17 40.45a47 47 0 0 1-15.77-1c-21.66-4.63-47.95-20.27-58.2-29.54-17.18-15.53-16.48-30.2-16.48-43v-93.32c0 .07 0-31.37 26.55-41.58 20.2-7.77 51.28-.65 67.52 8.52.05-.01 23.54 11.74 27.3 38.28z" transform="translate(-48.83)"/>
            <path class="cls-6" d="M965 882.9c3.63 25.47 2.26 121.19 2.26 121.19 0 20.43-5.15 36.52-33.17 40.45a47 47 0 0 1-15.76-1c-21.66-4.63-47.95-20.27-58.2-29.54-17.19-15.53-16.48-30.2-16.48-43v-93.32c0 .07 0-31.37 26.55-41.58 20.2-7.77 51.28-.65 67.52 8.52.03-.01 23.52 11.74 27.28 38.28z" transform="translate(-48.83)"/>
            <path class="cls-16" d="M963 874.35a14.9 14.9 0 0 0-10.93-5.06c-16.2 0-15.1 18.36-15.1 18.36v103c0 39.63-9 50.63-14.84 53.59a42.85 42.85 0 0 0 12 .27c28-3.93 33.17-20 33.17-40.45 0 0 1.37-95.73-2.26-121.19a48.13 48.13 0 0 0-2.04-8.52z" transform="translate(-48.83)"/>
            <path class="cls-4" d="M895.61 831.74a33 33 0 0 1-4.8-17.9c.06-6-.38-14.08 2.15-18.6 3.94-7 12.27-9 19.44-9 11.77.12 21.18 12.66 21 28-.1 9.08-3.52 17.11-8.73 22.12v2c-.09 2.08-1.48 2.25-4.21 3.83-5.65 3.29-14.85 3.29-20.54 0-2.79-1.61-4.21-3.72-4.28-5.83v-4.66" transform="translate(-48.83)"/>
            <path class="cls-21" d="M905.6 769.69c-7.37 1.86-13.4 5.7-17.53 14.71-3.06 6.67-2.67 23.8.27 32.19 3.18 9.12 6.72 22.47 23.51 20.66 11.75-1.27 14.73-7.55 16.65-16.8 17.65-15.84 10-35.26 9.3-37a3.52 3.52 0 0 0 1.34-3.68 4 4 0 0 0-2.85-2.89s1.74-3.28-5.36-5.42C923 769 912.36 768 905.6 769.69z" transform="translate(-48.83)"/>
            <path class="cls-20" d="M928.49 820.46c-.84 4.06-1.89 7.55-3.8 10.3v5.64c5.07-4.87 8.43-12.59 8.71-21.35a35.54 35.54 0 0 1-4.91 5.41z" transform="translate(-48.83)"/>
            <path class="cls-36" d="M910 841.09c6.28.55 12.12-.84 15.29-2.62 0 0 6 2.59 7.5 3.28 0 0-19.55 8.08-32.92 1.68-11.74-5.62-6-10.59-6-10.59l1.68-.66v2.92s2.01 4.9 14.45 5.99z" transform="translate(-48.83)"/>
            <path class="cls-37" d="M985 933.65l70.13-17 7.73 11.76s-32.51 21-69.13 34.3" transform="translate(-48.83)"/>
            <circle class="cls-37" cx="988.4" cy="948.86" r="15.17" transform="rotate(-37.54 964.14 1020.78)"/>
            <path class="cls-37" d="M1053 917.87s7.31-5 9.21-6.72c1.21-1.09 2-1.83 2.92-2.64 1.21-1.13 2.07-1.86 2.44-1.31.68 1-.29 3-2.68 5.35a16.26 16.26 0 0 0 4-2.09c3.1-2 5.48-5.38 6.66-5.26s1.22 2.22 1.22 2.22 1.48.05.74 2.24c0 0 2.08.28 1.23 2.79 0 0 1.87-.25 1 2.65s-7.44 8.07-20.91 15.62z" transform="translate(-48.83)"/>
            <path class="cls-6" d="M1002.22 926.88a6.63 6.63 0 0 1 .32 9.37L981 959.3a6.62 6.62 0 0 1-9.36.32l-5.49-5.12a6.63 6.63 0 0 1-.32-9.37l21.5-23.05a6.64 6.64 0 0 1 9.38-.32z" transform="translate(-48.83)"/>
            <path class="cls-6" d="M926.51 898.91l52.73 60.42 15.13-23.06s5.81 1.14 1.78-5.64c-17.15-28.8-24.63-54-38.47-66.27-6.6-5.82-44 21.05-31.16 34.54" transform="translate(-48.83)"/>
            <path class="cls-6" d="M962.32 874.15a21.89 21.89 0 1 0-8.18 29.85 21.89 21.89 0 0 0 8.18-29.85z" transform="translate(-48.83)"/>
            <circle class="cls-38" cx="1194.78" cy="46.5" r="46.5"/>
            <path class="cls-6" d="M1270.36 41.18l-4.07-4.07v-5.76l-5.32-2.2-2.2-5.32H1253l-4.07-4.07-5.32 2.2-5.32-2.2-4.07 4.07h-5.76l-2.2 5.32-5.32 2.2v5.75l-4.07 4.07 2.2 5.32-2.2 5.32 4.07 4.07v5.76l5.32 2.2 2.2 5.32h5.76l4.07 4.07 5.32-2.2 5.32 2.2 4.07-4.07h5.76l2.2-5.32 5.32-2.2v-5.75l4.07-4.07-2.2-5.32zm-25 20v3.13a1.78 1.78 0 1 1-3.57 0v-3.13a8.93 8.93 0 0 1-7.13-8.74 1.78 1.78 0 1 1 3.57 0 5.36 5.36 0 0 0 5.35 5.35c3.15 0 5.35-2 5.35-4.76 0-2.32-1.93-3.94-5.74-4.8-7-1.61-8.52-5.39-8.52-8.28a8.27 8.27 0 0 1 7.13-8.17v-3.11a1.78 1.78 0 1 1 3.57 0v3.16a8.88 8.88 0 0 1 7 7.25 1.78 1.78 0 1 1-3.52.59 5.33 5.33 0 0 0-5.28-4.46c-3.15 0-5.35 2-5.35 4.76 0 .86 0 3.49 5.74 4.8 7.42 1.68 8.52 5.91 8.52 8.28a8.26 8.26 0 0 1-7.08 8.15z" transform="translate(-48.83)"/>
        </g>
    </g>
</svg>
