<svg xmlns="http://www.w3.org/2000/svg" viewBox="0 0 1384.44 848.06">
    <defs>
        <style>
            .cls-1{fill:none}.cls-12,.cls-13,.cls-2,.cls-5,.cls-7,.cls-9{fill:#fff}.cls-3,.cls-5,.cls-8{opacity:.2}.cls-4{opacity:.1}.cls-6,.cls-8{fill:#2b90ff}.cls-10,.cls-7{opacity:.5}.cls-9{opacity:.6}.cls-11{clip-path:url(#clip-path)}.cls-12{opacity:.3}.cls-13{opacity:.2}.cls-13,.cls-22,.cls-23,.cls-24,.cls-25,.cls-29,.cls-40{isolation:isolate}.cls-14{fill:#d8d8d8}.cls-15{fill:#ffcfae}.cls-16{fill:#081b2f}.cls-17{fill:#9eccff}.cls-18{fill:#d3d3d3}.cls-19{fill:#eab896}.cls-20{fill:#10355d}.cls-21{fill:#969696}.cls-22,.cls-24{opacity:.35}.cls-23,.cls-25{opacity:.15}.cls-24{fill:#353535}.cls-25{fill:#5b5b5b}.cls-26{fill:#fffcee}.cls-27{fill:#eae6d8}.cls-28{fill:#d8d4c7}.cls-29{opacity:.1}.cls-30{fill:#444549}.cls-31{fill:#9b9b9b}.cls-32{fill:#cccdce}.cls-33{fill:#f39f00}.cls-34{fill:#424242}.cls-35{fill:#303030}.cls-36{fill:#dbdddd}.cls-37{fill:#c1c1c1}.cls-38{fill:#ccc}.cls-39{fill:#515151}.cls-40{opacity:.3}.cls-41{fill:#b5b5b5}.cls-42{clip-path:url(#clip-path-2)}.cls-43{fill:#fff1dc}.cls-44{fill:#ffb522}.cls-45{fill:#7fb4dd}.cls-46{fill:#5cb947}.cls-47{fill:#30a84a}.cls-48{fill:#089848}.cls-49{fill:#5e3b1a}.cls-50{clip-path:url(#clip-path-3)}
        </style>
        <clipPath id="clip-path">
            <path class="cls-1" d="M824.75 141.8h.03l-.03 416.12-249.56-140.36V1.44L824.75 141.8z"/>
        </clipPath>
        <clipPath id="clip-path-2">
            <path class="cls-1" d="M455.99 620.34l195.06-113.36 235.69 136.09-195.06 113.34-235.69-136.07z"/>
        </clipPath>
        <clipPath id="clip-path-3">
            <path class="cls-1" d="M1335.8 431.82l.03.01-.03 416.11-249.56-140.36V291.47l249.56 140.35z"/>
        </clipPath>
    </defs>
    <title>
        Marketing ROI
    </title>
    <g id="Layer_2" data-name="Layer 2">
        <g id="Layer_1-2" data-name="Layer 1">
            <path class="cls-2" d="M727.62 192.4l156.81 91.53-.27 158.18-83.79 48.53-156.84-91.52.28-158.19 83.81-48.53z"/>
            <path class="cls-3" d="M643.81 240.93l156.82 91.52-.26 158.19-156.84-91.52.28-158.19z"/>
            <path class="cls-4" d="M884.43 283.93l-83.8 48.52-.26 158.19 83.79-48.53.27-158.18z"/>
            <path class="cls-2" d="M884.43 283.93l-83.8 48.52-156.65-91.24.01-6.08 83.79-48.53 156.66 91.24-.01 6.09z"/>
            <path class="cls-3" d="M800.63 332.45l-156.65-91.24.01-6.08 156.66 91.24-.02 6.08z"/>
            <path class="cls-4" d="M800.63 332.45l83.8-48.52.01-6.09-83.79 48.53-.02 6.08z"/>
            <path class="cls-5" d="M577.82 416.12l249.64 140.36-2.57 1.43-249.53-140.35 2.46-1.44z"/>
            <path class="cls-6" d="M666.16 467.54l-2.46 1.43V51.14l-.01-.01 2.47-1.43v417.84z"/>
            <path class="cls-7" d="M666.16 467.54l-2.46 1.43V51.14l-.01-.01 2.47-1.43v417.84z"/>
            <path class="cls-6" d="M577.72 416.12l-2.47 1.44V1.44L577.71 0l.01 416.12z"/>
            <path class="cls-7" d="M577.72 416.12l-2.47 1.44V1.44L577.71 0l.01 416.12z"/>
            <path class="cls-2" d="M824.75 557.92L575.2 417.56l249.55 140.36z"/>
            <path class="cls-8" d="M575.19 1.44l2.49-1.21 249.56 140.58.01 415.9-2.49 1.32-249.57-140.47V1.12"/>
            <path class="cls-3" d="M827.26 556.48l-2.47 1.44V141.8h-.01l2.47-1.44.01 416.12z"/>
            <path class="cls-2" d="M577.71 0l249.54 140.36-2.47 1.44L575.25 1.44 577.71 0z"/>
            <path class="cls-6" d="M575.25 1.44L577.71 0l249.54 140.36.01 416.12-2.47 1.44V141.8h-.01L575.25 1.44z"/>
            <path class="cls-5" d="M827.26 556.48l-2.47 1.44V141.8h-.01l2.47-1.44.01 416.12z"/>
            <path class="cls-9" d="M577.71 0l249.54 140.36-2.47 1.44L575.25 1.44 577.71 0z"/>
            <g class="cls-10 cls-11">
                <path class="cls-12" d="M761.53 88.55L634.08 484.64l29.08 24.52 142.45-389.44-44.08-31.17zM741.16 74.4L619.59 466.08l10.21 11.67L755.38 82.58l-14.22-8.18z"/>
                <path class="cls-12" d="M802.34 111.91L680.98 503.6v5.75l125.47-381.6-4.11-15.84z"/>
            </g>
            <path class="cls-13" d="M543.51 426.11l299.63 174.17-2.14 1.2-299.55-174.16 2.06-1.21z"/>
            <path class="cls-14" d="M1076.23 551.41c16.94 9.85 19.93 24.23 6.64 32s-38 6-55-3.86-19.93-24.23-6.64-32 38.06-5.99 55 3.86z"/>
            <path class="cls-2" d="M1010.68 308c-6.18 13.12-9 34.19-10 52.47l18 1.91 17.16-44.25"/>
            <path class="cls-15" d="M1014.65 399s.65 6.55 1.13 8.4c.28 1.13.45 2 .68 2.85.31 1.13.39 1.77 0 2.07s-1.07.37-1.76-2a10.52 10.52 0 0 0 2.27 4.41c1.28 1.38 3.18 2.79 2.67 3.53s-1.88 0-1.88 0-.17 1.13-1.87.25c0 0-.2 1-1.93-.25 0 0-.68.79-2.27-.79s-7.27-7.73-7.39-19.21z"/>
            <path class="cls-2" d="M1000.7 360c-1.78 32 3.19 41.79 3.19 41.79l10.83.31 3.89-39.83"/>
            <circle class="cls-2" cx="1009.73" cy="360.56" r="9.03"/>
            <circle class="cls-2" cx="1022.86" cy="313.92" r="13.57"/>
            <path class="cls-16" d="M1070.2 576.11c-3.67 3.68-8.12 5.17-9.94 3.4s-.32-6.27 3.4-10 8.12-5.17 9.94-3.4c1.13 1.13 1 4 1 5.07a34 34 0 0 1-4.4 4.93z"/>
            <ellipse class="cls-15" cx="1068.11" cy="570.12" rx="6.01" ry="2.97" transform="rotate(-43.68 1068.117 570.126)"/>
            <path class="cls-16" d="M1037.33 557.28c-3.53 3.53-7.8 5-9.55 3.22s-.31-6 3.22-9.55 7.8-5 9.55-3.22c1.06 1.06 1 3.81 1 4.88a32.61 32.61 0 0 1-4.22 4.67z"/>
            <ellipse class="cls-15" cx="1035.34" cy="551.6" rx="5.78" ry="2.86" transform="rotate(-43.68 1035.345 551.605)"/>
            <path class="cls-6" d="M1074.58 507.29s9.33-52.2 13.92-85.72L1016.81 408c-.34 16.28-.91 47.32.92 69.77 2.76 33.84 14.41 72.89 14.41 72.89.26 1.23 1.62 2.17 4.35 2.17 3 0 5.14-1 5.14-2.45L1040.4 496l5.92-46.18s2.87 34.43 5 52.81 13 65.68 13 65.68c0 1.93 1.41 3.49 4.69 3.49s5.51-1.42 5.54-3.32z"/>
            <path class="cls-2" d="M1095 328.67c2.66 18.62 1.65 88.62 1.65 88.62 0 14.94-3.77 26.71-24.25 29.58a34.4 34.4 0 0 1-11.53-.7c-15.89-3.4-35.06-14.82-42.56-21.56-12.56-11.35-12.05-22.08-12.05-31.43v-68.33s0-22.94 19.41-30.41c14.75-5.67 37.45-.48 49.37 6.23.03.01 17.21 8.6 19.96 28z"/>
            <path class="cls-14" d="M1093.54 322.42a10.9 10.9 0 0 0-7.94-3.7c-11.85 0-11 13.42-11 13.42v75.33c0 29-6.57 37-10.85 39.18a31.34 31.34 0 0 0 8.77.2c20.49-2.87 24.25-14.64 24.25-29.58 0 0 1-70-1.65-88.62a35.43 35.43 0 0 0-1.58-6.23z"/>
            <path class="cls-6" d="M1034 349.94h-.12a.77.77 0 0 1-.62-.62l-5.24-29.7c-.15-.64-3.85-16.69 6.14-24.71a22.41 22.41 0 0 1 13.85-5.19 14.21 14.21 0 0 1 13.17 7.75c2.83 5.54-.78 10.44-5.78 17.24a118.18 118.18 0 0 0-8.77 13.25l-12 21.56a.77.77 0 0 1-.63.42zm14-58.69a20.87 20.87 0 0 0-12.9 4.85c-9.23 7.42-5.67 23-5.59 23.2l4.87 27.61 10.9-19.7a119.53 119.53 0 0 1 8.87-13.41c4.85-6.58 8-10.94 5.67-15.62a12.72 12.72 0 0 0-11.86-6.94z"/>
            <path class="cls-17" d="M1036 356.67l-.01 5.93-3.82-2.2.01-5.95 3.82 2.22z"/>
            <path class="cls-6" d="M1034.54 354.11l3.72 2.14v15.28l-8.32-4.8v-15.27l3.72 2.14zm-2.36.34v5.95l3.82 2.21v-5.95l-3.82-2.19m5.42 11.62v-.61l-7-4.07v.59l7 4.06m0 1.67v-.6l-7-4.06v.6l7 4.05m0 1.67v-.6l-7-4.05v.6l7 4.06"/>
            <path class="cls-17" d="M1037.6 365.46v.61l-7.02-4.06v-.6l7.02 4.05z"/>
            <path class="cls-6" d="M1034.54 351.83v2.28l-.88-.5v-2.29l.88.51z"/>
            <path class="cls-18" d="M1035.99 348.02l-.66 4.27-.79-.46-.88-.51-.8-.46-.61-5.01 3.74 2.17z"/>
            <path class="cls-17" d="M1037.59 368.81v.61l-7.02-4.06v-.61l7.02 4.06zM1037.6 367.14v.6l-7.02-4.05v-.6l7.02 4.05z"/>
            <path class="cls-15" d="M1043.47 256.6c-5-.2-10.84 1-13.73 5.84-1.86 3.1-1.71 8.73-1.88 12.91-.31 7.56 2.71 15.47 7.4 19.57v2c0 1.61 1.13 3.22 3.27 4.46a17.3 17.3 0 0 0 15.7 0c2.09-1.21 3.15-2.79 3.22-4.38v-20.46c.55-10.69-5.79-19.65-13.98-19.94z"/>
            <path class="cls-19" d="M1041.88 297.74a10.63 10.63 0 0 1-6.57-2.85v2c0 1.61 1.13 3.22 3.27 4.46a17.32 17.32 0 0 0 15.7 0c2.09-1.21 3.15-2.79 3.22-4.38v-19.7c-.66 10.43-7.61 20.83-15.62 20.47z"/>
            <path class="cls-20" d="M1062.49 258.82c-2.19-3.79-3.59-7.94-5.84-9.63a6.68 6.68 0 0 0-7.13-.65s-2.79-3.62-8.75-.64c-7.69 3.85-14.58 5.81-18.46 11.6-3.74 5.58-1.91 14.84 5.59 16.29v-.44c.08-1.85.09-4 .24-6.07 14.51.31 21-4.54 21-4.54l3 12a2.72 2.72 0 0 1 5.39.52v10.85c12.52-10.94 9.19-21.95 4.96-29.29z"/>
            <path class="cls-6" d="M1050.37 279.09a3.4 3.4 0 0 1-3.85 3.74l-2.11-.32-.39-.08a5.19 5.19 0 0 1-3.67-4.83v-.39a1.29 1.29 0 0 0-.89-1.21h-.09l-1.85-.27a.84.84 0 0 0-.92 1v.39a3.4 3.4 0 0 1-3.85 3.74l-2.11-.32-.4-.08a5.19 5.19 0 0 1-3.67-4.83 3.4 3.4 0 0 1 3.85-3.74l2.11.31.33.07a4.54 4.54 0 0 1 1.43.66 10.1 10.1 0 0 0 2.38 1.13l.32.07 2.78.41a4.74 4.74 0 0 0 2.17-.16c.11-.07.45-.22.51-.26a.33.33 0 0 1 .17 0 3.48 3.48 0 0 1 1.55-.12l2.11.31.37.08a5.2 5.2 0 0 1 3.72 4.7zm-17.84.36c1.71.26 2.72-.73 2.67-2.6a3.25 3.25 0 0 0-2.43-3.34l-.39-.08-1.66-.24c-1.71-.26-2.72.52-2.68 2.41a3.52 3.52 0 0 0 2.5 3.55l.33.07 1.66.24m13.74 2c1.71.26 2.72-.73 2.67-2.6a3.25 3.25 0 0 0-2.43-3.34l-.39-.08-1.66-.25c-1.71-.25-2.72.73-2.68 2.61a3.26 3.26 0 0 0 2.44 3.35l.37.08 1.66.24"/>
            <path class="cls-15" d="M1084 434.3s-.52 6.56-.93 8.42c-.26 1.13-.42 2-.62 2.86-.28 1.19-.35 1.78 0 2.05s1.13.35 1.71-2.07A10.51 10.51 0 0 1 1082 450c-1.26 1.41-3.12 2.85-2.6 3.57s1.88 0 1.88 0 .18 1.13 1.87.22c0 0 .22 1 1.93-.28 0 0 .69.78 2.27-.84s7.14-7.86 7-19.29z"/>
            <path class="cls-2" d="M1081.37 388.64l1.79 53.12 10.41-.32s7.94-20.89 9.89-54.26"/>
            <circle class="cls-2" cx="1092.37" cy="387.22" r="11.1" transform="rotate(-1.03 1092.432 386.99)"/>
            <path class="cls-2" d="M1064.53 332.81l17.28 57.87 21.65-3.61s.34-5.37.35-11.13c0-24.25-3.4-42.48-10-55.41"/>
            <circle class="cls-2" cx="1079.54" cy="327.53" r="15.91" transform="rotate(-.22 1080.18 327.619)"/>
            <path class="cls-14" d="M396.51 750.26l51.84 30.09c5.4 3.14 12.48 4.71 19.62 4.71s14.27-1.53 19.62-4.71l121.27-70.17-91.06-52.93-121.28 70.2c-5.4 3.14-8.09 7.27-8.09 11.4s2.69 8.27 8.08 11.41z"/>
            <path class="cls-21" d="M511.22 749.54l3.4 1.98 3.39-1.97V620.13l-3.39 1.97-3.4-1.99v129.43z"/>
            <path class="cls-22" d="M514.62 751.52l3.39-1.97V620.13l-3.39 1.97v129.42z"/>
            <path class="cls-23" d="M511.22 620.11l3.4 1.99v129.42l-3.4-1.98V620.11z"/>
            <path class="cls-21" d="M450.48 714.26l3.4 1.99 3.39-1.98V584.85l-3.39 1.97-3.4-1.98v129.42z"/>
            <path class="cls-22" d="M453.88 716.25l3.39-1.98V584.85l-3.39 1.97v129.43z"/>
            <path class="cls-23" d="M450.48 584.84l3.4 1.98v129.43l-3.4-1.99V584.84z"/>
            <path class="cls-21" d="M597.06 479c0-6.24-2.21-13.2-5.76-19.38s-8.46-11.59-13.85-14.75l-24.9-14.42c-5.4-3.13-10.3-3.4-13.85-1.38l-3.4 2c-3.55 2-5.76 6.43-5.76 12.67v224.4l3.4 2 3.4-2V483.89l53.94 31.25v188.23l3.4 2 3.4-2zm-60.73-37.24a13.47 13.47 0 0 1 2-7.77 7.19 7.19 0 0 1 .53-.67 7.39 7.39 0 0 1 1.57-.17 11.25 11.25 0 0 1 3.4.57 18.42 18.42 0 0 1 3.68 1.66l24.9 14.42c4.86 2.83 9.34 7.81 12.61 13.48s5.32 12.06 5.32 17.68v2.79L536.4 452.5zm0 34.29v-15.68l53.94 31.25v15.66z"/>
            <path class="cls-24" d="M591.29 459.59c3.55 6.18 5.76 13.14 5.76 19.38v224.4l-3.4 2V480.94c0-6.24-2.21-13.2-5.76-19.38z"/>
            <path class="cls-25" d="M572.33 449.78c4.86 2.83 9.34 7.81 12.61 13.48s5.32 12.06 5.32 17.68v222.4l3.4 2v-224.4c0-6.24-2.21-13.2-5.76-19.38S579.44 450 574 446.81l-24.85-14.4c-5.4-3.14-10.3-3.4-13.85-1.38s-5.76 6.43-5.76 12.67v224.38l3.4 2V443.7a13.47 13.47 0 0 1 2-7.77 6.42 6.42 0 0 1 5.48-2.8 11.25 11.25 0 0 1 3.4.57 18.42 18.42 0 0 1 3.68 1.66z"/>
            <path class="cls-23" d="M532.94 454.44v3.93l57.32 33.23v-3.93l-57.32-33.23zM532.94 477.97v3.94l57.32 33.22v-3.93l-57.32-33.23z"/>
            <path class="cls-22" d="M536.33 460.34l-3.39-1.97v19.6l3.39-1.95v-15.68zM532.94 481.91v188.15l3.39-1.97V483.87l-3.39-1.96zM536.33 441.73a13.47 13.47 0 0 1 2-7.77 7.19 7.19 0 0 1 .53-.67 7.39 7.39 0 0 1 1.57-.17 6.42 6.42 0 0 0-5.48 2.8 13.47 13.47 0 0 0-2 7.77v10.73l3.4-2z"/>
            <path class="cls-26" d="M608.84 551.5v-79.11c0-6.24-2.21-13.2-5.76-19.38s-8.46-11.59-13.85-14.75l-51.83-30.08c-5.4-3.13-10.3-3.4-13.85-1.38l-3.55 2.11c-3.55 2-5.76 6.43-5.76 12.67v79l91.07 52.95z"/>
            <path class="cls-27" d="M514.24 500.61l91.07 52.95v-79c0-6.24-2.2-13.2-5.76-19.38s-8.46-11.59-13.85-14.75l-51.83-30.14c-5.39-3.13-10.3-3.4-13.85-1.38s-5.76 6.43-5.76 12.67z"/>
            <path class="cls-28" d="M603.07 453c3.55 6.18 5.76 13.14 5.76 19.38v79.1l-3.53 2.05v-79c0-6.24-2.2-13.2-5.76-19.38z"/>
            <path class="cls-26" d="M438.25 591.5c0 4.13 2.7 8.27 8.09 11.4l51.79 30.1c5.4 3.14 12.48 4.71 19.62 4.71s14.25-1.54 19.62-4.71l71.49-41.54v-4.71l-91.06-52.91-71.49 41.53c-5.39 3.14-8.09 7.27-8.09 11.4z"/>
            <path class="cls-28" d="M517.8 637.74c7.11 0 14.23-1.57 19.62-4.71l71.49-41.54v-4.71l-71.49 41.54C532 631.45 524.94 633 517.8 633z"/>
            <path class="cls-29" d="M517.8 637.74c-7.11 0-14.22-1.57-19.62-4.71l-51.83-30.14c-5.4-3.13-8.09-7.27-8.09-11.4v-4.71c0 4.13 2.7 8.27 8.09 11.4l51.79 30.13c5.4 3.14 12.48 4.71 19.62 4.71z"/>
            <path class="cls-30" d="M428.32 738.37c-6.21 4.54-13 5.82-15.28 2.76s.9-9.24 7.06-13.82 13-5.81 15.27-2.77c1.37 1.85.64 6 .4 7.65-1.18 1.54-5 4.37-7.45 6.18z"/>
            <ellipse class="cls-15" cx="426.57" cy="729.16" rx="8.88" ry="4.4" transform="rotate(-35.26 426.561 729.162)"/>
            <path class="cls-30" d="M471.15 765.2c-6.16 4.54-13 5.82-15.27 2.76s.9-9.24 7.06-13.82 13-5.81 15.27-2.77c1.37 1.84.62 6 .4 7.65-1.15 1.54-5.01 4.32-7.46 6.18z"/>
            <ellipse class="cls-15" cx="469.41" cy="755.96" rx="8.88" ry="4.4" transform="rotate(-35.25 469.41 755.963)"/>
            <path class="cls-15" d="M469.27 543.58c-11.14 7-69.11 33.33-69.3 57.87-.17 24 23 125.09 23 125.09.37 1.82 1.82 1.69 5.84 1.69 4.54 0 5.4-2 5.4-4.15l2.11-106.56 13.12-10.12s-8.84 10.45-8.32 20.42c1.4 27.29 23.64 126.44 23.64 126.44 0 2.85 2.27 5.95 6.22 3.17 3.4-2.41 5.89-3.26 6.08-5l4.26-103.73s71.49-30.73 91.15-48.88c17.21-15.89 5.2-46.34 5.2-46.34s-20.53-57.39-108.4-9.9z"/>
            <path class="cls-31" d="M484.34 650.74c37-12.83 75.3-36.62 90-49.14 17.85-15.17 3.31-48.51 3.31-48.51s-19.29-61.27-107.21-13.81c-8.32 5.21-47.26 25.41-66.58 45.5.04 0 35.37-.73 80.48 65.96z"/>
            <path class="cls-2" d="M582.86 426.94c3.93 27.53 2.44 131 2.44 131 0 22.09-5.56 39.49-35.86 43.73a50.86 50.86 0 0 1-17-1c-23.42-5-51.84-21.91-62.93-31.93-18.58-16.79-17.81-32.66-17.81-46.52v-101c0 .07 0-33.92 28.71-45 21.83-8.41 55.44-.7 73 9.21-.05.12 25.36 12.82 29.45 41.51z"/>
            <path class="cls-14" d="M580.67 417.69a16.12 16.12 0 0 0-11.82-5.47c-17.52 0-16.33 19.85-16.33 19.85v111.39c0 42.85-9.71 54.74-16 57.94a46.31 46.31 0 0 0 13 .3c30.3-4.24 35.86-21.64 35.86-43.73 0 0 1.49-103.5-2.44-131a52.41 52.41 0 0 0-2.27-9.28z"/>
            <path class="cls-2" d="M0 585.69l285.5-165.93 437.91 252.82-285.52 165.93L0 585.69z"/>
            <path class="cls-32" d="M516 549.14l-23.39 11.22a3.91 3.91 0 0 0-1.08 6.3l1.78 1.78a10.3 10.3 0 0 0 12.56 1.56l23.75-14.08z"/>
            <path class="cls-15" d="M514.72 543.08s-8.41 4.89-11 6l-4 1.65c-1.69.66-2.45 1.08-2.46 1.79s.48 1.61 4 .34A15.55 15.55 0 0 1 494 554c-2.77-.34-6.09-1.38-6.54-.15s1.62 2.27 1.62 2.27-1.28 1.23 1.32 2.46c0 0-1 1.08 2 2.1 0 0-.36 1.51 2.92 2s15.57 2 29.43-7.76z"/>
            <path class="cls-2" d="M567.94 501.36l-63 47 9.17 12.36s32.08-7.94 74.24-33.75"/>
            <circle class="cls-2" cx="578.95" cy="513.45" r="16.4" transform="rotate(-35.82 578.95 513.452)"/>
            <path class="cls-2" d="M537.78 433.07l25.56 85.49 32-5.34s.51-7.94.52-16.45c0-35.86-5.09-62.82-14.75-81.93"/>
            <circle class="cls-2" cx="559.99" cy="425.28" r="23.52" transform="rotate(-.22 559.12 425.584)"/>
            <path class="cls-33" d="M526.71 323s17.59-18.16 24.4 5.87c0 0 3.78 10.41.19 20.05s-9.84 15.32-1.7 22.13c0 0-22.13-5.67-24.4-35 0-.05-1.33-10.45 1.51-13.05z"/>
            <path class="cls-34" d="M481.6 341.68a38.06 38.06 0 0 0 1 13.71c2.36 8.79-3.78 8-3.78 8s7.94.76 5.87-6c-1.65-5.38.37-8.88.37-8.88s-.8-6.65-3.46-6.83z"/>
            <path class="cls-15" d="M506.52 320.8c-7.38-.3-16 1.53-20.3 8.65-2.75 4.54-2.54 12.9-2.79 19.09-.44 11.17 4 22.88 10.93 28.95v2.92c.08 2.39 1.68 4.77 4.85 6.59 6.43 3.71 16.83 3.71 23.22 0 3.09-1.79 4.66-4.12 4.75-6.48v-29.18a6.44 6.44 0 0 1 .06-1c.76-15.85-8.6-29.05-20.72-29.54z"/>
            <path class="cls-19" d="M504.09 381.69a15.72 15.72 0 0 1-9.71-4.21v2.92c.08 2.39 1.68 4.77 4.85 6.59 6.43 3.71 16.83 3.71 23.22 0 3.09-1.79 4.66-4.12 4.75-6.48v-29.17c-.98 15.45-11.27 30.83-23.11 30.35z"/>
            <path class="cls-34" d="M520.7 350.66c.42-2 .81-3.4 2.85-3.25a4 4 0 0 1 3.7 4 29 29 0 0 1-2.63 11.87l2.63 9.51c24.28-31.06 4.75-58.31 4.75-58.31-6-7.87-16-5.86-16-5.86-9.8-3.69-25.92-4.54-33.19 9.45 0 0-6.81 8.88-2.47 23.83l3.1 10.34a30.57 30.57 0 0 1 0-3.68c.1-2.53.12-5.41.31-8.26 25.56.08 30.85-8.86 30.85-8.86s-.57 9.51 1.7 13.76c0 0-.28 6.5 1.42 10.13 0 0 2.55 6.81-.57 9.16 0 0 4.54-1.61 3.12-7.66-.35-1.54.43-6.17.43-6.17z"/>
            <path class="cls-35" d="M551.1 328.81c-3.94-13.88-11.47-13.62-17.12-11a48 48 0 0 1 .67 43.05A32.48 32.48 0 0 0 549.59 371c-8.14-6.81-1.89-12.48 1.7-22.13s-.19-20.06-.19-20.06z"/>
            <path class="cls-14" d="M279.14 574.09l104.62 60.85a6.48 6.48 0 0 0 5.89 0l64.92-37.77a1.82 1.82 0 0 0 0-3.4l-104.63-60.84a6.48 6.48 0 0 0-5.89 0l-64.92 37.73a1.82 1.82 0 0 0 0 3.4z"/>
            <path class="cls-36" d="M308.71 553.5a2.08 2.08 0 0 0 1.21 1.71l105.41 61.27a6.49 6.49 0 0 0 5.89 0l64.92-37.77a2.08 2.08 0 0 0 1.21-1.71v-2.35a2.08 2.08 0 0 0-1.21-1.71l-105.4-61.27a6.5 6.5 0 0 0-5.89 0l-64.92 37.75a2.08 2.08 0 0 0-1.21 1.71z"/>
            <path class="cls-37" d="M418.29 617.24a6 6 0 0 1-2.94-.7l-105.42-61.27a2.08 2.08 0 0 1-1.21-1.71v-2.41a2.08 2.08 0 0 0 1.21 1.71l105.41 61.27a6 6 0 0 0 2.94.7zM418.29 617.24a6 6 0 0 0 2.94-.7l64.92-37.77a2.08 2.08 0 0 0 1.21-1.71v-2.36a2.08 2.08 0 0 1-1.21 1.71l-64.92 37.77a6 6 0 0 1-2.94.7"/>
            <path class="cls-38" d="M413.12 536.4a4.32 4.32 0 0 1 3.93 0l26.39 15.36a1.21 1.21 0 0 1 0 2.27l-15.1 8.81a4.32 4.32 0 0 1-3.93 0L398 547.47a1.21 1.21 0 0 1 0-2.27zM458.17 585.28a.44.44 0 0 1 0 .84l-38.58 22.4a1.59 1.59 0 0 1-1.44 0l-99.3-57.37a.44.44 0 0 1 0-.84l38.58-22.4a1.59 1.59 0 0 1 1.44 0z"/>
            <path class="cls-39" d="M407.57 589.14a.44.44 0 0 1 0 .83l-3.47 2a1.59 1.59 0 0 1-1.43 0l-4.39-2.52a.44.44 0 0 1 0-.83l3.48-2a1.57 1.57 0 0 1 1.44 0zM400.32 592.55a.44.44 0 0 1 0 .83l-1.79 1a1.57 1.57 0 0 1-1.43 0l-4.71-2.72a.44.44 0 0 1 0-.83l1.79-1a1.58 1.58 0 0 1 1.43 0zM393.29 588.5c.4.23.41.6 0 .83l-1.79 1a1.58 1.58 0 0 1-1.44 0l-4.7-2.71c-.41-.24-.41-.6 0-.83l1.79-1a1.57 1.57 0 0 1 1.44 0zM379.23 580.38c.4.23.41.6 0 .83l-1.79 1a1.59 1.59 0 0 1-1.44 0l-4.68-2.73c-.41-.24-.41-.6 0-.83l1.79-1a1.58 1.58 0 0 1 1.44 0zM339.5 549.83a.44.44 0 0 1 0 .84l-3.47 2a1.58 1.58 0 0 1-1.44 0l-7.59-4.36a.44.44 0 0 1 0-.83l3.47-2a1.58 1.58 0 0 1 1.44 0zM330.05 552a.44.44 0 0 1 0 .83l-1.79 1a1.57 1.57 0 0 1-1.43 0l-4.71-2.72a.44.44 0 0 1 0-.83l1.79-1a1.57 1.57 0 0 1 1.43 0zM356.57 552a.44.44 0 0 1 0 .84l-3.48 2a1.58 1.58 0 0 1-1.44 0l-4.33-2.54c-.4-.23-.41-.6 0-.83l3.48-2a1.6 1.6 0 0 1 1.44 0zM349.75 548a.44.44 0 0 1 0 .83l-3.48 2a1.57 1.57 0 0 1-1.43 0l-4.33-2.51c-.4-.23-.41-.6 0-.83l3.48-2a1.6 1.6 0 0 1 1.44 0zM346.2 553.7a.44.44 0 0 1 0 .84l-3.52 2a1.58 1.58 0 0 1-1.44 0l-4.35-2.54a.44.44 0 0 1 0-.84l3.52-2.05a1.59 1.59 0 0 1 1.44 0zM337.08 556a.44.44 0 0 1 0 .83l-1.79 1a1.58 1.58 0 0 1-1.43 0l-4.71-2.72a.44.44 0 0 1 0-.83l1.79-1a1.57 1.57 0 0 1 1.43 0zM393.94 581.26a.44.44 0 0 1 0 .84l-3.47 2a1.59 1.59 0 0 1-1.44 0l-4.36-2.52c-.41-.24-.41-.6 0-.84l3.47-2a1.57 1.57 0 0 1 1.44 0zM380.3 573.38c.41.24.41.6 0 .84l-3.47 2a1.58 1.58 0 0 1-1.44 0l-4.39-2.49a.44.44 0 0 1 0-.84l3.47-2a1.59 1.59 0 0 1 1.44 0zM411.11 583.45a.44.44 0 0 1 0 .84l-3.47 2a1.59 1.59 0 0 1-1.44 0l-4.33-2.51c-.4-.23-.41-.6 0-.83l3.48-2a1.6 1.6 0 0 1 1.44 0zM405.16 564.59a.43.43 0 0 1 0 .83l-3.47 2a1.57 1.57 0 0 1-1.43 0l-4.35-2.51a.43.43 0 0 1 0-.83l3.49-2a1.59 1.59 0 0 1 1.43 0zM398.28 560.64c.41.24.4.6 0 .83l-3.4 2a1.58 1.58 0 0 1-1.44 0L389.1 561a.44.44 0 0 1 0-.83l3.49-2a1.58 1.58 0 0 1 1.43 0zM454.85 585.28a.44.44 0 0 1 0 .84l-3.48 2a1.58 1.58 0 0 1-1.44 0l-4.33-2.51a.44.44 0 0 1 0-.84l3.48-2a1.6 1.6 0 0 1 1.44 0zM448 581.33a.44.44 0 0 1 0 .83l-3.48 2a1.58 1.58 0 0 1-1.44 0l-4.33-2.51a.44.44 0 0 1 0-.84l3.48-2a1.59 1.59 0 0 1 1.44 0zM441.2 577.4a.44.44 0 0 1 0 .83l-3.48 2a1.59 1.59 0 0 1-1.44 0l-4.35-2.51a.44.44 0 0 1 0-.83l3.48-2a1.58 1.58 0 0 1 1.44 0zM434.38 573.45a.44.44 0 0 1 0 .84l-3.48 2a1.59 1.59 0 0 1-1.44 0l-5.62-3.25a.44.44 0 0 1 0-.84l3.48-2a1.59 1.59 0 0 1 1.44 0zM377.86 548.88a.44.44 0 0 1 0 .83l-3.49 2a1.57 1.57 0 0 1-1.43 0l-4.33-2.51c-.4-.23-.41-.6 0-.83l3.49-2a1.59 1.59 0 0 1 1.44 0zM376.57 540.08a.44.44 0 0 1 0 .84l-1.13.66a1.59 1.59 0 0 1-1.44 0l-4.35-2.51a.44.44 0 0 1 0-.83l1.13-.66a1.59 1.59 0 0 1 1.44 0zM383.47 544.07a.44.44 0 0 1 0 .84l-3.48 2a1.6 1.6 0 0 1-1.44 0l-4.33-2.51a.44.44 0 0 1 0-.84l3.48-2a1.59 1.59 0 0 1 1.44 0zM391.47 548.67a.44.44 0 0 1 0 .84l-3.48 2a1.6 1.6 0 0 1-1.44 0l-5.67-3.25a.44.44 0 0 1 0-.84l3.48-2a1.59 1.59 0 0 1 1.44 0zM426.29 568.79a.44.44 0 0 1 0 .84l-3.48 2a1.59 1.59 0 0 1-1.44 0l-32.52-18.78a.44.44 0 0 1 0-.84l3.48-2a1.6 1.6 0 0 1 1.44 0zM412 568.53a.44.44 0 0 1 0 .83l-3.48 2a1.59 1.59 0 0 1-1.44 0l-4.35-2.51c-.4-.23-.41-.6 0-.83l3.52-2a1.59 1.59 0 0 1 1.44 0zM391.47 556.71a.44.44 0 0 1 0 .83l-3.4 2a1.58 1.58 0 0 1-1.44 0l-4.35-2.51a.43.43 0 0 1 0-.83l3.52-2a1.58 1.58 0 0 1 1.43 0zM384.66 552.78a.44.44 0 0 1 0 .83l-3.4 2.08a1.59 1.59 0 0 1-1.44 0l-4.35-2.51c-.4-.23-.41-.6 0-.83l3.49-2a1.6 1.6 0 0 1 1.44 0zM368.18 538.23l-1.62.94a1.6 1.6 0 0 1-1.44 0l-4.33-2.51a.44.44 0 0 1 0-.84l1.62-.94zM371 544.89c.41.24.4.61 0 .83l-3.47 2a1.57 1.57 0 0 1-1.44 0l-4.33-2.51a.44.44 0 0 1 0-.83l3.49-2a1.59 1.59 0 0 1 1.43 0zM364.09 540.93a.44.44 0 0 1 0 .83l-3.49 2a1.57 1.57 0 0 1-1.43 0l-12.2-7a.44.44 0 0 1 0-.83l3.49-2a1.58 1.58 0 0 1 1.43 0zM342.93 544.08a.44.44 0 0 1 0 .83l-3.48 2a1.57 1.57 0 0 1-1.43 0l-4.35-2.51a.44.44 0 0 1 0-.83l3.48-2a1.59 1.59 0 0 1 1.44 0zM361 546.8c.4.23.41.6 0 .83l-3.48 2a1.59 1.59 0 0 1-1.44 0l-4.28-2.51a.44.44 0 0 1 0-.84l3.4-2a1.58 1.58 0 0 1 1.44 0zM367.78 550.74c.41.24.41.6 0 .83l-3.48 2a1.59 1.59 0 0 1-1.44 0l-4.29-2.51a.44.44 0 0 1 0-.83l3.48-2a1.57 1.57 0 0 1 1.43 0zM374.61 554.68a.44.44 0 0 1 0 .83l-3.48 2a1.59 1.59 0 0 1-1.44 0l-4.32-2.51a.44.44 0 0 1 0-.84l3.4-2a1.58 1.58 0 0 1 1.44 0zM353 557.64a.44.44 0 0 1 0 .83l-3.54 2a1.57 1.57 0 0 1-1.44 0l-4.2-2.47a.44.44 0 0 1 0-.84l3.47-2a1.59 1.59 0 0 1 1.44 0zM344.11 560.1a.44.44 0 0 1 0 .83l-1.79 1a1.57 1.57 0 0 1-1.43 0l-4.71-2.72c-.4-.23-.41-.6 0-.83l1.79-1a1.58 1.58 0 0 1 1.44 0zM351.13 564.16a.44.44 0 0 1 0 .83l-1.79 1a1.57 1.57 0 0 1-1.43 0l-4.71-2.72c-.4-.23-.41-.6 0-.83l1.79-1a1.59 1.59 0 0 1 1.44 0zM366.66 565.51a.44.44 0 0 1 0 .84l-3.47 2a1.59 1.59 0 0 1-1.44 0l-4.31-2.47a.44.44 0 0 1 0-.84l3.47-2a1.59 1.59 0 0 1 1.44 0zM395.06 566.49c.4.23.41.6 0 .83l-3.47 2a1.6 1.6 0 0 1-1.44 0l-4.35-2.46a.44.44 0 0 1 0-.84l3.48-2a1.58 1.58 0 0 1 1.44 0zM358.16 568.17c.4.23.41.6 0 .83l-1.79 1a1.59 1.59 0 0 1-1.44 0l-4.7-2.71c-.4-.23-.41-.6 0-.83l1.79-1a1.59 1.59 0 0 1 1.44 0zM401.88 570.44a.44.44 0 0 1 0 .83l-3.48 2a1.58 1.58 0 0 1-1.44 0l-4.35-2.51a.44.44 0 0 1 0-.83l3.48-2a1.57 1.57 0 0 1 1.43 0zM365.19 572.27a.44.44 0 0 1 0 .83l-1.79 1a1.58 1.58 0 0 1-1.43 0l-4.71-2.72c-.4-.23-.41-.6 0-.83l1.79-1a1.58 1.58 0 0 1 1.44 0zM390.66 571.64a.44.44 0 0 1 0 .84l-3.48 2a1.58 1.58 0 0 1-1.44 0L381.4 572c-.4-.23-.41-.6 0-.83l3.48-2a1.6 1.6 0 0 1 1.44 0zM408.7 574.36a.44.44 0 0 1 0 .83l-3.47 2.05a1.58 1.58 0 0 1-1.44 0l-4.37-2.53a.44.44 0 0 1 0-.84l3.48-2a1.58 1.58 0 0 1 1.44 0zM372.18 576.33c.4.23.41.6 0 .83l-1.79 1a1.58 1.58 0 0 1-1.44 0l-4.71-2.72c-.4-.23-.41-.6 0-.83l1.79-1a1.58 1.58 0 0 1 1.44 0zM397.49 575.58a.44.44 0 0 1 0 .83l-3.48 2a1.58 1.58 0 0 1-1.43 0l-4.35-2.51a.44.44 0 0 1 0-.83l3.48-2a1.58 1.58 0 0 1 1.44 0zM425.6 576.39a.44.44 0 0 1 0 .83l-3.49 2a1.58 1.58 0 0 1-1.44 0l-4.35-2.51c-.4-.23-.41-.6 0-.83l3.52-2.08a1.59 1.59 0 0 1 1.44 0zM415.52 578.3c.4.23.41.6 0 .83l-3.48 2a1.59 1.59 0 0 1-1.44 0l-4.37-2.5a.44.44 0 0 1 0-.84l3.48-2a1.58 1.58 0 0 1 1.44 0zM404.31 579.51a.44.44 0 0 1 0 .83l-3.48 2a1.58 1.58 0 0 1-1.43 0l-4.33-2.51c-.4-.23-.41-.6 0-.83l3.48-2a1.6 1.6 0 0 1 1.44 0zM432.45 580.34a.44.44 0 0 1 0 .83l-3.53 2a1.58 1.58 0 0 1-1.44 0l-4.23-2.55c-.4-.23-.41-.6 0-.83l3.49-2a1.59 1.59 0 0 1 1.44 0zM422.34 582.24c.4.23.41.6 0 .83l-3.48 2a1.59 1.59 0 0 1-1.44 0l-4.38-2.5a.44.44 0 0 1 0-.84l3.48-2a1.58 1.58 0 0 1 1.44 0zM386.26 584.44c.4.23.41.6 0 .83l-1.79 1a1.59 1.59 0 0 1-1.44 0l-4.71-2.71a.44.44 0 0 1 0-.83l1.79-1a1.58 1.58 0 0 1 1.43 0zM424.78 591.33a.44.44 0 0 1 0 .84l-3.48 2a1.58 1.58 0 0 1-1.44 0l-4.33-2.51c-.4-.23-.41-.6 0-.83l3.48-2a1.6 1.6 0 0 1 1.44 0zM414.39 593.06a.44.44 0 0 1 0 .84l-3.47 2a1.59 1.59 0 0 1-1.44 0l-4.39-2.51a.44.44 0 0 1 0-.83l3.47-2a1.57 1.57 0 0 1 1.44 0zM441.27 593.13c.41.24.41.6 0 .83l-3.48 2a1.59 1.59 0 0 1-1.44 0l-9.59-5.54a.44.44 0 0 1 0-.83l3.48-2a1.58 1.58 0 0 1 1.43 0zM434.59 597a.44.44 0 0 1 0 .84l-3.4 2.08a1.57 1.57 0 0 1-1.44 0l-7.47-4.31a.44.44 0 0 1 0-.83l3.48-2a1.58 1.58 0 0 1 1.44 0zM421.21 597a.44.44 0 0 1 0 .83l-3.47 2a1.58 1.58 0 0 1-1.44 0l-4.3-2.49a.44.44 0 0 1 0-.84l3.47-2a1.58 1.58 0 0 1 1.44 0zM414.36 600.66c.41.24.41.6 0 .83l-1.79 1a1.58 1.58 0 0 1-1.44 0l-4.7-2.71c-.4-.23-.41-.6 0-.83l1.79-1a1.58 1.58 0 0 1 1.44 0zM428 600.9c.41.23.41.6 0 .84l-3.47 2a1.58 1.58 0 0 1-1.44 0l-4.35-2.51a.44.44 0 0 1 0-.84l3.47-2a1.58 1.58 0 0 1 1.44 0zM421.39 604.73c.41.24.41.6 0 .83l-1.79 1a1.57 1.57 0 0 1-1.44 0l-4.7-2.71c-.4-.23-.41-.6 0-.83l1.79-1a1.58 1.58 0 0 1 1.44 0zM363.11 532.33a.44.44 0 0 1 0 .83l-1.13.66a1.58 1.58 0 0 1-1.44 0l-4.35-2.51a.44.44 0 0 1 0-.83l1.13-.66a1.58 1.58 0 0 1 1.44 0z"/>
            <path class="cls-39" d="M370 536.32a.44.44 0 0 1 0 .84l-1.86 1.13-5.79-3.35 1.86-1.13a1.59 1.59 0 0 1 1.44 0zM354.1 542.83a.43.43 0 0 1 0 .83l-3.47 2a1.6 1.6 0 0 1-1.44 0l-8.86-5.12a.44.44 0 0 1 0-.83l3.48-2a1.57 1.57 0 0 1 1.43 0zM363.39 555.89a.44.44 0 0 1 0 .84l-3.48 2a1.58 1.58 0 0 1-1.44 0l-4.33-2.51c-.4-.23-.41-.6 0-.83l3.48-2a1.61 1.61 0 0 1 1.44 0zM381.42 558.61c.4.23.41.6 0 .83l-3.48 2a1.6 1.6 0 0 1-1.44 0l-4.32-2.44a.44.44 0 0 1 0-.84l3.48-2a1.58 1.58 0 0 1 1.44 0zM370.21 559.83a.44.44 0 0 1 0 .83l-3.48 2a1.58 1.58 0 0 1-1.43 0l-4.35-2.46c-.4-.23-.41-.6 0-.83l3.48-2a1.61 1.61 0 0 1 1.44 0zM359.84 561.57a.44.44 0 0 1 0 .83l-3.47 2a1.57 1.57 0 0 1-1.44 0l-4.3-2.51a.44.44 0 0 1 0-.83l3.4-2a1.58 1.58 0 0 1 1.44 0zM388.24 562.49c.4.23.41.6 0 .83l-3.48 2a1.6 1.6 0 0 1-1.44 0L379 562.9a.44.44 0 0 1 0-.84l3.48-2a1.58 1.58 0 0 1 1.44 0zM377 563.76a.44.44 0 0 1 0 .84l-3.48 2a1.58 1.58 0 0 1-1.44 0l-4.33-2.51c-.4-.23-.41-.6 0-.83l3.48-2a1.61 1.61 0 0 1 1.44 0zM383.85 567.7a.44.44 0 0 1 0 .84l-3.48 2a1.58 1.58 0 0 1-1.44 0l-4.33-2.51c-.4-.23-.41-.6 0-.83l3.48-2a1.6 1.6 0 0 1 1.44 0zM373.48 569.45a.44.44 0 0 1 0 .84l-3.47 2a1.59 1.59 0 0 1-1.44 0l-4.32-2.52a.44.44 0 0 1 0-.84l3.47-2a1.59 1.59 0 0 1 1.44 0zM418.79 572.46a.44.44 0 0 1 0 .83l-3.48 2a1.59 1.59 0 0 1-1.44 0l-4.33-2.51a.44.44 0 0 1 0-.83l3.49-2a1.58 1.58 0 0 1 1.43 0zM387.12 577.32a.44.44 0 0 1 0 .83l-3.47 2a1.57 1.57 0 0 1-1.44 0l-4.35-2.5c-.41-.24-.41-.6 0-.84l3.47-2a1.58 1.58 0 0 1 1.44 0zM429.18 586.19c.4.23.41.6 0 .83l-3.48 2a1.59 1.59 0 0 1-1.44 0l-4.35-2.51a.44.44 0 0 1 0-.84l3.48-2a1.59 1.59 0 0 1 1.44 0zM417.93 587.39a.44.44 0 0 1 0 .84l-3.48 2a1.57 1.57 0 0 1-1.44 0l-4.35-2.51a.44.44 0 0 1 0-.83l3.48-2a1.58 1.58 0 0 1 1.44 0zM447.95 589.3c.41.24.4.61 0 .83l-3.49 2a1.57 1.57 0 0 1-1.44 0l-13-7.5c-.4-.23-.41-.6 0-.83l3.49-2a1.59 1.59 0 0 1 1.44 0zM407.36 596.61a.44.44 0 0 1 0 .83l-1.79 1a1.57 1.57 0 0 1-1.43 0l-4.71-2.72a.44.44 0 0 1 0-.83l1.79-1a1.57 1.57 0 0 1 1.43 0zM400.75 585.19a.44.44 0 0 1 0 .84l-3.47 2a1.59 1.59 0 0 1-1.44 0l-4.37-2.51a.44.44 0 0 1 0-.84l3.47-2a1.58 1.58 0 0 1 1.44 0z"/>
            <path class="cls-38" d="M426 538.12a.6.6 0 0 0 0 1.13l12.55 7.35a2.19 2.19 0 0 0 2 0h.09l-14.54-8.45z"/>
            <path class="cls-40" d="M430.71 609.44l-3.18 1.85v.85l3.18-1.84v-.86zM426.9 611.64l-2.21 1.28v.86l2.21-1.29v-.85zM424.03 613.29l-2.22 1.29v.86l2.22-1.3v-.85z"/>
            <path class="cls-36" d="M415.13 614.79c-.35.18-1 0-2-.53l-103.39-60.14a20.1 20.1 0 0 1-6.18-6.22l-25.84-45c-.62-1.13-.75-1.82-.44-2.11l1.13-.68c.31-.3 1-.17 2.11.45L384 560.66a20 20 0 0 1 6.18 6.22l25.79 45c.62 1.13.74 1.82.44 2.11z"/>
            <path class="cls-41" d="M309.77 554.11a20.1 20.1 0 0 1-6.18-6.22l-25.84-45c-.62-1.13-.75-1.82-.44-2.11s1-.17 2.11.45l103.45 60.14a20.13 20.13 0 0 1 6.18 6.22l25.79 45c.62 1.13.75 1.82.44 2.11s-1 .17-2.11-.45z"/>
            <path class="cls-37" d="M387.44 563.42a17.93 17.93 0 0 1 2.75 3.4l25.79 45c.62 1.13.74 1.82.44 2.11l-1.29.77.11-.08c.31-.31.18-1-.44-2.11l-25.79-45a17.75 17.75 0 0 0-2.75-3.4z"/>
            <path class="cls-2" d="M384 560.66a20 20 0 0 1 6.18 6.22l-1.13.68a20.13 20.13 0 0 0-6.18-6.22z"/>
            <path class="cls-32" d="M392 518.24l-12.79 7c-2.44 1.13-5.3 4.3-3.4 6.21 1 1 2.36.61 3.73.23 7.34-2.07 6.31-2.11 17.09-2.72l9.25-2.8z"/>
            <path class="cls-2" d="M458.16 396.27c-9.15 19.4-13.28 50.54-14.75 77.57l26.54 2.81 25.37-65.4"/>
            <path class="cls-15" d="M409.28 506.19s-8.22 5.21-10.36 7c-1.37 1.13-2.27 1.93-3.31 2.79-1.36 1.19-2.09 1.68-2.72 1.35s-1.2-1.13 1.52-3.68a15.52 15.52 0 0 0-4.35 5.87c-1 2.62-1.58 6-2.88 5.87s-1.26-2.49-1.26-2.49-1.68.58-1.58-2.27c0 0-1.4.37-1-2.72 0 0-1.51-.37-.47-3.53s5.36-14.75 20.42-22.56z"/>
            <path class="cls-2" d="M451.44 461.82c-43.4 18.95-53 32.06-53 32.06l6.81 14.51L460.36 487"/>
            <circle class="cls-2" cx="456.76" cy="474.13" r="13.36" transform="rotate(-26.78 456.75 474.136)"/>
            <circle class="cls-2" cx="476.17" cy="405.14" r="20.07"/>
            <g class="cls-42">
                <path class="cls-6" d="M859.91 647.81l-3.86-2.27a5.76 5.76 0 0 0-2.94.67l-101.86 59.26c-18.8 10.93-43.47 16.39-68.21 16.39s-49.46-5.46-68.39-16.39l-150.24-86.75a6.18 6.18 0 0 0-5.67 0c-1.54.9-1.54 2.36 0 3.26L609 708.72c20.42 11.81 47.27 17.74 74 17.74s53.48-5.92 73.81-17.74l101.86-59.2a1.93 1.93 0 0 0 1.13-1.7"/>
                <path class="cls-6" d="M875 636.32a4.29 4.29 0 0 0-2.46-.47L849.27 638c-2.27.2-3.22 1.85-1.57 2.8l8.36 4.82 3.86 2.27 7.55 4.36c1.66 1 4.54.42 4.85-.92l3.55-13.51a1.32 1.32 0 0 0-.81-1.43"/>
            </g>
            <path class="cls-32" d="M430.29 503.68l-36.91 15.35 14.76 8.59 34.25-16.9-12.1-7.04z"/>
            <path class="cls-14" d="M247.89 557.07a24.66 24.66 0 0 0-12.17 2.93c-2.9 1.69-4.54 3.85-4.54 6.06s1.6 4.38 4.54 6.07a27.06 27.06 0 0 0 24.35 0c2.9-1.69 4.54-3.85 4.54-6.06s-1.6-4.37-4.54-6.06a24.65 24.65 0 0 0-12.18-2.89"/>
            <path class="cls-2" d="M231.48 549.81l4.08 16.49a6.94 6.94 0 0 0 3.51 4.05c4.88 2.84 12.86 2.84 17.74 0a6.94 6.94 0 0 0 3.51-4.05l4.07-16.49c.84-3-.69-6.16-4.64-8.44-6.5-3.78-17.15-3.78-23.65 0-3.95 2.27-5.48 5.46-4.64 8.44z"/>
            <path class="cls-17" d="M231.48 549.8a9.35 9.35 0 0 0 4.64 5.29 26.1 26.1 0 0 0 23.65 0 9.34 9.34 0 0 0 4.64-5.29l-4.1 16.49a6.94 6.94 0 0 1-3.51 4.05c-4.88 2.84-12.86 2.84-17.74 0a6.94 6.94 0 0 1-3.51-4.05l-4.08-16.49z"/>
            <path class="cls-43" d="M247.89 540.12a22.32 22.32 0 0 0-11 2.62c-2.63 1.53-4.08 3.48-4.08 5.49s1.45 4 4.08 5.49a24.51 24.51 0 0 0 22 0c2.63-1.53 4.08-3.48 4.08-5.49s-1.45-4-4.08-5.49a22.32 22.32 0 0 0-11-2.62"/>
            <path class="cls-43" d="M247.89 540.12a22.32 22.32 0 0 0-11 2.62c-2.63 1.53-4.08 3.48-4.08 5.49s1.45 4 4.08 5.49a24.51 24.51 0 0 0 22 0c2.63-1.53 4.08-3.48 4.08-5.49s-1.45-4-4.08-5.49a22.32 22.32 0 0 0-11-2.62"/>
            <path class="cls-44" d="M258.92 546.34a22.34 22.34 0 0 0-11-2.62 22.32 22.32 0 0 0-11 2.62 8.51 8.51 0 0 0-3.68 3.69 4.54 4.54 0 0 1-.41-1.8c0-2 1.45-4 4.08-5.49a22.32 22.32 0 0 1 11-2.62 22.32 22.32 0 0 1 11 2.62c2.63 1.53 4.08 3.48 4.08 5.49a4.46 4.46 0 0 1-.41 1.8 8.51 8.51 0 0 0-3.66-3.69z"/>
            <path class="cls-45" d="M258.92 546.34a22.34 22.34 0 0 0-11-2.62 22.32 22.32 0 0 0-11 2.62 8.51 8.51 0 0 0-3.68 3.69 4.54 4.54 0 0 1-.41-1.8c0-2 1.45-4 4.08-5.49a22.32 22.32 0 0 1 11-2.62 22.32 22.32 0 0 1 11 2.62c2.63 1.53 4.08 3.48 4.08 5.49a4.46 4.46 0 0 1-.41 1.8 8.51 8.51 0 0 0-3.66-3.69z"/>
            <path class="cls-46" d="M244.15 547.81a6.26 6.26 0 0 0 5.67-.06 2 2 0 0 0 1.13-1.62c0-3.74-.12-20.19-1.49-31.33-.3-2.42-1.37-10.21-2.87-9.34-2 1.13-3.68 22.55-3.68 40.68a2 2 0 0 0 1.21 1.67"/>
            <path class="cls-47" d="M249.35 551.61a6.25 6.25 0 0 0 5.67-.06 2 2 0 0 0 1.13-1.62c0-3.74-.12-20.19-1.49-31.33-.3-2.42-1.37-10.21-2.87-9.34-2 1.13-3.68 22.55-3.68 40.68a2 2 0 0 0 1.21 1.66"/>
            <path class="cls-48" d="M239.94 550.45a3.85 3.85 0 0 0 3.49 0 1.23 1.23 0 0 0 .69-1c0-2.27-.08-12.4-.91-19.29-.18-1.49-.84-6.27-1.76-5.74-1.23.73-2.27 13.85-2.27 25a1.25 1.25 0 0 0 .75 1"/>
            <path class="cls-14" d="M500.5 604.18h4.23c1.06-4 6.93-7 14-7 7.85 0 14.23 3.73 14.23 8.33s-6.38 8.33-14.23 8.33c-7.14 0-13-3.09-14.06-7.1h-4.17a1.25 1.25 0 0 1 0-2.51z"/>
            <path class="cls-17" d="M518.79 581.94c7.85 0 14.23 3.73 14.23 8.33a5 5 0 0 1-.24 1.49l-2.2 13.62c0 3.81-5.28 6.91-11.79 6.91s-11.79-3.1-11.79-6.92l-2.2-13.62a5 5 0 0 1-.24-1.49c0-4.58 6.36-8.32 14.23-8.32z"/>
            <ellipse class="cls-45" cx="518.79" cy="590.27" rx="14.23" ry="8.33"/>
            <path class="cls-49" d="M518.79 589.25c5.46 0 9.7 1.8 11.62 4-1.92 2.16-6.16 4-11.62 4s-9.71-1.77-11.57-4c1.85-2.2 6.11-4 11.57-4z"/>
            <path class="cls-17" d="M504.46 593.27s-3.74-.39-5 2.49 1.87 8.4 8.29 11.64c0 0 1.77-.67 1.13-1.51-.76-1-6.65-3.77-6.9-7.46s3.72-2.55 4.44-1.63a2.55 2.55 0 0 0-2-3.53z"/>
            <path class="cls-2" d="M518.79 583.64c7.49 0 12.48 3.4 12.48 6.63 0 3.6-5.74 6.63-12.48 6.63s-12.48-3-12.48-6.63c0-3.2 5-6.63 12.48-6.63m0-1.7c-7.86 0-14.23 3.73-14.23 8.33s6.38 8.33 14.23 8.33 14.21-3.73 14.21-8.33-6.36-8.33-14.21-8.33z"/>
            <path class="cls-14" d="M951.66 601.07c16.94 9.85 19.93 24.23 6.64 32s-38 6-55-3.86-19.93-24.23-6.64-32 38.08-5.99 55 3.86z"/>
            <path class="cls-2" d="M885.92 366.59c-6.18 13.12-9 34.19-10 52.46l18 1.91L911 376.7"/>
            <path class="cls-15" d="M889.89 457.67s.65 6.55 1.13 8.4c.28 1.13.45 2 .68 2.85.31 1.13.39 1.77 0 2.07s-1.08.37-1.76-2a10.52 10.52 0 0 0 2.27 4.41c1.28 1.38 3.17 2.79 2.67 3.53s-1.88 0-1.88 0-.16 1.13-1.87.25c0 0-.2 1-1.93-.25 0 0-.68.79-2.27-.79s-7.39-7.78-7.53-19.23z"/>
            <path class="cls-2" d="M876 418.68c-1.79 32 3.19 41.79 3.19 41.79l10.85.3 3.89-39.83"/>
            <circle class="cls-2" cx="884.98" cy="419.21" r="9.03"/>
            <circle class="cls-2" cx="898.11" cy="372.58" r="13.57"/>
            <path class="cls-30" d="M943.25 618.66c3.69-3.69 8.15-5.21 10-3.4s.31 6.29-3.4 10a22.22 22.22 0 0 1-5 4.15 4.1 4.1 0 0 1-4.94-.77c-1.13-1.13-1-5.57-1-6.68.56-1.14 2.89-1.83 4.34-3.3z"/>
            <path class="cls-15" d="M943.26 618.59c2.41-2.27 5.28-3.19 6.4-2s.11 4-2.27 6.3"/>
            <path class="cls-30" d="M912.64 601.07c3.69-3.69 8.15-5.21 10-3.4s.31 6.29-3.4 10a22.22 22.22 0 0 1-5 4.15 4.1 4.1 0 0 1-4.94-.77c-1.13-1.13-1-5.57-1-6.68.6-1.11 2.87-1.8 4.34-3.3z"/>
            <path class="cls-15" d="M912.71 600.71c2.41-2.27 5.28-3.19 6.4-2s.11 4-2.27 6.3a10 10 0 0 1-4.54 2.76"/>
            <path class="cls-15" d="M965.46 449.61l-75.8 2.59 14.84 94 4.09 57.8c.07 2 1.38 4.81 4.35 3.56 4.32-1.82 4.26-3.55 4.54-5.09 0 0 5.36-35.27 8-58.63a339.34 339.34 0 0 0 2-36.92l8.19 50.86 3.4 63.09v.2c0 2 1.13 4.63 4.54 3.78 4.23-1 4.7-2.93 4.81-4.78.43-2.14 9.69-47.08 12-66.27 2.27-19.67 7.99-98.04 5.04-104.19z"/>
            <path class="cls-31" d="M939.06 547.25a25.07 25.07 0 0 0 9.58.58c9.83-1.37 20.14-12 20.14-12v-76.27c-.34-3.46-.76-6.75-1.32-9.85-1.89-9.3-5.44-14.84-13.19-21a25.87 25.87 0 0 0-3.4-2.27c-9.87-5.57-28.74-9.89-41-5.17-16.12 6.21-16.11 25.29-16.12 25.25V519a164.3 164.3 0 0 0 19.69 15c10.37 6.7 23.17 12.61 25.62 13.25z"/>
            <path class="cls-2" d="M971.52 384.58c2.66 18.62 1.65 88.62 1.65 88.62 0 14.94-3.77 26.71-24.25 29.58a34.4 34.4 0 0 1-11.53-.7c-15.89-3.4-35.06-14.82-42.56-21.56-12.56-11.39-12-22.13-12-31.5v-68.25s0-22.94 19.41-30.41c14.75-5.67 37.45-.48 49.37 6.23-.04 0 17.15 8.59 19.91 27.99z"/>
            <path class="cls-14" d="M970 378.33a10.9 10.9 0 0 0-7.94-3.7c-11.85 0-11 13.42-11 13.42v75.33c0 29-6.57 37-10.85 39.18a31.28 31.28 0 0 0 8.77.2c20.49-2.87 24.25-14.64 24.25-29.58 0 0 1-70-1.65-88.62a35.47 35.47 0 0 0-1.58-6.23z"/>
            <path class="cls-15" d="M942.85 333.6c.11-11.22-6.81-20.42-15.38-20.42-5.24 0-11.35 1.42-14.22 6.56-1.85 3.3-1.53 9.2-1.58 13.62a24.2 24.2 0 0 0 3.52 13.09v4.79c0 1.54 1.13 3.09 3.13 4.27a16.56 16.56 0 0 0 15 0c2-1.13 3-2.67 3.08-4.19v-1.45a22.82 22.82 0 0 0 6.45-16.27z"/>
            <path class="cls-34" d="M945.64 325.08c1.66-4 .89-9.21-1.62-13.19-4.54-7.23-7.86-9.54-12.91-10.65a16 16 0 0 0-8.75.64 9.83 9.83 0 0 0-8 1.34c-2.27 1.63-3.13 2.92-5.31 6.71-2 3.46-2.27 8.46-2.2 13.68-.93 15.09 8.18 23.59 8.18 23.59a15.81 15.81 0 0 0 3.78 1.77c3.35 1 13.36 1.76 17.49-7.23a54.71 54.71 0 0 0 2.08-6.75c0-1-1.13-4.92.83-6.26s2.11 1.34 2.11 1.34.26 4.66-.9 6.72-1.53 6.81.64 8.32c0 0-1.79-3.59-.12-5.56s5.97-7.3 4.7-14.47z"/>
            <path class="cls-33" d="M914 309.93s-11.89-12.28-16.5 4c0 0-2.55 7-.12 13.56s6.65 10.36 1.13 15c0 0 15-3.84 16.5-23.66-.01-.08.9-7.11-1.01-8.9z"/>
            <path class="cls-35" d="M914 309.93s-11.89-12.28-16.5 4c0 0-2.55 7-.12 13.56s6.65 10.36 1.13 15c0 0 15-3.84 16.5-23.66-.01-.08.9-7.11-1.01-8.9z"/>
            <path class="cls-2" d="M939.13 385.41l11.5 59.59 21.67-4s-.14-4.54-.26-10.3c-.56-24.5 1.59-42.21-2.83-55-2.1-6.08-33.42-3.47-30.09 9.74"/>
            <path class="cls-15" d="M965.2 490s4.29 11.61 4.22 14c-.06 2-.52 3.18.66 3.78 1.59.79 2.21-.4 2.21-.4a1.78 1.78 0 0 0 2.71-.83s1.55 1 2.27-1.48c0 0 1.67 1.38 2.12-3.35.52-5.59-3.84-14.25-3.88-14.35z"/>
            <path class="cls-15" d="M970.36 507.93a3.84 3.84 0 0 1-2.18-2.47c-.62-1.94.4-3.73 2.27-3.69-.03-.01 3.55 6.75-.09 6.16z"/>
            <path class="cls-2" d="M972.28 440.71l4.95 52.08-10.46 4.95a343.38 343.38 0 0 1-16.37-53.82"/>
            <circle class="cls-2" cx="961.22" cy="441.69" r="11.1" transform="rotate(-29.16 961.214 441.687)"/>
            <circle class="cls-2" cx="966.84" cy="386.54" r="16.01" transform="rotate(-.22 968.078 387.304)"/>
            <path class="cls-2" d="M1227.62 468.4l156.81 91.53-.27 158.18-83.79 48.53-156.84-91.52.28-158.19 83.81-48.53z"/>
            <path class="cls-3" d="M1143.81 516.93l156.82 91.53-.26 158.18-156.84-91.52.28-158.19z"/>
            <path class="cls-4" d="M1384.43 559.93l-83.8 48.53-.26 158.18 83.79-48.53.27-158.18z"/>
            <path class="cls-2" d="M1384.43 559.93l-83.8 48.53-156.65-91.25.01-6.08 83.79-48.53 156.66 91.24-.01 6.09z"/>
            <path class="cls-3" d="M1300.63 608.46l-156.65-91.25.01-6.08 156.66 91.24-.02 6.09z"/>
            <path class="cls-4" d="M1300.63 608.46l83.8-48.53.01-6.09-83.79 48.53-.02 6.09z"/>
            <path class="cls-5" d="M1088.87 706.15l249.64 140.35v.01l-2.57 1.43-249.54-140.35 2.47-1.44z"/>
            <path class="cls-6" d="M1177.21 757.56l-2.47 1.44V341.16l2.46-1.43.01 417.83z"/>
            <path class="cls-7" d="M1177.21 757.56l-2.47 1.44V341.16l2.46-1.43.01 417.83z"/>
            <path class="cls-6" d="M1088.77 706.15l-2.47 1.44V291.47h-.01l2.47-1.44.01 416.12z"/>
            <path class="cls-7" d="M1088.77 706.15l-2.47 1.44V291.47h-.01l2.47-1.44.01 416.12z"/>
            <path class="cls-2" d="M1335.79 847.95l-249.54-140.37 249.54 140.36v.01z"/>
            <path class="cls-8" d="M1086.24 291.47l2.49-1.21 249.55 140.58h.01l.01 415.9-2.49 1.32-249.57-140.48V291.15"/>
            <path class="cls-3" d="M1338.3 846.51l-2.46 1.43V431.83l-.01-.01 2.47-1.43v416.12z"/>
            <path class="cls-2" d="M1088.76 290.03l249.54 140.36-2.47 1.43-249.54-140.35 2.47-1.44z"/>
            <path class="cls-6" d="M1086.29 291.47l2.47-1.44 249.54 140.36v416.12l-2.46 1.43V431.83l-.01-.01-249.54-140.35z"/>
            <path class="cls-5" d="M1338.3 846.51l-2.46 1.43V431.83l-.01-.01 2.47-1.43v416.12z"/>
            <path class="cls-9" d="M1088.76 290.03l249.54 140.36-2.47 1.43-249.54-140.35 2.47-1.44z"/>
            <g class="cls-10 cls-50">
                <path class="cls-12" d="M1272.58 378.58l-127.45 396.09 29.08 24.51 142.45-389.43-44.08-31.17zM1252.21 364.43l-121.57 391.68 10.21 11.67 125.57-395.17-14.21-8.18z"/>
                <path class="cls-12" d="M1313.39 401.94l-121.36 391.68v5.76l125.47-381.6-4.11-15.84z"/>
            </g>
            <circle class="cls-44" cx="507.78" cy="239.83" r="46.5"/>
            <path class="cls-2" d="M532.9 237.11h-5.38a1.85 1.85 0 0 0 0 3.69h5.38a1.85 1.85 0 0 0 0-3.69zM488 237.11h-5.38a1.85 1.85 0 0 0 0 3.69H488a1.85 1.85 0 0 0 0-3.69zM507.78 221.06a1.85 1.85 0 0 0 1.84-1.85v-5.38a1.84 1.84 0 1 0-3.69 0v5.38a1.84 1.84 0 0 0 1.85 1.85zM526.85 219.89a1.84 1.84 0 0 0-2.61 0l-3.8 3.8a1.84 1.84 0 1 0 2.56 2.61l3.8-3.8a1.85 1.85 0 0 0 .05-2.61zM495.13 223.69l-3.8-3.8a1.85 1.85 0 0 0-2.61 2.61l3.8 3.8a1.85 1.85 0 0 0 2.61-2.61zM507.78 225.7a13.22 13.22 0 0 0-7.69 24v4.61a2.46 2.46 0 0 0 2.46 2.46H513a2.46 2.46 0 0 0 2.46-2.46v-4.6a13.22 13.22 0 0 0-7.69-24zM507.78 264.47a4.62 4.62 0 0 0 4.62-4.55h-9.23a4.62 4.62 0 0 0 4.61 4.55z"/>
            <circle class="cls-44" cx="923.04" cy="225.8" r="46.5"/>
            <path class="cls-2" d="M949.79 220.48l-4.07-4.07v-5.76l-5.32-2.2-2.2-5.32h-5.76l-4.07-4.07-5.32 2.2-5.32-2.2-4.07 4.07h-5.76l-2.2 5.32-5.32 2.2v5.76l-4.07 4.07 2.2 5.32-2.2 5.32 4.07 4.07V241l5.32 2.2 2.2 5.32h5.76l4.07 4.07 5.32-2.2 5.32 2.2 4.07-4.07h5.76l2.2-5.32 5.32-2.2v-5.8l4.07-4.07-2.2-5.32zm-25 20v3.13a1.78 1.78 0 0 1-3.57 0v-3.15a8.93 8.93 0 0 1-7.13-8.74 1.78 1.78 0 0 1 3.57 0 5.36 5.36 0 0 0 5.34 5.38c3.15 0 5.35-2 5.35-4.76 0-2.32-1.93-3.94-5.74-4.8-7-1.61-8.52-5.39-8.52-8.28a8.27 8.27 0 0 1 7.13-8.17V208a1.78 1.78 0 0 1 3.57 0v3.16a8.88 8.88 0 0 1 7 7.25 1.78 1.78 0 1 1-3.52.59 5.33 5.33 0 0 0-5.28-4.46c-3.15 0-5.35 2-5.35 4.76 0 .86 0 3.49 5.74 4.8 7.42 1.68 8.52 5.91 8.52 8.28a8.26 8.26 0 0 1-7.07 8.13z"/>
        </g>
    </g>
</svg>
