<svg xmlns="http://www.w3.org/2000/svg" viewBox="0 0 1704.82 943.54">
    <defs>
        <style>
            .cls-1,.cls-12{fill:none}.cls-2{isolation:isolate}.cls-3{clip-path:url(#clip-path)}.cls-4{fill:#2b90ff}.cls-5{clip-path:url(#clip-path-2)}.cls-6{fill:#f5f5f5}.cls-7{clip-path:url(#clip-path-3)}.cls-8{fill:#d8d8d8}.cls-35,.cls-36,.cls-37,.cls-81,.cls-9{fill:#fff}.cls-10{opacity:.2}.cls-11{fill:#616161}.cls-12{stroke:#616161;stroke-width:2px}.cls-12,.cls-80{stroke-miterlimit:10}.cls-13{fill:#3a3a3a}.cls-14{opacity:.03}.cls-15{fill:#45464a}.cls-16{fill:#fcceae}.cls-17{fill:#ffcfae}.cls-18{fill:#147281}.cls-19{fill:#9b9b9b}.cls-20{opacity:.1}.cls-21{fill:#424242}.cls-22{fill:#392517}.cls-22,.cls-27,.cls-78{opacity:.08}.cls-23{fill:#683d1e;opacity:.05}.cls-24{fill:#081b2f}.cls-25{fill:#248cea}.cls-26{fill:#10355d}.cls-27{fill:#3a2416}.cls-28{fill:#dbdbdb}.cls-29{fill:#bababa}.cls-30{fill:#f9f9f9}.cls-31{fill:#f4f4f4}.cls-32{fill:#ededed}.cls-33{fill:#fcfcfc}.cls-34{fill:#e9e9ea}.cls-35{opacity:.6}.cls-36{opacity:.3}.cls-37{opacity:.4}.cls-38{fill:#e5e5e5}.cls-38,.cls-40{opacity:.5}.cls-39{fill:#f47a7a}.cls-40{fill:#efefef}.cls-41{fill:#d6d6d6}.cls-42{fill:#f2f2f2;opacity:.9}.cls-43{fill:#ffdfca}.cls-44{fill:#08253f}.cls-45{fill:#eab896}.cls-46{clip-path:url(#clip-path-4)}.cls-47{fill:#c9c9c9}.cls-48{clip-path:url(#clip-path-5)}.cls-49{fill:#e8e8e8}.cls-50{clip-path:url(#clip-path-6)}.cls-51{clip-path:url(#clip-path-7)}.cls-52{fill:#9eccff}.cls-53{clip-path:url(#clip-path-8)}.cls-54{clip-path:url(#clip-path-9)}.cls-55{clip-path:url(#clip-path-10)}.cls-56{clip-path:url(#clip-path-11)}.cls-57{clip-path:url(#clip-path-12)}.cls-58{clip-path:url(#clip-path-13)}.cls-59{fill:#82c0f9}.cls-60{clip-path:url(#clip-path-14)}.cls-61{clip-path:url(#clip-path-15)}.cls-62{clip-path:url(#clip-path-16)}.cls-63{clip-path:url(#clip-path-17)}.cls-64{clip-path:url(#clip-path-18)}.cls-65{clip-path:url(#clip-path-19)}.cls-66{clip-path:url(#clip-path-20)}.cls-67{clip-path:url(#clip-path-21)}.cls-68{clip-path:url(#clip-path-22)}.cls-69{clip-path:url(#clip-path-23)}.cls-70{clip-path:url(#clip-path-24)}.cls-71{clip-path:url(#clip-path-25)}.cls-72{clip-path:url(#clip-path-26)}.cls-73{clip-path:url(#clip-path-27)}.cls-74{clip-path:url(#clip-path-28)}.cls-75{clip-path:url(#clip-path-29)}.cls-76{clip-path:url(#clip-path-30)}.cls-77{fill:#444549}.cls-79,.cls-80{fill:#ffb522}.cls-80{stroke:#fff;stroke-width:3px}.cls-81{font-size:21.33px;font-family:SourceSansPro-Bold,Source Sans Pro;font-weight:700}.cls-82{clip-path:url(#clip-path-31)}
        </style>
        <clipPath id="clip-path" transform="translate(-19.82)">
            <path class="cls-1" d="M542.39 364.03l367.39-213.5 191.13 110.35-367.38 213.5-191.14-110.35z"/>
        </clipPath>
        <clipPath id="clip-path-2" transform="translate(-19.82)">
            <path class="cls-1" d="M0 611.99l461.73-268.33 464.74 268.32-461.72 268.33L0 611.99z"/>
        </clipPath>
        <clipPath id="clip-path-3" transform="translate(-19.82)">
            <path class="cls-1" d="M818 500.65l461.72-268.32 464.75 268.32-461.72 268.32L818 500.65z"/>
        </clipPath>
        <clipPath id="clip-path-4" transform="translate(-19.82)">
            <path class="cls-1" d="M1170.24 156.59l-.03-10.32 25.47-14.71.03 10.32-25.47 14.71z"/>
        </clipPath>
        <clipPath id="clip-path-5" transform="translate(-19.82)">
            <path class="cls-1" d="M1059.51 355.13l262.66-152.64 106.07 61.24-262.66 152.64-106.07-61.24z"/>
        </clipPath>
        <clipPath id="clip-path-6" transform="translate(-19.82)">
            <path class="cls-1" d="M1059.52 350.13l262.65-152.64 106.07 61.24-262.65 152.64-106.07-61.24z"/>
        </clipPath>
        <clipPath id="clip-path-7" transform="translate(-19.82)">
            <path class="cls-1" d="M1182.58 300.72l14.81-8.61 20.81 12.02-14.82 8.61-20.8-12.02z"/>
        </clipPath>
        <clipPath id="clip-path-8" transform="translate(-19.82)">
            <path class="cls-1" d="M1201.62 290.06l14.82-8.61 20.81 12.01-14.82 8.61-20.81-12.01z"/>
        </clipPath>
        <clipPath id="clip-path-9" transform="translate(-19.82)">
            <path class="cls-1" d="M1219.74 278.93l14.82-8.61 20.81 12.02-14.82 8.61-20.81-12.02z"/>
        </clipPath>
        <clipPath id="clip-path-10" transform="translate(-19.82)">
            <path class="cls-1" d="M1239.11 267.81l14.82-8.61 20.81 12.01-14.82 8.61-20.81-12.01z"/>
        </clipPath>
        <clipPath id="clip-path-11" transform="translate(-19.82)">
            <path class="cls-1" d="M1249.37 316.65l20.36-11.83 24.34 14.05-20.36 11.83-24.34-14.05z"/>
        </clipPath>
        <clipPath id="clip-path-12" transform="translate(-19.82)">
            <path class="cls-1" d="M1274.64 308.47l15.7-9.13 21.44 12.38-15.7 9.13-21.44-12.38z"/>
        </clipPath>
        <clipPath id="clip-path-13" transform="translate(-19.82)">
            <path class="cls-1" d="M1226.92 342.06l8.93-5.19 8.98 5.19-8.93 5.18-8.98-5.18z"/>
        </clipPath>
        <clipPath id="clip-path-14" transform="translate(-19.82)">
            <path class="cls-1" d="M1226.92 341.17l8.93-5.19 8.98 5.19-8.93 5.19-8.98-5.19z"/>
        </clipPath>
        <clipPath id="clip-path-15" transform="translate(-19.82)">
            <path class="cls-1" d="M1229.79 339.81l8.93-5.19 8.99 5.19-8.93 5.19-8.99-5.19z"/>
        </clipPath>
        <clipPath id="clip-path-16" transform="translate(-19.82)">
            <path class="cls-1" d="M1229.79 338.92l8.93-5.19 8.99 5.19-8.93 5.19-8.99-5.19z"/>
        </clipPath>
        <clipPath id="clip-path-17" transform="translate(-19.82)">
            <path class="cls-1" d="M1227.3 338.18l8.93-5.19 8.98 5.19-8.93 5.19-8.98-5.19z"/>
        </clipPath>
        <clipPath id="clip-path-18" transform="translate(-19.82)">
            <path class="cls-1" d="M1227.3 337.3l8.92-5.19 8.99 5.19-8.93 5.18-8.98-5.18z"/>
        </clipPath>
        <clipPath id="clip-path-19" transform="translate(-19.82)">
            <path class="cls-1" d="M1227.92 335.93l8.93-5.19 8.98 5.19-8.93 5.19-8.98-5.19z"/>
        </clipPath>
        <clipPath id="clip-path-20" transform="translate(-19.82)">
            <path class="cls-1" d="M1227.92 335.05l8.93-5.19 8.98 5.19-8.93 5.18-8.98-5.18z"/>
        </clipPath>
        <clipPath id="clip-path-21" transform="translate(-19.82)">
            <path class="cls-1" d="M1228.04 333.56l8.93-5.19 8.99 5.18-8.93 5.19-8.99-5.18z"/>
        </clipPath>
        <clipPath id="clip-path-22" transform="translate(-19.82)">
            <path class="cls-1" d="M1228.05 332.67l8.92-5.19 8.98 5.19-8.92 5.19-8.98-5.19z"/>
        </clipPath>
        <clipPath id="clip-path-23" transform="translate(-19.82)">
            <path class="cls-1" d="M1226.97 331.85l8.92-5.19 8.99 5.19-8.93 5.19-8.98-5.19z"/>
        </clipPath>
        <clipPath id="clip-path-24" transform="translate(-19.82)">
            <path class="cls-1" d="M1226.97 330.96l8.92-5.19 8.99 5.19-8.93 5.19-8.98-5.19z"/>
        </clipPath>
        <clipPath id="clip-path-25" transform="translate(-19.82)">
            <path class="cls-1" d="M1210.96 346.19l8.93-5.19 8.99 5.18-8.94 5.19-8.98-5.18z"/>
        </clipPath>
        <clipPath id="clip-path-26" transform="translate(-19.82)">
            <path class="cls-1" d="M1210.96 345.3l8.93-5.19 8.98 5.19-8.92 5.18-8.99-5.18z"/>
        </clipPath>
        <clipPath id="clip-path-27" transform="translate(-19.82)">
            <path class="cls-1" d="M1222.63 352.6l8.93-5.19 8.98 5.19-8.93 5.19-8.98-5.19z"/>
        </clipPath>
        <clipPath id="clip-path-28" transform="translate(-19.82)">
            <path class="cls-1" d="M1222.63 351.71l8.92-5.18 8.99 5.18-8.93 5.19-8.98-5.19z"/>
        </clipPath>
        <clipPath id="clip-path-29" transform="translate(-19.82)">
            <path class="cls-1" d="M1222.63 350.6l8.92-5.19 8.99 5.19-8.93 5.18-8.98-5.18z"/>
        </clipPath>
        <clipPath id="clip-path-30" transform="translate(-19.82)">
            <path class="cls-1" d="M1222.63 349.71l8.93-5.19 8.98 5.19-8.93 5.19-8.98-5.19z"/>
        </clipPath>
        <clipPath id="clip-path-31" transform="translate(-19.82)">
            <path class="cls-1" d="M584.98 861.01l367.39-213.5 191.13 110.35-367.39 213.5-191.13-110.35z"/>
        </clipPath>
    </defs>
    <title>
        Measure Customer Flow
    </title>
    <g id="Layer_2" data-name="Layer 2">
        <g id="Layer_1-2" data-name="Layer 1">
            <g class="cls-2 cls-3">
                <path class="cls-4" d="M1098.43 259.45L983.18 192.9c-16.79-9.69-38.79-14.55-60.72-14.55s-43.88 4.85-60.56 14.55l-284 165 5 2.87 284-165c15.34-8.91 35.45-13.36 55.62-13.36s40.33 4.45 55.77 13.36l115.26 66.54a5.45 5.45 0 0 0 5 0c1.36-.79 1.36-2.08 0-2.87M593.72 367.06l-10.84-6.26-5-2.87-10.18-5.88c-2.18-1.26-5.9-.56-6.37 1.2L556.7 371c-.19.73.25 1.4 1.06 1.87a5.64 5.64 0 0 0 3.24.61l30.66-2.76c3-.27 4.24-2.43 2.06-3.69" transform="translate(-19.82)"/>
            </g>
            <path class="cls-2 cls-5 cls-6" d="M892.52 592.38L495.68 363.26c-18.75-10.83-49.06-10.83-67.69 0L33.73 592.38c-18.63 10.83-18.53 28.38.27 39.21L430.79 860.7c18.75 10.83 49.06 10.83 67.69 0l394.26-229.11c18.63-10.83 18.53-28.38-.22-39.21" transform="translate(-19.82)"/>
            <path class="cls-2 cls-7 cls-6" d="M1710.51 481l-396.83-229.07c-18.75-10.83-49.06-10.83-67.69 0L851.74 481c-18.63 10.83-18.53 28.38.22 39.21l396.84 229.16c18.75 10.83 49.06 10.83 67.69 0l394.25-229.11c18.63-10.83 18.53-28.38-.22-39.21" transform="translate(-19.82)"/>
            <path class="cls-8" d="M607.83 577.27c12-7 31-8.26 49.12-4.39.19-.12.35-.24.54-.35 17.29-10.05 49.4-29.09 49.4-29.09l9.3 5.41-1.88-10.85c0-.35.7-.63 1.56-.63s1.56.28 1.56.63l2.23 12.86 64.17 37.3 21.34 1c1.11 0 2 .43 2 .95s-.91.93-2 .93l-17.83-.82 9.4 5.47s-32.12 19-49.41 29.09a40.78 40.78 0 0 1-12.41 4.45l.47 2.82c0 .35-.7.62-1.57.62s-1.56-.3-1.55-.64l-.38-2.26c-11.86 1.75-26.25.32-40-3.87l-.21.14c-18.09 10.51-51.74 8.15-74.8-5.25s-27.14-33-9.05-43.52z" transform="translate(-19.82)"/>
            <path class="cls-9" d="M722.14 450.32a4 4 0 0 0-3.59 0c-1 .57-2.6 20.43-3.58 44.13-.89 21.6-1.14 39.9-.61 43.3a.77.77 0 0 0 .45.63 1.83 1.83 0 0 0 .5.19 3.24 3.24 0 0 0 1.2 0 1.82 1.82 0 0 0 .48-.19.78.78 0 0 0 .45-.63c.84-3.39 2.46-21.7 3.81-43.31 1.48-23.69 1.88-43.55.89-44.12z" transform="translate(-19.82)"/>
            <path class="cls-9" d="M717.44 537.75c.15-.59.32-1.65.51-3.09a1.2 1.2 0 0 1-.51.53 3.06 3.06 0 0 1-2.77 0 1.13 1.13 0 0 1-.53-.57 29.24 29.24 0 0 0 .21 3.13.77.77 0 0 0 .45.63 1.83 1.83 0 0 0 .5.19 3.24 3.24 0 0 0 1.2 0 1.82 1.82 0 0 0 .48-.19.78.78 0 0 0 .46-.63z" transform="translate(-19.82)"/>
            <path class="cls-10" d="M722.14 450.32l-4.92 87.86a.67.67 0 0 0 .22-.43c.84-3.39 2.46-21.7 3.81-43.31 1.48-23.69 1.88-43.55.89-44.12z" transform="translate(-19.82)"/>
            <path class="cls-11" d="M642.29 533.11l-.18-1.5 68.22-8.13.18 1.5-68.22 8.13z"/>
            <path class="cls-11" transform="rotate(-74.58 749.11 545.173)" d="M758.24 502.34h1.51v59.64h-1.51z"/>
            <path class="cls-11" transform="rotate(-44.18 743.599 529.281)" d="M752.76 455.74h1.51v98.24h-1.51z"/>
            <path class="cls-11" transform="rotate(-47.65 680.77 523.412)" d="M648.29 500.22h84.83v1.51h-84.83z"/>
            <path class="cls-11" transform="rotate(-60.92 742.672 552.83)" d="M710.19 535.22h84.75v1.51h-84.75z"/>
            <path class="cls-11" transform="rotate(-.94 739.387 1709.777)" d="M717.82 498.64h55.36v1.51h-55.36z"/>
            <path class="cls-11" transform="rotate(-34.88 694.188 564.614)" d="M703.37 484.41h1.51v97.34h-1.51z"/>
            <path class="cls-11" transform="rotate(-80.85 687.113 508.134)" d="M696.31 475.46h1.51v42.07h-1.51z"/>
            <path class="cls-13" d="M664.62 472.23l44.92 26.12 35.92-20.89-44.94-26.12-35.9 20.89z"/>
            <path class="cls-9" d="M732.39 631.78a.76.76 0 0 0 .44.62 1.87 1.87 0 0 0 .49.19 3.25 3.25 0 0 0 1.15 0 1.69 1.69 0 0 0 .49-.19.77.77 0 0 0 .41-.53c.58-4 .33-32.67-.6-66.91-1-36.63-2.63-67.06-3.62-67.64a4 4 0 0 0-3.59 0c-1 .57-.57 31 .92 67.63 1.39 34 3.07 62.63 3.89 66.83z" transform="translate(-19.82)"/>
            <path class="cls-9" d="M715.76 628.47v.01-.01z"/>
            <path class="cls-9" d="M735.06 629.21a2.83 2.83 0 0 1-2.57 0 1 1 0 0 1-.49-.54c.14 1.47.28 2.54.39 3.12a.76.76 0 0 0 .44.62 1.87 1.87 0 0 0 .49.19 3.25 3.25 0 0 0 1.15 0 1.69 1.69 0 0 0 .49-.19.77.77 0 0 0 .41-.53c.09-.59.16-1.75.21-3.39a.91.91 0 0 1-.52.72z" transform="translate(-19.82)"/>
            <path class="cls-10" d="M735.38 631.87c.58-4 .33-32.67-.6-66.91-1-36.63-2.63-67.06-3.62-67.64l4.08 134.83a.58.58 0 0 0 .14-.28z" transform="translate(-19.82)"/>
            <path class="cls-9" d="M804.53 590.63a1.92 1.92 0 0 0 .49.19 3.17 3.17 0 0 0 1.15 0 1.89 1.89 0 0 0 .5-.19.78.78 0 0 0 .41-.53c-.43-3.52-8.32-27.72-18.45-56.49-10.88-30.88-20.63-56.61-21.58-57.19a4 4 0 0 0-3.6 0c-1 .57 7.51 26.31 18.88 57.2 10.86 29.49 20.38 54.17 21.86 56.71a1 1 0 0 0 .34.3z" transform="translate(-19.82)"/>
            <path class="cls-9" d="M807.08 590.11a29.16 29.16 0 0 0-.78-3.3 1 1 0 0 1-.51.65 2.2 2.2 0 0 1-.61.24 4 4 0 0 1-1.41 0 2.38 2.38 0 0 1-.61-.24 1.2 1.2 0 0 1-.42-.39c.71 1.69 1.21 2.82 1.47 3.26a.7.7 0 0 0 .13.16 1.17 1.17 0 0 0 .2.15 1.92 1.92 0 0 0 .49.19 3.17 3.17 0 0 0 1.15 0 1.89 1.89 0 0 0 .5-.19 1 1 0 0 0 .28-.25.66.66 0 0 0 .12-.28z" transform="translate(-19.82)"/>
            <path class="cls-10" d="M807.08 590.11c-.43-3.52-8.32-27.72-18.45-56.49-10.88-30.89-20.63-56.62-21.58-57.2L807 590.33a.71.71 0 0 0 .08-.22z" transform="translate(-19.82)"/>
            <path class="cls-9" d="M686.24 471.19a4 4 0 0 0-3.59 0c-1 .58-10.69 25.9-21.56 55.35-10.13 27.45-18 50.44-18.44 54.66s.06-.56.13-.48.16-.2.29-.13.32 0 .5 0a3.32 3.32 0 0 0 1.16-.09 2 2 0 0 0 .5-.24s0-.06.07-.08 0-.05.05-.06c.74-.43 10.65-24.88 22-54.33s19.88-54.03 18.89-54.6z" transform="translate(-19.82)"/>
            <path class="cls-9" d="M645.36 580.1a17 17 0 0 0 1.51-3.06l.19-.45a1.21 1.21 0 0 1-.42.4 2.45 2.45 0 0 1-.62.24 4.07 4.07 0 0 1-1.43 0 2.2 2.2 0 0 1-.59-.23 1 1 0 0 1-.5-.61c-.24.83-.43 1.52-.57 2.08s-.2.93-.24 1.21a.63.63 0 0 0 .13.28.92.92 0 0 0 .29.25 1.76 1.76 0 0 0 .5.19 3.34 3.34 0 0 0 1.16 0 1.93 1.93 0 0 0 .5-.19l.07-.05z" transform="translate(-19.82)"/>
            <path class="cls-10" d="M645.36 580.1c.74-.43 10.65-24.88 22-54.33s19.86-54 18.87-54.59z" transform="translate(-19.82)"/>
            <path class="cls-9" d="M794.24 425c-2.54-22.16-13.06-45.1-23.45-51.14L734.87 353c-3.22-1.84-7.39-.54-10.54 1l-.88.46c-5.77 3.17-10.47 11.8-12.05 23.73-2.47 18.67-4.5 38.64-4.5 44.39s-4 12.8-9 15.68l-40.42 23.51c-6.71 3.9-9.9 9.3-9.86 15.28 0 0 0 10.3 4.13 15.58a62.9 62.9 0 0 0 18.18 15.27 106.63 106.63 0 0 0 51.31 13.83c11 0 20.31-2.08 27.07-6l40.43-23.5c5.6-3.25 10-10.9 10-17.4 0-5.78-2.02-28.14-4.5-49.83z" transform="translate(-19.82)"/>
            <path class="cls-10" d="M651.77 492.67a62.9 62.9 0 0 0 18.18 15.27 106.63 106.63 0 0 0 51.31 13.83c11 0 20.31-2.08 27.07-6l40.43-23.5c5.6-3.25 10-10.9 10-17.4 0-5.82-2-28.18-4.5-49.85-2.54-22.16-13.06-45.1-23.45-51.14L734.87 353c-3.53-2-8.2-.26-11.42 1.51a10.1 10.1 0 0 1 10.41.23l35.93 20.89c9.88 5.75 20 28.08 22.46 49.63s4.49 43.88 4.49 49.62-4 12.79-9 15.66L747.31 514c-17.3 10.05-51.66 6.53-76.35-7.83-15.11-8.79-23.25-19.68-23.33-29.11 0 .03.05 10.33 4.14 15.61z" transform="translate(-19.82)"/>
            <path class="cls-14" d="M708.91 422.62c0-5.69 2-25.49 4.48-44.13 1.82-13.73 8-23.32 15-23.32a8.81 8.81 0 0 1 4.43 1.29l35.92 20.89c9.27 5.39 19.1 27.42 21.47 48.12 2.47 21.55 4.48 43.7 4.48 49.39" transform="translate(-19.82)"/>
            <path class="cls-15" d="M668.26 617c-4.57 4.56-10.1 6.44-12.37 4.17s-.4-7.8 4.17-12.37 10.11-6.45 12.37-4.18c1.36 1.36 1.27 4.94 1.27 6.31-.77 1.4-3.63 4.22-5.44 6.07z" transform="translate(-19.82)"/>
            <path class="cls-16" d="M668.22 612.21c-3 2.85-6.55 4-8 2.48s-.14-5 2.85-7.84 6.56-4 8-2.48.15 5-2.85 7.84z" transform="translate(-19.82)"/>
            <path class="cls-15" d="M627.35 593.55c-4.39 4.39-9.71 6.19-11.88 4s-.38-7.49 4-11.89 9.71-6.19 11.88-4c1.32 1.31 1.22 4.75 1.22 6.07-.73 1.36-3.48 4.07-5.22 5.82z" transform="translate(-19.82)"/>
            <path class="cls-16" d="M627.31 589c-2.87 2.74-6.3 3.81-7.65 2.38s-.13-4.79 2.74-7.53 6.3-3.8 7.66-2.38.12 4.77-2.75 7.53z" transform="translate(-19.82)"/>
            <path class="cls-17" d="M771.23 470.76l-96.6-27.42c-9.39 5.87-65.09 34.47-65.23 55.09-.15 20.17 11.5 87 11.5 87 .32 0 2 2.65 5.41 2.64 3.13 0 4.21-4 4.28-5.17l8.21-67 19.2-14.73s-10.75 12.36-9.9 23.45c1.78 23 13.18 84.35 13.18 84.35 0 2.39 1.65 4.59 5.53 3.3 2.74-.92 4.6-5.74 4.62-5.74l7.42-68.86c1.57-.67 100.85-41.74 92.38-66.91z" transform="translate(-19.82)"/>
            <path class="cls-18" d="M678.86 537.08s-.03.01 0 0z" transform="translate(-19.82)"/>
            <path class="cls-19" d="M770.14 465.35l-95.51-22c-7 4.37-39.56 21.27-55.87 38.13 10.87 1.41 46.79 22.38 57.52 37.59 5.37 7.61 7 10.48 9.15 18 23.68-9.07 99.57-46.42 84.71-71.72z" transform="translate(-19.82)"/>
            <path class="cls-9" d="M664.26 322.89c-7.7 16.33-11.17 42.54-12.44 65.29l22.33 2.37 21.36-55" transform="translate(-19.82)"/>
            <path class="cls-9" d="M696.3 330.35a16.89 16.89 0 1 0-16.89 16.89 16.89 16.89 0 0 0 16.89-16.89z" transform="translate(-19.82)"/>
            <path class="cls-9" d="M771.19 363.45c-.51-5.19-1.14-10.11-2-14.75-2.84-13.94-8.15-22.24-19.75-31.49a40 40 0 0 0-5.07-3.35c-14.79-8.34-43.58-14.83-62-7.75-24.16 9.29-24.66 37.89-24.66 37.84v85c0 11.63-.13 25 15.49 39.11 9.34 8.44 33.51 22.66 53.22 26.88a43.61 43.61 0 0 0 14.46.87c25.5-3.57 30.25-18.21 30.25-36.81.06-19.93.06-95.55.06-95.55z" transform="translate(-19.82)"/>
            <path class="cls-20" d="M771.19 363.45c-.51-5.19-1.14-10.11-2-14.75a62.92 62.92 0 0 0-2.34-8.59 13.65 13.65 0 0 0-9.46-3.79c-6.5 0-12.68 4.53-14.11 10.59l-1.12 2.63v110.22c0 14.6.58 31.84-12.66 35.79.28 0 .92.07 1.2.11l1 .1.92.08.93.08c.24 0 .51.4.75.41.51 0 1 .44 1.54.44h.42c.4 0 .8-.35 1.2-.36.18 0 .37-.19.55-.2.36 0 .73-.12 1.08-.15.16 0 .32-.06.49-.08.51 0 1-.11 1.49-.18 25.5-3.57 30.18-18.22 30.18-36.82 0-19.9-.06-95.53-.06-95.53z" transform="translate(-19.82)"/>
            <path class="cls-9" d="M734.34 496l-.73-.05zM738 496h-.55zM736.27 496.77zM732.73 495.84l-.83-.08zM739.59 495.94h-.49z" transform="translate(-19.82)"/>
            <path class="cls-20" d="M737.47 496.05zM741.08 495.79c-.49.07-1 .12-1.49.16.51-.05 1.01-.09 1.49-.16zM739.1 496H738zM731.9 495.76l-.79-.1zM735.85 496c-.49 0-1 0-1.51-.07.51.07 1.02.07 1.51.07zM733.61 495.92l-.88-.08z" transform="translate(-19.82)"/>
            <path class="cls-21" d="M718.32 304.33s1.81 1.33 5.62 0c10.21 2.19 20.7-9.8 16.57-25-2.57-9.41-6.24-18.4-13.43-27.29s-13.44-4.93-13.44-4.93c-8.5-7.66-22.27 2-32.79 14.57-7.69 9.2-5.07 18.57.54 22.34a8.37 8.37 0 0 0 7.81.74s3.82.6 4.33 6.66c.33 3.84-4.46 7.5-7.84 7 0 0 2.69 5.65 8.9 2.37" transform="translate(-19.82)"/>
            <path class="cls-16" d="M721.09 283.15l-25.33 14.45v11.58h-.4c.06 2 1.2 4 3.85 5.55 5.42 3.12 14.06 3.12 19.44 0a6 6 0 0 0 3.2-5.45 3.38 3.38 0 0 0-.77-.09z" transform="translate(-19.82)"/>
            <path class="cls-22" d="M721.09 281.51h-25.33v27.66h-.4c.06 2 1.2 4 3.85 5.55 5.42 3.12 14.06 3.12 19.44 0a6 6 0 0 0 3.2-5.45 3.38 3.38 0 0 0-.77-.09z" transform="translate(-19.82)"/>
            <path class="cls-23" d="M721.09 272.13l-25.32 14.45v11.57h-.4c.06 2 1.2 4 3.85 5.54 5.42 3.13 14.06 3.13 19.44 0a5.94 5.94 0 0 0 3.2-5.44c0-.06-.77-.09-.77-.09z" transform="translate(-19.82)"/>
            <path class="cls-16" d="M722.63 283.83c-.54 13.3-9.36 26.84-19.55 26.43s-17.9-14.62-17.38-27.91c.21-5.2 0-12.21 2.35-16.06 3.59-6 10.88-7.52 17.08-7.27 10.2.4 18.03 11.52 17.5 24.81z" transform="translate(-19.82)"/>
            <path class="cls-21" d="M715.89 284.16l-1.32-16.66a20.46 20.46 0 0 1-8.69 6 26.77 26.77 0 0 1-10.37 1.81 7.12 7.12 0 0 0 2.67-1.86 11.63 11.63 0 0 0 1.3-2.18s-5.76 4.22-15.33 4.22v-9.22l1.16-10h44.8l3.5 42.74s-.89.61-8.75 3.19a9.73 9.73 0 0 1-11.65-4.24s5.32 1.38 7.47-3.54a20.21 20.21 0 0 0 1.88-9.59" transform="translate(-19.82)"/>
            <circle class="cls-16" cx="719.19" cy="284.8" r="3.4" transform="rotate(-85.36 709.307 295.546)"/>
            <path class="cls-17" d="M397.79 342.94s-.81 8.17-1.42 10.48c-.35 1.42-.57 2.48-.85 3.55-.38 1.42-.48 2.21 0 2.58s1.33.47 2.2-2.54a13.13 13.13 0 0 1-2.83 5.51c-1.6 1.73-4 3.48-3.33 4.4s2.35 0 2.35 0 .21 1.42 2.34.31c0 0 .25 1.19 2.41-.31 0 0 .85 1 2.83-1s9.08-9.64 9.22-24z" transform="translate(-19.82)"/>
            <path class="cls-9" d="M415.19 294.29c2.22 39.91-4 52.16-4 52.16l-13.51.38-4.86-49.71" transform="translate(-19.82)"/>
            <circle class="cls-9" cx="384.1" cy="294.94" r="11.27"/>
            <path class="cls-8" d="M320.93 533.15c-21.14 12.29-24.87 30.24-8.28 39.88s47.46 7.48 68.59-4.82 24.87-30.24 8.28-39.88-47.45-7.47-68.59 4.82z" transform="translate(-19.82)"/>
            <path class="cls-9" d="M402.74 229.29c7.72 16.37 11.2 42.67 12.48 65.49l-22.4 2.38-21.42-55.24" transform="translate(-19.82)"/>
            <circle class="cls-9" cx="367.71" cy="236.74" r="16.94"/>
            <path class="cls-24" d="M328.45 564c4.57 4.59 10.14 6.46 12.41 4.25s.4-7.83-4.25-12.42-10.14-6.46-12.41-4.25c-1.42 1.42-1.27 5-1.27 6.33a42.49 42.49 0 0 0 5.52 6.09z" transform="translate(-19.82)"/>
            <ellipse class="cls-17" cx="331.06" cy="556.5" rx="3.71" ry="7.51" transform="rotate(-46.32 321.148 579.672)"/>
            <path class="cls-24" d="M369.48 540.48c4.4 4.4 9.73 6.2 11.92 4s.38-7.52-4-11.92-9.73-6.2-11.92-4c-1.32 1.32-1.22 4.76-1.22 6.09a40.7 40.7 0 0 0 5.22 5.83z" transform="translate(-19.82)"/>
            <ellipse class="cls-17" cx="371.96" cy="533.39" rx="3.57" ry="7.21" transform="rotate(-46.32 362.05 556.558)"/>
            <path class="cls-4" d="M323 478.08s-11.64-65.15-17.38-107l89.48-17c.42 20.32 1.13 59.06-1.15 87.08-3.44 42.23-18 91-18 91-.33 1.53-2 2.71-5.42 2.71-3.78 0-6.42-1.27-6.42-3.06l1.53-67.81-7.39-57.64s-3.58 43-6.25 65.91-16.23 82-16.23 82c0 2.41-1.76 4.36-5.85 4.36s-6.88-1.77-6.91-4.15z" transform="translate(-19.82)"/>
            <path class="cls-9" d="M297.48 255.15c-3.31 23.24-2.05 110.61-2.05 110.61 0 18.65 4.7 33.34 30.26 36.92a42.94 42.94 0 0 0 14.39-.88c19.83-4.25 43.76-18.5 53.12-26.91 15.68-14.16 15-27.56 15-39.23v-85.29s0-28.64-24.23-38c-18.41-7.08-46.74-.59-61.62 7.78.02.06-21.42 10.78-24.87 35z" transform="translate(-19.82)"/>
            <path class="cls-8" d="M299.32 247.34a13.61 13.61 0 0 1 9.91-4.62c14.79 0 13.78 16.75 13.78 16.75v94c0 36.17 8.2 46.2 13.54 48.9a39.12 39.12 0 0 1-10.95.25c-25.58-3.58-30.26-18.27-30.26-36.92 0 0-1.26-87.37 2.05-110.61a44.22 44.22 0 0 1 1.93-7.75z" transform="translate(-19.82)"/>
            <circle class="cls-9" cx="316.79" cy="253.72" r="19.86" transform="rotate(-89.78 306.876 263.67)"/>
            <path class="cls-25" d="M370.64 470.57l-1.75 7.59-23.59 12.29.18-16.91 25.16-2.97zM330.08 486.45l-1.88 9.87-24.81 5.09-.25-13.59 26.94-1.37z"/>
            <path class="cls-17" d="M362 158.1c6.95-.28 15.11 1.44 19.13 8.15 2.6 4.31 2.39 12.16 2.63 18 .43 10.53-3.77 21.57-10.3 27.3v2.75a.35.35 0 0 0 0 .06c-.06 2.25-1.59 4.5-4.56 6.21-6.07 3.51-15.87 3.51-21.9 0-2.91-1.69-4.39-3.88-4.49-6.1v-27.59c0-.33 0-.66-.06-1-.61-14.88 8.17-27.32 19.55-27.78z" transform="translate(-19.82)"/>
            <path class="cls-26" d="M344.53 194.44a45.18 45.18 0 0 0-1.1-6.16c-1-4.68 2.55-5.1 2.55-5.1 1.94-.15 3.19 1.21 3.59 3l.44 7.45 2.73.89s-.81-5.37-.81-6.91c0-8.51 2-9 2-9l1-6.67s17.29 2.08 27.17-3.18a51 51 0 0 1 1.58 11.66s2.06-14.12-1.21-22.78-8.69-12.92-17.85-12.85c0 0-27.57-2.24-30 16.52 0 0-2.73 21 8 38.75-.06.08 1.9-5.71 1.91-5.62z" transform="translate(-19.82)"/>
            <path class="cls-27" d="M364.34 215.51a14.8 14.8 0 0 0 9.16-4v2.75a.35.35 0 0 0 0 .06c-.06 2.25-1.59 4.5-4.56 6.21-6.07 3.51-15.87 3.51-21.9 0-2.91-1.69-4.39-3.88-4.49-6.1v-27.55c.93 14.57 10.62 29.12 21.79 28.63z" transform="translate(-19.82)"/>
            <path class="cls-4" d="M345.53 225.12l-5.42 3.42 3.55 8.46-9.85 85.9 11.98 14.47L358 308.93l-10.57-74.18 2.31-8.76-4.21-.87z"/>
            <path class="cls-28" d="M376.21 212.43l-.51 18.16-10.34-5.47-10.08 10.8-14.52-17.34s-3.12-4-1.67-7.31a10.22 10.22 0 0 1 3.4-3.41s4.77 9.15 22.45 14.35c0 0 7.64-5.57 8.56-10.68 0 0 .77-.7 1.75-1.76a4.87 4.87 0 0 1 .96 2.66z" transform="translate(-19.82)"/>
            <path class="cls-4" d="M333.71 267.54v3.4l-20.91 4.99v-3.41l20.91-4.98z"/>
            <path class="cls-26" d="M402.71 354.91S373 402.39 311.21 387v94.18a14 14 0 0 0 15.77 14c17.68-2.21 46.83-8.78 69.39-28.22a14.77 14.77 0 0 0 5.09-11z" transform="translate(-19.82)"/>
            <path class="cls-4" d="M319.94 371.8l3.34.72-39.73 43.77-3.34-.72-13.34-42.05 39.74-43.78 13.33 42.06z"/>
            <path class="cls-10" d="M306.61 329.74l13.33 42.06-39.73 43.77-13.34-42.05 39.74-43.78z"/>
            <path class="cls-9" d="M309.95 330.46l13.33 42.06-3.34-.72-13.33-42.06 3.34.72z"/>
            <circle class="cls-9" cx="300.78" cy="328.22" r="13.85" transform="rotate(-88.97 290.871 338.307)"/>
            <path class="cls-9" d="M335.53 260.32L314 332.54l-27-4.5s-.42-6.7-.44-13.89c0-30.26 4.25-53 12.48-69.15" transform="translate(-19.82)"/>
            <path class="cls-17" d="M311.21 387s.65 8.19 1.16 10.51c.33 1.42.52 2.49.78 3.57.35 1.49.44 2.22 0 2.56s-1.42.44-2.14-2.58a13.11 13.11 0 0 0 2.68 5.55c1.57 1.76 3.89 3.55 3.24 4.46s-2.35 0-2.35 0-.23 1.42-2.34.27c0 0-.27 1.19-2.41-.35 0 0-.86 1-2.83-1s-8.91-9.81-8.79-24.08z" transform="translate(-19.82)"/>
            <path class="cls-9" d="M314.51 330l-2.24 66.29-13-.4s-9.91-26.07-12.35-67.72" transform="translate(-19.82)"/>
            <path class="cls-8" d="M485.05 666.7c6.41-3.73 14.79-5.81 23.95-6.38 4.27-6.83 11-13.25 20.39-18.71 34.52-20.08 91.63-20.08 126.16 0 17.4 10.12 26.48 23.47 26.48 36.81v.81c0 12.86-9.69 25.63-26.48 35.39-29.72 17.28-76 19.65-110.22 7.19-16.7 1.06-36.17-3-51.08-11.62-23.06-13.41-27.25-32.98-9.2-43.49z" transform="translate(-19.82)"/>
            <path class="cls-29" d="M553.83 669.25c0-11.51 15.85-20.81 35.11-20.78s35.06 9.4 35.06 20.9v4.57c0 11.51-15.85 20.81-35.13 20.78s-35-9.39-35-20.9v-4.21c.02-.11-.04-.23-.04-.36z" transform="translate(-19.82)"/>
            <path class="cls-10" d="M588.88 690.15c19.25 0 35.13-9.25 35.13-20.73v4.52c0 11.51-15.85 20.81-35.13 20.78s-35-9.39-35-20.9c0-.56.07-3.7.07-4.21.33 11.39 15.86 20.51 34.93 20.54z" transform="translate(-19.82)"/>
            <path class="cls-29" d="M583.88 665.87c0 2.7 2.19 3.71 4.88 3.72 2.7 0 4.9-1 4.9-3.7l.23-155a4.88 4.88 0 0 0-4.88-4.9 4.88 4.88 0 0 0-4.9 4.88z" transform="translate(-19.82)"/>
            <path class="cls-10" d="M589 505.94a4.7 4.7 0 0 1 1.13.14l-.24 163.44a9.26 9.26 0 0 1-1.14.07c-2.69 0-4.88-1-4.88-3.72l.23-155.05a4.88 4.88 0 0 1 4.9-4.88z" transform="translate(-19.82)"/>
            <path class="cls-30" d="M490.63 487.78c.06-32.44 44.11-58.67 98.45-58.58s98.24 26.46 98.24 58.91v7.45c0 32.45-44.1 58.67-98.45 58.58s-98.33-26.46-98.28-58.91c0-1.4 0-4.25.07-5.89-.03-.52-.03-1.04-.03-1.56z" transform="translate(-19.82)"/>
            <path class="cls-10" d="M588.88 546.69c54.23.09 98.44-26 98.44-58.38v7.25c0 32.45-44.1 58.67-98.45 58.58s-98.33-26.46-98.28-58.91v-5.89c1.41 31.72 44.82 57.26 98.29 57.35z" transform="translate(-19.82)"/>
            <path class="cls-31" d="M688.71 485c-1.08-13.89-10.8-27.6-29.17-38.21-19.52-11.27-45.11-16.91-70.7-16.91s-51.17 5.64-70.69 16.91c-18.78 10.84-28.5 24.92-29.21 39.12h-.07l-9.79 70.79s11.46-1.73 14.65-3.33l.46-.26c1.66 3.24 8.29 13 26.23 8.81 2.84 2.77 8.67 6.65 19.9 8.18l-1 9.23s11.33 13.37 24.44 16.18l-.43 4s19.49 20.35 25.9 20.35 25.91-20.35 25.91-20.35l-.43-4c13.12-2.81 24.44-16.18 24.44-16.18l-1-9.23c11.23-1.53 17.07-5.41 19.9-8.18 17.95 4.14 24.57-5.58 26.23-8.81l.46.26c3.19 1.59 14.65 3.33 14.65 3.33z" transform="translate(-19.82)"/>
            <path class="cls-32" d="M570 550.31l-12.73 43a30.67 30.67 0 0 0 6.53 2.26zM617.71 594.74l-9-44.43 6 45.27a27.45 27.45 0 0 0 3-.84zM540.31 570.16l3.49-20.91-7.63 20.19c1.29.27 2.67.56 4.14.72zM638.17 570.16c.93-.13 1.81-.27 2.66-.43l-6-20.48zM489.69 554.71a22 22 0 0 0 4-1.29l.46-.26.84-37.46zM690.13 555L686 519.63l-1.68 33.53.46.26a28.08 28.08 0 0 0 5.35 1.58z" transform="translate(-19.82)"/>
            <path class="cls-33" d="M588.83 429.93c-25.59 0-51.17 5.64-70.69 16.91s-29.28 26-29.28 40.82 9.76 29.55 29.28 40.82 45.11 16.91 70.69 16.91 51.17-5.64 70.7-16.91 29.28-26 29.28-40.82-9.81-29.56-29.29-40.83-45.11-16.9-70.69-16.9z" transform="translate(-19.82)"/>
            <path class="cls-32" d="M517.06 562.61c1.07-.16 2.18-.37 3.35-.63l-.1-20.41zM659 542l-.88 20a41.07 41.07 0 0 0 4.08.73z" transform="translate(-19.82)"/>
            <path class="cls-15" d="M493.81 676.43c4.91-4.92 10.87-6.95 13.31-4.52s.4 8.39-4.51 13.3-10.87 6.95-13.3 4.52c-1.47-1.46-1.36-7.44-1.36-8.91.83-1.52 3.91-2.43 5.86-4.39z" transform="translate(-19.82)"/>
            <path class="cls-16" d="M494.1 676.55c3.2-3.06 7-4.25 8.55-2.66s.14 5.36-3.06 8.41" transform="translate(-19.82)"/>
            <path class="cls-19" d="M476.87 575.7c-26-.42 10.64 104.42 10.64 104.42 0 2.69 2.35 4 6.72 4s5.85-1.63 5.94-5.85 6-74 6.6-82.44-3.87-19.71-29.9-20.13z" transform="translate(-19.82)"/>
            <path class="cls-8" d="M332.34 770.74l24.31 1.11 73.11 42.5 2.55 14.65c0 .39.8.72 1.78.72s1.77-.32 1.77-.72l-2.15-12.36 10.6 6.16s36.59-21.7 56.29-33.15a24.34 24.34 0 0 0 8.34-7.58l6.38.5c1.27 0 2.29-.48 2.29-1.07s-1-1.07-2.29-1.07l-5.22-.43a17.4 17.4 0 0 0 1.72-7.78c-.08-10.75-9.35-23.15-26.57-33.16-21.23-12.35-48.72-17.66-69.4-14.61l-.43-2.58c0-.4-.8-.72-1.77-.73s-1.78.31-1.78.7l.54 3.21a46.27 46.27 0 0 0-14.14 5.08C378.55 741.62 342 763.3 342 763.3l10.71 6.23-20.3-.93c-1.27 0-2.3.47-2.3 1.06s.98 1.07 2.23 1.08z" transform="translate(-19.82)"/>
            <path class="cls-9" d="M420.84 622a4.53 4.53 0 0 0-4.1 0c-1.12.66-3 22.72-4.08 49.72-1 24.6-1.29 44.55-.7 48.77s.16 1.09.51 1.29c.17.09.36.45.57.5a3.87 3.87 0 0 0 1.36.13c.2 0 .39-.61.55-.7.33-.2.51-1.22.51-1.22 1-4.22 2.81-24.16 4.34-48.77 1.7-27.02 2.2-49.07 1.04-49.72z" transform="translate(-19.82)"/>
            <path class="cls-9" d="M415.47 721.61c.17-.68.36-1.88.58-3.52a1.33 1.33 0 0 1-.58.6 3.49 3.49 0 0 1-3.16 0 1.29 1.29 0 0 1-.6-.64c.05 1.66.13 2.88.23 3.56a.87.87 0 0 0 .51.72 2.18 2.18 0 0 0 .57.22 3.8 3.8 0 0 0 1.36 0 2.18 2.18 0 0 0 .55-.21.89.89 0 0 0 .54-.73z" transform="translate(-19.82)"/>
            <path class="cls-10" d="M420.84 622l-5.6 99.54a3.76 3.76 0 0 0 .24-1.06c1-4.22 2.81-24.16 4.34-48.77 1.68-27.01 2.18-49.06 1.02-49.71z" transform="translate(-19.82)"/>
            <path class="cls-11" d="M332.61 716.32l-.2-1.71 77.73-9.27.21 1.72-77.74 9.26z"/>
            <path class="cls-11" transform="rotate(-74.58 452.935 728.258)" d="M461.96 681.25h1.72v67.95h-1.72z"/>
            <path class="cls-11" transform="rotate(-44.18 446.663 708.561)" d="M455.71 628.17h1.72V740.1h-1.72z"/>
            <path class="cls-11" transform="rotate(-47.63 375.07 702.136)" d="M336.69 678.84h96.64v1.72h-96.64z"/>
            <path class="cls-11" transform="rotate(-60.8 445.587 736.472)" d="M407.22 718.72h96.56v1.72h-96.56z"/>
            <path class="cls-11" d="M396.1 679.27l-.02-1.72 63.06-1.01.02 1.71-63.06 1.02zM411.48 762.26l-63.41-90.98 1.41-.98 63.42 90.97-1.42.99z"/>
            <path class="cls-11" d="M395.96 679.26l-47.32-7.62.27-1.7 47.32 7.62-.27 1.7z"/>
            <path class="cls-13" d="M358.06 646.95l51.18 29.76 40.91-23.8-51.19-29.76-40.9 23.8z"/>
            <path class="cls-9" d="M432.51 828.74a.86.86 0 0 0 .49.71 2.18 2.18 0 0 0 .56.22 3.78 3.78 0 0 0 1.31 0 1.94 1.94 0 0 0 .56-.22.85.85 0 0 0 .47-.61c.66-4.51.38-37.22-.68-76.23-1.15-41.73-3-76.4-4.12-77.06a4.51 4.51 0 0 0-4.1 0c-1.13.65-.66 35.33 1.05 77.06 1.58 38.79 3.49 71.35 4.43 76.14z" transform="translate(-19.82)"/>
            <path class="cls-9" d="M416.33 824.96v.02-.02z"/>
            <path class="cls-9" d="M435.56 825.81a3.25 3.25 0 0 1-2.94 0 1.2 1.2 0 0 1-.57-.62c.17 1.68.32 2.89.45 3.56a.86.86 0 0 0 .49.71 2.18 2.18 0 0 0 .56.22 3.78 3.78 0 0 0 1.31 0 1.94 1.94 0 0 0 .56-.22.85.85 0 0 0 .47-.61c.11-.68.18-2 .24-3.86a1 1 0 0 1-.57.82z" transform="translate(-19.82)"/>
            <path class="cls-10" d="M435.92 828.84c.66-4.51.38-37.22-.68-76.23-1.15-41.73-3-76.4-4.12-77.06l4.65 153.62a.68.68 0 0 0 .15-.33z" transform="translate(-19.82)"/>
            <path class="cls-9" d="M514.71 781.85a2 2 0 0 0 .56.22 3.61 3.61 0 0 0 1.3 0 2 2 0 0 0 .58-.22.9.9 0 0 0 .47-.6c-.49-4-9.48-31.58-21-64.36-12.39-35.19-23.46-64.51-24.58-65.17a4.52 4.52 0 0 0-4.1 0c-1.13.66 8.55 30 21.51 65.16 12.37 33.6 23.22 61.72 24.91 64.61a1.09 1.09 0 0 0 .35.36z" transform="translate(-19.82)"/>
            <path class="cls-9" d="M517.61 781.25a34 34 0 0 0-.89-3.76 1.11 1.11 0 0 1-.58.74 2.46 2.46 0 0 1-.7.27 4.54 4.54 0 0 1-1.62 0 2.9 2.9 0 0 1-.7-.27 1.33 1.33 0 0 1-.47-.45 40.58 40.58 0 0 0 1.67 3.71 1.38 1.38 0 0 0 .15.18 1.17 1.17 0 0 0 .24.17 2 2 0 0 0 .56.22 3.61 3.61 0 0 0 1.3 0 2 2 0 0 0 .58-.22 1 1 0 0 0 .32-.28.76.76 0 0 0 .14-.31z" transform="translate(-19.82)"/>
            <path class="cls-10" d="M517.61 781.25c-.49-4-9.48-31.58-21-64.36-12.39-35.19-23.46-64.51-24.58-65.17l45.49 129.79a.71.71 0 0 0 .09-.26z" transform="translate(-19.82)"/>
            <path class="cls-9" d="M379.93 645.77a4.51 4.51 0 0 0-4.1 0c-1.13.65-12.18 29.52-24.57 63.07-11.54 31.27-20.52 58.07-21 62.29s.07-.66.14-.56.18-.24.33-.15.37-.05.57 0a3.81 3.81 0 0 0 1.33-.11 2.33 2.33 0 0 0 .57-.27s.06-.07.09-.09a.29.29 0 0 1 .06-.08c.85-.49 12.13-28.35 25.07-61.9s22.63-61.55 21.51-62.2z" transform="translate(-19.82)"/>
            <path class="cls-9" d="M333.35 769.86a19.39 19.39 0 0 0 1.72-3.48c.08-.17.15-.34.22-.52a1.42 1.42 0 0 1-.49.45 2.55 2.55 0 0 1-.7.27 4.63 4.63 0 0 1-1.63 0 2.47 2.47 0 0 1-.7-.27 1.14 1.14 0 0 1-.57-.69c-.28.94-.49 1.73-.65 2.37a13.79 13.79 0 0 0-.28 1.38.72.72 0 0 0 .14.32 1 1 0 0 0 .33.29 2.21 2.21 0 0 0 .57.22 3.77 3.77 0 0 0 1.33 0 2.24 2.24 0 0 0 .57-.22l.09-.06a.22.22 0 0 1 .05-.06z" transform="translate(-19.82)"/>
            <path class="cls-10" d="M333.35 769.86c.85-.49 12.13-28.34 25.07-61.9s22.63-61.54 21.5-62.2z" transform="translate(-19.82)"/>
            <path class="cls-9" d="M342.35 638.54l10.24-6 40.94-23.8c22.52-13.09 64-9.79 92.12 6.57 16.39 9.53 24.78 20.71 24.5 33.37 0 12.66-13.14 22.17-13.14 22.17l-51.18 29.45a11.12 11.12 0 0 1-5.7 1.55 7.59 7.59 0 0 1-3.73-1l-102.6-59.69s2.79.72 8.55-2.62z" transform="translate(-19.82)"/>
            <path class="cls-15" d="M534.91 700.3c4.91-4.92 10.87-6.95 13.3-4.52s.41 8.38-4.5 13.31-10.87 6.94-13.31 4.52c-1.46-1.46-1.35-7.44-1.35-8.92.82-1.52 3.9-2.43 5.86-4.39z" transform="translate(-19.82)"/>
            <path class="cls-16" d="M535.33 700.28c3.2-3.06 7-4.25 8.54-2.66s.13 5.38-3.05 8.38" transform="translate(-19.82)"/>
            <path class="cls-19" d="M545.83 596.73c-3.36-.49-174.39-12.52-174.39-12.52 0 11.9-2.81 30.52 13.26 44.9 7.77 6.94 20.67 13 39.55 21.26 8.13 3.58 21.47 7 33.37 5.45 23-2.95 50.56-13.48 68.79-23.15h.36s1.37 70.46 1.37 70.68c0 2.61 2.53 4.76 7.27 4.75 4.44 0 6.22-2.12 6.43-4.54s12.88-64 16-90.24c.01-.05.71-14.72-12.01-16.59z" transform="translate(-19.82)"/>
            <path class="cls-34" d="M370.13 447.26c-8.26 17.51-12 45.61-13.35 70l24 2.54 22.9-59" transform="translate(-19.82)"/>
            <path class="cls-16" d="M417.3 499.35s8.31-2.84 10.59-4c1.44-.73 2.44-1.2 3.5-1.75 1.45-.76 2.18-1 2.68-.62s.81 1.28-2.11 2.91a14.05 14.05 0 0 0 5.05-4.24c1.4-2.1 2.65-5 3.76-4.54s.58 2.44.58 2.44 1.59-.15.89 2.36c0 0 1.31 0 .27 2.58 0 0 1.25.64-.34 3.2s-7.82 11.82-22.69 15.48z" transform="translate(-19.82)"/>
            <path class="cls-34" d="M370.94 529.38c42.08-7.46 53.31-16.92 53.31-16.92l-2.94-14.18-52.91 7.12" transform="translate(-19.82)"/>
            <path class="cls-34" d="M366.11 505.76a12 12 0 1 0 14.48 9 12.05 12.05 0 0 0-14.48-9z" transform="translate(-19.82)"/>
            <circle class="cls-34" cx="366.56" cy="455.26" r="18.11"/>
            <path class="cls-9" d="M486.46 487.1c-.54-5.57-1.22-10.84-2.12-15.82-3-14.95-8.73-23.85-21.18-33.76a41.79 41.79 0 0 0-5.44-3.59c-15.85-8.94-45.87-15.89-65.59-8.31-25.89 10-25.6 40.64-25.6 40.58v91.1c0 12.47-1 26.79 15.78 41.94 10 9 35.5 24.3 56.64 28.82a45.26 45.26 0 0 0 15.3.93c27.34-3.83 32.32-19.53 32.32-39.46 0-21.35-.11-102.43-.11-102.43z" transform="translate(-19.82)"/>
            <path class="cls-20" d="M486.46 487.1c-.54-5.57-1.22-10.84-2.12-15.82a68.06 68.06 0 0 0-2.5-9.21A14.62 14.62 0 0 0 471.7 458c-7 0-13.69 4.85-15.22 11.36l-1.31 2.81v118.2c0 15.65.72 34.14-13.48 38.37.3 0 1 .08 1.34.12s.79.07 1.07.11l1 .09 1 .08.82.06c.54 0 1.11-.77 1.64-.76.14 0 .31-.82.45-.82h1.29c.2 0 .39.82.59.81.39 0 .78.38 1.16.36.17 0 .35.19.52.17.54 0 1.08 0 1.6-.07 27.34-3.83 32.36-19.47 32.36-39.41 0-21.35-.07-102.38-.07-102.38z" transform="translate(-19.82)"/>
            <path class="cls-9" d="M446.95 629.2l-.79-.06zM450.9 629.26h-.59zM449 629.28zM445.23 629.06l-.89-.09zM452.58 629.16h-.52z" transform="translate(-19.82)"/>
            <path class="cls-20" d="M450.31 627.62zM454.18 629c-.52.08-1.06.13-1.6.18.54-.06 1.08-.12 1.6-.18zM452.06 629.2l-1.16.06zM444.34 629l-.85-.11zM448.58 629.27c-.53 0-1.09 0-1.63-.07.54.03 1.05.06 1.63.07zM446.16 629.14l-.93-.08z" transform="translate(-19.82)"/>
            <path class="cls-16" d="M446.07 403.26c-.15 15-9.58 27-21.06 26.9s-20.67-12.35-20.51-27.32c.06-5.86-.38-13.73 2.1-18.14 3.84-6.86 12-8.82 19-8.75 11.4.11 20.64 12.34 20.47 27.31zM532.17 529s15.12-6.64 18.31-6.73c2.66-.07 4.28.44 5-1.18.94-2.18-.71-2.91-.71-2.91a2.37 2.37 0 0 0-1.32-3.56s1.26-2.16-2.14-2.94c0 0 1.71-2.33-4.62-2.55-7.49-.26-18.67 6.25-18.8 6.31z" transform="translate(-19.82)"/>
            <path class="cls-16" d="M555.59 520.72a5.09 5.09 0 0 1-3.11 3.09c-2.54 1-5-.23-5.09-2.68 0 0 8.71-5.25 8.2-.41z" transform="translate(-19.82)"/>
            <path class="cls-9" d="M466.23 533.43L533 512.88l9.31 12.38s-31 20.91-65.88 36" transform="translate(-19.82)"/>
            <path class="cls-9" d="M480.3 558.77a14.8 14.8 0 1 1 1.51-20.88 14.8 14.8 0 0 1-1.51 20.88z" transform="translate(-19.82)"/>
            <path class="cls-9" d="M441.11 472.39l15.35 79.47 28.94-5.36s-.19-6.06-.36-13.74c-.75-32.7 2.13-56.32-3.76-73.35-2.81-8.11-44.6-4.63-40.16 13" transform="translate(-19.82)"/>
            <path class="cls-9" d="M483.42 468.54A21.36 21.36 0 1 0 462.14 490a21.36 21.36 0 0 0 21.28-21.46z" transform="translate(-19.82)"/>
            <path class="cls-16" d="M445.16 405.06c-.15 14.62-9.36 26.38-20.56 26.26s-20.19-12.06-20-26.68c.06-5.72-.37-13.41 2-17.71 3.75-6.69 11.69-8.61 18.52-8.54 11.23.11 20.19 12.05 20.04 26.67z" transform="translate(-19.82)"/>
            <path class="cls-16" d="M446.13 403.15c-.15 15.07-9.64 27.19-21.2 27.07s-20.8-12.43-20.64-27.49c.05-5.9-.38-13.82 2.11-18.26 3.87-6.9 12.06-8.88 19.09-8.81 11.51.11 20.79 12.42 20.64 27.49z" transform="translate(-19.82)"/>
            <path class="cls-16" d="M446.13 403.15c-.15 15.07-9.64 27.19-21.2 27.07s-20.8-12.43-20.64-27.49c.05-5.9-.38-13.82 2.11-18.26 3.87-6.9 12.06-8.88 19.09-8.81 11.51.11 20.79 12.42 20.64 27.49z" transform="translate(-19.82)"/>
            <path class="cls-16" d="M438.29 414.69h-29.55v11.93h.15c.07 2.08 1.52 4.14 4.26 5.72 5.59 3.22 14.65 3.22 20.2 0 2.67-1.55 4.43-3.58 4.52-5.62 0-.06.41-.09.41-.09zM443.78 405.31a3.66 3.66 0 0 0-3.37-4c-2-.17-2.88 1.34-3 3.36 0 .18.91.36.91.54 0 3.55.49 8.88.49 9.07l2.64.37 1.93-7.56a3.39 3.39 0 0 0 .4-1.78z" transform="translate(-19.82)"/>
            <path class="cls-21" d="M445.37 403.92c3.88-8.44 4.74-12.56 4.37-17.52 0-.53 0-1.1-.08-1.65a23.39 23.39 0 0 0-3.37-10.13l-.14-.25c-2-3.17-4.69-5.52-7.53-6.1a5.25 5.25 0 0 1-.72-.27 7.84 7.84 0 0 0 .87-3.27c0-.47 0-.75-.6-.62-4.09 1-8 2.52-12.09 2.54a20.35 20.35 0 0 1-4.44-.58c-5.79-1.45-12.53 2.16-12.53 2.16-4.34 2.5-6.43 7.72-7.42 12.71 0 0-6.13 25.93 9.48 41.45 0 0 8 8.51 21.65-.68 0 0 3.8-1.47 5.78-8.28-.41-1.7-.28-5.45-.28-8.17 0-.18-.93-.36-.91-.54.16-2 1.48-3.53 3.5-3.36a3.17 3.17 0 0 1 2.39 1.46l-1.56 11.59 1.43-1.64s.27-2.27.85-5.54c-.02-.29.21-3.31 1.35-3.31z" transform="translate(-19.82)"/>
            <path class="cls-9" d="M436.42 700.87a7.59 7.59 0 0 0 3.73 1 11.12 11.12 0 0 0 5.7-1.55L497 670.89s13.14-9.51 13.14-22.17c0 12.66-14.27 20.18-14.27 20.18-22.51 13.09-40.94 23.19-40.94 23.19L444.71 698c-2.58 1.5-4.95 1.76-6.75 1l-.41-.21c-1.9-1.06-3.08-3.38-3.08-6.69 0-6.54-2.3-32-5.11-56.53s-14.36-50-25.6-56.57l-40.93-23.8a11.65 11.65 0 0 0-13.41.74c-5.83 4.24-10.48 13.54-12.14 26-2.82 21.27-5.13 44-5.13 50.58 0 3.2-.11 7.44 1.68 8.54l100.89 58.74z" transform="translate(-19.82)"/>
            <path class="cls-14" d="M334.23 639.19c-.64-.79-1.46-4.49-1.46-6.08v-.53c0-6.48 3.12-29 5.93-50.27 1.48-11.18 6-20.25 11.45-24.33a10.12 10.12 0 0 1 4.06-.88 10.43 10.43 0 0 1 5.14 1.46l41 23.8c10.55 6.14 21.77 31.24 24.48 54.82 2.81 24.55 5.11 49.79 5.11 56.27 0 .31-.39.63-.38.94z" transform="translate(-19.82)"/>
            <g class="cls-10">
                <path d="M436.42 700.79a7.53 7.53 0 0 0 3.73.95 11.39 11.39 0 0 0 5.7-1.71L497 670.89s13.14-9.51 13.14-22.17c0 12.66-14.27 20.18-14.27 20.18-22.51 13.09-40.94 23.5-40.94 23.5l-10.24 5.79c-2.58 1.5-4.95 1.68-6.75.88l-.41-.24c-1.9-1.06-3.08-3.4-3.08-6.71 0-6.54-2.3-32-5.11-56.54S415 585.57 403.76 579l-40.93-23.8a11.66 11.66 0 0 0-13.42.74 11.48 11.48 0 0 1 11.18.6l40.93 23.8c11.27 6.54 22.77 32 25.59 56.54s5.12 50 5.12 56.54a11.68 11.68 0 0 0 .23 2.39 7.88 7.88 0 0 0 3.96 4.98zM349.27 556.08l.15-.11z" transform="translate(-19.82)"/>
            </g>
            <path class="cls-16" d="M640.88 434.29s-3.83 7.24-4.64 9.47c-.52 1.41-.9 2.38-1.26 3.43-.5 1.44-.82 2.1-1.43 2.12s-1.36-.35-.42-3.32a13.14 13.14 0 0 0-.73 6.11c.39 2.32 1.38 5.07.35 5.49s-1.95-1.29-1.95-1.29-1 1.11-2.11-1c0 0-.87.85-1.83-1.59 0 0-1.25.36-1.81-2.39s-2.24-13 5.53-25z" transform="translate(-19.82)"/>
            <path class="cls-9" d="M653.2 384.27c-23.82 32-25.41 45.55-25.41 45.55l11.05 7.76 31.4-38.65" transform="translate(-19.82)"/>
            <path class="cls-9" d="M671.57 397.22a11.24 11.24 0 1 0-15.57 3.17 11.24 11.24 0 0 0 15.57-3.17z" transform="translate(-19.82)"/>
            <path class="cls-16" d="M716.44 446.43s-6.81 4.55-8.94 5.58c-1.36.66-2.28 1.13-3.28 1.59-1.38.64-2 1-2 1.64s.49 1.33 3.34.08a13 13 0 0 1-6 1.34c-2.35-.15-5.19-.85-5.5.21s1.48 1.81 1.48 1.81-1 1.09 1.23 2c0 0-.76 1 1.77 1.67 0 0-.23 1.28 2.56 1.56s13.18.91 24.32-8z" transform="translate(-19.82)"/>
            <path class="cls-9" d="M759 408.65l-50.49 42.7 8.33 9.91s26.53-8.35 60.63-32.17" transform="translate(-19.82)"/>
            <path class="cls-9" d="M777.61 429a13.8 13.8 0 1 0-19.43-2 13.8 13.8 0 0 0 19.43 2z" transform="translate(-19.82)"/>
            <path class="cls-9" d="M730 354.49L755.89 425l26.62-6.13s0-6.69-.42-13.85c-1.81-30.12-7.5-52.5-16.63-68.06" transform="translate(-19.82)"/>
            <path class="cls-9" d="M768 345.53a19.8 19.8 0 1 0-18.47 21 19.81 19.81 0 0 0 18.47-21z" transform="translate(-19.82)"/>
            <g id="_1" data-name="1">
                <path class="cls-35" d="M616.06 461.88a11.07 11.07 0 0 0-10 0c-2.76 1.6-2.76 4.18 0 5.78a11.07 11.07 0 0 0 10 0c2.77-1.6 2.77-4.19 0-5.78z" transform="translate(-19.82)"/>
                <path class="cls-36" d="M615.24 461.82a9.23 9.23 0 0 0-8.36 0 3.75 3.75 0 0 0-1.45 1.37c-.66 1.18-.17 2.52 1.45 3.46a9.23 9.23 0 0 0 8.36 0c1.73-1 2.16-2.46 1.3-3.69a4 4 0 0 0-1.3-1.14z" transform="translate(-19.82)"/>
                <path class="cls-37" d="M614.18 462a6.9 6.9 0 0 0-6.24 0c-1.72 1-1.72 2.61 0 3.6a6.9 6.9 0 0 0 6.24 0c1.72-.97 1.72-2.6 0-3.6z" transform="translate(-19.82)"/>
                <path class="cls-38" d="M617.08 431a24.14 24.14 0 0 0-6.09-.77 22.47 22.47 0 0 0-8.23 1.52 11.36 11.36 0 0 0-5.73 4.36 6 6 0 0 0-.15 6.14 13.07 13.07 0 0 0 3.66 3.76c.48.37.93.72 1.34 1.09.75.66 1.54 1.29 2.29 1.91s1.37 1.1 2 1.67c.39.35.8.67 1.19 1s.64.52.94.77.45.38.68.56l.4.32.49.44v8.92a.56.56 0 0 0 .34.51 1.82 1.82 0 0 0 1.65 0 .56.56 0 0 0 .34-.51v-8.92l.44-.4.19-.15.36-.3.39-.32.54-.45c.64-.55 1.32-1.1 2-1.62s1.58-1.28 2.35-2c.33-.29.67-.56 1-.84s.77-.62 1.14-.95.75-.62 1.16-.95c1.75-1.4 3.74-3 4.18-5.58.82-4.9-4.27-8.04-8.87-9.21z" transform="translate(-19.82)"/>
                <path class="cls-39" d="M613.53 452.39c1.42-1.21 2.91-2.34 4.31-3.57.7-.61 1.46-1.17 2.16-1.79 2-1.7 4.56-3.2 5-6 .76-4.55-4.58-7.22-8.18-8.16a22.54 22.54 0 0 0-13.73.71 10.63 10.63 0 0 0-5.28 4 5.07 5.07 0 0 0-.13 5.19c1.08 1.94 3.15 3.16 4.8 4.59 1.4 1.23 2.9 2.35 4.31 3.57.69.61 1.43 1.17 2.13 1.77.35.31.72.59 1.08.89a1.57 1.57 0 0 0 2 0c.18-.15.37-.29.54-.45s.69-.48.99-.75z" transform="translate(-19.82)"/>
                <path class="cls-40" d="M611.06 448.54a20.91 20.91 0 0 1-10.6-2.65l.09.07c.48.37.93.72 1.34 1.09.75.66 1.54 1.29 2.29 1.91s1.37 1.1 2 1.67c.39.35.8.67 1.19 1s.64.52.94.77.45.38.68.56l.4.32c.45.4 1 1 1.67 1s1.19-.6 1.6-1l.19-.15.36-.3.39-.32.54-.45c.64-.55 1.32-1.1 2-1.62s1.58-1.28 2.35-2c.33-.29.67-.56 1-.84s.77-.62 1.14-.95.62-.52 1-.79a21 21 0 0 1-10.57 2.68z" transform="translate(-19.82)"/>
                <path class="cls-41" d="M621.73 432.67a22.57 22.57 0 0 0-21.34 0c-2.89 1.75-4.48 4.09-4.48 6.59s1.59 4.84 4.48 6.59a22.56 22.56 0 0 0 21.34 0c2.89-1.75 4.48-4.09 4.48-6.59s-1.59-4.84-4.48-6.59zm-.24 12.79a22.1 22.1 0 0 1-20.85 0c-2.74-1.66-4.26-3.86-4.26-6.19s1.51-4.53 4.26-6.19a22.1 22.1 0 0 1 20.85 0c2.74 1.66 4.26 3.86 4.26 6.19s-1.52 4.52-4.27 6.19z" transform="translate(-19.82)"/>
                <path class="cls-42" d="M616.06 467.19a11.07 11.07 0 0 1-10 0 3.65 3.65 0 0 1-2.05-2.66c-.11 1.12.57 2.27 2.05 3.13a11.07 11.07 0 0 0 10 0c1.49-.86 2.17-2 2.05-3.13a3.65 3.65 0 0 1-2.05 2.66z" transform="translate(-19.82)"/>
                <path class="cls-31" d="M618.1 464.53v.19a3.33 3.33 0 0 1-.2.5 2.94 2.94 0 0 1-.48.67 5.33 5.33 0 0 1-.81.68 5.72 5.72 0 0 1-.52.31c-.16.09-.4.19-.6.28l-.64.23c-.23.06-.45.15-.69.2a10 10 0 0 1-1.49.28 12.44 12.44 0 0 1-1.56.08 12.61 12.61 0 0 1-1.56-.08 10 10 0 0 1-1.49-.28 12.43 12.43 0 0 1-1.34-.44 6.54 6.54 0 0 1-1.11-.59 5.35 5.35 0 0 1-.81-.68 3 3 0 0 1-.48-.67 3.38 3.38 0 0 1-.2-.5v-.19.19a2.85 2.85 0 0 0 .16.53 3.78 3.78 0 0 0 1.23 1.52 6.81 6.81 0 0 0 1.13.68l.66.29c.23.08.47.17.71.24a10.36 10.36 0 0 0 1.54.32 11.32 11.32 0 0 0 3.24 0 10.43 10.43 0 0 0 1.54-.32c.25-.06.48-.16.71-.24l.66-.29a6.82 6.82 0 0 0 1.13-.68 3.78 3.78 0 0 0 1.23-1.52 2.84 2.84 0 0 0 .16-.53v-.19z" transform="translate(-19.82)"/>
            </g>
            <g id="_1-2" data-name="1">
                <path class="cls-35" d="M535.73 501.88a11.07 11.07 0 0 0-10 0c-2.76 1.6-2.76 4.18 0 5.78a11.07 11.07 0 0 0 10 0c2.77-1.6 2.77-4.19 0-5.78z" transform="translate(-19.82)"/>
                <path class="cls-36" d="M534.9 501.82a9.23 9.23 0 0 0-8.36 0 3.75 3.75 0 0 0-1.45 1.37c-.66 1.18-.17 2.52 1.45 3.46a9.23 9.23 0 0 0 8.36 0c1.73-1 2.16-2.46 1.3-3.69a4 4 0 0 0-1.3-1.14z" transform="translate(-19.82)"/>
                <path class="cls-37" d="M533.85 502a6.9 6.9 0 0 0-6.24 0c-1.72 1-1.72 2.61 0 3.6a6.9 6.9 0 0 0 6.24 0c1.72-.97 1.72-2.6 0-3.6z" transform="translate(-19.82)"/>
                <path class="cls-38" d="M536.74 471a24.14 24.14 0 0 0-6.09-.77 22.47 22.47 0 0 0-8.23 1.52 11.36 11.36 0 0 0-5.73 4.36 6 6 0 0 0-.15 6.14 13.07 13.07 0 0 0 3.66 3.76c.48.37.93.72 1.34 1.09.75.66 1.54 1.29 2.29 1.91s1.37 1.1 2 1.67c.39.35.8.67 1.19 1s.64.52.94.77.45.38.68.56l.4.32.49.44v8.92a.56.56 0 0 0 .34.51 1.82 1.82 0 0 0 1.65 0 .56.56 0 0 0 .34-.51v-8.92l.44-.4.19-.15.36-.3.39-.32.54-.45c.64-.55 1.32-1.1 2-1.62s1.58-1.28 2.35-2c.33-.29.67-.56 1-.84s.77-.62 1.14-.95.75-.62 1.16-.95c1.75-1.4 3.74-3 4.18-5.58.82-4.9-4.26-8.04-8.87-9.21z" transform="translate(-19.82)"/>
                <path class="cls-39" d="M533.2 492.39c1.42-1.21 2.91-2.34 4.31-3.57.7-.61 1.46-1.17 2.16-1.79 2-1.7 4.56-3.2 5-6 .76-4.55-4.58-7.22-8.18-8.16a22.54 22.54 0 0 0-13.73.71 10.63 10.63 0 0 0-5.28 4 5.07 5.07 0 0 0-.13 5.19c1.08 1.94 3.15 3.16 4.8 4.59 1.4 1.23 2.9 2.35 4.31 3.57.69.61 1.43 1.17 2.13 1.77.35.31.72.59 1.08.89a1.57 1.57 0 0 0 2 0c.18-.15.37-.29.54-.45s.69-.48.99-.75z" transform="translate(-19.82)"/>
                <path class="cls-40" d="M530.73 488.54a20.91 20.91 0 0 1-10.6-2.65l.09.07c.48.37.93.72 1.34 1.09.75.66 1.54 1.29 2.29 1.91s1.37 1.1 2 1.67c.39.35.8.67 1.19 1s.64.52.94.77.45.38.68.56l.4.32c.45.4 1 1 1.67 1s1.19-.6 1.6-1l.19-.15.36-.3.39-.32.54-.45c.64-.55 1.32-1.1 2-1.62s1.58-1.28 2.35-2c.33-.29.67-.56 1-.84s.77-.62 1.14-.95.62-.52 1-.79a21 21 0 0 1-10.57 2.68z" transform="translate(-19.82)"/>
                <path class="cls-41" d="M541.39 472.67a22.57 22.57 0 0 0-21.34 0c-2.89 1.75-4.48 4.09-4.48 6.59s1.59 4.84 4.48 6.59a22.56 22.56 0 0 0 21.34 0c2.89-1.75 4.48-4.09 4.48-6.59s-1.58-4.84-4.48-6.59zm-.24 12.79a22.1 22.1 0 0 1-20.85 0c-2.74-1.66-4.26-3.86-4.26-6.19s1.51-4.53 4.26-6.19a22.1 22.1 0 0 1 20.85 0c2.74 1.66 4.26 3.86 4.26 6.19s-1.51 4.52-4.26 6.19z" transform="translate(-19.82)"/>
                <path class="cls-42" d="M535.73 507.19a11.07 11.07 0 0 1-10 0 3.65 3.65 0 0 1-2.05-2.66c-.11 1.12.57 2.27 2.05 3.13a11.07 11.07 0 0 0 10 0c1.49-.86 2.17-2 2.05-3.13a3.65 3.65 0 0 1-2.05 2.66z" transform="translate(-19.82)"/>
                <path class="cls-31" d="M537.76 504.53v.19a3.33 3.33 0 0 1-.2.5 2.94 2.94 0 0 1-.48.67 5.33 5.33 0 0 1-.81.68 5.72 5.72 0 0 1-.52.31c-.16.09-.4.19-.6.28l-.64.23c-.23.06-.45.15-.69.2a10 10 0 0 1-1.49.28 12.44 12.44 0 0 1-1.56.08 12.61 12.61 0 0 1-1.56-.08 10 10 0 0 1-1.49-.28 12.43 12.43 0 0 1-1.34-.44 6.54 6.54 0 0 1-1.11-.59 5.35 5.35 0 0 1-.81-.68 3 3 0 0 1-.48-.67 3.38 3.38 0 0 1-.2-.5v-.19.19a2.85 2.85 0 0 0 .16.53 3.78 3.78 0 0 0 1.23 1.52 6.81 6.81 0 0 0 1.13.68l.66.29c.23.08.47.17.71.24a10.36 10.36 0 0 0 1.54.32 11.32 11.32 0 0 0 3.24 0 10.43 10.43 0 0 0 1.54-.32c.25-.06.48-.16.71-.24l.66-.29a6.82 6.82 0 0 0 1.13-.68 3.78 3.78 0 0 0 1.23-1.52 2.84 2.84 0 0 0 .16-.53v-.19z" transform="translate(-19.82)"/>
            </g>
            <path class="cls-8" d="M1137.87 459.59c-21.84 12.7-25.7 31.24-8.56 41.21s49 7.73 70.88-5 25.7-31.24 8.56-41.21-49.03-7.7-70.88 5z" transform="translate(-19.82)"/>
            <path class="cls-9" d="M1222.4 145.59c8 16.92 11.58 44.09 12.89 67.66l-23.15 2.45-22.13-57" transform="translate(-19.82)"/>
            <path class="cls-43" d="M1217.29 263s-.83 8.45-1.4 10.83c-.37 1.52-.59 2.57-.88 3.67-.39 1.53-.49 2.29 0 2.66s1.38.48 2.26-2.63a13.55 13.55 0 0 1-2.86 5.69c-1.66 1.79-4.09 3.6-3.44 4.55s2.43 0 2.43 0 .21 1.53 2.41.32c0 0 .26 1.24 2.49-.32 0 0 .88 1 2.93-1s9.38-10 9.53-24.78z" transform="translate(-19.82)"/>
            <path class="cls-9" d="M1235.26 212.78c2.3 41.24-4.11 53.9-4.11 53.9l-14 .38-5-51.36" transform="translate(-19.82)"/>
            <circle class="cls-9" cx="1203.79" cy="213.46" r="11.64"/>
            <circle class="cls-9" cx="1186.87" cy="153.32" r="17.5"/>
            <path class="cls-24" d="M1141.19 491.44c4.73 4.74 10.47 6.68 12.82 4.33s.41-8.09-4.32-12.83-10.47-6.68-12.82-4.33c-1.42 1.41-1.31 5.12-1.32 6.55.79 1.46 3.76 4.4 5.64 6.28z" transform="translate(-19.82)"/>
            <ellipse class="cls-17" cx="1143.88" cy="483.73" rx="3.84" ry="7.75" transform="rotate(-46.33 1133.84 506.891)"/>
            <path class="cls-24" d="M1183.59 467.16c4.54 4.55 10.06 6.42 12.32 4.16s.4-7.77-4.15-12.32-10.06-6.41-12.31-4.16c-1.36 1.36-1.26 4.92-1.27 6.29.75 1.41 3.6 4.23 5.41 6.03z" transform="translate(-19.82)"/>
            <path class="cls-17" d="M1183.62 462.43c3 2.84 6.53 3.95 7.94 2.47s.13-5-2.84-7.81-6.53-3.94-7.93-2.47-.14 4.97 2.83 7.81z" transform="translate(-19.82)"/>
            <path class="cls-17" d="M1137 402.69s-12-67.35-18-110.53l92.46-17.52c.44 21 1.17 61-1.19 90-3.56 43.63-19.44 94.18-19.44 94.18-.33 1.58-1.24 2.62-4.75 2.62a5.6 5.6 0 0 1-5.86-4.94l.8-68.26-7.65-59.56s-3.7 44.39-6.45 68.1-18.69 86.12-18.69 86.12c0 2.48.11 3.08-4.12 3.08s-6.41-2.91-6.43-5.36z" transform="translate(-19.82)"/>
            <path class="cls-4" d="M1158.95 379.27a34.79 34.79 0 0 1-13.28.81c-13.63-1.91-27.94-16.7-27.94-16.7V346c0-18.43.07-88.44.07-88.44.47-4.81 1-9.36 1.83-13.66 2.63-12.9 7.55-20.59 18.29-29.15a36 36 0 0 1 4.7-3.1c13.69-7.72 39.87-13.73 56.89-7.18 22.37 8.61 22.36 35.09 22.37 35V340a228 228 0 0 1-27.43 20.93c-14.36 9.24-32.11 17.44-35.5 18.34z" transform="translate(-19.82)"/>
            <path class="cls-26" d="M1113.63 172.34c-3.42 24-2.13 114.29-2.13 114.29 0 19.27 4.85 34.44 31.28 38.14a44.36 44.36 0 0 0 14.87-.9c20.43-4.37 45.22-19.11 54.89-27.85 16.2-14.64 15.54-28.48 15.54-40.53v-88.08c0 .06 0-29.58-25-39.21-19-7.33-48.35-.61-63.67 8-.05.03-22.21 11.11-25.78 36.14z" transform="translate(-19.82)"/>
            <path class="cls-20" d="M1115.55 164.27a14.06 14.06 0 0 1 10.31-4.77c15.28 0 14.24 17.31 14.24 17.31V274c0 37.37 8.47 47.74 14 50.53a40.38 40.38 0 0 1-11.31.26c-26.43-3.7-31.28-18.88-31.28-38.14 0 0-1.3-90.27 2.13-114.29a45.75 45.75 0 0 1 1.91-8.09z" transform="translate(-19.82)"/>
            <path class="cls-43" d="M1127.82 308.56s.67 8.46 1.21 10.86c.34 1.53.55 2.57.81 3.69.37 1.54.45 2.3-.06 2.66s-1.39.46-2.22-2.66a13.55 13.55 0 0 0 2.76 5.74c1.62 1.82 4 3.67 3.36 4.6s-2.43 0-2.43 0-.24 1.53-2.42.28c0 0-.29 1.23-2.49-.37 0 0-.9 1-2.91-1.08s-9.2-10.14-9.09-24.95z" transform="translate(-19.82)"/>
            <path class="cls-9" d="M1131.24 249.68l-2.32 68.5-13.41-.42s-10.24-26.95-12.76-70" transform="translate(-19.82)"/>
            <circle class="cls-9" cx="1117.05" cy="247.85" r="14.31" transform="rotate(-88.97 1107.138 257.938)"/>
            <path class="cls-9" d="M1153 177.69l-22.29 74.56-27.92-4.66s-.44-6.92-.45-14.35c0-31.27 4.44-54.79 12.89-71.45" transform="translate(-19.82)"/>
            <circle class="cls-9" cx="1133.59" cy="170.9" r="20.52" transform="rotate(-89.78 1123.698 180.835)"/>
            <path class="cls-9" d="M1158.3 130.5s11.19 17.43 22.54 39.05c6.93 13.2 7.92 7.59 8.91 1.65 0 0 3.75-44.35 2.7-45.34-2.45-2.31-7.45-7.57-34.15 4.64z" transform="translate(-19.82)"/>
            <path class="cls-44" d="M1162.44 81.27s-15.34-15.84-21.28 5.11c0 0-3.3 9.07-.16 17.48s8.58 13.36 1.48 19.3c0 0 19.3-4.95 21.28-30.51 0 0 1.15-9.07-1.32-11.38z" transform="translate(-19.82)"/>
            <path class="cls-26" d="M1201.78 97.6a33.17 33.17 0 0 1-.91 12c-2.06 7.67 3.3 7 3.3 7s-6.93.66-5.11-5.28a10.3 10.3 0 0 0-.33-7.75s.74-5.81 3.05-5.97z" transform="translate(-19.82)"/>
            <path class="cls-17" d="M1180 79.39c6.43-.26 14 1.33 17.71 7.54 2.39 4 2.21 11.25 2.43 16.65.39 9.74-3.49 20-9.54 25.25v2.55c-.06 2.08-1.47 4.16-4.22 5.75-5.61 3.24-14.68 3.24-20.25 0-2.69-1.56-4.07-3.6-4.15-5.64V106c0-.3 0-.61-.05-.91-.57-13.76 7.55-25.27 18.07-25.7z" transform="translate(-19.82)"/>
            <path class="cls-45" d="M1182.17 132.5a13.71 13.71 0 0 0 8.47-3.68v2.55c-.06 2.08-1.47 4.16-4.22 5.75-5.61 3.24-14.68 3.24-20.25 0-2.69-1.56-4.07-3.6-4.15-5.64V106c.85 13.5 9.82 26.91 20.15 26.5z" transform="translate(-19.82)"/>
            <path class="cls-26" d="M1167.68 105.43c-.36-1.71-.7-3-2.49-2.83a3.52 3.52 0 0 0-3.22 3.46 25.31 25.31 0 0 0 2.29 10.36l-2.29 8.3c-21.18-27.09-4.14-50.86-4.14-50.86 5.24-6.86 13.93-5.11 13.93-5.11 8.55-3.22 22.6-4 28.95 8.25 0 0 5.95 7.75 2.16 20.78l-2.7 9c.06-1.07.07-2.14 0-3.21-.09-2.21-.11-4.72-.27-7.2-22.29.07-26.91-7.73-26.91-7.73s.49 8.29-1.48 12c0 0 .25 5.67-1.24 8.83 0 0-2.23 5.93.49 8 0 0-4-1.4-2.72-6.68.32-1.32-.36-5.36-.36-5.36z" transform="translate(-19.82)"/>
            <path class="cls-27" d="M1141.16 86.38c3.43-12.11 10-11.92 14.94-9.61a41.9 41.9 0 0 0-.59 37.54 28.32 28.32 0 0 1-13 8.86c7.09-5.94 1.65-10.89-1.48-19.3s.13-17.49.13-17.49z" transform="translate(-19.82)"/>
            <path class="cls-28" d="M1193.12 128.16l-.48 18-9.73-5.41-9.48 10.69-13.66-17.16s-2.94-4-1.57-7.23a8.64 8.64 0 0 1 2.9-3.47c.08 0 5.33 8.56 21.43 14.29 0 0 7.23-4 8.1-9 0 0 1.4-1.31 2.32-2.35a5.23 5.23 0 0 1 .17 1.64z" transform="translate(-19.82)"/>
            <g class="cls-2 cls-46">
                <path class="cls-4" d="M1195.52 131.66l-10.13 8.37a1.41 1.41 0 0 1 .46 1.17v2.46a3.61 3.61 0 0 1-.33 1.43l10-3.3a.37.37 0 0 0 .17-.29v-9.75c0-.11-.08-.15-.17-.1M1170.38 146.36a.37.37 0 0 0-.17.28v9.76c0 .11.08.14.17.09l10.11-8.36a1.45 1.45 0 0 1-.43-1.14v-2.49a3.64 3.64 0 0 1 .35-1.47l-10.06 3.31" transform="translate(-19.82)"/>
                <path class="cls-4" d="M1183.89 140.12l-1.85 1.07a4.12 4.12 0 0 0-1.57 1.85 3.64 3.64 0 0 0-.35 1.47V147a1.45 1.45 0 0 0 .43 1.14 1.27 1.27 0 0 0 1.5 0l1.85-1.07a4.13 4.13 0 0 0 1.59-1.89 3.61 3.61 0 0 0 .33-1.43v-2.46a1.41 1.41 0 0 0-.46-1.17 1.29 1.29 0 0 0-1.46.07" transform="translate(-19.82)"/>
            </g>
            <path class="cls-4" d="M1199.72 160.74l.39 3.34-19.98 7.3-.39-3.34 19.98-7.3z"/>
            <path class="cls-2 cls-47" d="M1360 398.13c-25.91-15-67.77-15-93.5 0L1127.41 479c-25.73 15-25.6 39.21.3 54.17s67.77 15 93.5 0l139.11-80.84c25.73-15 25.6-39.2-.3-54.16" transform="translate(-19.82)"/>
            <path class="cls-47" d="M1359.64 426.43l-271.23 80.86-3.01-140.36 271.65-83.5 2.59 143z"/>
            <path class="cls-2 cls-48 cls-49" d="M1381.19 236.56l-12-6.9c-26-15-68-15-93.81 0L1106.27 328c-25.82 15-25.69 39.34.3 54.34l12 6.9c26 15 68 15 93.81 0l169.15-98.3c25.82-15 25.69-39.34-.3-54.34" transform="translate(-19.82)"/>
            <path class="cls-2 cls-50 cls-9" d="M1381.18 231.56l-12-6.9c-26-15-68-15-93.8 0L1106.27 323c-25.82 15-25.68 39.33.31 54.33l12 6.9c26 15 68 15 93.8 0l169.15-98.3c25.82-15 25.68-39.33-.31-54.33" transform="translate(-19.82)"/>
            <path class="cls-2 cls-51 cls-52" d="M1198.38 304.13l-20.81-12.02-14.82 8.61 20.81 12.02 14.82-8.61"/>
            <path class="cls-2 cls-53 cls-52" d="M1217.42 293.46l-20.81-12.01-14.81 8.61 20.8 12.01 14.82-8.61"/>
            <path class="cls-2 cls-54 cls-52" d="M1235.55 282.34l-20.82-12.02-14.82 8.61 20.82 12.02 14.82-8.61"/>
            <path class="cls-2 cls-55 cls-52" d="M1254.91 271.21l-20.8-12.01-14.82 8.61 20.81 12.01 14.81-8.61"/>
            <path class="cls-2 cls-56 cls-52" d="M1254.4 307.41l-18.62 5.62 13.61 15.08 18.63-5.62-13.62-15.08"/>
            <path class="cls-2 cls-57 cls-52" d="M1271.17 299.72l-15.46 8.22 19.89 12.53 15.46-8.23-19.89-12.52"/>
            <path class="cls-2 cls-58 cls-59" d="M1240.34 339.47a9.87 9.87 0 0 0-9 0c-2.46 1.43-2.45 3.75 0 5.19a9.87 9.87 0 0 0 8.95 0c2.47-1.43 2.45-3.76 0-5.19" transform="translate(-19.82)"/>
            <path class="cls-2 cls-60 cls-52" d="M1240.34 338.58a9.87 9.87 0 0 0-9 0c-2.47 1.43-2.45 3.76 0 5.19a9.87 9.87 0 0 0 9 0c2.47-1.43 2.45-3.76 0-5.19" transform="translate(-19.82)"/>
            <path class="cls-2 cls-61 cls-59" d="M1243.21 337.21a9.87 9.87 0 0 0-9 0c-2.46 1.43-2.45 3.75 0 5.19a9.87 9.87 0 0 0 9 0c2.47-1.43 2.45-3.76 0-5.19" transform="translate(-19.82)"/>
            <path class="cls-2 cls-62 cls-52" d="M1243.22 336.32a9.87 9.87 0 0 0-9 0c-2.47 1.43-2.45 3.76 0 5.19a9.87 9.87 0 0 0 9 0c2.47-1.43 2.45-3.76 0-5.19" transform="translate(-19.82)"/>
            <path class="cls-2 cls-63 cls-59" d="M1240.72 335.59a9.87 9.87 0 0 0-9 0c-2.47 1.43-2.45 3.76 0 5.19a9.87 9.87 0 0 0 9 0c2.47-1.43 2.45-3.76 0-5.19" transform="translate(-19.82)"/>
            <path class="cls-2 cls-64 cls-52" d="M1240.71 334.7a9.87 9.87 0 0 0-8.95 0c-2.47 1.43-2.45 3.76 0 5.19a9.87 9.87 0 0 0 9 0c2.46-1.43 2.45-3.75 0-5.19" transform="translate(-19.82)"/>
            <path class="cls-2 cls-65 cls-59" d="M1241.34 333.34a9.87 9.87 0 0 0-9 0c-2.47 1.43-2.45 3.76 0 5.19a9.87 9.87 0 0 0 9 0c2.47-1.43 2.45-3.76 0-5.19" transform="translate(-19.82)"/>
            <path class="cls-2 cls-66 cls-52" d="M1241.34 332.45a9.87 9.87 0 0 0-9 0c-2.47 1.43-2.45 3.76 0 5.19a9.87 9.87 0 0 0 9 0c2.46-1.43 2.45-3.75 0-5.18" transform="translate(-19.82)"/>
            <path class="cls-2 cls-67 cls-59" d="M1241.47 331a9.88 9.88 0 0 0-9 0c-2.47 1.43-2.45 3.76 0 5.19a9.87 9.87 0 0 0 9 0c2.46-1.43 2.45-3.76 0-5.19" transform="translate(-19.82)"/>
            <path class="cls-2 cls-68 cls-52" d="M1241.47 330.08a9.87 9.87 0 0 0-9 0c-2.46 1.43-2.45 3.75 0 5.19a9.87 9.87 0 0 0 8.95 0c2.47-1.43 2.45-3.76 0-5.19" transform="translate(-19.82)"/>
            <path class="cls-2 cls-69 cls-59" d="M1240.38 329.26a9.87 9.87 0 0 0-8.95 0c-2.47 1.43-2.45 3.76 0 5.19a9.87 9.87 0 0 0 9 0c2.46-1.43 2.45-3.75 0-5.19" transform="translate(-19.82)"/>
            <path class="cls-2 cls-70 cls-52" d="M1240.38 328.36a9.87 9.87 0 0 0-9 0c-2.46 1.43-2.45 3.75 0 5.18a9.87 9.87 0 0 0 9 0c2.47-1.43 2.45-3.76 0-5.19" transform="translate(-19.82)"/>
            <path class="cls-2 cls-71 cls-59" d="M1224.38 343.59a9.87 9.87 0 0 0-9 0c-2.47 1.43-2.45 3.76 0 5.19a9.87 9.87 0 0 0 9 0c2.47-1.43 2.45-3.76 0-5.19" transform="translate(-19.82)"/>
            <path class="cls-2 cls-72 cls-52" d="M1224.38 342.7a9.87 9.87 0 0 0-8.95 0c-2.47 1.43-2.45 3.76 0 5.19a9.87 9.87 0 0 0 9 0c2.46-1.43 2.45-3.75 0-5.19" transform="translate(-19.82)"/>
            <path class="cls-2 cls-73 cls-59" d="M1236.05 350a9.87 9.87 0 0 0-9 0c-2.47 1.43-2.45 3.76 0 5.19a9.87 9.87 0 0 0 9 0c2.47-1.43 2.45-3.76 0-5.19" transform="translate(-19.82)"/>
            <path class="cls-2 cls-74 cls-52" d="M1236 349.12a9.87 9.87 0 0 0-9 0c-2.47 1.43-2.45 3.76 0 5.19a9.87 9.87 0 0 0 9 0c2.46-1.43 2.45-3.75 0-5.18" transform="translate(-19.82)"/>
            <path class="cls-2 cls-75 cls-59" d="M1236 348a9.87 9.87 0 0 0-9 0c-2.46 1.43-2.45 3.75 0 5.19a9.87 9.87 0 0 0 8.95 0c2.47-1.43 2.45-3.76 0-5.19" transform="translate(-19.82)"/>
            <path class="cls-2 cls-76 cls-52" d="M1236.05 347.12a9.87 9.87 0 0 0-9 0c-2.47 1.43-2.45 3.76 0 5.19a9.87 9.87 0 0 0 9 0c2.47-1.43 2.45-3.76 0-5.19" transform="translate(-19.82)"/>
            <path class="cls-8" d="M1316.36 539.17c-22.42 13-26.37 32.07-8.79 42.3s50.33 7.93 72.75-5.11 26.38-32.07 8.79-42.3-50.33-7.92-72.75 5.11z" transform="translate(-19.82)"/>
            <path class="cls-9" d="M1403.39 229c8.19 17.37 11.88 45.25 13.24 69.45l-23.76 2.52-22.72-58.56" transform="translate(-19.82)"/>
            <path class="cls-17" d="M1398.14 349.54s-.85 8.67-1.44 11.12c-.38 1.56-.61 2.63-.9 3.77-.4 1.57-.5 2.35 0 2.73s1.42.5 2.32-2.69a13.91 13.91 0 0 1-2.94 5.84c-1.7 1.83-4.2 3.7-3.53 4.67s2.49 0 2.49 0 .22 1.57 2.48.33c0 0 .27 1.27 2.56-.33 0 0 .9 1.05 3-1.05s9.63-10.23 9.78-25.44z" transform="translate(-19.82)"/>
            <path class="cls-9" d="M1416.59 297.94c2.37 42.33-4.22 55.33-4.22 55.33l-14.36.39-5.15-52.72" transform="translate(-19.82)"/>
            <circle class="cls-9" cx="1384.81" cy="298.64" r="11.95"/>
            <circle class="cls-9" cx="1367.44" cy="236.91" r="17.97"/>
            <path class="cls-77" d="M1327.59 563.1c-4.88-4.88-10.79-6.89-13.2-4.48s-.41 8.32 4.47 13.2 10.79 6.89 13.2 4.49c1.45-1.45 1.34-7.38 1.34-8.85-.81-1.51-3.87-2.46-5.81-4.36z" transform="translate(-19.82)"/>
            <path class="cls-17" d="M1327.5 562.57c-3.18-3-7-4.22-8.48-2.64s-.14 5.31 3 8.34" transform="translate(-19.82)"/>
            <path class="cls-77" d="M1368 539.42c-4.88-4.88-10.79-6.89-13.2-4.48s-.4 8.32 4.47 13.2 10.79 6.89 13.2 4.49c1.45-1.45 1.34-7.38 1.34-8.85-.81-1.51-3.81-2.42-5.81-4.36z" transform="translate(-19.82)"/>
            <path class="cls-17" d="M1367.93 538.9c-3.18-3-7-4.22-8.48-2.64s-.14 5.31 3 8.34" transform="translate(-19.82)"/>
            <path class="cls-19" d="M1298.1 338.88l100.34 3.42-19.65 124.43-4.52 76.49c-.09 2.61-2.39 4.72-6.66 4.72s-5.81-2.32-5.9-4.9-7.22-48.52-10.75-79.45a449.2 449.2 0 0 1-2.48-48.9l-10.9 67.31-3.29 83.81v.26c0 2.59-2.52 4.72-7.22 4.71-4.48 0-6.22-2.17-6.38-4.62-.57-2.84-12.82-64-15.85-89.42-3.08-25.98-10.64-129.74-6.74-137.86z" transform="translate(-19.82)"/>
            <path class="cls-9" d="M1290.08 252.8c-3.51 24.65-2.18 117.31-2.18 117.31 0 19.78 5 35.35 32.1 39.15a45.56 45.56 0 0 0 15.26-.93c21-4.48 46.41-19.62 56.34-28.59 16.63-15 15.95-29.23 15.95-41.61v-90.38c0 .06 0-30.36-25.7-40.25-19.55-7.52-49.63-.63-65.36 8.25 0 0-22.75 11.37-26.41 37.05z" transform="translate(-19.82)"/>
            <path class="cls-8" d="M1292 244.53a14.43 14.43 0 0 1 10.58-4.9c15.69 0 14.62 17.77 14.62 17.77v99.72c0 38.36 8.7 49 14.37 51.87a41.49 41.49 0 0 1-11.61.27c-27.12-3.8-32.1-19.38-32.1-39.15 0 0-1.33-92.66 2.18-117.31a46.93 46.93 0 0 1 1.96-8.27z" transform="translate(-19.82)"/>
            <path class="cls-17" d="M1357.28 203.28a32 32 0 0 0 4.65-17.33c-.06-5.81.37-13.63-2.08-18-3.81-6.8-11.89-8.75-18.82-8.68-11.39.12-20.5 12.25-20.35 27.1.09 8.79 3.4 16.56 8.45 21.42v1.93c.08 2 1.43 2.18 4.07 3.71 5.47 3.18 14.37 3.18 19.88 0 2.7-1.56 4.08-3.6 4.14-5.64v-4.51" transform="translate(-19.82)"/>
            <path class="cls-21" d="M1341.57 208.62c-11.38-1.23-14.26-7.31-16.12-16.26-17.08-15.33-10.58-38.44-9.87-40.14 1.8 2.25 3.51 2.25 3.51 2.25a3.32 3.32 0 0 1-.25-2.28c2.91 4.48 21.06-2.47 28.25-4s8.25 3.14 8.25 3.14 5.23-2.57 9.23 6.15c3 6.45 2.58 23-.26 31.16-3.07 8.82-6.5 21.74-22.74 19.98z" transform="translate(-19.82)"/>
            <path class="cls-78" d="M1325.45 192.37c.81 3.93 1.83 7.31 3.67 10v5.46c-4.91-4.72-8.16-12.19-8.43-20.67a34.65 34.65 0 0 0 4.76 5.21z" transform="translate(-19.82)"/>
            <path class="cls-28" d="M1343.32 212.34c-6.07.53-11.73-.81-14.79-2.53 0 0-5.84 2.5-7.27 3.17 0 0 18.93 7.82 31.87 1.62 11.37-5.44 5.77-10.25 5.77-10.25l-1.62-.64v2.83s-1.9 4.74-13.96 5.8z" transform="translate(-19.82)"/>
            <path class="cls-9" d="M1333 253.9l-15.23 78.84-28.7-5.32s.17-6 .35-13.63c.74-32.44-2.11-55.88 3.74-72.77 2.78-8 44.24-4.6 39.84 12.88" transform="translate(-19.82)"/>
            <path class="cls-17" d="M1298.45 392.39s-5.68 15.36-5.58 18.52c.08 2.64.69 4.21-.87 5-2.1 1.05-2.93-.53-2.93-.53a2.35 2.35 0 0 1-3.6-1.1s-2.06 1.37-3-1.94c0 0-2.21 1.83-2.8-4.43-.7-7.4 5.08-18.86 5.13-19z" transform="translate(-19.82)"/>
            <path class="cls-17" d="M1291.62 416.08a5.08 5.08 0 0 0 2.89-3.27c.83-2.58-.53-4.93-3-4.88.03-.01-4.65 8.93.11 8.15z" transform="translate(-19.82)"/>
            <path class="cls-9" d="M1289.08 327.09l-6.54 68.91 13.89 6.55s14.08-34.29 21.67-71.24" transform="translate(-19.82)"/>
            <circle class="cls-9" cx="1303.7" cy="328.5" r="14.68" transform="rotate(-60.85 1293.718 345.396)"/>
            <circle class="cls-9" cx="1312.19" cy="250.16" r="21.19" transform="rotate(-89.78 1302.313 260.085)"/>
            <circle class="cls-79" cx="689.37" cy="173.04" r="57.08"/>
            <path class="cls-9" d="M739.53 167l-4.62-4.62v-6.54l-6-2.5-2.5-6h-6.52l-4.62-4.62-6 2.5-6-2.5-4.62 4.62H692l-2.5 6-6 2.5v6.54l-4.65 4.62 2.5 6-2.5 6 4.62 4.62v6.55l6 2.5 2.5 6h6.54l4.62 4.62 6-2.5 6 2.5 4.62-4.62h6.54l2.5-6 6-2.5v-6.54l4.62-4.62-2.5-6zm-28.37 22.7v3.55a2 2 0 1 1-4.05 0v-3.57a10.13 10.13 0 0 1-8.09-9.92 2 2 0 1 1 4.05 0 6.08 6.08 0 0 0 6.07 6.07c3.57 0 6.07-2.27 6.07-5.4 0-2.63-2.19-4.47-6.51-5.45-7.94-1.83-9.67-6.12-9.67-9.4a9.38 9.38 0 0 1 8.09-9.27v-3.51a2 2 0 1 1 4.05 0v3.59a10.08 10.08 0 0 1 7.94 8.23 2 2 0 0 1-4 .67 6 6 0 0 0-6-5.06c-3.57 0-6.07 2.27-6.07 5.4 0 1 0 4 6.51 5.45 8.42 1.91 9.67 6.71 9.67 9.4a9.37 9.37 0 0 1-8 9.27z" transform="translate(-19.82)"/>
            <circle class="cls-80" cx="735.85" cy="127.77" r="23.5"/>
            <text class="cls-81" transform="translate(724.43 133.78)">
                x1
            </text>
            <circle class="cls-79" cx="1318.3" cy="70.27" r="57.08"/>
            <path class="cls-9" d="M1368.45 64.23l-4.62-4.62v-6.53l-6-2.5-2.5-6h-6.52l-4.62-4.62-6 2.5-6-2.5-4.62 4.62h-6.54l-2.5 6-6 2.5v6.54l-4.62 4.62 2.5 6-2.5 6 4.62 4.62v6.55l6 2.5 2.5 6h6.54l4.62 4.62 6-2.5 6 2.5 4.62-4.62h6.54l2.5-6 6-2.5v-6.48l4.62-4.62-2.5-6zm-28.37 22.69v3.55a2 2 0 1 1-4.05 0V86.9a10.13 10.13 0 0 1-8.09-9.92 2 2 0 1 1 4.05 0 6.08 6.08 0 0 0 6.07 6.07c3.57 0 6.07-2.27 6.07-5.4 0-2.63-2.19-4.47-6.51-5.45-7.94-1.83-9.67-6.12-9.67-9.4a9.38 9.38 0 0 1 8.09-9.27V50a2 2 0 1 1 4.05 0v3.59a10.08 10.08 0 0 1 7.94 8.23 2 2 0 0 1-4 .67 6 6 0 0 0-6-5.06c-3.57 0-6.07 2.27-6.07 5.4 0 1 0 4 6.51 5.45 8.42 1.91 9.67 6.71 9.67 9.4a9.37 9.37 0 0 1-8 9.27z" transform="translate(-19.82)"/>
            <circle class="cls-80" cx="1364.78" cy="25" r="23.5"/>
            <text class="cls-81" transform="translate(1353.35 31.01)">
                x3
            </text>
            <g class="cls-2 cls-82">
                <path class="cls-4" d="M1108 764l-5-2.87-284 165c-15.34 8.91-35.45 13.36-55.62 13.36s-40.33-4.45-55.77-13.36l-115.22-66.55a5.45 5.45 0 0 0-5 0c-1.36.79-1.36 2.08 0 2.87L702.71 929c16.79 9.69 38.79 14.55 60.72 14.55S807.32 938.68 824 929l284-165M1128.13 749a5.64 5.64 0 0 0-3.24-.61l-30.66 2.76c-3 .27-4.24 2.43-2.06 3.69l10.84 6.26 5 2.87 10.18 5.88c2.18 1.26 5.9.56 6.37-1.2l4.67-17.77c.19-.73-.25-1.4-1.06-1.87" transform="translate(-19.82)"/>
            </g>
        </g>
    </g>
</svg>
