<svg xmlns="http://www.w3.org/2000/svg" viewBox="0 0 1637.71 1271.55">
    <defs>
        <style>
            .cls-1,.cls-15{fill:none}.cls-2{isolation:isolate}.cls-3{clip-path:url(#clip-path)}.cls-4{fill:#f5f5f5}.cls-5{fill:#d8d8d8}.cls-6{fill:#081b2f}.cls-7{fill:#ffcfae}.cls-8{fill:#9b9b9b}.cls-39,.cls-55,.cls-9{fill:#fff}.cls-10{fill:#eab896}.cls-11{fill:#424242}.cls-12{fill:#6b373e}.cls-13{fill:#2b90ff}.cls-14{fill:#9eccff}.cls-15{stroke:#fff;stroke-miterlimit:10;stroke-width:3px}.cls-16{opacity:.15}.cls-17,.cls-41{opacity:.1}.cls-18,.cls-55{opacity:.2}.cls-19{opacity:.05}.cls-20{clip-path:url(#clip-path-2)}.cls-21{fill:#e4e1d6}.cls-22{fill:#eaeaea}.cls-23{fill:#d6d6d6}.cls-24{fill:#bfbfbf}.cls-25{fill:#e8e8e8}.cls-26{fill:#f4f4f4}.cls-27{fill:#d3d3d3}.cls-28{fill:#adadad}.cls-29{fill:#999}.cls-30{clip-path:url(#clip-path-3)}.cls-31,.cls-32{fill:#d2d2d2}.cls-32,.cls-51,.cls-52{opacity:.4}.cls-33{fill:#8c8c8c}.cls-34{fill:#aeadad}.cls-35{clip-path:url(#clip-path-4)}.cls-36{clip-path:url(#clip-path-5)}.cls-37{clip-path:url(#clip-path-6)}.cls-38{opacity:.3}.cls-39,.cls-40,.cls-48{opacity:.08}.cls-41{fill:#0b0b0b}.cls-42{clip-path:url(#clip-path-7)}.cls-43{fill:#969696}.cls-44{opacity:.35}.cls-45{fill:#fffcee}.cls-46{fill:#444549}.cls-47{fill:#10355d}.cls-48{fill:#3a2416}.cls-49{fill:#dbdbdb}.cls-50{fill:#562816}.cls-51{fill:#c9c9c9}.cls-53{fill:#dadcdc}.cls-54{fill:#dbdddd}.cls-56{opacity:.5}.cls-57{fill:#d1d1d1}.cls-58{fill:#8e8e8e}.cls-59{fill:#7c7c7c}.cls-60{fill:#ffb522}
        </style>
        <clipPath id="clip-path" transform="translate(-19.82)">
            <path class="cls-1" d="M461.21 539.34L848.97 314l390.29 225.34-387.75 225.34-390.3-225.34z"/>
        </clipPath>
        <clipPath id="clip-path-2" transform="translate(-19.82)">
            <path class="cls-1" d="M541.57 369.47l106.26-63.97-1.41-55.39-105.85 63.94 1 55.42z"/>
        </clipPath>
        <clipPath id="clip-path-3" transform="translate(-19.82)">
            <path class="cls-1" d="M716.89 244.59l-.36-17.28-29.35 17.66.36 17.28 29.35-17.66z"/>
        </clipPath>
        <clipPath id="clip-path-4" transform="translate(-19.82)">
            <path class="cls-1" d="M0 783.67L412.41 544l415.1 239.67-412.4 239.66L0 783.67z"/>
        </clipPath>
        <clipPath id="clip-path-5" transform="translate(-19.82)">
            <path class="cls-1" d="M494.45 716.26l255.2-148.3 33.12 19.12-255.2 148.31-33.12-19.13z"/>
        </clipPath>
        <clipPath id="clip-path-6" transform="translate(-19.82)">
            <path class="cls-1" d="M435.07 1045.53l830.92-482.88 411.37 237.51-830.92 482.87-411.37-237.5z"/>
        </clipPath>
        <clipPath id="clip-path-7" transform="translate(-19.82)">
            <path class="cls-1" d="M880.19 514.2l212.33-123.4 518.43 299.32-212.33 123.39L880.19 514.2z"/>
        </clipPath>
    </defs>
    <title>
        Measure Customer Flow
    </title>
    <g id="Layer_2" data-name="Layer 2">
        <g id="Layer_1-2" data-name="Layer 1">
            <path class="cls-2 cls-3 cls-4" d="M1205.31 519.74L882.92 333.61c-18.75-10.83-49.06-10.83-67.69 0L494.95 519.74c-18.63 10.83-18.53 28.38.22 39.21l322.39 186.12c18.75 10.83 49.06 10.83 67.69 0l320.29-186.13c18.63-10.83 18.53-28.38-.22-39.21" transform="translate(-19.82)"/>
            <path class="cls-5" d="M899.46 532.93c22.07 12.83 26 31.57 8.65 41.63s-49.54 7.81-71.61-5-26-31.57-8.65-41.63 49.54-7.83 71.61 5z" transform="translate(-19.82)"/>
            <path class="cls-6" d="M891.62 565.1c-4.78 4.79-10.58 6.75-13 4.37s-.42-8.17 4.37-13 10.58-6.75 13-4.38c1.43 1.43 1.33 5.18 1.33 6.62-.81 1.53-3.8 4.49-5.7 6.39z" transform="translate(-19.82)"/>
            <path class="cls-7" d="M891.58 560.12c-3.13 3-6.87 4.15-8.35 2.6s-.14-5.22 3-8.21 6.87-4.15 8.35-2.6.13 5.23-3 8.21z" transform="translate(-19.82)"/>
            <path class="cls-6" d="M848.77 540.58c-4.59 4.6-10.16 6.48-12.44 4.2s-.4-7.85 4.19-12.45 10.16-6.48 12.44-4.21c1.38 1.37 1.28 5 1.28 6.35-.76 1.44-3.64 4.28-5.47 6.11z" transform="translate(-19.82)"/>
            <path class="cls-7" d="M848.74 535.8c-3 2.87-6.6 4-8 2.5s-.13-5 2.87-7.89 6.6-4 8-2.49.13 5.01-2.87 7.88z" transform="translate(-19.82)"/>
            <path class="cls-8" d="M897.32 475.43s17.25-69.22 23.24-112.86l-104.92-18.66c-.44 21.22 5.21 63.79 7.6 93.06 3.6 44.09 18.78 95 18.78 95 .33 1.6 2.11 2.82 5.66 2.82 4 0 6.7-1.33 6.7-3.2l-1.59-70.76 7.72-60.19s3.74 44.86 6.52 68.81S884 555 884 555c0 2.51 1.83 4.55 6.11 4.55s7.19-1.85 7.21-4.34z" transform="translate(-19.82)"/>
            <path class="cls-9" d="M814.05 215.65c-8.06 17.1-11.7 44.54-13 68.37l23.39 2.48 22.36-57.64" transform="translate(-19.82)"/>
            <path class="cls-7" d="M819.22 334.34s.84 8.53 1.42 10.95c.37 1.54.6 2.59.88 3.71.4 1.55.5 2.31 0 2.68s-1.4.49-2.29-2.65a13.7 13.7 0 0 0 2.89 5.75c1.68 1.8 4.13 3.64 3.48 4.59s-2.45 0-2.45 0-.21 1.55-2.44.33c0 0-.26 1.25-2.52-.33 0 0-.89 1-3-1s-9.48-10.07-9.63-25z" transform="translate(-19.82)"/>
            <path class="cls-9" d="M801.06 283.55c-2.33 41.67 4.15 54.46 4.15 54.46l14.13.38 5.07-51.89" transform="translate(-19.82)"/>
            <circle class="cls-9" cx="793" cy="284.24" r="11.77"/>
            <circle class="cls-9" cx="810.1" cy="223.47" r="17.69"/>
            <path class="cls-9" d="M824 367.64c9.68 8.93 34.82 23.73 55.46 28.14a44.82 44.82 0 0 0 15 .91c26.7-3.74 31.6-19.07 31.6-38.54l-.08-100c-.12-37-28.07-51.93-28.07-51.93-15.48-8.73-45.09-15.52-64.34-8.12-25.3 9.73-25.29 39.69-25.3 39.63s-2.23 17 4.77 37.53c.05-.02-15.64 67.83 10.96 92.38z" transform="translate(-19.82)"/>
            <path class="cls-5" d="M920.92 232.86a18.57 18.57 0 0 0-14.85-4.11c-11.44 1.43-8.86 14.81-8.86 14.81s11.72 105.71-14 126.46c-18.17 14.63-42.21 7-54.79 1.26 11.59 8.87 33.05 20.65 51.09 24.51a44.82 44.82 0 0 0 15 .91c26.7-3.74 31.6-19.07 31.6-38.54l-.08-100a63.49 63.49 0 0 0-5.11-25.3z" transform="translate(-19.82)"/>
            <path class="cls-7" d="M909.62 380.32s-.68 8.55-1.22 11c-.34 1.54-.55 2.6-.82 3.73-.37 1.55-.45 2.32.07 2.68s1.41.46 2.24-2.69a13.71 13.71 0 0 1-2.79 5.8c-1.64 1.83-4.06 3.71-3.39 4.65s2.45 0 2.45 0 .24 1.54 2.44.29c0 0 .29 1.24 2.51-.37 0 0 .91 1 2.94-1.09s9.3-10.24 9.18-25.21z" transform="translate(-19.82)"/>
            <path class="cls-9" d="M906.17 320.83l2.34 69.17 13.55-.42s10.35-27.23 12.89-70.7" transform="translate(-19.82)"/>
            <circle class="cls-9" cx="920.5" cy="318.98" r="14.45" transform="rotate(-1.03 914.005 1422.886)"/>
            <path class="cls-9" d="M884.22 248.09l22.53 75.34 28.25-4.71s.45-7 .46-14.5c0-31.6-4.49-55.36-13-72.2" transform="translate(-19.82)"/>
            <circle class="cls-9" cx="903.79" cy="241.23" r="20.73" transform="rotate(-.22 888.13 5403.148)"/>
            <path class="cls-7" d="M857 148.79c-6.5-.26-14.12 1.35-17.89 7.61-2.42 4-2.24 11.37-2.46 16.82-.39 9.84 3.53 20.16 9.64 25.51v2.57c.07 2.11 1.48 4.2 4.27 5.81 5.67 3.27 14.83 3.27 20.46 0 2.72-1.58 4.11-3.63 4.19-5.7V183.3c0-.31 2.41-9.69 2.42-10 .65-13.92-9.92-24.08-20.63-24.51z" transform="translate(-19.82)"/>
            <path class="cls-10" d="M854.89 202.45a13.85 13.85 0 0 1-8.56-3.71v2.57c.07 2.11 1.48 4.2 4.27 5.81 5.67 3.27 14.83 3.27 20.46 0 2.72-1.58 4.11-3.63 4.19-5.7v-25.73c-.86 13.62-9.92 27.18-20.36 26.76z" transform="translate(-19.82)"/>
            <path class="cls-11" d="M875.31 176.14l-1.82 9.19 1.82 5.76c1.61-1.72 2.35-5.71 3.9-9 4.83-10.42 3.69-18.42 2.94-26.55-.31-3.39-1.35-17.19-11.55-18 0 0-5.38-5.52-20.44.29-8.72 3.36-13.76-.27-13.76-.27s-.73 3.47.65 6c0 0-8.17 7.1-.25 26.7.14-4.9 0-8.73 2-12 1.41-2.35 4.87-2.92 7.37-3.25a13.91 13.91 0 0 1 4.37.94s3.89-1.17 5.47-1c11.08.87 10.93 5.42 10.93 5.42l.48 5.13v17.56s-.51 9-9 10.33c-3.53.54-7-3.1-7-3.1h-2.59s-2.16 3.36-4.2 2.33a12.4 12.4 0 0 1-6.64-8.37c.47 2.39 3.78 17.15 14.49 18.43 13.12 1.56 18.12-6.5 18.12-15.62v-16.31a2.66 2.66 0 0 1 2.94-3.16c3.39 0 2.59 4.74 1.77 8.55z" transform="translate(-19.82)"/>
            <path class="cls-12" d="M837.9 184.08c0-.21-.06-.34-.06-.34s.01.13.06.34z" transform="translate(-19.82)"/>
            <path class="cls-11" d="M854.36 182.44h-8.71s-2.47 2.25-2.47 4.46h13.65c0-2.21-2.47-4.46-2.47-4.46z" transform="translate(-19.82)"/>
            <circle class="cls-13" cx="835.28" cy="57.08" r="57.08"/>
            <path class="cls-14" d="M854.81 59l.19-22.36a22.33 22.33 0 1 1-20.2 12.5z" transform="translate(-19.82)"/>
            <circle class="cls-15" cx="834.99" cy="58.96" r="30.6"/>
            <path class="cls-15" d="M814.36 50.33l17.76 8.63M834.89 29.06V17.71M826.26 17.71h17.27"/>
            <circle class="cls-9" cx="834.89" cy="60.15" r="3.95"/>
            <path class="cls-16" d="M487.39 360.94l208.06-126.31-.96 21.76v.03l-206.7 126.27-.4-21.75z"/>
            <path class="cls-9" d="M727.37 183.69l-31.16-18.41-210.05 127.47 1.23 68.17 31.16 18.41L728.6 251.87l-1.23-68.18z"/>
            <path class="cls-17" d="M516.89 311.17l-30.73-18.42 1.23 68.18 30.73 18.41-1.23-68.17z"/>
            <path class="cls-18" d="M747.2 183.69L536.72 311.16l1.23 68.18 210.48-127.47zm-3.62 9.75l1 54.83-203 120.9-1-54.85z" transform="translate(-19.82)"/>
            <path class="cls-1" d="M724.74 248.28l-203 120.9-.55-30.54 176.68-105.31-.44-24.29 26.32-15.59.99 54.83z"/>
            <path class="cls-9" d="M521.19 338.64l-.44-24.31 176.68-105.29.44 24.29-176.68 105.31z"/>
            <path class="cls-17" d="M521.19 338.64l-.44-24.31 176.68-105.29.44 24.29-176.68 105.31z"/>
            <path class="cls-19" d="M697.87 233.33l-.44-24.22 26.32-15.68.99 54.83-.51.01-26.59-14.81.23-.13z"/>
            <g class="cls-20">
                <path class="cls-22" d="M588.25 264.84l-.07-3.58.94.13 22.72 13.93-.6.01-.04-1.86h.01-.01l.73 40.2-4.59 3.44-22.18-13.01-.73-40.2 1.01-.8 2.81 1.74z"/>
                <path class="cls-17" d="M607.47 276.89l-23.04-12.99.73 40.2 23.03 12.99-.72-40.2z"/>
                <path class="cls-18" d="M607.47 276.89l3.73-3.42.73 40.2-3.74 3.42-.72-40.2z"/>
                <path class="cls-9" d="M588.32 261.79l-3.07 1.85 21.01 11.7 3.07-1.85-21.01-11.7z"/>
                <path class="cls-23" d="M573.13 269.02l-.07-3.58 1.97.06 23.95 13.86.93-.02-.03-1.75.72 40.19-6.48 3.48-24.08-12.97-.73-40.2 1.01-.8 2.81 1.73z"/>
                <path class="cls-17" d="M592.34 281.08l-23.03-12.99.73 40.2 23.03 12.99-.73-40.2z"/>
                <path class="cls-18" d="M592.34 281.08l7.54-3.5.72 40.2-7.53 3.5-.73-40.2z"/>
                <path class="cls-9" d="M575.26 265.94l-3.07 1.85 21.01 11.7 3.06-1.85-21-11.7z"/>
                <path class="cls-24" d="M569.67 287.88l-.05-2.68.82-.39 17.9 9.94.45-.01-.01-.43.01.22-.01-.21.55 30.11-4.87 2.6-18.06-9.72-.54-30.12 1.23-.6 2.58 1.29z"/>
                <path class="cls-17" d="M585.03 296.89l-19.17-9.7.54 30.12 19.17 9.7-.54-30.12z"/>
                <path class="cls-18" d="M585.03 296.89l3.75-2.58.55 30.12-3.76 2.58-.54-30.12z"/>
                <path class="cls-9" d="M569.97 285.59l-2.3 1.39 15.73 8.77 2.3-1.39-15.73-8.77z"/>
                <path class="cls-25" d="M562.13 291.33l-.05-2.68 1.23-.15 17.7 10.18.25-.01-.01-.9.54 30.11-4.87 2.61-18.06-9.72-.54-30.12 1.23-.61 2.58 1.29z"/>
                <path class="cls-17" d="M577.49 300.35l-19.17-9.7.54 30.12 19.17 9.7-.54-30.12z"/>
                <path class="cls-18" d="M577.49 300.35l3.76-2.59.54 30.12-3.76 2.59-.54-30.12z"/>
                <path class="cls-9" d="M563.23 289.03l-2.3 1.39 15.74 8.76 2.3-1.38-15.74-8.77z"/>
                <path class="cls-26" d="M546.73 280.25l-.07-4.05.79-.89 26.18 14.68-.13-.01v.01h.01-.01l.83 45.41-7.26 3.92-27.14-14.65-.82-45.42 2.79-.93 4.83 1.93z"/>
                <path class="cls-17" d="M565.98 293.91l-26.87-14.66.82 45.42 26.87 14.66-.82-45.42z"/>
                <path class="cls-18" d="M565.98 293.91l7.52-3.93.83 45.42-7.53 3.93-.82-45.42z"/>
                <path class="cls-9" d="M546.31 276.81l-3.46 2.09 23.72 13.23 3.47-2.09-23.73-13.23z"/>
                <path class="cls-27" d="M535.44 286.05l-.08-4.05 2.28-1.2 27.11 14.37 1.25-.02.01.57.82 45.41-7.25 3.93-27.14-14.66-.82-45.42.89-.9 2.93 1.97z"/>
                <path class="cls-17" d="M558.48 299.64l-26.86-14.66.82 45.42 26.86 14.66-.82-45.42z"/>
                <path class="cls-18" d="M558.48 299.64l7.53-3.93.82 45.42-7.53 3.93-.82-45.42z"/>
                <path class="cls-9" d="M538 282.56l-3.47 2.09 23.73 13.22 3.47-2.09L538 282.56z"/>
                <path class="cls-28" d="M531.96 303.91l-.06-3.2 1.25-1.23 20.86 11.08H554.47l.41-.01.66 36.97-5.5 3.1-21.25-11.6-.65-35.94 1.11-.71 2.71 1.54z"/>
                <path class="cls-17" d="M547.35 314.72l-19.21-11.64.65 35.94L548 350.66l-.65-35.94z"/>
                <path class="cls-18" d="M547.35 314.72l7.55-3.13.64 35.93-7.54 3.14-.65-35.94z"/>
                <path class="cls-9" d="M532.9 301.18l-2.74 1.65 18.77 10.46 2.74-1.65-18.77-10.46z"/>
                <path class="cls-25" d="M524.52 312.95l-.05-2.73 1.22-1.2 17.85 9.33h.08l.02 1.16v.01l.55 30.67-4.74 2.65-18.19-9.91-.55-30.68 1.22-.62 2.59 1.32z"/>
                <path class="cls-17" d="M539.89 322.14l-19.18-9.89.55 30.68 19.18 9.89-.55-30.68z"/>
                <path class="cls-18" d="M539.89 322.14l3.75-2.63.55 30.68-3.75 2.63-.55-30.68z"/>
                <path class="cls-9" d="M525.62 310.6l-2.34 1.42 16.03 8.93 2.34-1.41-16.03-8.94z"/>
                <path class="cls-25" d="M516.96 315.09l-.05-2.96.97-.62L537 322.27l-.91.02v-.08l.6 33.19-4.2 2.85-18.74-10.74-.6-33.19 1.16-.66 2.65 1.43z"/>
                <path class="cls-17" d="M532.34 325.04l-19.19-10.72.6 33.19 19.19 10.73-.6-33.2z"/>
                <path class="cls-18" d="M532.34 325.04l3.75-2.83.6 33.19-3.75 2.84-.6-33.2z"/>
                <path class="cls-9" d="M517.44 312.56l-2.54 1.53 17.35 9.66 2.53-1.52-17.34-9.67z"/>
                <path class="cls-29" d="M509.43 318.88l-.05-2.96 1.03-.55 18.69 10.84-.54.01V326v.11-.11l.6 33.19-4.2 2.85-18.74-10.73-.6-33.19 1.16-.67 2.65 1.43z"/>
                <path class="cls-17" d="M524.81 328.84l-19.19-10.72.6 33.19 19.19 10.72-.6-33.19z"/>
                <path class="cls-18" d="M524.81 328.84l3.75-2.84.6 33.19-3.75 2.84-.6-33.19z"/>
                <path class="cls-9" d="M510.02 316.35l-2.54 1.53 17.35 9.66 2.53-1.52-17.34-9.67z"/>
            </g>
            <path class="cls-25" d="M660.89 235.97l31.73-19.22 1.73.97 7.01 33.42-31.73 19.22-12.97-7.22 4.23-27.17z"/>
            <path class="cls-9" d="M691.38 217.52l1.73.97 5.6 26.72-29.21 17.68-5.61-26.72-1.72-.97 29.21-17.68z"/>
            <path class="cls-18" d="M656.66 263.14l4.23-27.17 1.72.97 7.02 33.42-12.97-7.22z"/>
            <path class="cls-18" d="M661.94 237.42l-.48-.27-3.98 25.59 11.08 6.17-6.62-31.49z"/>
            <path class="cls-18" d="M657.49 262.72l3.97-25.57.48.27 4.22 20.05-8.67 5.25z"/>
            <g class="cls-2 cls-30">
                <path class="cls-31" d="M690.37 231.12l3.41-2.05.75 3.53-3.41 2.05-.75-3.53"/>
                <path class="cls-32" d="M686.53 233.43l3.41-2.05.75 3.53-3.41 2.05-.75-3.53M682.71 235.73l3.39-2.04.75 3.53-3.41 2.05-.73-3.54M678.87 238.04l3.39-2.04.75 3.53-3.38 2.03-.76-3.52M675.03 240.35l3.39-2.04.75 3.53-3.38 2.04-.76-3.53M671.19 242.66l3.41-2.05.73 3.54-3.38 2.04-.76-3.53M667.35 244.97l3.41-2.05.76 3.53-3.41 2.05-.76-3.53"/>
                <path class="cls-31" d="M691.23 235.09l3.38-2.03.76 3.55-3.41 2.05-.73-3.57"/>
                <path class="cls-32" d="M687.39 237.4l3.38-2.03.76 3.55-3.39 2.03-.75-3.55M683.55 239.71l3.38-2.03.76 3.55-3.39 2.03-.75-3.55M679.71 242.02l3.41-2.05.73 3.57-3.39 2.04-.75-3.56M675.87 244.33l3.41-2.05.75 3.56-3.41 2.05-.75-3.56M672.03 246.64l3.41-2.05.75 3.56-3.41 2.05-.75-3.56M668.21 248.94l3.39-2.04.75 3.56-3.41 2.05-.73-3.57"/>
                <path class="cls-31" d="M692.06 239.1l3.39-2.03.75 3.52-3.38 2.04-.76-3.53"/>
                <path class="cls-32" d="M688.23 241.41l3.4-2.05.73 3.54-3.38 2.04-.75-3.53M684.38 243.72l3.41-2.05.76 3.53-3.41 2.05-.76-3.53M680.55 246.03l3.4-2.05.76 3.53-3.41 2.05-.75-3.53M676.73 248.33l3.38-2.04.76 3.53-3.41 2.05-.73-3.54M672.89 250.64l3.38-2.04.76 3.53-3.39 2.04-.75-3.53M669.05 252.95l3.38-2.04.76 3.53-3.39 2.04-.75-3.53"/>
                <path class="cls-31" d="M692.9 243.09l3.41-2.06.76 3.56-3.42 2.05-.75-3.55"/>
                <path class="cls-32" d="M689.09 245.38l3.38-2.03.76 3.55-3.41 2.05-.73-3.57M685.25 247.69l3.38-2.03.76 3.55-3.39 2.04-.75-3.56M681.41 250l3.38-2.03.75 3.55-3.38 2.04-.75-3.56M677.57 252.31l3.38-2.03.76 3.55-3.39 2.04-.75-3.56M673.73 254.63l3.4-2.06.76 3.56-3.41 2.05-.75-3.55M669.89 256.94l3.4-2.06.76 3.56-3.41 2.05-.75-3.55"/>
            </g>
            <path class="cls-33" d="M684.76 232.64a2.24 2.24 0 0 0 .17.78l-.71.43a2.23 2.23 0 0 1-.17-.78.86.86 0 0 1 .35-.79l.71-.43a.86.86 0 0 0-.35.79z" transform="translate(-19.82)"/>
            <path class="cls-34" d="M685.11 231.85a.87.87 0 0 1 .88.07 2.71 2.71 0 0 1 1.27 2.11.87.87 0 0 1-.35.8l-.71.43a.87.87 0 0 0 .35-.8 2.72 2.72 0 0 0-1.27-2.11.88.88 0 0 0-.88-.07z" transform="translate(-19.82)"/>
            <path class="cls-33" d="M687.6 230.92a2.26 2.26 0 0 0 .17.78l-.71.43a2.28 2.28 0 0 1-.17-.78.87.87 0 0 1 .35-.8l.71-.43a.86.86 0 0 0-.35.8z" transform="translate(-19.82)"/>
            <path class="cls-34" d="M687.95 230.13a.88.88 0 0 1 .88.07 2.72 2.72 0 0 1 1.27 2.11.87.87 0 0 1-.35.8l-.7.43a.87.87 0 0 0 .35-.8 2.71 2.71 0 0 0-1.27-2.11.89.89 0 0 0-.88-.07z" transform="translate(-19.82)"/>
            <path class="cls-33" d="M690.45 229.2a2.19 2.19 0 0 0 .17.78l-.71.43a2.29 2.29 0 0 1-.18-.78.86.86 0 0 1 .35-.79l.7-.43a.87.87 0 0 0-.33.79z" transform="translate(-19.82)"/>
            <path class="cls-34" d="M690.79 228.4a.88.88 0 0 1 .88.07 2.72 2.72 0 0 1 1.27 2.11.87.87 0 0 1-.35.8l-.71.43a.87.87 0 0 0 .35-.8 2.72 2.72 0 0 0-1.23-2.11.88.88 0 0 0-.88-.07z" transform="translate(-19.82)"/>
            <path class="cls-33" d="M693.28 227.48a2.22 2.22 0 0 0 .17.78l-.71.43a2.27 2.27 0 0 1-.17-.78.86.86 0 0 1 .35-.79l.71-.43a.86.86 0 0 0-.35.79z" transform="translate(-19.82)"/>
            <path class="cls-34" d="M693.63 226.68a.88.88 0 0 1 .88.07 2.72 2.72 0 0 1 1.27 2.11.87.87 0 0 1-.35.8l-.71.43a.86.86 0 0 0 .35-.8 2.72 2.72 0 0 0-1.27-2.11.87.87 0 0 0-.88-.07z" transform="translate(-19.82)"/>
            <path class="cls-33" d="M696.12 225.75a2.26 2.26 0 0 0 .17.78l-.7.43a2.24 2.24 0 0 1-.18-.78.86.86 0 0 1 .35-.8l.71-.43a.86.86 0 0 0-.35.8z" transform="translate(-19.82)"/>
            <path class="cls-34" d="M696.47 225a.88.88 0 0 1 .88.07 2.72 2.72 0 0 1 1.27 2.11.86.86 0 0 1-.35.8l-.71.43a.87.87 0 0 0 .35-.8 2.71 2.71 0 0 0-1.27-2.11.88.88 0 0 0-.88-.07z" transform="translate(-19.82)"/>
            <path class="cls-33" d="M699 224a2.19 2.19 0 0 0 .17.78l-.71.43a2.28 2.28 0 0 1-.18-.78.86.86 0 0 1 .35-.79l.7-.43a.87.87 0 0 0-.33.79z" transform="translate(-19.82)"/>
            <path class="cls-34" d="M699.31 223.24a.88.88 0 0 1 .88.07 2.73 2.73 0 0 1 1.27 2.11.87.87 0 0 1-.35.8l-.71.43a.87.87 0 0 0 .35-.8 2.72 2.72 0 0 0-1.27-2.11.87.87 0 0 0-.88-.07z" transform="translate(-19.82)"/>
            <path class="cls-33" d="M701.8 222.33a2.23 2.23 0 0 0 .17.78l-.71.43a2.24 2.24 0 0 1-.17-.78.86.86 0 0 1 .35-.79l.71-.43a.86.86 0 0 0-.35.79z" transform="translate(-19.82)"/>
            <path class="cls-34" d="M702.15 221.54a.87.87 0 0 1 .88.07 2.71 2.71 0 0 1 1.27 2.11.87.87 0 0 1-.35.8l-.71.43a.86.86 0 0 0 .35-.8 2.72 2.72 0 0 0-1.27-2.11.88.88 0 0 0-.88-.07z" transform="translate(-19.82)"/>
            <path class="cls-33" d="M704.64 220.63a2.26 2.26 0 0 0 .17.78l-.7.43a2.24 2.24 0 0 1-.18-.78.86.86 0 0 1 .35-.8l.71-.43a.86.86 0 0 0-.35.8z" transform="translate(-19.82)"/>
            <path class="cls-34" d="M705 219.84a.88.88 0 0 1 .88.07 2.72 2.72 0 0 1 1.27 2.11.86.86 0 0 1-.35.8l-.71.43a.87.87 0 0 0 .35-.8 2.71 2.71 0 0 0-1.27-2.11.88.88 0 0 0-.88-.07z" transform="translate(-19.82)"/>
            <path class="cls-33" d="M707.48 218.91a2.18 2.18 0 0 0 .17.78l-.71.43a2.24 2.24 0 0 1-.18-.78.86.86 0 0 1 .35-.79l.7-.43a.86.86 0 0 0-.33.79z" transform="translate(-19.82)"/>
            <path class="cls-34" d="M707.83 218.11a.88.88 0 0 1 .88.07 2.73 2.73 0 0 1 1.27 2.11.87.87 0 0 1-.35.8l-.71.43a.87.87 0 0 0 .35-.8 2.71 2.71 0 0 0-1.27-2.11.87.87 0 0 0-.88-.07z" transform="translate(-19.82)"/>
            <path class="cls-2 cls-35 cls-4" d="M793.56 764.06l-347.2-200.45c-18.75-10.83-49.06-10.83-67.69 0L33.73 764.07c-18.63 10.82-18.53 28.38.27 39.2l347.2 200.45c18.75 10.83 49.06 10.83 67.69 0l344.89-200.45c18.63-10.83 18.53-28.38-.22-39.21" transform="translate(-19.82)"/>
            <g class="cls-2 cls-36">
                <path class="cls-13" d="M744.3 593.53l-5-2.87-228 132.49c-1.36.79-1.36 2.08 0 2.87a5.45 5.45 0 0 0 5 0l228-132.49" transform="translate(-19.82)"/>
                <path class="cls-13" d="M766.21 577.52a6.07 6.07 0 0 0-3.49-.66l-33 3c-3.28.29-4.57 2.62-2.22 4l11.87 6.85 5 2.87 11.1 6.42c2.35 1.36 6.36.6 6.87-1.3l5-19.14a1.86 1.86 0 0 0-1.15-2" transform="translate(-19.82)"/>
            </g>
            <path class="cls-2 cls-37 cls-4" d="M1643.41 780.56l-343.46-198.3c-18.75-10.83-49.06-10.83-67.69 0l-763.45 443.67c-18.63 10.83-18.53 28.38.22 39.21l343.46 198.3c18.75 10.83 49.06 10.83 67.69 0l763.45-443.67c18.63-10.83 18.53-28.38-.22-39.21" transform="translate(-19.82)"/>
            <path class="cls-16" d="M50.58 791.06l148.7-86.47 142.69 82.96-148.71 86.47-142.68-82.96z"/>
            <path class="cls-26" d="M205.26 867.05l-8.48 4.93-16.38-9.52-1.9-13.19 12.29-7.13 16.38 9.52-1.91 15.39zM336.26 790.88l-8.48 4.93-16.38-9.52-1.9-13.18 12.3-7.14 16.37 9.53-1.91 15.38z"/>
            <path class="cls-38" d="M338.17 775.5l-1.91 15.38-8.48 4.93-1.91-13.18 12.3-7.13zM207.17 851.66l-1.91 15.39-8.48 4.93-1.91-13.19 12.3-7.13z"/>
            <path class="cls-26" d="M81.16 794.9l-8.49 4.93-16.37-9.52-1.91-13.18 12.3-7.13 16.37 9.51-1.9 15.39z"/>
            <path class="cls-16" d="M83.06 779.51l-1.9 15.39-8.49 4.93-1.9-13.18 12.29-7.14z"/>
            <path class="cls-9" d="M222.25 686.12L90.86 762.29l-33.12-19.04v-95.2l131.38-76.18 33.13 19.04v95.21z"/>
            <path class="cls-38" d="M91.39 762.29l130.86-76.17v-95.21L91.39 667.09v95.2zM91.39 762.29l-33.65-19.04v-95.2l33.65 19.04v95.2z"/>
            <path class="cls-39" d="M59.14 648.05l32.75 19.04 131.01-76.18-32.75-19.04-131.01 76.18z"/>
            <path class="cls-9" d="M200.95 579c0-1.34 1.1-2.68 2.85-3.69l7.9-4.51a14.2 14.2 0 0 1 12.79 0l134.64 78.3c1.75 1 2.59 2.35 2.59 3.69v123.77c0 1.34-.83 2.68-2.58 3.69l-7.76 4.51a14 14 0 0 1-12.68 0l-134.9-78.3c-1.75-1-2.85-2.36-2.85-3.69z" transform="translate(-19.82)"/>
            <path class="cls-38" d="M346.76 662.52c-3.74 0-5.46-.51-7.2-1.52l-135.34-78.3c-1.75-1-3.28-2.36-3.28-3.69v123.76c0 1.34 1.1 2.68 2.85 3.69l135.64 78.3c1.75 1 3.58 1.52 7.32 1.52z" transform="translate(-19.82)"/>
            <path class="cls-16" d="M345.05 662.52a12.91 12.91 0 0 0 6.35-1.52l7.74-4.51c1.75-1 2.58-2.35 2.58-3.69v123.76c0 1.34-.83 2.68-2.58 3.69l-7.76 4.51a12.89 12.89 0 0 1-6.34 1.52" transform="translate(-19.82)"/>
            <path class="cls-40 cls-9" d="M359.18 656.49c1.75-1 2.62-2.35 2.62-3.69s-.87-2.68-2.62-3.69L224.51 570.8a14 14 0 0 0-12.7 0l-7.81 4.52c-1.75 1-2.62 2.35-2.62 3.69s.87 2.68 2.62 3.69L338.7 661a14 14 0 0 0 12.7 0z" transform="translate(-19.82)"/>
            <path class="cls-9" d="M319.46 775.61l-121.87 71.41-113.68-66.65v-38.08l121.87-71.4 113.68 66.64v38.08z"/>
            <path class="cls-16" d="M199.81 847.02l119.65-71.41v-38.08l-119.65 71.41v38.08zM199.81 847.02l-115.9-66.65v-38.08l115.9 66.65v38.08z"/>
            <path class="cls-9" d="M319.46 733.72l-121.87 71.41-113.68-66.64V700.4L205.78 629l113.68 66.64v38.08z"/>
            <path class="cls-16" d="M199.81 805.13l119.65-71.41v-38.08l-119.65 71.41v38.08zM199.81 805.13l-115.9-66.64V700.4l115.9 66.65v38.08z"/>
            <path class="cls-9" d="M240.94 648.04l-123.54 71.4-33.49-19.04v-95.2l123.55-71.41 33.48 19.04v95.21z"/>
            <path class="cls-16" d="M117.56 719.44l123.38-71.4v-95.21l-123.38 71.41v95.2z"/>
            <path class="cls-38" d="M117.56 719.44L83.91 700.4v-95.2l33.65 19.04v95.2z"/>
            <path class="cls-39" d="M206.52 533.79L83.71 605.2l32.75 19.04 122.81-71.41-32.75-19.04z"/>
            <path class="cls-14" d="M281 703.05c-30.54 2.14-49.12 9.77-60.19 14.7l-.61.28c-1.35.71-4.16 2.44-6.55 3.92-1.68 1.14-3 2-4 2.56a5.37 5.37 0 0 1-3.45 1.38h-.2a1.7 1.7 0 0 1-.4-.11 1.27 1.27 0 0 1-.23-.09 4.41 4.41 0 0 1-1.44-1.3 53.61 53.61 0 0 1-4.07-5.52.82.82 0 0 1-.06-.09c-12.44-17.06-24-39.93-29.71-51.93-1.42-2.86-2.67-5.56-3.72-8l-.05-.11a121.9 121.9 0 0 1-5-13.7c-2.61-14.66 10.39-14.95 10.39-14.95 1.59-.26 3.22-.59 4.81-1l1.11-.28a96.77 96.77 0 0 0 10.29-2.69c9-3.2 20.67-7.18 35.11-15.22h1v-.49a21.51 21.51 0 0 1 4.81-3.67s-.25-.12-.24-.13l.18-.06c4-2.29 9.88-4.89 13.63-4.6s6.78-3.22 9.49 19.12h-.15s7.84 29 18.95 52.08c8.28 15.33 12.61 22.39 12.61 22.39 5.58 7.27-2.31 7.51-2.31 7.51z" transform="translate(-19.82)"/>
            <path class="cls-9" d="M191.62 706.65c13.89-1.33 49.65-6.89 81.22-29.76.74 1.36 1.43 2.61 2.09 3.83-30.7 22.06-65.12 28.26-80.71 30q-1.32-2.02-2.6-4.07zM182.49 691.08c11.68-.91 49.69-5.62 83.12-29.63l1.73 4.07c-32.39 22.9-68.66 28.39-82.53 29.7-.81-1.39-1.56-2.77-2.32-4.14zM259.79 646.17q.74 2.09 1.54 4.25c-32.67 23.84-69.82 29.57-84.06 30.9q-.87-1.68-1.69-3.29l-.32-.64-.11-.22c12.31-.99 51.08-6.02 84.64-31zM255.34 632.83c-33.63 25.14-72.44 30.76-86.23 32-.68-1.45-1.3-2.86-1.88-4.18 11.76-.89 52.3-5.77 86.75-32.16.41 1.3.86 2.77 1.36 4.34z" transform="translate(-19.82)"/>
            <path class="cls-41" d="M161.28 645.06a121.9 121.9 0 0 0 5 13.7l.05.11c1 2.47 2.3 5.17 3.72 8 5.72 12 17.27 34.87 29.71 51.93a.82.82 0 0 0 .06.09 53.61 53.61 0 0 0 4.07 5.52 4.41 4.41 0 0 0 1.44 1.3 1.27 1.27 0 0 0 .23.09 1.7 1.7 0 0 0 .4.11h.11a5.37 5.37 0 0 0 3.45-1.38c1-.59 2.35-1.41 4-2.56 2.39-1.48 5.19-3.21 6.55-3.92l.61-.28c11.07-4.93 29.65-12.56 60.19-14.7a6.69 6.69 0 0 0 3-1c-9.27-6.17-42.25-30.53-45.65-66.88-1.59-17 .45-27.14 3.46-33.21h.36.2a19 19 0 0 0-13.75 5h-.16s-.1-.23-.11-.23a35.8 35.8 0 0 0-5.37 3.82v.36c-14.44 8-26.09 12-35.11 15.22-4.21 1.49-7.67 2.26-10.28 2.94-.36.09-.73.07-1.11.16-1.59.37-3.23.64-4.82.9.14.02-12.86.25-10.25 14.91z" transform="translate(-19.82)"/>
            <path class="cls-9" d="M70.09 655.17c0-1.34 1-2.68 2.78-3.69l7.86-4.48a14.13 14.13 0 0 1 12.76 0l134.71 78.3c1.75 1 2.66 2.35 2.66 3.69v123.74c0 1.34-.9 2.68-2.65 3.69l-7.8 4.51a14 14 0 0 1-12.71 0l-134.83-78.3c-1.75-1-2.78-2.36-2.78-3.69z" transform="translate(-19.82)"/>
            <path class="cls-38" d="M215.9 738.69c-3.74 0-5.53-.51-7.27-1.52l-135.3-78.3c-1.75-1-3.24-2.36-3.24-3.7v123.77c0 1.34 1 2.68 2.78 3.69l135.68 78.3c1.75 1 3.62 1.52 7.36 1.52z" transform="translate(-19.82)"/>
            <path class="cls-16" d="M214.05 738.69a12.91 12.91 0 0 0 6.35-1.52l7.81-4.51c1.75-1 2.65-2.35 2.65-3.69v123.76c0 1.34-.9 2.68-2.65 3.69l-7.8 4.51a12.93 12.93 0 0 1-6.36 1.52" transform="translate(-19.82)"/>
            <path class="cls-40 cls-9" d="M228.18 732.66c1.75-1 2.62-2.35 2.62-3.69s-.87-2.68-2.62-3.69L93.51 647a14 14 0 0 0-12.7 0L73 651.48c-1.75 1-2.62 2.35-2.62 3.69s.87 2.68 2.62 3.7l134.67 78.3a14 14 0 0 0 12.7 0z" transform="translate(-19.82)"/>
            <path class="cls-5" d="M394.41 861.19c-21.78 12.66-25.61 31.14-8.53 41.07s48.87 7.7 70.65-5 25.62-31.14 8.53-41.07-48.88-7.66-70.65 5z" transform="translate(-19.82)"/>
            <path class="cls-6" d="M402.15 892.93c4.72 4.72 10.44 6.66 12.78 4.32s.41-8.06-4.31-12.78-10.44-6.66-12.78-4.32c-1.41 1.41-1.31 5.11-1.31 6.53.79 1.45 3.74 4.37 5.62 6.25z" transform="translate(-19.82)"/>
            <ellipse class="cls-7" cx="404.83" cy="885.25" rx="3.83" ry="7.73" transform="rotate(-46.33 394.842 908.345)"/>
            <path class="cls-6" d="M444.41 868.73c4.53 4.53 10 6.39 12.28 4.14s.39-7.74-4.14-12.28-10-6.4-12.28-4.15c-1.36 1.35-1.26 4.91-1.26 6.27.76 1.42 3.6 4.22 5.4 6.02z" transform="translate(-19.82)"/>
            <path class="cls-7" d="M444.45 864c3 2.83 6.51 3.93 7.91 2.46s.13-5-2.83-7.78-6.51-3.93-7.91-2.46-.13 4.97 2.83 7.78z" transform="translate(-19.82)"/>
            <path class="cls-8" d="M396.52 804.46s-17-68.29-22.93-111.34l103.51-18.41c.44 20.93-5.14 62.93-7.5 91.81-3.55 43.49-18.53 93.7-18.53 93.7-.33 1.58-2.08 2.78-5.58 2.78-3.9 0-6.61-1.32-6.61-3.15l1.56-69.85-7.62-59.38s-3.69 44.25-6.43 67.89S409.68 883 409.68 883c0 2.47-1.81 4.49-6 4.49s-7.09-1.83-7.12-4.28z" transform="translate(-19.82)"/>
            <path class="cls-9" d="M478.67 548.18c8 16.87 11.54 43.95 12.85 67.45l-23.07 2.45-22.06-56.88" transform="translate(-19.82)"/>
            <path class="cls-7" d="M473.57 665.27s-.83 8.42-1.4 10.8c-.36 1.52-.59 2.56-.87 3.66-.39 1.53-.49 2.28 0 2.65s1.38.48 2.25-2.61a13.52 13.52 0 0 1-2.85 5.67c-1.66 1.78-4.08 3.59-3.43 4.53s2.42 0 2.42 0 .21 1.53 2.4.32c0 0 .26 1.23 2.48-.32 0 0 .88 1 2.92-1s9.35-9.94 9.5-24.7z" transform="translate(-19.82)"/>
            <path class="cls-9" d="M491.49 615.16c2.3 41.11-4.09 53.73-4.09 53.73l-13.94.38-5-51.2" transform="translate(-19.82)"/>
            <circle class="cls-9" cx="460.06" cy="615.84" r="11.61"/>
            <circle class="cls-9" cx="443.19" cy="555.89" r="17.45"/>
            <path class="cls-9" d="M468.84 698.12c-9.55 8.81-34.35 23.41-54.71 27.77a44.22 44.22 0 0 1-14.82.9c-26.34-3.69-31.18-18.82-31.18-38l.08-98.68c.12-36.5 27.69-51.23 27.69-51.23 15.27-8.62 44.49-15.31 63.47-8 25 9.6 24.95 39.15 25 39.09s2.2 16.8-4.7 37c-.05.03 15.43 66.93-10.83 91.15z" transform="translate(-19.82)"/>
            <path class="cls-5" d="M373.23 565.15a18.32 18.32 0 0 1 14.65-4.05c11.29 1.41 8.74 14.61 8.74 14.61S385.06 680 410.47 700.46c17.92 14.44 41.64 6.92 54.06 1.24-11.44 8.75-32.61 20.38-50.4 24.18a44.22 44.22 0 0 1-14.82.9c-26.34-3.69-31.18-18.82-31.18-38l.08-98.68a62.63 62.63 0 0 1 5.02-24.95z" transform="translate(-19.82)"/>
            <path class="cls-7" d="M436.26 482.22c6.41-.26 13.93 1.33 17.65 7.51 2.39 4 2.21 11.22 2.42 16.59.39 9.71-3.48 19.89-9.51 25.17V534c-.07 2.08-1.46 4.15-4.21 5.73-5.61 3.27-14.61 3.27-20.2.08-2.68-1.56-4.05-3.58-4.14-5.63V516.26c0-.3-2.37-9.56-2.39-9.87-.58-13.73 9.85-23.75 20.38-24.17z" transform="translate(-19.82)"/>
            <path class="cls-10" d="M438.38 535.15a13.66 13.66 0 0 0 8.45-3.66V534c-.07 2.08-1.46 4.15-4.21 5.73-5.62 3.27-14.62 3.27-20.21.08-2.68-1.56-4.05-3.58-4.14-5.63V508.76c.87 13.43 9.81 26.81 20.11 26.39z" transform="translate(-19.82)"/>
            <path class="cls-11" d="M418.24 509.2l1.79 9.07-1.79 5.73c-1.59-1.7-2.32-5.63-3.84-8.92-4.77-10.28-3.64-18.18-2.9-26.19.31-3.35 1.33-17 11.39-17.78 0 0 5.31-5.44 20.16.29 8.6 3.32 13.58-.27 13.58-.27s.72 3.42-.64 5.89c0 0 8.06 7 .25 26.34-.14-4.83 0-8.61-2-11.88-1.39-2.31-4.81-2.88-7.28-3.21a13.73 13.73 0 0 0-4.31.93s-3.83-1.15-5.4-1c-10.93.86-10.79 5.35-10.79 5.35l-.47 5.06v17.32s.5 8.9 8.92 10.19c3.48.53 6.93-3.06 6.93-3.06h2.55s2.13 3.31 4.14 2.3a12.23 12.23 0 0 0 6.55-8.26c-.46 2.36-3.72 16.92-14.3 18.18-12.88 1.47-17.78-6.48-17.78-15.49v-15.91a2.63 2.63 0 0 0-2.9-3.12c-3.46.01-2.67 4.68-1.86 8.44z" transform="translate(-19.82)"/>
            <path class="cls-12" d="M455.14 517c0-.21.06-.33.06-.33s-.01.15-.06.33z" transform="translate(-19.82)"/>
            <path class="cls-11" d="M438.9 515.41h8.59s2.44 2.22 2.44 4.4h-13.47c0-2.18 2.44-4.4 2.44-4.4z" transform="translate(-19.82)"/>
            <path class="cls-7" d="M384.39 710.63s.67 8.43 1.2 10.82c.34 1.52.54 2.57.81 3.68.36 1.53.45 2.29-.07 2.65s-1.39.46-2.21-2.66a13.52 13.52 0 0 0 2.75 5.73c1.62 1.81 4 3.66 3.35 4.59s-2.42 0-2.42 0-.24 1.52-2.41.28c0 0-.28 1.23-2.48-.37 0 0-.89 1-2.9-1.08s-9.17-10.11-9.06-24.87z" transform="translate(-19.82)"/>
            <path class="cls-9" d="M387.79 651.94l-2.31 68.28-13.37-.41s-10.21-26.86-12.72-69.75" transform="translate(-19.82)"/>
            <circle class="cls-9" cx="373.65" cy="650.11" r="14.26" transform="rotate(-88.97 363.704 660.193)"/>
            <path class="cls-9" d="M409.44 580.17l-22.22 74.33-27.83-4.64s-.44-6.89-.45-14.3c0-31.17 4.43-54.61 12.85-71.23" transform="translate(-19.82)"/>
            <circle class="cls-9" cx="390.14" cy="573.41" r="20.45" transform="rotate(-89.78 380.24 583.364)"/>
            <circle class="cls-13" cx="411.8" cy="380.2" r="57.08"/>
            <path class="cls-14" d="M431.62 382l-.08-20.82h.08a20.82 20.82 0 0 1 13.83 36.38z" transform="translate(-19.82)"/>
            <circle class="cls-15" cx="411.8" cy="382.04" r="30.6"/>
            <path class="cls-15" d="M411.36 384.2l13.96 13.96M411.41 352.18v-11.35M402.77 340.83h17.28"/>
            <circle class="cls-9" cx="411.41" cy="384.02" r="3.95"/>
            <g class="cls-2 cls-42">
                <path class="cls-13" d="M1537.56 647.74L1153 425.69c-16.68-9.63-38.53-14.45-60.32-14.45s-43.58 4.82-60.15 14.45L959.67 468c-1.36.79-1.36 2.08 0 2.87a5.46 5.46 0 0 0 5 0l72.82-42.32c15.22-8.85 35.19-13.26 55.2-13.26s40 4.42 55.36 13.27l384.61 222.05c15.43 8.91 23.18 20.58 23.24 32.25s-7.55 23.34-22.88 32.26l-128.92 74.92 5 2.86 128.85-74.9c16.69-9.69 25-22.42 24.92-35.13s-8.52-25.43-25.31-35.12M1419.21 798.8l-10.21-5.88-5-2.86-10.84-6.26c-2.18-1.26-5.9-.56-6.36 1.21l-4.67 17.77a1.72 1.72 0 0 0 1.06 1.88 5.63 5.63 0 0 0 3.24.61l30.66-2.76c3-.27 4.24-2.43 2.06-3.69" transform="translate(-19.82)"/>
            </g>
            <path d="M1228 859.58c-6.53 0-13.06-1.44-18-4.32l-47.6-27.67c-5-2.88-7.43-6.68-7.43-10.48s2.47-7.59 7.43-10.47l65.6-38.13 83.61 48.61-65.59 38.14c-4.93 2.88-11.46 4.32-18.02 4.32z" transform="translate(-19.82)" class="cls-16"/>
            <path class="cls-43" d="M1202.17 853.28l3.12 1.81 3.12-1.81V734.44l-3.12 1.81-3.12-1.81v118.84z"/>
            <path class="cls-16" d="M1205.29 855.09l3.12-1.81V734.44l-3.12 1.81v118.84z"/>
            <path class="cls-44" d="M1202.17 734.44l3.12 1.81v118.84l-3.12-1.81V734.44z"/>
            <path class="cls-43" d="M1146.39 820.88l3.13 1.82 3.11-1.81V702.05l-3.11 1.81-3.13-1.82v118.84z"/>
            <path class="cls-16" d="M1149.52 822.7l3.11-1.81V702.05l-3.11 1.81V822.7z"/>
            <path class="cls-44" d="M1146.39 702.04l3.13 1.82V822.7l-3.13-1.82V702.04z"/>
            <path class="cls-43" d="M1300.81 604.83c0-5.73-2-12.12-5.29-17.79s-7.77-10.64-12.72-13.52l-22.85-13.25c-5-2.88-9.47-3.16-12.73-1.27l-3.12 1.81c-3.27 1.88-5.29 5.91-5.29 11.64v206l3.12 1.81 3.12-1.81v-169.1l49.52 28.65v172.88l3.12 1.82 3.11-1.81zM1245 570.64a12.39 12.39 0 0 1 1.81-7.14 6.27 6.27 0 0 1 .49-.61 7.09 7.09 0 0 1 1.43-.15 10.31 10.31 0 0 1 3.1.52 16.7 16.7 0 0 1 3.37 1.53l22.92 13.21c4.46 2.59 8.57 7.16 11.57 12.38s4.89 11.07 4.89 16.23v2.57L1245 580.52zm0 31.48v-14.38l49.52 28.69v14.38z" transform="translate(-19.82)"/>
            <path class="cls-16" d="M1295.52 587c3.27 5.67 5.29 12.06 5.29 17.79v206l-3.11 1.81v-206c0-5.73-2-12.12-5.3-17.79z" transform="translate(-19.82)"/>
            <path class="cls-44" d="M1278.12 578c4.46 2.59 8.57 7.16 11.57 12.38s4.89 11.07 4.89 16.23v204.27l3.12 1.82v-206c0-5.73-2-12.12-5.3-17.79s-7.76-10.64-12.72-13.52l-22.86-13.25c-5-2.88-9.46-3.15-12.73-1.27s-5.29 5.91-5.29 11.64v206l3.12 1.81V572.45a12.33 12.33 0 0 1 1.82-7.14 5.88 5.88 0 0 1 5-2.57 10.31 10.31 0 0 1 3.1.52 16.7 16.7 0 0 1 3.37 1.53z" transform="translate(-19.82)"/>
            <path class="cls-44" d="M1222.11 582.31v3.61l52.64 30.51v-3.61l-52.64-30.51zM1222.11 603.92v3.61l52.64 30.51v-3.61l-52.64-30.51z"/>
            <path class="cls-44" d="M1225.22 587.73l-3.11-1.81v18l3.11-1.8v-14.39z"/>
            <path class="cls-44" d="M1245 570.64a12.39 12.39 0 0 1 1.81-7.14 6.27 6.27 0 0 1 .49-.61 7.09 7.09 0 0 1 1.43-.15 5.88 5.88 0 0 0-5 2.57 12.33 12.33 0 0 0-1.82 7.14v9.86l3.12-1.79z" transform="translate(-19.82)"/>
            <path class="cls-16" d="M1222.11 607.53v172.76l3.11-1.8V609.33l-3.11-1.8z"/>
            <path class="cls-45" d="M1311.65 671.37v-72.63c0-5.73-2-12.12-5.29-17.8s-7.77-10.64-12.72-13.52L1246 539.75c-4.95-2.88-9.45-3.15-12.72-1.27l-3.24 1.95c-3.27 1.88-5.29 5.91-5.29 11.64v72.58l83.62 48.61z" transform="translate(-19.82)"/>
            <path class="cls-18" d="M1224.78 624.65l83.62 48.61v-72.58c0-5.73-2-12.12-5.3-17.79s-7.76-10.63-12.72-13.52l-47.58-27.67c-5-2.88-9.46-3.15-12.72-1.28s-5.29 5.91-5.29 11.64z" transform="translate(-19.82)"/>
            <path class="cls-17" d="M1306.35 580.94c3.27 5.68 5.29 12.07 5.29 17.8v72.63l-3.24 1.88v-72.57c0-5.73-2-12.12-5.3-17.79z" transform="translate(-19.82)"/>
            <path class="cls-45" d="M1155 708.15c0 3.8 2.47 7.6 7.43 10.47L1210 746.3c5 2.88 11.48 4.32 18 4.32s13.06-1.44 18-4.32l65.59-38.14v-4.32L1228 655.22l-65.61 38.13c-5 2.88-7.43 6.68-7.43 10.47z" transform="translate(-19.82)"/>
            <path class="cls-17" d="M1228 750.62c6.53 0 13.06-1.44 18-4.32l65.59-38.14v-4.32L1246.05 742c-5 2.88-11.49 4.32-18 4.32z" transform="translate(-19.82)"/>
            <path class="cls-18" d="M1228 750.62c-6.53 0-13.06-1.44-18-4.32l-47.6-27.67c-5-2.88-7.43-6.68-7.43-10.47v-4.32c0 3.8 2.47 7.59 7.43 10.47L1210 742c5 2.88 11.48 4.32 18 4.32z" transform="translate(-19.82)"/>
            <path class="cls-9" d="M1165.7 536.65c-8.4 17.81-12.19 46.41-13.58 71.23l24.37 2.59 23.3-60.06" transform="translate(-19.82)"/>
            <path class="cls-7" d="M1120.82 637.58s-7.55 4.79-9.52 6.46c-1.25 1.06-2.13 1.77-3 2.57-1.25 1.1-1.91 1.55-2.5 1.24s-1.11-1.07 1.39-3.37a14.21 14.21 0 0 0-4 5.39c-.89 2.41-1.45 5.55-2.64 5.39s-1.15-2.28-1.15-2.28-1.54.53-1.45-2.12c0 0-1.29.35-.88-2.49 0 0-1.38-.34-.42-3.25s4.92-13.55 18.77-20.71z" transform="translate(-19.82)"/>
            <path class="cls-9" d="M1159.54 596.84c-39.84 17.39-48.71 29.43-48.71 29.43l6.28 13.32 50.65-19.59" transform="translate(-19.82)"/>
            <path class="cls-9" d="M1169.95 619.05a12.26 12.26 0 1 0-16.47-5.42 12.26 12.26 0 0 0 16.47 5.42z" transform="translate(-19.82)"/>
            <circle class="cls-9" cx="1162.42" cy="544.8" r="18.43"/>
            <path class="cls-46" d="M1170.07 857.5c-5 5-11 7-13.51 4.56s-.43-8.51 4.56-13.51 11-7 13.5-4.56c1.5 1.49 1.38 5.39 1.38 6.89-.83 1.55-4 4.64-5.93 6.62z" transform="translate(-19.82)"/>
            <path class="cls-7" d="M1170 852.31c-3.27 3.11-7.16 4.33-8.7 2.71s-.14-5.44 3.12-8.56 7.15-4.32 8.7-2.7.17 5.44-3.12 8.55z" transform="translate(-19.82)"/>
            <path class="cls-46" d="M1125.43 831.95c-4.78 4.79-10.59 6.75-13 4.38s-.41-8.17 4.37-13 10.59-6.75 13-4.39c1.43 1.43 1.32 5.18 1.32 6.62-.79 1.52-3.79 4.44-5.69 6.39z" transform="translate(-19.82)"/>
            <path class="cls-7" d="M1125.39 827c-3.13 3-6.87 4.16-8.35 2.6s-.14-5.23 3-8.22 6.87-4.15 8.35-2.59.13 5.21-3 8.21z" transform="translate(-19.82)"/>
            <path class="cls-13" d="M1177 668.07c-10.23 6.41-71 37.55-71.17 60-.16 22 12.55 94.85 12.55 94.85.35 1.66 2.2 2.94 5.9 2.94 4.11 0 7-1.39 7-3.33l6.65-75.39 20.94-16s-11.74 13.49-10.8 25.58c1.94 25 14 90.26 14 90.26 0 2.61 1.9 4.74 6.37 4.73s7.49-1.93 7.51-4.51l5.61-76.88s73.06-31.13 89.46-45.06 4.36-44.54 4.36-44.54-17.68-56.26-98.38-12.65z" transform="translate(-19.82)"/>
            <path class="cls-9" d="M1280.19 564.82c3.61 25.28 2.24 120.32 2.24 120.32 0 20.28-5.11 36.25-32.93 40.15a46.57 46.57 0 0 1-15.65-.95c-21.51-4.6-47.6-20.12-57.79-29.33-17.05-15.42-16.35-30-16.35-42.67v-92.7c0 .06 0-31.15 26.36-41.29 20-7.71 50.9-.64 67 8.46.03 0 23.36 11.67 27.12 38.01z" transform="translate(-19.82)"/>
            <path class="cls-17" d="M1278.18 556.34a14.78 14.78 0 0 0-10.85-5c-16.09 0-15 18.23-15 18.23v102.25c0 39.34-8.92 50.26-14.73 53.2a42.53 42.53 0 0 0 11.9.27c27.82-3.9 32.93-19.87 32.93-40.15 0 0 1.37-95-2.24-120.32a48.26 48.26 0 0 0-2.01-8.48z" transform="translate(-19.82)"/>
            <path class="cls-7" d="M1210.28 467c-6.77-.27-14.72 1.4-18.63 7.94-2.53 4.2-2.33 11.85-2.56 17.52-.42 10.26 3.67 21 10 26.58v2.68a.34.34 0 0 1 0 .05c.06 2.19 1.55 4.38 4.44 6 5.91 3.42 15.45 3.42 21.32 0 2.83-1.64 4.28-3.78 4.37-5.94V495c0-.32 0-.64.06-1 .72-14.46-7.88-26.58-19-27z" transform="translate(-19.82)"/>
            <path class="cls-47" d="M1227.33 502.37a44 44 0 0 1 1.07-6c1-4.56-2.49-5-2.49-5-1.89-.15-3.11 1.17-3.49 3l-.42 7.25-2.66.87s.79-5.23.79-6.73c0-8.29-1.92-8.73-1.92-8.73l-1-6.49s-16.84 2-26.46-3.1a49.63 49.63 0 0 0-1.54 11.35s-2-13.75 1.18-22.18 8.46-12.59 17.38-12.52c0 0 26.85-2.18 29.25 16.08 0 0 2.66 20.46-7.75 37.74-.02.01-1.92-5.63-1.94-5.54z" transform="translate(-19.82)"/>
            <path class="cls-48" d="M1208 522.89a14.41 14.41 0 0 1-8.92-3.87v2.68a.34.34 0 0 1 0 .05c.06 2.19 1.55 4.38 4.44 6 5.91 3.42 15.45 3.42 21.32 0 2.83-1.64 4.28-3.78 4.37-5.94V495c-.85 14.2-10.29 28.32-21.21 27.89z" transform="translate(-19.82)"/>
            <path class="cls-13" d="M1187.23 532.24l5.28 3.34-3.46 8.23 9.59 83.66-11.66 14.09-11.89-27.7 10.29-72.24-2.25-8.53 4.1-.85z"/>
            <path class="cls-49" d="M1196.48 519.88l.5 17.68 10.07-5.32 9.81 10.52 14.14-16.88s3-3.9 1.63-7.12a10 10 0 0 0-3.32-3.32s-4.65 8.91-21.86 14c0 0-7.44-5.42-8.33-10.4 0 0-.75-.68-1.7-1.71a4.74 4.74 0 0 0-.94 2.55z" transform="translate(-19.82)"/>
            <path class="cls-14" d="M1199.9 664.38c.05-2.29-1.41-4.43-4.13-6a21.65 21.65 0 0 0-19.71 0c-2.72 1.59-4.18 3.74-4.13 6 0 0-.47 18.53 5.1 25.15a7.64 7.64 0 0 0 2.05 1.71 15 15 0 0 0 13.66 0 7.67 7.67 0 0 0 2.06-1.71c5.57-6.62 5.1-25.15 5.1-25.15z" transform="translate(-19.82)"/>
            <path class="cls-18" d="M1176.87 669.06a18.55 18.55 0 0 0 9.05 2.15A18.29 18.29 0 0 0 1195 669c2.07-1.21 3.27-2.76 3.43-4.38v-.2-.09c0-1.79-1.25-3.51-3.56-4.84a20.06 20.06 0 0 0-18.14 0c-2.26 1.32-3.48 3-3.44 4.8s1.33 3.47 3.58 4.77z" transform="translate(-19.82)"/>
            <path class="cls-50" d="M1185.92 671.21A18.29 18.29 0 0 0 1195 669a8.76 8.76 0 0 0 2.32-1.91 9.1 9.1 0 0 0-2.55-2.11c-5-2.87-13.07-2.86-18 0a9 9 0 0 0-2.39 2 8.81 8.81 0 0 0 2.49 2 18.55 18.55 0 0 0 9.05 2.23z" transform="translate(-19.82)"/>
            <path class="cls-14" d="M1199.68 685a4.36 4.36 0 0 1-1.5-.54 7.38 7.38 0 0 1-1.62-1.31l-2.59 1.49v2.84a7.62 7.62 0 0 0 .93.65 5.3 5.3 0 0 0 2.64.78 2.63 2.63 0 0 0 1.31-.38l2.66-1.52a5.89 5.89 0 0 0 2.41-5v-.75c0-3.25-2.2-8.24-5-9.88a5.38 5.38 0 0 0-2.35-.76L1194 672v2.54a4.14 4.14 0 0 1 1.66.58 9.54 9.54 0 0 1 4.34 7.52v.75a4.9 4.9 0 0 1-.32 1.61z" transform="translate(-19.82)"/>
            <path class="cls-17" d="M1196.32 672.8a5.48 5.48 0 0 0-2.32-.8v2.54a4.14 4.14 0 0 1 1.66.58 9.54 9.54 0 0 1 4.34 7.52v.75c0 2.76-2 3.87-4.37 2.48a7.41 7.41 0 0 1-1.62-1.3v2.84a7.62 7.62 0 0 0 .93.65 5.3 5.3 0 0 0 2.64.78c1.89 0 3.79-2.36 3.79-5.44v-.75c-.01-3.22-2.22-8.21-5.05-9.85z" transform="translate(-19.82)"/>
            <path class="cls-7" d="M1217.65 671.45s-7.73 4.5-10.12 5.48c-1.52.63-2.55 1.07-3.68 1.51l-.27.11s.26 2.28.29 2.28a5.22 5.22 0 0 0 1.36-.43s-.94 2.23-4.24 1.82c-2.54-.32-5.58-1.27-6-.14s1.49 2.07 1.49 2.07-1.17 1.12 1.21 2.26c0 0-.89 1 1.81 1.93 0 0-.32 1.38 2.69 1.87s11.9 1.11 24.63-7.88z" transform="translate(-19.82)"/>
            <path class="cls-9" d="M1266.5 633.14l-57.84 43.14 8.78 11.6s29.09-7.58 67.8-31.24" transform="translate(-19.82)"/>
            <path class="cls-9" d="M1285.43 656.52a15.06 15.06 0 1 0-21-3.41 15.06 15.06 0 0 0 21 3.41z" transform="translate(-19.82)"/>
            <path class="cls-9" d="M1238.81 570.45l23.46 78.49 29.39-4.9s.47-7.29.47-15.11c0-32.92-4.67-57.67-13.57-75.22" transform="translate(-19.82)"/>
            <path class="cls-9" d="M1280.8 563.22a21.6 21.6 0 1 0-21.52 21.68 21.6 21.6 0 0 0 21.52-21.68z" transform="translate(-19.82)"/>
            <path class="cls-16" d="M1297.37 980.9L945.55 776.35 764.33 881.73l351.8 204.55 181.24-105.38z"/>
            <path class="cls-26" d="M764.33 700.74l351.8 204.54 181.24-105.37v-4.96L945.55 590.4 764.33 695.77v4.97z"/>
            <path class="cls-17" d="M1116.13 905.28l-351.8-204.54v-4.97l351.8 204.55v4.96z"/>
            <path class="cls-18" d="M1116.13 905.28l181.24-105.37v-4.96l-181.24 105.37v4.96z"/>
            <path class="cls-43" d="M1136 905.28L784.16 700.73v181l5.07 2.94 5.06-2.94V765.16l43.94-25.54 292.66 170.16v173.56l5.07 2.95 5.07-2.95V966.77l166-96.53v110.67l5.07 2.94 5.07-2.95v-181zm-341.66-155v-36.21l31.17 18.12zm512.76 105.08l-166 96.53v-42.12l166-96.53z" transform="translate(-19.82)"/>
            <path class="cls-51" d="M1136 905.28v181l5.07-2.95V966.8l171.09-99.48v116.53l5.07-2.95v-181zm5.07 54.08v-49.59l171.09-99.48v49.59z" transform="translate(-19.82)"/>
            <path class="cls-52" d="M812.03 735.9l-37.55 21.83v-43.66l-5.07-2.95v173.53l5.07-2.95V765.17l43.95-25.55-6.4-3.72z"/>
            <path class="cls-9" d="M1042 655.5c4.59-1.06 5-3.91.83-6.32a25.37 25.37 0 0 0-15.88-2.42c-8.52 1.94-15.41 9.12-15.41 9.12-3.47 3.52-2.92 8.38 1.21 10.78s10.35 1.49 13.83-2c-.05-.04 6.42-7.11 15.42-9.16z" transform="translate(-19.82)"/>
            <path class="cls-53" d="M1044.13 655.49a2.64 2.64 0 0 0 1.52-1.86v-1.07c-.15 1.15-1.39 2.13-3.69 2.66a30.74 30.74 0 0 0-11.05 5.33 32.68 32.68 0 0 0-4.37 3.79 11.77 11.77 0 0 1-6.67 3.24 11.15 11.15 0 0 1-7.16-1.2 6.61 6.61 0 0 1-3.46-5v-.6V662.35a6.64 6.64 0 0 0 3.46 5 11.12 11.12 0 0 0 7.16 1.2 12.72 12.72 0 0 0 4.21-1.4z" transform="translate(-19.82)"/>
            <path class="cls-52" d="M1009.21 661.09v.6a6.63 6.63 0 0 0 3.46 5 11.15 11.15 0 0 0 7.16 1.2 11.85 11.85 0 0 0 6.67-3.24 33 33 0 0 1 4.37-3.8 30.57 30.57 0 0 1 11.13-5.35c2.3-.53 3.54-1.51 3.69-2.65v.38c-.15 1.15-1.39 2.13-3.69 2.66a30.7 30.7 0 0 0-11.05 5.33 32.88 32.88 0 0 0-4.37 3.79 11.85 11.85 0 0 1-6.67 3.24 11.17 11.17 0 0 1-7.16-1.2 6.63 6.63 0 0 1-3.46-5v-.6z" transform="translate(-19.82)"/>
            <path class="cls-54" d="M1065.58 697.33a1.08 1.08 0 0 0 .62.87l113.28 65.87a3.3 3.3 0 0 0 3 0l27.83-16.18a1.06 1.06 0 0 0 .62-.87v-1.47a1.06 1.06 0 0 0-.62-.87L1097 678.81a3.29 3.29 0 0 0-3 0L1066.19 695a1.07 1.07 0 0 0-.62.87z" transform="translate(-19.82)"/>
            <path class="cls-17" d="M1181 764.43a3.05 3.05 0 0 1-1.5-.36l-113.31-65.87a1.08 1.08 0 0 1-.62-.87v-1.47a1.07 1.07 0 0 0 .62.87l113.28 65.87a3.06 3.06 0 0 0 1.5.36z" transform="translate(-19.82)"/>
            <path class="cls-18" d="M1181 764.43a3.05 3.05 0 0 0 1.5-.36l27.83-16.18a1.06 1.06 0 0 0 .62-.87v-1.47a1 1 0 0 1-.62.87l-27.83 16.19a3.06 3.06 0 0 1-1.5.36z" transform="translate(-19.82)"/>
            <g class="cls-2">
                <path class="cls-9" d="M1104.94 684.72a.34.34 0 0 1 0 .64l-2.68 1.54a1.22 1.22 0 0 1-1.1 0l-3.27-1.91a.34.34 0 0 1 0-.64l2.69-1.55a1.23 1.23 0 0 1 1.09 0zM1099.88 681.77a.33.33 0 0 1 0 .63l-7.81 4.49a1.23 1.23 0 0 1-1.1 0l-3.27-1.89c-.3-.17-.3-.46 0-.64l7.8-4.49a1.2 1.2 0 0 1 1.09 0zM1110 687.67a.33.33 0 0 1 0 .63l-2.69 1.55a1.2 1.2 0 0 1-1.09 0l-3.28-1.91a.33.33 0 0 1 0-.63l2.69-1.55a1.23 1.23 0 0 1 1.09 0zM1099.81 687.67c.3.17.31.46 0 .63l-2.67 1.54a1.22 1.22 0 0 1-1.11 0l-3.27-1.91a.34.34 0 0 1 0-.64l2.68-1.55a1.22 1.22 0 0 1 1.1 0zM1089.62 687.67a.34.34 0 0 1 0 .64l-2.68 1.54a1.21 1.21 0 0 1-1.1 0l-3.28-1.91a.34.34 0 0 1 0-.64l2.68-1.55a1.24 1.24 0 0 1 1.1 0zM1115.06 690.62c.3.18.29.46 0 .63l-2.68 1.54a1.19 1.19 0 0 1-1.09 0l-3.27-1.91a.34.34 0 0 1 0-.63l2.68-1.54a1.17 1.17 0 0 1 1.09 0zM1104.87 690.62c.31.17.31.46 0 .63l-2.67 1.55a1.22 1.22 0 0 1-1.1 0l-3.28-1.91c-.3-.17-.3-.45 0-.63l2.68-1.54a1.19 1.19 0 0 1 1.09 0zM1094.68 690.62c.3.18.3.46 0 .63l-2.68 1.55a1.2 1.2 0 0 1-1.1 0l-3.27-1.91c-.3-.18-.3-.46 0-.64l2.68-1.54a1.2 1.2 0 0 1 1.1 0zM1084.5 690.62a.34.34 0 0 1 0 .64l-2.68 1.54a1.22 1.22 0 0 1-1.1 0l-3.27-1.91a.34.34 0 0 1 0-.64l2.67-1.54a1.22 1.22 0 0 1 1.11 0zM1109.93 693.57c.3.18.3.46 0 .63l-2.68 1.54a1.19 1.19 0 0 1-1.1 0l-3.28-1.91c-.3-.17-.29-.46 0-.64l2.68-1.54a1.2 1.2 0 0 1 1.09 0zM1099.74 693.57a.33.33 0 0 1 0 .64l-2.68 1.54a1.23 1.23 0 0 1-1.1 0l-3.27-1.92c-.3-.17-.29-.45 0-.63l2.68-1.54a1.18 1.18 0 0 1 1.08 0zM1089.56 693.57c.3.17.3.46 0 .64l-2.68 1.54a1.18 1.18 0 0 1-1.09 0l-3.28-1.91c-.31-.17-.3-.46 0-.64l2.68-1.54a1.2 1.2 0 0 1 1.1 0zM1079.36 693.58c.3.17.3.46 0 .63l-2.68 1.55a1.21 1.21 0 0 1-1.1 0l-3.27-1.91a.33.33 0 0 1 0-.63l2.68-1.55a1.18 1.18 0 0 1 1.09 0zM1122.34 694.68c.3.18.3.46 0 .63l-2.67 1.54a1.21 1.21 0 0 1-1.1 0l-3.28-1.91c-.3-.18-.3-.46 0-.64l2.69-1.54a1.18 1.18 0 0 1 1.1 0zM1074.32 696.49a.34.34 0 0 1 0 .63l-1.38.79a1.21 1.21 0 0 1-1.1 0l-3.27-1.91c-.3-.18-.3-.46 0-.63l1.38-.79a1.19 1.19 0 0 1 1.09 0zM1104.81 696.52c.3.17.29.46 0 .63l-2.68 1.54a1.22 1.22 0 0 1-1.1 0l-3.28-1.91c-.3-.18-.29-.46 0-.64l2.67-1.54a1.2 1.2 0 0 1 1.09 0zM1094.62 696.52c.3.17.3.46 0 .64l-2.68 1.54a1.21 1.21 0 0 1-1.09 0l-3.29-1.91a.33.33 0 0 1 0-.63l2.68-1.55a1.23 1.23 0 0 1 1.1 0zM1084.43 696.52a.34.34 0 0 1 0 .64l-2.69 1.55a1.21 1.21 0 0 1-1.1 0l-3.27-1.91a.34.34 0 0 1 0-.63l2.69-1.55a1.23 1.23 0 0 1 1.1 0zM1127.48 697.68c.3.18.29.46 0 .63l-2.67 1.54a1.2 1.2 0 0 1-1.1 0l-3.28-1.91a.34.34 0 0 1 0-.64l2.69-1.54a1.2 1.2 0 0 1 1.1 0zM1079.38 699.43a.34.34 0 0 1 0 .64l-1.37.8a1.22 1.22 0 0 1-1.1 0l-3.27-1.91a.34.34 0 0 1 0-.64l1.38-.8a1.19 1.19 0 0 1 1.09 0zM1099.68 699.47c.3.17.3.46 0 .64l-2.67 1.54a1.19 1.19 0 0 1-1.09 0l-3.29-1.91c-.3-.18-.29-.46 0-.64l2.67-1.54a1.22 1.22 0 0 1 1.1 0zM1089.49 699.48a.34.34 0 0 1 0 .64l-2.68 1.55a1.22 1.22 0 0 1-1.1 0l-3.28-1.91a.33.33 0 0 1 0-.63l2.68-1.55a1.21 1.21 0 0 1 1.09 0zM1132.62 700.67a.34.34 0 0 1 0 .64l-2.67 1.54a1.2 1.2 0 0 1-1.1 0l-3.28-1.91a.34.34 0 0 1 0-.64l2.68-1.54a1.2 1.2 0 0 1 1.1 0zM1122.17 700.73c.3.17.3.46 0 .63l-2.67 1.54a1.22 1.22 0 0 1-1.1 0l-3.27-1.91c-.31-.18-.3-.46 0-.64l2.68-1.54a1.22 1.22 0 0 1 1.1 0zM1084.44 702.39a.33.33 0 0 1 0 .63l-1.38.79a1.19 1.19 0 0 1-1.09 0l-3.27-1.91c-.31-.18-.31-.46 0-.63l1.38-.8a1.22 1.22 0 0 1 1.1 0zM1094.55 702.43a.33.33 0 0 1 0 .63l-2.68 1.54a1.19 1.19 0 0 1-1.09 0l-3.28-1.91c-.3-.17-.3-.45 0-.63l2.69-1.55a1.22 1.22 0 0 1 1.09 0zM1107 703.72c.3.17.29.46 0 .64l-2.68 1.54a1.2 1.2 0 0 1-1.1 0l-3.28-1.91c-.3-.17-.3-.46 0-.64l2.68-1.54a1.2 1.2 0 0 1 1.1 0zM1089.51 705.33c.3.17.29.45 0 .63l-1.38.79a1.19 1.19 0 0 1-1.09 0l-3.27-1.91c-.31-.18-.3-.46 0-.64l1.38-.79a1.17 1.17 0 0 1 1.09 0zM1142.24 706.28c.3.18.29.46 0 .63l-2.68 1.55a1.23 1.23 0 0 1-1.1 0l-5.87-3.42c-.3-.17-.3-.46 0-.64l2.68-1.54a1.25 1.25 0 0 1 1.1 0zM1112 706.66a.34.34 0 0 1 0 .64l-2.67 1.54a1.22 1.22 0 0 1-1.11 0l-3.27-1.91a.34.34 0 0 1 0-.64l2.67-1.54a1.22 1.22 0 0 1 1.1 0zM1101.84 706.67a.34.34 0 0 1 0 .63l-2.69 1.55a1.18 1.18 0 0 1-1.09 0l-3.28-1.91a.33.33 0 0 1 0-.63l2.68-1.55a1.21 1.21 0 0 1 1.1 0zM1096.79 709.58a.34.34 0 0 1 0 .64l-1.37.8a1.2 1.2 0 0 1-1.09 0l-3.33-1.92a.34.34 0 0 1 0-.64l1.37-.79a1.2 1.2 0 0 1 1.1 0zM1117.08 709.62a.34.34 0 0 1 0 .64l-2.68 1.54a1.21 1.21 0 0 1-1.1 0l-3.28-1.91a.34.34 0 0 1 0-.64l2.68-1.54a1.2 1.2 0 0 1 1.1 0zM1106.9 709.62a.34.34 0 0 1 0 .63l-2.69 1.55a1.21 1.21 0 0 1-1.1 0l-3.27-1.91a.33.33 0 0 1 0-.63l2.69-1.55a1.2 1.2 0 0 1 1.09 0zM1148.54 710c.31.17.3.46 0 .64l-2.68 1.54a1.21 1.21 0 0 1-1.1 0l-4.24-2.47c-.3-.18-.3-.46 0-.63l2.68-1.54a1.2 1.2 0 0 1 1.09 0zM1140.86 711.62c.31.18.31.46 0 .64l-2.67 1.54a1.21 1.21 0 0 1-1.1 0l-9.8-5.71c-.3-.17-.3-.46 0-.64l2.68-1.54a1.18 1.18 0 0 1 1.1 0zM1101.85 712.53c.3.18.31.45 0 .63l-1.38.79a1.19 1.19 0 0 1-1.09 0l-3.28-1.91a.33.33 0 0 1 0-.63l1.38-.8a1.19 1.19 0 0 1 1.09 0zM1112 712.57a.34.34 0 0 1 0 .64l-2.69 1.54a1.19 1.19 0 0 1-1.09 0l-3.27-1.91c-.3-.18-.31-.46 0-.63l2.69-1.55a1.21 1.21 0 0 1 1.09 0zM1133.19 713.09c.3.17.3.45 0 .63l-2.68 1.55a1.21 1.21 0 0 1-1.09 0l-7.25-4.22a.34.34 0 0 1 0-.64l2.69-1.55a1.23 1.23 0 0 1 1.1 0zM1124.11 713.71a.33.33 0 0 1 0 .63l-2.68 1.54a1.2 1.2 0 0 1-1.1 0l-3.28-1.91c-.3-.18-.3-.46 0-.64l2.67-1.54a1.21 1.21 0 0 1 1.1 0zM1156.19 714.41c.3.17.3.46 0 .64l-2.68 1.54a1.19 1.19 0 0 1-1.09 0l-5.86-3.41c-.31-.17-.31-.46 0-.64l2.68-1.54a1.2 1.2 0 0 1 1.1 0zM1145.91 714.56c.3.17.29.46 0 .64l-2.67 1.54a1.2 1.2 0 0 1-1.1 0l-3.28-1.91c-.3-.17-.29-.45 0-.63l2.68-1.54a1.21 1.21 0 0 1 1.09 0zM1106.91 715.48c.3.17.31.46 0 .63l-1.37.79a1.22 1.22 0 0 1-1.1 0l-3.27-1.91a.33.33 0 0 1 0-.63l1.38-.79a1.21 1.21 0 0 1 1.09 0zM1138.22 716a.33.33 0 0 1 0 .63l-2.68 1.55a1.21 1.21 0 0 1-1.1 0l-3.27-1.91c-.3-.17-.31-.46 0-.63l2.68-1.55a1.22 1.22 0 0 1 1.1 0zM1129.25 716.71c.3.18.3.46 0 .64l-2.68 1.54a1.2 1.2 0 0 1-1.1 0l-3.27-1.89c-.31-.17-.3-.46 0-.64l2.67-1.54a1.21 1.21 0 0 1 1.1 0zM1151 717.54c.3.17.3.46 0 .63l-2.68 1.54a1.18 1.18 0 0 1-1.09 0l-3.29-1.91c-.3-.17-.3-.45 0-.63l2.68-1.54a1.2 1.2 0 0 1 1.1 0zM1121.42 718.09a.34.34 0 0 1 0 .64l-2.68 1.54a1.2 1.2 0 0 1-1.09 0l-5.72-3.33a.34.34 0 0 1 0-.64l2.68-1.54a1.23 1.23 0 0 1 1.1 0zM1143.33 719a.34.34 0 0 1 0 .64l-2.68 1.54a1.21 1.21 0 0 1-1.1 0l-3.28-1.91a.34.34 0 0 1 0-.63l2.68-1.54a1.2 1.2 0 0 1 1.1 0zM1114.2 719.73c.3.17.31.46 0 .63l-1.37.79a1.2 1.2 0 0 1-1.1 0l-3.54-2.06a.34.34 0 0 1 0-.64l1.37-.79a1.2 1.2 0 0 1 1.1 0zM1134.41 719.71c.3.18.29.46 0 .64l-2.68 1.54a1.22 1.22 0 0 1-1.1 0l-3.27-1.92c-.3-.17-.3-.46 0-.63l2.67-1.54a1.2 1.2 0 0 1 1.1 0zM1156.11 720.51a.34.34 0 0 1 0 .64l-2.67 1.54a1.2 1.2 0 0 1-1.1 0l-3.27-1.91c-.3-.18-.3-.46 0-.64l2.67-1.54a1.22 1.22 0 0 1 1.1 0zM1126.49 721c.3.17.29.46 0 .64l-2.68 1.54a1.19 1.19 0 0 1-1.09 0l-3.28-1.91c-.3-.17-.3-.46 0-.63l2.68-1.54a1.22 1.22 0 0 1 1.1 0zM1148.43 722a.34.34 0 0 1 0 .64l-2.68 1.54a1.22 1.22 0 0 1-1.1 0l-3.27-1.91a.34.34 0 0 1 0-.64l2.68-1.54a1.2 1.2 0 0 1 1.1 0zM1119.51 722.82a.33.33 0 0 1 0 .63l-1.37.79a1.22 1.22 0 0 1-1.1 0l-3.55-2.06c-.3-.18-.31-.46 0-.64l1.38-.8a1.23 1.23 0 0 1 1.1 0zM1139.55 722.71c.3.17.29.46 0 .64l-2.68 1.54a1.2 1.2 0 0 1-1.1 0l-3.27-1.91c-.3-.17-.3-.46 0-.64l2.68-1.54a1.24 1.24 0 0 1 1.1 0zM1161.21 723.48a.34.34 0 0 1 0 .64l-2.68 1.54a1.22 1.22 0 0 1-1.1 0l-3.28-1.91a.34.34 0 0 1 0-.64l2.67-1.54a1.22 1.22 0 0 1 1.1 0zM1131.63 724c.3.17.3.46 0 .64l-2.67 1.54a1.21 1.21 0 0 1-1.1 0l-3.28-1.91a.33.33 0 0 1 0-.63l2.68-1.54a1.2 1.2 0 0 1 1.1 0zM1153.54 725a.34.34 0 0 1 0 .64l-2.68 1.54a1.21 1.21 0 0 1-1.09 0l-3.28-1.91a.33.33 0 0 1 0-.63l2.69-1.55a1.19 1.19 0 0 1 1.09 0zM1124.81 725.91a.34.34 0 0 1 0 .64l-1.37.79a1.2 1.2 0 0 1-1.1 0l-3.55-2.07a.34.34 0 0 1 0-.64l1.38-.79a1.22 1.22 0 0 1 1.09 0zM1144.7 725.71a.34.34 0 0 1 0 .64l-2.68 1.54a1.25 1.25 0 0 1-1.1 0l-3.27-1.91a.34.34 0 0 1 0-.64l2.67-1.55a1.24 1.24 0 0 1 1.1 0zM1166.31 726.46a.34.34 0 0 1 0 .64l-2.67 1.54a1.19 1.19 0 0 1-1.1 0l-3.27-1.9c-.3-.18-.3-.46 0-.63l2.67-1.54a1.22 1.22 0 0 1 1.11 0zM1136.78 727a.34.34 0 0 1 0 .64l-2.68 1.54a1.18 1.18 0 0 1-1.1 0l-3.27-1.91c-.3-.17-.3-.45 0-.63l2.68-1.54a1.22 1.22 0 0 1 1.1 0zM1130.11 729c.3.17.3.45 0 .63l-1.38.79a1.19 1.19 0 0 1-1.09 0l-3.55-2.07c-.3-.18-.3-.46 0-.63l1.38-.8a1.19 1.19 0 0 1 1.09 0zM1171.42 729.44c.3.17.29.46 0 .64l-2.67 1.54a1.2 1.2 0 0 1-1.1 0l-3.28-1.91c-.3-.17-.29-.46 0-.64l2.67-1.54a1.22 1.22 0 0 1 1.1 0zM1141.92 730c.3.17.29.46 0 .64l-2.68 1.54a1.2 1.2 0 0 1-1.09 0l-3.28-1.91a.33.33 0 0 1 0-.63l2.68-1.54a1.18 1.18 0 0 1 1.09 0zM1163.75 730.91a.34.34 0 0 1 0 .63l-2.68 1.54a1.2 1.2 0 0 1-1.1 0l-3.27-1.91c-.31-.17-.31-.46 0-.63l2.69-1.55a1.2 1.2 0 0 1 1.09 0zM1135.41 732.09c.31.18.3.46 0 .63l-1.38.79a1.17 1.17 0 0 1-1.09 0l-3.55-2.07a.33.33 0 0 1 0-.63l1.38-.8a1.21 1.21 0 0 1 1.1 0zM1186.84 732.27c.31.18.3.46 0 .64l-2.67 1.54a1.2 1.2 0 0 1-1.1 0l-29-16.9c-.3-.17-.3-.45 0-.63l2.67-1.54a1.22 1.22 0 0 1 1.1 0zM1176.52 732.41c.31.18.3.46 0 .64l-2.68 1.54a1.21 1.21 0 0 1-1.09 0l-3.28-1.92a.34.34 0 0 1 0-.64l2.68-1.54a1.2 1.2 0 0 1 1.1 0zM1147.07 733c.3.17.3.46 0 .63l-2.67 1.54a1.2 1.2 0 0 1-1.1 0l-3.3-1.87c-.31-.18-.3-.46 0-.63l2.67-1.54a1.21 1.21 0 0 1 1.1 0zM1168.85 733.88c.31.17.3.45 0 .63l-2.68 1.54a1.2 1.2 0 0 1-1.09 0l-3.27-1.91a.33.33 0 0 1 0-.64l2.69-1.55a1.19 1.19 0 0 1 1.1 0zM1140.71 735.18c.3.18.3.46 0 .64l-1.38.79a1.18 1.18 0 0 1-1.08 0l-3.56-2.07a.34.34 0 0 1 0-.64l1.38-.79a1.17 1.17 0 0 1 1.09 0zM1160.13 734.7c.3.17.29.46 0 .63l-2.67 1.54a1.21 1.21 0 0 1-1.1 0l-3.29-1.91c-.29-.18-.29-.46 0-.64l2.67-1.54a1.22 1.22 0 0 1 1.1 0zM1152.21 736c.3.17.29.46 0 .64l-2.67 1.54a1.2 1.2 0 0 1-1.09 0l-3.28-1.91a.34.34 0 0 1 0-.64l2.68-1.54a1.22 1.22 0 0 1 1.1 0zM1174 736.86a.33.33 0 0 1 0 .63l-2.69 1.54a1.19 1.19 0 0 1-1.09 0l-3.27-1.91c-.31-.17-.3-.45 0-.63l2.68-1.54a1.18 1.18 0 0 1 1.09 0zM1146 738.27c.31.18.31.46 0 .63l-1.37.8a1.23 1.23 0 0 1-1.1 0l-3.55-2.07a.33.33 0 0 1 0-.64l1.37-.79a1.19 1.19 0 0 1 1.1 0zM1165.27 737.7c.3.18.3.46 0 .64l-2.68 1.55a1.24 1.24 0 0 1-1.1 0l-3.27-1.91a.34.34 0 0 1 0-.64l2.68-1.54a1.22 1.22 0 0 1 1.1 0zM1186.74 738.36a.34.34 0 0 1 0 .64l-2.68 1.54a1.23 1.23 0 0 1-1.1 0l-3.28-1.91c-.3-.17-.29-.46 0-.64l2.68-1.54a1.21 1.21 0 0 1 1.1 0zM1179.06 739.83a.33.33 0 0 1 0 .63l-2.69 1.54a1.18 1.18 0 0 1-1.1 0l-3.27-1.91c-.3-.17-.3-.46 0-.63l2.68-1.55a1.19 1.19 0 0 1 1.09 0zM1201 740.51c.31.18.31.46 0 .64l-2.68 1.54a1.22 1.22 0 0 1-1.1 0l-4.24-2.47a.33.33 0 0 1 0-.64l2.69-1.54a1.2 1.2 0 0 1 1.1 0zM1151.31 741.36a.34.34 0 0 1 0 .64l-1.37.79a1.22 1.22 0 0 1-1.1 0l-3.54-2.07a.33.33 0 0 1 0-.64l1.37-.79a1.2 1.2 0 0 1 1.09 0zM1170.41 740.7a.34.34 0 0 1 0 .64l-2.68 1.54a1.21 1.21 0 0 1-1.1 0l-3.27-1.9c-.3-.17-.29-.46 0-.64l2.68-1.54a1.26 1.26 0 0 1 1.1 0zM1156.62 744.45c.3.17.3.45 0 .63l-1.39.8a1.18 1.18 0 0 1-1.09 0l-3.55-2.07a.33.33 0 0 1 0-.63l1.38-.79a1.18 1.18 0 0 1 1.09 0zM1167.64 745c.3.17.29.46 0 .64l-2.64 1.56a1.19 1.19 0 0 1-1.09 0l-3.28-1.91c-.3-.18-.3-.46 0-.63l2.67-1.54a1.21 1.21 0 0 1 1.1 0zM1161.92 747.54a.33.33 0 0 1 0 .63l-1.38.79a1.22 1.22 0 0 1-1.1 0l-3.55-2.07c-.3-.17-.3-.45 0-.63l1.38-.8a1.21 1.21 0 0 1 1.1 0zM1203.53 748.15a.34.34 0 0 1 0 .64l-2.68 1.54a1.23 1.23 0 0 1-1.1 0l-9.79-5.71a.34.34 0 0 1 0-.64l2.68-1.54a1.23 1.23 0 0 1 1.1 0zM1149.84 728.71a.34.34 0 0 1 0 .63l-2.68 1.54a1.23 1.23 0 0 1-1.1 0l-3.27-1.91a.34.34 0 0 1 0-.64l2.69-1.55a1.24 1.24 0 0 1 1.1 0zM1155 731.71c.3.17.3.46 0 .63l-2.67 1.54a1.21 1.21 0 0 1-1.1 0l-3.29-1.91c-.3-.18-.29-.46 0-.63l2.68-1.54a1.19 1.19 0 0 1 1.1 0zM1181.63 735.38a.34.34 0 0 1 0 .64l-2.68 1.55a1.24 1.24 0 0 1-1.1 0l-3.27-1.91c-.31-.17-.31-.46 0-.64l2.67-1.54a1.21 1.21 0 0 1 1.1 0zM1194.81 736.92a.34.34 0 0 1 0 .64l-2.68 1.54a1.21 1.21 0 0 1-1.1 0l-5.87-3.42c-.3-.18-.29-.46 0-.63l2.67-1.54a1.22 1.22 0 0 1 1.1 0zM1157.35 739c.3.17.3.46 0 .64l-2.67 1.54a1.19 1.19 0 0 1-1.09 0l-3.28-1.91c-.3-.18-.3-.46 0-.64l2.68-1.54a1.21 1.21 0 0 1 1.1 0zM1162.49 742c.3.17.3.46 0 .64l-2.67 1.54a1.2 1.2 0 0 1-1.1 0l-3.27-1.91c-.3-.17-.31-.46 0-.63l2.67-1.54a1.22 1.22 0 0 1 1.1 0zM1184.16 742.8c.31.18.31.46 0 .64l-2.68 1.55a1.22 1.22 0 0 1-1.1 0l-3.27-1.91a.34.34 0 0 1 0-.64l2.68-1.55a1.22 1.22 0 0 1 1.1 0z" transform="translate(-19.82)"/>
            </g>
            <g class="cls-2">
                <path class="cls-9" d="M1177.81 756.81a.34.34 0 0 1 0 .64l-1.37.79a1.21 1.21 0 0 1-1.1 0l-3.55-2.07a.33.33 0 0 1 0-.63l1.38-.8a1.21 1.21 0 0 1 1.09 0zM1183.13 759.9a.34.34 0 0 1 0 .63l-1.37.8a1.21 1.21 0 0 1-1.09 0l-3.56-2.07c-.3-.18-.3-.46 0-.63l1.37-.8a1.21 1.21 0 0 1 1.09 0z" transform="translate(-19.82)"/>
            </g>
            <path class="cls-9" d="M1191.84 741.33c.3.17.29.46 0 .64l-2.68 1.54a1.2 1.2 0 0 1-1.1 0l-3.27-1.91c-.31-.18-.3-.46 0-.64l2.67-1.54a1.19 1.19 0 0 1 1.1 0z" transform="translate(-19.82)"/>
            <g class="cls-2">
                <path class="cls-9" d="M1189.28 745.78a.34.34 0 0 1 0 .63l-2.69 1.54a1.18 1.18 0 0 1-1.08 0l-3.29-1.91c-.3-.17-.3-.46 0-.63l2.68-1.55a1.19 1.19 0 0 1 1.09 0zM1198.4 751.1a.33.33 0 0 1 0 .63l-2.68 1.55a1.21 1.21 0 0 1-1.1 0l-7.23-4.21c-.3-.17-.3-.46 0-.63l2.68-1.55a1.19 1.19 0 0 1 1.09 0z" transform="translate(-19.82)"/>
            </g>
            <g class="cls-2">
                <path class="cls-9" d="M1185.86 749.69a.34.34 0 0 1 0 .64l-2.67 1.54a1.24 1.24 0 0 1-1.1 0l-3.29-1.87a.34.34 0 0 1 0-.64l2.68-1.54a1.2 1.2 0 0 1 1.1 0zM1193.3 754a.34.34 0 0 1 0 .64l-2.68 1.54a1.2 1.2 0 0 1-1.1 0l-5.63-3.28a.34.34 0 0 1 0-.64l2.68-1.54a1.24 1.24 0 0 1 1.1 0zM1183.07 754c.31.18.3.46 0 .64l-2.68 1.54a1.18 1.18 0 0 1-1.09 0l-3.27-1.91a.33.33 0 0 1 0-.63l2.68-1.54a1.19 1.19 0 0 1 1.09 0zM1188.17 757a.34.34 0 0 1 0 .64l-2.68 1.54a1.21 1.21 0 0 1-1.1 0l-3.27-1.91a.34.34 0 0 1 0-.63l2.67-1.54a1.22 1.22 0 0 1 1.1 0z" transform="translate(-19.82)"/>
            </g>
            <g class="cls-2">
                <path class="cls-9" d="M1175.56 743.7c.3.18.29.46 0 .64l-2.68 1.54a1.23 1.23 0 0 1-1.1 0l-3.27-1.91c-.3-.18-.29-.46 0-.64l2.67-1.54a1.23 1.23 0 0 1 1.1 0zM1180.7 746.69a.34.34 0 0 1 0 .64l-2.68 1.54a1.2 1.2 0 0 1-1.09 0l-3.28-1.91c-.3-.17-.3-.46 0-.63l2.68-1.54a1.23 1.23 0 0 1 1.09 0zM1172.79 748a.34.34 0 0 1 0 .64l-2.68 1.55a1.2 1.2 0 0 1-1.09 0l-3.27-1.91c-.3-.18-.3-.46 0-.63l2.67-1.54a1.22 1.22 0 0 1 1.1 0z" transform="translate(-19.82)"/>
            </g>
            <path class="cls-9" d="M1177.93 751c.3.17.3.46 0 .64l-2.68 1.54a1.2 1.2 0 0 1-1.09 0l-3.27-1.91a.34.34 0 0 1 0-.64l2.67-1.54a1.19 1.19 0 0 1 1.1 0zM1172.52 753.72a.33.33 0 0 1 0 .63l-1.38.79a1.19 1.19 0 0 1-1.09 0l-3.54-2.07c-.3-.18-.31-.46 0-.63l1.37-.8a1.23 1.23 0 0 1 1.1 0zM1167.22 750.63a.33.33 0 0 1 0 .63l-1.38.79a1.21 1.21 0 0 1-1.09 0l-3.55-2.07a.34.34 0 0 1 0-.63l1.38-.79a1.19 1.19 0 0 1 1.09 0zM1158.65 727.93a.33.33 0 0 1 0 .63l-2.68 1.55a1.2 1.2 0 0 1-1.1 0l-3.27-1.91a.33.33 0 0 1 0-.63l2.68-1.55a1.21 1.21 0 0 1 1.1 0zM1208.83 745.09a.33.33 0 0 1 0 .64l-2.67 1.54a1.2 1.2 0 0 1-1.1 0l-5.86-3.42c-.3-.17-.3-.45 0-.63l2.68-1.54a1.21 1.21 0 0 1 1.1 0z" transform="translate(-19.82)"/>
            <path class="cls-54" d="M1128 750.2c0 .65-.51 1.28-1.52 1.71l-34.35 14.52-31.13-18.06v-1.61l24.56-19.61a6.1 6.1 0 0 1 6.36-.47l34.7 20.17a2.17 2.17 0 0 1 1.31 1.75z" transform="translate(-19.82)"/>
            <path class="cls-17" d="M1072.26 766.44l-31.05-18.06v-1.61l31.05 18.06v1.61z"/>
            <path class="cls-18" d="M1092.09 766.44l34.35-14.52c1-.43 1.52-1.06 1.52-1.71v-1.47c-.07.6-.58 1.17-1.52 1.57l-34.35 14.53z" transform="translate(-19.82)"/>
            <path class="cls-54" d="M1138.35 777.8h-.01.01z"/>
            <path class="cls-54" d="M1035.18 703a9 9 0 0 0 4 7l116.12 67.51a2.78 2.78 0 0 0 2.85.26l2.07-1.2a2.81 2.81 0 0 0 1.16-2.58V679a9 9 0 0 0-4-7l-116.12-67.52a2.81 2.81 0 0 0-2.82-.29l-2.06 1.2a2.81 2.81 0 0 0-1.2 2.61z" transform="translate(-19.82)"/>
            <path class="cls-17" d="M1159.32 680.25a9 9 0 0 0-4-7l-116.12-67.51c-2.21-1.29-4-.25-4 2.3V703a9 9 0 0 0 4 7l116.13 67.52c2.2 1.28 4 .25 4-2.31v-7.38z" transform="translate(-19.82)"/>
            <path class="cls-18" d="M1158.14 676.28a8.27 8.27 0 0 1 1.18 4v95a2.81 2.81 0 0 1-1.16 2.57l2.07-1.2a2.81 2.81 0 0 0 1.16-2.58V679a8.23 8.23 0 0 0-1.18-4z" transform="translate(-19.82)"/>
            <path class="cls-55" d="M1161.39 679a9 9 0 0 0-4-7l-2.07 1.21a8.94 8.94 0 0 1 4 7z" transform="translate(-19.82)"/>
            <path class="cls-17" d="M1087.77 707.28v-1.6l-15.51 59.15v1.61l15.51-59.16z"/>
            <path class="cls-54" d="M1092.12 730.35c0-3.26 2.3-4.59 5.11-3a11.43 11.43 0 0 1 5.11 8.9c0 3.26-2.29 4.59-5.1 3a11.43 11.43 0 0 1-5.12-8.9z" transform="translate(-19.82)"/>
            <path class="cls-56" d="M1066.28 695.67v-3.39l22.26 12.96v3.39l-22.26-12.96zM1067.74 703.51v-.69l19.35 11.26v.7l-19.35-11.27zM1067.74 704.87v-.69l19.35 11.26v.7l-19.35-11.27zM1067.74 706.23v-.69l19.35 11.26v.69l-19.35-11.26zM1067.74 707.59v-.69l19.35 11.26v.7l-19.35-11.27zM1067.74 708.95v-.69l19.35 11.26v.7l-19.35-11.27zM1067.74 710.31v-.69l19.35 11.26v.7l-19.35-11.27zM1067.74 711.67v-.69l19.35 11.26v.69l-19.35-11.26zM1067.74 713.03v-.69l19.35 11.26v.7l-19.35-11.27z"/>
            <path class="cls-54" d="M1086.88 693.63L1061 746.77l31.05 18.06v1.61l15.51-59.15v-1.6zm0 0L1061 746.77m30-10.91a4.6 4.6 0 0 1-2.46 2.68 6 6 0 0 1-5-.64c-3.19-1.85-4.88-5.87-3.75-8.93a4.61 4.61 0 0 1 2.46-2.68 4.75 4.75 0 0 0-.45.19 5.85 5.85 0 0 1 5.46.45c3.14 1.86 4.84 5.87 3.74 8.93z" transform="translate(-19.82)"/>
            <path class="cls-18" d="M1087.77 707.28v-1.6l-15.51 59.15v1.61l15.51-59.16z"/>
            <path class="cls-18" d="M1083.51 737.9c-3.19-1.85-4.88-5.87-3.75-8.93a4.61 4.61 0 0 1 2.46-2.68 4.63 4.63 0 0 0-2.83 2.83c-1.12 3.06.57 7.08 3.76 8.93a5.87 5.87 0 0 0 5.37.49 6 6 0 0 1-5.01-.64z" transform="translate(-19.82)"/>
            <path class="cls-52" d="M1030.51 704.13v.62l4.78 2.79v-.61l-4.78-2.8z"/>
            <path d="M1049.5 703.95a1.17 1.17 0 0 0-.51-.92c-.28-.16-.51 0-.51.33a1.16 1.16 0 0 0 .51.92c.28.16.51.01.51-.33z" transform="translate(-19.82)" class="cls-52"/>
            <path class="cls-18" d="M1037.36 707.21l-1.25-.73v2.46l1.25.73v-2.46z"/>
            <path class="cls-18" d="M1037.36 707.21l-.68-.39v2.45l.68.4v-2.46z"/>
            <path class="cls-57" d="M1036.33 706.87v1.93l.35.21v-1.93l-.35-.21z"/>
            <path class="cls-18" d="M1039.57 708.5l-1.27-.73v2.46l1.27.74v-2.47z"/>
            <path class="cls-18" d="M1039.57 708.5l-.69-.39v2.46l.69.4v-2.47z"/>
            <path class="cls-57" d="M1038.53 708.16v1.94l.35.2v-1.93l-.35-.21z"/>
            <path class="cls-18" d="M1041.76 709.79l-1.25-.74v2.46l1.25.73v-2.45z"/>
            <path class="cls-18" d="M1041.76 709.79l-.68-.4v2.46l.68.39v-2.45z"/>
            <path class="cls-57" d="M1040.73 709.44v1.94l.35.21v-1.94l-.35-.21z"/>
            <path class="cls-18" d="M1043.96 711.05l-1.26-.73v2.46l1.26.73v-2.46z"/>
            <path class="cls-18" d="M1043.96 711.05l-.68-.39v2.46l.68.39v-2.46z"/>
            <path class="cls-57" d="M1042.92 710.71v1.94l.36.21v-1.94l-.36-.21z"/>
            <path class="cls-18" d="M1046.16 712.7l-1.26-.73v1.66l1.26.73v-1.66z"/>
            <path class="cls-18" d="M1046.16 712.7l-.68-.39v1.65l.68.4v-1.66z"/>
            <path class="cls-57" d="M1045.12 712.36v1.14l.36.2v-1.13l-.36-.21z"/>
            <path class="cls-18" d="M1048.36 713.98l-1.26-.74v1.66l1.26.73v-1.65z"/>
            <path class="cls-18" d="M1048.36 713.98l-.68-.4v1.65l.68.4v-1.65z"/>
            <path class="cls-57" d="M1047.32 713.63v1.13l.36.21v-1.13l-.36-.21z"/>
            <path class="cls-18" d="M1051.34 715.7l-2.04-1.2v1.66l2.04 1.2v-1.66z"/>
            <path class="cls-18" d="M1051.34 715.7l-2.04-1.2v.94l2.04 1.2v-.94z"/>
            <path class="cls-57" d="M1049.57 715.6v.43l1.51.9v-.43l-1.51-.9z"/>
            <path class="cls-17" d="M1146.26 762.49a1.82 1.82 0 0 1-.9-.27 4.25 4.25 0 0 1-1.87-3.4c0-1.17.69-1.71 1.36-1.71a1.82 1.82 0 0 1 .91.27 4.25 4.25 0 0 1 1.87 3.4 1.93 1.93 0 0 1-.36 1.21 1.22 1.22 0 0 1-1 .5z" transform="translate(-19.82)"/>
            <path class="cls-54" d="M1147.23 760.78a3.89 3.89 0 0 0-1.68-3.06c-.93-.54-1.69 0-1.69 1.1a3.89 3.89 0 0 0 1.69 3.06c.93.54 1.68.04 1.68-1.1z" transform="translate(-19.82)"/>
            <path class="cls-58" d="M1145.13 758.75a.54.54 0 0 1 .27.09 2 2 0 0 1 .84 1.53c0 .11 0 .47-.27.47a.51.51 0 0 1-.26-.09 2 2 0 0 1-.84-1.54c0-.11 0-.46.27-.46m0-.31c-.33 0-.57.29-.57.77a2.28 2.28 0 0 0 1 1.81.82.82 0 0 0 .41.13c.34 0 .57-.29.57-.78a2.29 2.29 0 0 0-1-1.8.84.84 0 0 0-.42-.13z" transform="translate(-19.82)"/>
            <path class="cls-16" d="M1090.17 758.87l-2.4 1.01 51.73 30.08 2.07-1.2-51.4-29.89zM1076.72 749.44l-3.99 15.19 17.44-7.37-13.45-7.82zM1015.35 717.76l31.16 18.12.91-1.87-30-17.44-2.07 1.19z"/>
            <path class="cls-16" d="M1033.86 1029.32c5.27-3.06 7.9-7.1 7.9-11.13s-2.63-8.07-7.9-11.13l-50.59-29.41c-5.26-3.06-12.21-4.59-19.15-4.59s-13.88 1.53-19.15 4.59l-117.89 68.7L916 1098z" transform="translate(-19.82)"/>
            <path class="cls-46" d="M954.13 987.55c6.42-3.93 13.19-4.55 15.13-1.38s-1.7 8.92-8.11 12.85-13.15 4.54-15.15 1.38c-1.17-1.91.47-8.16.84-9.72 1.27-1.39 4.74-1.57 7.29-3.13z" transform="translate(-19.82)"/>
            <path class="cls-7" d="M954.59 987.64c4.14-2.4 8.47-2.68 9.66-.63s-1.2 5.66-5.34 8.06" transform="translate(-19.82)"/>
            <path class="cls-8" d="M944.87 866.64c-12 4.58-19.94 26.92-10.52 53.38 6.9 19.38 12.65 71 12.65 71 0 3 2.54 5.46 7.27 5.45s6.33-2.6 6.43-5.5 15.82-102.16 16.5-111.6-10.11-21.23-32.33-12.73z" transform="translate(-19.82)"/>
            <path class="cls-59" d="M978.74 918.75l-15.23 17.07 10.52 83.34 6.92-3.05-2.21-97.36z"/>
            <path class="cls-43" d="M952.08 1044.45l3.32 1.94 3.31-1.93V918.14l-3.31 1.93-3.32-1.93v126.31z"/>
            <path class="cls-44" d="M955.4 1046.39l3.31-1.93V918.14l-3.31 1.93v126.32z"/>
            <path class="cls-16" d="M952.08 918.14l3.32 1.93v126.32l-3.32-1.94V918.14z"/>
            <path class="cls-43" d="M892.84 1009.98l3.32 1.93 3.31-1.92V883.67l-3.31 1.92-3.32-1.93v126.32z"/>
            <path class="cls-44" d="M896.16 1011.91l3.31-1.92V883.67l-3.31 1.92v126.32z"/>
            <path class="cls-16" d="M892.84 883.66l3.32 1.93v126.32l-3.32-1.93V883.66z"/>
            <path class="cls-45" d="M993.59 926.54c0 4-2.63 8.07-7.9 11.13L916 978.22l-88.89-51.67v-4.59l69.73-40.54c5.26-3.06 12.21-4.59 19.15-4.59s13.88 1.53 19.15 4.59l50.59 29.41c5.26 3.06 7.9 7.1 7.9 11.13z" transform="translate(-19.82)"/>
            <path class="cls-18" d="M916 978.22l69.73-40.54c5.26-3.06 7.9-7.1 7.9-11.13v-4.59c0 4-2.63 8.07-7.9 11.13L916 973.62z" transform="translate(-19.82)"/>
            <path class="cls-17" d="M896.14 978.22l-88.89-51.68v-4.59l88.89 51.67v4.6z"/>
            <path class="cls-46" d="M1001.2 1014.31c6.42-3.93 13.19-4.55 15.13-1.38s-1.7 8.92-8.11 12.85-13.19 4.55-15.13 1.38c-1.17-1.91.47-8.17.84-9.72 1.25-1.39 4.72-1.57 7.27-3.13z" transform="translate(-19.82)"/>
            <path class="cls-7" d="M1001.66 1014.4c4.14-2.4 8.47-2.68 9.66-.63s-1.2 5.66-5.34 8.06" transform="translate(-19.82)"/>
            <path class="cls-8" d="M1008.81 882.29c-3.64-.54-172.75-5.21-172.75-5.21 0 12.87-3 33 14.34 48.56 8.4 7.51 22.36 14 42.77 23 8.79 3.86 20.62 6.93 33.49 5.28 24.91-3.19 67.46-26.4 67.46-26.4s-.74 90-.74 90.27c0 2.82 2.74 5.15 7.87 5.14 4.81 0 6.73-2.29 6.95-4.92s10.22-89.48 13.59-117.83c.02-.01.78-15.87-12.98-17.89z" transform="translate(-19.82)"/>
            <path class="cls-9" d="M834.63 739.71c-8.93 18.93-13 49.33-14.43 75.71l25.9 2.74 24.77-63.84" transform="translate(-19.82)"/>
            <path class="cls-7" d="M885.66 796s9-3.07 11.44-4.31c1.56-.79 2.64-1.3 3.78-1.9 1.57-.82 2.36-1.12 2.9-.66s.88 1.38-2.28 3.14a15.17 15.17 0 0 0 5.46-4.58c1.52-2.26 2.87-5.38 4.07-4.91s.62 2.64.62 2.64 1.72-.16 1 2.54c0 0 1.41 0 .29 2.8 0 0 1.34.69-.37 3.46S904.09 807 888 811z" transform="translate(-19.82)"/>
            <path class="cls-9" d="M835.51 828.53c45.51-8.07 57.66-18.3 57.66-18.3L890 794.89l-57.23 7.71" transform="translate(-19.82)"/>
            <circle class="cls-9" cx="833.27" cy="815.67" r="13.03" transform="rotate(-13.26 823.184 900.8)"/>
            <circle class="cls-9" cx="832.39" cy="748.37" r="19.59"/>
            <path class="cls-9" d="M960.43 782.79c0-41-31.08-57.51-31.08-57.51-17.15-9.67-49.94-17.19-71.25-9-28 10.78-28 44-28 43.88s-2.47 18.86 5.28 41.56c0 0-17.38 75.15 12.11 102.33 10.72 9.89 38.56 26.28 61.42 31.17a49.64 49.64 0 0 0 16.64 1s25-1.81 36.44-23.3 3.51-60.52 3.51-60.52-5.07-41.4-5.07-69.61z" transform="translate(-19.82)"/>
            <path class="cls-9" d="M960.43 782.79c0-41-31.08-57.51-31.08-57.51-17.15-9.67-49.94-17.19-71.25-9-28 10.78-28 44-28 43.88s-2.47 18.86 5.28 41.56c0 0-17.38 75.15 12.11 102.33 10.72 9.89 38.56 26.28 61.42 31.17a49.64 49.64 0 0 0 16.64 1s25-1.81 36.44-23.3 3.51-60.52 3.51-60.52-5.07-41.4-5.07-69.61z" transform="translate(-19.82)"/>
            <path class="cls-17" d="M938.33 750.25c-12.67 1.58-9.81 16.4-9.81 16.4s13 117.07-15.54 140c-20.12 16.21-46.75 7.77-60.68 1.4 12.84 9.82 36.61 22.87 56.58 27.14a49.64 49.64 0 0 0 16.64 1s25-1.81 36.44-23.3 3.51-60.52 3.51-60.52-5-41.47-5-69.63a70.33 70.33 0 0 0-5.65-28 20.57 20.57 0 0 0-16.49-4.49z" transform="translate(-19.82)"/>
            <path class="cls-7" d="M921.21 692.11c-.16 16.19-10.37 29.22-22.78 29.09s-22.36-13.36-22.19-29.55c.06-6.34-.4-14.86 2.27-19.62 4.16-7.41 13-9.54 20.52-9.47 12.42.13 22.35 13.36 22.18 29.55z" transform="translate(-19.82)"/>
            <path class="cls-7" d="M921.21 692.11c-.16 16.19-10.37 29.22-22.78 29.09s-22.36-13.36-22.19-29.55c.06-6.34-.4-14.86 2.27-19.62 4.16-7.41 13-9.54 20.52-9.47 12.42.13 22.35 13.36 22.18 29.55z" transform="translate(-19.82)"/>
            <path class="cls-40" d="M921.21 692.11c-.16 16.19-10.37 29.22-22.78 29.09s-22.36-13.36-22.19-29.55c.06-6.34-.4-14.86 2.27-19.62 4.16-7.41 13-9.54 20.52-9.47 12.42.13 22.35 13.36 22.18 29.55z" transform="translate(-19.82)"/>
            <path class="cls-7" d="M912 704.52h-30.69V717.45c.07 2.23 1.57 4.45 4.52 6.15 6 3.47 15.71 3.47 21.67 0 2.88-1.67 4.35-3.85 4.44-6v-.1z" transform="translate(-19.82)"/>
            <path class="cls-11" d="M920.38 692.78s-1.45 3.33-1.5 3.63c-.9 6.91.19 7.82.19 7.82a14.32 14.32 0 0 1-6.78 10.95 28.39 28.39 0 0 0 2.38-5 62 62 0 0 0-.13-6.91c-2.83 6.16-6.1 8.76-6.1 8.76s-4.37 4.24-13.05 4.24-11.77-3.48-11.77-3.48c-16.78-16.68-10.19-44.53-10.19-44.56 1.06-5.35 3.31-11 8-13.66a18.83 18.83 0 0 1 3.69-.92s3.6-3.51 10.61-2.58a76.65 76.65 0 0 1 14.58 3.79s7.38 2.21 12.92-1c0 0 .64 4.52-.55 6.46-.02-.02 10 14.09-2.3 32.46z" transform="translate(-19.82)"/>
            <path class="cls-7" d="M1010.36 828.48s15.14-9.46 18.54-10.05c2.83-.5 4.65-.2 5.14-2 .66-2.47-1.21-3-1.21-3a2.57 2.57 0 0 0-2-3.6s1-2.5-2.75-2.81c0 0 1.46-2.76-5.35-2-8.05.89-19 9.6-19.14 9.68z" transform="translate(-19.82)"/>
            <path class="cls-7" d="M1034.13 815.95a5.54 5.54 0 0 1-2.85 3.8c-2.57 1.46-5.38.53-5.87-2.08.01 0 8.51-6.97 8.72-1.72z" transform="translate(-19.82)"/>
            <path class="cls-9" d="M938.58 832.92l72.16-22.23 10.07 13.38s-33.5 22.62-71.26 38.89" transform="translate(-19.82)"/>
            <circle class="cls-9" cx="943.31" cy="848.21" r="16.01" transform="rotate(-40.86 933.336 874.798)"/>
            <path class="cls-9" d="M911.41 766.89l16.6 86 31.28-5.8s-.19-6.55-.38-14.86c-.81-35.36 2.3-60.91-4.08-79.33-3-8.77-48.22-5-43.43 14" transform="translate(-19.82)"/>
            <circle class="cls-9" cx="934.06" cy="762.81" r="23.1" transform="rotate(-.22 913.19 5916.255)"/>
            <path class="cls-45" d="M919.41 937.17V860c0-6.09-2.15-12.88-5.63-18.91s-8.26-11.31-13.52-14.37l-50.59-29.41c-5.26-3.06-10.05-3.35-13.53-1.35l-3.43 2.04c-3.47 2-5.62 6.28-5.62 12.37v77.13L916 939.17z" transform="translate(-19.82)"/>
            <path class="cls-17" d="M827.08 887.5L916 939.17V862c0-6.09-2.15-12.88-5.63-18.91s-8.26-11.31-13.52-14.37l-50.59-29.41c-5.26-3.06-10-3.35-13.52-1.35s-5.62 6.28-5.62 12.37z" transform="translate(-19.82)"/>
            <path class="cls-18" d="M913.78 841c3.47 6 5.63 12.82 5.63 18.91v77.21l-3.44 2V862c0-6.09-2.15-12.88-5.63-18.91z" transform="translate(-19.82)"/>
            <path class="cls-43" d="M904.51 868.53c0-6.09-2.16-12.88-5.63-18.91s-8.26-11.31-13.53-14.37l-24.3-14.08c-5.27-3.06-10.05-3.35-13.52-1.36l-3.31 1.93c-3.47 2-5.63 6.28-5.63 12.37v219l3.32 1.93 3.31-1.92V873.33l52.65 30.5v183.71l3.32 1.93 3.31-1.92zm-59.28-36.35a13.13 13.13 0 0 1 1.93-7.58 7 7 0 0 1 .52-.65 7.27 7.27 0 0 1 1.53-.16 11 11 0 0 1 3.29.55 18 18 0 0 1 3.59 1.62L880.38 840c4.74 2.76 9.11 7.62 12.3 13.16s5.19 11.77 5.2 17.25v2.73l-52.65-30.5zm0 33.47v-15.28l52.65 30.5v15.29z" transform="translate(-19.82)"/>
            <path class="cls-44" d="M898.88 849.62c3.47 6 5.62 12.82 5.63 18.91v219l-3.31 1.92v-219c0-6.09-2.16-12.88-5.63-18.91z" transform="translate(-19.82)"/>
            <path class="cls-16" d="M880.38 840c4.74 2.76 9.11 7.62 12.3 13.16s5.19 11.77 5.2 17.25v217.08l3.32 1.93v-219c0-6.09-2.16-12.88-5.63-18.91s-8.26-11.31-13.52-14.37l-24.3-14.08c-5.26-3.06-10.05-3.35-13.52-1.36s-5.63 6.28-5.63 12.37v219l3.32 1.93V834.11a13.14 13.14 0 0 1 1.93-7.58 6.27 6.27 0 0 1 5.35-2.74 11 11 0 0 1 3.29.55 18 18 0 0 1 3.59 1.62z" transform="translate(-19.82)"/>
            <path class="cls-16" d="M822.1 844.59v3.84l55.95 32.43v-3.84l-55.95-32.43zM822.1 867.56v3.84l55.95 32.43v-3.84l-55.95-32.43z"/>
            <path class="cls-44" d="M825.4 850.35l-3.3-1.92v19.13l3.3-1.91v-15.3zM822.1 871.4v183.64l3.3-1.92v-179.8l-3.3-1.92z"/>
            <path class="cls-44" d="M845.23 832.19a13.13 13.13 0 0 1 1.93-7.58 7 7 0 0 1 .52-.65 7.27 7.27 0 0 1 1.53-.16 6.27 6.27 0 0 0-5.35 2.74 13.14 13.14 0 0 0-1.93 7.58v10.48l3.31-1.91z" transform="translate(-19.82)"/>
            <path class="cls-13" d="M1201.23 583.68v3.21l19.71 4.69v-3.2l-19.71-4.7z"/>
            <circle class="cls-60" cx="878.98" cy="575.7" r="46.5"/>
            <path class="cls-9" d="M925.56 570.38l-4.07-4.07v-5.76l-5.32-2.2L914 553h-5.8l-4.07-4.07-5.32 2.2-5.32-2.2-4.08 4.07h-5.76l-2.2 5.32-5.32 2.2v5.76l-4.07 4.07 2.2 5.32-2.2 5.32 4.07 4.07v5.76l5.32 2.2 2.2 5.32h5.76l4.07 4.07 5.32-2.2 5.32 2.2 4.07-4.07H914l2.2-5.32 5.32-2.2v-5.76l4.07-4.07-2.2-5.32zm-25 20v3.13a1.78 1.78 0 1 1-3.57 0v-3.15a8.93 8.93 0 0 1-7.13-8.74 1.78 1.78 0 1 1 3.57 0 5.36 5.36 0 0 0 5.35 5.35c3.15 0 5.35-2 5.35-4.76 0-2.32-1.93-3.94-5.74-4.8-7-1.61-8.52-5.39-8.52-8.28A8.27 8.27 0 0 1 897 561v-3.13a1.78 1.78 0 1 1 3.57 0V561a8.88 8.88 0 0 1 7 7.25 1.78 1.78 0 1 1-3.52.59 5.33 5.33 0 0 0-5.28-4.46c-3.15 0-5.35 2-5.35 4.76 0 .86 0 3.49 5.74 4.8 7.42 1.68 8.52 5.91 8.52 8.28a8.26 8.26 0 0 1-7.09 8.18z" transform="translate(-19.82)"/>
        </g>
    </g>
</svg>
