<svg xmlns="http://www.w3.org/2000/svg" xmlns:xlink="http://www.w3.org/1999/xlink" viewBox="0 0 1055.02 950.63"><defs><style>.cls-1{fill:none;}.cls-2,.cls-28{fill:#d8d8d8;}.cls-10,.cls-11,.cls-12,.cls-13,.cls-14,.cls-15,.cls-16,.cls-17,.cls-2,.cls-3,.cls-4,.cls-5,.cls-6,.cls-67,.cls-68,.cls-69,.cls-7,.cls-70,.cls-71,.cls-72,.cls-73,.cls-74,.cls-75,.cls-76,.cls-77,.cls-78,.cls-79,.cls-8,.cls-80,.cls-9{fill-rule:evenodd;}.cls-3{fill:#011d2e;}.cls-4{fill:#050408;}.cls-5{fill:#171526;}.cls-6{fill:#343054;}.cls-7{fill:#25223d;}.cls-8{fill:#110f1c;}.cls-56,.cls-9{fill:#10355d;}.cls-10{fill:#003d63;}.cls-11{fill:#1c4870;}.cls-12,.cls-58{fill:#081b2f;}.cls-13{fill:#001624;}.cls-14{fill:#c4c4d8;}.cls-15{fill:#eaeaf7;}.cls-16{fill:#f5f5ff;}.cls-17{fill:#fafaff;}.cls-18{fill:#dedede;}.cls-19{fill:#b4b4b4;}.cls-20{fill:#a6a6a6;}.cls-21{fill:#898989;}.cls-22{fill:#d2d9dd;}.cls-23{fill:#eaeaea;}.cls-24{fill:#999;}.cls-25{fill:#cecece;}.cls-26{fill:#b7b7b7;}.cls-27{fill:#e8e8e8;}.cls-29{fill:#fff;}.cls-30{clip-path:url(#clip-path);}.cls-31{isolation:isolate;}.cls-32{clip-path:url(#clip-path-2);}.cls-33{fill:#e5e5e5;}.cls-34{fill:#8e8e8e;}.cls-35,.cls-77{fill:#9eccff;}.cls-36{fill:#ffcfae;}.cls-37{fill:#444549;}.cls-38{fill:#9b9b9b;}.cls-39{opacity:0.1;}.cls-40{fill:#424242;}.cls-41{opacity:0.08;}.cls-42{fill:#dbdbdb;}.cls-43{fill:#ffdec7;}.cls-44{fill:url(#_ÂÁ_Ï_ÌÌ_È_ËÂÌÚ_62);}.cls-45{fill:#e5eaed;}.cls-46{fill:url(#_ÂÁ_Ï_ÌÌ_È_ËÂÌÚ_62-2);}.cls-47{fill:#afafaf;}.cls-48{fill:#e0e0e0;}.cls-49{fill:#ededed;}.cls-50{fill:#919191;}.cls-51{fill:#f4f4f4;}.cls-52{fill:#d4d4d4;}.cls-53{fill:#2b90ff;}.cls-54{fill:#a3a3a3;}.cls-55{clip-path:url(#clip-path-3);}.cls-57{clip-path:url(#clip-path-4);}.cls-59{fill:#eab896;}.cls-60{fill:#6b373e;}.cls-61{fill:#e4e1d6;}.cls-62{opacity:0.2;}.cls-63{clip-path:url(#clip-path-5);}.cls-64{clip-path:url(#clip-path-6);}.cls-65{clip-path:url(#clip-path-7);}.cls-66{fill:#fcfcfc;}.cls-67{fill:#66ade2;}.cls-68{fill:#b0aaad;}.cls-69{fill:#b3adb0;}.cls-70{fill:#a69fa3;}.cls-71{fill:#bdb6b9;}.cls-72{fill:#cfc9cb;}.cls-73{fill:#4d4948;}.cls-74{fill:#4e8aaf;}.cls-75{fill:#3a7593;}.cls-76{fill:#a9d6ff;}.cls-78{fill:#93bee5;}.cls-79{fill:#254d66;}.cls-80{fill:#396a8e;}</style><clipPath id="clip-path"><path class="cls-1" d="M284.19,182.5,130.94,270.77a49,49,0,0,0-24.53,42.43V671.39a18.5,18.5,0,0,0,27.73,16l153.25-88.26a49,49,0,0,0,24.53-42.43V198.53A18.5,18.5,0,0,0,284.19,182.5Z"/></clipPath><clipPath id="clip-path-2"><polygon class="cls-1" points="62.86 749.2 61.58 298.01 454.23 71.32 455.51 522.5 62.86 749.2"/></clipPath><linearGradient id="_ÂÁ_Ï_ÌÌ_È_ËÂÌÚ_62" x1="16003.16" y1="608.42" x2="16031.64" y2="608.42" gradientTransform="matrix(-1, 0, 0, 1, 16824.33, 0)" gradientUnits="userSpaceOnUse"><stop offset="0.16" stop-color="#9c9c9c"/><stop offset="0.16" stop-color="#bfbfbf"/><stop offset="0.56" stop-color="#bfbfbf"/><stop offset="0.56" stop-color="#ccc"/><stop offset="0.87" stop-color="#ccc"/><stop offset="0.87" stop-color="#bdbdbd"/></linearGradient><linearGradient id="_ÂÁ_Ï_ÌÌ_È_ËÂÌÚ_62-2" x1="16044" y1="584.67" x2="16072.49" y2="584.67" xlink:href="#_ÂÁ_Ï_ÌÌ_È_ËÂÌÚ_62"/><clipPath id="clip-path-3"><polygon class="cls-1" points="835.01 216.01 835.07 194.91 947.15 259.62 947.09 280.72 835.01 216.01"/></clipPath><clipPath id="clip-path-4"><polygon class="cls-1" points="658.83 118.37 658.89 97.28 702.19 122.27 702.13 143.37 658.83 118.37"/></clipPath><clipPath id="clip-path-5"><polygon class="cls-1" points="138.84 317.12 138.75 288.02 272.56 210.76 272.65 239.86 138.84 317.12"/></clipPath><clipPath id="clip-path-6"><polygon class="cls-1" points="174.89 502.04 174.4 330.45 259.09 281.55 259.58 453.14 174.89 502.04"/></clipPath><clipPath id="clip-path-7"><polygon class="cls-1" points="194.86 390.31 194.76 356.85 245.42 327.6 245.52 361.06 194.86 390.31"/></clipPath></defs><title>Measure Tourist Movements</title><g id="Layer_2" data-name="Layer 2"><g id="Layer_1-2" data-name="Layer 1"><path class="cls-2" d="M627.93,843.84l88.42-50.36c9.64-4.4,23.43-7.91,33.25-2.8,8.95,4.66,23.69,14.19,30.21,17.9,5,2.82,22.13,13.12,11.43,18.94-31.49,17.12-62.65,36.38-94.62,53.77-6,3.29-14.89,4.48-24.18,3.71a64,64,0,0,1-26.19-7.8l-15.68-9.13c-6.94-4-10.61-8.81-11-13.23S622,846.54,627.93,843.84Z"/><path class="cls-3" d="M757.66,788.6c-15.8-12.32-112.56,42.13-116,53.11-3.47,11.13,4.55,20.87,15.82,26,1.1.62,4.73-.58,6.11-1.06,20.55-7,82.25-42.29,98.24-56.69C768.61,803.89,762.73,793.94,757.66,788.6Z"/><path class="cls-4" d="M757.92,810.55a20.65,20.65,0,0,1-4.11-9.54c-.39-3,0-6.32,2.54-7.81l-23.47,13.48a6.26,6.26,0,0,0-2.68,4.82,17.87,17.87,0,0,0,1.39,8.09,12.55,12.55,0,0,0,3,4.49A219,219,0,0,0,757.92,810.55Z"/><polygon class="cls-4" points="734.63 824.08 733.37 825.63 756.66 812.1 757.92 810.55 734.63 824.08"/><path class="cls-5" d="M752.92,804.84a13.11,13.11,0,0,1,6,10.31c0,3.78-2.73,5.32-6,3.42a13.12,13.12,0,0,1-6-10.31C746.89,804.47,749.6,802.94,752.92,804.84Z"/><path class="cls-6" d="M747.36,798l8-4.64c3.54-2.06,8,.69,10.79,3.36a23.07,23.07,0,0,1,4.84,6.78,20.11,20.11,0,0,1,2.14,8.55,9.07,9.07,0,0,1-1.26,4.94,5.26,5.26,0,0,1-1.78,1.72l-8,4.64c1.49-2.93.87-12.26-1.67-16.7C758.32,802.84,750.45,797.87,747.36,798Z"/><path class="cls-7" d="M751.87,804.66l-.15-.06a4.67,4.67,0,0,0-.89-.2l-.35,0a3.37,3.37,0,0,0-.61,0l-.23,0a2.85,2.85,0,0,0-.74.27l-.07,0a2.81,2.81,0,0,0-.59.48l-.08.08a3.27,3.27,0,0,0-.46.71l-.07.14a4.65,4.65,0,0,0-.29.9c0,.06,0,.12,0,.18a6.23,6.23,0,0,0-.11,1.14,8.73,8.73,0,0,0,.1,1.21c0,.12,0,.25.06.37.05.29.13.59.21.89s.08.33.13.49.15.43.24.64.22.58.35.87.28.57.43.85c.07.12.13.24.19.36.24.41.5.81.78,1.19l.1.12c.25.33.51.64.78.93l.29.3c.23.23.46.45.71.66l.3.25a9,9,0,0,0,1,.72,6.39,6.39,0,0,0,1.16.53c.13,0,.25,0,.38.08a4.77,4.77,0,0,0,.7.15,3.29,3.29,0,0,0,.89,0l.25-.07a2.71,2.71,0,0,0,.51-.19,2.94,2.94,0,0,0,.47-.31,2.74,2.74,0,0,0,.31-.26,2.8,2.8,0,0,0,.22-.27,3.25,3.25,0,0,0,.32-.49c0-.08.08-.17.12-.26a4.37,4.37,0,0,0,.28-.86l0-.05a6.4,6.4,0,0,0,.12-1.24,8.58,8.58,0,0,0-.1-1.29l0-.21a11.22,11.22,0,0,0-.29-1.24l-.06-.19a12.4,12.4,0,0,0-.47-1.28l0-.1c-.17-.4-.38-.78-.59-1.16l-.12-.21q-.34-.58-.74-1.13c-.13-.17-.27-.33-.4-.5s-.35-.44-.53-.64-.49-.49-.74-.72-.25-.24-.38-.35a9,9,0,0,0-1.21-.85,6.84,6.84,0,0,0-1.06-.49Zm-7.53,0s0,0,0-.07c0-.43,0-.85.07-1.25a1.12,1.12,0,0,0,0-.11c0-.11,0-.2.06-.31,0-.26.08-.51.13-.75,0-.06,0-.12,0-.18s.06-.17.08-.26.12-.41.19-.61l.07-.21c0-.07.06-.12.09-.19s.16-.36.26-.53.07-.15.11-.22l.09-.12a5.58,5.58,0,0,1,.33-.48c.05-.07.09-.15.15-.21l.06-.07a5.17,5.17,0,0,1,.49-.49l.13-.13,0,0a4.91,4.91,0,0,1,.76-.51l0,0,.16-.06a4.8,4.8,0,0,1,.7-.29l.14-.06.16,0a5.55,5.55,0,0,1,.92-.16l.13,0h0a6.92,6.92,0,0,1,1.37.08h.15l.18,0,.67.16.41.12c.26.08.51.19.78.3l.28.1.06,0c.37.17.75.36,1.13.58s.75.46,1.12.72l.36.27c.24.18.48.36.72.55l.41.36c.21.18.42.37.63.57l.42.42.57.6.17.18.12.16q.76.86,1.45,1.81l.08.1.16.25q.39.56.75,1.15l.16.25.09.16c.23.39.45.79.66,1.2l.1.18v0q.35.68.65,1.38l0,.07c.05.12.09.24.14.37.13.31.25.63.37.94l.06.14c0,.14.08.28.13.41s.18.54.26.81c0,.07,0,.14.06.2s.06.25.09.38.13.52.19.77l.06.25c0,.11,0,.23.05.34s.09.51.12.76,0,.2,0,.3,0,.19,0,.28c0,.26,0,.51.06.77s0,.23,0,.35,0,.33,0,.49,0,.6,0,.89c0,0,0,.08,0,.13a10.42,10.42,0,0,1-.14,1.05c0,.05,0,.11,0,.16v0a8.46,8.46,0,0,1-.32,1.17l0,.11c0,.06-.05.11-.08.17a7.15,7.15,0,0,1-.44.93s0,.11-.07.16l0,.06a5.58,5.58,0,0,1-.82,1s0,.07-.08.1l-.14.11a4.86,4.86,0,0,1-.39.31l-.3.21a4.36,4.36,0,0,1-.45.24l-.22.12-.08,0a5.22,5.22,0,0,1-1.13.31l-.25,0a6.48,6.48,0,0,1-1.24,0h-.07c-.18,0-.36-.05-.55-.08l-.41-.06c-.19,0-.4-.11-.6-.17s-.27-.07-.4-.11-.45-.18-.68-.27l-.36-.14c-.35-.16-.71-.35-1.07-.56a15.54,15.54,0,0,1-1.43-1l-.34-.26c-.46-.36-.91-.73-1.35-1.14l-.07-.07c-.42-.39-.82-.82-1.21-1.25l-.29-.33c-.4-.47-.79-.94-1.16-1.45l0,0-.07-.1c-.38-.52-.73-1.06-1.06-1.61l-.2-.32q-.51-.86-.95-1.75l-.08-.14c-.06-.12-.11-.25-.16-.37s-.23-.51-.34-.76l-.24-.59c-.1-.26-.19-.51-.29-.77,0-.1-.08-.21-.12-.31s0-.12-.05-.18c-.21-.65-.39-1.3-.53-1.94,0,0,0-.07,0-.11s0-.16,0-.25c-.09-.46-.17-.92-.22-1.37,0-.09,0-.17,0-.26s0-.1,0-.15c0-.5-.08-1-.08-1.47Z"/><path class="cls-5" d="M739.78,812.55a13.12,13.12,0,0,1,6,10.31c0,3.78-2.73,5.32-6,3.42a13.12,13.12,0,0,1-6-10.31C733.74,812.18,736.45,810.65,739.78,812.55Z"/><path class="cls-6" d="M734.22,805.67l8-4.64c3.54-2.06,8,.69,10.79,3.36a23.05,23.05,0,0,1,4.84,6.78,20.12,20.12,0,0,1,2.14,8.55,9.06,9.06,0,0,1-1.26,4.94,5.25,5.25,0,0,1-1.78,1.72L749,831c1.49-2.93.87-12.26-1.67-16.7C745.17,810.55,737.3,805.58,734.22,805.67Z"/><path class="cls-7" d="M738.72,812.37l-.15-.06a4.74,4.74,0,0,0-.89-.2l-.35,0a3.37,3.37,0,0,0-.61,0l-.23,0a2.85,2.85,0,0,0-.74.27l-.07,0a2.78,2.78,0,0,0-.59.48L735,813a3.25,3.25,0,0,0-.46.71l-.07.14a4.63,4.63,0,0,0-.29.9c0,.06,0,.12,0,.18a6.23,6.23,0,0,0-.11,1.14,8.74,8.74,0,0,0,.1,1.21c0,.12,0,.25.06.37.05.29.13.59.21.89s.08.32.13.49.15.43.24.64.22.58.35.87.28.57.43.85c.07.12.13.24.19.36.24.41.5.81.78,1.19l.1.12c.25.33.51.64.78.93l.29.3c.23.23.46.45.71.66l.3.25a9,9,0,0,0,1,.72,6.45,6.45,0,0,0,1.16.53c.13,0,.25,0,.38.08a4.77,4.77,0,0,0,.7.15,3.29,3.29,0,0,0,.89,0l.25-.07a2.79,2.79,0,0,0,.51-.19,3,3,0,0,0,.47-.31,2.8,2.8,0,0,0,.31-.25,3.15,3.15,0,0,0,.22-.27,3.3,3.3,0,0,0,.32-.49c0-.08.08-.17.12-.26a4.35,4.35,0,0,0,.28-.86l0-.05a6.39,6.39,0,0,0,.12-1.24,8.59,8.59,0,0,0-.1-1.29l0-.21A11.19,11.19,0,0,0,745,820l-.06-.19a12.21,12.21,0,0,0-.47-1.28l0-.1c-.17-.4-.38-.78-.59-1.16l-.12-.21c-.23-.39-.47-.77-.74-1.13-.13-.17-.27-.33-.4-.5s-.35-.44-.53-.64a10.2,10.2,0,0,0-.74-.72c-.12-.12-.25-.24-.38-.35a9,9,0,0,0-1.21-.85,6.73,6.73,0,0,0-1.06-.49Zm-7.53,0s0,0,0-.07c0-.44,0-.85.07-1.25a.9.9,0,0,0,0-.11c0-.11,0-.2.06-.31,0-.26.08-.51.13-.75,0-.06,0-.12,0-.18s.06-.17.08-.26.12-.41.19-.61l.07-.21c0-.07.06-.12.09-.19s.16-.36.26-.53.07-.16.11-.22l.09-.12a5.72,5.72,0,0,1,.33-.48c.05-.07.09-.15.15-.21l.06-.07a5.17,5.17,0,0,1,.49-.49l.13-.13,0,0a5,5,0,0,1,.76-.51l0,0,.16-.06a5,5,0,0,1,.7-.29l.14-.05.16,0a5.46,5.46,0,0,1,.92-.16l.13,0h0a6.92,6.92,0,0,1,1.37.08h.15l.18,0,.67.16.41.12c.26.08.51.19.78.3l.28.1.06,0c.37.17.75.36,1.13.58s.75.46,1.12.71l.36.27c.24.18.48.36.72.55l.41.36c.21.18.42.37.63.57l.42.42.57.6.17.18.12.15q.76.86,1.45,1.81l.08.1.16.25q.39.56.75,1.15l.16.25.09.16c.23.39.45.79.66,1.2l.1.18,0,0q.35.68.65,1.38l0,.07c.05.12.09.24.14.37.13.31.25.63.37.94l.06.14c0,.14.09.28.13.41s.18.54.26.81l.06.2c0,.13.06.25.09.38s.13.52.19.77l.06.26c0,.11,0,.23.05.34s.09.51.12.76,0,.2,0,.3,0,.19,0,.28c0,.26,0,.51.06.77s0,.23,0,.35,0,.33,0,.49,0,.6,0,.89c0,0,0,.08,0,.13a10.45,10.45,0,0,1-.14,1.05c0,.05,0,.11,0,.16v0a8.45,8.45,0,0,1-.32,1.17l0,.11c0,.06-.05.11-.08.17a7.1,7.1,0,0,1-.44.93s0,.11-.07.16l0,.05a5.58,5.58,0,0,1-.82,1s0,.07-.08.1l-.14.11c-.12.11-.26.21-.39.31l-.3.21a4.36,4.36,0,0,1-.45.24l-.22.12-.08,0a5.18,5.18,0,0,1-1.13.31l-.25,0a6.42,6.42,0,0,1-1.24,0h-.07c-.18,0-.36-.05-.55-.08l-.41-.06c-.19,0-.4-.11-.6-.17s-.27-.07-.4-.11-.45-.18-.68-.27l-.36-.14c-.35-.16-.71-.35-1.07-.56a15.38,15.38,0,0,1-1.43-1l-.34-.26c-.46-.36-.91-.73-1.35-1.14l-.07-.07c-.42-.39-.82-.82-1.21-1.25l-.29-.33c-.4-.47-.79-.94-1.16-1.45l0,0-.07-.1c-.38-.52-.73-1.06-1.06-1.61l-.2-.32q-.51-.86-.95-1.75l-.08-.14c-.06-.12-.11-.25-.16-.37s-.23-.51-.34-.76-.16-.39-.24-.59-.19-.51-.28-.77c0-.1-.08-.21-.12-.31s0-.12-.05-.18c-.21-.65-.39-1.3-.53-1.94,0,0,0-.07,0-.11s0-.16,0-.25c-.09-.46-.17-.92-.22-1.37,0-.09,0-.17,0-.26s0-.1,0-.15c0-.5-.08-1-.08-1.47Z"/><path class="cls-8" d="M739.64,804.67l23.29-13.54c-2.44-1.4-5.62-2.31-8.23-.8h0L731.4,803.87C733.6,803.08,737.21,803.77,739.64,804.67Z"/><path class="cls-7" d="M748.4,814.38l23.29-13.54a26.26,26.26,0,0,0-6.25-7.94l-.08-.06a17.13,17.13,0,0,0-2.44-1.71l-23.29,13.54A37.27,37.27,0,0,1,748.4,814.38Z"/><path class="cls-5" d="M739.64,804.67C733.26,801,728,804,728,811.3c0,4.57,2,9.94,5.35,14.34l.64-.79.62-.76a19.76,19.76,0,0,1-4.26-11.43c0-5.86,4.17-8.22,9.26-5.28a19.21,19.21,0,0,1,7,7.73l1.79-.73A24.19,24.19,0,0,0,739.64,804.67Z"/><path class="cls-4" d="M681.81,854.75a20.64,20.64,0,0,1-4.11-9.54c-.39-3,0-6.32,2.54-7.81l-23.47,13.48a6.26,6.26,0,0,0-2.68,4.82,17.87,17.87,0,0,0,1.39,8.09,12.54,12.54,0,0,0,3,4.49A219.22,219.22,0,0,0,681.81,854.75Z"/><polygon class="cls-4" points="658.51 868.29 657.25 869.84 680.54 856.31 681.81 854.75 658.51 868.29"/><path class="cls-5" d="M676.81,849a13.12,13.12,0,0,1,6,10.31c0,3.78-2.73,5.32-6,3.42a13.12,13.12,0,0,1-6-10.31C670.77,848.67,673.48,847.14,676.81,849Z"/><path class="cls-6" d="M671.25,842.17l8-4.64c3.54-2.06,8,.69,10.79,3.36a23.07,23.07,0,0,1,4.84,6.78,20.11,20.11,0,0,1,2.14,8.55,9.07,9.07,0,0,1-1.26,4.94,5.27,5.27,0,0,1-1.78,1.72l-8,4.64c1.49-2.93.87-12.26-1.67-16.7C682.21,847,674.34,842.08,671.25,842.17Z"/><path class="cls-7" d="M675.75,848.86l-.15-.06a4.67,4.67,0,0,0-.89-.2l-.35,0a3.37,3.37,0,0,0-.61,0l-.23,0a2.85,2.85,0,0,0-.74.27l-.07,0a2.81,2.81,0,0,0-.59.48l-.08.08a3.27,3.27,0,0,0-.46.71l-.07.14a4.66,4.66,0,0,0-.29.9c0,.06,0,.12,0,.18a6.21,6.21,0,0,0-.11,1.14,8.73,8.73,0,0,0,.1,1.21c0,.12,0,.25.06.37.05.29.13.59.21.89s.08.33.13.49.15.43.24.64.22.58.35.87.28.57.43.85c.07.12.13.24.19.36.24.41.5.81.78,1.19l.1.12c.25.33.51.64.78.93l.29.3c.23.23.46.45.71.66l.3.25a9.17,9.17,0,0,0,1,.72,6.39,6.39,0,0,0,1.16.53c.13,0,.25,0,.38.08a4.87,4.87,0,0,0,.7.15,3.29,3.29,0,0,0,.89,0l.25-.07a2.77,2.77,0,0,0,.51-.19,2.93,2.93,0,0,0,.47-.31,2.73,2.73,0,0,0,.31-.25,2.93,2.93,0,0,0,.22-.27,3.25,3.25,0,0,0,.32-.49c0-.08.08-.17.12-.26a4.37,4.37,0,0,0,.28-.86l0-.05a6.4,6.4,0,0,0,.12-1.24,8.58,8.58,0,0,0-.1-1.29l0-.21a11.22,11.22,0,0,0-.29-1.24l-.06-.19a12.45,12.45,0,0,0-.47-1.28l0-.1c-.17-.4-.38-.78-.59-1.16l-.12-.21q-.34-.58-.74-1.13c-.13-.17-.27-.33-.4-.5s-.35-.44-.53-.64-.49-.49-.74-.72-.25-.24-.38-.35a9,9,0,0,0-1.21-.85,6.84,6.84,0,0,0-1.06-.49Zm-7.53,0s0,0,0-.07c0-.43,0-.85.07-1.25a.93.93,0,0,0,0-.11c0-.11,0-.2.06-.31,0-.26.08-.51.13-.75,0-.06,0-.12,0-.18s.06-.17.08-.26.12-.41.19-.61l.07-.21c0-.07.06-.12.09-.19s.16-.36.26-.53.07-.15.11-.22l.09-.12a5.7,5.7,0,0,1,.33-.48c.05-.07.09-.15.15-.21l.06-.07a5.17,5.17,0,0,1,.49-.49l.13-.13,0,0a4.94,4.94,0,0,1,.76-.51l0,0,.16-.06a4.89,4.89,0,0,1,.7-.28l.14-.06.16,0a5.55,5.55,0,0,1,.92-.16l.13,0h0a6.92,6.92,0,0,1,1.37.08h.15l.18,0,.67.16.41.12c.26.08.51.19.78.3l.28.1.06,0c.37.17.75.36,1.13.58s.75.46,1.12.71l.36.27c.24.18.48.36.72.55l.41.36c.21.18.42.37.63.57l.42.42.57.6.17.18.12.15q.76.86,1.45,1.81l.08.1.16.25q.39.56.75,1.15l.16.25.09.16c.23.39.45.79.66,1.2l.1.18,0,0q.35.68.65,1.38l0,.07c.05.12.09.25.14.37.13.31.25.63.37.94l.06.14c0,.14.08.28.13.41s.18.54.26.81c0,.07,0,.14.06.2s.06.25.09.38.13.52.19.77l.06.25c0,.11,0,.23.05.34s.09.51.12.76,0,.2,0,.3,0,.19,0,.28c0,.26,0,.51.06.77s0,.23,0,.35,0,.33,0,.49,0,.6,0,.89c0,0,0,.08,0,.13a10.41,10.41,0,0,1-.14,1.05c0,.05,0,.11,0,.16v0a8.46,8.46,0,0,1-.32,1.17l0,.11c0,.06-.05.11-.08.17a7.15,7.15,0,0,1-.44.93s0,.11-.07.16l0,.06a5.58,5.58,0,0,1-.82,1s0,.07-.08.1l-.14.11a4.71,4.71,0,0,1-.39.31l-.3.21a4.36,4.36,0,0,1-.45.24l-.22.12-.08,0a5.22,5.22,0,0,1-1.13.31l-.25,0a6.42,6.42,0,0,1-1.24,0h-.07c-.18,0-.36-.05-.55-.08l-.41-.06c-.19,0-.4-.11-.6-.17s-.27-.07-.4-.11-.45-.18-.68-.27l-.36-.14c-.35-.16-.71-.35-1.07-.56a15.55,15.55,0,0,1-1.43-1l-.34-.26c-.46-.36-.91-.73-1.35-1.14l-.07-.07c-.42-.39-.82-.82-1.21-1.25l-.29-.33c-.4-.47-.79-.94-1.16-1.45l0,0-.07-.1c-.38-.52-.73-1.06-1.06-1.61l-.2-.32c-.34-.57-.65-1.16-.95-1.75l-.08-.14c-.06-.12-.11-.25-.16-.37s-.23-.51-.34-.76-.16-.39-.24-.59-.19-.51-.29-.77c0-.1-.08-.21-.12-.31s0-.12-.05-.18c-.21-.65-.39-1.3-.53-1.94,0,0,0-.07,0-.11s0-.16,0-.25c-.09-.46-.17-.92-.22-1.37,0-.09,0-.17,0-.26s0-.1,0-.15c0-.5-.08-1-.08-1.47Z"/><path class="cls-5" d="M663.67,856.76a13.12,13.12,0,0,1,6,10.31c0,3.78-2.73,5.32-6,3.42a13.12,13.12,0,0,1-6-10.31C657.63,856.38,660.34,854.85,663.67,856.76Z"/><path class="cls-6" d="M658.11,849.88l8-4.64c3.54-2.06,8,.69,10.79,3.36a23.05,23.05,0,0,1,4.84,6.78,20.12,20.12,0,0,1,2.14,8.55,9.06,9.06,0,0,1-1.26,4.94,5.26,5.26,0,0,1-1.78,1.72l-8,4.64c1.49-2.93.87-12.26-1.67-16.7C669.06,854.75,661.19,849.79,658.11,849.88Z"/><path class="cls-7" d="M662.61,856.57l-.15-.06a4.77,4.77,0,0,0-.89-.2l-.35,0a3.37,3.37,0,0,0-.61,0l-.23,0a2.85,2.85,0,0,0-.74.27l-.07,0a2.78,2.78,0,0,0-.59.48l-.08.08a3.25,3.25,0,0,0-.46.71l-.07.14a4.63,4.63,0,0,0-.29.9c0,.06,0,.12,0,.18a6.22,6.22,0,0,0-.11,1.14,8.74,8.74,0,0,0,.1,1.21c0,.12,0,.25.06.37.05.3.13.59.21.89s.08.32.13.49.15.43.24.64.22.58.35.87.28.57.43.85c.07.12.13.24.19.36.24.41.5.81.78,1.19l.1.12c.25.33.51.64.78.93l.29.3c.23.23.46.45.71.66l.3.25a9,9,0,0,0,1,.72,6.39,6.39,0,0,0,1.16.53c.13,0,.25,0,.38.08a4.77,4.77,0,0,0,.7.15,3.29,3.29,0,0,0,.89,0l.25-.07a2.79,2.79,0,0,0,.51-.19,3,3,0,0,0,.47-.31,2.72,2.72,0,0,0,.31-.25,3,3,0,0,0,.22-.27,3.36,3.36,0,0,0,.32-.49c0-.08.08-.17.12-.26a4.36,4.36,0,0,0,.28-.86v-.05a6.33,6.33,0,0,0,.12-1.24,8.59,8.59,0,0,0-.1-1.29l0-.21a11.19,11.19,0,0,0-.29-1.24l-.06-.19a12.24,12.24,0,0,0-.47-1.28l0-.1c-.17-.4-.38-.78-.59-1.16l-.12-.21c-.23-.39-.47-.77-.74-1.13-.13-.17-.27-.33-.4-.5s-.35-.44-.53-.64a10.2,10.2,0,0,0-.74-.72c-.12-.12-.25-.24-.38-.35a9,9,0,0,0-1.21-.85,6.73,6.73,0,0,0-1.06-.49Zm-7.53,0s0,0,0-.07c0-.44,0-.85.07-1.25a.89.89,0,0,0,0-.11c0-.11,0-.2.06-.31,0-.26.08-.51.13-.75,0-.06,0-.12,0-.18s.06-.17.08-.26.12-.41.19-.61l.07-.21c0-.07.06-.12.09-.19s.16-.36.26-.53.06-.16.11-.22l.09-.12a5.72,5.72,0,0,1,.33-.48c.05-.07.09-.15.15-.21l.06-.07a5.17,5.17,0,0,1,.49-.49l.13-.13,0,0a5,5,0,0,1,.76-.51l0,0,.16-.06a4.89,4.89,0,0,1,.7-.29l.14-.06.16,0a5.38,5.38,0,0,1,.92-.16l.13,0h0a7,7,0,0,1,1.37.08H662l.18,0,.67.16.41.12c.26.08.51.19.78.3l.28.1.06,0c.37.17.75.36,1.13.58s.75.46,1.12.71l.36.27c.24.18.48.36.72.55l.41.36c.21.18.42.37.63.57l.42.42c.19.2.39.39.57.6l.17.18.12.15q.76.86,1.45,1.81l.08.1.16.25q.39.56.75,1.15l.16.25.09.16c.23.39.45.79.66,1.2l.1.18,0,0q.34.68.65,1.38l0,.07c.05.12.09.24.14.37.13.31.25.63.37.94l.06.14c0,.14.09.28.13.41s.18.54.26.81l.06.2c0,.13.06.25.09.38s.13.52.19.77l.06.25c0,.11,0,.23.05.34s.09.51.12.76,0,.2.05.3,0,.19,0,.28c0,.26,0,.51.06.77s0,.23,0,.35,0,.33,0,.49,0,.6,0,.89c0,0,0,.08,0,.13a10.45,10.45,0,0,1-.14,1.05c0,.05,0,.11,0,.16v0a8.6,8.6,0,0,1-.32,1.17l0,.11c0,.06-.05.11-.08.17a7.07,7.07,0,0,1-.44.93s0,.11-.07.16l0,.06a5.58,5.58,0,0,1-.82,1s0,.07-.08.1l-.14.11a4.9,4.9,0,0,1-.39.31l-.3.21a4.36,4.36,0,0,1-.45.24l-.22.12-.08,0a5.18,5.18,0,0,1-1.13.31l-.25,0a6.42,6.42,0,0,1-1.24,0h-.07c-.18,0-.36-.05-.55-.08l-.41-.06c-.19,0-.4-.11-.6-.17s-.27-.07-.4-.11-.45-.18-.68-.27l-.36-.14c-.35-.16-.71-.35-1.07-.56a15.23,15.23,0,0,1-1.43-1l-.34-.25c-.46-.36-.91-.73-1.35-1.14l-.07-.07c-.42-.39-.82-.82-1.21-1.26l-.29-.33c-.4-.47-.79-.94-1.16-1.45l0,0-.07-.1c-.38-.52-.73-1.06-1.06-1.61l-.2-.32c-.34-.57-.65-1.16-.95-1.75l-.08-.14c-.06-.12-.11-.25-.16-.37s-.23-.51-.34-.76-.16-.39-.24-.59-.19-.51-.29-.77c0-.1-.08-.21-.12-.31s0-.12-.05-.18c-.21-.65-.39-1.3-.53-1.94,0,0,0-.07,0-.11s0-.16,0-.25c-.09-.46-.17-.92-.22-1.37,0-.09,0-.17,0-.26s0-.1,0-.15c0-.5-.08-1-.08-1.47Z"/><path class="cls-8" d="M663.53,848.88l23.29-13.54c-2.44-1.4-5.62-2.31-8.23-.8h0l-23.3,13.54C657.49,847.29,661.09,848,663.53,848.88Z"/><path class="cls-7" d="M672.29,858.59l23.29-13.54a26.25,26.25,0,0,0-6.25-7.94l-.08-.06a17.13,17.13,0,0,0-2.44-1.71l-23.29,13.54A37.26,37.26,0,0,1,672.29,858.59Z"/><path class="cls-5" d="M663.53,848.88c-6.38-3.69-11.6-.71-11.62,6.62,0,4.57,2,9.94,5.35,14.34l.64-.79.62-.76a19.75,19.75,0,0,1-4.26-11.43c0-5.86,4.17-8.22,9.26-5.28a19.21,19.21,0,0,1,7,7.74l1.79-.73A24.19,24.19,0,0,0,663.53,848.88Z"/><path class="cls-9" d="M778.3,787.73a8.79,8.79,0,0,0,.83-3.37q.19-70.66.4-141.31a6.15,6.15,0,0,0,0-1.25,22.27,22.27,0,0,0-.93-5,29.07,29.07,0,0,0-6.44-11.13c-4.42-4.65-14-9.21-19.25-12.23h0l-.12-.07a16.59,16.59,0,0,0-2.55-1.12,11.39,11.39,0,0,0-2.35-.55C737,610.31,712,623.94,701.29,629.76c-13.48,7.44-27.34,15.44-40,24a182.76,182.76,0,0,0-19,14.34,35.41,35.41,0,0,0-6.29,7c-.58.93-1.86,3.08-1.76,7.89q-.22,78.32-.45,156.63c0,12.75,11.54,22.37,21.35,26.92a23.18,23.18,0,0,1-3.17-11c0-3.67,1.32-6.24,3.42-7.44,6.31-3.6,8.4-5,16.1-.94.24.13,5.44,3.67,15.8-.54,9.83-2.44,23.23-8.16,37.38-16.38l11.92-6.92q4.42-2.57,8.54-5.22C754.42,812,773.69,798.3,778.3,787.73Z"/><path class="cls-10" d="M776.67,646.72l-.41,144.59a21.81,21.81,0,0,0,2-3.58l.4-143.14A20.09,20.09,0,0,1,776.67,646.72Z"/><path class="cls-10" d="M779.35,673.38v0Zm.19-30.34s0,0,0-.06l0,7.5,0,7.49,0,7.48,0,7.46,0,7.43,0,7.4,0,7.37,0,7.32,0,7.27,0,7.21,0,7.14,0,7.07,0,7,0,6.91,0,6.82,0,6.72,0,6.62,0,6.51,0,6.39,0,6.27a8.79,8.79,0,0,1-.83,3.37l.4-143.14A3.47,3.47,0,0,0,779.53,643Z"/><path class="cls-10" d="M672,704.78,671.56,845a4.06,4.06,0,0,0,2.32,2.15l.4-142.39A4.2,4.2,0,0,1,672,704.78Z"/><path class="cls-10" d="M674.28,704.8l-.4,142.39a9.79,9.79,0,0,0,3,.65L677.31,704A25.48,25.48,0,0,1,674.28,704.8Z"/><path class="cls-9" d="M671.57,842.88c.11-39.88.25-89,.39-138.1,0-7.41-5.2-16.46-11.66-20.19l-14.4-8.31c-6.45-3.73-11.71-.73-11.73,6.68q-.22,78.32-.45,156.63c0,12.75,11.54,22.37,21.35,26.92a23.18,23.18,0,0,1-3.17-11c0-3.68,1.33-6.26,3.44-7.45l3.93-2.14c3.16-1.72,7.54-1.22,12.15,1.22.24.13,5.48,3.7,15.91-.59C677,849.54,671.56,846.24,671.57,842.88Z"/><path class="cls-11" d="M779.5,641.79a22.27,22.27,0,0,0-.93-5,29.07,29.07,0,0,0-6.44-11.13c-2.13-2.23-6.92-5.44-9.67-7-3.05-1.76-6.52-3.44-9.58-5.21-.49-.35-1.72-.08-2.28,0C732.48,617,666.2,656.1,649,672.28q-.52.49-1,1l0,0c-.51.53-2.05,2.08-2.05,3l14.4,8.31c6.64,3.84,11.69,13,11.66,20.19,1.1.62,4.73-.58,6.11-1.06,20.55-7,82.25-42.29,98.24-56.69a21.77,21.77,0,0,0,2.5-2.51,4.94,4.94,0,0,0,.57-1,1.6,1.6,0,0,0,.15-.47A5.84,5.84,0,0,0,779.5,641.79Z"/><path class="cls-10" d="M750.19,612.23a11.39,11.39,0,0,0-2.35-.55C737,610.31,712,623.94,701.29,629.76c-13.48,7.44-27.34,15.44-40,24a182.8,182.8,0,0,0-19,14.34,35.48,35.48,0,0,0-6.3,7c-.58.93-1.86,3.08-1.76,7.89.06-7.33,5.28-10.41,11.73-6.68,0-.81,1.35-2.27,1.84-2.77,4.75-4.92,18.33-14.5,35.35-24.89,7.4-4.52,14.93-8.83,22.42-13.18A377.15,377.15,0,0,1,741,616.9s10.2-4.34,11.91-3.48A16.38,16.38,0,0,0,750.19,612.23Z"/><polygon class="cls-12" points="721.92 622.97 671.32 652.59 677.4 656.17 729.48 626.05 721.92 622.97"/><polygon class="cls-13" points="721.92 622.97 718.76 624.89 714.59 634.64 729.48 626.05 721.92 622.97"/><path class="cls-14" d="M719.1,584.91c0,.33,0,.66,0,1l.56,45.78,4.27-2.45.51-3.38-.27-38.28c0-7.8-3.79-8.54-9.84-7.9C718,580.11,719,582.35,719.1,584.91Z"/><path class="cls-15" d="M716.61,572c-2.41-.46-5.31.13-8.42,1.93h0l2.17,1.79,2.25.78c2.45-1.42,8.76-1,11.6-.51C722.44,574.06,718.49,572.36,716.61,572Z"/><polygon class="cls-14" points="677.77 613.82 672.7 611.92 672.96 653.56 672.94 653.57 677.36 656.14 677.92 652.99 677.77 613.82"/><path class="cls-15" d="M683.89,597.06c2.27-3.16,5.33-6.68,8.71-8.63l-1.48-1.49-3.32-1.24c-8.36,4.84-15.14,16.6-15.12,26.21v0l4.4,2.56C678.12,608.86,680.21,602.18,683.89,597.06Z"/><polygon class="cls-16" points="687.82 585.7 692.23 588.26 700.94 583.76 712.59 576.51 708.18 573.94 687.83 585.69 687.82 585.7"/><path class="cls-17" d="M727.83,585.19c0-9.62-6.86-13.52-15.24-8.68l-20.36,11.75c-8.37,4.83-15.16,16.6-15.13,26.22l.26,41.66,4.14-2.39-.26-41.66c0-7,4.92-15.55,11-19.06l20.36-11.75c6.09-3.52,11.07-.69,11.09,6.31l.26,41.66,4.14-2.39Z"/><polygon class="cls-18" points="0 781.59 221.65 654.03 382.38 746.74 160.74 874.32 0 781.59"/><polygon class="cls-19" points="103.69 795.29 183.96 746.74 176.44 680.04 40.02 758.56 103.69 795.29"/><polygon class="cls-20" points="160.74 874.32 382.38 746.74 382.38 755.45 160.76 883.02 160.74 874.32"/><polygon class="cls-21" points="0.02 790.29 0 781.59 160.74 874.32 160.76 883.02 0.02 790.29"/><path class="cls-22" d="M225.83,492.51l.06,51.77-33.6,19.45a14.09,14.09,0,0,1-14,.1l-57.21-32.35a14,14,0,0,1,5.92-6.91l77.59-45.72a13.81,13.81,0,0,1,14-.1c.26.13.48.26.74.42l16.38,9.73S229.13,491.42,225.83,492.51Z"/><polygon class="cls-23" points="268.93 423.36 269.4 736.85 269.39 736.86 137.73 814.45 137.26 500.94 137.26 500.94 268.92 423.35 268.93 423.36"/><polygon class="cls-24" points="234.59 404.27 137.26 701.5 137.73 814.45 103.39 795.36 102.92 481.86 102.92 481.85 234.58 404.27 234.59 404.27"/><path class="cls-25" d="M75.69,222.56l179.5-105.78a35.14,35.14,0,0,1,36.34.25l0,0,37.28,22.19L293.07,249.06l.64,284.36a71.65,71.65,0,0,1-35.27,61.84L105.87,685.17,91.79,728.39,60.43,710.32v0a35.17,35.17,0,0,1-18.42-31L41.21,283A70,70,0,0,1,75.69,222.56Z"/><path class="cls-26" d="M42,678.86v.41a35.17,35.17,0,0,0,18.41,31v0l31.36,18.07,5.73-17.6Z"/><path class="cls-27" d="M75.69,222.56l179.5-105.78a35.14,35.14,0,0,1,36.34.25l0,0,37.28,22.19L321,163.34,142.41,266.81a16.53,16.53,0,0,1-16.43.09l-62.29-35A69.47,69.47,0,0,1,75.69,222.56Z"/><path class="cls-28" d="M41.21,283a69.73,69.73,0,0,1,22.62-51.18l53.68,30.1a15.69,15.69,0,0,1,.15,27.23l-10.81,36.29a15.69,15.69,0,0,1-15.6.09l-50-28Z"/><path class="cls-29" d="M341.71,166.37l.81,395.34a71.65,71.65,0,0,1-35.27,61.84L128.54,728.86c-23.68,14-53.56-3.08-53.62-30.57L74.12,302a70,70,0,0,1,34.48-60.45L288.1,135.8C311.78,121.85,341.66,138.88,341.71,166.37Z"/><path class="cls-23" d="M286.19,180.5,132.94,268.77a49,49,0,0,0-24.53,42.43V669.39a18.5,18.5,0,0,0,27.73,16l153.25-88.26a49,49,0,0,0,24.53-42.43V196.53A18.5,18.5,0,0,0,286.19,180.5Z"/><g class="cls-30"><g class="cls-31"><g class="cls-32"><path class="cls-33" d="M452.39,464.28q1.47.42,3,.82v0l-3-.78m2.84-39.94L442.06,460.9h0l13.16-36.56M242.38,543.29l-35.85,58.1,118.61-50.2-.12-42-82.63,34.1m-19.89,8.21h0m-26.22,7.6-17.75,26.76h0l17.74-26.76h0M376.13,455.22l-37.41,42.43.14,49.55,41.9-26-4.62-66M113.87,602.77,62.79,672.15l40.86,6.22,34.24-51.62a172.13,172.13,0,0,0-24-24M324.81,438.43l-78.64,45.42-38.48,58L325,493.47l-.16-55m100-81-29.11,73.94a125.37,125.37,0,0,0,35.73,25l23.71-65.83L455,360.35l-30.25-2.88M200.26,485.42l-52.3,71a199.77,199.77,0,0,1,22.29,21.48l62.88-94.81-32.87,2.29M344.79,381.53a73.89,73.89,0,0,1-6.38,5.58l.25,88.23,34.51-39.14c-13.86-17.56-22.61-37-28.38-54.67m-40,14L265,455.5,324.76,421l-.07-26c-7.56,2.88-14.42,2.92-19.94.49M291.57,376,122.14,473.86l76.81-5.36.23-.31.13.29L245,465.29l51.15-77.13A30.45,30.45,0,0,1,291.57,376M436.5,292.37,371.31,330c-1.59,11.87-6.49,24.34-13.47,35.31,5.5,17.7,14.09,37.6,28.18,55.27L436.5,292.37m18.33-10.58-.3.17-22.78,57.87L455,342l-.17-60.25M275,319l.54,50.45,16-9.23c2.82-21.07,16.07-44.07,32.9-57.11l0-11.16L275,319m-15.17,8.3.16,14.22-.16-14.22h0m-74.91,41-3.67,55.58,30.52-17.62-.6-52.33-26.25,14.37m-92.47,53.1h0L62.09,478l30.36-56.6m80-46.2h0l-2.76,41.93,2.77-41.93M403.87,225.67l-35.93,22.65-13,45.31a20,20,0,0,1,3.14,1.08l45.79-69m50.63-56L366.72,302.06a30.45,30.45,0,0,1,4.54,12.13L454.78,266l-.27-96.28M188,321.43l-1.86,28.24,38-20.78-38,20.78L188,321.43l59.17-20.56L188,321.43m-51.54,17.91-30.31,56.51,67.52-39,2.06-31.17-39.27,13.64m57.6-35.94h0l44.17-15.35L194.07,303.4M389.59,172.8,373.91,227.5l46.37-26.57,34.17-51.52,0-8.29L389.59,172.8m64.69-85.36-15.11,44.67,15.22-7.1-.11-37.57M168.1,236.51,63.78,296.74l-2.19,4.7V298L62.86,749.2,455.51,522.5l-.1-36.65c-26.71-5.59-47.37-16.49-63.41-30.1l6.88,99.45-15.12,8.73-1.93-27.53L338.91,563l.08,26.74-13.72,7.92-.09-30.79L199.61,620c1.61,2.75,3.16,5.55,4.63,8.45a287.63,287.63,0,0,1,13.45,31.31l-33.8,19.51-15.35,8.86-29.37,17c1-4.4,1.85-8.72,2.59-12.9,2.63-14.82,4.66-33.8,2.62-48.82l-2.75,1.16-.12-2.93-31.77,47.91-3.46,7.91-1.62-.25L74.74,742.34,62.86,749.2l0-9.28,29.55-44.55-29.69-4.52-.05-18.72-.05-18.41L105,596.05a161,161,0,0,0-39.44-20.4l-1.1-19.2h0l-1-18.13L62.2,516.26a193.61,193.61,0,0,1,77,33.4l46.55-63.22-97.11,6.77L62.18,508.48l0-15.81L168.78,431.1,62.13,492.67l0-14.65L62,456.74,75.8,431.07l-.13,0-1.71,1,.28-.5L62,435.75l0-16.35,23.52-8,3-5.34,1.12-.65,30.67-57.18-15.35,28.61-43,14.57v-2l13.48-28.91,47.05-16.35h0l-60.6,21.05,0-15.91,117.71-40.9,23.93-44.62L61.64,318.18l0-15.91L157,265.71l11.09-29.2m72.34-41.76L185.5,226.47l-12.62,33.16,41.24-15.8,26.32-49.08M324,146.51l-66.29,38.27L224.85,246l55.91-19.95-20.83,54.46,64.37-22.37L324,146.51m72.87-42.07L337.7,138.59l.44,156.61a37.12,37.12,0,0,1,4.41-1.38l54.29-189.38m44.39-25.63-21,62.13L395.4,152.53h0l24.83-11.58,21-62.14"/><path class="cls-29" d="M411.63,95.91l-14.78,8.53L342.56,293.82a25.62,25.62,0,0,1,12.39-.19l13-45.31-4.59,2.89L362.5,234l11.4-6.53,15.68-54.69-1.32.65-.84-17.19,8-3.72h0l16.24-56.62"/><path class="cls-29" d="M395.69,431.41l-1.6,4.06-3.49.16L392,455.75c16,13.61,36.7,24.51,63.41,30.1l-.06-20.75q-1.49-.4-3-.82l-.3-.08c-4.65-1.26-10-3.29-10-3.29h0l-4.58,12.72L426,471.56l5.44-15.1a125.37,125.37,0,0,1-35.73-25m-37.85-66.1a91.43,91.43,0,0,1-13.05,16.22c5.77,17.64,14.52,37.11,28.38,54.67l12.12-13.75.73-1.86c-14.09-17.67-22.68-37.57-28.18-55.27"/><path class="cls-29" d="M92.38,695.36,62.83,739.92l0,9.28,11.88-6.86,29.91-45.11-12.27-1.87m45.51-68.62-34.24,51.62,10.3,1.57-4.21,9.63,31.77-47.91-.45-10.94q-1.57-2-3.18-4m95.25-143.62-62.88,94.81q1.82,2,3.59,4.14l1.91-1.61,2.77,5.39,17.75-26.76-.5-12.29,11.92-4.92,38.48-58-7.07,4.08.54-5.26-6.51.45m63-95L245,465.29l3.45-.24L265,455.5l39.78-60a20.15,20.15,0,0,1-8.64-7.36M454.45,149.4l-34.17,51.52,11.81-6.76-11.66,21.07-16.56,10.44-45.79,69a20.14,20.14,0,0,1,8.64,7.35L454.51,169.7l-.06-20.29"/><path class="cls-29" d="M325.17,566.9l.09,30.79L339,589.78,338.91,563l-5.8,3.6-.12-3-7.81,3.31m13.55-69.25L334.87,502l.12,3-4.42,1.82-.78.88,0-.56-4.77,2,.12,42,11-4.64.1,2.32,2.67-1.66-.14-49.55m-.31-110.55a61.17,61.17,0,0,1-6.86,4.63,47.62,47.62,0,0,1-6.86,3.29l.07,26,12.95-7.47L334.16,433l-9.35,5.4.16,55,4.35-1.79-.17-5.55,9.51-10.79-.25-88.23m-.7-248.51L324,146.51l.32,111.64,7.2-2.5-.32,14.63,4.63-2.53-1.65,18.87L324.39,292l0,11.16a61.19,61.19,0,0,1,6.86-4.63,47.58,47.58,0,0,1,6.87-3.29l-.44-156.61"/><path class="cls-29" d="M454.82,281.2l-.3.76.3-.17v-.59m-163.3,79-16,9.23.07,6.17-15.08,11.85-.11-9.29-33.52,19.35.09,8L211.9,417.37l-.13-11.1L181.25,423.9l-.88,13.38-11.93-1,.34-5.19L62.13,492.67l0,15.81,26.46-15.28,7.68-17.54,25.83-1.8L291.57,376a47.37,47.37,0,0,1-.6-7.57,60.88,60.88,0,0,1,.56-8.24M454.78,266l-83.52,48.22a47.33,47.33,0,0,1,.6,7.57,60.89,60.89,0,0,1-.56,8.24l65.19-37.64L442,278.27l12.77-.6,0-11.7"/><path class="cls-29" d="M331.5,376.54c-15.06,8.69-27.3,1.67-27.35-15.69s12.11-38.46,27.17-47.15,27.3-1.68,27.35,15.67-12.12,38.47-27.17,47.16m-.22-78a61.19,61.19,0,0,0-6.86,4.63c-16.84,13-30.08,36-32.9,57.11a60.88,60.88,0,0,0-.56,8.24,47.37,47.37,0,0,0,.6,7.57,30.45,30.45,0,0,0,4.54,12.13,20.15,20.15,0,0,0,8.64,7.36c5.52,2.43,12.38,2.38,19.94-.49a47.62,47.62,0,0,0,6.86-3.29,61.17,61.17,0,0,0,6.86-4.63,73.89,73.89,0,0,0,6.38-5.58,91.43,91.43,0,0,0,13.05-16.22c7-11,11.88-23.44,13.47-35.31a60.89,60.89,0,0,0,.56-8.24,47.33,47.33,0,0,0-.6-7.57,30.45,30.45,0,0,0-4.54-12.13,19.78,19.78,0,0,0-11.78-8.43,25.62,25.62,0,0,0-12.39.19,37.12,37.12,0,0,0-4.41,1.38,47.58,47.58,0,0,0-6.87,3.29"/><path class="cls-34" d="M331.32,313.7c-15.06,8.69-27.22,29.8-27.17,47.15s12.29,24.38,27.35,15.69,27.22-29.81,27.17-47.16S346.38,305,331.32,313.7"/><path class="cls-29" d="M199.3,468.48l5.09,11.33-4.13,5.61,32.87-2.29,6.51-.45L241,469.32l7.4-4.27-3.45.24-45.66,3.18m-103,7.18-7.68,17.54,97.11-6.77,13.2-17.93-76.81,5.36-25.83,1.8"/><polyline class="cls-29" points="62.64 672.13 62.69 690.84 92.38 695.36 104.65 697.23 106.28 697.48 109.74 689.57 113.95 679.94 103.65 678.37 62.79 672.15 62.64 672.36 62.64 672.13"/><path class="cls-29" d="M194.07,303.41l-5.55,10.35-.51,7.68,59.17-20.56,77-26.74,7-3.85.32-14.63-7.2,2.5-64.37,22.37h0l-21.68,7.53-44.17,15.35m-132.35,46,0,15.91,60.6-21.05,10.41-19.4L138,336.5l-1.53,2.84,39.27-13.64.55-8.32-1.55-.11,1.78-3.32.11-1.68.76.06,2.06-3.84L61.72,349.39"/><path class="cls-29" d="M62.07,469.71V464.8l2.91-.93-2.9,5.84m30.38-48.29-4.19,2.42-1.8,3.62L75.8,431.07,62,456.74,62.09,478l30.36-56.6m40.33-96.59-10.41,19.4h0l-2.16,4L89.54,405.45l16.62-9.6,30.31-56.51L138,336.5l-5.22-11.66"/><path class="cls-29" d="M88.26,423.84l-12.6,7.27.13,0,10.67-3.61,1.8-3.62M61.92,419.4l0,16.35,12.26-4.15,11.22-20.16-23.52,8"/><polyline class="cls-29" points="63.78 296.74 61.58 298.01 61.59 301.44 63.78 296.74"/><polyline class="cls-29" points="62.05 464.8 62.07 469.71 64.97 463.87 62.05 464.8"/><path class="cls-29" d="M176.51,313.94l-1.78,3.32,1.55.11.23-3.43m81.18-129.16-17.25,10-26.32,49.08,8.91-3.42-9.77,19.67-9.9,3.79-23.93,44.62-2.06,3.84,11.17.93,0,.5,5.55-10.35h0L224.85,246h0l32.84-61.23"/><path class="cls-29" d="M176.36,373l-3.9,2.25-2.77,41.93-.92,13.94h0l-.34,5.19,11.93,1,.88-13.38,3.67-55.58L176.36,373v0m.26-60.71-.11,1.68-.23,3.43-.55,8.32-2.06,31.17,4.31-2.49,0-.26,8.14-4.46L188,321.43l.51-7.68,0-.5-11.17-.93-.76-.06"/><polyline class="cls-29" points="177.99 354.38 173.68 356.87 106.16 395.85 89.54 405.45 88.42 406.1 85.45 411.44 74.23 431.6 73.95 432.1 75.66 431.11 88.26 423.84 92.45 421.42 92.45 421.42 172.53 374.28 172.46 375.22 172.47 375.22 176.36 372.97 177.99 354.38"/><polyline class="cls-29" points="178.01 354.13 177.99 354.38 176.36 372.97 176.36 373 184.92 368.32 211.16 353.95 211.16 353.34 226.27 339.56 226.33 345.64 259.83 327.31 259.83 327.31 259.78 323.45 274.89 309.67 275 319.01 324.39 291.97 334.16 286.62 335.81 267.75 331.18 270.28 324.14 274.13 324.16 274.13 224.11 328.89 186.15 349.67 178.01 354.13"/><polyline class="cls-29" points="226.27 339.56 211.16 353.34 211.16 353.95 211.77 406.28 211.9 417.37 226.97 405.52 226.89 397.55 226.89 397.55 226.33 345.64 226.33 345.64 226.27 339.56"/><polyline class="cls-29" points="274.89 309.67 259.78 323.45 259.83 327.31 259.99 341.53 260.41 378.19 260.41 378.19 260.52 387.49 275.6 375.63 275.53 369.46 275 319.01 274.89 309.67"/><polyline class="cls-29" points="61.59 302.27 61.64 318.18 203.37 263.87 213.27 260.07 223.03 240.41 214.12 243.82 172.88 259.63 169.38 268.82 154.94 271.16 157.01 265.71 61.59 302.27"/><polyline class="cls-29" points="185.5 226.47 168.1 236.51 157.01 265.71 154.94 271.16 169.38 268.82 172.88 259.63 185.5 226.47"/><path class="cls-29" d="M334.87,502l-4.29,4.87,4.42-1.82-.12-3M195.76,546.8l.5,12.29h0l26.22-7.6h0l9.19-14.89,17.36-4.15-6.69,10.85L325,509.19l4.77-2-.47-15.54L325,493.47,207.68,541.88l-11.92,4.92"/><path class="cls-29" d="M206.52,601.39l-9.18,14.88q1.15,1.87,2.27,3.78L325.17,566.9,333,563.6l-.51-12.43,3.71-2.31-.1-2.32-11,4.64-118.61,50.2m-65.46,29.32.45,10.94.12,2.93,2.75-1.16a50.93,50.93,0,0,0-3.15-12.5l-.16-.21"/><path class="cls-29" d="M231.71,536.59l-9.19,14.89h0l-32.74,53.05c2.56,3.87,5.11,7.75,7.56,11.73l9.18-14.88,35.85-58.1,6.69-10.85-17.36,4.15"/><polyline class="cls-29" points="442.05 278.27 436.5 292.37 386.02 420.58 385.29 422.44 386.02 421.62 386.23 428.46 389.93 425.92 390.6 435.64 394.09 435.48 395.69 431.41 424.8 357.47 415.73 356.61 422.34 338.93 431.75 339.82 454.52 281.96 454.82 281.2 454.81 277.68 442.05 278.27"/><polyline class="cls-29" points="389.93 425.92 386.23 428.46 386.67 443.27 376.13 455.22 380.76 521.2 391 514.85 391.63 530.32 381.82 536.4 383.75 563.93 398.87 555.2 391.99 455.75 390.6 435.64 389.93 425.92"/><polyline class="cls-29" points="391 514.85 380.76 521.2 338.86 547.21 336.19 548.86 332.48 551.17 332.99 563.6 333.11 566.63 338.91 563.03 381.82 536.4 391.63 530.32 391 514.85"/><polyline class="cls-29" points="386.02 421.62 385.29 422.44 373.17 436.19 338.66 475.34 329.15 486.13 329.31 491.68 329.78 507.22 329.8 507.77 330.57 506.89 334.87 502.02 338.72 497.65 376.13 455.22 386.67 443.27 386.23 428.46 386.02 421.62"/><polyline class="cls-29" points="241.01 469.32 239.64 482.67 239.09 487.93 246.17 483.85 324.81 438.43 334.16 433.02 337.71 413.52 324.76 421 264.97 455.5 248.41 465.05 241.01 469.32"/><polyline class="cls-29" points="387.42 156.25 388.26 173.45 389.59 172.8 454.43 141.12 454.38 125.01 439.16 132.11 435.69 142.39 418.33 146.53 420.23 140.95 395.4 152.53 387.42 156.25"/><polyline class="cls-29" points="454.23 71.32 441.24 78.81 420.23 140.95 418.33 146.53 435.69 142.39 439.16 132.11 454.27 87.44 454.23 71.32"/><polyline class="cls-29" points="362.5 234.03 363.35 251.22 367.94 248.32 403.87 225.67 420.43 215.23 432.09 194.16 420.28 200.93 373.91 227.5 362.5 234.03"/><path class="cls-34" d="M196.26,559.1l-17.74,26.76,3.17,6.17.1.18c2.6,4.19,5.3,8.26,8,12.34l32.74-53.05h0l-26.22,7.6h0"/><polyline class="cls-34" points="172.53 374.28 92.45 421.42 62.09 478.02 62.13 492.67 168.78 431.1 169.7 417.15 172.46 375.22 172.53 374.28"/><polyline class="cls-25" points="226.33 345.64 226.89 397.55 226.89 397.55 260.41 378.19 260.41 378.19 259.99 341.53 259.83 327.31 226.33 345.64 226.33 345.64"/><polyline class="cls-25" points="441.24 78.81 411.63 95.91 395.39 152.53 395.4 152.53 420.23 140.95 441.24 78.81"/><polyline class="cls-25" points="75.31 360.59 61.84 389.5 61.84 391.45 104.85 376.88 120.2 348.27 122.37 344.24 75.31 360.59"/><polyline class="cls-29" points="422.34 338.93 415.73 356.61 424.8 357.47 455.05 360.35 455 342.04 431.75 339.82 422.34 338.93"/><polyline class="cls-29" points="455.13 390.62 431.42 456.45 425.99 471.56 437.48 473.62 442.06 460.9 455.23 424.34 455.21 416 451.98 415.32 455.18 407.77 455.13 390.62"/><polyline class="cls-29" points="455.18 407.77 451.98 415.32 455.21 416 455.18 407.77"/><path class="cls-34" d="M455.23,424.34,442.07,460.9h0s5.37,2,10,3.29l.3.08,3,.78-.12-40.72"/><polyline class="cls-25" points="224.85 246.02 194.07 303.4 194.07 303.4 238.24 288.06 259.93 280.53 259.93 280.52 280.76 226.07 224.85 246.02 224.85 246.02"/><polyline class="cls-25" points="188.01 321.44 186.15 349.67 224.11 328.89 324.16 274.13 324.14 274.13 247.19 300.87 188.01 321.44"/><path class="cls-29" d="M105,596.05,62.59,653.71l.05,18.41v.23l.15-.2,51.08-69.38q-4.31-3.52-8.83-6.72m94.13-127.86-.23.31-13.2,17.93L139.2,549.65q4.47,3.26,8.77,6.8l52.3-71,4.13-5.61-5.09-11.33-.13-.29"/><path class="cls-29" d="M62.2,516.26l1.26,22.06-.21-3.73c45,10.8,79.82,35.65,105.42,69.24l.08-.07.26.52a232,232,0,0,1,22.24,35.89,273.54,273.54,0,0,1,12.13,27.9l-17,9.82q-4.39-11.54-9.71-22.41a254.85,254.85,0,0,1-3.28,29.91l-18.66,10.77q.58-2.93,1.1-5.86c5-28.34,5.59-55.38-1.87-71.72-22.24-29-51.8-51-89.44-62.14l1.1,19.2A161,161,0,0,1,105,596.05q4.52,3.2,8.83,6.72a172.13,172.13,0,0,1,24,24q1.61,2,3.18,4l.16.21a50.93,50.93,0,0,1,3.15,12.5c2,15,0,34-2.62,48.82-.74,4.18-1.61,8.5-2.59,12.9l29.37-17,15.35-8.86,33.8-19.51a287.63,287.63,0,0,0-13.45-31.31c-1.46-2.9-3-5.71-4.63-8.45q-1.12-1.91-2.27-3.78c-2.45-4-5-7.86-7.56-11.73-2.69-4.08-5.4-8.15-8-12.34l-.1-.18-3.17-6.17h0l-2.77-5.39-1.91,1.61q-1.77-2.1-3.59-4.14A199.77,199.77,0,0,0,148,556.45q-4.3-3.54-8.77-6.8a193.61,193.61,0,0,0-77-33.4"/><path class="cls-35" d="M63.25,534.59l.21,3.73,1,18.13h0c37.64,11.12,67.2,33.13,89.44,62.14,7.45,16.33,6.9,43.37,1.87,71.72q-.52,2.92-1.1,5.86l18.66-10.77a254.85,254.85,0,0,0,3.28-29.91q5.34,10.85,9.71,22.41l17-9.82a273.54,273.54,0,0,0-12.13-27.9A232,232,0,0,0,169,604.28l-.26-.52-.08.07c-25.59-33.58-60.39-58.43-105.42-69.24"/></g></g></g><path class="cls-21" d="M299.17,178.52A18.12,18.12,0,0,1,304,190.89V549.08a49,49,0,0,1-24.53,42.43L126.26,679.77a18.1,18.1,0,0,1-13,2,18.37,18.37,0,0,0,22.87,3.67l153.25-88.26a49,49,0,0,0,24.53-42.43V196.53A18.37,18.37,0,0,0,299.17,178.52Z"/><path class="cls-28" d="M302.42,844.65c-28.79,16.74-33.87,41.18-11.28,54.31s64.62,10.18,93.41-6.56,33.87-41.18,11.29-54.31S331.21,827.91,302.42,844.65Z"/><path class="cls-36" d="M363.71,594.27s-3.88,10.49-5.41,13.35c-1,1.82-1.6,3.07-2.34,4.39-1,1.83-1.4,2.75-.87,3.39s1.6,1.08,3.76-2.59a17.82,17.82,0,0,1-5.55,6.3c-2.72,1.73-6.41,3.23-5.91,4.65s3.1.81,3.1.81-.24,2,3,1.22c0,0-.08,1.66,3.29.42,0,0,.77,1.6,4.08-.33s15.3-9.58,20.43-28.42Z"/><path class="cls-36" d="M403.41,536.18c-10.83,53.35-24.11,67.16-24.11,67.16l-17.09-4L373,532.19"/><path class="cls-36" d="M373.49,529.27a15.35,15.35,0,1,1,11,18.74A15.34,15.34,0,0,1,373.49,529.27Z"/><path class="cls-29" d="M364.52,445A23.07,23.07,0,1,1,381,473.14,23.07,23.07,0,0,1,364.52,445Z"/><path class="cls-29" d="M409.46,446.21c4.51,24.24,0,60.08-6.16,90.57L373,532.19l-9.17-80.13"/><path class="cls-29" d="M366.21,533.83a6.52,6.52,0,0,0,6.32,6.72l31,.95a6.52,6.52,0,0,0,6.72-6.32l.22-7.38a6.51,6.51,0,0,0-6.31-6.72l-31-1a6.51,6.51,0,0,0-6.71,6.32Z"/><path class="cls-37" d="M313.32,875.37c-6.27-6.27-13.85-8.85-16.94-5.75s-.53,10.68,5.73,17,13.86,8.85,16.95,5.76c1.87-1.86,1.73-9.48,1.73-11.36C319.73,879,315.81,877.86,313.32,875.37Z"/><path class="cls-36" d="M313.2,874.7c-4.09-3.89-9-5.41-10.89-3.38s-.19,6.82,3.9,10.71"/><path class="cls-37" d="M365.23,845c-6.26-6.27-13.85-8.85-16.95-5.75s-.51,10.68,5.75,17S367.88,865,371,861.93c1.87-1.87,1.73-9.48,1.72-11.36C371.63,848.62,367.72,847.46,365.23,845Z"/><path class="cls-36" d="M365.11,844.29c-4.09-3.89-9-5.41-10.89-3.38s-.18,6.81,3.89,10.71"/><path class="cls-38" d="M275.44,587.46l128.85,4.39L379.05,751.63l-5.8,98.22h0c-.1,3.35-3.07,6.07-8.54,6.06s-7.46-3-7.57-6.29h-.05s-9.27-62.31-13.81-102a575.74,575.74,0,0,1-3.18-62.79l-13.94,86.44-4.23,107.62c0,.11,0,.22,0,.34,0,3.33-3.23,6.06-9.26,6.05-5.76,0-8-2.79-8.19-5.94-.73-3.64-16.47-82.21-20.35-114.82C280.15,731.11,270.44,597.92,275.44,587.46Z"/><path class="cls-29" d="M265.14,476.92c-4.5,31.65-2.8,150.64-2.8,150.64,0,25.39,6.39,45.4,41.23,50.28,5.92.83,12.91.24,19.6-1.19,26.92-5.76,59.6-25.19,72.34-36.71C416.86,620.63,416,602.39,416,586.5V470.43c0,.09,0-39-33-51.68-25.11-9.66-63.73-.8-83.93,10.59C299.06,429.33,269.85,443.93,265.14,476.92Z"/><path class="cls-29" d="M265.14,476.92c-4.51,31.65-2.8,150.64-2.8,150.64,0,25.39,6.4,45.4,41.23,50.28,5.92.83,12.91.24,19.59-1.19,26.92-5.76,59.6-25.19,72.34-36.71C416.86,620.63,416,602.39,416,586.5V470.43c0,.09,0-39-33-51.68-25.11-9.66-63.73-.8-83.93,10.59C299.06,429.33,269.85,443.93,265.14,476.92Z"/><path class="cls-39" d="M267.66,466.29c3.56-3.72,8-6.29,13.59-6.29,20.14,0,18.77,22.82,18.77,22.82V610.89c0,49.26,11.17,62.93,18.44,66.61a53.26,53.26,0,0,1-14.9.34c-34.84-4.88-41.23-24.88-41.23-50.28,0,0-1.7-119,2.8-150.64A59.82,59.82,0,0,1,267.66,466.29Z"/><path class="cls-36" d="M351.43,413.33a41,41,0,0,0,6-22.25c-.08-7.47.47-17.5-2.68-23.12-4.89-8.73-15.26-11.24-24.17-11.15-14.63.15-26.32,15.73-26.13,34.8.12,11.29,4.38,21.26,10.86,27.5l0,2.48c.11,2.59,1.84,2.8,5.23,4.77,7,4.08,18.46,4.08,25.53,0,3.47-2,5.23-4.62,5.32-7.25l0-5.79h0"/><path class="cls-40" d="M339,336.2c9.16,2.31,16.65,7.09,21.79,18.29,3.81,8.29,3.32,29.58-.33,40-3.95,11.34-8.36,27.93-29.22,25.68-14.6-1.58-18.31-9.38-20.69-20.88-21.93-19.69-12.47-43.83-11.56-46a4.38,4.38,0,0,1-1.67-4.58,5,5,0,0,1,3.54-3.6s-2.17-4.07,6.66-6.74C317.44,335.4,330.61,334.08,339,336.2Z"/><path class="cls-41" d="M310.56,399.31c1,5.05,2.35,9.39,4.72,12.8v7c-6.3-6.06-10.48-15.65-10.83-26.54A44.18,44.18,0,0,0,310.56,399.31Z"/><path class="cls-42" d="M333.51,425c-7.8.68-15.06-1-19-3.25,0,0-7.49,3.22-9.33,4.08,0,0,24.31,10,40.92,2.09,14.59-7,7.41-13.16,7.41-13.16l-2.09-.82,0,3.63S349,423.6,333.51,425Z"/><path class="cls-43" d="M240.38,540l-87.17-21.18-9.61,14.62s40.41,26.07,85.93,42.64"/><circle class="cls-43" cx="236.1" cy="558.9" r="18.86" transform="translate(-350.91 405.51) rotate(-52.46)"/><path class="cls-43" d="M155.77,520.38s-9.09-6.2-11.45-8.35c-1.5-1.36-2.55-2.27-3.63-3.28-1.5-1.4-2.57-2.31-3-1.63-.85,1.25.35,3.72,3.33,6.65a20.22,20.22,0,0,1-4.94-2.6c-3.86-2.47-6.81-6.69-8.28-6.54s-1.52,2.76-1.52,2.76-1.84.06-.91,2.79c0,0-2.58.34-1.53,3.47,0,0-2.32-.32-1.26,3.3s9.24,10,26,19.41Z"/><path class="cls-29" d="M218.92,531.59a8.24,8.24,0,0,0-.4,11.64l26.73,28.66a8.23,8.23,0,0,0,11.64.4l6.82-6.36a8.24,8.24,0,0,0,.4-11.65L237.4,525.63a8.25,8.25,0,0,0-11.66-.4Z"/><path class="cls-29" d="M313,496.82v0L247.49,572l-18.8-28.66s-7.22,1.42-2.21-7c21.32-35.8,30.61-67.18,47.82-82.37,8.21-7.24,54.69,26.17,38.74,42.93"/><path class="cls-29" d="M268.52,466a27.21,27.21,0,1,1,10.16,37.11A27.21,27.21,0,0,1,268.52,466Z"/><path class="cls-44" d="M821.17,601.7v5.38c0,4.44-6.38,8-14.24,8s-14.24-3.6-14.24-8V601.7Z"/><ellipse class="cls-45" cx="806.93" cy="601.7" rx="14.24" ry="8.04"/><path class="cls-46" d="M780.32,578v5.38c0,4.44-6.38,8-14.24,8s-14.24-3.6-14.24-8V578Z"/><ellipse class="cls-45" cx="766.08" cy="577.96" rx="14.24" ry="8.04"/><path class="cls-47" d="M798.84,443.39V600.7c0,2.2,2.45,4,5.83,4.56a13,13,0,0,0,2.62.25c4.64,0,8.44-2.11,8.44-4.81V443.39a8.94,8.94,0,0,1,4.56-7.94,8.83,8.83,0,0,1,9.2,0l23.81,13.76a28.37,28.37,0,0,0,42.56-24.57V273.41H879V424.64a11.48,11.48,0,0,1-17.23,10l-23.81-13.85a26.17,26.17,0,0,0-26.09,0A25.78,25.78,0,0,0,798.84,443.39Z"/><path class="cls-48" d="M798.84,443.39V600.7c0,2.2,2.45,4,5.83,4.56V446.09c0-9,1.1-11.57,7.77-18.66s19.17-3.12,19.17-3.12,8.61,4.56,28.46,16.72,26-15.11,26-15.11V273.41H879V424.64a11.48,11.48,0,0,1-17.23,10l-23.81-13.85a26.17,26.17,0,0,0-26.09,0A25.78,25.78,0,0,0,798.84,443.39Z"/><path class="cls-47" d="M677.59,153.59V302.46a73,73,0,0,0,36.06,62.74l18.41,10.72a51.76,51.76,0,0,1,25.67,44.67V577.06c0,2.62,3.72,4.81,8.36,4.81h.08c4.73,0,8.44-2.2,8.44-4.81V420.59a68.77,68.77,0,0,0-34-59.28l-18.41-10.72a55.94,55.94,0,0,1-27.7-48.13V153.59Z"/><path class="cls-48" d="M677.59,153.59V302.46a73,73,0,0,0,36.06,62.74l18.41,10.72a51.76,51.76,0,0,1,25.67,44.67V577.06c0,2.62,3.72,4.81,8.36,4.81V416a51.94,51.94,0,0,0-25.67-44.67L722,360.64a72.92,72.92,0,0,1-36.05-62.82V153.59Z"/><path class="cls-49" d="M806.85,131.25,962,298.44l16,17.23v.08l20.52,22a37.12,37.12,0,0,0,12.5,4.56,31.57,31.57,0,0,0,6.33.59,24.07,24.07,0,0,0,2.45-.25l-5.91,7.85,22.63-12.92a38.16,38.16,0,0,0,16.21-19.42,37.12,37.12,0,0,0,2.36-13.09,87.66,87.66,0,0,0-5.49-30.74v-.08A88.12,88.12,0,0,0,1028,241.11a85.65,85.65,0,0,0-17.56-13.43l-185-107.24Z"/><path class="cls-50" d="M1019.72,342.69l-5.91,7.85,22.63-12.92a38.16,38.16,0,0,0,16.21-19.42l-41.71,24.15a31.57,31.57,0,0,0,6.33.59A24.07,24.07,0,0,0,1019.72,342.69Z"/><path class="cls-47" d="M977.92,315.67v.08l20.52,22a37.12,37.12,0,0,0,12.5,4.56l41.71-24.15a37.12,37.12,0,0,0,2.36-13.09,87.66,87.66,0,0,0-5.49-30.74Z"/><path class="cls-42" d="M962,279.27v19.17l16,17.23,71.6-41.38A88.12,88.12,0,0,0,1028,241.11Z"/><path class="cls-20" d="M998.69,353.77A37.83,37.83,0,0,0,1036.48,316a89.7,89.7,0,0,0-44.66-77.43L806.88,131.27v117l173,100.34A37.77,37.77,0,0,0,998.69,353.77Z"/><path class="cls-51" d="M815.32,145.93v97.51l168.74,97.9A29.3,29.3,0,0,0,1028,316h0a81,81,0,0,0-40.45-70.12Z"/><path class="cls-52" d="M819.72,148.48v92.67l168.74,97.9a28.92,28.92,0,0,0,25.74,1.75,29,29,0,0,1-30.14.54l-168.74-97.9V145.93Z"/><path class="cls-53" d="M962,282.11c0,14.88,10.62,33.05,23.71,40.59s23.71,1.6,23.71-13.28-10.62-33.05-23.71-40.6S962,267.23,962,282.11Z"/><polygon class="cls-29" points="970.09 293.83 970.09 284.51 987.51 294.59 982.34 287.05 988.46 283.38 1003.64 307.57 983.63 311.5 979.54 304.8 987.05 303.64 970.09 293.83"/><polygon class="cls-21" points="815.32 145.93 815.32 243.44 819.72 241.16 819.72 148.48 815.32 145.93"/><path class="cls-49" d="M573.93,15.27l-6.58.81,16.36-9.54.14.05a42,42,0,0,1,43.89-.8l164.51,95.16V218L600.86,107.27a74.74,74.74,0,0,1-37.21-64.51A42.37,42.37,0,0,1,573.93,15.27Z"/><path class="cls-42" d="M567.34,16.08l16.36-9.54.14.05a42,42,0,0,1,43.89-.8l.72.42L563.7,43.56c0-.27-.05-.53-.05-.8a42.37,42.37,0,0,1,10.28-27.49Z"/><polygon class="cls-21" points="792.24 100.95 792.24 217.16 773.66 228 773.66 111.79 792.24 100.95"/><path class="cls-20" d="M773.66,111.79,609.15,16.63a42.64,42.64,0,0,0-64.09,37,74.74,74.74,0,0,0,37.21,64.51l191.38,110.7Z"/><path class="cls-51" d="M553.51,53.6h0a66.08,66.08,0,0,0,33,57.2L765.22,214.18V116.66L604.93,23.94C582.08,10.73,553.51,27.21,553.51,53.6Z"/><path class="cls-53" d="M577.1,60.11c0,14.88,10.61,33.05,23.71,40.59s23.71,1.6,23.71-13.28-10.62-33.05-23.71-40.6S577.1,45.24,577.1,60.11Z"/><polygon class="cls-29" points="615.34 79.78 615.34 89.1 597.92 79.02 603.09 86.56 596.97 90.23 581.79 66.04 601.79 62.11 605.88 68.81 598.38 69.97 615.34 79.78"/><path class="cls-54" d="M581.75,19.89A34,34,0,0,0,559.25,52a66.08,66.08,0,0,0,33,57.2l173,100.06v4.9L586.51,110.8a66.08,66.08,0,0,1-33-57.2A34.19,34.19,0,0,1,581.75,19.89Z"/><path class="cls-52" d="M586.79,105.56a65.66,65.66,0,0,0,5.46,3.66l173,100.06v4.9L586.51,110.8c-1.42-.82-2.71-1.8-4-2.71Z"/><g class="cls-31"><g class="cls-55"><path class="cls-56" d="M851.88,204.61l-4.42-2.55-2.87,7.57c-.36,1-.67,2.16-1,3.23l-.12-.07c-.35-1.48-.68-3-1-4.42l-2.88-10.89-4.45-2.57L835,215.62l3.65,2.1,0-7.59c0-2-.31-5.24-.5-7.36l.12.07,1.42,5.76,2.54,9.39,2.24,1.29,2.6-6.42,1.48-4.09.12.07c-.2,1.89-.54,4.72-.55,6.75l0,7.59,3.71,2.14.06-20.72"/><path class="cls-56" d="M867.93,218.85l-4.07-2.35,0,10.42a1.72,1.72,0,0,1-2.44.34c-1.19-.69-1.71-1.71-1.7-4l0-9.18-4.07-2.35,0,9.79c0,3.94,1.25,7.09,4.24,8.81,1.88,1.08,3.15.83,4.32-.09l.08,0,.3,2.37,3.32,1.92,0-15.76"/><path class="cls-56" d="M876.23,223.25c-3.18-1.84-5.26-1-5.27,1.89,0,2.6,1.95,5,3.61,6.73,1.41,1.45,2.79,2.73,2.79,3.78,0,.82-.53,1-1.75.33a11.94,11.94,0,0,1-3.53-3.7l-1.83,1.87a17.62,17.62,0,0,0,5.24,5.22c3.68,2.12,5.65,1,5.66-1.83s-2-5.14-3.69-6.87c-1.41-1.42-2.68-2.54-2.68-3.55,0-.79.5-1,1.55-.35a10.23,10.23,0,0,1,2.9,3l1.83-1.74a15.68,15.68,0,0,0-4.83-4.79"/><path class="cls-56" d="M886.82,235.92c.29-1.84,1.39-2.19,2.66-1.45a4.7,4.7,0,0,1,2.29,4.31l-5-2.86m2.59-5.06c-3.29-1.9-6.48-.59-6.49,4.53a14.45,14.45,0,0,0,6.92,12.27,7.25,7.25,0,0,0,4.87,1l-1.35-3.61a4.57,4.57,0,0,1-3-.66,7.25,7.25,0,0,1-3.55-5.39l8.21,4.74a10.2,10.2,0,0,0,.17-2,12.41,12.41,0,0,0-5.81-10.93"/><path class="cls-56" d="M910.2,243.25l-4.07-2.35,0,10.42a1.72,1.72,0,0,1-2.44.34c-1.19-.69-1.71-1.71-1.7-4l0-9.18-4.07-2.35,0,9.79c0,3.94,1.25,7.09,4.24,8.81,1.88,1.08,3.15.83,4.32-.09l.08,0,.3,2.37,3.32,1.92,0-15.76"/><path class="cls-56" d="M929.72,254.14a3.78,3.78,0,0,0-4.32.14,8.23,8.23,0,0,0-3.78-4.82,3.68,3.68,0,0,0-4.16,0l-.11-.06-.27-2.19-3.32-1.92,0,15.76,4.07,2.35,0-10.65a2.19,2.19,0,0,1,2.32-.19c1.16.67,1.69,1.67,1.68,4l0,9.19,4.06,2.34,0-10.65a2.24,2.24,0,0,1,2.35-.17c1.16.67,1.68,1.67,1.68,4l0,9.19,4.07,2.35,0-9.79c0-3.94-1.31-7.12-4.27-8.83"/><path class="cls-56" d="M942.19,261.34c-3.18-1.84-5.26-1-5.27,1.89,0,2.6,2,5,3.61,6.73,1.41,1.45,2.79,2.73,2.79,3.78,0,.82-.53,1-1.75.33a12,12,0,0,1-3.53-3.7l-1.83,1.87a17.62,17.62,0,0,0,5.25,5.23c3.68,2.12,5.64,1,5.65-1.83s-1.95-5.14-3.69-6.87c-1.41-1.42-2.68-2.54-2.68-3.55,0-.79.5-1,1.55-.35a10.23,10.23,0,0,1,2.9,3l1.83-1.74a15.74,15.74,0,0,0-4.83-4.8"/></g></g><g class="cls-31"><g class="cls-57"><polyline class="cls-56" points="671.86 104.76 659.64 97.71 659.63 101.64 666.84 105.81 658.84 115.16 658.83 117.99 671.88 125.52 671.89 121.58 663.85 116.94 671.85 107.59 671.86 104.76"/><path class="cls-56" d="M680.13,126.88c-1.69-1-2.52-3.21-2.51-5.94s.84-4,2.53-3,2.5,3.2,2.5,5.93-.87,4-2.52,3m0-12.74c-3.49-2-6.7-.84-6.71,4.4a14.63,14.63,0,0,0,6.67,12.12c3.45,2,6.67.82,6.68-4.42a14.62,14.62,0,0,0-6.64-12.11"/><path class="cls-56" d="M695.48,135.74c-1.69-1-2.51-3.21-2.5-5.93s.84-4,2.53-3S698,130,698,132.71s-.87,4-2.53,3m0-12.74c-3.49-2-6.7-.84-6.71,4.4a14.63,14.63,0,0,0,6.67,12.12c3.45,2,6.67.82,6.68-4.42A14.62,14.62,0,0,0,695.51,123"/></g></g><path class="cls-28" d="M607.72,746.05c28,16.27,32.91,40,11,52.78s-62.8,9.9-90.78-6.37-32.91-40-11-52.78S579.75,729.79,607.72,746.05Z"/><path class="cls-58" d="M597.78,786.84c-6.06,6.07-13.41,8.55-16.42,5.55S580.83,782,586.89,776s13.41-8.55,16.42-5.55c1.81,1.81,1.68,6.56,1.69,8.39C604,780.67,600.18,784.43,597.78,786.84Z"/><path class="cls-36" d="M597.73,780.53c-4,3.79-8.71,5.26-10.58,3.3s-.18-6.62,3.79-10.41,8.71-5.26,10.58-3.29S601.69,776.74,597.73,780.53Z"/><path class="cls-58" d="M543.47,755.75c-5.82,5.83-12.88,8.21-15.77,5.33s-.51-10,5.32-15.78,12.88-8.22,15.77-5.33c1.74,1.74,1.62,6.3,1.62,8.05C549.43,749.83,545.78,753.44,543.47,755.75Z"/><path class="cls-36" d="M543.42,749.69c-3.82,3.64-8.36,5.05-10.16,3.17s-.17-6.36,3.64-10,8.36-5.05,10.16-3.16S547.23,746.06,543.42,749.69Z"/><path class="cls-38" d="M605,673.17s21.87-87.75,29.46-143.07l-133-23.65c-.56,26.9,6.61,80.86,9.63,118,4.56,55.89,23.81,120.4,23.81,120.4h0c.42,2,2.68,3.58,7.17,3.57,5,0,8.5-1.69,8.5-4.05l-2-89.7,9.79-76.29s4.74,56.86,8.26,87.23,21.47,108.48,21.47,108.48c0,3.18,2.32,5.77,7.74,5.77s9.11-2.35,9.14-5.5h0Z"/><path class="cls-29" d="M499.45,343.86c-10.22,21.67-14.83,56.47-16.52,86.66l29.65,3.14,28.35-73.07"/><path class="cls-36" d="M506,494.31s1.06,10.82,1.8,13.88c.47,1.95.76,3.29,1.12,4.71.51,2,.63,2.93,0,3.4s-1.77.62-2.9-3.36a17.37,17.37,0,0,0,3.67,7.29c2.13,2.29,5.24,4.61,4.41,5.82s-3.11,0-3.11,0-.27,2-3.09.42c0,0-.33,1.58-3.19-.42,0,0-1.13,1.31-3.76-1.31S488.91,512,488.73,493Z"/><path class="cls-29" d="M483,429.92c-3,52.82,5.26,69,5.26,69l17.92.48,6.43-65.78"/><circle class="cls-29" cx="497.9" cy="430.8" r="14.92"/><circle class="cls-29" cx="519.57" cy="353.77" r="22.42"/><path class="cls-29" d="M512.09,536.53c12.28,11.32,44.14,30.08,70.3,35.68a56.82,56.82,0,0,0,19,1.16c33.85-4.74,40.06-24.18,40.06-48.86l-.1-126.8c-.15-46.9-35.58-65.83-35.58-65.83-19.63-11.07-57.16-19.68-81.56-10.29-32.07,12.34-32.06,50.31-32.07,50.23s-2.83,21.59,6,47.58C498.23,419.4,478.34,505.41,512.09,536.53Z"/><path class="cls-28" d="M634.93,365.67c-5.67-4.76-12.15-6-18.83-5.21-14.51,1.81-11.23,18.77-11.23,18.77s14.86,134-17.79,160.3c-23,18.55-53.51,8.89-69.46,1.6,14.7,11.25,41.9,26.18,64.76,31.07a56.82,56.82,0,0,0,19,1.16c33.85-4.74,40.06-24.18,40.06-48.86l-.1-126.8A80.48,80.48,0,0,0,634.93,365.67Z"/><path class="cls-36" d="M553.95,259.11c-8.24-.33-17.91,1.71-22.68,9.65-3.07,5.11-2.84,14.41-3.11,21.32-.5,12.48,4.47,25.55,12.21,32.34v3.26l0,.06c.08,2.67,1.88,5.33,5.41,7.36,7.19,4.15,18.8,4.15,25.94,0,3.45-2,5.21-4.61,5.32-7.23l0-.12V302.84c0-.39,3.05-12.29,3.07-12.68C580.88,272.52,567.48,259.65,553.95,259.11Z"/><path class="cls-59" d="M551.22,327.13a17.55,17.55,0,0,1-10.85-4.71v3.26l0,.06c.08,2.67,1.88,5.33,5.41,7.36,7.19,4.15,18.8,4.15,25.94,0,3.45-2,5.21-4.61,5.32-7.23l0-.12V293.21C575.94,310.47,564.45,327.66,551.22,327.13Z"/><path class="cls-40" d="M577.1,293.78l-2.3,11.65,2.3,7.3c2-2.18,3-7.23,4.94-11.46,6.13-13.2,4.68-23.35,3.73-33.65-.4-4.3-1.71-21.79-14.64-22.84,0,0-6.83-7-25.91.37-11,4.26-17.45-.34-17.45-.34s-.92,4.4.82,7.57c0,0-10.36,9-.32,33.85.18-6.21,0-11.06,2.51-15.27,1.78-3,6.18-3.7,9.35-4.12,2-.16,5.54,1.19,5.54,1.19s4.93-1.48,6.93-1.32c14,1.1,13.86,6.87,13.86,6.87l.6,6.5v22.26s-.64,11.44-11.46,13.1c-4.47.69-8.9-3.93-8.9-3.93h-3.28s-2.74,4.25-5.33,3a15.72,15.72,0,0,1-8.42-10.61c.59,3,4.79,21.74,18.37,23.36,16.64,2,23-8.24,23-19.81V286.94s-.67-4,3.73-4S578.14,288.95,577.1,293.78Z"/><path class="cls-60" d="M529.68,303.84c-.05-.27-.08-.43-.08-.43S529.63,303.57,529.68,303.84Z"/><path class="cls-40" d="M550.55,301.76h-11s-3.13,2.85-3.13,5.65h17.31C553.68,304.61,550.55,301.76,550.55,301.76Z"/><polygon class="cls-53" points="594.94 489.17 591.43 484.49 588.93 485.56 571.76 526.45 571.55 526.45 571.55 526.45 571.76 526.45 571.87 526.45 611.34 578.16 622.19 576.51 639.18 536.19 599.75 483.6 597.24 483.85 594.94 489.17"/><path class="cls-61" d="M599.76,483.5"/><polygon class="cls-39" points="582.77 523.63 599.76 483.5 639.19 536 622.21 576.13 582.77 523.63"/><polygon class="cls-62" points="582.77 523.63 571.96 524.9 611.39 577.4 622.21 576.13 582.77 523.63"/><polygon class="cls-29" points="590.75 486.09 596.57 485.4 581.26 521.56 575.46 522.25 590.75 486.09"/><path class="cls-36" d="M620.59,552.6s-.87,10.83-1.55,13.91c-.43,2-.7,3.3-1,4.73-.47,2-.58,2.94.08,3.4s1.78.59,2.84-3.41a17.38,17.38,0,0,1-3.54,7.36c-2.08,2.32-5.15,4.7-4.3,5.9s3.11-.05,3.11-.05.31,2,3.09.36c0,0,.36,1.57,3.19-.48,0,0,1.15,1.29,3.73-1.38s11.79-13,11.64-32Z"/><path class="cls-29" d="M616.22,477.19l3,87.74,17.18-.53s13.12-34.52,16.34-89.63"/><circle class="cls-29" cx="634.39" cy="474.84" r="18.32" transform="matrix(1, -0.02, 0.02, 1, -8.46, 11.52)"/><path class="cls-29" d="M588.4,385,617,480.48l35.76-6s.57-8.86.58-18.38c0-40.05-5.69-70.17-16.51-91.52"/><circle class="cls-29" cx="613.2" cy="376.28" r="26.28" transform="translate(-1.43 2.34) rotate(-0.22)"/><g class="cls-31"><g class="cls-63"><path class="cls-56" d="M147.27,284.95c-4.56,2.63-8.5,8.92-8.48,15.78s3.84,8.41,8.41,5.77a15.47,15.47,0,0,0,5.83-6.41l-2.17-1.68a10.24,10.24,0,0,1-3.51,4c-2.66,1.53-4.37,0-4.39-4.21s1.94-7.8,4.4-9.22a3.12,3.12,0,0,1,3.18-.18l2.15-4.23c-1.22-.73-3.1-.91-5.43.43"/><path class="cls-56" d="M159.45,283.26l-4.07,2.35,0,15.75L159.5,299l0-15.75m-2.07-6A4.67,4.67,0,0,0,155,281c0,1.43,1,1.87,2.36,1.09a4.67,4.67,0,0,0,2.34-3.8c0-1.43-1-1.86-2.36-1.06"/><path class="cls-56" d="M167.62,274.34l-3.37,1.95-.45,4.47-2.11,1.41v3.46l1.88-1.09,0,6.38c0,3.65,1.35,5.33,4.74,3.37a16.48,16.48,0,0,0,3-2.33l-.65-3a6.68,6.68,0,0,1-1.3,1.06c-1.08.62-1.78.3-1.78-1.48l0-6.32,3.29-1.9v-3.65l-3.29,1.9v-4.2"/><path class="cls-56" d="M185.88,268,182,270.25,180.34,278c-.33,1.68-.63,3.35-.93,5l-.11.06c-.37-1.35-.7-2.64-1.09-3.85l-2-5.63-4.09,2.36,5.32,12.29-.19.94a5.14,5.14,0,0,1-2.4,3.45,4.23,4.23,0,0,1-.91.33l-.71,4a6.59,6.59,0,0,0,1.94-.8c3.24-1.87,4.69-4.75,6-9.47L185.88,268"/><path class="cls-56" d="M201.51,253.63c-4.56,2.63-8.5,8.92-8.48,15.78s3.84,8.41,8.41,5.77a15.43,15.43,0,0,0,5.82-6.41l-2.16-1.68a10.23,10.23,0,0,1-3.51,4c-2.66,1.53-4.37,0-4.39-4.21s1.94-7.8,4.4-9.22a3.12,3.12,0,0,1,3.18-.18l2.15-4.23c-1.22-.73-3.1-.91-5.43.43"/><path class="cls-56" d="M212.75,258.67a6,6,0,0,1,2.65-4.52c1.63-.94,2.3-.09,2.3,1.66l-4.95,2.86m2.55-8c-3.29,1.9-6.46,6.87-6.44,12s3,6.52,7,4.26a17.29,17.29,0,0,0,4.87-4.59l-1.37-2a10.4,10.4,0,0,1-3,2.76c-1.83,1.05-3.21.8-3.58-1.27L221,257a13.63,13.63,0,0,0,.16-2.16c0-4.28-2-6.44-5.86-4.19"/><path class="cls-56" d="M232.05,241a13.35,13.35,0,0,0-4.39,4.91l-.12.07-.28-1.84L224,246l0,15.75,4.07-2.35,0-10.64a7.4,7.4,0,0,1,2.54-3c1.16-.67,1.69-.28,1.69,2l0,9.18,4.07-2.35,0-9.78c0-3.94-1.29-5.62-4.28-3.89"/><path class="cls-56" d="M244.37,230,241,232l-.46,4.47-2.1,1.4v3.46l1.88-1.09,0,6.38c0,3.65,1.35,5.33,4.74,3.37a16.48,16.48,0,0,0,3-2.33l-.65-3a6.68,6.68,0,0,1-1.3,1.06c-1.08.62-1.78.3-1.78-1.48l0-6.32,3.29-1.9v-3.65l-3.29,1.9V230"/><path class="cls-56" d="M258,226a10.26,10.26,0,0,0-3.89,5.39l-.11.06-.29-2.6-3.31,1.91,0,15.75,4.06-2.34,0-9.15a7.65,7.65,0,0,1,3-4.63,5.32,5.32,0,0,1,1.49-.61l.65-4.42A4,4,0,0,0,258,226"/><path class="cls-56" d="M264.2,229a6,6,0,0,1,2.65-4.52c1.63-.94,2.3-.09,2.3,1.66L264.2,229m2.55-8c-3.29,1.9-6.47,6.88-6.45,12s3,6.52,7,4.25a17.26,17.26,0,0,0,4.86-4.58l-1.36-2.05a10.43,10.43,0,0,1-3,2.76c-1.83,1.05-3.21.8-3.58-1.27l8.21-4.74a13.59,13.59,0,0,0,.16-2.16c0-4.28-2-6.44-5.85-4.19"/></g></g><g class="cls-31"><g class="cls-64"><path class="cls-53" d="M216.75,306c-23.39,13.5-42.29,46.23-42.21,73.11.07,23.18,14.23,34.43,33.14,28.42,2.42-.77,2.26,1.37,2.55,4.11l7,66,6.51-72.77c.27-3,.17-6.06,2.46-8,19-15.77,33.09-43.4,33-66.65-.08-26.87-19.09-37.71-42.48-24.21"/></g></g><g class="cls-31"><g class="cls-65"><path class="cls-66" d="M203.21,352l-2.4,1.39-.92,3.23c-.28,1-.56,2-.85,3.08l-.06,0c-.28-.73-.55-1.39-.84-2.1l-.91-2.17-2.46,1.42,3.1,5.76v4.16l2.3-1.33v-4.16l3-9.31"/><path class="cls-66" d="M206.6,359.81c-1,.55-1.43-.16-1.43-1.71s.46-2.79,1.42-3.35,1.42.16,1.42,1.71-.47,2.81-1.41,3.35m0-7.2a8.26,8.26,0,0,0-3.77,6.85c0,3,1.82,3.63,3.79,2.49a8.27,8.27,0,0,0,3.75-6.84c0-3-1.83-3.62-3.77-2.49"/><path class="cls-66" d="M218.78,345.79l-2.3,1.33,0,5.88a3.5,3.5,0,0,1-1.37,1.78c-.67.39-1,.15-1-1.13v-5.19l-2.3,1.33,0,5.52c0,2.23.73,3.18,2.42,2.21a6.46,6.46,0,0,0,2.43-2.87l0,0,.18,1.14,1.88-1.08,0-8.9"/><path class="cls-66" d="M226.26,345.53l.25-1.22c.28-1.33.54-2.84.78-4.23l.06,0c.27,1.07.56,2.29.84,3.29l.24.94-2.17,1.25m2.49-8.31-2.76,1.6-3.15,13.54,2.34-1.35.62-3.14,3.11-1.8.63,2.42,2.44-1.41-3.23-9.86"/><path class="cls-66" d="M237.17,335A5.81,5.81,0,0,0,235,338l-.06,0-.16-1.47-1.88,1.08,0,8.9,2.3-1.33v-5.16a4.31,4.31,0,0,1,1.69-2.62,2.93,2.93,0,0,1,.85-.34l.36-2.5a2.17,2.17,0,0,0-.92.35"/><path class="cls-66" d="M240.7,336.62a3.39,3.39,0,0,1,1.49-2.55c.93-.53,1.3,0,1.31.94l-2.8,1.61m1.44-4.53a8.32,8.32,0,0,0-3.64,6.77c0,2.95,1.71,3.69,3.93,2.41a9.8,9.8,0,0,0,2.74-2.59l-.77-1.16a5.91,5.91,0,0,1-1.66,1.56c-1,.6-1.82.45-2-.72l4.64-2.68a8.09,8.09,0,0,0,.09-1.22c0-2.43-1.1-3.65-3.31-2.38"/><polyline class="cls-66" points="213.44 367.64 211.13 368.98 211.14 373.49 207.63 375.51 207.62 371 205.32 372.33 205.35 384.04 207.65 382.71 207.64 377.83 211.15 375.8 211.16 380.69 213.47 379.35 213.44 367.64"/><path class="cls-66" d="M217.43,371.64a3.4,3.4,0,0,1,1.5-2.55c.92-.53,1.3-.05,1.3.94l-2.8,1.61m1.45-4.54a8.32,8.32,0,0,0-3.64,6.78c0,2.94,1.72,3.68,3.93,2.4a9.7,9.7,0,0,0,2.75-2.59l-.77-1.16a5.91,5.91,0,0,1-1.67,1.56c-1,.59-1.81.45-2-.72l4.64-2.68a7.84,7.84,0,0,0,.09-1.22c0-2.42-1.1-3.64-3.31-2.37"/><path class="cls-66" d="M228.06,361.8a5.82,5.82,0,0,0-2.2,3l-.06,0-.16-1.47-1.87,1.08,0,8.91,2.29-1.32V366.9a4.33,4.33,0,0,1,1.7-2.62,3.1,3.1,0,0,1,.84-.34l.37-2.5a2.33,2.33,0,0,0-.93.36"/><path class="cls-66" d="M231.58,363.46a3.4,3.4,0,0,1,1.5-2.55c.92-.53,1.3-.05,1.3.94l-2.8,1.61m1.45-4.54a8.32,8.32,0,0,0-3.64,6.78c0,2.94,1.72,3.68,3.93,2.4a9.7,9.7,0,0,0,2.75-2.59l-.77-1.16a5.92,5.92,0,0,1-1.67,1.56c-1,.59-1.82.45-2-.72l4.64-2.68a7.17,7.17,0,0,0,.09-1.22c0-2.42-1.1-3.64-3.31-2.37"/></g></g><path class="cls-2" d="M406.31,905.42l96.57-55c10.53-4.81,25.59-8.64,36.32-3.06,9.77,5.09,25.87,15.5,33,19.55,5.41,3.08,24.18,14.33,12.49,20.68-34.39,18.7-68.42,39.73-103.34,58.73-6.6,3.59-16.27,4.89-26.41,4s-20.45-3.78-28.6-8.52l-17.12-10c-7.57-4.41-11.59-9.63-12-14.45S399.85,908.37,406.31,905.42Z"/><path class="cls-67" d="M482.47,663.3c-4.72.35-10.12,2.32-14.87,4.26-1.23.51-2.43,1-3.55,1.49q-3.56,1.58-7,3.23c-8.37,4-16.41,8.34-24.55,13L421,692c-7.65,4.5-15.72,9.48-23,14.54-11.13,7.68-15.82,12.21-17.32,13.8a22.66,22.66,0,0,0-4.25,5.59c-1.65,3.46-1.52,7.82-.49,11.42.17.64.38,1.25.59,1.88,0,.06.1.08.23.08-3-8-.89-14.73,4.59-15l12.23-.56c3.92-4.9,20.82-18.38,30.75-24.31,26.74-15.95,65.61-36.25,72.74-36.58C493.32,662.31,486.51,663,482.47,663.3Z"/><path class="cls-68" d="M396.49,621.07h0l0,0a1.88,1.88,0,0,1,1.36-.18A5.57,5.57,0,0,1,401,623.1a7.15,7.15,0,0,1,1.19,2.42l.06.23,0,.09a3.31,3.31,0,0,1-.15,2,1.57,1.57,0,0,1-1.16.92,3.07,3.07,0,0,1-2.14-.56l-.11-.07a7.11,7.11,0,0,1-2.17-2.37,5.78,5.78,0,0,1-.85-3.1A2,2,0,0,1,396.49,621.07Z"/><polygon class="cls-69" points="415.01 609.82 398.34 620.75 399.26 621.27 401.58 620.97 416.12 611.65 418.25 610.04 416.43 609.61 415.01 609.82"/><path class="cls-70" d="M429.83,619.84l21.9,60.54,3.09-.22L433.1,620c-1.55-4.29-4.81-7.07-8.25-7.31l-3.19.06C425.1,613,428.28,615.55,429.83,619.84Z"/><path class="cls-70" d="M425.24,608.11l-3.24-.22a11.5,11.5,0,0,0-7,1.94l3.24.22A17.3,17.3,0,0,1,425.24,608.11Z"/><path class="cls-70" d="M416.67,705.17l-3.24-.23-21.74-60.1a22.59,22.59,0,0,1-1.11-10.24c0-.18.05-.35.08-.52.71-5.06,3.25-10.45,7.68-13.34l3.24.22c-4.41,2.89-6.65,8.29-7.36,13.32a22,22,0,0,0,1.21,10.62Z"/><path class="cls-71" d="M394.93,645.07l20.93,58.28,4.23-2.06-21-58.39a16.57,16.57,0,0,1-.58-8.81,14.24,14.24,0,0,1,4.23-7.79,12.29,12.29,0,0,1,1.19-.93l16.67-10.93a7.66,7.66,0,0,1,5.41-1.3,8.41,8.41,0,0,1,3.81,1.95,12.2,12.2,0,0,1,3.29,5l21.75,60.1,3.56-3.74L437.21,617.9a16.61,16.61,0,0,0-4.52-6.84,11.85,11.85,0,0,0-5-2.61,12.07,12.07,0,0,0-9.48,1.59L401.58,621l0,0-.07.06c-3.81,2.55-6.17,6.91-7.19,11.27A22.44,22.44,0,0,0,394.93,645.07Z"/><path class="cls-72" d="M396.47,621.09l19.87-12.9c1-.71,2.47,0,3.39.79a7.11,7.11,0,0,1,1.64,2,6.19,6.19,0,0,1,.85,2.58,2.79,2.79,0,0,1-.27,1.55,1.62,1.62,0,0,1-.51.57l-19.87,12.9c1.3-1.66.14-4.7-1.63-6.4A3.6,3.6,0,0,0,396.47,621.09Z"/><path class="cls-68" d="M396.49,621.07h0l0,0a1.88,1.88,0,0,1,1.36-.18A5.57,5.57,0,0,1,401,623.1a7.14,7.14,0,0,1,1.19,2.42l.06.23,0,.09a3.31,3.31,0,0,1-.15,2,1.57,1.57,0,0,1-1.16.92,2,2,0,0,1-.37,0c.17-.26.35-.51.53-.76l-1.48-5.53h0v0l-2.9-.5q-.55.49-1.06,1c0-.11,0-.22,0-.33A2,2,0,0,1,396.49,621.07Z"/><path class="cls-73" d="M432.9,897.2l9-5.23c4-2.32,9,.78,12.16,3.79a26,26,0,0,1,5.45,7.64,22.66,22.66,0,0,1,2.42,9.63,10.22,10.22,0,0,1-1.42,5.57,5.92,5.92,0,0,1-2,1.94l-9,5.23c1.67-3.31,1-13.81-1.88-18.81C445.24,902.69,436.37,897.09,432.9,897.2Z"/><path class="cls-74" d="M431.61,895l26.25-15.25.07,0c2.56-1.42,5.52-.84,8,.34a23.37,23.37,0,0,1,8.25,7.13l.36.49a31.12,31.12,0,0,1,3.36,5.88,24.81,24.81,0,0,1,2.2,9.63c0,4-1.39,7-3.79,8.36L450.1,926.79a11.43,11.43,0,0,0,3.26-8.52c0-6.63-5-16.34-10.27-20.45l-.34-.26C439.77,895.3,433.87,893.68,431.61,895Z"/><path class="cls-75" d="M440.93,895.86c7.19,4.15,13,14.3,13,22.56,0,5.15-2.3,8.58-6.1,9.16l-1.41-3.39c3-.46,4.84-3.19,4.85-7.3,0-6.6-4.63-14.64-10.37-18-3-1.75-5.91-1.9-7.91-.39l-2-3.13C433.48,893.53,437.13,893.67,440.93,895.86Z"/><path class="cls-76" d="M512.58,677.75h0q31,84,62,168a24.75,24.75,0,0,1,1.08,3.4c1.67,6.81,0,12.83-7.36,18.89a141.15,141.15,0,0,1-13.64,10.58c-11.47,8.09-23.52,15-35.67,22l-3.85,2.21c-1.87,1-4.37,2.44-6.26,3.47-5.8,3.1-11.33,5.83-17.32,8.72l-.06,0c-5,2.31-11.51,5.13-16.57,6.44a29.11,29.11,0,0,1-6,1.09c-.68,0-6.54-.32-8.14-.54a2.08,2.08,0,0,1-.63-.16.54.54,0,0,1-.24-.3h0c-2.7-11-13.86-29.22-26.47-28.65l-1-2.15L376.51,739.21h0c-.22-.63-.42-1.24-.59-1.88-1-3.59-1.17-8,.49-11.42a22.66,22.66,0,0,1,4.25-5.59c1.5-1.59,6.2-6.13,17.32-13.8q1.78-1.23,3.61-2.46c3.78,1,5.93,1.9,9.68-.29l47.37-27.68c6.8-4-2.85-3.22-1.5-3.86q3.41-1.63,6.91-3.18c1.12-.48,2.32-1,3.55-1.49,4.75-1.95,10.15-3.91,14.87-4.26,4-.3,10.85-1,14.58-.44h0a14.21,14.21,0,0,1,7,3.06,21.6,21.6,0,0,1,4.29,4.3,31.33,31.33,0,0,1,4.14,7.37l.06.16ZM376.74,739.28h0c-.13,0-.2,0-.22-.07Z"/><path class="cls-77" d="M574.92,846.78c.07.21.06.15,0,0,.22.6-5.81,4.6-9.35,6.89-14.22,9.2-29.14,17.72-43.79,26.24-10.28,6-20.61,11.81-31.07,17.46l-.44.23c-2,1.05-15.81,8.21-19.09,9.25,1.73,4.68,2.27,13.61-3.91,14.86-.22,0-7.14-.1-7.37-.07a.53.53,0,0,0,.24.3,2.08,2.08,0,0,0,.63.16c1.6.22,7.47.57,8.14.54a29.11,29.11,0,0,0,6-1.09c5.07-1.31,11.55-4.14,16.57-6.44l.06,0c6-2.89,11.52-5.62,17.32-8.72,1.88-1,4.38-2.42,6.26-3.47l3.85-2.21c12.15-7.06,24.2-13.94,35.67-22a141.24,141.24,0,0,0,13.64-10.58c7.41-6.06,9-12.08,7.36-18.89C575.43,848.35,575.18,847.51,574.92,846.78Z"/><path class="cls-78" d="M472.32,914.39c-.2,3.46-1.55,6.62-5,7.32-.22,0-7.14-.1-7.37-.07a.54.54,0,0,0,.24.3,2.08,2.08,0,0,0,.63.16c1.6.22,7.47.57,8.14.54a29.11,29.11,0,0,0,6-1.09c5.07-1.31,11.55-4.14,16.57-6.44l.06,0c6-2.89,11.52-5.62,17.32-8.72,1.88-1,4.38-2.42,6.26-3.47l3.85-2.21c12.15-7.06,24.2-13.94,35.67-22a141.15,141.15,0,0,0,13.64-10.58c6.69-5.47,8.66-10.92,7.75-16.94a24.12,24.12,0,0,1-6.08,7c-2.66,2.4-10.26,8.48-17,13.17-11.47,8.09-23.52,15-35.67,22l-3.85,2.21c-1.87,1-4.37,2.44-6.26,3.47-5.8,3.1-11.33,5.83-17.32,8.72l-.06,0c-5,2.31-11.51,5.13-16.57,6.44Z"/><path class="cls-77" d="M482.47,663.3c-4.72.35-10.12,2.32-14.87,4.26-1.23.51-2.43,1-3.55,1.49-2.36,1-4.83,2.2-7.13,3.29l.47,1.42c.73,1.4,1.41,2.25.67,2.65l-42.75,24.47c-3,1.57-4.81,1-8-.48-1.22.82-8.18,5.29-9.37,6.11-11.13,7.68-15.82,12.21-17.32,13.8a22.66,22.66,0,0,0-4.25,5.59c-1.65,3.46-1.52,7.82-.49,11.42.17.64.38,1.25.59,1.88,0,.06.09.08.23.08-3-8-.89-14.73,4.59-15l12.23-.56c3.92-4.91,20.82-18.38,30.75-24.3,26.74-15.95,65.61-36.25,72.74-36.58C493.32,662.31,486.51,663,482.47,663.3Z"/><path class="cls-77" d="M471.19,906.85,408.84,737.8c-3-8-9.81-14.32-15.29-14.06l-12.23.56c-5.48.25-7.55,7-4.59,15h0c-.13,0-.21,0-.23-.08l55.93,151.64,1,2.15c12.61-.58,23.77,17.68,26.47,28.65,2.49.07,4.28.29,6.7.17C472.09,921.56,474.15,914.85,471.19,906.85Z"/><path class="cls-79" d="M439.16,904.95a14.78,14.78,0,0,1,6.76,11.62c0,4.26-3.07,6-6.81,3.85a14.78,14.78,0,0,1-6.77-11.62C432.36,904.52,435.41,902.8,439.16,904.95Z"/><path class="cls-80" d="M438,904.74a7.66,7.66,0,0,1,1.19.55,10.24,10.24,0,0,1,1.36,1c.15.12.28.27.42.4a11.59,11.59,0,0,1,.83.81c.21.23.4.48.6.72s.31.37.45.56c.3.41.57.83.83,1.27l.13.24c.24.43.46.86.66,1.31l.05.11a14.31,14.31,0,0,1,.53,1.44l.07.22a12.55,12.55,0,0,1,.32,1.4l0,.23a9.63,9.63,0,0,1,.12,1.46,7.18,7.18,0,0,1-.13,1.4l0,.06a4.93,4.93,0,0,1-.31,1c0,.1-.09.2-.14.29a3.86,3.86,0,0,1-.36.55,3.28,3.28,0,0,1-.24.3,3.14,3.14,0,0,1-.35.29,3.27,3.27,0,0,1-.53.35,3.11,3.11,0,0,1-.57.21l-.28.08a3.73,3.73,0,0,1-1,0,5.44,5.44,0,0,1-.79-.17c-.14,0-.28,0-.43-.09a7.25,7.25,0,0,1-1.3-.6,10.21,10.21,0,0,1-1.17-.81l-.33-.28q-.41-.35-.8-.74l-.32-.34c-.3-.33-.6-.68-.88-1.05l-.11-.14a16,16,0,0,1-.88-1.34c-.08-.13-.14-.27-.22-.41-.17-.31-.34-.63-.49-1s-.27-.65-.4-1-.19-.48-.27-.72-.1-.36-.15-.55c-.09-.33-.17-.67-.23-1,0-.14,0-.28-.07-.42a9.79,9.79,0,0,1-.11-1.36,7,7,0,0,1,.12-1.29c0-.07,0-.14,0-.2a5.28,5.28,0,0,1,.33-1l.08-.16a3.69,3.69,0,0,1,.52-.8l.09-.09a3.2,3.2,0,0,1,.67-.54l.08-.05a3.2,3.2,0,0,1,.83-.31l.26,0a3.75,3.75,0,0,1,.69,0l.39,0a5.22,5.22,0,0,1,1,.22l.17.06Zm-8.49,0c0,.55,0,1.1.08,1.66,0,.06,0,.11,0,.17s0,.2,0,.29c.06.51.14,1,.25,1.54,0,.09,0,.18,0,.28s0,.08,0,.12c.16.73.36,1.46.6,2.19,0,.07,0,.14.06.2s.09.23.13.35c.1.29.21.58.32.87s.17.44.27.66.25.57.38.86.12.28.18.42l.09.16q.49,1,1.07,2l.22.36c.38.62.78,1.22,1.2,1.81l.08.12,0,0c.42.57.85,1.1,1.31,1.63l.33.38c.44.49.89,1,1.36,1.41l.08.08c.49.46,1,.88,1.52,1.28l.38.29a17.2,17.2,0,0,0,1.61,1.07c.41.24.81.44,1.2.63l.4.16c.26.11.52.22.77.31s.3.08.45.13.45.14.67.19l.47.07c.21,0,.42.08.62.09h.08a7.21,7.21,0,0,0,1.4,0l.28,0a5.84,5.84,0,0,0,1.27-.35l.09,0,.24-.13a5,5,0,0,0,.51-.27l.34-.23a5.6,5.6,0,0,0,.44-.35l.16-.13s.06-.08.09-.11a6.3,6.3,0,0,0,.92-1.16l.05-.06c0-.05.05-.12.08-.18a8,8,0,0,0,.5-1c0-.07.06-.12.09-.19l0-.12a9.63,9.63,0,0,0,.36-1.32v0c0-.06,0-.13,0-.18a11.73,11.73,0,0,0,.16-1.18c0-.05,0-.09,0-.15,0-.32,0-.66,0-1,0-.19,0-.37,0-.55s0-.26,0-.39c0-.29,0-.57-.07-.87,0-.11,0-.21,0-.32s0-.23-.06-.34c0-.28-.08-.57-.14-.85,0-.13,0-.25-.06-.38l-.07-.29c-.06-.29-.14-.58-.21-.87s-.06-.29-.1-.43,0-.15-.07-.23c-.09-.31-.19-.61-.29-.91,0-.15-.09-.31-.15-.47l-.06-.16c-.13-.36-.27-.71-.41-1.06-.06-.14-.1-.28-.16-.41l0-.07q-.34-.78-.73-1.55l0,0-.11-.2c-.24-.46-.49-.91-.75-1.35l-.1-.18-.18-.28q-.41-.66-.84-1.29l-.19-.28-.09-.11q-.77-1.07-1.63-2l-.14-.17L446,902c-.21-.23-.43-.45-.65-.68l-.48-.47c-.23-.22-.47-.43-.71-.64l-.47-.41c-.27-.22-.54-.42-.81-.62l-.41-.31c-.41-.29-.83-.56-1.26-.81s-.86-.46-1.28-.65l-.07,0-.32-.12c-.3-.12-.59-.24-.87-.33l-.46-.13c-.25-.07-.5-.13-.75-.18l-.21-.05h-.17a7.85,7.85,0,0,0-1.54-.08h0l-.15,0a6.16,6.16,0,0,0-1,.18l-.17,0-.15.06a5.37,5.37,0,0,0-.79.32l-.18.07,0,0a5.57,5.57,0,0,0-.85.58l0,0-.15.15a5.92,5.92,0,0,0-.55.55l-.07.08c-.06.07-.11.16-.17.24a6.35,6.35,0,0,0-.37.54l-.1.14c0,.08-.08.17-.12.25s-.2.39-.29.6-.07.14-.1.21,0,.16-.07.24-.15.45-.21.68-.07.19-.09.29,0,.13,0,.2c-.06.27-.11.55-.15.84,0,.12,0,.23-.06.35s0,.09,0,.13c0,.45-.08.92-.08,1.4,0,0,0,0,0,.07Z"/><path class="cls-36" d="M409.2,621.74s3.47,7.59-.19,12-9.46,2.09-9.46-.19S403.8,617.94,409.2,621.74Z"/><path class="cls-36" d="M415.05,618.82s3.47,7.59-.19,12-9.46,2.09-9.46-.19S409.65,615,415.05,618.82Z"/><circle class="cls-53" cx="552.05" cy="172.48" r="46.5"/><path class="cls-29" d="M554.71,164.52c0-2.23-1.47-3.42-3.64-3.42-2,0-3.48,1-4.94,2.5l-4.4-4a12.86,12.86,0,0,1,9.88-4.94c6.14,0,10.75,2.88,10.75,9.29,0,6.73-8.15,8.74-7.5,15.21h-7C546.78,171.69,554.71,168.59,554.71,164.52Zm-3.37,17.76a5,5,0,0,1,0,10,5,5,0,0,1,0-10Z"/></g></g></svg>