<svg xmlns="http://www.w3.org/2000/svg" xmlns:xlink="http://www.w3.org/1999/xlink" viewBox="0 0 484.3 430.77"><defs><style>.cls-1{fill:none;}.cls-2{isolation:isolate;}.cls-3{clip-path:url(#clip-path);}.cls-4{fill:#dcddde;}.cls-5{clip-path:url(#clip-path-2);}.cls-6{fill:#f5f5f5;}.cls-7{fill:#86bdff;}.cls-8{clip-path:url(#clip-path-3);}.cls-9{fill:#82baff;}.cls-10{fill:#81baff;}.cls-11{fill:#80b9ff;}.cls-12{fill:#7fb8ff;}.cls-13{fill:#7eb8ff;}.cls-14{fill:#7db7ff;}.cls-15{fill:#7cb6ff;}.cls-16{fill:#7bb6ff;}.cls-17{fill:#7ab5ff;}.cls-18{fill:#79b4ff;}.cls-19{fill:#78b4ff;}.cls-20{fill:#71b0ff;}.cls-21{clip-path:url(#clip-path-4);}.cls-22{fill:#9bcaff;}.cls-23{fill:#9ac9ff;}.cls-24{fill:#99c9ff;}.cls-25{fill:#98c8ff;}.cls-26{fill:#97c7ff;}.cls-27{fill:#96c7ff;}.cls-28{fill:#95c6ff;}.cls-29{fill:#94c5ff;}.cls-30{fill:#93c5ff;}.cls-31{fill:#92c4ff;}.cls-32{fill:#91c3ff;}.cls-33{fill:#8fc3ff;}.cls-34{fill:#8ec2ff;}.cls-35{fill:#8dc2ff;}.cls-36{fill:#8cc1ff;}.cls-37{fill:#8bc0ff;}.cls-38{fill:#8ac0ff;}.cls-39{fill:#89bfff;}.cls-40{fill:#88beff;}.cls-41{fill:#87beff;}.cls-42{fill:#85bcff;}.cls-43{fill:#84bcff;}.cls-44{fill:#83bbff;}.cls-45{fill:#76b3ff;}.cls-46{fill:#75b2ff;}.cls-47{fill:#74b2ff;}.cls-48{fill:#73b1ff;}.cls-49{fill:#72b0ff;}.cls-50{fill:#70afff;}.cls-51{fill:#6faeff;}.cls-52{fill:#6eaeff;}.cls-53{fill:#6dadff;}.cls-54{fill:#6cacff;}.cls-55{fill:#6bacff;}.cls-56{fill:#6aabff;}.cls-57{fill:#69aaff;}.cls-58{fill:#68aaff;}.cls-59{fill:#67a9ff;}.cls-60{fill:#66a8ff;}.cls-61{fill:#65a8ff;}.cls-62{fill:#64a7ff;}.cls-63{fill:#63a6ff;}.cls-64{fill:#62a6ff;}.cls-65{fill:#61a5ff;}.cls-66{fill:#60a4ff;}.cls-67{fill:#5ea4ff;}.cls-68{fill:#5da3ff;}.cls-69{fill:#5ca2ff;}.cls-70{fill:#5ba2ff;}.cls-71{fill:#5aa1ff;}.cls-72{fill:#59a1ff;}.cls-73{fill:#58a0ff;}.cls-74{fill:#579fff;}.cls-75{fill:#569fff;}.cls-76{fill:#559eff;}.cls-77{fill:#549dff;}.cls-78{fill:#539dff;}.cls-79{fill:#529cff;}.cls-80{fill:#519bff;}.cls-81{fill:#509bff;}.cls-82{fill:#4f9aff;}.cls-83{fill:#4e99ff;}.cls-84{fill:#4d99ff;}.cls-85{fill:#4c98ff;}.cls-86{fill:#4b97ff;}.cls-87{fill:#4a97ff;}.cls-88{fill:#4996ff;}.cls-89{fill:#4895ff;}.cls-90{fill:#4695ff;}.cls-91{fill:#4594ff;}.cls-92{fill:#4493ff;}.cls-93{fill:#4393ff;}.cls-94{fill:#4292ff;}.cls-95{fill:#4191ff;}.cls-96{fill:#4091ff;}.cls-97{clip-path:url(#clip-path-5);}.cls-98{clip-path:url(#clip-path-6);}.cls-99{fill:#9ccbff;}.cls-100{fill:#d8d8d8;}.cls-101{fill:#fff;}.cls-102{fill:#9eccff;}.cls-103{fill:#fff1dc;}.cls-104{fill:#ffb522;}.cls-105{fill:#7fb4dd;}.cls-106{fill:#5cb947;}.cls-107{fill:#30a84a;}.cls-108{fill:#089848;}.cls-109{fill:#5e3b1a;}.cls-110{opacity:0.15;}.cls-111{fill:#dbdddd;}.cls-112{fill:#171719;}.cls-113,.cls-122{opacity:0.1;}.cls-114{opacity:0.2;}.cls-115{fill:#d3d3d3;}.cls-116{fill:#2b90ff;}.cls-117{fill:#10355d;}.cls-118{fill:#e9e9e9;}.cls-119{fill:#9fe813;}.cls-120{fill:#ffe045;}.cls-121{fill:#ff4878;}.cls-123{opacity:0.08;}.cls-124{opacity:0.3;}.cls-125{fill:#515151;}.cls-126{opacity:0.08;}</style><clipPath id="clip-path" transform="translate(-10.83)"><polygon class="cls-1" points="0 290.5 252.15 143.97 505.95 290.5 253.81 437.04 0 290.5"/></clipPath><clipPath id="clip-path-2" transform="translate(-10.83)"><polygon class="cls-1" points="0 285.05 252.15 138.51 505.96 285.04 253.8 431.58 0 285.05"/></clipPath><clipPath id="clip-path-3" transform="translate(-10.83)"><path class="cls-1" d="M211.71,223l-55.22-32.09c9.75-6.88,22.92-15.74,31.68-20.8l55.22,32.09C234.63,207.24,221.45,216.09,211.71,223Z"/></clipPath><clipPath id="clip-path-4" transform="translate(-10.83)"><path class="cls-1" d="M167.52,50.23l55.22,32.09c4.78,2.77,7.42,9.51,7.45,20.18.09,31.14-33.74,87.86-81.74,168L93.23,238.39c48-80.12,81.84-136.84,81.75-168C175,59.74,172.3,53,167.52,50.23Z"/></clipPath><clipPath id="clip-path-5" transform="translate(-10.83)"><path class="cls-1" d="M200.47,3.66l55.21,32.09c-11.1-6.46-27.23-4.46-46.51,6.67L154,10.33C173.23-.8,189.36-2.79,200.47,3.66Z"/></clipPath><clipPath id="clip-path-6" transform="translate(-10.83)"><path class="cls-1" d="M145.93,113.43,90.72,81.35C109.26,47.72,126.9,26,154,10.33l55.21,32.09C182.11,58,164.48,79.81,145.93,113.43Z"/></clipPath></defs><title>Number 2</title><g id="Layer_2" data-name="Layer 2"><g id="Layer_1-2" data-name="Layer 1"><g class="cls-2"><g class="cls-3"><path class="cls-4" d="M487.41,279.8,270.7,154.68c-10.24-5.91-26.8-5.92-37,0L18.42,279.8c-10.17,5.91-10.11,15.5.13,21.41L235.27,426.33c10.24,5.91,26.78,5.91,37,0l215.3-125.12c10.18-5.91,10.12-15.5-.12-21.41" transform="translate(-10.83)"/></g></g><g class="cls-2"><g class="cls-5"><path class="cls-6" d="M487.42,274.34,270.7,149.22c-10.24-5.91-26.8-5.91-37,0L18.42,274.34c-10.17,5.91-10.11,15.5.13,21.41L235.26,420.87c10.24,5.92,26.79,5.92,37,0L487.53,295.75c10.17-5.91,10.13-15.5-.11-21.41" transform="translate(-10.83)"/></g></g><g class="cls-2"><polygon class="cls-7" points="232.56 202.18 177.34 170.09 215.44 148.1 270.65 180.19 232.56 202.18"/><g class="cls-2"><g class="cls-8"><g class="cls-2"><path class="cls-9" d="M211.71,223l-55.22-32.09.24-.16,55.21,32.08-.23.17" transform="translate(-10.83)"/><path class="cls-10" d="M211.94,222.81l-55.21-32.08c1.64-1.16,3.38-2.38,5.17-3.62l55.22,32.09c-1.8,1.24-3.54,2.45-5.18,3.61" transform="translate(-10.83)"/><path class="cls-11" d="M217.12,219.2,161.9,187.11c1.78-1.23,3.61-2.48,5.47-3.73l55.21,32.08c-1.85,1.26-3.68,2.51-5.46,3.74" transform="translate(-10.83)"/><path class="cls-12" d="M222.58,215.46l-55.21-32.08q2.49-1.69,5-3.35l55.21,32.09c-1.66,1.1-3.34,2.22-5,3.34" transform="translate(-10.83)"/><path class="cls-13" d="M227.58,212.12,172.37,180c1.41-.93,2.81-1.86,4.19-2.75l55.22,32.09c-1.38.89-2.79,1.81-4.2,2.75" transform="translate(-10.83)"/><path class="cls-14" d="M231.78,209.37l-55.22-32.09c1.15-.75,2.29-1.47,3.4-2.18l55.21,32.09c-1.11.7-2.24,1.43-3.39,2.18" transform="translate(-10.83)"/><path class="cls-15" d="M235.17,207.19,180,175.1l2.71-1.7,55.22,32.09-2.72,1.7" transform="translate(-10.83)"/><path class="cls-16" d="M237.89,205.49,182.67,173.4l2.16-1.32L240,204.17c-.7.42-1.42.86-2.15,1.32" transform="translate(-10.83)"/><path class="cls-17" d="M240,204.17l-55.21-32.09,1.75-1.05,55.21,32.09c-.57.33-1.15.68-1.75,1" transform="translate(-10.83)"/><path class="cls-18" d="M241.79,203.12,186.58,171l1.41-.83,55.22,32.09-1.42.83" transform="translate(-10.83)"/><path class="cls-19" d="M243.21,202.29,188,170.2l.18-.11,55.22,32.09-.18.11" transform="translate(-10.83)"/></g></g></g><polygon class="cls-20" points="137.7 299.33 82.49 267.24 82.41 238.39 137.62 270.48 137.7 299.33"/><g class="cls-2"><g class="cls-21"><g class="cls-2"><path class="cls-22" d="M148.45,270.48,93.23,238.39c13.94-23.26,26.69-44.55,37.75-63.82l55.21,32.09c-11.06,19.27-23.8,40.56-37.74,63.82" transform="translate(-10.83)"/><path class="cls-23" d="M186.19,206.66,131,174.57q6.75-11.74,12.64-22.49l55.21,32.08q-5.87,10.76-12.64,22.5" transform="translate(-10.83)"/><path class="cls-24" d="M198.83,184.16l-55.21-32.08q3.3-6.06,6.31-11.78l55.21,32.09q-3,5.73-6.31,11.77" transform="translate(-10.83)"/><path class="cls-25" d="M205.14,172.39,149.93,140.3q2.15-4.11,4.15-8.06l55.21,32.09q-2,3.94-4.15,8.06" transform="translate(-10.83)"/><path class="cls-26" d="M209.29,164.33l-55.21-32.09q1.57-3.13,3-6.15l55.21,32.09q-1.47,3-3.05,6.15" transform="translate(-10.83)"/><path class="cls-27" d="M212.34,158.18l-55.21-32.09q1.2-2.48,2.34-4.88l55.21,32.08q-1.14,2.42-2.34,4.89" transform="translate(-10.83)"/><path class="cls-28" d="M214.68,153.29l-55.21-32.08c.61-1.32,1.22-2.62,1.8-3.9l55.21,32.09c-.58,1.28-1.18,2.58-1.8,3.89" transform="translate(-10.83)"/><path class="cls-29" d="M216.48,149.4l-55.21-32.09c.54-1.17,1.06-2.34,1.57-3.49l55.21,32.09c-.51,1.15-1,2.31-1.57,3.49" transform="translate(-10.83)"/><path class="cls-30" d="M218.05,145.91l-55.21-32.09c.43-1,.86-2,1.27-2.92L219.32,143c-.41,1-.83,1.93-1.27,2.92" transform="translate(-10.83)"/><path class="cls-31" d="M219.32,143,164.11,110.9c.36-.85.72-1.69,1.07-2.53l55.21,32.09c-.35.83-.7,1.68-1.07,2.53" transform="translate(-10.83)"/><path class="cls-32" d="M220.39,140.46l-55.21-32.09,1-2.48L221.41,138q-.49,1.23-1,2.49" transform="translate(-10.83)"/><path class="cls-33" d="M221.41,138l-55.22-32.08c.27-.67.53-1.33.79-2L222.2,136c-.26.66-.52,1.32-.79,2" transform="translate(-10.83)"/><path class="cls-34" d="M222.2,136,167,103.9c.24-.61.47-1.21.7-1.81l55.22,32.09c-.23.6-.47,1.2-.7,1.81" transform="translate(-10.83)"/><path class="cls-35" d="M222.9,134.18l-55.22-32.09c.23-.6.45-1.19.67-1.78l55.21,32.08c-.21.59-.44,1.19-.66,1.79" transform="translate(-10.83)"/><path class="cls-36" d="M223.56,132.39l-55.21-32.08c.22-.59.43-1.18.64-1.76l55.21,32.08c-.21.59-.42,1.17-.64,1.76" transform="translate(-10.83)"/><path class="cls-37" d="M224.2,130.63,169,98.55c.16-.45.31-.89.47-1.33l55.21,32.09c-.15.44-.31.88-.47,1.32" transform="translate(-10.83)"/><path class="cls-38" d="M224.67,129.31,169.46,97.22c.15-.44.3-.87.44-1.3L225.12,128l-.45,1.31" transform="translate(-10.83)"/><path class="cls-39" d="M225.12,128,169.9,95.92c.15-.44.29-.87.43-1.29l55.22,32.08c-.14.43-.29.86-.43,1.29" transform="translate(-10.83)"/><path class="cls-40" d="M225.55,126.71,170.33,94.63c.14-.43.28-.86.41-1.28L226,125.44c-.14.42-.27.85-.41,1.27" transform="translate(-10.83)"/><path class="cls-41" d="M226,125.44,170.74,93.35c.14-.42.27-.83.39-1.25l55.22,32.09-.39,1.25" transform="translate(-10.83)"/><path class="cls-7" d="M226.35,124.19,171.13,92.1l.3-1,55.21,32.09c-.1.32-.19.64-.29,1" transform="translate(-10.83)"/><path class="cls-42" d="M226.64,123.23,171.43,91.14c.09-.32.18-.64.28-1l55.21,32.08c-.09.32-.18.64-.28,1" transform="translate(-10.83)"/><path class="cls-43" d="M226.92,122.27,171.71,90.19l.27-1,55.21,32.09-.27.94" transform="translate(-10.83)"/><path class="cls-44" d="M227.19,121.33,172,89.24c.08-.31.17-.62.25-.94l55.22,32.09c-.09.31-.17.62-.26.94" transform="translate(-10.83)"/><path class="cls-9" d="M227.45,120.39,172.23,88.3c.09-.31.17-.61.25-.92l55.22,32.08c-.08.31-.17.62-.25.93" transform="translate(-10.83)"/><path class="cls-10" d="M227.7,119.46,172.48,87.38l.24-.92,55.21,32.09c-.08.3-.15.61-.23.91" transform="translate(-10.83)"/><path class="cls-11" d="M227.93,118.55,172.72,86.46c.06-.26.13-.53.19-.79l55.22,32.09c-.07.26-.13.52-.2.79" transform="translate(-10.83)"/><path class="cls-12" d="M228.13,117.76,172.91,85.67l.18-.72L228.3,117c-.06.23-.11.48-.17.72" transform="translate(-10.83)"/><path class="cls-13" d="M228.3,117,173.09,85c0-.24.11-.48.16-.72l55.22,32.09c-.06.24-.11.48-.17.72" transform="translate(-10.83)"/><path class="cls-14" d="M228.47,116.32,173.25,84.23c.06-.24.11-.47.16-.71l55.21,32.09-.15.71" transform="translate(-10.83)"/><path class="cls-15" d="M228.62,115.61,173.41,83.52l.15-.7,55.21,32.09c0,.23-.09.46-.15.7" transform="translate(-10.83)"/><path class="cls-16" d="M228.77,114.91,173.56,82.82c.05-.24.1-.47.14-.7l55.22,32.09-.15.7" transform="translate(-10.83)"/><path class="cls-17" d="M228.92,114.21,173.7,82.12c.05-.23.1-.46.14-.69l55.21,32.09c0,.22-.09.46-.13.69" transform="translate(-10.83)"/><path class="cls-18" d="M229.05,113.52,173.84,81.43c0-.23.09-.46.13-.69l55.21,32.09c0,.23-.08.46-.13.69" transform="translate(-10.83)"/><path class="cls-19" d="M229.18,112.83,174,80.74c0-.2.07-.4.11-.61l55.21,32.09c0,.2-.07.41-.11.61" transform="translate(-10.83)"/><path class="cls-45" d="M229.29,112.22,174.08,80.13l.09-.57,55.22,32.09c0,.19-.07.38-.1.57" transform="translate(-10.83)"/><path class="cls-46" d="M229.39,111.65,174.17,79.56l.09-.56,55.22,32.09-.09.56" transform="translate(-10.83)"/><path class="cls-47" d="M229.48,111.09,174.26,79l.09-.56,55.21,32.09c0,.18-.05.37-.08.56" transform="translate(-10.83)"/><path class="cls-48" d="M229.56,110.53,174.35,78.44c0-.19.05-.37.08-.56L229.64,110c0,.18,0,.37-.08.56" transform="translate(-10.83)"/><path class="cls-49" d="M229.64,110,174.43,77.88c0-.18,0-.37.08-.55l55.21,32.09c0,.18-.05.36-.08.55" transform="translate(-10.83)"/><path class="cls-20" d="M229.72,109.42,174.51,77.33c0-.18,0-.37.07-.55l55.21,32.09c0,.18,0,.36-.07.55" transform="translate(-10.83)"/><path class="cls-50" d="M229.79,108.87,174.58,76.78l.06-.54,55.21,32.09-.06.54" transform="translate(-10.83)"/><path class="cls-51" d="M229.85,108.33,174.64,76.24l.06-.54,55.21,32.09-.06.54" transform="translate(-10.83)"/><path class="cls-52" d="M229.91,107.79,174.7,75.7c0-.18,0-.35.05-.52L230,107.26c0,.18,0,.35-.05.53" transform="translate(-10.83)"/><path class="cls-53" d="M230,107.26,174.75,75.18c0-.17,0-.33,0-.49L230,106.78c0,.16,0,.32,0,.48" transform="translate(-10.83)"/><path class="cls-54" d="M230,106.78,174.79,74.69c0-.15,0-.31,0-.47l55.22,32.08c0,.16,0,.32,0,.48" transform="translate(-10.83)"/><path class="cls-55" d="M230.05,106.3,174.83,74.22c0-.16,0-.32,0-.48l55.21,32.09,0,.47" transform="translate(-10.83)"/><path class="cls-56" d="M230.08,105.83,174.87,73.74l0-.47,55.21,32.09,0,.47" transform="translate(-10.83)"/><path class="cls-57" d="M230.11,105.36,174.9,73.27c0-.15,0-.31,0-.46l55.22,32.08,0,.47" transform="translate(-10.83)"/><path class="cls-58" d="M230.14,104.89,174.92,72.81c0-.16,0-.31,0-.47l55.22,32.09c0,.15,0,.31,0,.46" transform="translate(-10.83)"/><path class="cls-59" d="M230.16,104.43,174.94,72.34c0-.15,0-.3,0-.46L230.17,104c0,.15,0,.31,0,.46" transform="translate(-10.83)"/><path class="cls-60" d="M230.17,104,175,71.88c0-.15,0-.3,0-.45l55.21,32.09c0,.15,0,.3,0,.45" transform="translate(-10.83)"/><path class="cls-61" d="M230.18,103.52,175,71.43c0-.15,0-.3,0-.45l55.21,32.08c0,.15,0,.3,0,.46" transform="translate(-10.83)"/><path class="cls-62" d="M230.19,103.06,175,71v-.45l55.21,32.08v.45" transform="translate(-10.83)"/><path class="cls-63" d="M230.19,102.61,175,70.53v-.6L230.19,102v.6" transform="translate(-10.83)"/><path class="cls-64" d="M230.19,102,175,69.93c0-.22,0-.43,0-.64l55.21,32.08c0,.22,0,.43,0,.64" transform="translate(-10.83)"/><path class="cls-65" d="M230.18,101.37,175,69.29c0-.21,0-.42,0-.63l55.21,32.08c0,.21,0,.42,0,.63" transform="translate(-10.83)"/><path class="cls-66" d="M230.16,100.74,175,68.66c0-.21,0-.42,0-.62l55.21,32.08c0,.21,0,.42,0,.62" transform="translate(-10.83)"/><path class="cls-67" d="M230.14,100.12,174.93,68l0-.61,55.21,32.08,0,.61" transform="translate(-10.83)"/><path class="cls-68" d="M230.11,99.51,174.9,67.43c0-.2,0-.39,0-.59l55.22,32.09,0,.58" transform="translate(-10.83)"/><path class="cls-69" d="M230.08,98.93,174.86,66.84c0-.19,0-.38,0-.57L230,98.35c0,.19,0,.39,0,.58" transform="translate(-10.83)"/><path class="cls-70" d="M230,98.35,174.82,66.27c0-.19,0-.38,0-.57L230,97.79c0,.18,0,.37,0,.56" transform="translate(-10.83)"/><path class="cls-71" d="M230,97.79,174.77,65.7c0-.19,0-.37-.05-.56l55.22,32.09c0,.18,0,.37.05.56" transform="translate(-10.83)"/><path class="cls-72" d="M229.94,97.23,174.72,65.14l-.06-.54,55.22,32.08.06.55" transform="translate(-10.83)"/><path class="cls-73" d="M229.88,96.68,174.66,64.6l-.06-.54,55.21,32.09c0,.17.05.35.07.53" transform="translate(-10.83)"/><path class="cls-74" d="M229.81,96.15,174.6,64.06c0-.18,0-.35-.07-.53l55.21,32.09c0,.17,0,.35.07.53" transform="translate(-10.83)"/><path class="cls-75" d="M229.74,95.62,174.53,63.53c0-.17-.05-.34-.08-.51L229.67,95.1c0,.17.05.35.07.52" transform="translate(-10.83)"/><path class="cls-76" d="M229.67,95.1,174.45,63c0-.17,0-.34-.08-.51L229.59,94.6c0,.16,0,.33.08.5" transform="translate(-10.83)"/><path class="cls-77" d="M229.59,94.6,174.37,62.51l-.09-.5L229.5,94.1l.09.5" transform="translate(-10.83)"/><path class="cls-78" d="M229.5,94.1,174.28,62l-.09-.5L229.4,93.59c0,.17.07.34.1.51" transform="translate(-10.83)"/><path class="cls-79" d="M229.4,93.59,174.19,61.51c0-.17-.07-.34-.11-.5L229.3,93.1c0,.16.07.33.1.49" transform="translate(-10.83)"/><path class="cls-80" d="M229.3,93.1,174.08,61c0-.16-.07-.32-.1-.48l55.21,32.08c0,.16.07.33.11.49" transform="translate(-10.83)"/><path class="cls-81" d="M229.19,92.61,174,60.53l-.12-.48,55.22,32.09c0,.16.07.31.11.47" transform="translate(-10.83)"/><path class="cls-82" d="M229.08,92.14,173.86,60.05l-.12-.47L229,91.67c.05.16.09.31.13.47" transform="translate(-10.83)"/><path class="cls-83" d="M229,91.67,173.74,59.58c0-.16-.09-.32-.14-.49l55.22,32.09c.05.16.09.33.13.49" transform="translate(-10.83)"/><path class="cls-84" d="M228.82,91.18,173.6,59.09c0-.16-.09-.32-.14-.47L228.68,90.7c0,.16.09.32.14.48" transform="translate(-10.83)"/><path class="cls-85" d="M228.68,90.7,173.46,58.62l-.15-.47,55.22,32.09.15.46" transform="translate(-10.83)"/><path class="cls-86" d="M228.53,90.24,173.31,58.15c-.05-.15-.1-.31-.16-.45l55.22,32.08c0,.15.1.3.16.46" transform="translate(-10.83)"/><path class="cls-87" d="M228.37,89.78,173.15,57.7a4.09,4.09,0,0,0-.18-.49L228.19,89.3l.18.48" transform="translate(-10.83)"/><path class="cls-88" d="M228.19,89.3,173,57.21c-.06-.17-.13-.33-.19-.49L228,88.8l.2.5" transform="translate(-10.83)"/><path class="cls-89" d="M228,88.8,172.78,56.72q-.1-.26-.21-.48l55.22,32.08.2.48" transform="translate(-10.83)"/><path class="cls-90" d="M227.79,88.32,172.57,56.24l-.21-.47,55.21,32.09.22.46" transform="translate(-10.83)"/><path class="cls-91" d="M227.57,87.86,172.36,55.77l-.27-.53L227.3,87.32l.27.54" transform="translate(-10.83)"/><path class="cls-92" d="M227.3,87.32,172.09,55.24l-.3-.55L227,86.78l.3.54" transform="translate(-10.83)"/><path class="cls-93" d="M227,86.78,171.79,54.69c-.1-.18-.21-.36-.32-.53l55.22,32.09.31.53" transform="translate(-10.83)"/><path class="cls-94" d="M226.69,86.25,171.47,54.16c-.14-.23-.29-.45-.44-.66l55.21,32.08.45.67" transform="translate(-10.83)"/><path class="cls-95" d="M226.24,85.58,171,53.5c-.18-.25-.36-.49-.55-.72l55.21,32.08c.19.23.37.47.55.72" transform="translate(-10.83)"/><path class="cls-96" d="M225.69,84.86,170.48,52.78a11,11,0,0,0-3-2.55l55.22,32.09a11,11,0,0,1,2.95,2.54" transform="translate(-10.83)"/></g></g></g><g class="cls-2"><g class="cls-97"><g class="cls-2"><path class="cls-19" d="M209.17,42.42,154,10.33l.86-.49L210,41.93l-.86.49" transform="translate(-10.83)"/><path class="cls-45" d="M210,41.93,154.82,9.84l1-.55L211,41.37l-1,.56" transform="translate(-10.83)"/><path class="cls-46" d="M211,41.37,155.81,9.29l1-.54L212,40.84l-1,.53" transform="translate(-10.83)"/><path class="cls-47" d="M212,40.84,156.79,8.75l1-.52L213,40.32l-1,.52" transform="translate(-10.83)"/><path class="cls-48" d="M213,40.32,157.77,8.23c.32-.17.64-.34,1-.5L214,39.81l-1,.51" transform="translate(-10.83)"/><path class="cls-49" d="M214,39.81,158.74,7.73c.31-.17.63-.33.95-.48L214.9,39.33l-1,.48" transform="translate(-10.83)"/><path class="cls-20" d="M214.9,39.33,159.69,7.25c.3-.16.6-.31.91-.45l55.21,32.08-.91.45" transform="translate(-10.83)"/><path class="cls-50" d="M215.81,38.88,160.6,6.8l.9-.44,55.22,32.09-.91.43" transform="translate(-10.83)"/><path class="cls-51" d="M216.72,38.45,161.5,6.36l.9-.42L217.61,38l-.89.42" transform="translate(-10.83)"/><path class="cls-52" d="M217.61,38,162.4,5.94l.89-.4,55.22,32.09-.9.4" transform="translate(-10.83)"/><path class="cls-53" d="M218.51,37.63,163.29,5.54l.89-.39,55.21,32.09c-.29.12-.59.25-.88.39" transform="translate(-10.83)"/><path class="cls-54" d="M219.39,37.24,164.18,5.15l.87-.37,55.22,32.08-.88.38" transform="translate(-10.83)"/><path class="cls-55" d="M220.27,36.86,165.05,4.78l.85-.35,55.22,32.08-.85.35" transform="translate(-10.83)"/><path class="cls-56" d="M221.12,36.51,165.9,4.43l.84-.34L222,36.18l-.84.33" transform="translate(-10.83)"/><path class="cls-57" d="M222,36.18,166.74,4.09l.84-.32,55.21,32.09-.83.32" transform="translate(-10.83)"/><path class="cls-58" d="M222.79,35.86,167.58,3.77l.83-.31,55.22,32.09-.84.31" transform="translate(-10.83)"/><path class="cls-59" d="M223.63,35.55,168.41,3.46l.83-.3,55.21,32.09c-.27.1-.55.19-.82.3" transform="translate(-10.83)"/><path class="cls-60" d="M224.45,35.25,169.24,3.16l.82-.28L225.27,35l-.82.28" transform="translate(-10.83)"/><path class="cls-61" d="M225.27,35,170.06,2.88l.8-.27L226.08,34.7l-.81.27" transform="translate(-10.83)"/><path class="cls-62" d="M226.08,34.7,170.86,2.61l.8-.25,55.22,32.09-.8.25" transform="translate(-10.83)"/><path class="cls-63" d="M226.88,34.45,171.66,2.36l.8-.24,55.21,32.09c-.26.07-.53.15-.79.24" transform="translate(-10.83)"/><path class="cls-64" d="M227.67,34.21,172.46,2.12l.79-.23L228.46,34l-.79.23" transform="translate(-10.83)"/><path class="cls-65" d="M228.46,34,173.25,1.89l.78-.21,55.22,32.08-.79.22" transform="translate(-10.83)"/><path class="cls-66" d="M229.25,33.76,174,1.68l.78-.2L230,33.56l-.78.2" transform="translate(-10.83)"/><path class="cls-67" d="M230,33.56,174.81,1.48l.79-.2,55.21,32.09-.78.19" transform="translate(-10.83)"/><path class="cls-68" d="M230.81,33.37,175.6,1.28l.77-.17,55.22,32.08-.78.18" transform="translate(-10.83)"/><path class="cls-69" d="M231.59,33.19,176.37,1.11l.78-.17L232.36,33l-.77.16" transform="translate(-10.83)"/><path class="cls-70" d="M232.36,33,177.15.94l.76-.15,55.22,32.09-.77.15" transform="translate(-10.83)"/><path class="cls-71" d="M233.13,32.88,177.91.79l.76-.14,55.22,32.09-.76.14" transform="translate(-10.83)"/><path class="cls-72" d="M233.89,32.74,178.67.65l.76-.12,55.21,32.08-.75.13" transform="translate(-10.83)"/><path class="cls-73" d="M234.64,32.61,179.43.53l.78-.12L235.42,32.5l-.78.11" transform="translate(-10.83)"/><path class="cls-74" d="M235.42,32.5,180.21.41l.78-.1L236.2,32.4l-.78.1" transform="translate(-10.83)"/><path class="cls-75" d="M236.2,32.4,181,.31l.77-.09L237,32.31l-.77.09" transform="translate(-10.83)"/><path class="cls-76" d="M237,32.31,181.76.22l.76-.07,55.22,32.09-.77.07" transform="translate(-10.83)"/><path class="cls-77" d="M237.74,32.24,182.52.15l.76-.06,55.21,32.09q-.37,0-.75.06" transform="translate(-10.83)"/><path class="cls-78" d="M238.49,32.18,183.28.09l.75,0,55.22,32.08-.76,0" transform="translate(-10.83)"/><path class="cls-79" d="M239.25,32.13,184,.05q.41,0,.81,0L240.06,32.1l-.81,0" transform="translate(-10.83)"/><path class="cls-80" d="M240.06,32.1,184.84,0l.81,0,55.21,32.09h-.8" transform="translate(-10.83)"/><path class="cls-81" d="M240.86,32.09,185.65,0h.79l55.21,32.09h-.79" transform="translate(-10.83)"/><path class="cls-82" d="M241.65,32.09,186.44,0l.78,0,55.22,32.09-.79,0" transform="translate(-10.83)"/><path class="cls-83" d="M242.44,32.11,187.22,0l.78,0,55.21,32.09-.77,0" transform="translate(-10.83)"/><path class="cls-84" d="M243.21,32.15,188,.06l.85.06,55.22,32.09-.86-.06" transform="translate(-10.83)"/><path class="cls-85" d="M244.07,32.21,188.85.12l.87.09L244.94,32.3q-.44-.06-.87-.09" transform="translate(-10.83)"/><path class="cls-86" d="M244.94,32.3,189.72.21l.86.11L245.8,32.4l-.86-.1" transform="translate(-10.83)"/><path class="cls-87" d="M245.8,32.4,190.58.32l.85.13,55.22,32.08-.85-.13" transform="translate(-10.83)"/><path class="cls-88" d="M246.65,32.53,191.43.45l.85.15L247.5,32.69l-.85-.16" transform="translate(-10.83)"/><path class="cls-89" d="M247.5,32.69,192.28.6l1,.23,55.21,32.08-1-.22" transform="translate(-10.83)"/><path class="cls-90" d="M248.52,32.91,193.31.83l1,.25,55.21,32.09-1-.26" transform="translate(-10.83)"/><path class="cls-91" d="M249.52,33.17,194.31,1.08c.33.1.66.19,1,.3l55.22,32.08-1-.29" transform="translate(-10.83)"/><path class="cls-92" d="M250.51,33.46,195.29,1.38c.37.11.74.24,1.1.37l55.22,32.09-1.1-.38" transform="translate(-10.83)"/><path class="cls-93" d="M251.61,33.84,196.39,1.75c.45.16.89.34,1.32.52l55.22,32.09c-.44-.18-.88-.36-1.32-.52" transform="translate(-10.83)"/><path class="cls-94" d="M252.93,34.36,197.71,2.27c.44.19.86.39,1.28.6L254.21,35c-.42-.21-.85-.4-1.28-.59" transform="translate(-10.83)"/><path class="cls-95" d="M254.21,35,199,2.87c.51.24,1,.51,1.48.79l55.21,32.09c-.48-.28-1-.55-1.47-.8" transform="translate(-10.83)"/></g></g></g><path class="cls-85" d="M209.17,42.42c37.3-21.54,62.83-8.88,63,33.06.1,36.6-29.54,92.79-60.41,147.5,9.74-6.89,22.92-15.74,31.68-20.8l38.09-22,.12,42.31L148.53,299.33l-.08-28.85c48-80.12,81.83-136.84,81.74-168-.06-21-10.25-26.74-26.9-17.13-13.46,7.77-24.12,24.57-33.54,41.51l-23.82-13.45C164.48,79.81,182.11,58,209.17,42.42Z" transform="translate(-10.83)"/><g class="cls-2"><g class="cls-98"><g class="cls-2"><path class="cls-23" d="M145.93,113.43,90.72,81.35q1.74-3.16,3.48-6.2l55.21,32.09q-1.74,3-3.48,6.19" transform="translate(-10.83)"/><path class="cls-22" d="M149.41,107.24,94.2,75.15q2.83-4.94,5.68-9.53L155.1,97.71q-2.85,4.59-5.69,9.53" transform="translate(-10.83)"/><path class="cls-99" d="M155.1,97.71,99.88,65.62q4-6.39,8-12.13l55.22,32.09q-4.06,5.74-8,12.13" transform="translate(-10.83)"/><path class="cls-22" d="M163.11,85.58,107.89,53.49q2.1-3,4.24-5.79l55.22,32.09q-2.15,2.8-4.24,5.79" transform="translate(-10.83)"/><path class="cls-23" d="M167.35,79.79,112.13,47.7c.89-1.17,1.79-2.31,2.69-3.44L170,76.35c-.91,1.13-1.8,2.27-2.69,3.44" transform="translate(-10.83)"/><path class="cls-24" d="M170,76.35,114.82,44.26c.72-.89,1.44-1.78,2.17-2.65L172.2,73.7c-.72.87-1.45,1.75-2.16,2.65" transform="translate(-10.83)"/><path class="cls-25" d="M172.2,73.7,117,41.61l1.89-2.22,55.21,32.09q-.94,1.09-1.89,2.22" transform="translate(-10.83)"/><path class="cls-26" d="M174.09,71.48,118.88,39.39c.53-.61,1.06-1.22,1.6-1.82L175.7,69.66c-.54.6-1.07,1.21-1.61,1.82" transform="translate(-10.83)"/><path class="cls-27" d="M175.7,69.66,120.48,37.57c.52-.58,1-1.15,1.57-1.72l55.21,32.09c-.52.56-1,1.14-1.56,1.72" transform="translate(-10.83)"/><path class="cls-28" d="M177.26,67.94,122.05,35.85c.45-.49.9-1,1.36-1.45l55.21,32.09-1.36,1.45" transform="translate(-10.83)"/><path class="cls-29" d="M178.62,66.49,123.41,34.4c.44-.47.89-.94,1.34-1.4L180,65.09c-.45.46-.9.92-1.35,1.4" transform="translate(-10.83)"/><path class="cls-30" d="M180,65.09,124.75,33c.42-.43.84-.86,1.27-1.28l55.21,32.09L180,65.09" transform="translate(-10.83)"/><path class="cls-31" d="M181.23,63.81,126,31.72l1.2-1.18,55.21,32.08-1.2,1.19" transform="translate(-10.83)"/><path class="cls-32" d="M182.43,62.62,127.22,30.54c.4-.4.8-.79,1.21-1.17l55.21,32.08-1.21,1.17" transform="translate(-10.83)"/><path class="cls-33" d="M183.64,61.45,128.43,29.37l1.11-1.05,55.22,32.09c-.38.34-.75.69-1.12,1" transform="translate(-10.83)"/><path class="cls-34" d="M184.76,60.41,129.54,28.32l1.11-1,55.22,32.09c-.38.33-.74.67-1.11,1" transform="translate(-10.83)"/><path class="cls-35" d="M185.87,59.39,130.65,27.3l1.12-1L187,58.38c-.38.33-.75.67-1.12,1" transform="translate(-10.83)"/><path class="cls-36" d="M187,58.38,131.77,26.29l1.06-.93L188,57.45l-1,.93" transform="translate(-10.83)"/><path class="cls-37" d="M188,57.45,132.83,25.36l1-.91L189.1,56.54l-1.06.91" transform="translate(-10.83)"/><path class="cls-38" d="M189.1,56.54,133.88,24.45l1.07-.9,55.22,32.09-1.07.9" transform="translate(-10.83)"/><path class="cls-39" d="M190.17,55.64,135,23.55l1-.86,55.22,32.09-1,.86" transform="translate(-10.83)"/><path class="cls-40" d="M191.21,54.78,136,22.69l1-.83,55.22,32.08-1,.84" transform="translate(-10.83)"/><path class="cls-41" d="M192.25,53.94,137,21.86l1.05-.83,55.21,32.08-1,.83" transform="translate(-10.83)"/><path class="cls-7" d="M193.29,53.11,138.08,21l1-.82L194.34,52.3l-1.05.81" transform="translate(-10.83)"/><path class="cls-42" d="M194.34,52.3,139.13,20.21l1-.79,55.21,32.09-1,.79" transform="translate(-10.83)"/><path class="cls-43" d="M195.38,51.51,140.17,19.42l1.05-.78,55.22,32.09-1.06.78" transform="translate(-10.83)"/><path class="cls-44" d="M196.44,50.73,141.22,18.64l1.07-.77L197.5,50l-1.06.78" transform="translate(-10.83)"/><path class="cls-9" d="M197.5,50,142.29,17.87l1.07-.77,55.21,32.09L197.5,50" transform="translate(-10.83)"/><path class="cls-10" d="M198.57,49.19,143.36,17.1l1.08-.76,55.22,32.09-1.09.76" transform="translate(-10.83)"/><path class="cls-11" d="M199.66,48.43,144.44,16.34l1.1-.74,55.21,32.08-1.09.75" transform="translate(-10.83)"/><path class="cls-12" d="M200.75,47.68,145.54,15.6l1.11-.75,55.22,32.09c-.38.24-.75.49-1.12.74" transform="translate(-10.83)"/><path class="cls-13" d="M201.87,46.94,146.65,14.85l1.14-.74L203,46.19l-1.13.75" transform="translate(-10.83)"/><path class="cls-14" d="M203,46.19,147.79,14.11c.38-.25.76-.5,1.15-.74l55.21,32.09-1.15.73" transform="translate(-10.83)"/><path class="cls-15" d="M204.15,45.46,148.94,13.37l1.16-.73,55.22,32.09-1.17.73" transform="translate(-10.83)"/><path class="cls-16" d="M205.32,44.73,150.1,12.64l1.22-.75L206.53,44l-1.21.75" transform="translate(-10.83)"/><path class="cls-17" d="M206.53,44,151.32,11.89l1.23-.73,55.21,32.08-1.23.74" transform="translate(-10.83)"/><path class="cls-18" d="M207.76,43.24,152.55,11.16l1.24-.73L209,42.52l-1.25.72" transform="translate(-10.83)"/><path class="cls-19" d="M209,42.52,153.79,10.43l.17-.1,55.21,32.09-.16.1" transform="translate(-10.83)"/></g></g></g></g><path class="cls-100" d="M356.84,212.52a26.67,26.67,0,0,0-13.21,3.14c-3.15,1.83-4.92,4.17-4.92,6.58s1.73,4.75,4.92,6.59a29.38,29.38,0,0,0,26.44,0c3.16-1.84,4.93-4.18,4.93-6.58s-1.74-4.74-4.93-6.58a26.68,26.68,0,0,0-13.22-3.14" transform="translate(-10.83)"/><path class="cls-101" d="M339,204.63h0l4.43,17.9h0a7.53,7.53,0,0,0,3.81,4.4c5.3,3.08,14,3.08,19.25,0a7.53,7.53,0,0,0,3.81-4.4h0l4.42-17.9h0c.92-3.24-.75-6.69-5-9.16-7.06-4.11-18.62-4.11-25.68,0-4.29,2.46-6,5.92-5,9.16h0Z" transform="translate(-10.83)"/><path class="cls-102" d="M339,204.62a10.11,10.11,0,0,0,5,5.74,28.32,28.32,0,0,0,25.67,0,10.14,10.14,0,0,0,5-5.74h0l-4.45,17.9h0a7.53,7.53,0,0,1-3.81,4.4c-5.29,3.08-13.95,3.08-19.25,0a7.53,7.53,0,0,1-3.81-4.4h0L339,204.62Z" transform="translate(-10.83)"/><path class="cls-103" d="M356.84,194.11a24.11,24.11,0,0,0-12,2.85c-2.86,1.66-4.44,3.78-4.44,6s1.58,4.3,4.44,6a26.62,26.62,0,0,0,23.94,0c2.85-1.66,4.43-3.78,4.43-6s-1.58-4.3-4.43-6a24.16,24.16,0,0,0-12-2.85" transform="translate(-10.83)"/><path class="cls-103" d="M356.84,194.11a24.11,24.11,0,0,0-12,2.85c-2.86,1.66-4.44,3.78-4.44,6s1.58,4.3,4.44,6a26.62,26.62,0,0,0,23.94,0c2.85-1.66,4.43-3.78,4.43-6s-1.58-4.3-4.43-6a24.16,24.16,0,0,0-12-2.85" transform="translate(-10.83)"/><path class="cls-104" d="M368.82,200.86a24.26,24.26,0,0,0-12-2.84h0a24.21,24.21,0,0,0-12,2.84,9.25,9.25,0,0,0-4,4,5.14,5.14,0,0,1-.45-2c0-2.18,1.58-4.3,4.44-6a24.21,24.21,0,0,1,12-2.84h0a24.26,24.26,0,0,1,12,2.84c2.85,1.67,4.43,3.79,4.43,6a5,5,0,0,1-.44,2A9.31,9.31,0,0,0,368.82,200.86Z" transform="translate(-10.83)"/><path class="cls-105" d="M368.82,200.86a24.26,24.26,0,0,0-12-2.84h0a24.21,24.21,0,0,0-12,2.84,9.25,9.25,0,0,0-4,4,5.14,5.14,0,0,1-.45-2c0-2.18,1.58-4.3,4.44-6a24.21,24.21,0,0,1,12-2.84h0a24.26,24.26,0,0,1,12,2.84c2.85,1.67,4.43,3.79,4.43,6a5,5,0,0,1-.44,2A9.31,9.31,0,0,0,368.82,200.86Z" transform="translate(-10.83)"/><path class="cls-106" d="M352.79,202.46a6.79,6.79,0,0,0,6.16-.06,2.16,2.16,0,0,0,1.23-1.76c0-4.07-.14-21.92-1.61-34-.32-2.63-1.49-11.09-3.12-10.14-2.17,1.23-4,24.48-4,44.16a2.2,2.2,0,0,0,1.32,1.81" transform="translate(-10.83)"/><path class="cls-107" d="M358.43,206.59a6.79,6.79,0,0,0,6.16-.06,2.16,2.16,0,0,0,1.23-1.76c0-4.07-.13-21.92-1.61-34-.32-2.62-1.49-11.09-3.12-10.14-2.17,1.24-4,24.48-4,44.17a2.22,2.22,0,0,0,1.32,1.8" transform="translate(-10.83)"/><path class="cls-108" d="M348.22,205.33a4.15,4.15,0,0,0,3.79,0,1.3,1.3,0,0,0,.75-1.08c0-2.46-.08-13.47-1-20.94-.2-1.62-.91-6.82-1.91-6.24-1.33.79-2.47,15-2.47,27.11a1.35,1.35,0,0,0,.82,1.1" transform="translate(-10.83)"/><path class="cls-100" d="M200.67,374.64h7.06c1.76-6.65,11.56-11.75,23.42-11.75,13.1,0,23.73,6.22,23.73,13.88s-10.63,13.9-23.73,13.9c-11.91,0-21.74-5.15-23.44-11.85h-7a2.09,2.09,0,0,1,0-4.18Z" transform="translate(-10.83)"/><path class="cls-102" d="M231.15,337.56c13.1,0,23.73,6.22,23.73,13.89a8.36,8.36,0,0,1-.4,2.48l-3.66,22.77c0,6.36-8.81,11.52-19.67,11.52s-19.66-5.16-19.66-11.52l-3.66-22.77a8.36,8.36,0,0,1-.4-2.48C207.43,343.78,218.05,337.56,231.15,337.56Z" transform="translate(-10.83)"/><path class="cls-105" d="M207.43,351.45c0,7.67,10.62,13.89,23.72,13.89s23.73-6.22,23.73-13.89-10.63-13.89-23.73-13.89S207.43,343.78,207.43,351.45Z" transform="translate(-10.83)"/><ellipse class="cls-109" cx="220.32" cy="356.34" rx="19.38" ry="6.6"/><path class="cls-102" d="M207.27,356.45s-6.25-.64-8.26,4.13,3.12,14,13.83,19.42c0,0,2.95-1.11,1.91-2.53-1.26-1.73-11.08-6.28-11.5-12.43s6.2-4.26,7.4-2.72C210.65,362.32,212.45,357.62,207.27,356.45Z" transform="translate(-10.83)"/><path class="cls-101" d="M231.15,340.4c12.5,0,20.89,5.71,20.89,11.05,0,6-9.57,11.05-20.89,11.05s-20.89-5.06-20.89-11.05c0-5.34,8.4-11.05,20.89-11.05m0-2.84c-13.1,0-23.72,6.22-23.72,13.89s10.62,13.89,23.72,13.89,23.73-6.22,23.73-13.89-10.63-13.89-23.73-13.89Z" transform="translate(-10.83)"/><path class="cls-110" d="M405.26,276.15,271.52,354a8.2,8.2,0,0,1-7.47,0L181.68,306a2.3,2.3,0,0,1,0-4.34l133.74-77.77a8.26,8.26,0,0,1,7.46,0l82.37,47.89a2.31,2.31,0,0,1,0,4.35Z" transform="translate(-10.83)"/><path class="cls-111" d="M319.66,131.81a3.24,3.24,0,0,0-2.94.3L183,209.88a6.14,6.14,0,0,0-2.71,6.37l23.61,96.1a3.44,3.44,0,0,0,1.29,2l1.63.95a2.24,2.24,0,0,0,.4.22,3.24,3.24,0,0,0,2.94-.3l133.74-77.77a5.76,5.76,0,0,0,2.33-2.76,5.85,5.85,0,0,0,.37-3.6L323,135a3.36,3.36,0,0,0-1.52-2.17Z" transform="translate(-10.83)"/><path class="cls-112" d="M346.59,231.11a5.85,5.85,0,0,1-.37,3.6,5.76,5.76,0,0,1-2.33,2.76L210.15,315.24a3.24,3.24,0,0,1-2.94.3,3.29,3.29,0,0,1-1.83-2.33l-23.6-96.09a6.14,6.14,0,0,1,2.7-6.37L318.21,133a3.06,3.06,0,0,1,4.77,2Z" transform="translate(-10.83)"/><g class="cls-113"><path class="cls-114" d="M182.15,213.51a5.8,5.8,0,0,0-.37,3.61l23.6,96.09a3.29,3.29,0,0,0,1.83,2.33,13.53,13.53,0,0,1-2-1.17,3.44,3.44,0,0,1-1.29-2l-23.61-96.1a5.83,5.83,0,0,1,.37-3.6Z" transform="translate(-10.83)"/></g><path class="cls-101" d="M180.65,212.65a5.81,5.81,0,0,1,2.34-2.77l1.49.87a6.14,6.14,0,0,0-2.7,6.37l-1.5-.87A5.83,5.83,0,0,1,180.65,212.65Z" transform="translate(-10.83)"/><polygon class="cls-101" points="308.72 139.16 331.39 231.47 197.96 309.05 175.33 216.82 308.72 139.16"/><polyline class="cls-115" points="279.02 181.24 279.27 182.22 252.29 198.01 252.04 197.03 279.02 181.24"/><polyline class="cls-115" points="279.49 183.14 279.74 184.12 252.76 199.91 252.51 198.93 279.49 183.14"/><polyline class="cls-115" points="279.98 185.03 280.22 186.02 253.24 201.81 252.99 200.83 279.98 185.03"/><polyline class="cls-115" points="280.45 186.93 280.7 187.91 253.72 203.71 253.47 202.73 280.45 186.93"/><polyline class="cls-115" points="280.93 188.83 281.17 189.81 254.19 205.6 253.95 204.62 280.93 188.83"/><polyline class="cls-115" points="281.4 190.72 281.65 191.71 254.67 207.5 254.42 206.53 281.4 190.72"/><polyline class="cls-115" points="281.88 192.61 282.13 193.61 255.14 209.4 254.9 208.42 281.88 192.61"/><polyline class="cls-115" points="282.36 194.52 282.6 195.51 262.11 207.5 261.86 206.51 282.36 194.52"/><polyline class="cls-115" points="308.77 163.83 309.01 164.81 282.03 180.6 281.79 179.62 308.77 163.83"/><polyline class="cls-115" points="309.24 165.73 309.49 166.71 282.51 182.5 282.26 181.52 309.24 165.73"/><polyline class="cls-115" points="309.71 167.62 309.96 168.6 282.98 184.4 282.74 183.42 309.71 167.62"/><polyline class="cls-115" points="310.19 169.53 310.44 170.51 283.47 186.29 283.22 185.31 310.19 169.53"/><polyline class="cls-115" points="310.67 171.41 310.92 172.39 283.94 188.19 283.7 187.21 310.67 171.41"/><polyline class="cls-115" points="311.15 173.32 311.4 174.3 284.42 190.09 284.17 189.1 311.15 173.32"/><polyline class="cls-115" points="311.62 175.21 311.87 176.19 284.89 191.99 284.64 191.01 311.62 175.21"/><polyline class="cls-115" points="312.1 177.1 312.35 178.08 285.37 193.88 285.13 192.9 312.1 177.1"/><polyline class="cls-115" points="307.13 157.28 307.92 160.46 263.44 186.5 262.64 183.33 307.13 157.28"/><path class="cls-116" d="M328.71,200.1c1.69,7.14-2.59,16.21-9.66,20.34l-.09.06c-7,4.06-14.13,1.68-16-5.33l25.75-15.07" transform="translate(-10.83)"/><path class="cls-102" d="M304.32,203.8l11.07,3.73-12.51,7.32a17.32,17.32,0,0,1,1.44-11" transform="translate(-10.83)"/><path class="cls-117" d="M312.61,194.45c7-4.06,14.16-1.69,16,5.33l-12.79,7.47-11.36-3.81a20.93,20.93,0,0,1,8.06-8.94l.07-.05" transform="translate(-10.83)"/><polyline class="cls-115" points="285.27 206.11 285.67 207.69 276.49 213.07 276.1 211.48 285.27 206.11"/><polyline class="cls-118" points="285.88 208.51 286.12 209.5 275.04 215.97 274.79 215.01 285.88 208.51"/><polyline class="cls-118" points="286.24 209.94 286.49 210.93 275.4 217.41 275.15 216.44 286.24 209.94"/><polyline class="cls-115" points="287.49 214.94 287.89 216.53 278.71 221.9 278.32 220.32 287.49 214.94"/><polyline class="cls-118" points="288.09 217.34 288.34 218.32 277.27 224.81 277.01 223.84 288.09 217.34"/><polyline class="cls-118" points="288.45 218.77 288.7 219.75 277.62 226.25 277.37 225.26 288.45 218.77"/><polyline class="cls-115" points="289.71 223.78 290.1 225.36 280.94 230.73 280.54 229.14 289.71 223.78"/><polyline class="cls-118" points="290.31 226.18 290.56 227.16 279.48 233.64 279.24 232.67 290.31 226.18"/><polyline class="cls-118" points="290.67 227.62 290.92 228.59 279.85 235.07 279.6 234.09 290.67 227.62"/><polyline class="cls-115" points="211.96 220.5 212.21 221.48 185.23 237.28 184.98 236.29 211.96 220.5"/><polyline class="cls-115" points="212.44 222.4 212.68 223.37 185.7 239.17 185.46 238.19 212.44 222.4"/><polyline class="cls-115" points="212.92 224.29 213.16 225.28 186.18 241.08 185.94 240.08 212.92 224.29"/><polyline class="cls-115" points="213.4 226.18 213.64 227.16 186.66 242.96 186.42 241.98 213.4 226.18"/><polyline class="cls-115" points="213.87 228.09 214.12 229.07 195.13 240.19 194.88 239.2 213.87 228.09"/><polyline class="cls-115" points="241.71 203.09 241.96 204.07 214.98 219.86 214.73 218.88 241.71 203.09"/><polyline class="cls-115" points="242.18 204.98 242.43 205.96 215.45 221.75 215.21 220.78 242.18 204.98"/><polyline class="cls-115" points="242.66 206.89 242.91 207.87 215.93 223.66 215.68 222.67 242.66 206.89"/><polyline class="cls-115" points="243.14 208.77 243.39 209.75 216.41 225.56 216.16 224.56 243.14 208.77"/><polyline class="cls-115" points="243.62 210.67 243.86 211.65 216.89 227.45 216.64 226.47 243.62 210.67"/><polyline class="cls-115" points="240.06 196.56 240.87 199.71 204.53 220.98 203.74 217.82 240.06 196.56"/><polyline class="cls-118" points="242.22 260.05 242.47 261.03 209.81 280.15 209.56 279.18 242.22 260.05"/><polyline class="cls-118" points="239.85 263.62 240.1 264.59 213.12 280.39 212.87 279.41 239.85 263.62"/><polyline class="cls-116" points="248.85 246.14 249.57 249 247.84 250.01 247.11 247.15 248.85 246.14"/><polyline class="cls-102" points="247.84 242.13 248.85 246.14 247.11 247.15 246.1 243.16 247.84 242.13"/><polyline class="cls-116" points="243.5 247.05 244.7 251.85 242.97 252.86 241.78 248.07 243.5 247.05"/><polyline class="cls-102" points="242.7 243.88 243.5 247.05 241.78 248.07 240.97 244.89 242.7 243.88"/><polyline class="cls-116" points="237.07 243.66 239.85 254.68 238.12 255.71 235.34 244.68 237.07 243.66"/><polyline class="cls-116" points="233.3 250.85 234.98 257.54 233.26 258.55 231.58 251.85 233.3 250.85"/><polyline class="cls-102" points="232.6 248.06 233.3 250.85 231.58 251.85 230.88 249.06 232.6 248.06"/><polyline class="cls-116" points="229.28 257.02 230.13 260.38 228.41 261.38 227.56 258.03 229.28 257.02"/><polyline class="cls-116" points="224.69 260.91 225.27 263.23 223.54 264.24 222.97 261.92 224.69 260.91"/><polyline class="cls-102" points="222.95 253.99 224.69 260.91 222.97 261.92 221.22 255 222.95 253.99"/><polyline class="cls-116" points="218.31 257.7 220.42 266.06 218.69 267.08 216.59 258.71 218.31 257.7"/><polyline class="cls-102" points="217.58 254.78 218.31 257.7 216.59 258.71 215.85 255.79 217.58 254.78"/><polyline class="cls-116" points="211.97 254.62 215.55 268.91 213.83 269.91 210.24 255.63 211.97 254.62"/><polyline class="cls-116" points="209.9 268.57 210.7 271.76 208.97 272.77 208.17 269.58 209.9 268.57"/><polyline class="cls-102" points="208.17 261.7 209.9 268.57 208.17 269.58 206.45 262.72 208.17 261.7"/><polyline class="cls-116" points="205.56 273.44 205.85 274.6 204.12 275.61 203.83 274.45 205.56 273.44"/><polyline class="cls-102" points="201.5 257.35 205.56 273.44 203.83 274.45 199.78 258.36 201.5 257.35"/><polyline class="cls-116" points="200.81 276.72 200.99 277.44 199.26 278.44 199.09 277.73 200.81 276.72"/><polyline class="cls-102" points="196.57 259.84 200.81 276.72 199.09 277.73 194.84 260.86 196.57 259.84"/><path class="cls-116" d="M255.84,234.85a.38.38,0,0,1,.61.21.76.76,0,0,1-.36.76s0,0,0,0c-.26.15-.53.06-.58-.22a.33.33,0,0,1,0-.22l.46,0,.05-.15-.47,0a.82.82,0,0,1,.32-.39" transform="translate(-10.83)"/><path class="cls-116" d="M249.88,234.92a.66.66,0,0,0,0,.41c.07.28.34.36.61.21a.89.89,0,0,0,.33-.39l-.49,0-.4-.2m.31-.36a.69.69,0,0,0-.23.22l.39.19.46,0a.59.59,0,0,0,0-.23c-.07-.28-.33-.37-.61-.21" transform="translate(-10.83)"/><path class="cls-116" d="M244,231.91l-.09.44a.56.56,0,0,0,.19-.07.77.77,0,0,0,.23-.21l-.33-.16m-.14-.6a.75.75,0,0,0-.36.77.36.36,0,0,0,.3.28l.12-.55,0-.12.47.23a.59.59,0,0,0,0-.41.37.37,0,0,0-.6-.2" transform="translate(-10.83)"/><path class="cls-116" d="M241.51,243.07l-.12.55-.26.57a.47.47,0,0,0,.32-.06.75.75,0,0,0,.36-.78.32.32,0,0,0-.3-.28m-.3.07a.76.76,0,0,0-.36.77.4.4,0,0,0,.19.26l.25-.53.12-.57a.6.6,0,0,0-.2.07" transform="translate(-10.83)"/><path class="cls-116" d="M238,251l-.25.55,0,.06-.48-.12a.74.74,0,0,0,0,.33.38.38,0,0,0,.61.19.73.73,0,0,0,.36-.76A.36.36,0,0,0,238,251m-.41,0a.78.78,0,0,0-.29.31l.39.1.22-.48a.55.55,0,0,0-.32.07" transform="translate(-10.83)"/><path class="cls-116" d="M231.33,249.86a.63.63,0,0,0,0,.38.39.39,0,0,0,.61.2.73.73,0,0,0,.28-.3l-.44-.12-.41-.16m.33-.4a.88.88,0,0,0-.26.25l.41.17.44.11a.58.58,0,0,0,0-.32.38.38,0,0,0-.6-.21" transform="translate(-10.83)"/><path class="cls-116" d="M225.1,247.41a.51.51,0,0,0,0,.3c.06.28.34.36.6.21a.78.78,0,0,0,.26-.25l-.41-.17-.44-.09m.34-.46a.7.7,0,0,0-.28.31l.45.1.41.16a.63.63,0,0,0,0-.38.39.39,0,0,0-.62-.19" transform="translate(-10.83)"/><path class="cls-116" d="M219.67,246.2l-.33.43a.41.41,0,0,0,.44,0v0a.75.75,0,0,0,.3-.31l-.42-.1m-.12-.56a.75.75,0,0,0-.36.77.4.4,0,0,0,.08.16l.37-.48,0,0,.47.11a.59.59,0,0,0,0-.32.39.39,0,0,0-.61-.2" transform="translate(-10.83)"/><path class="cls-116" d="M215.86,251.08l-.37.48,0,0-.51.09a.38.38,0,0,0,.62.34.75.75,0,0,0,.36-.77.35.35,0,0,0-.08-.16m-.51-.05h0a.83.83,0,0,0-.36.5l.48-.08.34-.44a.41.41,0,0,0-.44,0" transform="translate(-10.83)"/><path class="cls-116" d="M209.63,252.53a.54.54,0,0,0,0,.22.38.38,0,0,0,.6.21.8.8,0,0,0,.37-.51l-.51.09h-.47M210,252h0a.81.81,0,0,0-.33.4h.48l.48-.09a.49.49,0,0,0,0-.12.38.38,0,0,0-.6-.21" transform="translate(-10.83)"/><path class="cls-116" d="M204.41,251.91a.39.39,0,0,1,.61.2.45.45,0,0,1,0,.23h-.46l-.05.15H205a.75.75,0,0,1-.34.4l0,0a.37.37,0,0,1-.58-.22.75.75,0,0,1,.36-.77" transform="translate(-10.83)"/><path class="cls-102" d="M232.25,250a1,1,0,0,1-.07.15l5.09,1.32a.59.59,0,0,1,.06-.14L232.25,250m8.79-5.82-3.1,6.77.09,0,3.1-6.78-.09,0m9.77-9.17c0,.05,0,.1,0,.15l4.71.24a.42.42,0,0,1,0-.15l-4.71-.24M226,247.52a.51.51,0,0,1-.07.15l5.38,2.19a1,1,0,0,1,.07-.15L226,247.52m-5.88-1.36a1.21,1.21,0,0,1,0,.14l5,1.11a.47.47,0,0,1,.06-.15l-5-1.1m23.61-13.8-2.34,10.71h.1l2.35-10.72h-.11m.62-.44a.75.75,0,0,1-.09.15l5.6,2.85a.64.64,0,0,1,.08-.14l-5.59-2.86M205,252.34a.39.39,0,0,1,0,.14l4.64.05a.89.89,0,0,1,0-.14l-4.64,0" transform="translate(-10.83)"/><path class="cls-116" d="M255.52,235.24l.47,0-.05.15-.46,0a.42.42,0,0,1,0-.15" transform="translate(-10.83)"/><path class="cls-116" d="M250,234.78l.39.19.46,0c0,.05,0,.1,0,.15l-.49,0-.4-.2a.64.64,0,0,1,.08-.14" transform="translate(-10.83)"/><path class="cls-116" d="M243.9,231.69l.47.23a.75.75,0,0,1-.09.15l-.33-.16-.09.44h-.11l.12-.55,0-.12" transform="translate(-10.83)"/><path class="cls-116" d="M241.41,243.07h.1l-.12.55-.26.57-.09,0,.25-.53.12-.57" transform="translate(-10.83)"/><path class="cls-116" d="M237.94,250.94l.09,0-.25.55,0,.06-.48-.12a.59.59,0,0,1,.06-.14l.39.1.22-.48" transform="translate(-10.83)"/><path class="cls-116" d="M231.4,249.71l.41.17.44.11a1,1,0,0,1-.07.15l-.44-.12-.41-.16a1,1,0,0,1,.07-.15" transform="translate(-10.83)"/><path class="cls-116" d="M225.16,247.26l.45.1.41.16a.51.51,0,0,1-.07.15l-.41-.17-.44-.09a.47.47,0,0,1,.06-.15" transform="translate(-10.83)"/><path class="cls-102" d="M210.62,252.31a.66.66,0,0,1,0,.14l4.35-.78a.57.57,0,0,1,0-.13l-4.35.77m8.65-5.74L215.79,251l.07.06,3.48-4.45s-.05,0-.07-.06" transform="translate(-10.83)"/><path class="cls-116" d="M219.67,246.05l.47.11a1.21,1.21,0,0,1,0,.14l-.42-.1-.33.43s-.05,0-.07-.06l.37-.48,0,0" transform="translate(-10.83)"/><path class="cls-116" d="M215.79,251l.07.06-.37.48,0,0-.51.09a.57.57,0,0,1,0-.13l.48-.08.34-.44" transform="translate(-10.83)"/><path class="cls-116" d="M209.66,252.39h.48l.48-.09a.66.66,0,0,1,0,.14l-.51.09h-.47a.89.89,0,0,1,0-.14" transform="translate(-10.83)"/><path class="cls-116" d="M204.56,252.33H205a.39.39,0,0,1,0,.14h-.48l.05-.15" transform="translate(-10.83)"/><polygon class="cls-117" points="309.72 143.21 176.3 220.79 175.33 216.82 308.72 139.16 309.72 143.21"/><path class="cls-101" d="M316.21,144.6l-.08-.34,2.25-1.32.09.34-2.26,1.32m-.21-.84-.08-.35,2.26-1.32.08.34L316,143.76m-.21-.85-.09-.34,2.27-1.33.08.36-2.26,1.31" transform="translate(-10.83)"/><path class="cls-119" d="M189.55,216.58a.54.54,0,0,1,.86.31,1,1,0,0,1-.51,1.09.54.54,0,0,1-.87-.29,1.08,1.08,0,0,1,.52-1.11" transform="translate(-10.83)"/><path class="cls-120" d="M192.13,215.08a.54.54,0,0,1,.85.3,1.11,1.11,0,0,1-.52,1.11.55.55,0,0,1-.87-.3,1.08,1.08,0,0,1,.52-1.1h0" transform="translate(-10.83)"/><path class="cls-121" d="M194.68,213.58a.54.54,0,0,1,.86.3A1.09,1.09,0,0,1,195,215a.55.55,0,0,1-.86-.3,1.05,1.05,0,0,1,.51-1.1h0" transform="translate(-10.83)"/><path class="cls-111" d="M435.26,290.55a2.64,2.64,0,0,1-1.54,2.17L300,370.52a8.18,8.18,0,0,1-7.46,0l-82.37-47.93a2.63,2.63,0,0,1-1.54-2.17v-3a2.64,2.64,0,0,1,1.54-2.17L343.89,237.5a8.2,8.2,0,0,1,7.47,0l82.36,47.89a2.63,2.63,0,0,1,1.54,2.17Z" transform="translate(-10.83)"/><path class="cls-114" d="M296.25,371.42a7.54,7.54,0,0,0,3.73-.9l133.74-77.8a2.64,2.64,0,0,0,1.54-2.17v-3a2.63,2.63,0,0,1-1.54,2.17L300,367.54a7.54,7.54,0,0,1-3.73.9Z" transform="translate(-10.83)"/><path class="cls-122" d="M296.25,371.42a7.52,7.52,0,0,1-3.73-.9l-82.37-47.93a2.63,2.63,0,0,1-1.54-2.17v-3a2.64,2.64,0,0,0,1.54,2.18l82.37,47.93a7.52,7.52,0,0,0,3.73.9" transform="translate(-10.83)"/><g class="cls-123"><path d="M360.42,302.46a5.5,5.5,0,0,0-5,0L322,322c-1.37.79-1.37,2.1,0,2.89L341.12,336a5.47,5.47,0,0,0,5,0l33.51-19.49c1.37-.8,1.37-2.1,0-2.9Z" transform="translate(-10.83)"/></g><g class="cls-123"><path d="M357.57,333.92c-.69-.39-.7-1,0-1.43l15.94-9.29a2.76,2.76,0,0,1,2.49,0l.11.06L357.66,334Z" transform="translate(-10.83)"/></g><g class="cls-123"><path d="M376.09,323.26v.14a2.77,2.77,0,0,1-1.24,2.16l-15.94,9.28c-.69.4-1.25.08-1.25-.71V334Z" transform="translate(-10.83)"/></g><polygon class="cls-124" points="200.02 320.99 202.83 322.62 202.83 323.71 200.02 322.07 200.02 320.99"/><polygon class="cls-124" points="203.66 323.09 206.47 324.72 206.47 325.81 203.66 324.18 203.66 323.09"/><polygon class="cls-124" points="207.22 325.44 212.53 328.52 212.53 329.06 207.22 325.99 207.22 325.44"/><path class="cls-112" d="M312.84,249a7.78,7.78,0,0,1,7.06,0l5,2.89c1.94,1.13,1.94,3,0,4.1L242,304.18a7.78,7.78,0,0,1-7.06,0l-5-2.88c-1.94-1.13-1.95-3,0-4.1Z" transform="translate(-10.83)"/><path class="cls-125" d="M245.52,310.09c.51.29.52.77,0,1.06l-5.94,3.45a2,2,0,0,1-1.83,0l-2.28-1.32a.56.56,0,0,1,0-1.06l5.94-3.45a2,2,0,0,1,1.82,0Z" transform="translate(-10.83)"/><g class="cls-2"><path class="cls-125" d="M385.84,278c.51.29.51.76,0,1l-5.47,3.18a2,2,0,0,1-1.82,0l-2.37-1.37,7.28-4.24Z" transform="translate(-10.83)"/><path class="cls-125" d="M325.75,283.06a.56.56,0,0,1,0,1.06l-5.47,3.18a2,2,0,0,1-1.83,0L314,284.73a.56.56,0,0,1,0-1.06l5.47-3.18a2,2,0,0,1,1.83,0Z" transform="translate(-10.83)"/><path class="cls-125" d="M308.56,293.05a.56.56,0,0,1,0,1.06l-5.47,3.18a2,2,0,0,1-1.82,0l-4.45-2.57a.56.56,0,0,1,0-1.06l5.47-3.18a2.05,2.05,0,0,1,1.84,0Z" transform="translate(-10.83)"/><path class="cls-125" d="M291.37,303a.56.56,0,0,1,0,1.06l-5.47,3.18a2,2,0,0,1-1.82,0l-4.45-2.57a.56.56,0,0,1,0-1.06l5.47-3.18a2,2,0,0,1,1.83,0Z" transform="translate(-10.83)"/><path class="cls-125" d="M236.68,315.23a.56.56,0,0,1,0,1.06l-5.93,3.45a2,2,0,0,1-1.84,0l-2.28-1.31a.56.56,0,0,1,0-1.06l5.93-3.45a2.05,2.05,0,0,1,1.84,0Z" transform="translate(-10.83)"/><path class="cls-125" d="M306.36,324.23a.56.56,0,0,1,0,1.06l-7.08,4.12a2,2,0,0,1-1.82,0L293,326.84c-.52-.3-.52-.76,0-1.06l7.08-4.12a2.05,2.05,0,0,1,1.84,0Z" transform="translate(-10.83)"/><path class="cls-125" d="M281,328.75a.56.56,0,0,1,0,1.06l-16.37,9.51a2,2,0,0,1-1.82,0l-4.45-2.57a.56.56,0,0,1,0-1.06l16.36-9.51a2,2,0,0,1,1.83,0Z" transform="translate(-10.83)"/><path class="cls-125" d="M287.55,335.16a.56.56,0,0,1,0,1.06l-5.47,3.18a2,2,0,0,1-1.82,0l-4.45-2.57a.56.56,0,0,1,0-1.06l5.47-3.18a2.05,2.05,0,0,1,1.84,0Z" transform="translate(-10.83)"/><path class="cls-126" d="M398.75,273c.51.29.52.76,0,1.06l-125.29,72.8a2,2,0,0,1-1.83,0l-49.23-28.42c-.52-.3-.51-.77,0-1.06L347.7,244.56a2,2,0,0,1,1.82,0Zm-89.28,50.49,41-23.83a.56.56,0,0,0,0-1L346,296a2,2,0,0,0-1.83,0l-41,23.83c-.5.29-.51.76,0,1.06l4.44,2.57a2,2,0,0,0,1.83,0m-44.83,15.84L281,329.81a.56.56,0,0,0,0-1.06l-4.45-2.57a2,2,0,0,0-1.83,0l-16.36,9.51a.56.56,0,0,0,0,1.06l4.45,2.57a2,2,0,0,0,1.82,0m105.71-61.43L385.72,269c.5-.3.51-.77,0-1.06l-4.45-2.57a2,2,0,0,0-1.83,0l-15.37,8.93c-.5.3-.49.77,0,1.06l4.44,2.57a2,2,0,0,0,1.82,0M256.13,334.4l12.09-7a.56.56,0,0,0,0-1.06l-4.45-2.57a2,2,0,0,0-1.83,0l-12.09,7a.56.56,0,0,0,0,1.06l4.45,2.57a2,2,0,0,0,1.83,0M366,270.53,377.21,264a.56.56,0,0,0,0-1.06l-4.45-2.57a2,2,0,0,0-1.83,0l-11.17,6.49c-.5.3-.49.77,0,1.06l4.45,2.57a2,2,0,0,0,1.82,0m-15.38-10.75,9.55-5.55a.56.56,0,0,0,0-1.06l-4.45-2.57a2.05,2.05,0,0,0-1.84,0l-9.55,5.55a.56.56,0,0,0,0,1.06l4.45,2.57a2,2,0,0,0,1.83,0m-103,69.73,9.41-5.47a.56.56,0,0,0,0-1.06l-4.45-2.57a2,2,0,0,0-1.83,0l-9.41,5.47a.56.56,0,0,0,0,1.06l4.44,2.57a2,2,0,0,0,1.83,0m51.62-.1,7.08-4.12a.56.56,0,0,0,0-1.06l-4.45-2.57a2.05,2.05,0,0,0-1.84,0L293,325.78c-.5.3-.5.76,0,1.06l4.44,2.57a2,2,0,0,0,1.82,0M353.38,298l7.08-4.11c.51-.3.51-.77,0-1.06L356,290.22a2,2,0,0,0-1.84,0l-7.07,4.11a.57.57,0,0,0,0,1.07l4.45,2.56a2,2,0,0,0,1.82,0m4-22.39,5.48-3.18a.56.56,0,0,0,0-1.06l-4.45-2.57a2,2,0,0,0-1.83,0l-5.48,3.18a.56.56,0,0,0,0,1.06l4.45,2.57a2,2,0,0,0,1.83,0M282,299.66l5.47-3.18a.56.56,0,0,0,0-1.06l-4.44-2.57a2.05,2.05,0,0,0-1.84,0L275.75,296a.56.56,0,0,0,0,1.06l4.45,2.57a2,2,0,0,0,1.83,0m-17.2,10,5.47-3.18c.52-.3.5-.77,0-1.06l-4.45-2.57a2,2,0,0,0-1.83,0L258.56,306a.56.56,0,0,0,0,1.06l4.45,2.57a2,2,0,0,0,1.83,0m-17.18,10,5.47-3.18a.56.56,0,0,0,0-1.06l-4.45-2.57a2,2,0,0,0-1.83,0L241.37,316a.56.56,0,0,0,0,1.06l4.44,2.57a2.05,2.05,0,0,0,1.84,0m86-49.95,5.47-3.18c.51-.3.5-.77,0-1.06l-4.45-2.57a2,2,0,0,0-1.83,0l-5.47,3.18a.56.56,0,0,0,0,1.06l4.45,2.57a2,2,0,0,0,1.83,0m-43,25,5.47-3.18a.56.56,0,0,0,0-1.06l-4.45-2.57a2,2,0,0,0-1.83,0L284.35,291a.56.56,0,0,0,0,1.06l4.45,2.57a2,2,0,0,0,1.83,0m-34.38,20,5.47-3.17a.57.57,0,0,0,0-1.07l-4.45-2.56a2,2,0,0,0-1.84,0L250,311c-.5.29-.5.76,0,1.06l4.45,2.56a2,2,0,0,0,1.83,0m51.57-30,5.48-3.19a.56.56,0,0,0,0-1.06l-4.45-2.57a2,2,0,0,0-1.83,0l-5.48,3.19c-.5.29-.49.76,0,1.05l4.45,2.57a2,2,0,0,0,1.82,0m17.2-10,5.47-3.18a.56.56,0,0,0,0-1.06L326,267.87a2,2,0,0,0-1.83,0l-5.47,3.18a.56.56,0,0,0,0,1.06l4.44,2.57a2.05,2.05,0,0,0,1.84,0m-85.88,49.91,5.47-3.18a.56.56,0,0,0,0-1.06l-4.45-2.57a2,2,0,0,0-1.83,0L232.85,321a.56.56,0,0,0,0,1.06l4.44,2.57a2.05,2.05,0,0,0,1.84,0m32.25.94,5.47-3.17a.57.57,0,0,0,0-1.07l-4.45-2.56a2,2,0,0,0-1.83,0l-5.48,3.17a.57.57,0,0,0,0,1.07l4.45,2.56a2,2,0,0,0,1.83,0m68.79-40,5.47-3.18a.56.56,0,0,0,0-1.06l-4.45-2.57a2,2,0,0,0-1.83,0l-5.47,3.18a.56.56,0,0,0,0,1.06l4.44,2.57a2.05,2.05,0,0,0,1.84,0m-25.78,15,5.46-3.17c.51-.3.5-.77,0-1.06l-4.45-2.57a2,2,0,0,0-1.83,0l-5.46,3.17a.57.57,0,0,0,0,1.07l4.44,2.57a2,2,0,0,0,1.85,0m17.18-10,5.47-3.18a.56.56,0,0,0,0-1.06l-4.45-2.57a2,2,0,0,0-1.83,0l-5.48,3.18c-.51.29-.49.76,0,1.06l4.45,2.57a2,2,0,0,0,1.83,0m-25.79,15,5.47-3.18c.52-.29.5-.77,0-1.06l-4.45-2.57a2,2,0,0,0-1.83,0l-5.47,3.18a.56.56,0,0,0,0,1.06l4.45,2.57a2,2,0,0,0,1.83,0m-8.59,5,5.47-3.18a.56.56,0,0,0,0-1.06l-4.46-2.57a2,2,0,0,0-1.83,0l-5.47,3.18a.56.56,0,0,0,0,1.06l4.45,2.57a2,2,0,0,0,1.83,0m2-20.87,5.47-3.18c.51-.3.5-.77,0-1.06l-4.45-2.57a2,2,0,0,0-1.83,0L292.94,286c-.5.29-.49.76,0,1l4.45,2.58a2.07,2.07,0,0,0,1.83,0m17.19-10,5.47-3.18a.56.56,0,0,0,0-1.06l-4.45-2.57a2,2,0,0,0-1.82,0l-5.48,3.18c-.5.29-.49.76,0,1.06l4.45,2.57a2,2,0,0,0,1.83,0m25.79-15,5.47-3.18a.56.56,0,0,0,0-1.05l-4.45-2.57a2,2,0,0,0-1.82,0l-5.47,3.18c-.52.3-.51.77,0,1.06l4.45,2.57a2,2,0,0,0,1.83,0m-68.76,40,5.47-3.18c.5-.29.49-.76,0-1.06l-4.45-2.56a2,2,0,0,0-1.82,0L267.16,301a.56.56,0,0,0,0,1.06l4.45,2.57a2,2,0,0,0,1.84,0m15.16,10.88,5.47-3.18c.5-.29.49-.76,0-1.06l-4.45-2.56a2,2,0,0,0-1.82,0l-5.47,3.18c-.51.3-.5.77,0,1.06l4.45,2.57a2,2,0,0,0,1.83,0m-8.61,5,5.48-3.18c.51-.3.49-.77,0-1.06L281,313.72a2,2,0,0,0-1.82,0l-5.48,3.18c-.51.29-.49.76,0,1.06l4.45,2.57a2,2,0,0,0,1.82,0m68.77-40,5.48-3.19c.49-.28.49-.76,0-1.05l-4.44-2.57a2.07,2.07,0,0,0-1.83,0l-5.48,3.19c-.5.29-.49.76,0,1.05l4.45,2.57a2,2,0,0,0,1.82,0m-25.78,15,5.47-3.18c.5-.29.49-.76,0-1.05L324,288.75a2,2,0,0,0-1.83,0l-5.47,3.18a.56.56,0,0,0,0,1.06l4.45,2.57a2,2,0,0,0,1.83,0M353,288l5.47-3.18a.56.56,0,0,0,0-1.06L354,281.18a2.05,2.05,0,0,0-1.84,0l-5.47,3.18a.56.56,0,0,0,0,1.06l4.45,2.57a2,2,0,0,0,1.82,0m-25.79,15,5.47-3.17c.5-.3.51-.77,0-1.06l-4.45-2.57a2.05,2.05,0,0,0-1.84,0l-5.47,3.18a.56.56,0,0,0,0,1.06l4.45,2.57a2,2,0,0,0,1.82,0M292.8,323l5.47-3.18a.55.55,0,0,0,0-1l-4.45-2.57a2,2,0,0,0-1.83,0l-5.47,3.18a.56.56,0,0,0,0,1.06L291,323a2,2,0,0,0,1.82,0M310,313l5.46-3.18c.51-.29.51-.76,0-1L311,306.16a2,2,0,0,0-1.83,0l-5.47,3.18a.56.56,0,0,0,0,1.06l4.45,2.57a2,2,0,0,0,1.83,0m8.59-5,5.47-3.18a.56.56,0,0,0,0-1.06l-4.45-2.57a2,2,0,0,0-1.83,0l-5.47,3.18a.57.57,0,0,0,0,1.07l4.44,2.56a2,2,0,0,0,1.83,0m25.79-15,5.47-3.18c.5-.29.51-.76,0-1.05l-4.45-2.57a2,2,0,0,0-1.83,0l-5.47,3.18c-.51.29-.5.77,0,1.06l4.44,2.57a2,2,0,0,0,1.83,0m17.18-10,5.47-3.17c.51-.3.51-.77,0-1.06l-4.45-2.57a2,2,0,0,0-1.83,0l-5.47,3.18a.56.56,0,0,0,0,1.06l4.45,2.57a2,2,0,0,0,1.82,0m-25.78,15,5.47-3.18c.5-.29.51-.76,0-1.05l-4.45-2.57a2,2,0,0,0-1.82,0l-5.48,3.19a.56.56,0,0,0,0,1.06L334,298a2,2,0,0,0,1.83,0m-75.69,24.29,5.47-3.17c.5-.3.51-.77,0-1.06l-4.45-2.57a2,2,0,0,0-1.83,0l-5.47,3.18a.56.56,0,0,0,0,1.06l4.44,2.57a2,2,0,0,0,1.83,0m22,17.13,5.47-3.18a.56.56,0,0,0,0-1.06l-4.44-2.57a2.05,2.05,0,0,0-1.84,0l-5.47,3.18a.56.56,0,0,0,0,1.06l4.45,2.57a2,2,0,0,0,1.82,0m98.3-57.13,5.47-3.18c.5-.29.5-.76,0-1l-2.37-1.37-2.07-1.2a2,2,0,0,0-1.83,0l-5.47,3.18c-.51.29-.51.76,0,1.06l2.08,1.2,2.37,1.37a2,2,0,0,0,1.82,0M273.46,344.41l5.47-3.18c.5-.3.51-.77,0-1.06l-4.45-2.57a2,2,0,0,0-1.83,0l-5.47,3.18c-.5.29-.51.76,0,1.06l4.45,2.57a2,2,0,0,0,1.82,0m17.21-10,5.47-3.18c.51-.29.51-.76,0-1.05l-4.45-2.57a2,2,0,0,0-1.83,0l-5.47,3.18c-.51.29-.51.76,0,1.06l4.45,2.57a2,2,0,0,0,1.82,0m55.4-62.09,5.47-3.18c.5-.29.51-.76,0-1.05l-4.45-2.57a2,2,0,0,0-1.83,0l-5.47,3.18c-.51.29-.5.77,0,1.06l4.44,2.57a2,2,0,0,0,1.83,0m-25.79,15,5.47-3.18a.56.56,0,0,0,0-1.06l-4.45-2.57a2,2,0,0,0-1.83,0L314,283.67a.56.56,0,0,0,0,1.06l4.44,2.57a2,2,0,0,0,1.83,0m-17.19,10,5.47-3.18a.56.56,0,0,0,0-1.06l-4.44-2.57a2.05,2.05,0,0,0-1.84,0l-5.47,3.18a.56.56,0,0,0,0,1.06l4.45,2.57a2,2,0,0,0,1.82,0m60.34-5.17,5.48-3.18c.5-.3.51-.77,0-1.06l-4.45-2.57a2,2,0,0,0-1.83,0l-5.48,3.19c-.49.28-.5.75,0,1.05l4.45,2.57a2,2,0,0,0,1.81,0m-8.77-24.8,5.47-3.18a.56.56,0,0,0,0-1.06l-4.45-2.57a2,2,0,0,0-1.83,0l-5.47,3.18a.56.56,0,0,0,0,1.06l4.45,2.57a2,2,0,0,0,1.82,0m-60.17,35L300,299.1c.5-.29.51-.76,0-1.05l-4.45-2.57a2,2,0,0,0-1.83,0l-5.47,3.18a.56.56,0,0,0,0,1.06l4.44,2.57a2,2,0,0,0,1.83,0m34.38-20,5.48-3.18a.56.56,0,0,0,0-1.05l-4.44-2.57a2.07,2.07,0,0,0-1.83,0l-5.48,3.19a.56.56,0,0,0,0,1.06l4.45,2.57a2,2,0,0,0,1.82,0m-43,25,5.47-3.18a.56.56,0,0,0,0-1.06l-4.45-2.57a2,2,0,0,0-1.83,0l-5.47,3.18a.56.56,0,0,0,0,1.06l4.45,2.57a2,2,0,0,0,1.82,0m-8.59,5,5.47-3.18c.5-.29.51-.76,0-1l-4.45-2.57a2.05,2.05,0,0,0-1.84,0L271,308.65a.56.56,0,0,0,0,1.06l4.45,2.57a2,2,0,0,0,1.82,0M284.19,328l5.47-3.18c.5-.29.5-.76,0-1l-4.45-2.57a2,2,0,0,0-1.82,0l-5.47,3.18c-.51.29-.5.76,0,1.06l4.45,2.57a2,2,0,0,0,1.82,0m17.2-10,5.48-3.18a.56.56,0,0,0,0-1l-4.45-2.57a2,2,0,0,0-1.83,0l-5.47,3.19c-.51.29-.5.76,0,1.05l4.45,2.57a2,2,0,0,0,1.81,0m61.86-55.64,5.47-3.18c.51-.29.51-.76,0-1.05l-4.45-2.57a2,2,0,0,0-1.83,0L357,258.7c-.51.29-.5.76,0,1.06l4.45,2.56a2,2,0,0,0,1.81,0m-94.54,54.95,5.47-3.18c.5-.3.5-.76,0-1l-4.45-2.57a2,2,0,0,0-1.82,0l-5.47,3.18c-.51.3-.5.77,0,1.06l4.45,2.57a2,2,0,0,0,1.82,0m68.75-40,5.48-3.19a.55.55,0,0,0,0-1l-4.45-2.58a2,2,0,0,0-1.82,0l-5.48,3.19c-.51.29-.49.76,0,1.05l4.45,2.57a2,2,0,0,0,1.81,0m-25.78,15,5.47-3.18c.51-.29.5-.76,0-1.05l-4.45-2.57a2,2,0,0,0-1.82,0l-5.47,3.18c-.51.29-.5.76,0,1.06l4.45,2.57a2,2,0,0,0,1.82,0m-80.93,27.45,5.93-3.45a.56.56,0,0,0,0-1.06l-2.28-1.31a2.05,2.05,0,0,0-1.84,0l-5.93,3.45a.56.56,0,0,0,0,1.06l2.28,1.31a2,2,0,0,0,1.84,0m35.43-20.59,5.92-3.44c.52-.3.5-.77,0-1.06l-2.28-1.32a2,2,0,0,0-1.83,0l-5.93,3.45c-.5.29-.5.76,0,1.06l2.28,1.31a2,2,0,0,0,1.83,0m53.14-30.88,5.94-3.45c.5-.29.48-.76,0-1.06L323,262.45a2,2,0,0,0-1.82,0l-5.94,3.45a.57.57,0,0,0,0,1.07l2.27,1.31a2.05,2.05,0,0,0,1.84,0m-62,36,5.93-3.44a.56.56,0,0,0,0-1.06L261,298.48a2,2,0,0,0-1.83,0l-5.93,3.44c-.5.29-.5.77,0,1.07l2.28,1.31a2,2,0,0,0,1.83,0m26.57-15.44,5.93-3.45a.56.56,0,0,0,0-1.06L287.54,283a2.12,2.12,0,0,0-1.84,0l-5.92,3.45a.56.56,0,0,0,0,1.06l2.28,1.32a2,2,0,0,0,1.83,0m8.85-5.14,5.94-3.46c.5-.29.5-.76,0-1.06l-2.28-1.31a2,2,0,0,0-1.83,0l-5.93,3.45c-.51.29-.49.76,0,1.05l2.28,1.32a2,2,0,0,0,1.82,0M239.6,314.6l5.94-3.45c.5-.29.49-.77,0-1.06l-2.28-1.32a2,2,0,0,0-1.82,0l-5.94,3.45a.56.56,0,0,0,0,1.06l2.28,1.32a2,2,0,0,0,1.83,0m106.29-61.77,5.93-3.45a.56.56,0,0,0,0-1.06L349.53,247a2,2,0,0,0-1.83,0l-5.93,3.44a.56.56,0,0,0,0,1.06l2.28,1.32a2,2,0,0,0,1.83,0M337,258l5.93-3.45a.56.56,0,0,0,0-1.06l-2.28-1.32a2.05,2.05,0,0,0-1.84,0l-5.92,3.45a.56.56,0,0,0,0,1.06L335.2,258a2,2,0,0,0,1.83,0m-8.85,5.14,5.92-3.44a.56.56,0,0,0,0-1.06l-2.28-1.32a2,2,0,0,0-1.83,0l-5.93,3.44a.57.57,0,0,0,0,1.07l2.28,1.31a2,2,0,0,0,1.84,0M301.6,278.57l5.94-3.45a.56.56,0,0,0,0-1.06l-2.28-1.32a2,2,0,0,0-1.83,0l-5.94,3.45c-.49.29-.49.76,0,1.05l2.28,1.32a2,2,0,0,0,1.82,0m-53.14,30.88L254.4,306a.56.56,0,0,0,0-1.06l-2.28-1.31a2,2,0,0,0-1.82,0l-5.94,3.45a.56.56,0,0,0,0,1.06l2.28,1.32a2,2,0,0,0,1.83,0M275,294l5.92-3.45a.56.56,0,0,0,0-1.06l-2.28-1.32a2.05,2.05,0,0,0-1.84,0l-5.92,3.45a.56.56,0,0,0,0,1.06L273.2,294a2.05,2.05,0,0,0,1.84,0m35.42-20.59L316.4,270c.5-.29.49-.76,0-1.06l-2.28-1.31a2,2,0,0,0-1.82,0L306.34,271c-.5.29-.49.77,0,1.06l2.28,1.32a2,2,0,0,0,1.82,0m61.67,13.64,5.47-3.18c.51-.29.51-.76,0-1.05l-1.46-.84a2,2,0,0,0-1.83,0l-5.47,3.18c-.5.29-.51.76,0,1.06l1.45.84a2,2,0,0,0,1.82,0m16.93-9.83,5.47-3.18c.51-.3.51-.77,0-1.06l-1.45-.84a2,2,0,0,0-1.84,0l-5.47,3.18c-.5.29-.5.76,0,1.05l1.45.85a2.06,2.06,0,0,0,1.81,0" transform="translate(-10.83)"/><path class="cls-125" d="M351.81,248.32a.56.56,0,0,1,0,1.06l-5.93,3.45a2,2,0,0,1-1.83,0l-2.28-1.32a.56.56,0,0,1,0-1.06L347.7,247a2,2,0,0,1,1.83,0Z" transform="translate(-10.83)"/><path class="cls-125" d="M343,253.47a.56.56,0,0,1,0,1.06L337,258a2,2,0,0,1-1.83,0l-2.28-1.32a.56.56,0,0,1,0-1.06l5.92-3.45a2.05,2.05,0,0,1,1.84,0Z" transform="translate(-10.83)"/><path class="cls-125" d="M360.21,253.17a.56.56,0,0,1,0,1.06l-9.55,5.55a2,2,0,0,1-1.83,0l-4.45-2.57a.56.56,0,0,1,0-1.06l9.55-5.55a2.05,2.05,0,0,1,1.84,0Z" transform="translate(-10.83)"/><path class="cls-125" d="M368.73,258.09c.5.29.5.76,0,1.05l-5.47,3.18a2,2,0,0,1-1.81,0L357,259.76c-.51-.3-.52-.77,0-1.06l5.47-3.18a2,2,0,0,1,1.83,0Z" transform="translate(-10.83)"/><path class="cls-125" d="M334.1,258.62a.56.56,0,0,1,0,1.06l-5.92,3.44a2,2,0,0,1-1.84,0l-2.28-1.31a.57.57,0,0,1,0-1.07L330,257.3a2,2,0,0,1,1.83,0Z" transform="translate(-10.83)"/><path class="cls-125" d="M347.67,260.46a.56.56,0,0,1,0,1.05l-5.47,3.18a2,2,0,0,1-1.83,0l-4.45-2.57c-.51-.29-.52-.76,0-1.06l5.47-3.18a2,2,0,0,1,1.82,0Z" transform="translate(-10.83)"/><path class="cls-125" d="M360.13,263.08a.56.56,0,0,1,0,1.06l-5.47,3.18a2,2,0,0,1-1.82,0l-4.45-2.57a.56.56,0,0,1,0-1.06l5.47-3.18a2,2,0,0,1,1.83,0Z" transform="translate(-10.83)"/><path class="cls-125" d="M325.24,263.76c.5.3.52.77,0,1.06l-5.94,3.45a2.05,2.05,0,0,1-1.84,0L315.21,267a.57.57,0,0,1,0-1.07l5.94-3.45a2,2,0,0,1,1.82,0Z" transform="translate(-10.83)"/><path class="cls-125" d="M339.07,265.45c.51.29.52.76,0,1.06l-5.47,3.18a2,2,0,0,1-1.83,0l-4.45-2.57a.56.56,0,0,1,0-1.06l5.47-3.18a2,2,0,0,1,1.83,0Z" transform="translate(-10.83)"/><path class="cls-125" d="M377.2,263a.56.56,0,0,1,0,1.06L366,270.53a2,2,0,0,1-1.82,0L359.77,268c-.51-.29-.52-.76,0-1.06l11.17-6.49a2,2,0,0,1,1.83,0Z" transform="translate(-10.83)"/><path class="cls-125" d="M351.54,268.08c.51.29.5.76,0,1.05l-5.47,3.18a2,2,0,0,1-1.83,0l-4.44-2.57c-.51-.29-.52-.77,0-1.06l5.47-3.18a2,2,0,0,1,1.83,0Z" transform="translate(-10.83)"/><path class="cls-125" d="M316.38,268.91c.51.3.52.77,0,1.06l-5.94,3.45a2,2,0,0,1-1.82,0l-2.28-1.32c-.51-.29-.52-.77,0-1.06l5.94-3.45a2,2,0,0,1,1.82,0Z" transform="translate(-10.83)"/><path class="cls-125" d="M330.48,270.44a.56.56,0,0,1,0,1.06L325,274.68a2.05,2.05,0,0,1-1.84,0l-4.44-2.57a.56.56,0,0,1,0-1.06l5.47-3.18a2,2,0,0,1,1.83,0Z" transform="translate(-10.83)"/><path class="cls-125" d="M362.84,271.33a.56.56,0,0,1,0,1.06l-5.48,3.18a2,2,0,0,1-1.83,0L351.08,273a.56.56,0,0,1,0-1.06l5.48-3.18a2,2,0,0,1,1.83,0Z" transform="translate(-10.83)"/><path class="cls-125" d="M394.54,273c.5.29.5.76,0,1.06l-5.47,3.18a2.06,2.06,0,0,1-1.81,0l-1.45-.85c-.52-.29-.52-.76,0-1.05l5.47-3.18a2,2,0,0,1,1.84,0Z" transform="translate(-10.83)"/><path class="cls-125" d="M342.94,273.08a.55.55,0,0,1,0,1l-5.48,3.19a2,2,0,0,1-1.81,0l-4.45-2.57c-.5-.29-.52-.76,0-1.05l5.48-3.19a2,2,0,0,1,1.82,0Z" transform="translate(-10.83)"/><path class="cls-125" d="M385.72,267.9c.51.29.5.76,0,1.06l-15.37,8.93a2,2,0,0,1-1.82,0l-4.44-2.57c-.51-.29-.52-.76,0-1.06l15.37-8.93a2,2,0,0,1,1.83,0Z" transform="translate(-10.83)"/><path class="cls-125" d="M307.53,274.06a.56.56,0,0,1,0,1.06l-5.94,3.45a2,2,0,0,1-1.82,0l-2.28-1.32c-.51-.29-.51-.76,0-1.05l5.94-3.45a2,2,0,0,1,1.83,0Z" transform="translate(-10.83)"/><path class="cls-125" d="M321.88,275.44a.56.56,0,0,1,0,1.06l-5.47,3.18a2,2,0,0,1-1.83,0l-4.45-2.57c-.5-.3-.51-.77,0-1.06l5.48-3.18a2,2,0,0,1,1.82,0Z" transform="translate(-10.83)"/><path class="cls-125" d="M383.48,276.67l-7.29,4.24-2.08-1.2c-.52-.3-.52-.77,0-1.06l5.47-3.18a2,2,0,0,1,1.83,0Z" transform="translate(-10.83)"/><path class="cls-125" d="M354.23,276.33c.51.29.51.77,0,1.05l-5.48,3.19a2,2,0,0,1-1.82,0L342.5,278c-.51-.29-.52-.76,0-1.05l5.48-3.19a2.07,2.07,0,0,1,1.83,0Z" transform="translate(-10.83)"/><path class="cls-125" d="M334.34,278.07a.56.56,0,0,1,0,1.05l-5.48,3.18a2,2,0,0,1-1.82,0l-4.45-2.57a.56.56,0,0,1,0-1.06l5.48-3.19a2.07,2.07,0,0,1,1.83,0Z" transform="translate(-10.83)"/><path class="cls-125" d="M367,278.76c.5.29.5.76,0,1.06L361.56,283a2,2,0,0,1-1.82,0l-4.45-2.57a.56.56,0,0,1,0-1.06l5.47-3.18a2,2,0,0,1,1.83,0Z" transform="translate(-10.83)"/><path class="cls-125" d="M298.67,279.2c.51.3.51.77,0,1.06l-5.94,3.46a2,2,0,0,1-1.82,0l-2.28-1.32c-.5-.29-.52-.76,0-1.05l5.93-3.45a2,2,0,0,1,1.83,0Z" transform="translate(-10.83)"/><path class="cls-125" d="M313.29,280.43a.56.56,0,0,1,0,1.06l-5.48,3.19a2,2,0,0,1-1.82,0l-4.45-2.57c-.51-.29-.52-.76,0-1.05l5.48-3.19a2,2,0,0,1,1.83,0Z" transform="translate(-10.83)"/><path class="cls-125" d="M345.64,281.32a.56.56,0,0,1,0,1.06l-5.47,3.18a2.05,2.05,0,0,1-1.84,0L333.9,283a.56.56,0,0,1,0-1.06l5.47-3.18a2,2,0,0,1,1.83,0Z" transform="translate(-10.83)"/><path class="cls-125" d="M377.61,282.83c.5.29.5.76,0,1.05l-5.47,3.18a2,2,0,0,1-1.82,0l-1.45-.84c-.52-.3-.51-.77,0-1.06l5.47-3.18a2,2,0,0,1,1.83,0Z" transform="translate(-10.83)"/><path class="cls-125" d="M358.44,283.75a.56.56,0,0,1,0,1.06L353,288a2,2,0,0,1-1.82,0l-4.45-2.57a.56.56,0,0,1,0-1.06l5.47-3.18a2.05,2.05,0,0,1,1.84,0Z" transform="translate(-10.83)"/><path class="cls-125" d="M289.81,284.35a.56.56,0,0,1,0,1.06l-5.93,3.45a2,2,0,0,1-1.83,0l-2.28-1.32a.56.56,0,0,1,0-1.06L285.7,283a2.12,2.12,0,0,1,1.84,0Z" transform="translate(-10.83)"/><path class="cls-125" d="M304.69,285.43c.51.29.52.76,0,1.06l-5.47,3.18a2.07,2.07,0,0,1-1.83,0L293,287.09c-.5-.29-.51-.76,0-1l5.47-3.18a2,2,0,0,1,1.83,0Z" transform="translate(-10.83)"/><path class="cls-125" d="M337.05,286.32a.56.56,0,0,1,0,1.06l-5.47,3.18a2,2,0,0,1-1.83,0L325.3,288c-.5-.3-.52-.77,0-1.06l5.48-3.18a2,2,0,0,1,1.83,0Z" transform="translate(-10.83)"/><path class="cls-125" d="M368.91,287.88c.51.29.5.76,0,1.06l-5.48,3.18a2,2,0,0,1-1.81,0l-4.45-2.57c-.52-.3-.51-.77,0-1.05l5.48-3.19a2,2,0,0,1,1.83,0Z" transform="translate(-10.83)"/><path class="cls-125" d="M317.15,288.06c.5.29.51.76,0,1.05l-5.47,3.18a2,2,0,0,1-1.82,0l-4.45-2.57c-.5-.29-.52-.77,0-1.06l5.47-3.18a2,2,0,0,1,1.82,0Z" transform="translate(-10.83)"/><path class="cls-125" d="M349.85,288.75c.51.29.5.76,0,1.05L344.38,293a2,2,0,0,1-1.83,0l-4.44-2.57c-.51-.29-.52-.77,0-1.06l5.47-3.18a2,2,0,0,1,1.83,0Z" transform="translate(-10.83)"/><path class="cls-125" d="M281,289.5a.56.56,0,0,1,0,1.06L275,294a2.05,2.05,0,0,1-1.84,0l-2.28-1.32a.56.56,0,0,1,0-1.06l5.92-3.45a2.05,2.05,0,0,1,1.84,0Z" transform="translate(-10.83)"/><path class="cls-125" d="M296.1,290.42a.56.56,0,0,1,0,1.06l-5.47,3.18a2,2,0,0,1-1.83,0l-4.45-2.57a.56.56,0,0,1,0-1.06l5.47-3.18a2,2,0,0,1,1.83,0Z" transform="translate(-10.83)"/><path class="cls-125" d="M328.44,291.32c.51.29.52.76,0,1.05L323,295.55a2,2,0,0,1-1.83,0L316.71,293a.56.56,0,0,1,0-1.06l5.47-3.18a2,2,0,0,1,1.83,0Z" transform="translate(-10.83)"/><path class="cls-125" d="M360.46,292.79c.51.29.51.76,0,1.06L353.38,298a2,2,0,0,1-1.82,0l-4.45-2.56a.57.57,0,0,1,0-1.07l7.07-4.11a2,2,0,0,1,1.84,0Z" transform="translate(-10.83)"/><path class="cls-125" d="M341.25,293.75c.51.29.5.76,0,1.05L335.78,298a2,2,0,0,1-1.83,0l-4.45-2.57a.56.56,0,0,1,0-1.06l5.48-3.19a2,2,0,0,1,1.82,0Z" transform="translate(-10.83)"/><path class="cls-125" d="M272.1,294.65c.5.29.52.76,0,1.06l-5.92,3.44a2,2,0,0,1-1.83,0l-2.28-1.31c-.51-.3-.51-.77,0-1.06l5.93-3.45a2,2,0,0,1,1.83,0Z" transform="translate(-10.83)"/><path class="cls-125" d="M287.5,295.42a.56.56,0,0,1,0,1.06L282,299.66a2,2,0,0,1-1.83,0l-4.45-2.57a.56.56,0,0,1,0-1.06l5.47-3.18a2.05,2.05,0,0,1,1.84,0Z" transform="translate(-10.83)"/><path class="cls-125" d="M319.85,296.31c.51.29.52.76,0,1.06l-5.46,3.17a2,2,0,0,1-1.85,0L308.11,298a.57.57,0,0,1,0-1.07l5.46-3.17a2,2,0,0,1,1.83,0Z" transform="translate(-10.83)"/><path class="cls-125" d="M300,298.05c.51.29.5.76,0,1.05l-5.47,3.18a2,2,0,0,1-1.83,0l-4.44-2.57a.56.56,0,0,1,0-1.06l5.47-3.18a2,2,0,0,1,1.83,0Z" transform="translate(-10.83)"/><path class="cls-125" d="M332.66,298.74c.5.29.49.76,0,1.06L327.18,303a2,2,0,0,1-1.82,0l-4.45-2.57a.56.56,0,0,1,0-1.06l5.47-3.18a2.05,2.05,0,0,1,1.84,0Z" transform="translate(-10.83)"/><path class="cls-125" d="M263.24,299.8a.56.56,0,0,1,0,1.06l-5.93,3.44a2,2,0,0,1-1.83,0L253.21,303c-.51-.3-.51-.78,0-1.07l5.93-3.44a2,2,0,0,1,1.83,0Z" transform="translate(-10.83)"/><path class="cls-125" d="M278.9,300.41c.51.3.52.77,0,1.06l-5.47,3.18a2,2,0,0,1-1.84,0l-4.45-2.57a.56.56,0,0,1,0-1.06l5.47-3.18a2,2,0,0,1,1.82,0Z" transform="translate(-10.83)"/><path class="cls-125" d="M311.26,301.3c.5.29.52.77,0,1.06l-5.47,3.18a2,2,0,0,1-1.83,0L299.51,303a.56.56,0,0,1,0-1.06l5.47-3.18a2,2,0,0,1,1.83,0Z" transform="translate(-10.83)"/><path class="cls-125" d="M324.06,303.73a.56.56,0,0,1,0,1.06L318.59,308a2,2,0,0,1-1.83,0l-4.44-2.56a.57.57,0,0,1,0-1.07l5.47-3.17a2,2,0,0,1,1.83,0Z" transform="translate(-10.83)"/><path class="cls-125" d="M254.38,304.94a.56.56,0,0,1,0,1.06l-5.94,3.45a2,2,0,0,1-1.83,0l-2.28-1.32a.56.56,0,0,1,0-1.06l5.94-3.45a2,2,0,0,1,1.82,0Z" transform="translate(-10.83)"/><path class="cls-125" d="M270.31,305.41c.5.29.52.76,0,1.06l-5.47,3.18a2,2,0,0,1-1.83,0l-4.45-2.57a.56.56,0,0,1,0-1.06l5.47-3.18a2,2,0,0,1,1.83,0Z" transform="translate(-10.83)"/><path class="cls-125" d="M302.67,306.3a.56.56,0,0,1,0,1.06l-5.47,3.18a2,2,0,0,1-1.83,0L290.92,308a.56.56,0,0,1,0-1.06l5.47-3.18a2,2,0,0,1,1.83,0Z" transform="translate(-10.83)"/><path class="cls-125" d="M282.78,308c.5.29.49.76,0,1l-5.47,3.18a2,2,0,0,1-1.82,0L271,309.71a.56.56,0,0,1,0-1.06l5.47-3.18a2.05,2.05,0,0,1,1.84,0Z" transform="translate(-10.83)"/><path class="cls-125" d="M315.47,308.73c.5.29.5.76,0,1L310,313a2,2,0,0,1-1.83,0l-4.45-2.57a.56.56,0,0,1,0-1.06l5.47-3.18a2,2,0,0,1,1.83,0Z" transform="translate(-10.83)"/><path class="cls-125" d="M261.72,310.4a.57.57,0,0,1,0,1.07l-5.47,3.17a2,2,0,0,1-1.83,0L250,312.08c-.51-.3-.51-.77,0-1.06l5.47-3.18a2,2,0,0,1,1.84,0Z" transform="translate(-10.83)"/><path class="cls-125" d="M294.06,311.29c.51.3.52.77,0,1.06l-5.47,3.18a2,2,0,0,1-1.83,0L282.33,313c-.51-.29-.52-.76,0-1.06l5.47-3.18a2,2,0,0,1,1.82,0Z" transform="translate(-10.83)"/><path class="cls-125" d="M274.17,313c.51.29.51.75,0,1l-5.47,3.18a2,2,0,0,1-1.82,0l-4.45-2.57c-.51-.29-.52-.76,0-1.06l5.47-3.18a2,2,0,0,1,1.82,0Z" transform="translate(-10.83)"/><path class="cls-125" d="M306.87,313.73a.55.55,0,0,1,0,1L301.39,318a2,2,0,0,1-1.81,0l-4.45-2.57c-.51-.29-.52-.76,0-1.05l5.47-3.19a2,2,0,0,1,1.83,0Z" transform="translate(-10.83)"/><path class="cls-125" d="M253.12,315.4a.56.56,0,0,1,0,1.06l-5.47,3.18a2.05,2.05,0,0,1-1.84,0l-4.44-2.57a.56.56,0,0,1,0-1.06l5.47-3.18a2,2,0,0,1,1.83,0Z" transform="translate(-10.83)"/><path class="cls-125" d="M285.47,316.29c.5.29.52.76,0,1.06L280,320.53a2,2,0,0,1-1.82,0L273.73,318c-.5-.3-.52-.77,0-1.06l5.48-3.18a2,2,0,0,1,1.82,0Z" transform="translate(-10.83)"/><path class="cls-125" d="M265.56,318c.51.29.5.76,0,1.06l-5.47,3.17a2,2,0,0,1-1.83,0l-4.44-2.57a.56.56,0,0,1,0-1.06l5.47-3.18a2,2,0,0,1,1.83,0Z" transform="translate(-10.83)"/><path class="cls-125" d="M298.27,318.72a.55.55,0,0,1,0,1L292.8,323a2,2,0,0,1-1.82,0l-4.45-2.57a.56.56,0,0,1,0-1.06l5.47-3.18a2,2,0,0,1,1.83,0Z" transform="translate(-10.83)"/><path class="cls-125" d="M350.47,298.6a.55.55,0,0,1,0,1l-41,23.83a2,2,0,0,1-1.83,0l-4.44-2.57c-.52-.3-.51-.77,0-1.06l41-23.83a2,2,0,0,1,1.83,0Z" transform="translate(-10.83)"/><path class="cls-125" d="M244.6,320.35a.56.56,0,0,1,0,1.06l-5.47,3.18a2.05,2.05,0,0,1-1.84,0L232.86,322a.56.56,0,0,1,0-1.06l5.47-3.18a2,2,0,0,1,1.83,0Z" transform="translate(-10.83)"/><path class="cls-125" d="M276.86,321.29a.57.57,0,0,1,0,1.07l-5.47,3.17a2,2,0,0,1-1.83,0L265.11,323a.57.57,0,0,1,0-1.07l5.48-3.17a2,2,0,0,1,1.83,0Z" transform="translate(-10.83)"/><path class="cls-125" d="M289.65,323.73c.51.29.51.76,0,1L284.19,328a2,2,0,0,1-1.82,0l-4.45-2.57c-.51-.3-.52-.77,0-1.06l5.47-3.18a2,2,0,0,1,1.82,0Z" transform="translate(-10.83)"/><path class="cls-125" d="M257.06,323a.56.56,0,0,1,0,1.06l-9.41,5.47a2,2,0,0,1-1.83,0l-4.44-2.57a.56.56,0,0,1,0-1.06l9.41-5.47a2,2,0,0,1,1.83,0Z" transform="translate(-10.83)"/><path class="cls-125" d="M296.15,330.17c.5.29.5.76,0,1.05l-5.47,3.18a2,2,0,0,1-1.82,0l-4.45-2.57c-.51-.3-.51-.77,0-1.06l5.47-3.18a2,2,0,0,1,1.83,0Z" transform="translate(-10.83)"/><path class="cls-125" d="M278.93,340.17c.51.29.5.76,0,1.06l-5.47,3.18a2,2,0,0,1-1.82,0l-4.45-2.57c-.52-.3-.51-.77,0-1.06l5.47-3.18a2,2,0,0,1,1.83,0Z" transform="translate(-10.83)"/></g><path class="cls-125" d="M268.21,326.32a.56.56,0,0,1,0,1.06l-12.09,7a2,2,0,0,1-1.83,0l-4.45-2.57a.56.56,0,0,1,0-1.06l12.09-7a2,2,0,0,1,1.83,0Z" transform="translate(-10.83)"/></g></g></svg>