<svg xmlns="http://www.w3.org/2000/svg" xmlns:xlink="http://www.w3.org/1999/xlink" viewBox="0 0 484.3 430.59"><defs><style>.cls-1{fill:none;}.cls-2{isolation:isolate;}.cls-3{clip-path:url(#clip-path);}.cls-4{fill:#dcddde;}.cls-5{clip-path:url(#clip-path-2);}.cls-6{fill:#f5f5f5;}.cls-7{fill:#8ec2ff;}.cls-8{fill:#4795ff;}.cls-9{clip-path:url(#clip-path-3);}.cls-10{fill:#4091ff;}.cls-11{fill:#4191ff;}.cls-12{fill:#66a8ff;}.cls-13{fill:#66a9ff;}.cls-14{clip-path:url(#clip-path-4);}.cls-15,.cls-19{fill:#2b90ff;}.cls-16,.cls-17,.cls-18,.cls-21,.cls-24{fill:#fff;}.cls-16,.cls-19,.cls-20{opacity:0.2;}.cls-17,.cls-22{opacity:0.5;}.cls-21{opacity:0.6;}.cls-23{clip-path:url(#clip-path-5);}.cls-24,.cls-42{opacity:0.3;}.cls-25{fill:#d8d8d8;}.cls-26{fill:#081b2f;}.cls-27{fill:#ffcfae;}.cls-28{fill:#9b9b9b;}.cls-29{fill:#eab896;}.cls-30{fill:#424242;}.cls-31{fill:#6b373e;}.cls-32{clip-path:url(#clip-path-6);}.cls-33{fill:#10355d;}.cls-34{fill:#fcfcfc;}.cls-35{clip-path:url(#clip-path-7);}.cls-36{fill:#bababa;}.cls-37{fill:#f9f9f9;}.cls-38{opacity:0.15;}.cls-39{fill:#dbdddd;}.cls-40,.cls-46{opacity:0.1;}.cls-41,.cls-47{opacity:0.08;}.cls-43{fill:#515151;}.cls-44{opacity:0.08;}.cls-45{fill-opacity:0.2;}.cls-47{fill:#3a2416;}.cls-48{fill:#dbdbdb;}</style><clipPath id="clip-path" transform="translate(-10.83)"><polygon class="cls-1" points="0 290.32 252.15 143.79 505.96 290.32 253.8 436.86 0 290.32"/></clipPath><clipPath id="clip-path-2" transform="translate(-10.83)"><polygon class="cls-1" points="0 284.33 252.15 137.79 505.96 284.33 253.8 430.86 0 284.33"/></clipPath><clipPath id="clip-path-3" transform="translate(-10.83)"><path class="cls-1" d="M270.6,147.37l-55.22-32.09c0-13.82,1-35.51,1.55-49.67l55.22,32.08C271.58,111.85,270.56,133.55,270.6,147.37Z"/></clipPath><clipPath id="clip-path-4" transform="translate(-10.83)"><polygon class="cls-1" points="107.2 315.09 240.41 237.68 369.45 312.17 236.24 389.59 107.2 315.09"/></clipPath><clipPath id="clip-path-5" transform="translate(-10.83)"><polygon class="cls-1" points="171.43 145.09 171.44 145.09 171.43 306.32 74.73 251.94 74.73 90.71 171.43 145.09"/></clipPath><clipPath id="clip-path-6" transform="translate(-10.83)"><polygon class="cls-1" points="117.91 205.31 118.03 162.23 155.53 183.88 155.41 226.96 117.91 205.31"/></clipPath><clipPath id="clip-path-7" transform="translate(-10.83)"><polygon class="cls-1" points="402.15 288.23 438.39 267.17 474.87 288.23 438.63 309.29 402.15 288.23"/></clipPath></defs><title>Number 4</title><g id="Layer_2" data-name="Layer 2"><g id="Layer_1-2" data-name="Layer 1"><g class="cls-2"><g class="cls-3"><path class="cls-4" d="M487.42,279.62,270.7,154.5c-10.24-5.92-26.8-5.92-37,0L18.42,279.62c-10.17,5.91-10.11,15.5.13,21.41L235.26,426.15c10.24,5.92,26.79,5.92,37,0L487.53,301c10.17-5.91,10.13-15.5-.11-21.41" transform="translate(-10.83)"/></g></g><g class="cls-2"><g class="cls-5"><path class="cls-6" d="M487.42,273.62,270.7,148.5c-10.24-5.91-26.79-5.91-37,0L18.43,273.62c-10.18,5.91-10.12,15.51.12,21.42L235.26,420.16c10.24,5.91,26.8,5.91,37,0L487.54,295c10.17-5.91,10.12-15.49-.12-21.41" transform="translate(-10.83)"/></g></g><g class="cls-2"><polygon class="cls-7" points="300.73 159.28 245.51 127.19 267.34 114.59 322.56 146.68 300.73 159.28"/><polygon class="cls-8" points="260.13 273.1 204.91 241.01 204.76 189.14 259.98 221.23 260.13 273.1"/><polygon class="cls-8" points="259.87 182.87 204.66 150.78 204.56 115.28 259.77 147.37 259.87 182.87"/><polygon class="cls-7" points="220.03 205.87 164.82 173.78 204.66 150.78 259.87 182.87 220.03 205.87"/><g class="cls-2"><g class="cls-9"><g class="cls-2"><path class="cls-10" d="M270.6,147.37l-55.22-32.09c0-.78,0-1.58,0-2.4L270.6,145v2.4" transform="translate(-10.83)"/><path class="cls-11" d="M270.6,145l-55.21-32.09c.07-13.83,1-33.91,1.54-47.27l55.22,32.08c-.53,13.37-1.48,33.45-1.55,47.28" transform="translate(-10.83)"/></g></g></g><polygon class="cls-8" points="178.17 268.46 122.95 236.38 122.85 201.56 178.07 233.65 178.17 268.46"/><polygon class="cls-12" points="178.07 233.65 122.85 201.56 191.56 30.94 246.78 63.02 178.07 233.65"/><path class="cls-13" d="M311.55,159.28l21.83-12.6.11,38.36-21.83,12.6.15,51.87L271,273.1l-.14-51.87L189,268.46l-.09-34.81L257.61,63l53.58-30.94ZM270.6,147.37c0-13.82,1-35.52,1.55-49.68l-1.2.69c-4.73,15.05-10.06,30.19-15.39,45.69l-24.7,61.8,39.84-23-.1-35.5" transform="translate(-10.83)"/><polygon class="cls-7" points="246.78 63.02 191.56 30.94 245.15 0 300.37 32.09 246.78 63.02"/></g><g class="cls-2"><g class="cls-14"><path class="cls-15" d="M354.22,314.8l-2-1.14-97.48,56.65c-6.6,3.83-15.27,5.75-23.95,5.75s-17.37-1.92-24-5.76l-96.63-55.78a2.14,2.14,0,0,0-2,0,.6.6,0,0,0,0,1.14l96.63,55.79c14.38,8.3,37.63,8.31,51.92,0l97.48-56.65" transform="translate(-10.83)"/><path class="cls-15" d="M363,308.42a2.41,2.41,0,0,0-1.39-.26l-13.17,1.18c-1.31.12-1.82,1.05-.88,1.59l4.73,2.73,2,1.14,4.45,2.57c.93.54,2.53.24,2.73-.52l2-7.63c.09-.31-.11-.6-.45-.8" transform="translate(-10.83)"/></g></g><polygon class="cls-16" points="64.92 251.38 161.65 305.76 161.65 305.76 160.65 306.32 63.97 251.94 64.92 251.38"/><polygon class="cls-15" points="99.15 271.3 98.19 271.86 98.19 109.97 98.19 109.96 99.15 109.41 99.15 271.3"/><polygon class="cls-17" points="99.15 271.3 98.19 271.86 98.19 109.97 98.19 109.96 99.15 109.41 99.15 271.3"/><polygon class="cls-15" points="64.88 251.38 63.92 251.94 63.93 90.71 63.92 90.71 64.88 90.15 64.88 251.38"/><polygon class="cls-17" points="64.88 251.38 63.92 251.94 63.93 90.71 63.92 90.71 64.88 90.15 64.88 251.38"/><polygon class="cls-18" points="160.59 306.32 63.91 251.94 160.59 306.32 160.59 306.32"/><polyline class="cls-19" points="63.9 90.71 64.87 90.24 161.56 144.71 161.56 144.71 161.56 305.85 160.6 306.37 63.9 251.94 63.9 90.58"/><polygon class="cls-20" points="161.57 305.77 160.61 306.32 160.61 145.09 160.61 145.09 161.56 144.53 161.57 305.77"/><polygon class="cls-18" points="64.88 90.15 161.56 144.53 161.56 144.53 160.61 145.09 63.92 90.71 64.88 90.15"/><polygon class="cls-15" points="63.92 90.71 64.88 90.15 161.56 144.53 161.56 144.53 161.57 305.77 160.61 306.32 160.61 145.09 160.61 145.09 63.92 90.71"/><polygon class="cls-16" points="161.57 305.77 160.61 306.32 160.61 145.09 160.61 145.09 161.56 144.53 161.57 305.77"/><polygon class="cls-21" points="64.88 90.15 161.56 144.53 161.56 144.53 160.61 145.09 63.92 90.71 64.88 90.15"/><g class="cls-22"><g class="cls-23"><polygon class="cls-24" points="136.1 124.46 86.72 277.93 97.99 287.43 153.18 136.54 136.1 124.46"/><polygon class="cls-24" points="128.21 118.98 81.11 270.74 85.06 275.26 133.72 122.15 128.21 118.98"/><polygon class="cls-24" points="151.91 133.51 104.89 285.27 104.89 287.51 153.5 139.65 151.91 133.51"/></g></g><path class="cls-25" d="M72.17,291.18c-7.24,4.21-8.52,10.36-2.83,13.66s16.25,2.56,23.5-1.65,8.52-10.36,2.83-13.66S79.42,287,72.17,291.18Z" transform="translate(-10.83)"/><path class="cls-26" d="M74.75,301.74c1.57,1.57,3.47,2.21,4.25,1.43s.14-2.68-1.43-4.25-3.47-2.22-4.25-1.44c-.47.47-.44,1.7-.44,2.17A14.89,14.89,0,0,0,74.75,301.74Z" transform="translate(-10.83)"/><path class="cls-27" d="M74.76,300.1c1,1,2.26,1.36,2.74.85s0-1.71-1-2.69-2.25-1.36-2.74-.85S73.74,299.12,74.76,300.1Z" transform="translate(-10.83)"/><path class="cls-26" d="M88.81,293.69c1.51,1.51,3.33,2.13,4.08,1.38s.13-2.58-1.37-4.09-3.34-2.13-4.09-1.38c-.45.45-.42,1.63-.42,2.09A14.47,14.47,0,0,0,88.81,293.69Z" transform="translate(-10.83)"/><path class="cls-27" d="M88.82,292.12c1,.94,2.17,1.31,2.63.82s0-1.65-.94-2.59-2.17-1.31-2.63-.82S87.83,291.18,88.82,292.12Z" transform="translate(-10.83)"/><path class="cls-28" d="M72.88,272.31s-5.66-22.72-7.63-37l34.43-6.12c.15,7-1.71,20.93-2.49,30.54C96,274.16,91,290.86,91,290.86h0c-.11.52-.69.92-1.86.92s-2.2-.44-2.2-1l.53-23.22L85,247.76s-1.23,14.72-2.14,22.58-5.56,28.09-5.56,28.09c0,.82-.6,1.49-2,1.49s-2.36-.61-2.37-1.42h0Z" transform="translate(-10.83)"/><path class="cls-18" d="M100.2,187.06c2.65,5.61,3.84,14.61,4.28,22.43l-7.68.81-7.34-18.91" transform="translate(-10.83)"/><path class="cls-27" d="M98.51,226s-.28,2.8-.47,3.59c-.12.5-.19.85-.29,1.22s-.16.76,0,.88.46.16.75-.87a4.51,4.51,0,0,1-1,1.88c-.55.6-1.36,1.2-1.14,1.51s.8,0,.8,0,.07.51.8.11c0,0,.09.41.83-.11,0,0,.29.34,1-.34a11.5,11.5,0,0,0,3.16-8.22Z" transform="translate(-10.83)"/><path class="cls-18" d="M104.47,209.34c.76,13.67-1.36,17.87-1.36,17.87l-4.64.13-1.67-17" transform="translate(-10.83)"/><path class="cls-18" d="M96.75,209.56a3.86,3.86,0,1,1,3.86,3.86A3.86,3.86,0,0,1,96.75,209.56Z" transform="translate(-10.83)"/><path class="cls-18" d="M89.19,189.62a5.81,5.81,0,1,1,5.8,5.8A5.8,5.8,0,0,1,89.19,189.62Z" transform="translate(-10.83)"/><path class="cls-18" d="M96.93,236.94a47.23,47.23,0,0,1-18.2,9.23,14.68,14.68,0,0,1-4.93.3c-8.76-1.23-10.37-6.26-10.37-12.65l0-32.82A19.58,19.58,0,0,1,72.67,184c5.08-2.86,14.8-5.09,21.11-2.66,8.3,3.2,8.3,13,8.3,13a29.84,29.84,0,0,1-1.56,12.32S105.67,228.88,96.93,236.94Z" transform="translate(-10.83)"/><path class="cls-25" d="M65.13,192.7A6.12,6.12,0,0,1,70,191.35c3.76.47,2.91,4.86,2.91,4.86s-3.84,34.7,4.61,41.5c6,4.81,13.85,2.31,18,.42-3.81,2.91-10.85,6.78-16.77,8a14.68,14.68,0,0,1-4.93.3c-8.76-1.23-10.37-6.26-10.37-12.65l0-32.82A20.89,20.89,0,0,1,65.13,192.7Z" transform="translate(-10.83)"/><path class="cls-27" d="M86.1,165.11c2.13-.08,4.63.45,5.87,2.5.79,1.33.73,3.73.8,5.52a11.05,11.05,0,0,1-3.16,8.37v.87a2.39,2.39,0,0,1-1.4,1.9,7.35,7.35,0,0,1-6.71,0,2.4,2.4,0,0,1-1.38-1.87v-6c0-.1-.79-3.18-.79-3.28C79.12,168.59,82.59,165.25,86.1,165.11Z" transform="translate(-10.83)"/><path class="cls-29" d="M86.8,182.72a4.52,4.52,0,0,0,2.81-1.22v.87a2.39,2.39,0,0,1-1.4,1.9,7.35,7.35,0,0,1-6.71,0,2.4,2.4,0,0,1-1.38-1.87v-8.46C80.4,178.41,83.38,182.86,86.8,182.72Z" transform="translate(-10.83)"/><path class="cls-30" d="M80.1,174.09l.6,3L80.1,179c-.53-.57-.77-1.88-1.28-3-1.58-3.42-1.21-6.05-1-8.71.1-1.12.44-5.64,3.79-5.92,0,0,1.77-1.81,6.7.1,2.87,1.1,4.52-.09,4.52-.09a3.29,3.29,0,0,1-.21,2s2.68,2.33.08,8.76c0-1.61,0-2.86-.65-3.95-.46-.77-1.6-1-2.42-1.07a4.58,4.58,0,0,0-1.43.31,7.91,7.91,0,0,0-1.8-.34c-3.63.28-3.59,1.78-3.59,1.78l-.15,1.68v5.76a3.65,3.65,0,0,0,3,3.39,3.2,3.2,0,0,0,2.3-1h.85s.71,1.11,1.38.77a4.08,4.08,0,0,0,2.18-2.75c-.16.79-1.24,5.63-4.76,6.05-4.31.51-6-2.13-6-5.13v-5.29a.87.87,0,0,0-1-1C79.57,171.28,79.83,172.84,80.1,174.09Z" transform="translate(-10.83)"/><path class="cls-31" d="M92.38,176.69c0-.07,0-.11,0-.11S92.39,176.62,92.38,176.69Z" transform="translate(-10.83)"/><path class="cls-30" d="M87,176.16h2.85a2.52,2.52,0,0,1,.81,1.46H86.16A2.52,2.52,0,0,1,87,176.16Z" transform="translate(-10.83)"/><path class="cls-27" d="M68.84,241.1s.23,2.8.4,3.6c.11.5.18.85.27,1.22s.15.76,0,.88-.46.15-.73-.88a4.45,4.45,0,0,0,.91,1.9c.54.6,1.33,1.22,1.11,1.53s-.8,0-.8,0-.08.51-.8.1c0,0-.1.41-.83-.13,0,0-.29.34-1-.35a11.54,11.54,0,0,1-3-8.28Z" transform="translate(-10.83)"/><path class="cls-18" d="M70,221.57l-.76,22.72-4.45-.14s-3.4-8.94-4.23-23.2" transform="translate(-10.83)"/><path class="cls-18" d="M60.53,220.88a4.74,4.74,0,1,1,4.65,4.83A4.74,4.74,0,0,1,60.53,220.88Z" transform="translate(-10.83)"/><path class="cls-18" d="M77.18,197.7l-7.4,24.72-9.25-1.54s-.15-2.29-.15-4.76c0-10.37,1.47-18.17,4.27-23.69" transform="translate(-10.83)"/><path class="cls-18" d="M64,195.42a6.81,6.81,0,1,1,6.78,6.83A6.8,6.8,0,0,1,64,195.42Z" transform="translate(-10.83)"/><g class="cls-2"><g class="cls-32"><path class="cls-33" d="M136,195.47c-1.08-.45-1.43-.29-1.43.16a1.05,1.05,0,0,0,.59.9.73.73,0,0,0,.84,0v-1.05m7.95,2.62c-.48-.27-.89-.15-1,.55l1.86,1.07a1.76,1.76,0,0,0-.86-1.62m-10.11-5.24-.55-1.47a3.59,3.59,0,0,1,2.21.49,4.1,4.1,0,0,1,2,3.85v3.39l-1.24-.72-.1-.66,0,0a1.55,1.55,0,0,1-1.49-.11,3.21,3.21,0,0,1-1.53-2.68c0-1.24.87-1.41,2.9-.48a1.53,1.53,0,0,0-.81-1.33,2.21,2.21,0,0,0-1.36-.25M144.11,203a5.4,5.4,0,0,1-2.6-4.6c0-1.92,1.2-2.41,2.43-1.7a4.65,4.65,0,0,1,2.19,4.1,3.73,3.73,0,0,1-.07.74L143,199.81a2.73,2.73,0,0,0,1.33,2,1.79,1.79,0,0,0,1.12.25l.5,1.35a2.68,2.68,0,0,1-1.82-.39m-14.28-9.75c.63.36.94.25.94-.21s-.38-.86-1-1.49l-.88-.94a4.42,4.42,0,0,1-1.35-2.91c0-1.29,1-1.74,2.41-.93a6.33,6.33,0,0,1,2.17,2.29l-.78.65a4.39,4.39,0,0,0-1.39-1.42c-.53-.31-.87-.23-.87.21s.45.9,1,1.51l.87.91a4.11,4.11,0,0,1,1.33,2.88c0,1.28-.94,1.87-2.56.93a7.52,7.52,0,0,1-2.5-2.57l.88-.69a5.78,5.78,0,0,0,1.67,1.78m10.4,7.52a2.91,2.91,0,0,1-1.39-2.79l0-6.53,1.52.89,0,6.59a.72.72,0,0,0,.27.65.68.68,0,0,0,.19.08l.18,1.41a2.15,2.15,0,0,1-.77-.3m-3.45-27.76c-10.35-6-18.77-1.18-18.81,10.72s8.34,26.38,18.69,32.36,18.78,1.18,18.81-10.72-8.34-26.38-18.69-32.36" transform="translate(-10.83)"/><path class="cls-34" d="M130,186.81c-1.41-.81-2.41-.36-2.41.93a4.42,4.42,0,0,0,1.35,2.91l.88.94c.59.63,1,1,1,1.49s-.31.57-.94.21a5.78,5.78,0,0,1-1.67-1.78l-.88.69a7.52,7.52,0,0,0,2.5,2.57c1.62.94,2.56.35,2.56-.93A4.11,4.11,0,0,0,131,191l-.87-.91c-.58-.61-1-1-1-1.51s.34-.52.87-.21a4.39,4.39,0,0,1,1.39,1.42l.78-.65a6.33,6.33,0,0,0-2.17-2.29" transform="translate(-10.83)"/><path class="cls-34" d="M135.18,196.53a1.05,1.05,0,0,1-.59-.9c0-.45.35-.61,1.43-.16v1.05a.73.73,0,0,1-.84,0m.34-4.66a3.59,3.59,0,0,0-2.21-.49l.55,1.47a2.21,2.21,0,0,1,1.36.25,1.53,1.53,0,0,1,.81,1.33c-2-.93-2.9-.76-2.9.48a3.21,3.21,0,0,0,1.53,2.68,1.55,1.55,0,0,0,1.49.11l0,0,.1.66,1.24.72v-3.39a4.1,4.1,0,0,0-2-3.85" transform="translate(-10.83)"/><path class="cls-34" d="M140.38,192.38l-1.52-.89,0,6.53a2.91,2.91,0,0,0,1.39,2.79,2.15,2.15,0,0,0,.77.3l-.18-1.41a.68.68,0,0,1-.19-.08.72.72,0,0,1-.27-.65l0-6.59" transform="translate(-10.83)"/><path class="cls-34" d="M143,198.64c.11-.7.52-.82,1-.55a1.76,1.76,0,0,1,.86,1.62L143,198.64m1-1.9c-1.23-.71-2.43-.22-2.43,1.7a5.4,5.4,0,0,0,2.6,4.6,2.68,2.68,0,0,0,1.82.39l-.5-1.35a1.79,1.79,0,0,1-1.12-.25,2.73,2.73,0,0,1-1.33-2l3.08,1.77a3.73,3.73,0,0,0,.07-.74,4.65,4.65,0,0,0-2.19-4.1" transform="translate(-10.83)"/></g></g><g class="cls-2"><g class="cls-35"><path class="cls-25" d="M456.63,277.7c-10.07-5.81-26.35-5.81-36.36,0s-9.95,15.25.12,21.06,26.35,5.82,36.35,0,10-15.24-.11-21.06" transform="translate(-10.83)"/></g></g><path class="cls-36" d="M448.39,284c0-3.2-4.41-5.8-9.79-5.79s-9.77,2.62-9.77,5.83h0v1.26c0,3.21,4.42,5.8,9.79,5.79s9.76-2.61,9.75-5.82c0-.16,0-1,0-1.18S448.39,284.07,448.39,284Z" transform="translate(-10.83)"/><path class="cls-20" d="M438.62,289.86c-5.36,0-9.79-2.58-9.79-5.78v1.26c0,3.21,4.42,5.8,9.79,5.79s9.76-2.61,9.75-5.82c0-.16,0-1,0-1.18C448.27,287.3,443.94,289.85,438.62,289.86Z" transform="translate(-10.83)"/><path class="cls-36" d="M440,283.09c0,.75-.61,1-1.36,1h0c-.75,0-1.37-.28-1.37-1l-.06-43.22a1.37,1.37,0,0,1,1.36-1.37h0a1.36,1.36,0,0,1,1.36,1.36Z" transform="translate(-10.83)"/><path class="cls-20" d="M438.59,238.5a1.75,1.75,0,0,0-.32,0l.07,45.57.32,0c.75,0,1.36-.29,1.36-1L440,239.86A1.36,1.36,0,0,0,438.59,238.5Z" transform="translate(-10.83)"/><path class="cls-37" d="M466,233.44c0-9-12.29-16.35-27.44-16.33s-27.39,7.38-27.39,16.43v2.07c0,9,12.3,16.36,27.45,16.33S466,244.57,466,235.52c0-.39,0-1.19,0-1.64Z" transform="translate(-10.83)"/><path class="cls-20" d="M438.62,249.86c-15.12,0-27.44-7.25-27.44-16.27v2c0,9,12.3,16.36,27.45,16.33S466,244.57,466,235.52c0-.39,0-1.19,0-1.64C465.65,242.72,453.53,249.84,438.62,249.86Z" transform="translate(-10.83)"/><path class="cls-38" d="M460.58,233.49l-23.36,13.59a1.4,1.4,0,0,1-.66.16,1.36,1.36,0,0,1-.65-.16l-14.5-8.44a.4.4,0,0,1,0-.76l23.36-13.58a1.42,1.42,0,0,1,1.31,0l14.5,8.43a.45.45,0,0,1,.27.38A.47.47,0,0,1,460.58,233.49Z" transform="translate(-10.83)"/><path class="cls-39" d="M454,228.89a.48.48,0,0,1-.27.39L430.16,243a1.36,1.36,0,0,1-.65.15,1.4,1.4,0,0,1-.66-.15l-14.49-8.44a.45.45,0,0,1-.27-.38v-.53a.48.48,0,0,1,.27-.38l23.53-13.68a1.29,1.29,0,0,1,.66-.16,1.32,1.32,0,0,1,.66.16L453.7,228a.45.45,0,0,1,.27.38Z" transform="translate(-10.83)"/><path class="cls-20" d="M429.51,243.12a1.36,1.36,0,0,0,.65-.15l23.54-13.69a.48.48,0,0,0,.27-.39v-.52a.47.47,0,0,1-.27.38l-23.54,13.69a1.25,1.25,0,0,1-.65.16Z" transform="translate(-10.83)"/><path class="cls-40" d="M429.51,243.12a1.4,1.4,0,0,1-.66-.15l-14.49-8.44a.45.45,0,0,1-.27-.38v-.53a.48.48,0,0,0,.27.39l14.49,8.43a1.29,1.29,0,0,0,.66.16" transform="translate(-10.83)"/><g class="cls-41"><path d="M430.66,225.08a1,1,0,0,0-.88,0l-5.89,3.44c-.24.14-.24.36,0,.51l3.37,2a1,1,0,0,0,.88,0l5.9-3.43a.27.27,0,0,0,0-.51Z" transform="translate(-10.83)"/></g><g class="cls-41"><path d="M427.78,225.46a.13.13,0,0,1,0,.25l-2.8,1.64a.49.49,0,0,1-.44,0h0l3.24-1.89Z" transform="translate(-10.83)"/></g><polygon class="cls-42" points="415.9 241.38 416.61 241.79 416.61 241.99 415.9 241.57 415.9 241.38"/><polygon class="cls-42" points="416.75 241.87 417.25 242.16 417.25 242.35 416.75 242.06 416.75 241.87"/><polygon class="cls-42" points="417.4 242.24 417.89 242.53 417.89 242.72 417.4 242.44 417.4 242.24"/><path class="cls-18" d="M437.16,230.49a4.1,4.1,0,0,0-.77.62,4,4,0,0,0-.61.77l.26.15a4,4,0,0,1,.61-.77,4.45,4.45,0,0,1,.77-.62Z" transform="translate(-10.83)"/><path class="cls-43" d="M451,228.18a.1.1,0,0,1,0,.19l-1.05.61a.36.36,0,0,1-.32,0l-.4-.24c-.09-.05-.09-.13,0-.18l1.05-.61a.36.36,0,0,1,.32,0Z" transform="translate(-10.83)"/><path class="cls-43" d="M443.13,232.71a.1.1,0,0,1,0,.19l-1.05.6a.31.31,0,0,1-.32,0l-.4-.23c-.09-.05-.09-.13,0-.18l1.05-.61a.36.36,0,0,1,.32,0Z" transform="translate(-10.83)"/><path class="cls-43" d="M444.7,231.81c.09.05.09.13,0,.18l-1.05.61a.38.38,0,0,1-.33,0l-.39-.23a.1.1,0,0,1,0-.19l1.05-.61a.36.36,0,0,1,.32,0Z" transform="translate(-10.83)"/><path class="cls-43" d="M439.24,233.7c.09.05.09.13,0,.18l-1,.56a.38.38,0,0,1-.33,0l-.78-.45a.1.1,0,0,1,0-.19l1-.56a.38.38,0,0,1,.33,0Z" transform="translate(-10.83)"/><path class="cls-43" d="M442.68,228.26c.09.06.09.14,0,.19l-1,.56a.36.36,0,0,1-.32,0l-.78-.45a.1.1,0,0,1,0-.19l1-.56a.36.36,0,0,1,.32,0Z" transform="translate(-10.83)"/><path class="cls-43" d="M443.87,224.06a.1.1,0,0,1,0,.19l-1,.56a.36.36,0,0,1-.32,0l-.78-.45a.1.1,0,0,1,0-.19l1-.56a.36.36,0,0,1,.32,0Z" transform="translate(-10.83)"/><path class="cls-43" d="M442.34,224.94c.09.06.09.14,0,.19l-1,.56a.38.38,0,0,1-.33,0l-.77-.45a.1.1,0,0,1,0-.19l1-.56a.36.36,0,0,1,.32,0Z" transform="translate(-10.83)"/><path class="cls-43" d="M439.3,226.7a.1.1,0,0,1,0,.19l-1.25.72a.33.33,0,0,1-.32,0l-.78-.45c-.09,0-.09-.13,0-.19l1.25-.72a.38.38,0,0,1,.33,0Z" transform="translate(-10.83)"/><g class="cls-2"><path class="cls-43" d="M440.82,225.82a.1.1,0,0,1,0,.19l-1,.56a.38.38,0,0,1-.33,0l-.77-.45a.1.1,0,0,1,0-.19l1-.56a.38.38,0,0,1,.33,0Z" transform="translate(-10.83)"/><path class="cls-43" d="M445.41,225c.09,0,.09.13,0,.18l-2.89,1.68a.36.36,0,0,1-.32,0l-.78-.45c-.09-.06-.09-.14,0-.19l2.89-1.67a.33.33,0,0,1,.32,0Z" transform="translate(-10.83)"/><path class="cls-43" d="M446.9,225.82a.1.1,0,0,1,0,.19l-2.13,1.24a.35.35,0,0,1-.33,0l-.77-.45c-.09,0-.09-.13,0-.18l2.14-1.24a.38.38,0,0,1,.33,0Z" transform="translate(-10.83)"/><path class="cls-43" d="M442,227a.1.1,0,0,1,0,.18l-1,.56a.36.36,0,0,1-.32,0l-.78-.45c-.09-.05-.09-.13,0-.19l1-.56a.36.36,0,0,1,.32,0Z" transform="translate(-10.83)"/><path class="cls-43" d="M448.39,226.68c.09.06.09.14,0,.19l-1.67,1a.36.36,0,0,1-.32,0l-.78-.45c-.09,0-.09-.13,0-.18l1.67-1a.36.36,0,0,1,.32,0Z" transform="translate(-10.83)"/><path class="cls-43" d="M444.2,227.38c.09.06.09.14,0,.19l-1,.56a.36.36,0,0,1-.32,0l-.78-.45a.11.11,0,0,1,0-.19l1-.56a.38.38,0,0,1,.33,0Z" transform="translate(-10.83)"/><path class="cls-43" d="M440.43,227.84c.09,0,.09.13,0,.18l-1,.56a.36.36,0,0,1-.32,0l-.78-.45c-.09,0-.09-.13,0-.18l1-.56a.33.33,0,0,1,.32,0Z" transform="translate(-10.83)"/><path class="cls-43" d="M438.91,228.72c.09.05.09.13,0,.18l-1,.56a.36.36,0,0,1-.32,0l-.78-.45c-.09,0-.09-.13,0-.19l1-.56a.36.36,0,0,1,.32,0Z" transform="translate(-10.83)"/><path class="cls-43" d="M444.66,228.84c.09,0,.09.13,0,.18l-1,.56a.33.33,0,0,1-.32,0l-.78-.45c-.09,0-.09-.13,0-.18l1-.56a.31.31,0,0,1,.32,0Z" transform="translate(-10.83)"/><path class="cls-43" d="M441.16,229.14c.09.06.09.14,0,.19l-1,.56a.36.36,0,0,1-.32,0l-.78-.45a.1.1,0,0,1,0-.19l1-.56a.36.36,0,0,1,.32,0Z" transform="translate(-10.83)"/><path class="cls-43" d="M446.85,229.3a.1.1,0,0,1,0,.19l-1,.56a.36.36,0,0,1-.32,0l-.78-.46c-.09-.05-.09-.13,0-.18l1-.56a.36.36,0,0,1,.32,0Z" transform="translate(-10.83)"/><path class="cls-43" d="M437.39,229.6c.09.05.09.13,0,.18l-1,.56a.36.36,0,0,1-.32,0l-.78-.45a.1.1,0,0,1,0-.19l1-.56a.36.36,0,0,1,.32,0Z" transform="translate(-10.83)"/><path class="cls-43" d="M443.14,229.72c.09.05.09.13,0,.18l-1,.56a.36.36,0,0,1-.32,0l-.78-.45c-.09,0-.08-.13,0-.19l1-.56a.36.36,0,0,1,.32,0Z" transform="translate(-10.83)"/><path class="cls-43" d="M439.64,230a.11.11,0,0,1,0,.19l-1,.56a.36.36,0,0,1-.32,0l-.78-.45a.1.1,0,0,1,0-.19l1-.56a.36.36,0,0,1,.32,0Z" transform="translate(-10.83)"/><path class="cls-43" d="M435.87,230.47a.1.1,0,0,1,0,.19l-1,.56a.36.36,0,0,1-.32,0l-.78-.45a.1.1,0,0,1,0-.19l1-.56a.36.36,0,0,1,.32,0Z" transform="translate(-10.83)"/><path class="cls-43" d="M441.62,230.6c.09.05.09.13,0,.18l-1,.56a.36.36,0,0,1-.32,0l-.78-.45c-.09,0-.09-.13,0-.19l1-.56a.36.36,0,0,1,.32,0Z" transform="translate(-10.83)"/><path class="cls-43" d="M438.12,230.9a.11.11,0,0,1,0,.19l-1,.56a.38.38,0,0,1-.33,0l-.77-.45a.1.1,0,0,1,0-.19l1-.56a.38.38,0,0,1,.33,0Z" transform="translate(-10.83)"/><path class="cls-43" d="M446.26,230.9c.09,0,.09.13,0,.19l-1.05.6a.36.36,0,0,1-.32,0l-.4-.23c-.09-.05-.08-.13,0-.19l1.05-.6a.38.38,0,0,1,.33,0Z" transform="translate(-10.83)"/><path class="cls-43" d="M434.35,231.35a.11.11,0,0,1,0,.19l-1,.56a.38.38,0,0,1-.33,0l-.77-.45a.1.1,0,0,1,0-.19l1-.56a.36.36,0,0,1,.32,0Z" transform="translate(-10.83)"/><path class="cls-43" d="M437.5,227.74c.09.06.09.14,0,.19l-7.26,4.19a.31.31,0,0,1-.32,0l-.78-.45c-.09,0-.08-.13,0-.18l7.26-4.2a.36.36,0,0,1,.32,0Z" transform="translate(-10.83)"/><path class="cls-43" d="M440.1,231.47c.09.06.09.14,0,.19l-1,.56a.36.36,0,0,1-.32,0l-.78-.45a.1.1,0,0,1,0-.19l1-.56a.36.36,0,0,1,.32,0Z" transform="translate(-10.83)"/><path class="cls-43" d="M436.6,231.78a.1.1,0,0,1,0,.19l-1,.56a.38.38,0,0,1-.33,0l-.77-.46c-.09,0-.09-.13,0-.18l1-.56a.38.38,0,0,1,.33,0Z" transform="translate(-10.83)"/><path class="cls-43" d="M442.29,231.94c.08.05.09.13,0,.18l-1,.56a.32.32,0,0,1-.33,0l-.77-.45c-.09,0-.09-.13,0-.18l1-.57a.33.33,0,0,1,.32,0Z" transform="translate(-10.83)"/><path class="cls-43" d="M432.83,232.23a.1.1,0,0,1,0,.19l-1,.56a.38.38,0,0,1-.33,0l-.77-.45c-.09-.06-.09-.14,0-.19l1-.56a.36.36,0,0,1,.32,0Z" transform="translate(-10.83)"/><path class="cls-43" d="M438.58,232.35a.1.1,0,0,1,0,.19l-1,.56a.36.36,0,0,1-.32,0l-.78-.45a.1.1,0,0,1,0-.19l1-.56a.36.36,0,0,1,.32,0Z" transform="translate(-10.83)"/><path class="cls-43" d="M429.73,232.23c.09.06.09.14,0,.19l-1.26.73a.36.36,0,0,1-.32,0l-.78-.45a.1.1,0,0,1,0-.19l1.26-.73a.36.36,0,0,1,.32,0Z" transform="translate(-10.83)"/><path class="cls-43" d="M435.07,232.66c.09.05.09.13,0,.19l-1,.56a.36.36,0,0,1-.32,0L433,233a.1.1,0,0,1,0-.18l1-.56a.36.36,0,0,1,.32,0Z" transform="translate(-10.83)"/><path class="cls-43" d="M440.77,232.82a.1.1,0,0,1,0,.18l-1,.56a.36.36,0,0,1-.32,0l-.78-.45c-.09-.05-.09-.13,0-.19l1-.56a.36.36,0,0,1,.32,0Z" transform="translate(-10.83)"/><path class="cls-43" d="M431.3,233.11a.1.1,0,0,1,0,.19l-1,.56a.38.38,0,0,1-.33,0l-.77-.46c-.09-.05-.09-.13,0-.18l1-.56a.36.36,0,0,1,.32,0Z" transform="translate(-10.83)"/><path class="cls-43" d="M428,233.26c.09.06.09.14,0,.19l-1,.56a.36.36,0,0,1-.32,0l-.78-.45a.1.1,0,0,1,0-.19l1-.56a.36.36,0,0,1,.32,0Z" transform="translate(-10.83)"/><path class="cls-43" d="M433.55,233.54c.09.05.09.13,0,.19l-1,.55a.32.32,0,0,1-.33,0l-.78-.45c-.08-.05-.09-.13,0-.18l1-.56a.33.33,0,0,1,.32,0Z" transform="translate(-10.83)"/><path class="cls-43" d="M425.89,233.85c.08.05.08.13,0,.19l-1,.55a.33.33,0,0,1-.32,0l-.26-.15a.1.1,0,0,1,0-.19l1-.56a.36.36,0,0,1,.32,0Z" transform="translate(-10.83)"/><path class="cls-43" d="M429.78,234c.09,0,.09.13,0,.19l-1,.56a.36.36,0,0,1-.32,0l-.78-.46c-.08-.05-.08-.13,0-.18l1-.56a.36.36,0,0,1,.32,0Z" transform="translate(-10.83)"/><path class="cls-43" d="M435.53,234.11a.1.1,0,0,1,0,.19l-1,.56a.38.38,0,0,1-.33,0l-.77-.46c-.09-.05-.09-.13,0-.18l1-.56a.36.36,0,0,1,.32,0Z" transform="translate(-10.83)"/><path class="cls-43" d="M432,234.42c.09.05.09.13,0,.18l-1,.56a.33.33,0,0,1-.32,0l-.78-.45c-.08-.05-.09-.13,0-.18l1-.56a.31.31,0,0,1,.32,0Z" transform="translate(-10.83)"/><path class="cls-43" d="M437.72,234.57c.09.06.09.14,0,.19l-1,.56a.38.38,0,0,1-.33,0l-.78-.45a.11.11,0,0,1,0-.19l1-.56a.38.38,0,0,1,.33,0Z" transform="translate(-10.83)"/><path class="cls-43" d="M424.59,234.78l-1.29.75-.42-.24c-.09,0-.09-.13,0-.19l1-.56a.36.36,0,0,1,.32,0Z" transform="translate(-10.83)"/><path class="cls-43" d="M428.26,234.87c.09,0,.09.13,0,.19l-1,.56a.36.36,0,0,1-.32,0l-.78-.46c-.09,0-.08-.13,0-.18l1-.56a.36.36,0,0,1,.32,0Z" transform="translate(-10.83)"/><path class="cls-43" d="M434,235a.1.1,0,0,1,0,.19l-1,.56a.38.38,0,0,1-.33,0l-.78-.46c-.08-.05-.08-.13,0-.18l1-.56a.36.36,0,0,1,.32,0Z" transform="translate(-10.83)"/><path class="cls-43" d="M430.51,235.3c.09,0,.09.13,0,.18l-1,.56a.36.36,0,0,1-.32,0l-.78-.45c-.09-.05-.09-.13,0-.19l1-.55a.31.31,0,0,1,.32,0Z" transform="translate(-10.83)"/><path class="cls-43" d="M438.43,235.43c.09,0,.09.13,0,.19l-1.05.6a.36.36,0,0,1-.32,0l-.4-.23a.1.1,0,0,1,0-.19l1-.6a.36.36,0,0,1,.32,0Z" transform="translate(-10.83)"/><path class="cls-43" d="M422.89,235.58a.1.1,0,0,1,0,.19l-1,.56a.36.36,0,0,1-.32,0l-.26-.15a.1.1,0,0,1,0-.19l1-.56a.38.38,0,0,1,.33,0Z" transform="translate(-10.83)"/><path class="cls-43" d="M429,236.18c.09,0,.09.13,0,.18l-1,.56a.36.36,0,0,1-.32,0l-.78-.45c-.09-.05-.09-.13,0-.19l1-.56a.36.36,0,0,1,.32,0Z" transform="translate(-10.83)"/><path class="cls-43" d="M436.86,236.33c.09.06.09.14,0,.19l-1.05.61a.36.36,0,0,1-.32,0l-.4-.23c-.09-.06-.09-.14,0-.19l1.05-.61a.36.36,0,0,1,.32,0Z" transform="translate(-10.83)"/><path class="cls-43" d="M431,236.75c.09.05.09.13,0,.18l-1,.57a.33.33,0,0,1-.32,0l-.78-.45c-.09,0-.09-.13,0-.18l1-.56a.33.33,0,0,1,.32,0Z" transform="translate(-10.83)"/><path class="cls-43" d="M426.71,235.77c.09,0,.09.13,0,.18L424,237.53a.38.38,0,0,1-.33,0l-.77-.46c-.09,0-.09-.13,0-.18l2.72-1.57a.33.33,0,0,1,.32,0Z" transform="translate(-10.83)"/><path class="cls-43" d="M433.16,237.21a.1.1,0,0,1,0,.19l-1,.56a.36.36,0,0,1-.32,0l-.78-.45c-.09-.06-.09-.14,0-.19l1-.56a.36.36,0,0,1,.32,0Z" transform="translate(-10.83)"/><path class="cls-43" d="M435.29,237.24a.1.1,0,0,1,0,.19l-1.05.6a.36.36,0,0,1-.32,0l-.4-.23c-.09-.05-.09-.13,0-.19l1.05-.6a.36.36,0,0,1,.32,0Z" transform="translate(-10.83)"/><path class="cls-43" d="M429.45,237.63c.09.05.09.13,0,.18l-1,.56a.33.33,0,0,1-.32,0l-.78-.45c-.09,0-.09-.13,0-.18l1-.56a.31.31,0,0,1,.32,0Z" transform="translate(-10.83)"/><path class="cls-43" d="M427.46,237.06a.1.1,0,0,1,0,.19l-2,1.14a.36.36,0,0,1-.32,0l-.78-.45a.1.1,0,0,1,0-.19l2-1.14a.38.38,0,0,1,.33,0Z" transform="translate(-10.83)"/><path class="cls-43" d="M433.73,238.15c.08,0,.09.13,0,.18l-1,.61a.38.38,0,0,1-.33,0l-.4-.23a.1.1,0,0,1,0-.19l1-.61a.38.38,0,0,1,.33,0Z" transform="translate(-10.83)"/><path class="cls-43" d="M427.93,238.51c.09.05.09.13,0,.18l-1,.56a.36.36,0,0,1-.32,0l-.78-.45c-.09-.05-.09-.13,0-.19l1-.55a.33.33,0,0,1,.32,0Z" transform="translate(-10.83)"/><path class="cls-44" d="M451.71,228.18a.1.1,0,0,1,0,.19l-22.17,12.81a.36.36,0,0,1-.32,0l-8.62-5a.1.1,0,0,1,0-.19l22.17-12.81a.36.36,0,0,1,.32,0Zm-21.47,3.94,7.26-4.19c.09-.05.09-.13,0-.19l-.78-.45a.36.36,0,0,0-.32,0l-7.26,4.2c-.08,0-.09.13,0,.18l.78.45a.31.31,0,0,0,.32,0m12.28-5.3,2.89-1.68c.09,0,.09-.13,0-.18l-.78-.45a.33.33,0,0,0-.32,0l-2.89,1.67c-.09,0-.09.13,0,.19l.78.45a.36.36,0,0,0,.32,0M424,237.53l2.72-1.58c.09,0,.09-.13,0-.18l-.78-.45a.33.33,0,0,0-.32,0l-2.72,1.57c-.09.05-.09.13,0,.18l.77.46a.38.38,0,0,0,.33,0m20.78-10.28L446.9,226a.1.1,0,0,0,0-.19l-.77-.45a.38.38,0,0,0-.33,0l-2.14,1.24c-.08,0-.08.13,0,.18l.77.45a.35.35,0,0,0,.33,0m-19.29,11.14,2-1.14a.1.1,0,0,0,0-.19l-.78-.45a.38.38,0,0,0-.33,0l-2,1.14a.1.1,0,0,0,0,.19l.78.45a.36.36,0,0,0,.32,0m3,1.73,1.69-1c.09,0,.09-.13,0-.19l-.78-.45a.36.36,0,0,0-.32,0l-1.69,1a.1.1,0,0,0,0,.19l.78.45a.36.36,0,0,0,.32,0m18.27-12.29,1.67-1c.09-.05.09-.13,0-.19l-.78-.45a.36.36,0,0,0-.32,0l-1.67,1c-.09.05-.09.13,0,.18l.78.45a.36.36,0,0,0,.32,0m-18.25,5.32,1.26-.73c.09,0,.09-.13,0-.19l-.78-.45a.36.36,0,0,0-.32,0l-1.26.73a.1.1,0,0,0,0,.19l.78.45a.36.36,0,0,0,.32,0m9.58-5.54,1.25-.72a.1.1,0,0,0,0-.19l-.77-.45a.38.38,0,0,0-.33,0L437,227c-.09.06-.09.14,0,.19l.78.45a.33.33,0,0,0,.32,0M429.54,236l1-.56c.09,0,.09-.13,0-.18l-.78-.45a.31.31,0,0,0-.32,0l-1,.55c-.09.06-.09.14,0,.19l.78.45a.36.36,0,0,0,.32,0m7.61-4.39,1-.56a.11.11,0,0,0,0-.19l-.78-.45a.38.38,0,0,0-.33,0l-1,.56c-.09.05-.09.13,0,.19l.77.45a.38.38,0,0,0,.33,0m6.08-3.52,1-.56c.09,0,.09-.13,0-.19l-.77-.45a.38.38,0,0,0-.33,0l-1,.56a.11.11,0,0,0,0,.19l.78.45a.36.36,0,0,0,.32,0m-1.52.88,1-.56c.09,0,.09-.13,0-.19l-.78-.45a.36.36,0,0,0-.32,0l-1,.56a.1.1,0,0,0,0,.19l.78.45a.36.36,0,0,0,.32,0M428,236.92l1-.56c.09-.05.09-.13,0-.18l-.78-.46a.36.36,0,0,0-.32,0l-1,.56c-.09.06-.09.14,0,.19l.78.45a.36.36,0,0,0,.32,0m7.61-4.39,1-.56a.1.1,0,0,0,0-.19l-.78-.45a.38.38,0,0,0-.33,0l-1,.56c-.09.05-.09.13,0,.18l.77.46a.38.38,0,0,0,.33,0m7.21-.73,1-.56c.09-.05.09-.13,0-.18l-.78-.45a.31.31,0,0,0-.32,0l-1,.56c-.09.05-.09.13,0,.18l.78.45a.31.31,0,0,0,.32,0m-1.52.88,1-.56c.09-.05.08-.13,0-.18l-.78-.45a.33.33,0,0,0-.32,0l-1,.57c-.09,0-.09.13,0,.18l.77.45a.33.33,0,0,0,.33,0m-10.65,6.16,1-.56a.1.1,0,0,0,0-.19l-.78-.45a.36.36,0,0,0-.32,0l-1,.56c-.09.05-.09.13,0,.18l.78.46a.36.36,0,0,0,.32,0m7.61-4.4,1-.56c.09,0,.09-.13,0-.18l-.77-.46a.38.38,0,0,0-.33,0l-1,.56a.1.1,0,0,0,0,.19l.78.45a.38.38,0,0,0,.33,0m10.63-6.14,1-.56a.1.1,0,0,0,0-.19l-.78-.45a.36.36,0,0,0-.32,0l-1,.56c-.09.05-.09.13,0,.18l.78.46a.36.36,0,0,0,.32,0m-12.15,7,1-.56c.09,0,.09-.13,0-.19l-.77-.45a.38.38,0,0,0-.33,0l-1,.56a.11.11,0,0,0,0,.19l.78.45a.38.38,0,0,0,.33,0M432.19,238l1-.56a.1.1,0,0,0,0-.19l-.78-.45a.36.36,0,0,0-.32,0l-1,.56c-.09.05-.09.13,0,.19l.78.45a.36.36,0,0,0,.32,0m8-8.07,1-.56c.09-.05.09-.13,0-.19l-.78-.45a.36.36,0,0,0-.32,0l-1,.56a.1.1,0,0,0,0,.19l.78.45a.36.36,0,0,0,.32,0m4.17,1,1-.56c.09-.06.09-.14,0-.19l-.78-.45a.36.36,0,0,0-.32,0l-1,.56c-.09.05-.09.13,0,.18l.78.46a.36.36,0,0,0,.32,0m1.52-.88,1-.56a.1.1,0,0,0,0-.19l-.78-.45a.36.36,0,0,0-.32,0l-1,.56c-.09.05-.09.13,0,.18l.78.46a.36.36,0,0,0,.32,0m-6.08,3.51,1-.56a.1.1,0,0,0,0-.18l-.78-.46a.36.36,0,0,0-.32,0l-1,.56c-.09.06-.09.14,0,.19l.78.45a.36.36,0,0,0,.32,0m-5.7-.15,1-.56c.09-.06.09-.14,0-.19l-.78-.45a.36.36,0,0,0-.32,0l-1,.56a.1.1,0,0,0,0,.18l.78.46a.36.36,0,0,0,.32,0m-1.51.87,1-.55c.09-.06.09-.14,0-.19l-.78-.45a.33.33,0,0,0-.32,0l-1,.56c-.09,0-.08.13,0,.18l.78.45a.32.32,0,0,0,.33,0m-1.53.88,1-.56c.09,0,.09-.13,0-.18l-.78-.45a.31.31,0,0,0-.32,0l-1,.56c-.09.05-.08.13,0,.18l.78.45a.33.33,0,0,0,.32,0m7.61-4.39,1-.56a.11.11,0,0,0,0-.19l-.78-.45a.36.36,0,0,0-.32,0l-1,.56a.1.1,0,0,0,0,.19l.78.45a.36.36,0,0,0,.32,0m-5,6.31,1-.56a.1.1,0,0,0,0-.19l-.78-.45a.36.36,0,0,0-.32,0l-1,.56c-.09.05-.09.13,0,.19l.78.45a.36.36,0,0,0,.32,0m13.69-7.91,1-.56a.1.1,0,0,0,0-.19l-.78-.45a.36.36,0,0,0-.32,0l-1,.56c-.09.05-.09.13,0,.19l.78.45a.36.36,0,0,0,.32,0m-12.17,7,1-.56a.1.1,0,0,0,0-.19l-.78-.45a.36.36,0,0,0-.32,0l-1,.56a.1.1,0,0,0,0,.19l.78.45a.36.36,0,0,0,.32,0m5.42-4.86,1-.56c.09-.05.09-.13,0-.18l-.78-.46a.36.36,0,0,0-.32,0l-1,.56c-.09.06-.09.14,0,.19l.78.45a.36.36,0,0,0,.32,0m-3,1.76,1-.56a.1.1,0,0,0,0-.19l-.78-.45a.36.36,0,0,0-.32,0l-1,.56a.1.1,0,0,0,0,.19l.78.45a.36.36,0,0,0,.32,0m-4.56,2.64,1-.56a.1.1,0,0,0,0-.19l-.77-.45a.36.36,0,0,0-.32,0l-1,.56c-.09.05-.09.13,0,.18l.78.46a.38.38,0,0,0,.33,0M430,237.5l1-.57c.09-.05.09-.13,0-.18l-.78-.45a.33.33,0,0,0-.32,0l-1,.56c-.09,0-.09.13,0,.18l.78.45a.33.33,0,0,0,.32,0m9.13-5.28,1-.56c.09,0,.09-.13,0-.19l-.78-.45a.36.36,0,0,0-.32,0l-1,.56a.1.1,0,0,0,0,.19l.78.45a.36.36,0,0,0,.32,0m-7.61,4.4,1-.56c.09-.06.09-.14,0-.19l-.78-.45a.36.36,0,0,0-.32,0l-1,.56c-.09.05-.09.13,0,.18l.78.46a.36.36,0,0,0,.32,0M427,239.25l1-.56c.09-.05.09-.13,0-.18l-.78-.46a.33.33,0,0,0-.32,0l-1,.55c-.09.06-.09.14,0,.19l.78.45a.36.36,0,0,0,.32,0m12.5-10.67,1-.56c.09-.05.09-.13,0-.18l-.78-.46a.33.33,0,0,0-.32,0l-1,.56c-.09.05-.09.13,0,.18l.78.45a.36.36,0,0,0,.32,0m-7.6,4.4,1-.56a.1.1,0,0,0,0-.19l-.78-.45a.36.36,0,0,0-.32,0l-1,.56c-.09,0-.09.13,0,.19l.77.45a.38.38,0,0,0,.33,0m6.08-3.52,1-.56c.09-.05.09-.13,0-.18l-.78-.46a.36.36,0,0,0-.32,0l-1,.56c-.09.06-.09.14,0,.19l.78.45a.36.36,0,0,0,.32,0m-7.6,4.4,1-.56a.1.1,0,0,0,0-.19l-.77-.45a.36.36,0,0,0-.32,0l-1,.56c-.09.05-.09.13,0,.18l.77.46a.38.38,0,0,0,.33,0m3-1.76,1-.56a.11.11,0,0,0,0-.19l-.78-.45a.36.36,0,0,0-.32,0l-1,.56a.1.1,0,0,0,0,.19l.77.45a.38.38,0,0,0,.33,0m-9.4,3.64,1-.56c.09-.05.09-.13,0-.18l-.36-.22-.42-.24a.36.36,0,0,0-.32,0l-1,.56c-.09.06-.09.14,0,.19l.42.24.36.21a.36.36,0,0,0,.32,0m19.71-6.16,1-.56c.09-.05.09-.13,0-.18l-.78-.45a.31.31,0,0,0-.32,0l-1,.56c-.09.05-.09.13,0,.18l.78.45a.33.33,0,0,0,.32,0m-8.79,1.64,1-.56a.1.1,0,0,0,0-.19l-.78-.45a.36.36,0,0,0-.32,0l-1,.56a.1.1,0,0,0,0,.19l.78.45a.36.36,0,0,0,.32,0m-7.61,4.4,1-.56c.09-.06.09-.14,0-.19l-.78-.45a.36.36,0,0,0-.32,0l-1,.56c-.08.05-.09.13,0,.18l.78.46a.36.36,0,0,0,.32,0M441,227.7l1-.56a.1.1,0,0,0,0-.18l-.78-.46a.36.36,0,0,0-.32,0l-1,.56c-.09.06-.09.14,0,.19l.78.45a.36.36,0,0,0,.32,0m.39-2,1-.56c.09,0,.09-.13,0-.19l-.77-.45a.36.36,0,0,0-.32,0l-1,.56a.1.1,0,0,0,0,.19l.77.45a.38.38,0,0,0,.33,0m1.52-.88,1-.56a.1.1,0,0,0,0-.19l-.78-.45a.36.36,0,0,0-.32,0l-1,.56a.1.1,0,0,0,0,.19l.78.45a.36.36,0,0,0,.32,0m-3,1.76,1-.56a.1.1,0,0,0,0-.19l-.77-.45a.38.38,0,0,0-.33,0l-1,.56a.1.1,0,0,0,0,.19l.77.45a.38.38,0,0,0,.33,0m-11.38,11.8,1-.56c.09-.05.09-.13,0-.18l-.78-.45a.31.31,0,0,0-.32,0l-1,.56c-.09,0-.09.13,0,.18l.78.45a.33.33,0,0,0,.32,0m6.09-3.51,1-.56a.1.1,0,0,0,0-.19l-.77-.45a.36.36,0,0,0-.32,0l-1,.56c-.09.05-.09.13,0,.18l.77.46a.38.38,0,0,0,.33,0m1.52-.88,1-.56a.1.1,0,0,0,0-.19l-.78-.45a.36.36,0,0,0-.32,0l-1,.56c-.09,0-.09.13,0,.19l.78.45a.36.36,0,0,0,.32,0m6.08-3.52,1-.56c.09-.05.09-.13,0-.18l-.78-.46a.36.36,0,0,0-.32,0l-1,.56c-.08.06-.09.14,0,.19l.78.45a.36.36,0,0,0,.32,0m3.05-1.76,1-.56c.09,0,.08-.13,0-.18l-.78-.46a.36.36,0,0,0-.32,0l-1,.56c-.09.06-.09.14,0,.19l.78.45a.36.36,0,0,0,.32,0m-16.41,6,1-.56c.09-.06.09-.14,0-.19l-.78-.45a.36.36,0,0,0-.32,0l-1,.56c-.09.05-.09.13,0,.18l.78.46a.36.36,0,0,0,.32,0m7.61-4.4,1-.56c.09-.05.09-.13,0-.18l-.78-.46a.36.36,0,0,0-.32,0l-1,.56a.1.1,0,0,0,0,.19l.78.45a.36.36,0,0,0,.32,0M427,234l1-.56c.09,0,.09-.13,0-.19l-.78-.45a.36.36,0,0,0-.32,0l-1,.56a.1.1,0,0,0,0,.19l.78.45a.36.36,0,0,0,.32,0m12,1.31,1-.61a.1.1,0,0,0,0-.19l-.4-.23a.38.38,0,0,0-.33,0l-1,.61c-.09,0-.1.13,0,.18l.4.24a.38.38,0,0,0,.33,0m-3.14,1.81,1.05-.61c.09-.05.09-.13,0-.19l-.4-.23a.36.36,0,0,0-.32,0l-1.05.61c-.09,0-.09.13,0,.19l.4.23a.36.36,0,0,0,.32,0m-4.7,2.71,1.05-.6a.1.1,0,0,0,0-.19l-.4-.23a.36.36,0,0,0-.32,0l-1.05.61c-.09,0-.09.13,0,.18l.4.23a.31.31,0,0,0,.32,0m14.1-8.15,1.05-.6c.09-.06.09-.14,0-.19l-.39-.23a.38.38,0,0,0-.33,0l-1.05.6c-.08.06-.09.14,0,.19l.4.23a.36.36,0,0,0,.32,0m4.71-2.71,1.05-.61a.1.1,0,0,0,0-.19l-.4-.23a.36.36,0,0,0-.32,0l-1.05.61c-.09.05-.09.13,0,.18l.4.24a.36.36,0,0,0,.32,0m-17.24,10,1-.61c.1-.05.09-.13,0-.18l-.4-.24a.38.38,0,0,0-.33,0l-1,.61a.1.1,0,0,0,0,.19l.4.23a.38.38,0,0,0,.33,0m4.7-2.72,1.05-.6c.09-.06.09-.14,0-.19l-.4-.23a.36.36,0,0,0-.32,0l-1,.6a.1.1,0,0,0,0,.19l.4.23a.36.36,0,0,0,.32,0m6.27-3.62,1.05-.61c.09-.05.09-.13,0-.18l-.4-.24a.36.36,0,0,0-.32,0l-1.05.61a.1.1,0,0,0,0,.19l.39.23a.38.38,0,0,0,.33,0m3.13-1.81,1.05-.61c.09-.05.09-.13,0-.19l-.4-.23a.36.36,0,0,0-.32,0l-1.05.61c-.09,0-.09.13,0,.19l.4.23a.36.36,0,0,0,.32,0m-17.24,10,1-.61c.09,0,.09-.13,0-.18l-.4-.23a.31.31,0,0,0-.32,0l-1.05.6a.1.1,0,0,0,0,.19l.4.23a.36.36,0,0,0,.32,0m4.7-2.72,1.05-.6a.1.1,0,0,0,0-.19l-.4-.23a.36.36,0,0,0-.32,0l-1.05.6c-.09.06-.09.14,0,.19l.4.23a.36.36,0,0,0,.32,0m14.11-8.15,1-.6c.09-.06.09-.14,0-.19l-.4-.23a.36.36,0,0,0-.32,0l-1.05.6a.1.1,0,0,0,0,.19l.4.23a.36.36,0,0,0,.32,0m-6.27,3.62,1.05-.6a.1.1,0,0,0,0-.19l-.4-.23a.36.36,0,0,0-.32,0l-1.05.61c-.09,0-.09.13,0,.18l.4.23a.31.31,0,0,0,.32,0m-1.57.91,1.05-.61c.09-.05.09-.13,0-.18l-.4-.23a.31.31,0,0,0-.32,0l-1,.6a.1.1,0,0,0,0,.19l.4.23a.36.36,0,0,0,.32,0m-18.59,1.92,1-.56a.1.1,0,0,0,0-.19l-.25-.15a.38.38,0,0,0-.33,0l-1,.56a.1.1,0,0,0,0,.19l.26.15a.36.36,0,0,0,.32,0m3.39-2.63-1,.56a.1.1,0,0,0,0,.19l.26.15a.33.33,0,0,0,.32,0l1-.55c.09-.06.09-.14,0-.19l-.26-.15a.36.36,0,0,0-.32,0" transform="translate(-10.83)"/><path class="cls-43" d="M449.88,227.55a.1.1,0,0,1,0,.19l-1,.56a.36.36,0,0,1-.32,0l-.78-.46c-.09-.05-.09-.13,0-.18l1-.56a.36.36,0,0,1,.32,0Z" transform="translate(-10.83)"/><path class="cls-43" d="M446.19,228c.08,0,.09.13,0,.18l-1,.56a.36.36,0,0,1-.32,0l-.78-.45c-.09-.05-.09-.13,0-.19l1-.56a.36.36,0,0,1,.32,0Z" transform="translate(-10.83)"/><path class="cls-43" d="M448.37,228.42a.1.1,0,0,1,0,.19l-1,.56a.36.36,0,0,1-.32,0l-.78-.45c-.09-.06-.09-.14,0-.19l1-.56a.36.36,0,0,1,.32,0Z" transform="translate(-10.83)"/><path class="cls-43" d="M449.4,229.09c.09,0,.09.13,0,.19l-1,.6a.36.36,0,0,1-.32,0l-.4-.23a.1.1,0,0,1,0-.19l1.05-.6a.36.36,0,0,1,.32,0Z" transform="translate(-10.83)"/><path class="cls-43" d="M447.83,230c.09.06.09.14,0,.19l-1.05.61a.36.36,0,0,1-.32,0l-.4-.23c-.09-.06-.09-.14,0-.19l1.05-.61a.36.36,0,0,1,.32,0Z" transform="translate(-10.83)"/><path class="cls-43" d="M445.33,230.18c.09,0,.09.13,0,.19l-1,.56a.36.36,0,0,1-.32,0l-.78-.46c-.09-.05-.09-.13,0-.18l1-.56a.36.36,0,0,1,.32,0Z" transform="translate(-10.83)"/><path class="cls-43" d="M443.81,231.06c.09.05.09.13,0,.18l-1,.56a.31.31,0,0,1-.32,0l-.78-.45c-.09,0-.09-.13,0-.18l1-.56a.31.31,0,0,1,.32,0Z" transform="translate(-10.83)"/><path class="cls-43" d="M437.06,233.23a.1.1,0,0,1,0,.19l-1,.56a.36.36,0,0,1-.32,0l-.78-.45c-.09-.06-.09-.14,0-.19l1-.56a.36.36,0,0,1,.32,0Z" transform="translate(-10.83)"/><path class="cls-43" d="M441.56,233.62c.09,0,.09.13,0,.18l-1.05.61a.36.36,0,0,1-.32,0l-.4-.23a.1.1,0,0,1,0-.19l1-.6a.31.31,0,0,1,.32,0Z" transform="translate(-10.83)"/><path class="cls-43" d="M425,235c.09.05.09.13,0,.18l-1,.56a.36.36,0,0,1-.32,0l-.36-.21,1.29-.75Z" transform="translate(-10.83)"/><path class="cls-43" d="M436.2,235.45a.1.1,0,0,1,0,.19l-1,.56a.36.36,0,0,1-.32,0l-.78-.45a.1.1,0,0,1,0-.19l1-.56a.36.36,0,0,1,.32,0Z" transform="translate(-10.83)"/><path class="cls-43" d="M432.49,235.87c.09,0,.09.13,0,.19l-1,.56a.36.36,0,0,1-.32,0l-.78-.46c-.08,0-.08-.13,0-.18l1-.56a.36.36,0,0,1,.32,0Z" transform="translate(-10.83)"/><path class="cls-43" d="M434.68,236.33a.1.1,0,0,1,0,.19l-1,.56a.36.36,0,0,1-.32,0l-.78-.45c-.09-.06-.09-.14,0-.19l1-.56a.36.36,0,0,1,.32,0Z" transform="translate(-10.83)"/><path class="cls-43" d="M431.64,238.09a.1.1,0,0,1,0,.19l-1,.56a.36.36,0,0,1-.32,0l-.78-.46c-.09,0-.09-.13,0-.18l1-.56a.36.36,0,0,1,.32,0Z" transform="translate(-10.83)"/><path class="cls-43" d="M430.14,239c.09.06.09.14,0,.19l-1.69,1a.36.36,0,0,1-.32,0l-.78-.45a.1.1,0,0,1,0-.19l1.69-1a.36.36,0,0,1,.32,0Z" transform="translate(-10.83)"/></g><path class="cls-43" d="M440,234.52a.1.1,0,0,1,0,.19l-1,.61a.38.38,0,0,1-.33,0l-.4-.24c-.09-.05-.08-.13,0-.18l1-.61a.38.38,0,0,1,.33,0Z" transform="translate(-10.83)"/><path class="cls-43" d="M432.16,239.05a.1.1,0,0,1,0,.19l-1.05.6a.31.31,0,0,1-.32,0l-.4-.23c-.09-.05-.09-.13,0-.18l1.05-.61a.36.36,0,0,1,.32,0Z" transform="translate(-10.83)"/><path class="cls-43" d="M430.59,240c.09,0,.09.13,0,.18l-1,.61a.36.36,0,0,1-.32,0l-.4-.23a.1.1,0,0,1,0-.19l1.05-.6a.36.36,0,0,1,.32,0Z" transform="translate(-10.83)"/><path class="cls-39" d="M430.21,242.58q.12.06.45-.12L453.74,229a4.1,4.1,0,0,0,.77-.62,4,4,0,0,0,.61-.77l5.77-10.06c.14-.24.17-.4.1-.47l-.26-.15c-.07-.07-.23,0-.47.1l-23.1,13.43a4.1,4.1,0,0,0-.77.62,4,4,0,0,0-.61.77L430,241.93c-.14.25-.17.41-.1.48Z" transform="translate(-10.83)"/><path class="cls-45" d="M453.74,229a4.1,4.1,0,0,0,.77-.62,4,4,0,0,0,.61-.77l5.77-10.06c.14-.24.17-.4.1-.47s-.23,0-.47.1l-23.1,13.43a4.45,4.45,0,0,0-.77.62,4,4,0,0,0-.61.77l-5.76,10.06c-.14.24-.16.4-.1.47s.23,0,.48-.1Z" transform="translate(-10.83)"/><g class="cls-46"><path d="M436.39,231.11a4,4,0,0,0-.61.77L430,241.93c-.14.25-.17.41-.1.48l.29.17,0,0c-.06-.07,0-.23.1-.47L436,232a4,4,0,0,1,.61-.77Z" transform="translate(-10.83)"/></g><path class="cls-27" d="M364.29,227s.28,2.85.5,3.66c.12.49.19.86.29,1.24s.17.77,0,.89-.46.17-.76-.88a4.52,4.52,0,0,0,1,1.92c.55.6,1.38,1.21,1.16,1.54s-.82,0-.82,0-.08.49-.82.1c0,0-.09.42-.84-.1,0,0-.29.34-1-.35a11.65,11.65,0,0,1-3.22-8.36Z" transform="translate(-10.83)"/><path class="cls-18" d="M358.23,210.09c-.78,13.91,1.38,18.18,1.38,18.18l4.71.13,1.7-17.32" transform="translate(-10.83)"/><circle class="cls-18" cx="351.33" cy="210.32" r="3.93"/><path class="cls-25" d="M391.08,293.34c7.37,4.29,8.67,10.54,2.89,13.9s-16.54,2.61-23.91-1.68-8.66-10.54-2.88-13.9S383.71,289.06,391.08,293.34Z" transform="translate(-10.83)"/><path class="cls-18" d="M362.57,187.43c-2.69,5.71-3.91,14.87-4.35,22.83l7.81.83,7.46-19.26" transform="translate(-10.83)"/><circle class="cls-18" cx="357.04" cy="190.03" r="5.9"/><path class="cls-26" d="M388.46,304.08c-1.59,1.6-3.53,2.25-4.32,1.48s-.14-2.73,1.48-4.33,3.53-2.25,4.32-1.48c.5.5.45,1.73.45,2.21A15,15,0,0,1,388.46,304.08Z" transform="translate(-10.83)"/><ellipse class="cls-27" cx="387.55" cy="301.48" rx="2.62" ry="1.29" transform="translate(-111.77 351.1) rotate(-43.68)"/><path class="cls-26" d="M374.16,295.89c-1.53,1.54-3.39,2.16-4.16,1.4s-.13-2.62,1.41-4.15,3.39-2.16,4.15-1.4c.46.46.43,1.66.43,2.12A14.11,14.11,0,0,1,374.16,295.89Z" transform="translate(-10.83)"/><ellipse class="cls-27" cx="373.29" cy="293.42" rx="2.51" ry="1.24" transform="translate(-110.15 339.03) rotate(-43.68)"/><path class="cls-15" d="M390.37,274.14s4.05-22.7,6.05-37.28l-31.18-5.93c-.15,7.09-.4,20.59.4,30.36,1.2,14.72,6.27,31.71,6.27,31.71h0c.11.53.7.94,1.89.94s2.23-.45,2.23-1.07l-.53-23.62,2.58-20.09s1.24,15,2.17,23,5.66,28.57,5.66,28.57c0,.84.61,1.52,2,1.52s2.4-.62,2.41-1.45h0Z" transform="translate(-10.83)"/><path class="cls-18" d="M399.26,196.44c1.15,8.1.71,38.56.71,38.56,0,6.5-1.64,11.62-10.55,12.86a14.82,14.82,0,0,1-5-.3c-6.91-1.48-15.25-6.45-18.52-9.38-5.46-4.94-5.24-9.61-5.24-13.67V194.78s0-10,8.45-13.23c6.41-2.47,16.29-.21,21.47,2.71C390.58,184.27,398.05,188,399.26,196.44Z" transform="translate(-10.83)"/><path class="cls-25" d="M398.61,193.72a4.73,4.73,0,0,0-3.45-1.6c-5.15,0-4.8,5.84-4.8,5.84v32.77c0,12.6-2.86,16.1-4.72,17a13.51,13.51,0,0,0,3.81.09C398.37,246.61,400,241.49,400,235c0,0,.44-30.45-.71-38.55A16.16,16.16,0,0,0,398.61,193.72Z" transform="translate(-10.83)"/><path class="cls-27" d="M394.47,242.4s-.23,2.85-.41,3.66c-.11.49-.18.87-.27,1.24s-.15.78,0,.89.5.16.75-.89a4.64,4.64,0,0,1-.94,1.93c-.54.61-1.35,1.24-1.13,1.56s.82,0,.82,0,.08.49.82.09c0,0,.09.41.84-.12,0,0,.3.34,1-.37A11.62,11.62,0,0,0,399,242Z" transform="translate(-10.83)"/><path class="cls-18" d="M393.32,222.53l.78,23.11,4.52-.14s3.46-9.09,4.31-23.6" transform="translate(-10.83)"/><circle class="cls-18" cx="398.1" cy="221.91" r="4.83" transform="translate(-14.75 7.19) rotate(-1.03)"/><path class="cls-18" d="M386,198.25l7.52,25.17,9.42-1.57s.15-2.33.15-4.84c0-10.55-1.48-18.48-4.35-24.1" transform="translate(-10.83)"/><circle class="cls-18" cx="381.7" cy="195.95" r="6.92"/><path class="cls-27" d="M376.75,162.62c-2.42-.1-5.27.5-6.67,2.84-.9,1.5-.83,4.24-.91,6.27-.15,3.67,1.31,7.52,3.59,9.52v.95a0,0,0,0,0,0,0,2.72,2.72,0,0,0,1.59,2.17,8.41,8.41,0,0,0,7.63,0,2.72,2.72,0,0,0,1.56-2.13l0,0v-9.58c0-.11,0-.23,0-.34C383.79,167.12,380.73,162.78,376.75,162.62Z" transform="translate(-10.83)"/><path class="cls-33" d="M382.86,175.29a15.1,15.1,0,0,1,.38-2.15c.36-1.63-.89-1.78-.89-1.78a1.19,1.19,0,0,0-1.25,1.07L381,175l-.95.31s.28-1.87.28-2.41c0-3-.69-3.12-.69-3.12l-.36-2.32s-6,.72-9.47-1.11a17.85,17.85,0,0,0-.55,4.06s-.72-4.92.42-7.94,3-4.5,6.22-4.48c0,0,9.61-.78,10.47,5.76,0,0,.95,7.32-2.78,13.5C383.54,177.27,382.86,175.25,382.86,175.29Z" transform="translate(-10.83)"/><path class="cls-47" d="M376,182.63a5.19,5.19,0,0,1-3.19-1.38v.95a0,0,0,0,0,0,0,2.72,2.72,0,0,0,1.59,2.17,8.41,8.41,0,0,0,7.63,0,2.72,2.72,0,0,0,1.56-2.13l0,0v-9.58C383.22,177.73,379.84,182.79,376,182.63Z" transform="translate(-10.83)"/><polygon class="cls-15" points="364.77 185.98 366.66 187.17 365.42 190.12 368.85 220.06 364.68 225.1 360.42 215.19 364.11 189.33 363.3 186.28 364.77 185.98"/><path class="cls-48" d="M371.81,181.55l.18,6.33,3.61-1.9,3.51,3.76,5.06-6s1.09-1.39.58-2.55a3.51,3.51,0,0,0-1.18-1.18s-1.67,3.19-7.83,5c0,0-2.66-1.94-3-3.72,0,0-.27-.25-.61-.62A1.7,1.7,0,0,0,371.81,181.55Z" transform="translate(-10.83)"/><polygon class="cls-15" points="368.89 200.76 368.89 201.95 376.18 203.69 376.18 202.5 368.89 200.76"/></g></g></svg>