<svg xmlns="http://www.w3.org/2000/svg" xmlns:xlink="http://www.w3.org/1999/xlink" viewBox="0 0 484.3 389.02"><defs><style>.cls-1{fill:none;}.cls-2{isolation:isolate;}.cls-3{clip-path:url(#clip-path);}.cls-4{fill:#dcddde;}.cls-5{clip-path:url(#clip-path-2);}.cls-6{fill:#f5f5f5;}.cls-7{fill:#fff;}.cls-8{opacity:0.2;}.cls-9{opacity:0.1;}.cls-10{clip-path:url(#clip-path-3);}.cls-11{fill:#9ccbff;}.cls-12{fill:#9dcbff;}.cls-13{fill:#a1ceff;}.cls-14{fill:#a8d1ff;}.cls-15{fill:#9bcaff;}.cls-16{fill:#9ac9ff;}.cls-17{fill:#99c9ff;}.cls-18{fill:#98c8ff;}.cls-19{fill:#97c7ff;}.cls-20{fill:#96c7ff;}.cls-21{fill:#95c6ff;}.cls-22{fill:#94c5ff;}.cls-23{fill:#93c5ff;}.cls-24{fill:#92c4ff;}.cls-25{fill:#91c3ff;}.cls-26{fill:#8fc3ff;}.cls-27{fill:#8ec2ff;}.cls-28{fill:#8dc2ff;}.cls-29{fill:#8cc1ff;}.cls-30{fill:#8bc0ff;}.cls-31{fill:#8ac0ff;}.cls-32{fill:#89bfff;}.cls-33{fill:#88beff;}.cls-34{fill:#87beff;}.cls-35{fill:#86bdff;}.cls-36{fill:#85bcff;}.cls-37{fill:#84bcff;}.cls-38{fill:#83bbff;}.cls-39{fill:#82baff;}.cls-40{fill:#81baff;}.cls-41{fill:#80b9ff;}.cls-42{fill:#7fb8ff;}.cls-43{fill:#7eb8ff;}.cls-44{fill:#7db7ff;}.cls-45{fill:#7cb6ff;}.cls-46{fill:#7bb6ff;}.cls-47{fill:#7ab5ff;}.cls-48{fill:#79b4ff;}.cls-49{fill:#78b4ff;}.cls-50{fill:#76b3ff;}.cls-51{fill:#75b2ff;}.cls-52{fill:#74b2ff;}.cls-53{fill:#73b1ff;}.cls-54{fill:#72b0ff;}.cls-55{fill:#71b0ff;}.cls-56{fill:#70afff;}.cls-57{fill:#6faeff;}.cls-58{fill:#6eaeff;}.cls-59{fill:#6dadff;}.cls-60{fill:#6cacff;}.cls-61{fill:#6bacff;}.cls-62{fill:#6aabff;}.cls-63{fill:#69aaff;}.cls-64{fill:#68aaff;}.cls-65{fill:#67a9ff;}.cls-66{fill:#66a8ff;}.cls-67{fill:#65a8ff;}.cls-68{fill:#64a7ff;}.cls-69{fill:#63a6ff;}.cls-70{fill:#62a6ff;}.cls-71{fill:#61a5ff;}.cls-72{fill:#60a4ff;}.cls-73{fill:#5ea4ff;}.cls-74{fill:#5da3ff;}.cls-75{fill:#5ca2ff;}.cls-76{fill:#5ba2ff;}.cls-77{fill:#5aa1ff;}.cls-78{fill:#59a1ff;}.cls-79{fill:#58a0ff;}.cls-80{fill:#579fff;}.cls-81{fill:#569fff;}.cls-82{fill:#559eff;}.cls-83{fill:#549dff;}.cls-84{fill:#539dff;}.cls-85{fill:#529cff;}.cls-86{fill:#519bff;}.cls-87{fill:#509bff;}.cls-88{fill:#4f9aff;}.cls-89{fill:#4e99ff;}.cls-90{fill:#4d99ff;}.cls-91{fill:#4c98ff;}.cls-92{fill:#4b97ff;}.cls-93{fill:#4a97ff;}.cls-94{fill:#4996ff;}.cls-95{fill:#4895ff;}.cls-96{fill:#4695ff;}.cls-97{fill:#4594ff;}.cls-98{fill:#4493ff;}.cls-99{clip-path:url(#clip-path-4);}.cls-100{fill:#4393ff;}.cls-101{fill:#4292ff;}.cls-102{fill:#4191ff;}.cls-103{fill:#4091ff;}.cls-104{fill:#4795ff;}.cls-105{fill:#66a9ff;}.cls-106{fill:#d8d8d8;}.cls-107{fill:#444549;}.cls-108{fill:#ffcfae;}.cls-109{fill:#dbdbdb;}.cls-110{fill:#1b81dd;}.cls-111{fill:#2b90ff;}.cls-112,.cls-122{fill:#3a2416;}.cls-112{opacity:0.04;}.cls-113{fill:#424242;}.cls-114{fill:#ffb522;}.cls-115{fill:#9b9b9b;}.cls-116,.cls-122{opacity:0.08;}.cls-117{fill:#ffdfca;}.cls-118{fill:#081b2f;}.cls-119{fill:#08253f;}.cls-120{fill:#10355d;}.cls-121{fill:#eab896;}.cls-123{opacity:0.5;}.cls-124{fill:#d3d3d3;}.cls-125{fill:#3f4040;}.cls-126{fill:#9eccff;}.cls-127{fill:#a4a4a4;}.cls-128{fill:#231815;opacity:0.15;}.cls-129{fill:#fff1dd;}.cls-130{fill:#20a3a3;}.cls-131{fill:#5cb747;}.cls-132{fill:#30a84a;}.cls-133{fill:#109748;}</style><clipPath id="clip-path" transform="translate(-10.83)"><polygon class="cls-1" points="0 248.76 252.15 102.22 505.95 248.75 253.8 395.29 0 248.76"/></clipPath><clipPath id="clip-path-2" transform="translate(-10.83)"><polygon class="cls-1" points="0 243.05 252.15 96.52 505.95 243.05 253.8 389.58 0 243.05"/></clipPath><clipPath id="clip-path-3" transform="translate(-10.83)"><path class="cls-1" d="M297,208.34l-55.21,32.09c-5.57,3.23-13.89,1.74-24.15-4.18-16.12-9.3-29.51-26.8-40.81-45.34l55.22-32.08c11.29,18.54,24.68,36,40.8,45.34C283.11,210.09,291.44,211.57,297,208.34Z"/></clipPath><clipPath id="clip-path-4" transform="translate(-10.83)"><path class="cls-1" d="M330.56,255.06l-55.21,32.08c11.07-6.43,18-20.32,18.07-42.54.13-46.24-27.39-83.39-60.06-102.25-7.78-4.49-13.84-6.52-21-7.15l55.22-32.09c7.19.63,13.25,2.66,21,7.15,32.66,18.86,60.19,56,60.06,102.25C348.57,234.73,341.63,248.62,330.56,255.06Z"/></clipPath></defs><title>Number 5</title><g id="Layer_2" data-name="Layer 2"><g id="Layer_1-2" data-name="Layer 1"><g class="cls-2"><g class="cls-3"><path class="cls-4" d="M487.41,238.05,270.69,112.93c-10.24-5.91-26.78-5.91-37,0L18.42,238.06c-10.17,5.9-10.12,15.49.12,21.4L235.26,384.59c10.24,5.91,26.79,5.9,37,0L487.53,259.46c10.17-5.91,10.12-15.5-.12-21.41" transform="translate(-10.83)"/></g></g><g class="cls-2"><g class="cls-5"><path class="cls-6" d="M487.41,232.34,270.69,107.22c-10.24-5.91-26.78-5.91-37,0L18.42,232.35c-10.17,5.91-10.12,15.5.12,21.41L235.26,378.88c10.24,5.91,26.79,5.91,37,0L487.53,253.75c10.17-5.91,10.12-15.49-.12-21.41" transform="translate(-10.83)"/></g></g><polygon class="cls-7" points="392.81 135.19 463.48 176.44 463.36 247.74 425.59 269.61 354.9 228.36 355.03 157.07 392.81 135.19"/><polygon class="cls-8" points="355.03 157.07 425.71 198.32 425.59 269.61 354.9 228.36 355.03 157.07"/><polygon class="cls-9" points="463.48 176.44 425.71 198.32 425.59 269.61 463.36 247.74 463.48 176.44"/><polygon class="cls-7" points="463.48 176.44 425.71 198.32 355.11 157.19 355.11 154.45 392.88 132.58 463.48 173.7 463.48 176.44"/><polygon class="cls-8" points="425.71 198.32 355.11 157.19 355.11 154.45 425.72 195.58 425.71 198.32"/><polygon class="cls-9" points="425.71 198.32 463.48 176.44 463.48 173.7 425.72 195.58 425.71 198.32"/><g class="cls-2"><g class="cls-2"><g class="cls-10"><g class="cls-2"><path class="cls-11" d="M176.83,190.91l55.22-32.08c.35.58.71,1.16,1.07,1.74L177.9,192.65c-.36-.57-.71-1.16-1.07-1.74" transform="translate(-10.83)"/><path class="cls-12" d="M177.9,192.65l55.22-32.08c.76,1.24,1.54,2.47,2.32,3.69l-55.21,32.09c-.79-1.22-1.56-2.46-2.33-3.7" transform="translate(-10.83)"/><path class="cls-13" d="M180.23,196.35l55.21-32.09c1,1.5,1.94,3,2.93,4.46l-55.21,32.09q-1.49-2.2-2.93-4.46" transform="translate(-10.83)"/><path class="cls-14" d="M183.16,200.81l55.21-32.09c3,4.47,6.16,8.79,9.45,12.86L192.6,213.67c-3.29-4.07-6.43-8.39-9.44-12.86" transform="translate(-10.83)"/><path class="cls-13" d="M192.6,213.67l55.22-32.09c.91,1.13,1.83,2.23,2.77,3.32L195.37,217q-1.4-1.63-2.77-3.32" transform="translate(-10.83)"/><path class="cls-12" d="M195.37,217l55.22-32.09c.67.77,1.34,1.54,2,2.29L197.4,219.28c-.68-.76-1.36-1.52-2-2.29" transform="translate(-10.83)"/><path class="cls-11" d="M197.4,219.28l55.21-32.09c.55.61,1.11,1.21,1.67,1.81l-55.22,32.08c-.56-.59-1.11-1.19-1.66-1.8" transform="translate(-10.83)"/><path class="cls-15" d="M199.06,221.08,254.28,189c.48.51,1,1,1.46,1.52l-55.21,32.09q-.74-.75-1.47-1.53" transform="translate(-10.83)"/><path class="cls-16" d="M200.53,222.61l55.21-32.09c.45.46.9.92,1.36,1.36L201.88,224l-1.35-1.36" transform="translate(-10.83)"/><path class="cls-17" d="M201.88,224l55.22-32.09,1.16,1.13L203,225.1,201.88,224" transform="translate(-10.83)"/><path class="cls-18" d="M203,225.1,258.26,193l1.11,1-55.22,32.09-1.11-1" transform="translate(-10.83)"/><path class="cls-19" d="M204.15,226.14l55.22-32.09c.32.31.65.6,1,.9L205.14,227l-1-.9" transform="translate(-10.83)"/><path class="cls-20" d="M205.14,227,260.35,195l1,.87L206.11,227.9l-1-.86" transform="translate(-10.83)"/><path class="cls-21" d="M206.11,227.9l55.22-32.08.85.73L207,228.64l-.85-.74" transform="translate(-10.83)"/><path class="cls-22" d="M207,228.64l55.22-32.09.85.72-55.21,32.08-.86-.71" transform="translate(-10.83)"/><path class="cls-23" d="M207.82,229.35,263,197.27l.81.66L208.62,230l-.8-.67" transform="translate(-10.83)"/><path class="cls-24" d="M208.62,230l55.22-32.09.75.6-55.22,32.08-.75-.59" transform="translate(-10.83)"/><path class="cls-25" d="M209.37,230.61l55.22-32.08.75.58L210.12,231.2l-.75-.59" transform="translate(-10.83)"/><path class="cls-26" d="M210.12,231.2l55.22-32.09.72.55-55.22,32.08-.72-.54" transform="translate(-10.83)"/><path class="cls-27" d="M210.84,231.74l55.22-32.08.67.5-55.21,32.08-.68-.5" transform="translate(-10.83)"/><path class="cls-28" d="M211.52,232.24l55.21-32.08.68.49-55.22,32.08-.67-.49" transform="translate(-10.83)"/><path class="cls-29" d="M212.19,232.73l55.22-32.08.68.48-55.22,32.08-.68-.48" transform="translate(-10.83)"/><path class="cls-30" d="M212.87,233.21l55.22-32.08.61.42-55.21,32.09-.62-.43" transform="translate(-10.83)"/><path class="cls-31" d="M213.49,233.64l55.21-32.09.63.42-55.22,32.09-.62-.42" transform="translate(-10.83)"/><path class="cls-32" d="M214.11,234.06,269.33,202l.62.41-55.22,32.09-.62-.41" transform="translate(-10.83)"/><path class="cls-33" d="M214.73,234.47,270,202.38c.2.14.41.27.62.4l-55.22,32.09-.62-.4" transform="translate(-10.83)"/><path class="cls-34" d="M215.35,234.87l55.22-32.09.58.36-55.22,32.09-.58-.36" transform="translate(-10.83)"/><path class="cls-35" d="M215.93,235.23l55.22-32.09c.19.13.39.24.58.36l-55.21,32.09-.59-.36" transform="translate(-10.83)"/><path class="cls-36" d="M216.52,235.59l55.21-32.09.59.35-55.21,32.09-.59-.35" transform="translate(-10.83)"/><path class="cls-37" d="M217.11,235.94l55.21-32.09.53.32.06,0L217.7,236.29l-.06,0c-.18-.1-.36-.2-.53-.31" transform="translate(-10.83)"/><path class="cls-38" d="M217.7,236.29l55.21-32.09.64.36-55.21,32.09-.64-.36" transform="translate(-10.83)"/><path class="cls-39" d="M218.34,236.65l55.21-32.09.64.36L219,237l-.63-.35" transform="translate(-10.83)"/><path class="cls-40" d="M219,237l55.22-32.08c.21.11.42.22.62.34L219.6,237.34,219,237" transform="translate(-10.83)"/><path class="cls-41" d="M219.6,237.34l55.21-32.08.63.32-55.22,32.09-.62-.33" transform="translate(-10.83)"/><path class="cls-42" d="M220.22,237.67l55.22-32.09c.19.11.39.21.58.3L220.8,238l-.58-.3" transform="translate(-10.83)"/><path class="cls-43" d="M220.8,238,276,205.88l.55.28-55.22,32.09-.55-.28" transform="translate(-10.83)"/><path class="cls-44" d="M221.35,238.25l55.22-32.09.54.26L221.9,238.51l-.55-.26" transform="translate(-10.83)"/><path class="cls-45" d="M221.9,238.51l55.21-32.09.55.26-55.22,32.09-.54-.26" transform="translate(-10.83)"/><path class="cls-46" d="M222.44,238.77l55.22-32.09.53.25L223,239l-.54-.25" transform="translate(-10.83)"/><path class="cls-47" d="M223,239l55.21-32.09.51.22-55.21,32.09L223,239" transform="translate(-10.83)"/><path class="cls-48" d="M223.49,239.24l55.21-32.09.48.21L224,239.45l-.48-.21" transform="translate(-10.83)"/><path class="cls-49" d="M224,239.45l55.21-32.09.48.2-55.22,32.09-.47-.2" transform="translate(-10.83)"/><path class="cls-50" d="M224.44,239.65l55.22-32.09.47.19-55.21,32.09-.48-.19" transform="translate(-10.83)"/><path class="cls-51" d="M224.92,239.84l55.21-32.09.47.19L225.39,240l-.47-.19" transform="translate(-10.83)"/><path class="cls-52" d="M225.39,240l55.21-32.09.47.18L225.85,240.2l-.46-.17" transform="translate(-10.83)"/><path class="cls-53" d="M225.85,240.2l55.22-32.08.42.15-55.21,32.09-.43-.16" transform="translate(-10.83)"/><path class="cls-54" d="M226.28,240.36l55.21-32.09.43.15L226.7,240.51l-.42-.15" transform="translate(-10.83)"/><path class="cls-55" d="M226.7,240.51l55.22-32.09.42.15-55.22,32.08-.42-.14" transform="translate(-10.83)"/><path class="cls-56" d="M227.12,240.65l55.22-32.08.41.13-55.21,32.09-.42-.14" transform="translate(-10.83)"/><path class="cls-57" d="M227.54,240.79l55.21-32.09.41.13L228,240.92l-.41-.13" transform="translate(-10.83)"/><path class="cls-58" d="M228,240.92l55.21-32.09.41.12L228.36,241l-.41-.12" transform="translate(-10.83)"/><path class="cls-59" d="M228.36,241,283.57,209l.39.11-55.22,32.09-.38-.11" transform="translate(-10.83)"/><path class="cls-60" d="M228.74,241.15,284,209.06l.38.11-55.22,32.08-.38-.1" transform="translate(-10.83)"/><path class="cls-61" d="M229.12,241.25l55.22-32.08.37.09L229.5,241.35l-.38-.1" transform="translate(-10.83)"/><path class="cls-62" d="M229.5,241.35l55.21-32.09.38.1-55.22,32.08-.37-.09" transform="translate(-10.83)"/><path class="cls-63" d="M229.87,241.44l55.22-32.08.37.08-55.22,32.09-.37-.09" transform="translate(-10.83)"/><path class="cls-64" d="M230.24,241.53l55.22-32.09.37.08-55.22,32.09-.37-.08" transform="translate(-10.83)"/><path class="cls-65" d="M230.61,241.61l55.22-32.09.35.07L231,241.68l-.36-.07" transform="translate(-10.83)"/><path class="cls-66" d="M231,241.68l55.21-32.09.35.07-55.21,32.09-.35-.07" transform="translate(-10.83)"/><path class="cls-67" d="M231.32,241.75l55.21-32.09.35.06-55.21,32.09-.35-.06" transform="translate(-10.83)"/><path class="cls-68" d="M231.67,241.81l55.21-32.09.34.05L232,241.86l-.34-.05" transform="translate(-10.83)"/><path class="cls-69" d="M232,241.86l55.21-32.09.34,0-55.21,32.09-.34,0" transform="translate(-10.83)"/><path class="cls-70" d="M232.35,241.91l55.21-32.09.34.05L232.69,242l-.34,0" transform="translate(-10.83)"/><path class="cls-71" d="M232.69,242l55.21-32.08.34,0L233,242l-.33,0" transform="translate(-10.83)"/><path class="cls-72" d="M233,242l55.22-32.09.33,0L233.35,242l-.33,0" transform="translate(-10.83)"/><path class="cls-73" d="M233.35,242l55.22-32.08.32,0-55.21,32.09-.33,0" transform="translate(-10.83)"/><path class="cls-74" d="M233.68,242.05,288.89,210l.33,0L234,242.07l-.32,0" transform="translate(-10.83)"/><path class="cls-75" d="M234,242.07,289.22,210l.32,0-55.21,32.09-.33,0" transform="translate(-10.83)"/><path class="cls-76" d="M234.33,242.09,289.54,210h.32L234.64,242.1h-.31" transform="translate(-10.83)"/><path class="cls-77" d="M234.64,242.1,289.86,210h.31L235,242.1h-.32" transform="translate(-10.83)"/><path class="cls-78" d="M235,242.1,290.17,210h.32L235.28,242.1H235" transform="translate(-10.83)"/><path class="cls-79" d="M235.28,242.1,290.49,210h.32L235.6,242.09h-.32" transform="translate(-10.83)"/><path class="cls-80" d="M235.6,242.09,290.81,210h.32l-55.22,32.09h-.31" transform="translate(-10.83)"/><path class="cls-81" d="M235.91,242.08,291.13,210l.31,0-55.21,32.09-.32,0" transform="translate(-10.83)"/><path class="cls-82" d="M236.23,242.06,291.44,210l.32,0L236.54,242l-.31,0" transform="translate(-10.83)"/><path class="cls-83" d="M236.54,242,291.76,210l.3,0L236.85,242l-.31,0" transform="translate(-10.83)"/><path class="cls-84" d="M236.85,242l55.21-32.08.31,0L237.15,242l-.3,0" transform="translate(-10.83)"/><path class="cls-85" d="M237.15,242l55.22-32.09.32,0-55.21,32.09-.33.05" transform="translate(-10.83)"/><path class="cls-86" d="M237.48,241.92l55.21-32.09.33-.05-55.21,32.08-.33.06" transform="translate(-10.83)"/><path class="cls-87" d="M237.81,241.86,293,209.78l.32-.07L238.13,241.8l-.32.06" transform="translate(-10.83)"/><path class="cls-88" d="M238.13,241.8l55.21-32.09.32-.06-55.21,32.08-.32.07" transform="translate(-10.83)"/><path class="cls-89" d="M238.45,241.73l55.21-32.08.31-.08-55.21,32.09-.31.07" transform="translate(-10.83)"/><path class="cls-90" d="M238.76,241.66,294,209.57l.31-.08-55.21,32.08-.31.09" transform="translate(-10.83)"/><path class="cls-91" d="M239.07,241.57l55.21-32.08.36-.11-55.21,32.08-.36.11" transform="translate(-10.83)"/><path class="cls-92" d="M239.43,241.46l55.21-32.08.36-.12-55.22,32.09-.35.11" transform="translate(-10.83)"/><path class="cls-93" d="M239.78,241.35,295,209.26l.35-.13-55.22,32.09-.35.13" transform="translate(-10.83)"/><path class="cls-94" d="M240.13,241.22l55.22-32.09.34-.14-55.21,32.09-.35.14" transform="translate(-10.83)"/><path class="cls-95" d="M240.48,241.08,295.69,209a2.52,2.52,0,0,0,.34-.15l-55.22,32.09-.33.15" transform="translate(-10.83)"/><path class="cls-96" d="M240.81,240.93,296,208.84a4.25,4.25,0,0,0,.43-.21l-55.21,32.09-.44.21" transform="translate(-10.83)"/><path class="cls-97" d="M241.25,240.72l55.21-32.09.42-.22-55.21,32.08-.42.23" transform="translate(-10.83)"/><path class="cls-98" d="M241.67,240.49l55.21-32.08.12-.07-55.21,32.09-.12.06" transform="translate(-10.83)"/></g></g></g><polygon class="cls-73" points="204.73 96.22 259.94 64.14 256.71 103.11 201.5 135.2 204.73 96.22"/><g class="cls-2"><g class="cls-99"><g class="cls-2"><path class="cls-73" d="M212.32,135.2l55.22-32.09h.11l-55.22,32.09h-.11" transform="translate(-10.83)"/><path class="cls-72" d="M212.43,135.21l55.22-32.09.79.08-55.22,32.09-.79-.08" transform="translate(-10.83)"/><path class="cls-71" d="M213.22,135.29l55.22-32.09.73.08L214,135.37l-.74-.08" transform="translate(-10.83)"/><path class="cls-70" d="M214,135.37l55.21-32.09.7.09-55.21,32.09-.7-.09" transform="translate(-10.83)"/><path class="cls-69" d="M214.66,135.46l55.21-32.09.67.1-55.22,32.08-.66-.09" transform="translate(-10.83)"/><path class="cls-68" d="M215.32,135.55l55.22-32.08.63.1L216,135.65l-.64-.1" transform="translate(-10.83)"/><path class="cls-67" d="M216,135.65l55.21-32.08.61.1-55.21,32.09-.61-.11" transform="translate(-10.83)"/><path class="cls-66" d="M216.57,135.76l55.21-32.09.59.11-55.22,32.09-.58-.11" transform="translate(-10.83)"/><path class="cls-65" d="M217.15,135.87l55.22-32.09.57.12L217.72,136l-.57-.11" transform="translate(-10.83)"/><path class="cls-64" d="M217.72,136l55.22-32.08.55.12L218.28,136.1l-.56-.12" transform="translate(-10.83)"/><path class="cls-63" d="M218.28,136.1,273.49,104l.54.12-55.21,32.09-.54-.13" transform="translate(-10.83)"/><path class="cls-62" d="M218.82,136.23,274,104.14l.53.13-55.21,32.09-.53-.13" transform="translate(-10.83)"/><path class="cls-61" d="M219.35,136.36l55.21-32.09.53.14-55.22,32.08-.52-.13" transform="translate(-10.83)"/><path class="cls-60" d="M219.87,136.49l55.22-32.08.51.14-55.21,32.08-.52-.14" transform="translate(-10.83)"/><path class="cls-59" d="M220.39,136.63l55.21-32.08.51.14-55.22,32.09-.5-.15" transform="translate(-10.83)"/><path class="cls-58" d="M220.89,136.78l55.22-32.09.5.15L221.4,136.93l-.51-.15" transform="translate(-10.83)"/><path class="cls-57" d="M221.4,136.93l55.21-32.09.51.16L221.9,137.09l-.5-.16" transform="translate(-10.83)"/><path class="cls-56" d="M221.9,137.09,277.12,105l.5.16L222.4,137.25l-.5-.16" transform="translate(-10.83)"/><path class="cls-55" d="M222.4,137.25l55.22-32.09.5.17-55.21,32.09-.51-.17" transform="translate(-10.83)"/><path class="cls-54" d="M222.91,137.42l55.21-32.09.5.18L223.41,137.6l-.5-.18" transform="translate(-10.83)"/><path class="cls-53" d="M223.41,137.6l55.21-32.09.51.19-55.21,32.08-.51-.18" transform="translate(-10.83)"/><path class="cls-52" d="M223.92,137.78l55.21-32.08.51.19L224.43,138l-.51-.2" transform="translate(-10.83)"/><path class="cls-51" d="M224.43,138l55.21-32.09.52.2L225,138.18l-.52-.2" transform="translate(-10.83)"/><path class="cls-50" d="M225,138.18l55.21-32.09.52.22-55.21,32.08-.52-.21" transform="translate(-10.83)"/><path class="cls-49" d="M225.47,138.39l55.21-32.08.54.22L226,138.62l-.54-.23" transform="translate(-10.83)"/><path class="cls-48" d="M226,138.62l55.21-32.09.54.24-55.21,32.09-.54-.24" transform="translate(-10.83)"/><path class="cls-47" d="M226.55,138.86l55.21-32.09.57.25-55.22,32.09-.56-.25" transform="translate(-10.83)"/><path class="cls-46" d="M227.11,139.11,282.33,107l.57.26-55.22,32.09-.57-.26" transform="translate(-10.83)"/><path class="cls-45" d="M227.68,139.37l55.22-32.09.6.28-55.22,32.09-.6-.28" transform="translate(-10.83)"/><path class="cls-44" d="M228.28,139.65l55.22-32.09.6.3L228.89,140l-.61-.3" transform="translate(-10.83)"/><path class="cls-43" d="M228.89,140l55.21-32.09.65.32-55.21,32.09-.65-.32" transform="translate(-10.83)"/><path class="cls-42" d="M229.54,140.27l55.21-32.09.67.35L230.2,140.61l-.66-.34" transform="translate(-10.83)"/><path class="cls-41" d="M230.2,140.61l55.22-32.08.7.37L230.91,141l-.71-.37" transform="translate(-10.83)"/><path class="cls-40" d="M230.91,141l55.21-32.08.75.4-55.22,32.09-.74-.41" transform="translate(-10.83)"/><path class="cls-39" d="M231.65,141.39l55.22-32.09.79.44-55.22,32.08-.79-.43" transform="translate(-10.83)"/><path class="cls-38" d="M232.44,141.82l55.22-32.08c.27.15.56.31.84.48L233.28,142.3l-.84-.48" transform="translate(-10.83)"/><path class="cls-37" d="M233.28,142.3l55.22-32.08.08,0c.33.19.66.38,1,.58l-55.21,32.09-1-.58-.08,0" transform="translate(-10.83)"/><path class="cls-36" d="M234.35,142.93l55.21-32.09c.37.21.73.43,1.09.65l-55.22,32.08-1.08-.64" transform="translate(-10.83)"/><path class="cls-35" d="M235.43,143.57l55.22-32.08q.54.32,1.08.66l-55.22,32.08-1.08-.66" transform="translate(-10.83)"/><path class="cls-34" d="M236.51,144.23l55.22-32.08,1.07.67-55.21,32.09-1.08-.68" transform="translate(-10.83)"/><path class="cls-33" d="M237.59,144.91l55.21-32.09,1.09.7-55.22,32.09-1.08-.7" transform="translate(-10.83)"/><path class="cls-32" d="M238.67,145.61l55.22-32.09,1.1.72-55.22,32.09-1.1-.72" transform="translate(-10.83)"/><path class="cls-31" d="M239.77,146.33,295,114.24l1.1.74-55.22,32.09-1.1-.74" transform="translate(-10.83)"/><path class="cls-30" d="M240.87,147.07,296.09,115l1.09.76L242,147.82l-1.09-.75" transform="translate(-10.83)"/><path class="cls-29" d="M242,147.82l55.22-32.08,1.09.77-55.22,32.08-1.09-.77" transform="translate(-10.83)"/><path class="cls-28" d="M243.05,148.59l55.22-32.08,1.14.82L244.2,149.42l-1.15-.83" transform="translate(-10.83)"/><path class="cls-27" d="M244.2,149.42l55.21-32.09,1.14.85-55.22,32.08-1.13-.84" transform="translate(-10.83)"/><path class="cls-26" d="M245.33,150.26l55.22-32.08,1.13.86-55.22,32.08-1.13-.86" transform="translate(-10.83)"/><path class="cls-25" d="M246.46,151.12,301.68,119l1.12.87L247.58,152l-1.12-.88" transform="translate(-10.83)"/><path class="cls-24" d="M247.58,152l55.22-32.09,1.22,1L248.8,153c-.4-.33-.81-.65-1.22-1" transform="translate(-10.83)"/><path class="cls-23" d="M248.8,153,304,120.88l1.21,1L250,154l-1.21-1" transform="translate(-10.83)"/><path class="cls-22" d="M250,154l55.22-32.09,1.2,1L251.22,155c-.4-.34-.8-.68-1.21-1" transform="translate(-10.83)"/><path class="cls-21" d="M251.22,155l55.21-32.09,1.23,1.06L252.45,156,251.22,155" transform="translate(-10.83)"/><path class="cls-20" d="M252.45,156l55.21-32.09,1.35,1.2-55.22,32.09c-.44-.41-.89-.8-1.34-1.2" transform="translate(-10.83)"/><path class="cls-19" d="M253.79,157.23,309,125.14l1.33,1.22-55.21,32.08c-.44-.41-.89-.81-1.34-1.21" transform="translate(-10.83)"/><path class="cls-18" d="M255.13,158.44l55.21-32.08,1.32,1.24-55.21,32.08-1.32-1.24" transform="translate(-10.83)"/><path class="cls-17" d="M256.45,159.68l55.21-32.08c.52.49,1,1,1.54,1.5L258,161.18l-1.54-1.5" transform="translate(-10.83)"/><path class="cls-16" d="M258,161.18,313.2,129.1c.52.51,1,1,1.54,1.54l-55.21,32.09c-.51-.52-1-1-1.54-1.55" transform="translate(-10.83)"/><path class="cls-15" d="M259.53,162.73l55.21-32.09c.54.55,1.07,1.1,1.59,1.66l-55.21,32.08-1.59-1.65" transform="translate(-10.83)"/><path class="cls-11" d="M261.12,164.38l55.21-32.08c.63.66,1.25,1.34,1.86,2L263,166.4l-1.86-2" transform="translate(-10.83)"/><path class="cls-12" d="M263,166.4l55.21-32.08q.93,1,1.83,2.07L264.8,168.47,263,166.4" transform="translate(-10.83)"/><path class="cls-13" d="M264.8,168.47,320,136.39c.9,1,1.78,2.11,2.65,3.19l-55.21,32.09c-.87-1.09-1.76-2.15-2.66-3.2" transform="translate(-10.83)"/><path class="cls-14" d="M267.46,171.67l55.21-32.09q3,3.72,5.73,7.72l-55.21,32.08q-2.73-4-5.73-7.71" transform="translate(-10.83)"/><path class="cls-13" d="M273.19,179.38,328.4,147.3c.56.81,1.11,1.64,1.65,2.47l-55.22,32.09c-.54-.83-1.09-1.66-1.64-2.48" transform="translate(-10.83)"/><path class="cls-12" d="M274.83,181.86l55.22-32.09,1.22,1.93-55.21,32.09c-.41-.65-.81-1.29-1.23-1.93" transform="translate(-10.83)"/><path class="cls-11" d="M276.06,183.79l55.21-32.09c.26.42.52.84.77,1.27l-55.21,32.09-.77-1.27" transform="translate(-10.83)"/><path class="cls-15" d="M276.83,185.06,332,153c.26.42.51.85.76,1.27l-55.21,32.09c-.25-.43-.5-.85-.76-1.27" transform="translate(-10.83)"/><path class="cls-16" d="M277.59,186.33l55.21-32.09.75,1.29-55.22,32.09c-.24-.43-.49-.86-.74-1.29" transform="translate(-10.83)"/><path class="cls-17" d="M278.33,187.62l55.22-32.09.68,1.21L279,188.83l-.68-1.21" transform="translate(-10.83)"/><path class="cls-18" d="M279,188.83l55.22-32.09.55,1-55.22,32.08c-.18-.33-.36-.67-.55-1" transform="translate(-10.83)"/><path class="cls-19" d="M279.56,189.83l55.22-32.08.54,1-55.21,32.09c-.18-.34-.36-.68-.55-1" transform="translate(-10.83)"/><path class="cls-20" d="M280.11,190.85l55.21-32.09c.18.34.36.68.53,1l-55.21,32.08-.53-1" transform="translate(-10.83)"/><path class="cls-21" d="M280.64,191.86l55.21-32.08c.18.34.35.68.52,1l-55.21,32.09c-.17-.35-.35-.69-.52-1" transform="translate(-10.83)"/><path class="cls-22" d="M281.16,192.89l55.21-32.09c.18.34.35.68.52,1l-55.22,32.09-.51-1" transform="translate(-10.83)"/><path class="cls-23" d="M281.67,193.92l55.22-32.09.45.93-55.21,32.09c-.15-.31-.3-.62-.46-.93" transform="translate(-10.83)"/><path class="cls-24" d="M282.13,194.85l55.21-32.09.44.92-55.22,32.09c-.14-.31-.29-.62-.43-.92" transform="translate(-10.83)"/><path class="cls-25" d="M282.56,195.77l55.22-32.09.43.93L283,196.69l-.44-.92" transform="translate(-10.83)"/><path class="cls-26" d="M283,196.69l55.21-32.08q.21.45.42.93l-55.21,32.08-.42-.93" transform="translate(-10.83)"/><path class="cls-27" d="M283.42,197.62l55.21-32.08.42.93-55.22,32.09c-.13-.32-.27-.63-.41-.94" transform="translate(-10.83)"/><path class="cls-28" d="M283.83,198.56l55.22-32.09c.13.31.27.62.4.94L284.24,199.5c-.13-.32-.27-.63-.41-.94" transform="translate(-10.83)"/><path class="cls-29" d="M284.24,199.5l55.21-32.09c.13.29.25.59.38.88l-55.22,32.09c-.12-.3-.24-.59-.37-.88" transform="translate(-10.83)"/><path class="cls-30" d="M284.61,200.38l55.22-32.09c.12.28.23.57.35.86L285,201.23l-.36-.85" transform="translate(-10.83)"/><path class="cls-31" d="M285,201.23l55.21-32.08c.12.28.23.57.35.86l-55.22,32.08c-.11-.28-.23-.57-.34-.86" transform="translate(-10.83)"/><path class="cls-32" d="M285.31,202.09,340.53,170c.11.28.23.57.34.86L285.66,203l-.35-.87" transform="translate(-10.83)"/><path class="cls-33" d="M285.66,203l55.21-32.09.34.87L286,203.83l-.33-.87" transform="translate(-10.83)"/><path class="cls-34" d="M286,203.83l55.22-32.09c.11.29.22.58.32.87L286.32,204.7l-.33-.87" transform="translate(-10.83)"/><path class="cls-35" d="M286.32,204.7l55.21-32.09.33.88-55.22,32.08c-.1-.29-.21-.58-.32-.87" transform="translate(-10.83)"/><path class="cls-36" d="M286.64,205.57l55.22-32.08c.09.27.19.55.29.82L286.94,206.4l-.3-.83" transform="translate(-10.83)"/><path class="cls-37" d="M286.94,206.4l55.21-32.09c.1.28.19.55.29.82l-55.22,32.09-.28-.82" transform="translate(-10.83)"/><path class="cls-38" d="M287.22,207.22l55.22-32.09c.09.28.19.55.28.83L287.5,208c-.09-.27-.18-.55-.28-.82" transform="translate(-10.83)"/><path class="cls-39" d="M287.5,208,342.72,176l.27.82-55.21,32.09c-.09-.28-.18-.55-.28-.83" transform="translate(-10.83)"/><path class="cls-40" d="M287.78,208.87,343,176.78l.27.83L288.05,209.7l-.27-.83" transform="translate(-10.83)"/><path class="cls-41" d="M288.05,209.7l55.21-32.09.27.84-55.22,32.08c-.09-.27-.17-.55-.26-.83" transform="translate(-10.83)"/><path class="cls-42" d="M288.31,210.53l55.22-32.08c.08.27.17.55.25.83l-55.21,32.09c-.09-.28-.17-.56-.26-.84" transform="translate(-10.83)"/><path class="cls-43" d="M288.57,211.37l55.21-32.09c.09.28.17.55.25.83L288.81,212.2l-.24-.83" transform="translate(-10.83)"/><path class="cls-44" d="M288.81,212.2,344,180.11l.24.81L289.05,213l-.24-.81" transform="translate(-10.83)"/><path class="cls-45" d="M289.05,213l55.22-32.09c.07.28.15.55.23.82l-55.22,32.09c-.07-.27-.15-.55-.23-.82" transform="translate(-10.83)"/><path class="cls-46" d="M289.28,213.83l55.22-32.09c.07.28.15.55.22.82l-55.21,32.09c-.08-.27-.15-.55-.23-.82" transform="translate(-10.83)"/><path class="cls-47" d="M289.51,214.65l55.21-32.09c.08.28.15.55.22.83l-55.21,32.09c-.07-.28-.15-.55-.22-.83" transform="translate(-10.83)"/><path class="cls-48" d="M289.73,215.48l55.21-32.09c.07.27.15.55.22.83L289.94,216.3l-.21-.82" transform="translate(-10.83)"/><path class="cls-49" d="M289.94,216.3l55.22-32.08c.07.27.14.55.2.83l-55.21,32.08-.21-.83" transform="translate(-10.83)"/><path class="cls-50" d="M290.15,217.13l55.21-32.08c.07.27.14.55.2.83L290.35,218c-.07-.28-.13-.56-.2-.84" transform="translate(-10.83)"/><path class="cls-51" d="M290.35,218l55.21-32.09c.07.28.14.56.2.85l-55.21,32.08c-.07-.28-.13-.56-.2-.84" transform="translate(-10.83)"/><path class="cls-52" d="M290.55,218.81l55.21-32.08c.07.28.13.56.19.84l-55.21,32.09c-.06-.28-.13-.56-.19-.85" transform="translate(-10.83)"/><path class="cls-53" d="M290.74,219.66,346,187.57c.07.29.13.57.19.86l-55.21,32.08c-.07-.28-.13-.56-.19-.85" transform="translate(-10.83)"/><path class="cls-54" d="M290.93,220.51l55.21-32.08.18.85L291.1,221.37c-.05-.29-.11-.57-.17-.86" transform="translate(-10.83)"/><path class="cls-55" d="M291.1,221.37l55.22-32.09c.06.29.12.57.17.86l-55.21,32.09-.18-.86" transform="translate(-10.83)"/><path class="cls-56" d="M291.28,222.23l55.21-32.09c.06.29.11.57.17.86l-55.22,32.09c-.05-.29-.11-.58-.16-.86" transform="translate(-10.83)"/><path class="cls-57" d="M291.44,223.09,346.66,191c0,.29.11.57.16.86L291.6,224c-.05-.29-.1-.58-.16-.86" transform="translate(-10.83)"/><path class="cls-58" d="M291.6,224l55.22-32.09c.05.3.1.59.16.89l-55.22,32.08c-.05-.29-.1-.59-.16-.88" transform="translate(-10.83)"/><path class="cls-59" d="M291.76,224.83,347,192.75l.15.91-55.21,32.09c-.05-.31-.11-.61-.16-.92" transform="translate(-10.83)"/><path class="cls-60" d="M291.92,225.75l55.21-32.09.15.92-55.22,32.08c-.05-.3-.09-.61-.14-.91" transform="translate(-10.83)"/><path class="cls-61" d="M292.06,226.66l55.22-32.08c0,.3.09.61.14.92L292.2,227.58c0-.3-.09-.61-.14-.92" transform="translate(-10.83)"/><path class="cls-62" d="M292.2,227.58l55.22-32.08c0,.3.09.61.13.92l-55.22,32.09c0-.31-.08-.62-.13-.93" transform="translate(-10.83)"/><path class="cls-63" d="M292.33,228.51l55.22-32.09.12.92-55.21,32.09c0-.31-.08-.62-.13-.92" transform="translate(-10.83)"/><path class="cls-64" d="M292.46,229.43l55.21-32.09.12.93-55.21,32.09-.12-.93" transform="translate(-10.83)"/><path class="cls-65" d="M292.58,230.36l55.21-32.09.12,1-55.22,32.08c0-.31-.07-.63-.11-.95" transform="translate(-10.83)"/><path class="cls-66" d="M292.69,231.31l55.22-32.08c0,.34.07.67.11,1L292.8,232.33c0-.34-.07-.68-.11-1" transform="translate(-10.83)"/><path class="cls-67" d="M292.8,232.33,348,200.24c0,.34.07.68.1,1L292.9,233.35c0-.34-.06-.68-.1-1" transform="translate(-10.83)"/><path class="cls-68" d="M292.9,233.35l55.22-32.09.09,1L293,234.37c0-.34-.06-.68-.1-1" transform="translate(-10.83)"/><path class="cls-69" d="M293,234.37l55.21-32.09.09,1-55.22,32.08c0-.34-.05-.68-.08-1" transform="translate(-10.83)"/><path class="cls-70" d="M293.08,235.39l55.22-32.08c0,.34.05.68.07,1l-55.21,32.08c0-.34-.05-.68-.08-1" transform="translate(-10.83)"/><path class="cls-71" d="M293.16,236.42l55.21-32.08c0,.34.05.68.07,1l-55.22,32.08-.06-1" transform="translate(-10.83)"/><path class="cls-72" d="M293.22,237.45l55.22-32.08.06,1.12-55.22,32.09-.06-1.13" transform="translate(-10.83)"/><path class="cls-73" d="M293.28,238.58l55.22-32.09c0,.39,0,.77.05,1.16l-55.21,32.09-.06-1.16" transform="translate(-10.83)"/><path class="cls-74" d="M293.34,239.74l55.21-32.09c0,.39,0,.78,0,1.17L293.38,240.9c0-.39,0-.77,0-1.16" transform="translate(-10.83)"/><path class="cls-75" d="M293.38,240.9l55.21-32.08,0,1.16L293.4,242.07c0-.39,0-.78,0-1.17" transform="translate(-10.83)"/><path class="cls-76" d="M293.4,242.07,348.62,210c0,.39,0,.79,0,1.18l-55.21,32.08c0-.39,0-.78,0-1.17" transform="translate(-10.83)"/><path class="cls-77" d="M293.42,243.24l55.21-32.08c0,.39,0,.78,0,1.17l-55.22,32.09v-1.18" transform="translate(-10.83)"/><path class="cls-78" d="M293.42,244.42l55.22-32.09v.18c0,.34,0,.68,0,1L293.42,245.6v-1.18" transform="translate(-10.83)"/><path class="cls-79" d="M293.42,245.6l55.21-32.08c0,.39,0,.78,0,1.17L293.4,246.77c0-.38,0-.77,0-1.17" transform="translate(-10.83)"/><path class="cls-80" d="M293.4,246.77l55.21-32.08,0,1.15-55.22,32.09c0-.38,0-.77,0-1.16" transform="translate(-10.83)"/><path class="cls-81" d="M293.36,247.93l55.22-32.09c0,.38,0,.76-.05,1.14l-55.22,32.09c0-.38,0-.76.05-1.14" transform="translate(-10.83)"/><path class="cls-82" d="M293.31,249.07,348.53,217l-.06,1.12-55.22,32.09c0-.37.05-.75.06-1.12" transform="translate(-10.83)"/><path class="cls-83" d="M293.25,250.19l55.22-32.09c0,.38-.05.74-.07,1.11L293.18,251.3c0-.37.05-.74.07-1.11" transform="translate(-10.83)"/><path class="cls-84" d="M293.18,251.3l55.22-32.09c0,.39-.06.78-.1,1.16l-55.21,32.09.09-1.16" transform="translate(-10.83)"/><path class="cls-85" d="M293.09,252.46l55.21-32.09c0,.39-.06.78-.1,1.17L293,253.62c0-.38.08-.77.11-1.16" transform="translate(-10.83)"/><path class="cls-86" d="M293,253.62l55.22-32.08-.12,1.14-55.22,32.09.12-1.15" transform="translate(-10.83)"/><path class="cls-87" d="M292.86,254.77l55.22-32.09c-.05.38-.09.76-.14,1.13L292.72,255.9c0-.38.1-.75.14-1.13" transform="translate(-10.83)"/><path class="cls-88" d="M292.72,255.9l55.22-32.09-.15,1.11L292.57,257c.06-.36.11-.73.15-1.1" transform="translate(-10.83)"/><path class="cls-89" d="M292.57,257l55.22-32.08c-.06.37-.11.75-.17,1.11L292.4,258.12c.06-.37.12-.74.17-1.12" transform="translate(-10.83)"/><path class="cls-90" d="M292.4,258.12,347.62,226q-.11.63-.21,1.23L292.2,259.35c.07-.4.14-.81.2-1.23" transform="translate(-10.83)"/><path class="cls-91" d="M292.2,259.35l55.21-32.09c-.07.41-.15.81-.23,1.21L292,260.56c.08-.4.15-.8.23-1.21" transform="translate(-10.83)"/><path class="cls-92" d="M292,260.56l55.21-32.09c-.07.4-.16.79-.24,1.18l-55.21,32.09.24-1.18" transform="translate(-10.83)"/><path class="cls-93" d="M291.73,261.74l55.21-32.09c-.08.39-.17.78-.26,1.16l-55.22,32.08.27-1.15" transform="translate(-10.83)"/><path class="cls-94" d="M291.46,262.89l55.22-32.08-.3,1.21-55.22,32.09c.11-.4.21-.81.3-1.22" transform="translate(-10.83)"/><path class="cls-95" d="M291.16,264.11,346.38,232c-.13.47-.25.93-.38,1.38l-55.22,32.09c.13-.45.26-.91.38-1.38" transform="translate(-10.83)"/><path class="cls-96" d="M290.78,265.49,346,233.4c-.13.45-.27.9-.41,1.34l-55.21,32.09c.14-.44.27-.89.4-1.34" transform="translate(-10.83)"/><path class="cls-97" d="M290.38,266.83l55.21-32.09c-.13.44-.28.88-.43,1.31L290,268.13c.15-.43.29-.86.43-1.3" transform="translate(-10.83)"/><path class="cls-98" d="M290,268.13l55.21-32.08c-.17.5-.35,1-.53,1.47l-55.22,32.09c.19-.49.37-1,.54-1.48" transform="translate(-10.83)"/><path class="cls-100" d="M289.41,269.61l55.22-32.09c-.23.59-.46,1.17-.71,1.73l-55.21,32.09c.24-.56.48-1.14.7-1.73" transform="translate(-10.83)"/><path class="cls-101" d="M288.71,271.34l55.21-32.09c-.24.57-.49,1.12-.75,1.66L288,273c.26-.54.51-1.09.75-1.66" transform="translate(-10.83)"/><path class="cls-102" d="M288,273l55.21-32.09c-.41.86-.85,1.69-1.31,2.49l-55.21,32.09c.46-.8.89-1.63,1.31-2.49" transform="translate(-10.83)"/><path class="cls-103" d="M286.65,275.49l55.21-32.09a30.86,30.86,0,0,1-11.3,11.66l-55.21,32.08a31,31,0,0,0,11.3-11.65" transform="translate(-10.83)"/></g></g></g><path class="cls-104" d="M285.18,94l-.12,42.31-69.5-40.13-3.24,39c7.2.63,13.26,2.66,21,7.15,32.67,18.86,60.19,56,60.06,102.25-.13,48.25-32.7,57.21-69.62,35.9C192.92,262.67,171.86,237,157,211.33l19.79-20.42c11.3,18.54,24.69,36,40.81,45.34,19.35,11.17,31.82,6.56,31.88-15.75a58.67,58.67,0,0,0-29.62-50.77c-11-6.33-16.69-6.86-28-5L172.38,138.9l5.49-106.81Z" transform="translate(-10.83)"/><polygon class="cls-105" points="274.35 94.04 329.57 61.95 329.45 104.26 274.23 136.35 274.35 94.04"/><polygon class="cls-27" points="167.04 32.09 222.26 0 329.57 61.95 274.35 94.04 167.04 32.09"/></g><path class="cls-106" d="M95,240.88C87.9,245,86.65,251,92.22,254.28s15.94,2.51,23-1.62,8.35-10.15,2.78-13.39S102.11,236.75,95,240.88Z" transform="translate(-10.83)"/><path class="cls-107" d="M97.1,251.24c1.54,1.54,3.4,2.17,4.17,1.4s.13-2.63-1.41-4.17-3.4-2.17-4.17-1.41c-.46.46-.42,1.67-.43,2.13A15.05,15.05,0,0,0,97.1,251.24Z" transform="translate(-10.83)"/><path class="cls-108" d="M97.11,249.63c1,1,2.21,1.34,2.69.84s0-1.68-1-2.64-2.21-1.34-2.68-.84S96.1,248.67,97.11,249.63Z" transform="translate(-10.83)"/><path class="cls-107" d="M110.88,243.34c1.48,1.48,3.27,2.09,4,1.36s.13-2.53-1.35-4-3.27-2.09-4-1.35c-.44.44-.41,1.6-.41,2A13.91,13.91,0,0,0,110.88,243.34Z" transform="translate(-10.83)"/><path class="cls-109" d="M137.37,144.8l-3.55-.32-4.42,5.69,3.19,3.77a4.55,4.55,0,0,0,5.66-2.45C140.94,146.42,137.37,144.8,137.37,144.8Z" transform="translate(-10.83)"/><path class="cls-108" d="M145.48,142.06s-4.93,2.26-5.68,4.28a16.08,16.08,0,0,1-2.8-1.23l-2.35-.3L129.4,147l2.46,4.17s5.07,3.12,9,3.45c5-1.17,9-6.07,9-6.07l.72-1.8-3.38-5.25Z" transform="translate(-10.83)"/><path class="cls-7" d="M116.78,135.9l-1.91,6.1s1.54,5.08,4.78,5.89,12.94,6.05,12.94,6.05-1.29-7,4.78-9.14c-1.89-1.06-5.67-3.22-9.59-5.71C120.53,134.45,116.78,135.9,116.78,135.9Z" transform="translate(-10.83)"/><path class="cls-110" d="M163.23,135.32a5.23,5.23,0,0,0-.83-1.82,4.21,4.21,0,0,0-1.37-1.28,5.28,5.28,0,0,0-.82-1.82c-.08-.11-.16-.22-.24-.31l2.65-2.71c.87-.89.7-2.86-.39-4.38-.95-1.35-2.3-1.91-3.2-1.41h0l-2.81,1.63.44.72-3.39,3.46a1.2,1.2,0,0,0-1.18.29l-3.58,3.66a1.81,1.81,0,0,0-.43,1.34l-2.64,2.7,7.67,16.46,2.83-1.63,9-9.23c.88-.89.71-2.86-.38-4.39A4.25,4.25,0,0,0,163.23,135.32Z" transform="translate(-10.83)"/><path class="cls-111" d="M160.4,137a5.1,5.1,0,0,0-.83-1.83,4.28,4.28,0,0,0-1.37-1.27,5.33,5.33,0,0,0-.82-1.83l-.24-.31,2.64-2.7c.88-.89.71-2.86-.38-4.39s-2.67-2-3.54-1.15L150.42,129a1.19,1.19,0,0,0-1.17.29L145.67,133a1.78,1.78,0,0,0-.43,1.35L142.6,137l10.5,14.83,9-9.23c.88-.89.71-2.86-.37-4.38A4.16,4.16,0,0,0,160.4,137Z" transform="translate(-10.83)"/><path class="cls-6" d="M159.66,137.71a3,3,0,0,0-.58-2.08,2.15,2.15,0,0,0-1.62-1,3.06,3.06,0,0,0-.57-2.08,2.41,2.41,0,0,0-1.23-.95l3.45-3.52a2.44,2.44,0,0,0-.2-2.93c-.7-1-1.77-1.32-2.37-.7l-5.63,5.74a.83.83,0,0,0-1,.1l-3.59,3.66a1.36,1.36,0,0,0-.24,1.15l-2.34,2.39,9.15,12.92,6.39-6.52,2.17-2.21a2.47,2.47,0,0,0-.2-2.94A2.12,2.12,0,0,0,159.66,137.71Zm-.85-1.8a1.75,1.75,0,0,1,.09,2.11l-2.17,2.21c-.45.47-1.22.27-1.73-.44a1.78,1.78,0,0,1-.09-2.11h0l0,0,2.14-2.19C157.53,135,158.31,135.2,158.81,135.91Zm-2.19-3.1a1.76,1.76,0,0,1,.08,2.12l-1.48,1.51a3.72,3.72,0,0,0-.67-1.67l-.85-1.19,1.06-1.08.13-.13C155.34,131.91,156.12,132.11,156.62,132.81Zm.3-7.84c.45-.47,1.22-.27,1.72.44a1.76,1.76,0,0,1,.09,2.12l-4.22,4.3-.13.13L153.32,133l-1.41-2a2.78,2.78,0,0,0-.45-.5Zm-10.2,9.49,3.59-3.66c.3-.31.9-.08,1.32.52l2.64,3.73c.53.75.66,1.68.28,2.08h0c-.39.39-1.14.09-1.67-.66L151,133.84l-.91.92,1.83,2.59c.91,1.28,1.12,2.88.46,3.55s-1.94.17-2.85-1.12l-2.64-3.73C146.5,135.46,146.43,134.76,146.72,134.46Zm6.09,15.11-8.4-11.85,1.91-1.94a2.39,2.39,0,0,0,.28.52l2.66,3.76c1.12,1.58,2.69,2.2,3.5,1.37s.56-2.78-.57-4.36l-1.44-2,.35-.37,1.5,2.11a2.53,2.53,0,0,0,1.57,1.14,3,3,0,0,0,.56,2.17,2.15,2.15,0,0,0,1.62,1,3,3,0,0,0,.58,2.09,2.39,2.39,0,0,0,1.22,1Zm8.28-8.45-2.16,2.21c-.46.46-1.23.26-1.73-.44a1.76,1.76,0,0,1-.09-2.12l2.17-2.21c.45-.46,1.22-.26,1.72.45A1.75,1.75,0,0,1,161.09,141.12Z" transform="translate(-10.83)"/><path class="cls-108" d="M110.89,241.8c1,.93,2.13,1.29,2.59.81s0-1.62-.93-2.54-2.12-1.28-2.58-.8S109.93,240.88,110.89,241.8Z" transform="translate(-10.83)"/><path class="cls-111" d="M95.26,222.38s-3.91-21.9-5.84-35.94l30.07-5.7c.14,6.83.38,19.85-.39,29.26-1.16,14.19-6,30.57-6,30.57h0c-.11.51-.68.91-1.82.91s-2.16-.43-2.16-1l.52-22.77-2.49-19.37s-1.2,14.43-2.1,22.14S99.55,248,99.55,248c0,.81-.59,1.46-2,1.46s-2.32-.59-2.32-1.39h0Z" transform="translate(-10.83)"/><path class="cls-7" d="M86.69,147.48c-1.11,7.81-.69,37.16-.69,37.16,0,6.27,1.58,11.2,10.17,12.4a14.32,14.32,0,0,0,4.83-.29c6.65-1.42,14.71-6.21,17.85-9.06,5.27-4.76,5.05-9.26,5.05-13.18V145.88s0-9.62-8.14-12.75c-6.19-2.38-15.72-.2-20.7,2.61C95.06,135.74,87.85,139.34,86.69,147.48Z" transform="translate(-10.83)"/><path class="cls-108" d="M108.28,117.26c2.1-.08,4.55.43,5.76,2.45.78,1.3.72,3.66.79,5.41a10.8,10.8,0,0,1-3.1,8.21v.85a2.36,2.36,0,0,1-1.37,1.87,7.29,7.29,0,0,1-6.59,0,2.33,2.33,0,0,1-1.34-1.84v-8.29c0-.1,0-.2,0-.3C102.21,121.14,104.85,117.4,108.28,117.26Z" transform="translate(-10.83)"/><path class="cls-112" d="M109,134.53a4.42,4.42,0,0,0,2.75-1.2v.85a2.36,2.36,0,0,1-1.37,1.87,7.29,7.29,0,0,1-6.59,0,2.33,2.33,0,0,1-1.34-1.84v-8.29C102.7,130.3,105.62,134.66,109,134.53Z" transform="translate(-10.83)"/><path class="cls-113" d="M100,117.66c.93-2.79,2.52-2.59,2.52-2.59s.57-1.08,2.81-.84,9.25,1.8,10,.34a1,1,0,0,1,0,.7,1.58,1.58,0,0,0,1-.8c1,2.19.8,6.48-1.47,9.53a15.17,15.17,0,0,0-.38-3.39c-3.76,2.17-9.31.32-9.31.32l-.45,4.78a1.14,1.14,0,0,0-2.26.33,1.57,1.57,0,0,0,0,.23,12.07,12.07,0,0,0,.46,2.32,8.81,8.81,0,0,1-2.1-2.9C99.24,122.34,99.25,119.72,100,117.66Z" transform="translate(-10.83)"/><path class="cls-9" d="M87.44,144.36a4.65,4.65,0,0,1,3.4-1.57c5,0,4.69,5.71,4.69,5.71v32.05c0,12.33,2.8,15.75,4.62,16.67a13.44,13.44,0,0,1-3.73.08c-8.72-1.22-10.32-6.22-10.32-12.58,0,0-.42-29.78.7-37.7A15.44,15.44,0,0,1,87.44,144.36Z" transform="translate(-10.83)"/><path class="cls-109" d="M85.66,127.65c-5.23,1.91-3.57,6.23-3.57,6.23l2.52,3.38,7.68-2.21-.85-6S90.23,126,85.66,127.65Z" transform="translate(-10.83)"/><path class="cls-108" d="M89.67,127.29c.59-4.86-1.5-10-.87-18l-5-.44s-4.31,13.18-1.23,20.77c.29,3.29.81,6.48.81,6.48l1.63,3,5.22.87,2.33-3.63-.67-3.06Z" transform="translate(-10.83)"/><path class="cls-108" d="M91.07,102.34a4.82,4.82,0,0,0,.59-2.33,3.66,3.66,0,0,0-2.09-2.71c-1.4-.73-5.43,2.57-5.91,4.31s.39,5.62.15,7.27A4,4,0,0,0,86,110.67l2.77-1.35A22.6,22.6,0,0,1,91,106.6c.88-.82,1.7-1.89,1.11-3S91.07,102.34,91.07,102.34Z" transform="translate(-10.83)"/><path class="cls-7" d="M91.44,129.08c-1.53,8.36-9.35,4.8-9.35,4.8s2.08,7.56,3,12.87c.66,4,5.9,5.8,8.8,4.18,3.19-1.79,2-7,1.67-10.5S92.31,132.72,91.44,129.08Z" transform="translate(-10.83)"/><path class="cls-114" d="M150.25,97.79A17.69,17.69,0,1,0,124,113.26a3,3,0,0,1,1.57,2.39,3.52,3.52,0,0,1-2,3.17C151,119.09,150.25,97.79,150.25,97.79Z" transform="translate(-10.83)"/><path class="cls-7" d="M135.84,90.22a1.52,1.52,0,0,0-2,.81l-4.47,10.77a1.41,1.41,0,0,0,0,1.14,1.46,1.46,0,0,0,.81.81,1.56,1.56,0,0,0,.57.11,1.48,1.48,0,0,0,1.38-.92l4.48-10.77A1.49,1.49,0,0,0,135.84,90.22Z" transform="translate(-10.83)"/><path class="cls-7" d="M129.71,104.58a1.61,1.61,0,0,0-1.93,1.12,1.57,1.57,0,0,0,.14,1.22,1.55,1.55,0,0,0,1,.72,2,2,0,0,0,.41,0,1.58,1.58,0,0,0,1.53-1.17,1.55,1.55,0,0,0-.14-1.21A1.57,1.57,0,0,0,129.71,104.58Z" transform="translate(-10.83)"/><path class="cls-106" d="M238.29,341.16c-7.95,4.62-9.35,11.36-3.12,15S253,359,261,354.34s9.35-11.37,3.11-15S246.23,336.54,238.29,341.16Z" transform="translate(-10.83)"/><path class="cls-7" d="M269.14,231.21c2.9,6.15,4.21,16,4.69,24.61l-8.43.9-8-20.76" transform="translate(-10.83)"/><path class="cls-108" d="M267.27,273.94s-.3,3.08-.51,3.94c-.13.56-.21.94-.32,1.34-.14.56-.17.83,0,1s.5.17.82-1a4.82,4.82,0,0,1-1,2.07c-.6.65-1.49,1.31-1.25,1.66s.88,0,.88,0,.08.55.88.12c0,0,.1.45.91-.12,0,0,.32.37,1.06-.38a12.55,12.55,0,0,0,3.47-9Z" transform="translate(-10.83)"/><path class="cls-7" d="M273.81,255.65c.84,15-1.49,19.61-1.49,19.61l-5.09.14-1.83-18.68" transform="translate(-10.83)"/><path class="cls-7" d="M265.34,255.9a4.24,4.24,0,1,1,4.24,4.24A4.24,4.24,0,0,1,265.34,255.9Z" transform="translate(-10.83)"/><path class="cls-7" d="M257.05,234a6.37,6.37,0,1,1,6.37,6.37A6.37,6.37,0,0,1,257.05,234Z" transform="translate(-10.83)"/><path class="cls-107" d="M242.27,349.64c-1.73-1.73-3.83-2.44-4.68-1.59s-.14,2.95,1.59,4.68,3.82,2.44,4.67,1.59c.52-.51.48-2.62.48-3.13C244,350.65,243,350.33,242.27,349.64Z" transform="translate(-10.83)"/><path class="cls-108" d="M242.24,349.45c-1.13-1.07-2.48-1.49-3-.93s0,1.88,1.08,3" transform="translate(-10.83)"/><path class="cls-107" d="M256.6,341.25c-1.73-1.73-3.83-2.45-4.68-1.59s-.14,2.95,1.58,4.68,3.83,2.44,4.68,1.59c.52-.52.48-2.62.48-3.14C258.37,342.26,257.28,341.93,256.6,341.25Z" transform="translate(-10.83)"/><path class="cls-108" d="M256.56,341.06c-1.12-1.07-2.47-1.49-3-.93s-.05,1.88,1.08,2.95" transform="translate(-10.83)"/><path class="cls-115" d="M231.81,270.16l35.57,1.22-7,44.1-1.6,27.11h0c0,.93-.85,1.68-2.36,1.68s-2.06-.83-2.09-1.74h0s-2.55-17.2-3.81-28.16a159.14,159.14,0,0,1-.88-17.33l-3.84,23.86-1.17,29.7v.1c0,.92-.89,1.67-2.56,1.67s-2.2-.77-2.26-1.64S235.28,328,234.21,319C233.11,309.82,230.43,273.05,231.81,270.16Z" transform="translate(-10.83)"/><path class="cls-7" d="M229,239.65c-1.25,8.74-.77,41.58-.77,41.58,0,7,1.76,12.53,11.38,13.88a15.93,15.93,0,0,0,5.4-.33c7.44-1.59,16.46-6.95,20-10.13,5.89-5.33,5.65-10.36,5.65-14.75v-32s0-10.76-9.11-14.27c-6.93-2.66-17.59-.22-23.17,2.93C238.33,226.52,230.27,230.55,229,239.65Z" transform="translate(-10.83)"/><path class="cls-9" d="M229.67,236.72a5.09,5.09,0,0,1,3.75-1.74c5.56,0,5.18,6.3,5.18,6.3v35.35c0,13.6,3.08,17.37,5.09,18.39a14.65,14.65,0,0,1-4.11.09c-9.62-1.35-11.38-6.87-11.38-13.88,0,0-.48-32.84.77-41.58A16.31,16.31,0,0,1,229.67,236.72Z" transform="translate(-10.83)"/><path class="cls-7" d="M244.17,240h0L238.78,268l-10.17-1.88s.06-2.13.12-4.83c.26-11.5-.75-19.81,1.33-25.8,1-2.85,15.68-1.63,14.12,4.57" transform="translate(-10.83)"/><path class="cls-108" d="M231.94,289.13s-2,5.44-2,6.57c0,.93.24,1.49-.31,1.77-.74.37-1-.19-1-.19a.83.83,0,0,1-1.27-.39s-.73.48-1.08-.69c0,0-.78.65-1-1.57-.25-2.62,1.8-6.68,1.82-6.73Z" transform="translate(-10.83)"/><path class="cls-108" d="M229.52,297.53a1.83,1.83,0,0,0,1-1.16c.29-.92-.19-1.75-1-1.73C229.49,294.64,227.83,297.8,229.52,297.53Z" transform="translate(-10.83)"/><path class="cls-7" d="M228.62,266l-2.32,24.44,4.92,2.33a161.92,161.92,0,0,0,7.69-25.26" transform="translate(-10.83)"/><path class="cls-7" d="M238.34,269a5.2,5.2,0,1,0-7.08,2A5.2,5.2,0,0,0,238.34,269Z" transform="translate(-10.83)"/><path class="cls-7" d="M229.3,238.69a7.51,7.51,0,1,1,7.48,7.54A7.5,7.5,0,0,1,229.3,238.69Z" transform="translate(-10.83)"/><path class="cls-108" d="M242.43,215.73c-.06-5.26,3.17-9.56,7.21-9.61,2.46,0,5.32.67,6.67,3.08.87,1.55.72,4.32.74,6.38a11.4,11.4,0,0,1-1.65,6.15V224h0a2.55,2.55,0,0,1-1.47,2,7.75,7.75,0,0,1-7.05,0,2.47,2.47,0,0,1-1.44-2l0,0v-.66A10.68,10.68,0,0,1,242.43,215.73Z" transform="translate(-10.83)"/><path class="cls-113" d="M242.63,215c-3.5-1-4.2-4.84-2.29-7.68s5.08-3.35,8.86-5.44c2.73-1.52,4.1.3,4.1.3a3,3,0,0,1,3.12.47,13.94,13.94,0,0,1,3,4.15,11.23,11.23,0,0,1,0,11.22c-.81,1.44-3.19,4.29-6,5.12-1.62.47-7.32,1-8.45-2.93C244.32,218.07,244.13,215.46,242.63,215Z" transform="translate(-10.83)"/><path class="cls-116" d="M242.63,215c1.5.43,1.69,3,2.31,5.21a4.19,4.19,0,0,0,.48,1.07v2a10.68,10.68,0,0,1-3-7.59c0-.26,0-.51,0-.77Z" transform="translate(-10.83)"/><circle class="cls-111" cx="240.25" cy="176.32" r="16.74"/><rect class="cls-7" x="232.74" y="173.67" width="4.38" height="8.33" rx="1.03"/><path class="cls-7" d="M257.82,173.56a1.64,1.64,0,0,0-.86-.24h-3a13,13,0,0,0,.26-3.42,2.46,2.46,0,0,0-.71-1.43,1.15,1.15,0,0,0-.27-.21,1.06,1.06,0,0,0-.56-.17,1.11,1.11,0,0,0-1.1,1.1h0a5.47,5.47,0,0,1-.16,1.47,14.31,14.31,0,0,1-1.54,3.12,2.42,2.42,0,0,1-1,.68V181a2.05,2.05,0,0,1,1.11.66,2.09,2.09,0,0,0,1.56.7H256a2.56,2.56,0,0,0,1.94-.89,2.53,2.53,0,0,0,.62-1.66V175A1.65,1.65,0,0,0,257.82,173.56Z" transform="translate(-10.83)"/><path class="cls-106" d="M347.37,298.69c7.29,4.24,8.58,10.43,2.86,13.76s-16.37,2.58-23.66-1.66S318,300.36,323.71,297,340.08,294.45,347.37,298.69Z" transform="translate(-10.83)"/><path class="cls-7" d="M319.15,193.86c-2.66,5.65-3.86,14.72-4.3,22.59l7.73.82L330,198.22" transform="translate(-10.83)"/><path class="cls-117" d="M320.86,233.08s.28,2.82.47,3.61c.12.51.2.86.29,1.23s.17.76,0,.89-.46.16-.75-.88a4.54,4.54,0,0,0,1,1.9c.55.6,1.36,1.2,1.14,1.52s-.81,0-.81,0-.07.51-.8.11c0,0-.09.41-.83-.11,0,0-.3.34-1-.34a11.59,11.59,0,0,1-3.18-8.28Z" transform="translate(-10.83)"/><path class="cls-7" d="M314.86,216.29c-.77,13.77,1.37,18,1.37,18l4.67.12,1.68-17.14" transform="translate(-10.83)"/><path class="cls-7" d="M322.63,216.52a3.89,3.89,0,1,0-3.88,3.89A3.89,3.89,0,0,0,322.63,216.52Z" transform="translate(-10.83)"/><path class="cls-7" d="M330.24,196.44a5.85,5.85,0,1,0-5.84,5.85A5.85,5.85,0,0,0,330.24,196.44Z" transform="translate(-10.83)"/><path class="cls-118" d="M346.27,309.32c-1.58,1.58-3.5,2.23-4.29,1.45s-.13-2.7,1.45-4.29,3.49-2.22,4.28-1.44c.47.47.44,1.71.44,2.18A15.72,15.72,0,0,1,346.27,309.32Z" transform="translate(-10.83)"/><path class="cls-108" d="M346.25,307.68c-1,1-2.27,1.37-2.76.85s0-1.72,1-2.71,2.27-1.37,2.76-.86S347.29,306.69,346.25,307.68Z" transform="translate(-10.83)"/><path class="cls-118" d="M332.11,301.22c-1.52,1.52-3.36,2.14-4.11,1.39s-.13-2.6,1.38-4.12,3.36-2.14,4.12-1.39c.45.46.42,1.65.42,2.1A14.09,14.09,0,0,1,332.11,301.22Z" transform="translate(-10.83)"/><path class="cls-108" d="M332.1,299.64c-1,.95-2.18,1.31-2.65.82s-.05-1.65.95-2.6,2.18-1.32,2.65-.83S333.09,298.69,332.1,299.64Z" transform="translate(-10.83)"/><path class="cls-108" d="M347.68,279.69s4-22.48,6-36.9l-30.87-5.85c-.14,7-.39,20.38.4,30.05,1.19,14.56,6.49,31.44,6.49,31.44h0c.11.52.42.87,1.59.87a1.87,1.87,0,0,0,2-1.65L333,274.86,335.52,255s1.24,14.82,2.15,22.73,6.24,28.76,6.24,28.76c0,.82,0,1,1.38,1a2,2,0,0,0,2.15-1.79h0Z" transform="translate(-10.83)"/><path class="cls-111" d="M340.34,271.87a11.42,11.42,0,0,0,4.43.27c4.55-.63,9.33-5.57,9.33-5.57v-5.8c0-6.16,0-29.53,0-29.53-.16-1.6-.36-3.12-.62-4.56-.87-4.31-2.51-6.87-6.1-9.73a12.21,12.21,0,0,0-1.57-1c-4.57-2.58-13.31-4.58-19-2.39-7.47,2.87-7.47,11.71-7.47,11.69v33.56a76,76,0,0,0,9.16,7A69.61,69.61,0,0,0,340.34,271.87Z" transform="translate(-10.83)"/><path class="cls-7" d="M355.46,202.79c1.15,8,.71,38.16.71,38.16,0,6.43-1.62,11.49-10.44,12.73a14.85,14.85,0,0,1-5-.3c-6.82-1.46-15.1-6.38-18.33-9.3-5.4-4.89-5.18-9.51-5.18-13.53v-29.4s0-9.88,8.36-13.09c6.35-2.45,16.14-.21,21.25,2.68C346.87,190.74,354.27,194.44,355.46,202.79Z" transform="translate(-10.83)"/><path class="cls-9" d="M354.83,200.1a4.72,4.72,0,0,0-3.45-1.59c-5.1,0-4.75,5.78-4.75,5.78v32.43c0,12.48-2.83,15.94-4.67,16.87a13.36,13.36,0,0,0,3.77.09c8.82-1.24,10.44-6.3,10.44-12.73,0,0,.44-30.14-.71-38.16A14.7,14.7,0,0,0,354.83,200.1Z" transform="translate(-10.83)"/><path class="cls-119" d="M339.17,172.39s5.12-5.29,7.1,1.71a9.41,9.41,0,0,1,.06,5.83c-1.05,2.81-2.86,4.46-.5,6.45,0,0-6.44-1.66-7.1-10.19C338.73,176.19,338.34,173.16,339.17,172.39Z" transform="translate(-10.83)"/><path class="cls-120" d="M326,177.84a11,11,0,0,0,.3,4c.69,2.56-1.1,2.34-1.1,2.34s2.31.22,1.71-1.76a3.44,3.44,0,0,1,.11-2.59S326.81,177.9,326,177.84Z" transform="translate(-10.83)"/><path class="cls-108" d="M333.29,171.76c-2.14-.08-4.66.45-5.91,2.52-.8,1.33-.74,3.76-.81,5.56a11.16,11.16,0,0,0,3.18,8.43v.85h0a2.41,2.41,0,0,0,1.41,1.92,7.46,7.46,0,0,0,6.76,0,2.41,2.41,0,0,0,1.39-1.88v-8.52c0-.1,0-.2,0-.3C339.53,175.75,336.82,171.91,333.29,171.76Z" transform="translate(-10.83)"/><path class="cls-121" d="M332.58,189.49a4.6,4.6,0,0,1-2.83-1.22v.85h0a2.41,2.41,0,0,0,1.41,1.92,7.46,7.46,0,0,0,6.76,0,2.41,2.41,0,0,0,1.39-1.88v-8.52C339,185.15,336,189.63,332.58,189.49Z" transform="translate(-10.83)"/><path class="cls-120" d="M337.42,180.46c.12-.57.24-1,.83-1a1.18,1.18,0,0,1,1.08,1.15,8.42,8.42,0,0,1-.77,3.46l.77,2.77c7.07-9,1.38-17,1.38-17a4.93,4.93,0,0,0-4.65-1.7c-2.85-1.08-7.54-1.34-9.66,2.75,0,0-2,2.59-.72,6.94l.9,3c0-.36,0-.72,0-1.07,0-.74,0-1.58.09-2.41,7.44,0,9-2.58,9-2.58s-.17,2.77.49,4a8.1,8.1,0,0,0,.41,2.95s.75,2-.16,2.67a1.75,1.75,0,0,0,.91-2.23A7.44,7.44,0,0,1,337.42,180.46Z" transform="translate(-10.83)"/><path class="cls-122" d="M346.27,174.1c-1.14-4-3.33-4-5-3.21a14,14,0,0,1,.19,12.53,9.53,9.53,0,0,0,4.35,3c-2.36-2-.55-3.64.5-6.45A9.41,9.41,0,0,0,346.27,174.1Z" transform="translate(-10.83)"/><path class="cls-109" d="M356.47,189.09c5,1.81,3.41,5.93,3.41,5.93l-2.41,3.22-7.31-2.11.81-5.68S352.11,187.51,356.47,189.09Z" transform="translate(-10.83)"/><path class="cls-108" d="M352.65,188.74c-.56-4.62,1.43-9.5.83-17.12l4.76-.41s4.1,12.55,1.16,19.78c-.27,3.13-.76,6.18-.76,6.18L357.08,200l-5,.83-2.22-3.46.64-2.91Z" transform="translate(-10.83)"/><path class="cls-108" d="M351.31,165a4.57,4.57,0,0,1-.55-2.22,3.48,3.48,0,0,1,2-2.58c1.34-.7,5.18,2.44,5.64,4.1s-.37,5.36-.14,6.93a3.78,3.78,0,0,1-2.12,1.7l-2.64-1.29a21.44,21.44,0,0,0-2.07-2.58c-.84-.79-1.62-1.8-1.07-2.87S351.31,165,351.31,165Z" transform="translate(-10.83)"/><path class="cls-7" d="M351,190.45c1.45,8,8.91,4.57,8.91,4.57s-2,7.2-2.82,12.26c-.63,3.83-5.62,5.52-8.38,4-3-1.7-1.89-6.7-1.59-10S350.14,193.91,351,190.45Z" transform="translate(-10.83)"/><circle class="cls-114" cx="325.46" cy="137.08" r="19.33"/><path class="cls-7" d="M347.4,134.87l-1.69-1.69v-2.39l-2.21-.92-.92-2.21h-2.39l-1.7-1.69-2.21.91-2.21-.91-1.69,1.69H330l-.92,2.21-2.21.92v2.39l-1.7,1.69.92,2.21-.92,2.22,1.7,1.69v2.39l2.21.92.92,2.21h2.39l1.69,1.69,2.21-.91,2.21.91,1.7-1.69h2.39l.92-2.21,2.21-.92V141l1.69-1.69-.91-2.22ZM337,143.2v1.3a.74.74,0,0,1-1.48,0v-1.31a3.71,3.71,0,0,1-3-3.63.74.74,0,1,1,1.48,0,2.23,2.23,0,0,0,2.22,2.22,2,2,0,0,0,2.23-2c0-1-.81-1.63-2.39-2h0c-2.93-.67-3.54-2.24-3.54-3.44a3.44,3.44,0,0,1,3-3.4v-1.3a.74.74,0,1,1,1.48,0V131a3.71,3.71,0,0,1,2.92,3,.74.74,0,0,1-.61.85.73.73,0,0,1-.85-.61,2.22,2.22,0,0,0-2.2-1.85,2,2,0,0,0-2.22,2c0,.36,0,1.45,2.39,2h0c3.08.7,3.54,2.46,3.54,3.44A3.44,3.44,0,0,1,337,143.2Z" transform="translate(-10.83)"/><polygon class="cls-111" points="443.46 168.86 418.88 183.15 386.54 164.35 386.54 163.9 411.12 149.6 443.46 168.41 443.46 168.86"/><polygon class="cls-8" points="418.88 183.15 386.54 164.35 386.54 163.9 418.88 182.7 418.88 183.15"/><polygon class="cls-9" points="418.88 183.15 443.46 168.86 443.46 168.41 418.88 182.7 418.88 183.15"/><polygon class="cls-7" points="426.64 159.38 403.36 172.92 387.84 163.9 387.84 162.99 411.13 149.46 426.64 158.48 426.64 159.38"/><g class="cls-123"><polyline class="cls-124" points="399.03 165.09 398.77 165.24 393.08 161.93 393.34 161.78 399.03 165.09"/><polyline class="cls-124" points="399.54 164.79 399.27 164.95 393.58 161.64 393.85 161.49 399.54 164.79"/><polyline class="cls-124" points="400.04 164.5 399.78 164.65 394.09 161.35 394.35 161.2 400.04 164.5"/><polyline class="cls-124" points="400.54 164.21 400.28 164.36 394.59 161.06 394.86 160.91 400.54 164.21"/><polyline class="cls-124" points="401.05 163.92 400.79 164.07 395.1 160.77 395.36 160.62 401.05 163.92"/><polyline class="cls-124" points="401.56 163.63 401.29 163.78 395.61 160.47 395.87 160.32 401.56 163.63"/><polyline class="cls-124" points="402.06 163.34 401.8 163.49 396.11 160.18 396.37 160.03 402.06 163.34"/><polyline class="cls-124" points="402.56 163.05 402.31 163.2 396.62 159.89 396.87 159.74 402.56 163.05"/><polyline class="cls-124" points="408.62 159.55 408.36 159.7 402.68 156.39 402.93 156.24 408.62 159.55"/><polyline class="cls-124" points="408.12 159.84 407.86 159.99 402.17 156.68 402.43 156.53 408.12 159.84"/><polyline class="cls-124" points="409.13 159.26 408.87 159.41 403.18 156.1 403.44 155.95 409.13 159.26"/><polyline class="cls-124" points="409.63 158.96 409.37 159.12 403.68 155.81 403.94 155.66 409.63 158.96"/><polyline class="cls-124" points="410.14 158.67 409.88 158.82 404.19 155.52 404.45 155.37 410.14 158.67"/><polyline class="cls-124" points="410.64 158.38 410.38 158.53 404.7 155.22 404.96 155.07 410.64 158.38"/><polyline class="cls-124" points="411.15 158.09 410.89 158.24 405.2 154.94 405.46 154.78 411.15 158.09"/><polyline class="cls-124" points="411.65 157.8 411.39 157.95 405.7 154.64 405.97 154.49 411.65 157.8"/><polyline class="cls-124" points="412.16 157.51 411.9 157.66 406.21 154.35 406.47 154.2 412.16 157.51"/><polyline class="cls-124" points="412.66 157.22 412.4 157.37 406.71 154.06 406.98 153.91 412.66 157.22"/><polyline class="cls-124" points="413.17 156.92 412.91 157.07 407.22 153.77 407.48 153.62 413.17 156.92"/><polyline class="cls-124" points="413.67 156.63 413.41 156.78 407.72 153.48 407.99 153.33 413.67 156.63"/><polyline class="cls-124" points="414.18 156.34 413.92 156.49 408.23 153.18 408.49 153.03 414.18 156.34"/><polyline class="cls-124" points="414.68 156.05 414.43 156.2 408.73 152.89 408.99 152.74 414.68 156.05"/><polyline class="cls-124" points="415.19 155.76 414.93 155.91 409.24 152.6 409.5 152.45 415.19 155.76"/><polyline class="cls-124" points="415.69 155.47 415.43 155.62 409.74 152.31 410 152.16 415.69 155.47"/><polyline class="cls-124" points="405.3 168.73 405.04 168.88 399.35 165.58 399.62 165.43 405.3 168.73"/><polyline class="cls-124" points="405.81 168.44 405.55 168.59 399.86 165.29 400.12 165.13 405.81 168.44"/><polyline class="cls-124" points="406.31 168.15 406.06 168.3 400.36 164.99 400.63 164.84 406.31 168.15"/><polyline class="cls-124" points="398.02 165.67 397.76 165.82 392.07 162.51 392.33 162.36 398.02 165.67"/><polyline class="cls-124" points="398.52 165.38 398.26 165.53 392.58 162.22 392.83 162.07 398.52 165.38"/><polyline class="cls-124" points="404.3 169.31 404.03 169.47 398.35 166.16 398.61 166.01 404.3 169.31"/><polyline class="cls-124" points="404.8 169.03 404.54 169.17 398.85 165.87 399.11 165.72 404.8 169.03"/><polyline class="cls-124" points="397.52 165.96 397.25 166.11 391.56 162.81 391.83 162.66 397.52 165.96"/><polyline class="cls-124" points="403.79 169.61 403.53 169.76 397.84 166.45 398.1 166.3 403.79 169.61"/><polyline class="cls-124" points="406.82 167.86 406.56 168.01 400.87 164.7 401.13 164.55 406.82 167.86"/><polyline class="cls-124" points="407.32 167.57 407.06 167.72 401.37 164.41 401.63 164.26 407.32 167.57"/><polyline class="cls-124" points="407.83 167.28 407.57 167.43 401.88 164.12 402.14 163.97 407.83 167.28"/><polyline class="cls-124" points="408.33 166.98 408.07 167.13 402.38 163.83 402.65 163.68 408.33 166.98"/><polyline class="cls-124" points="408.84 166.69 408.58 166.84 402.89 163.54 403.15 163.39 408.84 166.69"/><polyline class="cls-124" points="409.34 166.4 409.08 166.55 403.39 163.25 403.65 163.1 409.34 166.4"/><polyline class="cls-124" points="403.07 162.75 402.81 162.91 397.12 159.6 397.38 159.45 403.07 162.75"/><polyline class="cls-124" points="409.85 166.11 409.59 166.26 403.9 162.95 404.16 162.8 409.85 166.11"/><polyline class="cls-124" points="410.35 165.82 410.09 165.97 404.4 162.66 404.67 162.51 410.35 165.82"/><polyline class="cls-124" points="410.86 165.53 410.6 165.68 404.91 162.37 405.17 162.22 410.86 165.53"/><polyline class="cls-124" points="411.36 165.24 411.1 165.39 405.41 162.08 405.68 161.93 411.36 165.24"/><polyline class="cls-124" points="411.87 164.94 411.61 165.09 405.92 161.79 406.18 161.64 411.87 164.94"/><polyline class="cls-124" points="412.37 164.65 412.11 164.8 406.42 161.5 406.69 161.34 412.37 164.65"/><polyline class="cls-124" points="412.88 164.36 412.62 164.51 406.93 161.21 407.19 161.06 412.88 164.36"/><polyline class="cls-124" points="413.38 164.07 413.12 164.22 407.43 160.91 407.69 160.76 413.38 164.07"/><polyline class="cls-124" points="413.89 163.78 413.63 163.93 407.94 160.62 408.2 160.47 413.89 163.78"/><polyline class="cls-124" points="403.57 162.46 403.31 162.61 397.63 159.31 397.89 159.16 403.57 162.46"/><polyline class="cls-124" points="404.08 162.17 403.82 162.32 398.13 159.02 398.39 158.87 404.08 162.17"/><polyline class="cls-124" points="404.59 161.88 404.32 162.03 398.63 158.72 398.9 158.57 404.59 161.88"/><polyline class="cls-124" points="405.09 161.59 404.83 161.74 399.14 158.43 399.4 158.28 405.09 161.59"/><polyline class="cls-124" points="405.6 161.3 405.33 161.45 399.64 158.14 399.9 157.99 405.6 161.3"/><polyline class="cls-124" points="406.1 161 405.84 161.16 400.15 157.85 400.41 157.7 406.1 161"/><polyline class="cls-124" points="406.6 160.72 406.34 160.87 400.65 157.56 400.91 157.41 406.6 160.72"/><polyline class="cls-124" points="407.11 160.42 406.85 160.57 401.16 157.27 401.42 157.12 407.11 160.42"/><polyline class="cls-124" points="407.61 160.13 407.35 160.28 401.67 156.97 401.93 156.82 407.61 160.13"/><polyline class="cls-124" points="414.39 163.49 414.13 163.63 408.44 160.33 408.7 160.18 414.39 163.49"/><polyline class="cls-124" points="414.9 163.19 414.64 163.34 408.95 160.04 409.21 159.89 414.9 163.19"/></g><polygon class="cls-8" points="403.36 172.92 387.84 163.9 387.84 162.99 403.36 172.02 403.36 172.92"/><polygon class="cls-9" points="403.36 172.92 426.64 159.38 426.64 158.48 403.36 172.02 403.36 172.92"/><polygon class="cls-7" points="442.16 168.41 418.88 181.94 403.36 172.94 403.36 171.13 426.64 157.6 442.16 166.6 442.16 168.41"/><polygon class="cls-8" points="418.88 181.94 403.36 172.94 403.36 171.13 418.88 180.14 418.88 181.94"/><polygon class="cls-9" points="418.88 181.94 442.16 168.41 442.16 166.6 418.88 180.14 418.88 181.94"/><g class="cls-123"><polyline class="cls-124" points="414.62 173.27 414.36 173.42 408.67 170.11 408.93 169.96 414.62 173.27"/><polyline class="cls-124" points="415.13 172.98 414.87 173.13 409.18 169.82 409.44 169.67 415.13 172.98"/><polyline class="cls-124" points="415.63 172.69 415.37 172.84 409.68 169.53 409.94 169.38 415.63 172.69"/><polyline class="cls-124" points="416.14 172.39 415.88 172.54 410.19 169.24 410.45 169.09 416.14 172.39"/><polyline class="cls-124" points="416.64 172.1 416.38 172.25 410.69 168.94 410.95 168.79 416.64 172.1"/><polyline class="cls-124" points="417.15 171.81 416.89 171.96 411.2 168.66 411.46 168.5 417.15 171.81"/><polyline class="cls-124" points="417.65 171.52 417.39 171.67 411.7 168.36 411.96 168.21 417.65 171.52"/><polyline class="cls-124" points="418.16 171.23 417.9 171.38 412.21 168.07 412.47 167.92 418.16 171.23"/><polyline class="cls-124" points="423.21 168.31 418.91 170.8 413.21 167.49 417.52 165 423.21 168.31"/><polyline class="cls-124" points="435.54 168.46 431.24 170.94 425.55 167.64 429.85 165.15 435.54 168.46"/><polyline class="cls-124" points="424.22 167.73 423.96 167.88 418.27 164.57 418.53 164.42 424.22 167.73"/><polyline class="cls-124" points="423.71 168.02 423.45 168.17 417.76 164.86 418.02 164.71 423.71 168.02"/><polyline class="cls-124" points="424.72 167.44 424.46 167.59 418.77 164.28 419.03 164.13 424.72 167.44"/><polyline class="cls-124" points="425.23 167.15 424.97 167.3 419.27 163.99 419.54 163.84 425.23 167.15"/><polyline class="cls-124" points="425.73 166.85 425.47 167 419.78 163.7 420.04 163.55 425.73 166.85"/><polyline class="cls-124" points="426.24 166.56 425.98 166.71 420.29 163.41 420.55 163.25 426.24 166.56"/><polyline class="cls-124" points="426.74 166.27 426.48 166.42 420.79 163.12 421.05 162.97 426.74 166.27"/><polyline class="cls-124" points="427.25 165.98 426.99 166.13 421.29 162.82 421.56 162.67 427.25 165.98"/><polyline class="cls-124" points="427.75 165.69 427.49 165.84 421.8 162.53 422.06 162.38 427.75 165.69"/><polyline class="cls-124" points="428.26 165.4 428 165.55 422.31 162.24 422.57 162.09 428.26 165.4"/><polyline class="cls-124" points="428.76 165.11 428.5 165.25 422.81 161.95 423.07 161.8 428.76 165.11"/><polyline class="cls-124" points="429.27 164.81 429.01 164.97 423.31 161.66 423.58 161.51 429.27 164.81"/><polyline class="cls-124" points="429.77 164.52 429.51 164.67 423.82 161.37 424.08 161.22 429.77 164.52"/><polyline class="cls-124" points="430.28 164.23 430.02 164.38 424.33 161.07 424.59 160.92 430.28 164.23"/><polyline class="cls-124" points="430.78 163.94 430.52 164.09 424.83 160.78 425.09 160.63 430.78 163.94"/><polyline class="cls-124" points="431.29 163.65 431.03 163.8 425.33 160.49 425.6 160.34 431.29 163.65"/><polyline class="cls-124" points="420.89 176.91 420.63 177.06 414.94 173.76 415.21 173.61 420.89 176.91"/><polyline class="cls-124" points="421.4 176.62 421.14 176.77 415.45 173.47 415.71 173.32 421.4 176.62"/><polyline class="cls-124" points="421.9 176.33 421.64 176.48 415.96 173.18 416.22 173.02 421.9 176.33"/><polyline class="cls-124" points="422.41 176.04 422.15 176.19 416.46 172.88 416.72 172.73 422.41 176.04"/><polyline class="cls-124" points="422.91 175.75 422.66 175.9 416.97 172.59 417.23 172.44 422.91 175.75"/><polyline class="cls-124" points="423.42 175.46 423.16 175.61 417.47 172.3 417.73 172.15 423.42 175.46"/><polyline class="cls-124" points="423.93 175.16 423.66 175.31 417.98 172.01 418.24 171.86 423.93 175.16"/><polyline class="cls-124" points="424.43 174.87 424.17 175.02 418.48 171.72 418.74 171.57 424.43 174.87"/><polyline class="cls-124" points="424.93 174.58 424.67 174.73 418.99 171.43 419.25 171.28 424.93 174.58"/><polyline class="cls-124" points="425.44 174.29 425.18 174.44 419.49 171.13 419.75 170.98 425.44 174.29"/><polyline class="cls-124" points="425.94 174 425.68 174.15 420 170.84 420.26 170.69 425.94 174"/><polyline class="cls-124" points="426.45 173.71 426.19 173.86 420.5 170.55 420.76 170.4 426.45 173.71"/><polyline class="cls-124" points="426.95 173.42 426.69 173.57 421 170.26 421.26 170.11 426.95 173.42"/><polyline class="cls-124" points="427.46 173.12 427.2 173.27 421.51 169.97 421.77 169.82 427.46 173.12"/><polyline class="cls-124" points="427.96 172.83 427.7 172.98 422.01 169.68 422.28 169.53 427.96 172.83"/><polyline class="cls-124" points="428.47 172.54 428.21 172.69 422.52 169.38 422.78 169.23 428.47 172.54"/><polyline class="cls-124" points="428.97 172.25 428.71 172.4 423.03 169.09 423.29 168.94 428.97 172.25"/><polyline class="cls-124" points="429.48 171.96 429.22 172.11 423.53 168.8 423.79 168.65 429.48 171.96"/><polyline class="cls-124" points="429.99 171.67 429.73 171.82 424.03 168.51 424.3 168.36 429.99 171.67"/><polyline class="cls-124" points="430.49 171.37 430.23 171.52 424.54 168.22 424.8 168.07 430.49 171.37"/><polyline class="cls-124" points="436.55 167.88 436.29 168.03 430.6 164.72 430.86 164.57 436.55 167.88"/><polyline class="cls-124" points="436.05 168.17 435.78 168.32 430.1 165.01 430.36 164.86 436.05 168.17"/><polyline class="cls-124" points="437.05 167.59 436.79 167.74 431.1 164.43 431.37 164.28 437.05 167.59"/><polyline class="cls-124" points="437.56 167.29 437.3 167.44 431.61 164.14 431.87 163.99 437.56 167.29"/><polyline class="cls-124" points="417.31 176.18 416.68 176.54 409.56 172.41 410.2 172.04 417.31 176.18"/></g><polygon class="cls-125" points="407.92 159.24 409.03 158.52 409.05 158.52 418.46 156.44 419.68 156.18 419.88 157.08 418.66 157.35 409.25 159.42 409.23 159.43 407.92 159.24"/><polygon class="cls-126" points="418.59 156.42 418.59 156.42 418.73 156.38 418.75 156.38 418.95 157.29 418.93 157.29 418.79 157.32 418.79 157.32 418.59 156.42"/><polygon class="cls-126" points="409.06 158.51 409.06 158.51 409.21 158.48 409.23 158.48 409.43 159.38 409.41 159.39 409.26 159.42 409.26 159.42 409.06 158.51"/><path class="cls-127" d="M425.78,157.21l-.16.34-.24-.14h0a.18.18,0,0,1-.09-.08c-.05-.24.89-.65,2.1-.92s2.24-.29,2.29,0c0,0,0,.1-.08.16a5.22,5.22,0,0,0-2.15.15A8.62,8.62,0,0,0,425.78,157.21Z" transform="translate(-10.83)"/><path class="cls-128" d="M393.4,150.2a11,11,0,0,0-5.44,1.29,2.83,2.83,0,0,0,0,5.43,12.12,12.12,0,0,0,10.88,0,2.83,2.83,0,0,0,0-5.43,11.05,11.05,0,0,0-5.44-1.29" transform="translate(-10.83)"/><path class="cls-7" d="M386,147h0l1.83,7.37h0a3.12,3.12,0,0,0,1.56,1.81,8.73,8.73,0,0,0,7.93,0,3.1,3.1,0,0,0,1.57-1.81h0l1.83-7.37h0c.37-1.34-.31-2.76-2.07-3.78a11.67,11.67,0,0,0-10.58,0c-1.76,1-2.44,2.44-2.07,3.78h0Z" transform="translate(-10.83)"/><path class="cls-126" d="M386,147a4.19,4.19,0,0,0,2.07,2.37,11.65,11.65,0,0,0,10.58,0,4.17,4.17,0,0,0,2.07-2.36h0l-1.83,7.37h0a3.1,3.1,0,0,1-1.57,1.81,8.73,8.73,0,0,1-7.93,0,3.12,3.12,0,0,1-1.56-1.81h0L386,147h0Z" transform="translate(-10.83)"/><path class="cls-129" d="M393.4,142.62a10,10,0,0,0-4.93,1.17,2.56,2.56,0,0,0,0,4.91,9.93,9.93,0,0,0,4.93,1.18,10,10,0,0,0,4.93-1.17,2.57,2.57,0,0,0,0-4.92,10,10,0,0,0-4.93-1.17" transform="translate(-10.83)"/><path class="cls-129" d="M393.4,142.62a10,10,0,0,0-4.93,1.17,2.56,2.56,0,0,0,0,4.91,9.93,9.93,0,0,0,4.93,1.18,10,10,0,0,0,4.93-1.17,2.57,2.57,0,0,0,0-4.92,10,10,0,0,0-4.93-1.17" transform="translate(-10.83)"/><path class="cls-130" d="M398.33,145.41a9.93,9.93,0,0,0-4.93-1.17h0a9.93,9.93,0,0,0-4.93,1.17,3.79,3.79,0,0,0-1.64,1.64,1.91,1.91,0,0,1-.19-.8,3.1,3.1,0,0,1,1.83-2.46,10,10,0,0,1,4.93-1.17h0a10,10,0,0,1,4.93,1.17,3.07,3.07,0,0,1,1.82,2.46,2,2,0,0,1-.18.81A3.75,3.75,0,0,0,398.33,145.41Z" transform="translate(-10.83)"/><path class="cls-126" d="M398.33,145.41a9.93,9.93,0,0,0-4.93-1.17h0a9.93,9.93,0,0,0-4.93,1.17,3.79,3.79,0,0,0-1.64,1.64,1.91,1.91,0,0,1-.19-.8,3.1,3.1,0,0,1,1.83-2.46,10,10,0,0,1,4.93-1.17h0a10,10,0,0,1,4.93,1.17,3.07,3.07,0,0,1,1.82,2.46,2,2,0,0,1-.18.81A3.75,3.75,0,0,0,398.33,145.41Z" transform="translate(-10.83)"/><path class="cls-131" d="M391.73,146.06a2.79,2.79,0,0,0,2.53,0,.88.88,0,0,0,.51-.73c0-1.67,0-9-.66-14-.13-1.08-.61-4.57-1.28-4.18-.89.53-1.65,10.08-1.65,18.19a.89.89,0,0,0,.55.74" transform="translate(-10.83)"/><path class="cls-132" d="M394.05,147.77a2.81,2.81,0,0,0,2.54,0,.89.89,0,0,0,.51-.73c0-1.67-.06-9-.66-14-.13-1.08-.62-4.57-1.29-4.18-.89.53-1.64,10.08-1.64,18.19a.92.92,0,0,0,.54.75" transform="translate(-10.83)"/><path class="cls-133" d="M389.85,147.25a1.72,1.72,0,0,0,1.56,0,.53.53,0,0,0,.31-.45c0-1,0-5.54-.41-8.6-.08-.66-.38-2.81-.79-2.57s-1,6.2-1,11.18a.55.55,0,0,0,.34.46" transform="translate(-10.83)"/></g></g></svg>