<svg xmlns="http://www.w3.org/2000/svg" xmlns:xlink="http://www.w3.org/1999/xlink" viewBox="0 0 484.31 429.94"><defs><style>.cls-1,.cls-136{fill:none;}.cls-133,.cls-2{isolation:isolate;}.cls-3{clip-path:url(#clip-path);}.cls-4{fill:#dcddde;}.cls-5{clip-path:url(#clip-path-2);}.cls-6{fill:#f5f5f5;}.cls-10,.cls-13,.cls-16,.cls-7,.cls-9{fill:#fff;}.cls-11,.cls-12,.cls-7{opacity:0.2;}.cls-11,.cls-8{fill:#2b90ff;}.cls-14,.cls-9{opacity:0.5;}.cls-13{opacity:0.6;}.cls-15{clip-path:url(#clip-path-3);}.cls-16{opacity:0.3;}.cls-17{clip-path:url(#clip-path-4);}.cls-18{clip-path:url(#clip-path-5);}.cls-19{fill:#9bcaff;}.cls-20{fill:#9ccbff;}.cls-21{fill:#9dcbff;}.cls-22{fill:#a1ceff;}.cls-23{fill:#a8d1ff;}.cls-24{fill:#9ac9ff;}.cls-25{fill:#99c9ff;}.cls-26{fill:#98c8ff;}.cls-27{fill:#97c7ff;}.cls-28{fill:#96c7ff;}.cls-29{fill:#95c6ff;}.cls-30{fill:#94c5ff;}.cls-31{fill:#93c5ff;}.cls-32{fill:#92c4ff;}.cls-33{fill:#91c3ff;}.cls-34{fill:#8fc3ff;}.cls-35{fill:#8ec2ff;}.cls-36{fill:#8dc2ff;}.cls-37{fill:#8cc1ff;}.cls-38{fill:#8bc0ff;}.cls-39{fill:#8ac0ff;}.cls-40{fill:#89bfff;}.cls-41{fill:#88beff;}.cls-42{fill:#87beff;}.cls-43{fill:#86bdff;}.cls-44{fill:#85bcff;}.cls-45{fill:#84bcff;}.cls-46{fill:#83bbff;}.cls-47{fill:#82baff;}.cls-48{fill:#81baff;}.cls-49{fill:#80b9ff;}.cls-50{fill:#7fb8ff;}.cls-51{fill:#7eb8ff;}.cls-52{fill:#7db7ff;}.cls-53{fill:#7cb6ff;}.cls-54{fill:#7bb6ff;}.cls-55{fill:#7ab5ff;}.cls-56{fill:#79b4ff;}.cls-57{fill:#78b4ff;}.cls-58{fill:#76b3ff;}.cls-59{fill:#75b2ff;}.cls-60{fill:#74b2ff;}.cls-61{fill:#73b1ff;}.cls-62{fill:#72b0ff;}.cls-63{fill:#71b0ff;}.cls-64{fill:#70afff;}.cls-65{fill:#6faeff;}.cls-66{fill:#6eaeff;}.cls-67{fill:#6dadff;}.cls-68{fill:#6cacff;}.cls-69{fill:#6bacff;}.cls-70{fill:#6aabff;}.cls-71{fill:#69aaff;}.cls-72{fill:#68aaff;}.cls-73{fill:#67a9ff;}.cls-74{fill:#66a8ff;}.cls-75{fill:#65a8ff;}.cls-76{fill:#64a7ff;}.cls-77{fill:#63a6ff;}.cls-78{fill:#62a6ff;}.cls-79{fill:#61a5ff;}.cls-80{fill:#60a4ff;}.cls-81{fill:#5ea4ff;}.cls-82{fill:#5da3ff;}.cls-83{fill:#5ca2ff;}.cls-84{fill:#5ba2ff;}.cls-85{fill:#5aa1ff;}.cls-86{fill:#59a1ff;}.cls-87{fill:#58a0ff;}.cls-88{fill:#579fff;}.cls-89{fill:#569fff;}.cls-90{fill:#559eff;}.cls-91{fill:#549dff;}.cls-92{fill:#539dff;}.cls-93{fill:#529cff;}.cls-94{fill:#519bff;}.cls-95{fill:#509bff;}.cls-96{fill:#4f9aff;}.cls-97{fill:#4e99ff;}.cls-98{fill:#4d99ff;}.cls-99{fill:#4c98ff;}.cls-100{fill:#4b97ff;}.cls-101{fill:#4a97ff;}.cls-102{fill:#4996ff;}.cls-103{fill:#4895ff;}.cls-104{fill:#4695ff;}.cls-105{fill:#4594ff;}.cls-106{fill:#4493ff;}.cls-107{fill:#66a9ff;}.cls-108{clip-path:url(#clip-path-6);}.cls-109{clip-path:url(#clip-path-7);}.cls-110{fill:#4393ff;}.cls-111{fill:#4292ff;}.cls-112{fill:#4191ff;}.cls-113{fill:#4091ff;}.cls-114{clip-path:url(#clip-path-8);}.cls-115{clip-path:url(#clip-path-9);}.cls-116{fill:#4795ff;}.cls-117{fill:#d8d8d8;}.cls-118{fill:#ffdfca;}.cls-119{fill:#444549;}.cls-120{fill:#9b9b9b;}.cls-121{fill:#424242;}.cls-122{fill:#f39f00;}.cls-123{fill:#303030;}.cls-124{fill:#081b2f;}.cls-125{fill:#ffcfae;}.cls-126{fill:#10355d;}.cls-127{opacity:0.1;}.cls-128{fill:#08253f;}.cls-129{fill:#eab896;}.cls-130{fill:#3a2416;opacity:0.08;}.cls-131{fill:#dbdbdb;}.cls-132{clip-path:url(#clip-path-10);}.cls-133{opacity:0.08;}.cls-134{fill:#6b373e;}.cls-135{fill:#9eccff;}.cls-136{stroke:#fff;stroke-miterlimit:10;stroke-width:0.83px;}</style><clipPath id="clip-path" transform="translate(-10.82)"><polygon class="cls-1" points="0 289.68 252.15 143.14 505.96 289.67 253.8 436.21 0 289.68"/></clipPath><clipPath id="clip-path-2" transform="translate(-10.82)"><polygon class="cls-1" points="0 283.68 252.15 137.14 505.95 283.68 253.81 430.21 0 283.68"/></clipPath><clipPath id="clip-path-3" transform="translate(-10.82)"><polygon class="cls-1" points="380.3 57.21 380.31 57.21 380.3 225.1 279.61 168.47 279.61 0.58 380.3 57.21"/></clipPath><clipPath id="clip-path-4" transform="translate(-10.82)"><polygon class="cls-1" points="481.03 113.93 481.04 113.94 481.03 281.83 380.34 225.2 380.34 57.3 481.03 113.93"/></clipPath><clipPath id="clip-path-5" transform="translate(-10.82)"><path class="cls-1" d="M314,244.66l-55.22,32.08c-5.34,3.11-14.16,1.31-25.16-5-15.87-9.17-29.86-26.57-41.4-45.93l55.22-32.09c11.53,19.37,25.52,36.76,41.4,45.93C299.78,246,308.6,247.76,314,244.66Z"/></clipPath><clipPath id="clip-path-6" transform="translate(-10.82)"><path class="cls-1" d="M308,146.37l-55.21,32.09c-6.31,3.66-18.37,1.08-39-10.83L269,135.54C289.6,147.46,301.66,150,308,146.37Z"/></clipPath><clipPath id="clip-path-7" transform="translate(-10.82)"><path class="cls-1" d="M349.25,292,294,324.12c8.87-5.16,14.22-15.61,14.26-32,.08-28.12-15.71-55-37.56-74.78L326,185.24C347.81,205,363.6,231.91,363.52,260,363.47,276.43,358.13,286.87,349.25,292Z"/></clipPath><clipPath id="clip-path-8" transform="translate(-10.82)"><path class="cls-1" d="M177.76,82,233,49.93c17.47-7.13,36.54-6.78,59.57,6.51L237.32,88.53C214.29,75.24,195.23,74.88,177.76,82Z"/></clipPath><clipPath id="clip-path-9" transform="translate(-10.82)"><path class="cls-1" d="M345.8,180.62,290.59,212.7c7.71-4.48,11.8-13.33,11.84-26.82.11-38.23-25.81-74.66-65.11-97.35l55.22-32.09c39.3,22.7,65.21,59.12,65.1,97.35C357.6,167.29,353.51,176.14,345.8,180.62Z"/></clipPath><clipPath id="clip-path-10" transform="translate(-10.82)"><polygon class="cls-1" points="72.8 207.29 72.79 204.47 79.75 200.45 79.76 203.27 72.8 207.29"/></clipPath></defs><title>Number 3</title><g id="Layer_2" data-name="Layer 2"><g id="Layer_1-2" data-name="Layer 1"><g class="cls-2"><g class="cls-3"><path class="cls-4" d="M487.42,279,270.69,153.85c-10.24-5.92-26.78-5.92-37,0L18.42,279c-10.17,5.91-10.12,15.5.12,21.41L235.26,425.5c10.24,5.92,26.79,5.92,37,0L487.54,300.38c10.17-5.91,10.12-15.5-.12-21.41" transform="translate(-10.82)"/></g></g><g class="cls-2"><g class="cls-5"><path class="cls-6" d="M487.41,273,270.69,147.85c-10.24-5.91-26.79-5.91-37,0L18.42,273c-10.17,5.91-10.12,15.5.12,21.41L235.27,419.5c10.24,5.92,26.78,5.92,37,0l215.3-125.12c10.18-5.91,10.12-15.49-.12-21.41" transform="translate(-10.82)"/></g></g><polygon class="cls-7" points="269.85 167.89 370.57 224.52 370.57 224.53 369.53 225.1 268.85 168.48 269.85 167.89"/><polygon class="cls-8" points="305.49 188.64 304.49 189.22 304.49 20.63 304.49 20.63 305.49 20.05 305.49 188.64"/><polygon class="cls-9" points="305.49 188.64 304.49 189.22 304.49 20.63 304.49 20.63 305.49 20.05 305.49 188.64"/><polygon class="cls-8" points="269.8 167.9 268.81 168.47 268.81 0.58 268.81 0.58 269.8 0 269.8 167.9"/><polygon class="cls-9" points="269.8 167.9 268.81 168.47 268.81 0.58 268.81 0.58 269.8 0 269.8 167.9"/><polygon class="cls-10" points="369.47 225.11 268.79 168.47 369.47 225.1 369.47 225.11"/><polyline class="cls-11" points="268.78 0.58 269.79 0.09 370.48 56.81 370.48 56.81 370.48 224.62 369.48 225.15 268.78 168.47 268.78 0.45"/><polygon class="cls-12" points="370.49 224.53 369.49 225.1 369.49 57.21 369.49 57.21 370.48 56.63 370.49 224.53"/><polygon class="cls-10" points="269.8 0 370.48 56.63 370.48 56.63 369.49 57.21 268.81 0.58 269.8 0"/><polygon class="cls-8" points="268.81 0.58 269.8 0 370.48 56.63 370.48 56.63 370.49 224.53 369.49 225.1 369.49 57.21 369.49 57.21 268.81 0.58"/><polygon class="cls-7" points="370.49 224.53 369.49 225.1 369.49 57.21 369.49 57.21 370.48 56.63 370.49 224.53"/><polygon class="cls-13" points="269.8 0 370.48 56.63 370.48 56.63 369.49 57.21 268.81 0.58 269.8 0"/><g class="cls-14"><g class="cls-15"><polygon class="cls-16" points="343.97 35.73 292.55 195.54 304.28 205.43 361.75 48.3 343.97 35.73"/><polygon class="cls-16" points="335.75 30.02 286.7 188.05 290.82 192.76 341.49 33.32 335.75 30.02"/><polygon class="cls-16" points="360.43 45.15 311.47 203.19 311.47 205.51 362.09 51.55 360.43 45.15"/></g></g><polygon class="cls-7" points="370.58 224.62 471.3 281.25 471.3 281.25 470.26 281.83 369.58 225.2 370.58 224.62"/><polygon class="cls-8" points="406.22 245.36 405.23 245.94 405.23 77.36 405.22 77.35 406.22 76.77 406.22 245.36"/><polygon class="cls-9" points="406.22 245.36 405.23 245.94 405.23 77.36 405.22 77.35 406.22 76.77 406.22 245.36"/><polygon class="cls-8" points="370.54 224.62 369.54 225.2 369.54 57.3 369.54 57.3 370.53 56.72 370.54 224.62"/><polygon class="cls-9" points="370.54 224.62 369.54 225.2 369.54 57.3 369.54 57.3 370.53 56.72 370.54 224.62"/><polygon class="cls-10" points="470.2 281.83 369.52 225.2 470.2 281.83 470.2 281.83"/><polyline class="cls-11" points="369.51 57.3 370.52 56.81 471.21 113.54 471.21 113.54 471.22 281.34 470.21 281.87 369.51 225.2 369.51 57.17"/><polygon class="cls-12" points="471.22 281.25 470.22 281.83 470.22 113.94 470.22 113.93 471.21 113.35 471.22 281.25"/><polygon class="cls-10" points="370.53 56.72 471.21 113.35 471.21 113.35 470.22 113.93 369.54 57.3 370.53 56.72"/><polygon class="cls-8" points="369.54 57.3 370.53 56.72 471.21 113.35 471.21 113.35 471.22 281.25 470.22 281.83 470.22 113.94 470.22 113.93 369.54 57.3"/><polygon class="cls-7" points="471.22 281.25 470.22 281.83 470.22 113.94 470.22 113.93 471.21 113.35 471.22 281.25"/><polygon class="cls-13" points="370.53 56.72 471.21 113.35 471.21 113.35 470.22 113.93 369.54 57.3 370.53 56.72"/><g class="cls-14"><g class="cls-17"><polygon class="cls-16" points="444.7 92.45 393.28 252.26 405.01 262.15 462.48 105.03 444.7 92.45"/><polygon class="cls-16" points="436.48 86.74 387.43 244.78 391.55 249.48 442.22 90.04 436.48 86.74"/><polygon class="cls-16" points="461.16 101.88 412.2 259.91 412.2 262.23 462.82 108.27 461.16 101.88"/></g></g><g class="cls-2"><g class="cls-2"><g class="cls-18"><g class="cls-2"><path class="cls-19" d="M192.17,225.77l55.22-32.09.39.66-55.21,32.09c-.14-.22-.27-.44-.4-.66" transform="translate(-10.82)"/><path class="cls-20" d="M192.57,226.43l55.21-32.09c.56.93,1.12,1.85,1.69,2.77l-55.22,32.08c-.57-.91-1.13-1.84-1.68-2.76" transform="translate(-10.82)"/><path class="cls-21" d="M194.25,229.19l55.22-32.08c.64,1,1.28,2.06,1.94,3.08l-55.22,32.09c-.65-1-1.3-2.05-1.94-3.09" transform="translate(-10.82)"/><path class="cls-22" d="M196.19,232.28l55.22-32.09c.84,1.32,1.7,2.62,2.56,3.9l-55.21,32.09c-.87-1.29-1.72-2.59-2.57-3.9" transform="translate(-10.82)"/><path class="cls-23" d="M198.76,236.18,254,204.09c2.89,4.28,5.9,8.4,9,12.27l-55.22,32.08c-3.13-3.87-6.14-8-9-12.26" transform="translate(-10.82)"/><path class="cls-22" d="M207.78,248.44,263,216.36c.9,1.11,1.82,2.21,2.74,3.29l-55.21,32.08c-.93-1.07-1.84-2.17-2.75-3.29" transform="translate(-10.82)"/><path class="cls-21" d="M210.53,251.73l55.21-32.08c.69.8,1.39,1.58,2.09,2.36L212.61,254.1c-.7-.78-1.39-1.57-2.08-2.37" transform="translate(-10.82)"/><path class="cls-20" d="M212.61,254.1,267.83,222c.57.64,1.16,1.27,1.74,1.89L214.36,256c-.59-.62-1.17-1.25-1.75-1.89" transform="translate(-10.82)"/><path class="cls-19" d="M214.36,256l55.21-32.09c.51.55,1,1.08,1.55,1.61L215.91,257.6c-.52-.53-1-1.07-1.55-1.61" transform="translate(-10.82)"/><path class="cls-24" d="M215.91,257.6l55.21-32.09c.46.47.91.93,1.37,1.38L217.28,259c-.46-.45-.92-.91-1.37-1.38" transform="translate(-10.82)"/><path class="cls-25" d="M217.28,259l55.21-32.09c.41.4.81.8,1.22,1.18L218.5,260.16c-.41-.39-.82-.78-1.22-1.18" transform="translate(-10.82)"/><path class="cls-26" d="M218.5,260.16l55.21-32.09c.39.38.78.74,1.17,1.1l-55.22,32.09-1.16-1.1" transform="translate(-10.82)"/><path class="cls-27" d="M219.66,261.26l55.22-32.09,1,.93-55.21,32.08-1-.92" transform="translate(-10.82)"/><path class="cls-28" d="M220.68,262.18l55.21-32.08,1,.88-55.22,32.09-1-.89" transform="translate(-10.82)"/><path class="cls-29" d="M221.67,263.07,276.89,231l.91.79-55.21,32.08c-.31-.25-.61-.52-.92-.78" transform="translate(-10.82)"/><path class="cls-30" d="M222.59,263.85l55.21-32.08.87.73-55.22,32.08c-.29-.24-.58-.48-.86-.73" transform="translate(-10.82)"/><path class="cls-31" d="M223.45,264.58l55.22-32.08.86.7-55.21,32.09-.87-.71" transform="translate(-10.82)"/><path class="cls-32" d="M224.32,265.29l55.21-32.09.77.61L225.08,265.9l-.76-.61" transform="translate(-10.82)"/><path class="cls-33" d="M225.08,265.9l55.22-32.09.76.6L225.85,266.5l-.77-.6" transform="translate(-10.82)"/><path class="cls-34" d="M225.85,266.5l55.21-32.09.77.58-55.22,32.09-.76-.58" transform="translate(-10.82)"/><path class="cls-35" d="M226.61,267.08,281.83,235l.68.51L227.3,267.59l-.69-.51" transform="translate(-10.82)"/><path class="cls-36" d="M227.3,267.59l55.21-32.09.7.5L228,268.09l-.69-.5" transform="translate(-10.82)"/><path class="cls-37" d="M228,268.09,283.21,236l.69.49-55.21,32.09-.7-.49" transform="translate(-10.82)"/><path class="cls-38" d="M228.69,268.58l55.21-32.09.65.45L229.34,269l-.65-.45" transform="translate(-10.82)"/><path class="cls-39" d="M229.34,269l55.21-32.09.63.43L230,269.46l-.63-.43" transform="translate(-10.82)"/><path class="cls-40" d="M230,269.46l55.21-32.09.64.42-55.21,32.09-.64-.42" transform="translate(-10.82)"/><path class="cls-41" d="M230.61,269.88l55.21-32.09.64.41-55.22,32.08-.63-.4" transform="translate(-10.82)"/><path class="cls-42" d="M231.24,270.28l55.22-32.08.59.37-55.21,32.09-.6-.38" transform="translate(-10.82)"/><path class="cls-43" d="M231.84,270.66l55.21-32.09.6.36L232.43,271l-.59-.36" transform="translate(-10.82)"/><path class="cls-44" d="M232.43,271l55.22-32.09.59.36L233,271.38l-.6-.36" transform="translate(-10.82)"/><path class="cls-45" d="M233,271.38l55.21-32.09.55.32.07,0-55.22,32.09-.07,0-.54-.32" transform="translate(-10.82)"/><path class="cls-46" d="M233.64,271.74l55.22-32.09.74.42-55.21,32.09-.75-.42" transform="translate(-10.82)"/><path class="cls-47" d="M234.39,272.16l55.21-32.09.74.41-55.21,32.09-.74-.41" transform="translate(-10.82)"/><path class="cls-48" d="M235.13,272.57l55.21-32.09.74.4L235.86,273l-.73-.4" transform="translate(-10.82)"/><path class="cls-49" d="M235.86,273l55.22-32.09.7.37-55.22,32.09-.7-.37" transform="translate(-10.82)"/><path class="cls-50" d="M236.56,273.34l55.22-32.09.65.34-55.22,32.08-.65-.33" transform="translate(-10.82)"/><path class="cls-51" d="M237.21,273.67l55.22-32.08.65.32L237.86,274l-.65-.33" transform="translate(-10.82)"/><path class="cls-52" d="M237.86,274l55.22-32.09.64.31L238.5,274.31l-.64-.31" transform="translate(-10.82)"/><path class="cls-53" d="M238.5,274.31l55.22-32.09.61.29L239.12,274.6l-.62-.29" transform="translate(-10.82)"/><path class="cls-54" d="M239.12,274.6l55.21-32.09.58.27-55.22,32.08-.57-.26" transform="translate(-10.82)"/><path class="cls-55" d="M239.69,274.86l55.22-32.08.57.25-55.22,32.09-.57-.26" transform="translate(-10.82)"/><path class="cls-56" d="M240.26,275.12,295.48,243l.56.25-55.21,32.08-.57-.24" transform="translate(-10.82)"/><path class="cls-57" d="M240.83,275.36,296,243.28l.56.23L241.38,275.6l-.55-.24" transform="translate(-10.82)"/><path class="cls-58" d="M241.38,275.6l55.22-32.09.51.21L241.9,275.8l-.52-.2" transform="translate(-10.82)"/><path class="cls-59" d="M241.9,275.8l55.21-32.08.5.2L242.4,276l-.5-.2" transform="translate(-10.82)"/><path class="cls-60" d="M242.4,276l55.21-32.08.5.19L242.9,276.19l-.5-.19" transform="translate(-10.82)"/><path class="cls-61" d="M242.9,276.19l55.21-32.08.5.18-55.22,32.08-.49-.18" transform="translate(-10.82)"/><path class="cls-62" d="M243.39,276.37l55.22-32.08.49.17-55.22,32.09-.49-.18" transform="translate(-10.82)"/><path class="cls-63" d="M243.88,276.55l55.22-32.09.44.15L244.33,276.7l-.45-.15" transform="translate(-10.82)"/><path class="cls-64" d="M244.33,276.7l55.21-32.09.45.15-55.21,32.08-.45-.14" transform="translate(-10.82)"/><path class="cls-65" d="M244.78,276.84,300,244.76l.44.14L245.22,277l-.44-.14" transform="translate(-10.82)"/><path class="cls-66" d="M245.22,277l55.21-32.08.44.13-55.22,32.08-.43-.13" transform="translate(-10.82)"/><path class="cls-67" d="M245.65,277.11,300.87,245l.43.12-55.21,32.09-.44-.13" transform="translate(-10.82)"/><path class="cls-68" d="M246.09,277.24l55.21-32.09.41.11-55.22,32.09-.4-.11" transform="translate(-10.82)"/><path class="cls-69" d="M246.49,277.35l55.22-32.09.4.1-55.22,32.09-.4-.1" transform="translate(-10.82)"/><path class="cls-70" d="M246.89,277.45l55.22-32.09.39.1-55.21,32.09-.4-.1" transform="translate(-10.82)"/><path class="cls-71" d="M247.29,277.55l55.21-32.09.39.09-55.21,32.09-.39-.09" transform="translate(-10.82)"/><path class="cls-72" d="M247.68,277.64l55.21-32.09.39.08-55.22,32.09-.38-.08" transform="translate(-10.82)"/><path class="cls-73" d="M248.06,277.72l55.22-32.09.38.08L248.44,277.8l-.38-.08" transform="translate(-10.82)"/><path class="cls-74" d="M248.44,277.8l55.22-32.09.36.07L248.8,277.87l-.36-.07" transform="translate(-10.82)"/><path class="cls-75" d="M248.8,277.87,304,245.78l.35.06-55.21,32.09-.36-.06" transform="translate(-10.82)"/><path class="cls-76" d="M249.16,277.93l55.21-32.09.36.06L249.51,278l-.35-.05" transform="translate(-10.82)"/><path class="cls-77" d="M249.51,278l55.22-32.08.35,0L249.87,278l-.36-.06" transform="translate(-10.82)"/><path class="cls-78" d="M249.87,278,305.08,246l.35,0-55.22,32.09-.34,0" transform="translate(-10.82)"/><path class="cls-79" d="M250.21,278.08,305.43,246l.34,0-55.22,32.09-.34,0" transform="translate(-10.82)"/><path class="cls-80" d="M250.55,278.12,305.77,246l.33,0-55.22,32.09-.33,0" transform="translate(-10.82)"/><path class="cls-81" d="M250.88,278.15l55.22-32.09.33,0-55.22,32.09-.33,0" transform="translate(-10.82)"/><path class="cls-82" d="M251.21,278.18l55.22-32.09.32,0L251.54,278.2l-.33,0" transform="translate(-10.82)"/><path class="cls-83" d="M251.54,278.2l55.21-32.09.32,0-55.21,32.08h-.32" transform="translate(-10.82)"/><path class="cls-84" d="M251.86,278.21l55.21-32.08h.32l-55.22,32.08h-.31" transform="translate(-10.82)"/><path class="cls-85" d="M252.17,278.22l55.22-32.08h.31l-55.21,32.09h-.32" transform="translate(-10.82)"/><path class="cls-86" d="M252.49,278.23l55.21-32.09H308L252.8,278.23h-.31" transform="translate(-10.82)"/><path class="cls-87" d="M252.8,278.23,308,246.14h.31l-55.21,32.09h-.31" transform="translate(-10.82)"/><path class="cls-88" d="M253.11,278.22l55.21-32.09h.3l-55.21,32.09h-.3" transform="translate(-10.82)"/><path class="cls-89" d="M253.41,278.21l55.21-32.09.3,0-55.21,32.09-.3,0" transform="translate(-10.82)"/><path class="cls-90" d="M253.71,278.19l55.21-32.09.3,0L254,278.17l-.3,0" transform="translate(-10.82)"/><path class="cls-91" d="M254,278.17l55.21-32.09.3,0L254.3,278.14l-.29,0" transform="translate(-10.82)"/><path class="cls-92" d="M254.3,278.14l55.22-32.09.3,0L254.61,278.1l-.31,0" transform="translate(-10.82)"/><path class="cls-93" d="M254.61,278.1,309.82,246l.3,0-55.21,32.09-.3,0" transform="translate(-10.82)"/><path class="cls-94" d="M254.91,278.06,310.12,246l.29-.05L255.2,278l-.29.05" transform="translate(-10.82)"/><path class="cls-95" d="M255.2,278l55.21-32.09.29-.06L255.49,278l-.29.06" transform="translate(-10.82)"/><path class="cls-96" d="M255.49,278l55.21-32.09.29-.06-55.21,32.09-.29.06" transform="translate(-10.82)"/><path class="cls-97" d="M255.78,277.89,311,245.8l.3-.07-55.21,32.09-.3.07" transform="translate(-10.82)"/><path class="cls-98" d="M256.08,277.82l55.21-32.09.31-.09-55.21,32.09-.31.09" transform="translate(-10.82)"/><path class="cls-99" d="M256.39,277.73l55.21-32.09.3-.09-55.21,32.09-.3.09" transform="translate(-10.82)"/><path class="cls-100" d="M256.69,277.64l55.21-32.09.3-.1L257,277.54l-.3.1" transform="translate(-10.82)"/><path class="cls-101" d="M257,277.54l55.21-32.09.3-.1-55.22,32.08-.29.11" transform="translate(-10.82)"/><path class="cls-102" d="M257.28,277.43l55.22-32.08.31-.13L257.6,277.31l-.32.12" transform="translate(-10.82)"/><path class="cls-103" d="M257.6,277.31l55.21-32.09.35-.15-55.22,32.08-.34.16" transform="translate(-10.82)"/><path class="cls-104" d="M257.94,277.15l55.22-32.08.33-.17L258.28,277l-.34.16" transform="translate(-10.82)"/><path class="cls-105" d="M258.28,277l55.21-32.09.33-.17-55.21,32.08-.33.18" transform="translate(-10.82)"/><path class="cls-106" d="M258.61,276.81l55.21-32.08.13-.07-55.22,32.08-.12.07" transform="translate(-10.82)"/></g></g></g><polygon class="cls-107" points="259.92 215.95 315.13 183.87 315.13 185.24 259.92 217.33 259.92 215.95"/><g class="cls-2"><g class="cls-108"><g class="cls-2"><path class="cls-45" d="M213.75,167.63,269,135.54l.18.11-55.21,32.08-.18-.1" transform="translate(-10.82)"/><path class="cls-46" d="M213.93,167.73l55.21-32.08,1.91,1.09-55.21,32.08c-.63-.35-1.27-.71-1.91-1.09" transform="translate(-10.82)"/><path class="cls-47" d="M215.84,168.82l55.21-32.08,1.87,1L217.7,169.86l-1.86-1" transform="translate(-10.82)"/><path class="cls-48" d="M217.7,169.86l55.22-32.09,1.7.92-55.21,32.09-1.71-.92" transform="translate(-10.82)"/><path class="cls-49" d="M219.41,170.78l55.21-32.09,1.54.81-55.22,32.09c-.5-.26-1-.53-1.53-.81" transform="translate(-10.82)"/><path class="cls-50" d="M220.94,171.59l55.22-32.09c.5.27,1,.52,1.5.77l-55.22,32.09-1.5-.77" transform="translate(-10.82)"/><path class="cls-51" d="M222.44,172.36l55.22-32.09q.69.36,1.38.69l-55.22,32.09-1.38-.69" transform="translate(-10.82)"/><path class="cls-52" d="M223.82,173.05,279,141l1.24.61-55.22,32.09-1.24-.61" transform="translate(-10.82)"/><path class="cls-53" d="M225.06,173.66l55.22-32.09c.41.2.81.39,1.22.57l-55.22,32.09-1.22-.57" transform="translate(-10.82)"/><path class="cls-54" d="M226.28,174.23l55.22-32.09,1.19.55-55.22,32.09-1.19-.55" transform="translate(-10.82)"/><path class="cls-55" d="M227.47,174.78l55.22-32.09,1,.46-55.22,32.08c-.34-.14-.68-.3-1-.45" transform="translate(-10.82)"/><path class="cls-56" d="M228.49,175.23l55.22-32.08,1,.43-55.21,32.08-1-.43" transform="translate(-10.82)"/><path class="cls-57" d="M229.49,175.66l55.21-32.08,1,.41-55.21,32.08-1-.41" transform="translate(-10.82)"/><path class="cls-58" d="M230.46,176.07,285.67,144l1,.38-55.22,32.09-.95-.39" transform="translate(-10.82)"/><path class="cls-59" d="M231.41,176.46l55.22-32.09.82.33-55.21,32.09-.83-.33" transform="translate(-10.82)"/><path class="cls-60" d="M232.24,176.79l55.21-32.09.81.3L233,177.09l-.8-.3" transform="translate(-10.82)"/><path class="cls-61" d="M233,177.09,288.26,145l.79.29-55.22,32.09-.79-.29" transform="translate(-10.82)"/><path class="cls-62" d="M233.83,177.38l55.22-32.09.77.28-55.21,32.09-.78-.28" transform="translate(-10.82)"/><path class="cls-63" d="M234.61,177.66l55.21-32.09.73.25L235.33,177.9l-.72-.24" transform="translate(-10.82)"/><path class="cls-64" d="M235.33,177.9l55.22-32.08.66.21L236,178.12l-.66-.22" transform="translate(-10.82)"/><path class="cls-65" d="M236,178.12,291.21,146l.64.2-55.21,32.09-.65-.2" transform="translate(-10.82)"/><path class="cls-66" d="M236.64,178.32l55.21-32.09.64.2-55.21,32.08-.64-.19" transform="translate(-10.82)"/><path class="cls-67" d="M237.28,178.51l55.21-32.08.63.17L237.9,178.69l-.62-.18" transform="translate(-10.82)"/><path class="cls-68" d="M237.9,178.69l55.22-32.09.6.17-55.21,32.09-.61-.17" transform="translate(-10.82)"/><path class="cls-69" d="M238.51,178.86l55.21-32.09.54.14L239.05,179l-.54-.14" transform="translate(-10.82)"/><path class="cls-70" d="M239.05,179l55.21-32.09.54.13-55.22,32.09-.53-.13" transform="translate(-10.82)"/><path class="cls-71" d="M239.58,179.13,294.8,147l.52.12-55.21,32.09-.53-.12" transform="translate(-10.82)"/><path class="cls-72" d="M240.11,179.25l55.21-32.09.52.11-55.22,32.09-.51-.11" transform="translate(-10.82)"/><path class="cls-73" d="M240.62,179.36l55.22-32.09.5.11-55.21,32.08-.51-.1" transform="translate(-10.82)"/><path class="cls-74" d="M241.13,179.46l55.21-32.08.49.09-55.22,32.08-.48-.09" transform="translate(-10.82)"/><path class="cls-75" d="M241.61,179.55l55.22-32.08.45.08-55.22,32.08-.45-.08" transform="translate(-10.82)"/><path class="cls-76" d="M242.06,179.63l55.22-32.08.44.07L242.51,179.7l-.45-.07" transform="translate(-10.82)"/><path class="cls-77" d="M242.51,179.7l55.21-32.08.44.06-55.22,32.09-.43-.07" transform="translate(-10.82)"/><path class="cls-78" d="M242.94,179.77l55.22-32.09.42,0-55.21,32.09-.43,0" transform="translate(-10.82)"/><path class="cls-79" d="M243.37,179.82l55.21-32.09.43.05-55.22,32.09-.42-.05" transform="translate(-10.82)"/><path class="cls-80" d="M243.79,179.87,299,147.78l.41,0-55.21,32.09-.42,0" transform="translate(-10.82)"/><path class="cls-81" d="M244.21,179.91l55.21-32.09.39,0-55.22,32.09-.38,0" transform="translate(-10.82)"/><path class="cls-82" d="M244.59,179.94l55.22-32.09.38,0L245,180l-.38,0" transform="translate(-10.82)"/><path class="cls-83" d="M245,180l55.22-32.09.37,0L245.35,180H245" transform="translate(-10.82)"/><path class="cls-84" d="M245.35,180l55.21-32.08h.37L245.72,180l-.37,0" transform="translate(-10.82)"/><path class="cls-85" d="M245.72,180l55.21-32.09h.37L246.08,180h-.36" transform="translate(-10.82)"/><path class="cls-86" d="M246.08,180l55.22-32.09h.35L246.44,180h-.36" transform="translate(-10.82)"/><path class="cls-87" d="M246.44,180l55.21-32.09H302L246.79,180h-.35" transform="translate(-10.82)"/><path class="cls-88" d="M246.79,180,302,147.91l.35,0L247.13,180h-.34" transform="translate(-10.82)"/><path class="cls-89" d="M247.13,180l55.22-32.09.33,0L247.47,180l-.34,0" transform="translate(-10.82)"/><path class="cls-90" d="M247.47,180l55.21-32.09.33,0L247.8,179.93l-.33,0" transform="translate(-10.82)"/><path class="cls-91" d="M247.8,179.93,303,147.84l.33,0L248.13,179.9l-.33,0" transform="translate(-10.82)"/><path class="cls-92" d="M248.13,179.9l55.21-32.09.32,0-55.21,32.09-.32,0" transform="translate(-10.82)"/><path class="cls-93" d="M248.45,179.86l55.21-32.09.32,0-55.22,32.08-.31.05" transform="translate(-10.82)"/><path class="cls-94" d="M248.76,179.81,304,147.73l.32-.06-55.21,32.09-.33.05" transform="translate(-10.82)"/><path class="cls-95" d="M249.09,179.76l55.21-32.09.32-.06L249.41,179.7l-.32.06" transform="translate(-10.82)"/><path class="cls-96" d="M249.41,179.7l55.21-32.09.32-.07-55.21,32.09-.32.07" transform="translate(-10.82)"/><path class="cls-97" d="M249.73,179.63l55.21-32.09.31-.07L250,179.55l-.31.08" transform="translate(-10.82)"/><path class="cls-98" d="M250,179.55l55.21-32.08.31-.09-55.22,32.09-.3.08" transform="translate(-10.82)"/><path class="cls-99" d="M250.34,179.47l55.22-32.09.3-.09-55.22,32.09-.3.09" transform="translate(-10.82)"/><path class="cls-100" d="M250.64,179.38l55.22-32.09.31-.1L251,179.28l-.32.1" transform="translate(-10.82)"/><path class="cls-101" d="M251,179.28l55.21-32.09.34-.13L251.3,179.15l-.34.13" transform="translate(-10.82)"/><path class="cls-102" d="M251.3,179.15l55.21-32.09.34-.13L251.63,179l-.33.13" transform="translate(-10.82)"/><path class="cls-103" d="M251.63,179l55.22-32.09.32-.15L252,178.87l-.33.15" transform="translate(-10.82)"/><path class="cls-104" d="M252,178.87l55.21-32.09.32-.15-55.22,32.09-.31.15" transform="translate(-10.82)"/><path class="cls-105" d="M252.27,178.72l55.22-32.09.32-.17L252.6,178.54l-.33.18" transform="translate(-10.82)"/><path class="cls-106" d="M252.6,178.54l55.21-32.08.15-.09-55.21,32.09-.15.08" transform="translate(-10.82)"/></g></g></g><g class="cls-2"><g class="cls-109"><g class="cls-2"><path class="cls-27" d="M270.74,217.33,326,185.24l1.12,1-55.22,32.08-1.12-1" transform="translate(-10.82)"/><path class="cls-26" d="M271.86,218.35l55.22-32.08,1.53,1.44L273.4,219.8l-1.54-1.45" transform="translate(-10.82)"/><path class="cls-25" d="M273.4,219.8l55.21-32.09c.55.52,1.1,1,1.64,1.59L275,221.38c-.54-.53-1.08-1.06-1.63-1.58" transform="translate(-10.82)"/><path class="cls-24" d="M275,221.38l55.22-32.08c.56.55,1.12,1.12,1.68,1.68l-55.22,32.09c-.55-.57-1.11-1.13-1.68-1.69" transform="translate(-10.82)"/><path class="cls-19" d="M276.71,223.07,331.93,191c.61.63,1.22,1.26,1.82,1.9L278.54,225c-.61-.64-1.21-1.27-1.83-1.9" transform="translate(-10.82)"/><path class="cls-20" d="M278.54,225l55.21-32.09c.63.67,1.26,1.35,1.88,2L280.41,227c-.61-.68-1.24-1.36-1.87-2" transform="translate(-10.82)"/><path class="cls-21" d="M280.41,227l55.22-32.08c.71.79,1.42,1.59,2.11,2.39L282.53,229.4c-.7-.81-1.4-1.61-2.12-2.4" transform="translate(-10.82)"/><path class="cls-22" d="M282.53,229.4l55.21-32.09q1.31,1.51,2.55,3.06l-55.21,32.09q-1.26-1.54-2.55-3.06" transform="translate(-10.82)"/><path class="cls-23" d="M285.08,232.46l55.21-32.09c2.22,2.75,4.33,5.58,6.29,8.48l-55.22,32.09c-2-2.9-4.06-5.74-6.28-8.48" transform="translate(-10.82)"/><path class="cls-22" d="M291.36,240.94l55.22-32.09c.47.71.94,1.41,1.4,2.12l-55.22,32.09c-.46-.71-.92-1.42-1.4-2.12" transform="translate(-10.82)"/><path class="cls-21" d="M292.76,243.06,348,211c.36.56.71,1.13,1.06,1.69l-55.21,32.09c-.35-.57-.71-1.13-1.07-1.69" transform="translate(-10.82)"/><path class="cls-20" d="M293.83,244.75,349,212.66c.27.42.52.85.78,1.27L294.6,246c-.25-.43-.51-.85-.77-1.27" transform="translate(-10.82)"/><path class="cls-19" d="M294.6,246l55.22-32.09c.25.42.51.85.75,1.27l-55.21,32.09c-.25-.43-.5-.85-.76-1.27" transform="translate(-10.82)"/><path class="cls-24" d="M295.36,247.29l55.21-32.09c.22.37.43.74.64,1.11L296,248.39l-.64-1.1" transform="translate(-10.82)"/><path class="cls-25" d="M296,248.39l55.21-32.08c.19.32.37.65.55,1l-55.21,32.09-.55-1" transform="translate(-10.82)"/><path class="cls-26" d="M296.55,249.38l55.21-32.09.54,1-55.21,32.08-.54-1" transform="translate(-10.82)"/><path class="cls-27" d="M297.09,250.36l55.21-32.08c.18.32.36.66.53,1l-55.21,32.08-.53-1" transform="translate(-10.82)"/><path class="cls-28" d="M297.62,251.35l55.21-32.08c.16.29.32.59.47.89l-55.21,32.09-.47-.9" transform="translate(-10.82)"/><path class="cls-29" d="M298.09,252.25l55.21-32.09.44.86-55.21,32.09-.44-.86" transform="translate(-10.82)"/><path class="cls-30" d="M298.53,253.11,353.74,221c.15.29.29.58.43.87L299,254l-.43-.87" transform="translate(-10.82)"/><path class="cls-31" d="M299,254l55.21-32.09.43.87-55.22,32.09c-.14-.3-.28-.58-.42-.87" transform="translate(-10.82)"/><path class="cls-32" d="M299.38,254.85l55.22-32.09c.13.28.26.56.4.84l-55.22,32.09c-.13-.28-.26-.56-.4-.84" transform="translate(-10.82)"/><path class="cls-33" d="M299.78,255.69,355,223.6l.36.79-55.21,32.08c-.12-.26-.24-.52-.37-.78" transform="translate(-10.82)"/><path class="cls-34" d="M300.15,256.47l55.21-32.08.36.78-55.21,32.09-.36-.79" transform="translate(-10.82)"/><path class="cls-35" d="M300.51,257.26l55.21-32.09c.12.27.23.53.35.79l-55.21,32.09c-.12-.26-.24-.53-.35-.79" transform="translate(-10.82)"/><path class="cls-36" d="M300.86,258.05,356.07,226c.12.27.23.53.34.8L301.2,258.84c-.11-.26-.23-.52-.34-.79" transform="translate(-10.82)"/><path class="cls-37" d="M301.2,258.84l55.21-32.08.33.76-55.22,32.09c-.1-.26-.21-.51-.32-.77" transform="translate(-10.82)"/><path class="cls-38" d="M301.52,259.61l55.22-32.09.3.72-55.22,32.09-.3-.72" transform="translate(-10.82)"/><path class="cls-39" d="M301.82,260.33,357,228.24c.09.24.19.48.29.72l-55.22,32.09c-.09-.24-.19-.48-.29-.72" transform="translate(-10.82)"/><path class="cls-40" d="M302.11,261.05,357.33,229l.28.72L302.4,261.77l-.29-.72" transform="translate(-10.82)"/><path class="cls-41" d="M302.4,261.77l55.21-32.09c.1.24.19.49.28.73l-55.21,32.08c-.1-.24-.19-.48-.28-.72" transform="translate(-10.82)"/><path class="cls-42" d="M302.68,262.49l55.21-32.08.27.72L303,263.22l-.27-.73" transform="translate(-10.82)"/><path class="cls-43" d="M303,263.22l55.21-32.09c.09.23.17.45.25.68L303.2,263.89l-.25-.67" transform="translate(-10.82)"/><path class="cls-44" d="M303.2,263.89l55.21-32.08.24.67-55.21,32.08-.24-.67" transform="translate(-10.82)"/><path class="cls-45" d="M303.44,264.56l55.21-32.08.24.67-55.22,32.08c-.08-.22-.15-.44-.23-.67" transform="translate(-10.82)"/><path class="cls-46" d="M303.67,265.23l55.22-32.08.22.67L303.9,265.91c-.07-.23-.15-.45-.23-.68" transform="translate(-10.82)"/><path class="cls-47" d="M303.9,265.91l55.21-32.09c.08.22.15.45.23.67l-55.22,32.09c-.07-.22-.14-.45-.22-.67" transform="translate(-10.82)"/><path class="cls-48" d="M304.12,266.58l55.22-32.09c.07.23.15.45.22.68l-55.22,32.08c-.07-.22-.14-.45-.22-.67" transform="translate(-10.82)"/><path class="cls-49" d="M304.34,267.25l55.22-32.08c.07.21.13.42.2.64l-55.22,32.08c-.06-.21-.13-.42-.2-.64" transform="translate(-10.82)"/><path class="cls-50" d="M304.54,267.89l55.22-32.08c.06.21.13.42.19.63l-55.21,32.09c-.06-.21-.13-.42-.2-.64" transform="translate(-10.82)"/><path class="cls-51" d="M304.74,268.53,360,236.44c.07.22.13.43.2.64l-55.22,32.09-.19-.64" transform="translate(-10.82)"/><path class="cls-52" d="M304.93,269.17l55.22-32.09.18.64-55.21,32.09c-.06-.22-.13-.43-.19-.64" transform="translate(-10.82)"/><path class="cls-53" d="M305.12,269.81l55.21-32.09.18.64L305.3,270.45l-.18-.64" transform="translate(-10.82)"/><path class="cls-54" d="M305.3,270.45l55.21-32.09.18.64-55.22,32.09c-.05-.21-.11-.43-.17-.64" transform="translate(-10.82)"/><path class="cls-55" d="M305.47,271.09,360.69,239c.05.21.11.42.17.63l-55.22,32.09c-.05-.21-.11-.42-.17-.63" transform="translate(-10.82)"/><path class="cls-56" d="M305.64,271.72l55.22-32.09c.05.21.1.42.16.63L305.8,272.35c-.05-.21-.1-.42-.16-.63" transform="translate(-10.82)"/><path class="cls-57" d="M305.8,272.35,361,240.26l.15.63L306,273c0-.21-.1-.41-.16-.62" transform="translate(-10.82)"/><path class="cls-58" d="M306,273l55.21-32.08c.06.2.11.41.16.62L306.11,273.6,306,273" transform="translate(-10.82)"/><path class="cls-59" d="M306.11,273.6l55.22-32.09c.05.21.09.42.14.63l-55.21,32.09-.15-.63" transform="translate(-10.82)"/><path class="cls-60" d="M306.26,274.23l55.21-32.09.15.63L306.4,274.86c0-.21-.09-.42-.14-.63" transform="translate(-10.82)"/><path class="cls-61" d="M306.4,274.86l55.22-32.09c0,.21.09.42.13.63l-55.21,32.09c-.05-.21-.09-.42-.14-.63" transform="translate(-10.82)"/><path class="cls-62" d="M306.54,275.49l55.21-32.09c.05.21.09.42.14.63l-55.22,32.09c0-.21-.09-.42-.13-.63" transform="translate(-10.82)"/><path class="cls-63" d="M306.67,276.12,361.89,244l.12.63L306.8,276.75c0-.21-.09-.42-.13-.63" transform="translate(-10.82)"/><path class="cls-64" d="M306.8,276.75,362,244.66c0,.22.09.43.13.64l-55.22,32.09-.12-.64" transform="translate(-10.82)"/><path class="cls-65" d="M306.92,277.39l55.22-32.09c0,.21.07.42.11.63L307,278l-.12-.63" transform="translate(-10.82)"/><path class="cls-66" d="M307,278l55.21-32.09.12.64-55.22,32.09c0-.22-.07-.43-.11-.64" transform="translate(-10.82)"/><path class="cls-67" d="M307.15,278.66l55.22-32.09c0,.21.07.42.1.63l-55.21,32.09c0-.21-.07-.42-.11-.63" transform="translate(-10.82)"/><path class="cls-68" d="M307.26,279.29l55.21-32.09c0,.22.07.44.11.65l-55.22,32.09c0-.22-.07-.43-.1-.65" transform="translate(-10.82)"/><path class="cls-69" d="M307.36,279.94l55.22-32.09c0,.22.07.44.1.66L307.46,280.6c0-.22-.06-.44-.1-.66" transform="translate(-10.82)"/><path class="cls-70" d="M307.46,280.6l55.22-32.09.09.66-55.21,32.09c0-.22-.06-.44-.1-.66" transform="translate(-10.82)"/><path class="cls-71" d="M307.56,281.26l55.21-32.09.09.66-55.21,32.08-.09-.65" transform="translate(-10.82)"/><path class="cls-72" d="M307.65,281.91l55.21-32.08.09.66-55.22,32.08c0-.22-.05-.44-.08-.66" transform="translate(-10.82)"/><path class="cls-73" d="M307.73,282.57,363,250.49c0,.22.05.44.07.66l-55.21,32.09c0-.22-.05-.45-.08-.67" transform="translate(-10.82)"/><path class="cls-74" d="M307.81,283.24,363,251.15c0,.22.05.45.08.67l-55.22,32.09c0-.23-.05-.45-.07-.67" transform="translate(-10.82)"/><path class="cls-75" d="M307.88,283.91l55.22-32.09c0,.23,0,.47.07.7L308,284.61c0-.24,0-.47-.07-.7" transform="translate(-10.82)"/><path class="cls-76" d="M308,284.61l55.22-32.09.06.7L308,285.31c0-.23,0-.47-.07-.7" transform="translate(-10.82)"/><path class="cls-77" d="M308,285.31l55.21-32.09.06.71L308.08,286l-.06-.7" transform="translate(-10.82)"/><path class="cls-78" d="M308.08,286l55.21-32.08c0,.23,0,.47,0,.7l-55.21,32.09c0-.24,0-.47-.05-.71" transform="translate(-10.82)"/><path class="cls-79" d="M308.13,286.72l55.21-32.09c0,.23,0,.47.05.7l-55.22,32.09c0-.23,0-.47,0-.7" transform="translate(-10.82)"/><path class="cls-80" d="M308.17,287.42l55.22-32.09c0,.25,0,.49,0,.73l-55.22,32.09c0-.25,0-.49,0-.73" transform="translate(-10.82)"/><path class="cls-81" d="M308.21,288.15l55.22-32.09,0,.77-55.21,32.08c0-.25,0-.51,0-.76" transform="translate(-10.82)"/><path class="cls-82" d="M308.25,288.91l55.21-32.08,0,.76-55.22,32.09c0-.26,0-.51,0-.77" transform="translate(-10.82)"/><path class="cls-83" d="M308.27,289.68l55.22-32.09c0,.26,0,.52,0,.77l-55.22,32.09c0-.26,0-.51,0-.77" transform="translate(-10.82)"/><path class="cls-84" d="M308.29,290.45l55.22-32.09c0,.26,0,.51,0,.77L308.3,291.22c0-.26,0-.51,0-.77" transform="translate(-10.82)"/><path class="cls-85" d="M308.3,291.22l55.22-32.09v.77L308.31,292c0-.26,0-.52,0-.77" transform="translate(-10.82)"/><path class="cls-86" d="M308.31,292l55.21-32.09V260c0,.24,0,.48,0,.72L308.3,292.82V292" transform="translate(-10.82)"/><path class="cls-87" d="M308.3,292.82l55.21-32.08c0,.28,0,.55,0,.83l-55.22,32.09c0-.28,0-.56,0-.84" transform="translate(-10.82)"/><path class="cls-88" d="M308.28,293.66l55.22-32.09,0,.83-55.21,32.08c0-.27,0-.54,0-.82" transform="translate(-10.82)"/><path class="cls-89" d="M308.26,294.48l55.21-32.08,0,.81L308.23,295.3l0-.82" transform="translate(-10.82)"/><path class="cls-90" d="M308.23,295.3l55.21-32.09c0,.27,0,.54,0,.81L308.18,296.1c0-.26,0-.53.05-.8" transform="translate(-10.82)"/><path class="cls-91" d="M308.18,296.1,363.4,264l-.06.79L308.13,296.9c0-.26,0-.53.05-.8" transform="translate(-10.82)"/><path class="cls-92" d="M308.13,296.9l55.21-32.09c0,.26,0,.53-.06.79l-55.21,32.08.06-.78" transform="translate(-10.82)"/><path class="cls-93" d="M308.07,297.68l55.21-32.08c0,.28,0,.56-.07.83L308,298.52c0-.28.05-.56.08-.84" transform="translate(-10.82)"/><path class="cls-94" d="M308,298.52l55.22-32.09-.09.85L307.9,299.37l.09-.85" transform="translate(-10.82)"/><path class="cls-95" d="M307.9,299.37l55.22-32.09c0,.29-.07.57-.11.84L307.8,300.21c0-.28.07-.56.1-.84" transform="translate(-10.82)"/><path class="cls-96" d="M307.8,300.21,363,268.12c0,.28-.07.56-.11.83L307.69,301c0-.27.07-.54.11-.82" transform="translate(-10.82)"/><path class="cls-97" d="M307.69,301,362.9,269l-.12.81-55.22,32.09c0-.27.09-.54.13-.82" transform="translate(-10.82)"/><path class="cls-98" d="M307.56,301.85l55.22-32.09c0,.27-.09.53-.14.8l-55.21,32.09c0-.27.09-.53.13-.8" transform="translate(-10.82)"/><path class="cls-99" d="M307.43,302.65l55.21-32.09c-.05.28-.1.56-.16.84l-55.21,32.09c.05-.28.11-.56.16-.84" transform="translate(-10.82)"/><path class="cls-100" d="M307.27,303.49l55.21-32.09c-.06.32-.12.63-.19,1l-55.22,32.08c.07-.31.14-.62.2-.94" transform="translate(-10.82)"/><path class="cls-101" d="M307.07,304.43l55.22-32.08-.21.92-55.22,32.09q.12-.47.21-.93" transform="translate(-10.82)"/><path class="cls-102" d="M306.86,305.36l55.22-32.09c-.08.3-.15.6-.23.9l-55.21,32.09c.07-.3.15-.6.22-.9" transform="translate(-10.82)"/><path class="cls-103" d="M306.64,306.26l55.21-32.09-.24.89-55.22,32.08c.09-.29.17-.58.25-.88" transform="translate(-10.82)"/><path class="cls-104" d="M306.39,307.14l55.22-32.08c-.09.3-.18.61-.27.9l-55.22,32.09c.1-.3.19-.6.27-.91" transform="translate(-10.82)"/><path class="cls-105" d="M306.12,308.05,361.34,276c-.13.4-.26.8-.39,1.18l-55.22,32.09c.14-.39.27-.78.39-1.18" transform="translate(-10.82)"/><path class="cls-106" d="M305.73,309.23,361,277.14l-.42,1.15-55.22,32.08q.22-.56.42-1.14" transform="translate(-10.82)"/><path class="cls-110" d="M305.31,310.37l55.22-32.08-.45,1.1-55.22,32.09q.24-.54.45-1.11" transform="translate(-10.82)"/><path class="cls-111" d="M304.86,311.48l55.22-32.09c-.21.48-.43,1-.65,1.42L304.21,312.9c.23-.46.45-.94.65-1.42" transform="translate(-10.82)"/><path class="cls-112" d="M304.21,312.9l55.22-32.09c-.31.63-.63,1.25-1,1.84l-55.21,32.09c.34-.59.67-1.21,1-1.84" transform="translate(-10.82)"/><path class="cls-113" d="M303.24,314.74l55.21-32.09a25,25,0,0,1-9.2,9.38L294,324.12a25,25,0,0,0,9.2-9.38" transform="translate(-10.82)"/></g></g></g><g class="cls-2"><g class="cls-114"><g class="cls-2"><path class="cls-102" d="M177.76,82,233,49.93l1.52-.59L179.27,81.42l-1.51.6" transform="translate(-10.82)"/><path class="cls-101" d="M179.27,81.42l55.22-32.08c.64-.25,1.29-.48,1.93-.71L181.21,80.72c-.65.22-1.29.46-1.94.7" transform="translate(-10.82)"/><path class="cls-100" d="M181.21,80.72l55.21-32.09c.61-.21,1.21-.41,1.82-.6L183,80.12c-.61.19-1.22.39-1.82.6" transform="translate(-10.82)"/><path class="cls-99" d="M183,80.12,238.24,48l1.63-.49L184.66,79.63c-.55.15-1.09.32-1.63.49" transform="translate(-10.82)"/><path class="cls-98" d="M184.66,79.63l55.21-32.09,1.58-.42L186.24,79.2l-1.58.43" transform="translate(-10.82)"/><path class="cls-97" d="M186.24,79.2l55.21-32.08c.49-.13,1-.25,1.48-.36L187.72,78.84l-1.48.36" transform="translate(-10.82)"/><path class="cls-96" d="M187.72,78.84l55.21-32.08,1.41-.31L189.13,78.54l-1.41.3" transform="translate(-10.82)"/><path class="cls-95" d="M189.13,78.54l55.21-32.09,1.35-.25L190.47,78.28l-1.34.26" transform="translate(-10.82)"/><path class="cls-94" d="M190.47,78.28,245.69,46.2,247,46,191.77,78.07l-1.3.21" transform="translate(-10.82)"/><path class="cls-93" d="M191.77,78.07,247,46l1.24-.18L193,77.89q-.62.08-1.23.18" transform="translate(-10.82)"/><path class="cls-92" d="M193,77.89,248.22,45.8l1.21-.15L194.22,77.74l-1.22.15" transform="translate(-10.82)"/><path class="cls-91" d="M194.22,77.74l55.21-32.09,1.14-.11L195.36,77.62l-1.14.12" transform="translate(-10.82)"/><path class="cls-90" d="M195.36,77.62l55.21-32.08c.38,0,.77-.07,1.15-.09L196.5,77.53l-1.14.09" transform="translate(-10.82)"/><path class="cls-89" d="M196.5,77.53l55.22-32.08,1.08-.07L197.59,77.47l-1.09.06" transform="translate(-10.82)"/><path class="cls-88" d="M197.59,77.47,252.8,45.38l1.07,0L198.65,77.42l-1.06,0" transform="translate(-10.82)"/><path class="cls-87" d="M198.65,77.42l55.22-32.08,1.06,0L199.72,77.4l-1.07,0" transform="translate(-10.82)"/><path class="cls-86" d="M199.72,77.4l55.21-32.09h1L200.71,77.4c-.33,0-.66,0-1,0" transform="translate(-10.82)"/><path class="cls-85" d="M200.71,77.4l55.22-32.09h1L201.72,77.41h-1" transform="translate(-10.82)"/><path class="cls-84" d="M201.72,77.41l55.21-32.09,1,0L202.71,77.44l-1,0" transform="translate(-10.82)"/><path class="cls-83" d="M202.71,77.44l55.22-32.09.94,0L203.66,77.49l-.95,0" transform="translate(-10.82)"/><path class="cls-82" d="M203.66,77.49,258.87,45.4l1,.06L204.61,77.55c-.32,0-.63,0-1-.06" transform="translate(-10.82)"/><path class="cls-81" d="M204.61,77.55l55.22-32.09.95.08L205.56,77.62l-.95-.07" transform="translate(-10.82)"/><path class="cls-80" d="M205.56,77.62l55.22-32.08.91.08L206.47,77.71l-.91-.09" transform="translate(-10.82)"/><path class="cls-79" d="M206.47,77.71l55.22-32.09.91.11L207.38,77.81l-.91-.1" transform="translate(-10.82)"/><path class="cls-78" d="M207.38,77.81,262.6,45.73l.91.11L208.3,77.93l-.92-.12" transform="translate(-10.82)"/><path class="cls-77" d="M208.3,77.93l55.21-32.09.89.13L209.18,78.06l-.88-.13" transform="translate(-10.82)"/><path class="cls-76" d="M209.18,78.06,264.4,46l.88.14L210.07,78.2l-.89-.14" transform="translate(-10.82)"/><path class="cls-75" d="M210.07,78.2l55.21-32.09.89.15L211,78.35l-.88-.15" transform="translate(-10.82)"/><path class="cls-74" d="M211,78.35l55.22-32.09.87.17L211.83,78.52l-.88-.17" transform="translate(-10.82)"/><path class="cls-73" d="M211.83,78.52,267,46.43l.87.17L212.69,78.69l-.86-.17" transform="translate(-10.82)"/><path class="cls-72" d="M212.69,78.69,267.91,46.6l.86.19L213.56,78.88l-.87-.19" transform="translate(-10.82)"/><path class="cls-71" d="M213.56,78.88l55.21-32.09.87.2L214.43,79.08l-.87-.2" transform="translate(-10.82)"/><path class="cls-70" d="M214.43,79.08,269.64,47l.85.21L215.28,79.29l-.85-.21" transform="translate(-10.82)"/><path class="cls-69" d="M215.28,79.29,270.49,47.2l.86.22L216.14,79.51l-.86-.22" transform="translate(-10.82)"/><path class="cls-68" d="M216.14,79.51l55.21-32.09.86.23L217,79.74l-.85-.23" transform="translate(-10.82)"/><path class="cls-67" d="M217,79.74l55.22-32.09.86.25L217.85,80l-.86-.25" transform="translate(-10.82)"/><path class="cls-66" d="M217.85,80,273.07,47.9l.85.25L218.71,80.24l-.86-.25" transform="translate(-10.82)"/><path class="cls-65" d="M218.71,80.24l55.21-32.09.86.27L219.56,80.51l-.85-.27" transform="translate(-10.82)"/><path class="cls-64" d="M219.56,80.51l55.22-32.09.86.28L220.43,80.79l-.87-.28" transform="translate(-10.82)"/><path class="cls-63" d="M220.43,80.79,275.64,48.7l.86.3L221.29,81.08l-.86-.29" transform="translate(-10.82)"/><path class="cls-62" d="M221.29,81.08,276.5,49l.87.3L222.16,81.39l-.87-.31" transform="translate(-10.82)"/><path class="cls-61" d="M222.16,81.39,277.37,49.3l.87.32L223,81.71l-.87-.32" transform="translate(-10.82)"/><path class="cls-60" d="M223,81.71l55.21-32.09.87.33L223.9,82l-.87-.33" transform="translate(-10.82)"/><path class="cls-59" d="M223.9,82,279.11,50l.89.35L224.78,82.39,223.9,82" transform="translate(-10.82)"/><path class="cls-58" d="M224.78,82.39,280,50.3l.89.36L225.67,82.75l-.89-.36" transform="translate(-10.82)"/><path class="cls-57" d="M225.67,82.75l55.22-32.09.89.38L226.57,83.12l-.9-.37" transform="translate(-10.82)"/><path class="cls-56" d="M226.57,83.12,281.78,51q.45.18.9.39L227.47,83.51l-.9-.39" transform="translate(-10.82)"/><path class="cls-55" d="M227.47,83.51l55.21-32.08.92.41L228.39,83.92l-.92-.41" transform="translate(-10.82)"/><path class="cls-54" d="M228.39,83.92,283.6,51.84l.93.42L229.31,84.35l-.92-.43" transform="translate(-10.82)"/><path class="cls-53" d="M229.31,84.35l55.22-32.09.93.44L230.24,84.79l-.93-.44" transform="translate(-10.82)"/><path class="cls-52" d="M230.24,84.79,285.46,52.7l1,.47L231.2,85.25l-1-.46" transform="translate(-10.82)"/><path class="cls-51" d="M231.2,85.25l55.21-32.08,1,.48L232.17,85.74l-1-.49" transform="translate(-10.82)"/><path class="cls-50" d="M232.17,85.74l55.21-32.09,1,.5L233.14,86.24l-1-.5" transform="translate(-10.82)"/><path class="cls-49" d="M233.14,86.24l55.21-32.09,1,.52L234.13,86.76l-1-.52" transform="translate(-10.82)"/><path class="cls-48" d="M234.13,86.76l55.21-32.09,1,.56L235.15,87.31l-1-.55" transform="translate(-10.82)"/><path class="cls-47" d="M235.15,87.31l55.22-32.08c.34.18.69.37,1,.57L236.19,87.89l-1-.58" transform="translate(-10.82)"/><path class="cls-46" d="M236.19,87.89,291.4,55.8l1,.59L237.22,88.48l-1-.59" transform="translate(-10.82)"/><path class="cls-45" d="M237.22,88.48l55.22-32.09.1,0L237.32,88.53l-.1,0" transform="translate(-10.82)"/></g></g></g><g class="cls-2"><g class="cls-115"><g class="cls-2"><path class="cls-45" d="M237.32,88.53l55.22-32.09,1.39.82L238.71,89.34l-1.39-.81" transform="translate(-10.82)"/><path class="cls-44" d="M238.71,89.34l55.22-32.08,1.52.91L240.23,90.25l-1.52-.91" transform="translate(-10.82)"/><path class="cls-43" d="M240.23,90.25l55.22-32.08,1.51.92L241.74,91.18l-1.51-.93" transform="translate(-10.82)"/><path class="cls-42" d="M241.74,91.18,297,59.09l1.49.94L243.23,92.11l-1.49-.93" transform="translate(-10.82)"/><path class="cls-41" d="M243.23,92.11,298.45,60c.5.31,1,.63,1.48.95L244.72,93.07l-1.49-1" transform="translate(-10.82)"/><path class="cls-40" d="M244.72,93.07,299.93,61l1.47,1L246.19,94l-1.47-1" transform="translate(-10.82)"/><path class="cls-39" d="M246.19,94,301.4,62l1.46,1L247.64,95l-1.45-1" transform="translate(-10.82)"/><path class="cls-38" d="M247.64,95l55.22-32.08,1.45,1L249.09,96l-1.45-1" transform="translate(-10.82)"/><path class="cls-37" d="M249.09,96l55.22-32.08,1.45,1L250.55,97l-1.46-1" transform="translate(-10.82)"/><path class="cls-36" d="M250.55,97,305.76,65c.48.34,1,.69,1.44,1L252,98.08l-1.44-1" transform="translate(-10.82)"/><path class="cls-35" d="M252,98.08,307.2,66l1.43,1L253.41,99.14,252,98.08" transform="translate(-10.82)"/><path class="cls-34" d="M253.41,99.14l55.22-32.09,1.44,1.1-55.21,32.09c-.48-.37-1-.74-1.45-1.1" transform="translate(-10.82)"/><path class="cls-33" d="M254.86,100.24l55.21-32.09,1.46,1.14-55.21,32.08-1.46-1.13" transform="translate(-10.82)"/><path class="cls-32" d="M256.32,101.37l55.21-32.08c.49.38,1,.76,1.44,1.15l-55.21,32.08-1.44-1.15" transform="translate(-10.82)"/><path class="cls-31" d="M257.76,102.52,313,70.44c.48.38.95.77,1.42,1.16l-55.21,32.09-1.42-1.17" transform="translate(-10.82)"/><path class="cls-30" d="M259.18,103.69,314.39,71.6c.52.43,1,.85,1.53,1.28L260.71,105l-1.53-1.28" transform="translate(-10.82)"/><path class="cls-29" d="M260.71,105l55.21-32.09,1.51,1.3-55.21,32.09-1.51-1.3" transform="translate(-10.82)"/><path class="cls-28" d="M262.22,106.27l55.21-32.09,1.49,1.32L263.7,107.59l-1.48-1.32" transform="translate(-10.82)"/><path class="cls-27" d="M263.7,107.59,318.92,75.5,320.51,77,265.29,109c-.52-.49-1.05-1-1.59-1.45" transform="translate(-10.82)"/><path class="cls-26" d="M265.29,109,320.51,77c.54.5,1.08,1,1.61,1.51l-55.21,32.09c-.54-.51-1.07-1-1.62-1.52" transform="translate(-10.82)"/><path class="cls-25" d="M266.91,110.56l55.21-32.09c.53.51,1.06,1,1.58,1.54l-55.21,32.08-1.58-1.53" transform="translate(-10.82)"/><path class="cls-24" d="M268.49,112.09,323.7,80c.61.59,1.2,1.19,1.8,1.8l-55.22,32.08-1.79-1.8" transform="translate(-10.82)"/><path class="cls-19" d="M270.28,113.89,325.5,81.81c.6.62,1.2,1.24,1.79,1.87l-55.21,32.09c-.59-.63-1.19-1.26-1.8-1.88" transform="translate(-10.82)"/><path class="cls-20" d="M272.08,115.77l55.21-32.09c.65.69,1.3,1.39,1.93,2.09L274,117.86c-.64-.7-1.28-1.4-1.93-2.09" transform="translate(-10.82)"/><path class="cls-21" d="M274,117.86l55.21-32.09c.72.8,1.43,1.61,2.13,2.42l-55.21,32.09c-.7-.81-1.41-1.62-2.13-2.42" transform="translate(-10.82)"/><path class="cls-22" d="M276.14,120.28l55.21-32.09q1.41,1.64,2.73,3.29l-55.21,32.09c-.89-1.11-1.8-2.2-2.73-3.29" transform="translate(-10.82)"/><path class="cls-23" d="M278.87,123.57l55.21-32.09q3.21,4,6,8.14l-55.21,32.09q-2.81-4.16-6-8.14" transform="translate(-10.82)"/><path class="cls-22" d="M284.88,131.71l55.21-32.09c.41.6.81,1.21,1.2,1.81l-55.21,32.09c-.39-.6-.79-1.21-1.2-1.81" transform="translate(-10.82)"/><path class="cls-21" d="M286.08,133.52l55.21-32.09c.4.61.78,1.22,1.16,1.83l-55.21,32.09c-.38-.61-.77-1.22-1.16-1.83" transform="translate(-10.82)"/><path class="cls-20" d="M287.24,135.35l55.21-32.09c.32.51.63,1,.94,1.53l-55.21,32.09c-.31-.51-.62-1-.94-1.53" transform="translate(-10.82)"/><path class="cls-19" d="M288.18,136.88l55.21-32.09c.22.36.43.72.64,1.08L288.82,138l-.64-1.08" transform="translate(-10.82)"/><path class="cls-24" d="M288.82,138,344,105.87l.63,1.08L289.44,139c-.2-.36-.41-.72-.62-1.08" transform="translate(-10.82)"/><path class="cls-25" d="M289.44,139,344.66,107c.2.37.41.73.61,1.09l-55.21,32.09-.62-1.09" transform="translate(-10.82)"/><path class="cls-26" d="M290.06,140.13,345.27,108l.6,1.09-55.22,32.09c-.19-.37-.39-.73-.59-1.09" transform="translate(-10.82)"/><path class="cls-27" d="M290.65,141.22l55.22-32.09.51,1-55.21,32.09c-.17-.32-.34-.64-.52-1" transform="translate(-10.82)"/><path class="cls-28" d="M291.17,142.18l55.21-32.09.47.89-55.22,32.09-.46-.89" transform="translate(-10.82)"/><path class="cls-29" d="M291.63,143.07,346.85,111l.45.89L292.08,144l-.45-.88" transform="translate(-10.82)"/><path class="cls-30" d="M292.08,144l55.22-32.08c.15.29.3.59.44.88l-55.21,32.09-.45-.89" transform="translate(-10.82)"/><path class="cls-31" d="M292.53,144.84l55.21-32.09.44.9L293,145.73c-.14-.29-.29-.59-.43-.89" transform="translate(-10.82)"/><path class="cls-32" d="M293,145.73l55.22-32.08.42.89-55.21,32.09c-.14-.3-.28-.6-.43-.9" transform="translate(-10.82)"/><path class="cls-33" d="M293.39,146.63l55.21-32.09c.13.27.26.55.38.82l-55.21,32.09c-.13-.27-.25-.55-.38-.82" transform="translate(-10.82)"/><path class="cls-34" d="M293.77,147.45,349,115.36c.13.27.25.53.36.8l-55.21,32.08-.36-.79" transform="translate(-10.82)"/><path class="cls-35" d="M294.13,148.24l55.21-32.08.36.79L294.48,149c-.11-.26-.23-.52-.35-.79" transform="translate(-10.82)"/><path class="cls-36" d="M294.48,149,349.7,117l.34.79-55.21,32.09-.35-.8" transform="translate(-10.82)"/><path class="cls-37" d="M294.83,149.83,350,117.74c.12.27.23.53.34.8l-55.21,32.09c-.12-.27-.23-.54-.34-.8" transform="translate(-10.82)"/><path class="cls-38" d="M295.17,150.63l55.21-32.09.33.8L295.5,151.42l-.33-.79" transform="translate(-10.82)"/><path class="cls-39" d="M295.5,151.42l55.21-32.08c.11.26.22.53.32.8l-55.21,32.08c-.11-.26-.22-.53-.32-.8" transform="translate(-10.82)"/><path class="cls-40" d="M295.82,152.22,351,120.14l.29.72L296.1,153c-.09-.24-.18-.48-.28-.73" transform="translate(-10.82)"/><path class="cls-41" d="M296.1,153l55.22-32.09c.09.24.18.48.28.72l-55.22,32.09c-.09-.24-.18-.48-.28-.72" transform="translate(-10.82)"/><path class="cls-42" d="M296.38,153.67l55.22-32.09.27.72-55.22,32.09-.27-.72" transform="translate(-10.82)"/><path class="cls-43" d="M296.65,154.39l55.22-32.09c.09.24.18.48.26.72l-55.21,32.09-.27-.72" transform="translate(-10.82)"/><path class="cls-44" d="M296.92,155.11,352.13,123c.09.25.18.49.26.73l-55.21,32.08-.26-.72" transform="translate(-10.82)"/><path class="cls-45" d="M297.18,155.83l55.21-32.08.26.72-55.22,32.09c-.08-.24-.17-.48-.25-.73" transform="translate(-10.82)"/><path class="cls-46" d="M297.43,156.56l55.22-32.09.24.73-55.21,32.09c-.08-.25-.16-.49-.25-.73" transform="translate(-10.82)"/><path class="cls-47" d="M297.68,157.29l55.21-32.09.24.71L297.91,158c-.07-.23-.15-.47-.23-.7" transform="translate(-10.82)"/><path class="cls-48" d="M297.91,158l55.22-32.08c.07.22.15.45.22.68l-55.22,32.08c-.07-.22-.14-.45-.22-.68" transform="translate(-10.82)"/><path class="cls-49" d="M298.13,158.67l55.22-32.08.21.68-55.21,32.08c-.07-.22-.14-.45-.22-.68" transform="translate(-10.82)"/><path class="cls-50" d="M298.35,159.35l55.21-32.08.21.68L298.56,160l-.21-.68" transform="translate(-10.82)"/><path class="cls-51" d="M298.56,160,353.77,128l.21.68-55.22,32.09c-.06-.23-.13-.46-.2-.69" transform="translate(-10.82)"/><path class="cls-52" d="M298.76,160.72,354,128.63c.06.23.13.45.2.68L299,161.4c-.06-.23-.13-.46-.2-.68" transform="translate(-10.82)"/><path class="cls-53" d="M299,161.4l55.22-32.09c.06.23.13.46.19.69l-55.22,32.08c-.06-.22-.12-.45-.19-.68" transform="translate(-10.82)"/><path class="cls-54" d="M299.15,162.08,354.37,130c.06.22.13.45.19.68l-55.22,32.09c-.06-.23-.12-.46-.19-.69" transform="translate(-10.82)"/><path class="cls-55" d="M299.34,162.77l55.22-32.09.18.68-55.22,32.09-.18-.68" transform="translate(-10.82)"/><path class="cls-56" d="M299.52,163.45l55.22-32.09c.06.23.12.45.17.68L299.7,164.13l-.18-.68" transform="translate(-10.82)"/><path class="cls-57" d="M299.7,164.13,354.91,132c.06.22.12.45.17.67L299.87,164.8c-.06-.23-.11-.45-.17-.67" transform="translate(-10.82)"/><path class="cls-58" d="M299.87,164.8l55.21-32.09c.06.23.11.45.16.68L300,165.48c0-.23-.11-.45-.16-.68" transform="translate(-10.82)"/><path class="cls-59" d="M300,165.48l55.21-32.09c.06.22.11.45.16.68l-55.21,32.08c-.05-.22-.11-.45-.16-.67" transform="translate(-10.82)"/><path class="cls-60" d="M300.19,166.15l55.21-32.08c.05.22.11.45.16.67l-55.22,32.09-.15-.68" transform="translate(-10.82)"/><path class="cls-61" d="M300.34,166.83l55.22-32.09c.05.23.1.45.14.68l-55.21,32.09-.15-.68" transform="translate(-10.82)"/><path class="cls-62" d="M300.49,167.51l55.21-32.09.15.68-55.22,32.09c0-.23-.09-.46-.14-.68" transform="translate(-10.82)"/><path class="cls-63" d="M300.63,168.19l55.22-32.09c0,.23.09.45.13.68l-55.21,32.09c0-.23-.09-.46-.14-.68" transform="translate(-10.82)"/><path class="cls-64" d="M300.77,168.87,356,136.78c0,.23.1.47.14.7l-55.21,32.09c-.05-.23-.09-.47-.14-.7" transform="translate(-10.82)"/><path class="cls-65" d="M300.91,169.57l55.21-32.09c0,.24.09.47.13.7L301,170.27c-.05-.23-.09-.47-.13-.7" transform="translate(-10.82)"/><path class="cls-66" d="M301,170.27l55.21-32.09.12.71L301.16,171l-.12-.7" transform="translate(-10.82)"/><path class="cls-67" d="M301.16,171l55.21-32.08.12.7-55.21,32.09-.12-.71" transform="translate(-10.82)"/><path class="cls-68" d="M301.28,171.68l55.21-32.09.12.7-55.22,32.09c0-.24-.07-.47-.11-.7" transform="translate(-10.82)"/><path class="cls-69" d="M301.39,172.38l55.22-32.09c0,.24.07.47.1.71L301.5,173.08c0-.23-.07-.47-.11-.7" transform="translate(-10.82)"/><path class="cls-70" d="M301.5,173.08,356.71,141c0,.23.07.47.1.7L301.6,173.79c0-.24-.07-.47-.1-.71" transform="translate(-10.82)"/><path class="cls-71" d="M301.6,173.79l55.21-32.09c0,.24.07.47.1.71L301.7,174.5c0-.24-.07-.48-.1-.71" transform="translate(-10.82)"/><path class="cls-72" d="M301.7,174.5l55.21-32.09c0,.25.07.5.1.76l-55.22,32.08-.09-.75" transform="translate(-10.82)"/><path class="cls-73" d="M301.79,175.25,357,143.17l.09.76L301.88,176l-.09-.76" transform="translate(-10.82)"/><path class="cls-74" d="M301.88,176l55.22-32.08c0,.25,0,.5.08.76L302,176.77c0-.25,0-.5-.08-.76" transform="translate(-10.82)"/><path class="cls-75" d="M302,176.77l55.22-32.08c0,.25.05.5.07.76L302,177.53c0-.25-.05-.5-.08-.76" transform="translate(-10.82)"/><path class="cls-76" d="M302,177.53l55.21-32.08c0,.25.05.5.07.76l-55.21,32.08c0-.25-.05-.5-.07-.76" transform="translate(-10.82)"/><path class="cls-77" d="M302.11,178.29l55.21-32.08c0,.25.05.51.07.76l-55.22,32.09-.06-.77" transform="translate(-10.82)"/><path class="cls-78" d="M302.17,179.06,357.39,147c0,.25,0,.51.05.76l-55.21,32.09-.06-.76" transform="translate(-10.82)"/><path class="cls-79" d="M302.23,179.82l55.21-32.09c0,.27,0,.54.05.81l-55.21,32.09c0-.27,0-.54,0-.81" transform="translate(-10.82)"/><path class="cls-80" d="M302.28,180.63l55.21-32.09c0,.29,0,.57.05.85l-55.21,32.09c0-.28,0-.57-.05-.85" transform="translate(-10.82)"/><path class="cls-81" d="M302.33,181.48l55.21-32.09c0,.29,0,.57,0,.86l-55.22,32.08,0-.85" transform="translate(-10.82)"/><path class="cls-82" d="M302.36,182.33l55.22-32.08,0,.85-55.22,32.09c0-.29,0-.57,0-.86" transform="translate(-10.82)"/><path class="cls-83" d="M302.39,183.19l55.22-32.09c0,.28,0,.57,0,.85L302.41,184c0-.29,0-.57,0-.85" transform="translate(-10.82)"/><path class="cls-84" d="M302.41,184,357.63,152c0,.29,0,.57,0,.86l-55.21,32.08c0-.28,0-.57,0-.85" transform="translate(-10.82)"/><path class="cls-85" d="M302.43,184.89l55.21-32.08v.85l-55.21,32.09v-.86" transform="translate(-10.82)"/><path class="cls-86" d="M302.43,185.75l55.21-32.09v.75L302.42,186.5c0-.21,0-.41,0-.62v-.13" transform="translate(-10.82)"/><path class="cls-87" d="M302.42,186.5l55.22-32.09c0,.24,0,.48,0,.72l-55.22,32.09c0-.24,0-.48,0-.72" transform="translate(-10.82)"/><path class="cls-88" d="M302.41,187.22l55.22-32.09,0,.72-55.21,32.08c0-.23,0-.47,0-.71" transform="translate(-10.82)"/><path class="cls-89" d="M302.39,187.93l55.21-32.08c0,.23,0,.47,0,.7l-55.22,32.09,0-.71" transform="translate(-10.82)"/><path class="cls-90" d="M302.36,188.64l55.22-32.09c0,.23,0,.47,0,.7l-55.22,32.09c0-.23,0-.47,0-.7" transform="translate(-10.82)"/><path class="cls-91" d="M302.32,189.34l55.22-32.09c0,.24,0,.48-.05.71l-55.21,32.09c0-.24,0-.47,0-.71" transform="translate(-10.82)"/><path class="cls-92" d="M302.28,190.05,357.49,158c0,.24,0,.47-.05.7l-55.22,32.09.06-.7" transform="translate(-10.82)"/><path class="cls-93" d="M302.22,190.75l55.22-32.09c0,.24,0,.47-.07.69l-55.21,32.09.06-.69" transform="translate(-10.82)"/><path class="cls-94" d="M302.16,191.44l55.21-32.09c0,.23,0,.46-.07.69l-55.21,32.08c0-.22.05-.45.07-.68" transform="translate(-10.82)"/><path class="cls-95" d="M302.09,192.12,357.3,160c0,.24-.05.47-.08.71L302,192.84l.09-.72" transform="translate(-10.82)"/><path class="cls-96" d="M302,192.84l55.22-32.09c0,.24-.07.47-.1.71L301.9,193.55c0-.24.07-.47.1-.71" transform="translate(-10.82)"/><path class="cls-97" d="M301.9,193.55l55.22-32.09c0,.23-.07.47-.11.7L301.8,194.24c0-.23.07-.46.1-.69" transform="translate(-10.82)"/><path class="cls-98" d="M301.8,194.24,357,162.16c0,.23-.07.46-.11.68l-55.22,32.09.12-.69" transform="translate(-10.82)"/><path class="cls-99" d="M301.68,194.93l55.22-32.09c0,.25-.09.5-.14.74l-55.21,32.09c0-.25.09-.49.13-.74" transform="translate(-10.82)"/><path class="cls-100" d="M301.55,195.67l55.21-32.09-.15.74-55.22,32.09c.06-.25.11-.49.16-.74" transform="translate(-10.82)"/><path class="cls-101" d="M301.39,196.41l55.22-32.09c-.06.25-.11.49-.17.73l-55.21,32.09c0-.24.11-.49.16-.73" transform="translate(-10.82)"/><path class="cls-102" d="M301.23,197.14l55.21-32.09-.18.73-55.21,32.08.18-.72" transform="translate(-10.82)"/><path class="cls-103" d="M301.05,197.86l55.21-32.08-.22.82-55.22,32.09c.08-.27.16-.55.23-.83" transform="translate(-10.82)"/><path class="cls-104" d="M300.82,198.69,356,166.6c-.08.28-.16.54-.25.81L300.58,199.5l.24-.81" transform="translate(-10.82)"/><path class="cls-105" d="M300.58,199.5l55.21-32.09c-.08.27-.16.53-.25.79l-55.22,32.09c.09-.26.18-.53.26-.79" transform="translate(-10.82)"/><path class="cls-106" d="M300.32,200.29l55.22-32.09-.36,1L300,201.27c.12-.33.24-.65.35-1" transform="translate(-10.82)"/><path class="cls-110" d="M300,201.27l55.21-32.09c-.12.32-.25.64-.38.95l-55.22,32.09c.14-.31.26-.63.39-.95" transform="translate(-10.82)"/><path class="cls-111" d="M299.58,202.22l55.22-32.09c-.17.4-.35.78-.53,1.16l-55.21,32.09c.18-.38.35-.77.52-1.16" transform="translate(-10.82)"/><path class="cls-112" d="M299.06,203.38l55.21-32.09c-.21.44-.43.87-.66,1.28l-55.22,32.09c.23-.42.45-.84.67-1.28" transform="translate(-10.82)"/><path class="cls-113" d="M298.39,204.66l55.22-32.09a20.86,20.86,0,0,1-7.81,8.05L290.59,212.7a20.67,20.67,0,0,0,7.8-8" transform="translate(-10.82)"/></g></g></g><path class="cls-116" d="M237.32,88.53c39.3,22.69,65.22,59.12,65.11,97.35-.07,22.39-11.29,32-31.69,30.07v1.38c21.85,19.79,37.64,46.66,37.56,74.78-.11,40.47-32.46,44.67-70.53,22.69a170.31,170.31,0,0,1-65.89-68.9l20.29-20.13c11.54,19.36,25.53,36.76,41.4,45.93,18.47,10.66,30.8,8.5,30.84-8.2.06-19.09-9.61-36.45-50.76-60.21l.1-35.66c34,19.63,44.72,13.92,44.77-3.31,0-15.3-8.41-28.85-23.27-37.43-13.46-7.77-23.68-6.65-35.42-1.41L177.76,82C195.23,74.88,214.29,75.24,237.32,88.53Z" transform="translate(-10.82)"/></g><path class="cls-117" d="M169.62,227.33c5.75,3.34,6.76,8.22,2.27,10.84s-12.9,2-18.65-1.3S146.47,228.64,151,226,163.87,224,169.62,227.33Z" transform="translate(-10.82)"/><path class="cls-10" d="M147.31,147.75c-2.1,4.45-3,11.6-3.39,17.8l6.09.65,5.83-15" transform="translate(-10.82)"/><path class="cls-118" d="M148.66,178.66s.21,2.22.37,2.85c.09.4.15.67.23,1s.13.61,0,.7-.36.13-.59-.69a3.38,3.38,0,0,0,.75,1.5c.45.46,1.08,1,.9,1.2s-.63,0-.63,0-.06.4-.64.08c0,0-.07.33-.66-.08,0,0-.23.27-.77-.27a9.22,9.22,0,0,1-2.51-6.52Z" transform="translate(-10.82)"/><path class="cls-10" d="M143.93,165.43c-.61,10.87,1.08,14.19,1.08,14.19l3.68.1L150,166.2" transform="translate(-10.82)"/><circle class="cls-10" cx="136.16" cy="165.61" r="3.06"/><circle class="cls-10" cx="151.44" cy="149.79" r="4.61" transform="translate(-31.5 275.28) rotate(-80.78)"/><path class="cls-119" d="M166.76,233.3c1.25-1.25,2.77-1.77,3.39-1.15s.1,2.13-1.15,3.38a7.74,7.74,0,0,1-1.71,1.41,1.38,1.38,0,0,1-1.67-.26c-.37-.37-.35-1.89-.35-2.27C165.48,234,166.26,233.79,166.76,233.3Z" transform="translate(-10.82)"/><path class="cls-118" d="M166.77,233.27c.81-.78,1.79-1.07,2.17-.67s0,1.36-.78,2.14" transform="translate(-10.82)"/><path class="cls-119" d="M156.38,227.34c1.25-1.25,2.76-1.77,3.38-1.15s.11,2.13-1.14,3.38a7.48,7.48,0,0,1-1.71,1.41,1.38,1.38,0,0,1-1.68-.26c-.37-.37-.34-1.89-.34-2.26C155.1,228.07,155.88,227.84,156.38,227.34Z" transform="translate(-10.82)"/><path class="cls-118" d="M156.4,227.2c.82-.78,1.79-1.08,2.18-.67s0,1.36-.78,2.14a3.47,3.47,0,0,1-1.55.93" transform="translate(-10.82)"/><path class="cls-118" d="M174.3,175.93l-25.72.87,5,31.9L155,228.31h0c0,.67.46,1.63,1.48,1.21,1.47-.62,1.45-1.21,1.55-1.73,0,0,1.82-12,2.72-19.9a116.4,116.4,0,0,0,.65-12.52l2.78,17.26L165.34,234v.07c0,.66.37,1.57,1.54,1.28,1.43-.36,1.59-1,1.63-1.62s3.29-16,4.08-22.49C173.36,204.61,175.3,178,174.3,175.93Z" transform="translate(-10.82)"/><path class="cls-120" d="M165.34,209.06a8.47,8.47,0,0,0,3.25.2c3.33-.45,6.83-4.08,6.83-4.08V179.3c-.11-1.18-.25-2.29-.45-3.34a10.85,10.85,0,0,0-4.47-7.13,8.47,8.47,0,0,0-1.15-.76c-3.35-1.89-9.76-3.36-13.92-1.75-5.47,2.1-5.47,8.58-5.47,8.57v24.56a55.8,55.8,0,0,0,6.71,5.12A49.55,49.55,0,0,0,165.34,209.06Z" transform="translate(-10.82)"/><path class="cls-10" d="M176.36,153.86c.9,6.32.56,30.08.56,30.08,0,5.07-1.28,9.06-8.23,10a11.76,11.76,0,0,1-3.92-.24,38.09,38.09,0,0,1-14.44-7.33c-4.26-3.85-4.07-7.49-4.07-10.66V152.57s0-7.79,6.58-10.32c5-1.93,12.73-.16,16.76,2.11C169.59,144.36,175.42,147.28,176.36,153.86Z" transform="translate(-10.82)"/><path class="cls-117" d="M175.85,151.74a3.7,3.7,0,0,0-2.71-1.26c-4,0-3.75,4.56-3.75,4.56v25.57c0,9.83-2.23,12.56-3.68,13.29a10.19,10.19,0,0,0,3,.07c7-1,8.23-5,8.23-10,0,0,.34-23.75-.56-30.07A11.88,11.88,0,0,0,175.85,151.74Z" transform="translate(-10.82)"/><path class="cls-118" d="M166.63,136.56c0-3.8-2.3-6.91-5.22-6.95-1.78,0-3.85.48-4.83,2.23-.63,1.12-.52,3.12-.53,4.61a8.28,8.28,0,0,0,1.19,4.45v1.62a1.82,1.82,0,0,0,1.07,1.45,5.63,5.63,0,0,0,5.09,0,1.82,1.82,0,0,0,1-1.42v-.48A7.74,7.74,0,0,0,166.63,136.56Z" transform="translate(-10.82)"/><path class="cls-121" d="M167.57,133.67a5.08,5.08,0,0,0-.54-4.48c-1.55-2.45-2.67-3.24-4.38-3.62a5.46,5.46,0,0,0-3,.21,3.35,3.35,0,0,0-2.72.45,6,6,0,0,0-1.81,2.27,9.47,9.47,0,0,0-.75,4.65,10.49,10.49,0,0,0,2.78,8,5.15,5.15,0,0,0,1.28.6c1.14.34,4.53.6,5.93-2.45a18.37,18.37,0,0,0,.71-2.29c0-.35-.37-1.67.28-2.13s.72.45.72.45a5.67,5.67,0,0,1-.31,2.27c-.39.68-.52,2.3.22,2.82,0,0-.61-1.22,0-1.89A5.9,5.9,0,0,0,167.57,133.67Z" transform="translate(-10.82)"/><path class="cls-122" d="M156.83,128.53s-4-4.17-5.6,1.36a7.43,7.43,0,0,0,0,4.6c.82,2.21,2.26,3.51.39,5.08,0,0,5.08-1.3,5.6-8C157.18,131.52,157.49,129.13,156.83,128.53Z" transform="translate(-10.82)"/><path class="cls-123" d="M156.83,128.53s-4-4.17-5.6,1.36a7.43,7.43,0,0,0,0,4.6c.82,2.21,2.26,3.51.39,5.08,0,0,5.08-1.3,5.6-8C157.18,131.52,157.49,129.13,156.83,128.53Z" transform="translate(-10.82)"/><path class="cls-10" d="M165.36,154.15h0l3.91,20.21,7.35-1.36s0-1.54-.09-3.5c-.19-8.31.54-14.32-1-18.65-.71-2.06-11.32-1.18-10.21,3.3" transform="translate(-10.82)"/><path class="cls-118" d="M174.2,189.64a32.07,32.07,0,0,1,1.43,4.75c0,.68-.18,1.08.22,1.28s.76-.13.76-.13a.61.61,0,0,0,.84-.15.75.75,0,0,0,.06-.13s.53.35.78-.5c0,0,.57.45.72-1.14.18-1.9-1.3-4.83-1.32-4.87Z" transform="translate(-10.82)"/><path class="cls-118" d="M176,195.72a1.25,1.25,0,0,1-.73-.84c-.22-.66.13-1.26.76-1.25C176,193.63,177.18,195.92,176,195.72Z" transform="translate(-10.82)"/><path class="cls-10" d="M176.62,172.91l1.67,17.66-3.56,1.68A116.2,116.2,0,0,1,169.17,174" transform="translate(-10.82)"/><circle class="cls-10" cx="162.05" cy="173.24" r="3.76"/><circle class="cls-10" cx="159.87" cy="153.17" r="5.43"/><circle class="cls-8" cx="150.81" cy="100.83" r="17.07"/><path class="cls-10" d="M169,105.77H157.94a4.19,4.19,0,0,1,0-8.38h10.28a.49.49,0,0,1,0,1H157.94a3.21,3.21,0,0,0,0,6.41H169a.5.5,0,0,1,0,1Z" transform="translate(-10.82)"/><path class="cls-10" d="M165.58,101.33a.49.49,0,0,1-.34-.85l2.78-2.6-2.78-2.6a.48.48,0,0,1,0-.69.5.5,0,0,1,.7,0l3.54,3.32-3.54,3.32A.5.5,0,0,1,165.58,101.33Z" transform="translate(-10.82)"/><path class="cls-117" d="M64,290.09c-6,3.47-7,8.54-2.34,11.26S75,303.46,81,300s7-8.53,2.34-11.26S69.92,286.62,64,290.09Z" transform="translate(-10.82)"/><path class="cls-10" d="M87.05,204.28c2.18,4.63,3.16,12.05,3.52,18.49l-6.32.67-6-15.59" transform="translate(-10.82)"/><path class="cls-118" d="M85.65,236.38s-.22,2.31-.38,3c-.1.42-.16.7-.24,1s-.13.62,0,.72.38.14.62-.71a3.65,3.65,0,0,1-.78,1.55c-.45.49-1.12,1-.94,1.24s.66,0,.66,0,.06.42.66.09c0,0,.07.34.68-.09,0,0,.24.28.8-.28a9.42,9.42,0,0,0,2.61-6.77Z" transform="translate(-10.82)"/><path class="cls-10" d="M90.56,222.65c.63,11.26-1.12,14.73-1.12,14.73l-3.82.1-1.37-14" transform="translate(-10.82)"/><path class="cls-10" d="M84.2,222.83A3.18,3.18,0,1,1,87.38,226,3.18,3.18,0,0,1,84.2,222.83Z" transform="translate(-10.82)"/><path class="cls-10" d="M78,206.4a4.79,4.79,0,1,1,4.79,4.78A4.8,4.8,0,0,1,78,206.4Z" transform="translate(-10.82)"/><path class="cls-124" d="M64.86,298.79c1.29,1.3,2.86,1.83,3.5,1.19s.11-2.21-1.18-3.51-2.86-1.82-3.5-1.18c-.39.38-.36,1.4-.36,1.79A11.19,11.19,0,0,0,64.86,298.79Z" transform="translate(-10.82)"/><path class="cls-125" d="M64.87,297.45c.84.81,1.85,1.12,2.25.7s0-1.41-.8-2.22-1.86-1.12-2.26-.7S64,296.64,64.87,297.45Z" transform="translate(-10.82)"/><path class="cls-124" d="M76.44,292.16c1.24,1.24,2.75,1.75,3.37,1.14s.11-2.12-1.14-3.37-2.74-1.75-3.36-1.14c-.37.38-.35,1.35-.35,1.72A11.5,11.5,0,0,0,76.44,292.16Z" transform="translate(-10.82)"/><path class="cls-125" d="M76.45,290.87c.82.77,1.79,1.08,2.17.67s0-1.35-.78-2.13-1.78-1.08-2.16-.67S75.64,290.09,76.45,290.87Z" transform="translate(-10.82)"/><path class="cls-125" d="M63.7,274.54s-3.28-18.4-4.9-30.2l25.26-4.79c.12,5.74.32,16.68-.32,24.59-1,11.92-5.32,25.74-5.32,25.74h0c-.09.43-.34.71-1.3.71a1.52,1.52,0,0,1-1.6-1.35l.22-18.65-2.09-16.28s-1,12.13-1.76,18.61-5.11,23.54-5.11,23.54c0,.67,0,.84-1.12.84a1.62,1.62,0,0,1-1.76-1.47h0Z" transform="translate(-10.82)"/><path class="cls-8" d="M69.71,268.14a9.42,9.42,0,0,1-3.63.22c-3.72-.52-7.64-4.56-7.64-4.56v-4.75c0-5,0-24.17,0-24.17.13-1.31.29-2.56.5-3.73a12.25,12.25,0,0,1,5-8,11.84,11.84,0,0,1,1.28-.85c3.75-2.11,10.9-3.75,15.55-2C86.9,222.72,86.9,230,86.9,230v27.46a61.26,61.26,0,0,1-7.49,5.72A56.22,56.22,0,0,1,69.71,268.14Z" transform="translate(-10.82)"/><path class="cls-126" d="M57.33,211.59c-.94,6.57-.58,31.23-.58,31.23,0,5.27,1.32,9.42,8.54,10.43a12.14,12.14,0,0,0,4.07-.25,39.48,39.48,0,0,0,15-7.61c4.42-4,4.24-7.78,4.24-11.08V210.25s0-8.08-6.84-10.72c-5.21-2-13.21-.16-17.4,2.2C64.36,201.73,58.3,204.75,57.33,211.59Z" transform="translate(-10.82)"/><path class="cls-127" d="M57.85,209.39a3.84,3.84,0,0,1,2.82-1.3c4.17,0,3.89,4.73,3.89,4.73v26.55c0,10.21,2.31,13,3.82,13.81a11.13,11.13,0,0,1-3.09.07c-7.22-1-8.54-5.16-8.54-10.43,0,0-.36-24.66.58-31.23A12.41,12.41,0,0,1,57.85,209.39Z" transform="translate(-10.82)"/><path class="cls-118" d="M61.2,248.82s.19,2.31.33,3c.1.41.15.7.23,1s.12.63,0,.73-.38.13-.61-.73a3.7,3.7,0,0,0,.76,1.57c.44.5,1.1,1,.92,1.26s-.67,0-.67,0-.06.42-.66.08c0,0-.08.33-.68-.11,0,0-.24.28-.79-.29a9.49,9.49,0,0,1-2.49-6.82Z" transform="translate(-10.82)"/><path class="cls-10" d="M62.14,232.73l-.64,18.72-3.66-.11S55,244,54.35,232.21" transform="translate(-10.82)"/><path class="cls-10" d="M54.35,232.16a3.91,3.91,0,1,1,3.84,4A3.91,3.91,0,0,1,54.35,232.16Z" transform="translate(-10.82)"/><path class="cls-10" d="M68.07,213.06,62,233.43l-7.63-1.27s-.12-1.89-.12-3.92c0-8.55,1.21-15,3.52-19.53" transform="translate(-10.82)"/><path class="cls-10" d="M57.17,211.18a5.61,5.61,0,1,1,5.59,5.63A5.62,5.62,0,0,1,57.17,211.18Z" transform="translate(-10.82)"/><path class="cls-10" d="M69.53,200.16s3.06,4.77,6.16,10.67c1.89,3.61,2.16,2.08,2.44.45,0,0,1-12.12.73-12.39C78.19,198.26,76.83,196.82,69.53,200.16Z" transform="translate(-10.82)"/><path class="cls-128" d="M70.66,186.71s-4.19-4.33-5.81,1.39a7.8,7.8,0,0,0,0,4.78c.86,2.3,2.35,3.65.41,5.28,0,0,5.27-1.36,5.81-8.34C71,189.82,71.34,187.34,70.66,186.71Z" transform="translate(-10.82)"/><path class="cls-126" d="M81.41,191.17a9.13,9.13,0,0,1-.24,3.27c-.57,2.09.9,1.91.9,1.91s-1.89.18-1.4-1.44a2.83,2.83,0,0,0-.09-2.12S80.78,191.21,81.41,191.17Z" transform="translate(-10.82)"/><path class="cls-125" d="M75.47,186.19c1.76-.07,3.83.37,4.84,2.06.66,1.1.61,3.08.67,4.55a9.12,9.12,0,0,1-2.61,6.9v.7h0A2,2,0,0,1,77.21,202a6.06,6.06,0,0,1-5.53,0,2,2,0,0,1-1.14-1.54v-7c0-.08,0-.16,0-.25C70.37,189.46,72.59,186.31,75.47,186.19Z" transform="translate(-10.82)"/><path class="cls-129" d="M76.06,200.71a3.78,3.78,0,0,0,2.31-1v.7h0A2,2,0,0,1,77.21,202a6.06,6.06,0,0,1-5.53,0,2,2,0,0,1-1.14-1.54v-7C70.78,197.15,73.23,200.82,76.06,200.71Z" transform="translate(-10.82)"/><path class="cls-126" d="M72.1,193.31c-.1-.47-.2-.81-.68-.77a1,1,0,0,0-.89.94,7.06,7.06,0,0,0,.63,2.83l-.63,2.27c-5.78-7.41-1.13-13.9-1.13-13.9a4,4,0,0,1,3.81-1.4c2.33-.88,6.17-1.09,7.91,2.26a6.58,6.58,0,0,1,.59,5.67L81,193.68c0-.29,0-.59,0-.88,0-.6,0-1.29-.08-2-6.09,0-7.35-2.12-7.35-2.12a8.44,8.44,0,0,1-.41,3.28,6.63,6.63,0,0,1-.33,2.42s-.61,1.62.13,2.18a1.42,1.42,0,0,1-.74-1.82A6.68,6.68,0,0,0,72.1,193.31Z" transform="translate(-10.82)"/><path class="cls-130" d="M64.85,188.1c.94-3.3,2.73-3.25,4.08-2.62a11.46,11.46,0,0,0-.16,10.26,7.78,7.78,0,0,1-3.56,2.42c1.94-1.63.45-3-.41-5.28A7.8,7.8,0,0,1,64.85,188.1Z" transform="translate(-10.82)"/><path class="cls-131" d="M79.05,199.52l-.13,4.91L76.26,203l-2.59,2.92-3.74-4.68a2.39,2.39,0,0,1-.43-2,2.48,2.48,0,0,1,.8-1s1.45,2.34,5.85,3.91c0,0,2-1.08,2.21-2.47a8.69,8.69,0,0,0,.64-.64A1.4,1.4,0,0,1,79.05,199.52Z" transform="translate(-10.82)"/><g class="cls-2"><g class="cls-132"><path class="cls-8" d="M79.7,200.48l-2.88,2.38a.5.5,0,0,1,.23.48v.17a1.57,1.57,0,0,1-.18.68l2.83-.94.06-.08V200.5l0,0" transform="translate(-10.82)"/><path class="cls-8" d="M72.84,204.49l0,.08v2.67l0,0,2.87-2.37a.52.52,0,0,1-.22-.48v-.18a1.49,1.49,0,0,1,.19-.68l-2.85.94" transform="translate(-10.82)"/><path class="cls-8" d="M76.31,202.92l-.07,0a1.43,1.43,0,0,0-.55.59,1.49,1.49,0,0,0-.19.68v.18a.52.52,0,0,0,.22.48.53.53,0,0,0,.52-.06l.07,0a1.55,1.55,0,0,0,.56-.6,1.57,1.57,0,0,0,.18-.68v-.17a.5.5,0,0,0-.23-.48.51.51,0,0,0-.51.06" transform="translate(-10.82)"/></g></g><polygon class="cls-8" points="75.44 208.42 75.55 209.34 70.09 211.33 69.98 210.42 75.44 208.42"/><path class="cls-117" d="M103.1,312.11c-5.85,3.41-6.88,8.38-2.29,11.05s13.13,2.07,19-1.34,6.89-8.37,2.29-11S109,308.72,103.1,312.11Z" transform="translate(-10.82)"/><path class="cls-10" d="M125.82,231.15c2.14,4.53,3.1,11.81,3.45,18.12l-6.18.66-5.93-15.29" transform="translate(-10.82)"/><path class="cls-125" d="M124.45,262.61s-.22,2.27-.38,2.91c-.1.41-.15.68-.23,1s-.13.62,0,.72.37.13.6-.71a3.68,3.68,0,0,1-.76,1.53c-.44.47-1.1.95-.93,1.21s.66,0,.66,0,0,.41.64.09c0,0,.08.33.67-.09,0,0,.24.28.79-.27a9.36,9.36,0,0,0,2.55-6.66Z" transform="translate(-10.82)"/><path class="cls-10" d="M129.27,249.15c.61,11-1.1,14.44-1.1,14.44l-3.75.1-1.35-13.76" transform="translate(-10.82)"/><circle class="cls-10" cx="115.32" cy="249.33" r="3.12"/><circle class="cls-10" cx="110.79" cy="233.22" r="4.69"/><path class="cls-119" d="M106,318.36c-1.27-1.27-2.81-1.8-3.44-1.17s-.11,2.17,1.16,3.45,2.82,1.8,3.45,1.17c.38-.38.35-1.91.35-2.31C107.34,319.1,106.54,318.87,106,318.36Z" transform="translate(-10.82)"/><path class="cls-125" d="M106,318.22c-.83-.79-1.82-1.09-2.21-.69s0,1.39.79,2.18" transform="translate(-10.82)"/><path class="cls-119" d="M116.59,312.18c-1.27-1.27-2.82-1.79-3.45-1.17s-.1,2.17,1.17,3.45,2.81,1.8,3.44,1.17c.38-.38.35-1.9.35-2.31C117.89,312.93,117.09,312.69,116.59,312.18Z" transform="translate(-10.82)"/><path class="cls-125" d="M116.56,312.05c-.83-.79-1.82-1.1-2.21-.69s0,1.38.79,2.17" transform="translate(-10.82)"/><path class="cls-120" d="M98.33,259.84l26.18.89-5.13,32.48-1.18,20h0c0,.68-.62,1.23-1.74,1.23s-1.52-.6-1.53-1.28h0s-1.91-12.66-2.81-20.74a113.6,113.6,0,0,1-.66-12.78L108.6,297.2l-.86,21.89v.07c0,.67-.66,1.23-1.91,1.23s-1.62-.57-1.66-1.21-3.33-16.71-4.14-23.32C99.29,289,97.32,262,98.33,259.84Z" transform="translate(-10.82)"/><path class="cls-10" d="M96.23,237.37c-.92,6.43-.58,30.62-.58,30.62,0,5.16,1.3,9.23,8.39,10.22a11.85,11.85,0,0,0,4-.25,38.77,38.77,0,0,0,14.71-7.46c4.34-3.92,4.16-7.61,4.16-10.86V236.05s0-7.93-6.71-10.51c-5.1-2-13-.16-17.06,2.15C103.14,227.69,97.18,230.66,96.23,237.37Z" transform="translate(-10.82)"/><path class="cls-117" d="M96.75,235.21a3.76,3.76,0,0,1,2.76-1.29c4.1,0,3.81,4.65,3.81,4.65v26c0,10,2.27,12.79,3.75,13.54a10.55,10.55,0,0,1-3,.07c-7.09-1-8.39-5.06-8.39-10.22,0,0-.34-24.18.57-30.62A13.08,13.08,0,0,1,96.75,235.21Z" transform="translate(-10.82)"/><path class="cls-125" d="M113.78,224.44a8.38,8.38,0,0,0,1.22-4.53c0-1.52.09-3.55-.55-4.69-1-1.78-3.1-2.29-4.91-2.27-3,0-5.35,3.2-5.31,7.07a7.84,7.84,0,0,0,2.21,5.59v.51c0,.52.38.57,1.06.95a5.72,5.72,0,0,0,5.19,0,1.86,1.86,0,0,0,1.08-1.47v-1.17h0" transform="translate(-10.82)"/><path class="cls-121" d="M109.68,225.83c-3-.31-3.72-1.9-4.21-4.24-4.46-4-2.76-10-2.57-10.47a1.32,1.32,0,0,0,.92.59.84.84,0,0,1-.07-.6c.76,1.17,5.5-.64,7.38-1.05s2.15.82,2.15.82,1.36-.67,2.41,1.6c.77,1.69.67,6-.07,8.14C114.82,222.92,113.92,226.29,109.68,225.83Z" transform="translate(-10.82)"/><path class="cls-133" d="M105.47,221.59a7.09,7.09,0,0,0,1,2.6v1.43a7.86,7.86,0,0,1-2.19-5.39A8.86,8.86,0,0,0,105.47,221.59Z" transform="translate(-10.82)"/><path class="cls-131" d="M110.14,226.8a7.22,7.22,0,0,1-3.86-.66s-1.53.65-1.91.83c0,0,4.94,2,8.32.42,3-1.43,1.51-2.67,1.51-2.67l-.43-.17v.74S113.29,226.52,110.14,226.8Z" transform="translate(-10.82)"/><path class="cls-10" d="M107.43,237.65h0l-4,20.58L96,256.84s0-1.56.09-3.56c.19-8.47-.55-14.59,1-19,.73-2.1,11.55-1.2,10.4,3.36" transform="translate(-10.82)"/><path class="cls-125" d="M98.42,273.8A31.49,31.49,0,0,0,97,278.64c0,.69.18,1.09-.23,1.3s-.77-.14-.77-.14a.61.61,0,0,1-.86-.11.7.7,0,0,1-.09-.17s-.54.35-.79-.51c0,0-.57.47-.73-1.16-.18-1.93,1.33-4.92,1.34-5Z" transform="translate(-10.82)"/><path class="cls-125" d="M96.64,280a1.31,1.31,0,0,0,.76-.85.89.89,0,0,0-.77-1.28S95.4,280.19,96.64,280Z" transform="translate(-10.82)"/><path class="cls-10" d="M96,256.76l-1.71,18,3.63,1.71a118.71,118.71,0,0,0,5.66-18.6" transform="translate(-10.82)"/><circle class="cls-10" cx="88.96" cy="257.1" r="3.83"/><circle class="cls-10" cx="91.2" cy="236.69" r="5.53"/><circle class="cls-8" cx="99.75" cy="184.56" r="17.94"/><path class="cls-10" d="M110.55,191.21a6.6,6.6,0,0,1-4.7-2,.53.53,0,0,1,.75-.75,5.58,5.58,0,0,0,9.53-3.95,5.32,5.32,0,0,0,0-.69.54.54,0,0,1,.46-.6.55.55,0,0,1,.6.47,7.52,7.52,0,0,1,0,.82A6.66,6.66,0,0,1,110.55,191.21Z" transform="translate(-10.82)"/><path class="cls-10" d="M104.47,185.79a.53.53,0,0,1-.52-.47,6.33,6.33,0,0,1,0-.76,6.65,6.65,0,0,1,11.35-4.7.53.53,0,0,1-.75.75,5.59,5.59,0,0,0-9.53,3.95c0,.22,0,.43,0,.64a.53.53,0,0,1-.47.59Z" transform="translate(-10.82)"/><path class="cls-10" d="M104.27,186.43l-2.12-3.17a.52.52,0,0,1,.15-.73.53.53,0,0,1,.74.14l1.43,2.15,1.89-1.71a.55.55,0,0,1,.76,0,.53.53,0,0,1,0,.75Z" transform="translate(-10.82)"/><path class="cls-10" d="M118.55,186.33a.54.54,0,0,1-.45-.24L116.67,184l-1.89,1.71a.54.54,0,0,1-.76,0,.54.54,0,0,1,0-.75l2.81-2.54L119,185.5a.53.53,0,0,1-.15.74A.52.52,0,0,1,118.55,186.33Z" transform="translate(-10.82)"/><path class="cls-117" d="M378.4,307.57c-6,3.51-7.12,8.65-2.37,11.41s13.59,2.15,19.64-1.37,7.12-8.66,2.37-11.42S384.46,304.05,378.4,307.57Z" transform="translate(-10.82)"/><path class="cls-124" d="M380.55,316.39c1.32,1.31,2.91,1.85,3.56,1.2s.11-2.24-1.2-3.55-2.9-1.86-3.55-1.21c-.4.4-.37,1.42-.37,1.82A12.07,12.07,0,0,0,380.55,316.39Z" transform="translate(-10.82)"/><path class="cls-125" d="M380.56,315c.86.82,1.89,1.14,2.29.72s0-1.44-.82-2.26-1.88-1.13-2.28-.71S379.71,314.21,380.56,315Z" transform="translate(-10.82)"/><path class="cls-124" d="M392.3,309.66c1.26,1.26,2.79,1.78,3.42,1.16s.11-2.16-1.15-3.42-2.79-1.78-3.42-1.15c-.37.37-.35,1.36-.35,1.74A12.38,12.38,0,0,0,392.3,309.66Z" transform="translate(-10.82)"/><path class="cls-125" d="M392.31,308.35c.83.79,1.81,1.09,2.2.69s0-1.38-.78-2.17-1.81-1.09-2.2-.68S391.49,307.57,392.31,308.35Z" transform="translate(-10.82)"/><path class="cls-120" d="M379,291.79s-4.73-19-6.38-31l28.78-5.12c.12,5.82-1.43,17.5-2.08,25.53-1,12.09-5.15,26.05-5.15,26.05h0c-.09.44-.58.77-1.55.77s-1.84-.37-1.84-.88l.44-19.4-2.12-16.51s-1,12.3-1.79,18.87-4.64,23.47-4.64,23.47c0,.69-.51,1.25-1.68,1.25s-2-.51-2-1.19h0Z" transform="translate(-10.82)"/><path class="cls-10" d="M401.83,220.54c2.21,4.69,3.21,12.22,3.57,18.75L399,240l-6.14-15.81" transform="translate(-10.82)"/><path class="cls-125" d="M400.41,253.09s-.23,2.35-.39,3c-.1.42-.16.71-.24,1s-.14.63,0,.73.39.14.63-.72a3.81,3.81,0,0,1-.79,1.57c-.46.5-1.14,1-1,1.26s.68,0,.68,0,.06.43.66.09c0,0,.08.35.7-.09,0,0,.24.29.81-.28a9.6,9.6,0,0,0,2.64-6.87Z" transform="translate(-10.82)"/><path class="cls-10" d="M405.39,239.16c.64,11.43-1.14,14.94-1.14,14.94l-3.87.11L399,240" transform="translate(-10.82)"/><path class="cls-10" d="M398.94,239.35a3.23,3.23,0,1,1,3.23,3.23A3.22,3.22,0,0,1,398.94,239.35Z" transform="translate(-10.82)"/><path class="cls-10" d="M392.62,222.69a4.86,4.86,0,1,1,4.86,4.85A4.87,4.87,0,0,1,392.62,222.69Z" transform="translate(-10.82)"/><path class="cls-10" d="M399.1,262.23A39.47,39.47,0,0,1,383.88,270a12.42,12.42,0,0,1-4.12.25c-7.32-1-8.66-5.23-8.66-10.57l0-27.44a16.34,16.34,0,0,1,7.7-14.24c4.24-2.4,12.36-4.26,17.64-2.23,6.94,2.67,6.94,10.89,6.94,10.87a25.08,25.08,0,0,1-1.31,10.3S406.4,255.5,399.1,262.23Z" transform="translate(-10.82)"/><path class="cls-117" d="M372.52,225.26a5.07,5.07,0,0,1,4.07-1.13c3.14.4,2.43,4.07,2.43,4.07s-3.22,29,3.85,34.68c5,4,11.57,1.92,15,.35a40.56,40.56,0,0,1-14,6.72,12.42,12.42,0,0,1-4.12.25c-7.32-1-8.66-5.23-8.66-10.57l0-27.44A17.27,17.27,0,0,1,372.52,225.26Z" transform="translate(-10.82)"/><path class="cls-125" d="M390,202.2c1.78-.07,3.87.37,4.9,2.09.67,1.11.62,3.12.68,4.61a9.26,9.26,0,0,1-2.64,7v.71h0a2,2,0,0,1-1.17,1.59,6.17,6.17,0,0,1-5.61,0,2,2,0,0,1-1.15-1.56v-5c0-.09-.66-2.66-.67-2.75A6.32,6.32,0,0,1,390,202.2Z" transform="translate(-10.82)"/><path class="cls-129" d="M390.63,216.92a3.78,3.78,0,0,0,2.35-1v.71h0a2,2,0,0,1-1.17,1.59,6.17,6.17,0,0,1-5.61,0,2,2,0,0,1-1.15-1.56v-7.07C385.28,213.32,387.76,217,390.63,216.92Z" transform="translate(-10.82)"/><path class="cls-121" d="M385,209.71l.5,2.52-.5,1.58a12.77,12.77,0,0,1-1.07-2.48c-1.33-2.86-1-5.06-.81-7.29.09-.93.37-4.71,3.17-4.94,0,0,1.48-1.51,5.61.08a4.1,4.1,0,0,0,3.77-.07,2.71,2.71,0,0,1-.18,1.63s2.24,1.95.07,7.33a6.62,6.62,0,0,0-.54-3.31,2.73,2.73,0,0,0-2-.89,3.93,3.93,0,0,0-1.2.26,6.73,6.73,0,0,0-1.5-.29c-3,.24-3,1.49-3,1.49l-.13,1.41v4.81a3.07,3.07,0,0,0,2.48,2.84,2.65,2.65,0,0,0,1.92-.85h.71s.6.92,1.16.64a3.41,3.41,0,0,0,1.82-2.3c-.13.66-1,4.71-4,5.06-3.6.42-5-1.79-5-4.29v-4.42a.73.73,0,0,0-.81-.87C384.58,207.36,384.8,208.66,385,209.71Z" transform="translate(-10.82)"/><path class="cls-134" d="M395.29,211.88a.66.66,0,0,1,0-.09A.66.66,0,0,0,395.29,211.88Z" transform="translate(-10.82)"/><path class="cls-121" d="M390.77,211.43h2.39a2.11,2.11,0,0,1,.68,1.22h-3.75A2.11,2.11,0,0,1,390.77,211.43Z" transform="translate(-10.82)"/><path class="cls-125" d="M375.62,265.71s.18,2.34.33,3c.1.42.15.71.23,1s.12.63,0,.73-.39.13-.62-.73a3.78,3.78,0,0,0,.77,1.59c.45.5,1.11,1,.93,1.27s-.67,0-.67,0-.07.43-.67.08c0,0-.08.34-.69-.1,0,0-.25.28-.81-.3a9.62,9.62,0,0,1-2.52-6.91Z" transform="translate(-10.82)"/><path class="cls-10" d="M376.56,249.39l-.64,19-3.72-.11s-2.83-7.47-3.53-19.39" transform="translate(-10.82)"/><path class="cls-10" d="M368.67,248.81a4,4,0,1,1,3.89,4A4,4,0,0,1,368.67,248.81Z" transform="translate(-10.82)"/><path class="cls-10" d="M382.58,229.44,376.4,250.1l-7.73-1.29s-.13-1.92-.13-4c0-8.66,1.23-15.18,3.58-19.8" transform="translate(-10.82)"/><path class="cls-10" d="M371.53,227.53a5.69,5.69,0,1,1,5.66,5.71A5.68,5.68,0,0,1,371.53,227.53Z" transform="translate(-10.82)"/><circle class="cls-8" cx="377.92" cy="173.84" r="15.87"/><path class="cls-135" d="M388.75,174.35l0-5.79h0a5.79,5.79,0,0,1,3.84,10.12Z" transform="translate(-10.82)"/><circle class="cls-136" cx="377.92" cy="174.35" r="8.51"/><line class="cls-136" x1="377.8" y1="174.95" x2="381.68" y2="178.83"/><line class="cls-136" x1="377.82" y1="166.05" x2="377.82" y2="162.89"/><line class="cls-136" x1="375.41" y1="162.89" x2="380.22" y2="162.89"/><circle class="cls-10" cx="377.82" cy="174.9" r="1.1"/><polygon class="cls-10" points="208.35 271.58 279.03 312.83 278.91 384.12 241.14 405.99 170.46 364.75 170.58 293.45 208.35 271.58"/><polygon class="cls-12" points="170.58 293.45 241.26 334.7 241.14 405.99 170.46 364.75 170.58 293.45"/><polygon class="cls-127" points="279.03 312.83 241.26 334.7 241.14 405.99 278.91 384.12 279.03 312.83"/><polygon class="cls-10" points="279.03 312.83 241.26 334.7 170.66 293.58 170.66 290.84 208.43 268.96 279.03 310.09 279.03 312.83"/><polygon class="cls-12" points="241.26 334.7 170.66 293.58 170.66 290.84 241.27 331.96 241.26 334.7"/><polygon class="cls-127" points="241.26 334.7 279.03 312.83 279.03 310.09 241.27 331.96 241.26 334.7"/></g></g></svg>