<svg xmlns="http://www.w3.org/2000/svg" xmlns:xlink="http://www.w3.org/1999/xlink" viewBox="0 0 484.3 493.05"><defs><style>.cls-1{fill:none;}.cls-2,.cls-26{isolation:isolate;}.cls-3{clip-path:url(#clip-path);}.cls-4{fill:#dcddde;}.cls-5{clip-path:url(#clip-path-2);}.cls-6{fill:#fff9f6;}.cls-7{fill:#d3d3d3;}.cls-8{fill:#e9e9e9;}.cls-9{fill:#9eccff;}.cls-10{fill:#2b90ff;}.cls-11{fill:#fff;}.cls-12{fill:#10355d;}.cls-13{fill:#d8d8d8;}.cls-14{fill:#ffdfca;}.cls-15{fill:#081b2f;}.cls-16{fill:#ffcfae;}.cls-17{opacity:0.1;}.cls-18{fill:#08253f;}.cls-19{fill:#eab896;}.cls-20{fill:#3a2416;opacity:0.08;}.cls-21{fill:#dbdbdb;}.cls-22{clip-path:url(#clip-path-3);}.cls-23{fill:#444549;}.cls-24{fill:#9b9b9b;}.cls-25{fill:#424242;}.cls-26{opacity:0.08;}.cls-27{fill:#8ec2ff;}.cls-28{fill:#66a9ff;}.cls-29{clip-path:url(#clip-path-4);}.cls-30{fill:#72b0ff;}.cls-31{fill:#71b0ff;}.cls-32{fill:#70afff;}.cls-33{fill:#6faeff;}.cls-34{fill:#6eaeff;}.cls-35{fill:#6dadff;}.cls-36{fill:#6cacff;}.cls-37{fill:#6bacff;}.cls-38{fill:#6aabff;}.cls-39{fill:#69aaff;}.cls-40{fill:#68aaff;}.cls-41{fill:#67a9ff;}.cls-42{fill:#66a8ff;}.cls-43{fill:#65a8ff;}.cls-44{fill:#64a7ff;}.cls-45{fill:#63a6ff;}.cls-46{fill:#62a6ff;}.cls-47{fill:#61a5ff;}.cls-48{fill:#60a4ff;}.cls-49{fill:#5ea4ff;}.cls-50{fill:#5da3ff;}.cls-51{fill:#5ca2ff;}.cls-52{fill:#5ba2ff;}.cls-53{fill:#5aa1ff;}.cls-54{fill:#59a1ff;}.cls-55{fill:#58a0ff;}.cls-56{fill:#579fff;}.cls-57{fill:#569fff;}.cls-58{fill:#559eff;}.cls-59{fill:#549dff;}.cls-60{fill:#539dff;}.cls-61{fill:#529cff;}.cls-62{fill:#4795ff;}.cls-63{fill:#f39f00;}.cls-64{fill:#303030;}</style><clipPath id="clip-path" transform="translate(-10.82)"><polygon class="cls-1" points="0 352.79 252.15 206.26 505.96 352.79 253.8 499.33 0 352.79"/></clipPath><clipPath id="clip-path-2" transform="translate(-10.82)"><polygon class="cls-1" points="0 347.09 252.15 200.55 505.96 347.08 253.8 493.62 0 347.09"/></clipPath><clipPath id="clip-path-3" transform="translate(-10.82)"><polygon class="cls-1" points="84.5 264.62 84.49 261.5 92.2 257.05 92.21 260.17 84.5 264.62"/></clipPath><clipPath id="clip-path-4" transform="translate(-10.82)"><path class="cls-1" d="M177.23,136.11,232.44,104c20.31,7.29,33.72,9.1,47,7.32l-55.22,32.09C210.94,145.21,197.54,143.4,177.23,136.11Z"/></clipPath></defs><title>Asset 1</title><g id="Layer_2" data-name="Layer 2"><g id="Layer_1-2" data-name="Layer 1"><g class="cls-2"><g class="cls-3"><path class="cls-4" d="M487.41,342.08,270.69,217c-10.24-5.91-26.78-5.91-37,0L18.42,342.09C8.25,348,8.3,357.58,18.54,363.5L235.26,488.62c10.24,5.91,26.79,5.91,37,0L487.54,363.5c10.17-5.92,10.11-15.51-.13-21.42" transform="translate(-10.82)"/></g></g><g class="cls-2"><g class="cls-5"><path class="cls-6" d="M487.41,336.38,270.69,211.26c-10.24-5.92-26.78-5.92-37,0L18.42,336.38c-10.17,5.91-10.12,15.5.12,21.41L235.26,482.91c10.24,5.91,26.79,5.92,37,0L487.54,357.79c10.17-5.91,10.11-15.5-.13-21.41" transform="translate(-10.82)"/></g></g><polyline class="cls-7" points="309.68 44.1 292.54 34.2 292.53 37.58 309.67 47.48 309.68 44.1"/><polyline class="cls-8" points="311.43 50.24 290.74 38.29 290.74 40.39 311.43 52.33 311.43 50.24"/><polyline class="cls-8" points="311.42 53.31 290.73 41.37 290.73 43.46 311.41 55.41 311.42 53.31"/><path class="cls-9" d="M312,26.52c-4.63-2.67-8.36-9.13-8.34-14.45s3.77-7.46,8.4-4.78,8.35,9.15,8.33,14.45-3.76,7.46-8.39,4.78M312,1.81V7.29c-4.63-2.68-8.38-.52-8.4,4.78l-4.78-2.76c0,8.35,5.84,18.52,13.1,22.71s13.18.83,13.2-7.52S319.29,6,312,1.81" transform="translate(-10.82)"/><path class="cls-10" d="M312,1.81c-7.26-4.2-13.17-.85-13.19,7.5l4.78,2.76c0-5.3,3.77-7.46,8.4-4.78V1.81" transform="translate(-10.82)"/><polyline class="cls-7" points="344.77 64.36 327.62 54.46 327.61 57.84 344.76 67.74 344.77 64.36"/><polyline class="cls-8" points="346.52 70.49 325.83 58.55 325.82 60.64 346.51 72.59 346.52 70.49"/><polyline class="cls-8" points="346.51 73.57 325.82 61.63 325.81 63.71 346.5 75.67 346.51 73.57"/><path class="cls-9" d="M340.6,39.56a0,0,0,0,1,0,0,0,0,0,0,0,0,0m-1.9-7.23a16.36,16.36,0,0,0,1.88,7.19,16.4,16.4,0,0,1-1.88-7.19m8.41-10.26v5.47c-4.63-2.67-8.38-.51-8.4,4.79,0-5.3,3.77-7.46,8.4-4.79s8.36,9.15,8.34,14.45-3.76,7.46-8.39,4.79a16.86,16.86,0,0,1-5.9-6.22l-3.41,1.92-.69-1.26a27.53,27.53,0,0,0,10,11.06c7.27,4.19,13.18.83,13.2-7.53s-5.85-18.49-13.12-22.68" transform="translate(-10.82)"/><path class="cls-10" d="M347.11,22.07c-7.26-4.2-13.17-.85-13.19,7.49a25.87,25.87,0,0,0,3.13,11.66l.69,1.26,3.41-1.92h0c-.19-.32-.37-.64-.54-1a0,0,0,0,0,0,0s0,0,0,0a16.36,16.36,0,0,1-1.88-7.19c0-5.3,3.77-7.46,8.4-4.79V22.07" transform="translate(-10.82)"/><path class="cls-9" d="M382.2,42.32V47.8c-4.61-2.66-8.38-.51-8.4,4.79,0-5.3,3.79-7.45,8.4-4.79s8.35,9.15,8.34,14.45c0,2.61-.93,4.44-2.38,5.34l3.43,5.8-3.43-5.8,3.43,5.8c-2.41,1.46-5.74,1.29-9.46-.85C374.85,68.34,369,58.17,369,49.82c0,8.35,5.84,18.52,13.11,22.72,3.72,2.14,7.05,2.31,9.46.85s3.72-4.28,3.73-8.38c0-8.34-5.84-18.49-13.11-22.69" transform="translate(-10.82)"/><polyline class="cls-7" points="379.86 84.62 362.71 74.71 362.7 78.1 379.84 88 379.86 84.62"/><polyline class="cls-8" points="381.62 90.76 360.91 78.81 360.91 80.9 381.62 92.86 381.62 90.76"/><polyline class="cls-8" points="381.62 93.84 360.9 81.88 360.9 83.97 381.61 95.93 381.62 93.84"/><path class="cls-10" d="M382.2,42.32c-7.26-4.19-13.17-.84-13.19,7.5s5.84,18.52,13.11,22.72c3.72,2.14,7.05,2.31,9.46.85l-3.43-5.8c-1.52.93-3.66.81-6-.55-4.61-2.66-8.35-9.13-8.34-14.45s3.79-7.45,8.4-4.79V42.32" transform="translate(-10.82)"/><polyline class="cls-10" points="377.32 67.59 380.76 73.39 377.32 67.59"/><path class="cls-11" d="M467.22,296.43v-4l8.43,4.87v4l-8.44-4.86m-23.84-13.77v-6.43l8.49,4.91v6.42l-8.49-4.9m-95.27-55,0-12.92,8.49,4.91,0,12.91-8.49-4.9M229,158.88l0-16,8.49,4.89,0,16L229,158.88m190.57,110,.05-17.81,8.44,4.87L428,273.8l-8.43-4.88m-95.26-55,0-18.8,8.45,4.87-.06,18.82-8.43-4.89m-71.47-41.25.07-26.82,8.49,4.89-.07,26.83-8.49-4.9m47.63,27.49.11-37.45,8.47,4.9L309,205.05l-8.49-4.9m-71.43-57.27.06-22.44,8.5,4.91-.07,22.42-8.49-4.89m23.87,3L253,128l8.49,4.89,0,17.81-8.49-4.89m119,95.58.13-46.84,8.44,4.86-.14,46.85L372,241.42m-23.81-26.68.11-38.79,8.49,4.9-.11,38.8-8.49-4.91m-47.55-52,0-15.59,8.49,4.89-.05,15.6-8.47-4.9m119,88.41.11-38.38,8.44,4.87L428.07,256l-8.44-4.87M276.69,186.42l.17-61.69,8.44,4.87-.19,61.69-8.42-4.87m95.39,8.16,0-16.24,8.45,4.86-.05,16.24-8.44-4.86m23.66,60.58.22-80,8.49,4.9-.21,80-8.5-4.89m47.65,21.07.25-90.07,8.49,4.89-.25,90.09-8.49-4.91m23.84,16.17L467.5,198l8.43,4.89-.27,94.39-8.43-4.87m2.41-136.64a3.76,3.76,0,0,1-.18-1.22c0-1.52,1.05-2.13,2.39-1.37a5.28,5.28,0,0,1,2.38,4.12c0,1.53-1.09,2.14-2.39,1.37a5,5,0,0,1-1.9-2.15l-19.8,2.14a3.7,3.7,0,0,1,.2,1.18c0,1.52-1.08,2.13-2.34,1.4a5.16,5.16,0,0,1-2.1-2.66L426.44,156a3.45,3.45,0,0,1,.08.72c0,1.46-1.07,2.07-2.4,1.3a5.22,5.22,0,0,1-2.39-4.06,2.45,2.45,0,0,1,.17-.87L402.29,130a1.49,1.49,0,0,1-1.93.08,5.32,5.32,0,0,1-1.63-1.7l-20.26,8a4.3,4.3,0,0,1,.39,1.72c0,1.51-1.08,2.13-2.4,1.37a4.92,4.92,0,0,1-1.38-1.32L354.36,152.3a4.66,4.66,0,0,1,.58,2.11c0,1.47-1.07,2.07-2.4,1.31a4.57,4.57,0,0,1-1.54-1.55l-20.37,9.25a4.61,4.61,0,0,1,.39,1.77c0,1.52-1,2.15-2.35,1.39a5.26,5.26,0,0,1-2.38-4.12,1.83,1.83,0,0,1,.53-1.42L306.4,125a1.92,1.92,0,0,1-1.49-.3,5.11,5.11,0,0,1-2.33-4c0-.93.42-1.52,1-1.66l-21.46-58a2,2,0,0,1-.87-.29A4.56,4.56,0,0,1,280,59.48L259.07,77.33a4.9,4.9,0,0,1,.65,2.28c0,1.52-1.07,2.14-2.35,1.39a5,5,0,0,1-1.83-2L235.6,82.09a3.68,3.68,0,0,1,.23,1.27c0,1.53-1.07,2.13-2.34,1.41a5.25,5.25,0,0,1-2.38-4.13c0-1.46,1.07-2.07,2.39-1.31a4.8,4.8,0,0,1,1.8,2.06l19.94-3.18a4,4,0,0,1-.25-1.33c0-1.53,1.07-2.13,2.4-1.37a4.52,4.52,0,0,1,1.26,1.15l20.91-17.84a4.87,4.87,0,0,1-.68-2.31c0-1.53,1.07-2.09,2.41-1.31a5.12,5.12,0,0,1,2.32,4c0,.91-.39,1.51-1,1.67l21.46,58a2,2,0,0,1,.84.28,5.26,5.26,0,0,1,2.38,4.12,1.71,1.71,0,0,1-.52,1.39l20.45,36.09a1.88,1.88,0,0,1,1.45.27,4.43,4.43,0,0,1,1.55,1.58l20.39-9.21a4.56,4.56,0,0,1-.42-1.77c0-1.52,1.07-2.13,2.35-1.4a4.75,4.75,0,0,1,1.38,1.31l20.73-14.09a4.82,4.82,0,0,1-.59-2.18c0-1.5,1.07-2.06,2.4-1.3a5,5,0,0,1,1.63,1.66l20.28-8A4.36,4.36,0,0,1,398,126c0-1.52,1.09-2.13,2.4-1.37a5.2,5.2,0,0,1,2.33,4.11,2.24,2.24,0,0,1-.15.86l19.59,23.09a1.52,1.52,0,0,1,2-.06,5.3,5.3,0,0,1,2.1,2.67l19.45,2.57a3.11,3.11,0,0,1-.07-.73c0-1.53,1.07-2.14,2.39-1.37a5.08,5.08,0,0,1,1.87,2.17l19.76-2.15" transform="translate(-10.82)"/><polyline class="cls-10" points="226.72 147.78 218.23 142.88 218.18 158.88 226.67 163.79 226.72 147.78"/><polyline class="cls-9" points="226.78 125.35 218.29 120.44 218.23 142.88 226.72 147.78 226.78 125.35"/><polyline class="cls-10" points="250.59 150.73 242.1 145.84 242.02 172.66 250.51 177.56 250.59 150.73"/><polyline class="cls-9" points="250.64 132.92 242.15 128.03 242.1 145.84 250.59 150.73 250.64 132.92"/><polyline class="cls-10" points="274.48 129.59 266.03 124.73 265.86 186.42 274.29 191.29 274.48 129.59"/><polyline class="cls-10" points="298.24 167.6 289.76 162.7 289.65 200.15 298.14 205.05 298.24 167.6"/><polyline class="cls-9" points="298.29 152 289.79 147.11 289.76 162.7 298.24 167.6 298.29 152"/><polyline class="cls-10" points="321.99 199.98 313.54 195.11 313.49 213.91 321.92 218.8 321.99 199.98"/><polyline class="cls-10" points="345.81 219.65 337.32 214.74 337.29 227.66 345.78 232.56 345.81 219.65"/><polyline class="cls-9" points="345.92 180.85 337.43 175.95 337.32 214.74 345.81 219.65 345.92 180.85"/><polyline class="cls-10" points="369.69 199.44 361.25 194.58 361.13 241.42 369.56 246.29 369.69 199.44"/><polyline class="cls-9" points="369.74 183.2 361.3 178.34 361.25 194.58 369.69 199.44 369.74 183.2"/><polyline class="cls-10" points="393.63 180.03 385.14 175.13 384.92 255.16 393.41 260.05 393.63 180.03"/><polyline class="cls-10" points="417.25 255.98 408.81 251.11 408.76 268.92 417.19 273.8 417.25 255.98"/><polyline class="cls-9" points="417.36 217.6 408.92 212.73 408.81 251.11 417.25 255.98 417.36 217.6"/><polyline class="cls-10" points="441.06 281.14 432.57 276.23 432.55 282.66 441.04 287.56 441.06 281.14"/><polyline class="cls-9" points="441.31 191.05 432.82 186.16 432.57 276.23 441.06 281.14 441.31 191.05"/><polyline class="cls-10" points="464.84 297.27 456.41 292.4 456.39 296.44 464.84 301.3 464.84 297.27"/><polyline class="cls-9" points="465.1 202.88 456.67 197.99 456.41 292.4 464.84 297.27 465.1 202.88"/><path class="cls-10" d="M233.5,79.33c-1.32-.76-2.39-.15-2.39,1.31a5.25,5.25,0,0,0,2.38,4.13c1.27.72,2.34.12,2.34-1.41a3.68,3.68,0,0,0-.23-1.27l-2,.31-.3-.7,2-.31a4.8,4.8,0,0,0-1.8-2.06" transform="translate(-10.82)"/><path class="cls-10" d="M259.07,77.33l-1.53,1.3-2,.32a5,5,0,0,0,1.83,2c1.28.75,2.35.13,2.35-1.39a4.9,4.9,0,0,0-.65-2.28m-1.68-1.82c-1.33-.76-2.38-.16-2.4,1.37a4,4,0,0,0,.25,1.33l1.94-.31,1.47-1.24a4.52,4.52,0,0,0-1.26-1.15" transform="translate(-10.82)"/><path class="cls-10" d="M281.23,58.43l-1.23,1a4.56,4.56,0,0,0,1.27,1.15,2,2,0,0,0,.87.29l-.91-2.49m.06-3.23c-1.34-.78-2.4-.22-2.41,1.31a4.87,4.87,0,0,0,.68,2.31l1.76-1.49.2.58,1.11,3c.59-.16,1-.76,1-1.67a5.12,5.12,0,0,0-2.32-4" transform="translate(-10.82)"/><path class="cls-10" d="M303.6,119c-.6.14-1,.73-1,1.66a5.11,5.11,0,0,0,2.33,4,1.92,1.92,0,0,0,1.49.3l-1.68-3-1.12-3m1.33.26a2,2,0,0,0-.84-.28l1.09,2.94,1.61,2.85a1.71,1.71,0,0,0,.52-1.39,5.26,5.26,0,0,0-2.38-4.12" transform="translate(-10.82)"/><path class="cls-10" d="M326.82,161a1.83,1.83,0,0,0-.53,1.42,5.26,5.26,0,0,0,2.38,4.12c1.32.76,2.35.13,2.35-1.39a4.61,4.61,0,0,0-.39-1.77l-1.94.89-.2-.36L326.82,161m1.87.05a1.88,1.88,0,0,0-1.45-.27l1.45,2.55,1.55-.7a4.43,4.43,0,0,0-1.55-1.58" transform="translate(-10.82)"/><path class="cls-10" d="M354.36,152.3l-1.57,1.06-1.79.81a4.57,4.57,0,0,0,1.54,1.55c1.33.76,2.38.16,2.4-1.31a4.66,4.66,0,0,0-.58-2.11m-1.8-2c-1.28-.73-2.35-.12-2.35,1.4a4.56,4.56,0,0,0,.42,1.77l1.76-.8,1.55-1.06a4.75,4.75,0,0,0-1.38-1.31" transform="translate(-10.82)"/><path class="cls-10" d="M378.47,136.38l-1.85.71-1.54,1.06a4.92,4.92,0,0,0,1.38,1.32c1.32.76,2.4.14,2.4-1.37a4.3,4.3,0,0,0-.39-1.72m-2-2.35c-1.33-.76-2.4-.2-2.4,1.3a4.82,4.82,0,0,0,.59,2.18l1.59-1.09,1.85-.73a5,5,0,0,0-1.63-1.66" transform="translate(-10.82)"/><path class="cls-10" d="M400.38,127.7l-1.65.65a5.32,5.32,0,0,0,1.63,1.7,1.49,1.49,0,0,0,1.93-.08l-1.91-2.27m0-3.1c-1.31-.76-2.4-.15-2.4,1.37a4.36,4.36,0,0,0,.41,1.71l1.94-.77.16.21,2.07,2.45a2.24,2.24,0,0,0,.15-.86,5.2,5.2,0,0,0-2.33-4.11" transform="translate(-10.82)"/><path class="cls-10" d="M421.9,153.09a2.45,2.45,0,0,0-.17.87,5.22,5.22,0,0,0,2.39,4.06c1.33.77,2.4.16,2.4-1.3a3.45,3.45,0,0,0-.08-.72l-2.32-.31-.15-.14-2.07-2.46m2.24-.49a1.52,1.52,0,0,0-2,.06l2,2.33,2.12.28a5.3,5.3,0,0,0-2.1-2.67" transform="translate(-10.82)"/><path class="cls-10" d="M450.14,158.65l-2,.2-2.25-.28a5.16,5.16,0,0,0,2.1,2.66c1.26.73,2.33.12,2.34-1.4a3.7,3.7,0,0,0-.2-1.18M448,155.74c-1.32-.77-2.39-.16-2.39,1.37a3.11,3.11,0,0,0,.07.73l2.21.29,2-.22a5.08,5.08,0,0,0-1.87-2.17" transform="translate(-10.82)"/><path class="cls-10" d="M471.85,153.17c-1.34-.76-2.39-.15-2.39,1.37a3.76,3.76,0,0,0,.18,1.22l2-.23.31.77-2.05.21a5,5,0,0,0,1.9,2.15c1.3.77,2.37.16,2.39-1.37a5.28,5.28,0,0,0-2.38-4.12" transform="translate(-10.82)"/><path class="cls-9" d="M306.79,124.73a1.16,1.16,0,0,1-.39.22L326.82,161a1.21,1.21,0,0,1,.42-.22l-20.45-36.09M255.24,78.21,235.3,81.39a3.88,3.88,0,0,1,.3.7L255.54,79a6,6,0,0,1-.3-.74M282.63,60.9a2,2,0,0,1-.49,0l21.46,58a1,1,0,0,1,.49,0l-21.46-58m-3.07-2.08L258.65,76.66c.15.22.29.44.42.67L280,59.48a6.31,6.31,0,0,1-.44-.66m190.08,96.94-19.76,2.15a4.07,4.07,0,0,1,.26.74l19.8-2.14a6.17,6.17,0,0,1-.3-.75" transform="translate(-10.82)"/><path class="cls-10" d="M235.3,81.39l-2,.31.3.7,2-.31a3.88,3.88,0,0,0-.3-.7" transform="translate(-10.82)"/><path class="cls-10" d="M258.65,76.66l-1.47,1.24-1.94.31a6,6,0,0,0,.3.74l2-.32,1.53-1.3c-.13-.23-.27-.45-.42-.67" transform="translate(-10.82)"/><path class="cls-10" d="M281.32,57.33l-1.76,1.49a6.31,6.31,0,0,0,.44.66l1.23-1,.91,2.49a2,2,0,0,0,.49,0l-1.11-3-.2-.58" transform="translate(-10.82)"/><path class="cls-10" d="M304.09,118.94a1,1,0,0,0-.49,0l1.12,3,1.68,3a1.16,1.16,0,0,0,.39-.22l-1.61-2.85-1.09-2.94" transform="translate(-10.82)"/><path class="cls-9" d="M350.63,153.46l-20.39,9.21a5.89,5.89,0,0,1,.39.75L351,154.17c-.14-.24-.26-.47-.37-.71m24-16L353.94,151.6a4.48,4.48,0,0,1,.42.7l20.72-14.15c-.14-.2-.28-.42-.41-.64m71,20.33-19.45-2.57a4.2,4.2,0,0,1,.2.73l19.46,2.57a4.53,4.53,0,0,1-.21-.73m-47.3-30.16-20.28,8a5.64,5.64,0,0,1,.36.69l20.26-8a5.26,5.26,0,0,1-.34-.67m4.17,1.89a1.41,1.41,0,0,1-.27.4l19.61,23.12a1.31,1.31,0,0,1,.25-.43l-19.59-23.09" transform="translate(-10.82)"/><path class="cls-10" d="M327.24,160.82a1.21,1.21,0,0,0-.42.22l1.67,2.91.2.36,1.94-.89a5.89,5.89,0,0,0-.39-.75l-1.55.7-1.45-2.55" transform="translate(-10.82)"/><path class="cls-10" d="M353.94,151.6l-1.55,1.06-1.76.8c.11.24.23.47.37.71l1.79-.81,1.57-1.06a4.48,4.48,0,0,0-.42-.7" transform="translate(-10.82)"/><path class="cls-10" d="M378.11,135.69l-1.85.73-1.59,1.09c.13.22.27.44.41.64l1.54-1.06,1.85-.71a5.64,5.64,0,0,0-.36-.69" transform="translate(-10.82)"/><path class="cls-10" d="M400.33,126.91l-1.94.77a5.26,5.26,0,0,0,.34.67l1.65-.65,1.91,2.27a1.41,1.41,0,0,0,.27-.4l-2.07-2.45-.16-.21" transform="translate(-10.82)"/><path class="cls-10" d="M422.15,152.66a1.31,1.31,0,0,0-.25.43l2.07,2.46.15.14,2.32.31a4.2,4.2,0,0,0-.2-.73l-2.12-.28-2-2.33" transform="translate(-10.82)"/><path class="cls-10" d="M449.88,157.91l-2,.22-2.21-.29a4.53,4.53,0,0,0,.21.73l2.25.28,2-.2a4.07,4.07,0,0,0-.26-.74" transform="translate(-10.82)"/><path class="cls-10" d="M471.68,155.53l-2,.23a6.17,6.17,0,0,0,.3.75l2.05-.21-.31-.77" transform="translate(-10.82)"/><path class="cls-10" d="M456.48,100.21,414.6,76c.11,13.24,9.39,29.23,20.87,35.86s20.82,1.39,21-11.68" transform="translate(-10.82)"/><path class="cls-9" d="M450.56,79.66l-14.43,8.2,20.35,11.75c-.05-6.47-2.31-13.6-5.92-20" transform="translate(-10.82)"/><path class="cls-12" d="M435.6,63.75c-11.48-6.63-20.81-1.39-21,11.68l20.8,12L450.18,79c-3.76-6.41-8.89-12-14.58-15.25" transform="translate(-10.82)"/><polyline class="cls-7" points="468.59 90.41 453.67 81.8 453.66 84.74 468.58 93.35 468.59 90.41"/><polyline class="cls-8" points="471.68 96.68 453.66 86.27 453.65 88.09 471.67 98.5 471.68 96.68"/><polyline class="cls-8" points="471.67 99.33 453.65 88.92 453.64 90.74 471.67 101.16 471.67 99.33"/><polyline class="cls-7" points="468.54 106.82 453.62 98.2 453.61 101.13 468.53 109.75 468.54 106.82"/><polyline class="cls-8" points="471.63 113.07 453.61 102.66 453.61 104.48 471.63 114.89 471.63 113.07"/><polyline class="cls-8" points="471.63 115.72 453.6 105.31 453.6 107.14 471.62 117.55 471.63 115.72"/><polyline class="cls-7" points="468.5 123.21 453.57 114.59 453.56 117.54 468.49 126.16 468.5 123.21"/><polyline class="cls-8" points="471.58 129.46 453.56 119.05 453.56 120.87 471.58 131.28 471.58 129.46"/><polyline class="cls-8" points="471.58 132.12 453.55 121.71 453.55 123.53 471.57 133.94 471.58 132.12"/><path class="cls-13" d="M74.7,356.38c-6.62,3.84-7.78,9.46-2.59,12.47s14.84,2.34,21.46-1.5,7.78-9.46,2.59-12.48S81.31,352.53,74.7,356.38Z" transform="translate(-10.82)"/><path class="cls-11" d="M100.3,261.29c2.41,5.12,3.5,13.35,3.9,20.49l-7,.74-6.7-17.27" transform="translate(-10.82)"/><path class="cls-14" d="M98.75,296.86s-.25,2.56-.43,3.28c-.11.46-.18.78-.26,1.11s-.15.7,0,.81.42.14.69-.8a4.17,4.17,0,0,1-.87,1.73c-.5.54-1.24,1.09-1,1.37s.73,0,.73,0,.07.47.73.1c0,0,.08.38.76-.1,0,0,.26.31.89-.31a10.49,10.49,0,0,0,2.88-7.5Z" transform="translate(-10.82)"/><path class="cls-11" d="M104.19,281.64C104.89,294.12,103,298,103,298l-4.24.11-1.52-15.55" transform="translate(-10.82)"/><path class="cls-11" d="M97.14,281.84a3.53,3.53,0,1,1,3.52,3.53A3.53,3.53,0,0,1,97.14,281.84Z" transform="translate(-10.82)"/><path class="cls-11" d="M90.24,263.63a5.3,5.3,0,1,1,5.3,5.3A5.3,5.3,0,0,1,90.24,263.63Z" transform="translate(-10.82)"/><path class="cls-15" d="M75.7,366c1.44,1.43,3.17,2,3.89,1.31s.12-2.45-1.31-3.88-3.17-2-3.89-1.32c-.42.43-.39,1.55-.39,2A13.52,13.52,0,0,0,75.7,366Z" transform="translate(-10.82)"/><path class="cls-16" d="M75.71,364.53c.94.89,2.06,1.24,2.51.77s0-1.56-.9-2.46-2.06-1.24-2.5-.77S74.78,363.63,75.71,364.53Z" transform="translate(-10.82)"/><path class="cls-15" d="M88.54,358.67c1.38,1.38,3,1.94,3.73,1.26s.12-2.35-1.26-3.73-3-1.94-3.72-1.26c-.42.41-.39,1.49-.39,1.9A12.64,12.64,0,0,0,88.54,358.67Z" transform="translate(-10.82)"/><path class="cls-16" d="M88.55,357.23c.9.87,2,1.2,2.41.75s0-1.5-.87-2.36-2-1.19-2.4-.75S87.65,356.38,88.55,357.23Z" transform="translate(-10.82)"/><path class="cls-16" d="M74.42,339.14S70.78,318.75,69,305.67l28-5.3c.14,6.36.36,18.48-.36,27.25-1.07,13.21-5.88,28.52-5.88,28.52h0c-.1.47-.37.79-1.43.79a1.7,1.7,0,0,1-1.78-1.5l.24-20.67-2.31-18s-1.12,13.44-2,20.62-5.66,26.08-5.66,26.08c0,.75,0,.93-1.25.93a1.79,1.79,0,0,1-2-1.62h0Z" transform="translate(-10.82)"/><path class="cls-10" d="M81.08,332.05a10.49,10.49,0,0,1-4,.25c-4.13-.58-8.46-5.06-8.46-5.06V322c0-5.58,0-26.78,0-26.78.14-1.46.32-2.84.55-4.14a13.56,13.56,0,0,1,5.54-8.83,11.28,11.28,0,0,1,1.42-.94c4.15-2.34,12.08-4.15,17.23-2.17,6.77,2.61,6.77,10.62,6.77,10.61v30.44a69.81,69.81,0,0,1-8.3,6.33A63.08,63.08,0,0,1,81.08,332.05Z" transform="translate(-10.82)"/><path class="cls-12" d="M67.36,269.39c-1,7.27-.64,34.61-.64,34.61,0,5.83,1.46,10.43,9.47,11.55a13.67,13.67,0,0,0,4.5-.27c6.18-1.33,13.69-5.79,16.62-8.44,4.91-4.43,4.7-8.62,4.7-12.27V267.9s0-9-7.58-11.87c-5.76-2.22-14.64-.19-19.28,2.43C75.15,258.46,68.44,261.81,67.36,269.39Z" transform="translate(-10.82)"/><path class="cls-17" d="M67.94,267a4.26,4.26,0,0,1,3.12-1.44c4.63,0,4.31,5.24,4.31,5.24v29.42c0,11.31,2.57,14.46,4.24,15.3a12,12,0,0,1-3.42.08c-8-1.12-9.47-5.72-9.47-11.55,0,0-.4-27.34.64-34.61A13,13,0,0,1,67.94,267Z" transform="translate(-10.82)"/><path class="cls-14" d="M71.66,310.64s.2,2.56.36,3.29c.1.46.17.78.25,1.12s.13.69,0,.8-.42.14-.67-.81a4,4,0,0,0,.83,1.74c.49.55,1.22,1.11,1,1.4s-.74,0-.74,0-.07.47-.73.09c0,0-.08.37-.75-.11,0,0-.27.3-.88-.33a10.48,10.48,0,0,1-2.75-7.55Z" transform="translate(-10.82)"/><path class="cls-11" d="M72.69,292.81,72,313.56l-4.06-.13s-3.1-8.16-3.87-21.19" transform="translate(-10.82)"/><path class="cls-11" d="M64.06,292.18a4.33,4.33,0,1,1,4.26,4.41A4.33,4.33,0,0,1,64.06,292.18Z" transform="translate(-10.82)"/><path class="cls-11" d="M79.27,271l-6.75,22.58-8.46-1.41s-.13-2.1-.13-4.35c0-9.47,1.34-16.59,3.9-21.63" transform="translate(-10.82)"/><path class="cls-11" d="M67.19,268.93a6.22,6.22,0,1,1,6.19,6.24A6.22,6.22,0,0,1,67.19,268.93Z" transform="translate(-10.82)"/><path class="cls-11" d="M80.88,256.72s3.39,5.28,6.83,11.83c2.1,4,2.4,2.3,2.7.5,0,0,1.13-13.43.81-13.73C90.48,254.62,89,253,80.88,256.72Z" transform="translate(-10.82)"/><path class="cls-18" d="M82.14,241.81s-4.65-4.79-6.45,1.55a8.69,8.69,0,0,0,0,5.3c1,2.54,2.6,4,.45,5.84,0,0,5.85-1.5,6.45-9.24C82.54,245.26,82.89,242.51,82.14,241.81Z" transform="translate(-10.82)"/><path class="cls-12" d="M94.05,246.76a10.15,10.15,0,0,1-.27,3.62c-.63,2.32,1,2.12,1,2.12s-2.1.2-1.55-1.59a3.15,3.15,0,0,0-.1-2.35S93.35,246.81,94.05,246.76Z" transform="translate(-10.82)"/><path class="cls-16" d="M87.47,241.25c2-.08,4.23.4,5.36,2.28.73,1.21.67,3.41.74,5a10.15,10.15,0,0,1-2.89,7.65V257h0a2.19,2.19,0,0,1-1.28,1.74,6.76,6.76,0,0,1-6.13,0A2.21,2.21,0,0,1,82,257v-7.72c0-.09,0-.18,0-.28C81.81,244.86,84.27,241.38,87.47,241.25Z" transform="translate(-10.82)"/><path class="cls-19" d="M88.11,257.33a4.2,4.2,0,0,0,2.57-1.11V257h0a2.19,2.19,0,0,1-1.28,1.74,6.76,6.76,0,0,1-6.13,0A2.21,2.21,0,0,1,82,257v-7.72C82.27,253.39,85,257.45,88.11,257.33Z" transform="translate(-10.82)"/><path class="cls-12" d="M83.72,249.13c-.11-.51-.21-.9-.75-.86a1.08,1.08,0,0,0-1,1,7.71,7.71,0,0,0,.7,3.14L82,255c-6.41-8.2-1.25-15.4-1.25-15.4A4.49,4.49,0,0,1,85,238c2.59-1,6.84-1.21,8.76,2.5,0,0,1.8,2.34.66,6.29l-.82,2.73c0-.32,0-.65,0-1,0-.67,0-1.43-.09-2.18-6.75,0-8.15-2.34-8.15-2.34a9.4,9.4,0,0,1-.44,3.63,7.31,7.31,0,0,1-.38,2.68s-.67,1.79.15,2.42a1.58,1.58,0,0,1-.82-2A7.2,7.2,0,0,0,83.72,249.13Z" transform="translate(-10.82)"/><path class="cls-20" d="M75.69,243.36c1-3.66,3-3.61,4.53-2.91A12.69,12.69,0,0,0,80,251.82a8.6,8.6,0,0,1-4,2.68c2.15-1.8.5-3.3-.45-5.84A8.69,8.69,0,0,1,75.69,243.36Z" transform="translate(-10.82)"/><path class="cls-21" d="M91.43,256l-.15,5.44-2.94-1.63-2.87,3.23-4.14-5.19a2.06,2.06,0,0,1,.4-3.24s1.61,2.59,6.49,4.33c0,0,2.19-1.2,2.45-2.73,0,0,.43-.4.7-.72C91.37,255.5,91.41,255.54,91.43,256Z" transform="translate(-10.82)"/><g class="cls-2"><g class="cls-22"><path class="cls-10" d="M92.14,257.08,89,259.71a.57.57,0,0,1,.25.53v.2a1.71,1.71,0,0,1-.2.74l3.13-1,.06-.09v-3l-.06,0" transform="translate(-10.82)"/><path class="cls-10" d="M84.55,261.52l-.06.09v2.95l.06,0L87.73,262a.61.61,0,0,1-.24-.53v-.19a1.64,1.64,0,0,1,.21-.76l-3.15,1" transform="translate(-10.82)"/><path class="cls-10" d="M88.39,259.77l-.07,0a1.75,1.75,0,0,0-.62.67,1.64,1.64,0,0,0-.21.76v.19a.61.61,0,0,0,.24.53.58.58,0,0,0,.59,0l.08-.05a1.79,1.79,0,0,0,.62-.68,1.71,1.71,0,0,0,.2-.74v-.2a.57.57,0,0,0-.25-.53.59.59,0,0,0-.58.06" transform="translate(-10.82)"/></g></g><polygon class="cls-10" points="88.6 265.88 88.72 266.89 82.67 269.1 82.55 268.09 88.6 265.88"/><path class="cls-13" d="M118.08,380.78c-6.48,3.77-7.63,9.27-2.54,12.23s14.56,2.3,21-1.47,7.64-9.28,2.55-12.24S124.56,377,118.08,380.78Z" transform="translate(-10.82)"/><path class="cls-11" d="M143.26,291.06c2.36,5,3.43,13.09,3.82,20.09l-6.85.72-6.57-16.94" transform="translate(-10.82)"/><path class="cls-16" d="M141.74,325.93s-.25,2.5-.42,3.22c-.11.45-.17.75-.26,1.09s-.15.68,0,.79.41.14.67-.78a3.83,3.83,0,0,1-.85,1.68c-.49.53-1.21,1.06-1,1.36s.72,0,.72,0,.07.45.72.09c0,0,.08.37.74-.09,0,0,.26.3.87-.31a10.39,10.39,0,0,0,2.83-7.38Z" transform="translate(-10.82)"/><path class="cls-11" d="M147.07,311c.69,12.24-1.21,16-1.21,16l-4.15.11-1.5-15.25" transform="translate(-10.82)"/><circle class="cls-11" cx="132.79" cy="311.21" r="3.46"/><circle class="cls-11" cx="127.77" cy="293.35" r="5.19"/><path class="cls-23" d="M121.33,387.7c-1.41-1.41-3.12-2-3.82-1.3s-.11,2.41,1.3,3.82,3.12,2,3.81,1.3c.43-.42.39-2.11.39-2.56C122.78,388.52,121.89,388.27,121.33,387.7Z" transform="translate(-10.82)"/><path class="cls-16" d="M121.31,387.55c-.92-.88-2-1.22-2.46-.77s0,1.54.88,2.41" transform="translate(-10.82)"/><path class="cls-23" d="M133,380.86c-1.4-1.42-3.12-2-3.81-1.3s-.12,2.4,1.29,3.82,3.12,2,3.82,1.29c.42-.42.39-2.11.38-2.55C134.47,381.68,133.58,381.41,133,380.86Z" transform="translate(-10.82)"/><path class="cls-16" d="M133,380.7c-.92-.87-2-1.22-2.45-.76s-.05,1.53.87,2.41" transform="translate(-10.82)"/><path class="cls-24" d="M112.8,322.85l29,1-5.69,36L134.81,382h0c0,.75-.69,1.37-1.92,1.37s-1.69-.67-1.71-1.42h0s-2.11-14-3.11-23a129.07,129.07,0,0,1-.73-14.17l-3.17,19.47-1,24.26v.07c0,.75-.73,1.37-2.11,1.37s-1.8-.63-1.85-1.34-3.69-18.52-4.58-25.84C113.86,355.2,111.67,325.21,112.8,322.85Z" transform="translate(-10.82)"/><path class="cls-11" d="M110.46,298c-1,7.13-.63,33.93-.63,33.93,0,5.72,1.44,10.23,9.29,11.33a13.62,13.62,0,0,0,4.41-.27c6.07-1.3,13.43-5.68,16.3-8.27,4.81-4.35,4.61-8.44,4.61-12V296.49s0-8.78-7.43-11.65c-5.65-2.17-14.35-.18-18.91,2.39C118.12,287.23,111.52,290.52,110.46,298Z" transform="translate(-10.82)"/><path class="cls-13" d="M111.05,295.56a4.12,4.12,0,0,1,3.06-1.42c4.53,0,4.22,5.14,4.22,5.14v28.85c0,11.07,2.51,14.17,4.15,15a12.14,12.14,0,0,1-3.35.08c-7.85-1.1-9.29-5.61-9.29-11.32,0,0-.38-26.8.63-33.93A13.12,13.12,0,0,1,111.05,295.56Z" transform="translate(-10.82)"/><path class="cls-16" d="M129.92,283.63a9.23,9.23,0,0,0,1.34-5c0-1.68.11-3.94-.6-5.21-1.1-2-3.44-2.53-5.44-2.51-3.3,0-5.93,3.55-5.89,7.84a8.77,8.77,0,0,0,2.45,6.2v.56c0,.58.42.62,1.18,1.05a6.31,6.31,0,0,0,5.74,0,2,2,0,0,0,1.2-1.63v-1.3h0" transform="translate(-10.82)"/><path class="cls-25" d="M125.37,285.17c-3.29-.35-4.12-2.11-4.66-4.7-4.94-4.44-3.06-11.13-2.85-11.61a1.45,1.45,0,0,0,1,.66,1,1,0,0,1-.07-.66c.84,1.3,6.09-.71,8.18-1.17s2.38.91,2.38.91,1.51-.74,2.67,1.78c.85,1.86.75,6.66-.08,9C131.06,281.94,130.07,285.68,125.37,285.17Z" transform="translate(-10.82)"/><path class="cls-26" d="M120.71,280.47a7.81,7.81,0,0,0,1.05,2.88v1.58a8.68,8.68,0,0,1-2.43-6A10.39,10.39,0,0,0,120.71,280.47Z" transform="translate(-10.82)"/><path class="cls-21" d="M125.88,286.24a8,8,0,0,1-4.28-.73s-1.69.72-2.11.92c0,0,5.48,2.26,9.22.47,3.29-1.59,1.67-3,1.67-3l-.47-.18v.81S129.37,285.94,125.88,286.24Z" transform="translate(-10.82)"/><path class="cls-11" d="M122.88,298.27h0l-4.4,22.8-8.3-1.54s0-1.73.1-3.94c.21-9.39-.61-16.17,1.08-21,.81-2.33,12.79-1.33,11.52,3.72" transform="translate(-10.82)"/><path class="cls-16" d="M112.9,338.32s-1.65,4.44-1.61,5.36c0,.76.2,1.22-.26,1.45a.59.59,0,0,1-.85-.16.67.67,0,0,1-1-.13.64.64,0,0,1-.1-.18s-.6.39-.88-.57c0,0-.64.53-.81-1.28-.2-2.14,1.47-5.45,1.49-5.5Z" transform="translate(-10.82)"/><path class="cls-16" d="M110.93,345.17a1.47,1.47,0,0,0,.83-.94c.24-.75-.15-1.43-.85-1.41C110.91,342.8,109.55,345.4,110.93,345.17Z" transform="translate(-10.82)"/><path class="cls-11" d="M110.19,319.44l-1.89,19.94,4,1.89a131.11,131.11,0,0,0,6.27-20.62" transform="translate(-10.82)"/><circle class="cls-11" cx="103.59" cy="319.82" r="4.25"/><circle class="cls-11" cx="106.07" cy="297.2" r="6.13"/><circle class="cls-10" cx="115.53" cy="239.44" r="19.88"/><path class="cls-11" d="M126.34,246.8a7.31,7.31,0,0,1-5.21-2.15.6.6,0,0,1,0-.84.59.59,0,0,1,.83,0,6.19,6.19,0,0,0,10.56-4.37,4.9,4.9,0,0,0-.05-.77A.6.6,0,0,1,133,238a.58.58,0,0,1,.65.51,7.11,7.11,0,0,1,.06.92A7.37,7.37,0,0,1,126.34,246.8Z" transform="translate(-10.82)"/><path class="cls-11" d="M119.6,240.8a.58.58,0,0,1-.58-.52,7.89,7.89,0,0,1,0-.84,7.36,7.36,0,0,1,12.57-5.21.59.59,0,0,1-.83.83,6.19,6.19,0,0,0-10.56,4.38,5.48,5.48,0,0,0,0,.7.6.6,0,0,1-.52.66Z" transform="translate(-10.82)"/><path class="cls-11" d="M119.38,241.51,117,238a.59.59,0,0,1,1-.66l1.59,2.38,2.1-1.9a.59.59,0,0,1,.79.88Z" transform="translate(-10.82)"/><path class="cls-11" d="M135.2,241.4a.59.59,0,0,1-.49-.27l-1.59-2.37-2.1,1.89a.59.59,0,1,1-.79-.87l3.11-2.81,2.35,3.51a.6.6,0,0,1-.17.82A.63.63,0,0,1,135.2,241.4Z" transform="translate(-10.82)"/><g class="cls-2"><polygon class="cls-27" points="160.03 289.71 215.25 257.62 256.61 281.5 201.39 313.59 160.03 289.71"/><polygon class="cls-27" points="245.19 338.88 300.4 306.79 335.84 327.25 280.63 359.34 245.19 338.88"/><polygon class="cls-28" points="280.63 359.34 335.84 327.25 335.73 367.87 280.51 399.96 280.63 359.34"/><g class="cls-2"><g class="cls-29"><g class="cls-2"><path class="cls-30" d="M177.23,136.11,232.44,104l2.45.87L179.68,137c-.81-.27-1.62-.56-2.45-.86" transform="translate(-10.82)"/><path class="cls-31" d="M179.68,137l55.21-32.08,2.4.81-55.21,32.09c-.79-.26-1.59-.53-2.4-.82" transform="translate(-10.82)"/><path class="cls-32" d="M182.08,137.79l55.21-32.09,2.23.73L184.3,138.52l-2.22-.73" transform="translate(-10.82)"/><path class="cls-33" d="M184.3,138.52l55.22-32.09,2.07.65-55.21,32.09-2.08-.65" transform="translate(-10.82)"/><path class="cls-34" d="M186.38,139.17l55.21-32.09,1.94.58-55.22,32.08-1.93-.57" transform="translate(-10.82)"/><path class="cls-35" d="M188.31,139.74l55.22-32.08,1.81.52-55.22,32.08-1.81-.52" transform="translate(-10.82)"/><path class="cls-36" d="M190.12,140.26l55.22-32.08,1.72.47-55.21,32.08-1.73-.47" transform="translate(-10.82)"/><path class="cls-37" d="M191.85,140.73l55.21-32.08,1.65.42-55.22,32.09-1.64-.43" transform="translate(-10.82)"/><path class="cls-38" d="M193.49,141.16l55.22-32.09,1.55.38-55.21,32.09-1.56-.38" transform="translate(-10.82)"/><path class="cls-39" d="M195.05,141.54l55.21-32.09,1.51.35-55.21,32.09-1.51-.35" transform="translate(-10.82)"/><path class="cls-40" d="M196.56,141.89l55.21-32.09,1.45.31L198,142.2l-1.44-.31" transform="translate(-10.82)"/><path class="cls-41" d="M198,142.2l55.22-32.09,1.4.28L199.4,142.48l-1.4-.28" transform="translate(-10.82)"/><path class="cls-42" d="M199.4,142.48l55.22-32.09,1.36.26-55.22,32.09-1.36-.26" transform="translate(-10.82)"/><path class="cls-43" d="M200.76,142.74,256,110.65l1.32.23L202.08,143l-1.32-.23" transform="translate(-10.82)"/><path class="cls-44" d="M202.08,143l55.22-32.09,1.29.2-55.21,32.09-1.3-.2" transform="translate(-10.82)"/><path class="cls-45" d="M203.38,143.17l55.21-32.09,1.27.19-55.21,32.08c-.42,0-.85-.11-1.27-.18" transform="translate(-10.82)"/><path class="cls-46" d="M204.65,143.35l55.21-32.08,1.25.16L205.9,143.51l-1.25-.16" transform="translate(-10.82)"/><path class="cls-47" d="M205.9,143.51l55.21-32.08,1.24.14-55.22,32.08-1.23-.14" transform="translate(-10.82)"/><path class="cls-48" d="M207.13,143.65l55.22-32.08,1.22.11-55.21,32.09-1.23-.12" transform="translate(-10.82)"/><path class="cls-49" d="M208.36,143.77l55.21-32.09,1.22.1-55.22,32.09-1.21-.1" transform="translate(-10.82)"/><path class="cls-50" d="M209.57,143.87l55.22-32.09,1.21.08L210.79,144l-1.22-.08" transform="translate(-10.82)"/><path class="cls-51" d="M210.79,144,266,111.86l1.22.06L212,144l-1.21-.06" transform="translate(-10.82)"/><path class="cls-52" d="M212,144l55.22-32.09,1.23,0-55.21,32.09L212,144" transform="translate(-10.82)"/><path class="cls-53" d="M213.24,144.05,268.45,112l1.24,0-55.22,32.08h-1.23" transform="translate(-10.82)"/><path class="cls-54" d="M214.47,144.06,269.69,112H271l-55.22,32.09h-1.26" transform="translate(-10.82)"/><path class="cls-55" d="M215.73,144.06,271,112c.43,0,.86,0,1.28,0L217,144l-1.29,0" transform="translate(-10.82)"/><path class="cls-56" d="M217,144l55.21-32.09,1.31,0L218.33,144,217,144" transform="translate(-10.82)"/><path class="cls-57" d="M218.33,144l55.21-32.09,1.37-.08L219.7,143.89l-1.37.09" transform="translate(-10.82)"/><path class="cls-58" d="M219.7,143.89l55.21-32.08c.47,0,.95-.07,1.42-.12l-55.22,32.09-1.41.11" transform="translate(-10.82)"/><path class="cls-59" d="M221.11,143.78l55.22-32.09q.74-.06,1.47-.15l-55.21,32.09c-.49.06-1,.11-1.48.15" transform="translate(-10.82)"/><path class="cls-60" d="M222.59,143.63l55.21-32.09c.52-.05,1-.12,1.56-.19l-55.21,32.09-1.56.19" transform="translate(-10.82)"/><path class="cls-61" d="M224.15,143.44l55.21-32.09h.08l-55.22,32.09h-.07" transform="translate(-10.82)"/></g></g></g><path class="cls-62" d="M256.52,162.08l-.5,176.8,35.43,20.46L291.34,400l-120.6-69.63.12-40.62,41.36,23.88.35-125.79-35.43-20.46.09-31.23c20.31,7.29,33.71,9.1,47,7.32Z" transform="translate(-10.82)"/><polygon class="cls-28" points="245.69 162.08 300.91 129.99 300.4 306.79 245.19 338.88 245.69 162.08"/><polygon class="cls-27" points="213.4 143.43 268.61 111.34 300.91 129.99 245.69 162.08 213.4 143.43"/></g><path class="cls-13" d="M258.16,452.48c6.69,3.89,7.87,9.57,2.63,12.62s-15,2.37-21.71-1.52S231.21,454,236.45,451,251.47,448.59,258.16,452.48Z" transform="translate(-10.82)"/><path class="cls-11" d="M232.18,359.83c-2.44,5.18-3.54,13.51-4,20.73l7.1.75,6.78-17.48" transform="translate(-10.82)"/><path class="cls-14" d="M233.75,395.81s.25,2.59.43,3.32c.11.47.18.79.27,1.12s.15.71,0,.82-.42.14-.69-.8a4.11,4.11,0,0,0,.88,1.74c.52.53,1.25,1.1,1.05,1.39s-.74,0-.74,0-.07.47-.74.1c0,0-.08.38-.77-.1,0,0-.26.32-.89-.31a10.64,10.64,0,0,1-2.92-7.59Z" transform="translate(-10.82)"/><path class="cls-11" d="M228.24,380.41c-.7,12.66,1.26,16.52,1.26,16.52l4.29.11,1.54-15.73" transform="translate(-10.82)"/><circle class="cls-11" cx="220.98" cy="380.63" r="3.57"/><circle class="cls-11" cx="236.99" cy="362.2" r="5.36" transform="translate(-169.32 538.12) rotate(-80.78)"/><path class="cls-23" d="M254.83,459.42c1.46-1.45,3.22-2.05,3.94-1.34s.12,2.49-1.33,3.94a8.7,8.7,0,0,1-2,1.64,1.61,1.61,0,0,1-1.95-.3c-.44-.43-.41-2.2-.41-2.63C253.34,460.27,254.25,460,254.83,459.42Z" transform="translate(-10.82)"/><path class="cls-14" d="M254.84,459.4c.94-.91,2.08-1.26,2.53-.79s0,1.58-.91,2.49" transform="translate(-10.82)"/><path class="cls-23" d="M242.74,452.49c1.46-1.46,3.22-2.06,3.94-1.34s.12,2.48-1.33,3.94a9,9,0,0,1-2,1.64,1.62,1.62,0,0,1-2-.3c-.43-.44-.4-2.21-.4-2.64C241.25,453.34,242.16,453.07,242.74,452.49Z" transform="translate(-10.82)"/><path class="cls-14" d="M242.77,452.33c.95-.91,2.08-1.26,2.53-.79s0,1.59-.91,2.49a3.9,3.9,0,0,1-1.8,1.09" transform="translate(-10.82)"/><path class="cls-14" d="M263.61,392.63l-30,1,5.87,37.14,1.61,22.83h0c0,.78.53,1.9,1.72,1.4,1.71-.71,1.68-1.4,1.81-2,0,0,2.11-13.93,3.16-23.16a134.08,134.08,0,0,0,.76-14.58l3.23,20.09,1.35,24.93v.08c0,.77.43,1.83,1.79,1.49,1.67-.42,1.86-1.16,1.91-1.89s3.82-18.6,4.74-26.18C262.51,426,264.77,395.07,263.61,392.63Z" transform="translate(-10.82)"/><path class="cls-24" d="M253.17,431.21a9.88,9.88,0,0,0,3.79.23c3.88-.53,8-4.75,8-4.75V396.56c-.13-1.37-.3-2.67-.52-3.89a12.7,12.7,0,0,0-5.21-8.31,11.89,11.89,0,0,0-1.34-.88c-3.9-2.2-11.36-3.9-16.21-2-6.37,2.45-6.36,10-6.37,10V420a65.48,65.48,0,0,0,7.81,6A59.16,59.16,0,0,0,253.17,431.21Z" transform="translate(-10.82)"/><path class="cls-11" d="M266,366.94c1.06,7.36.65,35,.65,35,0,5.9-1.48,10.55-9.58,11.69a13.73,13.73,0,0,1-4.56-.28c-6.26-1.34-13.84-5.85-16.81-8.53-5-4.49-4.75-8.73-4.75-12.42v-27s0-9.06,7.67-12c5.84-2.24,14.82-.18,19.52,2.47C258.12,355.89,264.91,359.28,266,366.94Z" transform="translate(-10.82)"/><path class="cls-13" d="M265.41,364.47a4.31,4.31,0,0,0-3.16-1.46c-4.68,0-4.36,5.31-4.36,5.31v29.76c0,11.45-2.6,14.63-4.29,15.48a12.23,12.23,0,0,0,3.47.08c8.09-1.13,9.58-5.8,9.58-11.69,0,0,.39-27.65-.66-35A13,13,0,0,0,265.41,364.47Z" transform="translate(-10.82)"/><path class="cls-14" d="M254.67,346.8c.05-4.43-2.67-8.05-6.07-8.09-2.07,0-4.48.56-5.62,2.59-.73,1.31-.61,3.64-.62,5.38a9.6,9.6,0,0,0,1.38,5.17v1.89a2.14,2.14,0,0,0,1.24,1.69,6.55,6.55,0,0,0,5.94,0,2.15,2.15,0,0,0,1.22-1.66v-.55A9,9,0,0,0,254.67,346.8Z" transform="translate(-10.82)"/><path class="cls-25" d="M255.77,343.43a5.9,5.9,0,0,0-.63-5.21c-1.81-2.86-3.11-3.77-5.1-4.22a6.37,6.37,0,0,0-3.46.25,3.85,3.85,0,0,0-3.16.53,6.93,6.93,0,0,0-2.11,2.64c-.79,1.36-.89,3.34-.87,5.41a12.23,12.23,0,0,0,3.23,9.32,6.3,6.3,0,0,0,1.49.69c1.33.4,5.28.7,6.91-2.85a20.59,20.59,0,0,0,.82-2.67c0-.41-.42-1.95.33-2.48s.83.53.83.53a6.61,6.61,0,0,1-.35,2.64c-.45.79-.61,2.67.25,3.28,0,0-.7-1.41,0-2.2A6.83,6.83,0,0,0,255.77,343.43Z" transform="translate(-10.82)"/><path class="cls-63" d="M243.27,337.45s-4.7-4.85-6.52,1.58a8.71,8.71,0,0,0-.05,5.36c1,2.58,2.64,4.09.45,5.91,0,0,5.91-1.51,6.52-9.35C243.68,340.93,244,338.15,243.27,337.45Z" transform="translate(-10.82)"/><path class="cls-64" d="M243.27,337.45s-4.7-4.85-6.52,1.58a8.71,8.71,0,0,0-.05,5.36c1,2.58,2.64,4.09.45,5.91,0,0,5.91-1.51,6.52-9.35C243.68,340.93,244,338.15,243.27,337.45Z" transform="translate(-10.82)"/><path class="cls-11" d="M253.2,367.28h0l4.55,23.53,8.56-1.58s-.05-1.8-.1-4.07c-.23-9.69.62-16.68-1.12-21.72-.84-2.4-13.19-1.37-11.89,3.84" transform="translate(-10.82)"/><path class="cls-14" d="M263.48,408.6s1.7,4.59,1.67,5.53-.2,1.26.26,1.49c.63.32.88-.16.88-.16a.69.69,0,0,0,1-.17l.08-.15s.61.4.9-.58c0,0,.66.53.84-1.33.21-2.21-1.52-5.62-1.53-5.67Z" transform="translate(-10.82)"/><path class="cls-14" d="M265.54,415.68a1.53,1.53,0,0,1-.86-1c-.25-.77.16-1.47.89-1.46C265.56,413.24,267,415.91,265.54,415.68Z" transform="translate(-10.82)"/><path class="cls-11" d="M266.3,389.12l1.95,20.56-4.14,2a135,135,0,0,1-6.47-21.26" transform="translate(-10.82)"/><circle class="cls-11" cx="251.12" cy="389.51" r="4.38"/><circle class="cls-11" cx="248.59" cy="366.14" r="6.32"/><circle class="cls-10" cx="238.2" cy="305.49" r="19.88"/><path class="cls-11" d="M257.63,311.23H244.72a4.88,4.88,0,1,1,0-9.75h12a.57.57,0,1,1,0,1.14h-12a3.73,3.73,0,0,0,0,7.46h12.91a.58.58,0,0,1,0,1.15Z" transform="translate(-10.82)"/><path class="cls-11" d="M253.61,306.06a.59.59,0,0,1-.42-.18.58.58,0,0,1,0-.81l3.23-3-3.23-3a.59.59,0,0,1,0-.82.57.57,0,0,1,.81,0l4.13,3.86L254,305.91A.58.58,0,0,1,253.61,306.06Z" transform="translate(-10.82)"/></g></g></svg>