<svg xmlns="http://www.w3.org/2000/svg" viewBox="0 0 3609.35 1400"><defs><style>.cls-1{opacity:.5}.cls-2{fill:#8d8883}.cls-3{fill:#f26b30}.cls-4{fill:#fbc500}.cls-5{fill:#e8aa85}.cls-6{fill:#0d4c5f}.cls-7{fill:#0b3f4f}.cls-8{fill:#ededed}.cls-9{fill:#128397}.cls-10{fill:#0f3c5f}.cls-11{fill:#e09f79}.cls-12{fill:#69472f}.cls-13{fill:#fff}.cls-14{fill:#98ddeb}.cls-15{fill:#8e684e}.cls-16{fill:#21ada4}.cls-17{fill:#81a1b9}.cls-18{fill:#f25512}.cls-19{fill:#403c3b}.cls-20{fill:#363231}.cls-21{fill:#0c2d48}.cls-22{fill:#825f47}.cls-23{fill:#94b8d4}.cls-24{fill:#dceaf6}.cls-25{fill:#546e80}.cls-26{fill:#eaf1f7}.cls-27{fill:#cde1f1}.cls-28{fill:#e8eff5}.cls-29{opacity:.1}.cls-30{fill:#71899f}.cls-31{fill:#e7f0f7}.cls-32{opacity:.08}.cls-33{fill:#dea17c}.cls-34{fill:#966643}.cls-35{fill:#dfe6e9}.cls-36{fill:#061826}.cls-37{fill:#4f4a49}.cls-38{fill:#eab99f}</style></defs><g id="Layer_2" data-name="Layer 2"><g id="Layer_1-2" data-name="Layer 1"><g class="cls-1"><rect width="528.5" height="13.88" x="2257.97" y="848.32" class="cls-2"/><polygon points="2264.05 876.02 2264.05 834.5 2228.09 855.26 2264.05 876.02" class="cls-2"/><polygon points="2780.4 876.02 2816.36 855.26 2780.4 834.5 2780.4 876.02" class="cls-2"/></g><polygon points="1494.44 905.87 1116.54 905.87 1116.54 891.7 1090.23 911.7 1116.54 931.7 1116.54 917.52 1494.44 917.52 1494.44 931.7 1520.76 911.7 1494.44 891.7 1494.44 905.87" class="cls-3"/><polygon points="770.42 905.87 392.52 905.87 392.52 891.7 366.2 911.7 392.52 931.7 392.52 917.52 770.42 917.52 770.42 931.7 796.74 911.7 770.42 891.7 770.42 905.87" class="cls-3"/><path d="M1590.28,847.32c-4.93,12.3-39.56,128,31.25,108.42l32.5-71.07-42-80.87S1601.7,818.75,1590.28,847.32Z" class="cls-4"/><path d="M1740.87,994.57s-3.48,5.08-3.14,13.76,2.14,20.26,2.18,23.9l0,3.64s5.32,2.69,5.38-6.07.43-15.78,3-11.71,5.37,9.2,4.78,12.25-.61,15.65-.61,15.65-.46,5.78,3.86,5.64c0,0,4.39-17.16,5-22.67s-3.13-26-7.43-33.73C1752.17,992.07,1748.48,987.71,1740.87,994.57Z" class="cls-5"/><path d="M1693.28,822.13l-.08,0S1693.26,822.13,1693.28,822.13Z" class="cls-6"/><path d="M1741.6,929.32c-7.39-34.24-7.21-60.76-9.76-103.09-1.8-29.85-11.86-37.74-24.68-47.73-10.24-8.12-16.55,1.9-23.06,13.18-6.73,11.67-1.13,23.58,9.1,30.4l-.18-.25c9.72,3.87,10,26.31,10.47,34.63.53,9.22-.46,18.73.79,27.88,2.46,18,8.34,36.24,13.31,53.6,3.88,13.54,15.55,45.73,19.53,59.25,1.51,5.1,18.11.07,16.83-4.7C1751.12,981.94,1744.71,943.74,1741.6,929.32Z" class="cls-6"/><path d="M1715.2,787.05a6.67,6.67,0,0,1,.63-1.39c-1.46-1.36-3-2.65-4.59-3.93A34.37,34.37,0,0,1,1715.2,787.05Z" class="cls-7"/><path d="M1739,972.5c0-6.11.35-12.26,0-18.37-.53-9.62-1.92-19.2-2.46-28.83-.38-6.79-7.49-81.41-9-87-1.27-4.64-3.18-8.91-4.86-13.34a5.78,5.78,0,0,1-6.6-3c-4-7.52-5.94-15.94-9.57-23.63-3.15-6.66-7.41-13.53-15.75-11.72a6.54,6.54,0,0,1-3.54-.15c-1,1.66-2.07,3.42-3.1,5.21-6.73,11.67-1.13,23.58,9.1,30.4l-.18-.25c9.72,3.87,10,26.31,10.47,34.63.53,9.22-.46,18.73.79,27.88,2.46,18,8.34,36.24,13.31,53.6,3.88,13.54,15.55,45.73,19.53,59.25.4,1.36,1.88,2,3.79,2.11C1738.56,990.55,1738.93,980.31,1739,972.5Z" class="cls-7"/><path d="M1667.18,762.1c-44.65,3.29-49.8,60.85-48.62,74.88,2.4,28.25,6.37,47.8,9.63,69.77,2,13.22-14.76,33.62-15.78,62.93l96.72,1.77s-2.69-68.47,5.4-118.13C1719.23,824.41,1707,759.17,1667.18,762.1Z" class="cls-8"/><path d="M1670.53,977.26c-5,9.59-2.29,19.87-.91,30,1.9,13.84,1.62,27.7,3.26,41.57,6.3,53.49,11.5,106.82,12.91,160.61.68,25.94,1.22,51.89,1.78,77.83.1,4.7-.62,10.4,2.16,14.51,6.51,9.62,19.66,4.32,21.39-5.64,4.05-23.43,4.56-48,6.59-71.69,2.27-26.28,4.41-52.6,5.9-78.94a1566.19,1566.19,0,0,0,.57-156.86C1722.93,960.94,1683.48,952.55,1670.53,977.26Z" class="cls-9"/><path d="M1616.09,981.65c-6,9.47-3.9,19.45-2.48,29.82,2.05,15,3.78,30,5.31,45,5,49.61,5.78,98.94,5.59,148.75q-.15,39.08-.38,78.14c0,4.43-.73,9.48.06,13.9,1.87,10.41,17.28,7.46,22.25-2.18,3.78-7.3,19.41-112.1,22.21-140.43,5.1-51.59,9.26-102.45,6.91-154.24C1674.34,974.14,1630.28,959.42,1616.09,981.65Z" class="cls-9"/><path d="M1615.62,963.05l-2.5,25c-1.63,17.63,21.78,33.86,47.57,36.26l5.84,4.72c42.22,3.42,50.58-18.58,52.21-36.21l-3.59-35.11Z" class="cls-9"/><path d="M1738.49,1308c-9.08-1-28.45-12.84-28.45-12.84l-21.74-.06s-2.83,9.89-2.82,18.35c0,2.64,1.59,7.14,1.59,7.14l62.92.19S1752.59,1309.47,1738.49,1308Z" class="cls-10"/><path d="M1658.47,1307.91c-6.28-1-12-12.81-12-12.81l-21.63,0s-3.62,9.89-3.62,16.13c0,7.76,1.73,9.36,1.73,9.36l43.48.13S1668.2,1309.42,1658.47,1307.91Z" class="cls-10"/><path d="M1682.63,765.57s-.05-.4-.15-1.11-.23-1.7-.42-2.87c-.38-2.35-1-5.38-1.64-8.34s-1.41-5.86-2-8c-.31-1.1-.56-2-.74-2.64-.1-.34-.17-.6-.22-.78s-.08-.27-.08-.27a10.31,10.31,0,0,0-20.4,3s0,.11,0,.23,0,.36,0,.63c0,.59,0,1.41-.09,2.41-.09,2-.25,4.68-.48,7.31s-.55,5.21-.84,7.07c-.14.93-.27,1.69-.37,2.21s-.15.82-.15.82a14.24,14.24,0,0,0-.11,4.38,14,14,0,1,0,27.76-3.7Z" class="cls-11"/><path d="M1660.84,800.36c-3.26-14.18-8.68-32.81-8.1-34.88-60.75,16-43.84,55.24-41.4,84.32,1.91,22.63,14.65,41.76,9.85,65.71-5.38,26.83-11.85,69.33-13.58,90.79,21.71.07,41.33.69,62.94-1.36-.29-49-2.55-115.05-2.53-135.26C1668.08,825.7,1669.44,837.76,1660.84,800.36Z" class="cls-6"/><path d="M1731.79,950.86c-1.65-51.11-2.17-68.57-4-90.4-4.56-52.82,5.89-73.84-45.26-96,.19.3,1.88,5.69,2,6,7.59,16.57,14.23,53.19,16.57,71.09,2.26,17.32,8.87,104.31,8.34,164.73,9.32.93,14.31,2.21,22.37,0C1731.6,1001,1732,956.23,1731.79,950.86Z" class="cls-6"/><path d="M1633.71,696c-8.19,15,27.85,55.2,27.85,55.2s12.56,13.33,32,1.68c24.43-14.63-8.38-69.81-8.38-69.81S1640.09,684.34,1633.71,696Z" class="cls-5"/><path d="M1636,771.61c-.36-.41-1.57-1.12-3.72-.5l-5,2.17c-3.55,2-2.13,3.78-2.23,4.13s1.46-.92,1.46-.92c4.42,4,17.57,18.58,22.38,48.88,6.27,39.44-3.58,72.17-41.9,103.29v14.22s33.56-31.2,42.61-52.44c14.3-33.57,12.78-59.65,7.58-77C1649.73,788.51,1638.62,774.62,1636,771.61Z" class="cls-4"/><path d="M1664.5,830.41c-2.64-2-8.62,1.29-12.62,4.58s-4.73,21.86-4.73,21.86l7.92,8s15.27-5.9,16.62-11.86S1667.14,832.41,1664.5,830.41Z" class="cls-5"/><path d="M1651.88,835c-1.9-.92-2.28-5-2.28-5s-3.5,5.84-3.75,7.89,1.3,19,1.3,19l6.3-12.23S1653.79,835.91,1651.88,835Z" class="cls-5"/><path d="M1648.08,849.37c-4.8,4.53-22.71,18.34-29.28,23.38-3.48,2.68-14.86,11-14.86,11,3.34-7.91,11-20.2,15-27.83,6.55-12.64,9.25-16.32,16.72-28.43,6.91-11.14.3-43.82-11.54-49.36,0,0-11.54,5.4-20,20.48-33.55,59.64-38.22,108.43-28.72,119.06,2.73,3,6.53,5.71,12.42,4.79,9-1.42,28.64-4.11,58.08-42,3.81-4.91,14.62-17.69,15.14-21C1662,853,1652.27,845.41,1648.08,849.37Z" class="cls-6"/><path d="M1681.3,757.44s.44,7.11-1,11.2l8.91,14.91a56.62,56.62,0,0,0,2.49-8.52c.84-5.15-.55-7.11-.55-7.11Z" class="cls-6"/><path d="M1656.33,755.59,1647,767.13c2.92,10.08,10.69,20.37,10.69,20.37l8-15.91C1655.14,767.34,1656.33,755.59,1656.33,755.59Z" class="cls-6"/><path d="M1682.83,675.37c-16.44-4.72-32-1.21-45.25,9.21-15.16,11.91-15.79,56-3.59,69.23s26.68,6,26.68,6l-2.87-23.3c-3,1.83-6.85-1.05-7-10s10.59-.48,10.59-.48.34-11.82,2.4-17.56,33.9-7.8,33.9-7.8S1698.72,679.93,1682.83,675.37Z" class="cls-12"/><path d="M1687.31,722.69c-4.31.93-15.54,5.17-20.06,5.1,4.36,7.44,5.79,22.1-3.3,25.72a16.41,16.41,0,0,0,2.54,2.08c11.92,8.66,30,3.81,35.17-5.61,3.88-7.07,2.43-18.66-.11-28.78C1695.56,721.86,1694,721.25,1687.31,722.69Z" class="cls-13"/><path d="M1690.42,725.2c-3.81.82-13.5,3.82-18.13,5.3,6.74,11.63-.4,21.72-5.27,25.45.76.81,2.76,1.57,3.7,2.06,10.31,5.32,26.91,1.06,31.48-7.27,3.43-6.25,2.65-16.59.4-25.54C1698.42,724.74,1696.35,723.93,1690.42,725.2Z" class="cls-14"/><polygon points="1658 724.25 1671.29 730.84 1676.03 729.25 1661.09 723.44 1658 724.25" class="cls-13"/><path d="M1655.87,737s3.62,13.18,8.92,17.31l1.7-1.78a55.76,55.76,0,0,1-8.69-16Z" class="cls-13"/><path d="M298.53,991.65s-3.92,4.86-4,13.52,1.19,20.27,1.05,23.9l-.14,3.63s5.44,3,6-5.75,2.47-17.78,5-13.58,5.05,11.6,4.28,14.6-2.54,15.48-2.54,15.48-.78,5.72,3.77,5.83c0,0,5.5-16.84,6.4-22.29s-1.94-26.08-6-34C310.54,989.79,306.88,985.24,298.53,991.65Z" class="cls-15"/><path d="M277.38,919.19l0,.09c0,.1.07.34.05.21l0-.15v-.06Z" class="cls-15"/><path d="M277.41,919.27c-.06-.3,0-.19,0,0h0Z" class="cls-15"/><path d="M277.41,919.28v0Z" class="cls-15"/><path d="M277.41,919.28v0c.06.3.14.79.12.68l0-.26,0-.21a1.31,1.31,0,0,0-.08-.21Z" class="cls-15"/><path d="M312.08,993l-.72-2.19c-.49-1.42-1.17-3.52-2.12-6.16s-2.05-5.86-3.39-9.52q-1-2.75-2.15-5.82l-2.43-6.43-2.68-7-2.91-7.43-3.11-7.82c-1.07-2.65-2.16-5.37-3.28-8.13-2.22-5.48-4.53-11.14-6.87-16.9-1.13-2.84-2.31-5.72-3.32-8.42-.23-.59-.43-1.16-.61-1.68l0,.2,0,.27c0,.11-.06-.38-.12-.68v0l0,.15c0,.13,0-.11-.05-.22l0-.08-.1-.3-.09-.31,0-.08v-.06h0s0,0,0,.09l.12.38.07.29,0,.09c0-.21-.06-.31,0,0h0a2,2,0,0,1,.08.22l0-.33-.1-1.06c-.07-.71-.15-1.41-.19-2.15-.43-5.78-.65-11.8-.73-17.79s0-12,.05-17.77c.05-2.91.1-5.77.16-8.56s.14-5.56.21-8.24c.16-5.36.32-10.44.47-15.12s.29-9,.42-12.82c0-.9.06-1.76.08-2.6a170.2,170.2,0,0,1-30.65-8.13c-.28,2.54-.6,5.48-.88,8.81-.35,3.93-.69,8.38-1,13.23s-.55,10.12-.71,15.71c-.09,2.8-.14,5.67-.17,8.62s-.05,6,0,9c0,6.14.26,12.52.65,19.06s1,13.25,2.06,20.12c.12.85.27,1.73.42,2.6l.22,1.3.11.65.05.33c0-.14.27,1.53.16.86l0,.07,0,.14.12.51.18.66.2.66.08.24,0,.13.19.52.18.47.32.8.3.71c.38.9.76,1.72,1.12,2.51,1.47,3.14,2.89,6,4.36,8.89,2.9,5.71,5.84,11.19,8.71,16.48l4.29,7.75,4.18,7.37,4,7,3.82,6.45,3.56,5.9,3.27,5.3c2.06,3.32,3.91,6.19,5.43,8.56s2.76,4.2,3.59,5.46l1.3,1.92A7.69,7.69,0,0,0,312.08,993Z" class="cls-15"/><path d="M219.83,940.34c-21.33-8.93-45.34,8.56-43.36,31.59.43,5,2.08,9.92,2.92,14.87,1.2,7,2,14,2.7,21.09a425.31,425.31,0,0,1,1.58,44.72c-.17,14.83-1.19,29.62-2.58,44.37-.64,6.85-1.5,13.67-2.35,20.5-.66,5.32-.68,12.39-2.79,17.3-2.54,5.9-21.59,45.33-37.46,79.85-10.06,21.89-17.49,44.87-25.83,67.48a8,8,0,0,0,8.56,10.63c6.82-1,11-8.64,13.67-13.63,6.86-12.75,77.53-123.45,79.24-128.73,1.91-5.9,3.75-11.85,5.53-17.79,4.21-14,6.72-28.67,9.82-43,6.28-29,8.92-59.2,10.16-88.92C240.52,979.68,243.42,950.22,219.83,940.34Z" class="cls-15"/><path d="M227.23,972.3Z" class="cls-15"/><path d="M307.71,1081.54c-7.15-27.41-18.21-64.84-29.5-90.81-4.2-9.65-9.67-17.87-19.85-22a32.76,32.76,0,0,0-40.22,47.52c6.43,10.49,13.62,20.48,19.85,31.13,14.73,25.2,25.18,54.21,40,92.25,1.67,4.28,1.85,9.28,2,13.92,1.64,39.43,19.48,98.45,26,126.85,1.32,5.78,2.27,11.85,4,17.52,3.18,10.17,19.71,4.37,19.37-6-.7-21.49-11.35-141.51-12.59-154.81C314,1106.44,312.48,1099.87,307.71,1081.54Z" class="cls-15"/><path d="M269.85,927.88l.14-.65c-27.69-2.08-53.53-4.31-81.24-8.88-.22.81-4.06,20.85-8.32,29.06-13.14,25.3-34.7,204-34.7,204s22.48,21.1,85.82,16.42c29.24-2.15,95.57-14.74,95.57-14.74s-11.27-48-25.56-100C287,1000.11,269.45,943,269.85,927.88Z" class="cls-16"/><path d="M364.56,1294.94c-11,3.08-30.48-5.63-34.71-13l-23.1,4.44s-1.45,14.25,5.63,34.39c0,0,13.74,0,20.43-4s33.92-4.66,44.29-18.82C377.1,1298,375.6,1291.86,364.56,1294.94Z" class="cls-17"/><path d="M370,1294.08c-16.7,11.46-38.63,17.28-58.3,18.67a11.75,11.75,0,0,1-1.78,0c.68,2.54,1.48,5.2,2.46,8,0,0,13.74,0,20.43-4s33.92-4.66,44.29-18.82C377.1,1298,376.12,1294,370,1294.08Z" class="cls-6"/><path d="M152,1307.67c-10.92-2.67-11.71-5.51-14.72-10.48-3.63-6-3.45-11.09-2.21-15.3L115,1272.55s-9.7,8.08-18.74,26.07c0,0,14.64,15,34.72,19.63,7.15,1.65,10.83,2.14,27.24-.08C158.18,1318.17,162.52,1310.24,152,1307.67Z" class="cls-17"/><path d="M158.86,1313.12c-20.58,2.3-40.05-4.43-57.05-15.82a11.1,11.1,0,0,1-3.18-3.2c-.8,1.44-1.61,2.93-2.41,4.52,0,0,14.64,15,34.72,19.63,7.15,1.65,10.83,2.14,27.24-.08a8,8,0,0,0,.73-5.06Z" class="cls-6"/><path d="M267.1,789.9c-7.74-4.17-19.32-8.23-30.18-8.46-12.17-.25-23.75,4.14-29.35,6-36.06,12-29,34-25.63,54.95,11.29,69.28-7.06,116.7-7.06,116.7s39.26,16.66,103.09,4.59c0,0-5.9-28.1-5.76-35.79.42-22.16,4.46-88.37,4.46-88.37C275.22,818.4,289.12,801.76,267.1,789.9Z" class="cls-18"/><path d="M288.68,853.11h.05l-16.34-46.83-3.32,29.43-55-1.48c-9.77-.26-17.95,7.9-18.25,18.23l0,1.53c-.3,10.34,7.38,18.93,17.15,19.19l56.72,1.52c9.78.26,20.89-7.92,19.33-21Z" class="cls-18"/><path d="M210.86,785.65,203.23,789s15.36-4.84,16.9,32.41S224,886.19,224,886.19h8.24s-2.6-66.16-7.43-85.84C221.33,786.22,210.86,785.65,210.86,785.65Z" class="cls-19"/><path d="M242.21,895.91A10.27,10.27,0,0,0,232,886.19H165a8.06,8.06,0,0,0-8,7.6l-2.36,42.47a12.48,12.48,0,0,0,12.47,13.14h64.82a12.49,12.49,0,0,0,12.48-13.16Z" class="cls-19"/><path d="M233.41,914.83c-1.58.33-3.39.55-5.35.84l-3.06.45c-1.06.14-2.14.37-3.28.46-2.25.24-4.63.49-7.09.79s-5,.34-7.59.57-5.23.19-7.86.3-5.26,0-7.85,0-5.15-.12-7.6-.37l-3.63-.28-3.46-.38L175,917l-1.61-.23-3.05-.43c-1.94-.37-3.75-.63-5.32-1s-2.94-.64-4.07-.9-2-.51-2.6-.7-.92-.27-.92-.27,1.2.58,3.38,1.41c1.1.38,2.43.88,4,1.32s3.33.93,5.27,1.42l3,.66,1.62.33,1.67.27,3.49.56,3.67.41,1.88.21,1.92.13c1.28.09,2.59.18,3.9.25,2.63.08,5.3.09,8,.11s5.34-.2,8-.39,5.2-.48,7.68-.77,4.86-.75,7.13-1.11,4.36-.9,6.31-1.31,3.74-.81,5.3-1.29l4-1.16,3.5-1-3.6.6Z" class="cls-20"/><path d="M229.37,946.06c-7.55-4.66-52.83-33.9-63.75-46.64,8.84-20.29,22.66-47.51,37.65-70.32,4.25-6.47,10.11-10.55,9.51-19.16s-8.72-15.48-17.43-13.55c-7.56,1.67-12.94,10.55-17.29,16.33a253.81,253.81,0,0,0-17.67,27.21c-9.84,17.19-19.6,40.75-23.94,60.22a12,12,0,0,0-.63,8,12.19,12.19,0,0,0,3.81,6.45c3.35,3.74,8,6.93,11.43,9.49a227.91,227.91,0,0,0,23.49,15.25c14.5,8.35,26.65,11.51,42,18a6.93,6.93,0,0,0,9.36-4.78C226.75,949.06,232.18,947.79,229.37,946.06Z" class="cls-15"/><path d="M203.11,791c-7.56,1.68-15.8,6.06-20.14,11.84-6.69,8.9-17.87,25.94-23.41,35.61-2.68,4.68-5.25,9.49-7.68,14.39,8.75,5,21.15,13.54,30.42,17.45,7.27-13.77,16.16-31.48,24.94-41.28,5.17-5.77,10.11-10.56,9.51-19.17S211.82,789.05,203.11,791Z" class="cls-18"/><rect width="51.35" height="19.79" x="219.81" y="942.19" class="cls-21" rx="3.38" transform="translate(-726.29 802.49) rotate(-66.79)"/><path d="M258.3,947.29a4.58,4.58,0,0,1-2.72,1.08c-7.07,0-13.55-2.25-15.68-2.58a1.92,1.92,0,0,1-1.44-2.69l1-2.18s-6.24-1-8.13-.81c-2.84.33-11.27,2.9-11.27,2.9l-6.65,12.75s10.37,8.77,15.59,11.46c7.47,3.84,21,4.09,21,4.09a4,4,0,0,0,3-1.59,2.9,2.9,0,0,0,.25-3.65,3,3,0,0,0,2.76-2.14,4.35,4.35,0,0,0-.05-3.67s2.18-1.34,2.51-2.88c.55-2.6-.2-3.19-.2-3.19a5,5,0,0,0,1.77-1.89C261.57,949.67,258.51,947,258.3,947.29Z" class="cls-15"/><path d="M203.84,701.53c-8.35,6.08-18.32,57.87,24.25,69,13.81,3.62,26.31-21.19,26.31-21.19s10-10.85,10.81-26C266.44,700.82,241.67,674,203.84,701.53Z" class="cls-21"/><path d="M228.22,753.59c-3,10.3-5.61,28.1-4.79,31.19,4,15,33.94,23.5,29.24,2.51-2.1-9.35.46-20.52,1.13-30.21C255,744.65,231.47,742.59,228.22,753.59Z" class="cls-22"/><path d="M226.65,723.1c-8.83,0-10.57,17.54-8.62,26.15,1.76,7.78,4.82,16.54,10.06,21.32,10.84,9.86,28.21,8.69,34.35-.05,9.55-13.6-1.41-49-1.41-49S251.11,723,226.65,723.1Z" class="cls-15"/><path d="M184.61,706.69c-9.89,15.59,6.3,52.73,19.79,38.34s4.83-45,4.83-45S194.5,691.1,184.61,706.69Z" class="cls-21"/><path d="M208.44,740.41c.14,8.79,5.43,14.14,12.11,13.14s-3.23-14.9-3.23-14.9S208.3,731.61,208.44,740.41Z" class="cls-15"/><path d="M252,741.82c-4.53.46-16.52,3.54-21.15,3-.62,7.51-1.28,17.45-5.41,23.89a20.23,20.23,0,0,0,2.53,2.82c11.25,10.23,29.28,9,35.65-.06,4.78-6.8,4.61-18.85,3.15-29.52C260.59,741.91,259.06,741.11,252,741.82Z" class="cls-13"/><path d="M253.84,746.09c-4,.4-14.61,3.12-18.7,2.61-.56,6.64-3.48,17.09-7.14,22.79.7.91,3.38,2.57,4.29,3.18,10,6.63,26.19,5.63,31.83-2.4,4.22-6,4.59-16.71,3.3-26.14C261.93,746.13,260.06,745.45,253.84,746.09Z" class="cls-14"/><polygon points="215.37 737.37 234.68 748.36 239.72 747.27 217.25 736.18 215.37 737.37" class="cls-13"/><path d="M216.8,753.54s5.3,12.12,8.67,15.13l1.94-1.63a80.43,80.43,0,0,1-8.17-13.24Z" class="cls-13"/><rect width="1427.3" height="1032.69" x="2062.11" y="288.04" class="cls-23"/><rect width="1525.69" height="249.93" x="2012.92" y="1070.8" class="cls-17"/><rect width="1525.69" height="22.93" x="2012.92" y="1070.66" class="cls-24"/><rect width="1517.73" height="56.59" x="2016.9" y="233.37" class="cls-25"/><rect width="747.84" height="521.08" x="2641.64" y="536.38" class="cls-26"/><path d="M2629.29,1069.81h772.54V524H2629.29ZM2654,548.73h723.14v496.38H2654Z" class="cls-25"/><path d="M3173.78,617.15c-28.78-22.6-57.59-45.18-85.89-68.37h-79.75c31,21.8,61.82,43.79,92.33,66.24,51.81,38.12,102.79,77.46,151.87,119,17.14,14.52,16.07,45.76,0,60.51-18.24,16.74-42.22,15.49-60.51,0-20.93-17.74-307.42-228.19-332.63-245.79H2684c37.6,24.89,546.49,441.82,583,473h91.52V774.9c-15.55-15.6-31.61-30.69-48-45.39C3266.54,690.13,3220.18,653.57,3173.78,617.15Z" class="cls-13"/><rect width="406.92" height="718.71" x="2154.17" y="553.09" class="cls-13"/><rect width="153.91" height="721.68" x="2160.5" y="537.08" class="cls-27"/><path d="M2154.17,1271.8h166.57V524H2154.17Zm17.06-721.68h131.35v695.59H2171.23Z" class="cls-25"/><polygon points="3240.36 338.05 3345.46 508.35 3508.23 508.35 3373.11 338.05 3240.36 338.05" class="cls-18"/><polygon points="3107.62 338.05 3182.69 508.35 3345.46 508.35 3240.36 338.05 3107.62 338.05" class="cls-28"/><polygon points="2974.88 338.05 3019.92 508.35 3182.69 508.35 3107.62 338.05 2974.88 338.05" class="cls-18"/><polygon points="2842.13 338.05 2857.15 508.35 3019.92 508.35 2974.88 338.05 2842.13 338.05" class="cls-28"/><polygon points="2709.39 338.05 2694.38 508.35 2857.15 508.35 2842.13 338.05 2709.39 338.05" class="cls-18"/><polygon points="2531.61 508.35 2694.38 508.35 2709.39 338.05 2576.65 338.05 2531.61 508.35" class="cls-28"/><polygon points="2368.84 508.35 2531.61 508.35 2576.65 338.05 2443.9 338.05 2368.84 508.35" class="cls-18"/><polygon points="2206.06 508.35 2368.84 508.35 2443.9 338.05 2311.16 338.05 2206.06 508.35" class="cls-28"/><polygon points="2043.29 508.35 2206.06 508.35 2311.16 338.05 2178.42 338.05 2043.29 508.35" class="cls-18"/><path d="M3345.46,545.36a80.11,80.11,0,0,0,80.1,80.11h2.57a80.11,80.11,0,0,0,80.1-80.11v-37H3345.46Z" class="cls-18"/><path d="M3182.69,545.36a80.11,80.11,0,0,0,80.1,80.11h2.56a80.11,80.11,0,0,0,80.11-80.11v-37H3182.69Z" class="cls-28"/><path d="M3019.92,545.36a80.11,80.11,0,0,0,80.1,80.11h2.56a80.11,80.11,0,0,0,80.11-80.11v-37H3019.92Z" class="cls-18"/><path d="M2857.15,545.36a80.11,80.11,0,0,0,80.1,80.11h2.56a80.11,80.11,0,0,0,80.11-80.11v-37H2857.15Z" class="cls-28"/><path d="M2694.38,545.36a80.11,80.11,0,0,0,80.1,80.11H2777a80.11,80.11,0,0,0,80.11-80.11v-37H2694.38Z" class="cls-18"/><path d="M2531.61,545.36a80.11,80.11,0,0,0,80.1,80.11h2.56a80.11,80.11,0,0,0,80.11-80.11v-37H2531.61Z" class="cls-28"/><path d="M2368.84,545.36a80.11,80.11,0,0,0,80.1,80.11h2.56a80.11,80.11,0,0,0,80.11-80.11v-37H2368.84Z" class="cls-18"/><path d="M2206.06,545.36a80.11,80.11,0,0,0,80.11,80.11h2.56a80.11,80.11,0,0,0,80.11-80.11v-37H2206.06Z" class="cls-28"/><path d="M2043.29,545.36a80.11,80.11,0,0,0,80.11,80.11H2126a80.11,80.11,0,0,0,80.1-80.11v-37H2043.29Z" class="cls-18"/><path d="M3182.69,508.34H2043.29v38.28c0,43.55,36.44,78.85,81.39,78.85h0c45,0,81.38-35.3,81.38-78.85,0,43.55,36.44,78.85,81.39,78.85s81.39-35.3,81.39-78.85c0,43.55,36.43,78.85,81.38,78.85h0c45,0,81.39-35.3,81.39-78.85,0,43.55,36.43,78.85,81.38,78.85s81.39-35.3,81.39-78.85c0,43.55,36.43,78.85,81.38,78.85h0c44.95,0,81.39-35.3,81.39-78.85,0,43.55,36.44,78.85,81.38,78.85s81.39-35.3,81.39-78.85c0,43.55,36.44,78.85,81.38,78.85h0c44.95,0,81.39-35.3,81.39-78.85,0,43.55,36.44,78.85,81.38,78.85s81.39-35.3,81.39-78.85c0,43.55,36.44,78.85,81.38,78.85h0c44.94,0,81.38-35.3,81.38-78.85V508.34H3182.69Z" class="cls-29"/><rect width="29.33" height="224.55" x="3222.42" y="11.98" class="cls-30"/><rect width="30.96" height="224.55" x="2299.77" y="11.98" class="cls-30"/><path d="M3352.63,0H2183.49a29.07,29.07,0,0,0-29.07,29.07V180.2a29.08,29.08,0,0,0,29.07,29.07H3368a29.07,29.07,0,0,0,29.07-29.07V44.47A44.47,44.47,0,0,0,3352.63,0Z" class="cls-4"/><path d="M2271.42,823.13V911a19,19,0,0,0,19,19H2308V804.08h-17.49A19,19,0,0,0,2271.42,823.13Z" class="cls-25"/><rect width="1207.76" height="20.65" x="2171.88" y="319.69" class="cls-24"/><path d="M2972.69,904.08,2657.82,641.69v128.2l251.82,209.84a49.24,49.24,0,0,0,63.05-75.65Z" class="cls-13"/><rect width="3609.35" height="79.27" y="1320.73" class="cls-31" rx="39.48"/><path d="M1062.32,826.55c-4.38.59-6.44,2.69-10.13,4.9-10.4,6.23-36.2,20.74-37.51,21.36-2,1-1.77.29-2.72-1.67-1.53-3.18-25.86-71.36-30.22-75.76-6.63-6.69-19.91-9.72-28.57-6a23.6,23.6,0,0,0-14.23,21.54c0,4.33,1.41,8.14,3.09,12,2.14,5,4.36,10,6.63,14.92,5.85,12.69,12.09,25.23,18.88,37.45,6.35,11.4,13.53,24.55,22.94,33,11.43,10.32,20.92,7.78,32.37.51,16.18-10.27,35-30.58,47.2-43,5.14-5.22,8.34-5.93,3.74-13.74A11.63,11.63,0,0,0,1062.32,826.55Z" class="cls-4"/><path d="M992.69,883.35c-5.44-17-8.44-80.57-8.37-87.16-3.43-9.58-3.57-11.12-3-21.17-6.75-6.43-19.68-9.29-28.18-5.68a23.6,23.6,0,0,0-14.23,21.54c0,4.33,1.41,8.14,3.09,12,2.14,5,4.36,10,6.63,14.92,5.85,12.69,12.09,25.23,18.88,37.45,6.35,11.4,13.53,24.55,22.94,33a25.83,25.83,0,0,0,10.91,6.32C999.1,888.68,994.62,889.41,992.69,883.35Z" class="cls-32"/><path d="M1073.79,832.14Z" class="cls-4"/><path d="M992.69,1151.38c0-55.52-2.52-111-2.24-166.55,0-27.29-31.49-44.06-53.84-28.13-21.76,15.5-12.36,42.47-8.67,64.19,8.35,49.11,16.79,98.36,22.82,147.81,3.52,28.89,11.42,111.92,12.68,124.45.92,9.11,8.33,17.65,18.25,12.65,9.16-4.61,5.92,1.19,6-7.22C987.92,1284.93,992.69,1180.73,992.69,1151.38Z" class="cls-6"/><path d="M903.69,951.06A34.22,34.22,0,0,0,879,968.52c-4.06,7.52-4.12,15.33-4.09,23.58.19,49-8.62,240.6-9.79,266q-.66,14.39-1.33,28.78c-.19,4.1-1,8.89.64,12.79,3.9,9.25,17,10.2,22.16,1.59,4-6.59,3.54-17.36,4.67-24.75,3.69-24.16,7.66-48.28,12.06-72.32,3.24-17.72,8.22-37.13,11.44-53.75,6.05-26.11,9.52-53,14-79.37q6.76-40.23,13.67-80.42C946.21,968,926.44,947.51,903.69,951.06Z" class="cls-6"/><path d="M877.32,946.72s-1.46,24.61-2.08,32.84c-1.4,18.19,31.31,33,57.77,35.37h0c26.47,2.41,56.09-5.47,57.73-23.64L988,946.5Z" class="cls-6"/><path d="M1018.09,1307.33c-9.73-1-32.4-13.17-32.4-13.17H963.07c-6.37,26.5,0,26.25,0,26.25l67.39.07S1033.19,1308.87,1018.09,1307.33Z" class="cls-21"/><path d="M901.92,1307.59c-3.1-.07-14.61-13.22-14.61-13.22l-23.8,0c-7.64,20.39,0,26.26,0,26.26l52.59.13S919.29,1308,901.92,1307.59Z" class="cls-21"/><path d="M922.1,751c-102,8.3-56.48,81.81-54.44,92.14,10.22,51.8,9.7,51.58,7.53,131.89,0,0,37.79,2.85,62.09,1,23.57-1.76,53.1-5.52,53.1-5.52S986.29,904,985,843.24C984.48,816.29,1008.08,744,922.1,751Z" class="cls-4"/><path d="M893,816c-2.24-6.59.64-15,1-21.86-12.77,3.46-25.22,8.13-37.72,12.51,2.14,16.94,10.53,32.2,11.38,36.5,6.09,30.89,8.37,43.28,8.75,65.28C878.55,901.74,894,818.8,893,816Z" class="cls-32"/><path d="M911,727.64c.89,12.74-4.57,26.47,2.65,34.5,8.33,9.27,23.91,5.75,27.65-6.08,2.93-9.23-3.14-21.7-5.93-30.3C931,712.25,910.1,715.23,911,727.64Z" class="cls-33"/><path d="M892.42,667.56c-11.92,13.51,15.69,63.54,15.69,63.54s10.37,9.61,32.51,9.28c25.25-.38,7.75-74,7.75-74S901.72,657,892.42,667.56Z" class="cls-5"/><path d="M944.83,658.34c-8.86-2-21.72-5.71-31.66-4.14-13.58,2.14-25.35,10.76-27,29.88-3.08,35,24.86,49.12,24.86,49.12a39.39,39.39,0,0,1-1.36-16.53c-5.58-.36-7.91-8.81-6.7-14.69.91-4.41,9.52,0,9.52,0l4.54-2.77A45.23,45.23,0,0,1,914.62,689c-.38-4.78,5.4-6.57,25.37-8.15,6.49-.51,10.1-2.94,12-6C956,668.51,952.16,660,944.83,658.34Z" class="cls-34"/><path d="M910.12,743.14l-6.5,10.44c4.73,15.89,23.76,21.06,23.76,21.06l5.25-8.73C917.18,758.88,910.12,743.14,910.12,743.14Z" class="cls-35"/><path d="M932.63,766l7.12,6.27a32.11,32.11,0,0,0,7.78-20.65L940.94,743S941.23,757.93,932.63,766Z" class="cls-35"/><path d="M873.19,771.05c-7.83,3.78-12.48,7-15.18,14.89-4,11.52-9.7,35.64-11.56,45.8-5.35,29.18-6.58,52.72-5.47,82.36.8,21.09,8,53.45,10.48,74.41.7,6,18.63,5.75,19.29-2.29,1.45-17.75,0-36,.83-53.87.71-15.58,1.7-31.27,4.45-46.64,4.83-26.87,16.07-54.61,25.82-80.57C909,786.14,891.61,762.14,873.19,771.05Z" class="cls-4"/><path d="M919.32,705.42c6.45,10.91,4.25,25.6-3.53,30.25,5.31,2.78,11.66,5.82,25,5.62,12.62-.19,16.17-17.46,14.27-38.92C954.38,702.18,950.38,695.35,919.32,705.42Z" class="cls-13"/><path d="M925.05,709c5,11.63,1.39,24.54-5.39,28.59,4.63,2.42,13.06,3.71,21.15,3.72,14.75,0,19.36-17.85,14.34-33.9C954.53,707.22,952.11,700.21,925.05,709Z" class="cls-14"/><polygon points="910.23 700.08 920.6 706.95 923.57 705 912.33 700.08 910.23 700.08" class="cls-13"/><path d="M908,716.1s2.14,12.94,7.79,19.56l3.91-.95s-7.1-8.13-10.17-18.14Z" class="cls-13"/><path d="M1086.32,795.26c-3.66,2.42-5.88,5.91-7.5,7s-8.76,7.36-14.16,10.61-7.43,13.32-5.76,18.07c1.44,4.1,6.24,6,9.12,6.51,10.78,1.81,18.54-8.86,18.54-8.86l-8.64-12.47s7.88-10.76,9.54-14.1C1090.1,796.71,1086.32,795.26,1086.32,795.26Z" class="cls-5"/><path d="M1105.94,813.82l-7.68,6-25,16.63L1061.78,835c18.48,18.56,42.72-12,42.72-12l6.72-7.47C1110.74,812.14,1105.94,813.82,1105.94,813.82Z" class="cls-5"/><path d="M1119.81,795l-17.2-10.45a1.43,1.43,0,0,0-.65-.21,2.09,2.09,0,0,0-.74.05,2.8,2.8,0,0,0-.75.3,2.66,2.66,0,0,0-.66.51l-39.07,40.39a2.78,2.78,0,0,0-.51.7,2.29,2.29,0,0,0-.23.73,1.54,1.54,0,0,0,.06.68,1.16,1.16,0,0,0,.35.55l15.13,13.6a1.57,1.57,0,0,0,.66.35,2.09,2.09,0,0,0,.79,0,2.89,2.89,0,0,0,.81-.28,3.31,3.31,0,0,0,.74-.58l41.31-43.81a2.41,2.41,0,0,0,.46-.7,1.72,1.72,0,0,0,.15-.72,1.28,1.28,0,0,0-.17-.64A1.4,1.4,0,0,0,1119.81,795Z" class="cls-21"/><path d="M1120.45,796h0a2,2,0,0,0,0-.24h0a1,1,0,0,0-.09-.22l.15.71v0A1.55,1.55,0,0,0,1120.45,796Z" class="cls-36"/><path d="M1120.77,797.47a.07.07,0,0,1,0-.05h0s0,0,0-.06v-.12l0,0h0v-.09l0,0V797l-.16-.76a.15.15,0,0,0,0,.07.77.77,0,0,1,0,.15s0,.06,0,.09a1.09,1.09,0,0,1-.05.17l0,.08a.88.88,0,0,1-.1.22v0c0,.08-.1.17-.16.25h0l-.2.25-41.31,43.81a2.67,2.67,0,0,1-.36.32h0c-.12.09-.25.17-.38.25h0a2.66,2.66,0,0,1-.4.17h0l-.39.09a.86.86,0,0,1-.23,0l-.18,0h0a2,2,0,0,1-.36,0l-.1,0-.08,0-.11,0-.06,0-.12-.07,0,0a1.58,1.58,0,0,1-.15-.12l-15.13-13.6,1.81,1.9,14.17,12.74.15.11,0,0,.11.06h0l.07,0,.1,0,.08,0,.1,0h0a2,2,0,0,0,.35,0h.51l.06,0h.07l.06,0h.05l0,0h0l0,0h0l.05,0,0,0,0,0,0,0,0,0,0,0h0l0,0,0,0,0,0,0,0,0,0,0,0,0,0,0,0,0,0,0,0h0l0,0,0,0,0,0,0,0,0,0,0,0,0,0,0,0,0,0h0l40.8-43.4,0,0,0,0,0,0,0,0,0,0,0,0,0,0h0l0,0,0-.05,0-.06,0-.06,0-.06h0v0l.09-.19v0s0-.06,0-.08a.56.56,0,0,0,0-.12.07.07,0,0,0,0,0s0,0,0,0a.09.09,0,0,0,0,0,.24.24,0,0,1,0-.08v-.07s0-.06,0-.09v-.17Z" class="cls-36"/><path d="M1112.84,799.63l-13.3-8.51a1.11,1.11,0,0,0-.51-.18,1.92,1.92,0,0,0-.58,0,2.16,2.16,0,0,0-.58.22,2.25,2.25,0,0,0-.52.4l-30.22,31.33,14.16,12.1,31.57-33.4a1.5,1.5,0,0,0,.36-.54,1.37,1.37,0,0,0,.12-.55,1.1,1.1,0,0,0-.13-.51A1,1,0,0,0,1112.84,799.63Z" class="cls-16"/><path d="M1098.34,811.67a2.87,2.87,0,0,0-3.18,2.56l-1.2,10.84a2.89,2.89,0,0,0,2.54,3.2h.32a2.88,2.88,0,0,0,2.86-2.57l1.2-10.84A2.89,2.89,0,0,0,1098.34,811.67Z" class="cls-5"/><path d="M1093.06,816a2.87,2.87,0,0,0-3.18,2.55l-1.2,10.85a2.87,2.87,0,0,0,2.54,3.19,1.77,1.77,0,0,0,.32,0,2.88,2.88,0,0,0,2.86-2.57l1.2-10.85A2.89,2.89,0,0,0,1093.06,816Z" class="cls-5"/><path d="M1089.93,823.47a2.52,2.52,0,1,0-5,.95l1.87,9.81a2.52,2.52,0,0,0,2.47,2.06,2.61,2.61,0,0,0,.48,0,2.53,2.53,0,0,0,2-3Z" class="cls-5"/><path d="M924.67,1033H801.74a7,7,0,0,0-6.94,7v87.19a7,7,0,0,0,6.94,7H924.67a7,7,0,0,0,6.94-7V1040A7,7,0,0,0,924.67,1033Z" class="cls-37"/><path d="M926,1029.57H800.43a7,7,0,0,0-7,7v16.74a28.16,28.16,0,0,0,28.1,28.22h83.29a28.16,28.16,0,0,0,28.1-28.22v-16.74A7,7,0,0,0,926,1029.57Z" class="cls-19"/><rect width="29.51" height="8.09" x="848.45" y="1075.48" class="cls-5"/><path d="M873,1009H853.44c-7,0-12.62,6.06-12.62,13.51v7.82h6.78v-7.82a6.07,6.07,0,0,1,5.84-6.25H873a6.07,6.07,0,0,1,5.84,6.25v7.82h6.78v-7.82C885.59,1015.06,879.93,1009,873,1009Z" class="cls-19"/><path d="M870.52,986.8c-4.06-2.65-13.57-5.35-19.06,1.71-2,2.59-9.16,21.28-5.68,25.16,5.12,5.68,3.31,5.45,9.58,6.52s16.78-.91,18.36-3.87a26.56,26.56,0,0,0-4.08-1.25s-1.76-6.67,5-6c4.35.46,5.66,2.66,5.66,2.66s2.09-10-3.24-16.64C875.52,993.27,873.45,988.7,870.52,986.8Z" class="cls-5"/><path d="M2350.66,702.51l2.08-7.26-3.22-12.93-25.92-10-22.55,16.33-2.23,47.26-6.09,17.81,31.46,17.56,5.19-9,6-15.68,15.15-1a3.89,3.89,0,0,0,3.65-3.76l.69-20.26,3.64-2.75a2.81,2.81,0,0,0,.63-3.82Z" class="cls-38"/><path d="M2327.43,771.35l-35-17.68c-29,25.28-28.86,58.27-29.82,68.62s7.7,96.77,7.7,96.77l-8.37,48.58,86.64,2.94,2.65-78.09,2.84-26.51a116.81,116.81,0,0,0-9.95-61.1Z" class="cls-16"/><path d="M2302.68,818.38a8.72,8.72,0,0,1-7.42-7.33c-11,1.43-25,108-25,108L2268,932.38c2.51,7.62,7,26.72,10.76,35.83l43.19,1.47c-5.55-11.95-17.22-57.14-18.13-71.13C2302.27,874.31,2302.45,842.64,2302.68,818.38Z" class="cls-29"/><path d="M2268.43,1022.29c25,2.84,49.43,2.3,74.1,4,.53-2.82,1-5.39,1.35-7.62,1.91-11.92,4.69-48.09,4.69-48.09l-86.64-3S2259.77,997.15,2268.43,1022.29Z" class="cls-19"/><path d="M2300.46,660.8c-19.33,2.7-21.32,25.23-21.75,37.74s19.08,40.35,19.08,40.35l12.25-3.66s7-20.21,9.05-26.86,1.61-5,1.61-5l12.44-2.61.18-5,3.65-4,12.84-9.33s3.22-1.93,4.36-3.52c1.35-1.88,2.86-8.8,2.86-8.8S2319.79,658.1,2300.46,660.8Z" class="cls-21"/><path d="M2300.75,980.1a30.29,30.29,0,0,0-32.89,27.44v0s-1.57,17.36-3.92,43.4c-1.18,13-2.54,28.2-4,44.47-.74,8.12-1.51,16.52-2.3,25q-.6,6.38-1.21,12.83-.61,6.21-1.23,12.46l-.1,1.12,0,.28v.14l.2-.85,0,.11-.17.79,0,.17v0a.17.17,0,0,0,0,.07s0,0,0,.09l-.1.34-.18.67c-.23.87-.53,1.87-.81,2.83l-.89,3c-1.23,4-2.51,8.07-3.81,12.11-2.59,8.09-5.22,16.09-7.77,23.82-5.17,15.48-10,29.93-14.12,42.32-8.34,24.77-13.89,41.29-13.89,41.29l0,.06a14,14,0,0,0,25.8,10.5l19-39.36,19.2-40.49c3.5-7.43,7.1-15.11,10.72-23,1.82-3.94,3.64-7.94,5.47-12l1.37-3.14c.46-1.08.92-2.11,1.4-3.31l.35-.86.18-.44.25-.68.52-1.48.45-1.35.26-.78,0-.09c.11-.46-.2.88.25-1l.06-.26.12-.52.48-2.1q1.44-6.66,2.87-13.3l2.69-12.76c1.75-8.42,3.48-16.71,5.15-24.74l9-43.83c5.21-25.66,8.68-42.77,8.68-42.77a32.58,32.58,0,0,0,.48-3.29A30.3,30.3,0,0,0,2300.75,980.1Z" class="cls-19"/><path d="M2379.07,1125.64l-.07-.18a.77.77,0,0,0-.07-.16l.14.4S2379.13,1125.76,2379.07,1125.64Z" class="cls-19"/><path d="M2439.24,1229.24c-1.09-7.45-2.64-18.09-4.49-30.86s-4.14-27.66-6.63-43.65c-1.25-8-2.56-16.26-4-24.73-.72-4.26-1.45-8.52-2.32-13l-.34-1.72-.38-1.82-.2-.92-.05-.23-.11-.4-.21-.79-.45-1.58-.33-1.13-.11-.39-.06-.19,0-.1a11,11,0,0,0-.57-1.38c-.25-.57-.52-1.14-.8-1.7l-.47-.88-.76-1.39-.62-1.06c-.76-1.31-1.4-2.34-2-3.4-2.53-4.08-4.9-7.74-7.31-11.44l-7.16-10.83-14-20.76c-9.09-13.4-17.61-25.84-24.92-36.49L2336.38,983a28.44,28.44,0,0,0-2.06-2.64,30.29,30.29,0,1,0-45.68,39.8l.1.11,28.11,32.27c8.43,9.68,18.25,21,28.68,33.14,5.19,6.07,10.54,12.35,16,18.73l8.06,9.6c2.65,3.19,5.33,6.46,7.68,9.42l1.52,1.94a2.87,2.87,0,0,0,.25.3l.05.06-.14-.4c-.13-.27-.26-.54-.38-.82l-.48-1.2,0,.09.08.18.16.37.16.37v0a.06.06,0,0,1,0,0l0,0h0l.05.15.22.63.1.28a.77.77,0,0,1,.07.16l.07.18c.06.12,0,.1,0,.06l.21.59.46,1.4c1.23,3.76,2.44,7.78,3.63,11.75,2.38,8,4.68,15.92,6.88,23.62,4.41,15.41,8.45,29.86,11.9,42.25,6.9,24.79,11.49,41.32,11.49,41.32v0a14,14,0,0,0,27.26-5.71S2440.3,1236.7,2439.24,1229.24Z" class="cls-19"/><path d="M2474.07,1246.34c-11.41,3.72-32.76-4.08-32.76-4.08l-26.91,6.92s1.52,17.76,4.32,26.06c0,0,28.81-2.52,50.56-9.09,4.06-1.23,17.1-8.8,21.52-11.4a1.56,1.56,0,0,0,.43-2.33C2488.92,1249.51,2482.86,1243.48,2474.07,1246.34Z" class="cls-6"/><path d="M2263.72,1305.27c-23.44-3.88-25.65-17.29-25.65-17.29L2212.49,1276s-12.5,13.72-16.94,23.83c0,0,23.11,20.15,44.11,20.86,16,.54,35.62-.38,35.62-.38S2277.12,1307.48,2263.72,1305.27Z" class="cls-6"/><polygon points="2271.37 1052.29 2266.97 1168.52 2371.87 1168.52 2367.47 1052.29 2271.37 1052.29" class="cls-4"/><path d="M2333.59,1030.05h-28.35a7.42,7.42,0,0,0-7.4,7.41v28.35a7.41,7.41,0,0,0,7.4,7.4h28.35a7.41,7.41,0,0,0,7.41-7.4v-28.35A7.42,7.42,0,0,0,2333.59,1030.05Zm.23,35.76a.23.23,0,0,1-.23.23h-28.35a.23.23,0,0,1-.22-.23v-28.35a.22.22,0,0,1,.22-.23h28.35a.23.23,0,0,1,.23.23Z" class="cls-4"/><polygon points="2301.43 996.96 2308.33 1016.37 2326.19 1011.93 2319.42 991.15 2301.43 996.96" class="cls-38"/><path d="M2304.81,807.36,2267,804.07s-8.17,78-4.1,97.89c5.23,25.65,35.43,98.54,35.43,98.54l23.29-7.08s-22.45-72.72-24.44-97.86C2295.4,873.5,2304.81,807.36,2304.81,807.36Z" class="cls-16"/><path d="M2324.71,1007.37c-7.21-10.14-19.58,0-19.58,0s-1.55,15.9-1.26,19.55c.43,5.28,3.19,9.32,4.68,12,2.12,3.81,8.06,3.53,13.9,3.76,6.54.25,10.47-2.59,9.81-5.58,0,0-3.39-.09-4-3.14-.32-1.66,1.22-3.9,1.22-3.9h4.67a22,22,0,0,0-1.21-10.57C2331.47,1015.61,2327.71,1011.59,2324.71,1007.37Z" class="cls-38"/><path d="M2354.94,707.4l-22.77.69c5.34,3.28-5.82,21.56-5.82,21.56L2338,747.23s4-.19,13.39-.6,12.94-18.76,11.18-28.46C2361.85,714.19,2354.94,707.4,2354.94,707.4Z" class="cls-13"/><path d="M2358.63,711.47a90.29,90.29,0,0,1-20.13-.19c-.16,1.61-3.51,14-8.23,18.62.61.76,9.7,13.26,11.8,17.14l9.33-.41c9.42-.4,12.94-18.76,11.18-28.46C2362.23,716.23,2360.41,713.63,2358.63,711.47Z" class="cls-14"/><path d="M2317.58,713s9.81,18.49,10.64,19.5l.62-3.76-10.43-15.93Z" class="cls-13"/><polygon points="2325.3 703.62 2336.18 711.62 2338.34 709.52 2324.46 699.96 2325.3 703.62" class="cls-13"/><path d="M2323.73,697.48c-4.08-.93-10.81-1.18-8.89,8,2.7,13,9.22,14.56,11.34,6.17a31.46,31.46,0,0,0,1-10.23A4.45,4.45,0,0,0,2323.73,697.48Z" class="cls-38"/><polygon points="2177.18 905.87 1799.28 905.87 1799.28 891.7 1772.96 911.7 1799.28 931.7 1799.28 917.52 2177.18 917.52 2177.18 931.7 2203.49 911.7 2177.18 891.7 2177.18 905.87" class="cls-3"/></g></g></svg>