<?xml version="1.0" encoding="UTF-8"?>
<svg width="431px" height="234px" viewBox="0 0 431 234" version="1.1" xmlns="http://www.w3.org/2000/svg" xmlns:xlink="http://www.w3.org/1999/xlink">
    <!-- Generator: Sketch 54.1 (76490) - https://sketchapp.com -->
    <title>images/ WiFi</title>
    <desc>Created with Sketch.</desc>
    <defs>
        <polygon id="path-1" points="542 245 0 286 0 0 533 0"></polygon>
        <polygon id="path-3" points="0.1405 0.93183738 115.433 0.93183738 115.433 208.9996 0.1405 208.9996"></polygon>
        <polygon id="path-5" points="0.729391211 0.715 80.0703761 0.715 80.0703761 143.739876 0.729391211 143.739876"></polygon>
        <polygon id="path-7" points="0 0.873506332 132.7549 0.873506332 132.7549 204.9986 0 204.9986"></polygon>
    </defs>
    <g id="HotSpot-Shield" stroke="none" stroke-width="1" fill="none" fill-rule="evenodd">
        <g transform="translate(-840.000000, -240.000000)" id="images/-WiFi">
            <g transform="translate(777.000000, 192.000000)">
                <mask id="mask-2" fill="white">
                    <use xlink:href="#path-1"></use>
                </mask>
                <g id="Mask"></g>
                <g mask="url(#mask-2)" id="Group-112">
                    <g transform="translate(58.000000, 47.000000)">
                        <g>
                            <g id="Group-3" transform="translate(336.000000, 37.285000)">
                                <mask id="mask-4" fill="white">
                                    <use xlink:href="#path-3"></use>
                                </mask>
                                <g id="Clip-2"></g>
                                <path d="M115.4335,208.9996 L78.4575,103.3966 C82.7755,90.1166 84.2755,77.7496 83.3045,70.6016 C82.6415,65.7096 79.0615,53.2376 79.7615,35.2716 C80.0545,27.7596 84.0805,3.7776 81.7575,1.8296 C79.4335,-0.1194 67.6225,-1.1064 61.4365,23.4516 C55.2505,48.0106 0.1405,90.7026 0.1405,90.7026 C0.1405,90.7026 4.4535,106.8896 29.1025,113.8686 C31.6675,114.5946 34.2965,114.9856 36.9245,115.1246 L44.6625,208.9996 L115.4335,208.9996 Z" id="Fill-1" fill="#ED8B70" mask="url(#mask-4)"></path>
                            </g>
                            <path d="M323.1767,36.5121 C319.9117,39.0401 319.0437,43.3881 321.2397,46.2211 L332.1317,61.8791 C334.3257,64.7131 338.7517,64.9591 342.0167,62.4311 C345.2807,59.9031 346.1487,55.5561 343.9517,52.7221 L333.0607,37.0631 C330.8657,34.2301 326.4417,33.9831 323.1767,36.5121" id="Fill-4" fill="#E97859"></path>
                            <g id="Group-8" transform="translate(328.000000, 0.285000)">
                                <mask id="mask-6" fill="white">
                                    <use xlink:href="#path-5"></use>
                                </mask>
                                <g id="Clip-7"></g>
                                <path d="M0.7304,136.4849 C0.6704,139.7819 3.2944,142.5019 6.5904,142.5609 L71.6424,143.7389 C74.9384,143.7979 77.6584,141.1739 77.7184,137.8789 L80.0694,7.9689 C80.1284,4.6729 77.5054,1.9529 74.2094,1.8929 L9.1584,0.7159 C5.8614,0.6569 3.1414,3.2799 3.0824,6.5769 L0.7304,136.4849 Z" id="Fill-6" fill="#524545" mask="url(#mask-6)"></path>
                            </g>
                            <polygon id="Fill-9" fill="#FFFFFF" points="329.0439 119.4633 406.0309 120.8563 407.9649 14.0483 330.9769 12.6543"></polygon>
                            <path d="M358.7382,7.0746 C358.7302,7.5176 359.0842,7.8846 359.5282,7.8926 L379.0082,8.2456 C379.4512,8.2536 379.8182,7.8996 379.8262,7.4556 C379.8342,7.0126 379.4802,6.6456 379.0372,6.6376 L359.5562,6.2856 C359.1132,6.2776 358.7472,6.6306 358.7382,7.0746" id="Fill-11" fill="#423434"></path>
                            <path d="M359.6679,131.6596 C359.5919,135.8886 362.9579,139.3796 367.1889,139.4566 C371.4179,139.5326 374.9089,136.1656 374.9849,131.9366 C375.0629,127.7066 371.6949,124.2156 367.4659,124.1386 C363.2349,124.0616 359.7449,127.4296 359.6679,131.6596" id="Fill-13" fill="#C9D6D7"></path>
                            <path d="M359.6679,131.6596 C359.5919,135.8886 362.9579,139.3796 367.1889,139.4566 C371.4179,139.5326 374.9089,136.1656 374.9849,131.9366 C375.0629,127.7066 371.6949,124.2156 367.4659,124.1386 C363.2349,124.0616 359.7449,127.4296 359.6679,131.6596" id="Fill-15" fill="#423434"></path>
                            <path d="M361.5761,131.6947 C361.5191,134.8697 364.0471,137.4907 367.2221,137.5487 C370.3981,137.6057 373.0201,135.0777 373.0781,131.9027 C373.1351,128.7247 370.6071,126.1047 367.4311,126.0477 C364.2551,125.9897 361.6341,128.5167 361.5761,131.6947" id="Fill-17" fill="#524545"></path>
                            <path d="M368.5302,58.4545 C360.4862,58.4545 353.1022,61.2705 347.3012,65.9655 L341.6352,58.9545 C348.9852,53.0075 358.3402,49.4395 368.5302,49.4395 C378.7212,49.4395 388.0752,53.0085 395.4252,58.9565 L389.7592,65.9665 C383.9582,61.2715 376.5742,58.4545 368.5302,58.4545" id="Fill-19" fill="#EC1968"></path>
                            <path d="M368.5302,74.1225 C364.2172,74.1225 360.2592,75.6335 357.1482,78.1495 L351.7022,71.4105 C356.3012,67.6895 362.1532,65.4575 368.5302,65.4575 C374.9062,65.4575 380.7592,67.6895 385.3572,71.4115 L379.9112,78.1495 C376.8012,75.6335 372.8422,74.1225 368.5302,74.1225" id="Fill-21" fill="#EC1968"></path>
                            <path d="M375.0898,84.1156 L368.5288,92.2326 L361.9698,84.1156 C363.7628,82.6646 366.0428,81.7916 368.5288,81.7916 C371.0158,81.7926 373.2968,82.6646 375.0898,84.1156" id="Fill-23" fill="#EC1968"></path>
                            <path d="M341.3251,70.2192 C344.1401,72.4372 344.3511,76.8652 341.7971,80.1092 C340.0361,82.3432 337.4221,83.4332 335.0451,83.1692 L338.6071,85.9502 C341.4231,88.1682 341.6341,92.5962 339.0781,95.8392 C337.0341,98.4342 333.8401,99.4832 331.2031,98.6642 L335.4681,102.0872 C338.2841,104.3052 338.4941,108.7332 335.9381,111.9762 C334.1631,114.2312 331.5171,115.3192 329.1241,115.0292 L330.0941,61.4492 L341.3251,70.2192 Z" id="Fill-25" fill="#D1D1D1"></path>
                            <path d="M331.4999,37.9037 L341.7639,45.9907 C344.5799,48.2087 344.7899,52.6347 342.2349,55.8797 C339.6789,59.1227 335.3249,59.9547 332.5099,57.7357 L330.1939,55.9117 L330.5309,37.2907 C330.8689,37.4607 331.1939,37.6627 331.4999,37.9037" id="Fill-27" fill="#D1D1D1"></path>
                            <path d="M315.7597,57.4809 C313.2037,60.7239 313.4147,65.1519 316.2307,67.3699 L332.1107,79.7689 C334.9267,81.9879 339.2807,81.1559 341.8357,77.9119 C344.3917,74.6679 344.1797,70.2419 341.3647,68.0229 L325.4847,55.6249 C322.6687,53.4059 318.3157,54.2369 315.7597,57.4809" id="Fill-29" fill="#ED8B70"></path>
                            <path d="M313.0419,73.2123 C310.4859,76.4543 310.6969,80.8823 313.5129,83.1013 L329.3929,95.4993 C332.2089,97.7183 336.5629,96.8863 339.1179,93.6423 C341.6739,90.3993 341.4629,85.9723 338.6459,83.7533 L322.7669,71.3553 C319.9509,69.1363 315.5979,69.9673 313.0419,73.2123" id="Fill-31" fill="#ED8B70"></path>
                            <path d="M314.0849,92.3598 C311.5289,95.6028 311.7389,100.0308 314.5549,102.2498 L326.2539,111.6358 C329.0689,113.8548 333.4239,113.0228 335.9789,109.7788 C338.5339,106.5348 338.3229,102.1078 335.5079,99.8898 L323.8089,90.5038 C320.9929,88.2848 316.6399,89.1158 314.0849,92.3598" id="Fill-33" fill="#ED8B70"></path>
                            <path d="M321.8144,37.5649 C319.2594,40.8079 319.4694,45.2359 322.2864,47.4539 L332.5494,55.5409 C335.3654,57.7579 339.7184,56.9269 342.2744,53.6829 C344.8304,50.4399 344.6194,46.0119 341.8034,43.7939 L331.5394,35.7079 C328.7234,33.4899 324.3704,34.3209 321.8144,37.5649" id="Fill-35" fill="#ED8B70"></path>
                            <path d="M408.6122,40.2768 C408.6122,40.2768 402.7312,44.9708 401.6242,53.1388 C400.5162,61.3068 406.8792,74.0538 406.8792,74.0538 L409.8552,53.8568 L408.6122,40.2768 Z" id="Fill-37" fill="#ED8B70"></path>
                            <path d="M268.1493,246.2836 L260.4083,201.0326 C262.9133,200.2256 265.3543,199.1746 267.6483,197.8156 C289.6883,184.7586 289.7123,168.0066 289.7123,168.0066 C289.7123,168.0066 225.5093,140.8476 213.2413,118.6916 C200.9733,96.5356 189.8083,100.5136 188.0613,102.9926 C186.3143,105.4716 196.3473,127.6226 198.5533,134.8096 C203.8303,151.9976 203.5633,164.9706 204.1733,169.8686 C205.0663,177.0276 209.6823,188.5976 217.2563,200.3306 L216.5913,246.2836 L268.1493,246.2836 Z" id="Fill-39" fill="#B05036"></path>
                            <path d="M278.8241,76.2612 C282.6271,77.8682 284.5781,81.8492 283.1811,85.1512 L276.6621,103.0752 C275.2661,106.3762 271.0511,107.7482 267.2481,106.1402 C263.4451,104.5312 261.4941,100.5512 262.8901,97.2502 L269.4101,79.3242 C270.8061,76.0242 275.0201,74.6522 278.8241,76.2612" id="Fill-41" fill="#A7331F"></path>
                            <path d="M299.1249,174.599 C300.0259,177.77 298.1869,181.072 295.0159,181.973 L232.4349,199.767 C229.2639,200.668 225.9619,198.829 225.0609,195.658 L189.5249,70.682 C188.6239,67.51 190.4629,64.209 193.6349,63.307 L256.2159,45.513 C259.3869,44.612 262.6879,46.452 263.5899,49.622 L299.1249,174.599 Z" id="Fill-43" fill="#EAEAEA"></path>
                            <polygon id="Fill-45" fill="#FFFFFF" points="294.3905 157.9487 220.3265 179.0087 191.1105 76.2557 265.1745 55.1967"></polygon>
                            <path d="M236.9101,56.9096 C237.0311,57.3366 236.7831,57.7816 236.3561,57.9026 L217.6161,63.2316 C217.1891,63.3526 216.7441,63.1046 216.6231,62.6786 C216.5021,62.2506 216.7501,61.8066 217.1771,61.6846 L235.9171,56.3566 C236.3441,56.2356 236.7881,56.4826 236.9101,56.9096" id="Fill-47" fill="#FFFFFF"></path>
                            <path d="M267.9101,177.5805 C269.0661,181.6485 266.7061,185.8855 262.6371,187.0425 C258.5671,188.1995 254.3311,185.8385 253.1741,181.7695 C252.0161,177.6995 254.3781,173.4635 258.4471,172.3075 C262.5161,171.1495 266.7531,173.5105 267.9101,177.5805" id="Fill-49" fill="#C9D6D7"></path>
                            <path d="M267.9101,177.5805 C269.0661,181.6485 266.7061,185.8855 262.6371,187.0425 C258.5671,188.1995 254.3311,185.8385 253.1741,181.7695 C252.0161,177.6995 254.3781,173.4635 258.4471,172.3075 C262.5161,171.1495 266.7531,173.5105 267.9101,177.5805" id="Fill-51" fill="#EAEAEA"></path>
                            <path d="M266.0741,178.1029 C266.9421,181.1569 265.1711,184.3379 262.1151,185.2069 C259.0591,186.0759 255.8781,184.3029 255.0101,181.2489 C254.1401,178.1919 255.9141,175.0109 258.9691,174.1419 C262.0241,173.2739 265.2051,175.0449 266.0741,178.1029" id="Fill-53" fill="#FFFFFF"></path>
                            <path d="M241.078,110.3774 C233.33,112.5394 226.975,117.2364 222.649,123.3174 L215.308,118.0884 C220.789,110.3844 228.84,104.4334 238.655,101.6934 C248.472,98.9554 258.44,99.8784 267.118,103.6314 L263.545,111.9064 C256.695,108.9434 248.826,108.2154 241.078,110.3774" id="Fill-55" fill="#EC1968"></path>
                            <path d="M245.2899,125.4692 C241.1359,126.6282 237.7279,129.1472 235.4089,132.4072 L228.3529,127.3802 C231.7809,122.5602 236.8179,118.8362 242.9609,117.1222 C249.1029,115.4082 255.3399,115.9862 260.7689,118.3342 L257.3349,126.2882 C253.6619,124.7002 249.4429,124.3102 245.2899,125.4692" id="Fill-57" fill="#EC1968"></path>
                            <path d="M254.2939,133.3305 L250.1569,142.9125 L241.6569,136.8565 C242.9939,134.9775 244.9559,133.5245 247.3509,132.8555 C249.7459,132.1875 252.1769,132.4155 254.2939,133.3305" id="Fill-59" fill="#EC1968"></path>
                            <path d="M269.9101,113.4906 C267.7571,116.3556 268.6861,120.6896 271.9871,123.1716 C274.2621,124.8816 277.0661,125.2646 279.2971,124.4016 L276.5661,128.0026 C274.4121,130.8676 275.3421,135.2006 278.6411,137.6816 C281.2831,139.6666 284.6391,139.8626 286.9781,138.3966 L283.7321,142.7976 C281.5781,145.6626 282.5081,149.9956 285.8081,152.4766 C288.1021,154.2016 290.9381,154.5766 293.1781,153.6826 L278.5221,102.1386 L269.9101,113.4906 Z" id="Fill-61" fill="#D1D1D1"></path>
                            <path d="M271.1347,79.7367 L263.2827,90.1817 C261.1287,93.0477 262.0587,97.3817 265.3597,99.8617 C268.6597,102.3427 273.0817,102.0327 275.2357,99.1677 L277.0067,96.8107 L271.9137,78.8957 C271.6307,79.1467 271.3677,79.4257 271.1347,79.7367" id="Fill-63" fill="#D1D1D1"></path>
                            <path d="M291.3622,94.6313 C294.6632,97.1123 295.5922,101.4463 293.4392,104.3123 L281.2632,120.3623 C279.1092,123.2293 274.6872,123.5393 271.3852,121.0583 C268.0852,118.5763 267.1562,114.2433 269.3092,111.3783 L281.4862,95.3263 C283.6392,92.4613 288.0602,92.1503 291.3622,94.6313" id="Fill-65" fill="#B05036"></path>
                            <path d="M298.0165,109.142 C301.3185,111.623 302.2475,115.957 300.0935,118.822 L287.9175,134.873 C285.7635,137.74 281.3425,138.05 278.0405,135.569 C274.7405,133.087 273.8115,128.754 275.9645,125.889 L288.1405,109.837 C290.2945,106.972 294.7155,106.661 298.0165,109.142" id="Fill-67" fill="#B05036"></path>
                            <path d="M301.912,127.9194 C305.213,130.3994 306.143,134.7334 303.989,137.5994 L295.084,149.6694 C292.931,152.5334 288.508,152.8454 285.208,150.3634 C281.906,147.8824 280.976,143.5484 283.131,140.6844 L292.036,128.6144 C294.189,125.7484 298.611,125.4374 301.912,127.9194" id="Fill-69" fill="#B05036"></path>
                            <path d="M280.4091,76.9301 C283.7101,79.4101 284.6401,83.7441 282.4861,86.6101 L274.6351,97.0551 C272.4811,99.9191 268.0591,100.2311 264.7591,97.7491 C261.4581,95.2681 260.5281,90.9351 262.6811,88.0701 L270.5331,77.6241 C272.6871,74.7591 277.1081,74.4481 280.4091,76.9301" id="Fill-71" fill="#B05036"></path>
                            <path d="M197.1991,101.7748 C197.1991,101.7748 204.0861,104.8068 207.2481,112.4198 C210.4101,120.0318 207.5241,133.9828 207.5241,133.9828 L199.4751,115.2208 L197.1991,101.7748 Z" id="Fill-73" fill="#B05036"></path>
                            <g id="Group-77" transform="translate(0.000000, 41.285000)">
                                <mask id="mask-8" fill="white">
                                    <use xlink:href="#path-7"></use>
                                </mask>
                                <g id="Clip-76"></g>
                                <path d="M-0.0001,204.9986 L53.4169,102.1946 C51.2219,88.4036 51.6679,75.9546 53.7399,69.0446 C55.1579,64.3156 60.6379,52.5546 62.7459,34.6986 C63.6279,27.2316 63.3879,2.9166 65.9869,1.3536 C68.5859,-0.2094 80.4059,0.6566 82.6889,25.8796 C84.9729,51.1026 132.7549,101.8606 132.7549,101.8606 C132.7549,101.8606 125.9729,117.1786 100.5369,120.2296 C97.8899,120.5476 95.2319,120.5246 92.6139,120.2526 L71.9879,204.9986 L-0.0001,204.9986 Z" id="Fill-75" fill="#F9BC59" mask="url(#mask-8)"></path>
                            </g>
                            <path d="M159.8183,54.81 C162.6483,57.816 162.8283,62.246 160.2163,64.702 L147.0183,78.471 C144.4093,80.928 139.9993,80.482 137.1683,77.475 C134.3383,74.469 134.1593,70.04 136.7693,67.583 L149.9683,53.814 C152.5783,51.357 156.9873,51.802 159.8183,54.81" id="Fill-78" fill="#F7A31B"></path>
                            <path d="M138.706,152.977 C138.251,156.242 135.235,158.52 131.971,158.066 L67.53,149.089 C64.265,148.635 61.987,145.62 62.442,142.354 L80.366,13.666 C80.821,10.401 83.837,8.123 87.102,8.578 L151.542,17.553 C154.808,18.008 157.085,21.024 156.631,24.29 L138.706,152.977 Z" id="Fill-80" fill="#363839"></path>
                            <polygon id="Fill-82" fill="#FFFFFF" points="141.0937 135.8324 64.8297 125.2094 79.5677 19.4054 155.8307 30.0274"></polygon>
                            <path d="M111.2538,67.3803 C103.3028,66.1623 95.5778,67.8303 89.1338,71.5933 L84.5938,63.8073 C92.7588,59.0393 102.5438,56.9273 112.6178,58.4693 C122.6918,60.0103 131.3988,64.9523 137.7638,71.9433 L131.1028,78.0163 C126.0778,72.4973 119.2058,68.5973 111.2538,67.3803" id="Fill-84" fill="#EC1968"></path>
                            <path d="M108.8847,82.8676 C104.6207,82.2156 100.4797,83.1096 97.0247,85.1276 L92.6597,77.6416 C97.7687,74.6596 103.8917,73.3376 110.1957,74.3026 C116.4977,75.2666 121.9457,78.3586 125.9287,82.7326 L119.5257,88.5696 C116.8317,85.6116 113.1477,83.5196 108.8847,82.8676" id="Fill-86" fill="#EC1968"></path>
                            <path d="M113.8573,93.7377 L106.1443,100.7687 L100.8873,91.7537 C102.8793,90.5907 105.2663,90.0727 107.7243,90.4487 C110.1813,90.8247 112.3043,92.0327 113.8573,93.7377" id="Fill-88" fill="#EC1968"></path>
                            <path d="M129.2782,20.1889 C129.2162,20.6279 128.8102,20.9349 128.3712,20.8749 L109.0742,18.1859 C108.6342,18.1259 108.3282,17.7189 108.3892,17.2789 C108.4502,16.8389 108.8562,16.5329 109.2962,16.5939 L128.5922,19.2819 C129.0322,19.3429 129.3402,19.7499 129.2782,20.1889" id="Fill-90" fill="#202223"></path>
                            <path d="M108.9433,143.1069 C108.3593,147.2959 104.4903,150.2199 100.2993,149.6359 C96.1093,149.0519 93.1853,145.1829 93.7693,140.9939 C94.3533,136.8019 98.2223,133.8789 102.4133,134.4619 C106.6033,135.0459 109.5263,138.9159 108.9433,143.1069" id="Fill-92" fill="#C9D6D7"></path>
                            <path d="M108.9433,143.1069 C108.3593,147.2959 104.4903,150.2199 100.2993,149.6359 C96.1093,149.0519 93.1853,145.1829 93.7693,140.9939 C94.3533,136.8019 98.2223,133.8789 102.4133,134.4619 C106.6033,135.0459 109.5263,138.9159 108.9433,143.1069" id="Fill-94" fill="#202223"></path>
                            <path d="M107.0527,142.8442 C106.6147,145.9892 103.7087,148.1852 100.5627,147.7462 C97.4167,147.3082 95.2217,144.4022 95.6587,141.2572 C96.0977,138.1102 99.0037,135.9142 102.1497,136.3532 C105.2957,136.7912 107.4907,139.6972 107.0527,142.8442" id="Fill-96" fill="#363839"></path>
                            <path d="M136.6376,85.2758 C133.5106,87.0278 132.6126,91.3688 134.6306,94.9708 C136.0216,97.4528 138.4336,98.9358 140.8236,99.0468 L136.8706,101.2398 C133.7436,102.9908 132.8456,107.3318 134.8646,110.9328 C136.4786,113.8148 139.4696,115.3488 142.2026,114.9518 L137.4566,117.6678 C134.3286,119.4198 133.4316,123.7598 135.4506,127.3618 C136.8536,129.8668 139.2956,131.3528 141.7056,131.4398 L149.0986,78.3648 L136.6376,85.2758 Z" id="Fill-98" fill="#EAEAEA"></path>
                            <path d="M151.3798,54.8871 L139.9808,61.2751 C136.8538,63.0271 135.9548,67.3671 137.9738,70.9691 C139.9928,74.5721 144.1638,76.0721 147.2898,74.3201 L149.8618,72.8781 L152.4318,54.4321 C152.0718,54.5461 151.7198,54.6971 151.3798,54.8871" id="Fill-100" fill="#EAEAEA"></path>
                            <path d="M163.8759,76.6781 C165.8949,80.2801 164.9969,84.6201 161.8699,86.3721 L144.2519,96.1451 C141.1239,97.8981 136.9529,96.3971 134.9339,92.7951 C132.9149,89.1921 133.8139,84.8531 136.9399,83.1001 L154.5599,73.3281 C157.6869,71.5751 161.8569,73.0751 163.8759,76.6781" id="Fill-102" fill="#F9BC59"></path>
                            <path d="M164.1083,92.6401 C166.1283,96.2421 165.2293,100.5821 162.1023,102.3351 L144.4843,112.1071 C141.3563,113.8601 137.1863,112.3601 135.1673,108.7571 C133.1483,105.1551 134.0463,100.8151 137.1733,99.0631 L154.7923,89.2891 C157.9203,87.5371 162.0893,89.0371 164.1083,92.6401" id="Fill-104" fill="#F9BC59"></path>
                            <path d="M160.0946,111.392 C162.1136,114.994 161.2156,119.334 158.0886,121.087 L145.0706,128.537 C141.9436,130.288 137.7716,128.788 135.7526,125.186 C133.7346,121.583 134.6326,117.243 137.7596,115.492 L150.7786,108.042 C153.9056,106.289 158.0766,107.788 160.0946,111.392" id="Fill-106" fill="#F9BC59"></path>
                            <path d="M160.9989,56.061 C163.0179,59.664 162.1189,64.003 158.9919,65.756 L147.5939,72.144 C144.4669,73.896 140.2959,72.397 138.2769,68.794 C136.2589,65.192 137.1559,60.852 140.2829,59.099 L151.6829,52.711 C154.8099,50.959 158.9799,52.458 160.9989,56.061" id="Fill-108" fill="#F9BC59"></path>
                            <path d="M74.8388,45.2123 C74.8388,45.2123 79.9158,50.7663 79.7368,59.0063 C79.5588,67.2473 71.2868,78.8483 71.2868,78.8483 L71.4948,58.4333 L74.8388,45.2123 Z" id="Fill-110" fill="#F9BC59"></path>
                        </g>
                    </g>
                </g>
            </g>
        </g>
    </g>
</svg>