<svg xmlns="http://www.w3.org/2000/svg" viewBox="0 0 228.95 127.62"><defs><style>.cls-1{fill:#5bba01}.cls-2{fill:#d8d8d8}.cls-3,.cls-9{fill:#fff}.cls-4{fill:#0475de}.cls-5{fill:#e85e5e}.cls-6{fill:#55bfbc}.cls-7{fill:#258787}.cls-8{fill:#3b5998}.cls-9{fill-rule:evenodd}.cls-10{fill:#623e3b}.cls-11{fill:#ddb36f}.cls-12{fill:#ecca87}.cls-13{fill:#b8b8b8}.cls-14{fill:#f4f5f7}.cls-15{fill:#6791aa;opacity:.5}</style></defs><title>Part 3 iconsCustomer Hub copy (3)</title><g id="Layer_2" data-name="Layer 2"><g id="Website"><g id="Customer_Hub_copy" data-name="Customer Hub copy"><g id="Customer_Hub" data-name="Customer Hub"><rect width="24.43" height="24.43" class="cls-1" rx="1.25" ry="1.25"/><rect width="24.43" height="24.43" y="27.78" class="cls-2" rx="1.25" ry="1.25"/><rect width="24.43" height="24.44" x="27.64" y=".1" class="cls-2" rx="1.25" ry="1.25"/><rect width="24.43" height="24.44" x="55.44" y=".1" class="cls-2" rx="1.25" ry="1.25"/><rect width="24.43" height="24.44" x="83.25" y=".1" class="cls-2" rx="1.25" ry="1.25"/><rect width="24.43" height="24.43" x="83.25" y="27.78" class="cls-2" rx="1.25" ry="1.25"/><path d="M9.11,34.4a4.37,4.37,0,0,1,3.23-1.17,4.83,4.83,0,0,1,3.07.88,3,3,0,0,1,1.11,2.49,3,3,0,0,1-.46,1.7,8.26,8.26,0,0,1-1.35,1.44,7.82,7.82,0,0,0-1.13,1.2,2,2,0,0,0-.37,1.23H10.65a3.71,3.71,0,0,1,.22-1.35,3.35,3.35,0,0,1,.54-1c.21-.24.48-.53.82-.85a5.79,5.79,0,0,0,.83-.92,1.59,1.59,0,0,0,.27-.93c0-.79-.44-1.18-1.31-1.18s-1.46.57-1.47,1.72l-2.64,0A4.45,4.45,0,0,1,9.11,34.4Zm4,9.67a1.8,1.8,0,0,1,0,2.4,1.6,1.6,0,0,1-1.2.48,1.55,1.55,0,0,1-1.17-.48,1.78,1.78,0,0,1,0-2.4,1.6,1.6,0,0,1,1.18-.46A1.66,1.66,0,0,1,13.06,44.07Z" class="cls-3"/><path d="M36.74,6.73A4.38,4.38,0,0,1,40,5.55,4.73,4.73,0,0,1,43,6.44a3,3,0,0,1,1.12,2.48,2.93,2.93,0,0,1-.46,1.7,7.92,7.92,0,0,1-1.35,1.44,8.52,8.52,0,0,0-1.14,1.2,2.12,2.12,0,0,0-.36,1.23H38.28a3.74,3.74,0,0,1,.23-1.35,3,3,0,0,1,.54-1,11.74,11.74,0,0,1,.81-.86,5.34,5.34,0,0,0,.83-.92A1.59,1.59,0,0,0,41,9.48c0-.78-.43-1.17-1.31-1.17S38.2,8.88,38.19,10l-2.64,0A4.47,4.47,0,0,1,36.74,6.73Zm3.95,9.67a1.62,1.62,0,0,1,.47,1.19,1.67,1.67,0,0,1-.47,1.21,1.73,1.73,0,0,1-2.37,0,1.7,1.7,0,0,1-.46-1.21,1.65,1.65,0,0,1,.45-1.19,1.77,1.77,0,0,1,2.38,0Z" class="cls-3"/><path d="M64.55,6.73a4.34,4.34,0,0,1,3.23-1.18,4.77,4.77,0,0,1,3.07.89A3,3,0,0,1,72,8.92a2.94,2.94,0,0,1-.47,1.7,7.27,7.27,0,0,1-1.35,1.44A7.82,7.82,0,0,0,69,13.26a2.06,2.06,0,0,0-.37,1.23H66.09a3.75,3.75,0,0,1,.22-1.35,3.43,3.43,0,0,1,.54-1,10.21,10.21,0,0,1,.82-.86,5.79,5.79,0,0,0,.83-.92,1.59,1.59,0,0,0,.27-.93c0-.78-.44-1.17-1.31-1.17S66,8.88,66,10l-2.64,0A4.48,4.48,0,0,1,64.55,6.73Zm4,9.67A1.61,1.61,0,0,1,69,17.59a1.66,1.66,0,0,1-.46,1.21,1.63,1.63,0,0,1-1.2.47,1.59,1.59,0,0,1-1.17-.47,1.81,1.81,0,0,1,0-2.4,1.56,1.56,0,0,1,1.18-.46A1.62,1.62,0,0,1,68.5,16.4Z" class="cls-3"/><path d="M92.35,6.73a4.36,4.36,0,0,1,3.24-1.18,4.73,4.73,0,0,1,3.06.89,3,3,0,0,1,1.12,2.48,2.93,2.93,0,0,1-.46,1.7A7.92,7.92,0,0,1,98,12.06a8.52,8.52,0,0,0-1.14,1.2,2.12,2.12,0,0,0-.36,1.23H93.89a4,4,0,0,1,.22-1.35,3.43,3.43,0,0,1,.54-1c.22-.25.49-.54.82-.86a5.34,5.34,0,0,0,.83-.92,1.59,1.59,0,0,0,.27-.93c0-.78-.43-1.17-1.31-1.17S93.81,8.88,93.8,10l-2.64,0A4.47,4.47,0,0,1,92.35,6.73Zm4,9.67a1.62,1.62,0,0,1,.47,1.19,1.67,1.67,0,0,1-.47,1.21,1.73,1.73,0,0,1-2.37,0,1.81,1.81,0,0,1,0-2.4,1.77,1.77,0,0,1,2.38,0Z" class="cls-3"/><path d="M92.35,34.49a4.39,4.39,0,0,1,3.24-1.17,4.78,4.78,0,0,1,3.06.88,3.34,3.34,0,0,1,.66,4.19A8.26,8.26,0,0,1,98,39.83,8.52,8.52,0,0,0,96.82,41a2.1,2.1,0,0,0-.36,1.23H93.89a3.94,3.94,0,0,1,.22-1.35,3.5,3.5,0,0,1,.54-1c.22-.24.49-.53.82-.85a5.34,5.34,0,0,0,.83-.92,1.59,1.59,0,0,0,.27-.93c0-.79-.43-1.18-1.31-1.18s-1.45.58-1.46,1.72l-2.64,0A4.5,4.5,0,0,1,92.35,34.49Zm4,9.67a1.63,1.63,0,0,1,.47,1.2,1.67,1.67,0,0,1-.47,1.21,1.73,1.73,0,0,1-2.37,0,1.82,1.82,0,0,1,0-2.41,1.77,1.77,0,0,1,2.38,0Z" class="cls-3"/><path d="M19.78,7.85a1.06,1.06,0,0,0-1-1.08H5.67a1,1,0,0,0-1,1.08l7.56,4.37Zm-8.1,5.3-7-4.05v7.48a1.08,1.08,0,0,0,1.08,1.08h13a1.08,1.08,0,0,0,1.08-1.08V9.1l-7,4.05Z" class="cls-3"/><rect width="24.43" height="24.43" x="121.27" class="cls-1" rx="1.25" ry="1.25"/><rect width="24.43" height="24.43" x="121.27" y="27.78" class="cls-4" rx="1.25" ry="1.25"/><rect width="24.43" height="24.44" x="148.9" y=".1" class="cls-5" rx="1.25" ry="1.25"/><rect width="24.44" height="24.44" x="176.71" y=".1" class="cls-6" rx="1.25" ry="1.25"/><rect width="24.43" height="24.43" x="204.51" y=".15" class="cls-7" rx="1.25" ry="1.25"/><rect width="24.43" height="24.43" x="204.51" y="27.82" class="cls-8" rx="1.25" ry="1.25"/><path d="M141,7.85a1,1,0,0,0-1-1.08h-13.1a1.06,1.06,0,0,0-1,1.08l7.56,4.37Zm-8.1,5.3-7-4.05v7.48A1.08,1.08,0,0,0,127,17.66h13A1.08,1.08,0,0,0,141,16.58V9.1l-7,4.05Z" class="cls-3"/><path d="M196.21,13.23l-7-8.35a.4.4,0,0,0-.65,0l-7,8.35c-.18.22-.1.4.18.4h1.52v5.58a.51.51,0,0,0,.51.51h3.81V15.66h2.53v4.06H194a.51.51,0,0,0,.51-.51V13.63H196C196.31,13.63,196.39,13.45,196.21,13.23Z" class="cls-3"/><path d="M216.73,3.92a5.66,5.66,0,0,0-5.65,5.65,9,9,0,0,0,1.43,4c.38.58,1,1.54,1.3,2.14l2.3,4a.66.66,0,0,0,1.24,0l2.29-4c.34-.6.93-1.56,1.31-2.14a9,9,0,0,0,1.43-4A5.66,5.66,0,0,0,216.73,3.92Zm0,7.67a2,2,0,1,1,2-2A2,2,0,0,1,216.73,11.59Z" class="cls-3"/><path d="M161.91,16.32a6.22,6.22,0,1,0-1.58,0v1.23h-1.75v1.58h1.75v1.75h1.58V19.13h1.74V17.55h-1.74Zm-.79-2.06a4.11,4.11,0,1,1,4.11-4.1A4.11,4.11,0,0,1,161.12,14.26Z" class="cls-3"/><path d="M138.86,42a2.27,2.27,0,0,1-1.56-.61,1.3,1.3,0,0,0-.93-.38,1.28,1.28,0,0,0-.93.38,2.27,2.27,0,0,1-3.1,0,1.3,1.3,0,0,0-.93-.38,1.28,1.28,0,0,0-.93.38,2.26,2.26,0,0,1-1.55.61,2.22,2.22,0,0,1-1.55-.61,1.3,1.3,0,0,0-.93-.38v4.46a1,1,0,0,0,1,1h12.91a1,1,0,0,0,1-1V41.05a1.3,1.3,0,0,0-.93.38A2.26,2.26,0,0,1,138.86,42Z" class="cls-3"/><path d="M140.35,37.57h-1.24v-3a.75.75,0,0,0-.75-.74.74.74,0,0,0-.74.74v3h-3v-3a.75.75,0,0,0-1.49,0v3h-3v-3a.74.74,0,0,0-.74-.74.75.75,0,0,0-.75.74v3h-1.24a1,1,0,0,0-1,1v1.49a2.26,2.26,0,0,1,1.55.61,1.29,1.29,0,0,0,.93.39,1.3,1.3,0,0,0,.93-.39,2.22,2.22,0,0,1,1.55-.61,2.26,2.26,0,0,1,1.55.61,1.3,1.3,0,0,0,1.86,0,2.26,2.26,0,0,1,1.55-.61,2.22,2.22,0,0,1,1.55.61,1.35,1.35,0,0,0,.94.39,1.33,1.33,0,0,0,.93-.39,2.26,2.26,0,0,1,1.55-.61V38.56A1,1,0,0,0,140.35,37.57Z" class="cls-3"/><path d="M214.83,49.19v-8.4H212l0-3.24h2.83c0-5,.41-7.24,6.63-6.53v2.87c-3.2,0-3.2,0-3.2,3.65h3.2L221,40.83h-2.75v8.36Z" class="cls-9"/><path d="M196.18,31.85c0,13.56-2.82,41.19.28,44.05,7.31,6.75,1.4,12.08-5.9,6.75s-15.45-16.87-15.45-16.87Z" class="cls-10"/><path d="M183.25,62.13c-.28,2.53-1.59,8.66,3.37,12.65A21.82,21.82,0,0,0,194,78.89s.33,13.34-17.61,13.87c-18.22.53-21.83-8.51-23.6-15.12,5.21-2.89,9.21-6.39,9.69-9.89.84-6.18.28-18,.28-18Z" class="cls-11"/><path d="M216.05,92.15c-1.77-7.88-17.66-10.83-25.82-14.88-5.54,14.12-29,14.62-32.7-1.85-3.18,2.59-16.18,7-17.84,7.51a23.07,23.07,0,0,0-5.78,2.45h0c-5.78,3.48-8.1,8.94-8.54,14.41-.1,1.25,0,5.82,0,10.4l17.72,1.12,2.53,16.3h54.16l3.18-14.82,15.91-2.6C218.44,100.77,217.33,97.88,216.05,92.15Z" class="cls-6"/><polygon points="202.93 112.79 218.84 110.19 221.07 127.6 205.26 127.6 202.93 112.79" class="cls-12"/><path d="M143.06,111.32l-17.72-1.12c0,6.13.17,13.25-.61,17.42h15.52Z" class="cls-12"/><path d="M194.21,24.75c2.36,6.08.71,12.23.42,15.6S196,58.27,181.71,64.52c-13.63-4.92-19.74-6.89-20.09-22.9-.24-10.58-.92-18.69,6.46-23.4C175.73,13.34,190.56,15.35,194.21,24.75Z" class="cls-12"/><path d="M196.18,32.77c-.74,7.59-11.45-6.12-12.93-8.64-3.16,4-12.22,11.65-18.12,13.76-.42,7.8,1,37.82-1.27,40.89-3,4-8.43,6.89-11.8,4.78s-4.42-2.74.42-9.49S155.64,53,155.64,41s1.69-26.55,18.76-26.55S196.81,26.23,196.18,32.77Z" class="cls-10"/><path d="M74.91,31.85c0,13.56-2.81,41.19.29,44.05,7.3,6.75,1.4,12.08-5.91,6.75S53.84,65.78,53.84,65.78Z" class="cls-13"/><path d="M62,62.13c-.28,2.53-1.6,8.66,3.37,12.65a21.84,21.84,0,0,0,7.35,4.11S73,92.23,55.11,92.76c-18.23.53-21.83-8.51-23.6-15.12,5.21-2.89,9.2-6.39,9.68-9.89.85-6.18.29-18,.29-18Z" class="cls-2"/><path d="M94.78,92.15C93,84.27,77.13,81.32,69,77.27,63.43,91.39,40,91.89,36.26,75.42c-3.18,2.59-16.17,7-17.83,7.51a23,23,0,0,0-5.79,2.45h0C6.86,88.87,4.53,94.33,4.09,99.8c-.1,1.25,0,5.82,0,10.4l17.73,1.12,2.53,16.3H78.48l3.18-14.82,15.91-2.6C97.17,100.77,96.07,97.88,94.78,92.15Z" class="cls-13"/><polygon points="81.66 112.79 97.57 110.19 99.81 127.6 84 127.6 81.66 112.79" class="cls-14"/><path d="M21.8,111.32,4.07,110.2c0,6.13.18,13.25-.61,17.42H19Z" class="cls-14"/><path d="M73,24.75c2.36,6.08.7,12.23.42,15.6s1.4,17.92-12.93,24.17C46.81,59.6,40.7,57.63,40.35,41.62c-.23-10.58-.91-18.69,6.46-23.4C54.46,13.34,69.29,15.35,73,24.75Z" class="cls-14"/><path d="M74.91,32.77c-.73,7.59-11.45-6.12-12.92-8.64-3.16,4-12.22,11.65-18.13,13.76-.42,7.8,1,37.82-1.26,40.89-3,4-8.43,6.89-11.8,4.78s-4.43-2.74.42-9.49S34.38,53,34.38,41s1.69-26.55,18.76-26.55S75.55,26.23,74.91,32.77Z" class="cls-13"/><polygon points="124.18 62.57 122.71 64.59 128.88 69.1 98.25 69.1 98.25 71.6 129.05 71.6 122.94 76.3 124.46 78.28 134.8 70.32 124.18 62.57" class="cls-15"/></g></g></g></g></svg>