<svg xmlns="http://www.w3.org/2000/svg" width="533.231" height="321.266"  xmlns:v="https://vecta.io/nano"><defs><clipPath id="A"><path transform="translate(941 52)" fill="#e0e0e0" d="M0 0h513v321H0z"/></clipPath></defs><path d="M266.217 162.522l-3.845-38.449h22.11l-5.767 40.37z" fill="#cfcfcf"/><path d="M171.662 165.317h-7.482c2.321-1.658 3.699-4.334 3.7-7.186v-11.725h-17.71v3.391c-.084 0-.164-.025-.25-.025a5.49 5.49 0 0 0-5.413 5.487 5.49 5.49 0 0 0 5.413 5.487 5.4 5.4 0 0 0 .628-.063 8.87 8.87 0 0 0 3.317 4.631h-7.888a1.5 1.5 0 0 0-1.395 2.279 1.5 1.5 0 0 0 1.395.712h25.686a1.5 1.5 0 0 0 1.395-2.279 1.5 1.5 0 0 0-1.395-.712zm-21.742-6.064a3.99 3.99 0 1 1 0-7.982c.085 0 .166.02.25.025v6.835a8.89 8.89 0 0 0 .073 1.09l-.323.028z" fill="#aeaeae"/><g fill="#333"><path d="M228.858 319.319l-.07-20.02-7.984.027-37.718 20.029v.124l26.228-.091 9.677-4.716 2.611 4.671z"/><path d="M203.105 304.874c1.484-4.355 5.875-15.773 11.547-30.187l9.267-23.359 5.599-13.974 7.087-19.214 19.807-5.196 1.234-.28 2.439-.557 4.773-1.082 17.163-3.838 19.791-4.045a19.4 19.4 0 0 1 3.2-.135 14.01 14.01 0 0 1 7.539 2.261 10.72 10.72 0 0 1 4.4 5.908l.011.039.013.037a10.73 10.73 0 0 1-.334 7.36 14.03 14.03 0 0 1-4.978 6.1 19.69 19.69 0 0 1-2.724 1.681c-2.044 1.038-8.962 3.882-18.66 7.736l-16.366 6.439-6.892 2.682-1.179.458a.89.89 0 0 0-.279.134l-.147.092a38.2 38.2 0 0 0-2.049 1.4c-.035.61-.056 1.181-.063 1.705v1.067l-.047.191-.407 1.628-3.26 12.971-6.208 24.354-8.369 31.22zm-18.528-12.523l9.524-17.611-7.022-3.8-42.7-.477-.059.11 23.069 12.478 10.753.5.056 5.351z"/></g><path d="M291.221 214.713v-79.559c-.079-8.162 4.239-15.735 11.304-19.824s15.782-4.061 22.82.074 11.307 11.735 11.176 19.896v79.558z" fill="#f39600"/><path d="M329.233 70.406c0 7.064-4.256 13.431-10.782 16.134s-14.038 1.208-19.032-3.787-6.488-12.507-3.784-19.033 9.072-10.78 16.136-10.779c4.643-.037 9.106 1.792 12.389 5.075s5.11 7.747 5.073 12.39z" fill="#363636"/><path d="M304.884 90.239v9.182l-9.163 5.756h9.163v11.277h18.176l-.006-26.213z" fill="#edac81"/><g fill="#f1c9aa"><path d="M313.453 91.571l9.618.331-.005-18.673c-.002-7.552-6.126-13.672-13.677-13.67s-13.672 6.126-13.671 13.677l.008 31.943 13.159-5.311c3.693-1.58 4.504-4.146 4.568-8.297z"/><path d="M296.088 84.62l-4.77 9.8h5.31"/></g><path d="M290.453 94.962h6.175a.54.54 0 0 0 .487-.816.54.54 0 0 0-.487-.263h-4.447l4.392-9.026a.54.54 0 0 0-.522-.774.54.54 0 0 0-.447.301z" fill="#edac81"/><path d="M295.835 68.785s1.891 16.2 17.824 16.2l6.212 6.481 3.2 1.349s.294-8.433 2.927-12.147c3.992-5.629-3.7-19.178-3.7-19.178l-14.854-5.131-8.1 5.4z" fill="#363636"/><path d="M314.062 85.944a3.4 3.4 0 0 1 3.406-3.4h0a3.4 3.4 0 0 1 3.4 3.4v4.9c-.001 1.878-1.522 3.402-3.4 3.405h0c-1.879 0-3.402-1.521-3.405-3.4" fill="#f1c9aa"/><path d="M317.47 94.788a3.95 3.95 0 0 0 3.944-3.945v-4.9c0-2.178-1.766-3.944-3.944-3.944s-3.944 1.766-3.944 3.944a.54.54 0 0 0 1.08 0c0-1.023.546-1.969 1.432-2.48s1.978-.512 2.864 0 1.432 1.457 1.432 2.48v4.9c-.029 1.561-1.303 2.811-2.865 2.811s-2.835-1.25-2.865-2.811a.54.54 0 1 0-1.08 0 3.95 3.95 0 0 0 3.945 3.945z" fill="#edac81"/><path d="M319.694 90.822c0 1.229-.996 2.225-2.225 2.225s-2.225-.996-2.225-2.224.995-2.225 2.224-2.226c.59-.001 1.157.234 1.574.651s.652.984.652 1.574z" fill="#fff"/><path d="M325.989 80.278s30.39 28.12 12.176 34.54-12.176-34.54-12.176-34.54z" fill="#363636"/><path d="M325.06 117.767v-10.8l-22.145 6.481-1.62 11.883z" fill="#f39600"/><path d="M174.688 262.153c3.431-4.02 13.443-14.838 26-28.214l20.257-21.446 11.284-11.852c.239-.254.37-.375.819-.884l2.261-2.52 13.077-14.524 20.45 4.298 3.291.721 4.352 1.067 15.486 3.862c9.128 2.31 15.574 4.029 17.648 4.755a21 21 0 0 1 3.109 1.392 14.9 14.9 0 0 1 6.1 5.73c1.358 2.328 1.848 5.061 1.384 7.715l-.009.04-.005.041a11.4 11.4 0 0 1-3.809 6.847 14.9 14.9 0 0 1-7.633 3.441 20.6 20.6 0 0 1-3.393.307c-2.2.017-8.853-.449-18.235-1.223l-15.9-1.372-4.462-.4a4.14 4.14 0 0 0-1.234-.032l-.681.061c-.891.087-1.716.188-2.457.3q-.5 1.022-.909 1.934l-.381.879-.171.415c-.118.207-.251.403-.4.589l-9.56 13.288-17.302 23.887-22.891 30.8z" fill="#333"/><path d="M199.601 166.245l-17.283-43.11a3.24 3.24 0 0 1 3.006-4.446h29.96c1.324.001 2.515.806 3.009 2.035L234.76 161.8h27.981a3.24 3.24 0 1 1 0 6.481h-60.134a3.24 3.24 0 0 1-3.006-2.036z" fill="#000ca5"/><path d="M225.204 166.931a.54.54 0 1 0 0-1.08l-20.96-.1c-1.107.005-2.103-.67-2.509-1.7l-7.359-18.392a.54.54 0 0 0-1 .4l7.359 18.392c.57 1.438 1.962 2.38 3.508 2.376l20.958.1z" fill="#fff"/><path d="M230.575 160.705l-14.853-37.536h-26.2l15.393 37.536z" fill="#0098ff"/><path d="M196.391 139.906l-6.865-16.737h13.041l21.769 21.767 6.239 15.769H217.19z" fill="#fff" opacity=".25"/><path d="M196.424 317.117c.513.004 1.007-.195 1.372-.555s.574-.85.578-1.363V179.932a1.95 1.95 0 1 0-3.9 0v135.267c.004.513.212 1.003.578 1.363s.859.559 1.372.555z" fill="#cfcfcf"/><path fill="#333" d="M128.191 168.265h136.465v15.109H128.191z"/><path d="M240.944 321.266h-89.041c.383-8.158 7.106-14.578 15.273-14.583h58.493c8.168.004 14.892 6.424 15.275 14.583z" fill="#cfcfcf"/><path d="M211.56 285.3l41.561-70.222 37.052 9.972.281-1.042-37.845-10.191-41.978 70.933z" fill="#fff"/><path d="M382.835 268.878h23.713l-8.821 52.391h-6.068v-.008zm-83.691 0h23.713l-8.821 52.391h-6.068v-.008z" fill="#adadad"/><g fill="#fff"><path d="M381.768 97.785h19.07c8.455.001 15.308 6.854 15.309 15.309v157.529h-49.69V113.094a15.31 15.31 0 0 1 15.311-15.309z"/><path d="M300.229 178.442h66.041a15.31 15.31 0 0 1 15.309 15.311v76.87h-96.666v-76.87a15.31 15.31 0 0 1 15.316-15.311z"/></g><path d="M366.27 177.901h42.505a.54.54 0 1 0 0-1.08H366.27a.54.54 0 1 0 0 1.08z" fill="#dfdfdf"/><path d="M250.253 163.138l-13.233-7.292-12.423 3.511v2.431h7.292l-4.051 6.211h2.971l5.941-4.321 4.861 4.051 9.452.81z" fill="#f1c9aa"/><path d="M246.943 169.339l2.242-8.543c5.757 1.07 11.606 1.573 17.461 1.5a56.73 56.73 0 0 0 12.25-1.589 44.58 44.58 0 0 0 11.844-4.771 43.73 43.73 0 0 0 9.6-7.653c2.527-2.682 4.764-5.624 6.673-8.776 2.285-3.848 4.234-7.885 5.825-12.068l.188-.429c1.545-4.308 5.293-7.448 9.806-8.213.972-.144 1.962-.127 2.929.049h.036c.977.181 1.899.584 2.695 1.179 1.89 1.468 3.164 3.587 3.576 5.944.543 2.844.19 5.786-1.01 8.42l-.222.56c-2.363 5.307-5.358 10.31-8.919 14.9-3.008 3.926-6.438 7.509-10.229 10.686a58.66 58.66 0 0 1-14.262 8.809c-5.169 2.222-10.634 3.679-16.223 4.325a67.81 67.81 0 0 1-15.046.036 88.34 88.34 0 0 1-19.214-4.366z" fill="#f39600"/><path d="M293.734 171.24a.51.51 0 0 0 .171-.028c27.466-9.154 36.965-31.946 37.058-32.177a.54.54 0 0 0-1-.4c-.091.224-9.423 22.565-36.4 31.558a.54.54 0 0 0 .171 1.052z" fill="#fff"/><g opacity=".71"><path d="M198.934 83.093c13.602-12.463 34.474-12.463 48.076 0m-41.4 7.191a24.56 24.56 0 0 1 34.724 0m-28.046 7.498c6.122-5.339 15.245-5.339 21.367 0" fill="none" stroke="#000" stroke-linecap="round" stroke-linejoin="round"/><circle cx="222.972" cy="105.795" r="2.671"/></g><g transform="translate(-920.769 -52)" clip-path="url(#A)"><path d="M1007.347 322.017h-15.019c19.739-36.428.481-75.864.481-75.864l-1.4 15.6c-.539-2.953-1.403-5.837-2.577-8.6l-2.609 29.732c.625-19.811-4.18-29.732-4.18-29.732l-2.07 23.6-2.036-41.671c-8.839 15.561-12.913 33.376-11.716 51.232l-6.287-22.964s-5.7 29.047 10.427 58.666h-15.363l6.469 40.837h-6.469l6.683 9.654 16.706.277v.094l2.786-.046 2.784.046v-.094l16.705-.277 6.683-9.654h-6.469z" fill="#aeaeae"/></g></svg>