<svg xmlns="http://www.w3.org/2000/svg" viewBox="0 0 532.35 706.34">
    <defs>
        <style>
            .cls-1{fill:none}.cls-2{isolation:isolate}.cls-3{clip-path:url(#clip-path)}.cls-4{fill:#f5f5f5}.cls-5{fill:#d3d3d3}.cls-6{fill:#e9e9e9}.cls-7{fill:#9eccff}.cls-8{fill:#2b90ff}.cls-9{fill:#fff}.cls-10{fill:#10355d}.cls-11{clip-path:url(#clip-path-2)}.cls-12{fill:#d8d8d8}.cls-13{fill:#081b2f}.cls-14{fill:#ffcfae}.cls-15{fill:#9b9b9b}.cls-16{fill:#eab896}.cls-17{fill:#424242}.cls-18{fill:#6b373e}.cls-19{fill:#ffb522}
        </style>
        <clipPath id="clip-path" transform="translate(-.04 -5.16)">
            <path class="cls-1" d="M1.08 555.67L0 172.88 299.43 0l1.09 382.8L1.08 555.67z"/>
        </clipPath>
        <clipPath id="clip-path-2" transform="translate(-.04 -5.16)">
            <path class="cls-1" d="M41.33 276.45l-.19-68.55L273.9 73.51l.19 68.55L41.33 276.45z"/>
        </clipPath>
    </defs>
    <title>
        Sales Forecasting
    </title>
    <g id="Layer_2" data-name="Layer 2">
        <g id="Layer_1-2" data-name="Layer 1">
            <path class="cls-2 cls-3 cls-4" d="M287.71 6.77l-276 159.34C5.25 169.85 0 178.91 0 186.35L1 542.2c0 7.44 5.29 10.44 11.76 6.7l276-159.34c6.47-3.74 11.71-12.8 11.68-20.24l-1-355.86c0-7.44-5.29-10.44-11.76-6.7" transform="translate(-.04 -5.16)"/>
            <path class="cls-5" d="M281.61 237.12l25.08-14.48.02 4.95-25.08 14.48-.02-4.95"/>
            <path class="cls-6" d="M279.06 246.1l30.26-17.47.01 3.07-30.27 17.46v-3.06M279.07 250.6l30.27-17.47.01 3.06-30.27 17.47-.01-3.06"/>
            <path class="cls-7" d="M294.15 216.57c-6.77 3.92-12.26.79-12.27-7s5.43-17.23 12.2-21.13 12.26-.75 12.28 7-5.43 17.22-12.21 21.13m-.1-36.14c-10.63 6.14-19.22 21-19.18 33.18s8.68 17.14 19.31 11 19.21-21 19.18-33.22l-7 4c0-7.75-5.51-10.91-12.28-7v-8" transform="translate(-.04 -5.16)"/>
            <path class="cls-8" d="M294.06 180.43c10.62-6.14 19.26-1.25 19.3 11l-7 4c0-7.75-5.51-10.91-12.28-7v-8" transform="translate(-.04 -5.16)"/>
            <path class="cls-5" d="M230.29 266.76l25.08-14.49.02 4.96-25.08 14.48-.02-4.95"/>
            <path class="cls-6" d="M227.74 275.73L258 258.26l.01 3.06-30.26 17.48-.01-3.07M227.75 280.23l30.27-17.47.01 3.05-30.27 17.49-.01-3.07"/>
            <path class="cls-7" d="M255 225.06a23.89 23.89 0 0 1-2.75 10.52 23.74 23.74 0 0 0 2.75-10.52m-12.3-15c-10.63 6.14-19.22 21-19.18 33.18s8.68 17.14 19.31 11c5.85-3.38 11.08-9.4 14.6-16.17-.33.62-.67 1.23-1 1.84l-5-2.8a24.82 24.82 0 0 1-8.63 9.09c-6.77 3.91-12.26.78-12.27-7s5.47-17.2 12.22-21.13 12.26-.75 12.28 7c0-7.75-5.51-10.91-12.28-7v-8" transform="translate(-.04 -5.16)"/>
            <path class="cls-8" d="M242.74 210.06c10.62-6.14 19.26-1.24 19.3 11a37.78 37.78 0 0 1-4.58 17.05c-.33.62-.67 1.23-1 1.84l-5-2.8c.28-.48.53-.94.78-1.43v-.06a23.74 23.74 0 0 0 2.76-10.6c0-7.75-5.51-10.91-12.28-7v-8" transform="translate(-.04 -5.16)"/>
            <path class="cls-7" d="M191.42 239.69v8c6.74-3.89 12.26-.75 12.28 7 0-7.76-5.54-10.9-12.28-7s-12.22 13.39-12.2 21.13c0 3.81 1.35 6.5 3.48 7.81l-5 8.48 5-8.48-5 8.48c3.52 2.14 8.4 1.89 13.84-1.24 10.63-6.14 19.21-21 19.18-33.23 0 12.21-8.55 27.09-19.18 33.23-5.44 3.14-10.32 3.38-13.84 1.24-3.36-2.05-5.44-6.25-5.46-12.25 0-12.21 8.56-27 19.18-33.18" transform="translate(-.04 -5.16)"/>
            <path class="cls-5" d="M178.97 296.39l25.08-14.49.02 4.95-25.08 14.49-.02-4.95"/>
            <path class="cls-6" d="M176.39 305.38l30.29-17.49.01 3.06-30.29 17.5-.01-3.07M176.4 309.88l30.3-17.5.01 3.06-30.3 17.5-.01-3.06"/>
            <path class="cls-8" d="M191.42 239.69c10.62-6.14 19.26-1.24 19.3 11s-8.55 27.09-19.18 33.23c-5.44 3.14-10.32 3.38-13.84 1.24l5-8.48c2.22 1.36 5.35 1.19 8.8-.81 6.74-3.89 12.22-13.36 12.21-21.13s-5.54-10.9-12.28-7v-8" transform="translate(-.04 -5.16)"/>
            <path class="cls-8" d="M182.68 271.48l-5.02 8.49 5.02-8.49"/>
            <path class="cls-9" d="M67.06 611.37l-12.35 7.11v-5.89L67 605.47v5.9m34.87-20.14l-12.36 7.17v-9.39l12.42-7.19v9.42m139.34-80.45l-12.42 7.17v-18.88l12.42-7.19v18.9m174.22-100.62l-12.42 7.19-.07-23.43 12.42-7.16.07 23.41m-278.76 161l-12.33 7.14-.09-26.07 12.35-7.12.07 26m139.34-80.45l-12.33 7.15-.09-27.53 12.35-7.13.07 27.5m104.54-60.35l-12.42 7.17-.11-39.24 12.42-7.15.11 39.23m-69.67 40.22l-12.42 7.16-.14-54.77 12.4-7.17.16 54.77m104.47-83.78L403 393.93l-.09-32.8 12.42-7.19.09 32.82m-34.92 4.33l-12.42 7.15-.07-26 12.43-7.24.07 26.06m-174.1 139.85L194.08 538l-.2-68.53 12.35-7.11.18 68.52m34.83-39l-12.42 7.19-.16-56.75 12.42-7.16.16 56.73m69.56-76.11l-12.4 7.17-.07-22.81 12.41-7.14v22.81M136.67 545.08l-12.35 7.12-.16-56.14 12.35-7.12.16 56.14m209.08-94.62l-12.33 7.12-.27-90.24 12.35-7.12.25 90.24m-139.52 11.92l-12.35 7.11-.07-23.75 12.35-7.11.07 23.75M171.61 551l-12.42 7.16-.32-117.05 12.42-7.16.32 117.05m-69.69 30.82L89.49 589l-.36-131.77 12.42-7.16.36 131.75M67 605.47l-12.33 7.12-.39-138.06 12.33-7.15.39 138.09m-3.48-199.86l28.91 3.15a7.42 7.42 0 0 1 2.73-3.19c1.93-1.11 3.5-.23 3.5 2a4.36 4.36 0 0 1-.11 1.06l28.45-3.74a7.79 7.79 0 0 1 3.07-3.91c1.21-.69 2.27-.61 2.91.09l28.66-33.77a3.09 3.09 0 0 1-.23-1.26 7.6 7.6 0 0 1 3.41-6c1.91-1.11 3.5-.23 3.5 2a6.46 6.46 0 0 1-.59 2.5l29.66 11.71a7.19 7.19 0 0 1 2.39-2.43c1.93-1.11 3.5-.3 3.5 1.91a7 7 0 0 1-.86 3.19l30.32 20.61a6.71 6.71 0 0 1 2-1.91c1.86-1.07 3.43-.18 3.43 2a6.53 6.53 0 0 1-.61 2.58l29.82 13.48a6.6 6.6 0 0 1 2.27-2.31 2.67 2.67 0 0 1 2.12-.4l29.91-52.79a2.49 2.49 0 0 1-.75-2 7.63 7.63 0 0 1 3.48-6 3 3 0 0 1 1.23-.42l31.39-84.89a2.26 2.26 0 0 1-1.43-2.43 7.46 7.46 0 0 1 3.39-5.9c2-1.14 3.5-.32 3.53 1.91a7.16 7.16 0 0 1-1 3.39l30.59 26.09a6.41 6.41 0 0 1 1.84-1.68c1.93-1.11 3.48-.23 3.5 2a6 6 0 0 1-.36 2l29.16 4.64a7 7 0 0 1 2.64-3c1.93-1.11 3.5-.23 3.5 1.91a7.69 7.69 0 0 1-3.48 6c-1.86 1.06-3.43.17-3.43-2.06a5.61 5.61 0 0 1 .34-1.87l-29.16-4.59a7.38 7.38 0 0 1-2.68 3c-1.86 1.09-3.43.19-3.43-2a7.11 7.11 0 0 1 1-3.34l-30.62-26.11a6.46 6.46 0 0 1-1.86 1.68 2.92 2.92 0 0 1-1.27.43l-31.39 84.89c.89.2 1.48 1.07 1.5 2.43a7.49 7.49 0 0 1-3.41 5.89 2.8 2.8 0 0 1-2.18.43l-29.87 52.79a2.64 2.64 0 0 1 .77 2.07 7.66 7.66 0 0 1-3.48 6c-1.93 1.11-3.44.19-3.44-2a6.75 6.75 0 0 1 .57-2.59L237 403.28a6.74 6.74 0 0 1-2.25 2.27c-1.93 1.11-3.48.23-3.5-1.91a6.88 6.88 0 0 1 .84-3.09l-30.3-20.7a7.08 7.08 0 0 1-2 1.93c-1.93 1.11-3.5.2-3.5-2a6.34 6.34 0 0 1 .57-2.52l-29.64-11.74a7.58 7.58 0 0 1-2.39 2.48c-1.16.66-2.21.57-2.82-.11l-28.68 33.82a3.43 3.43 0 0 1 .25 1.27 7.66 7.66 0 0 1-3.5 5.94c-1.93 1.12-3.5.23-3.5-1.91a5.43 5.43 0 0 1 .11-1l-28.46 3.75a7.55 7.55 0 0 1-3.07 3.89c-1.84 1.07-3.41.18-3.43-2a5.76 5.76 0 0 1 .3-1.73l-29-3.12a7.37 7.37 0 0 1-2.78 3.14c-1.91 1.13-3.48.23-3.5-2a7.73 7.73 0 0 1 3.48-6c2-1.11 3.5-.23 3.5 2a5.54 5.54 0 0 1-.27 1.79" transform="translate(-.04 -5.16)"/>
            <path class="cls-8" d="M402.97 388.77l12.41-7.17.07 23.41-12.42 7.19-.06-23.43"/>
            <path class="cls-7" d="M402.88 355.97l12.41-7.19.09 32.82-12.41 7.17-.09-32.8"/>
            <path class="cls-8" d="M368.05 393.09l12.42-7.15.11 39.22-12.42 7.17-.11-39.24"/>
            <path class="cls-7" d="M367.98 367.05l12.42-7.17.07 26.06-12.42 7.15-.07-26.04"/>
            <path class="cls-8" d="M333.11 362.18l12.35-7.12.25 90.23-12.33 7.12-.27-90.23M298.36 417.77l12.39-7.16.16 54.77-12.42 7.16-.13-54.77"/>
            <path class="cls-7" d="M298.29 394.96l12.42-7.17.04 22.82-12.39 7.16-.07-22.81"/>
            <path class="cls-8" d="M263.62 465.13l12.35-7.12.07 27.5-12.33 7.15-.09-27.53M228.77 493.9l12.42-7.19.05 18.91-12.42 7.16-.05-18.88"/>
            <path class="cls-7" d="M228.62 437.15l12.41-7.16.16 56.72-12.42 7.19-.15-56.75"/>
            <path class="cls-8" d="M193.84 464.33l12.35-7.1.18 68.52-12.33 7.12-.2-68.54"/>
            <path class="cls-7" d="M193.77 440.59l12.35-7.11.07 23.75-12.35 7.1-.07-23.74"/>
            <path class="cls-8" d="M158.83 435.94l12.42-7.16.32 117.05-12.42 7.17-.32-117.06M124.28 547.04l12.35-7.12.07 26.04-12.33 7.15-.09-26.07"/>
            <path class="cls-7" d="M124.12 490.9l12.35-7.12.16 56.14-12.35 7.12-.16-56.14"/>
            <path class="cls-8" d="M89.45 583.84l12.42-7.19.03 9.42-12.42 7.17-.03-9.4"/>
            <path class="cls-7" d="M89.09 452.07l12.42-7.16.36 131.74-12.42 7.19-.36-131.77"/>
            <path class="cls-8" d="M54.67 607.43L67 600.31l.03 5.9-12.36 7.11v-5.89"/>
            <path class="cls-7" d="M54.29 469.37l12.33-7.15.38 138.09-12.33 7.12-.38-138.06"/>
            <path class="cls-8" d="M408.92 293.82c1.93-1.11 3.5-.23 3.5 1.91a7.69 7.69 0 0 1-3.48 6c-1.86 1.06-3.43.17-3.43-2.06a5.61 5.61 0 0 1 .34-1.87l2.87.46.43-1-2.87-.46a7 7 0 0 1 2.64-3M371.52 290.89a7.11 7.11 0 0 0-1 3.34c0 2.22 1.57 3.12 3.43 2a7.38 7.38 0 0 0 2.68-3l-2.93-.46-2.23-1.91m2.46-2.66a6.41 6.41 0 0 0-1.84 1.68l2.14 1.82 2.84.46a6 6 0 0 0 .36-2c0-2.23-1.57-3.12-3.5-2M339.11 263.25l-1.34 3.64a2.92 2.92 0 0 0 1.27-.43 6.46 6.46 0 0 0 1.86-1.68l-1.8-1.52m-.09-4.73a7.46 7.46 0 0 0-3.39 5.9 2.26 2.26 0 0 0 1.43 2.43l1.61-4.37.3-.85 2.57 2.18a7.16 7.16 0 0 0 1-3.39c0-2.23-1.57-3-3.53-1.91M306.38 351.78l-1.64 4.41-2.46 4.35a2.8 2.8 0 0 0 2.18-.43 7.49 7.49 0 0 0 3.41-5.89c0-1.36-.61-2.23-1.5-2.43m-1.93.39a7.63 7.63 0 0 0-3.48 6 2.49 2.49 0 0 0 .75 2l2.37-4.16 1.59-4.31a3 3 0 0 0-1.23.42M272.42 413.33l-2.42 4.26-.3.52-2.84-1.3a6.75 6.75 0 0 0-.57 2.59c0 2.22 1.5 3.14 3.44 2a7.66 7.66 0 0 0 3.48-6 2.64 2.64 0 0 0-.77-2.07m-2.73.08a6.6 6.6 0 0 0-2.27 2.31l2.27 1 2.09-3.72a2.67 2.67 0 0 0-2.12.4M232.13 400.55a6.88 6.88 0 0 0-.84 3.09c0 2.14 1.57 3 3.5 1.91a6.74 6.74 0 0 0 2.25-2.27l-2.62-1.18-2.3-1.55m2.64-2.93a6.71 6.71 0 0 0-2 1.91l2.27 1.55 2.57 1.17a6.53 6.53 0 0 0 .61-2.58c0-2.23-1.57-3.12-3.43-2M196.88 377.26a6.34 6.34 0 0 0-.57 2.52c0 2.21 1.57 3.12 3.5 2a7.08 7.08 0 0 0 2-1.93l-2.25-1.55-2.71-1m2.91-3.43a7.19 7.19 0 0 0-2.39 2.43l2.71 1.07 2.32 1.59a7 7 0 0 0 .86-3.19c0-2.21-1.57-3-3.5-1.91M164.83 364.56l-2.8 3.32c.61.68 1.66.77 2.82.11a7.58 7.58 0 0 0 2.39-2.48l-2.41-1m0-4.53a7.6 7.6 0 0 0-3.41 6 3.09 3.09 0 0 0 .23 1.26l3-3.58.23-.31 2.84 1.13a6.46 6.46 0 0 0 .59-2.5c0-2.23-1.59-3.12-3.5-2M133.35 401.71l-3 3.59-.23.2-3.39.45a5.43 5.43 0 0 0-.11 1c0 2.14 1.57 3 3.5 1.91a7.66 7.66 0 0 0 3.5-5.94 3.43 3.43 0 0 0-.25-1.27m-3.28-.73a7.79 7.79 0 0 0-3.07 3.91l3.09-.41 2.89-3.41c-.64-.7-1.71-.78-2.91-.09M92 409.83a5.76 5.76 0 0 0-.3 1.73c0 2.23 1.59 3.12 3.43 2a7.55 7.55 0 0 0 3.07-3.89l-3.3.41-2.91-.3m3.12-4.25a7.42 7.42 0 0 0-2.73 3.19l2.89.32 3.23-.43a4.36 4.36 0 0 0 .11-1.06c0-2.24-1.57-3.13-3.5-2M60.29 401.82c2-1.11 3.5-.23 3.5 2a5.54 5.54 0 0 1-.27 1.79l-3-.33-.45 1.12 3 .32a7.37 7.37 0 0 1-2.78 3.14c-1.91 1.13-3.48.23-3.5-2a7.73 7.73 0 0 1 3.48-6" transform="translate(-.04 -5.16)"/>
            <path class="cls-7" d="M301.71 360.22L271.8 413a1.59 1.59 0 0 1 .61.32l29.87-52.79a1.58 1.58 0 0 1-.57-.32m75.4-68a8 8 0 0 1-.43 1.07l29.16 4.59a6.62 6.62 0 0 1 .43-1l-29.16-4.64m-40.06-25.33l-31.39 84.89a1.59 1.59 0 0 1 .7 0l31.39-84.89a2.86 2.86 0 0 1-.7 0m4.48-3a9.65 9.65 0 0 1-.64 1l30.62 26.11a8.75 8.75 0 0 1 .61-1l-30.59-26.09m-278 141.79a10.39 10.39 0 0 1-.43 1.1l29 3.12a6 6 0 0 1 .39-1.07l-28.91-3.15" transform="translate(-.04 -5.16)"/>
            <path class="cls-8" d="M406.28 296.82l2.87.46-.43 1-2.87-.46a6.62 6.62 0 0 1 .43-1M372.14 289.91l2.14 1.82 2.84.46a8 8 0 0 1-.43 1.07l-2.93-.46-2.23-1.91a8.75 8.75 0 0 1 .61-1M339 261.64l2.57 2.18a9.65 9.65 0 0 1-.64 1l-1.8-1.52-1.34 3.64a2.86 2.86 0 0 1-.7 0l1.61-4.37.3-.85M305.67 351.75a1.59 1.59 0 0 1 .7 0l-1.64 4.41-2.46 4.35a1.58 1.58 0 0 1-.57-.32l2.37-4.16 1.59-4.31" transform="translate(-.04 -5.16)"/>
            <path class="cls-7" d="M237.59 402.24a10 10 0 0 1-.55 1l29.8 13.53a8.13 8.13 0 0 1 .57-1.09l-29.82-13.48m-35.17-23.33c-.18.32-.39.64-.59.93l30.3 20.7a7.63 7.63 0 0 1 .61-1l-30.32-20.61M98.54 408.65a6.93 6.93 0 0 1-.3 1.07l28.47-3.72a6.43 6.43 0 0 1 .3-1.07l-28.46 3.75m69.19-44.1a7.09 7.09 0 0 1-.5 1l29.64 11.74a8.17 8.17 0 0 1 .52-1l-29.66-11.71m-6.1 2.76L133 401.07a2.06 2.06 0 0 1 .36.64L162 367.88a1.84 1.84 0 0 1-.39-.58" transform="translate(-.04 -5.16)"/>
            <path class="cls-8" d="M271.8 413a1.59 1.59 0 0 1 .61.32l-2.41 4.27-.3.52-2.84-1.3a8.13 8.13 0 0 1 .57-1.09l2.27 1 2.1-3.72M232.75 399.52l2.27 1.55 2.57 1.17a10 10 0 0 1-.55 1l-2.62-1.18-2.3-1.55a7.63 7.63 0 0 1 .61-1M197.4 376.26l2.71 1.07 2.32 1.59c-.18.32-.39.64-.59.93l-2.25-1.55-2.71-1a8.17 8.17 0 0 1 .52-1M164.9 363.41l2.84 1.13a7.09 7.09 0 0 1-.5 1l-2.41-1-2.8 3.32a1.84 1.84 0 0 1-.39-.58l3-3.58.23-.31M133 401.07a2.06 2.06 0 0 1 .36.64l-3 3.59-.23.2-3.39.45a6.43 6.43 0 0 1 .3-1.07l3.09-.41 2.89-3.41M92.43 408.76l2.89.32 3.23-.43a6.93 6.93 0 0 1-.3 1.07l-3.3.41-2.91-.3a6 6 0 0 1 .39-1.07M60.54 405.28l3 .33a10.39 10.39 0 0 1-.43 1.1l-3-.32.45-1.12M82.77 324.36L144 289c-.17 19.37-13.74 42.76-30.53 52.46s-30.45 2-30.73-17.09" transform="translate(-.04 -5.16)"/>
            <path class="cls-7" d="M91.43 294.29l21.1 12-29.76 17.19c.07-9.46 3.38-19.89 8.66-29.18" transform="translate(-.04 -5.16)"/>
            <path class="cls-10" d="M113.31 271c16.79-9.69 30.45-2 30.73 17.09l-30.44 17.59L92 293.33c5.51-9.37 13-17.51 21.33-22.31" transform="translate(-.04 -5.16)"/>
            <path class="cls-5" d="M49.19 304.86l21.82-12.6.02 4.31-21.83 12.6-.01-4.31"/>
            <path class="cls-6" d="M44.67 314.03l26.36-15.23v2.67l-26.36 15.22v-2.66M44.67 317.91l26.37-15.22.01 2.66-26.37 15.23-.01-2.67"/>
            <path class="cls-5" d="M49.26 328.87l21.82-12.61.01 4.29-21.82 12.59-.01-4.27"/>
            <path class="cls-6" d="M44.74 338l26.35-15.22.01 2.66-26.36 15.23V338M44.74 341.89l26.37-15.23.01 2.67-26.37 15.23-.01-2.67"/>
            <path class="cls-5" d="M49.32 352.84l21.83-12.6.01 4.3-21.82 12.61-.02-4.31"/>
            <path class="cls-6" d="M44.8 361.98l26.36-15.23.01 2.67-26.36 15.22-.01-2.66M44.81 365.86l26.37-15.22.01 2.66-26.37 15.23-.01-2.67"/>
            <g class="cls-2 cls-11">
                <path class="cls-5" d="M273.86 68.35L41.1 202.74l.03 9.03L273.89 77.38l-.03-9.03M149.42 160.65l-108.26 62.5.01 4.05 108.26-62.51-.01-4.04M149.44 169.47l-108.25 62.5.01 4.04 108.26-62.5-.02-4.04M149.47 178.29l-108.26 62.5.01 4.04 108.26-62.5-.01-4.04M149.49 187.11l-108.26 62.5.02 4.04 108.25-62.5-.01-4.04M149.52 195.92L41.26 258.43l.01 4.04 108.26-62.5-.01-4.05M149.54 204.74L41.28 267.25l.02 4.04 108.26-62.51-.02-4.04M266.53 93.03l-108.25 62.5.01 4.05 108.25-62.5-.01-4.05M266.56 101.85l-108.25 62.5.01 4.05 108.25-62.51-.01-4.04M266.58 110.67l-108.25 62.5.01 4.04 108.25-62.5-.01-4.04M266.61 119.49l-108.26 62.5.02 4.04 108.25-62.5-.01-4.04M256.97 133.88l-98.59 56.93.01 4.04 98.59-56.92-.01-4.05M247.33 148.28l-88.92 51.35.01 4.04 88.92-51.34-.01-4.05"/>
            </g>
            <path class="cls-12" d="M349.83 652.14c-27.34 15.89-32.16 39.1-10.71 51.57s61.36 9.67 88.69-6.22 32.16-39.1 10.71-51.57-61.35-9.67-88.69 6.22z" transform="translate(-.04 -5.16)"/>
            <path class="cls-13" d="M359.55 692c5.92 5.93 13.11 8.36 16 5.42s.52-10.12-5.41-16.05-13.11-8.36-16-5.43c-1.77 1.77-1.65 6.41-1.65 8.19 1 1.87 4.71 5.51 7.06 7.87z" transform="translate(-.04 -5.16)"/>
            <path class="cls-14" d="M359.6 685.82c3.88 3.7 8.51 5.14 10.34 3.22s.17-6.47-3.7-10.17-8.51-5.14-10.34-3.21-.18 6.47 3.7 10.16z" transform="translate(-.04 -5.16)"/>
            <path class="cls-13" d="M412.61 661.62c5.69 5.69 12.59 8 15.41 5.2s.49-9.72-5.19-15.42-12.59-8-15.41-5.21c-1.7 1.7-1.58 6.16-1.58 7.87.95 1.77 4.51 5.3 6.77 7.56z" transform="translate(-.04 -5.16)"/>
            <path class="cls-14" d="M412.65 655.69c3.73 3.56 8.17 4.94 9.93 3.09s.17-6.21-3.55-9.77-8.17-4.93-9.93-3.09-.17 6.23 3.55 9.77z" transform="translate(-.04 -5.16)"/>
            <path class="cls-15" d="M352.48 580.93s-21.36-85.73-28.78-139.78L453.64 418c.55 26.28-6.45 79-9.41 115.26C439.78 587.9 421 650.94 421 650.94c-.41 2-2.62 3.49-7 3.49-4.9 0-8.3-1.65-8.3-4l2-87.64-9.57-74.54s-4.63 55.56-8.07 85.23-21 106-21 106c0 3.11-2.27 5.63-7.56 5.63s-8.9-2.29-8.93-5.37z" transform="translate(-.04 -5.16)"/>
            <path class="cls-9" d="M455.61 259.19c10 21.17 14.49 55.17 16.14 84.67l-29 3.07-27.7-71.39" transform="translate(-.04 -5.16)"/>
            <path class="cls-14" d="M449.21 406.18s-1 10.57-1.76 13.56c-.46 1.9-.74 3.21-1.1 4.6-.49 1.92-.62 2.86 0 3.32s1.73.6 2.83-3.28a17 17 0 0 1-3.58 7.12c-2.08 2.24-5.12 4.51-4.31 5.69s3 0 3 0 .27 1.92 3 .41c0 0 .33 1.55 3.12-.41 0 0 1.1 1.28 3.67-1.28s11.74-12.48 11.93-31z" transform="translate(-.04 -5.16)"/>
            <path class="cls-9" d="M471.71 343.27c2.88 51.6-5.14 67.46-5.14 67.46l-17.5.47-6.28-64.27" transform="translate(-.04 -5.16)"/>
            <circle class="cls-9" cx="457.1" cy="338.97" r="14.57"/>
            <circle class="cls-9" cx="435.92" cy="263.71" r="21.91"/>
            <path class="cls-9" d="M443.27 447.43c-12 11.06-43.12 29.39-68.69 34.86a55.52 55.52 0 0 1-18.6 1.13c-33.07-4.63-39.14-23.62-39.14-47.73l.1-123.88c.15-45.82 34.76-64.32 34.76-64.32 19.18-10.82 55.85-19.23 79.68-10.06 31.33 12.06 31.32 49.15 31.33 49.08s2.77 21.09-5.9 46.48c0 .01 19.43 84.01-13.54 114.44z" transform="translate(-.04 -5.16)"/>
            <path class="cls-12" d="M323.25 280.49c5.54-4.65 11.87-5.9 18.39-5.09 14.17 1.77 11 18.34 11 18.34S338.1 424.68 370 450.37c22.5 18.13 52.28 8.69 67.86 1.56-14.36 11-40.94 25.58-63.27 30.36a55.52 55.52 0 0 1-18.6 1.13c-33.07-4.63-39.14-23.62-39.14-47.73l.1-123.88a78.63 78.63 0 0 1 6.3-31.32z" transform="translate(-.04 -5.16)"/>
            <path class="cls-14" d="M402.37 176.38c8-.32 17.49 1.67 22.16 9.43 3 5 2.77 14.08 3 20.83.49 12.19-4.37 25-11.93 31.6v3.25c-.08 2.61-1.84 5.21-5.28 7.19-7 4.05-18.37 4.05-25.35 0-3.37-2-5.09-4.5-5.19-7.06v-22.5c0-.38-3-12-3-12.39-.72-17.24 12.37-29.82 25.59-30.35z" transform="translate(-.04 -5.16)"/>
            <path class="cls-16" d="M405 242.84a17.15 17.15 0 0 0 10.6-4.6v3.25c-.08 2.61-1.84 5.21-5.28 7.19-7 4.05-18.37 4.05-25.35 0-3.37-2-5.09-4.5-5.19-7.06V209.7c1.1 16.87 12.33 33.66 25.22 33.14z" transform="translate(-.04 -5.16)"/>
            <path class="cls-17" d="M379.75 210.26l2.25 11.38-2.25 7.13c-2-2.13-2.91-7.07-4.83-11.2-6-12.9-4.57-22.82-3.64-32.88.39-4.2 1.67-21.29 14.3-22.32 0 0 6.67-6.83 25.31.36 10.79 4.17 17-.33 17-.33s.9 4.3-.8 7.39c0 0 10.12 8.79.31 33.07-.17-6.07 0-10.81-2.45-14.92-1.74-2.91-6-3.61-9.13-4-1.95-.15-5.41 1.16-5.41 1.16s-4.81-1.45-6.78-1.29c-13.73 1.08-13.54 6.71-13.54 6.71l-.59 6.35v21.73s.63 11.18 11.2 12.8c4.37.67 8.7-3.84 8.7-3.84h3.2s2.68 4.16 5.2 2.89a15.36 15.36 0 0 0 8.23-10.37c-.58 3-4.68 21.24-18 22.82-16.26 1.94-22.45-8.05-22.45-19.35v-20s.65-3.91-3.65-3.91-3.2 5.89-2.18 10.62z" transform="translate(-.04 -5.16)"/>
            <path class="cls-18" d="M426.08 220.08l.08-.42s-.02.16-.08.42z" transform="translate(-.04 -5.16)"/>
            <path class="cls-17" d="M405.69 218.06h10.79s3.06 2.79 3.06 5.52h-16.91c0-2.74 3.06-5.52 3.06-5.52z" transform="translate(-.04 -5.16)"/>
            <path class="cls-14" d="M337.26 463.13s.85 10.59 1.51 13.59c.42 1.91.68 3.22 1 4.62.46 1.93.56 2.87-.08 3.32s-1.74.58-2.77-3.33a17 17 0 0 0 3.46 7.19c2 2.27 5 4.6 4.2 5.76s-3-.05-3-.05-.3 1.91-3 .35c0 0-.36 1.54-3.11-.46 0 0-1.12 1.26-3.64-1.35s-11.52-12.69-11.37-31.22z" transform="translate(-.04 -5.16)"/>
            <path class="cls-9" d="M341.53 389.46l-2.9 85.72-16.79-.52s-12.82-33.72-16-87.57" transform="translate(-.04 -5.16)"/>
            <circle class="cls-9" cx="323.77" cy="387.16" r="17.9" transform="rotate(-88.97 321.103 384.593)"/>
            <path class="cls-9" d="M368.71 299.36l-27.9 93.31-34.94-5.83s-.55-8.66-.56-18c0-39.13 5.56-68.56 16.13-89.42" transform="translate(-.04 -5.16)"/>
            <circle class="cls-9" cx="344.48" cy="290.86" r="25.68" transform="rotate(-89.78 341.875 288.304)"/>
            <circle class="cls-19" cx="374.8" cy="90.99" r="46.5"/>
            <path class="cls-9" d="M401.59 90.83l-4.07-4.07V81l-5.32-2.2-2.2-5.33h-5.76l-4.07-4.07-5.32 2.2-5.32-2.2-4.07 4.07h-5.76l-2.2 5.32-5.34 2.21v5.76l-4.07 4.07 2.2 5.32-2.2 5.32 4.07 4.07v5.76l5.32 2.2 2.2 5.32h5.76l4.07 4.07 5.32-2.2 5.32 2.2 4.07-4.07H390l2.2-5.32 5.32-2.2v-5.76l4.07-4.07-2.2-5.32zm-25 20V114a1.78 1.78 0 1 1-3.57 0v-3.15a8.93 8.93 0 0 1-7.13-8.74 1.78 1.78 0 0 1 3.57 0 5.36 5.36 0 0 0 5.35 5.35c3.15 0 5.35-2 5.35-4.76 0-2.32-1.93-3.94-5.74-4.8-7-1.61-8.52-5.39-8.52-8.28a8.27 8.27 0 0 1 7.13-8.17v-3.13a1.78 1.78 0 1 1 3.57 0v3.16a8.88 8.88 0 0 1 7 7.25 1.78 1.78 0 0 1-3.52.59 5.33 5.33 0 0 0-5.28-4.46c-3.15 0-5.35 2-5.35 4.76 0 .86 0 3.49 5.74 4.8 7.42 1.68 8.52 5.91 8.52 8.28a8.26 8.26 0 0 1-7.09 8.16z" transform="translate(-.04 -5.16)"/>
            <circle class="cls-8" cx="485.86" cy="130.02" r="46.5"/>
            <path class="cls-9" d="M485.84 152.41a17.13 17.13 0 0 1-12.18-5 1.38 1.38 0 1 1 1.95-2 14.47 14.47 0 0 0 24.71-10.23 14.73 14.73 0 0 0-.11-1.8 1.38 1.38 0 1 1 2.74-.34 17.67 17.67 0 0 1 .13 2.14 17.25 17.25 0 0 1-17.24 17.23zM470.09 138.36a1.38 1.38 0 0 1-1.37-1.22 17.24 17.24 0 0 1 17.12-19.19A17.12 17.12 0 0 1 498 123a1.38 1.38 0 0 1-1.95 1.95 14.47 14.47 0 0 0-24.71 10.24 14.59 14.59 0 0 0 .09 1.65 1.38 1.38 0 0 1-1.21 1.53z" transform="translate(-.04 -5.16)"/>
            <path class="cls-9" d="M469.56 140l-5.49-8.22a1.38 1.38 0 0 1 2.29-1.53l3.71 5.56 4.93-4.41a1.38 1.38 0 0 1 1.85 2zM506.57 139.76a1.38 1.38 0 0 1-1.15-.61l-3.71-5.56-4.91 4.41a1.38 1.38 0 0 1-1.85-2l7.28-6.58 5.49 8.22a1.38 1.38 0 0 1-1.14 2.14z" transform="translate(-.04 -5.16)"/>
        </g>
    </g>
</svg>
