<svg xmlns="http://www.w3.org/2000/svg" viewBox="0 0 1080.1 1670.87">
    <defs>
        <style>
            .cls-1{fill:none}.cls-2{isolation:isolate}.cls-3{clip-path:url(#clip-path)}.cls-4{fill:#f5f5f5}.cls-5{fill:#d3d3d3}.cls-6{fill:#e9e9e9}.cls-7{fill:#9eccff}.cls-8{fill:#2b90ff}.cls-33,.cls-9{fill:#fff}.cls-10{fill:#10355d}.cls-11{clip-path:url(#clip-path-2)}.cls-12{opacity:.15}.cls-13{fill:#ffcfae}.cls-14{fill:#444549}.cls-15{fill:#9b9b9b}.cls-16{opacity:.1}.cls-17{fill:#424242}.cls-18{opacity:.08}.cls-19{fill:#dbdbdb}.cls-20{fill:#dedede}.cls-21{fill:#b4b4b4}.cls-22{fill:#a6a6a6}.cls-23{fill:#898989}.cls-24{fill:#d2d9dd}.cls-25{fill:#eaeaea}.cls-26{fill:#999}.cls-27{fill:#cecece}.cls-28{fill:#b7b7b7}.cls-29{fill:#e8e8e8}.cls-30{fill:#d8d8d8}.cls-31{clip-path:url(#clip-path-3)}.cls-32{fill:#fcfcfc}.cls-33{opacity:.26}
        </style>
        <clipPath id="clip-path" transform="translate(-.04 -5.16)">
            <path class="cls-1" d="M2.36 1207.06L0 375.53 650.44 0l2.36 831.53L2.36 1207.06z"/>
        </clipPath>
        <clipPath id="clip-path-2" transform="translate(-.04 -5.16)">
            <path class="cls-1" d="M89.8 600.5l-.43-148.89 505.6-291.91.43 148.89L89.8 600.5z"/>
        </clipPath>
        <clipPath id="clip-path-3" transform="translate(-.04 -5.16)">
            <path class="cls-1" d="M587.03 1245.91l-.51-180.99 157.5-90.93.51 180.99-157.5 90.93z"/>
        </clipPath>
    </defs>
    <title>
        Assets &amp;amp; Infrastructure
    </title>
    <g id="Layer_2" data-name="Layer 2">
        <g id="Layer_1-2" data-name="Layer 1">
            <path class="cls-2 cls-3 cls-4" d="M638.72 6.77l-627 362C5.25 372.5 0 381.56 0 389l2.28 804.59c0 7.44 5.29 10.44 11.76 6.7l627-362c6.47-3.74 11.71-12.8 11.68-20.24l-2.24-804.58c0-7.44-5.29-10.44-11.76-6.7" transform="translate(-.04 -5.16)"/>
            <path class="cls-5" d="M611.78 521.13l54.47-31.44.04 10.75-54.47 31.44-.04-10.75"/>
            <path class="cls-6" d="M606.22 540.64l65.74-37.96.02 6.68-65.74 37.93-.02-6.65M606.26 550.41L672 512.45l.02 6.65-65.74 37.96-.02-6.65"/>
            <path class="cls-7" d="M639 470.44c-14.71 8.51-26.63 1.71-26.66-15.2s11.79-37.42 26.49-45.91 26.63-1.64 26.68 15.21-11.81 37.41-26.51 45.9m-.21-78.5c-23.11 13.33-41.79 45.55-41.7 72.06s18.85 37.24 41.94 23.9 41.73-45.63 41.65-72.16l-15.2 8.78c-.06-16.84-12-23.7-26.68-15.21v-17.4" transform="translate(-.04 -5.16)"/>
            <path class="cls-8" d="M638.76 391.94c23.07-13.33 41.84-2.71 41.92 23.82l-15.2 8.78c-.06-16.84-12-23.7-26.68-15.21v-17.4" transform="translate(-.04 -5.16)"/>
            <path class="cls-5" d="M500.3 585.51l54.48-31.46.03 10.76-54.47 31.46-.04-10.76"/>
            <path class="cls-6" d="M494.74 605l65.74-37.94.02 6.65-65.74 37.96-.02-6.67M494.78 614.78l65.74-37.95.02 6.63-65.74 37.97-.02-6.65"/>
            <path class="cls-7" d="M548 511.89v0m6-23c0 7.38-2.22 15.42-6 22.86 3.77-7.44 6-15.46 6-22.86m-26.72-32.6c-23.09 13.33-41.75 45.57-41.67 72.08s18.85 37.23 41.94 23.91c12.71-7.34 24.07-20.42 31.71-35.13-.72 1.34-1.45 2.67-2.2 4l-10.81-6.08c-4.78 8.3-11.41 15.53-18.76 19.75-14.71 8.49-26.63 1.69-26.66-15.22s11.79-37.42 26.49-45.91 26.63-1.64 26.68 15.2c-.06-16.83-12-23.69-26.68-15.2v-17.4" transform="translate(-.04 -5.16)"/>
            <path class="cls-8" d="M527.28 456.3c23.07-13.33 41.84-2.69 41.92 23.82 0 12-3.71 25.06-9.94 37-.72 1.34-1.45 2.67-2.2 4l-10.81-6.08c.6-1 1.15-2.05 1.69-3.11v-.08a.9.9 0 0 1 .06-.13c3.77-7.44 6-15.46 6-22.86-.06-16.83-12-23.69-26.68-15.2v-17.4" transform="translate(-.04 -5.16)"/>
            <path class="cls-7" d="M415.81 520.66v17.4c14.65-8.45 26.63-1.64 26.68 15.21-.06-16.85-12-23.67-26.68-15.21s-26.52 29.09-26.46 45.94c0 8.29 2.94 14.11 7.55 17L386 619.36l10.9-18.43-10.9 18.43c7.65 4.64 18.25 4.11 30.07-2.7 23.09-13.33 41.73-45.64 41.65-72.18.08 26.53-18.57 58.85-41.65 72.18-11.83 6.82-22.43 7.34-30.07 2.7-7.31-4.45-11.83-13.59-11.86-26.62-.08-26.51 18.59-58.75 41.67-72.08" transform="translate(-.04 -5.16)"/>
            <path class="cls-5" d="M388.82 649.88l54.48-31.47.04 10.75-54.48 31.47-.04-10.75"/>
            <path class="cls-6" d="M383.21 669.41L449 631.42l.02 6.65-65.79 38.01-.02-6.67M383.23 679.18l65.81-38 .02 6.65-65.81 38-.02-6.65"/>
            <path class="cls-8" d="M415.81 520.66c23.07-13.33 41.84-2.69 41.92 23.82s-18.57 58.85-41.65 72.18c-11.83 6.82-22.43 7.34-30.07 2.7l10.9-18.43c4.82 3 11.62 2.58 19.11-1.75 14.65-8.45 26.55-29 26.51-45.91s-12-23.67-26.68-15.21v-17.4" transform="translate(-.04 -5.16)"/>
            <path class="cls-8" d="M396.86 595.78l-10.9 18.42 10.9-18.42"/>
            <path class="cls-9" d="M145.68 1328l-26.83 15.44v-12.8l26.78-15.46.05 12.82m75.75-43.75l-27 15.57v-20.41l27-15.61v20.45m302.69-174.76l-27 15.57-.1-41 27-15.61.1 41.06M902.55 891l-27 15.61-.15-50.89 27-15.56.15 50.84M297 1240.62l-26.78 15.52-.2-56.62 26.85-15.52.15 56.57m302.69-174.76l-26.78 15.54-.2-59.81 26.83-15.46.15 59.74M826.8 934.76l-27 15.57-.25-85.23 27-15.54.25 85.21m-151.34 87.36l-27 15.56-.3-119 26.93-15.57.35 119m226.94-182l-27 15.56-.2-71.25 27-15.61.2 71.3m-75.85 9.41l-27 15.54-.15-56.57 27-15.56.15 56.6m-378.19 303.7l-26.78 15.46-.45-148.87 26.89-15.42.39 148.85m75.61-84.79l-27 15.61-.34-123.28 27-15.56.35 123.23m151.1-165.33l-26.93 15.57-.18-49.56 27-15.56.1 49.56M296.87 1184L270 1199.51l-.35-121.94 26.83-15.47.34 121.95m454.24-205.56L724.28 994l-.59-196 26.83-15.46.54 196M448 1004.41l-26.83 15.44-.17-51.58 26.83-15.44.15 51.59m-75.2 192.48l-27 15.56-.69-254.27 27-15.56.69 254.27m-151.39 67l-27 15.61-.79-286.23 27-15.56.79 286.18m-75.75 51.39l-26.78 15.46-.84-299.9 26.78-15.54.84 300M138 881.08l62.8 6.84a16.13 16.13 0 0 1 5.9-6.92c4.2-2.42 7.61-.49 7.61 4.37a9.48 9.48 0 0 1-.25 2.3l61.81-8.15a16.92 16.92 0 0 1 6.67-8.5c2.62-1.51 4.94-1.33 6.32.2l62.26-73.35a6.7 6.7 0 0 1-.5-2.74c0-4.84 3.36-10.72 7.41-13s7.61-.49 7.61 4.35a14 14 0 0 1-1.29 5.43l64.43 25.45A15.62 15.62 0 0 1 434 812c4.2-2.42 7.61-.64 7.61 4.15a15.16 15.16 0 0 1-1.88 6.92l65.86 44.76a14.58 14.58 0 0 1 4.4-4.15c4.05-2.32 7.46-.39 7.46 4.45a14.17 14.17 0 0 1-1.33 5.61L580.89 903a14.33 14.33 0 0 1 4.94-5 5.79 5.79 0 0 1 4.6-.87l65-114.68c-1-.84-1.63-2.32-1.63-4.4-.05-4.79 3.36-10.67 7.56-13.09a6.47 6.47 0 0 1 2.67-.91l68.19-184.4c-1.88-.52-3.11-2.4-3.11-5.29 0-4.82 3.36-10.5 7.36-12.82 4.25-2.47 7.61-.69 7.66 4.15a15.56 15.56 0 0 1-2.18 7.36l66.46 56.67a13.92 13.92 0 0 1 4-3.66c4.2-2.42 7.56-.5 7.61 4.35a13.1 13.1 0 0 1-.79 4.25l63.34 10.08a15.21 15.21 0 0 1 5.73-6.52c4.2-2.42 7.61-.49 7.61 4.15a16.71 16.71 0 0 1-7.56 13.12c-4.05 2.3-7.46.37-7.46-4.47a12.18 12.18 0 0 1 .74-4.05l-63.34-10a16 16 0 0 1-5.83 6.52c-4.05 2.37-7.46.42-7.46-4.4a15.44 15.44 0 0 1 2.08-7.26l-66.51-56.72a14 14 0 0 1-4.05 3.66 6.34 6.34 0 0 1-2.77.94l-68.19 184.4c1.93.45 3.21 2.32 3.26 5.29a16.27 16.27 0 0 1-7.41 12.8 6.08 6.08 0 0 1-4.74.94l-64.91 114.72a5.73 5.73 0 0 1 1.68 4.5 16.63 16.63 0 0 1-7.56 13.09c-4.2 2.42-7.46.42-7.46-4.4a14.66 14.66 0 0 1 1.24-5.63L514.92 876a14.65 14.65 0 0 1-4.92 5c-4.2 2.42-7.56.49-7.61-4.15a14.94 14.94 0 0 1 1.83-6.72l-65.82-45a15.38 15.38 0 0 1-4.4 4.2c-4.2 2.42-7.61.44-7.61-4.35a13.78 13.78 0 0 1 1.24-5.48L363.28 794a16.46 16.46 0 0 1-5.19 5.39c-2.52 1.43-4.79 1.23-6.13-.25l-62.31 73.47a7.45 7.45 0 0 1 .54 2.77c0 4.64-3.41 10.47-7.61 12.89s-7.61.5-7.61-4.15a11.79 11.79 0 0 1 .25-2.27l-61.8 8.15a16.39 16.39 0 0 1-6.67 8.45c-4 2.32-7.41.39-7.46-4.45a12.5 12.5 0 0 1 .64-3.75L137 883.48a16 16 0 0 1-6 6.82c-4.15 2.45-7.56.5-7.61-4.35s3.41-10.67 7.56-13.09 7.61-.5 7.61 4.35a12 12 0 0 1-.59 3.88" transform="translate(-.04 -5.16)"/>
            <path class="cls-8" d="M875.38 850.55l26.98-15.56.15 50.84-26.98 15.61-.15-50.89"/>
            <path class="cls-7" d="M875.19 779.3l26.97-15.62.2 71.31-26.98 15.56-.19-71.25"/>
            <path class="cls-8" d="M799.54 859.94l26.97-15.54.25 85.21-26.98 15.56-.24-85.23"/>
            <path class="cls-7" d="M799.39 803.36l26.98-15.56.14 56.6-26.97 15.54-.15-56.58"/>
            <path class="cls-8" d="M723.64 792.79l26.83-15.47.55 196.02-26.78 15.46-.6-196.01M648.15 913.55l26.92-15.57.35 118.98-26.98 15.57-.29-118.98"/>
            <path class="cls-7" d="M648 863.99l26.97-15.56.1 49.55-26.92 15.57-.15-49.56"/>
            <path class="cls-8" d="M572.69 1016.42l26.83-15.46.15 59.73-26.78 15.54-.2-59.81M497 1078.92l26.98-15.61.1 41.06-26.98 15.56-.1-41.01"/>
            <path class="cls-7" d="M496.65 955.64l26.98-15.56.35 123.23-26.98 15.61-.35-123.28"/>
            <path class="cls-8" d="M421.1 1014.69l26.83-15.44.4 148.85-26.78 15.46-.45-148.87"/>
            <path class="cls-7" d="M420.96 963.11l26.83-15.45.14 51.59-26.83 15.44-.14-51.58"/>
            <path class="cls-8" d="M345.06 953.03l26.98-15.57.69 254.27-26.98 15.56-.69-254.26M270.01 1194.35l26.83-15.47.15 56.58-26.79 15.51-.19-56.62"/>
            <path class="cls-7" d="M269.66 1072.4l26.83-15.47.35 121.95-26.83 15.47-.35-121.95"/>
            <path class="cls-8" d="M194.36 1274.29l26.98-15.61.05 20.45-26.98 15.57-.05-20.41"/>
            <path class="cls-7" d="M193.57 988.06l26.98-15.56.79 286.18-26.98 15.61-.79-286.23"/>
            <path class="cls-8" d="M118.81 1325.53l26.78-15.46.05 12.82-26.83 15.44v-12.8"/>
            <path class="cls-7" d="M117.97 1025.63l26.78-15.53.84 299.97-26.78 15.46-.84-299.9"/>
            <path class="cls-8" d="M888.27 638.25c4.2-2.42 7.61-.49 7.61 4.15a16.71 16.71 0 0 1-7.56 13.12c-4.05 2.3-7.46.37-7.46-4.47a12.18 12.18 0 0 1 .74-4.05l6.23 1 .94-2.22-6.23-1a15.21 15.21 0 0 1 5.73-6.52M807 631.88a15.44 15.44 0 0 0-2.08 7.26c0 4.82 3.41 6.77 7.46 4.4a16 16 0 0 0 5.83-6.52l-6.37-1-4.84-4.14m5.34-5.78a13.92 13.92 0 0 0-4 3.66l4.64 4 6.18 1a13.1 13.1 0 0 0 .79-4.25c-.05-4.84-3.41-6.77-7.61-4.35M736.63 571.85l-2.91 7.91a6.34 6.34 0 0 0 2.77-.94 14 14 0 0 0 4.05-3.66l-3.9-3.31m-.2-10.28c-4 2.32-7.41 8-7.36 12.82 0 2.89 1.23 4.77 3.11 5.29l3.51-9.49.64-1.85 5.58 4.74a15.56 15.56 0 0 0 2.18-7.36c-.05-4.84-3.41-6.62-7.66-4.15M665.53 764.15l-3.53 9.59-5.34 9.44a6.08 6.08 0 0 0 4.74-.94 16.27 16.27 0 0 0 7.41-12.8c0-3-1.33-4.84-3.26-5.29m-4.2.84c-4.2 2.42-7.61 8.3-7.56 13.09 0 2.07.59 3.56 1.63 4.4l5.14-9 3.46-9.36a6.47 6.47 0 0 0-2.67.91M591.76 897.86l-5.29 9.24-.64 1.14-6.18-2.82a14.66 14.66 0 0 0-1.24 5.63c0 4.82 3.26 6.82 7.46 4.4a16.63 16.63 0 0 0 7.56-13.09 5.73 5.73 0 0 0-1.68-4.5m-5.93.17a14.33 14.33 0 0 0-4.94 5l4.94 2.22 4.6-8.1a5.79 5.79 0 0 0-4.6.87M504.25 870.09a14.94 14.94 0 0 0-1.83 6.72c.05 4.64 3.41 6.57 7.61 4.15a14.65 14.65 0 0 0 4.89-4.94l-5.68-2.57-5-3.36m5.73-6.38a14.58 14.58 0 0 0-4.4 4.15l4.94 3.36 5.59 2.54a14.17 14.17 0 0 0 1.33-5.61c0-4.84-3.41-6.77-7.46-4.45M427.67 819.49a13.78 13.78 0 0 0-1.24 5.48c0 4.79 3.41 6.77 7.61 4.35a15.38 15.38 0 0 0 4.4-4.2l-4.89-3.36-5.88-2.27M434 812a15.62 15.62 0 0 0-5.19 5.29l5.88 2.32 5 3.46a15.16 15.16 0 0 0 1.88-6.92c0-4.79-3.41-6.57-7.61-4.15M358 791.92l-6 7.21c1.33 1.48 3.6 1.68 6.13.25a16.46 16.46 0 0 0 5.19-5.39l-5.32-2.07m0-9.83c-4.05 2.32-7.46 8.2-7.41 13a6.7 6.7 0 0 0 .5 2.74l6.57-7.78.5-.67 6.18 2.45a14 14 0 0 0 1.29-5.43c0-4.84-3.46-6.77-7.61-4.35M289.66 872.61l-6.57 7.81-.49.45-7.36 1a11.79 11.79 0 0 0-.25 2.27c0 4.64 3.41 6.57 7.61 4.15s7.61-8.25 7.61-12.89a7.45 7.45 0 0 0-.54-2.77m-7.12-1.63a16.92 16.92 0 0 0-6.67 8.5l6.72-.89 6.27-7.41c-1.38-1.53-3.71-1.71-6.32-.2M199.93 890.25a12.5 12.5 0 0 0-.64 3.75c.05 4.84 3.46 6.77 7.46 4.45a16.39 16.39 0 0 0 6.67-8.45l-7.16.89-6.32-.64m6.76-9.25a16.13 16.13 0 0 0-5.93 6.92l6.28.69 7-.94a9.48 9.48 0 0 0 .25-2.3c0-4.87-3.41-6.8-7.61-4.37M131 872.86c4.25-2.42 7.61-.5 7.61 4.35a12 12 0 0 1-.59 3.88l-6.47-.72-1 2.42 6.52.69a16 16 0 0 1-6 6.82c-4.15 2.45-7.56.5-7.61-4.35s3.41-10.67 7.56-13.09" transform="translate(-.04 -5.16)"/>
            <path class="cls-7" d="M655.4 782.48l-65 114.68a3.45 3.45 0 0 1 1.33.69l64.87-114.68a3.43 3.43 0 0 1-1.23-.69M819.19 634.7a17.26 17.26 0 0 1-.94 2.32l63.34 10a14.39 14.39 0 0 1 .94-2.22l-63.34-10.1m-87-55L664 764.08a3.45 3.45 0 0 1 1.53.07l68.19-184.4a6.22 6.22 0 0 1-1.53-.07m9.73-6.6a21 21 0 0 1-1.38 2.07L807 631.88a19 19 0 0 1 1.33-2.13l-66.46-56.67M138 881.08a22.58 22.58 0 0 1-.94 2.4l62.9 6.77a12.93 12.93 0 0 1 .84-2.32l-62.8-6.85" transform="translate(-.04 -5.16)"/>
            <path class="cls-8" d="M882.54 644.78l6.23 1-.94 2.22-6.23-1a14.39 14.39 0 0 1 .94-2.22M808.37 629.76l4.64 4 6.18 1a17.26 17.26 0 0 1-.94 2.32l-6.37-1-4.88-4.2a19 19 0 0 1 1.33-2.13M736.33 568.34l5.58 4.74a21 21 0 0 1-1.38 2.07l-3.9-3.31-2.91 7.91a6.22 6.22 0 0 1-1.53-.07l3.51-9.49.64-1.85M664 764.08a3.45 3.45 0 0 1 1.53.07l-3.53 9.59-5.34 9.44a3.43 3.43 0 0 1-1.23-.69l5.14-9 3.46-9.36" transform="translate(-.04 -5.16)"/>
            <path class="cls-7" d="M516.11 873.77a21.77 21.77 0 0 1-1.19 2.25l64.73 29.4a17.65 17.65 0 0 1 1.23-2.37l-64.78-29.27m-76.38-50.68c-.39.69-.84 1.38-1.29 2l65.82 45a16.58 16.58 0 0 1 1.33-2.22l-65.86-44.78m-225.66 64.58a15.06 15.06 0 0 1-.64 2.32l61.81-8.15a14 14 0 0 1 .64-2.32l-61.81 8.15m150.31-95.81a15.4 15.4 0 0 1-1.09 2.13l64.38 25.5a17.74 17.74 0 0 1 1.14-2.17l-64.43-25.45m-13.24 6l-62.26 73.35a4.47 4.47 0 0 1 .79 1.38L352 799.13a4 4 0 0 1-.84-1.26" transform="translate(-.04 -5.16)"/>
            <path class="cls-8" d="M590.42 897.16a3.45 3.45 0 0 1 1.33.69l-5.29 9.24-.64 1.14-6.18-2.82a17.65 17.65 0 0 1 1.23-2.37l4.94 2.22 4.6-8.1M505.58 867.86l4.94 3.36 5.59 2.54a21.77 21.77 0 0 1-1.19 2.25l-5.68-2.57-5-3.36a16.58 16.58 0 0 1 1.33-2.22M428.8 817.32l5.88 2.32 5 3.46c-.39.69-.84 1.38-1.29 2l-4.89-3.36-5.88-2.27a17.74 17.74 0 0 1 1.14-2.17M358.19 789.42l6.18 2.45a15.4 15.4 0 0 1-1.09 2.13l-5.28-2.08-6 7.21a4 4 0 0 1-.84-1.26l6.57-7.78.5-.67M288.87 871.22a4.47 4.47 0 0 1 .79 1.38l-6.57 7.81-.49.45-7.36 1a14 14 0 0 1 .64-2.32l6.72-.89 6.27-7.41M200.77 887.93l6.28.69 7-.94a15.06 15.06 0 0 1-.64 2.32l-7.16.89-6.32-.64a12.93 12.93 0 0 1 .84-2.32M131.5 880.36l6.47.72a22.58 22.58 0 0 1-.94 2.4l-6.52-.69 1-2.42M179.8 704.58l133.07-76.84c-.36 42.08-29.84 92.89-66.32 114s-66.14 4.39-66.75-37.12" transform="translate(-.04 -5.16)"/>
            <path class="cls-7" d="M198.62 639.28l45.84 26.06-64.66 37.34c.15-20.56 7.34-43.21 18.81-63.4" transform="translate(-.04 -5.16)"/>
            <path class="cls-10" d="M246.13 588.72c36.48-21.06 66.14-4.41 66.75 37.12L246.77 664l-47-26.83c12-20.35 28.27-38 46.33-48.46" transform="translate(-.04 -5.16)"/>
            <path class="cls-5" d="M106.89 668.28l47.41-27.37.03 9.36-47.41 27.37-.03-9.36"/>
            <path class="cls-6" d="M97.08 688.19l57.25-33.07.02 5.79-57.26 33.07-.01-5.79M97.09 696.63l57.28-33.07.01 5.79-57.27 33.07-.02-5.79"/>
            <path class="cls-5" d="M107.04 720.43l47.41-27.39.03 9.31-47.41 27.37-.03-9.29"/>
            <path class="cls-6" d="M97.22 740.27l57.26-33.07.02 5.79-57.26 33.07-.02-5.79M97.24 748.71l57.27-33.07.02 5.79-57.28 33.08-.01-5.8"/>
            <path class="cls-5" d="M107.19 772.51l47.41-27.39.03 9.36-47.41 27.39-.03-9.36"/>
            <path class="cls-6" d="M97.37 792.35l57.26-33.07.02 5.79-57.26 33.07-.02-5.79M97.39 800.79l57.27-33.07.02 5.79-57.28 33.08-.01-5.8"/>
            <g class="cls-2 cls-11">
                <path class="cls-5" d="M594.94 154.54L89.33 446.45l.06 19.6 505.6-291.91-.05-19.6M324.62 355.03L89.46 490.8l.02 8.77L324.64 363.8l-.02-8.77M324.67 374.18L89.52 509.95l.02 8.77L324.7 382.95l-.03-8.77M324.73 393.34L89.57 529.11l.02 8.77 235.16-135.77-.02-8.77M324.78 412.5L89.62 548.26l.03 8.77 235.16-135.77-.03-8.76M324.84 431.65L89.68 567.42l.02 8.77 235.16-135.77-.02-8.77M324.89 450.81L89.73 586.58l.03 8.76 235.16-135.77-.03-8.76M579.02 208.15L343.86 343.92l.03 8.77 235.16-135.77-.03-8.77M579.08 227.31L343.92 363.07l.02 8.77L579.1 236.07l-.02-8.76M579.13 246.46L343.97 382.23 344 391l235.16-135.77-.03-8.77M579.19 265.62L344.03 401.38l.02 8.77 235.16-135.77-.02-8.76M558.25 296.89L344.08 420.54l.03 8.77 214.16-123.65-.02-8.77M537.31 328.17L344.13 439.7l.03 8.76 193.17-111.53-.02-8.76"/>
            </g>
            <path d="M953.15 1615.75c-27.76 16.14-32.66 39.71-10.88 52.37s62.31 9.82 90.07-6.32 32.66-39.7 10.88-52.37-62.31-9.82-90.07 6.32z" transform="translate(-.04 -5.16)" class="cls-12"/>
            <path class="cls-13" d="M1051 1381s-1.05 10.73-1.78 13.77c-.46 1.93-.75 3.26-1.12 4.67-.5 1.95-.62 2.91 0 3.38s1.76.61 2.88-3.33a17.22 17.22 0 0 1-3.64 7.23c-2.11 2.27-5.2 4.58-4.37 5.78s3.09 0 3.09 0 .27 1.95 3.06.41c0 0 .33 1.57 3.17-.41 0 0 1.12 1.3 3.73-1.3s11.92-12.67 12.11-31.49z" transform="translate(-.04 -5.16)"/>
            <path class="cls-13" d="M1073.85 1317.08c2.93 52.41-6.08 68.53-6.08 68.53l-16.92.46-6.38-65.27" transform="translate(-.04 -5.16)"/>
            <circle class="cls-13" cx="1059.01" cy="1312.79" r="14.8"/>
            <circle class="cls-9" cx="1037.5" cy="1236.36" r="22.25"/>
            <path class="cls-9" d="M1057.5 1231.69c10.14 21.5 14.71 56 16.39 86l-29.42 3.12-28.13-72.5" transform="translate(-.04 -5.16)"/>
            <path class="cls-9" d="M1038.56 1324a6.29 6.29 0 0 0 7.54 4.72l29.15-6.69a6.29 6.29 0 0 0 4.72-7.54l-1.59-6.94a6.29 6.29 0 0 0-7.54-4.72l-29.15 6.69a6.29 6.29 0 0 0-4.69 7.48z" transform="translate(-.04 -5.16)"/>
            <path class="cls-14" d="M963.66 1645.38c-6-6-13.36-8.53-16.34-5.55s-.5 10.3 5.53 16.34 13.36 8.53 16.34 5.55c1.8-1.8 1.66-9.14 1.66-11-1.01-1.82-4.79-2.94-7.19-5.34z" transform="translate(-.04 -5.16)"/>
            <path class="cls-13" d="M963.54 1644.72c-3.94-3.75-8.64-5.22-10.5-3.26s-.18 6.57 3.76 10.33" transform="translate(-.04 -5.16)"/>
            <path class="cls-14" d="M1013.71 1616.06c-6-6-13.35-8.53-16.34-5.55s-.5 10.3 5.54 16.34 13.35 8.53 16.34 5.55c1.8-1.8 1.66-9.14 1.66-11-1.02-1.81-4.8-2.94-7.2-5.34z" transform="translate(-.04 -5.16)"/>
            <path class="cls-13" d="M1013.59 1615.41c-3.94-3.75-8.64-5.22-10.5-3.26s-.18 6.57 3.76 10.33" transform="translate(-.04 -5.16)"/>
            <path class="cls-15" d="M927.14 1367.77l124.23 4.24-24.37 154.05-5.59 94.7c-.11 3.23-3 5.85-8.24 5.84s-7.19-2.87-7.3-6.07-8.94-60.08-13.31-98.37a556.14 556.14 0 0 1-3.07-60.54L976 1545l-4.08 103.77v.33c0 3.21-3.12 5.84-8.93 5.83-5.54 0-7.71-2.69-7.9-5.72-.7-3.51-15.88-79.26-19.62-110.71-3.8-32.22-13.16-160.64-8.33-170.73z" transform="translate(-.04 -5.16)"/>
            <path class="cls-9" d="M917.2 1261.19c-4.35 30.52-2.7 145.24-2.7 145.24 0 24.48 6.17 43.77 39.75 48.48a56.38 56.38 0 0 0 18.89-1.15c26-5.55 57.46-24.29 69.76-35.4 20.59-18.61 19.74-36.19 19.74-51.51v-111.91c0 .08 0-37.59-31.82-49.84-24.2-9.31-61.45-.78-80.92 10.21 0 0-28.16 14.08-32.7 45.88z" transform="translate(-.04 -5.16)"/>
            <path class="cls-9" d="M917.2 1261.19c-4.35 30.52-2.7 145.24-2.7 145.24 0 24.48 6.17 43.77 39.75 48.48a56.38 56.38 0 0 0 18.89-1.15c26-5.55 57.46-24.29 69.76-35.4 20.59-18.61 19.74-36.19 19.74-51.51v-111.91c0 .08 0-37.59-31.82-49.84-24.2-9.31-61.45-.78-80.92 10.21 0 0-28.16 14.08-32.7 45.88z" transform="translate(-.04 -5.16)"/>
            <path class="cls-16" d="M919.63 1250.95c3.43-3.58 7.74-6.06 13.1-6.06 19.42 0 18.1 22 18.1 22v123.47c0 47.49 10.77 60.67 17.79 64.22a51.33 51.33 0 0 1-14.37.33c-33.58-4.71-39.75-24-39.75-48.48 0 0-1.65-114.73 2.7-145.24a58.1 58.1 0 0 1 2.43-10.24z" transform="translate(-.04 -5.16)"/>
            <path class="cls-13" d="M1000.4 1199.88a39.66 39.66 0 0 0 5.76-21.46c-.07-7.2.45-16.87-2.58-22.29-4.72-8.42-14.72-10.84-23.3-10.75-14.1.14-25.38 15.17-25.19 33.56.11 10.88 4.21 20.5 10.47 26.52v2.39c.1 2.49 1.77 2.69 5 4.6 6.78 3.94 17.8 3.94 24.62 0 3.35-1.93 5-4.46 5.13-7v-5.58" transform="translate(-.04 -5.16)"/>
            <path class="cls-17" d="M988.44 1125.52c8.83 2.22 16.05 6.84 21 17.63 3.67 8 3.2 28.52-.32 38.59-3.82 10.93-8.06 26.93-28.17 24.76-14.09-1.52-17.66-9-20-20.13-21.14-19-12-42.26-11.15-44.36a4.22 4.22 0 0 1-1.61-4.41 4.8 4.8 0 0 1 3.41-3.47s-2.09-3.93 6.42-6.5c9.61-2.89 22.31-4.16 30.42-2.11z" transform="translate(-.04 -5.16)"/>
            <path class="cls-18" d="M961 1186.36c1 4.87 2.26 9.05 4.55 12.34v6.76c-6.07-5.84-10.11-15.09-10.44-25.59a42.88 42.88 0 0 0 5.89 6.49z" transform="translate(-.04 -5.16)"/>
            <path class="cls-19" d="M983.13 1211.09c-7.52.66-14.52-1-18.31-3.13 0 0-7.22 3.1-9 3.93 0 0 23.44 9.68 39.46 2 14.07-6.73 7.14-12.7 7.14-12.7l-2-.79v3.5s-2.36 5.88-17.29 7.19z" transform="translate(-.04 -5.16)"/>
            <path class="cls-13" d="M928.72 1433.67s-7 19-6.91 22.94c.1 3.26.85 5.21-1.08 6.18-2.6 1.3-3.62-.65-3.62-.65s-3 1.94-4.45-1.36c0 0-2.55 1.69-3.76-2.41 0 0-2.74 2.26-3.47-5.49-.86-9.16 6.29-23.35 6.36-23.52z" transform="translate(-.04 -5.16)"/>
            <path class="cls-13" d="M919.11 1463.34a6.29 6.29 0 0 0 3.57-4c1-3.19-.65-6.11-3.67-6-.01-.09-5.79 10.97.1 10zM916 1353.16l-8.1 85.37 16.38 8.12s18.26-42.46 27.66-88.21" transform="translate(-.04 -5.16)"/>
            <circle class="cls-13" cx="934.07" cy="1354.91" r="18.18" transform="rotate(-60.85 929.53 1352.3)"/>
            <path class="cls-9" d="M912.55 1355.84a6.29 6.29 0 0 0 5.47 7l29.69 3.67a6.29 6.29 0 0 0 7-5.47l.87-7.07a6.29 6.29 0 0 0-5.47-7l-29.69-3.67a6.29 6.29 0 0 0-7 5.47z" transform="translate(-.04 -5.16)"/>
            <path class="cls-9" d="M970.31 1262.55l-18.85 97.61-35.53-6.58s.22-7.44.43-16.88c.92-40.16-2.61-69.18 4.63-90.09 3.45-10 54.77-5.69 49.32 15.95" transform="translate(-.04 -5.16)"/>
            <circle class="cls-9" cx="944.58" cy="1257.92" r="26.23" transform="rotate(-89.78 942.023 1255.365)"/>
            <path class="cls-20" d="M446.94 1484.91l234.73-135.09L851.88 1448l-234.71 135.12-170.23-98.21z"/>
            <path class="cls-21" d="M556.75 1499.42l85-51.42-7.96-70.62-144.47 83.14 67.43 38.9z"/>
            <path class="cls-22" d="M617.17 1583.12L851.88 1448v9.23l-234.69 135.1-.02-9.21z"/>
            <path class="cls-23" d="M446.97 1494.12l-.03-9.21 170.23 98.21.02 9.21-170.22-98.21z"/>
            <path class="cls-24" d="M686.14 1183.94l.07 54.83-35.58 20.6a14.92 14.92 0 0 1-14.77.1l-60.59-34.26a14.82 14.82 0 0 1 6.27-7.32l82.17-48.42a14.62 14.62 0 0 1 14.88-.1c.27.14.51.27.78.44l17.35 10.3s-7.09 2.67-10.58 3.83z" transform="translate(-.04 -5.16)"/>
            <path class="cls-25" d="M731.74 1105.54l.5 331.99-.01.01-139.43 82.17-.5-332v-.01l139.43-82.16h.01z"/>
            <path class="cls-26" d="M695.37 1085.33L592.3 1400.1l.5 119.61-36.37-20.22-.5-332h.01l139.42-82.16h.01z"/>
            <path class="cls-27" d="M527.14 898.06L717.23 786a37.21 37.21 0 0 1 38.48.26l39.48 23.5-37.9 116.35.68 301.13a75.88 75.88 0 0 1-37.35 65.49L559.09 1388l-14.91 45.78L511 1414.6a37.25 37.25 0 0 1-19.5-32.85l-.85-419.64a74.17 74.17 0 0 1 36.49-64.05z" transform="translate(-.04 -5.16)"/>
            <path class="cls-28" d="M491.48 1381.28v.43a37.25 37.25 0 0 0 19.5 32.85l33.21 19.14 6.07-18.64z" transform="translate(-.04 -5.16)"/>
            <path class="cls-29" d="M527.14 898.06L717.23 786a37.21 37.21 0 0 1 38.48.26l39.48 23.5-8.33 25.58-189.07 109.58a17.51 17.51 0 0 1-17.4.09l-66-37a73.57 73.57 0 0 1 12.75-9.95z" transform="translate(-.04 -5.16)"/>
            <path class="cls-30" d="M490.62 962.07a73.84 73.84 0 0 1 24-54.2l56.85 31.87a16.62 16.62 0 0 1 .16 28.84L560.14 1007a16.62 16.62 0 0 1-16.52.09l-53-29.68z" transform="translate(-.04 -5.16)"/>
            <path class="cls-9" d="M808.85 838.55l.85 418.66a75.88 75.88 0 0 1-37.36 65.49L583.1 1434.23c-25.1 14.77-56.72-3.23-56.78-32.37l-.85-419.64a74.17 74.17 0 0 1 36.51-64l190.09-112c25.08-14.82 56.73 3.23 56.78 32.33z" transform="translate(-.04 -5.16)"/>
            <path class="cls-8" d="M750.05 853.52L587.76 947a51.86 51.86 0 0 0-26 44.94v379.33a19.59 19.59 0 0 0 29.36 17l162.29-93.47a51.85 51.85 0 0 0 26-44.94V870.49a19.59 19.59 0 0 0-29.36-16.97z" transform="translate(-.04 -5.16)"/>
            <path class="cls-27" d="M763.8 851.42a19.19 19.19 0 0 1 5.2 13.1v379.32a51.86 51.86 0 0 1-26 44.94l-162.29 93.47a19.17 19.17 0 0 1-13.75 2.1 19.46 19.46 0 0 0 24.22 3.88l162.29-93.47a51.85 51.85 0 0 0 26-44.94V870.49a19.45 19.45 0 0 0-15.67-19.07z" transform="translate(-.04 -5.16)"/>
            <g class="cls-2 cls-31">
                <path class="cls-10" d="M663 1116.86c-4 2.91-5.27 5-5.26 6.65 0 1.41.85 1.58 2.18.81a9 9 0 0 0 3.09-3.64v-3.82m29.21-24.12a8.31 8.31 0 0 0-3.66 6.24l6.84-4c0-2.41-.93-3.59-3.18-2.29M655 1116.42l-2-3.09a30 30 0 0 1 8.09-7.53c4.85-2.8 7.54-1.18 7.56 5.49v12.47l-4.58 2.65-.39-2-.15.09a17.18 17.18 0 0 1-5.5 5.94c-3.48 2-5.67.37-5.68-3.32 0-4.57 3.15-8.9 10.64-14.11-.12-1.86-.93-2.63-3-1.44a19.68 19.68 0 0 0-5 4.87m37.8-6.08c-5.43 3.13-9.61 1.32-9.63-5.88s4.37-14 8.91-16.58c5.39-3.11 8.08-.14 8.09 5.8a18.78 18.78 0 0 1-.22 3l-11.35 6.55c.51 2.87 2.42 3.22 4.95 1.76a14.45 14.45 0 0 0 4.08-3.8l1.89 2.83a23.91 23.91 0 0 1-6.72 6.34m-52.61 24.79c2.34-1.35 3.48-3.07 3.47-4.78s-1.42-1.56-3.6-1.35l-3.25.29c-2.57.29-5-.75-5-4.93 0-4.74 3.65-10.64 8.84-13.64 2.87-1.66 5.89-2.08 8-.86l-2.85 5.74a6 6 0 0 0-5.17.69c-1.95 1.12-3.17 2.8-3.17 4.43s1.65 1.42 3.8 1.2l3.22-.36c3-.34 4.94.89 5 4.93 0 4.74-3.42 10.86-9.38 14.3-3.24 1.87-6.69 2.45-9.22 1.19l3.2-6.29a7.13 7.13 0 0 0 6.16-.56m38.35-16.56c-3.86 2.23-5.17.08-5.18-4.31l-.07-24 5.62-3.24.07 24.28c0 1.36.54 1.5 1 1.23a3.56 3.56 0 0 0 .68-.48l.7 4.39a12.23 12.23 0 0 1-2.83 2.16m-13.28-99.12c-43.49 25.11-78.63 86-78.49 136s35.51 70.14 79 45 78.64-86 78.5-136-35.52-70.14-79-45" transform="translate(-.04 -5.16)"/>
                <path class="cls-32" d="M640.62 1110.73c-5.2 3-8.86 8.9-8.84 13.64 0 4.17 2.46 5.22 5 4.93l3.25-.29c2.18-.21 3.59-.45 3.6 1.35s-1.13 3.43-3.47 4.78a7.13 7.13 0 0 1-6.16.56l-3.2 6.29c2.53 1.27 6 .69 9.22-1.19 6-3.44 9.39-9.56 9.38-14.3 0-4-1.93-5.27-5-4.93l-3.22.36c-2.14.22-3.79.56-3.8-1.2s1.22-3.3 3.17-4.43a6 6 0 0 1 5.17-.69l2.85-5.74c-2.15-1.22-5.17-.8-8 .86M659.92 1124.32c-1.33.77-2.18.6-2.18-.81 0-1.67 1.29-3.73 5.26-6.65v3.82a9 9 0 0 1-3.09 3.64m1.14-18.52a30 30 0 0 0-8.09 7.53l2 3.09a19.68 19.68 0 0 1 5-4.87c2.06-1.19 2.87-.42 3 1.44-7.49 5.2-10.65 9.54-10.64 14.11 0 3.69 2.2 5.33 5.68 3.32a17.18 17.18 0 0 0 5.5-5.94l.15-.09.39 2 4.58-2.65v-12.47c0-6.68-2.7-8.29-7.56-5.49M678.91 1087l-5.62 3.24.07 24c0 4.39 1.32 6.54 5.18 4.31a12.23 12.23 0 0 0 2.83-2.16l-.7-4.39a3.56 3.56 0 0 1-.68.48c-.46.27-1 .13-1-1.23l-.07-24.28M688.55 1099a8.31 8.31 0 0 1 3.66-6.24c2.25-1.3 3.18-.12 3.18 2.29l-6.84 4m3.53-11.1c-4.55 2.62-8.93 9.51-8.91 16.58s4.2 9 9.63 5.88a23.91 23.91 0 0 0 6.72-6.34l-1.89-2.83a14.45 14.45 0 0 1-4.08 3.8c-2.53 1.46-4.44 1.12-4.95-1.76l11.35-6.55a18.78 18.78 0 0 0 .22-3c0-5.94-2.7-8.91-8.09-5.8" transform="translate(-.04 -5.16)"/>
            </g>
            <path class="cls-33" d="M708.28 878.8l-146 365-1 134 207-501s8-36-18.23-23.28z" transform="translate(-.04 -5.16)"/>
        </g>
    </g>
</svg>
