<?xml version="1.0" encoding="UTF-8"?> <!-- Generator: Adobe Illustrator 23.1.0, SVG Export Plug-In . SVG Version: 6.00 Build 0) --> <svg xmlns="http://www.w3.org/2000/svg" xmlns:xlink="http://www.w3.org/1999/xlink" id="OBJECTS" x="0px" y="0px" viewBox="0 0 452.1 316.8" style="enable-background:new 0 0 452.1 316.8;" xml:space="preserve"> <style type="text/css"> .st0{fill:#CAF5FF;fill-opacity:0.2;} .st1{fill:#4AD6AE;} .st2{opacity:0.5;fill:none;stroke:#FFFFFF;stroke-width:1.0479;stroke-linecap:round;stroke-linejoin:round;stroke-miterlimit:10;} .st3{opacity:0.25;fill:#FCCCB1;} .st4{fill:#41B792;} .st5{fill:#233C67;} .st6{fill:#00BDC7;} .st7{fill:#FFE1BD;} .st8{fill:#FFFFFF;} .st9{fill:#FFCCB0;} .st10{fill:#F2A181;} .st11{fill:#3B639F;} .st12{opacity:0.5;} .st13{fill:#F5BC8E;} .st14{fill:#FCD4A9;} .st15{opacity:0.5;fill:#4AD6AE;} .st16{fill:#F4CEA4;} .st17{fill:#1D445E;} .st18{opacity:0.2;fill:#5FB0E7;} </style> <g> <path class="st0" d="M58,222.8c0,0-15.2-49.6,30.9-69.9s29.9-61.9,71.3-71.2c45.1-10.2,61.3,34.9,71,39.2 c9.7,4.3,29.9-4.2,45.7-2.3c15.8,1.9,26.6,25.7,39,37.9c12.4,12.2,41.6,8.6,56.6,25.9c15,17.3,21.3,68.1-10.8,94.2"></path> <g> <g> <path class="st1" d="M143.6,270.4c-7.8-21.3-27.7-41.2-47.4-52.5c-4.8-2.8-11.8-4.9-14,1.7c-1.4,4.2-6.4,3.1-9.2,1.2 c-3.5-2.4-5.5-6.4-8.5-9.4c-2.4-2.4-5.4-4.2-8.8-4.8c-3.3-0.5-7,0.3-9.4,2.7c-1.9,1.8-3,4.3-5,5.8c-3.4,2.6-8.5,1.6-12.1-0.6 c-3.7-2.3-6.6-5.6-10.1-8c-3.6-2.4-8.3-3.9-12.1-1.8c-5,2.7-5.5,10-3.3,15.3c1.3,3.3,3.4,8,5.9,10.6c3.5,3.6,8.7,6.1,13.6,7 c3.6,0.7,7.4,0.7,11,1.5c1.3,0.3,2.8,0.9,3.1,2.4c0.4,2.2-2.3,3.5-3.9,4.3c-2.7,1.4-5.4,4.3-4.1,7.1c0.8,1.7,2.8,2.5,4.7,2.8 c5.6,1,11.2-0.7,16.6-2.3c3.2-1,6.1-3,9.4-3.9c1.7-0.4,6.2-0.6,5.7,2.3c-0.1,0.9-0.8,1.7-1.5,2.3c-0.7,0.6-1.5,1.1-2.1,1.8 c-2.6,3.1,0,6.8,3.3,7.6c2.6,0.6,5.3,0,7.9-0.6c16.9-4,34.6-5.5,51.7-2c3.6,0.7,7.6,2,9.4,5.2"></path> </g> <path class="st2" d="M125.4,257c-12.4-11.5-28.9-19.1-46.1-21.3c-10.7-1.3-21.6-0.6-32.4-1.6s-21.9-3.8-29.7-10.9"></path> <g> <path class="st3" d="M129.2,258.6c0,0-29.6-19.7-37.9-39.6c5.6,1.5,9.3,3.4,13.3,6.6c4.3,6,14.4,15.3,21.3,21.3 C126.9,250.2,128,254.1,129.2,258.6z"></path> <path class="st4" d="M128.1,251.9c-1.1-6.9-4.2-13.8-5.4-20.9c-1.9-11.3-2.2-22.7-0.1-34c1.8-9.6,4.7-19.6,1.5-29.3 c-0.9-2.6-2.5-5.4-5.8-5.3c-1.3,0-2.6,0.6-3.6,1.4c-2.4,2.2-2.9,5.3-3.3,8.2l-1.3,9.9c-0.4,3.2-5.3,3.6-6.3,0.5c0,0,0-0.1,0-0.1 c-0.8-2.6-0.7-5.4-0.4-8.1c0.5-5.9,1.2-11.9,0.3-17.8c-1.1-7.1-5-14.4-12.6-17c-2.7-0.9-5.7-1.1-8.4-0.3 c-7.6,2.2-9.2,9.4-7.6,15.4c1.1,4.2,3.5,8.1,5.7,11.9c5.3,9.4,2.5,18.4,3.8,29C87.2,217.7,109.1,239.3,128.1,251.9z"></path> <path class="st2" d="M86.3,152c16,19.3,10.2,65,38.1,89.6"></path> <path class="st2" d="M117.5,174.7c1.8,9.8-4.5,20.7-5.9,26.8c-1.5,6.1-2.2,16.4-0.7,22.5"></path> </g> </g> <g> <g> <path class="st1" d="M318.6,235.8c1.1-6.3,12.6-45.6,32.9-35.1c12,6.2,9.9,29-8.9,46.3c3.7-3.6,7.9-7.6,13-8.6 c2.7-0.5,6,0.7,8.1,2.6c1.8,1.7,2.3,4.3,2.4,6.8c0.3,9-4.4,17.9-11.9,22.8c4.1-2.3,7.7-5.2,12.5-5.6c1.5-0.1,4.1,0.7,4.9,2.1 c0.8,1.5,0.7,7.1-8.4,11.3c37.2-7.1,39.4,8.8,26,8.8c-13.4,0-88.5,0-88.5,0"></path> </g> <g> <path class="st4" d="M118,288.9c-29,0.4-59.6-1-88.6-0.6c-1,0-4.1-0.3,1.1-3.7c4.5-2.9,18.6-0.3,18.6-0.3s-3.3-1.3-3.3-3 c0-1.7,1.3-3.2,2.9-3.9c1.5-0.7,3.3-0.8,5-0.7c3.5,0.2,6.9,1,10.1,2.3c-1.4-0.8-1.8-2.9-0.8-4.2c0.9-1.3,3-1.6,4.2-0.6 c-2.2-2.9-5.5-16,4.8-21.7c12.9-7.2,22.8-1.3,24.9,3.1c1.1-4.3,5.9-7.5,9.2-8.3c7.3-1.8,12.3-1.6,18.9,1.9 c22.2,11.8,11.9,37.6,10.4,40.4"></path> </g> <g> <path class="st4" d="M337,289c29.3,0.4,60.4-1,89.7-0.6c1,0,4.2-0.3-1.2-3.7c-4.5-2.9-18.8-0.3-18.8-0.3s3.3-1.3,3.3-3.1 c0-1.7-1.3-3.2-2.9-4c-1.6-0.7-3.4-0.8-5.1-0.7c-3.5,0.2-7,1-10.2,2.3c1.4-0.8,1.8-2.9,0.9-4.2c-0.9-1.3-3-1.6-4.3-0.6 c2.2-3,5.4-17.3-5-23.2c-12.4-7.1-22.1,1.4-24.2,5.7c-1.1-4.3-6.8-8.9-10-9.8c-17.1-4.5-26.5,6.7-28,8.9 c-11.5,16.7-3.5,30.4-1.7,33.2"></path> </g> <g id="XMLID_3_"> <g> <g> <path class="st1" d="M418.8,289c-4.8-20.1-2-41.7,7.9-59.3l0.6,0.3c-9.8,17.4-12.6,38.9-7.8,58.8L418.8,289z"></path> </g> <g id="XMLID_10_"> <g> <path class="st1" d="M424.5,234.7c0.1-3.6,1.6-7.2,4.2-9.9c0.6-0.6,1.4-1.3,2.3-1.2c0.2,0,0.5,0.1,0.7,0.3 c0.3,0.3,0.3,0.7,0.2,1.1c-0.4,2.1-1.8,3.8-3.3,5.2C427,231.7,426,233,424.5,234.7"></path> </g> <g> <path class="st1" d="M421.8,241.6c1.6-3.3,4.4-6,7.7-7.4c0.8-0.4,1.8-0.6,2.6-0.2c0.2,0.1,0.4,0.3,0.5,0.5 c0.1,0.4-0.1,0.8-0.3,1.1c-1.2,1.7-3.2,2.7-5.1,3.5C425.2,239.8,423.9,240.6,421.8,241.6"></path> </g> <g> <path class="st1" d="M419,250.8c1.2-3.5,3.6-6.5,6.8-8.3c0.8-0.5,1.7-0.8,2.5-0.5c0.2,0.1,0.5,0.2,0.6,0.5 c0.2,0.4,0,0.8-0.1,1.1c-1,1.9-2.8,3.1-4.7,4.1C422.2,248.6,420.9,249.6,419,250.8"></path> </g> <g> <path class="st1" d="M417.5,260.1c1.2-3.5,3.6-6.5,6.8-8.3c0.8-0.5,1.7-0.8,2.5-0.5c0.2,0.1,0.5,0.2,0.6,0.5 c0.2,0.4,0,0.8-0.1,1.1c-1,1.9-2.8,3.1-4.7,4.1C420.7,257.9,419.4,258.9,417.5,260.1"></path> </g> <g> <path class="st1" d="M417.1,272.6c0.8-3.6,2.9-6.8,5.9-9c0.7-0.5,1.6-1,2.5-0.8c0.2,0.1,0.5,0.2,0.6,0.4 c0.2,0.3,0.1,0.8,0,1.1c-0.8,2-2.5,3.4-4.2,4.5C420,270.1,418.9,271.2,417.1,272.6"></path> </g> <g> <path class="st1" d="M417.7,281.7c0.6-3.3,2.4-6.6,5.1-9.1c0.7-0.6,1.5-1.2,2.3-1.1c0.2,0,0.5,0.1,0.6,0.2 c0.2,0.3,0.1,0.7,0,1c-0.6,1.9-2.2,3.5-3.8,4.8C420.4,278.9,419.3,280.1,417.7,281.7"></path> </g> <g> <path class="st1" d="M420.7,244.8c-2.7-2.6-4.6-6.2-5-10c-0.1-0.9-0.1-2,0.5-2.7c0.2-0.2,0.4-0.3,0.6-0.4c0.4,0,0.7,0.3,1,0.6 c1.4,1.7,1.8,4,2,6.2C419.9,240.8,420.4,242.4,420.7,244.8"></path> </g> <g> <path class="st1" d="M418.8,252c-3.3-1.8-5.9-4.9-7.3-8.5c-0.3-0.9-0.6-1.9-0.2-2.7c0.1-0.2,0.3-0.4,0.5-0.5 c0.4-0.1,0.8,0.1,1.1,0.4c1.7,1.3,2.7,3.5,3.4,5.6C417.1,248.3,417.9,249.8,418.8,252"></path> </g> <g> <path class="st1" d="M417.4,261.6c-3.6-1.1-6.8-3.6-8.8-6.9c-0.5-0.8-1-1.8-0.7-2.6c0.1-0.2,0.2-0.5,0.4-0.6 c0.3-0.2,0.8-0.1,1.2,0.1c2,1,3.3,2.9,4.4,4.8C415,258.3,416.1,259.6,417.4,261.6"></path> </g> <g> <path class="st1" d="M416.9,274c-3.2-1.9-5.8-5.1-7.1-8.7c-0.3-0.9-0.5-1.9-0.1-2.7c0.1-0.2,0.3-0.4,0.5-0.5 c0.4-0.1,0.8,0.1,1.1,0.4c1.7,1.4,2.6,3.5,3.3,5.7C415.2,270.2,416,271.7,416.9,274"></path> </g> <g> <path class="st1" d="M417.9,282.9c-3.7-0.2-7.5-1.9-10.3-4.6c-0.7-0.7-1.4-1.5-1.3-2.4c0-0.3,0.1-0.5,0.3-0.7 c0.3-0.3,0.8-0.2,1.2-0.2c2.1,0.5,3.9,2,5.5,3.6C414.8,280.2,416.1,281.2,417.9,282.9"></path> </g> </g> </g> </g> <path class="st4" d="M450.8,289.6c0,1.5-100.3,2.7-235.6,2.7S2,291.1,2,289.6c0-1.5,77.9-2.7,213.2-2.7S450.8,288.1,450.8,289.6z"></path> </g> </g> <g> <path class="st5" d="M331.4,225.4H100.9v-7.2c0-2.5,2-4.5,4.5-4.5h221.5c2.5,0,4.5,2,4.5,4.5V225.4z"></path> <path class="st5" d="M331.4,276.3H100.9v7.2c0,2.5,2,4.5,4.5,4.5h221.5c2.5,0,4.5-2,4.5-4.5V276.3z"></path> <g> <path class="st5" d="M139.3,290.6h-27.9c-1,0-1.8-0.8-1.8-1.8V281h31.6v7.8C141.1,289.8,140.3,290.6,139.3,290.6z"></path> <path class="st5" d="M321,290.6h-27.9c-1,0-1.8-0.8-1.8-1.8V281h31.6v7.8C322.8,289.8,322,290.6,321,290.6z"></path> </g> <path class="st6" d="M313.9,223.7h-13.7l3.2-159.3c0-2,1.7-3.6,3.6-3.6h0c2,0,3.6,1.6,3.6,3.6L313.9,223.7z"></path> <path class="st6" d="M313.9,223.7h-3.1l-3.2-162.8c0.8,0.1,1.4,0.5,1.9,1c0.7,0.6,1.1,1.5,1.1,2.5L313.9,223.7z"></path> <path class="st6" d="M339.3,223v58.6c0,1.9-1.5,3.4-3.4,3.4H96.4c-1.9,0-3.4-1.5-3.4-3.4V223c0-1.9,1.5-3.4,3.4-3.4h239.5 C337.8,219.6,339.3,221.1,339.3,223z"></path> <path class="st6" d="M339.3,223v58.6c0,1.9-1.5,3.4-3.4,3.4H96.4c-1.9,0-3.4-1.5-3.4-3.4C326.9,286.4,339.3,223,339.3,223z"></path> <ellipse transform="matrix(0.9231 -0.3844 0.3844 0.9231 -87.9158 64.7441)" class="st5" cx="118" cy="252.3" rx="7.5" ry="7.5"></ellipse> <g> <path class="st1" d="M164.5,252.3c0,2-1.6,3.6-3.6,3.6c-2,0-3.6-1.6-3.6-3.6c0-2,1.6-3.6,3.6-3.6 C162.9,248.6,164.5,250.3,164.5,252.3z"></path> <path class="st1" d="M180.3,252.3c0,2-1.6,3.6-3.6,3.6c-2,0-3.6-1.6-3.6-3.6c0-2,1.6-3.6,3.6-3.6 C178.6,248.6,180.3,250.3,180.3,252.3z"></path> <path class="st7" d="M196,252.3c0,2-1.6,3.6-3.6,3.6c-2,0-3.6-1.6-3.6-3.6c0-2,1.6-3.6,3.6-3.6C194.4,248.6,196,250.3,196,252.3z"></path> <path class="st7" d="M211.7,252.3c0,2-1.6,3.6-3.6,3.6c-2,0-3.6-1.6-3.6-3.6c0-2,1.6-3.6,3.6-3.6 C210.1,248.6,211.7,250.3,211.7,252.3z"></path> <path class="st8" d="M227.4,252.3c0,2-1.6,3.6-3.6,3.6c-2,0-3.6-1.6-3.6-3.6c0-2,1.6-3.6,3.6-3.6 C225.8,248.6,227.4,250.3,227.4,252.3z"></path> <path class="st8" d="M243.2,252.3c0,2-1.6,3.6-3.6,3.6c-2,0-3.6-1.6-3.6-3.6c0-2,1.6-3.6,3.6-3.6 C241.6,248.6,243.2,250.3,243.2,252.3z"></path> </g> <path class="st8" d="M323.3,255.9h-60c-2,0-3.6-1.6-3.6-3.6l0,0c0-2,1.6-3.6,3.6-3.6h60c2,0,3.6,1.6,3.6,3.6l0,0 C326.9,254.3,325.3,255.9,323.3,255.9z"></path> <g> <g> <circle class="st6" cx="307" cy="50.9" r="4.5"></circle> </g> <g> <path class="st6" d="M299.2,45.5c-0.6,0-1.3-0.2-1.8-0.7c-1-1-1-2.6,0-3.5c2.6-2.6,6-4,9.6-4c3.6,0,7,1.4,9.6,4c1,1,1,2.6,0,3.5 c-1,1-2.6,1-3.5,0c-1.6-1.6-3.8-2.5-6.1-2.5c-2.3,0-4.5,0.9-6.1,2.5C300.5,45.3,299.8,45.5,299.2,45.5z"></path> </g> <g> <path class="st6" d="M322.1,38.4c-0.6,0-1.3-0.2-1.8-0.7c-3.5-3.5-8.3-5.5-13.3-5.5c-5,0-9.7,2-13.3,5.5c-1,1-2.6,1-3.5,0 c-1-1-1-2.6,0-3.5c4.5-4.5,10.5-7,16.8-7s12.3,2.5,16.8,7c1,1,1,2.6,0,3.5C323.4,38.1,322.7,38.4,322.1,38.4z"></path> </g> <g> <path class="st6" d="M331.7,30.4c-0.6,0.6-1.4,0.9-2.1,0.9c-0.8,0-1.5-0.3-2.1-0.9c-5.5-5.5-12.7-8.5-20.5-8.5 c-7.7,0-15,3-20.5,8.5c-1.2,1.2-3.1,1.2-4.2,0c-1.2-1.2-1.2-3.1,0-4.2c1.6-1.6,3.4-3.1,5.3-4.3c5.7-3.8,12.4-5.9,19.5-5.9 c1.4,0,2.8,0.1,4.2,0.2c7.8,0.9,14.9,4.4,20.5,10C332.9,27.4,332.9,29.2,331.7,30.4z"></path> </g> </g> </g> <g> <g> <g> <path class="st7" d="M363.1,304.7c0,0-0.2,5.4,0.1,6.7c0.2,1,3.3,1.1,3.6,0.6c0.4-0.5,0.8-6.8,0.8-6.8"></path> <path class="st5" d="M368,312.2c0,0.8-0.2,2-0.3,2.7c-0.1,0.3-0.3,0.6-0.7,0.6h-3.8c0,0-1.7,0-2.8,0h-3.7c-2.7,0-4.3-0.3-4.4-0.8 c-0.3-2,10.3-5.3,10.8-5.1c0,0,0.1,0.4,0.5,0.9c0.6,0.7,1.1,1,2,0.8c0.6-0.1,1.1-0.3,1.5-0.7C367.1,310.6,368,310.9,368,312.2z"></path> </g> <g> <path class="st7" d="M409.1,307c0,0,0.6,2.7,0.9,3.6c0.3,0.9,3.3,0.3,3.5-0.3c0.2-0.6-1.2-5.7-1.2-5.7"></path> <path class="st5" d="M414.5,310.5c0.2,0.7,0.4,1.8,0.5,2.5c0.1,0.3-0.1,0.6-0.4,0.8l-2.6,1.1c0,0,0,0,0,0 c-0.2,0.1-1.2,0.4-2.1,0.8c-0.8,0.4-2.2,0.7-3.1,0.8c-2.7,0.2-4.6-0.4-4.8-0.7c-0.6-1.5,5.8-5.7,7.2-6.4c0.2-0.1,0.4-0.1,0.5,0 c0.2,0.1,0.6,0.3,0.8,0.8c0.1,0.3,0.4,0.5,0.8,0.4c0.7-0.1,1.8-0.4,2.2-1.2C413.4,309.3,414.2,309.4,414.5,310.5z"></path> </g> <path class="st5" d="M398.3,226.2c0,0,6.1-17.9-11.2-32.6c0,0-9.2,3.7-16.6,4.1c-5.8,0.3-8.8-0.2-8.8-0.2s-0.5,15.9-0.5,24.4 L398.3,226.2z"></path> <path class="st5" d="M363.6,207.4c-1.4,0.5-1.8,4.6-2,7.4c-0.2,2.8-1.3,31.9-1.7,37.1c-0.1,0.9-0.1,1.7,0,2.4 c-0.1,0.5-0.1,1-0.1,1.5c0.4,8.5,2.2,35.5,2,52c0,0,5,0.5,6.4,0.2c1-11.5,7.4-33.2,5.2-47c-0.8-4.9-0.4-10,1.1-14.7 c2.5-8.1,5.4-17.7,6.2-22.2C382.3,213.6,370.3,204.8,363.6,207.4z"></path> <path class="st5" d="M403.8,263.1c-2.6-4.5-4.3-9.6-4.4-14.9c-0.2-9.7-0.4-22.1-1.4-26.8c-2.3-10.4-14.3-14.7-19.6-9.8 c-1.1,1-1.3,6.5-0.4,9.2c0.9,2.7,7.7,32.4,9.4,37.4c0.2,0.7,0.5,1.4,0.7,1.9c0.1,0.5,0.2,0.9,0.4,1.5c2.9,8.1,15,31.2,19.7,47 c0,0,4.5-0.5,6.1-1.6C411.7,295.8,411.1,275.6,403.8,263.1z"></path> <g> <path class="st1" d="M397.6,206.5c-20.8,3.8-37.1,0.3-36.9-1.1c0.6-3.4,2.1-29.9,1.2-32.5c-1.6-4.5-2.3-12-3.6-15.4 c-0.9-2.6-3.4-10-1.4-12c2.2-2.3,7.6-5.7,15.5-5.5c5.5,0.2,19.5,1.6,22,4.7c1.6,1.9,2.4,5.5,2.8,9.9c0.2,2.7,0.3,5.6,0.3,8.8 c-0.1,9.3-1.2,19.9-1.8,27.7C395.4,196.7,397.6,206.5,397.6,206.5z"></path> <path class="st9" d="M370.6,133.6c0,0,0,5.6-0.2,5.8c-0.5,0.6-2.1,0.9-2.1,0.9s0.3,3.5,3.7,3.9c7.3,0.9,9.8-3.3,9.8-3.3 s-1.9-0.4-1.8-1.5c0-0.5,1.2-9.8,1.2-9.8"></path> <g> <path class="st10" d="M370.6,134.2l3.9,0.7c0,0-1.3,1.4-3.9,1.4"></path> </g> <g> <g> <path class="st11" d="M361.1,113.7c-1.2,1-1.2,3.1-1.1,4.6c0.1,1.7,0.5,3.4,0.9,5.1c0.3,1.2,0.8,2.3,1.6,3.2 c0.4,0.4,1,0.7,1.5,1c0.3,0.2,0.6,0.3,1,0.4c0.3,0.1,0.7,0,1-0.2c0.4-0.4,0.3-0.9,0.3-1.4c-0.4-3.3-0.8-6.6-0.3-9.9"></path> </g> <g> <path class="st9" d="M363.5,123.6c-0.4-0.9-1.7-1.1-2.1,0.2c-0.4,1.1,0.1,2.7,0.5,3.8c0.5,1.4,1.7,1.2,2.6,1"></path> </g> <path class="st9" d="M366.7,112c-1.1,0.8-4.5,1.5-4.8,3.2c-0.3,1.7,0.3,5.2,0.3,6.2c0.1,2,0.5,4.1,0.8,6.1 c0.4,2.6,1.2,7.3,4.3,8.3c0.9,0.3,1.3,0.3,2.1,0.1c1.2-0.3,2.3-0.5,3.5-0.8c1.8-0.4,3.8-0.9,5.3-2.1c1.9-1.7,1.8-5.3,1.5-7.6 l-1.8-13.3L366.7,112z"></path> <g> <path class="st11" d="M380.1,122.9c-0.9-0.1-1.7-0.3-1.9,0.6c-0.1,0.5,0,1.1-0.4,1.4c-0.4,0.3-1,0.1-1.3-0.3 c-0.3-0.4-0.4-0.9-0.4-1.4c-0.1-1.1-0.2-2.2-0.3-3.3c-0.1-1.1-0.3-2.3-1-3c-0.4-0.4-0.9-0.6-1.4-0.8c-1.7-0.5-3.6-0.4-5.3,0 c-1.8,0.4-3.5,0.9-5.3,1.1c-0.7,0.1-1.5,0.1-2.2-0.1c-1.2-0.4-2.1-1.3-2.6-2.4c-0.5-1.1-0.6-2.4-0.4-3.6c0.3,0.3,0.6,0.6,1,0.9 c0-0.6,0.1-1.2,0.3-1.8c1.6,2.4,12.3-3.2,15.3-3.1c2.1,0,3.8-0.1,5,2.9c0.1,0.2,0.3,0.2,0.5,0.3c2.2,0.8,3.7,2.3,5,4.8 c1.6,3.1,1.2,7.4,0.5,10.8c-0.2,0.9-0.2,1.4-0.7,2.2c-0.4,0.8-1.5,1.5-2.3,1.7c-0.9,0.2-2.4,0.9-2.8,0.1 c-0.3-0.6,0.5-2.1,0.7-2.8"></path> </g> <g> <path class="st9" d="M378.5,127.1c0,0,0.1,0.6,0.6,0.9c0.5,0.2,1-0.1,1.4-0.4c1-0.9,1.3-2.4,1-3.6c-0.3-1.5-1.7-2.6-2.8-1.7 c-0.7,0.5-0.8,1.6-0.4,2.3"></path> </g> </g> </g> </g> <polygon class="st1" points="356.3,146.6 352.3,160.9 361.3,161.9 363.7,153.1 "></polygon> <g> <rect x="339.1" y="183.4" transform="matrix(-1 -1.224647e-16 1.224647e-16 -1 727.3811 368.6536)" class="st6" width="49.3" height="1.9"></rect> <path class="st6" d="M329.5,185.3h42.8l-7.7-25c-0.4-1.4-1.7-2.3-3.1-2.3H324c-1.4,0-2.5,1.4-2,2.8L329.5,185.3z"></path> <path class="st6" d="M329,185.3h42.1l-7.7-25c-0.4-1.4-1.7-2.3-3.1-2.3h-37.5c-1.4,0-2.5,1.4-2,2.8l7.3,24 C328.3,185,328.6,185.3,329,185.3z"></path> <path class="st8" d="M348.6,171.9c0,2.4-1.9,4.3-4.3,4.3c-2.4,0-4.3-1.9-4.3-4.3c0-2.4,1.9-4.3,4.3-4.3 C346.7,167.6,348.6,169.5,348.6,171.9z"></path> </g> <path class="st9" d="M384.7,161.9c0,0-1.7,11.3-2.2,14.3c-0.4,2.3-1.3,9.1-1.3,9.1l2.8,5.7c0,0,2.5-0.8,4.3-3 c1.8-2.3,5.4-19.9,5.4-19.9"></path> <path class="st1" d="M386.3,150.1c0,0-2.2,9.2-2.7,17.5c0,0,7.9,1.6,12.6,2.2c0,0,6.6-19.2-2.3-25.3"></path> <g> <path class="st4" d="M385.7,153.1l-1,7.3c-0.2,1.2-0.3,2.4-0.5,3.6c-0.1,1.2-0.3,2.4-0.3,3.6l-0.2-0.3c1.8,0.4,3.6,0.8,5.3,1.2 c1.8,0.4,3.6,0.7,5.4,1c-1.8-0.1-3.6-0.3-5.4-0.6c-1.8-0.3-3.6-0.6-5.4-1l-0.2,0l0-0.2c0-1.3,0.1-2.5,0.3-3.7 c0.2-1.2,0.4-2.4,0.6-3.6C384.6,157.9,385.1,155.4,385.7,153.1z"></path> </g> <path class="st9" d="M373.6,185.3c0,0,5-1.4,9.6-0.6c4.6,0.8,0.8,6.3,0.8,6.3c-20.3,1.7-33.1-5.7-33.1-5.7h30.4"></path> <path class="st9" d="M347.1,185.3c0,0,2.9,1.2,6.4,1.3c3.6,0.1,4.1-1.3,4.1-1.3H347.1z"></path> <g> <g class="st12"> <g> <g> <polyline class="st1" points="338,114.5 343.1,117.2 340.5,110.6 "></polyline> </g> <circle class="st1" cx="332.9" cy="106" r="10.8"></circle> </g> </g> <g> <g> <path class="st8" d="M333.7,110.8c-0.4,0.4-1.1,0.4-1.5,0c-0.4-0.4-0.4-1.1,0-1.5c0.4-0.4,1.1-0.4,1.5,0 C334.1,109.7,334.1,110.4,333.7,110.8z"></path> </g> <g> <path class="st8" d="M331.1,108.8c-0.2,0-0.3-0.1-0.4-0.2c-0.2-0.2-0.2-0.6,0-0.8c0.6-0.6,1.4-0.9,2.3-0.9s1.7,0.3,2.3,0.9 c0.2,0.2,0.2,0.6,0,0.8c-0.2,0.2-0.6,0.2-0.8,0c-0.4-0.4-0.9-0.6-1.4-0.6s-1,0.2-1.4,0.6C331.4,108.8,331.2,108.8,331.1,108.8z"></path> </g> <g> <path class="st8" d="M336.5,107.1c-0.2,0-0.3-0.1-0.4-0.2c-0.8-0.8-1.9-1.3-3.1-1.3s-2.3,0.5-3.1,1.3c-0.2,0.2-0.6,0.2-0.8,0 c-0.2-0.2-0.2-0.6,0-0.8c1.1-1.1,2.5-1.6,4-1.6s2.9,0.6,4,1.6c0.2,0.2,0.2,0.6,0,0.8C336.8,107.1,336.6,107.1,336.5,107.1z"></path> </g> <g> <path class="st8" d="M338.8,105.2c-0.1,0.1-0.3,0.2-0.5,0.2c-0.2,0-0.4-0.1-0.5-0.2c-1.3-1.3-3-2-4.8-2c-1.8,0-3.5,0.7-4.8,2 c-0.3,0.3-0.7,0.3-1,0c-0.3-0.3-0.3-0.7,0-1c0.4-0.4,0.8-0.7,1.2-1c1.3-0.9,2.9-1.4,4.6-1.4c0.3,0,0.7,0,1,0.1 c1.8,0.2,3.5,1,4.8,2.4C339,104.5,339,105,338.8,105.2z"></path> </g> </g> </g> </g> <g> <g> <g> <g> <path class="st7" d="M49.5,289.6c0,0-4.6,9.2-7.1,14.3c-0.2,0.3-0.2,0.7,0,1c0.6,1.3,2.3,4.6,3.3,5.9c-0.8-0.3-10.9-3.1-8.8-6.2 c1.8-2.6,3-10,5.4-17.6"></path> <path class="st5" d="M37.5,303c0.1-0.1,0.4-0.1,0.5,0.1c0.5,0.7,1.6,1.3,2.1,1.5c1,0.3,2-0.1,2.4,0.2c0.4,0.3,2.8,5.5,5,7.3 c1.6,1.3,0.4,2.3,0.2,2.4c-5.9,1.4-7.4-1.7-8-2.4c-1.4-1.6-1.6-2.4-2.9-3.9c-0.4-0.4-1.1-1.3-1.2-1.9 C35.4,305,36.4,303.7,37.5,303z"></path> </g> <g> <path class="st7" d="M77.2,296.7c0,0,0.2,4,0.1,10.9c0,0.3,0.1,0.6,0.4,0.8c1.2,0.9,4.6,3.5,6.4,4.2c-1,0.2-12.5,3-11.9-1.3 c0.5-3.6-0.2-6.9-1.9-14.4"></path> <path class="st5" d="M72.1,309.5c0.1-0.2,0.3-0.3,0.5-0.3c0.8,0.3,2,0.2,2.6,0.2c0.8,0.1,2-1.2,2.5-1.1c0.5,0.1,4.2,2.6,6.5,3.6 c0.5,0.2,1.4,0.5,2.7,1c2.6,1.2,0.7,2.3,0,2.4c-1.1,0.3-11.4,0.2-13.5-0.4c-1-0.2-1.6-0.5-2-1C70.8,313.1,71.6,311.1,72.1,309.5 z"></path> </g> <path class="st5" d="M83.2,219.8c0.4,11.9-5.5,81.7-5.5,81.7s-0.8,0.4-2.5,0.4c-2.3,0-4.4-0.3-4.4-0.3s-4.1-17.7-3.5-35.8 c0.1-2.4,0.2-4.8,0.5-7.2c0.4-3.8,0.4-7.6-0.2-11.4c-0.7-4.3-1.4-9-2-14c-1.2-9.7-2.1-20.1-2.3-28.7c-0.7-41.2,16.8-7.4,16.8-7.4 S82.7,207.9,83.2,219.8z"></path> <path class="st11" d="M67.8,258.6c0.4-3.8,0.4-7.6-0.2-11.4c-0.7-4.3-1.4-9-2-14l3.7-17.6c0,0,4.2,29.3-2,50.2 C67.4,263.4,67.6,261,67.8,258.6z"></path> <path class="st5" d="M51,201c0,0-5.2,10.8-3.9,22.3c0.9,7.9,3.1,16.7,4.8,22.5c1,3.4,0.7,7-0.8,10.2c-5.5,12-12.6,41.4-12.6,41.4 s4,2.2,7.3,2.1c0,0,15.6-34,18.3-44c5.1-18.5,5.8-53.7,5.8-53.7L51,201z"></path> <path class="st7" d="M75.9,120.7c1,2.5-0.5,5.3-0.8,7.9c-0.2,1.8,0.1,3.7,0.2,5.6c0,1.9-0.3,3.9-1.6,5.2 c-1.1,1.1-2.7,1.6-4.3,1.7c-3.7,0.2-7.4-1.3-9.9-4c-2.5-2.7-3.7-6.6-3.1-10.2c0.2-1.3,0.6-2.6,1.1-3.8c1.4-3.1,3.7-6,7-7.1 c3.2-1.1,7.3-0.1,8.9,2.9"></path> <path class="st11" d="M56,114.9c-1.6-1.3-3.7-2-5.7-2.2c-2.6-0.2-5.4,0.7-6.9,2.7c-1.5,1.9-1.7,4.5-2.9,6.6 c-2.1,3.5-6.6,4.8-9.4,7.8c-0.8,0.9-1.5,2-1.4,3.2c0.1,1.5,1.3,2.7,1.5,4.2c0.4,2.7-2.4,5-2,7.7c0.4,2.3,2.9,3.5,5.3,3.8 c3.5,0.5,7.1-0.3,9.9-2.4c2.8-2.1,4.5-5.7,4.1-9.1c-0.2-1.5-0.8-3-0.8-4.5c-0.1-2.7,1.5-5.3,1.3-8.1c-0.1-1.2-0.5-2.6,0.1-3.7 c0.3-0.5,0.7-0.9,1.1-1.2c1.3-1.1,3-2.2,4.5-1.4"></path> <path class="st11" d="M78.4,119.5c-0.2-1.1-0.4-2.2-1-3.1c-1.1-1.8-3.6-2.4-5.5-1.6c-0.2-0.5-0.4-0.9-0.7-1.3 c-3-4.2-9.8-3.8-13.9-1.9c-0.9,0.4-1.7,0.8-2.3,1.6c-0.9,1.1-1,2.6-1.1,4.1c-1.1,0.2-2,1.1-2.5,2c-0.5,1-0.7,2.1-0.8,3.2 c-0.3,3.7,0.8,7.6,3.1,10.5c0.9,1.2,2.2,2.2,3.6,2.4c0.2,0,0.5,0,0.7-0.2c0.1-0.1,0.1-0.2,0.1-0.3c0-0.8-0.3-1.5-0.4-2.3 c-0.1-0.8-0.1-1.6,0.4-2.3c0.4,0,0.7,0.8,1.1,0.6c0.1,0,0.1-0.1,0.2-0.2c0.6-1.1,0.2-2.5,0.2-3.8c0-0.2,0.1-0.3,0.1-0.5 c3.9-2.4,9.1-1.2,13-3.9c0.3-0.2,0.7-0.5,0.9-0.9c0.2-0.4,0.3-0.8,0.3-1.3c0.4,0.6,0.8,1.2,1,1.8c0.6,2,0.8,3,0.5,6.1 c0.8-1.4,1.7-2.6,2.5-4.1c0.3-0.5,0.6-1.1,0.7-1.7C78.7,121.4,78.6,120.4,78.4,119.5z"></path> <path class="st13" d="M59.7,130.8c0.2-0.2,0-0.4-0.2-0.5c-0.4-0.3-0.8-0.5-1.2-0.6c-0.4-0.1-1-0.1-1.3,0.2 c-0.3,0.3-0.5,0.7-0.6,1.2c-0.2,1.5,0.4,3.2,1.7,4.1c0.5,0.4,1.1,0.7,1.7,0.5c0.6-0.1,1.1-0.8,0.9-1.4"></path> <path class="st7" d="M83.9,173.7c0,0-3.8,22.9-4.2,26.4c-0.3,2.8,1.3,4.8,3.2-0.5c1.3-3.6,9.6-21.7,7.4-27.5 c-2.2-5.7-4.6-0.6-4.6-0.6L83.9,173.7z"></path> <path class="st7" d="M83.1,156.5c0,0,4.5,8.1,7.1,15.3c1.2,3.4-3.3,8.4-6.3,2.3c-3.5-7.2-6.8-13.5-6.8-13.5"></path> <g> <path class="st1" d="M84.2,158.1c-0.1,0.1-0.2,0.2-0.4,0.3c-0.6,0.5-1.6,1.2-3,2.1c-0.2,0.1-0.4,0.2-0.6,0.4 c-4.3,2.4-6.6-4.7-6.6-4.7L73,144.1c0,0,2.2,0.4,5.9,4.9C79.2,149.4,82.5,153.8,84.2,158.1z"></path> <path class="st4" d="M83.9,158.4c-0.6,0.5-1.6,1.2-3,2.1l-4.6-2.3l0.7-8.1c0,0,2.2,3.6,3.2,5C81.3,156.6,82.7,157.3,83.9,158.4z "></path> <path class="st1" d="M80.7,171.8c-3.5,6.1-0.3,21.9,0.8,30.4c0,0.3-0.2,0.6-0.5,0.7c-5.9,1.1-17.3,2.6-25,0.9 c-0.8-0.2-1.6-0.4-2.2-0.5c-1.3-0.4-2.1-0.7-2.7-1c-0.2-0.1-0.3-0.4-0.3-0.6c0.1-0.4,0.2-0.8,0.2-1.2c1-5.4,1.7-14.3-1.5-27.4 c-2.2-8.8-3.3-18.9,0.1-24.3c0,0,0,0,0,0c0.3-0.5,0.7-1,1.2-1.5c3.6-3.6,10-4.1,19.2-3.7c1.8,0.1,3.7,1.1,4.6,1.9 c2.6,2.2,2.4,10.2,5.6,14.7C81.7,161.8,84.7,164.9,80.7,171.8z"></path> <path class="st4" d="M53.9,203.2c-1.6-0.5-3.4-0.8-3.6-1.7c-0.1-1.6,0.8-3.1,0.9-3.6c1-5.4,1.8-11.9-1.5-25 c-2.2-8.8-3.3-18.9,0.1-24.3c0,0,0,0,0,0c0.6-1,1.8-1.6,3-1.6c0.6,0,1.2,0,1.9,0.2c-0.5,1.4-1.2,5.3-1.2,5.3l4.5,1 c0,0,1.1,1.6-1.6,11.1c0,0,0,0,0,0c-0.9,2.4-1.6,4.1-1.7,6.2c-0.3,3.8,0.4,11.7,0.4,11.7S54.7,197.6,53.9,203.2z"></path> <path class="st7" d="M55.7,159.8l-5.8,15.6c-1.8,1.9-4,3.1-6,2.1c-1.3-0.6-1.5-2.2-1.5-3.2c0-0.6,0.1-0.9,0.1-0.9 c0.6-3.4,1.5-7.4,2.3-10.7c0.2-0.7,0.3-1.4,0.5-2.1c0.6-2.3,1-4,1.2-4.6c0.1-0.2,0.1-0.3,0.1-0.3L55.7,159.8z"></path> <path class="st14" d="M49.2,163.9l-2.5,5.1c0,0-2,1-1.2-0.7c0.8-1.7,0.7-4.4,0.7-4.4c-0.6-0.3-1.1-0.8-1.5-1.1 c0.2-0.7,0.3-1.4,0.5-2.1c0.7,0,2.4,0,2.4,0C47.7,160.7,49.2,163.9,49.2,163.9z"></path> <path class="st1" d="M52,146.1c-5.7,2.7-6.9,9.2-7.9,15.8l9.9,4c0,0,8.4-12.8,3.2-17.6C55.2,146.3,54.2,145.1,52,146.1z"></path> </g> <path class="st7" d="M66.4,139.1c0.1,0.8,0.7,3.4,1,3.8c0.4,0.5,1,0.4,1.5,0.4c0,2.1-2.9,4-5.3,3.5c-1.6-0.3-3.3-1.6-3.9-3.2 c1.3-1,1.3-3.1,1.3-4.6c0-1.1,0.2-2.7-0.2-3.8"></path> <path class="st6" d="M64.7,139.1l-6,2.1c-0.4,0.1-0.9-0.1-1-0.5l-4.6-13.3c-0.1-0.4,0.1-0.9,0.5-1l6-2.1c0.4-0.1,0.9,0.1,1,0.5 l4.6,13.3C65.3,138.5,65.1,138.9,64.7,139.1z"></path> <path class="st7" d="M49,179.3c2-0.3,5.6-5.7,7-11.3c2.8-10.8,4.4-18.8,5-22.3c0,0,0,0,0,0c0.2-1.3,0.3-1.9,0.3-1.9 s-3.9-1.3-3.9-0.8c0,0.4,0,0.9-0.3,1.4c-2,3.8-8,14.9-11,23.2c-0.2,0.5-0.8,0.8-1.3,0.7c-2.2,1.2-2.2,7.7-2.2,7.7l0.4,0.8 C44.8,179.5,47.6,179.5,49,179.3z"></path> <path class="st7" d="M57.5,143c0,0,0.3-2.1-0.7-3.9c-1.1-1.9-1.4-4.6-1.4-4.6s0.1-4.5,0.5-4.8c0.3-0.4,0.6,0.4,0.7,1.1 c0.1,0.6,0.1,3.2,0.2,3.8c0.1,0.7,0.6,1.7,0.6,1.7s-0.2-3.5-0.2-4.6s0-2.2,0.3-2.2c0.5,0.1,0.8,1.2,0.8,2.6 c0,1.4,0.7,4.3,0.7,4.3s-0.1-2.6,0-3.5c0.1-0.9,0.2-2.6,0.4-2.8c0.2-0.2,0.8,0.2,0.8,1s0.2,3.5,0.3,4.3c0.1,0.8,0.6,1.4,0.6,1.4 s-0.1-1.2-0.1-2.4c0-1.3,0.2-2.7,0.4-2.7c0.8,0,0.6,3.8,0.8,4.4c1,2.9-0.6,7.8-0.6,7.8s-2.3,2.2-2.6,2.3c-0.3,0.1-2,0.3-2,0.3 L57.5,143z"></path> </g> </g> <g> <g> <g class="st12"> <g> <g> <polyline class="st1" points="88.4,115.6 82.9,116.7 86.3,112.4 "></polyline> </g> <path class="st1" d="M84.2,108.7c0,4.9,4,8.8,8.8,8.8c4.9,0,8.8-4,8.8-8.8c0-4.9-4-8.8-8.8-8.8 C88.1,99.8,84.2,103.8,84.2,108.7z"></path> </g> </g> </g> <g> <path class="st8" d="M89.6,108.7c0,0.7-0.5,1.2-1.2,1.2c-0.7,0-1.2-0.5-1.2-1.2c0-0.7,0.5-1.2,1.2-1.2 C89.1,107.5,89.6,108,89.6,108.7z"></path> <circle class="st8" cx="93" cy="108.7" r="1.2"></circle> <circle class="st8" cx="97.6" cy="108.7" r="1.2"></circle> </g> </g> </g> <g> <g class="st12"> <g> <path class="st1" d="M5.5,170.4c0,0.8-0.7,1.5-1.5,1.5c-0.8,0-1.5-0.7-1.5-1.5c0-0.8,0.7-1.5,1.5-1.5 C4.8,168.9,5.5,169.5,5.5,170.4z"></path> <path class="st1" d="M150.7,48.7c0,0.8-0.7,1.5-1.5,1.5c-0.8,0-1.5-0.7-1.5-1.5c0-0.8,0.7-1.5,1.5-1.5 C150,47.2,150.7,47.8,150.7,48.7z"></path> <path class="st1" d="M210.1,3.6c0,0.8-0.7,1.5-1.5,1.5c-0.8,0-1.5-0.7-1.5-1.5c0-0.8,0.7-1.5,1.5-1.5 C209.4,2.1,210.1,2.7,210.1,3.6z"></path> <path class="st1" d="M347.4,129.2c0,0.8-0.7,1.5-1.5,1.5c-0.8,0-1.5-0.7-1.5-1.5c0-0.8,0.7-1.5,1.5-1.5 C346.7,127.6,347.4,128.3,347.4,129.2z"></path> </g> <g> <g> <g> <path class="st1" d="M24.3,97.8c-0.3,0-0.6-0.3-0.6-0.6V93c0-0.3,0.3-0.6,0.6-0.6c0.3,0,0.6,0.3,0.6,0.6v4.2 C24.9,97.5,24.6,97.8,24.3,97.8z"></path> </g> <g> <path class="st1" d="M26.4,95.7h-4.2c-0.3,0-0.6-0.3-0.6-0.6c0-0.3,0.3-0.6,0.6-0.6h4.2c0.3,0,0.6,0.3,0.6,0.6 C27,95.4,26.8,95.7,26.4,95.7z"></path> </g> </g> <g> <g> <path class="st1" d="M121.2,151.2c-0.3,0-0.6-0.3-0.6-0.6v-4.2c0-0.3,0.3-0.6,0.6-0.6c0.3,0,0.6,0.3,0.6,0.6v4.2 C121.8,150.9,121.6,151.2,121.2,151.2z"></path> </g> <g> <path class="st1" d="M123.3,149.1h-4.2c-0.3,0-0.6-0.3-0.6-0.6c0-0.3,0.3-0.6,0.6-0.6h4.2c0.3,0,0.6,0.3,0.6,0.6 C123.9,148.8,123.7,149.1,123.3,149.1z"></path> </g> </g> <g> <g> <path class="st1" d="M276.4,66.3c-0.3,0-0.6-0.3-0.6-0.6v-4.2c0-0.3,0.3-0.6,0.6-0.6c0.3,0,0.6,0.3,0.6,0.6v4.2 C277,66,276.7,66.3,276.4,66.3z"></path> </g> <g> <path class="st1" d="M278.5,64.2h-4.2c-0.3,0-0.6-0.3-0.6-0.6c0-0.3,0.3-0.6,0.6-0.6h4.2c0.3,0,0.6,0.3,0.6,0.6 C279.1,63.9,278.8,64.2,278.5,64.2z"></path> </g> </g> <g> <g> <path class="st1" d="M348.1,50.2c-0.3,0-0.6-0.3-0.6-0.6v-4.2c0-0.3,0.3-0.6,0.6-0.6c0.3,0,0.6,0.3,0.6,0.6v4.2 C348.7,50,348.5,50.2,348.1,50.2z"></path> </g> <g> <path class="st1" d="M350.2,48.1H346c-0.3,0-0.6-0.3-0.6-0.6c0-0.3,0.3-0.6,0.6-0.6h4.2c0.3,0,0.6,0.3,0.6,0.6 C350.8,47.8,350.6,48.1,350.2,48.1z"></path> </g> </g> <g> <g> <path class="st1" d="M332.3,198c-0.3,0-0.6-0.3-0.6-0.6v-4.2c0-0.3,0.3-0.6,0.6-0.6c0.3,0,0.6,0.3,0.6,0.6v4.2 C332.9,197.7,332.7,198,332.3,198z"></path> </g> <g> <path class="st1" d="M334.4,195.9h-4.2c-0.3,0-0.6-0.3-0.6-0.6c0-0.3,0.3-0.6,0.6-0.6h4.2c0.3,0,0.6,0.3,0.6,0.6 C335,195.6,334.8,195.9,334.4,195.9z"></path> </g> </g> <g> <g> <path class="st1" d="M248.2,94.3c-0.3,0-0.6-0.3-0.6-0.6v-4.2c0-0.3,0.3-0.6,0.6-0.6c0.3,0,0.6,0.3,0.6,0.6v4.2 C248.8,94,248.5,94.3,248.2,94.3z"></path> </g> <g> <path class="st1" d="M250.3,92.2h-4.2c-0.3,0-0.6-0.3-0.6-0.6c0-0.3,0.3-0.6,0.6-0.6h4.2c0.3,0,0.6,0.3,0.6,0.6 C250.9,91.9,250.7,92.2,250.3,92.2z"></path> </g> </g> </g> </g> <path class="st15" d="M114.6,36.7c-1.3,0-2.5,0.6-3.4,1.5l-3.6-2.5c0.2-0.4,0.3-0.8,0.3-1.2c0-1.7-1.4-3.1-3.1-3.1 c-1.7,0-3.1,1.4-3.1,3.1c0,1.7,1.4,3.1,3.1,3.1c0.8,0,1.6-0.3,2.1-0.9l3.6,2.5c-0.3,0.6-0.5,1.3-0.5,2.1c0,1.1,0.4,2.1,1,2.9 l-1.9,1.9c-0.5-0.3-1-0.5-1.7-0.5c-1.7,0-3.1,1.4-3.1,3.1c0,1.7,1.4,3.1,3.1,3.1c1.7,0,3.1-1.4,3.1-3.1c0-0.7-0.2-1.3-0.6-1.8 l1.9-1.9c0.8,0.6,1.7,0.9,2.7,0.9c2.5,0,4.6-2,4.6-4.6C119.2,38.7,117.1,36.7,114.6,36.7z"></path> </g> <g> <g> <g> <g> <path class="st16" d="M256.3,155.5c0,0-3.6,10.2-5.7,19.2c0,0-12.7-2.2-18-5.7l1.9,4.6l19.4,8.6l2.9-14.2l0-2.8L256.3,155.5z"></path> <g> <path class="st5" d="M206.3,209.9c0,1-0.2,2.4-0.3,3.2c-0.1,0.4-0.4,0.7-0.8,0.7l-12.1,0.1c-3.2,0-5-0.4-5.1-0.9 c-0.4-2.3,3.6-3.1,4.6-3.3c3.6-0.8,6.7-3.1,7.3-2.9c0,0,0.5,0.1,0.9,0.8c0.5,1,1.6,1.7,2.7,1.5c0.6-0.1,1.3-0.4,1.8-0.9 C205.3,208.1,206.3,208.4,206.3,209.9z"></path> </g> <path class="st11" d="M238.1,176.4c0.2-0.2,0.4-0.3,0.6-0.5c1.6-1.5,4.4-1.2,5.6-0.7c9.6,3.6,40.9,17.9,41.1,19.2 c0.3,2.6-1.5,6.2-3.5,9.2c-2.2,3.3-6.6,4.5-10.1,2.6c-8.8-4.7-24.5-11.3-31.4-15.3c-0.1,0.1-0.2,0.2-0.3,0.2 c-0.1,0-0.2,0.2-0.3,0.4c-1.7,1.9-3.8,3.4-6,4.6c-6.6,3.5-20.6,10.7-26.9,13.2c-0.1-0.2-0.3-0.7-0.4-0.9c-1.7-3.3-3-4.8-3-4.8 S229.8,182.1,238.1,176.4z"></path> <g> <path class="st7" d="M195.9,204.6c0,0-7.5,1.4-9.1,2.2c-1.3,0.6-0.4,4.8,0.4,5.2c0.8,0.3,9.6-1,9.6-1"></path> <path class="st5" d="M186.2,213.4c-1,0.2-2.5,0.4-3.3,0.4c-0.3,0-0.6-0.2-0.7-0.5l-1-4.5c0,0-0.4-1.9-0.7-3.2l-1-4.3 c-0.7-3.1-0.7-5-0.2-5.2c2.2-0.9,3.9,2.9,4.3,3.8c1.6,3.4,4.5,5.9,4.4,6.5c0,0,0,0.5-0.5,1c-0.8,0.8-1.3,1.9-0.8,2.9 c0.3,0.6,0.6,1.2,1.2,1.5C187.8,212.1,187.7,213.1,186.2,213.4z"></path> </g> <path class="st17" d="M192.9,205.2c0,0,34-9.3,42.3-11.1c0.2-0.1,1.3-0.2,2.5-0.4c0,0-5,2.8-5,8.6c0,4.3,5.4,4.8,7,5 c-3.6-0.2-5.5,0.3-9.9,1.6c-0.4,0.1-0.7,0.2-1,0.3c-0.1,0.1-0.3,0.1-0.4,0.2c-12.1,4.9-24.1,1.8-34.6,2.4 c-0.5-0.6-0.9-1.4-1.1-2.6C192.2,206,192.9,205.2,192.9,205.2z"></path> <path class="st17" d="M231.5,203.6c-0.2-7.3,6.1-9.9,6.1-9.9c2.5,0.1,47.1,4,47.8,5.4c1.1,2.4,0.5,6.3-0.4,9.8 c-1,3.9-6.8,6.1-10.8,6.2C259.1,215.1,231.6,207.9,231.5,203.6z"></path> <path class="st1" d="M258.8,181.7c0.1-2.4,0.1-5-0.3-7.8c-0.9-5.6-3.3-9.7-3.8-13.7c-0.3-2.5,0.7-10.6,1.2-12.2 c1.2-3.5,3.3-5.5,3.3-5.5c3.1-2,20.1,4.5,25.9,22.2c5.8,17.7,3.1,40.7,1.4,43.4c-1.7,2.7-8.7-3.1-14.5-6.2 c-5.8-3.1-12-2-13.5-7.2c0,0-1.7-5.1-1.2-10.3C257.6,183,258.2,182.2,258.8,181.7z"></path> <path class="st16" d="M226.8,165c0,0-0.7,0-0.8,0.5c-0.1,0.5,0.8,3.4,1.4,3.8c0.6,0.4,3.3,1.1,3.9,0.9c0.6-0.2,0-0.8,0-0.8 L226.8,165z"></path> <path class="st4" d="M268.1,153c0,0,3.5,7.4-0.7,20.3l-1,0c0,0-2.4,11.1-8.3,17l2-14.6L268.1,153z"></path> <path class="st6" d="M219,159.6l13.1,10.7c0.3,0.3,0.8,0.2,1.1-0.1l0,0c0.3-0.3,0.2-0.8-0.1-1.1l-13.1-10.7 c-0.3-0.3-0.8-0.2-1.1,0.1l0,0C218.6,158.9,218.7,159.4,219,159.6z"></path> <path class="st7" d="M226.7,169.7c0.1,0.2,0.4,0.5,0.7,0.9l0,0c0,0,0,0,0,0c1.4,1.3,4.2,3.1,4.2,3.1 c6.4,5.3,21.7,19.6,25.3,18.1c2.8-1.1,7.5-14.4,9.5-25.5c0.6-3.2,0.9-6.2,0.9-8.7c-0.1-8.8-4.6-9-4.6-9c-6-1.3-9.5,32-9.5,32 c-4.8-1.8-14.1-6.3-18-8.3c0,0-1.2-0.8-1.5-2c-0.3-1.2-1.9-3.1-2.7-4c-0.8-0.9-0.8,0.1-0.5,1c0.3,0.9,1.1,2,1.2,2.2 c0.1,0.2-0.7,0.4-1.7,0.2c-1.1-0.2-2.2-1-2.4-1.3c-0.1-0.2-1.1-3.1-1.6-3.1C225.4,165.4,226.4,168.8,226.7,169.7z"></path> <path class="st14" d="M227.5,170.6c1.4,1.3,4.2,3.1,4.2,3.1c6.4,5.3,21.7,19.6,25.3,18.1c2.8-1.1,7.5-14.4,9.5-25.5l-1-1 l-0.8,2.8c0,0-5.5,21.8-8.5,22.3c-3,0.4-24-17.2-25.2-17.8C229.8,171.9,227.7,170.7,227.5,170.6z"></path> <path class="st1" d="M267.4,170.1c0,0-10.5-2.1-13.2-3.9c0.6-5.1,2.9-17.8,8.6-18.2S271.1,159.5,267.4,170.1z"></path> </g> <g> <path class="st4" d="M257.5,151.7c-0.6,2.4-1.2,4.8-1.7,7.2c-0.3,1.2-0.5,2.4-0.8,3.6c-0.2,1.2-0.4,2.4-0.5,3.6l-0.1-0.3 c1.3,0.7,2.7,1.3,4.1,1.8c1.4,0.5,2.8,1,4.3,1.3c-1.5-0.2-3-0.5-4.4-1c-1.4-0.4-2.8-1-4.2-1.7l-0.2-0.1l0-0.2 c0.2-2.5,0.8-4.9,1.3-7.3C256,156.4,256.7,154.1,257.5,151.7z"></path> </g> <g> <g> <path class="st7" d="M263.1,142.5c-0.1,0.4-0.3,0.8-0.5,1.2c0,0,0,0,0,0c-1.7,3-6.6,4.3-6.6,4.3s0.4-1.5-1.6-4.3 c-2.3,1.8-4.7,3.1-6.4,2.8c-1.5-0.9-2.8-2-4.1-3.4c-0.6,0.3-1.8,0.8-2.3,0.2c-0.5-0.6-0.7-3.3-0.8-4.3c0,0,0-0.1-0.1-0.1 c-0.2-0.7-1.4-2.7-1.6-2.9c-1.9-1.6-1.6-3-1.6-3s2.7-6.8,3.1-7c0.4-0.2,9.3-4.7,9.6-4.6c0.4,0,6.7,4.2,9.1,10.1 c0.9,2.3,0.9,4.2,0.6,5.7l0,0C260,137.3,261.1,141.6,263.1,142.5z"></path> <path class="st14" d="M262.6,143.7c-1.7,3-6.6,4.3-6.6,4.3s0.4-1.5-1.6-4.3c0,0,1.7-2.2,2.1-4l1.5,6.4 C258.1,146.1,261.2,145.7,262.6,143.7z"></path> </g> <path class="st11" d="M237.6,133.1c3.5,1.3,10.8-2.7,12.3-2.1c1.5,0.6,2.6,3.8,3.2,3.8c0.7,0,0.3-1,0.1-2.2 c-0.2-0.8-0.2-2.7,1.6-2.9c2.9-0.2,1.9,3,2.9,5c1.8,3.4,2.3,2.6,2.3,2.6c2.6-6.5-0.4-20.1-9.8-18.3c0,0-2.8-1.7-6.1-0.8 c0,0,0,0-0.1,0c-5.5,1.6-5.5,5.8-6.9,6.7c-1.6,1.1-2.5-0.3-2.5-0.3C232.3,128.5,234.1,131.9,237.6,133.1z"></path> </g> </g> </g> <g> <path class="st18" d="M222.9,148.9H137c-0.8,0-1.4-0.6-1.4-1.4v-18c0-0.8,0.6-1.4,1.4-1.4h85.9c0.8,0,1.4,0.6,1.4,1.4v18 C224.3,148.3,223.6,148.9,222.9,148.9z"></path> <path class="st6" d="M220.5,146.6h-85.2c-1,0-1.8-0.8-1.8-1.8v-17.3c0-1,0.8-1.8,1.8-1.8h85.2c1,0,1.8,0.8,1.8,1.8v17.3 C222.3,145.8,221.5,146.6,220.5,146.6z"></path> <g> <path class="st8" d="M211.8,139.8h-67.6c-2,0-3.6-1.6-3.6-3.6l0,0c0-2,1.6-3.6,3.6-3.6h67.6c2,0,3.6,1.6,3.6,3.6l0,0 C215.3,138.2,213.7,139.8,211.8,139.8z"></path> <circle class="st8" cx="207.4" cy="136.2" r="7.9"></circle> <g> <path class="st6" d="M144.7,138.2c-0.2,0-0.4-0.2-0.4-0.4v-3.3c0-0.2,0.2-0.4,0.4-0.4c0.2,0,0.4,0.2,0.4,0.4v3.3 C145.1,138.1,144.9,138.2,144.7,138.2z"></path> </g> <path class="st6" d="M210.7,138.9l-1.5-1.3c0.4-0.5,0.6-1.1,0.6-1.8c0-1.6-1.3-2.9-2.9-2.9c-1.6,0-2.9,1.3-2.9,2.9 c0,1.6,1.3,2.9,2.9,2.9c0.7,0,1.3-0.2,1.8-0.6l1.5,1.3c0.1,0.1,0.2,0.1,0.2,0.1c0.1,0,0.2,0,0.3-0.1 C210.9,139.2,210.9,139,210.7,138.9z M206.9,138c-1.2,0-2.2-1-2.2-2.2s1-2.2,2.2-2.2s2.2,1,2.2,2.2S208.1,138,206.9,138z"></path> </g> <polyline class="st6" points="212.3,146 216.2,151.3 216.2,145.4 "></polyline> </g> </g> </svg> 