<?xml version="1.0" encoding="UTF-8"?> <!-- Generator: Adobe Illustrator 23.1.0, SVG Export Plug-In . SVG Version: 6.00 Build 0) --> <svg xmlns="http://www.w3.org/2000/svg" xmlns:xlink="http://www.w3.org/1999/xlink" id="Layer_1" x="0px" y="0px" viewBox="0 0 1216.6 909.5" style="enable-background:new 0 0 1216.6 909.5;" xml:space="preserve"> <style type="text/css"> .st0{fill:#113B84;} .st1{fill:#00BDC7;} .st2{fill:#CAF0FF;} .st3{fill:#00CECE;} .st4{fill:#ACE9FC;} .st5{fill:#F2F6FC;} .st6{fill:#FFFFFF;} .st7{fill:#41B792;} .st8{fill:#4AD6AE;} .st9{fill:#233C67;} .st10{opacity:0.5;fill:#4AD6AE;} .st11{fill:#FDC78B;} .st12{fill:#00A5F1;} .st13{fill:#3B639F;} .st14{fill:#F4B06C;} .st15{fill:#EFB77F;} </style> <g> <path class="st0" d="M38.3,543.4"></path> <g> <g> <g> <g> <g> <polygon class="st1" points="831,831.9 567.7,831.9 601.9,675.9 796.7,675.9 "></polygon> <g> <path class="st1" d="M1210.1,649.5H188.6V45.4c0-19.7,16-35.7,35.7-35.7h950.1c19.7,0,35.7,16,35.7,35.7V649.5z"></path> <g> <rect x="238.7" y="61.3" class="st2" width="921.2" height="550.4"></rect> </g> <path class="st3" d="M188.6,649.5v56.3c0,27.1,22,49.1,49.1,49.1h923.2c27.1,0,49.1-22,49.1-49.1v-56.3H188.6z"></path> </g> <path class="st3" d="M949.5,862H449.1l0,0c0-24.6,20-44.6,44.6-44.6H905C929.6,817.4,949.5,837.4,949.5,862L949.5,862z"></path> </g> <g> <rect x="238.7" y="61.3" class="st4" width="921.2" height="60"></rect> <circle class="st5" cx="294.3" cy="91.3" r="12.3"></circle> <circle class="st5" cx="355.2" cy="91.3" r="12.3"></circle> <circle class="st5" cx="416.1" cy="91.3" r="12.3"></circle> </g> </g> <path class="st6" d="M1113.3,578.8H718.6c-6.2,0-11.3-5.1-11.3-11.3V342.2c0-6.2,5.1-11.3,11.3-11.3h394.7 c6.2,0,11.3,5.1,11.3,11.3v225.4C1124.6,573.8,1119.5,578.8,1113.3,578.8z"></path> <g id="XMLID_67_"> <polygon id="XMLID_77_" class="st7" points="893,480.6 893,376.5 868,376.5 868,487 882.6,478.3 "></polygon> <polygon id="XMLID_76_" class="st7" points="868,506.7 868,561.8 893,561.8 893,498.8 884.5,496.8 "></polygon> <polygon id="XMLID_75_" class="st8" points="904.1,561.8 929.1,561.8 929.1,507 904.1,501.3 "></polygon> <polygon id="XMLID_74_" class="st8" points="929.1,424.2 904.1,424.2 904.1,483.2 929.1,488.9 "></polygon> <polygon id="XMLID_73_" class="st7" points="965.2,394.9 940.2,394.9 940.2,485.5 965.2,470.4 "></polygon> <polygon id="XMLID_72_" class="st7" points="940.2,561.8 965.2,561.8 965.2,490.1 940.2,505.2 "></polygon> <polygon id="XMLID_71_" class="st8" points="976.3,561.8 1001.4,561.8 1001.4,468.4 976.3,483.4 "></polygon> <polygon id="XMLID_70_" class="st8" points="1001.4,347.2 976.3,347.2 976.3,463.8 1001.4,448.7 "></polygon> <polygon id="XMLID_69_" class="st8" points="831.9,562.5 856.9,562.5 856.9,513.4 831.9,528.4 "></polygon> <polygon id="XMLID_68_" class="st8" points="856.9,459.2 831.9,459.2 831.9,508.7 856.9,493.7 "></polygon> <path class="st9" d="M794.7,529.4l85.3-51.1c1.2-0.7,2.7-1,4-0.6l46.2,10.5c1.4,0.3,2.8,0.1,4-0.6l84.1-50.6 c2.6-1.5,3.4-4.8,1.9-7.4l-3.1-5.3c-2.1-3.6,0.5-8.2,4.7-8.2h43.5c4.2,0,6.8,4.6,4.7,8.2l-21.7,37.6c-2.1,3.6-7.4,3.6-9.5,0 l-3.5-6c-1.5-2.6-4.9-3.5-7.6-2l-90.4,54.3c-1.2,0.7-2.7,1-4,0.6l-46.2-10.5c-1.4-0.3-2.8-0.1-4,0.6l-86.1,51.6 c-2.3,1.4-5.2-0.3-5.2-2.9l0-13.6C792.1,532.2,793.1,530.4,794.7,529.4z"></path> </g> <g> <path class="st6" d="M659.2,577.2H277.3c-6.6,0-12-5.4-12-12V164.4c0-6.6,5.4-12,12-12h382.6c6.2,0,11.3,5.1,11.3,11.3v401.6 C671.2,571.8,665.8,577.2,659.2,577.2z"></path> <g id="XMLID_59_"> <path id="XMLID_66_" class="st8" d="M468.2,233.4c2.7,0,5.3,0.2,7.8,0.4l4.2-38c-4-0.4-8-0.7-12.1-0.7 c-16.1,0-31.4,3.5-45.2,9.8l15.8,34.8C447.8,235.7,457.8,233.4,468.2,233.4z"></path> <path id="XMLID_65_" class="st7" d="M519.4,255.3l27.6-26.4c-17.2-18-40.6-30.1-66.7-32.9l-4.2,38 C493.1,235.7,508.2,243.6,519.4,255.3z"></path> <path id="XMLID_64_" class="st8" d="M577.4,304.4c0-29.3-11.6-56-30.4-75.6l-27.6,26.4c12.2,12.7,19.8,30.1,19.8,49.1 c0,1.2,0,2.3-0.1,3.5l38.1,1.9c0-0.5,0.1-1,0.1-1.5C577.4,307,577.4,305.7,577.4,304.4z"></path> <path id="XMLID_62_" class="st7" d="M539.1,308.3c-2,37.4-33,67-70.8,67c-8.6,0-16.8-1.5-24.4-4.3l-13.2,35.9 c11.7,4.3,24.4,6.6,37.6,6.6c58.5,0,106.2-46,109-103.8l-38.1-1.9C539.1,308,539.1,308.2,539.1,308.3z"></path> <path id="XMLID_60_" class="st7" d="M359.1,304.4c0,47.1,29.8,87.2,71.6,102.5l13.2-35.9c-27.2-10-46.5-36-46.5-66.6 c0-28.7,17-53.4,41.6-64.6L423,205C385.3,222.2,359.1,260.2,359.1,304.4z"></path> </g> <g> <path class="st8" d="M415,469.1h-92.5c-3.8,0-6.8-3.1-6.8-6.8l0,0c0-3.8,3.1-6.8,6.8-6.8H415c3.8,0,6.8,3.1,6.8,6.8l0,0 C421.9,466,418.8,469.1,415,469.1z"></path> <path class="st7" d="M453,490.5H322.5c-3.8,0-6.8-3.1-6.8-6.8l0,0c0-3.8,3.1-6.8,6.8-6.8H453c3.8,0,6.8,3.1,6.8,6.8l0,0 C459.9,487.5,456.8,490.5,453,490.5z"></path> <path class="st8" d="M502,512H322.5c-3.8,0-6.8-3.1-6.8-6.8l0,0c0-3.8,3.1-6.8,6.8-6.8H502c3.8,0,6.8,3.1,6.8,6.8l0,0 C508.8,509,505.8,512,502,512z"></path> <path class="st7" d="M575.8,533.5H322.5c-3.8,0-6.8-3.1-6.8-6.8l0,0c0-3.8,3.1-6.8,6.8-6.8h253.3c3.8,0,6.8,3.1,6.8,6.8l0,0 C582.7,530.4,579.6,533.5,575.8,533.5z"></path> <path class="st8" d="M616.4,553.9H322.5c-3.8,0-6.8-3.1-6.8-6.8l0,0c0-3.8,3.1-6.8,6.8-6.8h293.9c3.8,0,6.8,3.1,6.8,6.8l0,0 C623.2,550.8,620.2,553.9,616.4,553.9z"></path> </g> </g> <g> <g> <path class="st6" d="M1111.2,304.6H720.7c-7.4,0-13.4-6-13.4-13.4V166.4c0-7.4,6-13.4,13.4-13.4h392.6 c6.2,0,11.3,5.1,11.3,11.3v127C1124.6,298.6,1118.5,304.6,1111.2,304.6z"></path> </g> <path class="st10" d="M1079.7,281.8H752.2c0,0,36.9-62.1,69.8-52.4c32.9,9.7,29.2,51.5,70.9,39.9 c41.7-11.6,36.2-67.7,59.3-69.1c23.2-1.4,24.1,38.9,52.9,40.8c28.7,1.9,21.3-65,74.6-65V281.8z"></path> </g> </g> <g> <g> <path class="st11" d="M252.1,597.5c8.3,0.6,12.2-2,14.8-6.4c2.6-4.4,3.6-9.3-0.1-13.2c-1.8-2-5.1-3.6-7.6-4.7 c0.6-1.1,2.1-4.8-3.3-7.3c-11.6-5.4-17.8-2-20.3-3.5c-5.5-3.2-47-48.8-55.4-60.3c-0.2-0.5-0.4-0.9-0.5-1 c-1.8-1.6-18.7-41-32.1-65.7c-13.4-24.6-34.7-4.7-26,26.4c5.1,18.3,15.1,40.9,26.2,57.3l0,0c17.7,33.9,84.3,65.3,84.3,65.3 S243.9,596.9,252.1,597.5z"></path> <path class="st12" d="M174.4,459.4c0,0-5.7,19.2-3,25c2.7,5.7,5.7,12,5.7,12s-9.6,10-20.7,12c-11,2-15.2,0.2-15.2,0.2 s-18.4-22.2-18.5-35.2C122.6,460.2,164.5,442.7,174.4,459.4z"></path> </g> <g> <g> <rect x="278.3" y="361.5" transform="matrix(0.7278 0.6858 -0.6858 0.7278 355.5802 -84.624)" class="st9" width="12.2" height="88.2"></rect> <path class="st9" d="M450.5,316.7c-1.3-45-38.9-80.4-83.9-79.1c-45,1.3-80.4,38.9-79.1,83.9c1.3,45,38.9,80.4,83.9,79.1 C416.4,399.3,451.8,361.7,450.5,316.7z M304.1,321c-1.1-35.8,27.1-65.7,62.9-66.8c35.8-1.1,65.7,27.1,66.8,62.9 c1.1,35.8-27.1,65.7-62.9,66.8C335.1,385,305.2,356.9,304.1,321z"></path> <path class="st13" d="M240.6,457l-4.9-4.6c-3.6-3.4-3.7-9-0.4-12.6l33-35c3.4-3.6,9-3.7,12.6-0.4l4.9,4.6 c3.6,3.4,3.7,9,0.4,12.6l-33,35C249.8,460.2,244.2,460.4,240.6,457z"></path> </g> <path class="st9" d="M395.4,361.1c13.1-9.3,22.2-22.5,26.1-38.1c1.8-7.1-9.2-9.7-11-2.7c-3.2,12.7-10.5,23.6-21.2,31.2 C383.6,355.7,389.5,365.3,395.4,361.1z"></path> <path class="st9" d="M380.3,364.8c-0.2-7.3-11.5-6.9-11.3,0.3C369.3,372.4,380.5,372,380.3,364.8z"></path> </g> <path class="st13" d="M116.6,402c0,0-5.1,0.3-17.3-7.4c-12.1-7.7-18.8-17.4-19.6-27.6c-0.8-10.2,4.4-12.3,4.4-12.3 S80.6,344,91.9,333c12.6-12.3,44.2-22,59-0.8c16,22.9,0.1,40.4,0.1,40.4L116.6,402z"></path> <path class="st9" d="M212.7,703.9l-44.4-116.7H68.5c-5.9,43.2,44.2,79.6,68.9,108.8c21.8,25.8,26.3,36.7,27,38.9 c-2,8.8-3.5,21.3-2.4,38.2c2.6,39.4,12.3,111.5,12.3,111.5l22.5,0.6l25.3-136.1C224.5,732.7,212.7,703.9,212.7,703.9z"></path> <path class="st9" d="M174.3,884.5l2.3,21.6c6.5,2.1,51.2-6.7,52.7-8.4c1.5-1.7-32.5-12.6-32.5-12.6L174.3,884.5z"></path> <path class="st9" d="M146.7,731.9l23.7-150l-96-17c-31.7,37.5,4.8,84.3,11.4,122c5.8,33.3,4,44.9,3.5,47.2 c-6.2,6.5-13.8,16.5-21.4,31.7C50.3,801,22,868,22,868L41.1,880l90.8-104.5C142.2,762.7,146.7,731.9,146.7,731.9z"></path> <path class="st9" d="M22,868l-9,19.8c4.5,5.1,47.5,20.2,49.7,19.5c2.2-0.7-21.6-27.4-21.6-27.4L22,868z"></path> <path class="st8" d="M122.2,414c0,0-29.2-3.3-48,15.1C55.4,447.5,71,554.2,71,554.2l-11.8,35c0,0,26.2,10.7,55.7,12.9 c29.5,2.2,55.6-10,55.6-10s8.5-82.6,4.3-122.1c-2.9-26.6-13.3-36.3-20.4-43.2C142.2,415,122.2,414,122.2,414z"></path> <path class="st11" d="M115.1,395.7c0,0-9.2,18.2-8.9,19c0.3,0.8,4,6.2,13.3,7c11.8,1.1,20.1-2.8,20.1-2.8s-4.4-7-4.4-9.3 s4.4-11.1,4.4-11.1L115.1,395.7z"></path> <path class="st14" d="M135.3,409.7c0-2.4,4.4-11.1,4.4-11.1l-24.6-2.9c0,0-1.6,3.1-3.4,6.8c4.1,5.1,10.5,10.4,19.1,9.2 c1.7-0.2,3.2-0.7,4.6-1.2C135.3,410.2,135.3,409.9,135.3,409.7z"></path> <path class="st11" d="M145.2,351.3c0,0,4.3,2.9,5.7,20.3c1.5,17.3-2.9,33.5-18.9,35.7c-16,2.3-24.5-18.1-24.5-18.1 s-3.9,1.3-8.9-1.5s-4.7-9.6-3.6-12c1.1-2.4,5.3-4.7,9.3-2.1c4,2.5,4.8,7.7,6.3,10c1.5,2.3,2.1,2.8,2.1,1.2 c0-1.6-0.4-8.3,1.5-10.4c1.9-2.1,17.6-8.9,23.6-16.8C143.7,349.7,145.2,351.3,145.2,351.3z"></path> <g> <path class="st11" d="M89.8,432l15.9-3.5c25.7,11.3,46.7,26.3,49.1,26.4c0.1,0,0.2,0.1,0.4,0.1c5.6,0.8,68.9-11.9,74.8-15.2 c2.6-1.4,2.8-8.5,13.3-15.7c4.9-3.4,7.3-0.3,7.9,0.9c2.2-1.6,5.3-3.6,7.9-4.2c5.3-1.2,8.9,2.2,11.4,6.7c2.5,4.5,2.7,9.2-2,16 c-4.8,6.8-21.4,10.6-21.4,10.6s-52.5,33.7-78.1,38.3c-18.9,4.4-59.8-14.8-84.3-33C58.9,440.2,89.8,432,89.8,432z"></path> <path class="st8" d="M134.2,443.1c0,0-10.7,0.6-19.1,15.4c-6.7,11.8-2.8,18-2.8,18s-28-6.8-40-21.2 c-13.3-15.9,10.9-40.3,21.9-38.2C113.8,420.9,134.2,443.1,134.2,443.1z"></path> </g> </g> <g> <g> <path class="st11" d="M658.7,416.7c0,0-34.2,18.4-43.3,16.8l23.4-55.2c0,0,15.4-17.4,7.6-36.5c-2.4-5.8-28.2,3.1-31.8,13 c-3.6,9.9,2.8,14.1,0.4,25.8c-1.7,8.3-50.2,72.8-35,92.9c15.2,20.1,57.8,2.2,57.8,2.2L658.7,416.7z"></path> <path class="st8" d="M683.6,404.1c-30.2,6.2-50.5,19-65.2,24.2c0,0-25.5,70.3,38.9,61.6l13.7-55.1L683.6,404.1z"></path> <g> <polygon class="st11" points="676.4,865.3 675.8,879 654.1,884.5 652.4,862.4 "></polygon> <path class="st9" d="M646.2,593.2c0,0-12.7,93.7-9.5,158.6C640,817.5,649,869.2,649,869.2l29.6,1.3c0,0,14.1-199.8,22.4-236.7 c8.2-36.9,8.2-36.9,8.2-36.9L646.2,593.2z"></path> <path class="st9" d="M646.2,593.2c0,0,4.6,17,36.9,19.2l-3.4-19.2H646.2z"></path> </g> <polygon class="st11" points="733.3,867.8 735.2,882.9 756.9,878 755.8,862.6 "></polygon> <path id="XMLID_194_" class="st8" d="M646.2,593.2H763l10.5-125.6c0-38.5-31.2-69.7-69.7-69.7h0c-38.5,0-53.5,28.5-53.5,67 L646.2,593.2z"></path> <path id="XMLID_193_" class="st15" d="M687.1,410.3c0,13.8,33.4,13.8,33.4,0l-3.7-28.5h-26.1L687.1,410.3z"></path> <g id="XMLID_190_"> <path id="XMLID_192_" class="st11" d="M695.5,402.9l0.5,0.1c16.7,2.9,32.5-8.3,35.4-25l2.5-14.3c2.9-16.7-8.3-32.5-25-35.4 l-0.5-0.1c-16.7-2.9-32.5,8.3-35.4,25l-2.5,14.3C667.6,384.2,678.8,400,695.5,402.9z"></path> <path class="st13" d="M689.6,306.3c8.3,5.7,29.6,9.4,29.6,9.4l8.1,1.4c6,1,10.1,6.8,9,12.8l-0.4,2.1c6,1,10.1,6.8,9,12.8 l-7.6,44.3c-0.7,4.1-4.6,6.8-8.6,6.1c-4.9-0.8-7.6-6.2-5.4-10.7l6.7-13.7c1-6-1.8-11.9-7.1-14.9c-2.5-1.4-3.8-4.1-3.3-6.9 c0.6-3.6-1.8-7-5.4-7.7l-23.8-4.1h0c-6.1-1.1-21.9,4.5-22.8-12.4C666.6,307.9,681.3,300.6,689.6,306.3z"></path> <path id="XMLID_191_" class="st11" d="M724.3,369.4c-0.9,5.2,2.6,10.2,7.9,11.1c5.2,0.9,10.2-2.6,11.1-7.9s-2.6-10.2-7.9-11.1 C730.2,360.7,725.2,364.2,724.3,369.4z"></path> </g> <path class="st9" d="M763,593.2c1.9,1.6,2.2,38-9.8,138.3c0,0,1.8,62.2,4.8,136.6l-25.9,2.4c0,0-33-129.4-44.3-179.7 c-9.9-44.2-13.1-55.5-16.5-97.6H763z"></path> <polygon class="st1" points="581.9,415.2 581.9,506.1 634.9,522.3 634.9,420.7 "></polygon> <path class="st11" d="M613.3,460.5c15.2,11.5,16.8,10.3,19.3,3.5c2.5-6.8,7.8-0.7,6.8,7.1c-1,7.8-4,11.4,3.8,15.4 c56.2,29.2,102.3,17.9,102.3,17.9c8.4-1.4,10.9-8.9,10.9-8.9l31.9,13.8c-3.5,46.4-56.8,37.1-56.8,37.1s-40.6,1.5-97.8-49.6 c0,0-15.2-0.3-26.6-19.6C595.7,457.9,598.2,449,613.3,460.5z"></path> <path id="XMLID_184_" class="st8" d="M738.8,407.4c33.4,7.7,52.3,63.2,56.7,105.9c-32.5,5.4-52.8-9.6-52.8-9.6 C727.3,448.4,705.9,399.7,738.8,407.4z"></path> <path class="st11" d="M646.8,342.8c0,0-2.8-22.5-8.5-26.7c-5.7-4.2,2.8,22.3-0.5,24.3C634.5,342.3,646.8,342.8,646.8,342.8z"></path> </g> <path class="st9" d="M676.1,877.6l1.7,21.4c-6,3.4-51.5,3.7-53.3,2.3c-1.8-1.4,29.3-18.9,29.3-18.9L676.1,877.6z"></path> <path class="st9" d="M757.2,877.3l2.1,21.6c-6,3.4-51.5,3.7-53.3,2.3c-1.8-1.4,29.3-18.9,29.3-18.9L757.2,877.3z"></path> </g> </g> </g> </g> </svg> 