<?xml version="1.0" encoding="UTF-8"?> <!-- Generator: Adobe Illustrator 23.1.0, SVG Export Plug-In . SVG Version: 6.00 Build 0) --> <svg xmlns="http://www.w3.org/2000/svg" xmlns:xlink="http://www.w3.org/1999/xlink" id="Layer_1" x="0px" y="0px" viewBox="0 0 844.6 535.5" style="enable-background:new 0 0 844.6 535.5;" xml:space="preserve"> <style type="text/css"> .st0{fill:#41B792;} .st1{fill:#4AD6AE;} .st2{fill:#00BDC7;} .st3{fill:#DDDDDD;} .st4{fill:#00CECE;} .st5{fill:#FFFFFF;} .st6{fill:#3B639F;} .st7{fill:#E0935F;} .st8{fill:#F2B78B;} .st9{fill:#315D93;} .st10{fill:#233C67;} .st11{clip-path:url(#SVGID_2_);fill:#F2B78B;} .st12{fill:#4DA78B;} </style> <g> <g> <g> <g> <g> <g> <g> <g> <path class="st0" d="M807.1,214.6c-0.6-0.7-1.3-1.3-1.9-2c-54.9,53.8-92.3,123.2-106.5,199.2c0.8,0.1,1.5,0.3,2.3,0.4 C715.2,336.8,752.4,268,807.1,214.6z"></path> </g> <g> <path class="st0" d="M804.6,213.7c0,0.5-0.1,1-0.1,1.5c0.5,0,1-0.1,1.5-0.1c14.6-0.9,29.9-25.7,30.9-26.8 c0.7-1.1,1.5-2.3,2.3-3.4c-1.3,0.5-2.6,0.9-3.9,1.4C834,186.2,805.6,198.2,804.6,213.7z"></path> </g> <path class="st0" d="M706.4,383.3c-0.1,0.5-0.3,1-0.4,1.5c0.4,0.1,0.8,0.2,1.2,0.3c28.4,6.2,60.5-20.1,62.4-20.2 c0.8-0.6,1.6-1.1,2.5-1.7c-0.9-0.2-1.9-0.4-2.8-0.6C767.4,361.8,715.2,351.7,706.4,383.3z"></path> <path class="st0" d="M721.9,338c-0.2,0.5-0.4,1-0.6,1.4c0.4,0.2,0.8,0.3,1.1,0.5c24.8,9.2,56.1-10.5,57.8-10.5 c0.9-0.5,1.8-1,2.7-1.4c-0.9-0.3-1.8-0.6-2.8-0.9C778.5,326.1,733,311.6,721.9,338z"></path> <path class="st0" d="M742,296.9c-0.3,0.4-0.5,0.9-0.8,1.3c0.4,0.2,0.7,0.4,1.1,0.6c20.8,11,50.1-2.9,51.5-2.9 c1-0.4,1.9-0.8,2.9-1.2c-0.9-0.4-1.8-0.8-2.7-1.3C792.6,292.7,754.2,275.6,742,296.9z"></path> <path class="st0" d="M765.7,260.3c-0.3,0.4-0.6,0.8-0.9,1.3c0.4,0.3,0.7,0.5,1.1,0.8c16.8,11.6,42.8,2.5,44,2.6 c1-0.3,2-0.6,3-0.9c-0.9-0.5-1.8-1-2.6-1.6C809.2,261.5,777.9,243.6,765.7,260.3z"></path> <path class="st0" d="M789.4,231.1c-0.3,0.4-0.7,0.8-1,1.2c0.3,0.3,0.7,0.6,1,0.9c12.8,11,34.8,5.5,35.8,5.5 c1.1-0.2,2.1-0.5,3.2-0.7c-0.8-0.6-1.7-1.2-2.5-1.8C824.9,235.4,800.6,218.6,789.4,231.1z"></path> <path class="st0" d="M670.7,322.9c-0.8-0.6-1.6-1.1-2.4-1.7c0.1,1.3,0.2,2.5,0.3,3.8c-0.6,2.6,6.7,52.9,36.2,59.5 c0.4,0.1,0.8,0.2,1.2,0.3c0.1-0.5,0.3-1,0.4-1.5C714.9,354.1,672.7,324.7,670.7,322.9z"></path> <path class="st0" d="M695.8,281.2c-0.7-0.6-1.5-1.3-2.2-1.9c0,1.2-0.1,2.5-0.1,3.7c-0.7,2.2,1,46.3,26.6,55.9 c0.4,0.2,0.8,0.3,1.1,0.5c0.2-0.5,0.4-1,0.6-1.4C732.6,313.4,697.5,282.9,695.8,281.2z"></path> <path class="st0" d="M724.3,245.4c-0.7-0.7-1.4-1.5-2.1-2.2c-0.2,1.2-0.3,2.5-0.4,3.7c-0.7,1.8-3.1,39.4,18.4,50.7 c0.4,0.2,0.7,0.4,1.1,0.6c0.3-0.4,0.5-0.9,0.8-1.3C753.7,276.9,725.5,247,724.3,245.4z"></path> <path class="st0" d="M754.9,215.3c-0.6-0.8-1.3-1.6-1.9-2.4c-0.3,1.2-0.5,2.4-0.8,3.6c-0.6,1.4-5.7,32.4,11.5,44.2 c0.4,0.3,0.7,0.5,1.1,0.8c0.3-0.4,0.6-0.8,0.9-1.3C777.5,244.5,755.8,216.7,754.9,215.3z"></path> <path class="st0" d="M783.6,193.8c-0.6-0.9-1.2-1.7-1.7-2.6c-0.3,1.2-0.7,2.3-1,3.5c-0.5,1.1-6.6,25.5,6.5,36.6 c0.3,0.3,0.7,0.6,1,0.9c0.3-0.4,0.7-0.8,1-1.2C800.3,219.2,784.3,195,783.6,193.8z"></path> </g> <g> <path class="st1" d="M744.9,181.2c-0.4-0.2-0.7-0.5-1.1-0.7c-29,41.9-44,92-42.3,143.1c0.4,0,0.7,0,1.1,0 C701.1,272.7,716,222.8,744.9,181.2z"></path> <path class="st1" d="M757.2,164.1c-3.2-2.8-14.5,6.9-13.6,17.9C753.9,178.9,760.3,166.8,757.2,164.1z"></path> <path class="st1" d="M737.6,191.2c8.4,6.6,22.1,3.1,22.2-1C759.9,185.9,746,182.7,737.6,191.2z"></path> <path class="st1" d="M727.8,208.7c10.5,6.9,26.2,1.5,26-3.3C753.6,200.3,736.8,197.6,727.8,208.7z"></path> <path class="st1" d="M702.1,307.8c13.4,2,26.5-11.6,24.3-16.6C724.2,285.8,706.1,290.9,702.1,307.8z"></path> <path class="st1" d="M718.1,230.2c13.1,6.8,30.9-1.2,30.2-6.7C747.7,217.5,727.6,215.8,718.1,230.2z"></path> <path class="st1" d="M704.4,282.2c15,3.9,31.5-9.2,29.7-14.9C732.2,261.1,710.9,264.2,704.4,282.2z"></path> <path class="st1" d="M710,254.9c15.4,5.9,34.3-5.2,33-11.3C741.7,237,719,237.2,710,254.9z"></path> <path class="st1" d="M730.3,169.7c-4.5,2.1-2.7,17.2,7.3,21.5C741.5,180.3,734.7,167.8,730.3,169.7z"></path> <path class="st1" d="M717.4,183.7c-5.2,3-1.8,21,10.4,25C731.3,195.3,722.5,181,717.4,183.7z"></path> <path class="st1" d="M680.8,285.6c-3.9,6,7.6,24.1,21.3,22.2C699.6,291.4,684.7,280,680.8,285.6z"></path> <path class="st1" d="M703.4,201.5c-5.9,4.3,0,25.5,14.7,28.7C720.8,213.9,709.2,197.6,703.4,201.5z"></path> <path class="st1" d="M682.9,254.8c-5.2,6.2,5.7,27.9,21.6,27.4C703.5,263.9,688,249.1,682.9,254.8z"></path> <path class="st1" d="M690.5,223.9c-6.2,5.7,2.7,29.4,19.5,31C711.2,236,696.6,218.7,690.5,223.9z"></path> </g> <path class="st1" d="M788.4,398.6c7.1-21.5-10.5-20.3,12-34.7c33.2-19.4,37.4-35.6,27.4-49.3c-9.4-13.2-30.8-13.9-54.2,22.4 c-15.1,25.2-13.7,5.7-36.3,18.6c-20.1,12-27.3,53.1-43.7,64.9c-42.9,32.4-20.3,86.2-3.5,89.6c16.9,3.6,60.3-13.7,60.3-57.1 C750.4,433.6,782.6,416.6,788.4,398.6z"></path> <path class="st0" d="M829.6,338.6c0.6-1.1,1.1-2.2,1.5-3.3c-7.8-0.8-15.8-1.4-23.7-1.7c6.9-6.1,14-11.9,21.4-17.5 c-0.3-0.5-0.7-1-1-1.4c-0.4-0.5-0.7-0.9-1.1-1.3c-7.4,5.7-14.6,11.6-21.5,17.7c0.8-8,1.8-16.1,3-24.2c-1.2,0.2-2.5,0.6-3.8,1 c-1.3,9-2.3,17.9-3.1,26.7c-21,19.1-39.9,40.2-56.3,63c-1.5-14.4-2.3-29.3-2.4-44.7c-1.1,0.5-2.3,1-3.5,1.7 c0.2,16.2,1.2,32,2.9,47.2c-16.6,23.8-30.6,49.3-41.8,76.1c-5.2-16.5-9.6-34-13-52.2c-1,1-2,1.9-2.9,2.9 c3.7,18.9,8.5,37,14,54c-3.2,8.1-6.2,16.3-8.9,24.5c-0.3,0.8-0.5,1.6-0.8,2.4c-4.7,14.6-1.8,15.4,2.9,0.9 c0.3-0.8,0.5-1.6,0.8-2.4c2.7-8.2,5.7-16.3,8.9-24.3c15.7-8.2,31.9-15,48.3-20.1c0.2-1.1,0.4-2.3,0.5-3.5 c-15.9,4.9-31.5,11.2-46.8,18.9c11.1-26.6,25.1-51.9,41.6-75.4c14.7-3.3,29.5-5.6,44.2-6.7c0.3-1.2,0.6-2.3,0.8-3.4 c-14,1-28,3-42,5.9c16.3-22.6,35-43.6,55.9-62.4C812.4,337.2,821,337.7,829.6,338.6z"></path> </g> <g> <path class="st0" d="M34.8,221.9c0.6-0.5,1.2-0.9,1.8-1.4c55.3,70.4,86.8,156.8,89.2,246.7c-0.7,0-1.3,0-2,0.1 C121.3,377.8,89.9,291.9,34.8,221.9z"></path> <path class="st0" d="M11.5,193.1c5.4-5.3,26.3,10.7,25.7,30C18.8,218.7,6.3,198.2,11.5,193.1z"></path> <path class="st0" d="M48.7,238.7c-14.1,12.4-38.4,7.7-39,0.5C8.9,231.6,33.1,224.5,48.7,238.7z"></path> <path class="st0" d="M67.8,268.3c-17.8,13.1-45.8,5.4-46-3.1C21.6,256.3,50.7,249.8,67.8,268.3z"></path> <path class="st0" d="M123.1,439.6c-23.3,5-47.8-17.6-44.4-26.6C82.2,403.2,114.5,410.4,123.1,439.6z"></path> <path class="st0" d="M87,305.1c-22.3,13.3-54.4,1.1-53.7-8.7C33.7,285.8,68.8,280.8,87,305.1z"></path> <path class="st0" d="M116.4,395c-25.9,8.4-56.3-12.8-53.6-23C65.5,360.8,103.2,364,116.4,395z"></path> <path class="st0" d="M103.7,347.6c-26.3,12-60.8-5.5-59.1-16.4C46.2,319.4,86.2,317.5,103.7,347.6z"></path> <path class="st0" d="M59.3,200.2c8.1,3.3,6.5,29.9-10.6,38.5C40.8,219.9,51.3,197.2,59.3,200.2z"></path> <path class="st0" d="M83.4,223.4c9.5,4.8,5.3,36.6-15.6,44.9C60.2,245.2,74.2,219.1,83.4,223.4z"></path> <path class="st0" d="M158.3,398.4c7.5,10.1-10.8,43.1-35.2,41.2C125.8,410.5,150.8,389,158.3,398.4z"></path> <path class="st0" d="M109.8,253.2c10.8,6.9,2.7,44.8-22.8,51.9C80.5,276.7,99.2,246.9,109.8,253.2z"></path> <path class="st0" d="M151.4,344.6c9.8,10.3-7.1,49.5-35,50.4C116.1,362.7,141.7,335.2,151.4,344.6z"></path> <path class="st0" d="M134.8,291.1c11.6,9.4-1.7,52-31,56.5C99.7,314.5,123.5,282.7,134.8,291.1z"></path> </g> <g> <g> <rect x="85.8" y="337.5" transform="matrix(0.8303 -0.5573 0.5573 0.8303 -224.5588 121.4107)" class="st1" width="2.5" height="183.9"></rect> </g> <g> <g> <path class="st1" d="M16.4,324.1l0.8,3.2c0.2,1,5.9,24.5,18.5,27l1.2,0.2l0.2-1.2c2.5-12.6-17.2-26.7-18-27.3L16.4,324.1z"></path> </g> </g> <path class="st1" d="M125.2,486.2l0.7,1l1-0.7c25.7-17.3,25.6-56.1,25.6-57.8l0-2.8l-2.1,1.9 C148.8,429.4,111.1,465.2,125.2,486.2z"></path> <path class="st1" d="M103.7,454.2l0.7,1l1-0.7c22.6-15.2,22.5-49.3,22.5-50.7l0-2.8l-2.1,1.9 C124.4,404.3,91.3,435.7,103.7,454.2z"></path> <path class="st1" d="M83.1,423.6l0.7,1l1-0.7c19.4-13,19.3-42.4,19.3-43.6l0-2.8l-2.1,1.9C100.9,380.5,72.4,407.5,83.1,423.6z "></path> <path class="st1" d="M63.5,394.3l0.7,1l1-0.7c16.3-10.9,16.2-35.5,16.2-36.5l0-2.8l-2.1,1.9C78.3,358.2,54.4,380.8,63.5,394.3 z"></path> <path class="st1" d="M46.6,369.2l0.7,1l1-0.7c13.1-8.8,13.1-28.6,13.1-29.4l0-2.8l-2.1,1.9C58.5,340,39.3,358.2,46.6,369.2z"></path> <path class="st1" d="M61.6,487.5l-2.6,1.2l2.6,1.1c1.5,0.6,37.5,15.5,63.2-1.8l1-0.7l-0.7-1C111,465.2,63.6,486.5,61.6,487.5z "></path> <path class="st1" d="M47.9,455.2l-2.6,1.2l2.6,1.1c1.3,0.6,32.8,13.6,55.4-1.6l1-0.7l-0.7-1C91.2,435.7,49.7,454.4,47.9,455.2 z"></path> <path class="st1" d="M35.1,424.4l-2.6,1.2l2.6,1.1c1.1,0.5,28.2,11.7,47.7-1.4l1-0.7l-0.7-1C72.4,407.5,36.6,423.7,35.1,424.4 z"></path> <path class="st1" d="M23.2,394.9l-2.6,1.2l2.6,1.1c1,0.4,23.6,9.8,39.9-1.2l1-0.7l-0.7-1C54.4,380.8,24.5,394.3,23.2,394.9z"></path> <path class="st1" d="M14.1,369.6l-2.6,1.2l2.6,1.1c0.8,0.3,19,7.9,32.2-1l1-0.7l-0.7-1C39.3,358.2,15.1,369.1,14.1,369.6z"></path> </g> <path class="st2" d="M692.7,508.1H132.9c-3.4,0-6.6-1.4-8.8-3.7c-2.3-2.3-3.7-5.4-3.7-8.8v-355c0-3.5,1.5-6.7,3.8-9 c2.2-2.2,5.3-3.5,8.6-3.5h559.8c3.2,0,6.1,1.2,8.3,3.2c2.6,2.3,4.2,5.6,4.2,9.3v355c0,3.4-1.4,6.6-3.7,8.8 C699.3,506.7,696.1,508.1,692.7,508.1z"></path> <path class="st3" d="M671.2,478H154.4c-1.2,0-2.2-0.5-2.9-1.3c-0.6-0.7-0.9-1.5-0.9-2.5v-312c0-1,0.4-2,1.1-2.7 c0.7-0.7,1.6-1.1,2.7-1.1h516.8c1,0,2,0.4,2.7,1.1c0.7,0.7,1.1,1.6,1.1,2.7v312c0,1-0.4,2-1.1,2.7 C673.3,477.5,672.3,478,671.2,478z"></path> <g> <path class="st3" d="M671.2,158.4H154.4c-1,0-2,0.4-2.7,1.1c-0.7,0.7-1.1,1.6-1.1,2.7v312c0,0.9,0.3,1.8,0.9,2.5l0,0 c0,0.1,0.1,0.1,0.2,0.2l522.2-317.4C673.2,158.8,672.3,158.4,671.2,158.4z"></path> </g> <g> <g> <path class="st4" d="M240,7.5h-18.9c-18.9,0-34.2,14.8-34.2,33v87.7h77.4V40.5L240,7.5z"></path> <path class="st5" d="M545.2,7.5H221.1c18.9,0,34.2,14.8,34.2,33V478h324.1V40.5h0C579.4,22.3,564.1,7.5,545.2,7.5z"></path> <g> <rect x="443.7" y="103.4" class="st1" width="75.7" height="5.3"></rect> </g> <g> <g> <g> <path class="st1" d="M325.6,131.9h-33.9c-1.5,0-2.6-1.2-2.6-2.6V95.8c0-1.4,1.2-2.6,2.6-2.6h33.9c1.5,0,2.6,1.2,2.6,2.6 v33.6C328.2,130.7,327,131.9,325.6,131.9z M294.3,126.7h28.6V98.4h-28.6V126.7z"></path> </g> <g> <path class="st6" d="M308.6,122.3c-0.9,0-1.8-0.5-2.3-1.3c-6.7-11.8-22.2-19.5-22.3-19.5c-1.3-0.6-1.8-2.2-1.2-3.5 c0.6-1.3,2.2-1.8,3.5-1.2c0.6,0.3,13.8,6.8,22,17.7c10.2-18.8,28.4-34.1,41.4-39.5c1.3-0.6,2.9,0.1,3.4,1.4 c0.6,1.3-0.1,2.9-1.4,3.4c-13,5.4-31.7,21.6-40.7,41c-0.4,0.9-1.3,1.5-2.3,1.5C308.6,122.3,308.6,122.3,308.6,122.3z"></path> </g> </g> <g> <g> <g> <rect x="354.2" y="90.4" class="st1" width="195.3" height="5.3"></rect> </g> <g> <rect x="354.2" y="103.4" class="st1" width="64.5" height="5.3"></rect> </g> <g> <rect x="354.2" y="116.4" class="st1" width="107.9" height="5.3"></rect> </g> <g> <rect x="475.5" y="116.4" class="st1" width="74.1" height="5.3"></rect> </g> <g> <rect x="354.2" y="129.3" class="st1" width="46.8" height="5.3"></rect> </g> <g> <rect x="430.1" y="129.3" class="st1" width="119.4" height="5.3"></rect> </g> </g> </g> </g> <g> <g> <g> <path class="st1" d="M325.6,210.8h-33.9c-1.5,0-2.6-1.2-2.6-2.6v-33.6c0-1.4,1.2-2.6,2.6-2.6h33.9c1.5,0,2.6,1.2,2.6,2.6 v33.6C328.2,209.6,327,210.8,325.6,210.8z M294.3,205.5h28.6v-28.3h-28.6V205.5z"></path> </g> <g> <path class="st6" d="M308.6,201.2c-0.9,0-1.8-0.5-2.3-1.3c-6.7-11.8-22.2-19.5-22.3-19.5c-1.3-0.6-1.8-2.2-1.2-3.5 c0.6-1.3,2.2-1.8,3.5-1.2c0.6,0.3,13.8,6.8,22,17.7c10.2-18.8,28.4-34.1,41.4-39.5c1.3-0.6,2.9,0.1,3.4,1.4 c0.6,1.3-0.1,2.9-1.4,3.4c-13,5.4-31.7,21.6-40.7,41c-0.4,0.9-1.3,1.5-2.3,1.5C308.6,201.2,308.6,201.2,308.6,201.2z"></path> </g> </g> <g> <g> <rect x="354.2" y="208.2" transform="matrix(-1 -1.224647e-16 1.224647e-16 -1 848.4061 421.6363)" class="st1" width="140" height="5.3"></rect> </g> <g> <rect x="451.9" y="195.2" transform="matrix(-1 -1.224647e-16 1.224647e-16 -1 968.1619 395.7091)" class="st1" width="64.5" height="5.3"></rect> </g> <g> <rect x="354.2" y="195.2" transform="matrix(-1 -1.224647e-16 1.224647e-16 -1 784.0632 395.7091)" class="st1" width="75.7" height="5.3"></rect> </g> <g> <rect x="441.6" y="182.2" transform="matrix(-1 -1.224647e-16 1.224647e-16 -1 991.1215 369.7819)" class="st1" width="107.9" height="5.3"></rect> </g> <g> <rect x="354.2" y="182.2" transform="matrix(-1 -1.224647e-16 1.224647e-16 -1 782.4166 369.7819)" class="st1" width="74.1" height="5.3"></rect> </g> <g> <rect x="502.8" y="169.3" transform="matrix(-1 -1.224647e-16 1.224647e-16 -1 1052.2837 343.8549)" class="st1" width="46.8" height="5.3"></rect> </g> <g> <rect x="354.2" y="169.3" transform="matrix(-1 -1.224647e-16 1.224647e-16 -1 827.7709 343.8549)" class="st1" width="119.4" height="5.3"></rect> </g> </g> </g> <g> <g> <g> <g> <g> <g> <path class="st1" d="M325.6,289.6h-33.9c-1.5,0-2.6-1.2-2.6-2.6v-33.6c0-1.4,1.2-2.6,2.6-2.6h33.9 c1.5,0,2.6,1.2,2.6,2.6V287C328.2,288.4,327,289.6,325.6,289.6z M294.3,284.4h28.6V256h-28.6V284.4z"></path> </g> </g> </g> </g> <g> <path class="st6" d="M308.6,280c-0.9,0-1.8-0.5-2.3-1.3c-6.7-11.8-22.2-19.5-22.3-19.5c-1.3-0.6-1.8-2.2-1.2-3.5 c0.6-1.3,2.2-1.8,3.5-1.2c0.6,0.3,13.8,6.8,22,17.7c10.2-18.8,28.4-34.1,41.4-39.5c1.3-0.6,2.9,0.1,3.4,1.4 c0.6,1.3-0.1,2.9-1.4,3.4c-13,5.4-31.7,21.6-40.7,41c-0.4,0.9-1.3,1.5-2.3,1.5C308.6,280,308.6,280,308.6,280z"></path> </g> </g> <g> <g> <g> <rect x="354.2" y="248.1" class="st1" width="195.3" height="5.3"></rect> </g> <g> <rect x="453.4" y="261.1" class="st1" width="64.5" height="5.3"></rect> </g> <g> <rect x="354.2" y="261.1" class="st1" width="75.7" height="5.3"></rect> </g> <g> <rect x="441.6" y="274.1" class="st1" width="107.9" height="5.3"></rect> </g> <g> <rect x="354.2" y="274.1" class="st1" width="74.1" height="5.3"></rect> </g> <g> <rect x="502.8" y="287" class="st1" width="46.8" height="5.3"></rect> </g> <g> <rect x="354.2" y="287" class="st1" width="119.4" height="5.3"></rect> </g> </g> </g> </g> <g> <g> <g> <g> <g> <g> <path class="st1" d="M325.6,368.4h-33.9c-1.5,0-2.6-1.2-2.6-2.6v-33.6c0-1.4,1.2-2.6,2.6-2.6h33.9 c1.5,0,2.6,1.2,2.6,2.6v33.6C328.2,367.3,327,368.4,325.6,368.4z M294.3,363.2h28.6v-28.3h-28.6V363.2z"></path> </g> </g> </g> </g> <g> <path class="st6" d="M308.6,358.8c-0.9,0-1.8-0.5-2.3-1.3c-6.7-11.8-22.2-19.5-22.3-19.5c-1.3-0.6-1.8-2.2-1.2-3.5 c0.6-1.3,2.2-1.8,3.5-1.2c0.6,0.3,13.8,6.8,22,17.7c10.2-18.8,28.4-34.1,41.4-39.5c1.3-0.6,2.9,0.1,3.4,1.4 c0.6,1.3-0.1,2.9-1.4,3.4c-13,5.4-31.7,21.6-40.7,41c-0.4,0.9-1.3,1.5-2.3,1.5C308.6,358.8,308.6,358.8,308.6,358.8z"></path> </g> </g> <g> <g> <g> <rect x="354.2" y="365.9" class="st1" width="195.3" height="5.3"></rect> </g> <g> <rect x="354.2" y="352.9" class="st1" width="64.5" height="5.3"></rect> </g> <g> <rect x="443.7" y="352.9" class="st1" width="75.7" height="5.3"></rect> </g> <g> <rect x="354.2" y="339.9" class="st1" width="107.9" height="5.3"></rect> </g> <g> <rect x="475.5" y="339.9" class="st1" width="74.1" height="5.3"></rect> </g> <g> <rect x="354.2" y="327" class="st1" width="46.8" height="5.3"></rect> </g> <g> <rect x="418.6" y="327" class="st1" width="119.4" height="5.3"></rect> </g> </g> </g> </g> <g> <g> <g> <g> <path class="st1" d="M325.6,447.3h-33.9c-1.5,0-2.6-1.2-2.6-2.6v-33.6c0-1.4,1.2-2.6,2.6-2.6h33.9c1.5,0,2.6,1.2,2.6,2.6 v33.6C328.2,446.1,327,447.3,325.6,447.3z M294.3,442.1h28.6v-28.3h-28.6V442.1z"></path> </g> </g> </g> <g> <g> <g> <rect x="354.2" y="405.8" class="st1" width="195.3" height="5.3"></rect> </g> <g> <rect x="354.2" y="418.8" class="st1" width="64.5" height="5.3"></rect> </g> <g> <rect x="449.9" y="418.8" class="st1" width="75.7" height="5.3"></rect> </g> <g> <rect x="354.2" y="431.7" class="st1" width="107.9" height="5.3"></rect> </g> <g> <rect x="475.5" y="431.7" class="st1" width="74.1" height="5.3"></rect> </g> <g> <rect x="354.2" y="444.7" class="st1" width="46.8" height="5.3"></rect> </g> <g> <rect x="420.2" y="444.7" class="st1" width="90.2" height="5.3"></rect> </g> </g> </g> </g> </g> </g> </g> <path class="st4" d="M714.7,508.1H111H73.4c0,10.4,8.4,18.8,18.8,18.8h641.3c10.4,0,18.8-8.4,18.8-18.8H714.7z"></path> </g> </g> <g> <path class="st6" d="M425.4,232.3c0-6.9,8.9-10.3,16-7.5c14.2,5.5,5.9,35.2,11.1,38.7c5.1,3.5,5,15.8,0,18 c-5,2.3-29.3-1.4-29.3-2.7c0-1.3,3.2-8.5,4.3-16.1C428.8,255.2,425.4,232.3,425.4,232.3z"></path> <g> <g> <path class="st7" d="M441.9,246.4c1.1,7.8,5.9,11.8,5.9,11.8s0,4.6-5.8,7.3c-5.8,2.7-8.8-1.5-8.8-1.5l-1.9-9.9 C431.4,254,435.9,246.9,441.9,246.4z"></path> <path class="st8" d="M437.3,231c0.1,7.7,1,13.7,1,13.7l1.7-0.7c0,0,0.7-4.2,0.8-4.3c0.7-0.8,3.3-3.1,5.5-0.9 c2.3,2.4,0.9,6.4-2.9,7.8c-6.2,9.8-16.3,9.1-17.7,6.7c-3.7-6.4-1.5-16.3-0.2-20.9C428.9,228.9,434.4,232.8,437.3,231z"></path> </g> <path class="st8" d="M380.2,347.1c-2.1,1.1-7.1,1.2-6.8-0.7c0.2-1.2,4.5-1.6,7.4-3.3c2.2-1.3,6-0.8,6-0.8l12.9-12.5l5.2,5.9 l-13.7,11.5c0,0-1.9,5.4-5.6,8.6c-4.3,3.8-9.4,5.9-12.6,2.2C369.9,354.4,378.3,350.4,380.2,347.1z"></path> <g> <path class="st1" d="M415.9,305.3c5.3-17.1,15.4-37.1,23.5-33.3c9.7,4.5-0.8,26.8-9,40.1c-11.4,18.4-36.2,34.5-36.2,34.5 l-7.2-6.7C387,339.8,411.8,318.6,415.9,305.3z"></path> </g> <g> <g> <g> <path class="st8" d="M374.2,265c0,0,6-21.8,10.2-35.9l6.8,0.3c2.8,14.5,6.6,36.8,6.6,36.8l-11.8-0.6v0l0,0L374.2,265z"></path> <polygon class="st9" points="380.3,261.4 392.3,262 397.9,266.2 386.3,504.6 362.6,503.5 374.2,265 "></polygon> <rect x="261.1" y="375" transform="matrix(4.870766e-02 -0.9988 0.9988 4.870766e-02 -18.6115 742.4282)" class="st6" width="238.8" height="12"></rect> <path class="st6" d="M388.4,217.1c0.3,0,1.5,5.2,2.8,12.2c0,0-0.7,1-3.5,0.9c-2.8-0.1-3.4-1.2-3.4-1.2 C386.5,222.2,388.1,217.1,388.4,217.1z"></path> </g> </g> <polygon class="st8" points="368.6,499.9 380.6,500.5 386.3,504.6 380.3,508.1 368.3,507.5 362.6,503.5 "></polygon> <path class="st6" d="M371,503.9c0,0.5,1.5,1,3.4,1.1c1.9,0.1,3.4-0.2,3.5-0.8c0-0.5-1.5-1-3.4-1.1 C372.6,503,371.1,503.4,371,503.9z"></path> </g> <path class="st1" d="M415.5,286.5c2.2-10.1,17.7-22.5,17.7-22.5s6.4,1.1,14.6-5.8c9.4,8.3,13.5,17.5,8,46.7 c-2.8,14.7-9.9,34.3-2.3,48c0,0-30.7,0-35.4,0c0-1.3,3.8-40.6,2.4-44.9C417.9,298.9,413.8,294.4,415.5,286.5z"></path> <g> <path class="st0" d="M455.6,306.1c-0.7-0.9-1.4-1.8-2.1-2.8c-2.6-3.4-5.5-7.3-7.8-11.2c-0.3-0.5-0.1-1.1,0.3-1.4 c0.5-0.3,1.1-0.1,1.4,0.3c2.3,3.8,5.2,7.6,7.7,11c0.3,0.5,0.7,0.9,1,1.3c-0.1,0.5-0.2,1-0.3,1.4 C455.8,305.2,455.7,305.7,455.6,306.1z"></path> <path class="st1" d="M450.3,346.7c0.2-0.4,0.4-0.7,0.6-1.1c0.2,1,0.5,2,0.8,3l-1.9-1.1L450.3,346.7z"></path> <path class="st0" d="M451.6,272c0.2-0.5,0.7-0.8,1.3-0.6c1.5,0.5,3,1.4,4.6,2.5c0.2,1,0.4,2,0.5,3c-2-1.8-3.9-3.1-5.7-3.7 C451.7,273.1,451.4,272.5,451.6,272z"></path> </g> <g> <g> <g> <path class="st8" d="M404.4,498c1.3-1.9,0.7-5.1,0.7-5.1l8.1-0.8l0,4.5l-3.9,5.5l-7.3,2.9l-4.1-2.2 C397.9,502.9,403.2,500,404.4,498z"></path> </g> <path class="st10" d="M397.9,502.9c3.8,0.4,7-0.4,9.4-1.6c3.9-1.9,6-4.6,6-4.6s1.4,1.7,1.7,5.5c0.1,1.2,0.2,2.8-0.2,4.3 c-1.1,0.1-2.4,0.2-2.4,0.2s-0.2-1.6-0.3-3.1c-3.2,1.2-7.3,3.9-11.9,4.4C389.4,509,389.4,505.5,397.9,502.9z"></path> </g> </g> <g> <g> <path class="st10" d="M418.2,352.9c0,0,20.6,0,30.9,0c-2.1,28.7-16.9,52.9-26.8,79.3c-3.3,19.4-5.1,40.1-6.8,59.7l-12.5,1.4 c-2-23.9-2.8-50.5,0.9-73.8C407.7,396.1,412.6,375.4,418.2,352.9z"></path> </g> </g> <g> <path class="st10" d="M447.4,432.5c0.9,11.7-1.6,61.3-1.6,61.3h-12.6c0,0-5.9-56.8-7-70.5c-1.1-13.7-3.3-62.6-3.3-70.5 c0,0,13.8,0,30.6,0C469,378.9,449,403.2,447.4,432.5z"></path> </g> <g> <path class="st8" d="M445.7,351.9c1.7-1.8,5.6-2.4,5.6-2.4l3.4-5.9l5.6-9.7l6.6,4.3l-4,5.9l-6.1,8.9c0,0-0.4,5.7-3,9.8 c-3.1,4.8-7.5,8.2-11.6,5.5c-3.9-2.5,3-8.7,4-12.3c-1.7,1.7-6.5,3-6.7,1.1C439.4,355.9,443.4,354.3,445.7,351.9z"></path> </g> <g> <g> <path class="st1" d="M460.3,312.3c-0.4-5.5-26.3-29.1-15.6-38.5c10.9-9.5,28.4,17.9,30.2,35.7c1.2,11.9-5.4,30.2-15.4,42.4 l-8.4-4.7C460.4,330.9,460.8,317.8,460.3,312.3z"></path> </g> </g> <g> <g> <g> <path class="st8" d="M434.4,498.8c1.4-1.8,1.2-5,1.2-5h8.2l-0.4,4.5l-4.4,5l-7.6,2.2l-3.8-2.6 C427.4,502.9,433,500.6,434.4,498.8z"></path> </g> <path class="st10" d="M427.4,502.9c3.7,0.8,7,0.3,9.5-0.6c4.1-1.5,6.4-4,6.4-4s1.2,1.8,1.2,5.6c0,1.2-0.1,2.8-0.7,4.2 c-1.2,0-2.4,0-2.4,0s0-1.6,0-3.1c-3.3,0.8-7.6,3.1-12.3,3.1C418.4,508.1,418.7,504.6,427.4,502.9z"></path> </g> </g> </g> <path class="st6" d="M430.6,228.5c0.4,0,5.6-0.5,11.7,2.4c6.1,3,7.8,10.2,8.2,17.2c0.3,7,7.8,15.2,5.2,20.1 c-4.2,8.2-15.6-4.7-17.4-15.2c-1.1-6.1-1-15.6-4.1-19.6c-2.2-2.9-7.8-1.3-8.7-1.1C425.4,232.3,426.6,228.5,430.6,228.5z"></path> </g> <g> <g> <path class="st8" d="M266.8,347.1c2.1,1.1,7.1,1.2,6.8-0.7c-0.2-1.2-4.5-1.6-7.4-3.3c-2.2-1.3-6-0.8-6-0.8l-12.9-12.5l-5.2,5.9 l13.7,11.5c0,0,1.9,5.4,5.6,8.6c4.3,3.8,9.4,5.9,12.6,2.2C277,354.4,268.7,350.4,266.8,347.1z"></path> <rect x="261.5" y="340.9" transform="matrix(0.667 0.7451 -0.7451 0.667 350.5553 -82.4509)" class="st2" width="12.1" height="20.1"></rect> <g> <g> <path class="st1" d="M231.1,305.3c-5.3-17.1-15.4-37.1-23.5-33.3c-9.7,4.5,0.8,26.8,9,40.1c11.4,18.4,36.2,34.5,36.2,34.5 l7.2-6.7C259.9,339.8,235.2,318.6,231.1,305.3z"></path> </g> </g> <g> <g> <g> <path class="st7" d="M205,246.4c-1.1,7.8-5.9,11.8-5.9,11.8s0,4.6,5.8,7.3c5.8,2.7,8.8-1.5,8.8-1.5l1.9-9.9 C215.6,254,211,246.9,205,246.4z"></path> </g> <g> <path class="st6" d="M217.1,222.6c-0.2-1.2-1.4-3.2-4.7-3.2c-2.4,0.1-4.1,2.3-3.9,3.9c-1.2-1.6-3.7-2.6-5.8-1.2 c-2.5,1.6-2.4,3.8-1.7,6.1c-1.2-0.2-3.6,0.1-4.4,2.8c-1,3.2,0.8,6,2.2,7c-1.7,0.3-3.3,2.3-2.5,4.7c1.3,4.1,8.1,4.1,8.1,4.1 l-1.9-8.6c0,0,0,0,0,0c1.6-1.5,6.2-6,5.4-6.4c-0.6-0.3-2.5-1-3.8-1.5l6.2-3c0,0,0-0.2-0.1-0.4c1.4,0.4,5.1,1.5,6.5,1.5 l3.6,2.5c-0.3,1.3-0.9,4.7-0.8,5.1c0.2,0.4,2.1-3.5,2.1-3.5c4.4-2.5,3.1-7,1.3-9C221.2,221.6,218.2,221.8,217.1,222.6z"></path> <path class="st6" d="M203.6,227.2c-0.1,0.1-2.2,7.2-2.2,7.2v8c0,0,9.2,6.1,10.6,6.2c1.4,0,5.3-9.9,5.3-9.9l3.9-10.6l-8.4-3.4 C212.7,224.6,203.7,227.1,203.6,227.2z"></path> <path class="st8" d="M219.3,231.6c-3.2,0.2-7.3,0.9-9.7-0.6c-0.1,7.7-1,13.7-1,13.7l-1.7-0.7c0,0-0.7-4.2-0.8-4.3 c-0.7-0.8-3.3-3.1-5.5-0.9c-2.3,2.4-0.9,6.4,2.9,7.8c6.2,9.8,16.3,9.1,17.7,6.7c3.7-6.4,1.5-16.3,0.2-20.9 C221.2,232,220.1,231.5,219.3,231.6z"></path> <path class="st6" d="M210.5,227.9c0,0-7.9,2.2-7.9,2.3c0,0.1,5.2,9.6,5.2,9.6l0.8,4.9c0.5-5.2,0.4-7.9,2.8-9.9 c2-1.6,6.3-2.9,10-2.5C222,229.6,210.5,227.9,210.5,227.9z"></path> </g> <path class="st1" d="M226.1,286.5c-2.2-10.1-12.4-22.5-12.4-22.5s-6.4,1.1-14.6-5.8c-9.4,8.3-16.3,17.3-13,46.8 c1.9,17.2,7.2,38.9,7.2,47.9c8.1,0,31.7,0,35.4,0c0,0-1.5-12.6-2.4-28.1C225.1,302.4,228.7,298.2,226.1,286.5z"></path> <g> <path class="st0" d="M189.3,325.4c0.1,0.3,0.1,0.7,0.2,1c0.1,0.8,0.3,1.6,0.4,2.4c0.5,3,1.1,5.9,1.5,8.7 c2.1,6.2,4.4,11.6,6.1,15.3c0.7,0,1.4,0,2.2,0c-2.9-6.3-8-18.5-10.6-31.1l-0.4,0.1C188.9,323.1,189.1,324.3,189.3,325.4z"></path> </g> </g> <g> <path class="st8" d="M234,495.2c0,0,1,3.6,1,3.7c0,0.1,6.6-2.7,6.6-2.7l0.3-4.2l-8.2-0.9L234,495.2z"></path> <g> <g> <g> <path class="st10" d="M228.7,352.9c0,0-20.6,0-30.9,0c2.1,28.5,16.9,52.5,26.8,78.7c3.3,19.3,5.1,39.8,6.8,59.3l12.5,1.4 c2-23.7,2.8-50.1-0.9-73.3C239.3,395.8,234.3,375.2,228.7,352.9z"></path> </g> </g> </g> <path class="st10" d="M247.8,501.6c-3.4-2.2-6.2-5.4-6.2-5.4s-3.4,2.3-7.6-1c0,0-2.9,3.9-2.1,9.6c5,0.8,7,1.2,7,1.2l0.2-1.5 c0,0,5.4,2.4,11.1,3.4c5.7,0.9,7-0.5,6.5-1.5C256.2,505.4,252.4,504.6,247.8,501.6z"></path> <g> <path class="st10" d="M199.6,432.5c-0.9,11.7,1.6,61.3,1.6,61.3h12.6c0,0,5.9-56.8,7-70.5c1.1-13.7,3.3-62.6,3.3-70.5 c0,0-13.8,0-30.6,0C187.7,376.5,198,403.2,199.6,432.5z"></path> </g> <g> <polygon class="st8" points="203.6,498.3 208,503.4 211.3,498.1 211.3,493.8 203.2,493.8 "></polygon> <path class="st10" d="M218.3,502.4c-3.7-1.6-7-4.3-7-4.3s-3,2.9-7.7,0.3c0,0-2.3,4.3-0.5,9.8c5,0,7,0,7,0v-1.5 c0,0,5.8,1.5,11.5,1.5s6.8-1.6,6.2-2.5C227.2,504.7,223.3,504.6,218.3,502.4z"></path> </g> </g> </g> <g> <g> <path class="st0" d="M203.5,311.3c2.3-10.2,3.3-20.3,2.8-27.8c0-0.6-0.5-1-1.1-0.9c-0.6,0-1,0.5-0.9,1.1 c0.5,7.3-0.6,17.2-2.8,27.2c-2.5,11.4,4.4,34,7,42c0.7,0,1.4,0,2.1,0C208.3,345.7,201,322.4,203.5,311.3z"></path> </g> <g> <defs> <path id="SVGID_1_" d="M211.4,357.6c0,0-4,7.7-10,10l-7.6-25.1l12.2-6.6L211.4,357.6z"></path> </defs> <clipPath id="SVGID_2_"> <use xlink:href="#SVGID_1_" style="overflow:visible;"></use> </clipPath> <path class="st11" d="M215,361.5c-1.3-2.1-5-3.5-5-3.5l-5.7-17l-7.3,2.9l6.9,16.5c0,0-0.7,5.7,1,10.2 c2.1,5.4,5.7,9.5,10.2,7.7c4.4-1.7-1.2-9.1-1.4-12.9c1.4,2,5.8,4.3,6.4,2.4C220.5,366.7,216.8,364.3,215,361.5z"></path> </g> <g> <g> <path class="st1" d="M202.5,311.1c3.9-17.5,5-39.9-3.9-40.6c-10.7-0.9-12.6,23.6-12,39.3c0.8,21.6,14.3,47.9,14.3,47.9 l9.6-2.3C210.5,355.4,199.5,324.7,202.5,311.1z"></path> </g> </g> </g> </g> </g> <g> <g> <g> <path class="st8" d="M561.4,214.2c4.1-2.2,6.1,6.8,8.9,9.4c-0.6-2.3,0.5-7.2,2.3-6.4c1.1,0.5,0.5,4.8,1.5,8 c0.7,2.4-0.6,6-0.6,6l9.2,15.4l-6.9,3.7l-8.1-16c0,0-4.8-3.1-7.1-7.4C558,222,557.2,216.5,561.4,214.2z"></path> <g> <g> <g> <path class="st1" d="M604,266.6c15.8,8.6,33.4,22.4,28.1,29.6c-6.3,8.6-26.1-6-37.6-16.7c-15.8-14.8-26.7-42.2-26.7-42.2 l8-5.7C575.8,231.5,591.7,260,604,266.6z"></path> </g> </g> </g> <g> <g> <g> <g> <path class="st6" d="M630.1,230.6c8.4,5.1,7.4,17.5,10.9,26.6c6.7,17.2,23.8,31.5,17.7,38.2c-7.1,7.7-18.6-0.4-33.8,10.6 c-10.5,7.6-15.6-68.7-15.6-68.7s0.4-2.1,1.8-4.1C614.2,228.8,623.6,226.7,630.1,230.6z"></path> <path class="st7" d="M625,253.8c1.1,7.8,5.9,11.8,5.9,11.8s0,4.6-5.8,7.3c-5.8,2.7-8.8-1.5-8.8-1.5l-1.9-9.9 C614.5,261.4,619,254.3,625,253.8z"></path> <path class="st8" d="M620.5,238.3c3,5.1,3.3,9,3.3,9s3.1-3.8,5.7-1.2c2.3,2.4,0.9,6.4-2.9,7.8c-6.2,9.8-16.3,9.1-17.7,6.7 c-4.9-8.5,0.5-23.3,0.5-23.3S616,234.2,620.5,238.3z"></path> <g> <g> <g> <path class="st8" d="M560.6,491.8l7.9,2.1l-1.5,4.5l-5.5,4l-7.9,0.2l-3.1-3.6c0,0,5.9-0.9,7.7-2.4 S560.6,491.8,560.6,491.8z"></path> </g> <path class="st10" d="M550.5,498.9c3.4,1.8,6.7,2.1,9.4,1.8c4.3-0.4,7.2-2.4,7.2-2.4s0.7,2.2-0.2,6 c-0.3,1.3-0.8,2.8-1.7,4.1c-1.1-0.3-2.3-0.6-2.3-0.6s0.4-1.6,0.8-3.1c-3.4,0-8.1,1.2-12.7,0 C540.4,501.9,541.6,498.4,550.5,498.9z"></path> </g> </g> <g> <path class="st10" d="M601.3,360.2h31.5c-2.7,31.9-27.1,49.8-42.5,75c-8.7,19.4-14.2,38.7-19.4,59.4 c-4.1-1.1-8.2-2-12.3-3.3c2.2-24.8,5.6-47.3,15.3-69.4C583.7,399.7,601.3,360.2,601.3,360.2z"></path> </g> </g> <path class="st8" d="M641.7,200.6c0.9-3.7-2.2-12.4,2.5-12.7c4.8-0.3,7,4.7,7.5,10.4c0.3,4.8-2.1,10-2.1,10l1.7,17.8 l-7.8,0.6l-0.4-17.9c0,0-3-2.4-3.7-4.8c-0.9-3.2-3.7-6.6-3-7.6C637.5,194.8,641,198.3,641.7,200.6z"></path> <path class="st1" d="M598.7,293.8c2.2-10.1,17.7-22.5,17.7-22.5s6.4,1.1,14.6-5.8c9.4,8.3,13.5,17.5,8,46.7 c-2.8,14.7-12.1,36.1-2.3,48c0,0-30.7,0-35.4,0c4.5-12.3,3.8-40.6,2.4-44.9C601,306.3,596.9,301.8,598.7,293.8z"></path> <g> <path class="st12" d="M641.1,284.9c0.1,1.1,0.2,2.2,0.2,3.5c-0.4,0.6-0.8,1.2-1.2,1.7c-0.2,0.3-0.5,0.4-0.8,0.4 c-0.2,0-0.4-0.1-0.6-0.2l0,0c-0.1-0.1-0.3-0.3-0.3-0.4c-0.1-0.3-0.1-0.7,0.1-0.9C639.5,287.7,640.3,286.4,641.1,284.9z"></path> <path class="st12" d="M629.7,266.5c0.4-0.3,0.8-0.6,1.3-1c0,0,0,0,0,0c0.3,0.3,0.7,0.6,1,0.9c-1.4,3.1-2.6,6.1-3.5,9 c-0.1,0.3-0.3,0.5-0.5,0.6c-0.2,0.1-0.5,0.1-0.7,0c-0.2-0.1-0.3-0.2-0.5-0.3c-0.2-0.3-0.3-0.6-0.2-1 C627.4,272.1,628.4,269.4,629.7,266.5z"></path> </g> <g> <path class="st1" d="M641.6,210.2l9.8,0.6c0,0,5.5,29,0,50c-4,15.2-12.9,38.1-22.8,34.2c-8.4-3.3-0.8-24.4,7.9-40 C643.3,242.8,641.6,210.2,641.6,210.2z"></path> </g> </g> <path class="st6" d="M623.7,241.5c0,0,0,0,0,5.8c0,0-1.7-4.4-3.2-6.9c-1.8-3-11.2-3.1-11.2-3.1l6.7-6.2L623.7,241.5z"></path> </g> </g> <g> <g> <g> <path class="st8" d="M697.7,455.3l3.6-7.4l4.1,2.3l2.9,6.2l-1.3,7.8l-4.2,2.3c0,0,0.2-6-0.9-8.1 C700.9,456.4,697.7,455.3,697.7,455.3z"></path> </g> <path class="st10" d="M702.9,466.6c2.4-3.1,3.3-6.2,3.5-8.8c0.4-4.3-1-7.5-1-7.5s2.3-0.3,5.8,1.4c1.2,0.5,2.6,1.3,3.8,2.4 c-0.5,1-1,2.2-1,2.2s-1.5-0.7-3-1.3c-0.7,3.4-0.4,8.2-2.4,12.5C703.9,477,700.7,475.2,702.9,466.6z"></path> </g> </g> <g> <path class="st10" d="M656.8,420.5c14.6,9.7,45.7,25.3,45.7,25.3c-1.9,3.8-3.8,7.5-5.6,11.5c0,0-45.7-13.7-61.2-29.7 c-17.2-17.7-24.7-43.4-30-67.3h30.9C650.5,375.5,651.5,416.9,656.8,420.5z"></path> </g> </g> </g> </g> </g> </g> </svg> 