<?xml version="1.0" encoding="UTF-8"?> <!-- Generator: Adobe Illustrator 23.1.0, SVG Export Plug-In . SVG Version: 6.00 Build 0) --> <svg xmlns="http://www.w3.org/2000/svg" xmlns:xlink="http://www.w3.org/1999/xlink" id="Ñëîé_4" x="0px" y="0px" viewBox="0 0 793.8 476.7" style="enable-background:new 0 0 793.8 476.7;" xml:space="preserve"> <style type="text/css"> .st0{opacity:0.5;fill:#4AD6AE;} .st1{fill:#FFFFFF;} .st2{opacity:0.5;} .st3{fill:#4AD6AE;} .st4{fill:#233C67;} .st5{fill:#3B639F;} .st6{clip-path:url(#SVGID_2_);fill:#EEF5FF;} .st7{fill:#EEF5FF;} .st8{fill:#00BDC7;} .st9{fill-rule:evenodd;clip-rule:evenodd;fill:#00BDC7;} .st10{clip-path:url(#SVGID_4_);} .st11{fill:#222B54;} .st12{fill:#BACEDB;} .st13{fill:#FEA086;} .st14{fill:#41B792;} .st15{fill:#F49E87;} .st16{fill:#D9FDFF;} .st17{fill:#407BDB;} .st18{fill:#FEB39E;} .st19{fill:#F7B690;} .st20{opacity:0.75;} </style> <g> <g> <ellipse class="st0" cx="91.1" cy="130.2" rx="15.6" ry="15.9"></ellipse> <polygon class="st1" points="91.1,120.6 94,126.6 100.4,127.5 95.7,132.2 96.8,138.7 91.1,135.6 85.3,138.7 86.4,132.2 81.8,127.5 88.2,126.6 "></polygon> </g> <g> <g class="st2"> <g> <path class="st3" d="M394.7,71.1c11.4,16,22,32.7,32.2,49.8c-13.3-60.2,26.2-84.2,26.2-84.2c15.2,68.8-6.9,93.4-16.5,100.6 c6.1,10.8,11.8,21.8,17.3,33c2.3-63.6,47.8-76.3,47.8-76.3c-3.6,65.7-27.9,85.6-40.3,91.6c8.7,18.5,16.6,37.4,23.8,56.5 c8.3-67.2,57.3-74.5,57.3-74.5c-12,68.3-40.8,83.3-52.9,86.6c16.2,45.1,28.2,91.6,35.7,138.5c0.9,5.9-8.3,7.2-9.2,1.2 c-4.6-28.9-11-57.8-19.1-86.3c-79.8-6-85-46-85-46c40.7-3.9,64.2,8.7,77.5,21.8c-6-19-12.6-37.8-20.1-56.3 c-3.4,2.9-34.9,26.8-101.7-22.5c0,0,45.1-32.6,101.4,21.5c-12.1-29.6-26.1-58.4-41.7-86c-85.1,13.9-99.2-26-99.2-26 c51.1-16.2,79.3,1.3,92.2,14.3c-9.9-16.8-20.2-33.1-31.4-48.9c-73.4-35.4-63.5-75.1-63.5-75.1C380.1,20.3,392.2,53.6,394.7,71.1 z"></path> </g> </g> <g class="st2"> <g> <path class="st3" d="M733.9,237.2c-9.9,8.3-19.3,17.2-28.5,26.3c18.3-36-2.9-57.7-2.9-57.7c-20.8,41.2-10.9,60.4-5.9,66.6 c-5.6,5.9-11,11.9-16.3,18.1c8.9-40.8-17.9-56.2-17.9-56.2c-8.4,42.2,3.7,58.9,10.6,64.7c-8.5,10.3-16.6,21-24.3,32 c5.7-44-24.2-56.6-24.2-56.6c-3.5,45.3,12.3,59.5,19.4,63.6c-17.6,26-32.9,53.5-45.2,82c-1.6,3.6,4.1,5.9,5.6,2.3 c7.6-17.6,16.4-34.9,26.2-51.7c51.6,9.2,61.5-15.3,61.5-15.3c-25.2-9.1-42.2-4.9-52.7,1.2c6.9-11.1,14.1-22,21.9-32.5 c1.7,2.4,17.8,22.7,68.2,2.3c0,0-23.3-28-67.9-2.8c12.5-16.8,26.1-32.8,40.5-47.8c51.7,22.7,67.2-0.4,67.2-0.4 c-29.8-18.6-50.5-12.1-60.9-6c9-9,18.2-17.7,27.9-25.9c52.3-10.5,52.5-37.3,52.5-37.3C751.5,207.4,738.4,226.6,733.9,237.2z"></path> </g> </g> <g class="st2"> <g> <g> <path class="st3" d="M610.2,57.7l-1.5,0c0.2-10.1-3.5-19.6-10.5-26.8c-7-7.2-16.4-11-26.3-10.8l0-1.5 c10.4-0.2,20.1,3.7,27.4,11.2C606.5,37.3,610.4,47.2,610.2,57.7z"></path> </g> <g> <path class="st3" d="M600.2,59l-1.5,0c0.2-7.9-2.7-15.3-8.2-20.8c-5.5-5.6-12.8-8.6-20.5-8.4l0-1.5c8.1-0.2,15.8,2.9,21.6,8.8 C597.3,42.9,600.3,50.7,600.2,59z"></path> </g> <g> <path class="st3" d="M590.8,57.6l-1.5,0c0.1-4.9-1.7-9.6-5.1-13.1c-3.4-3.5-8-5.4-12.8-5.2l0-1.5c5.3-0.1,10.2,1.9,13.9,5.7 C589,47.2,590.9,52.2,590.8,57.6z"></path> </g> <g> <path class="st3" d="M573.6,61c-1.4,0-2.7-0.5-3.7-1.6c-2.1-2.1-2.1-5.5,0-7.6c2.1-2.1,5.4-2.1,7.5,0c2.1,2.1,2.1,5.5,0,7.6 l0,0C576.3,60.4,574.9,61,573.6,61z M573.6,51.7c-1,0-1.9,0.4-2.7,1.1c-1.5,1.5-1.5,4,0,5.5c1.5,1.5,3.9,1.5,5.4,0l0,0 c1.5-1.5,1.5-4,0-5.5C575.5,52.1,574.6,51.7,573.6,51.7z"></path> </g> </g> </g> <g> <g> <path class="st1" d="M277.1,93.6c0,16.1-12.7,29.1-28.4,29.1c-15.7,0-28.4-13-28.4-29.1c0-16.1,12.7-29.1,28.4-29.1 C264.3,64.5,277.1,77.5,277.1,93.6z"></path> <path class="st0" d="M248.6,123.9c-16.3,0-29.6-13.6-29.6-30.3c0-16.7,13.3-30.3,29.6-30.3c16.3,0,29.6,13.6,29.6,30.3 C278.2,110.3,264.9,123.9,248.6,123.9z M248.6,65.7c-15,0-27.3,12.5-27.3,27.9c0,15.4,12.2,27.9,27.3,27.9 c15,0,27.3-12.5,27.3-27.9C275.9,78.2,263.7,65.7,248.6,65.7z"></path> </g> <path class="st0" d="M263.4,86.1c-3.4-11.1-13.8-1-14.9,0.9c-1.1-1.9-12.1-10.6-14.9-0.9c-3.2,11.1,14.7,23.9,14.8,24.2v0.1 c0,0,0.1,0,0.1-0.1c0.1,0,0.1,0.1,0.1,0.1v-0.1C251.1,109,266.3,95.4,263.4,86.1z"></path> </g> <g class="st2"> <g> <g> <ellipse class="st3" cx="151.4" cy="53.8" rx="2.9" ry="3"></ellipse> </g> <g> <path class="st3" d="M140.9,68.8c0-1.1-0.9-2-2-2c-1.1,0-2,0.9-2,2s0.9,2,2,2C140,70.8,140.9,69.9,140.9,68.8z"></path> </g> <g> <path class="st3" d="M154.6,80.7c0-1.5-1.2-2.7-2.7-2.7c-1.5,0-2.7,1.2-2.7,2.7c0,1.5,1.2,2.7,2.7,2.7 C153.4,83.4,154.6,82.2,154.6,80.7z"></path> </g> <g> <path class="st3" d="M152,81.6c-0.1,0-0.4-0.1-13.7-12.8l-0.3-0.3l12.6-14.9l0.6,0.5l-12.1,14.3c5.1,4.9,12.7,12.1,13.2,12.4 c0,0,0,0-0.1,0L152,81.6z"></path> </g> </g> </g> <g class="st2"> <g> <path class="st3" d="M161.5,374.9c6.2,2.9,12.3,6.2,18.3,9.6c-14.3-16-6.4-30.1-6.4-30.1c16.4,18.3,13.9,29.6,12.2,33.4 c3.7,2.3,7.3,4.6,10.9,7.1c-10.2-19.8,1.5-31.4,1.5-31.4c10.1,20.6,6.1,30.8,3.4,34.7c5.8,4.1,11.4,8.5,16.9,13.1 c-8.9-21.9,4.7-32.5,4.7-32.5c8,22.8,1.8,32.3-1.3,35.4c12.6,11,24.2,23,34.5,36c1.3,1.6-1.3,3.6-2.6,1.9 c-6.3-8-13.2-15.7-20.5-23c-25.3,11.8-33.7,0.5-33.7,0.5c11.7-8.1,21-8.3,27.3-6.6c-5.1-4.7-10.3-9.4-15.7-13.7 c-0.5,1.5-6,14.1-34.8,10.5c0,0,8.2-17.6,34.5-10.7c-8.7-7-17.9-13.3-27.4-19c-23.5,18.8-34.6,9-34.6,9 c12.8-13.6,24.3-13.1,30.5-11.4c-5.9-3.4-11.8-6.6-17.9-9.5c-28.4,1.8-32.1-12-32.1-12C148.4,362,157.7,370,161.5,374.9z"></path> </g> </g> <g> <g> <path class="st3" d="M750.5,313.4c-5,5.6-9.8,11.4-14.3,17.4c7.6-22.1-6.3-32.7-6.3-32.7c-8.7,25.2-1.4,35.4,1.9,38.5 c-2.8,3.8-5.4,7.7-8,11.7c1.9-24-14.8-30.6-14.8-30.6c-1.5,24.8,6.9,33.3,11.3,36c-4.1,6.6-7.9,13.4-11.4,20.3 c-0.2-25.6-18.5-30.3-18.5-30.3c1.6,26.1,11.8,33,16.3,34.7c-8.1,16.3-14.6,33.3-19.5,50.6c-0.6,2.2,2.8,3,3.4,0.8 c3-10.7,6.7-21.3,10.9-31.7c30.4,1,34.1-13.8,34.1-13.8c-15.2-3.1-24.7,0.6-30.3,5c3.1-6.9,6.4-13.7,10-20.3 c1.2,1.2,12,11.5,39.5-4.3c0,0-15.6-14.1-39.3,4c5.8-10.6,12.4-20.9,19.5-30.6c31.6,8.7,38.6-5.7,38.6-5.7 c-18.6-8.2-30-2.8-35.5,1.6c4.5-5.9,9.1-11.6,14-17.1c29.3-10.3,27.2-25.6,27.2-25.6C758.2,294.9,752.2,306.9,750.5,313.4z"></path> </g> </g> <path class="st0" d="M365,391.7l-4.9,3.5c-0.9,0.6-1.1,1.9-0.5,2.8l7.1,10c0.6,0.9,1.9,1.1,2.8,0.5l4.9-3.5 c0.9-0.6,1.1-1.9,0.5-2.8l-7.1-10C367.1,391.2,365.9,391,365,391.7z M382.5,380.8l-4.7,3.4c-0.9,0.7-2.2,0.4-2.8-0.6l-2.1-3.4 c-0.1-0.2-0.2-0.3-0.4-0.5l-3.7-3.3c-0.7-0.6-1.7-0.7-2.5-0.1l0,0c-0.9,0.6-1.1,1.9-0.5,2.8l2.4,3.3c0.2,0.3,0.4,0.8,0.4,1.2 l-0.1,7.8c0,0.4,0.1,0.8,0.4,1.2l5.9,8.3c0.4,0.6,1.1,0.9,1.8,0.8l4.1-0.5c0.3,0,0.7-0.2,0.9-0.4l6.8-4.9c0.7-0.5,1-1.3,0.8-2.1 l-2.7-10.4c-0.1-0.2-0.2-0.5-0.3-0.7l-1.1-1.5C384.6,380.3,383.3,380.1,382.5,380.8z"></path> <path class="st0" d="M675.7,47.3l-5-3.4c-0.9-0.6-2.1-0.4-2.7,0.5l-6.9,10.1c-0.6,0.9-0.4,2.1,0.5,2.7l5,3.4 c0.9,0.6,2.1,0.4,2.7-0.5l6.9-10.1C676.8,49.2,676.6,48,675.7,47.3z M691.9,60l-4.8-3.3c-1-0.7-1.1-2-0.4-2.9l2.5-3.1 c0.1-0.2,0.2-0.3,0.3-0.5l1.8-4.6c0.3-0.9,0-1.8-0.7-2.4l0,0c-0.9-0.6-2.1-0.4-2.7,0.5l-2.3,3.4c-0.2,0.3-0.6,0.6-1,0.7l-7.4,2.6 c-0.4,0.1-0.7,0.4-1,0.7l-5.7,8.4c-0.4,0.6-0.5,1.3-0.1,2l1.8,3.7c0.2,0.3,0.4,0.6,0.7,0.8l6.9,4.8c0.7,0.5,1.6,0.5,2.2,0l8.8-6 c0.2-0.1,0.4-0.3,0.5-0.5l1-1.5C693.1,61.9,692.8,60.6,691.9,60z"></path> <path class="st0" d="M195.4,326l-4.9,3.5c-0.9,0.6-1.1,1.9-0.5,2.8l7.1,10c0.6,0.9,1.9,1.1,2.8,0.5l4.9-3.5 c0.9-0.6,1.1-1.9,0.5-2.8l-7.1-10C197.6,325.6,196.3,325.4,195.4,326z M212.9,315.1l-4.7,3.4c-0.9,0.7-2.2,0.4-2.8-0.6l-2.1-3.4 c-0.1-0.2-0.2-0.3-0.4-0.5l-3.7-3.3c-0.7-0.6-1.7-0.7-2.5-0.1l0,0c-0.9,0.6-1.1,1.9-0.5,2.8l2.4,3.3c0.2,0.3,0.4,0.8,0.4,1.2 l-0.1,7.8c0,0.4,0.1,0.8,0.4,1.2l5.9,8.3c0.4,0.6,1.1,0.9,1.8,0.8l4.1-0.5c0.3,0,0.7-0.2,0.9-0.4l6.8-4.9c0.7-0.5,1-1.3,0.8-2.1 l-2.7-10.4c-0.1-0.2-0.2-0.5-0.3-0.7l-1.1-1.5C215,314.7,213.8,314.5,212.9,315.1z"></path> <g> <g> <g> <g> <g> <path class="st4" d="M691.2,431.2c0,16.6-13.6,30.2-30.2,30.2H487c-16.6,0-30.2-13.6-30.2-30.2V119.9 c0-16.6,13.6-30.2,30.2-30.2h174c16.6,0,30.2,13.6,30.2,30.2V431.2z"></path> <path class="st5" d="M487,419.6c-10,0-18.1-7.4-18.1-16.6V118.4c0-9.1,8.1-16.6,18.1-16.6h174c10,0,18.1,7.4,18.1,16.6V403 c0,9.1-8.1,16.6-18.1,16.6H487z"></path> <g> <defs> <path id="SVGID_1_" d="M487,408.5c-3.3,0-6-2.5-6-5.5V118.4c0-3,2.7-5.5,6-5.5h174c3.3,0,6,2.5,6,5.5V403 c0,3-2.7,5.5-6,5.5H487z"></path> </defs> <use xlink:href="#SVGID_1_" style="overflow:visible;fill:#FFFFFF;"></use> <clipPath id="SVGID_2_"> <use xlink:href="#SVGID_1_" style="overflow:visible;"></use> </clipPath> <rect x="459" y="342.5" class="st6" width="220.2" height="99"></rect> <rect x="459" y="108.8" class="st6" width="220.2" height="48.5"></rect> </g> <path class="st7" d="M565.6,440.1c0,5.9,4.8,10.8,10.8,10.8c5.9,0,10.8-4.8,10.8-10.8c0-5.9-4.8-10.8-10.8-10.8 C570.4,429.4,565.6,434.2,565.6,440.1z"></path> </g> </g> </g> <path class="st8" d="M638.8,376.3H512.6c-1.4,0-2.5,1.1-2.5,2.5c0,1.4,1.1,2.5,2.5,2.5h126.2c1.4,0,2.5-1.1,2.5-2.5 C641.3,377.4,640.2,376.3,638.8,376.3z"></path> <path class="st9" d="M501.9,375.2c-2,0-3.5,1.6-3.5,3.5c0,2,1.6,3.5,3.5,3.5c2,0,3.5-1.6,3.5-3.5 C505.4,376.8,503.8,375.2,501.9,375.2z"></path> <path class="st9" d="M501.9,388.6c-2,0-3.5,1.6-3.5,3.5c0,2,1.6,3.5,3.5,3.5c2,0,3.5-1.6,3.5-3.5 C505.4,390.2,503.8,388.6,501.9,388.6z"></path> <path class="st8" d="M638.8,389.7H512.6c-1.4,0-2.5,1.1-2.5,2.5c0,1.4,1.1,2.5,2.5,2.5h126.2c1.4,0,2.5-1.1,2.5-2.5 C641.3,390.8,640.2,389.7,638.8,389.7z"></path> <path class="st8" d="M638.8,128H512.6c-1.4,0-2.5,1.1-2.5,2.5c0,1.4,1.1,2.5,2.5,2.5h126.2c1.4,0,2.5-1.1,2.5-2.5 C641.3,129.1,640.2,128,638.8,128z"></path> <path class="st8" d="M638.8,141.4H512.6c-1.4,0-2.5,1.1-2.5,2.5c0,1.4,1.1,2.5,2.5,2.5h126.2c1.4,0,2.5-1.1,2.5-2.5 C641.3,142.5,640.2,141.4,638.8,141.4z"></path> </g> <g> <defs> <rect id="SVGID_3_" x="414.4" y="88.4" width="310.5" height="255"></rect> </defs> <clipPath id="SVGID_4_"> <use xlink:href="#SVGID_3_" style="overflow:visible;"></use> </clipPath> <g class="st10"> <g> <g> <path class="st11" d="M547.6,569.6c-3.2-2.9-4.7-5.1-4.7-5.1c-2.5-0.8-15.3,0.9-16.7,2.1c-1.4,1.2,2.2,6.2,2.2,6.2 s4-2.5,2.6,2.3c-1.4,4.9,10.8,27.1,13.2,30.7c2.4,3.6-2.4-13.5-2.5-21.9C541.6,575.4,547.6,569.6,547.6,569.6z"></path> </g> </g> <g> <g> <g> <path class="st1" d="M655,480.1c7.8-23.3-32.6-101.2-32.6-101.2s-53-89.9-65-54.2c-12,35.7,40.1,126.9,45.2,133.7 c5.1,6.8,3.4,13,3.4,13c-29.8,19.1-56.2,87.1-56.2,87.1c6.1,6,7.6,7.7,7.6,7.7C571.1,545.3,647.2,503.4,655,480.1z"></path> <path class="st12" d="M557.4,567l-0.5-0.5c0,0-1.6-1.7-7.6-7.6l-0.3-0.3l0.1-0.3c0.3-0.7,26.7-68.1,56.3-87.2 c0.2-1.1,1-6.5-3.4-12.4c-4.1-5.4-57.5-98.1-45.3-134.2c1.8-5.5,4.8-8.4,8.7-8.7c19.1-1.5,55.7,60.2,57.3,62.8 c1.7,3.2,40.4,78.4,32.7,101.6l0,0c-4.4,13.2-30,32-54.7,50.1c-19,13.9-37,27.1-43,36.2L557.4,567z M584.5,328.2 c-7-7-13.7-11.8-18.9-11.4c-3.5,0.3-6.1,3-7.8,8c-12,35.8,41.1,127.8,45.2,133.2c5.2,6.9,3.6,13.2,3.5,13.5l-0.1,0.2 l-0.2,0.1c-28.3,18.1-53.8,81.3-55.9,86.5c4.2,4.1,6.1,6.1,6.9,6.9c6.4-9.2,24.1-22.2,42.8-35.9c24.6-18,50-36.6,54.3-49.6 l0,0c7.6-22.8-32.2-100-32.6-100.8C621.6,378.7,602.3,346.1,584.5,328.2z"></path> </g> </g> </g> <g> <g> <g> <path class="st1" d="M548.1,339.7c-29.5,31.8-5.1,89,0.3,99.7c8.4,16.5,3.6,32,3.6,32c-21.8,63,5.4,117.5,5.4,117.5 c3.5,5,6.8,2,6.8,2c3.3-34.7,26.8-108.7,39-154.1c11.2-41.4-0.9-89.1-2.6-96.6L548.1,339.7z"></path> <path class="st12" d="M600.1,340.3c1.7,6.7,13.5,55.9,2.6,96.4c-3.1,11.5-6.9,24.8-11,38.9c-12,41.7-25.5,89-28.1,115 c-0.3,0.2-1.2,0.8-2.3,0.6c-1.2-0.1-2.5-1-3.6-2.6c-0.3-0.5-26.9-55.1-5.4-117.1c0-0.2,4.8-15.9-3.6-32.4 c-5.4-10.6-28.6-69.7-0.7-99.5l-1.3-0.1c-27.6,35.7-4.4,89.4,1.1,100.1c8.2,16.1,3.6,31.5,3.5,31.6 c-21.7,62.5,5.2,117.4,5.5,118c0.4,0.5,0.8,1,1.2,1.4c1,1,2.1,1.6,3.2,1.7c1.9,0.2,3.2-1,3.2-1l0.1-0.1l0-0.2 c2.5-25.9,16.1-73.3,28.1-115.1c4-14.1,7.9-27.4,11-38.9c11-40.8-0.7-88.6-2.6-96.7H600.1z"></path> </g> </g> </g> <g> <g> <path class="st11" d="M573.3,599.3c-7.6-3.8-10-12-10-12c-4.2,1.5-6.8,1.9-6.8,1.9c-2,1.9-6.7,14.4-6.2,16.2 c0.4,1.8,6.6,0.8,6.6,0.8s-0.3-4.9,3.4-1.3c3.7,3.5,29.6,2.8,33.9,2.2C598.6,606.6,581,603.1,573.3,599.3z"></path> </g> </g> <g> <g> <g> <path class="st3" d="M595.5,222.2c-11.3-2.2-22.8-3.4-34.3-2.8c-1.3,0.1-2.6,0.1-3.9,0.3c-10.9,0.9-25.6,2.6-33.4,10.8 c-6,6.3-9.5,15.6-8.4,24.3c1.2,8.8,10.6,12.9,13.5,21.4c6.8,20.2,12.1,66.4,13.2,69.4c0,0,30.5,23.6,54.7,0.9 c2.4-2.2,7.1-18,8.2-21.5c1.9-5.9,3.8-11.7,5.7-17.6c3.8-12.1,7.2-24.4,9.4-37c1.8-10.3,5.6-27.6,1.7-37.7 C618.8,224.3,603.4,223.8,595.5,222.2z"></path> </g> </g> </g> <g> <g> <path class="st13" d="M583.6,178.2c-2.6-3.8-32.9,13.9-35.1,20.2c-2.2,6.3,11.6,15.8,13.8,16.4c2.3,0.6,23.7-3.8,27.2-9.6 c3.5-5.8-1.2-19.8-1.2-19.8S586.2,182,583.6,178.2z"></path> </g> </g> <g> <g> <g> <path class="st5" d="M585,169.1c-1.9,0.8-6.5,0.6-2.6-3.8c3.9-4.4-6-8.6-21.6,0.2c-15.6,8.8-14.2,15.3-14.4,19.9 c-0.2,4.6-2.1,5.4-1,9.6c1.2,4.2-1.3,6.4,4.9,11.3c6.2,4.9,10.7,6.1,9.9,4.2s-9.9-4.2-7.8-8.7c2.1-4.5,6.7,3.6,6.9-0.1 c0.2-3.7,0.4-8.3,0.4-8.3c8.6,1.8,19-11.8,19-11.8c2.9,6.1,9.3,7.4,9.3,7.4l0.3,3.2l1.2,3.3l1.4-1.3c0,0-1.2-11.1-1.6-13.4 c-0.3-2.3,1-1.8,1.6-4.1c0.6-2.3-4.2,0.2-4.1-1.6c0.1-1.8,4.3-3.9,4.4-5.7C591.6,167.6,586.9,168.2,585,169.1z"></path> </g> </g> </g> <g> <g> <g> <path class="st5" d="M593.3,203.5c-1.1-5.1-2.3-9.3-2.3-9.3l-1.4,1.3l0.4,1.4c0,0,0.3,2.3-0.7,4.1c-1,1.8-11.1,0.3-16.9,7.4 c-5.9,7-13-6.7-13-6.7l-2,0.3c0,0,6.5,8.7,2.9,8.5c-3.7-0.2-6.5-1.7-6.5-1.7s5,11.8,15.3,17.4c10.3,5.6,30.8-0.6,32.9-5.1 C604.1,216.5,594.4,208.6,593.3,203.5z"></path> </g> </g> </g> <path class="st14" d="M616.2,229.3c0,0-21.8,19.9-5.3,62c16.5,42.1,35.4,30,35.4,30s1.6-6-6.9-48.3 C631,230.6,616.2,229.3,616.2,229.3z"></path> <g> <g> <g> <path class="st14" d="M657.1,212.8c0,0,0,0.1,0,0.1c-7.7,18.3-16.3,36.1-24.2,54.3c-4.6,10.6-9.2,21.3-13,32.2 c-4.2,12.3,5.2,23.2,17.1,24.9c9.5,1.4,16.6-4.6,20.2-13c12-27.8,7.8-96.8,7.8-96.8C661.1,215.6,657.1,212.8,657.1,212.8z"></path> </g> </g> </g> <path class="st14" d="M481,265.2c0.9,0.1,1.7,0.2,2.6,0.4c9.1,1.2,18.2,2,27.2,3c7.3,0.8,14.9,2.4,21.8-0.9 c7.7-3.7,12.7-12,13.3-20.5c0.5-7.2-2.1-19.5-9.1-23.1c-6.4-3.2-36,12.6-50.9,4.6c-8.5-4.5-41.1-50.1-46-46.5 c-2.7,2-5.6,4.9-5.4,7.8c0.4,6.9,7.6,18.9,10.3,24.9C448.9,224,466.6,263,481,265.2z"></path> <path class="st15" d="M436.8,188.5c1.6-1.1,3-2.3,4.6-3.4c0.9-0.6,1.8-1,2.7-1.1c0.1-2.2,0.1-4.8-0.3-7.4 c-1.2-7.6-5.4-12.4-5.5-8.7c-0.1,3.7,2.1,8.9,0.7,11.6c-1.4,2.8-12.1-10.5-12.1-12.9c-0.1-2.4-3.2-5.2-3.9,1.4 c-0.7,6.5,7.6,20.6,11.7,23c0.1,0.1,0.2,0.1,0.3,0.1C435.3,190,435.9,189.1,436.8,188.5z"></path> <path class="st8" d="M666,226.8l6.6-2.3c1.8-0.6,2.8-2.7,2.1-4.5l-12.5-35.5c-0.6-1.8-2.7-2.8-4.5-2.1l-6.6,2.3 c-1.8,0.6-2.8,2.7-2.1,4.5l12.5,35.5C662.2,226.5,664.2,227.4,666,226.8z"></path> <g> <g> <path class="st13" d="M668.3,198c-5.7-3.5-8.3,9.8-3.7,13.2C674,218,675.1,202.1,668.3,198z"></path> </g> </g> <g> <g> <path class="st13" d="M655.9,208.7c-0.3-1.6-1.2-4.3,0.1-5.6c0.7-0.7,1.7-1.2,2.3-2.1c0.6-0.9,0.5-2.3-0.6-2.6 c-0.3-0.1-0.7,0-1,0.1c-6.5,2.1-4.8,8.4-2.2,13.2c0.3,0.6,0.7,1.2,1.3,1.6c0.4,0.3,0.9,0.4,1.4,0.2 C657.2,212.1,656.2,210.3,655.9,208.7z"></path> </g> </g> <polygon class="st5" points="682.9,182.1 726.1,190.2 699.1,109.4 669.6,144.5 "></polygon> <rect x="642.5" y="149.1" transform="matrix(-0.9428 0.3333 -0.3333 -0.9428 1338.3824 108.5347)" class="st8" width="34.7" height="39.9"></rect> <rect x="638.4" y="155.8" transform="matrix(-0.9428 0.3334 -0.3334 -0.9428 1304.0236 127.7234)" class="st4" width="5.3" height="39.9"></rect> <rect x="631.4" y="166" transform="matrix(-0.9428 0.3334 -0.3334 -0.9428 1293.1735 133.7899)" class="st8" width="7.4" height="23.7"></rect> </g> </g> </g> <g> <path class="st3" d="M685.7,350.8c2,0.8,4.1,2.1,6.2,4c15.8,14.7-3.6,71.2-14.8,90L662.7,462c0.4-9-8.7-56.6-8.9-68.6 c-0.3-18.4,13.8-47.4,30.2-43.2C684.5,350.4,685.1,350.6,685.7,350.8z"></path> <path class="st14" d="M720.3,352.8c0.1,0.1,0.3,0.1,0.4,0.2c1.3,0.8,2.5,1.9,3.6,3.1c8.4,9.2,11.5,22.9,7.7,34.8 c-1.3,4.2-3.4,8.1-5.7,11.9c-11,18.6-26,34.9-43.7,47.5l-20,11.8c3.4-5.4,11.1-34.3,13.2-40.3c3-8.9,4-18.3,5.4-27.6 c1.5-9.3,3.5-18.7,8.2-26.8c4.8-8.1,12.7-14.8,22.1-15.9c2.5-0.3,5.2-0.1,7.6,0.8C719.6,352.4,720,352.6,720.3,352.8z"></path> <path class="st16" d="M663.8,460.9c-0.4,0.4-0.7,0.8-1.1,1.1C663,461.7,663.4,461.3,663.8,460.9z"></path> <path class="st16" d="M663.8,460.9c0.1-0.1,0.2-0.2,0.3-0.4C664,460.6,663.9,460.8,663.8,460.9z"></path> <path class="st16" d="M701.4,400.2c4.5-8.7,9.1-17.7,11.8-27.1c2-7,3-14.3,6-20.8c0.4,0.2,0.8,0.3,1.2,0.5 c0.1,0.1,0.3,0.1,0.4,0.2c-3.4,7.3-4.2,15.7-6.8,23.4c-3.2,9.8-8.1,19.2-13,28.3c-7.1,13.4-25.4,43.6-36.9,55.8 C676.3,447.4,693.9,414.8,701.4,400.2z"></path> <path class="st1" d="M676.3,396c-3.3,13.5-8.3,53.2-13.6,66c5.8-13.8,9.6-55.7,12.9-70.3c2-8.8,3.3-17.8,4.6-26.7 c0.7-5.2,1.6-10.5,3.5-15.3c0.5,0.1,1.1,0.3,1.7,0.5c-2.4,5.9-3.1,12.5-4,18.9C680.1,378.2,678.4,387.2,676.3,396z"></path> <path class="st3" d="M759.3,405.1c0.2,0.5,0.5,1.1,0.7,1.7c2.1,6.4,1.4,14.9-4.7,24.1c-11.8,17.7-83.3,30.2-92.6,31.1l13.6-16.6 c8.5-9.3,58.8-48.6,69.3-49.8C750.9,395,756.5,398.8,759.3,405.1z"></path> <path class="st1" d="M745,416.1c4.9-3.4,9.6-7.2,14.3-11c0.2,0.5,0.5,1.1,0.7,1.7c-4.3,3.6-8.7,7.1-13.3,10.3 c-6.7,4.7-13.8,8.3-21.4,11.5c-11.3,4.9-22.5,10-33.3,15.8c11.4-6.7,23-13.2,30-16.3C730,424.7,737.8,421.1,745,416.1z"></path> <path class="st17" d="M662.7,462l19.6-12.1c3.2-1.9,6.4-3.7,9.7-5.5C680.5,451.1,669.2,458.1,662.7,462z"></path> </g> <g> <path class="st0" d="M339.6,231l-5.5-22.6c0.5-1.6,0.8-3.4,0.8-5.1v-21.7c0-9.6-7.8-17.4-17.4-17.4h-56.5 c-9.6,0-17.4,7.8-17.4,17.4v21.7c0,9.6,7.8,17.4,17.4,17.4h52.3v0.1L339.6,231z"></path> <path class="st4" d="M289.8,272.5l9.4,1.5c0,0,31.4,12.1,36,19.2c4.7,7.1-7.6,6.9-12.3,5.8c-4.7-1.1-20.7-3.7-23.9-8.6 C295.9,285.6,289.8,272.5,289.8,272.5z"></path> <path class="st8" d="M302.2,251.7c0,0,5,0.6,5,1c0,0.3-2.9,16.6-3.3,16.7c-0.3,0.1-6-1.2-6-1.2l2.7-18.2L302.2,251.7z"></path> <polygon class="st1" points="300.5,254.7 301.8,252.5 301.3,253.6 306.5,254.5 303.9,267.7 299,266.8 298.7,262.8 "></polygon> <g> <path class="st13" d="M264,352.4c0,0.1,0,0.2,0,0.3C264,352.2,264,352,264,352.4z"></path> <path class="st13" d="M261.5,347.7c-2.9-2.1-3.4,0.6-3.4,0.6c1.1,10.6,5.2,12.2,5.7,9.3c0.3-1.8,0.3-3.9,0.2-4.9 c0-0.1,0-0.2,0-0.3c0-0.4,0-0.2,0,0.3c0.2,1.1,1.2,1.9,1.2,1.9C266.6,352.6,261.5,347.7,261.5,347.7z"></path> </g> <g> <g> <path class="st4" d="M315.6,292.8c-0.1-2.8-0.4-5.6-1-8.5c-0.5-2.6-1.3-5.2-2.9-7.4c-2.5-3.4-7-3.9-10.8-5.1 c-10.3-1.3-20.7-0.2-30.4,4.7c-21.9,11.8-23.5,39-22.7,44.9s9.9,28.1,9.9,28.1s-0.1-1.5,3.7-1.2c0,0-4-28.1-1.2-33.3 c2.8-5.2,10.5-15.9,10.7-14.3c0.2,1.6,6.6,34.2,6.6,34.2s15.2,9.2,28.7,0c0.9-0.6,1.6-4.4,1.9-5.4c0.8-2.2,1.5-4.4,2.2-6.6 C313.5,312.8,316,303,315.6,292.8z"></path> </g> </g> <g> <path class="st13" d="M299.2,248.6c-1.9-2.8-5.4-2.9-8.4-2.5c-3.7,0.5-6.6,3.2-7.1,7c0,0-1.5-1.7-2.6,2.5 c-1.1,4.2,1.9,5.9,3.2,5.9c0,0,0.1,3.9,1.9,5.9v5.2c5.1,3.4,8.3,0,8.3,0v-3.7c0.5-0.1,0.9-0.2,1.4-0.3c2.4-0.7,3.4-4.3,4.1-6.4 c0.1-0.3,0.2-0.6,0.3-0.9c0.8-2.8,0.9-5.7,0.5-8.5C300.4,251.2,300,249.8,299.2,248.6z"></path> </g> <g> <g> <path class="st3" d="M306.8,334.9c0,0-10.9,5-28.7,0c0,0-11.6,7-11.6,37.5c0,4.7-0.2,9.6,0.3,14.4c0.5,5.2,1.8,10.4,1.3,15.6 c-0.6,6-3.5,11.4-4.5,17.4c-0.9,5.3-1.6,10.7-2.1,16c-0.5,4.6-0.9,9.2-1.3,13.7c-0.1,0.8-0.9,6.7-0.3,7.3c0,0,2.2,3.2,6,0 c3.2-8.9,6.3-19.6,10.2-28.2c3.8-8.4,9-16.3,11.5-25.3c1.6-6,1.7-12.1,2-18.3c0.1-3.7-0.8-13.7,3.4-15.7 c1.6-0.8,6.2,16.5,11.6,26.5c5.4,10,5.2,8,5.8,14.8c0.6,6.8,8.2,36.2,15.6,46.2c0,0,3,2.6,6,0c0,0-2.9-47.7-3.9-57.9 C327,388.8,315.4,350.4,306.8,334.9z"></path> </g> </g> <g> <path class="st4" d="M331.8,456.9c0,0-3.2,2-6,0c0,0-0.7,4.3,0,7c0.7,2.7,1.9,0.8,6,1.9c4.1,1.1,9.2-1.1,8.3-3.1 C339.2,460.6,332,459.4,331.8,456.9z"></path> </g> <g> <path class="st4" d="M265.7,456.9c0,0-3.2,2-6,0c0,0-0.7,4.3,0,7c0.7,2.7,1.9,0.8,6,1.9c4.1,1.1,9.2-1.1,8.3-3.1 C273.1,460.6,265.9,459.4,265.7,456.9z"></path> </g> <g> <path class="st5" d="M306.5,243.4c1.2-1.5,0.2-1.2-1.5-2c-1.7-0.8-3.3,1.3-3.9,0.6c-0.6-0.7,0.8-4.6-1.9-2.6 c-2.7,2-4.1,1.4-7.2,0.1c-3.1-1.2-3.5,1.8-5.6,2c-1.1,0.1-2.7,1.2-3.9,3c-2.4,2-3.1,7.5-2,13.6c1.2,6.5,4,6.1,4,6.1 c-0.2-0.8-0.4-2.7-0.4-2.7c-4.6-1.3-2.6-6.6-2.6-6.6s0,0,0,0c0.1,0,0.3,0.1,0.5,0c0.5,0.1,1.2,0.5,1.7,1.8 c0.6,1.5,1.3-1.2,1.6-2.7c1.9-0.2,3.9,0,5-0.3c1.5-0.4,2.2-4.1,3.4-2.7c1.2,1.4,2,1.6,4,2.6c2,1,2.9,1.3,3,4.3 c0.1,1.7,1.9,0,1.9,0c1.1-0.8,0.5-3.8,0.9-5.3c0.4-1.5,2.2-0.5,3.1-2.2c0.9-1.7-1-2.2-2.1-3.5 C303.4,245.4,305.4,244.9,306.5,243.4z"></path> </g> <path class="st13" d="M304.4,256.9c0.9-0.9,3.4,1.5,3.9,2c1.9,2.2,4,7.7-0.4,8.7c-0.8,0.2-2.8-1.1-3-1.6 c-0.3-0.5,0.5-4.5,0.6-5.6c0.1-1-0.9-2-1.4-2.7C304,257.3,304.2,257,304.4,256.9z"></path> <path class="st4" d="M331,284c3.9,6.1,6.7,15.2,3.5,15.9c-2.3,0.5-7.5,0-11.6-0.9c-8.3-7.6-16.1-31.8-16.1-31.8l3.9-3.6 C310.7,263.7,327.1,277.9,331,284z"></path> <g> <path class="st1" d="M304.4,191.9h-6l-1.6,6.5h5.3v4.5h-6.5l-1.8,7h-4.6l1.8-7h-5l-1.8,7h-4.6l1.8-7h-5.1v-4.5h6.2l1.6-6.5h-5.6 v-4.5h6.7l1.7-6.8h4.6l-1.7,6.8h5l1.7-6.8h4.6l-1.7,6.8h4.8V191.9z M293.9,191.9h-5.1l-1.7,6.5h5.1L293.9,191.9z"></path> </g> </g> <g> <g> <g> <g> <path class="st4" d="M175.3,462.9c-2.3,0.3-7-2.8-7.7-2.9c-0.7-0.1-2.4-1.9-2.2-2.7c0.2-0.8-1.6-1.4-2-0.6 c-0.4,0.8-4.9-0.2-3.2-2.7c1.7-2.5,5.2-5.3,5.2-5.3c1.7,2.8,4.4,2.3,4.4,2.3s-0.3,2,0.3,4.4 C170.7,457.7,177.6,462.6,175.3,462.9z"></path> </g> <g> <path class="st18" d="M202.3,379.5c0,0,1.6,22.1-2.8,29.9c-4.4,7.7-30.9,42.6-30.9,42.6l-3.3-2.8c0,0,10.4-34,20.2-48.6 c0,0,1-19.2-2.2-23.1C183.3,377.6,189.2,377.1,202.3,379.5z"></path> </g> <g> <path class="st4" d="M172.9,461.6c-0.7,0.1-2.9-1.1-3-1.9c-0.1-0.8-1.9-0.8-2.1,0.1c-0.1,0.9-4.7,1.4-3.9-1.5 c0.9-2.9,3.3-6.7,3.3-6.7c2.5,2.1,4.9,0.7,4.9,0.7s0.4,2,1.6,4c1.2,2,9.4,4.5,7.3,5.5C179,462.9,173.6,461.5,172.9,461.6z"></path> </g> <g> <path class="st13" d="M172.5,275.9l-0.2-6.9l5.6,0.1l0.4,6.9C178.3,276,175.8,279.2,172.5,275.9z"></path> </g> <g> <path class="st13" d="M183.3,377.6c0,0,1,24.8-0.6,27.8c-1.6,3-11.1,41-10.6,47c0,0-1.8,2.5-5-0.5c0,0-4-39.2-1.2-47.4 c2.7-8.2-3.8-24-3.8-24S175.1,377.2,183.3,377.6z"></path> </g> <g> <g> <path class="st4" d="M159.2,329.9c3.9-10.9,10.2-15.7,11.2-17.1l16.2,0.2c5.3,4.3,12.2,17.5,14.2,29.8 c2.7,16.7,1.5,36.8,1.5,36.8s-16.1,0.3-40.3,0.9C162,380.5,154.7,342.1,159.2,329.9z"></path> </g> </g> <path class="st19" d="M178.3,256.8l-9.3,8.5c0,0,0.6,10.7,9.3,9.8c8.8-1,8.7-13.1,7.2-16.1 C184.1,255.9,178.3,256.8,178.3,256.8z"></path> <path class="st5" d="M187.9,255.8c-1.8-1.1-3.9-1.2-5.6-2.5c-0.2-0.1-0.5-0.2-0.8-0.4c-0.3-0.1-0.5-0.2-0.8-0.3 c-0.3-0.1-0.5-0.2-0.8-0.3c-0.2-0.1-0.4-0.1-0.6-0.2s-0.4-0.1-0.6-0.2c-2.6-1.1-5.6-0.8-7.8,0.9c-0.3,0.2-0.5,0.4-0.7,0.6 c-0.3,0.2-0.5,0.4-0.8,0.6c-0.6,0.5-1.1,1.1-1.4,1.8c-0.1,0.2-0.2,0.5-0.3,0.7c-0.3,0.5-0.4,1.1-0.6,1.7 c-0.1,0.3-0.1,0.6-0.1,0.9c-0.7,2.3-0.1,5.8,1.7,6.6c0.2,0.1,0.5,0.2,0.7,0.2c0.7,0,1.2-0.2,1.7-0.4c0.7-0.4,1.3-0.9,2-1.3 c0.3-0.1,0.5-0.3,0.7-0.5c1.6-1.4,2.7-3.9,4.9-4.6c2.2-0.7,4.5,1.6,5.5,3.5c0.5,0.9,0.7,4.7,2.8,4c2.5-0.8,1.9-5.1,2.2-7.1 C189.6,258.1,189.3,256.7,187.9,255.8z"></path> <path class="st8" d="M163.2,263.8c0.1,0.3,6,14.5,6.3,14.5c0.3,0,5.2-2.3,5.2-2.3l-5.9-14.5 C168.8,261.5,163.1,263.5,163.2,263.8z"></path> <polygon class="st1" points="164.2,265.3 169.2,276.8 173.9,274.9 169,263.3 "></polygon> <path class="st5" d="M160.8,244.6c-3.6,2.2-9.2,3.9-14.9-2.7c-5.8-6.5-13.3-7.5-19.6-6.4c-6.3,1.1-2.3,4.3,4.2,4.9 c6.5,0.5,7.8,14.1,14.8,16.1c3,0.9,6.3,0.2,9.2-0.7c1.9-0.6,3.6-1.5,5.4-2.1c2.8-0.9,5.7,0.5,8.6,0.1c0.8-0.1,1.6-0.4,2.2-0.8 c1.9-1.3,2.7-3.9,1.3-6.2C169.5,243,164.4,242.4,160.8,244.6z"></path> <path class="st19" d="M228.4,273.2c0,0,0,0-0.4-1.8c-0.4-1.8-12.8,23-15,23.2c-2.2,0.2-15.9-12.7-15.9-12.7l1.5,19.5 c0.1,1.2,14.9,4.8,16.5,4.8c3.6-0.1,6.4-12.7,7.3-15.5c1.4-4,2.7-8.1,4-12.2c0,0,0,0,1.6-0.8c1.6-0.8,8.3-6,7-7.1 C233.7,269.6,228.4,273.2,228.4,273.2z"></path> <path class="st3" d="M197.9,282.5c-1.8-1.9-18-4.2-18-4.2c-2.9,2.9-5.7,0-5.7,0s-9.6,1.3-9.6,1.4c-1.5,0.2-5.4,8-6.2,9.3 c-2.2,3.3-4.4,6.6-6.6,9.9c4.8-3.2,10.1-1.8,13.3,3c1.5,2.3,2.8,4.8,3.6,7.5c1,3.2,0.9,4.4,4.7,4.4c4.2,0,9,0.3,13.2-0.6 c-0.5,0.1,3.4-8.2,4.2-9c2.6-2.6,5.2-4.3,8.5-2.1c1.9-0.4,6-11.9,5.5-13.1C204.4,287.6,199.8,284.4,197.9,282.5z"></path> <path class="st19" d="M174.3,278.6c0,0,3.4,2.8,5.7,0v-5.4l-5.7,0.8V278.6z"></path> <path class="st19" d="M165.5,267.4c-1.7,2-0.7,8-1.7,9.2c-1.7,2-4.4,3.4-6.4,5c-4.8,3.5-10.9,8.1-13.1,13.8 c-0.9,2.3-1.2,6.3,1.7,7.5c3.6,1.5,5.2-3.1,6.7-5.1c0.2-0.3,14.6-20.1,15.7-20.6c1.1-0.5,0.7-6.4,0.7-8.4 C168.9,266.7,167.2,265.3,165.5,267.4z"></path> </g> <g class="st20"> <g> <path class="st3" d="M157,163.9c21.6,0,39.1,15.1,39.1,33.8c0,5.8-1.7,11.3-4.7,16.1l0,0.2c0,1,0.3,2,0.7,2.9l8,15.2 l-19.7-7.3c-6.5,4.2-14.7,6.8-23.5,6.8c-21.6,0-39.1-15.1-39.1-33.8C117.9,179,135.4,163.9,157,163.9z"></path> </g> </g> </g> <polygon class="st1" points="156.6,177 162.4,189 175.3,190.9 165.9,200.2 168.2,213.4 156.6,207.2 145,213.4 147.2,200.2 137.9,190.9 150.8,189 "></polygon> </g> <g> <g> <g> <path class="st4" d="M433.7,320c0,0,1.8,2.2,15.9,2.7c0,0,16.6,11.6,19.8,38.9c3.2,27.3,21.2,93.5,21.2,93.5h-3.8 c0,0-20.8-29.2-25.8-53.7c-5.1-24.6-15.3-46.3-19.1-47.6c-3.8-1.4-23.9,77.5-27.1,101.4h-3.9c0,0-5.7-29.8,0.6-56.4 C417.8,372,404,344.6,433.7,320z"></path> </g> </g> <g> <g> <path class="st3" d="M395.7,298.7c0,0,0.6-0.6,9.3-10.5c8.7-9.9,4.7-8.5,12.3-12.1c7.6-3.6,25.3-3.9,32.7-3.2 c7.4,0.6,17.5,6.3,17.5,6.3l-24.9-18l1.9-3.2c0,0,42.9,17.7,41.1,31.3c-0.9,6.3-28.4,2.9-28.4,2.9s-2,8.4-3,14.8 c-1.3,4.6-3.5,10.9-4.7,15.5c-5.1,6.7-14.3,3.2-16.7,1.2c-1.4-1.1-2.2-3.2-3-4.8c-1.9-4-4-15.7-7.6-18.6 c-0.4-0.3-0.7-0.5-1.1-0.6c-0.1-0.1-0.2-0.2-0.3-0.2c-3.1-1.9-21.1,11.1-23.6,11.1c-2.5,0-42.2-16.4-42.2-16.4l2.8-2.2 L395.7,298.7z"></path> </g> </g> <g> <polygon class="st8" points="450.7,263.4 442.7,268.2 436.7,257 442.4,250.2 "></polygon> </g> <g> <polygon class="st1" points="449,262.4 442.9,266.1 438.4,257.5 442.7,252.3 "></polygon> </g> <g> <path class="st15" d="M432.8,247.5c2.9-0.3,5.7,0.7,7.3,3.8c2.5,4.9,3.1,16.3-3.3,18.8C424.8,274.9,418,249.2,432.8,247.5z"></path> </g> <g> <path class="st15" d="M438.2,274.6c0,0-2.2,3.1-6.3,0v-7.2l6.3-0.9V274.6z"></path> </g> <g> <path class="st15" d="M343.8,284.2c0.4-0.7,1.5,1.2,1.5,0.5s0.3-0.7,1.5,0.7c1.2,1.4,5.6,3.2,4.7,1.7c-0.9-1.4-0.8-1.7-0.8-1.7 s2.4,1.3,4.1,2c1.7,0.7,2.8,4.5,2.8,4.5c-0.5,3.5-2.8,2.2-2.8,2.2c-5,1.5-10.8-6.4-10.8-7s2.2,1.6,1.4,0.6 C344.5,286.7,343.4,284.9,343.8,284.2z"></path> </g> <g> <path class="st5" d="M389.3,257.5c10.8-9.4,14.3-11.7,21.5-10.3c7.2,1.3,14.3-5.8,22.4-3.6c8.1,2.2,11.2,5.8,10.3,13.5 c-0.9,7.6-2.8,8.8-2.8,8.8s1-3.4-0.4-7c0,0,0.4-0.4-2.7-2.2c-3.1-1.8-6.3-3.1-6.7-5.8c0,0-1.3-0.4-1.3,1.8c0,2.2,1.4,8-3.8,11.9 c0,0,1,4.1,6.2,6c0,0,0.3,4.1-0.2,4.6c-0.4,0.4-10.8,0.4-13.9,3.6c-3.1,3.1-10.8-8.1-17.9-3.1c-7.2,4.9-22.9,13-35,3.6 c-12.1-9.4-15.2-12.6-8.5-20.2C363.3,251.2,378.5,266.9,389.3,257.5z"></path> </g> <g> <path class="st4" d="M490.6,455.1c0,0,1.5,3.8,3,4.7c1.5,0.9,4.7-0.2,2.3,0.1c-2.4,0.3-9.9,0-9.9,0s-0.6-2.9,0.8-4.8H490.6z"></path> </g> <g> <path class="st4" d="M414.6,455.1c0,0,3.8,1.7,5.3,2.6c1.5,0.9,2.4,1.9,0,2.2c-2.4,0.3-9.9,0-9.9,0s-0.6-2.9,0.8-4.8H414.6z"></path> </g> </g> <g> <g> <rect x="713.4" y="119.7" transform="matrix(0.8603 -0.5097 0.5097 0.8603 41.663 392.4266)" class="st5" width="47.1" height="1"></rect> </g> <g> <rect x="747" y="135.6" transform="matrix(0.1169 -0.9931 0.9931 0.1169 501.9705 882.8967)" class="st5" width="1" height="47.1"></rect> </g> <g> <rect x="726.9" y="139.2" transform="matrix(0.9785 -0.206 0.206 0.9785 -12.679 157.5971)" class="st5" width="47.1" height="1"></rect> </g> </g> </g> <g> <g> <g> <g> <g> <ellipse class="st3" cx="44.7" cy="198.5" rx="36.1" ry="26.8"></ellipse> <path class="st3" d="M79,232.9c0,3.8-4.1,6.9-9.2,6.9c-5.1,0-9.2-3.1-9.2-6.9c0-3.8,4.1-6.9,9.2-6.9 C74.8,226,79,229.1,79,232.9z"></path> <path class="st3" d="M89.1,244.8c0,2.3-2.6,4.3-5.7,4.3c-3.2,0-5.7-1.9-5.7-4.3c0-2.4,2.6-4.3,5.7-4.3 C86.5,240.5,89.1,242.4,89.1,244.8z"></path> </g> </g> </g> <g> <g> <path class="st5" d="M36.4,257.3c1.3-0.6,4.5-5.6,7.9-4.5c3.4,1.1,2.6,2.8,5.9,1.6c3.3-1.3,7.2,2,8,3.8c0.8,1.7-1.5,6.8-2,6.3 c-0.5-0.5-13.2,11.1-13.2,11.1s-3.4,2.2-6.1-1.3c-2.7-3.4-4.4-2.7-5.2-5c-0.8-2.2,0.8-6.3,1.9-7.2 C34.7,261,35.1,257.9,36.4,257.3z"></path> </g> <g> <g> <path class="st4" d="M17.2,364.6c0.8-16.7,10.9-32.1,10.9-32.1c4.6-0.3,35.6,1.2,35.6,1.2s11.3,62.7,11.8,67.7 s-8.7,51.8-8.7,51.8h-6.2c-3.9-23-1.3-49.4-1.3-49.4c-2-9.4-12.8-45.7-14.9-39.9c-2.1,5.9-8.6,38.8-10.3,42.1 c-3.5,7.1-20.4,47.2-20.4,47.2H7.4c1.8-36.3,10.8-47.7,10.8-52.3C18.2,396.3,16.4,381.4,17.2,364.6z"></path> </g> </g> <g> <path class="st3" d="M25.3,305.4c-0.7-2.1,11.2-21.4,8.6-21.5c5.1-3.2,11.1-5.3,17-5.3c14.5-0.1,25.3,1.4,28.4,0 c3.1-1.4-19.4-5.5-19.4-5.5l-0.4-2.7c0,0,28.9,0.2,34.2,4.6c5,4.2,4.3,12.4-4.4,14.9c-18.2,5.2-16.3,5-18.6,12 c-1.6,4.8-7.2,31.7-7.2,31.7s-16.7,7.3-34.8-0.9L25.3,305.4z"></path> </g> <g> <path class="st19" d="M43.1,272.7c2.5-0.8,5-1.1,5.5-4.9c0.5-3.8,2.1-4.4,3.5-6.1c1.3-1.7,0.3-2.5,0.3-2.5s7.7,6,9.3,11.8 c1.6,5.8-6.8,6.8-9.3,6.8c-2.5,0-2.5-2-5.4,0C44.2,279.7,40.6,273.4,43.1,272.7z"></path> </g> <g> <path class="st19" d="M55,279.6c0,1.2-1.1,2.2-2.5,2.2c-1.4,0-2.5-1-2.5-2.2v-3.4H55V279.6z"></path> </g> <g> <g> <path class="st4" d="M13.6,453.2c3.3,2.4,5.1,2.3,7.1,4c0.8,0.7,0.3,2.1-0.8,2.1H7.4c-2.6-1.5,0-6.1,0-6.1H13.6z"></path> </g> </g> <g> <g> <path class="st4" d="M66.6,453.2c3.3,2.4,5.1,2.3,7.1,4c0.8,0.7,0.3,2.1-0.8,2.1H60.7c-2.6-1.5,0-6.1,0-6.1H66.6z"></path> </g> </g> <path class="st5" d="M47.5,266.6c0,0,1.2,5.1,0,5.9c-1.2,0.9-3.8-0.9-4.2,1.3c-0.4,2.3,6.6,3.1,6.6,3.1v1.7c0,0-6,1.6-7.7,0.3 c-1.7-1.2,1.1,0.1-1.7-1.2c-2.8-1.3-5-2.6-4.6-4.7c0.3-2.1,3.4-6.1,3.7-6.4C39.9,266.3,47.5,266.6,47.5,266.6z"></path> <g> <path class="st3" d="M18.3,311.7c1.5-7,3.6-13.9,7.5-20.2c0.8-1.2,1.6-2.4,2.6-3.3c1.7-1.6,3.5-3.1,5.5-4.3 c2.5,0.1,4.4,1.6,5.1,3.8c6.2,14.3-9.8,25-8.9,38.3c0.3,4.2,1.4,7.7,2.7,12.6c2.3,7.9,4.1,11,2.2,12.4 c-1.1,0.8-1.7,0.5-2.7-0.1c-2.3-1.4-5.4-6.3-7-8.5c-2.5-3.3-5.2-8.1-6.9-11.9C15.3,323.7,16.9,318.6,18.3,311.7z"></path> <path class="st3" d="M32.3,351.1c-1.8-1.1-3.9-4.1-5.7-6.6c-0.5-0.8-1-1.4-1.4-2c-2.3-3-5-7.7-7-12c-2.8-6.3-1.8-11.1-0.5-17.2 c0.1-0.5,0.2-1.1,0.4-1.7c1.8-8.3,4.2-14.8,7.5-20.3c0.8-1.3,1.7-2.4,2.6-3.4c1.6-1.6,3.5-3.1,5.6-4.4l0.1,0l0.1,0 c2.5,0.1,4.5,1.6,5.3,3.9c3.6,8.2-0.1,15.3-3.8,22.2c-2.7,5.2-5.5,10.5-5.1,16.2c0.3,3.9,1.2,7.2,2.4,11.5l0.3,1 c0.6,2,1.1,3.7,1.6,5.2c1.4,4.2,2.1,6.4,0.5,7.5c-0.5,0.4-0.9,0.5-1.3,0.5C33.3,351.7,32.8,351.4,32.3,351.1z M28.6,288.4 c-0.9,0.9-1.8,2-2.6,3.3c-3.3,5.4-5.7,11.8-7.4,20.1l0,0c-0.1,0.6-0.2,1.1-0.4,1.7c-1.3,6-2.3,10.8,0.4,17 c1.9,4.2,4.6,8.9,6.9,11.9c0.4,0.5,0.9,1.2,1.4,2c1.6,2.3,3.8,5.4,5.5,6.4c0.9,0.5,1.4,0.8,2.4,0.1c1.3-0.9,0.7-2.8-0.6-7 c-0.5-1.5-1-3.2-1.6-5.2l-0.3-1c-1.2-4.3-2.2-7.6-2.5-11.6c-0.4-5.8,2.4-11.2,5.2-16.4c3.6-6.8,7.3-13.8,3.7-21.8 c-0.7-2.2-2.6-3.5-4.9-3.6C32,285.4,30.2,286.8,28.6,288.4z"></path> </g> <path class="st19" d="M33.1,350.4c0.6-0.4,1.3-0.8,1.9-1.3c0.3-0.3,0.6-0.6,0.8-0.9c0.8,0.3,1.7,0.8,2.5,1.4 c2.4,1.8,3.5,4.3,2.2,3.7c-1.3-0.6-2.7-2.4-3.9-2.3c-1.2,0.1,1.8,6.7,2.6,7.1c0.8,0.5,1.3,2.2-1.1,1.3c-2.4-0.9-5.9-6.6-6.2-8.7 c0,0,0-0.1,0-0.1C32.4,350.7,32.8,350.6,33.1,350.4z"></path> </g> </g> <path class="st1" d="M32.4,193.3c2.6-8.5,10.6-0.7,11.5,0.7c0.9-1.5,9.3-8.1,11.5-0.7c2.5,8.5-11.3,18.4-11.4,18.6v0.1 c0,0,0,0-0.1-0.1c-0.1,0-0.1,0.1-0.1,0.1v-0.1C41.9,210.9,30.2,200.5,32.4,193.3z"></path> </g> </g> </svg> 