<?xml version="1.0" encoding="UTF-8"?> <!-- Generator: Adobe Illustrator 23.1.0, SVG Export Plug-In . SVG Version: 6.00 Build 0) --> <svg xmlns="http://www.w3.org/2000/svg" xmlns:xlink="http://www.w3.org/1999/xlink" id="Layer_1" x="0px" y="0px" viewBox="0 0 1380.4 899.9" style="enable-background:new 0 0 1380.4 899.9;" xml:space="preserve"> <style type="text/css"> .st0{fill:#00BDC7;} .st1{fill:#3B639F;} .st2{fill:#41B792;} .st3{clip-path:url(#SVGID_2_);fill:#41B792;} .st4{fill:#4AD6AE;} .st5{fill:#FFFFFF;} .st6{fill:#3F91AC;} .st7{fill:#F8A17A;} .st8{fill:#E5785C;} .st9{opacity:0.2;fill:#FFFFFF;} .st10{fill:#00CECE;} .st11{clip-path:url(#SVGID_4_);} .st12{fill:none;stroke:#41B792;stroke-width:5;stroke-miterlimit:10;} .st13{clip-path:url(#SVGID_6_);} .st14{fill:none;stroke:#4AD6AE;stroke-width:5;stroke-miterlimit:10;} .st15{fill:#233C67;} .st16{opacity:0.5;fill:#4AD6AE;} .st17{fill:none;stroke:#FFFFFF;stroke-width:4;stroke-miterlimit:10;} .st18{opacity:0.5;} </style> <g> <g> <path class="st0" d="M543.1,329.4c-24.3,25-2.3,86.2,36.5,77.3c41.7-9.5,35.4-74.5-2.3-85.1C562.6,317.4,550.9,321.3,543.1,329.4z "></path> <path class="st1" d="M736.4,410.1c-9.3,9-20,15.9-32.8,18.8c-24.3,5.6-47.1-5.1-67.4-17.5c-21.7-13.2-43.2-26.5-63.7-41.5 c-14.6-10.7-29.6-22.2-38.6-38.2c-10.5-18.6-11.2-41-9-61.8c1.5-14.2-5.1-26.9-8.1-40.4c-5.7-26.3,0.1-57.4,24.7-72.5 c12.5-7.7,25.7-6.6,38.8-0.9c10.1,4.3,19.5,10.4,30.1,13.4c22.5,6.4,47-2.4,69-7c16-3.3,33.5-5,49.2,0.3 c17.5,5.9,25.9,18.7,35.5,33.6c8.2,12.7,20.6,22.3,30.5,33.6c13.3,15.1,17.3,34.3,12.8,53.8c-6.5,28.6-23,53.2-37.3,78.3 C761.1,378.1,750.4,396.4,736.4,410.1z"></path> <path class="st2" d="M555.6,681.8c29.2-44.9,47.3-100.1,22-150.9c-2.6-5.1-5.7-10.8-11.1-12.6c-11.7-3.9-27.7,0.3-37.9,6.3 c-35.4,20.8-57.1,59.8-76.9,94.6c-20.7,36.1-38.6,73.7-59.4,109.8c-8.4,14.6-16.9,29.4-21.4,45.6c-4,14.2-4.4,30.5,1,44.4 c23.3,60.2,87.4-13.5,106.9-35.8C506.6,751.6,532.6,717.3,555.6,681.8z"></path> <path class="st1" d="M700.9,409.3c-3.1,3.3-6.8,6.1-10.9,8.2c-10.6,5.3-23.4,5-34.7,1.5c-11.3-3.5-21.5-9.9-31.2-16.8 c-26.2-18.5-58.6-43-74.2-71.5c-9.6-17.5-16.7-38.3-7.5-57.4c7.9-16.5,24-28.6,42.3-30.3c1.5-0.1,3.1-0.2,4.4,0.4 c1.5,0.7,2.5,2.3,3.4,3.7c6.6,10.9,11.9,22.7,20,32.7c8.8,10.8,19.7,18.9,31.6,26.1c19.2,11.7,40.3,20.3,58.4,33.6 c13.1,9.6,13.4,31.4,10.2,46.4C711,394.6,706.9,402.9,700.9,409.3z"></path> <g> <defs> <path id="SVGID_1_" d="M847.6,624.3c9.2-33.7,14-68.2-6.9-91.2c-9.5-10.4-26.3-17.6-40.1-22.7c-26.9-10-54.4-23.5-83.1-27.9 c-30.3-4.6-64.1-7.4-94.3-0.9c-19.2,4.2-37.2,11.9-54.3,20.3c-23,11.2-39.5,18.7-46.9,41.8c-8.2,25.6-13.2,51.8-16,78.2 c-8.1,77.3,2.6,154.8,2.4,232.1c0,7.6,0.1,15.5,4,22.3c7.6,13.5,28.3,13.7,43.2,13.6c49.1-0.1,98.2-0.1,147.3-0.2 c20.4,0,36,2.1,55.2,5.5c16.1,2.9,30-4.2,37.7-17.1c7.3-12.3,7.9-26.6,8.7-40.4c3.1-53.6,11.9-107,26.3-159.2 C834.8,663.9,842,644.6,847.6,624.3z"></path> </defs> <use xlink:href="#SVGID_1_" style="overflow:visible;fill:#4AD6AE;"></use> <clipPath id="SVGID_2_"> <use xlink:href="#SVGID_1_" style="overflow:visible;"></use> </clipPath> <path class="st3" d="M728.8,526.2c10.4-16.8,12.8-37.7-0.9-53.9c-6.2-7.4-17.2-8.2-26.7-8.4c-18.5-0.3-37.1,1.6-55.2,5.6 c-17.2,3.9-34.7,10.4-42.2,27.1c-5.5,12.4-3.6,26.7,3.7,38c6.6,10.3,17.6,17.9,29.9,20.7c19.8,4.5,43,3.9,61.9-3.7 C711.2,546.8,721.8,537.4,728.8,526.2z"></path> <path class="st3" d="M535.9,887.2c19.8,9.3,41.4,14,62.9,17.6c60.3,10.1,121.8,12.2,182.9,9.3c13.1-0.6,27.2-1.9,36.9-10.8 c7.2-6.6,10.5-16.3,12.9-25.7c8.2-32.1,8.1-65.7,7.9-98.8c-0.1-25.9-0.3-51.7-0.4-77.6c0-9,5.8-63.8-8.2-63.2 c-1.5,0.1-2.9,0.8-4.1,1.7c-7,5-10.5,13.3-13.8,21.3c-10.2,24.8-18.8,64.6-40,82c-22.3,18.3-48,26.8-75.1,35.5 c-46.9,15.2-99.2,21.8-138.9,53c-6.6,5.2-12.9,11-19,16.8c-5.5,5.2-13.1,10.6-16.4,17.9C518.3,877.6,526.4,882.8,535.9,887.2z"></path> </g> <path class="st4" d="M953.3,704.6c7.5,13.5,14.9,26.9,22.1,40.5c14.8,27.5,42.2,88.7-1.7,103.8c-22.1,7.6-34.8,0.2-49.4-15.9 C869,772,821.9,703.6,784.5,630.3c-13.9-27.3-50.8-98.4-6-114.7c14.2-5.1,30.5-3.9,43.8,3.2c6.1,3.3,11.4,7.7,16.6,12.2 c32.4,28.9,55.4,66.1,75.9,103.9C927.5,658.4,940.5,681.5,953.3,704.6z"></path> <path class="st4" d="M729.6,803.3c3.9-0.7,7.7-1.3,11.6-1.9c18.8-2.9,37.6-6.4,56.3-10.4c37-7.9,74.1-14.7,111.8-18.3 c4-0.4,8-0.7,12-1c16.9-1.3,34.5-1.7,50,6.1c15.4,7.9,27.7,26.5,23.9,44.5c-2.7,12.6-12.6,22.2-23.6,27c-11,4.8-23.1,5.7-34.9,6.5 c-38.4,2.6-76.8,5.2-115.2,7.8c-19,1.3-38,2.6-57.1,3.9c-18.2,1.3-36.6,3.8-54.8,3.8c-7.7,0-16.3-1.4-22.8-6.4 c-9-7-14.4-21.8-15.2-33.5c-0.4-6,0.8-13.4,5.5-17.1c2.5-2,5.8-2.6,8.9-3.2C700.5,808.6,715,805.8,729.6,803.3z"></path> <g> <rect x="398.8" y="817" class="st0" width="182.1" height="35.7"></rect> <path class="st0" d="M430,820.4l-46-234c-1.2-6.2-6.6-10.6-12.9-10.6H65.5c-4.4,0-8.2,2.2-10.6,5.4l0,0l-14.1,16.7l12.5-2.7 l45.3,230.4c1.2,6.2,6.6,10.6,12.9,10.6h305.6C425.4,836.1,431.6,828.6,430,820.4z"></path> <path class="st5" d="M97.5,852.6h305.6c8.3,0,14.5-7.6,12.9-15.7l-46-234c-1.2-6.2-6.6-10.6-12.9-10.6H51.6 c-8.3,0-14.5,7.6-12.9,15.7l46,234C85.8,848.2,91.2,852.6,97.5,852.6z"></path> <path class="st0" d="M193.7,716.6c2.8,15.8,17.9,28.6,33.7,28.6s26.1-12.8,23.1-28.6c-3-15.8-18.1-28.6-33.7-28.6 S190.8,700.8,193.7,716.6z"></path> <path class="st6" d="M38.4,603.1"></path> </g> <path class="st7" d="M686.2,860.6c-9.1,1.9-16.2,9.8-25.2,12.5c-6.4,1.9-13.4,0.9-19.5-1.4c-5.7-2.1-11.5-3.3-17.3-5.2 c-4.6-1.5-10.7-4.5-15.6-3.5c-12.8,2.7-25.6,11.8-37.3,17.7c-2.6,1.3-5.5,2.7-8.4,2.2c-2.9-0.5-5.3-4-3.6-6.5 c-3.3,3.1-7.8,9.4-13.2,7c-2.2-1-3.5-3.9-2.3-6c-1.9,2-3.8,4.1-6.4,5.1c-2.6,1-5.9,0.6-7.4-1.7c-0.7-1.1-0.9-2.4-1-3.7 c-0.2-4.5,1.1-8.9,3-12.9c9.2-20,29.9-34.8,47.5-46.7c3.1-2.1,6.3-4.2,9.9-5.3c3.2-1,6.6-1.1,10-1.1c21.9-0.1,43.7,3.4,64.5,10.4 c4.5,1.5,9.4,0.2,13.9-0.6c3.3-0.6,6.8-1.2,10-0.3c3.6,1.1,6.4,3.9,8.6,7c4.1,5.6,7.1,13.1,6.7,20.1c-0.4,5.4-0.8,11.1-7.1,12.3 c-2.6,0.5-5.2,0.2-7.8,0.4C687.4,860.4,686.8,860.5,686.2,860.6z"></path> <path class="st7" d="M690.1,537.3c13.4-4.3,24.4-12.6,28.5-25.8c3.7-12-2.2-25.5-3.2-37.5c-1-11.6-1.1-23.2-0.4-34.8 c0.7-10.7,1.7-21.9,0.1-32.6c-0.9-6.1-4.3-5.1-10.5-7.5c-6.2-2.4-13.1-2.4-19.8-2.4c-13.8,0-49.6-1-58.1,11.1 c-3.9,5.5-4.2,12.5-4.4,19.1c-0.2,8-1.6,18.3-2.9,29.4c-0.6,4.9-0.2,9.9-1,14.8c-0.8,5.5-2.9,10.8-4.8,16 c-6.9,19.9-0.4,38.9,21.1,48C650.1,541.5,672.2,543,690.1,537.3z"></path> <path class="st8" d="M715,406.5c-0.9-6.1-4.3-5.1-10.5-7.5c-6.2-2.4-13.1-2.4-19.8-2.4c-13.8,0-49.6-1-58.1,11.1 c-3.9,5.5-4.2,12.5-4.4,19.1c-0.2,8-1.6,18.3-2.9,29.4c-0.6,4.9-0.2,9.9-1,14.8c-0.6,4.2-2,8.2-3.4,12.3c13.3,5,28.4,6.1,42.3,2.6 c25.1-6.2,44-21.8,57.6-42c0.1-1.6,0.1-3.2,0.2-4.7C715.6,428.4,716.6,417.2,715,406.5z"></path> <path class="st7" d="M734.9,328c-0.1-18.4-2.6-35.8-7.4-50.2c-20.4-62.4-98.2-77.8-145.1-33c-52.3,50-32.3,169.4,22.8,211.4 c14.7,11.2,34.7,15.2,52.6,10.4C711.9,451.9,735.3,385.4,734.9,328z"></path> <path class="st1" d="M686.3,317.7c2.5,6.3,4,13.3,5.3,20c3,14.7,3.2,29.7,3.2,44.7c0,1.5,0.1,3.2,1,4.4c0.9,1.1,2.5,1.6,4,1.7 c8.6,0.9,13.8-6.8,21-10.2c7.5-3.6,15.1-7.3,21.6-12.4c18.7-14.6,14.4-38.8,13.8-60.2c-0.3-11.8-0.7-23.7-4.1-35 c-3.8-12.3-11.1-23.3-19.9-32.7c-25.2-27.2-63.4-41.4-100.2-39.1c-18.3,1.2-38.9,8.9-51.9,22c-11.2,11.3,2.5,26.7,11.7,34.1 c18,14.3,38.2,26,59.6,34.6c9.2,3.7,19,7,26,14C681.4,307.6,684.2,312.4,686.3,317.7z"></path> <path class="st7" d="M724.7,329.5c24-13.1,31.3,20.1,27.2,36.6c-1.7,6.8-4.4,13.5-8.6,19.1c-5.7,7.6-22,20.1-31.4,11.8 c-4.3-3.7-4.7-10.1-4.8-15.8C706.7,366,708.5,338.4,724.7,329.5z"></path> <g> <g> <g> <path class="st5" d="M1070.8,712.9c3.4-7,2.8-14.3,0.6-20.9c-2-6.8-5.7-12.6-9.6-19c-4-6.3-8.1-13.2-10.5-21.4 c-2.5-8.4-1.8-17.7,0.5-25.7c5-16.2,15.3-28.1,22.4-40.3c3.5-6.2,6.5-12.4,7.6-19.4c1.3-6.9,0.8-14.2-2.5-21.1 c5.8,5.1,8.7,13.4,9.1,21.4c0.4,8.1-1.7,16.4-4.8,23.6c-6.1,14.7-15.4,26.6-18.9,39.5c-2,6.4-2.5,12.6-1.1,18.8 c1.2,6.3,4.5,12.7,7.5,19.7c3.2,6.8,6.2,14.6,6.9,22.7C1078.5,698.7,1076.7,707.7,1070.8,712.9z"></path> </g> </g> <g> <g> <path class="st4" d="M1094.4,851.9h-40.8c-13.8,0-25-11.2-25-25V721.8h90.8v105.1C1119.4,840.7,1108.2,851.9,1094.4,851.9z"></path> <path class="st4" d="M1125.7,751.2c-21.8,0-39.4,17.9-39.4,40c0,22.1,17.7,40,39.4,40c21.8,0,39.4-17.9,39.4-40 C1165.1,769.1,1147.5,751.2,1125.7,751.2z M1125.7,817c-14,0-25.4-11.5-25.4-25.7s11.4-25.7,25.4-25.7 c14,0,25.4,11.5,25.4,25.7S1139.7,817,1125.7,817z"></path> <path class="st9" d="M1042.1,802.5L1042.1,802.5c-2.7,0-4.9-2.2-4.9-4.9v-63.3c0-2.7,2.2-4.9,4.9-4.9l0,0 c2.7,0,4.9,2.2,4.9,4.9v63.3C1047,800.3,1044.8,802.5,1042.1,802.5z"></path> <path class="st2" d="M1098.4,721.8v107.1c0,12.7-10.3,23-23,23h21c12.7,0,23-10.3,23-23V721.8H1098.4z"></path> </g> </g> </g> <g> <path class="st0" d="M646.7,438.8c-5.9,0-11.8-0.4-17.7-1.3l1.1-7.2c21.5,3.2,42.9,0.2,62-8.7c5.2-2.4,9.6-4.9,13.4-7.7 c7-5.1,13-11.7,17.4-19.2l6.3,3.7c-4.9,8.3-11.6,15.7-19.4,21.4c-4.2,3.1-9,5.8-14.6,8.4C680,435.2,663.5,438.8,646.7,438.8z"></path> </g> <g> <path class="st0" d="M608,424.6c8.8-7.5,28.2-6.9,34.7,0.9c4.8,5.8,3.3,13.1-1.9,18c-6.2,5.8-13.9,5.4-21.6,3.7 C609.4,445,597.4,433.6,608,424.6z"></path> </g> <path class="st10" d="M734.8,320.1c-33.8,8.7-46.9,72.4-9.2,85c40.5,13.6,69.1-45.1,42.5-73.8 C757.7,320.1,745.6,317.3,734.8,320.1z"></path> <path class="st0" d="M745.8,328.3c-23.3,3.7-37.7,53.3-13.7,67c25.8,14.7,50.1-29.5,34.9-54.9 C761.1,330.4,753.3,327.1,745.8,328.3z"></path> <g> <path class="st10" d="M750.5,324.6l-9-1c6.1-52.9,3.5-120.4-43.6-142c-22.3-10.2-42.7-17.5-79-10.4c-5.3-0.7-9.4-2.7-9.4-2.7 c32.8-16,68.1-6.2,92.2,4.8C753.8,197.1,757,268.7,750.5,324.6z"></path> </g> <g> <path class="st0" d="M885.1,269.3h290.1c22.6,0,41-18.4,41-41V84.3c0-22.5-18.4-41-41-41H885.1c-22.5,0-41,18.5-41,41v143.9 C844.1,250.8,862.6,269.3,885.1,269.3z"></path> <polygon class="st0" points="893.1,328.7 893.1,224.9 974.4,269.3 "></polygon> <path class="st5" d="M1076,166.5H909.8c-5,0-9-4.1-9-9v-1.7c0-4.9,4-9,9-9H1076c4.9,0,9,4.1,9,9v1.7 C1085,162.4,1080.9,166.5,1076,166.5z"></path> <path class="st5" d="M1150.5,166.5h-42.4c-5,0-9-4.1-9-9v-1.7c0-4.9,4-9,9-9h42.4c4.9,0,9,4.1,9,9v1.7 C1159.5,162.4,1155.5,166.5,1150.5,166.5z"></path> <path class="st5" d="M984.3,102h166.2c4.9,0,9,4.1,9,9v1.7c0,4.9-4.1,9-9,9H984.3c-5,0-9-4.1-9-9V111 C975.3,106,979.4,102,984.3,102z"></path> <path class="st5" d="M909.8,102h42.4c5,0,9,4.1,9,9v1.7c0,4.9-4,9-9,9h-42.4c-5,0-9-4.1-9-9V111C900.8,106,904.8,102,909.8,102z"></path> <path class="st5" d="M1021.1,207.4H909.8c-5,0-9-4.1-9-9v-1.7c0-4.9,4-9,9-9h111.4c5,0,9,4.1,9,9v1.7 C1030.1,203.3,1026.1,207.4,1021.1,207.4z"></path> </g> <g> <g> <defs> <path id="SVGID_3_" d="M1200.9,333.3c-8.3,0-16.4-1.1-22.1-9.3c-11.2-16-28.3-30.4-47.5-14.1c-11.1,9.4-2.7,28.8-12.3,38.1 c-8.4,8.2-19.1,6.9-23.4,20.5c-6.3,20.1,13.6,37.7,20,55.1c5.4,14.6-6.7,20.2-12.2,31.5c-4.2,8.8-2,18.2,2.5,26.5 c8.1,14.8,25.9,26.7,21.8,45.8c-3.5,16-6.7,30.2,7.4,42.3c9.7,8.3,27.6,15.9,26.2,31.2c-0.5,5.4-4.2,10.1-5.3,15.4 c-1.6,8.5,3.9,16.7,10.2,22.5c14.5,13.2,27.3,25.7,38.1,42.4c4.6,7.1,23.2,23.2,15.8,32.9c13.5-17.7,27.8-34.8,40.1-53.4 c10.1-15.3,25.3-37.7,15-56.5c-3.2-5.9-9.2-10.2-10.9-16.7c-3-11.7,8.5-22.6,12.8-32.5c6.7-15.6,1.8-33.8-10-45.5 c-5.6-5.6-11.7-11.7-12.5-19.5c-0.9-8.6,4.5-16.5,6.9-24.4c2.2-7.3,3.6-15,4.5-22.6c0.6-5.3,0.8-10.8-0.5-16 c-2.4-9.9-11.3-15.5-18-22.5c-15.8-16.8-7.5-36.5-14.4-56C1227.2,331,1213.7,333.3,1200.9,333.3z"></path> </defs> <use xlink:href="#SVGID_3_" style="overflow:visible;fill:#4AD6AE;"></use> <clipPath id="SVGID_4_"> <use xlink:href="#SVGID_3_" style="overflow:visible;"></use> </clipPath> <g class="st11"> <path class="st12" d="M1222,734.2c5.9-67.1,0.5-134.7-11.9-200.7c-11.8-63-27.3-126.2-50.9-186c-7.8-19.7-16.5-39.1-26.4-57.9"></path> <path class="st12" d="M1079.9,379.5c33,11.7,64.5,27.6,93.4,47.4c7.3,5,11.4,6.5,17.5,13"></path> <path class="st12" d="M1206.5,511.7c-31.7-20.5-67.6-34.3-104.8-40.5"></path> <path class="st12" d="M1219,598.3c-29.5-25.6-65.4-43.6-103.5-52"></path> <path class="st12" d="M1189.2,437.7c2.3-35.5,11.1-70.5,25.9-102.9"></path> <path class="st12" d="M1206.1,508.8c15-32.1,36.6-61,63.2-84.4"></path> <path class="st12" d="M1220.9,600.7c2.1-9.9,5.7-19.5,10.7-28.3c5.8-10.2,13.5-19.3,21.2-28.1c5.6-6.4,11.3-12.6,17.1-18.8"></path> </g> </g> <g> <defs> <path id="SVGID_5_" d="M1303.2,455.5c6.1,1.1,12.1,1.5,17.3-3.7c10.3-10.1,24.7-18.2,36.4-3.7c6.7,8.4-2,21.2,3.6,29.3 c5,7.1,12.9,7.6,14.2,18.1c1.8,15.5-15.1,25.5-22.2,37.2c-5.9,9.8,2.1,15.5,4.5,24.5c1.8,6.9-1,13.5-5.5,18.9 c-7.9,9.6-22.5,15.8-22.1,30.2c0.3,12.1,0.7,22.8-11.2,29.7c-8.2,4.7-22.2,7.7-23.3,19c-0.4,4,1.7,7.9,1.7,11.9 c0,6.4-5.1,11.6-10.5,14.9c-12.4,7.6-23.3,14.9-33.5,25.5c-4.4,4.5-20.1,13.6-16,21.7c-7.4-14.7-15.3-29.1-21.7-44.3 c-5.2-12.5-13.1-30.8-3-43.1c3.1-3.8,8.1-6.1,10.2-10.6c3.8-8.1-3.1-17.5-4.8-25.4c-2.7-12.3,3.4-24.8,13.6-31.6 c4.8-3.3,10.1-6.8,11.8-12.4c1.8-6.1-1-12.6-1.6-18.7c-0.6-5.6-0.6-11.4-0.1-17c0.3-4,0.9-7.9,2.5-11.6 c3.1-6.9,10.4-9.6,16.1-13.8c13.8-10,10.5-25.4,18.2-38.6C1284.5,450.2,1293.9,453.8,1303.2,455.5z"></path> </defs> <use xlink:href="#SVGID_5_" style="overflow:visible;fill:#41B792;"></use> <clipPath id="SVGID_6_"> <use xlink:href="#SVGID_5_" style="overflow:visible;"></use> </clipPath> <g class="st13"> <path class="st14" d="M1232.4,743.4c5-49.5,18.3-97.8,36.4-144c17.3-44.1,37.3-87.8,62.6-127.9c8.4-13.2,17.4-26.1,27.2-38.3"></path> <path class="st14" d="M1384.6,505.8c-25.6,3.9-50.6,11.1-74.3,21.4c-6,2.6-9.2,3.2-14.5,7"></path> <path class="st14" d="M1274.5,584.2c25.8-10.5,53.8-15.6,81.7-14.8"></path> <path class="st14" d="M1253.4,645.2c24.9-14.5,53.5-22.6,82.3-23.4"></path> <path class="st14" d="M1297.3,532.9c3.2-26.1,1.7-52.7-4.6-78.2"></path> <path class="st14" d="M1275.2,582.1c-6.4-25.3-18.1-49.3-34.1-70"></path> <path class="st14" d="M1251.7,646.7c-0.1-7.5-1.4-14.9-3.9-22c-2.8-8.2-7.1-15.9-11.5-23.3c-3.2-5.4-6.4-10.7-9.8-16"></path> </g> </g> <polygon class="st1" points="1173.6,726.3 1297.3,726.3 1275.6,850 1195.3,850 "></polygon> <rect x="1158.5" y="691.5" transform="matrix(-1 -1.224647e-16 1.224647e-16 -1 2470.8689 1417.8009)" class="st1" width="153.9" height="34.7"></rect> <polygon class="st15" points="1294.4,742.7 1176.5,742.7 1173.6,726.3 1297.3,726.3 "></polygon> </g> <path class="st15" d="M1337.3,895.9H27.1c-13.3,0-24.2-10.3-24.2-23l0,0c0-12.7,10.8-23,24.2-23h1310.2c13.3,0,24.2,10.3,24.2,23 l0,0C1361.5,885.6,1350.6,895.9,1337.3,895.9z"></path> <g> <path class="st16" d="M314.8,73.9h-48.9c-20.8,0-37.8,17-37.8,37.8v0c0,12.9,6.5,24.3,16.4,31.1v26.6l27.2-19.9h43.1 c20.8,0,37.8-17,37.8-37.8v0C352.7,90.9,335.6,73.9,314.8,73.9z"></path> <circle class="st5" cx="262.9" cy="111.7" r="5.7"></circle> <circle class="st5" cx="290.4" cy="111.7" r="5.7"></circle> <circle class="st5" cx="317.8" cy="111.7" r="5.7"></circle> </g> <path class="st16" d="M938.1,421.5c-7.5-12.9-26.6-19.4-45,2.1c-18.4-21.5-37.5-15-45-2.1c-18.6,31.8,45,69.3,45,69.3 S956.7,453.4,938.1,421.5z"></path> <g> <path class="st16" d="M622.2,81h-88.8c-6.6,0-12-5.4-12-12V17.7c0-6.6,5.4-12,12-12h88.8c6.6,0,12,5.4,12,12V69 C634.2,75.6,628.8,81,622.2,81z"></path> <path class="st17" d="M523.2,8.1L572.6,56c2.8,2.7,7.6,2.7,10.4,0l49.4-47.9"></path> <line class="st17" x1="523.2" y1="78.5" x2="563.7" y2="47.4"></line> <line class="st17" x1="632.3" y1="78.5" x2="591.8" y2="47.4"></line> </g> <g> <g class="st18"> <path class="st4" d="M430.3,374.7H324c-6.6,0-12-5.4-12-12v-66.5c0-6.6,5.4-12,12-12h106.3c6.6,0,12,5.4,12,12v66.5 C442.3,369.3,436.9,374.7,430.3,374.7z"></path> </g> <g class="st18"> <polygon class="st4" points="377.1,403.3 400,374.1 354.3,374.1 "></polygon> </g> <g> <path class="st5" d="M411.4,341.1h-5.6v-15.4l0.1-2.5l0.1-2.8c-0.9,0.9-1.6,1.6-2,1.8l-3.1,2.5l-2.7-3.4l8.6-6.8h4.6V341.1z"></path> </g> <g> <path class="st5" d="M369.6,313.5h-18.5c-7.9,0-14.3,6.4-14.3,14.3l0,0c0,4.9,2.5,9.2,6.2,11.8v10.1l10.3-7.5h16.3 c7.9,0,14.3-6.4,14.3-14.3l0,0C383.9,319.9,377.5,313.5,369.6,313.5z"></path> </g> </g> </g> </g> </svg> 