<?xml version="1.0" encoding="UTF-8"?> <!-- Generator: Adobe Illustrator 23.1.0, SVG Export Plug-In . SVG Version: 6.00 Build 0) --> <svg xmlns="http://www.w3.org/2000/svg" xmlns:xlink="http://www.w3.org/1999/xlink" id="Object" x="0px" y="0px" viewBox="0 0 452.1 399.3" style="enable-background:new 0 0 452.1 399.3;" xml:space="preserve"> <style type="text/css"> .st0{fill:#CCE9F1;} .st1{fill:#A4D3DD;} .st2{opacity:5.000000e-02;} .st3{fill:#A8CFEF;} .st4{fill:#ADADEA;} .st5{fill:#E6E9F8;} .st6{opacity:0.1;} .st7{fill:#9B9BEA;} .st8{fill:#393768;} .st9{fill:#00BDC7;} .st10{fill:#FFFFFF;} .st11{fill:#4AD6AE;} .st12{fill:#EDB6A4;} .st13{fill:#41B792;} .st14{opacity:0.1;fill:#00BDC7;} .st15{fill:#233C67;} .st16{fill:#3B639F;} .st17{fill:#E2A99A;} .st18{fill:#D8A598;} </style> <g id="Online_Court_1_"> <g> <g> <g> <path class="st0" d="M365,291L42.4,319.4c-6.5,0.6-12.4-4.7-13.1-11.9L2.4,17.5C1.6,8.8,6.9,1.9,14.3,2.3l358.2,18.2 c5.2,0.3,9.3,6.4,9,13.7L374,279.2C373.8,285.3,369.8,290.6,365,291z"></path> <path class="st1" d="M381.7,34.3l-0.9,27.5L4.7,42.6L2.4,17.5C1.6,8.8,6.9,2,14.4,2.3l358.1,18.2 C377.7,20.8,381.8,27,381.7,34.3z"></path> <ellipse transform="matrix(0.7071 -0.7071 0.7071 0.7071 -5.243 35.2346)" class="st0" cx="39.9" cy="23.9" rx="8.2" ry="8.2"></ellipse> <ellipse transform="matrix(0.7071 -0.7071 0.7071 0.7071 0.6722 52.8116)" class="st0" cx="64.1" cy="25.6" rx="8.2" ry="8.2"></ellipse> <ellipse transform="matrix(0.1598 -0.9872 0.9872 0.1598 47.266 110.0165)" class="st0" cx="88.3" cy="27.2" rx="8.2" ry="8.2"></ellipse> </g> <path class="st2" d="M236.3,80.5H88.6c-5,0-9.1,4.1-9.1,9.1v71.3v24.8c0,5,4.1,9.1,9.1,9.1h147.6c5,0,9.1-4.1,9.1-9.1v-14.3V89.6 C245.4,84.6,241.3,80.5,236.3,80.5z"></path> <polygon class="st3" points="260.2,251.1 81.5,258.1 81.5,210.6 260.2,217.6 "></polygon> <g> <path class="st4" d="M225.9,75.9v92.3c0,4.8-4,8.8-8.8,8.8H75.5c-4.8,0-8.8-4-8.8-8.8V75.9c0-4.8,4-8.8,8.8-8.8h141.7 C222,67.1,225.9,71.1,225.9,75.9z"></path> <path class="st5" d="M225.9,154.4v13.7c0,4.8-4,8.8-8.8,8.8H75.5c-4.8,0-8.8-4-8.8-8.8v-23.8l48.1-30.1l35.5,25.9l31.2-18 L225.9,154.4z"></path> <circle class="st5" cx="203.7" cy="89" r="14.8"></circle> </g> <path class="st6" d="M87.5,293.9c0,19.8-16.1,35.9-35.9,35.9c-15.9,0-29.4-10.4-34.1-24.8c1.4,0,2.8,0.2,4.1,0.4 c4.8,0.6,9.7,1.4,14.6,1.7c4,0.3,8,0.3,12-0.3c0.5,0,0.9-0.1,1.3-0.2c9.2-1.6,18.4-7.1,21.4-16c1-3.1,1.2-6.5,1-9.8 c-0.3-6.5-2.8-11.7-5.1-17.7c-0.3-0.8-0.5-1.5-0.6-2C78.7,266.8,87.5,279.4,87.5,293.9z"></path> <g> <path class="st7" d="M87.5,293.9c0,19.8-16.1,35.9-35.9,35.9c-10.9,0-20.6-4.9-27.2-12.5c-3-3.5-5.4-7.8-7-12.3 c-1.1-3.5-1.7-7.1-1.7-11.1c0-19.8,16.1-35.9,35.9-35.9c5.2,0,10.1,1.1,14.6,3.2C78.8,266.9,87.5,279.4,87.5,293.9z"></path> <g> <path class="st8" d="M53.5,315.8c-12,0-21.8-9.8-21.8-21.8c0-12,9.8-21.8,21.8-21.8c3.6,0,7.3,0.9,10.5,2.7l-3.7,6.9 c-2.1-1.2-4.5-1.8-6.8-1.8c-7.7,0-13.9,6.3-13.9,13.9c0,7.7,6.3,13.9,13.9,13.9c2.3,0,4.7-0.6,6.8-1.8L64,313 C60.7,314.8,57.1,315.8,53.5,315.8z"></path> </g> <path class="st6" d="M87.5,293.9c0,19.8-16.1,35.9-35.9,35.9c-10.9,0-20.6-4.9-27.2-12.5c-0.2-0.6-0.2-1.3-0.2-1.9 c0.2-4.9,3.3-9,7.1-11.9c3.2-2.4,6.6-4,10.3-4.6c5.4-1.1,10.8-0.6,16.1-1.4c5.2-0.6,10.9-3.2,13.1-7.9c1.1-2.5,1.3-5.2,1.3-7.9 c-0.2-4.9-1.1-9.8-2.8-14.4c-0.6-1.7-2.5-4.1-3.2-6.2C78.8,266.9,87.5,279.4,87.5,293.9z"></path> </g> </g> <g> <g> <path class="st0" d="M381.7,34.3l-0.9,27.5l-1.3,42.6l-0.6,21.5l-2.1,60.9l-2.8,92.4c-0.2,6.2-4.1,11.4-8.9,11.9l-3.3,0.3 l-131,11.6l-45.3,4l-105.7,9.2l-19,1.7h-1.1l-0.2,0.2l-17.1,1.4c-6.6,0.6-12.5-4.7-13.1-11.9l-0.2-1.1v-0.9l-2.2-24.2v-0.2 l-0.3-1.9V279l-0.6-7.4l-0.2-1.6v-0.9l-0.3-2.2v-0.8l-0.8-8.1c0-0.2,0-0.2,0-0.2l-0.6-6.6l-0.2-2.5c0-0.2-0.2-0.3-0.2-0.5v-0.5 l-0.6-7v-0.6c-0.2,0-0.2-0.2-0.2-0.2l-0.3-4.7l-0.5-4l-0.2-2.7v-0.2l-0.8-7.6v-0.2l-0.5-5.1c0,0,0,0,0-0.2l-0.2-1.1v-0.2 l-0.3-3.3l-0.3-4.3v-0.6l-1.3-12.3l-0.8-8.2l-0.6-6.6v-0.2l-1.4-16c0-0.6,0-1.3-0.2-1.9l-0.8-7.8v-0.5l-0.2-2.5l-1.1-11.6 L4.7,42.6L2.4,17.5C1.6,8.8,6.9,2,14.4,2.3l358.1,18.2C377.7,20.8,381.8,27,381.7,34.3z"></path> <path class="st9" d="M381.7,34.3l-0.9,27.5L4.7,42.6L2.4,17.5C1.6,8.8,6.9,2,14.4,2.3l358.1,18.2 C377.7,20.8,381.8,27,381.7,34.3z"></path> <ellipse transform="matrix(0.7071 -0.7071 0.7071 0.7071 -5.243 35.2346)" class="st0" cx="39.9" cy="23.9" rx="8.2" ry="8.2"></ellipse> <ellipse transform="matrix(0.7071 -0.7071 0.7071 0.7071 0.6722 52.8116)" class="st0" cx="64.1" cy="25.6" rx="8.2" ry="8.2"></ellipse> <ellipse transform="matrix(0.1598 -0.9872 0.9872 0.1598 47.266 110.0165)" class="st0" cx="88.3" cy="27.2" rx="8.2" ry="8.2"></ellipse> </g> <polygon class="st9" points="260.2,251.1 81.5,258.1 81.5,210.6 260.2,217.6 "></polygon> <g> <path class="st9" d="M188,69.5v92.3c0,4.8-4,8.8-8.8,8.8H37.6c-4.8,0-8.8-4-8.8-8.8V69.5c0-4.8,4-8.8,8.8-8.8h141.7 C184.1,60.7,188,64.7,188,69.5z"></path> <path class="st10" d="M188,148v13.7c0,4.8-4,8.8-8.8,8.8H37.6c-4.8,0-8.8-4-8.8-8.8v-23.8l48.1-30.1l35.5,25.9l31.2-18L188,148z "></path> <circle class="st10" cx="165.8" cy="82.6" r="14.8"></circle> </g> <path class="st6" d="M87.5,293.9c0,19.8-16.1,35.9-35.9,35.9c-15.9,0-29.4-10.4-34.1-24.8c1.4,0,2.8,0.2,4.1,0.4 c4.8,0.6,9.7,1.4,14.6,1.7c4,0.3,8,0.3,12-0.3c0.5,0,0.9-0.1,1.3-0.2c9.2-1.6,18.4-7.1,21.4-16c1-3.1,1.2-6.5,1-9.8 c-0.3-6.5-2.8-11.7-5.1-17.7c-0.3-0.8-0.5-1.5-0.6-2C78.7,266.8,87.5,279.4,87.5,293.9z"></path> <g> <path class="st11" d="M87.5,293.9c0,19.8-16.1,35.9-35.9,35.9c-10.9,0-20.6-4.9-27.2-12.5c-3-3.5-5.4-7.8-7-12.3 c-1.1-3.5-1.7-7.1-1.7-11.1c0-19.8,16.1-35.9,35.9-35.9c5.2,0,10.1,1.1,14.6,3.2C78.8,266.9,87.5,279.4,87.5,293.9z"></path> <g> <path class="st10" d="M53.5,315.8c-12,0-21.8-9.8-21.8-21.8c0-12,9.8-21.8,21.8-21.8c3.6,0,7.3,0.9,10.5,2.7l-3.7,6.9 c-2.1-1.2-4.5-1.8-6.8-1.8c-7.7,0-13.9,6.3-13.9,13.9c0,7.7,6.3,13.9,13.9,13.9c2.3,0,4.7-0.6,6.8-1.8L64,313 C60.7,314.8,57.1,315.8,53.5,315.8z"></path> </g> </g> </g> <g> <g> <g> <path class="st12" d="M369.5,169l-6.4,0.9l-0.2-1.7c-0.9-0.8-1.8-1.6-2.1-2.4c-0.2-1.6-0.8-2.4-0.4-3.9 c-1.1-1.9,2.9-9.3,3.8-8.2c0.3,2,3.4,4.1,4.1,6.6c0.4-0.7,0.9-1.4,1.7-1.9c0.6,0.1,1,0.5,1.2,1.2c-0.4,2.8-1.1,5.4-2.1,7.7 L369.5,169z"></path> <path class="st5" d="M371.2,173.7l-8,1.2c-0.2-1.7-0.8-3.6-1-5.2c0.8-0.9,4.9-0.3,7.5-1.1L371.2,173.7z"></path> <path class="st11" d="M392.6,223.6c-6.4-4.1-16.1-10.6-20.5-13.6c-1.5-1-2.6-2.6-3.1-4.3c-1.4-5.5-4.6-18.3-5.7-27.3 c-0.2-1.2-0.3-2.4-0.5-3.7l8.7-1.6l1.6,4.2l8.4,22l18.1,3.5L392.6,223.6z"></path> <polygon class="st13" points="374.1,177.2 373.1,177.3 363.3,178.4 362.1,178.6 362.1,174 371.5,173.1 "></polygon> <path class="st11" d="M364.6,171.6c-0.2,0.3-0.5,0.5-0.9,0.3c-0.3-0.2-0.5-0.5-0.3-0.9c0.2-0.3,0.5-0.5,0.9-0.3 C364.6,170.9,364.8,171.3,364.6,171.6z"></path> </g> <g> <path class="st9" d="M445.5,118.8c-19.9-9.2-40.4-17.2-60.9-24.8c-10.3-3.7-20.6-7.4-31-10.8c-10.4-3.5-20.9-6.7-31.5-9.6 l-1.2,3.2c10,4.6,20,9,30.2,13c8.9,3.6,17.9,7,26.9,10.4l-31.8,86.8l7.5,2.8l31.8-86.8c19.3,7,38.8,13.6,58.7,19.1L445.5,118.8 z"></path> <g> <path class="st9" d="M317.6,140.3c-1.1,3-9.8,2.5-19.5-1c-9.7-3.5-16.6-8.8-15.5-11.8c1.1-3,9.8-2.5,19.5,1 C311.7,132,318.7,137.3,317.6,140.3z"></path> <path class="st9" d="M325.6,136.6L325,80c0-2.2-1.4-4.1-3.4-4.9c-2-0.7-4.3-0.2-5.8,1.5l-37,42.8c-0.5,0.6-0.4,1.4,0.1,1.9 c0.1,0.1,0.2,0.1,0.3,0.1c0.7,4,9,9.9,20.3,14c11.2,4.1,21.4,5,24.5,2.4c0.1,0,0.2,0.1,0.3,0C325,138,325.6,137.4,325.6,136.6 z M283.9,117.8l34-39.3c0.9-1,2-1.1,2.8-0.8c0.8,0.3,1.6,1.1,1.7,2.4l0.5,52c-3.2-3.5-10-7.5-18.2-10.6 C296.3,118.4,288.6,117.2,283.9,117.8z"></path> <path class="st9" d="M325.7,76.7c-0.8,2.3-3.3,3.4-5.6,2.6c-2.3-0.8-3.4-3.3-2.6-5.6c0.8-2.3,3.3-3.4,5.6-2.6 C325.4,71.9,326.5,74.4,325.7,76.7z"></path> </g> <g> <ellipse transform="matrix(0.344 -0.939 0.939 0.344 109.6077 515.1048)" class="st9" cx="423.4" cy="179.1" rx="5.8" ry="18.6"></ellipse> <path class="st9" d="M402.3,166.6c0.1,0.1,0.2,0.1,0.3,0.1c0.7,4,9,9.9,20.3,14c11.2,4.1,21.4,5,24.5,2.4 c0.1,0,0.2,0.1,0.3,0.1c0.7,0,1.3-0.6,1.3-1.4l-0.6-56.6c0-2.2-1.4-4.1-3.4-4.9c-2-0.7-4.3-0.2-5.8,1.5l-37,42.8 C401.7,165.3,401.8,166.1,402.3,166.6z M428,166.7c-8.3-3-16-4.3-20.8-3.7l34-39.3c0.9-1,2-1.1,2.8-0.8 c0.8,0.3,1.6,1.1,1.7,2.4l0.5,52C443,173.7,436.3,169.7,428,166.7z"></path> <path class="st9" d="M440.9,118.8c-0.8,2.3,0.3,4.8,2.6,5.6c2.3,0.8,4.8-0.3,5.6-2.6s-0.3-4.8-2.6-5.6 C444.2,115.4,441.7,116.6,440.9,118.8z"></path> </g> <path class="st9" d="M393.7,101.6c-2.1,5.7-8.4,8.6-14.2,6.5c-4.9-1.8-7.8-6.7-7.2-11.6c0.1-0.9,0.3-1.7,0.6-2.5 c2.1-5.7,8.4-8.7,14.2-6.6c2.1,0.8,3.8,2.1,5.1,3.8C394.3,94.1,395,97.9,393.7,101.6z"></path> <path class="st9" d="M361.6,188.9c-1.6,4.3-7.5,6-13.2,3.9c-5.2-1.9-8.5-6.3-7.8-10.3c0.1-0.4,0.2-0.8,0.3-1.2 c1.6-4.3,7.5-6.1,13.2-4c1.9,0.7,3.6,1.8,4.9,3C361.6,182.9,362.7,186.1,361.6,188.9z"></path> <path class="st14" d="M361.6,188.9c-1.6,4.3-7.5,6-13.2,3.9c-5.2-1.9-8.5-6.3-7.8-10.3c0.8,0.7,1.6,1.6,2.3,2.3 c3.2,3.2,7.8,5.1,12.3,4.9c0.9,0,1.8-0.1,2.5-0.8c0.6-0.5,0.8-1.2,1.1-1.9c0.5-1.5,0.7-3,0.6-4.6c0-0.3-0.2-1.2-0.4-2.1 C361.6,182.9,362.7,186.1,361.6,188.9z"></path> </g> <g> <path class="st5" d="M387.2,370.4l0.6,3.2c0.9,0.4,1,0.8,1.5,1.8c0.6,1.4,0.9,2.1,0.9,3.3l-16.6-2.5l5.2-3l1.4-2.1L387.2,370.4 z"></path> <path class="st8" d="M390,382.5c-7.5,1.9-17.7-0.6-21.1-2c-0.7-0.8-0.9-2-0.5-3c0.2-0.6,0.6-1.2,1.2-1.7c2.2-2,5.6-0.6,8.9-2.3 c0,0,0,0,0.1,0.1c0.6,0.7,0,1.2,0.1,2c2.7,1.6,5.9,1.3,8.9,0.5c1.2-0.9,0.9-1.6,0.3-2.3c-0.1-0.1-0.1-0.2-0.2-0.2 c-0.1-0.1-0.2-0.2-0.2-0.3l0.2,0.1l1.3,0.8c0.4,0.4,0.9,1.2,1.3,2.2C391.2,378.7,391.6,382.1,390,382.5z"></path> </g> <g> <path class="st5" d="M387.2,370.4l0.6,3.2c0.9,0.4,1,0.8,1.5,1.8c0.6,1.4,0.9,2.1,0.9,3.3l-16.6-2.5l5.2-3l1.4-2.1L387.2,370.4 z"></path> <path class="st15" d="M390,382.5c-7.5,1.9-17.7-0.6-21.1-2c-0.7-0.8-0.9-2-0.5-3c0.2-0.6,0.6-1.2,1.2-1.7 c2.2-2,5.6-0.6,8.9-2.3c0,0,0,0,0.1,0.1c0.6,0.7,0,1.2,0.1,2c2.7,1.6,5.9,1.3,8.9,0.5c1.2-0.9,0.9-1.6,0.3-2.3 c-0.1-0.1-0.1-0.2-0.2-0.2c-0.1-0.1-0.2-0.2-0.2-0.3l0.2,0.1l1.3,0.8c0.4,0.4,0.9,1.2,1.3,2.2 C391.2,378.7,391.6,382.1,390,382.5z"></path> </g> <g> <path class="st5" d="M415.8,365l1.3,3c1,0.2,1.2,0.6,1.9,1.5c0.9,1.2,1.4,1.9,1.6,3l-16.7,1.3l4.4-4l0.9-2.3L415.8,365z"></path> <path class="st15" d="M408.1,369.8c-2.9,2.4-6.5,1.8-8.2,4.2c-1.2,1.5-1.1,3.8,0.3,4.8c3.6,0.7,14.1,0.8,21-2.7 c2.1-1.1-1.1-7.1-2.8-8l-1.7-0.6c1,0.7,2,1.4,0.8,2.7c-2.7,1.5-5.9,2.5-8.8,1.5C408.5,371.1,409,370.3,408.1,369.8z"></path> </g> <path class="st15" d="M418.8,364.1c-3.4,2.5-7.7,3.8-12.8,4c-5.5-15.9-17.2-43.5-17.8-50.1l1-35.7l1-14.4l16.1,0 c5.2,16.7,0.3,36.8-1.8,47.9L418.8,364.1z"></path> <path class="st6" d="M398.5,348.1c-5-12.9-9.9-25.8-10.4-30.1l1-35.7l0.3-5c0.2,0.2,0.3,0.5,0.4,0.7c0.7,1.3,1,2.8,1.2,4.2 c1.2,6.3,1.3,12.7,0.4,19c-0.2,2-0.7,4-0.7,6.1c0,2.3,0.4,7.7,1,10C394.3,327.6,398.6,337.6,398.5,348.1z"></path> <path class="st15" d="M392.7,270.6c2.3,14.6-3.4,38-7.5,54.2l4.4,47.2c-4.8,0.5-9.2,0.2-12.4-1.8l-10-45.8 c-0.9-15.4,0.3-32.1,2.7-49.4L392.7,270.6z"></path> <path class="st11" d="M408.4,273.5c-0.2,1.7-18,6-28.4,4.5l-11.6-2.7c0,0-1.8-12.2-1.3-16.5l4.2-26.3l0.6-6 c0.1-6.8-1.9-8.3-1.6-15.8c7.4-4.6,15.6-7.6,24.5-9.2c4.7-0.9,9.2,2,11,6.4c4.4,10.8-1.9,43.9-1.9,43.9L408.4,273.5z"></path> <path class="st12" d="M381.9,204.9c3.8,0.6,8.4-0.7,11.3-3.1c-1.6-2.1-3.2-6.5-4.7-10.9l-7.5,1.8 C381.7,197.6,382.5,202.3,381.9,204.9z"></path> <path class="st6" d="M392.1,200.1c-0.1,0-2,1.5-2.1,1.4c-1-0.4-0.8-2.1-1.8-2.1c-1,0.1-2.1-1-3.1-0.4c-1,0.6-2.1,0.7-3.1,0.6 c-0.2-2.1-0.6-4.5-1-6.9l7.5-1.8C389.4,193.7,391.1,197.9,392.1,200.1z"></path> <path class="st12" d="M375.7,194c0.7,3.6,7.4,5.6,14.5,4.4c2-0.3,5.3-4.6,8.8-8.5l-3.2-16.6l-12.3-1.8 C376.9,177.4,374.8,185.1,375.7,194z"></path> <path class="st6" d="M392,184.5c-0.2,1.3-1.2,2.6-2.5,2.8c-0.6,0.1-1.1,0-1.7-0.2c-1.9-0.6-3.6-1.6-4.9-3.1 c-0.3-0.4-0.7-0.7-1.1-1.1c-0.8-0.6-1.8-1-2.7-1.5c-0.6-0.3-1.2-0.7-1.8-1.2c0.7-1.7,1.6-3.4,2.8-5c0.3,0,0.6,0,0.9,0 c3,0.3,5.9,1.5,8.1,3.4C390.9,180.1,392.4,182.2,392,184.5z"></path> <path class="st16" d="M379,172.9c-2.7,4.4,2.5,8.9,5,9.9c2.5,1,2.9,3.7,1.7,5.6l0.7,0.7c0,0,1.3-3.4,2.3-2.3 c1,1.2,2,1.6,0.4,3.9c-1.6,2.3-2.8,6.2,1.2,7.7c4,1.5,5.2-2.5,7-3.4c1.8-0.9,3.5-3.6,2.6-5.9c-0.9-2.3-0.6-4.7,0.5-6.6 c1-1.8,0.8-7.2-1-8.1c-1.8-0.9-2.5-0.8-4.6-2.5c-2.1-1.7-2.2-3.6-6.1-2.9C384.2,169.8,379.9,168.7,379,172.9z"></path> <path class="st13" d="M392.5,200l2,1.7l-4.3,2c-3.1,1.5-6.7,2.1-10.7,2.3l0.7-3l8.8-1.8L392.5,200z"></path> <g> <path class="st12" d="M359.1,166.2l-6.4-0.9l0.3-1.7c-0.6-1-1.2-2-1.4-2.9c0.3-1.6-0.1-2.5,0.7-3.9c-0.5-2.1,5.3-8.1,5.9-6.9 c-0.2,2.1,2.1,4.8,2.1,7.4c0.6-0.6,1.3-1.1,2.2-1.4c0.6,0.3,0.9,0.8,0.8,1.5c-1.1,2.6-2.5,4.9-4.1,6.9L359.1,166.2z"></path> <path class="st5" d="M359.5,171.2l-8-1.1c0.3-1.7,0.2-3.6,0.5-5.3c1-0.7,4.8,1,7.5,1L359.5,171.2z"></path> <path class="st11" d="M372.2,227.8c-5.1-5.7-18.4-17.4-21.8-21.4c-1.2-1.4-1.8-3.2-1.8-5c0.1-5.7,0.6-18.8,1.9-27.8 c0.2-1.2,0.4-2.4,0.5-3.7l8.8,0.8l0.4,4.5l2.1,23.5l16.5,8.4L372.2,227.8z"></path> <polygon class="st13" points="361.3,175.3 360.3,175.2 350.6,173.5 349.4,173.4 350.6,168.9 359.9,170.7 "></polygon> <path class="st11" d="M353.7,167.3c-0.2,0.3-0.6,0.3-0.9,0.1c-0.3-0.2-0.3-0.6-0.1-0.9c0.2-0.3,0.6-0.3,0.9-0.1 C353.9,166.6,354,167,353.7,167.3z"></path> </g> <path class="st6" d="M421.3,376.1c-6.9,3.6-17.4,3.4-21,2.7c-1.3-0.8-1.5-2.6-0.8-4c0.9,0,1.7,0.3,2.6,0.5 c5.2,1.4,10.8,1,15.7-1c0.3-0.2,0.7-0.3,0.9-0.7c0.2-0.2,0.2-0.6,0.2-0.9v-0.1c0-1-0.3-2.1-0.8-3c0-0.1-0.1-0.1-0.1-0.2 c-0.4-0.6-2-1.3-1.6-2c0.1-0.2,0.2-0.4,0.4-0.5l0.3,0.8l1.5,0.5C420.2,369.1,423.4,375.1,421.3,376.1z"></path> <path class="st6" d="M390,382.5c-7.5,1.9-17.7-0.6-21.1-2c-0.7-0.8-0.9-2-0.5-3c2,0.3,3.8,1.2,5.8,1.6c1.2,0.2,2.5,0.2,3.7,0.2 c2.8,0,5.6,0.1,8.4-0.4c0.6-0.1,1.2-0.2,1.7-0.4c0.4-0.2,0.8-0.3,1.1-0.6c0.2-0.2,0.5-0.5,0.7-0.9c0.1-0.2,0.3-0.5,0.4-0.7 C391.2,378.7,391.6,382.1,390,382.5z"></path> <path class="st6" d="M408.4,273.5c-0.2,1.7-18,6-28.4,4.5l-11.6-2.7c0,0-0.6-4.1-1-8.4c8.1,3.5,17.1,4.7,25.8,3.7 c2.9-0.3,6.2-1.3,7.4-3.9c1.8-3.9-1.8-8-2.3-12.3c-0.3-2.3,0.4-4.6,1-6.8c2.9-10.8,3.3-22.3,1.3-33.3c-0.4-2.7-1.1-5.3-1.8-7.9 c-0.5-1.7-2-3.8-1.4-5c3.7,0.3,6.9,2.9,8.3,6.5c4.4,10.8-1.8,43.9-1.8,43.9L408.4,273.5z"></path> </g> </g> <g> <g> <g> <path class="st17" d="M230.6,185.2c-1.1,12.1-3.2,24.7-6.1,33.5c-1.8,5.4-3.8,9.4-6.1,11.2c-13.1,9.8-21.5,7.7-38.9,3.8l0-13.4 c6-3.5,18.1-1.1,28.7,0.5l3.4-8.2l11.7-28.4L230.6,185.2z"></path> <path class="st17" d="M230.6,185.2c1.9-1,3.6-2.2,4.4-3.7c0.5-2.2,0.3-3.8-0.2-7c-0.6-2-5.9-3.5-7-0.9l-2.3,4.4l-1.8-2.4 l-1.3,1.1l0.7,7.6L230.6,185.2z"></path> <path class="st11" d="M225.6,218.7c-1.8,5.4-4.7,10.8-7.2,12.3c-13.7,8.1-21.5,8.2-38.9,4.3l-0.1-14.8c6-3.5,17.2-1.8,27.7-0.3 l3.7-7.4C213.2,213.2,221.9,214.7,225.6,218.7z"></path> <path class="st13" d="M210.7,211.3c6.2,1,10.8,3.1,15.8,6.2c0.3,1.5-0.1,3.1-1.1,4.9c-6.2-2.3-11.5-4.4-16.3-7.2 C208.7,214,209.8,212.5,210.7,211.3z"></path> </g> <g> <path class="st15" d="M254.1,186.7c1.7,7.4-2.8,14.7-10.2,16.4l-47.1,11c-4,0.9-8,0-11.1-2.3l-51.4,12l4.5,19.4l0.5-0.1 c3.2-0.7,6.4,1.3,7.2,4.5c0.7,3.2-1.3,6.4-4.5,7.2l-45.3,10.5c-3.2,0.8-6.4-1.3-7.2-4.5c-0.7-3.1,1.1-6.1,4.1-7 c0.1-0.1,0.3-0.1,0.4-0.1l0.5-0.1l-13.1-56.2l-0.5,0.1c-3.2,0.8-6.4-1.3-7.2-4.5c-0.7-3.2,1.2-6.4,4.5-7.2l45.3-10.5 c3.2-0.7,6.4,1.3,7.2,4.5s-1.3,6.4-4.5,7.2l-0.5,0.1l4.5,19.4l51.4-12c1.8-3.3,5-6,9-6.9l47.1-11c5.5-1.3,11,0.9,14.1,5.2 C252.9,183.1,253.7,184.8,254.1,186.7z"></path> </g> <g> <g> <path class="st12" d="M152.5,371.1l-5.5,2.8c-1.4-0.7-2.5-0.2-3.6,0.3l-3.4,3.1l15.2,15l3.2-2.3l-3.4-8.9l3.1-2.9L152.5,371.1 z"></path> <path class="st15" d="M143.7,373.3c-1.9,0.3-3.2,1.6-4.8,3.9l17.6,18.2c2.8,2.6,5,1.9,3.7-1.3l-4.9-13 c-1.3,0.2-2.6,0.1-4.2-1.3c-1.6-1.4-3-2.8-4.1-4.5c0.7-0.7,1.3-1.4,0.6-2.6L143.7,373.3z"></path> </g> <path class="st15" d="M165,284.9l19.2-8.3c7.6,11.7,14.6,37.2,11,52.8c-6,15.2-10.5,27.3-35.6,50.7l-9.1-9.9l24-39.2 C168.8,313.5,163.3,297.9,165,284.9z"></path> <path class="st6" d="M195.2,329.5c-3.6,9.2-6.7,17.2-14.2,27.4c1.7-6.2,5.2-12,6.6-18.4c0.7-3.7,0.8-7.5,0.8-11.2 c0-2.5,0-5-0.7-7.4c-1.2-4.7-5.3-9-5.8-13.9c-0.5-4.5,5.7-5.9,9.1-5.2c1,0.2,2,0.6,2.9,1.1C196.1,311.5,197,321.7,195.2,329.5z "></path> <g> <path class="st12" d="M206.2,381.4l-2.5,5.7c-1.6,0.4-2.1,1.4-2.6,2.5l-0.7,4.6l21.3,1.9l1-3.8l-8.3-4.6l0.5-4.2L206.2,381.4z "></path> <path class="st15" d="M200.9,388.7c-1.2,1.5-1.4,3.3-1.2,6.1l25.1,2.8c3.8,0.3,5.1-1.7,2-3.3l-12-6.9c-0.8,1-2,1.8-4.1,1.7 c-2.1,0-4.2-0.2-6-0.8c0.1-1,0.1-1.9-1.2-2.3L200.9,388.7z"></path> </g> <path class="st15" d="M173.8,283.5l22.7-13.4c9.8,10.6,18.9,35.3,24.7,45.9c6,11.7,0.7,33.8-3.7,67.9l-13.3-1.9l-1.1-51.4 C190.3,314.3,175.2,299.9,173.8,283.5z"></path> </g> <path class="st11" d="M208.3,242c-2.2,10.8-8.9,23.3-8.8,30.7c1,1.7,1.9,2.8,1.5,3.1c-9.5,8.1-34.9,15.3-37.7,10.7 c-4.8-7.9,4.2-57.9,19.6-71c7-5.8,20.7-3,23.4,7C207.9,230.4,209.4,236.5,208.3,242z"></path> <path class="st18" d="M190.3,212.5c1.5-2.4,2.4-4.9,2.4-7.5l9.2,0.9l0.8,10.7C198,216.1,193.8,214.8,190.3,212.5z"></path> <path class="st6" d="M202.1,211.4c-0.6-0.1-1.3-0.2-2-0.3c-1.3-0.2-2.6-0.4-3.9,0c-1.2,0.3-2,1.2-3,1.9 c-0.2,0.2-0.5,0.4-0.8,0.5c-0.9-0.2-1.5-0.6-2.1-1c1.4-2.5,2.4-4.9,2.3-7.6l9.2,0.9L202.1,211.4z"></path> <path class="st12" d="M191.1,207.9c6.5,2.2,12.4,3.3,16.1,1.2c0.7-9-0.9-16.9-7.3-22.9l-15.9,7.1L191.1,207.9z"></path> <path class="st6" d="M206.1,196.2c-0.6,0.5-1.3,0.9-1.7,1c-0.8,0.2-1.5,0.5-2.2,0.6c-2.3,0.3-4.6,0.6-6.9,0.8 c-0.9-0.1-1.9,0-2.7-0.4c-1.7-0.4-3.1-1.8-3.6-3.3c-0.2-0.8-0.4-1.4-0.3-2.2c0-0.7,0.3-1.4,0.8-2l7.7-3.5c0.1,0,0.1,0,0.3-0.1 c1.2,0,2.3,0.1,3.7,0.2C203.5,190,205.1,193,206.1,196.2z"></path> <path class="st16" d="M206.6,193.4c-2.4,2-5.6,2.1-9.1,1.3c0.3,2.2,1,4.2,2,5c-0.2,0.7-0.2,0.8-1,1.3c-1.2-1.3-2.3-2.8-3.3-2.4 c-1.3,1-1.5,2-1.3,3.5c0.4,1.9,2.9,3.4,5.3,5.2c-2.2,1.6-3.8,2.7-5.6,2.3c-2.5,0.4-5.5-0.5-8.2-2.8 c-2.6-2.3-10.2-21.9,15.8-23.9c3.3-0.2,10.4-3.4,8,4.9C210.1,190.6,207.8,191.5,206.6,193.4z"></path> <g> <path class="st12" d="M235.8,182.7c0.3,12.2-0.2,24.9-2,34c-1.1,5.5-2.6,9.8-4.7,11.9c-11.8,11.3-20.4,10.3-38.2,8.5l-1.6-13.3 c5.5-4.2,17.9-3.2,28.5-3l2.4-8.6l8.2-29.6L235.8,182.7z"></path> <path class="st12" d="M235.8,182.7c1.8-1.3,3.3-2.6,3.9-4.2c0.3-2.2,0.7-2.9-0.2-6c-0.8-1.9-7.2-3.7-7.9-1l-2,5.3l-1.2-1.4 l-1.3,2.2l1.2,5L235.8,182.7z"></path> <path class="st11" d="M235,216.5c-1.1,5.5-3.4,11.2-5.7,13c-12.7,9.7-22.2,10.7-40,9v-14.7c5.5-4.2,16.9-3.9,27.5-3.7l2.7-7.8 C222,212.5,230.8,213,235,216.5z"></path> <path class="st13" d="M219.3,211c6.2,0.3,11.1,1.8,16.5,4.2c0.4,1.5,0.3,3.1-0.5,5c-6.5-1.5-12-3-17-5.2 C217.6,213.9,218.5,212.3,219.3,211z"></path> </g> <path class="st6" d="M197,271.6c0.4,0.8,0.9,1.4,1.5,2c0.3-0.3,0.6-0.6,1-0.9c0-7.4,6.6-19.8,8.8-30.7c0.2-1,0.3-2,0.3-3 c7.3-0.9,13.1-3.5,20.7-9.4c0.5-0.4,1-0.9,1.4-1.5c-1,0.8-2.1,1.5-3.2,2.1l-0.1,0c-2.5,1.3-5,2.3-7.6,3.4 c-1.4,0.5-2.7,1.1-4.1,1.4c-1.1,0.2-2.2,0.4-3.3,0.5c-1.3,0.1-2.6,0.3-3.8,0.4c-0.5,0.1-1,0.1-1.5,0.2c-1.5,0.1-3,0.3-4.5,0 c1,0.2,1.6,1,2.1,1.9c0.1,0.2,0.2,0.4,0.2,0.6c0.1,0.1,0.1,0.3,0.1,0.4c0.1,1,0,2.1-0.3,3.1c-1,5.5-2.8,10.9-5.2,15.9 c-1,2.1-2.2,4.2-2.9,6.5C196,266.9,195.9,269.5,197,271.6z"></path> </g> </g> </g> </g> </svg> 