<?xml version="1.0" encoding="UTF-8"?> <!-- Generator: Adobe Illustrator 23.1.0, SVG Export Plug-In . SVG Version: 6.00 Build 0) --> <svg xmlns="http://www.w3.org/2000/svg" xmlns:xlink="http://www.w3.org/1999/xlink" id="Layer_1" x="0px" y="0px" viewBox="0 0 1593.9 1164.7" style="enable-background:new 0 0 1593.9 1164.7;" xml:space="preserve"> <style type="text/css"> .st0{fill:#CAF0FF;} .st1{fill:#FFB164;} .st2{fill:#3B639F;} .st3{fill:#00BDC7;} .st4{fill:#FDC78B;} .st5{fill:#233C67;} .st6{fill:#41B792;} .st7{fill:#4AD6AE;} .st8{fill:#FFFFFF;} .st9{fill:#73D9FF;} </style> <g> <g> <path class="st0" d="M755.1,579c-93.9-0.8-184.7,36-251.4,102.1c-37.8,37.4-66.1,81.7-83.7,130.2c-11.4,31.3,2.8,66.1,32.8,80.7v0 c34.6,16.8,76.4,0.3,89.6-35.8c31.2-85.7,113.5-147,209.9-147c96.3,0,178.6,61.3,209.9,147c13.2,36.1,55,52.6,89.6,35.8l0,0 c29.8-14.5,44.2-49.2,32.9-80.4c-17.4-47.9-45.2-91.9-82.4-129C936,616.5,848.4,579.8,755.1,579z"></path> <path class="st0" d="M1303.4,699.5c-30.1-71.3-73.3-135.2-128.2-190.2c-54.9-54.9-118.9-98.1-190.2-128.2 c-73.8-31.2-152.2-47-232.9-47c-80.7,0-159.1,15.8-232.9,47c-71.3,30.1-135.2,73.3-190.2,128.2c-54.9,54.9-98.1,118.9-128.2,190.2 c-0.2,0.4-0.4,0.9-0.5,1.3c-13.4,31.8,0.7,68.4,31.6,83.5h0c33.7,16.4,74.1,1.1,88.6-33.4c71-168.3,237.7-286.7,431.6-286.7 c193.8,0,360.5,118.4,431.6,286.7c14.6,34.5,55,49.8,88.6,33.4v0c31-15.1,45-51.8,31.6-83.5 C1303.8,700.4,1303.6,699.9,1303.4,699.5z"></path> </g> <g> <g id="XMLID_80_"> <g> <g id="XMLID_21_"> <path class="st1" d="M448.1,322.6c0.3-2.2,4.6-17.1,5.4-18.3c0.8-1.2,9.7,0.9,18.5-9.2c25.1-29,38.7-64.4,64.4-95.3 c1.4-28.2,3.5-45.2,3.5-45.2l37,4.7c2.7,28.6,3.3,62.6-3.5,67.7c-6.8,5.1-58.7,71.9-93,80.7c0,1.6-22.6,10.2-25.5,12.9 C452.1,323.1,447.8,324.8,448.1,322.6z"></path> </g> </g> </g> <path id="XMLID_95_" class="st2" d="M417.1,358.8c7.8-29.8,93-59.1,124.9-64.7l54.4,2.3c-4-1.1-128,98.1-128,98.1 c9.8,69.7,4.6,76.1,16.2,169.5c-14,7.6-24.9,1.7-24.9,1.7C416,479.9,407.2,396.6,417.1,358.8z"></path> <g> <path class="st3" d="M439.5,334.1l80.6-38.2c1.6-0.7,2.2-2.7,1.4-4.2l0,0c-0.8-1.4-2.5-2-4-1.3l-70.4,32.6 c-2.7,1.3-5.9,0.3-7.5-2.3l-50.2-82.2c-1.1-1.7-3.3-2.2-5-1.1v0c-1.6,1.1-2,3.2-1,4.8L439.5,334.1z"></path> </g> <g> <g> <g id="XMLID_93_"> <path id="XMLID_96_" class="st4" d="M479.5,560.8c2.5,11.9,4.9,16,4.9,16c-1,9.7-8.1,9-17.3,4.5c0,0-6.4-18-6.5-24.4 C460.5,550.7,479.5,560.8,479.5,560.8z"></path> <path id="XMLID_94_" class="st5" d="M445,581c-18.6,5.3-29.5,10.9-9.9,11.7c12.3,0.5,42.4,3.3,50.4,1.1 c8.1-2.1,4.6-20.7,0.9-20.9c-2.6-0.1-3.9,5.6-7.8,7.3c-3.9,1.7-8.9-5.8-12.6-7.1C462.3,571.8,451.8,579,445,581z"></path> </g> <g id="XMLID_89_"> <path id="XMLID_92_" class="st4" d="M543.5,574.5c5.8,10.7,9.3,14,9.3,14l-15.3,9.3c0,0-11.3-15.4-13.2-21.5 C522.4,570.2,543.5,574.5,543.5,574.5z"></path> <path id="XMLID_91_" class="st5" d="M656,338.6c-4.8,33.3-15.5,44.8-42.6,50.3c-18.5,3.8-105.7,20.2-105.7,20.2 c27.9,64.6,4.5,79,40.4,166c-11.5,11-23.5,8.2-23.5,8.2c-64.8-71.1-81.7-156.8-86.5-195.6c-4.8-38.8,124.6-91.8,124.6-91.8 l42.2-6L656,338.6z"></path> <path id="XMLID_90_" class="st5" d="M518.3,608.4c-13.8,0.9-23.7,10.8-6.3,10.8c6.1,0,9.9,0,14.5,0c4.6,0,28.8-17.3,33.6-24.2 c4.7-6.9-10-18.7-13-16.5c-2,1.6,0.7,6.8-1.1,10.6c-1.8,3.8-10.5,1.4-14.2,2.8C528.2,593.4,523.4,606.9,518.3,608.4z"></path> </g> <g id="XMLID_83_"> <g id="XMLID_84_"> <path id="XMLID_85_" class="st6" d="M569.6,119.4c15.2,5,15.3,38.2,13.5,61.3c-17.2,0.6-33.8-1.7-46.7-8.1 C539.9,143.6,552.7,113.9,569.6,119.4z"></path> </g> </g> <g id="XMLID_81_"> <path id="XMLID_82_" class="st7" d="M587,101.6c10.7,0.3,26,5.3,40.6,26.7c14.5,21.4,44.9,148.7,30.4,215.6 c-46.7-10.4-53.7-50-115.9-49.9c0-129.3,16.8-163.8,20.7-172.6C566.5,112.6,581.3,101.5,587,101.6z"></path> </g> <g id="XMLID_73_"> <g id="XMLID_75_"> <g id="XMLID_78_"> <path id="XMLID_79_" class="st4" d="M455.2,305.4c0.7-2.3,10.3-20,10.3-20c6.1-4.8,7.5,0.4,18.8-9 c32.5-26.8,50.6-46.6,84.1-75.3c6.7-30.3,12.1-48.3,12.1-48.3l39.2,11.9c-2.3,31.4-7.9,68.3-16.2,72.6 c-8.3,4.3-74.4,47.3-113.2,50.5c-0.3,1.7-23.7,14.3-27.3,16.6C459.4,306.7,454.5,307.7,455.2,305.4z"></path> </g> <g id="XMLID_76_"> <path id="XMLID_77_" class="st6" d="M608.3,126c14.9,5.8,13.1,39,10,61.9c-17.2-0.4-33.7-3.6-46.2-10.7 C577.4,148.4,591.8,119.5,608.3,126z"></path> </g> </g> </g> <g> <path id="XMLID_68_" class="st1" d="M563.4,127.4c7.7,14.3,36.9-1.5,29.1-15.8l-19.2-27.8l-22.7,12.3L563.4,127.4z"></path> <path id="XMLID_57_" class="st4" d="M556.2,114.9l3.5-0.8c18.7-4,30.6-22.3,26.6-41l-4.2-19.6c-4-18.7-22.3-30.6-41-26.6 l-3.5,0.8c-18.7,4-30.6,22.3-26.6,41l4.2,19.6C519.2,107,537.6,118.9,556.2,114.9z"></path> <path class="st2" d="M504.8,7.2C521.8,6.2,523.4,20,542,18c0,0,0,0,0,0l12.5-2.3c7.4-1.3,14.4,3.6,15.8,10.9l0.5,2.6 c7.4-1.3,14.4,3.6,15.8,10.9l9.7,54.1c0.9,5-2.4,9.7-7.4,10.6c-6,1.1-11.4-3.9-10.7-10l2-18.6c-1.3-7.3-7.1-13-14.4-14.2 c-3.4-0.6-6.1-3.2-6.7-6.6c-0.8-4.4-5-7.4-9.4-6.6l-39.2,7v0c-0.5,0.1-1.1,0.1-1.6,0.2l0,0.1c0,0-0.6,0.1-1.6,0.1c0,0,0,0,0,0 c-0.8,0-1.8,0-3-0.1c-0.1,0-0.2,0-0.3,0c-0.9-0.1-1.8-0.2-2.8-0.5c-0.1,0-0.1,0-0.2,0c-0.8-0.2-1.6-0.4-2.4-0.7 c-0.1,0-0.2-0.1-0.4-0.1c0,0,0,0,0,0c-3.1-1.2-6.3-3.4-8.4-7.3C484.1,37.2,487.9,8.1,504.8,7.2z"></path> <path id="XMLID_33_" class="st4" d="M561.9,70.9c0,6.3,5.1,11.3,11.3,11.3c6.3,0,11.3-5.1,11.3-11.3c0-6.3-5.1-11.3-11.3-11.3 C567,59.6,561.9,64.7,561.9,70.9z"></path> </g> </g> </g> </g> <g> <path class="st4" d="M272.6,813.6c0,0-22.4-84.5-63.2-91.1c-1.2-0.2-2.3-0.1-3.2,0.1c2.3,0.9,4.2,1.9,5.5,3 c31.3,16.8,21.1,110,19.5,122.7c5.9,14.1,11.5,27,15,35.7c-28.1,4.5-79.8,65.8-79.8,65.8s108.7-4.9,127.7-22.7 c1.3-1.2,4-5.2,4.2-5.5C309.6,900,292.5,850.6,272.6,813.6z"></path> <path class="st2" d="M145.7,693c0,0-22.8-18-21.7-50.8c1-31.1,16.4-31.3,16.4-31.3s16.3-24.5,51.6-12.4 c44.3,15.1,19,86.7-0.3,97.5C172.5,706.8,145.7,693,145.7,693z"></path> <polygon class="st5" points="89.5,942.7 84,962.1 166.4,993.3 166.4,949.8 "></polygon> <polygon class="st2" points="243.1,942.7 248.7,962.1 166.2,993.3 166.2,949.8 "></polygon> <path class="st2" d="M68.7,948.3c-21.8-8.1-49.6-10.6-59.6,16.2c-10.3,27.5,3.2,59.2,78.3,73.6c53.7,10.3,173.7,19.4,173.7,19.4 l5.4-28.8C266.6,1028.6,83.4,953.7,68.7,948.3z"></path> <path class="st5" d="M261,1026.2c0,0,23.4,0.8,44,10.7c20.6,9.9,22.4,18.3,21.8,19.9c-1.6,3.7-10.9,7.8-28.1,8.8 c-17.2,1-45.9-8.7-45.9-8.7S264.6,1044.9,261,1026.2z"></path> <path class="st5" d="M264.3,948.3c21.8-8.1,49.6-10.6,59.6,16.2c10.3,27.5-3.2,59.2-78.3,73.6c-53.7,10.3-173.7,19.4-173.7,19.4 l-5.4-28.8C66.4,1028.6,249.7,953.7,264.3,948.3z"></path> <path class="st5" d="M72.1,1026.2c0,0-23.4,0.8-44,10.7c-20.6,9.9-22.4,18.3-21.8,19.9c1.6,3.7,10.9,7.8,28.1,8.8 c17.2,1,45.9-8.7,45.9-8.7S68.4,1044.9,72.1,1026.2z"></path> <path class="st7" d="M211.8,726.1c-12.5-10.4-70.9-11.8-90.7,0c-35.5,16.9-19.3,124.1-19.3,124.1 c-12.1,53.2-17.2,100.5-17.2,100.5s38.3,17.3,78.5,16.3c1.1,0,2.3-0.1,3.4-0.1c1.1,0,2.3,0.1,3.4,0.1 c40.3,0.9,78.5-16.3,78.5-16.3s-5.1-47.3-17.2-100.5C231.1,850.2,245.3,744.1,211.8,726.1z"></path> <path class="st4" d="M179.6,687.4l-10.6,0.5l-10.6-0.5c0,0-13,33.3-12.1,34c0,0,7.8,7.4,20.6,8.5c0.5,0,1,0.1,1.6,0.1v0.1 c0.2,0,0.4,0,0.6,0c0.2,0,0.4,0,0.6,0V730c0.5,0,1-0.1,1.6-0.1c12.8-1.1,20.6-8.5,20.6-8.5C192.6,720.7,179.6,687.4,179.6,687.4z"></path> <path class="st1" d="M170.1,713.4c6.7,0.5,12.3-2.3,16.9-6.3c-3.4-9.3-7.5-19.7-7.5-19.7l-10.6,0.5l-10.6-0.5 c0,0-3.6,9.3-6.9,18.1C156.3,710.3,162.6,713.9,170.1,713.4z"></path> <path class="st4" d="M216.1,660.4c-1.4-3.6-6.1-6.9-11.5-3.1c-5.4,3.8-1.6,8.5-5.3,12.2c-2.7,2.7,0.3-27.2-9-28 c0,0-11,10.8-34,11.7c-10,0.4-12,11.5-12,13.9c0,2.4-1.1,3.6-3.1,0.2c-2-3.4-0.6-6.2-5.9-10c-5.4-3.8-10.1-0.5-11.5,3.1 c-1.4,3.6-1.5,14.4,5.3,18.6c6.8,4.2,9.6,0.9,9.6,0.9s10.9,28.8,31.3,27.4c20.4,1.5,31.3-27.4,31.3-27.4s2.8,3.3,9.6-0.9 C217.6,674.9,217.5,664,216.1,660.4z"></path> <path class="st7" d="M196.6,720.4c0,0,29.2-1.8,46.6,23.9c17.4,25.7,31.2,67.2,31.2,67.2s-31.8,13.4-41.3,14.8 C233.2,826.3,241.3,738.2,196.6,720.4z"></path> <path class="st4" d="M64,813.6c0,0,22.4-84.5,63.2-91.1c1.2-0.2,2.3-0.1,3.2,0.1c-2.3,0.9-4.2,1.9-5.5,3 c-31.3,16.8-21.1,110-19.5,122.7c-5.9,14.1-11.5,27-15,35.7c28.1,4.5,79.8,65.8,79.8,65.8s-108.7-4.9-127.7-22.7 c-1.3-1.2-4-5.2-4.2-5.5C26.9,900,44,850.6,64,813.6z"></path> <path class="st7" d="M140.5,719.9c0,0-29.2-1.8-46.6,23.9C76.5,769.5,62.7,811,62.7,811s31.2,13.8,40.6,15.3 C103.3,826.3,96.6,737.5,140.5,719.9z"></path> <path class="st3" d="M260.3,942.4c0,8-7.1,14.6-15.8,14.6H89.8c-8.7,0-15.8-6.5-15.8-14.6v-96.5c0-8,7.1-14.6,15.8-14.6h154.7 c8.7,0,15.8,6.5,15.8,14.6V942.4z"></path> <ellipse class="st8" cx="166.4" cy="892.3" rx="10.5" ry="11.9"></ellipse> </g> <g> <path class="st2" d="M1424,620.6c0,0-0.2-26.9,4.7-37.2c4.9-10.3,18-31.4,33.5-35.7c8.6-2.4,16.2-36.4-3-46.8 c-19.3-10.3-51.3,1.8-51.3,1.8s-37.7-23.4-63.7,60.6c-22.4,72.5-67.8,103-63.7,126.8c4.2,23.8,7.1,26.6,26,21.4 C1325.5,706.3,1424,620.6,1424,620.6z"></path> <path class="st4" d="M1395.5,775.6c16.1,13.4,106.2-12.9,106.2-12.9s19,1.1,26.2-4.6c7.2-5.7,8.4-10.9,7.2-16.4 c-1.3-5.5-4.1-10.3-10.1-10.7c-5.2-0.4-9.7,2.5-9.7,2.5s-24.3,7.9-27.5,8.7c-7.7,1.7-84.1-5.1-85.1-7.6 C1402.7,734.5,1379.5,762.2,1395.5,775.6z"></path> <path class="st7" d="M1444.2,659.7c-0.6-14.5-5.6-35.2-22.7-34.7c-39.1,1.1-34.2,117.7-34.2,117.7l0,0c-0.2,9.7,0.7,18.3,3,24.7 c0.6,2.6,1.8,5,3.9,7.1c0.1,0.1,0.1,0.2,0.2,0.3c2,2.3,4.1,3.3,6.2,3.4c24.6,7,94.4-11.9,94.4-11.9l-7.3-24.1 c-4.8,1.1-35.8-1.1-59.1-3.6C1428.7,738.5,1444.8,674.2,1444.2,659.7z"></path> <path class="st2" d="M1378.8,780.8c-43.7,46.3-16.6,84.1-7.3,123.2c9.3,39.2,6.8,47.7,6.8,47.7s-10.5,17.3-3.9,58.3 c6.6,41,22.4,119.6,22.4,119.6l23.9,4.1l15.5-167.6l4.9-176.8L1378.8,780.8z"></path> <path class="st5" d="M1371.6,975.6l62.9-179.1l-84.9-20.2c-36.5,27.9-16.6,78.3-19.8,118.5c-3.2,40.1-8.2,47.5-8.2,47.5 s-15.2,13.2-21.5,54.3c-6.3,41.1-15.3,120.7-15.3,120.7l21.5,11.2L1371.6,975.6z"></path> <path class="st5" d="M1396.8,1129.6l24.2,1.1c0,0,10.5,5.9,18.5,12.3c8,6.4,13.8,12.3,13.8,12.3h-59.1 C1394.2,1155.3,1394.8,1131.8,1396.8,1129.6z"></path> <path class="st5" d="M1286.1,1109.5l21.7,10.7c0,0,7.2,9.6,12,18.6c4.8,9.1,7.8,16.8,7.8,16.8l-54.2-23.6 C1273.4,1132.1,1283.4,1110.8,1286.1,1109.5z"></path> <path class="st7" d="M1438.6,629.7c0,0,27.7,12.9,31.9,42.4c4.1,29.6-21.8,38.9-21.8,38.9L1438.6,629.7z"></path> <path class="st7" d="M1391.9,602.4c0,0-26.6-7-47,13c-20.4,20,4.6,95.6,4.6,95.6l-20.9,85.5c0,0,31.1,10.6,63.1,13 c32,2.4,52.5,0,52.5,0s14.3-107,9.7-149.7c-3.1-28.8-5.6-22.8-10.3-32.4C1430,599.7,1391.9,602.4,1391.9,602.4z"></path> <path class="st4" d="M1452.3,720.2c-14.6-5.6-30.7,4.5-36,8.4l-0.3-1.2c-7.4,2.6-84.1,4.7-85.4,2.4c0,0-19.8,30.2-2.3,41.7 c17.5,11.4,93.4-21,93.4-21l-0.8-3.4c5.4,4.1,21.5,4.3,22.7-0.3c1.3-4.9-12.4,0.9-7.3-6.3c5.1-7.2,23,5.3,27.7,3.5 C1468.3,742.2,1470.2,727,1452.3,720.2z"></path> <path class="st7" d="M1376.7,640.1c-2.3-14.4-15-41.4-40.3-21.3c-30.7,24.4-20.2,120.9-20.2,120.9l0,0c1,9.6,2.9,18.1,5.9,24.1 c0.9,2.5,2.4,4.7,4.7,6.6c0.1,0.1,0.2,0.2,0.2,0.2c2.2,2,4.4,2.8,6.6,2.7c25.3,4,92.4-22.9,92.4-22.9l-10-23.1 c-4.6,1.6-35.7,3.1-59.1,3.4C1356.9,730.7,1378.9,654.5,1376.7,640.1z"></path> <polygon class="st3" points="1522.7,687.4 1459.3,759 1521.7,759 1589,686.4 "></polygon> <path class="st4" d="M1535.2,742.7c0,0-5.3-9.6-13.7-7.2c-8.4,2.4,2.6,20.9,2.6,20.9S1535.1,752.2,1535.2,742.7z"></path> <path class="st4" d="M1414.6,578.7l-3.2,38.4c0,0-25,3-32.3-7.9c-7.3-10.9,15.3-34.8,15.3-34.8L1414.6,578.7z"></path> <path class="st1" d="M1390.4,581.2c0,0,10,11.1,22.9,13.9l1.4-16.5l-13.3-16L1390.4,581.2z"></path> <path class="st4" d="M1445.5,532.4c0,0,6.6,52.3-15.1,57.9c-16.9,4.4-36-15.9-36-15.9S1421.2,521.4,1445.5,532.4z"></path> <path class="st4" d="M1414.6,555.5c-0.6,4.9-5.5,8.4-10.9,7.7c-5.4-0.7-9.2-5.2-8.6-10.2c0.6-4.9,5.5-8.4,10.9-7.7 C1411.3,546,1415.2,550.6,1414.6,555.5z"></path> <path class="st2" d="M1394.4,574.4c0,0-22.1,34.5-16.5,51.9c5.7,17.4-7.3,8.9-21.8,2s-35.7,4.2-44.9,23.4 c-9.2,19.2,8.5-40.5,36.1-52.8C1375,586.6,1394.4,574.4,1394.4,574.4z"></path> </g> <g> <g> <path class="st4" d="M915.8,849.8c14,15.6,107,2.3,107,2.3s18.6,3.8,26.6-0.8c8-4.7,9.9-9.6,9.5-15.3c-0.5-5.7-2.6-10.8-8.5-12.1 c-5.1-1.1-13.9,1.6-13.9,1.6l4-0.5c0,0,0.2-6.4-7.7-5.1c-14,2.4-17.5,9.5-20.8,9.8c-7.9,0.6-82.6-17-83.2-19.6 C928.7,810.1,901.8,834.3,915.8,849.8z"></path> <path class="st6" d="M851.5,763.8c0-0.1,0.1-0.2,0.1-0.3c3-10.9,17-18.3,27.4-14.7c12.8,4.4,34.3,39.7,34.3,39.7l0,0 c8.5,11.9,14,20.8,15.4,21.6c0.1,0,0.2,0.2,0.3,0.3c5.3,3.3,76,17.8,83.6,17.2l5.5,27.1c0,0-74.3,9-97.4-1.5 c-13.7-5.6-30.7-22.3-45.1-40.9l0,0c0,0-15.5-17-22.6-35.5c0-0.1-0.1-0.1-0.1-0.2c0-0.1-0.1-0.3-0.1-0.4 c-0.4-1.1-0.8-2.1-1.1-3.1c0-0.2-0.1-0.3-0.1-0.5c0-0.1,0-0.1,0-0.2c-0.2-0.9-0.4-1.7-0.5-2.5c0-0.2,0-0.3-0.1-0.5 c-0.2-2-0.1-3.6,0.3-5.1C851.4,764.2,851.4,764,851.5,763.8z"></path> </g> <g> <path class="st3" d="M1121.6,835.1h-95c-3.1,0-5.3-3-4.4-6l23.4-74.3c0.6-1.9,2.4-3.2,4.4-3.2h91.8c3,0,5.2,2.9,4.4,5.8 l-20.2,74.3C1125.5,833.7,1123.6,835.1,1121.6,835.1z"></path> <polygon class="st9" points="1119.3,829.3 1029.2,829.3 1051.8,757.5 1138.8,757.5 "></polygon> <polygon class="st3" points="1121.4,835.1 982,835.1 986.1,826.8 1125.1,826.8 "></polygon> </g> <path class="st5" d="M1015.9,842.1l-135,55.6l0.5,9.4l-19.9,42.7c0,0-1.6,57.5,43,46.7c32.9-8,69.9-48.9,84.3-61.8 c27.2-24.4,39.4-30,42.3-31.2c6.5,6.6,15.6,14.2,28.3,22.1c37.3,23.3,101.7,72.2,101.7,72.2l33.4-11.5l-127.2-140.6 C1052.4,830,1015.9,842.1,1015.9,842.1z"></path> <path class="st4" d="M932.4,681.7c0,0,11.8,45.9-6.9,53.3c-14.6,5.8-31.8-9.5-31.8-9.5S909.5,674.7,932.4,681.7z"></path> <path class="st1" d="M922.3,735.9c-6.9-6-6.9-19.6-6.9-19.6s-12.7-9.8-18.6,0.7c-0.7,1.8-1.3,3.4-1.8,4.7 c-0.1,0.4-0.2,0.7-0.3,1.1c-0.2,1.1-0.3,2.2-0.2,3.2C897.7,728.8,910.3,738.3,922.3,735.9z"></path> <path class="st4" d="M887.4,717.9c0,0-11.2,28.1-11.5,34.7c0,0.9,8.2,6.1,18.5,5.5c17-1.1,17.1-4.9,17.1-4.9s-1.1-9.9-1.2-21.2 c-0.1-9,1.2-12.6,1.2-12.6L887.4,717.9z"></path> <path class="st2" d="M908.5,725.6c0,0-10,4.5-25,0c-15-4.5-28.7-23.2-25.2-42c3.2-17.2,11.5-18.4,11.5-18.4s6.2-31.5,45.1-21 c27.2,7.3,35,35.4,15.8,55.4C911.5,719.5,908.5,725.6,908.5,725.6z"></path> <path class="st2" d="M918.1,701.4c0,0,2.5,15.8,4.5,16.5c1.9,0.7,0-21.6,0-21.6L918.1,701.4z"></path> <path class="st4" d="M920,711.1c0,0-1.1-7.9-6.5-5.2c-5.4,2.7-1.9,9.1,1.9,10.5C919.2,717.8,920,711.1,920,711.1z"></path> <path class="st5" d="M1080.4,959.2L1080.4,959.2l-1-0.2l-1.1-0.2l0,0.1l-192.5-24.5l-0.5,4.8l-52.4-4.8c0,0-20,99.1,75.3,102.5 c17.7,0.6,30.1-1.3,38.4-5c19.4-4.5,39.2-11.5,57.8-13.5c32.3-3.5,43.2-1.9,51.1-0.9l-0.1,0.1c0,0,16.8,13.3,60.7,11.8 c44-1.5,128.6-7.7,128.6-7.7l7.5-24.6L1080.4,959.2z"></path> <path class="st5" d="M1236.6,1022l6.9-24.7c0,0,8.5-9.4,17-16.2c8.5-6.8,15.9-11.4,15.9-11.4l-14,61 C1262.5,1030.7,1238.4,1024.5,1236.6,1022z"></path> <path class="st7" d="M897.4,747.6c0,0-33-13-49.8,15.3c-8.1,13.7-3.2,104.4-3.2,104.4L827,969.8c0,0,37,30.3,61.9,9 c44.8-38.2,73.2-34.7,73.2-34.7s-11.5-78.7-7-135.2c2.3-29.2-11.2-35.2-19-42.7C922.7,753.3,897.4,747.6,897.4,747.6z"></path> <g> <g> <g> <path class="st4" d="M982.2,867c15.8,13.7,102.7-12.5,102.7-12.5s21.3-2.3,30.1-6c8.5-3.6,10-7,8.8-12.6 c-1.2-5.6-7.9-1.7-13.9-1.6c-13.9,0.2-10.1-3.7-10.1-3.7s3.3-0.8,5-3.7c1.7-2.9-2.6-6.3-10.2-3.9 c-13.6,4.1-16.2,11.6-19.5,12.2c-7.7,1.6-84.1-6.7-85-9.2C990.2,826,966.4,853.3,982.2,867z"></path> </g> <g> <path class="st7" d="M907.8,789.5c0-0.1,0-0.2,0.1-0.3c1.7-11.2,14.6-20.2,25.4-18c13.3,2.8,38.9,35.2,38.9,35.2l0,0 c9.9,10.8,16.5,19,18,19.5c0.1,0,0.2,0.1,0.4,0.3c5.7,2.6,77.6,8.3,85.1,6.7l8.8,26.2c0,0-72.6,18.1-96.9,10.5 c-14.3-3.9-33.3-18.4-49.8-35l0,0c0,0-17.5-15-26.8-32.4c0-0.1-0.1-0.1-0.1-0.2c-0.1-0.1-0.1-0.2-0.2-0.4c-0.6-1-1-2-1.4-2.9 c-0.1-0.1-0.1-0.3-0.2-0.4c0-0.1,0-0.1-0.1-0.2c-0.3-0.8-0.6-1.6-0.8-2.4c0-0.2-0.1-0.3-0.1-0.5c-0.5-1.9-0.6-3.6-0.4-5.1 C907.8,790,907.8,789.8,907.8,789.5z"></path> </g> </g> </g> </g> <ellipse transform="matrix(0.7071 -0.7071 0.7071 0.7071 -439.047 804.9053)" class="st0" cx="752.1" cy="932.4" rx="102.6" ry="102.6"></ellipse> </g> <path class="st8" d="M1043.2,805.7l75.1,0.9l6.5-23.5c0,0-7.1-6.2-17.1,3.2c-10,9.4-15.7,9.4-22,4.1c-6.4-5.4-10.7-8.3-15.2,0.6 c-4.5,8.9-11.8,9.5-17.9,7.5C1046.6,796.4,1043.2,805.7,1043.2,805.7z"></path> </svg> 